<svg xmlns="http://www.w3.org/2000/svg" xmlns:xlink="http://www.w3.org/1999/xlink" width="142" height="142" viewBox="0 0 142 142"><defs><filter id="a" x="0" y="0" width="142" height="142" filterUnits="userSpaceOnUse"><feOffset dy="3" input="SourceAlpha"/><feGaussianBlur stdDeviation="3" result="b"/><feFlood flood-opacity="0.161"/><feComposite operator="in" in2="b"/><feComposite in="SourceGraphic"/></filter><clipPath id="c"><rect width="100.603" height="100.602" fill="none"/></clipPath></defs><g transform="translate(-1083.51 -4493)"><g transform="matrix(1, 0, 0, 1, 1083.51, 4493)" filter="url(#a)"><path d="M62,0A62,62,0,1,1,0,62,62,62,0,0,1,62,0Z" transform="translate(9 6)" fill="#fcd03e"/></g><g transform="translate(1106.856 4504.05)"><g clip-path="url(#c)"><path d="M85.08,100.6H82.526c-3.47-.377-5.571-2.471-6.833-5.544a1.289,1.289,0,0,0-1.432-.871q-6.676.02-13.352.006c-4.539,0-7.528-2.977-7.54-7.492-.005-1.964-.018-3.927.007-5.89a1.429,1.429,0,0,0-.985-1.5c-2.9-1.278-5.31-3.1-6.463-6.212a1.156,1.156,0,0,0-1.034-.767,20.174,20.174,0,0,1-2.981-.6,1.562,1.562,0,0,0-1.514.468,12.611,12.611,0,0,1-6.514,2.753A12.534,12.534,0,0,1,21.418,69.19a1.743,1.743,0,0,0-2.078-.872,15.792,15.792,0,0,1-7.931-.592c-1.044-.35-1.112-.3-1.113.816-.006,4.647.015,9.294-.018,13.941a1.517,1.517,0,0,0,1.133,1.671A8.454,8.454,0,0,1,16.7,94.484a7.779,7.779,0,0,1-7.07,6.118H8.056c-.313-.205-.663-.055-.992-.1C3.95,100.742.307,96.867.147,94.374A.954.954,0,0,0,0,93.725V90.778c.443-3.443,2.483-5.57,5.622-6.76a1.083,1.083,0,0,0,.79-1.175q-.015-8.44,0-16.879a1.9,1.9,0,0,0-.77-1.5A17.216,17.216,0,0,1,.816,57.641,19.385,19.385,0,0,1,0,53.838V49.515A15.06,15.06,0,0,1,2.219,42.8a2.011,2.011,0,0,0,.195-1.332,8.145,8.145,0,0,1,4.116-8.16A2.094,2.094,0,0,0,7.7,31.662a10.469,10.469,0,0,1,9.444-8.719,8.856,8.856,0,0,1,2.826.227,1.338,1.338,0,0,0,1.472-.454,14.333,14.333,0,0,1,9.252-4.869c.675-.088.89-.389.876-1.02-.021-.948-.007-1.9,0-2.847a7.147,7.147,0,0,1,7.575-7.57c6.053,0,12.107-.017,18.16.017A1.515,1.515,0,0,0,59.02,5.264,8.477,8.477,0,0,1,62.841.813,8.633,8.633,0,0,1,65.628,0h2.555a7.821,7.821,0,0,1,6.729,4.827c2.676,5.455-1.5,12.041-7.572,12.179a8.7,8.7,0,0,1-8.326-5.569,1.557,1.557,0,0,0-1.745-1.161c-5.992.031-11.983.011-17.975.019-2.587,0-3.834,1.269-3.847,3.879-.005,1.015,0,2.03,0,3.045a.98.98,0,0,0,.773,1.09,13.988,13.988,0,0,1,3.054,1.333,1.19,1.19,0,0,0,1.508-.132,8.344,8.344,0,0,1,11.547,1.273,2.1,2.1,0,0,0,1.8.964A15.6,15.6,0,0,1,62.694,24.2c.971.578.974.579,1.484-.424,1.441-2.834,3.9-3.95,6.921-3.99,3.765-.049,7.531-.01,11.3-.013,1.352,0,1.352,0,1.835-1.262a8.6,8.6,0,0,1,15.912-.159,15.253,15.253,0,0,1,.46,2.282v2.555c-.446,3.594-2.613,5.737-5.9,6.855a8.593,8.593,0,0,1-10.488-5c-.529-1.392-.529-1.394-2.039-1.394q-5.157,0-10.313,0A8.542,8.542,0,0,0,70.1,23.8a3.275,3.275,0,0,0-2.112,5.321,16.827,16.827,0,0,1,2.737,5.938A1.739,1.739,0,0,0,72,36.489a8.242,8.242,0,0,1,5.454,5.856c.2.714.516,1.047,1.286,1.022,1.341-.043,2.685-.036,4.026,0a1.176,1.176,0,0,0,1.3-.908,8.549,8.549,0,0,1,4.547-5.03,8.673,8.673,0,0,1,11.6,4.591c.255.652.186,1.346.39,2v2.751a8.153,8.153,0,0,1-6.77,6.968,8.474,8.474,0,0,1-9.681-5.406,1.471,1.471,0,0,0-1.661-1.116c-1.4.063-2.814,0-4.221.022-.938.013-1.075.209-.664,1.058a13.376,13.376,0,0,1,1.458,6.049A12.779,12.779,0,0,1,76.9,61.368a9.909,9.909,0,0,0-1.255,2.642,17.087,17.087,0,0,1-5.886,8.614.981.981,0,0,0-.308,1.432,18.765,18.765,0,0,1,1.438,3.435,6.222,6.222,0,0,1-2.41,7.183,6.411,6.411,0,0,1-7.819-.574,26.286,26.286,0,0,0-2.369-2.2c-.258-.178-.533-.508-.864-.322-.278.155-.169.537-.17.824-.006,1.473-.029,2.946,0,4.418a3.286,3.286,0,0,0,3.536,3.489c4.516.026,9.033-.009,13.549.023a1.275,1.275,0,0,0,1.383-1.067,8.625,8.625,0,0,1,8.94-5.642,8.788,8.788,0,0,1,7.5,6.3,8.657,8.657,0,0,1-4.993,10.259c-.683.269-1.406.221-2.089.421"/><path d="M26.847,383.247a.35.35,0,0,1-.051-.162,1.113,1.113,0,0,1,1.033.162Z" transform="translate(-19.773 -282.645)" fill="#3b3b3b"/><path d="M78.445,123.149a8.989,8.989,0,0,1-8.064-.974c-.523-.312-.312-.575-.091-.936a6.678,6.678,0,0,0,.5-6.382c-.465-1.111-1.309-1.551-2.229-1.2a1.7,1.7,0,0,0-.892,2.426,3.542,3.542,0,0,1-1.58,4.621,3.587,3.587,0,0,1-4.7-1.424c-.722-1.063-1.587-1.327-2.473-.755a1.732,1.732,0,0,0-.38,2.511,6.7,6.7,0,0,0,7.739,3.146,1.647,1.647,0,0,1,1.737.355,12.715,12.715,0,0,0,8.653,2.554c.081.635-.388,1.014-.733,1.4-1.43,1.621-2.774,3.36-4.959,4.066a1.906,1.906,0,0,0-1.639,1.326,1.623,1.623,0,0,0,1.579,2.057,12.854,12.854,0,0,0,1.632-.206c1.59,1.34,1.923,4.783.589,6.081-.551-.139-.839-.6-1.189-.981a12.744,12.744,0,0,0-5-3.363,36.2,36.2,0,0,1-4.714-1.93,7.6,7.6,0,0,1-2.837-2.364c-.625-.926-.572-1,.5-1.182a23.008,23.008,0,0,0,2.486-.547,1.669,1.669,0,0,0,1.3-2,1.63,1.63,0,0,0-2.128-1.2,17.2,17.2,0,0,1-10.884-.419,1.825,1.825,0,0,0-2.078.717,9.357,9.357,0,0,1-16.131-5.047,9.708,9.708,0,0,1,1.1-5.97,1.729,1.729,0,0,0-.522-2.56c-.9-.493-1.82-.152-2.417.951a8.833,8.833,0,0,0-.839,1.874c-.193.725-.618.733-1.179.62-1.548-.312-2.549-1.57-2.777-3.5a1.643,1.643,0,0,0-2.1-1.582,1.833,1.833,0,0,0-1.228,2.092,6.862,6.862,0,0,0,5.782,6.3c.521.095.682.239.722.773.167,2.269.19,2.268-2.154,2.473A13.31,13.31,0,0,1,13,113.914a13.629,13.629,0,0,1,1.093-7.787c.592.469,1.128.942,1.713,1.344a1.7,1.7,0,0,0,2.445-.267,1.73,1.73,0,0,0-.541-2.471c-2.389-1.813-2.98-4.53-1.48-6.8a4.85,4.85,0,0,1,7.505-.657c.158.166.288.358.447.521a1.635,1.635,0,0,0,2.292.24,1.6,1.6,0,0,0,.28-2.35,7.9,7.9,0,0,0-5.343-3.162c-.384-.061-.651-.026-.581-.6.408-3.342,4.562-6.047,7.847-5.041-.149.462-.312.919-.444,1.386a1.742,1.742,0,0,0,1.057,2.387c.957.287,1.8-.277,2.165-1.458a10.329,10.329,0,0,1,8.311-7.581,10.182,10.182,0,0,1,7.452,1.374.673.673,0,0,1,.367.943,6.121,6.121,0,0,0-.374,2.018,1.755,1.755,0,0,0,1.58,1.994,1.738,1.738,0,0,0,1.761-1.822,4.71,4.71,0,0,1,4.092-4.655c.689-.038.955.51,1.216.967a1.785,1.785,0,0,0,1.848.966,2.373,2.373,0,0,1,1.7.241,3.748,3.748,0,0,1,.777,2.253c.08,1.318.719,2.069,1.733,2.053.981-.015,1.554-.7,1.591-2.019.013-.451.16-.553.567-.529a6.438,6.438,0,0,1,2.187.4c3.36,1.712,5.361,4.575,6.736,7.964a16.235,16.235,0,0,1,.845,3.218,1.472,1.472,0,0,1-.093,1.046c-.677,1.06-.679,1.811-.005,2.466.629.612,1.382.612,2.407-.009a3.705,3.705,0,0,1,2.093-.71,3.352,3.352,0,0,1,1.646,1.977,6.752,6.752,0,0,1,.284,4.869,1.966,1.966,0,0,0,.063,1.942.66.66,0,0,1-.027.823c-.67,1.432-.354,2.178,1.174,2.774a3.817,3.817,0,0,1,.444,2.82,10.735,10.735,0,0,1-2.295,6.116c-.508.633-.562,1.457-1.092,2.047" transform="translate(-9.479 -60.078)" fill="#ecc19c"/><path d="M241.353,23.043a4.965,4.965,0,0,1-.474-9.834,1.114,1.114,0,0,1,1.274.468,6.9,6.9,0,0,1,.059,8.743,2.52,2.52,0,0,1-.86.623" transform="translate(-174.741 -9.704)" fill="#b4dd7f"/><path d="M336.7,163.606a4.968,4.968,0,0,1,.616-9.811,2.319,2.319,0,0,1,.923.7,7.051,7.051,0,0,1,.049,8.491,1.3,1.3,0,0,1-1.589.618" transform="translate(-245.555 -113.487)" fill="#b4dd7f"/><path d="M16.849,342.786a4.963,4.963,0,0,1,.446-9.825,4,4,0,0,1,.75.46c2.214,1.971,2.2,7.1-.031,9.065a1.078,1.078,0,0,1-1.164.3" transform="translate(-9.432 -245.696)" fill="#b4dd7f"/><path d="M304.739,342.786a4.963,4.963,0,0,1,.446-9.825,4,4,0,0,1,.75.46c2.214,1.971,2.2,7.1-.031,9.065a1.078,1.078,0,0,1-1.164.3" transform="translate(-221.87 -245.696)" fill="#b4dd7f"/><path d="M337.313,74.238a4.955,4.955,0,0,1-.221-9.853c.548-.075.817.338,1.108.669a6.81,6.81,0,0,1,.106,8.415,3.652,3.652,0,0,1-.992.77" transform="translate(-245.552 -47.504)" fill="#b4dd7f"/><path d="M263.144,206.153a4.941,4.941,0,0,1,1.072-2.443,10.431,10.431,0,0,0,1.889-8.148,2.61,2.61,0,0,1-.019-.391,4.342,4.342,0,0,0,2.266-1.064c.384-.286.566-.317.749.195a9.194,9.194,0,0,1-5.958,11.852" transform="translate(-194.178 -143.083)" fill="#ce9768"/><path d="M224.158,110.4a15.836,15.836,0,0,0-6.921-11.719c-.213-.145-.479-.227-.568-.509a11.586,11.586,0,0,1,5.505,2.568,13.948,13.948,0,0,1,4.888,7.363c.164.572.17.952-.569,1.107a7.342,7.342,0,0,0-2.336,1.191" transform="translate(-159.883 -72.439)" fill="#ce9768"/><path d="M316.19,342.677c.691.022,1.036-.478,1.39-.944,1.915-2.52,1.508-6.68-.637-8.5a2.6,2.6,0,0,1-.307-.377,4.675,4.675,0,0,1,4.8,2.352,4.727,4.727,0,0,1-.044,5.275,4.9,4.9,0,0,1-4.743,2.339,2,2,0,0,1-.458-.141" transform="translate(-233.321 -245.588)" fill="#93c651"/><path d="M349.493,74.013a6.842,6.842,0,0,0,2.144-5.155,5.7,5.7,0,0,0-2.365-4.7,4.923,4.923,0,0,1,5.659,4.163,5.038,5.038,0,0,1-4.083,5.683,2.439,2.439,0,0,1-1.355.007" transform="translate(-257.732 -47.279)" fill="#93c651"/><path d="M28.3,342.678c.691.022,1.036-.478,1.39-.944,1.915-2.52,1.508-6.68-.637-8.5a2.587,2.587,0,0,1-.307-.377,4.677,4.677,0,0,1,4.8,2.352,4.728,4.728,0,0,1-.044,5.275,4.9,4.9,0,0,1-4.743,2.338,1.991,1.991,0,0,1-.458-.141" transform="translate(-20.883 -245.589)" fill="#93c651"/><path d="M347.772,163.564a1.428,1.428,0,0,0,1.376-.741c1.941-2.781,1.971-6.108-.759-9.07a4.975,4.975,0,0,1,5.489,5.043,5.067,5.067,0,0,1-5.553,4.928,2.935,2.935,0,0,1-.553-.16" transform="translate(-256.626 -113.445)" fill="#93c651"/><path d="M252.825,22.828a7.31,7.31,0,0,0,2.157-5.157,7.091,7.091,0,0,0-1.755-4.33,1.139,1.139,0,0,0-.875-.347,4.941,4.941,0,0,1,5.91,4.139,5.039,5.039,0,0,1-4.464,5.723,9.232,9.232,0,0,1-.973-.028" transform="translate(-186.213 -9.489)" fill="#93c651"/><path d="M264.358,161.026c0-.1.035-.231-.015-.288-.935-1.062-.329-2.135-.1-3.248a6.552,6.552,0,0,0-1.848-6.075,4.661,4.661,0,0,1,5.142,3.3,4.806,4.806,0,0,1-2.208,5.657c-.333.2-.646.437-.968.658" transform="translate(-193.623 -111.712)" fill="#ce9768"/><path d="M241.242,292.764c1.174-2.16.349-4.126-.589-6.081.465-.149.93-.293,1.393-.447,1.339-.446,1.331-.443,1.979.862a16.322,16.322,0,0,1,1.033,2.638,2.486,2.486,0,0,1-.833,2.82,2.377,2.377,0,0,1-2.983.208" transform="translate(-177.581 -211.02)" fill="#ce9768"/><path d="M234.656,258.944a17.232,17.232,0,0,0,5.691-5.47,24.425,24.425,0,0,0,3.243-.791c-.635,2.485-5.311,5.735-8.934,6.261" transform="translate(-173.156 -186.458)" fill="#ce9768"/><path d="M177.1,83.519c-.161,0-.323,0-.483.016-1.564.163-3.011.095-3.706-1.686-.082-.21-.377-.337-.573-.5a4.47,4.47,0,0,1,4.762,2.172" transform="translate(-127.173 -59.952)" fill="#ce9768"/><path d="M130.251,176.439a12.4,12.4,0,0,1-6.79-3.594c-.861-.9-.935-1.874-.2-2.591.755-.735,1.666-.648,2.584.246a8.812,8.812,0,0,0,15.024-4.2c.31-1.207,1.064-1.753,2.1-1.52.983.222,1.448,1.133,1.137,2.33a12.014,12.014,0,0,1-9.414,9.216,1.342,1.342,0,0,0-1.039.851,9.672,9.672,0,0,1-8.762,5.932c-1.249.066-2.024-.561-2.06-1.581-.034-.966.658-1.679,1.852-1.739a6.855,6.855,0,0,0,4.361-1.767,5.071,5.071,0,0,0,1.207-1.58" transform="translate(-90.585 -121.552)"/><path d="M89.726,141.378a9.2,9.2,0,0,1,8.783-8.658c1.22-.026,2.023.6,2.065,1.6s-.712,1.666-1.938,1.745a5.814,5.814,0,0,0-5.558,5.449c-.083.894-.262,1.715-1.256,2-1.281.367-2.2-.58-2.1-2.134" transform="translate(-66.205 -97.936)"/></g></g></g></svg>