<svg xmlns="http://www.w3.org/2000/svg" xmlns:xlink="http://www.w3.org/1999/xlink" width="87.279" height="87.279" viewBox="0 0 87.279 87.279"><defs><filter id="a" x="0" y="0" width="87.279" height="87.279" filterUnits="userSpaceOnUse"><feOffset dy="3" input="SourceAlpha"/><feGaussianBlur stdDeviation="3" result="b"/><feFlood flood-opacity="0.161"/><feComposite operator="in" in2="b"/><feComposite in="SourceGraphic"/></filter></defs><g transform="translate(-276 -3280.628)"><g transform="translate(28.915 10)"><g transform="matrix(1, 0, 0, 1, 247.08, 3270.63)" filter="url(#a)"><ellipse cx="34.639" cy="34.639" rx="34.639" ry="34.639" transform="translate(9 6)" fill="#fc8116"/></g><g transform="translate(249.277 3262.711)"><g transform="translate(9.061 17.062)"><path d="M16,440H79.672v3.714a2.653,2.653,0,0,1-2.653,2.653H18.653A2.653,2.653,0,0,1,16,443.714Z" transform="translate(-16 -384.817)" fill="#969faa"/><path d="M94.2,168h12.2a2.652,2.652,0,0,1,2.653,2.653v33.428H56V170.653A2.652,2.652,0,0,1,58.653,168h12.2" transform="translate(-50.694 -148.898)" fill="#828a94"/><path d="M219.541,443.184H209.061L208,440h12.734Z" transform="translate(-182.531 -384.817)" fill="#57565c"/><path d="M115.02,192h11.673v29.714H80V192H91.673" transform="translate(-71.51 -169.715)" fill="#b4dd7f"/><path d="M107.476,192h9.159v29.714H80V192h9.159" transform="translate(-62.537 -169.715)" fill="#d9fea9" opacity="0.8"/><path d="M129.469,68.734A12.734,12.734,0,1,1,116.734,56V68.734Z" transform="translate(-92.327 -51.755)" fill="#fde07e"/><path d="M244.734,36.734H232V24A12.734,12.734,0,0,1,244.734,36.734Z" transform="translate(-203.348 -24)" fill="#dbffac"/><g transform="translate(13.796 30.775)"><path d="M320,256h9.551v3.184H320Z" transform="translate(-293.47 -256)" fill="#fde07e"/><path d="M120,328h21.224v6.367H120Z" transform="translate(-120 -318.449)" fill="#dbffac"/></g></g><g transform="translate(8 16)"><path d="M72.733,98.938H68.489V66.571a3.718,3.718,0,0,0-3.714-3.714H47.225q.04-.525.04-1.061A1.061,1.061,0,0,0,46.2,60.734H34.53V49.061A1.061,1.061,0,0,0,33.469,48a13.81,13.81,0,0,0-13.8,13.8q0,.535.04,1.061H17.02a3.718,3.718,0,0,0-3.714,3.714V98.938H9.061A1.061,1.061,0,0,0,8,100v3.714a3.718,3.718,0,0,0,3.714,3.714H70.08a3.718,3.718,0,0,0,3.714-3.714V100A1.061,1.061,0,0,0,72.733,98.938ZM32.408,50.17V61.8a1.061,1.061,0,0,0,1.061,1.061H45.094a11.688,11.688,0,0,1-5.648,8.959L36.369,68.5a1.061,1.061,0,0,0-1.555,1.443l2.624,2.825a11.672,11.672,0,1,1-5.03-22.6Zm1.061,25.421a13.725,13.725,0,0,0,5.517-1.153l2.726,2.936a1.061,1.061,0,0,0,.777.34H46.2a1.061,1.061,0,1,0,0-2.122H42.952L40.919,73.4a13.914,13.914,0,0,0,4.786-5.24H63.183V95.754H18.612V68.163h2.621A13.809,13.809,0,0,0,33.469,75.591Zm-18.04-9.02a1.593,1.593,0,0,1,1.592-1.592h3.024q.127.539.3,1.061H17.551A1.061,1.061,0,0,0,16.49,67.1V96.815a1.061,1.061,0,0,0,1.061,1.061H64.244A1.061,1.061,0,0,0,65.3,96.815V67.1a1.061,1.061,0,0,0-1.061-1.061H46.6q.169-.521.3-1.061H64.774a1.593,1.593,0,0,1,1.592,1.592V98.938H15.428ZM45.734,101.06l-.4,1.061H36.357L36,101.06Zm25.938,2.653A1.593,1.593,0,0,1,70.08,105.3H11.714a1.593,1.593,0,0,1-1.592-1.592V101.06H33.765l.82,2.458a1.061,1.061,0,0,0,1.007.726H46.071a1.062,1.062,0,0,0,.994-.688l.935-2.5H71.672Z" transform="translate(-8 -43.755)"/><path d="M225.061,30.857H237.8a1.061,1.061,0,0,0,1.061-1.061,13.811,13.811,0,0,0-13.8-13.8A1.061,1.061,0,0,0,224,17.061V29.8A1.061,1.061,0,0,0,225.061,30.857Zm1.061-12.687a11.693,11.693,0,0,1,10.564,10.564H226.122Z" transform="translate(-195.348 -16)"/><path d="M313.061,253.306h9.551a1.061,1.061,0,0,0,1.061-1.061v-3.184A1.061,1.061,0,0,0,322.612,248h-9.551A1.061,1.061,0,0,0,312,249.061v3.184A1.061,1.061,0,0,0,313.061,253.306Zm1.061-3.184h7.428v1.061h-7.428Z" transform="translate(-271.674 -217.225)"/><path d="M313.061,306.122h9.551a1.061,1.061,0,0,0,0-2.122h-9.551a1.061,1.061,0,1,0,0,2.122Z" transform="translate(-271.674 -265.797)"/><path d="M313.061,338.122h9.551a1.061,1.061,0,0,0,0-2.122h-9.551a1.061,1.061,0,1,0,0,2.122Z" transform="translate(-271.674 -293.552)"/><path d="M313.061,370.122h5.306a1.061,1.061,0,0,0,0-2.122h-5.306a1.061,1.061,0,1,0,0,2.122Z" transform="translate(-271.674 -321.307)"/><path d="M113.061,328.49h21.224a1.061,1.061,0,0,0,1.061-1.061v-6.367A1.061,1.061,0,0,0,134.285,320H113.061A1.061,1.061,0,0,0,112,321.061v6.367A1.061,1.061,0,0,0,113.061,328.49Zm1.061-6.367h19.1v4.245h-19.1Z" transform="translate(-98.204 -279.674)"/></g></g></g></g></svg>