<svg xmlns="http://www.w3.org/2000/svg" xmlns:xlink="http://www.w3.org/1999/xlink" width="142" height="142.46" viewBox="0 0 142 142.46"><defs><filter id="a" x="0" y="0.46" width="142" height="142" filterUnits="userSpaceOnUse"><feOffset dy="3" input="SourceAlpha"/><feGaussianBlur stdDeviation="3" result="b"/><feFlood flood-opacity="0.161"/><feComposite operator="in" in2="b"/><feComposite in="SourceGraphic"/></filter></defs><g transform="translate(-732.752 -4492.539)"><g transform="matrix(1, 0, 0, 1, 732.75, 4492.54)" filter="url(#a)"><path d="M62,0A62,62,0,1,1,0,62,62,62,0,0,1,62,0Z" transform="translate(9 6.46)" fill="#fcd03e"/></g><g transform="translate(742.752 4492.539)"><g transform="translate(0)"><path d="M128.7,57.353A17.99,17.99,0,0,0,117.711,40.78,16.042,16.042,0,0,0,96.424,19a16.04,16.04,0,0,0-30.893,0A16.04,16.04,0,0,0,44.243,40.78a17.982,17.982,0,0,0,6.175,34.529c1.332,4.823,6.473,8.418,12.618,8.418a14.292,14.292,0,0,0,8.97-3.035,14.774,14.774,0,0,0,17.941,0,14.291,14.291,0,0,0,8.97,3.035c6.145,0,11.287-3.6,12.618-8.418A17.979,17.979,0,0,0,128.7,57.353Z" transform="translate(-31.694 -5.726)" fill="#129b12"/><g transform="translate(46.073 1.561)"><path d="M243.265,7.319c-.2.012-.394.026-.59.045l-.179.019c-.21.023-.419.049-.626.08l-.117.017c-.247.039-.492.081-.736.131h0A17.691,17.691,0,0,1,251.667,15.1a8.882,8.882,0,0,0,7.943,3.913l.063,0A16.044,16.044,0,0,0,244.227,7.287c-.258,0-.514.007-.769.02C243.393,7.31,243.329,7.315,243.265,7.319Z" transform="translate(-241.016 -7.287)" fill="#097c09"/><path d="M346.755,77.8a16.046,16.046,0,0,0-17.462-23.076A16.041,16.041,0,0,1,340.333,77.8a17.982,17.982,0,0,1-6.175,34.529c-1.091,3.953-4.743,7.08-9.408,8.08a15.294,15.294,0,0,0,3.211.339c6.145,0,11.287-3.6,12.618-8.418A17.982,17.982,0,0,0,346.755,77.8Z" transform="translate(-306.81 -44.309)" fill="#097c09"/></g><path d="M166.945,335.839c-1.447,2.454-7.442,5.2-9.665,5.353q.367.079.742.139l.06.01q.38.06.768.1l.02,0c.232.025.467.042.7.056l.173.009c.246.012.494.02.743.02h0a14.436,14.436,0,0,0,8.335-2.559l.4-.287-2.012-3.3Z" transform="translate(-129.147 -263.529)" fill="#009000"/><path d="M202.186,273.931l6.872-10.844a2.055,2.055,0,0,0-.387-2.65h0a2.055,2.055,0,0,0-2.811.106l-5.061,5.124a1,1,0,0,1-1.693-.832l1.488-11.027a2.055,2.055,0,0,0-1.9-2.325l-1.394-.094a2.055,2.055,0,0,0-2.162,1.694l-2.656,15.093a1,1,0,0,1-1.751.455l-8.32-10.232a2.055,2.055,0,0,0-2.391-.6l-1.457.612a2.055,2.055,0,0,0-.966,2.952l8.55,14.251a10.689,10.689,0,0,1,1.439,6.872c-1.108,8.546-2.484,16.606-8.117,23.171h29.391c-6.03-7.028-7.517-15.769-8.315-24.985A10.842,10.842,0,0,1,202.186,273.931Z" transform="translate(-144.882 -197.525)" fill="#bf6101"/><path d="M271.636,263.489a2.055,2.055,0,0,0-.387-2.65h0a2.055,2.055,0,0,0-2.811.106l-2.26,2.288h0l-2.8,2.836a1,1,0,0,1-1.693-.832l1.488-11.027a2.053,2.053,0,0,0-1.81-2.314l-4.185,26.011q-.105.5-.163,1.017h0a10.889,10.889,0,0,0-.028,2.152c.8,9.216,2.285,17.957,8.315,24.985h6.138c-6.03-7.028-7.517-15.769-8.315-24.985a10.846,10.846,0,0,1,1.64-6.742Z" transform="translate(-207.459 -197.927)" fill="#9a4d01"/><path d="M111.117,66.065a11.135,11.135,0,0,0-10.13,6.513A11.133,11.133,0,0,0,84.927,87.245a11.137,11.137,0,0,0,1.706,22.142c6.15,0,35.62-26.035,35.62-32.185A11.136,11.136,0,0,0,111.117,66.065Z" transform="translate(-64.886 -51.911)" fill="#28a528"/><path d="M114.05,34.3a17.394,17.394,0,0,0,1.285-6.606c0-.466-.018-.936-.055-1.4a1.561,1.561,0,1,0-3.113.245c.03.381.045.768.045,1.153a14.315,14.315,0,0,1-1.614,6.64,1.561,1.561,0,0,0,.779,2.155,16.421,16.421,0,0,1-5.638,31.532,1.561,1.561,0,0,0-1.434,1.144c-1.163,4.214-5.837,7.273-11.113,7.273a13,13,0,0,1-6.887-1.9L91.463,66.4a3.616,3.616,0,0,0-5.627-4.477l-3.87,3.918,1.262-9.348a3.618,3.618,0,0,0-3.34-4.091L78.494,52.3a3.608,3.608,0,0,0-3.805,2.981l-1.221,6.936-1.221,6.936-7.538-9.27a3.574,3.574,0,0,0-.869-.769l-.006,0c-.035-.022-.072-.041-.107-.061a3.661,3.661,0,0,0-1.513-.482l-.051,0c-.078-.006-.157-.011-.236-.012a3.58,3.58,0,0,0-1.425.279l-1.457.612a3.616,3.616,0,0,0-1.7,5.194l6.17,10.284a13.235,13.235,0,0,1-6.2,1.514c-5.276,0-9.95-3.059-11.113-7.272a1.561,1.561,0,0,0-1.434-1.144,16.421,16.421,0,0,1-5.638-31.532,1.561,1.561,0,0,0,.779-2.155,14.315,14.315,0,0,1-1.614-6.64A14.5,14.5,0,0,1,52.771,13.217a14.337,14.337,0,0,1,6.35,1.465A1.561,1.561,0,0,0,61.31,13.7a14.479,14.479,0,0,1,27.886,0,1.561,1.561,0,0,0,2.189.982,14.489,14.489,0,0,1,19.108,6.162,1.561,1.561,0,0,0,2.749-1.48,17.621,17.621,0,0,0-21.6-8.184,17.6,17.6,0,0,0-32.776,0,17.443,17.443,0,0,0-6.094-1.084,17.622,17.622,0,0,0-17.6,17.6A17.393,17.393,0,0,0,36.453,34.3,19.544,19.544,0,0,0,43.54,71.064c1.954,5.055,7.445,8.5,13.771,8.5A16.359,16.359,0,0,0,65.122,77.6l.774,1.289a9.165,9.165,0,0,1,1.23,5.868c-.227,1.751-.507,3.812-.861,5.83a1.561,1.561,0,1,0,3.075.54c.365-2.079.651-4.184.882-5.969a12.3,12.3,0,0,0-1.649-7.875l-8.55-14.251a.494.494,0,0,1,.232-.71l1.457-.612a.5.5,0,0,1,.574.144l8.32,10.232c.022.027.045.052.068.078a2.52,2.52,0,0,0,2.541.786l.016,0h0a2.551,2.551,0,0,0,1.2-.7l.038-.038.032-.038a2.55,2.55,0,0,0,.6-1.256l2.656-15.093a.5.5,0,0,1,.52-.407l1.395.094a.494.494,0,0,1,.456.559L78.645,67.1a2.554,2.554,0,0,0,1.406,2.636q.093.046.187.083A2.552,2.552,0,0,0,83,69.238l5.061-5.124a.491.491,0,0,1,.317-.144l.015,0H88.4a.493.493,0,0,1,.428.757L81.954,75.57a12.477,12.477,0,0,0-1.876,7.713c.654,7.552,1.787,16.067,6.711,23.289H63.7a32.655,32.655,0,0,0,4.155-9.008,1.561,1.561,0,1,0-2.991-.895,27.966,27.966,0,0,1-5.5,10.447,1.561,1.561,0,0,0,1.185,2.578H89.947a1.561,1.561,0,0,0,1.185-2.577c-6.012-7.007-7.253-16.116-7.945-24.1a9.338,9.338,0,0,1,1.4-5.772l.044-.069a16.133,16.133,0,0,0,8.558,2.391c6.326,0,11.817-3.443,13.771-8.5A19.544,19.544,0,0,0,114.05,34.3Z" transform="translate(-25.968)" fill="#121419"/></g><g transform="translate(46.835 39.266)"><g transform="translate(1.638 1.136)"><g transform="translate(55.661 22.719)"><path d="M61.088,23.136v6.816a1.139,1.139,0,0,1-1.136,1.136H53.136A1.139,1.139,0,0,1,52,29.952V23.136A1.139,1.139,0,0,1,53.136,22h6.816A1.139,1.139,0,0,1,61.088,23.136Z" transform="translate(-52 -22)" fill="#ff826e"/></g><g transform="translate(39.758 38.622)"><path d="M47.088,38.272v5.68a1.139,1.139,0,0,1-1.136,1.136H39.136A1.139,1.139,0,0,1,38,43.952V39.01A15.931,15.931,0,0,0,42.317,36h3.635a1.139,1.139,0,0,1,1.136,1.136Z" transform="translate(-38 -36)" fill="#ff826e"/></g><g transform="translate(48.845 54.525)"><path d="M64.175,51.136v6.816a1.139,1.139,0,0,1-1.136,1.136h-15.9A1.139,1.139,0,0,1,46,57.952V51.136A1.139,1.139,0,0,1,47.136,50h15.9A1.139,1.139,0,0,1,64.175,51.136Z" transform="translate(-46 -50)" fill="#e6e9ed"/></g><g transform="translate(39.758 0)"><path d="M58.447,3.136V14.5a1.139,1.139,0,0,1-1.136,1.136h-12.5a2.288,2.288,0,0,0-2.272-2.272,2.279,2.279,0,0,0-2.272,2.272H39.136A1.139,1.139,0,0,1,38,14.5V3.136A1.139,1.139,0,0,1,39.136,2H57.311A1.139,1.139,0,0,1,58.447,3.136Z" transform="translate(-38 -2)" fill="#e6e9ed"/></g><path d="M22.311,13.359H15.5a2.215,2.215,0,0,1-1.125-.3l-1.6,1.2A4.541,4.541,0,0,0,10.952,17.9v2.272H8.68L3,13.359,6.9,10.44,4.136,7.68,8.509,4.033a8.783,8.783,0,0,1,11.825.534l.841.841.364-.364a10.391,10.391,0,0,1,13.847-.761l2.828,2.261L35.942,9.952l.42.42a6.337,6.337,0,0,1,.784,8l-1.2,1.806H33.67V17.233A3.878,3.878,0,0,0,29.8,13.359Z" transform="translate(-3 -2)" fill="#b27946"/><g transform="translate(19.311 63.613)"><path d="M30.894,59.806a1.606,1.606,0,0,1-1.136,2.738H20V58h9.087Z" transform="translate(-20 -58)" fill="#d3a06c"/></g><g transform="translate(7.952 63.613)"><path d="M21.359,58v4.544H11.6a1.606,1.606,0,0,1-1.136-2.738L12.272,58Z" transform="translate(-10 -58)" fill="#d3a06c"/></g><g transform="translate(19.311 52.253)"><path d="M20,48h9.087V59.359H20Z" transform="translate(-20 -48)" fill="#969faa"/></g><g transform="translate(10.223 52.253)"><path d="M12,48h9.088V59.359H12Z" transform="translate(-12 -48)" fill="#969faa"/></g><g transform="translate(15.903 36.35)"><path d="M22.68,36.272,23.816,46.5,20.408,49.9,17,46.5l1.136-10.223L20.408,34Z" transform="translate(-17 -34)" fill="#ff826e"/></g><g transform="translate(19.311 27.263)"><path d="M40.447,26h9.088a15.9,15.9,0,0,1-4.657,11.246l-.114.114a15.931,15.931,0,0,1-4.317,3.01A15.738,15.738,0,0,1,33.631,41.9H29.088v9.087H20l3.408-3.408L22.272,37.359l2.272,2.272,2.272-6.816h6.816A6.821,6.821,0,0,0,40.447,26Z" transform="translate(-20 -26)" fill="#8ed7e8"/></g><g transform="translate(3.408 34.078)"><path d="M12.816,45.631H6V40.747a8.677,8.677,0,0,1,.863-3.794A8.77,8.77,0,0,1,14.747,32h.341l2.272,6.816,2.272-2.272L18.5,46.767,21.9,50.175H12.816Z" transform="translate(-6 -32)" fill="#8ed7e8"/></g><g transform="translate(19.311 34.078)"><path d="M26.816,32l-2.272,6.816-2.272-2.272L20,34.272,24.544,32Z" transform="translate(-20 -32)" fill="#8ed7e8"/></g><g transform="translate(12.495 34.078)"><path d="M20.816,34.272l-2.272,2.272-2.272,2.272L14,32h2.272Z" transform="translate(-14 -32)" fill="#8ed7e8"/></g><g transform="translate(5.68 47.709)"><path d="M12.544,44v4.544a2.288,2.288,0,0,1-2.272,2.272A2.279,2.279,0,0,1,8,48.544V44Z" transform="translate(-8 -44)" fill="#f0d0b4"/></g><g transform="translate(42.03 11.359)"><path d="M44.544,14.272v4.544H40V14.272A2.279,2.279,0,0,1,42.272,12a2.288,2.288,0,0,1,2.272,2.272Z" transform="translate(-40 -12)" fill="#f0d0b4"/></g><g transform="translate(39.758 19.311)"><path d="M47.088,20.136v6.816H38v-5.68A2.279,2.279,0,0,1,40.272,19a2.288,2.288,0,0,1,2.272,2.272,2.593,2.593,0,0,1-.25,1.136h2.522A2.279,2.279,0,0,0,47.088,20.136Z" transform="translate(-38 -19)" fill="#f0d0b4"/></g><g transform="translate(42.03 18.175)"><path d="M40,18h4.544a2.288,2.288,0,0,1,2.272,2.272,2.279,2.279,0,0,1-2.272,2.272H42.022a2.593,2.593,0,0,0,.25-1.136A2.288,2.288,0,0,0,40,19.136Z" transform="translate(-40 -18)" fill="#f0d0b4"/></g><g transform="translate(14.767 31.227)"><path d="M16,32.341l.954-2.851,3.59.579a11.371,11.371,0,0,0,3.59-.579l.954,2.851-4.544,2.272Z" transform="translate(-16 -29.49)" fill="#f0d0b4"/></g><g transform="translate(7.952 11.064)"><path d="M32.719,18.851v2.272A11.35,11.35,0,0,1,21.359,32.482L17.77,31.9A11.345,11.345,0,0,1,10,21.123V16.579a4.541,4.541,0,0,1,1.818-3.635l1.6-1.2a2.215,2.215,0,0,0,1.125.3h14.3a3.878,3.878,0,0,1,3.874,3.874Z" transform="translate(-10 -11.74)" fill="#f0d0b4"/></g><g transform="translate(3.408 18.175)"><path d="M10.544,18v2.272a11.414,11.414,0,0,0,.227,2.272h-2.5A2.288,2.288,0,0,1,6,20.272,2.279,2.279,0,0,1,8.272,18Z" transform="translate(-6 -18)" fill="#f0d0b4"/></g><g transform="translate(30.443 18.175)"><path d="M30.027,18v2.272a11.414,11.414,0,0,1-.227,2.272h2.5a2.288,2.288,0,0,0,2.272-2.272A2.279,2.279,0,0,0,32.3,18Z" transform="translate(-29.8 -18)" fill="#f0d0b4"/></g><g transform="translate(15.903 22.719)"><path d="M23.816,22l-.579,2.34a2.917,2.917,0,0,1-5.657,0L17,22Z" transform="translate(-17 -22)" fill="#ff826e"/></g></g><path d="M17.544,18.408v1.136h2.272V18.408a3.408,3.408,0,0,0-6.816,0v1.136h2.272V18.408a1.136,1.136,0,1,1,2.272,0Z" transform="translate(-0.003 0.903)"/><path d="M23.272,18.408a1.136,1.136,0,1,1,2.272,0v1.136h2.272V18.408a3.408,3.408,0,0,0-6.816,0v1.136h2.272Z" transform="translate(1.085 0.903)"/><path d="M24.506,24.751,25.444,21H15.72l.937,3.751a4.045,4.045,0,0,0,7.849,0ZM18.86,24.2l-.232-.928h3.906L22.3,24.2a1.775,1.775,0,0,1-3.443,0Z" transform="translate(0.367 1.719)"/><path d="M41,7H54.631V9.272H41Z" transform="translate(3.804 -0.184)"/><path d="M69.08,55.525h-15.9A2.274,2.274,0,0,0,50.905,57.8H46.362V50.981h4.544a2.274,2.274,0,0,0,2.272-2.272V44.166h9.088a2.274,2.274,0,0,0,2.272-2.272V35.078h2.272a2.274,2.274,0,0,0,2.272-2.272V26.461l3.075-3.075L70.549,21.78l-2.392,2.392a2.255,2.255,0,0,0-1.348-.453H59.993a2.274,2.274,0,0,0-2.272,2.272V16.9h4.544a2.274,2.274,0,0,0,2.272-2.272V3.272A2.274,2.274,0,0,0,62.265,1H44.09a2.274,2.274,0,0,0-2.272,2.272V14.631A2.274,2.274,0,0,0,44.09,16.9V20.52a3.4,3.4,0,0,0-2.272,3.2V29.4a5.686,5.686,0,0,1-5.68,5.68H27.87l-.352-1.056a12.539,12.539,0,0,0,7-8.031h1.62a3.4,3.4,0,0,0,1.779-6.3l.374-.56a7.474,7.474,0,0,0-.7-9.181l2.338-3.506L36.288,3.526A11.58,11.58,0,0,0,29.084,1a11.446,11.446,0,0,0-7.7,2.949L21.338,3.9A9.918,9.918,0,0,0,7.978,3.3L2.65,7.738l2.713,2.713L1.558,13.3,6.95,19.775a3.405,3.405,0,0,0,1.925,6.216H10.5a12.539,12.539,0,0,0,7,8.031l-.352,1.056H15.352a9.881,9.881,0,0,0-9.884,9.884v6.019H7.74v3.408A3.412,3.412,0,0,0,11.148,57.8a3.37,3.37,0,0,0,1.136-.209v7.69l-1.469,1.469a2.742,2.742,0,0,0,1.939,4.681H32.26A2.742,2.742,0,0,0,34.2,66.747L32.73,65.278V46.438h3.408a16.939,16.939,0,0,0,5.68-.994v3.266a2.274,2.274,0,0,0,2.272,2.272V57.8a2.274,2.274,0,0,0,2.272,2.272h4.544v4.544a2.274,2.274,0,0,0,2.272,2.272h15.9a2.274,2.274,0,0,0,2.272-2.272V57.8A2.274,2.274,0,0,0,69.08,55.525ZM59.993,25.991h6.345L63.4,28.928l-1.469-1.469-1.606,1.606L63.4,32.141l3.409-3.409v4.075H59.993Zm-2.272,2.272v4.544a2.274,2.274,0,0,0,2.272,2.272h2.272v6.816H53.648l2.6-2.6-1.606-1.606-2.392,2.392a2.255,2.255,0,0,0-1.348-.453H49.738A16.927,16.927,0,0,0,53.177,29.4V22.583a3.4,3.4,0,0,0-2.272-3.2V16.9h4.544v9.087A2.274,2.274,0,0,0,57.721,28.263Zm-9.088-9.088H46.362V15.767a1.136,1.136,0,1,1,2.272,0Zm-.886,2.272h2.022a1.136,1.136,0,0,1,0,2.272H48.634A3.386,3.386,0,0,0,47.747,21.447ZM44.09,3.272H62.265V14.631H50.7a3.388,3.388,0,0,0-6.4,0H44.09Zm0,20.447a1.136,1.136,0,0,1,2.272,0,1.6,1.6,0,0,1-.47,1.136l-.333.333,1.606,1.606.333-.333a3.793,3.793,0,0,0,.386-.47h1.886a3.369,3.369,0,0,0,1.136-.209v2.481H44.09ZM24.725,50.564l-2.218,2.218-2.218-2.218,1.033-9.285,1.186-1.187,1.187,1.187Zm-10.17,4.961h6.816v9.087H14.555Zm9.088,0h6.816v9.087H23.643ZM20.589,38.8l-2.129,2.129L17.267,37.35h.427Zm3.835,0,2.894-1.447h.427l-1.193,3.576ZM36.138,23.719H34.944c.034-.375.058-.752.058-1.136V21.447h1.136a1.136,1.136,0,0,1,0,2.272Zm-27.263,0a1.136,1.136,0,0,1,0-2.272h1.136v1.136c0,.384.024.761.058,1.136Zm1.136-5.68v1.136h-.6L4.834,13.687l2.149-1.613L9.207,14.3l1.606-1.606-4.8-4.8L9.433,5.043a7.645,7.645,0,0,1,10.3.468L21.371,7.15l1.167-1.167a9.2,9.2,0,0,1,6.546-2.711A9.291,9.291,0,0,1,34.868,5.3l2.019,1.615-2.211,3.316,1.075,1.075a5.2,5.2,0,0,1,.65,6.563l-.87,1.305H35v-1.8a5.015,5.015,0,0,0-5.014-5.014H22.507a1.136,1.136,0,1,1,0-2.272h1.136V7.816H22.507A3.412,3.412,0,0,0,19.1,11.223a3.37,3.37,0,0,0,.209,1.136H15.691a1.136,1.136,0,1,1,0-2.272h1.136V7.816H15.691a3.4,3.4,0,0,0-2.852,5.263l-.557.417a5.709,5.709,0,0,0-2.271,4.544Zm2.272,4.544V18.039a3.425,3.425,0,0,1,1.362-2.726l1.106-.829a3.384,3.384,0,0,0,.939.148h14.3a2.742,2.742,0,0,1,2.742,2.742v5.209a10.223,10.223,0,1,1-20.447,0Zm10.223,12.5a12.452,12.452,0,0,0,2.855-.342l.3.9-3.156,1.578-3.154-1.578.3-.9a12.434,12.434,0,0,0,2.853.342ZM7.74,44.962a7.558,7.558,0,0,1,7.147-7.572l2.58,7.744,1.282-1.282L17.911,51.4l1.854,1.855H14.555V43.7l-1.469-1.469L11.48,43.833l.8.8v4.073H7.74Zm3.408,10.563a1.136,1.136,0,0,1-1.136-1.136V50.981h2.272v3.408A1.136,1.136,0,0,1,11.148,55.525Zm1.136,13.161a.474.474,0,0,1,.137-.333l1.469-1.469h7.481v2.272H12.754A.471.471,0,0,1,12.284,68.686Zm19.977.47H23.643V66.884h7.481l1.469,1.469a.471.471,0,0,1-.333.8Zm-1.8-24.991v9.088H25.249L27.1,51.4l-.838-7.547,1.282,1.282L30.14,37.35h6a7.964,7.964,0,0,0,7.871-6.816h6.853A14.787,14.787,0,0,1,36.138,44.166Zm17.225-2.272h2.751L47.5,44.831l-1.469-1.469-1.606,1.606L47.5,48.044l3.408-3.408v4.073H44.09V44.458a17.09,17.09,0,0,0,3.594-2.564Zm5.493,22.719V57.8h15.9l0,6.816Z" transform="translate(-1.558 -1)"/><path d="M49,53h2.272v2.272H49Z" transform="translate(4.891 6.069)"/><path d="M53,53h2.272v2.272H53Z" transform="translate(5.435 6.069)"/><path d="M57,53h2.272v2.272H57Z" transform="translate(5.979 6.069)"/></g></g></g></svg>