<svg xmlns="http://www.w3.org/2000/svg" xmlns:xlink="http://www.w3.org/1999/xlink" width="142" height="142" viewBox="0 0 142 142"><defs><filter id="a" x="0" y="0" width="142" height="142" filterUnits="userSpaceOnUse"><feOffset dy="3" input="SourceAlpha"/><feGaussianBlur stdDeviation="3" result="b"/><feFlood flood-opacity="0.161"/><feComposite operator="in" in2="b"/><feComposite in="SourceGraphic"/></filter></defs><g transform="translate(-351.51 7207)"><g transform="matrix(1, 0, 0, 1, 351.51, -7207)" filter="url(#a)"><path d="M62,0A62,62,0,1,1,0,62,62,62,0,0,1,62,0Z" transform="translate(9 6)" fill="#fcd03e"/></g><g transform="translate(375.369 -7187.381)"><path d="M36.683,122.455a8.252,8.252,0,0,0-7.784,8.239V177.3h81.552v-46.61a8.251,8.251,0,0,0-8.252-8.252h-.715" transform="translate(-23.615 -100.057)" fill="#243142"/><path d="M98.428,422.547v5.44a9.52,9.52,0,0,1-9.522,9.523H17.132a9.521,9.521,0,0,1-9.523-9.523v-5.44Zm0,0" transform="translate(-6.218 -345.301)" fill="#ccc"/><path d="M123.282,422.547v5.44a9.462,9.462,0,0,1-1.225,4.674,9.475,9.475,0,0,1-2.738.4H47.547a9.523,9.523,0,0,1-9.523-9.523v-.991Zm0,0" transform="translate(-31.072 -345.301)" fill="#e6e6e6"/><path d="M94.945,7.605H77.3a5.82,5.82,0,0,0-5.821,5.821V83.461h29.285V13.425A5.82,5.82,0,0,0,94.945,7.605Zm0,0" transform="translate(-58.413 -6.215)" fill="#ffd061"/><path d="M71.48,390.1h29.285v5.931H71.48Zm0,0" transform="translate(-58.413 -318.787)" fill="#ef8930"/><path d="M309.919,83.461V30.453l-4.992-8.609L296.669,7.605l-8.256,14.239-4.992,8.609V83.461Zm0,0" transform="translate(-231.609 -6.215)" fill="#ffd061"/><path d="M296.669,7.605l-8.256,14.239-4.992,8.609V83.461h6.653V28.974Zm0,0" transform="translate(-231.609 -6.215)" fill="#ef8930"/><path d="M309.919,176.19V125.547c-2.783-.061-5.149-2.322-6.1-4.2a.5.5,0,0,0-.884,0c-.96,1.9-3.378,4.2-6.211,4.2s-5.251-2.3-6.211-4.2a.479.479,0,0,0-.259-.235.5.5,0,0,0-.625.235c-.96,1.9-3.379,4.2-6.211,4.2V176.19Zm0,0" transform="translate(-231.609 -98.944)" fill="#49bd90"/><path d="M290.257,121.111a.5.5,0,0,0-.625.235c-.96,1.9-3.379,4.2-6.211,4.2V176.19h6.653V121.7Zm0,0" transform="translate(-231.609 -98.944)" fill="#218f68"/><path d="M399.133,176.193V125.55c-2.783-.061-5.149-2.322-6.1-4.2a.489.489,0,0,0-.442-.268v55.111Zm0,0" transform="translate(-320.824 -98.947)" fill="#95e8c8"/><path d="M336.443,17.27l-5.6-9.665-5.6,9.665a11.46,11.46,0,0,0,2.319.978,11.567,11.567,0,0,0,3.285.473A11.453,11.453,0,0,0,336.443,17.27Zm0,0" transform="translate(-265.778 -6.215)" fill="#3e4b5c"/><path d="M330.838,7.605l-5.6,9.665a11.46,11.46,0,0,0,2.319.978Zm0,0" transform="translate(-265.778 -6.215)" fill="#243142"/><path d="M202.337,430.029H191.072a4.685,4.685,0,0,1-4.685-4.685v-2.8h20.635v2.8A4.685,4.685,0,0,1,202.337,430.029Zm0,0" transform="translate(-152.313 -345.301)" fill="#fff"/><path d="M92.209,75.856H88.225V30.636a9.653,9.653,0,0,0-9.642-9.642h-.548L71.88,10.381v0l0,0L66.263.693a1.39,1.39,0,0,0-2.405,0l-11.771,20.3H43.742V7.21A7.22,7.22,0,0,0,36.531,0H18.888a7.218,7.218,0,0,0-7.21,7.21V21.175a9.645,9.645,0,0,0-7.784,9.461v45.22H1.39A1.391,1.391,0,0,0,0,77.246v5.44A10.925,10.925,0,0,0,10.913,93.6h6.718a1.39,1.39,0,1,0,0-2.78H10.913A8.142,8.142,0,0,1,2.78,82.686v-4.05h29.9v1.406a6.082,6.082,0,0,0,6.075,6.075H50.023A6.081,6.081,0,0,0,56.1,80.043V78.636H90.819v4.05a8.142,8.142,0,0,1-8.133,8.133H22.266a1.39,1.39,0,1,0,0,2.78h60.42A10.925,10.925,0,0,0,93.6,82.686v-5.44A1.391,1.391,0,0,0,92.209,75.856ZM59.855,25.827a7.474,7.474,0,0,0,10.525,0V75.856H59.855Zm11.914-5.082a1.872,1.872,0,0,0-1.682,1.031c-.671,1.33-2.612,3.438-4.97,3.438s-4.3-2.109-4.969-3.438a1.889,1.889,0,0,0-3.366,0,6.948,6.948,0,0,1-3.579,3.2v-.36L60.01,12.871a12.948,12.948,0,0,0,10.1,0l6.808,11.741v.311a6.85,6.85,0,0,1-3.465-3.146A1.874,1.874,0,0,0,71.769,20.745ZM65.06,4.161,68.7,10.44a10.187,10.187,0,0,1-3.641.676,10.173,10.173,0,0,1-3.64-.676ZM50.505,23.774a1.388,1.388,0,0,0-.083.465V61.194a1.39,1.39,0,0,0,2.781,0V27.847a8.484,8.484,0,0,0,3.872-2.02V75.856H53.2V66.194a1.39,1.39,0,1,0-2.78,0v9.662h-6.68V23.774ZM6.673,30.636a6.866,6.866,0,0,1,5-6.606V75.856h-5Zm7.784,42.069h12.7a1.39,1.39,0,1,0,0-2.78h-12.7V63.862h12.7a1.39,1.39,0,1,0,0-2.78h-12.7V55.018h12.7a1.39,1.39,0,1,0,0-2.78h-12.7V46.175h12.7a1.39,1.39,0,1,0,0-2.78h-12.7V37.331h12.7a1.39,1.39,0,1,0,0-2.781h-12.7V28.488h12.7a1.39,1.39,0,1,0,0-2.781h-12.7V19.644h12.7a1.39,1.39,0,1,0,0-2.781h-12.7V10.8h12.7a1.39,1.39,0,1,0,0-2.78h-12.7V7.211a4.436,4.436,0,0,1,4.43-4.431H36.531a4.435,4.435,0,0,1,4.43,4.43V22.382h0V75.856h-26.5Zm38.86,7.337a3.3,3.3,0,0,1-3.294,3.295H38.758a3.3,3.3,0,0,1-3.295-3.295V78.636H53.318ZM73.16,75.856V25.823a8.559,8.559,0,0,0,3.759,2V75.856Zm6.539,0V24.238a1.387,1.387,0,0,0-.055-.382,6.873,6.873,0,0,1,5.8,6.78v45.22Zm0,0"/></g></g></svg>