<svg xmlns="http://www.w3.org/2000/svg" xmlns:xlink="http://www.w3.org/1999/xlink" width="142" height="142" viewBox="0 0 142 142"><defs><filter id="a" x="0" y="0" width="142" height="142" filterUnits="userSpaceOnUse"><feOffset dy="3" input="SourceAlpha"/><feGaussianBlur stdDeviation="3" result="b"/><feFlood flood-opacity="0.161"/><feComposite operator="in" in2="b"/><feComposite in="SourceGraphic"/></filter><clipPath id="c"><rect width="100" height="100" transform="translate(-0.055 -0.055)" fill="#fff" stroke="#707070" stroke-width="1"/></clipPath></defs><g transform="translate(-382 -4493)"><g transform="matrix(1, 0, 0, 1, 382, 4493)" filter="url(#a)"><path d="M62,0A62,62,0,1,1,0,62,62,62,0,0,1,62,0Z" transform="translate(9 6)" fill="#fcd03e"/></g><g transform="translate(403.055 4511.055)" clip-path="url(#c)"><g transform="translate(4.785 0)"><path d="M54.858,74.554h-12.9V29.516A5.147,5.147,0,0,1,47.1,24.37h2.609a5.146,5.146,0,0,1,5.146,5.146Zm0,0" transform="translate(3.501 2.09)" fill="#abebf4"/><path d="M54.858,50.356a70.11,70.11,0,0,1-12.9,4.6V72.326h12.9Zm0,0" transform="translate(3.501 4.318)" fill="#8ed7e8"/><path d="M37.814,73.6h-12.9V39.935A4.488,4.488,0,0,1,29.4,35.447h3.926a4.488,4.488,0,0,1,4.488,4.488Zm0,0" transform="translate(2.039 3.04)" fill="#b2e59c"/><path d="M71.9,68.474H59V16.505a5.114,5.114,0,0,1,5.114-5.114h2.673A5.114,5.114,0,0,1,71.9,16.505Zm0,0" transform="translate(4.963 0.977)" fill="#ffde55"/><path d="M71.9,39.279A84.183,84.183,0,0,1,59,48.394V66.082H71.9Zm0,0" transform="translate(4.963 3.369)" fill="#ffcd00"/><path d="M19.672,56.609l25.941-13.77a4.339,4.339,0,0,1,6.286,4.7A12.569,12.569,0,0,1,47.6,55l-2.659,2.154a1.8,1.8,0,0,0,1.135,3.205l10.661,0a16.873,16.873,0,0,0,9.713-3.071l11.915-8.379a5.6,5.6,0,0,1,6.777,8.909L69.533,70.645A16.87,16.87,0,0,1,62.834,74L28.627,82.372Zm0,0" transform="translate(1.59 3.629)" fill="#ffe2d9"/><path d="M34.044,69.224C24.219,66.341,24.951,52.9,24.951,52.9l-5.279,2.8,8.955,25.763L54.7,75.08c-5.493-1.527-14.331-4-20.657-5.856Zm0,0" transform="translate(1.59 4.537)" fill="#ffcfc2"/><path d="M21.189,55.48l9.693,25.87a7.557,7.557,0,0,1-5.4,10.021l-9.27,2.106a7.557,7.557,0,0,1-8.987-5.468L2.23,68.8a7.784,7.784,0,0,1,5.395-9.442Zm0,0" transform="translate(0.072 4.758)" fill="#8ed7e8"/><path d="M30.882,81.124,29.371,77.09a25,25,0,0,0-11.465-2.03,7.581,7.581,0,0,1-7.914-7.809,52.319,52.319,0,0,1,1.171-9.132L7.624,59.13A7.785,7.785,0,0,0,2.23,68.573L7.222,87.781A7.558,7.558,0,0,0,16.21,93.25l9.27-2.106a7.557,7.557,0,0,0,5.4-10.021Zm0,0" transform="translate(0.072 4.984)" fill="#7ac1dd"/><path d="M21.508,80.981a4.3,4.3,0,1,1-4.3-4.3A4.3,4.3,0,0,1,21.508,80.981Zm0,0" transform="translate(1.009 6.576)" fill="#ffeb99"/><path d="M54.992,1.348h-11.7a3.038,3.038,0,0,0,0,6.075h4.164L35.253,19.17l-5.786-2.993a3.039,3.039,0,0,0-3.552.559L2.317,40.515A3.038,3.038,0,0,0,6.63,44.8L28.657,22.6,34.4,25.567a3.04,3.04,0,0,0,3.5-.51l14.056-13.53v4.662a3.038,3.038,0,1,0,6.075,0V4.385s0-.006,0-.009a2.814,2.814,0,0,0-3.037-3.029Zm0,0" transform="translate(0.026 0.116)" fill="#97f7e5"/><path d="M88.269,51.324c-4.59-4.57-9.9-.293-9.9-.293V26.975a1.463,1.463,0,1,0-2.926,0V53.09s-6.977,5.5-9.976,6.844V16.621a3.655,3.655,0,0,1,3.651-3.651h2.673a3.655,3.655,0,0,1,3.651,3.651v4.365a1.463,1.463,0,0,0,2.926,0V16.621a6.585,6.585,0,0,0-6.578-6.577H69.122a6.585,6.585,0,0,0-6.578,6.577V61.094a15.363,15.363,0,0,1-2.678.5V30.745a6.618,6.618,0,0,0-6.61-6.61H50.647a6.618,6.618,0,0,0-6.61,6.61V45.653L41.36,47.075V42.114a5.958,5.958,0,0,0-5.951-5.951H31.482a5.957,5.957,0,0,0-5.951,5.951V55.476l-4.778,2.536L7.338,61.846A9.247,9.247,0,0,0,.929,73.063l1.5,5.774A1.463,1.463,0,1,0,5.262,78.1l-1.5-5.774A6.284,6.284,0,0,1,8.142,64.66l12.266-3.506,9.219,24.605a6.553,6.553,0,0,1-4.356,8.081L16,95.946a6.067,6.067,0,0,1-7.248-4.41L6.872,84.295a1.463,1.463,0,0,0-2.833.736l1.882,7.242a8.973,8.973,0,0,0,8.694,6.756c2.956,0,11.3-2.334,11.3-2.334a9.017,9.017,0,0,0,6.826-10.657l32.069-7.851a18.453,18.453,0,0,0,7.28-3.644L87.7,61.719a6.94,6.94,0,0,0,.568-10.4ZM50.647,27.061h2.609a3.688,3.688,0,0,1,3.683,3.684V61.665l-9.233,0c-.848-.008-.261-.568-.215-.606L50.15,58.9A13.9,13.9,0,0,0,54.965,50.6a5.8,5.8,0,0,0-8-6.477V30.745a3.688,3.688,0,0,1,3.683-3.684ZM28.458,42.114a3.028,3.028,0,0,1,3.024-3.025h3.926a3.028,3.028,0,0,1,3.025,3.025v6.514l-9.975,5.3ZM85.844,59.458,70.237,72.282a15.5,15.5,0,0,1-6.118,3.061l-32.306,7.91L23.126,60.067,47.932,46.9A2.875,2.875,0,0,1,52.1,50.012a11.059,11.059,0,0,1-3.79,6.616l-2.659,2.154A3.267,3.267,0,0,0,47.7,64.588l10.662,0h.007a18.245,18.245,0,0,0,10.548-3.338l11.914-8.379a4.123,4.123,0,0,1,5.34.492c.82.839,2.427,3.33-.332,6.09Zm0,0" transform="translate(-0.043 0.861)"/><path d="M23.087,81.1a5.765,5.765,0,1,0-5.765,5.765A5.772,5.772,0,0,0,23.087,81.1Zm-8.6,0a2.838,2.838,0,1,1,2.838,2.838A2.841,2.841,0,0,1,14.484,81.1Zm0,0" transform="translate(0.894 6.46)"/><path d="M7.784,45.942l21.27-21.434,4.784,2.475a4.5,4.5,0,0,0,5.19-.755L50.606,15.082s-.319,5.724,4.5,5.724a4.507,4.507,0,0,0,4.5-4.5V4.5c0-.014,0-.028,0-.043A4.26,4.26,0,0,0,55.108,0h-11.7a4.506,4.506,0,0,0-4.5,4.5c0,4.948,5.035,4.5,5.035,4.5l-8.833,8.5-4.854-2.51a4.484,4.484,0,0,0-5.263.827L1.394,39.6a4.506,4.506,0,0,0,.024,6.366,4.438,4.438,0,0,0,6.366-.024Zm-4.314-4.28,23.6-23.78a1.329,1.329,0,0,1,1.841-.289L34.7,20.585a1.463,1.463,0,0,0,1.687-.245l12.2-11.746a1.463,1.463,0,0,0-1.014-2.517H43.407a1.575,1.575,0,0,1,0-3.15h11.7a1.375,1.375,0,0,1,1.574,1.565c0,.013,0,.026,0,.04V16.3a1.575,1.575,0,1,1-3.149,0V11.643a1.463,1.463,0,0,0-2.478-1.054L37,24.119a1.574,1.574,0,0,1-1.815.264l-5.739-2.968a1.464,1.464,0,0,0-1.711.269L5.707,43.88a1.509,1.509,0,0,1-2.227.008,1.577,1.577,0,0,1-.009-2.227Zm0,0" transform="translate(-0.09 0)"/></g></g></g></svg>