<svg xmlns="http://www.w3.org/2000/svg" xmlns:xlink="http://www.w3.org/1999/xlink" width="87.279" height="87.279" viewBox="0 0 87.279 87.279"><defs><filter id="a" x="0" y="0" width="87.279" height="87.279" filterUnits="userSpaceOnUse"><feOffset dy="3" input="SourceAlpha"/><feGaussianBlur stdDeviation="3" result="b"/><feFlood flood-opacity="0.161"/><feComposite operator="in" in2="b"/><feComposite in="SourceGraphic"/></filter></defs><g transform="translate(-247.085 -3409.799)"><g transform="matrix(1, 0, 0, 1, 247.08, 3409.8)" filter="url(#a)"><ellipse cx="34.639" cy="34.639" rx="34.639" ry="34.639" transform="translate(9 6)" fill="#fc8116"/></g><g transform="translate(248.033 3403.918)"><path d="M54.365,156.73l2.236,2.236H70.02l2.236-2.236H94.622V116.473A4.473,4.473,0,0,0,90.149,112H36.473A4.473,4.473,0,0,0,32,116.473V156.73Z" transform="translate(-20.645 -89.463)" fill="#828a94"/><path d="M64,144h53.676v35.784H64Z" transform="translate(-48.172 -116.99)" fill="#b4dd7f"/><path d="M117.852,144H64.2c.6,19.862,17.124,35.784,37.433,35.784h16.214Z" transform="translate(-48.349 -116.99)" fill="#b7eb74"/><path d="M128,144c.6,19.862,17.124,35.784,37.433,35.784h7.3V144Z" transform="translate(-103.226 -116.99)" fill="#d9fea9"/><rect width="32" height="27" rx="13.5" transform="translate(26.666 31.665)" fill="#d5e5fd"/><path d="M170.838,176H148.473A4.473,4.473,0,0,0,144,180.473v16.221a37.527,37.527,0,0,0,8.405,6.144h18.433a4.473,4.473,0,0,0,4.473-4.473V180.473A4.473,4.473,0,0,0,170.838,176Z" transform="translate(-116.99 -144.517)" fill="#b7eb74"/><path d="M170.838,176H148.473A4.473,4.473,0,0,0,144,180.473v2.54a37.172,37.172,0,0,0,17.323,19.824h9.515a4.473,4.473,0,0,0,4.473-4.473V180.473A4.473,4.473,0,0,0,170.838,176Z" transform="translate(-116.99 -144.517)" fill="#f8f7fe"/><path d="M20.473,440.946A4.473,4.473,0,0,1,16,436.473V432H40.6l2.236,2.236h13.42L58.493,432h24.6v4.473a4.473,4.473,0,0,1-4.473,4.473Z" transform="translate(-6.882 -364.733)" fill="#969faa"/><path d="M232,208v11.182l8.946-5.591Z" transform="translate(-192.689 -172.044)" fill="#b7eb74"/><path d="M249.118,16.946a1.118,1.118,0,0,0,1.118-1.118V9.118a1.118,1.118,0,1,0-2.236,0v6.709A1.118,1.118,0,0,0,249.118,16.946Z" transform="translate(-206.453)"/><path d="M289.12,38.709a1.114,1.114,0,0,0,.791-.328l4.473-4.473a1.118,1.118,0,1,0-1.581-1.581L288.329,36.8a1.118,1.118,0,0,0,.791,1.909Z" transform="translate(-240.863 -20.645)"/><path d="M180.8,38.382a1.118,1.118,0,1,0,1.581-1.581l-4.473-4.473a1.118,1.118,0,1,0-1.581,1.581Z" transform="translate(-144.517 -20.645)"/><path d="M76.213,148.73H75.095V109.591A5.6,5.6,0,0,0,69.5,104H24.774a1.118,1.118,0,0,0,0,2.236H69.5a3.358,3.358,0,0,1,3.355,3.355V148.73H51.611a1.117,1.117,0,0,0-.791.328l-1.909,1.909H36.418l-1.908-1.908a1.117,1.117,0,0,0-.791-.328H12.473V109.591a3.358,3.358,0,0,1,3.355-3.355H20.3a1.118,1.118,0,1,0,0-2.236H15.828a5.6,5.6,0,0,0-5.591,5.591V148.73H9.118A1.118,1.118,0,0,0,8,149.848v4.473a5.6,5.6,0,0,0,5.591,5.591H63.912a1.118,1.118,0,1,0,0-2.236H13.591a3.358,3.358,0,0,1-3.355-3.355v-3.355h23.02l1.908,1.908a1.117,1.117,0,0,0,.791.328h13.42a1.117,1.117,0,0,0,.791-.328l1.909-1.909h23.02v3.355a3.358,3.358,0,0,1-3.355,3.355H68.385a1.118,1.118,0,1,0,0,2.236H71.74a5.6,5.6,0,0,0,5.591-5.591v-4.473A1.118,1.118,0,0,0,76.213,148.73Z" transform="translate(0 -82.581)"/><path d="M56,137.118V172.9a1.118,1.118,0,0,0,1.118,1.118h53.676a1.118,1.118,0,0,0,1.118-1.118V137.118A1.118,1.118,0,0,0,110.794,136H57.118A1.118,1.118,0,0,0,56,137.118Zm2.236,1.118h51.439v33.547H58.236Z" transform="translate(-41.291 -110.108)"/><path d="M157.247,194.838H141.591a3.358,3.358,0,0,1-3.355-3.355V173.591a3.358,3.358,0,0,1,3.355-3.355h2.236a1.118,1.118,0,0,0,0-2.236h-2.236A5.6,5.6,0,0,0,136,173.591v17.892a5.6,5.6,0,0,0,5.591,5.591h15.655a1.118,1.118,0,0,0,0-2.236Z" transform="translate(-110.108 -137.635)"/><path d="M232.774,168H217.118a1.118,1.118,0,1,0,0,2.236h15.655a3.358,3.358,0,0,1,3.355,3.355v17.892a3.359,3.359,0,0,1-3.355,3.355h-2.236a1.118,1.118,0,1,0,0,2.236h2.236a5.6,5.6,0,0,0,5.591-5.591V173.591A5.6,5.6,0,0,0,232.774,168Z" transform="translate(-178.926 -137.635)"/><path d="M225.118,213.417a1.118,1.118,0,0,0,.593-.17l8.946-5.591a1.118,1.118,0,0,0,0-1.9l-8.946-5.591a1.118,1.118,0,0,0-1.711.948V212.3A1.119,1.119,0,0,0,225.118,213.417Zm1.118-10.283,5.718,3.574-5.718,3.574Z" transform="translate(-185.807 -165.16)"/><path d="M189.041,300.473h2.443a1.118,1.118,0,1,0,0-2.236h-2.443a3.335,3.335,0,0,0-6.3,0H169.118a1.118,1.118,0,1,0,0,2.236h13.625a3.335,3.335,0,0,0,6.3,0Zm-3.149,0a1.118,1.118,0,1,1,1.118-1.118A1.118,1.118,0,0,1,185.892,300.473Z" transform="translate(-137.635 -247.743)"/></g></g></svg>