<svg xmlns="http://www.w3.org/2000/svg" xmlns:xlink="http://www.w3.org/1999/xlink" width="87.279" height="87.638" viewBox="0 0 87.279 87.638"><defs><filter id="a" x="0" y="0.359" width="87.279" height="87.279" filterUnits="userSpaceOnUse"><feOffset dy="3" input="SourceAlpha"/><feGaussianBlur stdDeviation="3" result="b"/><feFlood flood-opacity="0.161"/><feComposite operator="in" in2="b"/><feComposite in="SourceGraphic"/></filter></defs><g transform="translate(-247.085 -3548.525)"><g transform="translate(0 139.086)"><g transform="matrix(1, 0, 0, 1, 247.08, 3409.44)" filter="url(#a)"><ellipse cx="34.639" cy="34.639" rx="34.639" ry="34.639" transform="translate(9 6.36)" fill="#fc8116"/></g><g transform="translate(248.033 3401.439)"><path d="M54.365,156.73l2.236,2.236H70.02l2.236-2.236H94.622V116.473A4.473,4.473,0,0,0,90.149,112H36.473A4.473,4.473,0,0,0,32,116.473V156.73Z" transform="translate(-20.645 -89.463)" fill="#828a94"/><path d="M64,144h53.676v35.784H64Z" transform="translate(-48.172 -116.99)" fill="#b7eb74"/><path d="M117.852,144H64.2c.6,19.862,17.124,35.784,37.433,35.784h16.214Z" transform="translate(-48.349 -116.99)" fill="#b4dd7f"/><path d="M128,144c.6,19.862,17.124,35.784,37.433,35.784h7.3V144Z" transform="translate(-103.226 -116.99)" fill="#d9fea9"/><path d="M20.473,440.946A4.473,4.473,0,0,1,16,436.473V432H40.6l2.236,2.236h13.42L58.493,432h24.6v4.473a4.473,4.473,0,0,1-4.473,4.473Z" transform="translate(-6.882 -364.733)" fill="#969faa"/><path d="M249.118,16.946a1.118,1.118,0,0,0,1.118-1.118V9.118a1.118,1.118,0,1,0-2.236,0v6.709A1.118,1.118,0,0,0,249.118,16.946Z" transform="translate(-206.453)"/><path d="M289.12,38.709a1.114,1.114,0,0,0,.791-.328l4.473-4.473a1.118,1.118,0,1,0-1.581-1.581L288.329,36.8a1.118,1.118,0,0,0,.791,1.909Z" transform="translate(-240.863 -20.645)"/><path d="M180.8,38.382a1.118,1.118,0,1,0,1.581-1.581l-4.473-4.473a1.118,1.118,0,1,0-1.581,1.581Z" transform="translate(-144.517 -20.645)"/><path d="M76.213,148.73H75.095V109.591A5.6,5.6,0,0,0,69.5,104H24.774a1.118,1.118,0,0,0,0,2.236H69.5a3.358,3.358,0,0,1,3.355,3.355V148.73H51.611a1.117,1.117,0,0,0-.791.328l-1.909,1.909H36.418l-1.908-1.908a1.117,1.117,0,0,0-.791-.328H12.473V109.591a3.358,3.358,0,0,1,3.355-3.355H20.3a1.118,1.118,0,1,0,0-2.236H15.828a5.6,5.6,0,0,0-5.591,5.591V148.73H9.118A1.118,1.118,0,0,0,8,149.848v4.473a5.6,5.6,0,0,0,5.591,5.591H63.912a1.118,1.118,0,1,0,0-2.236H13.591a3.358,3.358,0,0,1-3.355-3.355v-3.355h23.02l1.908,1.908a1.117,1.117,0,0,0,.791.328h13.42a1.117,1.117,0,0,0,.791-.328l1.909-1.909h23.02v3.355a3.358,3.358,0,0,1-3.355,3.355H68.385a1.118,1.118,0,1,0,0,2.236H71.74a5.6,5.6,0,0,0,5.591-5.591v-4.473A1.118,1.118,0,0,0,76.213,148.73Z" transform="translate(0 -82.581)"/><path d="M56,137.118V172.9a1.118,1.118,0,0,0,1.118,1.118h53.676a1.118,1.118,0,0,0,1.118-1.118V137.118A1.118,1.118,0,0,0,110.794,136H57.118A1.118,1.118,0,0,0,56,137.118Zm2.236,1.118h51.439v33.547H58.236Z" transform="translate(-41.291 -110.108)" fill="#b4dd7f"/></g></g><g transform="translate(266.587 3552.997)"><g transform="translate(0.707 15.519)"><g transform="translate(0 0)"><path d="M54.312,25.191V55.95a2.875,2.875,0,0,1-2.873,2.875H10.375A2.875,2.875,0,0,1,7.5,55.95V25.191a2.875,2.875,0,0,1,2.873-2.875H51.439A2.875,2.875,0,0,1,54.312,25.191Z" transform="translate(-7.502 -22.316)" fill="#e4eaf7"/></g><g transform="translate(38.129 0)"><path d="M421.013,25.191V55.95a2.875,2.875,0,0,1-2.873,2.875h-5.808a2.875,2.875,0,0,0,2.873-2.875V25.191a2.875,2.875,0,0,0-2.873-2.875h5.808A2.875,2.875,0,0,1,421.013,25.191Z" transform="translate(-412.332 -22.316)" fill="#d2dcf0"/></g><g transform="translate(0 0)"><path d="M7.5,26.957h8.625a2.468,2.468,0,0,0,1.895-.887l2.392-2.865a2.469,2.469,0,0,1,1.895-.887h6.208a2.469,2.469,0,0,1,1.9.9l2.343,2.842a2.469,2.469,0,0,0,1.9.9H54.313v5.867H7.5Z" transform="translate(-7.504 -22.319)" fill="#bec8dc"/></g><g transform="translate(41.002 4.639)"><rect width="5.807" height="5.867" fill="#afbbd0"/></g><g transform="translate(23.405 10.506)"><path d="M279.408,133.859v23.128a2.875,2.875,0,0,1-2.873,2.875H256v-26Z" transform="translate(-256.003 -133.859)" fill="#bec8dc"/></g><g transform="translate(38.129 10.506)"><path d="M421.013,133.859v23.128a2.875,2.875,0,0,1-2.873,2.875h-5.808a2.875,2.875,0,0,0,2.873-2.875V133.859Z" transform="translate(-412.332 -133.859)" fill="#828a94"/></g><g transform="translate(23.405 13.782)"><g transform="translate(0 0)"><path d="M275.016,175.342H256v-6.7h19.016a.448.448,0,0,1,.448.448v5.8A.448.448,0,0,1,275.016,175.342Z" transform="translate(-256 -168.647)" fill="#fff"/></g></g><g transform="translate(36.177 23.63)"><path d="M398.3,286.079h-6.692V273.6a.4.4,0,0,1,.4-.4h5.9a.4.4,0,0,1,.4.4v12.482Z" transform="translate(-391.605 -273.2)" fill="#c3b4fa"/></g><g transform="translate(23.405 23.63)"><path d="M265.181,286.08H256V273.2h8.784a.4.4,0,0,1,.4.4V286.08Z" transform="translate(-256 -273.201)" fill="#ffcd74"/></g><g transform="translate(26.955 16.825)"><g transform="translate(0 0)"><path d="M293.7,204.6l3.573-3.575a.266.266,0,0,1,.376,0l3.555,3.557Z" transform="translate(-293.695 -200.952)" fill="#3879e3"/><g transform="translate(3.752)"><path d="M333.532,204.6l3.573-3.575a.266.266,0,0,1,.376,0l3.555,3.557Z" transform="translate(-333.532 -200.952)" fill="#3879e3"/></g></g></g><g transform="translate(7.839 30.449)"><path d="M120.17,359.176H92.429a1.7,1.7,0,0,1-1.695-1.695V347.3a1.7,1.7,0,0,1,1.695-1.695h27.742a1.7,1.7,0,0,1,1.695,1.695v10.181A1.7,1.7,0,0,1,120.17,359.176Z" transform="translate(-90.734 -345.606)" fill="#b4e173"/></g><g transform="translate(34.478 30.449)"><path d="M376.37,345.606h-2.8a1.7,1.7,0,0,1,1.694,1.7v10.18a1.7,1.7,0,0,1-1.694,1.7h2.8a1.7,1.7,0,0,0,1.694-1.7V347.3A1.7,1.7,0,0,0,376.37,345.606Z" transform="translate(-373.572 -345.606)" fill="#a7d16c"/></g></g><g transform="translate(0 14.812)"><path d="M44.643,14.812H3.58A3.585,3.585,0,0,0,0,18.394V43.525a.706.706,0,1,0,1.413,0V26.731H16.294a.706.706,0,1,0,0-1.413H1.413V20.863H9.331a3.167,3.167,0,0,0,2.437-1.14l2.392-2.865a1.757,1.757,0,0,1,1.353-.633h6.208a1.756,1.756,0,0,1,1.359.641l2.343,2.842a3.165,3.165,0,0,0,2.449,1.155H46.81v4.455H19.732a.706.706,0,1,0,0,1.413h3.673V45.262h-18a.706.706,0,0,0,0,1.413H8.053a2.386,2.386,0,0,0-.214.988v.387H3.99a.706.706,0,0,0,0,1.413H7.839v1.859H3.58a2.17,2.17,0,0,1-2.167-2.168V46.98A.706.706,0,0,0,0,46.98v2.173a3.585,3.585,0,0,0,3.58,3.581H7.839v5.11a2.4,2.4,0,0,0,2.4,2.4H37.982a2.4,2.4,0,0,0,2.4-2.4v-5.11h4.259a3.585,3.585,0,0,0,3.58-3.581V18.394A3.585,3.585,0,0,0,44.643,14.812ZM10.684,18.818a1.758,1.758,0,0,1-1.353.633H1.413V18.394A2.171,2.171,0,0,1,3.58,16.225h9.269Zm17.189.633a1.756,1.756,0,0,1-1.359-.641l-2.132-2.585H44.643a2.171,2.171,0,0,1,2.167,2.169v1.057Zm3.26,15.777H29.378l2.044-2.045.877.878Zm2,0,2.044-2.045,2.042,2.043H33.131Zm6.085,0-3.541-3.543a.706.706,0,0,0-1,0L33.3,33.062l-1.376-1.377a.706.706,0,0,0-.5-.207h0a.706.706,0,0,0-.5.207l-3.543,3.544H24.818V29.945H42.869v5.283Zm-14.4,4.627h7.768v5.407H24.818ZM40.383,51.321v-.348a.706.706,0,1,0-1.413,0v6.87a.99.99,0,0,1-.988.988H10.241a.99.99,0,0,1-.988-.988V47.663a.99.99,0,0,1,.988-.988H37.982a.99.99,0,0,1,.988.988v.6a.706.706,0,0,0,1.413,0v-.6a2.4,2.4,0,0,0-2.4-2.4h-.393V39.855h5.28V51.321H40.383Zm4.259,0h-.361V39.149a.706.706,0,0,0-.706-.706H36.883a.706.706,0,0,0-.706.706v6.113H34V39.149a.706.706,0,0,0-.706-.706H24.818v-1.8h2.719a.7.7,0,0,0,.124.012h0l3.643-.008a.712.712,0,0,0,.108.009h0l5.315-.013h6.844a.706.706,0,0,0,.706-.706v-6.7a.706.706,0,0,0-.706-.706H24.818v-1.8H46.81V49.153A2.17,2.17,0,0,1,44.643,51.321Z" transform="translate(0 -14.812)"/><circle cx="0.718" cy="0.718" r="0.718" transform="translate(3.087 2.436)"/><circle cx="0.718" cy="0.718" r="0.718" transform="translate(5.396 2.436)"/><circle cx="0.718" cy="0.718" r="0.718" transform="translate(8.047 2.436)"/><circle cx="0.717" cy="0.717" r="0.717" transform="translate(41.275 7.605)"/><circle cx="0.717" cy="0.717" r="0.717" transform="translate(44.143 7.605)"/><path d="M96.838,96.377a.706.706,0,0,0,.706.706H121.01a.706.706,0,1,0,0-1.413H97.544A.706.706,0,0,0,96.838,96.377Z" transform="translate(-87.717 -88.055)"/><path d="M167.6,47.871a.706.706,0,1,0,0-1.413h-5.422a.706.706,0,1,0,0,1.413Z" transform="translate(-146.265 -43.477)"/><path d="M30.852,90.234a.706.706,0,0,0-1,0l-.552.552a.706.706,0,0,0,.02,1.018l.552.511a.706.706,0,1,0,.96-1.037l-.013-.012.033-.033A.706.706,0,0,0,30.852,90.234Z" transform="translate(-26.354 -82.943)"/><path d="M59.358,92.277a.706.706,0,0,0,1,.038l.552-.511a.706.706,0,0,0,.02-1.018l-.552-.552a.706.706,0,0,0-1,1l.033.033-.013.012A.707.707,0,0,0,59.358,92.277Z" transform="translate(-53.597 -82.944)"/><path d="M36.1,160.486h-3.37a.706.706,0,0,0,0,1.413H36.1a.706.706,0,0,0,0-1.413Z" transform="translate(-29.007 -146.766)"/><path d="M58.381,190.09H50.619a.706.706,0,1,0,0,1.413h7.762a.706.706,0,0,0,0-1.413Z" transform="translate(-45.212 -173.581)"/><path d="M52.961,219.693H50.619a.706.706,0,1,0,0,1.413h2.341a.706.706,0,0,0,0-1.413Z" transform="translate(-45.212 -200.396)"/><path d="M106.622,219.693H100.89a.706.706,0,1,0,0,1.413h5.731a.706.706,0,1,0,0-1.413Z" transform="translate(-90.748 -200.396)"/><path d="M50.619,309.916h5.905a.706.706,0,0,0,0-1.413H50.619a.706.706,0,0,0,0,1.413Z" transform="translate(-45.212 -280.842)"/><path d="M138.643,309.916h3.568a.706.706,0,0,0,0-1.413h-3.568a.706.706,0,1,0,0,1.413Z" transform="translate(-124.945 -280.842)"/><path d="M81.473,250a.706.706,0,0,0,.706.706H85.8a.706.706,0,1,0,0-1.413H82.179A.706.706,0,0,0,81.473,250Z" transform="translate(-73.799 -227.212)"/><path d="M155.543,250a.706.706,0,0,0-.706-.706h-7.223a.706.706,0,0,0,0,1.413h7.223A.706.706,0,0,0,155.543,250Z" transform="translate(-133.071 -227.212)"/><path d="M88.752,279.605a.706.706,0,0,0-.706-.706H82.179a.706.706,0,0,0,0,1.413h5.866A.706.706,0,0,0,88.752,279.605Z" transform="translate(-73.799 -254.026)"/><path d="M171.93,279.605a.706.706,0,0,0-.706-.706h-1.23a.706.706,0,1,0,0,1.413h1.23A.706.706,0,0,0,171.93,279.605Z" transform="translate(-153.343 -254.026)"/><circle cx="0.718" cy="0.718" r="0.718" transform="translate(32.618 15.589)"/><path d="M139.2,377.14a1.186,1.186,0,0,0-.986,0,.344.344,0,0,0-.2.322v2.8H135.6v-2.8a.345.345,0,0,0-.2-.322,1.186,1.186,0,0,0-.986,0,.344.344,0,0,0-.2.322v6.968a.359.359,0,0,0,.2.322,1.078,1.078,0,0,0,.98,0,.358.358,0,0,0,.209-.322v-3.077h2.411v3.077a.359.359,0,0,0,.2.322,1.078,1.078,0,0,0,.98,0,.358.358,0,0,0,.209-.322v-6.968A.344.344,0,0,0,139.2,377.14Z" transform="translate(-121.566 -342.917)"/><path d="M202.542,377.033H198.01a.361.361,0,0,0-.327.183.79.79,0,0,0-.112.423.775.775,0,0,0,.118.439.367.367,0,0,0,.321.178h1.575v6.172a.361.361,0,0,0,.2.323,1.074,1.074,0,0,0,.98,0,.36.36,0,0,0,.209-.323v-6.172h1.564a.365.365,0,0,0,.321-.183.854.854,0,0,0,.005-.856A.361.361,0,0,0,202.542,377.033Z" transform="translate(-178.963 -342.917)"/><path d="M269.1,377.2a.735.735,0,0,0-.5-.171,1.148,1.148,0,0,0-.616.139,1.689,1.689,0,0,0-.477.6l-1.318,2.4-1.318-2.4a1.73,1.73,0,0,0-.471-.6,1.121,1.121,0,0,0-.611-.139.735.735,0,0,0-.5.171.657.657,0,0,0-.2.525v6.7a.359.359,0,0,0,.2.322,1.078,1.078,0,0,0,.98,0,.358.358,0,0,0,.209-.322v-4.7l1.232,2.315a.49.49,0,0,0,.461.279.5.5,0,0,0,.471-.279l1.254-2.23v4.609a.359.359,0,0,0,.2.322,1.078,1.078,0,0,0,.98,0,.358.358,0,0,0,.209-.322v-6.7A.658.658,0,0,0,269.1,377.2Z" transform="translate(-238.316 -342.917)"/><path d="M346.62,383.647h-2.614v-6.185a.345.345,0,0,0-.2-.322,1.186,1.186,0,0,0-.986,0,.344.344,0,0,0-.2.322v6.968a.365.365,0,0,0,.182.322.77.77,0,0,0,.429.118h3.4a.344.344,0,0,0,.305-.182.874.874,0,0,0,0-.858A.345.345,0,0,0,346.62,383.647Z" transform="translate(-310.344 -342.917)"/></g></g></g></svg>