<svg xmlns="http://www.w3.org/2000/svg" xmlns:xlink="http://www.w3.org/1999/xlink" width="142" height="142" viewBox="0 0 142 142"><defs><filter id="a" x="0" y="0" width="142" height="142" filterUnits="userSpaceOnUse"><feOffset dy="3" input="SourceAlpha"/><feGaussianBlur stdDeviation="3" result="b"/><feFlood flood-opacity="0.161"/><feComposite operator="in" in2="b"/><feComposite in="SourceGraphic"/></filter></defs><g transform="translate(-716.51 7207)"><g transform="matrix(1, 0, 0, 1, 716.51, -7207)" filter="url(#a)"><path d="M62,0A62,62,0,1,1,0,62,62,62,0,0,1,62,0Z" transform="translate(9 6)" fill="#fcd03e"/></g><g transform="translate(737.51 -7188.752)"><g transform="translate(1.605 1.605)"><g transform="translate(70.615 41.727)"><path d="M57.839,27H45v3.21a9.7,9.7,0,0,0,.546,3.21h.016a9.612,9.612,0,0,0,15.872,3.595A9.258,9.258,0,0,0,63.7,33.42h.016a9.7,9.7,0,0,0,.546-3.21V27Z" transform="translate(-45 -27)" fill="#b27946"/></g><g transform="translate(57.776 54.566)"><path d="M49.839,36.6V60.678H37V47.839l3.21-3.21A11.079,11.079,0,0,1,37,36.878V35h8.971A5.452,5.452,0,0,1,49.839,36.6Z" transform="translate(-37 -35)" fill="#ccd1d9"/></g><g transform="translate(70.615 54.566)"><path d="M45,60.678V36.6A5.48,5.48,0,0,1,48.868,35H62.654a1.61,1.61,0,0,1,1.6,1.6V59.073a1.61,1.61,0,0,1-1.6,1.6Z" transform="translate(-45 -35)" fill="#ccd1d9"/></g><g transform="translate(55.32 57.776)"><path d="M76.443,38.6V64.283a1.61,1.61,0,0,1-1.6,1.6H57.184l-.947.947a7.749,7.749,0,0,1-10.945,0l-.947-.947H35.47a9.582,9.582,0,0,0,2.455-6.42H68.418a1.61,1.61,0,0,0,1.6-1.6V37h4.815A1.61,1.61,0,0,1,76.443,38.6Z" transform="translate(-35.47 -37)" fill="#85d161"/></g><g transform="translate(15.84 48.147)"><path d="M30.337,72.727v6.42H14.288V73.064a9.561,9.561,0,0,0-3.418-7.35l1-.433a14.574,14.574,0,0,0,8.843-13.417h-.8a5.644,5.644,0,0,1-5.617-5.617,5.623,5.623,0,0,1,5.617-5.617h.8V31h32.1v8.3a11.079,11.079,0,0,0,3.21,7.752l-3.21,3.21V63.1a9.636,9.636,0,0,1-9.629,9.629Z" transform="translate(-10.87 -31)" fill="#f0d0b4"/></g><g transform="translate(0 48.147)"><path d="M26.678,31v9.629h-.8a5.623,5.623,0,0,0-5.617,5.617,5.644,5.644,0,0,0,5.617,5.617h.8A14.574,14.574,0,0,1,17.835,65.28l-1,.433c-.273-.225-.562-.449-.867-.658l-.674-.449A32.094,32.094,0,0,1,1,37.9V31H26.678Z" transform="translate(-1 -31)" fill="#b27946"/></g><g transform="translate(16.049 35.308)"><path d="M36.678,35.839h-6.42a6.42,6.42,0,0,0-12.839,0H11a12.839,12.839,0,0,1,25.678,0Z" transform="translate(-11 -23)" fill="#ffeaa7"/></g><g transform="translate(3.21 22.468)"><path d="M22.259,15H35.1v1.7a3.461,3.461,0,0,0,2.151,3.21l.064.016a3.46,3.46,0,0,0,3.788-.754l1.2-1.188,9.068,9.068-1.188,1.2a3.46,3.46,0,0,0-.754,3.788l.016.048a3.473,3.473,0,0,0,3.226,2.167h1.685v6.42H41.517a12.839,12.839,0,0,0-25.678,0H3v-6.42H4.685a3.474,3.474,0,0,0,3.226-2.167l.016-.048a3.46,3.46,0,0,0-.754-3.788l-1.188-1.2,9.068-9.068,1.22,1.2a3.429,3.429,0,0,0,3.771.738.059.059,0,0,0,.048-.016,3.452,3.452,0,0,0,2.167-3.21Z" transform="translate(-3 -15)" fill="#fcd770"/></g><g transform="translate(64.196)"><path d="M57.049,1A16.038,16.038,0,0,0,47.42,29.872V42.727H66.678V29.872A16.038,16.038,0,0,0,57.049,1Z" transform="translate(-41 -1)" fill="#fcd770"/></g><g transform="translate(25.678 9.629)"><path d="M17,7h6.42v8.024H17Z" transform="translate(-17 -7)" fill="#c2e8b0"/></g><g transform="translate(51.356 6.42)"><path d="M33,5V22.654l6.42,3.21V5Z" transform="translate(-33 -5)" fill="#c2e8b0"/></g><g transform="translate(38.517)"><path d="M25,18.654l6.42,3.21V1H25Z" transform="translate(-25 -1)" fill="#c2e8b0"/></g><g transform="translate(12.839)"><path d="M9,21.864l6.42-3.21V1H9Z" transform="translate(-9 -1)" fill="#c2e8b0"/></g><g transform="translate(0 6.42)"><path d="M1,25.864l6.42-3.21V5H1Z" transform="translate(-1 -5)" fill="#c2e8b0"/></g></g><g transform="translate(0)"><circle cx="1.716" cy="1.716" r="1.716" transform="translate(29.158 29.158)"/><path d="M11.12,24.725a1.6,1.6,0,1,0-1.135-.47A1.6,1.6,0,0,0,11.12,24.725Z" transform="translate(5.755 13.014)"/><path d="M28.09,24.725a1.6,1.6,0,1,0-1.135-.47A1.6,1.6,0,0,0,28.09,24.725Z" transform="translate(16.02 13.014)"/><path d="M19.21,9.21h3.21v6.42h3.21V6H16v9.629h3.21Z" transform="translate(9.678 3.629)"/><path d="M35.21,7.21h3.21V26.468h3.21V4H32V23.259h3.21Z" transform="translate(19.356 2.42)"/><path d="M27.21,3.21h3.21V22.468h3.21V0H24V19.259h3.21Z" transform="translate(14.517)"/><path d="M11.21,3.21h3.21V19.259h3.21V0H8V22.468h3.21Z" transform="translate(4.839)"/><path d="M3.21,7.21H6.42V23.259h3.21V4H0V26.468H3.21Z" transform="translate(0 2.42)"/><path d="M36.839,36h-3.21a3.21,3.21,0,1,1-6.42,0H24a6.42,6.42,0,0,0,12.839,0Z" transform="translate(14.517 21.776)"/><path d="M96.293,57.776h-3.21a3.213,3.213,0,0,0-3.21-3.21H89.7a11.192,11.192,0,0,0,3.388-8.024V31.25a17.493,17.493,0,0,0,6.42-13.6,17.654,17.654,0,1,0-35.308,0,17.493,17.493,0,0,0,6.42,13.6V46.542a11.2,11.2,0,0,0,3.659,8.272,6.993,6.993,0,0,0-2.054.9,7.01,7.01,0,0,0-3.865-1.151l-7.37,0v-6.42h-3.21v-6.42H54.488a1.923,1.923,0,0,1-1.353-3.268l2.324-2.325L44.11,24.786l-2.325,2.325a1.906,1.906,0,0,1-2.115.387,1.857,1.857,0,0,1-1.152-1.72V22.468H22.468v3.309a1.924,1.924,0,0,1-3.253,1.348l-2.34-2.34L5.527,36.134,7.853,38.46A1.923,1.923,0,0,1,6.5,41.727H3.21v6.42H0v8.5A33.641,33.641,0,0,0,15.009,84.69l.677.451a8.012,8.012,0,0,1,3.572,6.676V99.5H38.517v-6.42H49.752a11.188,11.188,0,0,0,7.846-3.21h7.537l.47.47a9.355,9.355,0,0,0,13.229,0l.47-.47H96.293a3.213,3.213,0,0,0,3.21-3.21V60.986a3.213,3.213,0,0,0-3.21-3.21Zm-20.822-6.42H88.229a7.943,7.943,0,0,1-12.757,0Zm1.563-32.1h-1.6a1.6,1.6,0,1,1,1.6-1.6Zm6.42,22.468h-3.21V22.468h3.21Zm6.42,3.21v1.6a8.017,8.017,0,0,1-.162,1.6H73.987a8.017,8.017,0,0,1-.162-1.6v-1.6ZM67.405,17.654A14.444,14.444,0,1,1,90.514,29.19l-.64.48V41.727h-3.21V22.468h1.6a4.815,4.815,0,1,0-4.815-4.815v1.6h-3.21v-1.6a4.815,4.815,0,1,0-4.815,4.815h1.6V41.727h-3.21V29.67l-.64-.481A14.326,14.326,0,0,1,67.405,17.654Zm19.259,1.6v-1.6a1.6,1.6,0,1,1,1.6,1.6Zm3.21,38.517V80.244H73.825V58.524a3.838,3.838,0,0,1,2.269-.748Zm-21.518,0a3.814,3.814,0,0,1,2.26.749V80.244H60.986v-3.21h6.42v-3.21h-6.42v-3.21h6.42v-3.21h-4.15l1.6-1.6-1.136-1.135c-.151-.151-.287-.311-.427-.47h4.109v-3.21H61.462a9.363,9.363,0,0,1-.477-2.934v-.276ZM6.42,44.937H6.5a5.134,5.134,0,0,0,3.625-8.747l-.056-.056,6.81-6.81.069.071a5.135,5.135,0,0,0,8.734-3.617v-.1h9.629v.1a5.133,5.133,0,0,0,8.747,3.6l.056-.056,6.81,6.81-.056.056a5.132,5.132,0,0,0,3.622,8.745l.053,3.21h-9.7a14.438,14.438,0,0,0-28.7,0H6.42Zm31.936,3.21a8.024,8.024,0,0,0-15.725,0H19.387a11.219,11.219,0,0,1,22.212,0H38.355Zm-3.343,0H25.975a4.785,4.785,0,0,1,9.037,0Zm-31.8,8.5v-5.29H25.678v6.463a7.223,7.223,0,0,0-.091,14.346,12.983,12.983,0,0,1-7.787,10.4l-.136.058c-.069-.048-.128-.1-.2-.151l-.677-.451A30.44,30.44,0,0,1,3.21,56.646ZM49.752,89.874H28.888v3.21h6.42v3.21H22.468V91.817a11.185,11.185,0,0,0-2.353-6.85,16.155,16.155,0,0,0,8.772-14.353v-1.6H26.481a4.012,4.012,0,1,1,0-8.024h2.407V51.356H57.776v6.7a12.471,12.471,0,0,0,2.616,7.678l-2.616,2.616v8.689h-6.42a3.213,3.213,0,0,1-3.21-3.21h-3.21a6.426,6.426,0,0,0,6.42,6.42h6.42v1.6A8.034,8.034,0,0,1,49.752,89.874Zm46.542-3.21H77.975l-1.411,1.411a6.3,6.3,0,0,1-8.689,0l-1.411-1.411H59.886a11.134,11.134,0,0,0,.971-3.21H89.874a3.213,3.213,0,0,0,3.21-3.21V60.986h3.21Z" transform="translate(0)"/><path d="M48,38h9.629v3.21H48Z" transform="translate(29.035 22.986)"/><path d="M48,42h9.629v3.21H48Z" transform="translate(29.035 25.405)"/><path d="M48,46h3.21v3.21H48Z" transform="translate(29.035 27.825)"/><path d="M52,46h3.21v3.21H52Z" transform="translate(31.454 27.825)"/></g></g></g></svg>