<svg xmlns="http://www.w3.org/2000/svg" width="85" height="135" viewBox="0 0 85 135"><g transform="translate(-180 -840)"><rect width="85" height="135" transform="translate(180 840)" fill="#fed5b1"/><g transform="translate(3.668 4.188)"><g transform="translate(191 848)"><g transform="translate(0.962 0.962)"><g transform="translate(19.247 32.979)"><path d="M32.432,52.216a3.78,3.78,0,0,1-2.695,1.116H29.7v-7.7a1.93,1.93,0,0,0-1.925-1.925H22l.828-7.439a13.545,13.545,0,0,1,10.72,13.251A3.78,3.78,0,0,1,32.432,52.216Z" transform="translate(-22 -36.27)" fill="#b4dd7f"/></g><g transform="translate(11.548 36.568)"><path d="M21.7,43.849H14L17.849,40Z" transform="translate(-14 -40)" fill="#b4dd7f"/></g><g transform="translate(0 32.979)"><path d="M5.849,45.633v7.7H5.811A3.811,3.811,0,0,1,2,49.521,13.545,13.545,0,0,1,12.72,36.27l.828,7.439H7.774a1.93,1.93,0,0,0-1.925,1.925Z" transform="translate(-2 -36.27)" fill="#b4dd7f"/></g><g transform="translate(15.397 32.719)"><path d="M22.677,36.26,21.849,43.7,18,39.849,20.887,36A13.826,13.826,0,0,1,22.677,36.26Z" transform="translate(-18 -36)" fill="#a0d468"/></g><g transform="translate(10.72 32.719)"><path d="M14.93,36l2.887,3.849L13.968,43.7,13.14,36.26A13.826,13.826,0,0,1,14.93,36Z" transform="translate(-13.14 -36)" fill="#a0d468"/></g><g transform="translate(40.418 46.192)"><path d="M57.473,50V61.548H44V50H57.473Z" transform="translate(-44 -50)" fill="#ffeaa7"/></g><g transform="translate(40.418 28.87)"><path d="M57.473,32V43.548H44V32H57.473Z" transform="translate(-44 -32)" fill="#ffeaa7"/></g><g transform="translate(16.87)"><path d="M49.814,25.1H26.545a2.68,2.68,0,0,0-.318-.645v-.01a6.5,6.5,0,0,0-6-8.969H19.53a5.744,5.744,0,0,1,4.3-1.925,5.779,5.779,0,0,1,5.774-5.774,5.5,5.5,0,0,1,1.443.192,11.541,11.541,0,0,1,21,1.761c.212-.01.433-.029.654-.029a7.7,7.7,0,0,1,0,15.4Z" transform="translate(-19.53 -2)" fill="#fde07e"/></g><g transform="translate(6.736 13.473)"><path d="M26.322,22.5a6.515,6.515,0,0,1-.491,2.473,2.876,2.876,0,0,0-2.4-1.27H22.309a6.578,6.578,0,0,1-4.648-1.925A6.578,6.578,0,0,1,13.013,23.7H11.887a2.877,2.877,0,0,0-2.4,1.27A6.493,6.493,0,0,1,15.5,16h4.33a6.506,6.506,0,0,1,6.5,6.5Z" transform="translate(-9 -16)" fill="#b27946"/></g><g transform="translate(3.849 53.89)"><path d="M6,58H29.1a3.848,3.848,0,0,1-3.849,3.849H9.849A3.848,3.848,0,0,1,6,58Z" transform="translate(-6 -58)" fill="#aab2bd"/></g><g transform="translate(3.849 40.418)"><path d="M29.1,55.548v1.925H6V45.925A1.93,1.93,0,0,1,7.925,44H27.171A1.93,1.93,0,0,1,29.1,45.925v9.623Z" transform="translate(-6 -44)" fill="#ccd1d9"/></g><g transform="translate(12.51 30.756)"><path d="M19.812,34a2.529,2.529,0,0,0,.472-.038l.491,1.963-2.887,3.849L15,35.923l.491-1.963a2.53,2.53,0,0,0,.472.038Z" transform="translate(-15 -33.96)" fill="#f0d0b4"/></g><g transform="translate(20.209 21.171)"><path d="M26.676,25.925a2.667,2.667,0,0,1,.173.962,2.891,2.891,0,0,1-2.887,2.887H23V24h.962a2.877,2.877,0,0,1,2.4,1.27v.01A2.68,2.68,0,0,1,26.676,25.925Z" transform="translate(-23 -24)" fill="#f0d0b4"/></g><g transform="translate(10.586 19.247)"><path d="M22.623,23.925v6.736a2.888,2.888,0,0,1-2.415,2.848,2.53,2.53,0,0,1-.472.038H15.887a2.53,2.53,0,0,1-.472-.038A2.888,2.888,0,0,1,13,30.661V23.925h.164A6.578,6.578,0,0,0,17.812,22a6.578,6.578,0,0,0,4.648,1.925Z" transform="translate(-13 -22)" fill="#f0d0b4"/></g><g transform="translate(6.736 21.171)"><path d="M12.849,24v5.774h-.962a2.885,2.885,0,0,1-2.4-4.494v-.01a2.876,2.876,0,0,1,2.4-1.27Z" transform="translate(-9 -24)" fill="#f0d0b4"/></g><g transform="translate(14.176 43.563)"><ellipse cx="1.336" cy="2.226" rx="1.336" ry="2.226" transform="translate(0 0)" fill="#3a8416"/></g></g><g transform="translate(0 0)"><path d="M52,26.021A8.661,8.661,0,0,0,52,8.7h-.011A12.5,12.5,0,0,0,29.871,6.847a6.724,6.724,0,0,0-7.639,5.762,6.743,6.743,0,0,0-3.776,1.864H15.2a7.44,7.44,0,0,0-7.057,9.862,3.8,3.8,0,0,0-.405,1.685,3.853,3.853,0,0,0,3.849,3.849,3.844,3.844,0,0,0,2.229,3.479l-.112.444A14.584,14.584,0,0,0,1,48.192,4.78,4.78,0,0,0,4.849,52.87v2.982a4.817,4.817,0,0,0,4.812,4.812h15.4a4.817,4.817,0,0,0,4.812-4.812V54.89H41.418v5.774h15.4V47.192H50.079V43.342h6.736V29.87H50.079V26.021ZM23.134,14.473H24.1V13.51A4.786,4.786,0,0,1,30.11,8.857l.721.186.361-.651a10.576,10.576,0,0,1,19.245,1.622l.246.7.742-.063c.192-.015.383-.03.578-.03A6.736,6.736,0,0,1,52,24.1H26.663a7.455,7.455,0,0,0-5.136-9.341,4.789,4.789,0,0,1,1.606-.282Zm0,9.623a1.925,1.925,0,1,1,0,3.849ZM9.661,26.021A1.927,1.927,0,0,1,11.586,24.1v3.849A1.927,1.927,0,0,1,9.661,26.021Zm3.053-3.849H11.586a3.8,3.8,0,0,0-1.853.5,5.484,5.484,0,0,1-.071-.733A5.543,5.543,0,0,1,15.2,16.4h4.323a5.543,5.543,0,0,1,5.537,5.537,5.484,5.484,0,0,1-.071.733,3.8,3.8,0,0,0-1.853-.5H22.006a5.569,5.569,0,0,1-3.966-1.643l-.68-.681-.68.681a5.571,5.571,0,0,1-3.966,1.643Zm.8,1.883a7.454,7.454,0,0,0,3.849-1.561,7.462,7.462,0,0,0,3.849,1.561V29.87a1.927,1.927,0,0,1-1.925,1.925H15.435A1.927,1.927,0,0,1,13.51,29.87ZM26.983,41.418h-4.7l.584-5.254a12.653,12.653,0,0,1,8.926,12.028,2.838,2.838,0,0,1-1.925,2.676V44.3A2.891,2.891,0,0,0,26.983,41.418Zm.962,13.473H6.774V44.3a.963.963,0,0,1,.962-.962H26.983a.963.963,0,0,1,.962.962Zm-8.93-21.171.188.752L17.36,36.927l-1.842-2.456.187-.752ZM17.36,39.892l1.526,1.526H15.833Zm-1.27-1.451-1.843,1.843-.5-4.541c.1-.014.2-.026.3-.038Zm4.384,1.844-1.843-1.843,2.052-2.735c.1.012.2.023.3.038ZM2.925,48.192a12.653,12.653,0,0,1,8.927-12.028l.583,5.254h-4.7A2.891,2.891,0,0,0,4.849,44.3v6.569A2.845,2.845,0,0,1,2.925,48.192ZM25.058,58.74H9.661a2.883,2.883,0,0,1-2.71-1.925H27.767A2.881,2.881,0,0,1,25.058,58.74Zm29.832,0H43.342V49.116H54.89Zm0-17.322H43.342V31.794H54.89ZM48.154,29.87H41.418V43.342h6.736v3.849H41.418v5.774H29.87v-.093a4.779,4.779,0,0,0,3.849-4.681,14.584,14.584,0,0,0-12.7-14.4l-.111-.444a3.847,3.847,0,0,0,2.228-3.48,3.853,3.853,0,0,0,3.849-3.849H48.154Z" transform="translate(-1 -1)"/><path d="M17.887,50.849a.962.962,0,0,1,0-1.925V47a2.887,2.887,0,1,0,2.887,2.887H18.849A.963.963,0,0,1,17.887,50.849Z" transform="translate(-1.527 -2.733)"/><path d="M47,53h7.7v1.925H47Z" transform="translate(-2.733 -2.959)"/><path d="M47,57h7.7v1.925H47Z" transform="translate(-2.733 -3.11)"/><path d="M47,35h7.7v1.925H47Z" transform="translate(-2.733 -2.281)"/><path d="M47,39h7.7v1.925H47Z" transform="translate(-2.733 -2.432)"/><path d="M58.736,18H56.812a2.891,2.891,0,0,1-2.887,2.887H52v1.925h1.925A4.817,4.817,0,0,0,58.736,18Z" transform="translate(-2.921 -1.64)"/><path d="M48,21h1.925v1.925H48Z" transform="translate(-2.771 -1.753)"/><path d="M44,21h1.925v1.925H44Z" transform="translate(-2.62 -1.753)"/></g></g><g transform="translate(191 907.219)"><g transform="translate(0.782 0.782)"><g transform="translate(2.213 26.552)"><path d="M28.713,262.061H56.951v3.372H28.713Z" transform="translate(-28.713 -262.061)" fill="#d0cee7"/></g><g transform="translate(0 29.923)"><path d="M38.477,305.975H9.186A1.686,1.686,0,0,1,7.5,304.289v-8.219a1.686,1.686,0,0,1,1.686-1.686H38.477a1.686,1.686,0,0,1,1.686,1.686v8.219A1.686,1.686,0,0,1,38.477,305.975Z" transform="translate(-7.5 -294.385)" fill="#efecef"/><g transform="translate(28.238 0)"><path d="M280.963,294.386h-2.74a1.686,1.686,0,0,1,1.686,1.686v8.218a1.686,1.686,0,0,1-1.686,1.686h2.74a1.686,1.686,0,0,0,1.686-1.686v-8.218A1.686,1.686,0,0,0,280.963,294.386Z" transform="translate(-278.224 -294.386)" fill="#dddaec"/></g></g><g transform="translate(2.213 11.59)"><path d="M28.713,118.618H56.951v3.372H28.713Z" transform="translate(-28.713 -118.618)" fill="#d0cee7"/></g><path d="M38.477,19.09H9.186A1.686,1.686,0,0,1,7.5,17.4V9.186A1.686,1.686,0,0,1,9.186,7.5H38.477a1.686,1.686,0,0,1,1.686,1.686V17.4A1.686,1.686,0,0,1,38.477,19.09Z" transform="translate(-7.5 -7.5)" fill="#efecef"/><g transform="translate(28.238 0)"><path d="M280.963,7.5h-2.74a1.686,1.686,0,0,1,1.686,1.686V17.4a1.686,1.686,0,0,1-1.686,1.686h2.74a1.686,1.686,0,0,0,1.686-1.686V9.186A1.686,1.686,0,0,0,280.963,7.5Z" transform="translate(-278.224 -7.5)" fill="#dddaec"/></g><g transform="translate(3.372 4.109)"><circle cx="1.686" cy="1.686" r="1.686" fill="#b3e59f"/></g><g transform="translate(10.115 4.109)"><circle cx="1.686" cy="1.686" r="1.686" fill="#b3e59f"/></g><g transform="translate(0 14.962)"><path d="M38.477,162.532H9.186A1.686,1.686,0,0,1,7.5,160.846v-8.218a1.686,1.686,0,0,1,1.686-1.686H38.477a1.686,1.686,0,0,1,1.686,1.686v8.218A1.686,1.686,0,0,1,38.477,162.532Z" transform="translate(-7.5 -150.942)" fill="#efecef"/><g transform="translate(28.238 0)"><path d="M280.963,150.943h-2.74a1.686,1.686,0,0,1,1.686,1.686v8.218a1.686,1.686,0,0,1-1.686,1.686h2.74a1.686,1.686,0,0,0,1.686-1.686v-8.218A1.686,1.686,0,0,0,280.963,150.943Z" transform="translate(-278.224 -150.943)" fill="#dddaec"/></g></g><g transform="translate(3.372 19.071)"><circle cx="1.686" cy="1.686" r="1.686" fill="#b3e59f"/><g transform="translate(6.743)"><circle cx="1.686" cy="1.686" r="1.686" fill="#b3e59f"/></g></g><g transform="translate(3.372 34.033)"><circle cx="1.686" cy="1.686" r="1.686" fill="#b3e59f"/><g transform="translate(6.743)"><circle cx="1.686" cy="1.686" r="1.686" fill="#b3e59f"/></g></g><g transform="translate(20.651 17.912)"><g transform="translate(9.483)"><path d="M296.406,179.227V182.6H316v-2.318a1.054,1.054,0,0,0-1.054-1.054H296.406Z" transform="translate(-296.406 -179.227)" fill="#fcd03e"/></g><path d="M235.625,182.6H218.135l-.823-2.632a1.054,1.054,0,0,0-1.006-.739h-6.88a1.054,1.054,0,0,0-1.006.739L207.6,182.6h-1.054a1.054,1.054,0,0,0-1.054,1.054v18.123a1.054,1.054,0,0,0,1.054,1.054h29.081a1.054,1.054,0,0,0,1.054-1.054V183.652A1.054,1.054,0,0,0,235.625,182.6Z" transform="translate(-205.491 -179.227)" fill="#fcd03e"/><g transform="translate(27.5 3.372)"><path d="M471.778,211.553h-2.634a1.054,1.054,0,0,1,1.054,1.054v18.123a1.054,1.054,0,0,1-1.054,1.054h2.634a1.054,1.054,0,0,0,1.054-1.054V212.607A1.054,1.054,0,0,0,471.778,211.553Z" transform="translate(-469.144 -211.553)" fill="#fcd03e"/></g></g></g><g transform="translate(17.43 34.078)"><circle cx="9.272" cy="9.272" r="9.272" fill="#b3e59f"/></g><g transform="translate(18.997 35.644)"><path d="M194.991,341.732A9.273,9.273,0,0,1,182.127,354.6a9.273,9.273,0,1,0,12.864-12.864Z" transform="translate(-182.127 -341.732)" fill="#95d6a4"/></g><g transform="translate(0 0)"><path d="M162.408,40.961h.626a.782.782,0,1,0,0-1.565h-.626a.782.782,0,1,0,0,1.565Z" transform="translate(-144.768 -35.287)"/><path d="M236.55,40.961h1.04a.782.782,0,1,0,0-1.565h-1.04a.782.782,0,0,0,0,1.565Z" transform="translate(-211.176 -35.287)"/><path d="M197.493,40.961h1.04a.782.782,0,1,0,0-1.565h-1.04a.782.782,0,0,0,0,1.565Z" transform="translate(-176.193 -35.287)"/><path d="M275.607,40.961h.626a.782.782,0,1,0,0-1.565h-.626a.782.782,0,1,0,0,1.565Z" transform="translate(-246.159 -35.287)"/><path d="M275.607,73.287h.626a.782.782,0,1,0,0-1.565h-.626a.782.782,0,0,0,0,1.565Z" transform="translate(-246.159 -64.241)"/><path d="M236.55,73.287h1.04a.782.782,0,0,0,0-1.565h-1.04a.782.782,0,0,0,0,1.565Z" transform="translate(-211.176 -64.241)"/><path d="M197.493,73.287h1.04a.782.782,0,0,0,0-1.565h-1.04a.782.782,0,0,0,0,1.565Z" transform="translate(-176.193 -64.241)"/><path d="M162.408,73.287h.626a.782.782,0,0,0,0-1.565h-.626a.782.782,0,0,0,0,1.565Z" transform="translate(-144.768 -64.241)"/><path d="M32.325,41.865A2.468,2.468,0,1,0,34.793,39.4,2.471,2.471,0,0,0,32.325,41.865Zm2.468-.9a.9.9,0,1,1-.9.9A.9.9,0,0,1,34.793,40.961Z" transform="translate(-28.953 -35.288)"/><path d="M101.912,41.865a2.468,2.468,0,1,0-2.468,2.468A2.471,2.471,0,0,0,101.912,41.865Zm-3.372,0a.9.9,0,1,1,.9.9A.9.9,0,0,1,98.541,41.865Z" transform="translate(-86.861 -35.288)"/><path d="M34.793,187.776a2.468,2.468,0,1,0-2.468-2.468A2.471,2.471,0,0,0,34.793,187.776Zm0-3.372a.9.9,0,1,1-.9.9A.9.9,0,0,1,34.793,184.4Z" transform="translate(-28.953 -163.769)"/><path d="M99.443,187.776a2.468,2.468,0,1,0-2.468-2.468A2.471,2.471,0,0,0,99.443,187.776Zm0-3.372a.9.9,0,1,1-.9.9A.9.9,0,0,1,99.443,184.4Z" transform="translate(-86.86 -163.769)"/><path d="M34.793,326.282a2.468,2.468,0,1,0,2.468,2.468A2.471,2.471,0,0,0,34.793,326.282Zm0,3.372a.9.9,0,1,1,.9-.9A.9.9,0,0,1,34.793,329.654Z" transform="translate(-28.953 -292.249)"/><path d="M99.443,326.282a2.468,2.468,0,1,0,2.468,2.468A2.471,2.471,0,0,0,99.443,326.282Zm0,3.372a.9.9,0,1,1,.9-.9A.9.9,0,0,1,99.443,329.654Z" transform="translate(-86.86 -292.249)"/><path d="M51.568,21.284H51.3V19.748a1.838,1.838,0,0,0-1.836-1.836H47.656a.782.782,0,1,0,0,1.565h1.806a.271.271,0,0,1,.271.271v1.536H34.653l-.565-1.807h9.917a.782.782,0,1,0,0-1.565H34.228V17.43a2.472,2.472,0,0,0-2.213-2.455V13.142a2.471,2.471,0,0,0,2.213-2.455V2.468A2.471,2.471,0,0,0,31.76,0H8.571a.782.782,0,1,0,0,1.565H31.76a.9.9,0,0,1,.9.9v8.219a.9.9,0,0,1-.9.9H2.468a.9.9,0,0,1-.9-.9V2.468a.9.9,0,0,1,.9-.9H4.92A.782.782,0,1,0,4.92,0H2.468A2.471,2.471,0,0,0,0,2.468v8.219a2.471,2.471,0,0,0,2.213,2.455v1.833A2.472,2.472,0,0,0,0,17.43v8.218A2.472,2.472,0,0,0,2.213,28.1v1.834A2.472,2.472,0,0,0,0,32.392V40.61a2.471,2.471,0,0,0,2.468,2.468H16.652q0,.135,0,.272a10.044,10.044,0,0,0,.154,1.758.782.782,0,0,0,1.54-.275,8.489,8.489,0,1,1,1.211,3.1.782.782,0,0,0-1.317.845,10.054,10.054,0,0,0,18.52-5.425q0-.136,0-.272H51.568A1.838,1.838,0,0,0,53.4,41.242V23.12a1.838,1.838,0,0,0-1.836-1.836ZM3.777,14.962V13.155H30.45v1.807ZM1.565,25.648V17.43a.9.9,0,0,1,.9-.9H31.76a.9.9,0,0,1,.9.9v.482H25.369A1.826,1.826,0,0,0,23.617,19.2l-.651,2.083h-.479a1.838,1.838,0,0,0-1.836,1.836v3.432H2.468a.9.9,0,0,1-.9-.9Zm19.087,2.468v1.807H3.777V28.116Zm-3.835,13.4H2.468a.9.9,0,0,1-.9-.9V32.392a.9.9,0,0,1,.9-.9H20.652v3.837A10.068,10.068,0,0,0,16.817,41.514Zm35.023-.271a.272.272,0,0,1-.271.271H36.587a10.05,10.05,0,0,0-14.371-7.16V23.12a.272.272,0,0,1,.271-.271h1.054a.782.782,0,0,0,.747-.549l.823-2.633a.269.269,0,0,1,.258-.19h6.884a.269.269,0,0,1,.255.191l.823,2.632a.782.782,0,0,0,.747.549H51.568a.272.272,0,0,1,.271.271V41.242Z" transform="translate(0 0)"/><path d="M249.282,417.623a.782.782,0,0,0,0,1.565A5.328,5.328,0,0,0,254.2,415.9a.782.782,0,0,0,1.292-.879l-1.014-1.574a.783.783,0,0,0-1.081-.234l-1.574,1.014a.782.782,0,0,0,.811,1.337A3.759,3.759,0,0,1,249.282,417.623Z" transform="translate(-222.58 -369.998)"/><path d="M201.605,359.618a5.328,5.328,0,0,0-4.917,3.291.782.782,0,0,0-1.292.879l1.014,1.574a.783.783,0,0,0,1.081.234l1.574-1.014a.782.782,0,0,0-.811-1.337,3.759,3.759,0,0,1,3.351-2.063.782.782,0,1,0,0-1.565Z" transform="translate(-174.903 -322.108)"/></g></g></g></g></svg>