<svg xmlns="http://www.w3.org/2000/svg" xmlns:xlink="http://www.w3.org/1999/xlink" width="142" height="142" viewBox="0 0 142 142"><defs><filter id="a" x="0" y="0" width="142" height="142" filterUnits="userSpaceOnUse"><feOffset dy="3" input="SourceAlpha"/><feGaussianBlur stdDeviation="3" result="b"/><feFlood flood-opacity="0.161"/><feComposite operator="in" in2="b"/><feComposite in="SourceGraphic"/></filter></defs><g transform="translate(-1795.51 7207)"><g transform="matrix(1, 0, 0, 1, 1795.51, -7207)" filter="url(#a)"><path d="M62,0A62,62,0,1,1,0,62,62,62,0,0,1,62,0Z" transform="translate(9 6)" fill="#fcd03e"/></g><g transform="translate(1811.01 -7215.888)"><path d="M129.693,176.262H33.764v-65.45a4.316,4.316,0,0,1,4.317-4.317h87.3a4.316,4.316,0,0,1,4.317,4.317v65.45Z" transform="translate(-26.477 -64.5)" fill="#818181"/><path d="M33.764,413.585h95.929v3.488H33.764Z" transform="translate(-26.477 -305.311)" fill="#595959"/><path d="M0,0H56.685V82.848H0Z" transform="translate(96.675 48.537) rotate(90)" fill="#62d8f9"/><path d="M109.154,440.649H13.111A5.612,5.612,0,0,1,7.5,435.037v-5.289H114.766v5.289A5.611,5.611,0,0,1,109.154,440.649Z" transform="translate(-5.881 -317.986)" fill="#818181"/><path d="M457.64,429.748v5.233a5.668,5.668,0,0,1-5.668,5.668h5.668a5.669,5.669,0,0,0,5.669-5.668v-5.233Z" transform="translate(-354.424 -317.986)" fill="#595959"/><path d="M211.5,227.934h-21.89a4.316,4.316,0,0,1-4.317-4.317v-21.89a4.316,4.316,0,0,1,4.317-4.317H211.5a4.316,4.316,0,0,1,4.317,4.317v21.89A4.317,4.317,0,0,1,211.5,227.934Z" transform="translate(-145.299 -135.793)" fill="#cbcbcb"/><g transform="translate(13.828 25.863)"><circle cx="3.706" cy="3.706" r="3.706" transform="translate(75.435 47.31)" fill="#fbe77b"/><circle cx="3.706" cy="3.706" r="3.706" transform="translate(66.714 36.191)" fill="#fbe77b"/><circle cx="3.706" cy="3.706" r="3.706" transform="translate(66.714 58.429)" fill="#fbe77b"/><circle cx="3.706" cy="3.706" r="3.706" transform="translate(37.717)" fill="#fbe77b"/><circle cx="3.706" cy="3.706" r="3.706" transform="translate(26.598 8.721)" fill="#fbe77b"/><circle cx="3.706" cy="3.706" r="3.706" transform="translate(48.836 8.721)" fill="#fbe77b"/><circle cx="3.706" cy="3.706" r="3.706" transform="translate(0 47.31)" fill="#fbe77b"/><circle cx="3.706" cy="3.706" r="3.706" transform="translate(8.721 36.191)" fill="#fbe77b"/><circle cx="3.706" cy="3.706" r="3.706" transform="translate(8.721 58.429)" fill="#fbe77b"/></g><path d="M286.677,236.807a1.635,1.635,0,1,0,1.635,1.635A1.635,1.635,0,0,0,286.677,236.807Z" transform="translate(-223.522 -166.686)"/><path d="M108.884,110.144h-4.05V46.313A5.942,5.942,0,0,0,98.9,40.377H88.489a1.619,1.619,0,0,0,0,3.237H98.9a2.7,2.7,0,0,1,2.7,2.7v63.831H8.906V46.313a2.7,2.7,0,0,1,2.7-2.7h30.91v3.3H13.828a1.619,1.619,0,0,0-1.619,1.619v56.685a1.619,1.619,0,0,0,1.619,1.619h5.323a1.619,1.619,0,0,0,0-3.237h-3.7V81.777a5.323,5.323,0,0,0,7.16-3.279H38.371V82.88l-4.2,3.5H31.328a5.325,5.325,0,1,0,0,3.237h3.43a1.619,1.619,0,0,0,1.036-.375l2.577-2.148v.73a5.942,5.942,0,0,0,5.935,5.935H66.2a5.942,5.942,0,0,0,5.935-5.935v-.73l2.577,2.148a1.619,1.619,0,0,0,1.036.375h3.43a5.325,5.325,0,1,0,0-3.237H76.331l-4.2-3.5V78.5H87.9a5.323,5.323,0,0,0,7.16,3.279V103.6H26.712a1.619,1.619,0,1,0,0,3.237H96.675a1.619,1.619,0,0,0,1.619-1.619V48.537a1.619,1.619,0,0,0-1.619-1.619H67.989v-3.3H80.9a1.619,1.619,0,0,0,0-3.237H71.269a5.325,5.325,0,1,0-9.8,0h-4.6V34.642a5.325,5.325,0,1,0-3.237,0v5.736h-4.6a5.325,5.325,0,1,0-9.8,0H11.6a5.942,5.942,0,0,0-5.935,5.935v63.831H1.619A1.619,1.619,0,0,0,0,111.762v5.289a7.238,7.238,0,0,0,7.23,7.23H77.563a1.619,1.619,0,0,0,0-3.237H7.23a4,4,0,0,1-3.993-3.993v-3.671H107.266v3.671a4,4,0,0,1-3.993,3.993H85.159a1.619,1.619,0,1,0,0,3.237h18.114a7.238,7.238,0,0,0,7.23-7.23v-5.289a1.619,1.619,0,0,0-1.619-1.619ZM26.255,90.086A2.088,2.088,0,1,1,28.343,88,2.09,2.09,0,0,1,26.255,90.086Zm57.993-4.175A2.088,2.088,0,1,1,82.161,88,2.09,2.09,0,0,1,84.248,85.911Zm-29-58.429a2.088,2.088,0,1,1-2.088,2.088A2.09,2.09,0,0,1,55.252,27.481ZM17.534,78.967a2.088,2.088,0,1,1,2.087-2.088A2.09,2.09,0,0,1,17.534,78.967Zm5.073-3.706a5.323,5.323,0,0,0-7.16-3.279V50.155H42.514v6.23a1.62,1.62,0,0,0,.375,1.036L45.037,60h-.73a5.942,5.942,0,0,0-5.935,5.935v.73l-2.577-2.148a1.619,1.619,0,0,0-1.036-.375h-3.43a5.325,5.325,0,1,0,0,3.237h2.844l4.2,3.5v4.382H22.607ZM61.252,60H56.87V50.155h7.882V55.8Zm-7.619,0H49.251l-3.5-4.2V50.155h7.882ZM28.343,65.76a2.088,2.088,0,1,1-2.088-2.088A2.09,2.09,0,0,1,28.343,65.76ZM66.2,90.522H44.307a2.7,2.7,0,0,1-2.7-2.7V65.934a2.7,2.7,0,0,1,2.7-2.7H66.2a2.7,2.7,0,0,1,2.7,2.7v21.89A2.7,2.7,0,0,1,66.2,90.522ZM92.969,78.967a2.088,2.088,0,1,1,2.088-2.088A2.09,2.09,0,0,1,92.969,78.967Zm2.088-28.812V71.981a5.323,5.323,0,0,0-7.16,3.279H72.132V70.879l4.2-3.5h2.844a5.325,5.325,0,1,0,0-3.237h-3.43a1.619,1.619,0,0,0-1.036.375l-2.577,2.148v-.73A5.942,5.942,0,0,0,66.2,60h-.73l2.148-2.577a1.62,1.62,0,0,0,.375-1.036v-6.23H95.057Zm-12.9,15.6a2.088,2.088,0,1,1,2.088,2.088A2.09,2.09,0,0,1,82.161,65.76ZM64.283,38.29a2.088,2.088,0,1,1,2.087,2.088,2.09,2.09,0,0,1-2.087-2.088Zm.469,5.325v3.3H56.87v-3.3Zm-11.119,3.3H45.751v-3.3h7.882ZM42.045,38.29a2.088,2.088,0,1,1,2.088,2.088A2.09,2.09,0,0,1,42.045,38.29Z"/><path d="M213.335,223.313a1.619,1.619,0,0,0-3.05,0L204.4,239.882a1.619,1.619,0,1,0,3.051,1.084l1.4-3.938h5.925l1.4,3.938a1.619,1.619,0,0,0,3.051-1.084ZM210,233.791l1.812-5.1,1.812,5.1Z" transform="translate(-160.21 -155.26)"/><path d="M286.737,262.643a1.619,1.619,0,0,0-1.619,1.619v7.849a1.619,1.619,0,1,0,3.237,0v-7.849A1.619,1.619,0,0,0,286.737,262.643Z" transform="translate(-223.582 -186.946)"/></g></g></svg>