<svg xmlns="http://www.w3.org/2000/svg" xmlns:xlink="http://www.w3.org/1999/xlink" width="142" height="142" viewBox="0 0 142 142"><defs><filter id="a" x="0" y="0" width="142" height="142" filterUnits="userSpaceOnUse"><feOffset dy="3" input="SourceAlpha"/><feGaussianBlur stdDeviation="3" result="b"/><feFlood flood-opacity="0.161"/><feComposite operator="in" in2="b"/><feComposite in="SourceGraphic"/></filter><clipPath id="c"><rect width="81.826" height="103.999" fill="none"/></clipPath></defs><g transform="translate(-351.51 6395)"><g transform="matrix(1, 0, 0, 1, 351.51, -6395)" filter="url(#a)"><path d="M62,0A62,62,0,1,1,0,62,62,62,0,0,1,62,0Z" transform="translate(9 6)" fill="#fcd03e"/></g><g transform="translate(391.087 -6379)" clip-path="url(#c)"><path d="M1.91,104a3.058,3.058,0,0,1-1.9-3.393C.405,92.325,4,85.575,9.8,79.869c1.4-1.375,2.861-2.685,4.349-3.962.529-.454.5-.672.028-1.134a32.263,32.263,0,0,1-8.5-13.019,30.335,30.335,0,0,1-1.345-6.431A1.641,1.641,0,0,1,5.679,53.3c1.192-.113,1.8.453,1.951,1.868A25.589,25.589,0,0,0,8.873,60.8a29.953,29.953,0,0,0,7.6,11.606.851.851,0,0,0,1.308.085c1.8-1.332,1.813-1.314.252-2.875a24.3,24.3,0,0,1-1.9-33.119A36.531,36.531,0,0,1,18.832,33.6c.472-.448.469-.78-.03-1.243-1.594-1.479-1.585-1.506-3.108.037A27.13,27.13,0,0,0,7.8,47.516c-.237,1.518-.777,1.948-2.014,1.77-1.2-.5-1.43-.866-1.246-2.172a29.631,29.631,0,0,1,7.787-15.96,26.1,26.1,0,0,1,1.908-1.966c.489-.438.438-.647-.052-1.059a52.559,52.559,0,0,1-8.047-8.142A28.936,28.936,0,0,1,0,2.82,2.532,2.532,0,0,1,2.737.012Q4.819-.014,6.9.011A2.551,2.551,0,0,1,9.666,2.6c.091,1.043.279,2.079.348,3.123.053.8.427.968,1.17.954,2.538-.045,5.077-.034,7.615-.009A1.492,1.492,0,0,1,20.392,8.66a1.622,1.622,0,0,1-1.774,1.049c-2.234-.008-4.468,0-6.7,0-.193,0-.386.023-.65.04a18.6,18.6,0,0,0,1.96,3.583c.24.363.547.335.881.335q8.073,0,16.145,0c.342,0,.654.007.88-.341a18.956,18.956,0,0,0,1.963-3.621H29.926c-1.151,0-2.3.009-3.452,0-1.2-.012-1.88-.561-1.895-1.505-.015-.966.638-1.529,1.842-1.535,2.3-.013,4.6-.025,6.9.01.623.01.892-.154.977-.8.131-1.005.289-2,.342-3.02A2.626,2.626,0,0,1,37.6.01Q39.529,0,41.458.01a2.581,2.581,0,0,1,2.889,2.962A29.4,29.4,0,0,1,37.04,21.451a53.086,53.086,0,0,1-6.682,6.508c-.7.574-.644.864-.033,1.43a30.289,30.289,0,0,1,2.346,2.528.648.648,0,0,0,.929.2,21.694,21.694,0,0,1,20.253.552c.388.206.613.235.907-.162a1.984,1.984,0,0,1,1.718-.7q4.163.006,8.326,0a2.276,2.276,0,0,1,2.148,1.251q2.026,3.567,4.1,7.107a2.362,2.362,0,0,1-.011,2.579c-1.364,2.331-2.7,4.68-4.06,7.012-.184.315-.4.755-.692.839-1.154.335-.98,1.2-1,2.06A21.3,21.3,0,0,1,62.16,63.316c-.328.541-.309.847.159,1.262.708.628,1.346,1.333,2.02,2,.7.694,1.272,1.535,2.517,1.358.576-.082,1.1.423,1.543.869,1.235,1.254,2.471,2.507,3.736,3.73a1.675,1.675,0,0,1,.269,2.43,1.463,1.463,0,0,1-2.326.121c-.8-.669-1.49-1.458-2.238-2.184-1.708-1.761-1.268-1.576-2.867-.036-.559.538-1.086,1.109-1.651,1.64-.456.429-.515.795-.037,1.27,3.587,3.567,7.143,7.164,10.746,10.715a2.52,2.52,0,0,0,3.238.45,2.733,2.733,0,0,0,.366-4.226c-.791-.872-1.7-1.639-2.469-2.527-.8-.924-.762-1.738.061-2.4a1.667,1.667,0,0,1,2.428.273c.837.884,1.739,1.707,2.568,2.6a5.925,5.925,0,0,1-.058,8.171,5.8,5.8,0,0,1-8.219.251c-4.11-3.973-8.108-8.062-12.153-12.1a1.947,1.947,0,0,1-.694-1.626c.141-.792-.286-1.18-.742-1.63-.843-.831-1.712-1.641-2.5-2.522-.476-.532-.818-.551-1.436-.18A21.465,21.465,0,0,1,42.428,74.1a20.821,20.821,0,0,1-8.683-2.145.8.8,0,0,0-1.178.239,28.209,28.209,0,0,1-2.421,2.594c-.556.513-.383.756.086,1.148a52.772,52.772,0,0,1,7.784,7.827,29.683,29.683,0,0,1,6.338,16.684A3.232,3.232,0,0,1,42.533,104H36.439c-1.472-.257-1.948-1.325-2.082-2.625-.087-.84-.113-1.687-.255-2.523-.188-1.106-.331-1.242-1.561-1.245-4.163-.011-8.326,0-12.488,0-2.775,0-5.55-.008-8.326,0-1.168.005-1.269.1-1.456,1.214-.151.9-.236,1.811-.352,2.717A2.444,2.444,0,0,1,7.8,104Z" transform="translate(0 0)"/><path d="M21.021,131.824c1.159-.055,1.636-.746,1.788-1.823.939-6.639,4.38-11.9,9.1-16.451.347-.335.569-.347.916-.026a15.916,15.916,0,0,0,1.715,1.428c.571.4.464.644.019,1.067a25.1,25.1,0,0,0-6.606,9.019c-3.683,9.612-2.243,18.371,4.7,26.1a22.929,22.929,0,0,0,1.926,1.948c.518.454.428.7-.075,1.065-.737.529-1.434,1.572-2.14,1.565-.8-.007-1.393-1.146-2.033-1.832-4.322-4.63-7.163-9.964-7.732-16.37a1.665,1.665,0,0,0-1.686-1.676q.053-2.007.1-4.012" transform="translate(-15.239 -82.538)" fill="#b4dd7f"/><path d="M169.417,297.976c-.913,0-1.825,0-2.738,0a2.414,2.414,0,0,1-2.294-1.367c-.875-1.6-1.8-3.165-2.733-4.728a2.389,2.389,0,0,1-.007-2.665q1.428-2.387,2.785-4.816a2.359,2.359,0,0,1,2.232-1.3c1.859,0,3.718,0,5.577,0a2.433,2.433,0,0,1,2.3,1.365q1.326,2.387,2.727,4.732a2.4,2.4,0,0,1,.008,2.666q-1.424,2.389-2.783,4.818a2.318,2.318,0,0,1-2.134,1.288c-.98.012-1.961,0-2.941,0" transform="translate(-117.473 -206.255)"/><path d="M173.934,43.1c.947,0,1.893.006,2.839,0a2.2,2.2,0,0,1,2.078,1.187q1.428,2.5,2.882,4.994a2.271,2.271,0,0,1-.012,2.483c-.957,1.628-1.909,3.258-2.832,4.906a2.31,2.31,0,0,1-2.142,1.274c-1.927.011-3.853.014-5.78,0a2.248,2.248,0,0,1-2.075-1.208q-1.419-2.51-2.883-4.994a2.268,2.268,0,0,1,.011-2.483q1.461-2.485,2.884-4.992a2.145,2.145,0,0,1,1.986-1.164c1.014,0,2.028,0,3.042,0" transform="translate(-120.681 -31.398)"/><path d="M250.969,272.935a1.643,1.643,0,0,0,.333,2.486c.8.815,1.65,1.591,2.414,2.442a2.778,2.778,0,0,1-.687,4.447c-.5.113-.727-.283-1-.554q-4.958-4.936-9.895-9.892c-1.223-1.229-1.222-1.717.036-2.927.438-.422.729-1.093,1.5-1.072q1,.968,2.01,1.937a1.65,1.65,0,0,0,2.47.315l2.822,2.818" transform="translate(-175.743 -195.152)" fill="#b0c0d2"/><path d="M13.06,283.334c-1.935,0-1.881.007-1.626-2.065.849-6.9,4.218-12.451,9.107-17.22,3.227-3.149,6.821-5.868,10.2-8.838a41.663,41.663,0,0,0,4.582-4.451c.467-.559.774-.558,1.257-.038a7.494,7.494,0,0,0,1.477,1.232c.583.368.495.616.087,1.073a81.131,81.131,0,0,1-8.9,8.152,63.344,63.344,0,0,0-9.123,8.641,22.369,22.369,0,0,0-5.133,12.356c-.1,1.159-.1,1.159-1.932,1.159" transform="translate(-8.237 -182.381)" fill="#6e61b5"/><path d="M13.191,11.254c1.741,0,1.709,0,1.929,1.818a23.866,23.866,0,0,0,7,13.87c2.966,3.082,6.345,5.689,9.591,8.451A64.484,64.484,0,0,1,38.2,41.523c.435.489.523.767-.1,1.14a5.086,5.086,0,0,0-1.248,1.031c-.6.7-1,.658-1.62-.052-2.847-3.245-6.278-5.857-9.569-8.615-3.771-3.16-7.41-6.439-10.118-10.607a25.729,25.729,0,0,1-4.082-11.862c-.118-1.3-.084-1.3,1.226-1.3h.508" transform="translate(-8.315 -8.199)" fill="#6e61b5"/><path d="M106.118,159.726a17.623,17.623,0,0,1-12.526-6.254c-4.88-5.606-6.2-12.105-3.688-19.1,2.5-6.951,7.658-11.008,14.906-12.4a9.8,9.8,0,0,1,1.31-.078c.081.473-.331.545-.6.683a38.054,38.054,0,0,0-4.892,3.219,18.378,18.378,0,0,0-6.039,5,16.593,16.593,0,0,0,5.355,24.61c.234.127.457.273.685.41a37.652,37.652,0,0,0,4.889,3.221c.27.138.682.21.6.682" transform="translate(-64.592 -88.811)" fill="#b4dd7f"/><path d="M172.516,169.754a31.779,31.779,0,0,0,.008-25.937,5.625,5.625,0,0,1,1.824.6c.757.34,1.73.536,1.21,1.808-.179.437.166.909.4,1.32q2.021,3.507,4.045,7.011a2.133,2.133,0,0,0,1.717,1.26c.569.037.7.292.712.828a13.551,13.551,0,0,1-9.919,13.108" transform="translate(-125.686 -104.778)" fill="#b2d9fd"/><path d="M211.2,128.481c1.314-.02,2.627-.032,3.94-.067a.805.805,0,0,1,.8.472q1.595,2.813,3.229,5.6a.808.808,0,0,1,.055.932c-1.224,2.009-2.271,4.124-3.6,6.069a32.076,32.076,0,0,1-4.121.1c-.409.016-.589-.291-.759-.581-.988-1.689-2.012-3.357-2.932-5.085a1.579,1.579,0,0,1-.131-1.549,41.9,41.9,0,0,1,3.516-5.9" transform="translate(-151.2 -93.556)" fill="#fde07e"/><path d="M152.427,154.329a27.287,27.287,0,0,1-3.1,13.782,1.022,1.022,0,0,1-1.174.663c-.943-.108-2.229.047-2.686-.574s.632-1.49.985-2.278c3.448-7.695,3.319-15.262-.812-22.668-.446-.8-.375-1.046.511-1.171,3.416-.482,2.609-.774,3.959,2.033a25.415,25.415,0,0,1,2.315,10.212" transform="translate(-105.902 -103.288)" fill="#6e61b5"/><path d="M105.9,309.4c-1.673,0-1.722.005-1.9-1.577-.713-6.277-3.894-11.212-8.36-15.445-1.325-1.256-2.7-2.457-4.1-3.632-.475-.4-.49-.619.006-.965.772-.54,1.366-1.653,2.207-1.666s1.487,1.051,2.191,1.669c3.84,3.37,7.273,7.07,9.439,11.788a27.971,27.971,0,0,1,2.316,8.984c.066.659-.086.944-.782.853a7.879,7.879,0,0,0-1.014-.007" transform="translate(-66.428 -208.449)" fill="#b4dd7f"/><path d="M106.159,11.138c1.845,0,1.8,0,1.677,1.384-.591,6.709-3.633,12.22-8.23,16.984-1.6,1.658-3.342,3.16-5.065,4.683-.413.365-.7.388-1.1,0-.673-.655-1.847-1.195-1.954-1.91-.1-.647,1.182-1.217,1.863-1.81,3.435-3,6.616-6.2,8.686-10.34a20.468,20.468,0,0,0,2.19-7.751c.077-1.1.449-1.4,1.429-1.24a3.22,3.22,0,0,0,.507,0" transform="translate(-66.648 -8.084)" fill="#b4dd7f"/><path d="M138.241,208.056A37.775,37.775,0,0,1,133.572,205a2.9,2.9,0,0,1-.822-.852,18.719,18.719,0,0,0,8.993,1.474,16.723,16.723,0,0,0,14.565-14.079,17.64,17.64,0,0,0,.171-2.525c-.017-.648.2-.809.8-.784,1.979.082,1.707-.345,1.662,1.723a19.072,19.072,0,0,1-16.775,18.095,11.8,11.8,0,0,1-3.929,0" transform="translate(-96.715 -137.14)" fill="#b4dd7f"/><path d="M41.388,336.754a19.584,19.584,0,0,1,1.944-3.562.873.873,0,0,1,.846-.4q8.163.009,16.327,0c.271,0,.529-.009.714.261a18.343,18.343,0,0,1,2.013,3.64c-.245.029-.375.058-.505.058-7.063,0-14.126,0-21.338,0" transform="translate(-30.153 -242.454)" fill="#fefefe"/><path d="M114.461,186.975c-1.352,0-2.7-.023-4.055.012-.526.014-.8-.111-.87-.676a16.963,16.963,0,0,1-.008-4.142c.064-.544.323-.7.863-.69q4.156.042,8.313,0c.558-.005.78.17.819.722a30.715,30.715,0,0,1,.01,3.949c-.036.618-.241.872-.917.843-1.383-.059-2.77-.018-4.156-.018" transform="translate(-79.707 -132.215)" fill="#b2d9fd"/><path d="M235.593,263.934c-.54.507-1.091,1-1.616,1.522-.817.809-.83,1.193-.018,2.023,1.3,1.327,2.615,2.635,3.935,3.94q3.525,3.486,7.061,6.959a2.585,2.585,0,0,1-3.254-.3c-3.8-3.74-7.556-7.525-11.336-11.285-.269-.268-.317-.454-.024-.742q1.7-1.664,3.363-3.366c.27-.277.458-.311.722-.006.373.43.777.834,1.168,1.25" transform="translate(-167.669 -191.222)" fill="#727997"/><path d="M202.743,128.464a27.213,27.213,0,0,1-2.653,4.734,2.813,2.813,0,0,0,.021,3.57,41.076,41.076,0,0,1,2.4,4.088,1.064,1.064,0,0,0,1.122.624c1.18-.029,2.361-.007,3.542-.006-.357.3-.78.136-1.167.139-1.827.016-3.655-.025-5.482.01a1.318,1.318,0,0,1-1.376-.756c-.953-1.751-1.96-3.475-2.984-5.186a1.155,1.155,0,0,1-.021-1.377q1.551-2.557,2.991-5.181a1.194,1.194,0,0,1,1.282-.726c.773.062,1.552.048,2.329.067" transform="translate(-142.74 -93.539)" fill="#fcd03e"/><path d="M71.414,306.971H59.283c.627-.611,1.122-1.133,1.659-1.61q1.936-1.718,3.908-3.394c.2-.169.374-.563.749-.247a70.355,70.355,0,0,1,5.814,5.25" transform="translate(-43.191 -219.732)" fill="#fdfdfd"/><path d="M59.291,61.644H71.185c.165.325-.136.423-.279.567-1.6,1.61-3.334,3.071-5.07,4.529-.216.182-.389.456-.76.143a71.324,71.324,0,0,1-5.785-5.24" transform="translate(-43.196 -44.911)" fill="#fdfdfd"/><path d="M132.749,125.408a16.065,16.065,0,0,1,4.484-3.277c.341-.2.762-.272,1.008-.624a17.457,17.457,0,0,1,9.1,1.366c.251.1.5.213.741.328,1.627.77,1.612.762.626,2.39-.259.427-.431.527-.924.27a16.263,16.263,0,0,0-14.734-.511,1.339,1.339,0,0,1-.3.058" transform="translate(-96.714 -88.417)" fill="#96c45a"/><path d="M54.8,188.163c-.979,0-1.959-.021-2.937.009-.49.015-.752-.08-.729-.65.037-.91.037-1.823,0-2.733-.023-.573.245-.653.731-.647,1.958.021,3.916.031,5.874,0,.608-.011.741.191.678.758a13.169,13.169,0,0,0-.046,1.92c.046,1.348.06,1.347-1.242,1.347H54.8" transform="translate(-37.25 -134.153)" fill="#fdfdfd"/><path d="M58.329,214.164H56.913c-2.225,0-2.225,0-2.948-2.166-.612-1.834-.612-1.834,1.293-1.834,1.584,0,3.169.015,4.753-.009.505-.008.763.089.9.66a24.545,24.545,0,0,0,.94,2.762c.157.42.126.608-.39.595-1.044-.027-2.09-.008-3.134-.008" transform="translate(-39.052 -153.108)" fill="#fdfdfd"/><path d="M118.677,154.842c-1.08,0-2.16-.016-3.239.006-.572.012-.846-.053-.478-.706a14.036,14.036,0,0,1,4.574-4.907c.372-.245.557-.2.793.165a21.2,21.2,0,0,1,2.284,4.822c.182.555-.01.634-.492.626-1.147-.019-2.294-.006-3.441-.006" transform="translate(-83.632 -108.612)" fill="#b2d8fc"/><path d="M61.777,158.329c-.4,1.257-.778,2.4-1.114,3.56-.116.4-.364.416-.685.415-2.025,0-4.05-.018-6.075.009-.535.007-.654-.18-.5-.644.011-.032.022-.064.03-.1.779-3.243.779-3.243,4.081-3.243Z" transform="translate(-38.862 -115.351)" fill="#fefefe"/><path d="M118.766,212.934c1.147,0,2.295.011,3.442,0,.467-.006.58.124.428.6a20.971,20.971,0,0,1-2.282,4.824c-.239.377-.428.4-.793.158a13.972,13.972,0,0,1-4.571-4.911c-.325-.581-.115-.679.436-.669,1.113.02,2.227.006,3.341.006" transform="translate(-83.663 -155.128)" fill="#b2d9fd"/><path d="M65.018,134.041a33.191,33.191,0,0,1,4.172-4.677c.312-.3.488-.213.728.035.845.873,1.713,1.724,2.534,2.618.21.228.754.441.385.88s-.453,1.159-1.26,1.151c-2.118-.021-4.236-.007-6.559-.007" transform="translate(-47.369 -94.109)" fill="#fdfdfd"/><path d="M65.082,236.127c2.307,0,4.434.013,6.561-.007.806-.007.916.711,1.254,1.158.326.429-.218.643-.432.877-.8.873-1.649,1.7-2.469,2.552-.272.283-.461.368-.8.033a33.672,33.672,0,0,1-4.112-4.614" transform="translate(-47.415 -172.026)" fill="#fefefe"/><path d="M216.2,251.111c-1.023-1.069-1.989-2.109-2.993-3.11-.336-.335-.292-.54.044-.8.188-.143.339-.334.529-.473.5-.371.781-1.283,1.361-1.179.525.094.959.793,1.4,1.261.616.662,1.869,1.3,1.728,1.953-.182.843-1.26,1.492-2.064,2.344" transform="translate(-155.161 -178.891)" fill="#b2d9fc"/><path d="M189.4,294.448c.774,1.3,1.545,2.593,2.325,3.885a.655.655,0,0,1-.009.751c-.781,1.292-1.552,2.589-2.327,3.884-1.788.305-1.813.29-2.691-1.161-.438-.724-.829-1.474-1.27-2.2a1.613,1.613,0,0,1,.008-1.816c.423-.693.81-1.407,1.212-2.112.853-1.5.911-1.531,2.751-1.235" transform="translate(-134.896 -214.413)" fill="#6d61b5"/><path d="M181.079,294.314c-1.332-.257-1.91.476-2.666,1.511-1.459,2-1.364,3.622.049,5.572.73,1.008,1.331,1.679,2.606,1.436a23.823,23.823,0,0,1-4.8.12c-.124,0-.267-.179-.379-.3a1.648,1.648,0,0,1-.22-.339c-.691-1.236-1.882-2.454-1.932-3.716-.054-1.364,1.309-2.579,2-3.889.124-.236.235-.552.547-.537,1.6.073,3.212-.253,4.8.138" transform="translate(-126.571 -214.279)" fill="#53469b"/><path d="M183.6,62.8c-1.99.659-2.865-.455-3.828-2.026a3.73,3.73,0,0,1-.024-4.51,3.812,3.812,0,0,1,3.75-2.192,3.927,3.927,0,0,1,4.061,2.376c.806,1.5,1.186,2.688-.04,4.029a.811.811,0,0,0-.152.262c-.657,1.765-1.781,2.714-3.768,2.061" transform="translate(-130.409 -39.39)" fill="#b4dd7f"/></g></g></svg>