<svg xmlns="http://www.w3.org/2000/svg" xmlns:xlink="http://www.w3.org/1999/xlink" width="145" height="142" viewBox="0 0 145 142"><defs><filter id="a" x="0" y="0" width="142" height="142" filterUnits="userSpaceOnUse"><feOffset dy="3" input="SourceAlpha"/><feGaussianBlur stdDeviation="3" result="b"/><feFlood flood-opacity="0.161"/><feComposite operator="in" in2="b"/><feComposite in="SourceGraphic"/></filter></defs><g transform="translate(-1440.51 7207)"><g transform="matrix(1, 0, 0, 1, 1440.51, -7207)" filter="url(#a)"><path d="M62,0A62,62,0,1,1,0,62,62,62,0,0,1,62,0Z" transform="translate(9 6)" fill="#fcd03e"/></g><g transform="translate(1464.51 -7254.446)"><path d="M31.5,143.493H88.331v7.577H31.5Z" transform="translate(-24.041 -54.569)" fill="#e8e8e8"/><path d="M222.863,151.07H234.38v-7.577h-7.053A26.5,26.5,0,0,0,222.863,151.07Z" transform="translate(-170.09 -54.569)" fill="#529d2e"/><path d="M31.5,143.493v3.789H84.543v3.789h3.789v-7.577Z" transform="translate(-24.041 -54.569)" fill="#afafaf"/><path d="M31.5,239.493H88.331v7.578H31.5Z" transform="translate(-24.041 -127.836)" fill="#e8e8e8"/><path d="M221.023,247.071h9.712v-7.578H218.086A26.357,26.357,0,0,0,221.023,247.071Z" transform="translate(-166.444 -127.836)" fill="#529d2e"/><path d="M31.5,239.493v3.789H84.543v3.789h3.789v-7.577Z" transform="translate(-24.041 -127.836)" fill="#afafaf"/><path d="M31.5,335.493H88.331v7.578H31.5Z" transform="translate(-24.041 -201.104)" fill="#e8e8e8"/><path d="M31.5,335.493v3.789H84.543v3.789h3.789v-7.578Z" transform="translate(-24.041 -201.104)" fill="#afafaf"/><path d="M73.8,94.648H9.394A1.894,1.894,0,0,1,7.5,92.754V81.387a1.894,1.894,0,0,1,1.894-1.894H73.8A1.894,1.894,0,0,1,75.7,81.387V92.754A1.894,1.894,0,0,1,73.8,94.648Z" transform="translate(-5.724 -5.724)" fill="#85d161"/><path d="M241.716,116.511h10.842a1.894,1.894,0,0,0,1.894-1.894V108.14A26.542,26.542,0,0,0,241.716,116.511Z" transform="translate(-184.478 -27.587)" fill="#529d2e"/><path d="M283.289,81.387V92.754a1.894,1.894,0,0,1-1.894,1.894H279.5V79.493h1.894A1.894,1.894,0,0,1,283.289,81.387Z" transform="translate(-213.315 -5.724)" fill="#529d2e"/><g transform="translate(9.353 79.571)"><path d="M39.5,103.993h3.789v3.552H39.5Z" transform="translate(-39.5 -103.993)" fill="#fff"/></g><g transform="translate(16.931 79.571)"><path d="M71.5,103.993h3.789v3.552H71.5Z" transform="translate(-71.5 -103.993)" fill="#fff"/></g><path d="M73.8,190.648H9.394A1.894,1.894,0,0,1,7.5,188.754V177.387a1.894,1.894,0,0,1,1.894-1.894H73.8a1.894,1.894,0,0,1,1.894,1.894v11.366A1.894,1.894,0,0,1,73.8,190.648Z" transform="translate(-5.724 -78.991)" fill="#85d161"/><path d="M232.549,175.493H217.244a26.629,26.629,0,0,0-1.131,15.155h16.437a1.894,1.894,0,0,0,1.894-1.894V177.387A1.894,1.894,0,0,0,232.549,175.493Z" transform="translate(-164.47 -78.991)" fill="#529d2e"/><path d="M283.289,177.387v11.366a1.894,1.894,0,0,1-1.894,1.894H279.5V175.493h1.894A1.894,1.894,0,0,1,283.289,177.387Z" transform="translate(-213.315 -78.991)" fill="#55e072"/><g transform="translate(9.353 102.303)"><path d="M39.5,199.993h3.789v3.552H39.5Z" transform="translate(-39.5 -199.993)" fill="#fff"/></g><g transform="translate(16.931 102.303)"><path d="M71.5,199.993h3.789v3.552H71.5Z" transform="translate(-71.5 -199.993)" fill="#fff"/></g><path d="M73.8,286.648H9.394A1.894,1.894,0,0,1,7.5,284.754V273.387a1.894,1.894,0,0,1,1.894-1.894H73.8a1.894,1.894,0,0,1,1.894,1.894v11.366A1.894,1.894,0,0,1,73.8,286.648Z" transform="translate(-5.724 -152.259)" fill="#85d161"/><path d="M243.988,271.493h-13.5a26.585,26.585,0,0,0,15.395,12.16V273.387A1.894,1.894,0,0,0,243.988,271.493Z" transform="translate(-175.908 -152.259)" fill="#529d2e"/><path d="M283.289,273.387v11.366a1.894,1.894,0,0,1-1.894,1.894H279.5V271.493h1.894A1.894,1.894,0,0,1,283.289,273.387Z" transform="translate(-213.315 -152.259)" fill="#55e072"/><g transform="translate(9.353 125.036)"><path d="M39.5,295.993h3.789v3.552H39.5Z" transform="translate(-39.5 -295.993)" fill="#fff"/></g><g transform="translate(16.931 125.036)"><path d="M71.5,295.993h3.789v3.552H71.5Z" transform="translate(-71.5 -295.993)" fill="#fff"/></g><path d="M73.8,382.648H9.394A1.894,1.894,0,0,1,7.5,380.754V369.387a1.894,1.894,0,0,1,1.894-1.894H73.8a1.894,1.894,0,0,1,1.894,1.894v11.366A1.894,1.894,0,0,1,73.8,382.648Z" transform="translate(-5.724 -225.526)" fill="#85d161"/><path d="M283.289,369.387v11.366a1.894,1.894,0,0,1-1.894,1.894H279.5V367.493h1.894A1.894,1.894,0,0,1,283.289,369.387Z" transform="translate(-213.315 -225.526)" fill="#529d2e"/><g transform="translate(9.353 147.768)"><path d="M39.5,391.993h3.789v3.552H39.5Z" transform="translate(-39.5 -391.993)" fill="#fff"/></g><g transform="translate(16.931 147.768)"><path d="M71.5,391.993h3.789v3.552H71.5Z" transform="translate(-71.5 -391.993)" fill="#fff"/></g><circle cx="22.733" cy="22.733" r="22.733" transform="translate(54.819 83.241)" fill="#57a4ff"/><path d="M321.394,119.493c-.638,0-1.27.028-1.894.079a22.732,22.732,0,0,1,0,45.307c.625.052,1.256.079,1.894.079a22.733,22.733,0,0,0,0-45.465Z" transform="translate(-243.843 -36.252)" fill="#006df0"/><circle cx="15.155" cy="15.155" r="15.155" transform="translate(62.396 90.818)" fill="#fff"/><path d="M278.655,151.493a15.155,15.155,0,1,0,15.155,15.155A15.155,15.155,0,0,0,278.655,151.493Zm0,26.521a11.366,11.366,0,1,1,11.366-11.366A11.366,11.366,0,0,1,278.655,178.014Z" transform="translate(-201.104 -60.675)" fill="#bddbff"/><path d="M428.663,316.656a5.358,5.358,0,0,0,0-7.578l-13.586-13.586L407.5,303.07l13.586,13.586a5.358,5.358,0,0,0,7.578,0Z" transform="translate(-311.005 -170.576)" fill="#57a4ff"/><path d="M445.454,309.079l-13.586-13.586-2.368,2.368,13.112,13.112a5.356,5.356,0,0,1,.446,7.064,5.352,5.352,0,0,0,2.4-8.959Z" transform="translate(-327.796 -170.576)" fill="#006df0"/><g transform="translate(0 71.993)"><path d="M103.5,103.993h37.888v3.552H103.5Z" transform="translate(-78.992 -96.415)"/><path d="M103.5,295.993h34.1v3.552H103.5Z" transform="translate(-78.992 -242.95)"/><path d="M103.5,391.993h37.888v3.552H103.5Z" transform="translate(-78.992 -316.218)"/><path d="M272.931,143.993A16.95,16.95,0,0,0,256,160.924c.851,22.43,33.014,22.424,33.862,0A16.95,16.95,0,0,0,272.931,143.993Zm0,30.31a13.394,13.394,0,0,1-13.379-13.379c.672-17.725,26.088-17.72,26.758,0A13.394,13.394,0,0,1,272.931,174.3Z" transform="translate(-195.38 -126.944)"/><path d="M118.914,137.247l-14.842-14.841-3.789,3.789-4.2-4.2c15.464-17.845-1.217-45.409-24.334-39.834v-6.5a3.674,3.674,0,0,0-3.67-3.67H3.67A3.674,3.674,0,0,0,0,75.663V87.03A3.674,3.674,0,0,0,3.67,90.7H5.683v4.026H3.67A3.674,3.674,0,0,0,0,98.4v11.366a3.674,3.674,0,0,0,3.67,3.67H5.683v4.026H3.67A3.674,3.674,0,0,0,0,121.128v11.366a3.674,3.674,0,0,0,3.67,3.67H5.683v4.026H3.67A3.674,3.674,0,0,0,0,143.861v11.366a3.674,3.674,0,0,0,3.67,3.67H68.079a3.674,3.674,0,0,0,3.67-3.67V143.861a3.674,3.674,0,0,0-3.67-3.67H66.066v-4.026h2.013a3.674,3.674,0,0,0,3.67-3.67v-2.708a24.623,24.623,0,0,0,21.823-5.28l4.2,4.2-3.789,3.789,14.841,14.841a7.167,7.167,0,0,0,10.089,0h0A7.143,7.143,0,0,0,118.914,137.247ZM3.552,87.03V75.663a.119.119,0,0,1,.118-.118H68.079a.119.119,0,0,1,.118.118v7.658a24.538,24.538,0,0,0-6.321,3.827H3.67A.119.119,0,0,1,3.552,87.03Zm0,22.733V98.4a.119.119,0,0,1,.118-.118H51.03V94.726H9.235V90.7H58.4a24.4,24.4,0,0,0-5.081,11.6H24.508v3.552H53.044a24.36,24.36,0,0,0,.311,4.026H3.67a.119.119,0,0,1-.118-.118Zm5.683,3.67H54.2a24.347,24.347,0,0,0,1.7,4.026H9.235ZM68.2,143.861v11.366a.119.119,0,0,1-.118.118H3.67a.119.119,0,0,1-.118-.118V143.861a.119.119,0,0,1,.118-.118H68.079A.119.119,0,0,1,68.2,143.861Zm0-11.366a.119.119,0,0,1-.118.118H24.508v3.552H62.514v4.026H9.235v-4.026H20.72v-3.552H3.67a.119.119,0,0,1-.118-.118V121.128a.119.119,0,0,1,.118-.118H58.211a24.638,24.638,0,0,0,9.987,7.615Zm9.353-5.565a20.98,20.98,0,0,1-20.957-20.957c1.054-27.764,40.864-27.756,41.913,0A20.98,20.98,0,0,1,77.551,126.93ZM116.4,144.824a3.6,3.6,0,0,1-5.066,0l-12.33-12.33,5.066-5.066,12.33,12.33A3.586,3.586,0,0,1,116.4,144.824Z" transform="translate(0 -71.993)"/></g></g></g></svg>