<svg xmlns="http://www.w3.org/2000/svg" xmlns:xlink="http://www.w3.org/1999/xlink" width="142" height="142" viewBox="0 0 142 142"><defs><filter id="a" x="0" y="0" width="142" height="142" filterUnits="userSpaceOnUse"><feOffset dy="3" input="SourceAlpha"/><feGaussianBlur stdDeviation="3" result="b"/><feFlood flood-opacity="0.161"/><feComposite operator="in" in2="b"/><feComposite in="SourceGraphic"/></filter></defs><g transform="translate(-2160.51 7207)"><g transform="matrix(1, 0, 0, 1, 2160.51, -7207)" filter="url(#a)"><path d="M62,0A62,62,0,1,1,0,62,62,62,0,0,1,62,0Z" transform="translate(9 6)" fill="#fcd03e"/></g><g transform="translate(2173.371 -7245.195)"><g transform="translate(7.94 70.723)"><path d="M131.58,76.528H38.543a3.432,3.432,0,0,0-3.432,3.432v68.372l99.9-3.122V79.961A3.433,3.433,0,0,0,131.58,76.528Z" transform="translate(-35.111 -76.528)" fill="#7a6d79"/></g><g transform="translate(1.696 139.405)"><path d="M112.888,392.737H14.5a7,7,0,0,1-7-7V381.4a1.152,1.152,0,0,1,1.152-1.152H118.737a1.152,1.152,0,0,1,1.152,1.152v4.334A7,7,0,0,1,112.888,392.737Z" transform="translate(-7.5 -380.249)" fill="#cbc4cc"/></g><g transform="translate(42.281 139.405)"><path d="M213.622,386.493h-22.08a4.57,4.57,0,0,1-4.57-4.57v-1.675h31.219v1.675A4.57,4.57,0,0,1,213.622,386.493Z" transform="translate(-186.972 -380.249)" fill="#b5adb6"/></g><g transform="translate(14.184 76.967)"><path d="M62.722,104.139h87.414v53.073H62.722Z" transform="translate(-62.722 -104.139)" fill="#fde07e"/></g><g transform="translate(14.184 76.967)"><path d="M141.09,104.139v38.3a10.252,10.252,0,0,1-10.252,10.252H62.722v4.523h87.414V104.139Z" transform="translate(-62.722 -104.139)" fill="#fcd03e"/></g><g transform="translate(78.451 109.739)"><path d="M358.228,255.589l-11.307-6.528v13.056l2.95-1.7,1.561,2.7L356.839,260l-1.561-2.7Z" transform="translate(-346.921 -249.061)" fill="#f3f0f3"/></g><path d="M112.933,137.71h-3.4V74.156a5.135,5.135,0,0,0-5.129-5.129H24.726a1.7,1.7,0,0,0,0,3.392h79.683a1.739,1.739,0,0,1,1.737,1.737V137.71H9.636V74.156a1.738,1.738,0,0,1,1.736-1.736h5.439a1.7,1.7,0,1,0,0-3.392H11.372a5.134,5.134,0,0,0-5.128,5.128V137.71h-3.4A2.851,2.851,0,0,0,0,140.558v4.334a8.707,8.707,0,0,0,8.7,8.7h3.815a1.7,1.7,0,1,0,0-3.392H8.7a5.312,5.312,0,0,1-5.306-5.306V141.1H40.585a6.272,6.272,0,0,0,6.265,6.244H68.931A6.273,6.273,0,0,0,75.2,141.1h37.193v3.79a5.312,5.312,0,0,1-5.306,5.306H20.428a1.7,1.7,0,1,0,0,3.392h86.656a8.707,8.707,0,0,0,8.7-8.7v-4.334A2.851,2.851,0,0,0,112.933,137.71Zm-44,6.244H46.85a2.877,2.877,0,0,1-2.873-2.852H71.8A2.877,2.877,0,0,1,68.931,143.953Z" transform="translate(0)"/><path d="M144.333,126.805a1.7,1.7,0,0,0,1.7-1.7V98.335a1.7,1.7,0,0,0-1.7-1.7H56.919a1.7,1.7,0,0,0-1.7,1.7v53.073a1.7,1.7,0,0,0,1.7,1.7h87.414a1.7,1.7,0,0,0,1.7-1.7V133.024a1.7,1.7,0,1,0-3.392,0v16.687H58.615V100.031h84.022v25.078A1.7,1.7,0,0,0,144.333,126.805Z" transform="translate(-42.735 -21.368)"/><path d="M402.057,165.667a1.7,1.7,0,0,0,0,3.392,1.426,1.426,0,1,1,0,2.852,1.7,1.7,0,0,0,0,3.392,4.818,4.818,0,1,0,0-9.636Z" transform="translate(-309.825 -74.786)"/><path d="M97.016,161.5a1.7,1.7,0,0,0,1.7-1.7v-3.122a4.818,4.818,0,0,0-9.636,0v18.732a1.426,1.426,0,1,1-2.852,0v-3.122a1.7,1.7,0,1,0-3.392,0v3.122a4.818,4.818,0,0,0,9.636,0V156.679a1.426,1.426,0,0,1,2.852,0V159.8A1.7,1.7,0,0,0,97.016,161.5Z" transform="translate(-64.101 -64.102)"/><path d="M156.679,209.158a4.792,4.792,0,0,0,1.992-.431,1.7,1.7,0,0,0,2.826-1.265V194.974a1.7,1.7,0,1,0-3.392,0v4.763a4.818,4.818,0,1,0-1.426,9.42Zm0-6.244a1.426,1.426,0,1,1-1.426,1.426A1.428,1.428,0,0,1,156.679,202.914Z" transform="translate(-117.52 -96.153)"/><path d="M216.222,221.386a1.7,1.7,0,0,0-2.4,0l-1.923,1.923-1.923-1.923a1.7,1.7,0,0,0-2.4,2.4l1.923,1.923-1.923,1.923a1.7,1.7,0,0,0,2.4,2.4l1.923-1.923,1.923,1.923a1.7,1.7,0,0,0,2.4-2.4l-1.923-1.923,1.923-1.923A1.7,1.7,0,0,0,216.222,221.386Z" transform="translate(-160.254 -117.52)"/><path d="M280.929,169.059a1.7,1.7,0,0,0,0-3.392,4.818,4.818,0,1,0,0,9.636,1.7,1.7,0,1,0,0-3.392,1.426,1.426,0,1,1,0-2.852Z" transform="translate(-213.672 -74.786)"/><path d="M319.224,196.67h3.122a1.7,1.7,0,0,0,0-3.392h-3.122a1.7,1.7,0,0,0,0,3.392Z" transform="translate(-245.724 -96.153)"/><path d="M363.762,196.67a1.7,1.7,0,1,0,0-3.392H360.64a1.7,1.7,0,1,0,0,3.392Z" transform="translate(-277.774 -96.153)"/><path d="M406.875,225.707a4.823,4.823,0,0,0-4.818-4.818,1.7,1.7,0,0,0,0,3.392,1.426,1.426,0,1,1,0,2.852,1.7,1.7,0,0,0,0,3.392A4.824,4.824,0,0,0,406.875,225.707Z" transform="translate(-309.825 -117.521)"/><path d="M280.929,224.281a1.7,1.7,0,1,0,0-3.392,4.818,4.818,0,1,0,0,9.636,1.7,1.7,0,0,0,0-3.392,1.426,1.426,0,1,1,0-2.852Z" transform="translate(-213.672 -117.521)"/><path d="M337.179,249.784a1.7,1.7,0,0,0-.848-1.469l-3.642-2.1a1.7,1.7,0,0,0-.976-3.083h-4.364l-2.324-1.342a1.7,1.7,0,0,0-2.539,1.342h-3.26a1.7,1.7,0,0,0,0,3.392h3.255v9.791a1.7,1.7,0,0,0,2.544,1.469l1.481-.855.713,1.235a1.7,1.7,0,0,0,2.317.621l5.407-3.122a1.7,1.7,0,0,0,.621-2.317l-.713-1.235,1.481-.855a1.7,1.7,0,0,0,.848-1.469Zm-6.115,2.551.713,1.235L329.307,255l-.713-1.235a1.7,1.7,0,0,0-2.317-.621l-.406.234v-7.181l6.219,3.591-.406.234a1.7,1.7,0,0,0-.621,2.317Z" transform="translate(-245.724 -133.516)"/></g></g></svg>