<svg xmlns="http://www.w3.org/2000/svg" xmlns:xlink="http://www.w3.org/1999/xlink" width="1240" height="599" viewBox="0 0 1240 599"><defs><clipPath id="a"><rect width="1240" height="599" transform="translate(181 979)" fill="#fed5b1"/></clipPath><linearGradient id="b" x1="0.5" x2="0.5" y2="1" gradientUnits="objectBoundingBox"><stop offset="0" stop-color="#f6f6f6"/><stop offset="1" stop-color="#ebebeb"/></linearGradient><filter id="c" x="437.372" y="124.735" width="359.685" height="359.685" filterUnits="userSpaceOnUse"><feOffset dy="3" input="SourceAlpha"/><feGaussianBlur stdDeviation="5" result="d"/><feFlood flood-opacity="0.161"/><feComposite operator="in" in2="d"/><feComposite in="SourceGraphic"/></filter><linearGradient id="e" y1="0.5" x2="1" y2="0.5" gradientUnits="objectBoundingBox"><stop offset="0" stop-color="#a9d739"/><stop offset="1" stop-color="#94bf10"/></linearGradient><linearGradient id="f" y1="0.5" x2="1" y2="0.5" gradientUnits="objectBoundingBox"><stop offset="0" stop-color="#17cfdd"/><stop offset="0.6" stop-color="#0ebcc2"/><stop offset="1" stop-color="#08afaf"/></linearGradient><linearGradient id="g" x1="0.818" y1="1.318" x2="0.546" y2="0.405" gradientUnits="objectBoundingBox"><stop offset="0" stop-color="#c624dd"/><stop offset="1" stop-color="#9211a5"/></linearGradient><linearGradient id="h" x1="1.234" y1="1.386" x2="0.839" y2="1.043" gradientUnits="objectBoundingBox"><stop offset="0.01" stop-color="#04567f"/><stop offset="0.98" stop-color="#04425b"/></linearGradient><linearGradient id="i" x1="0.5" x2="0.5" y2="1" gradientUnits="objectBoundingBox"><stop offset="0" stop-color="#fff"/><stop offset="1" stop-color="#ebebeb"/></linearGradient><filter id="j" x="395.045" y="128.549" width="187.065" height="179.057" filterUnits="userSpaceOnUse"><feOffset dx="8" dy="8" input="SourceAlpha"/><feGaussianBlur stdDeviation="6" result="k"/><feFlood flood-opacity="0.149"/><feComposite operator="in" in2="k"/><feComposite in="SourceGraphic"/></filter><filter id="l" x="376.183" y="144.347" width="97.004" height="97.004" filterUnits="userSpaceOnUse"><feOffset dy="3" input="SourceAlpha"/><feGaussianBlur stdDeviation="3" result="m"/><feFlood flood-opacity="0.161"/><feComposite operator="in" in2="m"/><feComposite in="SourceGraphic"/></filter><filter id="o" x="668.384" y="310.4" width="187.065" height="179.057" filterUnits="userSpaceOnUse"><feOffset dx="8" dy="8" input="SourceAlpha"/><feGaussianBlur stdDeviation="6" result="p"/><feFlood flood-opacity="0.149"/><feComposite operator="in" in2="p"/><feComposite in="SourceGraphic"/></filter><linearGradient id="q" x1="-48.632" y1="-41.414" x2="-47.632" y2="-41.414" gradientUnits="objectBoundingBox"><stop offset="0" stop-color="#edebeb"/><stop offset="1" stop-color="#fff"/></linearGradient><filter id="r" x="755.328" y="360.728" width="109.099" height="109.099" filterUnits="userSpaceOnUse"><feOffset dy="3" input="SourceAlpha"/><feGaussianBlur stdDeviation="3" result="s"/><feFlood flood-opacity="0.161"/><feComposite operator="in" in2="s"/><feComposite in="SourceGraphic"/></filter><radialGradient id="t" cx="0.502" cy="0.5" r="0.5" gradientTransform="matrix(-0.708, 0.706, -0.706, -0.708, -161.621, -53.56)" gradientUnits="objectBoundingBox"><stop offset="0"/><stop offset="1" stop-color="#fff"/></radialGradient><filter id="v" x="777.823" y="383.196" width="63.978" height="63.978" filterUnits="userSpaceOnUse"><feOffset dy="3" input="SourceAlpha"/><feGaussianBlur stdDeviation="3" result="w"/><feFlood flood-opacity="0.161"/><feComposite operator="in" in2="w"/><feComposite in="SourceGraphic"/></filter><linearGradient id="x" x1="0" y1="0.5" x2="1" y2="0.5" xlink:href="#f"/><filter id="z" x="395.033" y="310.4" width="187.077" height="179.048" filterUnits="userSpaceOnUse"><feOffset dx="8" dy="8" input="SourceAlpha"/><feGaussianBlur stdDeviation="6" result="aa"/><feFlood flood-opacity="0.149"/><feComposite operator="in" in2="aa"/><feComposite in="SourceGraphic"/></filter><linearGradient id="ab" x1="-51.706" y1="16.523" x2="-50.706" y2="16.523" xlink:href="#q"/><filter id="ac" x="370" y="360.46" width="109.304" height="109.304" filterUnits="userSpaceOnUse"><feOffset dy="3" input="SourceAlpha"/><feGaussianBlur stdDeviation="3" result="ad"/><feFlood flood-opacity="0.161"/><feComposite operator="in" in2="ad"/><feComposite in="SourceGraphic"/></filter><linearGradient id="ae" x1="1.676" y1="1.319" x2="0.477" y2="0.309" xlink:href="#g"/><filter id="ag" x="668.384" y="128.558" width="187.077" height="179.048" filterUnits="userSpaceOnUse"><feOffset dx="8" dy="8" input="SourceAlpha"/><feGaussianBlur stdDeviation="6" result="ah"/><feFlood flood-opacity="0.149"/><feComposite operator="in" in2="ah"/><feComposite in="SourceGraphic"/></filter><linearGradient id="ai" x1="-15.187" y1="-32.778" x2="-14.187" y2="-32.778" xlink:href="#q"/><filter id="aj" x="760.389" y="143.371" width="98.965" height="98.965" filterUnits="userSpaceOnUse"><feOffset dy="3" input="SourceAlpha"/><feGaussianBlur stdDeviation="3" result="ak"/><feFlood flood-opacity="0.161"/><feComposite operator="in" in2="ak"/><feComposite in="SourceGraphic"/></filter><linearGradient id="al" x1="0" y1="0.5" x2="1" y2="0.5" xlink:href="#e"/><filter id="an" x="529.506" y="363.876" width="191.506" height="176.676" filterUnits="userSpaceOnUse"><feOffset dx="8" dy="8" input="SourceAlpha"/><feGaussianBlur stdDeviation="6" result="ao"/><feFlood flood-opacity="0.149"/><feComposite operator="in" in2="ao"/><feComposite in="SourceGraphic"/></filter><linearGradient id="ap" x1="-66.895" y1="-16.764" x2="-65.895" y2="-16.764" xlink:href="#q"/><filter id="aq" x="569.186" y="478.323" width="96.121" height="96.121" filterUnits="userSpaceOnUse"><feOffset dy="3" input="SourceAlpha"/><feGaussianBlur stdDeviation="3" result="ar"/><feFlood flood-opacity="0.161"/><feComposite operator="in" in2="ar"/><feComposite in="SourceGraphic"/></filter><radialGradient id="as" cx="0.5" cy="0.5" r="0.5" gradientTransform="matrix(-0.707, -0.707, 0.707, -0.707, -146.927, -109.946)" xlink:href="#t"/><linearGradient id="at" x1="1.956" y1="3.276" x2="1.301" y2="2.151" xlink:href="#h"/><filter id="av" x="529.482" y="77.455" width="191.506" height="176.676" filterUnits="userSpaceOnUse"><feOffset dx="8" dy="8" input="SourceAlpha"/><feGaussianBlur stdDeviation="6" result="aw"/><feFlood flood-opacity="0.149"/><feComposite operator="in" in2="aw"/><feComposite in="SourceGraphic"/></filter><linearGradient id="ax" x1="0" y1="0.5" x2="1" y2="0.5" xlink:href="#q"/><filter id="ay" x="575.839" y="40.231" width="82.829" height="82.829" filterUnits="userSpaceOnUse"><feOffset dy="3" input="SourceAlpha"/><feGaussianBlur stdDeviation="3" result="az"/><feFlood flood-opacity="0.161"/><feComposite operator="in" in2="az"/><feComposite in="SourceGraphic"/></filter><filter id="ba" x="585.271" y="49.663" width="63.964" height="63.964" filterUnits="userSpaceOnUse"><feOffset dy="3" input="SourceAlpha"/><feGaussianBlur stdDeviation="3" result="bb"/><feFlood flood-opacity="0.161"/><feComposite operator="in" in2="bb"/><feComposite in="SourceGraphic"/></filter><filter id="bc" x="778.271" y="160.663" width="63.964" height="63.964" filterUnits="userSpaceOnUse"><feOffset dy="3" input="SourceAlpha"/><feGaussianBlur stdDeviation="3" result="bd"/><feFlood flood-opacity="0.161"/><feComposite operator="in" in2="bd"/><feComposite in="SourceGraphic"/></filter><filter id="be" x="585.271" y="496.663" width="63.964" height="63.964" filterUnits="userSpaceOnUse"><feOffset dy="3" input="SourceAlpha"/><feGaussianBlur stdDeviation="3" result="bf"/><feFlood flood-opacity="0.161"/><feComposite operator="in" in2="bf"/><feComposite in="SourceGraphic"/></filter><filter id="bg" x="392.271" y="384.663" width="63.964" height="63.964" filterUnits="userSpaceOnUse"><feOffset dy="3" input="SourceAlpha"/><feGaussianBlur stdDeviation="3" result="bh"/><feFlood flood-opacity="0.161"/><feComposite operator="in" in2="bh"/><feComposite in="SourceGraphic"/></filter><filter id="bi" x="392.271" y="162.663" width="63.964" height="63.964" filterUnits="userSpaceOnUse"><feOffset dy="3" input="SourceAlpha"/><feGaussianBlur stdDeviation="3" result="bj"/><feFlood flood-opacity="0.161"/><feComposite operator="in" in2="bj"/><feComposite in="SourceGraphic"/></filter><linearGradient id="bk" x1="0.827" y1="0.827" x2="0.107" y2="0.107" xlink:href="#q"/><filter id="bl" x="501.05" y="188.413" width="232.327" height="232.327" filterUnits="userSpaceOnUse"><feOffset dy="3" input="SourceAlpha"/><feGaussianBlur stdDeviation="3" result="bm"/><feFlood flood-opacity="0.161"/><feComposite operator="in" in2="bm"/><feComposite in="SourceGraphic"/></filter></defs><g transform="translate(-181 -1010)"><g transform="translate(0 31)"><rect width="1240" height="599" transform="translate(181 979)" fill="#fed5b1"/><g clip-path="url(#a)"><g transform="translate(0 -1081.205)"><g transform="translate(335.5 -744.689)"><path d="M405.2,292.224l-28.545,2.658,10.506,10.506-24.3,24.3a3.389,3.389,0,1,0,4.793,4.793l24.3-24.3,10.588,10.591Z" transform="translate(-506.863 3059.15)" fill="#529d2e"/><path d="M675.434,258.188l-44.163,4.11,16.252,16.256-37.6,37.6a5.244,5.244,0,1,0,7.415,7.417l37.6-37.6,16.382,16.384Z" transform="translate(402.566 2635.952)" fill="#fc8116"/><path d="M588.367,168.785l-32.318,3.009,11.894,11.894L540.43,211.2a3.837,3.837,0,1,0,5.426,5.426l27.514-27.512,11.988,11.989Z" transform="translate(447.119 2638.723)" fill="#529d2e"/><path d="M49.061,0,16.744,3.009,28.638,14.9,1.124,42.417a3.837,3.837,0,1,0,5.426,5.426L34.064,20.331,46.052,32.321Z" transform="matrix(-0.996, -0.087, 0.087, -0.996, 1042.251, 3035.87)" fill="#fcd03e"/><path d="M576.3,168.785l-24.368,2.269,8.969,8.969-20.746,20.746a2.893,2.893,0,1,0,4.092,4.092l20.746-20.745,9.039,9.04Z" transform="translate(-637.3 3182.588)" fill="#fcd03e"/><path d="M586.306,168.785l-30.96,2.883,11.395,11.394L540.383,209.42a3.676,3.676,0,1,0,5.2,5.2l26.358-26.356,11.484,11.486Z" transform="translate(-667.306 3116.588)" fill="#b0c710"/></g><g transform="translate(1064.14 2075.697)" opacity="0.14"><path d="M434.163,199.428,271.73,221.793l17.2,118.968,161.1-22.694Z" transform="translate(-265.715 -171.398)" fill="#ebebeb"/><path d="M435.694,179.188,275.141,212.468,300.333,330l159.2-33.519Z" transform="translate(-266.625 -166)" fill="#e0e0e0"/><path d="M418.5,161.2,263.83,215.622,304.49,328.741l153.3-54.476Z" transform="translate(-263.608 -161.203)" fill="#fff"/><g transform="translate(0 0)"><path d="M418.42,161.2c.424,1.213,15.546,44.546,39.44,113.011l.051.147-.146.051-153.292,54.51-.179.064-.064-.179-.3-.825c-14.47-40.277-28.191-78.465-40.347-112.3l-.059-.164.164-.058L418.42,161.2,263.806,215.785l.106-.221,40.38,112.288.3.825-.243-.115,153.315-54.444-.1.2C433.851,205.789,418.841,162.416,418.42,161.2Z" transform="translate(-263.527 -161.203)" fill="#263238"/></g><g transform="translate(127.125 21.928)"><path d="M469.02,277.677c-.3.11-7.727-19.182-16.595-43.083s-15.819-43.376-15.522-43.486,7.726,19.177,16.6,43.088S469.317,277.567,469.02,277.677Z" transform="translate(-436.895 -191.107)" fill="#263238"/></g><g transform="translate(113.915 27.966)"><path d="M451.006,285.911c-.3.11-7.728-19.182-16.6-43.083s-15.819-43.376-15.522-43.486,7.726,19.177,16.6,43.088S451.3,285.8,451.006,285.911Z" transform="translate(-418.879 -199.341)" fill="#263238"/></g><g transform="translate(72.903 45.144)"><path d="M395.075,309.338c-.3.11-7.728-19.182-16.6-43.083s-15.819-43.376-15.522-43.486,7.726,19.177,16.6,43.088S395.371,309.228,395.075,309.338Z" transform="translate(-362.948 -222.768)" fill="#263238"/></g><g transform="translate(85.974 39.881)"><path d="M412.9,302.16c-.3.11-7.727-19.182-16.595-43.083s-15.819-43.376-15.523-43.486,7.726,19.177,16.6,43.087S413.2,302.05,412.9,302.16Z" transform="translate(-380.775 -215.59)" fill="#263238"/></g><g transform="translate(99.046 34.617)"><path d="M430.727,294.982c-.3.11-7.727-19.182-16.595-43.083s-15.819-43.376-15.522-43.486,7.725,19.178,16.6,43.088S431.023,294.871,430.727,294.982Z" transform="translate(-398.602 -208.411)" fill="#263238"/></g><g transform="translate(57.761 49.501)"><path d="M374.426,315.279c-.3.11-7.727-19.182-16.595-43.083s-15.819-43.376-15.523-43.486,7.726,19.178,16.6,43.088S374.722,315.17,374.426,315.279Z" transform="translate(-342.3 -228.709)" fill="#263238"/></g><g transform="translate(43.281 54.811)"><path d="M354.678,322.521c-.3.11-7.727-19.181-16.595-43.084s-15.819-43.376-15.523-43.486,7.726,19.177,16.6,43.088S354.974,322.412,354.678,322.521Z" transform="translate(-322.552 -235.951)" fill="#263238"/></g><g transform="translate(28.8 60.121)"><path d="M334.93,329.763c-.3.111-7.727-19.181-16.595-43.083s-15.819-43.376-15.523-43.486,7.726,19.177,16.6,43.088S335.226,329.653,334.93,329.763Z" transform="translate(-302.804 -243.193)" fill="#263238"/></g></g><path d="M596.452,85.6a20.739,20.739,0,0,0-8.62-.531,10.932,10.932,0,0,1-2.947.045L596.26,44.128a5.672,5.672,0,0,0-3.948-6.98L549.666,25.313l-1.343,4.84a8.981,8.981,0,0,0-.263,3.438,18.775,18.775,0,0,1-24.435,19.977,18.948,18.948,0,0,1-12.662-21.633,18.65,18.65,0,0,1,4.136-8.454,9.322,9.322,0,0,0,1.943-3.566l.942-3.393L474.816,4.392a6.963,6.963,0,0,0-8.57,4.847l-10.591,38-2.947-.818c-.333-.093-.671-.2-1-.315a22.908,22.908,0,1,0-12.312,36.433,8.817,8.817,0,0,1,1.843.3l3.78,1.049-11.775,42.425a6.964,6.964,0,0,0,4.849,8.57L556.1,167.638a5.67,5.67,0,0,0,6.98-3.948l11.987-43.2a11.293,11.293,0,0,1,1.9,1.362,20.781,20.781,0,0,0,11.759,5.117A21.134,21.134,0,0,0,596.452,85.6" transform="translate(630.116 2304.885)" fill="#fec08a" opacity="0.22"/><path d="M608.509,213.316a14.028,14.028,0,0,0,5.7,1.307,7.421,7.421,0,0,1,1.975.3l-12.135,26.121a3.838,3.838,0,0,0,1.865,5.1l27.179,12.625,1.432-3.085a6.1,6.1,0,0,0,.558-2.268,12.581,12.581,0,0,1,1.158-4.687,12.728,12.728,0,1,1,19.74,15.089,6.306,6.306,0,0,0-1.692,2.167l-1.006,2.164,27.5,12.878a4.714,4.714,0,0,0,6.261-2.29l11.28-24.214,1.877.873q.321.147.635.321a15.512,15.512,0,1,0,12.256-22.975,5.918,5.918,0,0,1-1.2-.4l-2.41-1.12,12.559-27.037a4.712,4.712,0,0,0-2.288-6.261l-75.21-34.935a3.838,3.838,0,0,0-5.1,1.864l-12.788,27.529a7.56,7.56,0,0,1-1.12-1.12,14.069,14.069,0,0,0-7.289-4.72,14.311,14.311,0,0,0-9.738,26.783" transform="translate(700.141 2228.256)" fill="#fed0a8" opacity="0.64"/><g transform="translate(1141.442 2503.848)" opacity="0.14"><path d="M434.163,199.428,271.73,221.793l17.2,118.968,161.1-22.694Z" transform="translate(-265.715 -171.398)" fill="#ebebeb"/><path d="M435.694,179.188,275.141,212.468,300.333,330l159.2-33.519Z" transform="translate(-266.625 -166)" fill="#e0e0e0"/><path d="M418.5,161.2,263.83,215.622,304.49,328.741l153.3-54.476Z" transform="translate(-263.608 -161.203)" fill="#fff"/><g transform="translate(0 0)"><path d="M418.42,161.2c.424,1.213,15.546,44.546,39.44,113.011l.051.147-.146.051-153.292,54.51-.179.064-.064-.179-.3-.825c-14.47-40.277-28.191-78.465-40.347-112.3l-.059-.164.164-.058L418.42,161.2,263.806,215.785l.106-.221,40.38,112.288.3.825-.243-.115,153.315-54.444-.1.2C433.851,205.789,418.841,162.416,418.42,161.2Z" transform="translate(-263.527 -161.203)" fill="#263238"/></g><g transform="translate(127.125 21.928)"><path d="M469.02,277.677c-.3.11-7.727-19.182-16.595-43.083s-15.819-43.376-15.522-43.486,7.726,19.177,16.6,43.088S469.317,277.567,469.02,277.677Z" transform="translate(-436.895 -191.107)" fill="#263238"/></g><g transform="translate(113.915 27.966)"><path d="M451.006,285.911c-.3.11-7.728-19.182-16.6-43.083s-15.819-43.376-15.522-43.486,7.726,19.177,16.6,43.088S451.3,285.8,451.006,285.911Z" transform="translate(-418.879 -199.341)" fill="#263238"/></g><g transform="translate(72.903 45.144)"><path d="M395.075,309.338c-.3.11-7.728-19.182-16.6-43.083s-15.819-43.376-15.522-43.486,7.726,19.177,16.6,43.088S395.371,309.228,395.075,309.338Z" transform="translate(-362.948 -222.768)" fill="#263238"/></g><g transform="translate(85.974 39.881)"><path d="M412.9,302.16c-.3.11-7.727-19.182-16.595-43.083s-15.819-43.376-15.523-43.486,7.726,19.177,16.6,43.087S413.2,302.05,412.9,302.16Z" transform="translate(-380.775 -215.59)" fill="#263238"/></g><g transform="translate(99.046 34.617)"><path d="M430.727,294.982c-.3.11-7.727-19.182-16.595-43.083s-15.819-43.376-15.522-43.486,7.725,19.178,16.6,43.088S431.023,294.871,430.727,294.982Z" transform="translate(-398.602 -208.411)" fill="#263238"/></g><g transform="translate(57.761 49.501)"><path d="M374.426,315.279c-.3.11-7.727-19.182-16.595-43.083s-15.819-43.376-15.523-43.486,7.726,19.178,16.6,43.088S374.722,315.17,374.426,315.279Z" transform="translate(-342.3 -228.709)" fill="#263238"/></g><g transform="translate(43.281 54.811)"><path d="M354.678,322.521c-.3.11-7.727-19.181-16.595-43.084s-15.819-43.376-15.523-43.486,7.726,19.177,16.6,43.088S354.974,322.412,354.678,322.521Z" transform="translate(-322.552 -235.951)" fill="#263238"/></g><g transform="translate(28.8 60.121)"><path d="M334.93,329.763c-.3.111-7.727-19.181-16.595-43.083s-15.819-43.376-15.523-43.486,7.726,19.177,16.6,43.088S335.226,329.653,334.93,329.763Z" transform="translate(-302.804 -243.193)" fill="#263238"/></g></g><path d="M8.479,312.8a12.9,12.9,0,0,0,5.311.788,6.739,6.739,0,0,1,1.827.129L6.389,338.5a3.524,3.524,0,0,0,2.072,4.533l25.783,9.6,1.089-2.926a5.6,5.6,0,0,0,.347-2.115,11.671,11.671,0,0,1,16.2-11.071,11.779,11.779,0,0,1,6.689,14.073,11.577,11.577,0,0,1-3.012,5.016,5.792,5.792,0,0,0-1.393,2.105l-.764,2.051,26.089,9.811a4.328,4.328,0,0,0,5.567-2.544l8.584-22.971,1.781.662c.2.075.4.158.6.249a14.241,14.241,0,1,0,9.567-21.909,5.416,5.416,0,0,1-1.126-.284l-2.285-.851,9.551-25.648a4.327,4.327,0,0,0-2.544-5.567L37.842,264.144a3.524,3.524,0,0,0-4.533,2.073L23.583,292.33a6.985,6.985,0,0,1-1.1-.945,12.914,12.914,0,0,0-7.011-3.795A13.137,13.137,0,0,0,8.479,312.8" transform="translate(603.229 2271.643)" fill="#fed0a8"/><g transform="translate(221.5 2103.182)" opacity="0.14"><path d="M434.163,199.428,271.73,221.793l17.2,118.968,161.1-22.694Z" transform="translate(-265.715 -171.398)" fill="#ebebeb"/><path d="M435.694,179.188,275.141,212.468,300.333,330l159.2-33.519Z" transform="translate(-266.625 -166)" fill="#e0e0e0"/><path d="M418.5,161.2,263.83,215.622,304.49,328.741l153.3-54.476Z" transform="translate(-263.608 -161.203)" fill="#fff"/><g transform="translate(0 0)"><path d="M418.42,161.2c.424,1.213,15.546,44.546,39.44,113.011l.051.147-.146.051-153.292,54.51-.179.064-.064-.179-.3-.825c-14.47-40.277-28.191-78.465-40.347-112.3l-.059-.164.164-.058L418.42,161.2,263.806,215.785l.106-.221,40.38,112.288.3.825-.243-.115,153.315-54.444-.1.2C433.851,205.789,418.841,162.416,418.42,161.2Z" transform="translate(-263.527 -161.203)" fill="#263238"/></g><g transform="translate(127.125 21.928)"><path d="M469.02,277.677c-.3.11-7.727-19.182-16.595-43.083s-15.819-43.376-15.522-43.486,7.726,19.177,16.6,43.088S469.317,277.567,469.02,277.677Z" transform="translate(-436.895 -191.107)" fill="#263238"/></g><g transform="translate(113.915 27.966)"><path d="M451.006,285.911c-.3.11-7.728-19.182-16.6-43.083s-15.819-43.376-15.522-43.486,7.726,19.177,16.6,43.088S451.3,285.8,451.006,285.911Z" transform="translate(-418.879 -199.341)" fill="#263238"/></g><g transform="translate(72.903 45.144)"><path d="M395.075,309.338c-.3.11-7.728-19.182-16.6-43.083s-15.819-43.376-15.522-43.486,7.726,19.177,16.6,43.088S395.371,309.228,395.075,309.338Z" transform="translate(-362.948 -222.768)" fill="#263238"/></g><g transform="translate(85.974 39.881)"><path d="M412.9,302.16c-.3.11-7.727-19.182-16.595-43.083s-15.819-43.376-15.523-43.486,7.726,19.177,16.6,43.087S413.2,302.05,412.9,302.16Z" transform="translate(-380.775 -215.59)" fill="#263238"/></g><g transform="translate(99.046 34.617)"><path d="M430.727,294.982c-.3.11-7.727-19.182-16.595-43.083s-15.819-43.376-15.522-43.486,7.725,19.178,16.6,43.088S431.023,294.871,430.727,294.982Z" transform="translate(-398.602 -208.411)" fill="#263238"/></g><g transform="translate(57.761 49.501)"><path d="M374.426,315.279c-.3.11-7.727-19.182-16.595-43.083s-15.819-43.376-15.523-43.486,7.726,19.178,16.6,43.088S374.722,315.17,374.426,315.279Z" transform="translate(-342.3 -228.709)" fill="#263238"/></g><g transform="translate(43.281 54.811)"><path d="M354.678,322.521c-.3.11-7.727-19.181-16.595-43.084s-15.819-43.376-15.523-43.486,7.726,19.177,16.6,43.088S354.974,322.412,354.678,322.521Z" transform="translate(-322.552 -235.951)" fill="#263238"/></g><g transform="translate(28.8 60.121)"><path d="M334.93,329.763c-.3.111-7.727-19.181-16.595-43.083s-15.819-43.376-15.523-43.486,7.726,19.177,16.6,43.088S335.226,329.653,334.93,329.763Z" transform="translate(-302.804 -243.193)" fill="#263238"/></g></g><path d="M596.452,85.6a20.739,20.739,0,0,0-8.62-.531,10.932,10.932,0,0,1-2.947.045L596.26,44.128a5.672,5.672,0,0,0-3.948-6.98L549.666,25.313l-1.343,4.84a8.981,8.981,0,0,0-.263,3.438,18.775,18.775,0,0,1-24.435,19.977,18.948,18.948,0,0,1-12.662-21.633,18.65,18.65,0,0,1,4.136-8.454,9.322,9.322,0,0,0,1.943-3.566l.942-3.393L474.816,4.392a6.963,6.963,0,0,0-8.57,4.847l-10.591,38-2.947-.818c-.333-.093-.671-.2-1-.315a22.908,22.908,0,1,0-12.312,36.433,8.817,8.817,0,0,1,1.843.3l3.78,1.049-11.775,42.425a6.964,6.964,0,0,0,4.849,8.57L556.1,167.638a5.67,5.67,0,0,0,6.98-3.948l11.987-43.2a11.293,11.293,0,0,1,1.9,1.362,20.781,20.781,0,0,0,11.759,5.117A21.134,21.134,0,0,0,596.452,85.6" transform="translate(-95.442 2386.739)" fill="#fec08a" opacity="0.22"/><path d="M596.452,86.382a20.739,20.739,0,0,1-8.62.531,10.932,10.932,0,0,0-2.947-.045l11.376,40.987a5.672,5.672,0,0,1-3.948,6.98l-42.647,11.835-1.343-4.84a8.981,8.981,0,0,1-.263-3.438,18.775,18.775,0,0,0-24.435-19.977,18.948,18.948,0,0,0-12.662,21.633A18.65,18.65,0,0,0,515.1,148.5a9.322,9.322,0,0,1,1.943,3.566l.942,3.393-43.169,12.129a6.963,6.963,0,0,1-8.57-4.847l-10.591-38-2.947.818c-.333.093-.671.2-1,.315a22.908,22.908,0,1,1-12.312-36.433,8.817,8.817,0,0,0,1.843-.3l3.78-1.049L433.241,45.666a6.964,6.964,0,0,1,4.849-8.57L556.1,4.345a5.67,5.67,0,0,1,6.98,3.948l11.987,43.2a11.293,11.293,0,0,0,1.9-1.362,20.781,20.781,0,0,1,11.759-5.117,21.134,21.134,0,0,1,7.725,41.371" transform="translate(69.559 2017.19)" fill="#fec08a" opacity="0.22"/></g></g></g><g transform="translate(0 28)"><g transform="matrix(1, 0, 0, 1, 181, 982)" filter="url(#c)"><path d="M164.842,0A164.842,164.842,0,1,1,0,164.842,164.842,164.842,0,0,1,164.842,0Z" transform="translate(452.37 466.42) rotate(-90)" fill="url(#b)"/></g><g transform="translate(694.463 1179.817)"><path d="M1371.356,236.963a103.676,103.676,0,0,0-89.846-51.913V288.841l89.846-51.865Z" transform="translate(-1177.731 -185.05)" fill="url(#e)"/><path d="M1208.719,228.41a103.645,103.645,0,0,0,.024,103.767L1298.6,280.3l-89.882-51.889Z" transform="translate(-1194.81 -176.509)" fill="#fc8116"/><path d="M1296.312,185.05h-.024a103.7,103.7,0,0,0-89.858,51.9l89.882,51.889V185.05Z" transform="translate(-1192.521 -185.05)" fill="#f2d500"/><path d="M1371.356,228.422l-89.846,51.865,89.822,51.853a103.656,103.656,0,0,0,.024-103.731Z" transform="translate(-1177.731 -176.509)" fill="url(#f)"/><path d="M1206.45,323.637a103.7,103.7,0,0,0,89.834,51.853h.024V271.76l-89.858,51.877Z" transform="translate(-1192.517 -167.969)" fill="url(#g)"/><path d="M1281.52,375.491a103.674,103.674,0,0,0,89.822-51.877L1281.52,271.76Z" transform="translate(-1177.73 -167.969)" fill="url(#h)"/></g><g transform="translate(566.183 1120.549)"><g transform="matrix(1, 0, 0, 1, -385.18, -138.55)" filter="url(#j)"><path d="M1133.962,278.593l105.9-9.827a14.473,14.473,0,0,0,12.975-22.479L1208.4,149.665a31.757,31.757,0,0,0-53.924,1.76l-45.952,79.588a31.768,31.768,0,0,0,25.448,47.58Z" transform="translate(-699.19 3.01)" fill="url(#i)"/></g><g transform="translate(0 11.799)"><g transform="matrix(1, 0, 0, 1, -385.18, -150.35)" filter="url(#l)"><circle cx="32.414" cy="32.414" r="32.414" transform="translate(385.18 166.59) rotate(-14.51)" fill="#fbfbfb"/></g></g><path d="M1234.4,231.558a14.476,14.476,0,0,1-12.975,22.479l-23.6,2.19a103.71,103.71,0,0,1,26.8-45.928l9.779,21.258Z" transform="translate(-1065.938 -120.808)" fill="#fc8116"/></g><g transform="translate(859.384 1302.4)"><g transform="matrix(1, 0, 0, 1, -678.38, -320.4)" filter="url(#o)"><path d="M1453.928,287.46l-105.9,9.827a14.473,14.473,0,0,0-12.975,22.479l44.432,96.621a31.757,31.757,0,0,0,53.924-1.76l45.952-79.588a31.768,31.768,0,0,0-25.448-47.58Z" transform="translate(-654.21 32.94)" fill="url(#i)"/></g><g transform="translate(85.944 46.327)"><g transform="matrix(1, 0, 0, 1, -764.33, -366.73)" filter="url(#r)"><circle cx="32.414" cy="32.414" r="32.414" transform="matrix(0.62, -0.78, 0.78, 0.62, 764.33, 417.43)" fill="url(#q)"/></g><circle cx="22.467" cy="22.467" r="22.467" transform="translate(22.444 33.239) rotate(-15.09)" fill="url(#t)"/><g transform="matrix(1, 0, 0, 1, -764.33, -366.73)" filter="url(#v)"><path d="M1434.682,387.829a22.985,22.985,0,1,0-8.415-31.4A22.979,22.979,0,0,0,1434.682,387.829Z" transform="translate(-636.36 44.26)" fill="url(#b)"/></g></g><path d="M1371.9,293.82a103.773,103.773,0,0,1-26.717,46.718l-10.126-22.025a14.484,14.484,0,0,1,12.987-22.479l23.868-2.214Z" transform="translate(-1332.59 -286.207)" fill="url(#x)"/></g><g transform="translate(560 1302.4)"><g transform="matrix(1, 0, 0, 1, -379, -320.4)" filter="url(#z)"><path d="M1208.4,416.387l44.432-96.621a14.475,14.475,0,0,0-12.975-22.479l-105.9-9.827a31.768,31.768,0,0,0-25.448,47.58l45.952,79.588a31.767,31.767,0,0,0,53.924,1.76Z" transform="translate(-699.19 32.94)" fill="url(#i)"/></g><g transform="translate(0 46.059)"><g transform="matrix(1, 0, 0, 1, -379, -366.46)" filter="url(#ac)"><circle cx="32.414" cy="32.414" r="32.414" transform="matrix(0.77, -0.64, 0.64, 0.77, 379, 407.96)" fill="url(#ab)"/></g></g><path d="M1234.451,318.514l-10.138,22.048a103.573,103.573,0,0,1-26.753-46.742l23.928,2.214a14.48,14.48,0,0,1,12.975,22.479Z" transform="translate(-1059.806 -286.207)" fill="url(#ae)"/></g><g transform="translate(859.379 1120.558)"><g transform="translate(0.005)"><g transform="matrix(1, 0, 0, 1, -678.38, -138.56)" filter="url(#ag)"><path d="M1379.488,149.664l-44.432,96.621a14.475,14.475,0,0,0,12.975,22.479l105.9,9.827a31.768,31.768,0,0,0,25.448-47.58l-45.952-79.588a31.767,31.767,0,0,0-53.924-1.76Z" transform="translate(-654.21 3.01)" fill="url(#i)"/></g><g transform="translate(89.807 10.813)"><g transform="matrix(1, 0, 0, 1, -768.19, -149.37)" filter="url(#aj)"><circle cx="32.414" cy="32.414" r="32.414" transform="translate(769.39 211.36) rotate(-72.98)" fill="url(#ai)"/></g></g></g><path d="M1335.045,231.555l9.767-21.235a103.766,103.766,0,0,1,26.765,45.892l-23.545-2.179A14.484,14.484,0,0,1,1335.045,231.555Z" transform="translate(-1332.587 -120.813)" fill="url(#al)"/></g><g transform="translate(720.506 1355.867)"><g transform="translate(0 0.009)"><g transform="matrix(1, 0, 0, 1, -539.51, -373.88)" filter="url(#an)"><path d="M1368.743,426.99,1307.29,340.2a14.473,14.473,0,0,0-25.951,0l-61.453,86.793a31.764,31.764,0,0,0,28.488,45.821h91.893a31.767,31.767,0,0,0,28.488-45.821Z" transform="translate(-677.06 41.74)" fill="url(#i)"/></g><g transform="translate(38.68 110.447)"><g transform="matrix(1, 0, 0, 1, -578.19, -484.32)" filter="url(#aq)"><circle cx="32.414" cy="32.414" r="32.414" transform="matrix(0.97, -0.23, 0.23, 0.97, 578.19, 499.39)" fill="url(#ap)"/></g><circle cx="22.467" cy="22.467" r="22.467" transform="translate(12.298 42.077) rotate(-45)" fill="url(#as)"/></g></g><path d="M1298.955,340.2l14.1,19.918a104.467,104.467,0,0,1-54.176.012l14.113-19.93A14.475,14.475,0,0,1,1298.955,340.2Z" transform="translate(-1208.233 -332.128)" fill="url(#at)"/></g><g transform="translate(720.482 1024.626)"><g transform="matrix(1, 0, 0, 1, -539.48, -42.63)" filter="url(#av)"><path d="M1219.878,138.671l61.453,86.793a14.473,14.473,0,0,0,25.951,0l61.453-86.793a31.764,31.764,0,0,0-28.488-45.821h-91.893a31.767,31.767,0,0,0-28.488,45.821Z" transform="translate(-677.07 -5.4)" fill="url(#i)"/></g><g transform="translate(40.983)"><g transform="matrix(1, 0, 0, 1, -580.47, -42.63)" filter="url(#ay)"><circle cx="32.414" cy="32.414" r="32.414" transform="translate(584.84 46.23)" fill="url(#ax)"/></g><g transform="matrix(1, 0, 0, 1, -580.47, -42.63)" filter="url(#ba)"><path d="M22.982,0A22.982,22.982,0,1,1,0,22.982,22.982,22.982,0,0,1,22.982,0Z" transform="translate(594.27 55.66)" fill="#f9f9f9"/></g><g transform="matrix(1, 0, 0, 1, -580.47, -42.63)" filter="url(#bc)"><path d="M22.982,0A22.982,22.982,0,1,1,0,22.982,22.982,22.982,0,0,1,22.982,0Z" transform="translate(787.27 166.66)" fill="#f9f9f9"/></g><g transform="matrix(1, 0, 0, 1, -580.47, -42.63)" filter="url(#be)"><path d="M22.982,0A22.982,22.982,0,1,1,0,22.982,22.982,22.982,0,0,1,22.982,0Z" transform="translate(594.27 502.66)" fill="#f9f9f9"/></g><g transform="matrix(1, 0, 0, 1, -580.47, -42.63)" filter="url(#bg)"><path d="M22.982,0A22.982,22.982,0,1,1,0,22.982,22.982,22.982,0,0,1,22.982,0Z" transform="translate(401.27 390.66)" fill="#f9f9f9"/></g><g transform="matrix(1, 0, 0, 1, -580.47, -42.63)" filter="url(#bi)"><path d="M22.982,0A22.982,22.982,0,1,1,0,22.982,22.982,22.982,0,0,1,22.982,0Z" transform="translate(401.27 168.66)" fill="#f9f9f9"/></g></g><path d="M1272.88,207.32l-13.43-18.972a104.478,104.478,0,0,1,52.823.012l-13.43,18.96a14.475,14.475,0,0,1-25.963,0Z" transform="translate(-1208.096 -29.877)" fill="#f2d500"/></g><text transform="translate(759.306 1122.805)" fill="#12263f" font-size="18" font-family="Roboto-Medium, Roboto" font-weight="500"><tspan x="3.198" y="19">Volumen</tspan></text><text transform="translate(879.579 1202.175)" fill="#12263f" font-size="18" font-family="Roboto-Medium, Roboto" font-weight="500"><tspan x="6.174" y="19">Velocidad</tspan></text><text transform="translate(894 1344)" fill="#12263f" font-size="18" font-family="Roboto-Medium, Roboto" font-weight="500"><tspan x="2.266" y="19">Variedad</tspan></text><text transform="translate(753 1427.769)" fill="#12263f" font-size="18" font-family="Roboto-Medium, Roboto" font-weight="500"><tspan x="6.551" y="19">Veracidad</tspan></text><text transform="translate(637 1344)" fill="#12263f" font-size="18" font-family="Roboto-Medium, Roboto" font-weight="500"><tspan x="4.831" y="19">Valor</tspan></text><text transform="translate(617.5 1199.313)" fill="#12263f" font-size="18" font-family="Roboto-Medium, Roboto" font-weight="500"><tspan x="2.675" y="19">Variabilida</tspan></text><g transform="matrix(0.883, 0.469, -0.469, 0.883, 755.321, 1143.25)"><path d="M1371.356,236.963a103.676,103.676,0,0,0-89.846-51.913V288.841l89.846-51.865Z" transform="translate(-1177.731 -185.05)" fill="#b0c710"/><path d="M1208.719,228.41a103.645,103.645,0,0,0,.024,103.767L1298.6,280.3l-89.882-51.889Z" transform="translate(-1194.81 -176.509)" fill="#fc8116"/><path d="M1296.312,185.05h-.024a103.7,103.7,0,0,0-89.858,51.9l89.882,51.889V185.05Z" transform="translate(-1192.521 -185.05)" fill="#3a8416"/><path d="M1371.356,228.422l-89.846,51.865,89.822,51.853a103.656,103.656,0,0,0,.024-103.731Z" transform="translate(-1177.731 -176.509)" fill="#fc8116"/><path d="M1206.45,323.637a103.7,103.7,0,0,0,89.834,51.853h.024V271.76l-89.858,51.877Z" transform="translate(-1192.517 -167.969)" fill="#b0c710"/><path d="M1281.52,375.491a103.674,103.674,0,0,0,89.822-51.877L1281.52,271.76Z" transform="translate(-1177.73 -167.969)" fill="#3a8416"/></g><g transform="translate(0.05 42)"><g transform="matrix(1, 0, 0, 1, 180.95, 940)" filter="url(#bl)"><path d="M89.471,0A89.471,89.471,0,1,1,0,89.471,89.471,89.471,0,0,1,89.471,0Z" transform="translate(510.05 368.85) rotate(-77.12)" fill="url(#bk)"/></g><g transform="translate(761 1272.514)"><path d="M1260.1,301.171a3.591,3.591,0,1,1-3.591-3.591A3.586,3.586,0,0,1,1260.1,301.171Z" transform="translate(-1252.92 -297.58)" fill="#529d2e"/><path d="M1271.262,301.171a3.591,3.591,0,1,1-3.591-3.591A3.586,3.586,0,0,1,1271.262,301.171Z" transform="translate(-1250.722 -297.58)" fill="#b0c710"/><path d="M1282.412,301.171a3.591,3.591,0,1,1-3.591-3.591A3.586,3.586,0,0,1,1282.412,301.171Z" transform="translate(-1248.525 -297.58)" fill="#fc8116"/><path d="M1293.572,301.171a3.591,3.591,0,1,1-3.591-3.591A3.586,3.586,0,0,1,1293.572,301.171Z" transform="translate(-1246.327 -297.58)" fill="#529d2e"/><path d="M1304.732,301.171a3.591,3.591,0,1,1-3.591-3.591A3.586,3.586,0,0,1,1304.732,301.171Z" transform="translate(-1244.129 -297.58)" fill="#b0c710"/><path d="M1315.892,301.171a3.591,3.591,0,1,1-3.591-3.591A3.586,3.586,0,0,1,1315.892,301.171Z" transform="translate(-1241.93 -297.58)" fill="#fc8116"/></g><text transform="translate(721.316 1206.512)" fill="#12263f" font-size="18" font-family="Roboto-Black, Roboto" font-weight="800"><tspan x="46.73" y="19">Las “V” </tspan><tspan x="30.189" y="44">del </tspan><tspan y="44" font-family="Roboto-BlackItalic, Roboto" font-style="italic">big data</tspan></text></g><text transform="translate(843 1100.952)" fill="#12263f" font-size="18" font-family="Roboto-Bold, Roboto" font-weight="700"><tspan x="0" y="0">01</tspan></text><text transform="translate(970.5 1331.779)" fill="#12263f" font-size="18" font-family="Roboto-Bold, Roboto" font-weight="700"><tspan x="0" y="0">03</tspan></text><text transform="translate(654.407 1430)" fill="#12263f" font-size="18" font-family="Roboto-Bold, Roboto" font-weight="700"><tspan x="0" y="0">05</tspan></text><text transform="translate(843 1481)" fill="#12263f" font-size="18" font-family="Roboto-Bold, Roboto" font-weight="700"><tspan x="0" y="0">04</tspan></text><text transform="translate(924.906 1150.13)" fill="#12263f" font-size="18" font-family="Roboto-Bold, Roboto" font-weight="700"><tspan x="0" y="0">02</tspan></text><text transform="translate(605 1246)" fill="#12263f" font-size="18" font-family="Roboto-Bold, Roboto" font-weight="700"><tspan x="0" y="0">06</tspan></text><g transform="translate(775.892 1040.459)"><path d="M39.755,21.166V40.709L22.878,49.592,6,40.709V21.166L7.075,20.6l15.8,8.115L38.489,20.5Z" transform="translate(-0.556 -10.839)" fill="#a4dc88"/><path d="M6,10.883l16.878,8.883,16.878-8.883L22.878,2Z" transform="translate(-0.556 -0.556)" fill="#67c53a"/><path d="M60.878,22V41.542L44,50.425V30.883Z" transform="translate(-21.678 -11.673)" fill="#3a8416"/><path d="M39.406,9.934,22.529,1.051a.445.445,0,0,0-.414,0L5.237,9.934A.456.456,0,0,0,5,10.327V29.87a.444.444,0,0,0,.237.393l16.878,8.883c.007,0,.015.005.023.009l.03.012a.4.4,0,0,0,.308,0l.03-.012c.007,0,.015,0,.023-.009l16.878-8.883a.445.445,0,0,0,.237-.393V10.327A.456.456,0,0,0,39.406,9.934ZM22.322,1.946l15.924,8.381L22.322,18.708,6.4,10.327ZM5.888,11.063l15.989,8.415V38.017L5.888,29.6ZM38.755,29.6,22.766,38.017V19.478l15.989-8.415Z" fill="#32233f"/></g><g transform="translate(972.153 1359.754)"><g transform="translate(0.567 15.354)"><path d="M48.354,89.559c-.794.464-.941,1.467-1.609,2.135-2.05,2.05-3.772,4.344-3.772,7.243v.038H37.3l.177-.081a16.1,16.1,0,0,1,4.74-11.587c.414-.414,1.219-1.225,1.219-1.225q.485-.394,1-.748a7.681,7.681,0,0,0,1.215-.465Z" transform="translate(-35.048 -80.14)" fill="#fc8116"/><path d="M162.952,400.3c-2.475,1.424-5.29,1.674-8.222,1.674-2.955,0-5.79-.261-8.279-1.706l2.837-4.915a10.479,10.479,0,0,0,5.442.986,10.483,10.483,0,0,0,5.385-.953Z" transform="translate(-135.949 -367.163)" fill="#ad96ed"/><path d="M338.795,95.777v.038h-5.673v-.038a8.005,8.005,0,0,0-.977-3.056,12.5,12.5,0,0,0-2.521-4.361c-.684-.684-1.124-1.523-1.939-1.994l2.838-4.915a16.6,16.6,0,0,1,3.431,2.639A16.419,16.419,0,0,1,338.795,95.777Z" transform="translate(-303.486 -76.98)" fill="#3a8416"/><path d="M119.56,152.634a5.088,5.088,0,0,0-1.371,2.417l-.53.847s.384.426.384.438h-5.674V156.3a10.885,10.885,0,0,1,5.381-9.378l2.588,4.807C119.971,151.946,119.875,152.319,119.56,152.634Z" transform="translate(-104.444 -137.501)" fill="#fd963d"/><path d="M194.82,336.376a10.889,10.889,0,0,1-10.827-.033l2.786-4.824a2.576,2.576,0,0,0,1.241.419,5.38,5.38,0,0,0,2.762.018,5.161,5.161,0,0,0,1.26-.391Z" transform="translate(-170.655 -308.148)" fill="#c3aff0"/><path d="M299.8,155.9v.038l-5.512-.039c0-.012,0-.025,0-.038a5.147,5.147,0,0,0-.3-1.179,5.085,5.085,0,0,0-1.378-2.446l-.051-.051a5.337,5.337,0,0,0-.919-.9l2.724-4.792A10.883,10.883,0,0,1,299.8,155.9Z" transform="translate(-270.164 -137.103)" fill="#529d2e"/><path d="M38.77,111.37A16.361,16.361,0,0,1,43.5,100.163a16.935,16.935,0,0,0-1.366,1.225A16.42,16.42,0,0,0,37.3,113.075v.038h0l2.817.437,2.856-.437.534-.424-.463-.861H39.224a.454.454,0,0,1-.454-.458Z" transform="translate(-35.045 -94.278)" fill="#e06e0b"/><path d="M135.586,86.8c-.208.122.084.905-.117,1.041-.155.105-.8-.439-.954-.326l-2.852-4.94q.529-.368,1.084-.691l2.529,2.419Z" transform="translate(-122.279 -77.378)" fill="#f4805d"/><path d="M162.951,400.3l-.679-2.833-2.158-2.082c-.192.11-.539-.1-.737,0s-.224.491-.417.572l2.652,4.595a.151.151,0,0,1-.1.223,18.454,18.454,0,0,1-4.24.49,18.22,18.22,0,0,1-8.244-1.949.454.454,0,0,1-.187-.632L150.4,396l.037-.064c-.2-.086-.193-.446-.389-.545s-.578.072-.761-.034l-1.785,1.9-1.053,3.013h0a16.589,16.589,0,0,0,15.362.629h0Q162.392,400.622,162.951,400.3Z" transform="translate(-135.948 -367.159)" fill="#a088e2"/><path d="M331.045,82.14l-2.851,4.937c-.189-.142-.877.249-1.074.12-.162-.106.167-.733,0-.829l.5-2.69,2.333-2.225Q330.514,81.774,331.045,82.14Z" transform="translate(-302.922 -76.982)" fill="#3a8416"/><path d="M395.632,255.76v.038l-3.016.875-2.657-.875v-.038c0-.177-.782-.429-.79-.6-.011-.241.747-.4.72-.642h5.7Q395.633,255.133,395.632,255.76Z" transform="translate(-360.324 -236.963)" fill="#3a8416"/><path d="M118.041,255.76c0,.013,0,.026,0,.038l-2.906.694-2.768-.694v-.038a11.014,11.014,0,0,1,.07-1.247h5.749A5.3,5.3,0,0,0,118.041,255.76Z" transform="translate(-104.443 -236.963)" fill="#fd963d"/><path d="M173.3,151.834a5.256,5.256,0,0,0-1.026.8l-2.881-5a10.78,10.78,0,0,1,1.071-.716l1.8,2.234Z" transform="translate(-157.163 -137.504)" fill="#fd963d"/><path d="M188.03,330.878l-2.877,4.983a10.546,10.546,0,0,1-1.149-.578l.288-1.726,2.548-3.185A4.925,4.925,0,0,0,188.03,330.878Z" transform="translate(-170.665 -307.089)" fill="#ad96ed"/><path d="M277.864,335.718a10.553,10.553,0,0,1-1.153.572l-2.885-4.992a4.968,4.968,0,0,0,1.2-.491l2.215,2.478Z" transform="translate(-253.699 -307.491)" fill="#ad96ed"/><path d="M294.079,147.2l-2.879,4.987a5.213,5.213,0,0,0-1.03-.785l.252-2.254,2.583-2.656A10.57,10.57,0,0,1,294.079,147.2Z" transform="translate(-268.807 -137.106)" fill="#3a8416"/><path d="M328.449,255.759v.038l-2.91.669-2.764-.669c0-.012,0-.025,0-.038a5.3,5.3,0,0,0-.146-1.247h5.749A11,11,0,0,1,328.449,255.759Z" transform="translate(-298.814 -236.962)" fill="#529d2e"/><path d="M152.637,24.417a.756.756,0,0,1,.3,1.048l-.746,1.293-2.838,4.915c-1.629-.942-3.485-.611-5.418-.611-1.955,0-3.831-.319-5.474.644l-2.838-4.915-.747-1.295a.756.756,0,0,1,.3-1.047,18.826,18.826,0,0,1,17.458-.032Z" transform="translate(-125.157 -22.287)" fill="#fcd03e"/><path d="M24.5,280.873l-1.785,3.092-1.87,2.454a.757.757,0,0,1-1.061.261,16.923,16.923,0,0,1-8.323-14.169.757.757,0,0,1,.756-.79l2.71-.207h4.159c2.066,2.066,1.422,5.152,3.463,7.193C23.224,279.384,23.749,280.126,24.5,280.873Z" transform="translate(-11.158 -252.679)" fill="#529d2e"/><path d="M19.053,283.964,18,285.787l-.746,1.292a.757.757,0,0,1-1.061.261A18.79,18.79,0,0,1,7.5,272.3a.758.758,0,0,1,.756-.791h3.036a16.651,16.651,0,0,0,7.761,12.451Z" transform="translate(-7.499 -252.678)" fill="#3a8416"/><path d="M340.649,272.3a18.788,18.788,0,0,1-8.751,15.074.757.757,0,0,1-1.059-.262l-.747-1.295-2.837-4.915c.828-.474,1.176-1.336,1.868-2.028a11.457,11.457,0,0,0,3.029-5.383,8.328,8.328,0,0,0,.572-1.981h7.168A.757.757,0,0,1,340.649,272.3Z" transform="translate(-303.09 -252.679)" fill="#fc8116"/><path d="M194.456,128.827l-2.835,4.911a5.23,5.23,0,0,0-5.221.033l-2.836-4.911a10.885,10.885,0,0,1,10.892-.033Z" transform="translate(-170.258 -119.44)" fill="#fdd85e"/><path d="M120.618,275.962l-2.836,4.911a10.9,10.9,0,0,1-2.234-1.722,10.785,10.785,0,0,1-3.179-7.638h5.674a5.08,5.08,0,0,0,1.517,3.626A5.271,5.271,0,0,0,120.618,275.962Z" transform="translate(-104.444 -252.678)" fill="#529d2e"/><path d="M298.036,271.513a10.785,10.785,0,0,1-3.179,7.638,10.914,10.914,0,0,1-2.29,1.755l-2.836-4.911a5.246,5.246,0,0,0,1.115-.855,5.08,5.08,0,0,0,1.517-3.626Z" transform="translate(-268.401 -252.678)" fill="#fd963d"/></g><path d="M38.326,34.03a1.33,1.33,0,0,0-.956-.408h-.937a16.974,16.974,0,0,0-5-11.559,17.236,17.236,0,0,0-3.063-2.437l.468-.811a1.331,1.331,0,0,0,.125-1.032,1.309,1.309,0,0,0-.656-.8,19.436,19.436,0,0,0-13.087-1.754.567.567,0,1,0,.241,1.108,18.3,18.3,0,0,1,12.321,1.651.186.186,0,0,1,.093.114.19.19,0,0,1-.018.149l-3.308,5.73a11.465,11.465,0,0,0-10.465.03l-3.308-5.729a.19.19,0,0,1-.018-.148.186.186,0,0,1,.092-.114A18.181,18.181,0,0,1,13,17.058.567.567,0,0,0,12.6,16a19.336,19.336,0,0,0-2.277,1.019A1.323,1.323,0,0,0,9.8,18.846l.47.814a17.251,17.251,0,0,0-3.007,2.4,16.975,16.975,0,0,0-5,11.559H1.324A1.324,1.324,0,0,0,0,35,19.385,19.385,0,0,0,8.956,50.494a1.309,1.309,0,0,0,.706.207,1.33,1.33,0,0,0,1.15-.663l.467-.808a17.085,17.085,0,0,0,8.068,2.015.567.567,0,1,0,0-1.134,15.951,15.951,0,0,1-7.5-1.864L14.12,44.31a11.455,11.455,0,0,0,10.4.03l2.273,3.938a15.739,15.739,0,0,1-4.875,1.63.567.567,0,0,0-.47.65.526.526,0,0,0,.559.477,16.74,16.74,0,0,0,5.352-1.774l.47.813a1.33,1.33,0,0,0,1.15.663,1.31,1.31,0,0,0,.7-.2A19.378,19.378,0,0,0,38.693,35a1.33,1.33,0,0,0-.367-.973ZM30.633,22.865A15.848,15.848,0,0,1,35.3,33.622H30.756a11.339,11.339,0,0,0-3.333-7.547,11.5,11.5,0,0,0-1.892-1.528L27.8,20.609a16.1,16.1,0,0,1,2.829,2.256ZM21.616,38.177a4.709,4.709,0,0,1-2.269.589,4.553,4.553,0,0,1-3.33-1.42.567.567,0,0,0-.817.786,6.473,6.473,0,0,0,.783.685l-2.276,3.941a10.382,10.382,0,0,1-1.635-1.332,10.216,10.216,0,0,1-3-6.67h4.552a5.75,5.75,0,0,0,.14.81.567.567,0,0,0,1.1-.273,4.732,4.732,0,0,1-.137-1.107,4.614,4.614,0,1,1,6.883,3.992Zm-7.94-12.613,2.277,3.943a5.8,5.8,0,0,0-2.33,4.114H9.072a10.213,10.213,0,0,1,3-6.746A10.393,10.393,0,0,1,13.675,25.565Zm11.4,8.057a5.746,5.746,0,0,0-2.383-4.153l2.275-3.94a10.379,10.379,0,0,1,1.658,1.347,10.213,10.213,0,0,1,3,6.746h-4.55Zm-1.09-8.66L21.708,28.9a5.9,5.9,0,0,0-4.782.027l-2.273-3.936a10.321,10.321,0,0,1,9.328-.03Zm-15.921-2.1a16.119,16.119,0,0,1,2.773-2.221l2.274,3.938a11.521,11.521,0,0,0-1.837,1.493,11.339,11.339,0,0,0-3.333,7.547H3.4A15.848,15.848,0,0,1,8.061,22.865Zm1.77,26.607a.19.19,0,0,1-.12.09.186.186,0,0,1-.145-.024A18.251,18.251,0,0,1,1.134,34.954a.19.19,0,0,1,.19-.2H7.941a11.342,11.342,0,0,0,3.33,7.472,11.522,11.522,0,0,0,1.868,1.515Zm4.856-6.144,2.274-3.937a5.848,5.848,0,0,0,4.712.027l2.275,3.94a10.325,10.325,0,0,1-9.261-.03Zm14.385,6.246a.187.187,0,0,1-.145.023.19.19,0,0,1-.12-.09l-.747-1.293h0L25.5,43.778a11.742,11.742,0,0,0,3.323-3.245.567.567,0,1,0-.939-.635,10.41,10.41,0,0,1-2.952,2.9l-2.274-3.939a5.955,5.955,0,0,0,.754-.639,5.622,5.622,0,0,0,1.653-3.46h4.553a10.246,10.246,0,0,1-.587,2.887.567.567,0,1,0,1.067.384,11.376,11.376,0,0,0,.655-3.271H37.37a.191.191,0,0,1,.19.2,18.243,18.243,0,0,1-8.487,14.619Z" transform="translate(0)"/></g><g transform="translate(778.465 1486.465)"><path d="M365.946,369.184l-7.662-7.662a.458.458,0,0,1,0-.647l2.59-2.59a.458.458,0,0,1,.647,0l7.662,7.662a.458.458,0,0,1,0,.647l-2.59,2.59A.458.458,0,0,1,365.946,369.184Z" transform="translate(-330.819 -330.819)" fill="#3a8416"/><path d="M374.254,358.284l-1.619,1.619a.458.458,0,0,1,.647,0l7.662,7.662a.458.458,0,0,1,0,.647l1.619-1.619a.458.458,0,0,0,0-.647l-7.662-7.662A.458.458,0,0,0,374.254,358.284Z" transform="translate(-344.199 -330.819)" fill="#2f6d10"/><path d="M0,0H2.289V4.99H0Z" transform="translate(24.417 26.041) rotate(-45)" fill="#444a64"/><path d="M0,0H4.579V2.289H0Z" transform="translate(28.888 32.132) rotate(-45)" fill="#7be492"/><path d="M0,0H2.289V2.289H0Z" transform="translate(30.507 30.514) rotate(-45)" fill="#45d987"/><path d="M14.881,0A14.881,14.881,0,1,1,0,14.881,14.881,14.881,0,0,1,14.881,0Z" transform="translate(0.572 0.572)" fill="#444a64"/><path d="M188.645,7.5q-.578,0-1.145.043a14.881,14.881,0,0,1,0,29.674q.567.043,1.145.043a14.881,14.881,0,1,0,0-29.761Z" transform="translate(-173.192 -6.928)" fill="#444a64"/><circle cx="12.591" cy="12.591" r="12.591" transform="translate(2.862 2.862)" fill="#f3f3f3"/><path d="M188.645,37.5c-.386,0-.768.018-1.145.053a12.591,12.591,0,0,1,0,25.077c.377.034.759.053,1.145.053a12.591,12.591,0,1,0,0-25.182Z" transform="translate(-173.192 -34.638)" fill="#e4e4e4"/><g transform="translate(8.776 5.8)"><path d="M119.579,121.021H115v-6.715a.305.305,0,0,1,.305-.305h3.968a.305.305,0,0,1,.305.305Z" transform="translate(-115 -111.1)" fill="#fc8116"/><path d="M145,114v7.021h2.289v-6.715a.305.305,0,0,0-.305-.305Z" transform="translate(-142.711 -111.1)" fill="#fdab64"/><path d="M239.579,156.121H235v-3.816a.305.305,0,0,1,.305-.305h3.968a.305.305,0,0,1,.305.305Z" transform="translate(-225.843 -146.2)" fill="#fde07e"/><path d="M265,152v4.121h2.289v-3.816a.305.305,0,0,0-.305-.305Z" transform="translate(-253.553 -146.2)" fill="#fcd03e"/><path d="M179.579,85.92H175V76.305a.305.305,0,0,1,.305-.305h3.968a.305.305,0,0,1,.305.305Z" transform="translate(-170.421 -76)" fill="#3a8416"/><path d="M205,76v9.92h2.289V76.305a.305.305,0,0,0-.305-.305Z" transform="translate(-198.132 -76)" fill="#28650b"/></g><g transform="translate(0)"><path d="M38.769,34.722l-.557-.557a.572.572,0,1,0-.809.809l.476.476-2.428,2.428-4.128-4.128,2.428-2.428,1.926,1.926a.572.572,0,0,0,.809-.809L34.157,30.11h0L32.537,28.49h0L31.107,27.06a1.03,1.03,0,0,0-1.457,0l-.081.081-2.048-2.048a15.4,15.4,0,0,0,3.034-6.364h4.033a.572.572,0,0,0,0-1.145h-3.83q.076-.546.113-1.1h6.445a.572.572,0,0,0,0-1.145H30.9q0-.556-.046-1.1h3.73a.572.572,0,0,0,0-1.145h-3.86a15.266,15.266,0,0,0-3.152-7.218.572.572,0,0,0-.9.71,14.159,14.159,0,0,1,3.083,8.873A14.308,14.308,0,1,1,25.073,4.862a.572.572,0,1,0,.77-.847,15.453,15.453,0,1,0-13.31,26.613v3.861a.572.572,0,1,0,1.145,0V30.8q.546.063,1.1.087v6.29a.572.572,0,0,0,1.145,0V30.9q.557-.017,1.1-.072v3.663a.572.572,0,1,0,1.145,0V30.666a15.392,15.392,0,0,0,6.918-3.145l2.048,2.048-.081.081a1.03,1.03,0,0,0,0,1.457l1.429,1.429h0l1.619,1.619h0l4.612,4.612a1.03,1.03,0,0,0,1.457,0l2.59-2.59a1.03,1.03,0,0,0,0-1.457Zm-12-8.761,1.988,1.989-.809.809-1.989-1.988q.42-.39.81-.81Zm3.742,6.98-.809-.809L32.132,29.7l.809.809Zm-.135-4.991.944.944-2.428,2.428-.944-.944Z" transform="translate(0 0)"/><path d="M35.185,53.64a13.425,13.425,0,0,0,7.97,2.687,13.164,13.164,0,1,0,0-26.327,13.008,13.008,0,0,0-9.277,3.861,13.3,13.3,0,0,0-3.887,9.3A12.866,12.866,0,0,0,33.3,51.918a.572.572,0,1,0,.851-.765,11.723,11.723,0,0,1-3.018-7.983,12.16,12.16,0,0,1,3.553-8.5,11.871,11.871,0,0,1,8.466-3.524,12.019,12.019,0,0,1,.007,24.038,12.284,12.284,0,0,1-7.289-2.457.572.572,0,0,0-.688.915Z" transform="translate(-27.702 -27.711)"/><path d="M100.725,68.5H96.757a.879.879,0,0,0-.878.878V71.4h-3.7a.879.879,0,0,0-.878.878V78.42h-.766a.572.572,0,0,0,0,1.145h16.413a.572.572,0,0,0,0-1.145h-.766V75.177a.879.879,0,0,0-.878-.878h-3.7V69.378A.879.879,0,0,0,100.725,68.5Zm-8.28,4.044h3.434V78.42H92.445Zm4.579-2.9h3.434V78.42H97.024Zm8.013,5.8V78.42H101.6V75.444Z" transform="translate(-83.097 -63.273)"/><path d="M128.6,234.775H125.9l-1.224-3.129a.572.572,0,0,0-1.07.01l-1.673,4.511-1.169-3.314a.572.572,0,0,0-1.04-.089l-1.123,2.011h-2.687a.572.572,0,0,0,0,1.145h3.023a.572.572,0,0,0,.5-.293l.669-1.2,1.274,3.61a.572.572,0,0,0,.535.382h0a.572.572,0,0,0,.537-.373l1.7-4.585.819,2.094a.572.572,0,0,0,.533.364H128.6a.572.572,0,0,0,0-1.145Z" transform="translate(-106.542 -213.633)"/></g></g><g transform="translate(584.08 1348.309)"><path d="M149.331,211.313l8.145,21.483h.968l8.145-21.483Z" transform="translate(-137.191 -167.529)" fill="#b0c710"/><path d="M27.519,191.555a2.289,2.289,0,0,0,1.285.716l-8.145-21.483L9.274,167.2C9.325,167.587,8.095,165.766,27.519,191.555Z" transform="translate(-8.519 -127.004)" fill="#e4f476"/><path d="M13.3,168.471,9.274,167.2c.052.385-1.179-1.436,18.245,24.353a2.233,2.233,0,0,0,.913.613Z" transform="translate(-8.519 -127.004)" fill="#d2ed1b"/><g transform="translate(7.482 31.264)"><path d="M92.033,57.381l4.658,12.442,8.629-9.844L92.19,57.3A1.642,1.642,0,0,0,92.033,57.381Z" transform="translate(-92.033 -57.303)" fill="#e4f476"/><path d="M269.582,170.433l-8.145,21.483a2.288,2.288,0,0,0,1.285-.716c5.051-6.691,18.3-24.222,18.345-24.384Z" transform="translate(-247.666 -157.913)" fill="#e4f476"/><path d="M264.11,69.838,268.767,57.4a1.693,1.693,0,0,0-.163-.081l-13.123,2.674Z" transform="translate(-242.194 -57.318)" fill="#e4f476"/></g><path d="M149.331,100.061H166.59l-8.629-9.844Z" transform="translate(-137.191 -56.277)" fill="#b0c710"/><path d="M15.728,58.264c-.307.175-.355.278-.837.9C8.6,67.223,8.933,66.613,9,67.12l11.385,3.586Z" transform="translate(-8.247 -26.922)" fill="#b0c710"/><path d="M13.032,68.388l2.774-9.918-.078-.207c-.307.175-.355.278-.837.9C8.6,67.222,8.933,66.612,9,67.119l4.03,1.269Z" transform="translate(-8.247 -26.921)" fill="#b0c710"/><path d="M361.631,70.75l11.484-3.617a.414.414,0,0,0-.1-.373c-5.7-7.311-6.485-8.388-6.73-8.447Z" transform="translate(-332.233 -26.966)" fill="#b0c710"/><path d="M107.1,40.756l13.123-2.674a1.768,1.768,0,0,0-.5-.139h0L109.14,36.519c-3.327-.448-4.762.229-14.688,1.428a1.793,1.793,0,0,0-.484.133Z" transform="translate(-86.329 -6.816)" fill="#b0c710"/><path d="M34.212,30.622,22.934,29.1a19.533,19.533,0,0,0-5.76.2.6.6,0,0,0,.161,1.2,18.524,18.524,0,0,1,5.437-.2l7.745,1.043-9.706,1.978L11.1,31.345l3.355-.452a.6.6,0,1,0-.161-1.2l-6.888.928H7.4l-.027,0-.018,0-.015,0-.021.006-.032.009-.013,0-.006,0-.018.007-.032.015-.014.007-.015.008-.014.008c-.263.153-.134.164-7.047,8.966a.6.6,0,0,0-.063.644c.243.483-.4-.47,12.94,17.242a.6.6,0,1,0,.965-.728L2.25,41.29l9.471,2.983,7.293,19.236-3.337-4.423a.6.6,0,1,0-.965.728c3.495,4.631,3.855,5.111,3.879,5.139a2.873,2.873,0,0,0,1.636.911c.086.015,1.1.014,1.184,0a2.852,2.852,0,0,0,1.652-.946l11.8-15.644a.6.6,0,0,0-.965-.728L22.609,63.509,29.9,44.273l9.471-2.983-3.773,5a.6.6,0,0,0,.965.728c5.065-6.719,4.792-6.312,4.992-6.707a.6.6,0,0,0-.063-.645C34.29,30.429,34.6,30.66,34.212,30.622ZM28.106,43.18H13.516l7.3-8.322ZM1.555,39.8l5.736-7.356,3.889,10.388Zm6.873-7.77L19.67,34.325l-7.276,8.3Zm12.45,32.629h-.133L13.058,44.389H28.565Zm8.351-22.038-7.276-8.3,11.242-2.291Zm1.213.21,3.889-10.388L40.067,39.8Z" transform="translate(0 0)"/></g><g transform="translate(627.577 1155.049)"><g transform="translate(-42.183)"><g transform="translate(0 0.755)"><g transform="translate(0 0)"><path d="M34.184,92.352H.676a.578.578,0,1,1,0-1.155h32.93V64.622a.578.578,0,0,1,1.155,0V91.775A.578.578,0,0,1,34.184,92.352Z" transform="translate(-0.091 -61.156)" fill="#5a6470"/><path d="M48.1,240.044h6.933v12.71H48.1Z" transform="translate(-44.625 -224.446)" fill="#fcd03e"/><path d="M192.1,144.044h6.933v19.643H192.1Z" transform="translate(-178.226 -135.379)" fill="#fc8116"/><path d="M336.1,64.044h6.933v25.42H336.1Z" transform="translate(-311.827 -61.156)" fill="#3a8416"/><path d="M12.139,32.622l1.9,1.9L9.25,39.315,7.926,37.99a.578.578,0,0,0-.817,0L.176,44.923a.578.578,0,0,0,.8.831l.014-.014,6.524-6.524,1.325,1.325a.578.578,0,0,0,.817,0l5.2-5.2,1.9,1.9.578-5.2Z" transform="translate(0 -31.467)" fill="#fcd03e"/><g transform="translate(5.207 10.398)"><path d="M72.676,362.355a.578.578,0,0,1-.578-.578v-1.155a.578.578,0,0,1,1.155,0v1.155A.578.578,0,0,1,72.676,362.355Z" transform="translate(-72.098 -346.179)" fill="#fff"/><path d="M72.676,299.51a.578.578,0,0,1-.578-.578v-2.311a.578.578,0,1,1,1.155,0v2.311A.578.578,0,0,1,72.676,299.51Z" transform="translate(-72.098 -286.8)" fill="#fff"/><path d="M216.676,362.355a.578.578,0,0,1-.578-.578v-1.155a.578.578,0,0,1,1.155,0v1.155A.578.578,0,0,1,216.676,362.355Z" transform="translate(-205.699 -346.179)" fill="#fff"/><path d="M216.676,254.977a.578.578,0,0,1-.578-.578v-5.777a.578.578,0,1,1,1.155,0V254.4A.578.578,0,0,1,216.676,254.977Z" transform="translate(-205.699 -242.267)" fill="#fff"/><path d="M360.676,362.355a.578.578,0,0,1-.578-.578v-1.155a.578.578,0,0,1,1.155,0v1.155A.578.578,0,0,1,360.676,362.355Z" transform="translate(-339.3 -346.179)" fill="#fff"/><path d="M360.676,180.754a.578.578,0,0,1-.578-.578V168.622a.578.578,0,1,1,1.155,0v11.554A.578.578,0,0,1,360.676,180.754Z" transform="translate(-339.3 -168.044)" fill="#fff"/></g><path d="M34.184,64.044a.578.578,0,0,0-.578.578V91.2H.676a.578.578,0,1,0,0,1.155H34.184a.578.578,0,0,0,.578-.578V64.622A.578.578,0,0,0,34.184,64.044Z" transform="translate(-0.091 -61.156)"/><path d="M40.676,232.044a.578.578,0,0,0-.578.578v12.71a.578.578,0,0,0,.578.578h6.933a.578.578,0,0,0,.578-.578v-12.71a.578.578,0,0,0-.578-.578Zm6.355,12.71H41.253V233.2h5.777Z" transform="translate(-37.202 -217.024)"/><path d="M184.676,136.044a.578.578,0,0,0-.578.578v19.643a.578.578,0,0,0,.578.578h6.933a.578.578,0,0,0,.578-.578V136.622a.578.578,0,0,0-.578-.578Zm6.355,19.643h-5.777V137.2h5.777Z" transform="translate(-170.803 -127.957)"/><path d="M328.676,82.619h6.933a.578.578,0,0,0,.578-.578V56.622a.578.578,0,0,0-.578-.578h-6.933a.578.578,0,0,0-.578.578v25.42A.578.578,0,0,0,328.676,82.619Zm.578-25.42h5.777V81.464h-5.777Z" transform="translate(-304.404 -53.734)"/><path d="M.269,38.328a.578.578,0,0,0,.817,0L7.61,31.8l1.325,1.325a.578.578,0,0,0,.817,0l4.791-4.791,1.9,1.9a.578.578,0,0,0,.982-.347l.578-5.2a.578.578,0,0,0-.635-.635l-5.2.578a.578.578,0,0,0-.347.982l1.9,1.9L9.343,31.9,8.018,30.578a.578.578,0,0,0-.817,0L.269,37.511a.578.578,0,0,0,0,.817ZM16.777,25.286l-.365,3.287-2.922-2.922Z" transform="translate(-0.093 -24.055)"/><path d="M72.676,362.355a.578.578,0,0,0,.578-.578v-1.155a.578.578,0,0,0-1.155,0v1.155A.578.578,0,0,0,72.676,362.355Z" transform="translate(-66.891 -335.78)"/><path d="M72.676,299.51a.578.578,0,0,0,.578-.578v-2.311a.578.578,0,1,0-1.155,0v2.311A.578.578,0,0,0,72.676,299.51Z" transform="translate(-66.891 -276.402)"/><path d="M216.676,362.355a.578.578,0,0,0,.578-.578v-1.155a.578.578,0,0,0-1.155,0v1.155A.578.578,0,0,0,216.676,362.355Z" transform="translate(-200.492 -335.78)"/><path d="M216.676,254.977a.578.578,0,0,0,.578-.578v-5.777a.578.578,0,1,0-1.155,0V254.4A.578.578,0,0,0,216.676,254.977Z" transform="translate(-200.492 -231.869)"/><path d="M360.676,360.044a.578.578,0,0,0-.578.578v1.155a.578.578,0,1,0,1.155,0v-1.155A.578.578,0,0,0,360.676,360.044Z" transform="translate(-334.093 -335.78)"/><path d="M360.676,168.044a.578.578,0,0,0-.578.578v11.554a.578.578,0,1,0,1.155,0V168.622A.578.578,0,0,0,360.676,168.044Z" transform="translate(-334.093 -157.646)"/></g></g></g></g><g transform="translate(981.65 1162.036)"><path d="M19.408,0A19.408,19.408,0,1,1,0,19.408,19.408,19.408,0,0,1,19.408,0Z" transform="translate(-17.593 9.864) rotate(-45)" fill="#b0c710"/><path d="M15.751,0A15.751,15.751,0,1,1,0,15.751,15.751,15.751,0,0,1,15.751,0Z" transform="translate(-5.896 -5.886)" fill="#edf8a4"/><path d="M60.928,47.962,62.2,49.231,63.6,50.637l5.657-8.332Z" transform="translate(-52.106 -39.739)" fill="#b0c710"/><path d="M51.781,82.262H60v3.132H51.781Z" transform="translate(-46.037 -66.254)" fill="#cddefe"/><circle cx="1.939" cy="1.939" r="1.939" transform="translate(7.916 7.925)" fill="#cddefe"/><g transform="translate(-10.142 -10.133)"><path d="M24.554,5.734a18.762,18.762,0,0,1,12.777,5,.589.589,0,1,0,.8-.864A20,20,0,0,0,4.557,24.553a19.784,19.784,0,0,0,2.132,8.993.589.589,0,1,0,1.051-.53,18.622,18.622,0,0,1-2.006-8.463A18.841,18.841,0,0,1,24.554,5.734Z" transform="translate(-4.557 -4.556)" fill="#012d3a"/><path d="M17.062,98.5a.589.589,0,0,0,.451-.967c-.266-.317-.523-.645-.766-.976a.589.589,0,1,0-.95.7c.258.352.531.7.813,1.037A.588.588,0,0,0,17.062,98.5Z" transform="translate(-11.94 -65.448)" fill="#012d3a"/><path d="M37.829,57.631a18.817,18.817,0,0,1-12.295-4.57.589.589,0,1,0-.767.893A20,20,0,0,0,53.385,26.245a.589.589,0,0,0-.916.74A18.82,18.82,0,0,1,37.829,57.631Z" transform="translate(-17.832 -18.814)" fill="#012d3a"/><path d="M48.108,31.768A16.339,16.339,0,1,0,31.768,48.108,16.339,16.339,0,0,0,48.108,31.768Zm-25.2,8.86a.588.588,0,0,0-.833,0l-1.43,1.431a15.1,15.1,0,0,1-4.025-9.7h2.03a.589.589,0,1,0,0-1.177h-2.03a15.1,15.1,0,0,1,4.025-9.7l1.43,1.431a.589.589,0,0,0,.833-.833l-1.431-1.43a15.1,15.1,0,0,1,9.7-4.025v2.03a.589.589,0,0,0,1.177,0v-2.03a15.1,15.1,0,0,1,9.7,4.025l-1.431,1.43a.589.589,0,0,0,.833.833l1.43-1.431a15.1,15.1,0,0,1,4.025,9.7h-2.03a.589.589,0,1,0,0,1.177h2.03a15.1,15.1,0,0,1-4.025,9.7l-1.43-1.431a.589.589,0,1,0-.833.833l1.431,1.43a15.126,15.126,0,0,1-20.58,0l1.431-1.43a.588.588,0,0,0,0-.833Z" transform="translate(-11.772 -11.771)" fill="#012d3a"/><path d="M60.806,50.228a2.507,2.507,0,0,0,.336-.419l0,0L66.8,41.473a.589.589,0,0,0-.818-.818l-8.332,5.657-.006.005a2.527,2.527,0,1,0,3.158,3.91ZM64.1,43.361l-2.766,4.07a2.5,2.5,0,0,0-1.306-1.307Zm-6.036,4.125a1.346,1.346,0,1,1-.4.955A1.35,1.35,0,0,1,58.064,47.485Z" transform="translate(-39.022 -28.443)" fill="#012d3a"/><path d="M58.841,84.822a.589.589,0,0,0,.589-.589V81.1a.589.589,0,0,0-.589-.589H50.62a.589.589,0,0,0-.589.589v3.132a.589.589,0,0,0,.589.589Zm-7.632-3.132h7.044v1.955H51.208Z" transform="translate(-34.733 -54.96)" fill="#012d3a"/></g></g></g></g></svg>