<svg xmlns="http://www.w3.org/2000/svg" xmlns:xlink="http://www.w3.org/1999/xlink" width="153.494" height="126.858" viewBox="0 0 153.494 126.858"><defs><filter id="a" x="14.647" y="100.777" width="122.086" height="26.081" filterUnits="userSpaceOnUse"><feOffset dy="3" input="SourceAlpha"/><feGaussianBlur stdDeviation="3" result="b"/><feFlood flood-opacity="0.161"/><feComposite operator="in" in2="b"/><feComposite in="SourceGraphic"/></filter><filter id="c" x="17.98" y="5.519" width="115.421" height="115.421" filterUnits="userSpaceOnUse"><feOffset dy="3" input="SourceAlpha"/><feGaussianBlur stdDeviation="3" result="d"/><feFlood flood-opacity="0.161"/><feComposite operator="in" in2="d"/><feComposite in="SourceGraphic"/></filter><filter id="e" x="124.477" y="28.797" width="29.017" height="29.017" filterUnits="userSpaceOnUse"><feOffset dy="3" input="SourceAlpha"/><feGaussianBlur stdDeviation="3" result="f"/><feFlood flood-opacity="0.161"/><feComposite operator="in" in2="f"/><feComposite in="SourceGraphic"/></filter><filter id="g" x="0" y="71.52" width="26.268" height="26.268" filterUnits="userSpaceOnUse"><feOffset dy="3" input="SourceAlpha"/><feGaussianBlur stdDeviation="3" result="h"/><feFlood flood-opacity="0.161"/><feComposite operator="in" in2="h"/><feComposite in="SourceGraphic"/></filter><filter id="i" x="17.98" y="0" width="23.519" height="23.519" filterUnits="userSpaceOnUse"><feOffset dy="3" input="SourceAlpha"/><feGaussianBlur stdDeviation="3" result="j"/><feFlood flood-opacity="0.161"/><feComposite operator="in" in2="j"/><feComposite in="SourceGraphic"/></filter></defs><g transform="translate(-1189.924 -4630.102)"><g transform="matrix(1, 0, 0, 1, 1189.92, 4630.1)" filter="url(#a)"><path d="M52.043,0c28.743,0,52.043,1.809,52.043,4.04s-23.3,4.04-52.043,4.04S0,6.272,0,4.04,23.3,0,52.043,0Z" transform="translate(23.65 106.78)" fill="#c8e7b8"/></g><g transform="matrix(1, 0, 0, 1, 1189.92, 4630.1)" filter="url(#c)"><path d="M48.71,0A48.71,48.71,0,1,1,0,48.71,48.71,48.71,0,0,1,48.71,0Z" transform="translate(26.98 11.52)" fill="#e1f3d7"/></g><g transform="matrix(1, 0, 0, 1, 1189.92, 4630.1)" filter="url(#e)"><circle cx="3.895" cy="3.895" r="3.895" transform="translate(133.48 40.31) rotate(-45)" fill="#3a8416"/></g><g transform="matrix(1, 0, 0, 1, 1189.92, 4630.1)" filter="url(#g)"><circle cx="2.923" cy="2.923" r="2.923" transform="translate(9 81.65) rotate(-45)" fill="#3a8416"/></g><g transform="matrix(1, 0, 0, 1, 1189.92, 4630.1)" filter="url(#i)"><circle cx="1.951" cy="1.951" r="1.951" transform="translate(26.98 8.76) rotate(-45)" fill="#3a8416"/></g><g transform="translate(1213.571 4647.34)"><g transform="translate(2.033 2.032)"><g transform="translate(83.256 1.662)"><path d="M436.053,121.62v12.7a2.037,2.037,0,0,1-2.033,2.033h-12.7a2.037,2.037,0,0,1-2.033-2.033v-12.7a2.037,2.037,0,0,1,2.033-2.033h12.7A2.037,2.037,0,0,1,436.053,121.62Zm0-65.385v12.7a2.037,2.037,0,0,1-2.033,2.033h-12.7a2.037,2.037,0,0,1-2.033-2.033v-12.7a2.037,2.037,0,0,1,2.033-2.033h12.7A2.037,2.037,0,0,1,436.053,56.235Zm0,32.692v12.7a2.037,2.037,0,0,1-2.033,2.033h-12.7a2.037,2.037,0,0,1-2.033-2.033v-12.7a2.037,2.037,0,0,1,2.033-2.033h12.7A2.037,2.037,0,0,1,436.053,88.927Z" transform="translate(-419.289 -54.202)" fill="#92d2fe" fill-rule="evenodd"/></g><path d="M63.831,122.528c0,4.954-11.822,8.971-26.4,8.971S9.749,127.483,9.75,122.528V55c0-4.954,13.095-8.971,27.678-8.971s26.4,4.016,26.4,8.971Z" transform="translate(-9.749 -46.025)" fill="#ffd54f" fill-rule="evenodd"/><g transform="translate(0 8.971)"><path d="M37.427,116.007c14.574,0,26.39-4.011,26.4-8.962V90.153c0,4.954-11.822,8.971-26.4,8.971S9.749,95.107,9.749,90.153v16.908C9.793,112,22.868,116.007,37.427,116.007Z" transform="translate(-9.749 -90.153)" fill="#ffc107" fill-rule="evenodd"/><path d="M63.832,256.314c-.021,4.949-11.834,8.958-26.4,8.958-14.548,0-27.616-4-27.677-8.936v16.891c.075,4.935,13.137,8.928,27.677,8.928,14.567,0,26.379-4.008,26.4-8.955Z" transform="translate(-9.75 -222.535)" fill="#ffc107" fill-rule="evenodd"/></g></g><path d="M87.072,41.756h12.7v12.7h-12.7Zm0,32.693h12.7v12.7h-12.7Zm0,32.692h12.7v12.7h-12.7Zm-39.6,11.842A58.3,58.3,0,0,1,29.46,121.5a64.835,64.835,0,0,1-18.69-2.531c-5.5-1.752-6.954-3.649-6.954-4.406V103.446c5.507,3.432,15.787,5.239,25.644,5.239,9.52,0,19.12-1.717,24.371-5.046v10.925C53.831,115.689,51.867,117.49,47.477,118.982ZM10.77,42.626a64.8,64.8,0,0,1,18.69-2.532,58.3,58.3,0,0,1,18.017,2.519c4.39,1.491,6.354,3.294,6.354,4.419s-1.964,2.927-6.354,4.418A58.305,58.305,0,0,1,29.46,53.969a64.8,64.8,0,0,1-18.69-2.532c-5.5-1.752-6.954-3.648-6.954-4.406S5.269,44.378,10.77,42.626ZM29.46,91.8c-9.857,0-20.137-1.808-25.644-5.239V97.685c.007.762,1.465,2.653,6.954,4.4a64.759,64.759,0,0,0,18.69,2.533,58.325,58.325,0,0,0,18.017-2.52c4.388-1.49,6.353-3.292,6.354-4.418V86.755C48.581,90.086,38.981,91.8,29.46,91.8ZM3.816,63.916c0,.758,1.458,2.653,6.954,4.4a64.8,64.8,0,0,0,18.69,2.532,58.306,58.306,0,0,0,18.017-2.519c4.389-1.491,6.354-3.294,6.354-4.418V52.99c-5.25,3.33-14.85,5.045-24.371,5.045-9.857,0-20.137-1.807-25.644-5.238Zm25.644,11c9.52,0,19.12-1.717,24.371-5.045V80.8h0c0,1.125-1.966,2.926-6.354,4.417a58.273,58.273,0,0,1-18.017,2.52A64.833,64.833,0,0,1,10.77,85.2c-5.493-1.75-6.95-3.643-6.954-4.4V69.681C9.323,73.112,19.6,74.918,29.46,74.918ZM-.25,114.562c0,2.356,1.7,5.7,9.786,8.283a69.016,69.016,0,0,0,19.924,2.721,62.438,62.438,0,0,0,19.324-2.734c7.532-2.559,9.113-5.91,9.113-8.268V82.831h9.415v30.659a2.033,2.033,0,0,0,2.033,2.033H83.006v6.35a2.034,2.034,0,0,0,2.033,2.033H101.8a2.034,2.034,0,0,0,2.033-2.033V105.107a2.034,2.034,0,0,0-2.033-2.033H85.039a2.034,2.034,0,0,0-2.033,2.033v6.349H71.378V82.831H82.827c.061,0,.12,0,.179-.01v6.358a2.033,2.033,0,0,0,2.033,2.033H101.8a2.033,2.033,0,0,0,2.033-2.033V72.415a2.033,2.033,0,0,0-2.033-2.033H85.039a2.033,2.033,0,0,0-2.033,2.033v6.358c-.06,0-.118-.009-.179-.009H71.378V50.138H83.006v6.349a2.033,2.033,0,0,0,2.033,2.033H101.8a2.033,2.033,0,0,0,2.033-2.033V39.723A2.034,2.034,0,0,0,101.8,37.69H85.039a2.034,2.034,0,0,0-2.033,2.033v6.349H69.345a2.033,2.033,0,0,0-2.033,2.033v30.66H57.9V63.915h0V47.032c0-7.225-14.306-11-28.437-11-14.4,0-29.71,3.857-29.71,11Z" transform="translate(0.25 -36.028)" fill-rule="evenodd"/></g></g></svg>