<svg xmlns="http://www.w3.org/2000/svg" xmlns:xlink="http://www.w3.org/1999/xlink" width="141.574" height="126.857" viewBox="0 0 141.574 126.857"><defs><filter id="a" x="11.803" y="100.776" width="122.086" height="26.081" filterUnits="userSpaceOnUse"><feOffset dy="3" input="SourceAlpha"/><feGaussianBlur stdDeviation="3" result="b"/><feFlood flood-opacity="0.161"/><feComposite operator="in" in2="b"/><feComposite in="SourceGraphic"/></filter><filter id="c" x="15.136" y="5.518" width="115.421" height="115.421" filterUnits="userSpaceOnUse"><feOffset dy="3" input="SourceAlpha"/><feGaussianBlur stdDeviation="3" result="d"/><feFlood flood-opacity="0.161"/><feComposite operator="in" in2="d"/><feComposite in="SourceGraphic"/></filter><filter id="e" x="112.557" y="36.72" width="29.017" height="29.017" filterUnits="userSpaceOnUse"><feOffset dy="3" input="SourceAlpha"/><feGaussianBlur stdDeviation="3" result="f"/><feFlood flood-opacity="0.161"/><feComposite operator="in" in2="f"/><feComposite in="SourceGraphic"/></filter><filter id="g" x="0" y="65.519" width="26.268" height="26.268" filterUnits="userSpaceOnUse"><feOffset dy="3" input="SourceAlpha"/><feGaussianBlur stdDeviation="3" result="h"/><feFlood flood-opacity="0.161"/><feComposite operator="in" in2="h"/><feComposite in="SourceGraphic"/></filter><filter id="i" x="25.136" y="0" width="23.519" height="23.519" filterUnits="userSpaceOnUse"><feOffset dy="3" input="SourceAlpha"/><feGaussianBlur stdDeviation="3" result="j"/><feFlood flood-opacity="0.161"/><feComposite operator="in" in2="j"/><feComposite in="SourceGraphic"/></filter></defs><g transform="translate(-404.301 -2175.292)"><g transform="translate(-788.467 -2454.812)"><g transform="matrix(1, 0, 0, 1, 1192.77, 4630.1)" filter="url(#a)"><path d="M52.043,0c28.743,0,52.043,1.809,52.043,4.04s-23.3,4.04-52.043,4.04S0,6.272,0,4.04,23.3,0,52.043,0Z" transform="translate(20.8 106.78)" fill="#c8e7b8"/></g><g transform="matrix(1, 0, 0, 1, 1192.77, 4630.1)" filter="url(#c)"><path d="M48.71,0A48.71,48.71,0,1,1,0,48.71,48.71,48.71,0,0,1,48.71,0Z" transform="translate(24.14 11.52)" fill="#e1f3d7"/></g><g transform="matrix(1, 0, 0, 1, 1192.77, 4630.1)" filter="url(#e)"><circle cx="3.895" cy="3.895" r="3.895" transform="translate(121.56 48.23) rotate(-45)" fill="#3a8416"/></g><g transform="matrix(1, 0, 0, 1, 1192.77, 4630.1)" filter="url(#g)"><circle cx="2.923" cy="2.923" r="2.923" transform="translate(9 75.65) rotate(-45)" fill="#3a8416"/></g><g transform="matrix(1, 0, 0, 1, 1192.77, 4630.1)" filter="url(#i)"><circle cx="1.951" cy="1.951" r="1.951" transform="translate(34.14 8.76) rotate(-45)" fill="#3a8416"/></g><g transform="translate(1213.571 4615.01)"><path d="M73.634,170.772H62.961a.238.238,0,0,1-.238-.238V131.988a.238.238,0,0,1,.238-.238H73.634a.238.238,0,0,1,.238.238v38.545A.238.238,0,0,1,73.634,170.772Z" transform="translate(-50.059 -83.114)" fill="#fd963d"/><path d="M156.467,147.794H145.794a.238.238,0,0,1-.238-.238V103.2a.238.238,0,0,1,.238-.238h10.672a.238.238,0,0,1,.238.238v44.358A.238.238,0,0,1,156.467,147.794Z" transform="translate(-116.169 -60.136)" fill="#fcd03e"/><path d="M239.3,115.681H228.628a.238.238,0,0,1-.238-.238V62.961a.238.238,0,0,1,.238-.238H239.3a.238.238,0,0,1,.238.238v52.482A.238.238,0,0,1,239.3,115.681Z" transform="translate(-182.279 -28.023)" fill="#fc8116"/><path d="M322.134,136.775H311.461a.238.238,0,0,1-.238-.238V89.391a.238.238,0,0,1,.238-.238h10.672a.238.238,0,0,1,.238.238v47.146A.238.238,0,0,1,322.134,136.775Z" transform="translate(-248.388 -49.117)" fill="#8ac9fe"/><path d="M404.968,93.644H394.3a.238.238,0,0,1-.238-.238V35.349a.238.238,0,0,1,.238-.238h10.672a.238.238,0,0,1,.238.238V93.406A.238.238,0,0,1,404.968,93.644Z" transform="translate(-314.498 -5.986)" fill="#b7eb74"/><path d="M107.842,209.532a50.171,50.171,0,0,0-85.647-35.476A49.843,49.843,0,0,0,7.5,209.532v5.314a.261.261,0,0,0,.261.261h36.97a.259.259,0,0,1,.236.153,13.936,13.936,0,0,0,25.409,0,.259.259,0,0,1,.236-.153h36.97a.261.261,0,0,0,.261-.261Z" transform="translate(-5.986 -105.15)" fill="#685e68"/><path d="M35.111,231.569a44.6,44.6,0,1,1,89.193,0Z" transform="translate(-28.022 -127.187)" fill="#f9f7f8"/><path d="M95.487,201.2a44.691,44.691,0,0,1,19.035,25.426,9.628,9.628,0,0,1-9.264,12.26H35.291q-.179,2-.18,4.038H124.3A44.614,44.614,0,0,0,95.487,201.2Z" transform="translate(-28.022 -138.54)" fill="#dff6fd"/><path d="M251.113,318.368l-8.919-6.689,15.373-16.365a3.114,3.114,0,0,1,4.952,3.714Z" transform="translate(-193.296 -212.871)" fill="#fcd03e"/><circle cx="8.362" cy="8.362" r="8.362" transform="translate(43.324 96.02)" fill="#fcd03e"/><path d="M100.5,87.317a1.514,1.514,0,0,0-2.86,1,48.671,48.671,0,0,1,2.7,16.067v4.06H64.626a1.777,1.777,0,0,0-1.615,1.043,12.422,12.422,0,0,1-22.65,0,1.777,1.777,0,0,0-1.615-1.043H3.029v-4.06A48.641,48.641,0,0,1,51.492,55.695c2.96,0,29.991.372,43.446,26.345a1.514,1.514,0,1,0,2.689-1.393,51.465,51.465,0,0,0-5.4-8.342V29.364a1.755,1.755,0,0,0-1.753-1.753H79.8a1.755,1.755,0,0,0-1.753,1.753V59.9Q76.79,59.152,75.5,58.48V40.274a1.755,1.755,0,0,0-1.753-1.752H63.073a1.754,1.754,0,0,0-1.752,1.752V53.587q-1.265-.237-2.546-.412V34.938a1.755,1.755,0,0,0-1.753-1.752H46.349A1.754,1.754,0,0,0,44.6,34.938V53.175q-1.281.175-2.546.412V43.061A1.755,1.755,0,0,0,40.3,41.309H29.626a1.754,1.754,0,0,0-1.752,1.752V58.48q-1.291.672-2.546,1.418V48.874a1.754,1.754,0,0,0-1.752-1.752H12.9a1.755,1.755,0,0,0-1.753,1.752V58.883a1.514,1.514,0,1,0,3.028,0V50.15H22.3v11.7a52.388,52.388,0,0,0-8.121,6.974V65.95a1.514,1.514,0,1,0-3.028,0v6.356A51.293,51.293,0,0,0,0,104.382V109.7a1.777,1.777,0,0,0,1.775,1.775H37.959a15.448,15.448,0,0,0,27.454,0H101.6a1.777,1.777,0,0,0,1.775-1.775v-5.314A51.7,51.7,0,0,0,100.5,87.317ZM81.073,30.639h8.121V68.821a52.383,52.383,0,0,0-8.121-6.974ZM64.349,41.55H72.47V57.029a51.068,51.068,0,0,0-8.121-2.779ZM47.625,36.214h8.121V52.853a52.866,52.866,0,0,0-8.121,0ZM30.9,44.337h8.121V54.25A51.069,51.069,0,0,0,30.9,57.029Z" transform="translate(0 0)"/><path d="M155.613,305.1a1.514,1.514,0,1,0,2.912.831,18.079,18.079,0,0,1,13.862-12.714l-1.238,1.529a1.514,1.514,0,1,0,2.353,1.906l3.5-4.322a1.542,1.542,0,0,0,.16-.236,1.514,1.514,0,0,0-.343-1.876c-.049-.042-.2-.16-4.365-3.535a1.514,1.514,0,1,0-1.906,2.353L172,290.211A21.123,21.123,0,0,0,155.613,305.1Z" transform="translate(-124.149 -206.498)"/><path d="M251.528,214.172V208.6a1.514,1.514,0,0,0-3.028,0v5.575a1.514,1.514,0,0,0,3.028,0Z" transform="translate(-198.329 -143.237)"/><path d="M201.1,219.337a1.515,1.515,0,0,0,1.071-1.855l-.721-2.692a1.514,1.514,0,1,0-2.925.784l.721,2.692A1.515,1.515,0,0,0,201.1,219.337Z" transform="translate(-158.403 -148.493)"/><path d="M116.388,268.249a1.514,1.514,0,0,0,0-2.141l-1.971-1.971a1.514,1.514,0,1,0-2.141,2.141l1.971,1.971A1.514,1.514,0,0,0,116.388,268.249Z" transform="translate(-89.254 -188.418)"/><path d="M63.713,350.389a1.514,1.514,0,0,0-.784,2.925l2.692.721a1.514,1.514,0,1,0,.784-2.925Z" transform="translate(-49.328 -257.569)"/><path d="M154.686,233.734a1.514,1.514,0,1,0-2.623,1.514l2.787,4.828a1.514,1.514,0,1,0,2.623-1.514Z" transform="translate(-121.2 -163.903)"/><path d="M88.768,308.779a1.514,1.514,0,0,0-.554-2.068l-4.828-2.787a1.514,1.514,0,1,0-1.514,2.623l4.828,2.787A1.514,1.514,0,0,0,88.768,308.779Z" transform="translate(-64.738 -220.364)"/><path d="M297.926,218.266l.721-2.692a1.514,1.514,0,0,0-2.925-.784L295,217.482a1.514,1.514,0,0,0,2.925.784Z" transform="translate(-235.4 -148.493)"/><path d="M377.821,264.137l-1.971,1.971a1.514,1.514,0,0,0,2.141,2.141l1.971-1.971a1.514,1.514,0,0,0-2.141-2.141Z" transform="translate(-299.613 -188.418)"/><path d="M421.908,352.964a1.514,1.514,0,0,0,1.855,1.071l2.692-.721a1.514,1.514,0,1,0-.784-2.925l-2.692.721A1.514,1.514,0,0,0,421.908,352.964Z" transform="translate(-336.685 -257.569)"/><path d="M334.159,240.076l2.787-4.828a1.514,1.514,0,0,0-2.623-1.514l-2.787,4.828a1.514,1.514,0,1,0,2.623,1.514Z" transform="translate(-264.438 -163.903)"/><path d="M397.556,303.923l-4.828,2.787a1.514,1.514,0,0,0,1.514,2.623l4.828-2.787a1.514,1.514,0,1,0-1.514-2.623Z" transform="translate(-312.834 -220.364)"/><path d="M51.1,225.583a1.514,1.514,0,0,0,1.514,1.514H63.962a9.877,9.877,0,0,0,19.52,0h34.836a1.514,1.514,0,0,0,1.514-1.514,46.111,46.111,0,0,0-92.222,0,1.514,1.514,0,0,0,1.514,1.514H45.55a1.514,1.514,0,1,0,0-3.028H30.666a43.083,43.083,0,0,1,86.112,0h-33.3q-.032-.21-.074-.417l9.156-15.525a4.628,4.628,0,0,0-7.36-5.52L72.863,215.744a9.9,9.9,0,0,0-8.9,8.325H52.617a1.514,1.514,0,0,0-1.514,1.514Zm36.308-20.9a1.6,1.6,0,0,1,2.544,1.908l-7.994,13.555a9.92,9.92,0,0,0-5.322-4ZM73.649,218.736a6.848,6.848,0,1,1-6.775,6.847A6.855,6.855,0,0,1,73.649,218.736Z" transform="translate(-22.036 -121.201)"/></g></g></g></svg>