<svg xmlns="http://www.w3.org/2000/svg" xmlns:xlink="http://www.w3.org/1999/xlink" width="141.371" height="126.858" viewBox="0 0 141.371 126.858"><defs><filter id="a" x="8.268" y="100.777" width="122.086" height="26.081" filterUnits="userSpaceOnUse"><feOffset dy="3" input="SourceAlpha"/><feGaussianBlur stdDeviation="3" result="b"/><feFlood flood-opacity="0.161"/><feComposite operator="in" in2="b"/><feComposite in="SourceGraphic"/></filter><filter id="c" x="11.6" y="5.519" width="115.421" height="115.421" filterUnits="userSpaceOnUse"><feOffset dy="3" input="SourceAlpha"/><feGaussianBlur stdDeviation="3" result="d"/><feFlood flood-opacity="0.161"/><feComposite operator="in" in2="d"/><feComposite in="SourceGraphic"/></filter><filter id="e" x="112.354" y="43.212" width="29.017" height="29.017" filterUnits="userSpaceOnUse"><feOffset dy="3" input="SourceAlpha"/><feGaussianBlur stdDeviation="3" result="f"/><feFlood flood-opacity="0.161"/><feComposite operator="in" in2="f"/><feComposite in="SourceGraphic"/></filter><filter id="g" x="0" y="65.52" width="26.268" height="26.268" filterUnits="userSpaceOnUse"><feOffset dy="3" input="SourceAlpha"/><feGaussianBlur stdDeviation="3" result="h"/><feFlood flood-opacity="0.161"/><feComposite operator="in" in2="h"/><feComposite in="SourceGraphic"/></filter><filter id="i" x="11.6" y="0" width="23.519" height="23.519" filterUnits="userSpaceOnUse"><feOffset dy="3" input="SourceAlpha"/><feGaussianBlur stdDeviation="3" result="j"/><feFlood flood-opacity="0.161"/><feComposite operator="in" in2="j"/><feComposite in="SourceGraphic"/></filter></defs><g transform="translate(-1037.47 -2369.825)"><g transform="translate(-158.833 -2260.277)"><g transform="matrix(1, 0, 0, 1, 1196.3, 4630.1)" filter="url(#a)"><path d="M52.043,0c28.743,0,52.043,1.809,52.043,4.04s-23.3,4.04-52.043,4.04S0,6.272,0,4.04,23.3,0,52.043,0Z" transform="translate(17.27 106.78)" fill="#c8e7b8"/></g><g transform="matrix(1, 0, 0, 1, 1196.3, 4630.1)" filter="url(#c)"><path d="M48.71,0A48.71,48.71,0,1,1,0,48.71,48.71,48.71,0,0,1,48.71,0Z" transform="translate(20.6 11.52)" fill="#e1f3d7"/></g><g transform="matrix(1, 0, 0, 1, 1196.3, 4630.1)" filter="url(#e)"><circle cx="3.895" cy="3.895" r="3.895" transform="translate(121.35 54.72) rotate(-45)" fill="#3a8416"/></g><g transform="matrix(1, 0, 0, 1, 1196.3, 4630.1)" filter="url(#g)"><circle cx="2.923" cy="2.923" r="2.923" transform="translate(9 75.65) rotate(-45)" fill="#3a8416"/></g><g transform="matrix(1, 0, 0, 1, 1196.3, 4630.1)" filter="url(#i)"><circle cx="1.951" cy="1.951" r="1.951" transform="translate(20.6 8.76) rotate(-45)" fill="#3a8416"/></g><g transform="translate(1219.03 4640.971)"><g transform="translate(1.396 4.438)"><path d="M204.885,174.229h-18.68a4.023,4.023,0,0,0-4.023,4.023v22.566a4.023,4.023,0,0,0,4.023,4.023h18.68a4.023,4.023,0,0,0,4.023-4.023V178.252A4.023,4.023,0,0,0,204.885,174.229Z" transform="translate(-149.675 -143.767)" fill="#8ebac5"/><path d="M282.76,178.253v22.566a4.023,4.023,0,0,1-4.023,4.023h-5.817a4.022,4.022,0,0,0,4.023-4.023V178.253a4.022,4.022,0,0,0-4.023-4.023h5.817A4.023,4.023,0,0,1,282.76,178.253Z" transform="translate(-223.526 -143.768)" fill="#7ca1b1"/><path d="M377.529,10.548H356.011a3.372,3.372,0,0,0-3.371,3.371V26.078a3.372,3.372,0,0,0,3.371,3.371h.912a3.06,3.06,0,0,1,3.06,3.06v3.617a1.233,1.233,0,0,0,2.126.85l6.256-6.575a3.06,3.06,0,0,1,2.217-.951h6.947a3.372,3.372,0,0,0,3.371-3.371V13.919a3.372,3.372,0,0,0-3.371-3.371Z" transform="translate(-288.411 -10.547)" fill="#99e6fc"/><path d="M465.92,13.92V26.08a3.371,3.371,0,0,1-3.372,3.37H457.1a3.371,3.371,0,0,0,3.372-3.37V13.92a3.371,3.371,0,0,0-3.372-3.37h5.449A3.371,3.371,0,0,1,465.92,13.92Z" transform="translate(-373.431 -10.548)" fill="#62dbfb"/><path d="M380.9,383.5V399.04a2.694,2.694,0,0,1-2.693,2.695H355.329a2.7,2.7,0,0,1-2.695-2.695V383.5a2.695,2.695,0,0,1,2.695-2.693H378.2A2.694,2.694,0,0,1,380.9,383.5Z" transform="translate(-288.406 -311.899)" fill="#ffe177"/><path d="M468.427,383.493v15.545a2.694,2.694,0,0,1-2.693,2.695h-5.555a2.692,2.692,0,0,0,2.693-2.695V383.493a2.693,2.693,0,0,0-2.693-2.693h5.555a2.693,2.693,0,0,1,2.693,2.693Z" transform="translate(-375.938 -311.896)" fill="#ffd15b"/><path d="M384.125,381.438l-10.438,10.2a3.912,3.912,0,0,1-5.469,0l-10.439-10.2a2.691,2.691,0,0,1,1.738-.635h22.874A2.68,2.68,0,0,1,384.125,381.438Z" transform="translate(-292.593 -311.899)" fill="#ffc344"/><path d="M428.736,381.435,418.3,391.64a3.914,3.914,0,0,1-5.469,0l-.24-.234L423.524,380.8H427A2.688,2.688,0,0,1,428.736,381.435Z" transform="translate(-337.204 -311.896)" fill="#feb137"/><path d="M31.472,384.615a11.986,11.986,0,1,1-11.986-11.986,11.987,11.987,0,0,1,11.986,11.986Z" transform="translate(-7.5 -305.246)" fill="#6ed5a1"/><path d="M72.436,384.616a11.992,11.992,0,0,1-14.607,11.7,11.989,11.989,0,0,0,0-23.4,11.992,11.992,0,0,1,14.607,11.7Z" transform="translate(-48.463 -305.247)" fill="#46cc8d"/><path d="M19.486,372.629v11.986H7.5A11.987,11.987,0,0,1,19.486,372.629Z" transform="translate(-7.5 -305.246)" fill="#fcd03e"/><path d="M30.736,22.552V36.461a2.745,2.745,0,0,1-2.745,2.745H10.245A2.743,2.743,0,0,1,7.5,36.461V13.288a2.745,2.745,0,0,1,2.745-2.745h8.484a4.8,4.8,0,0,1,2,.437,4.746,4.746,0,0,1,1.413.976l7.183,7.186a4.818,4.818,0,0,1,1.413,3.411Z" transform="translate(-7.5 -10.542)" fill="#eaf6ff"/><path d="M55.242,22.549V36.459A2.744,2.744,0,0,1,52.5,39.2H46.873a2.742,2.742,0,0,0,2.743-2.743V22.549A4.807,4.807,0,0,0,48.2,19.139L41.02,11.954a4.724,4.724,0,0,0-1.412-.977,4.8,4.8,0,0,0-2-.437h5.626a4.8,4.8,0,0,1,2,.437,4.732,4.732,0,0,1,1.414.977l7.183,7.185a4.827,4.827,0,0,1,1.412,3.409Z" transform="translate(-32.006 -10.54)" fill="#c8effe"/><path d="M88.149,22.464H81.316a2.744,2.744,0,0,1-2.743-2.745V12.89a4.746,4.746,0,0,1,1.413.976l7.183,7.186a4.821,4.821,0,0,1,.98,1.413Z" transform="translate(-65.347 -12.453)" fill="#99e6fc"/><circle cx="3.318" cy="3.318" r="3.318" transform="translate(8.668 76.052)" fill="#eaf6ff"/></g><g transform="translate(0 3.043)"><path d="M237.868,248.98H231.93a1.4,1.4,0,0,0,0,2.791h5.938a1.4,1.4,0,1,0,0-2.791Z" transform="translate(-187.633 -203.212)"/><path d="M237.868,194.723H231.93a1.4,1.4,0,1,0,0,2.791h5.938a1.4,1.4,0,1,0,0-2.791Z" transform="translate(-187.633 -159.052)"/><path d="M231.93,306.028h5.938a1.4,1.4,0,1,0,0-2.791H231.93a1.4,1.4,0,1,0,0,2.791Z" transform="translate(-187.633 -247.372)"/><path d="M73.225,32.458a2.617,2.617,0,0,0,2.88-.629l6.255-6.575a1.671,1.671,0,0,1,1.206-.517h6.948a4.773,4.773,0,0,0,4.767-4.767V7.811a4.773,4.773,0,0,0-4.767-4.767H69a4.773,4.773,0,0,0-4.767,4.767v4.373H51.537a5.717,5.717,0,0,0-5.711,5.711V33.5h-7.9a5.425,5.425,0,0,0-5.419,5.419v9.9H17.329A2.923,2.923,0,0,1,14.409,45.9V34.5h7.477a4.145,4.145,0,0,0,4.14-4.141V26.035a1.4,1.4,0,1,0-2.791,0v4.321a1.351,1.351,0,0,1-1.349,1.349H4.141a1.351,1.351,0,0,1-1.349-1.349V7.183A1.351,1.351,0,0,1,4.141,5.834h9.086v5.871a4.144,4.144,0,0,0,4.138,4.14h5.813c.086.026.052,3.567.058,3.762a1.4,1.4,0,1,0,2.791,0v-3.16a6.41,6.41,0,0,0-1.821-4.4L17.022,4.865a6.386,6.386,0,0,0-4.4-1.822H4.141A4.145,4.145,0,0,0,0,7.183V30.357A4.145,4.145,0,0,0,4.141,34.5h7.477V45.9a5.717,5.717,0,0,0,5.711,5.711H32.508V61.49a5.425,5.425,0,0,0,5.419,5.419h7.9V79.493a2.923,2.923,0,0,1-2.919,2.919H26.691A13.382,13.382,0,0,0,0,83.807,13.252,13.252,0,0,0,2.838,92.05a1.4,1.4,0,1,0,2.2-1.72A10.463,10.463,0,0,1,2.882,85.2h6a4.714,4.714,0,1,0,5.9-5.9V73.312A10.591,10.591,0,1,1,9.568,93.693a1.4,1.4,0,1,0-1.006,2.6A13.389,13.389,0,0,0,26.691,85.2H42.907a5.717,5.717,0,0,0,5.711-5.711V66.909h7.988a5.425,5.425,0,0,0,5.419-5.419V51.613H75.44a2.923,2.923,0,0,1,2.919,2.919V71.947H68.319a4.188,4.188,0,0,0-4.09,4.088V91.58a4.1,4.1,0,0,0,4.09,4.09H91.192a4.094,4.094,0,0,0,4.088-4.09V76.035a4.153,4.153,0,0,0-4.088-4.088H81.151V54.532a5.717,5.717,0,0,0-5.711-5.711H62.025v-9.9A5.425,5.425,0,0,0,56.606,33.5a1.4,1.4,0,1,0,0,2.791,2.631,2.631,0,0,1,2.628,2.627v5H35.3v-5A2.631,2.631,0,0,1,37.927,36.3H50.236a1.4,1.4,0,1,0,0-2.791H48.618V17.895a2.923,2.923,0,0,1,2.919-2.919H64.229v4.994A4.773,4.773,0,0,0,69,24.736h.912A1.666,1.666,0,0,1,71.573,26.4v3.617a2.615,2.615,0,0,0,1.653,2.44ZM16.018,7.809l5.244,5.246h-3.9a1.35,1.35,0,0,1-1.347-1.349v-3.9ZM8.88,82.412H2.886a10.644,10.644,0,0,1,9.1-9.1v5.994A4.735,4.735,0,0,0,8.88,82.412Zm6.425,1.4a1.923,1.923,0,1,1-1.923-1.923A1.925,1.925,0,0,1,15.3,83.808Zm77.184-7.451V91.58a1.3,1.3,0,0,1-1.3,1.3H68.318a1.3,1.3,0,0,1-1.3-1.3V76.357l9.025,8.822a5.339,5.339,0,0,0,7.421,0Zm-2.337-1.619-8.639,8.445a2.531,2.531,0,0,1-3.518,0l-8.64-8.445ZM35.3,46.715H59.233V53.7H35.3ZM59.234,56.49v5a2.631,2.631,0,0,1-2.628,2.627H37.926A2.631,2.631,0,0,1,35.3,61.49v-5ZM69.909,21.945H69a1.978,1.978,0,0,1-1.976-1.976V7.811A1.978,1.978,0,0,1,69,5.835H90.514a1.978,1.978,0,0,1,1.976,1.976V19.969a1.978,1.978,0,0,1-1.976,1.976H83.566a4.475,4.475,0,0,0-3.228,1.384l-5.974,6.28V26.4A4.46,4.46,0,0,0,69.909,21.945Z" transform="translate(0 -3.043)"/><circle cx="1.396" cy="1.396" r="1.396" transform="translate(71.48 9.451)"/><circle cx="1.396" cy="1.396" r="1.396" transform="translate(78.359 9.451)"/><circle cx="1.396" cy="1.396" r="1.396" transform="translate(85.238 9.451)"/><path d="M49.364,90.644a1.4,1.4,0,0,0-1.4-1.4h-9.4a1.4,1.4,0,0,0,0,2.791h9.4A1.4,1.4,0,0,0,49.364,90.644Z" transform="translate(-30.254 -73.206)"/><path d="M38.568,116.841a1.4,1.4,0,1,0,0,2.791h6.309a1.4,1.4,0,1,0,0-2.791Z" transform="translate(-30.254 -95.664)"/></g></g></g></g></svg>