<svg xmlns="http://www.w3.org/2000/svg" xmlns:xlink="http://www.w3.org/1999/xlink" width="137.906" height="126.857" viewBox="0 0 137.906 126.857"><defs><filter id="a" x="6.803" y="100.776" width="122.086" height="26.081" filterUnits="userSpaceOnUse"><feOffset dy="3" input="SourceAlpha"/><feGaussianBlur stdDeviation="3" result="b"/><feFlood flood-opacity="0.161"/><feComposite operator="in" in2="b"/><feComposite in="SourceGraphic"/></filter><filter id="c" x="10.136" y="5.518" width="115.421" height="115.421" filterUnits="userSpaceOnUse"><feOffset dy="3" input="SourceAlpha"/><feGaussianBlur stdDeviation="3" result="d"/><feFlood flood-opacity="0.161"/><feComposite operator="in" in2="d"/><feComposite in="SourceGraphic"/></filter><filter id="e" x="108.889" y="48.72" width="29.017" height="29.017" filterUnits="userSpaceOnUse"><feOffset dy="3" input="SourceAlpha"/><feGaussianBlur stdDeviation="3" result="f"/><feFlood flood-opacity="0.161"/><feComposite operator="in" in2="f"/><feComposite in="SourceGraphic"/></filter><filter id="g" x="0" y="70.519" width="26.268" height="26.268" filterUnits="userSpaceOnUse"><feOffset dy="3" input="SourceAlpha"/><feGaussianBlur stdDeviation="3" result="h"/><feFlood flood-opacity="0.161"/><feComposite operator="in" in2="h"/><feComposite in="SourceGraphic"/></filter><filter id="i" x="20.136" y="0" width="23.519" height="23.519" filterUnits="userSpaceOnUse"><feOffset dy="3" input="SourceAlpha"/><feGaussianBlur stdDeviation="3" result="j"/><feFlood flood-opacity="0.161"/><feComposite operator="in" in2="j"/><feComposite in="SourceGraphic"/></filter></defs><g transform="translate(-409.301 -2543.853)"><g transform="translate(-788.467 -2086.25)"><g transform="matrix(1, 0, 0, 1, 1197.77, 4630.1)" filter="url(#a)"><path d="M52.043,0c28.743,0,52.043,1.809,52.043,4.04s-23.3,4.04-52.043,4.04S0,6.272,0,4.04,23.3,0,52.043,0Z" transform="translate(15.8 106.78)" fill="#ccebbb"/></g><g transform="matrix(1, 0, 0, 1, 1197.77, 4630.1)" filter="url(#c)"><path d="M48.71,0A48.71,48.71,0,1,1,0,48.71,48.71,48.71,0,0,1,48.71,0Z" transform="translate(19.14 11.52)" fill="#e1f3d7"/></g><g transform="matrix(1, 0, 0, 1, 1197.77, 4630.1)" filter="url(#e)"><circle cx="3.895" cy="3.895" r="3.895" transform="translate(117.89 60.23) rotate(-45)" fill="#3a8416"/></g><g transform="matrix(1, 0, 0, 1, 1197.77, 4630.1)" filter="url(#g)"><circle cx="2.923" cy="2.923" r="2.923" transform="translate(9 80.65) rotate(-45)" fill="#3a8416"/></g><g transform="matrix(1, 0, 0, 1, 1197.77, 4630.1)" filter="url(#i)"><circle cx="1.951" cy="1.951" r="1.951" transform="translate(29.14 8.76) rotate(-45)" fill="#3a8416"/></g><g transform="translate(1215.904 4641.37)"><path d="M43.912,24s0,.015-.015,0a17.551,17.551,0,0,1-7.089,2.767,25.4,25.4,0,0,1-.6,3.215l-2.243,5.593A23.784,23.784,0,0,1,28,42.679v38.15H78.847V24Z" transform="translate(13.378 11.396)" fill="#e6e9ed"/><circle cx="6.047" cy="6.047" r="6.047" transform="translate(74.145 74.138)" fill="#fcd770"/><path d="M46.955,50V61.964H32V50H46.955Z" transform="translate(15.36 24.279)" fill="#b4dd7f"/><path d="M70.888,28V39.964H32V33.608l-.015-.015A23.4,23.4,0,0,0,34.233,28H70.888Z" transform="translate(15.355 13.378)" fill="#fcd03e"/><path d="M41.763,37.667a17.584,17.584,0,0,1-2.826.224l-3.35.553L21.17,40.852a2.9,2.9,0,0,1-.359.03h-.7a2.115,2.115,0,0,1-1.5-3.6l6.236-6.236A17.879,17.879,0,0,1,20.991,19.93a17.578,17.578,0,0,1,2.139-8.375A17.924,17.924,0,1,1,48.867,34.9s0,.015-.015,0A17.551,17.551,0,0,1,41.763,37.667Z" transform="translate(8.423 0.496)" fill="#e6e9ed"/><path d="M16.5,46.121h5.982a2.953,2.953,0,0,1,1.5.417V39.719a24.2,24.2,0,0,1-8.973,0V46.54A2.939,2.939,0,0,1,16.5,46.121Z" transform="translate(6.937 19.185)" fill="#ccd1d9"/><path d="M25.964,46.991V64.937a5.982,5.982,0,0,1-11.964,0V46.991A3,3,0,0,1,16.991,44h5.982A3,3,0,0,1,25.964,46.991Z" transform="translate(6.441 21.306)" fill="#969faa"/><path d="M30.414,55.437a24.244,24.244,0,0,1-8.973,0A23.931,23.931,0,0,1,25.928,8a23.649,23.649,0,0,1,5.085.553l.045.03a17.475,17.475,0,0,0-1.929,5.7,18.867,18.867,0,0,0-3.2-.3,17.946,17.946,0,1,0,17.587,21.49l3.35-.553a17.585,17.585,0,0,0,2.826-.224,25.4,25.4,0,0,1-.6,3.215A23.4,23.4,0,0,1,46.85,43.5,23.852,23.852,0,0,1,30.414,55.437Z" transform="translate(0.495 3.468)" fill="#b7eb74"/><ellipse cx="3.168" cy="2.88" rx="3.168" ry="2.88" transform="translate(44.196 8.481)" fill="#b7eb74"/><path d="M27.116,35.9,41.533,33.49A17.943,17.943,0,1,1,23.946,12a18.868,18.868,0,0,1,3.2.3,17.629,17.629,0,0,0-.209,2.677A17.879,17.879,0,0,0,30.8,26.088l-6.236,6.236a2.115,2.115,0,0,0,1.5,3.6h.7A2.9,2.9,0,0,0,27.116,35.9Z" transform="translate(2.477 5.45)" fill="#69d6f4"/><path d="M33.486,13.973A4.486,4.486,0,1,0,29,9.486,4.492,4.492,0,0,0,33.486,13.973Zm0-5.982a1.5,1.5,0,1,1-1.5,1.5A1.5,1.5,0,0,1,33.486,7.991Z" transform="translate(13.874 1.982)"/><path d="M37.973,24.964H34.982V15.991h2.991V13H29v2.991h2.991v8.973H29v2.991h8.973Z" transform="translate(13.874 5.946)"/><path d="M61.36,33.9A19.4,19.4,0,1,0,30.8,10.393a25.476,25.476,0,0,0-4.374-.42,25.409,25.409,0,0,0-5.982,50.106v4.9a4.461,4.461,0,0,0-1.5,3.32V86.243a7.477,7.477,0,1,0,14.955,0V68.3a4.463,4.463,0,0,0-1.5-3.32V60.084a25.3,25.3,0,0,0,7.477-3.124V93.72H93.72V33.9ZM46.744,4a16.451,16.451,0,1,1,.616,32.89L29.239,39.883h-.7a.62.62,0,0,1-.438-1.057l7.171-7.169-.823-1.044a16.279,16.279,0,0,1-3.538-10.18A16.59,16.59,0,0,1,46.744,4Zm2.112,47.845V47.354a25.193,25.193,0,0,0,1.859-4.48H84.748v8.973ZM31.308,31.388l-5.322,5.321a3.611,3.611,0,0,0,2.553,6.164h.7a3.771,3.771,0,0,0,.594-.049l12.112-2.017A16.445,16.445,0,1,1,26.423,18.946a15.574,15.574,0,0,1,1.567.087c-.034.464-.072.926-.072,1.4A19.2,19.2,0,0,0,31.308,31.388ZM3.991,35.4A22.458,22.458,0,0,1,26.423,12.964a22.232,22.232,0,0,1,2.937.221,19.317,19.317,0,0,0-.915,2.894,18.637,18.637,0,0,0-2.022-.124,19.441,19.441,0,1,0,18.806,24.3l2.257-.375c.307,0,.606-.036.908-.052A22.422,22.422,0,0,1,3.991,35.4ZM30.91,86.243a4.486,4.486,0,1,1-8.973,0V68.3a1.5,1.5,0,0,1,1.5-1.5h5.982a1.5,1.5,0,0,1,1.5,1.5Zm-1.5-22.432H23.432V60.628a25.63,25.63,0,0,0,2.991.191,25.346,25.346,0,0,0,2.991-.2ZM90.729,90.729H42.874V54.758a25.513,25.513,0,0,0,2.991-3.012v3.091H65.306V63.81H53.342v8.973H45.865V87.738H63.811V72.783H56.333V66.8H78.766v6.133a7.477,7.477,0,1,0,2.991,0V63.81H68.3V54.837H87.738V39.883H51.413c.027-.148.048-.3.072-.446a19.307,19.307,0,0,0,6.187-2.545H90.729ZM60.82,75.774v8.973H48.856V75.774Zm19.441,0a4.486,4.486,0,1,1-4.486,4.486A4.492,4.492,0,0,1,80.261,75.774Z" transform="translate(0 0)"/><path d="M13,23h2.991v2.991H13Z" transform="translate(5.946 10.901)"/><path d="M9,23h2.991v2.991H9Z" transform="translate(3.964 10.901)"/><path d="M43.292,14H40.3a10.426,10.426,0,0,1-3.926,8.173l1.871,2.334A13.405,13.405,0,0,0,43.292,14Z" transform="translate(17.528 6.441)"/></g></g></g></svg>