<svg xmlns="http://www.w3.org/2000/svg" xmlns:xlink="http://www.w3.org/1999/xlink" width="141.371" height="121.339" viewBox="0 0 141.371 121.339"><defs><filter id="a" x="8.268" y="95.258" width="122.086" height="26.081" filterUnits="userSpaceOnUse"><feOffset dy="3" input="SourceAlpha"/><feGaussianBlur stdDeviation="3" result="b"/><feFlood flood-opacity="0.161"/><feComposite operator="in" in2="b"/><feComposite in="SourceGraphic"/></filter><filter id="c" x="11.6" y="0" width="115.421" height="115.421" filterUnits="userSpaceOnUse"><feOffset dy="3" input="SourceAlpha"/><feGaussianBlur stdDeviation="3" result="d"/><feFlood flood-opacity="0.161"/><feComposite operator="in" in2="d"/><feComposite in="SourceGraphic"/></filter><filter id="e" x="112.354" y="37.693" width="29.017" height="29.017" filterUnits="userSpaceOnUse"><feOffset dy="3" input="SourceAlpha"/><feGaussianBlur stdDeviation="3" result="f"/><feFlood flood-opacity="0.161"/><feComposite operator="in" in2="f"/><feComposite in="SourceGraphic"/></filter><filter id="g" x="0" y="71.981" width="26.268" height="26.268" filterUnits="userSpaceOnUse"><feOffset dy="3" input="SourceAlpha"/><feGaussianBlur stdDeviation="3" result="h"/><feFlood flood-opacity="0.161"/><feComposite operator="in" in2="h"/><feComposite in="SourceGraphic"/></filter><filter id="i" x="11.6" y="6.461" width="23.519" height="23.519" filterUnits="userSpaceOnUse"><feOffset dy="3" input="SourceAlpha"/><feGaussianBlur stdDeviation="3" result="j"/><feFlood flood-opacity="0.161"/><feComposite operator="in" in2="j"/><feComposite in="SourceGraphic"/></filter></defs><g transform="translate(-1037.47 -2742.721)"><g transform="translate(-158.833 -1880.92)"><g transform="matrix(1, 0, 0, 1, 1196.3, 4623.64)" filter="url(#a)"><path d="M52.043,0c28.743,0,52.043,1.809,52.043,4.04s-23.3,4.04-52.043,4.04S0,6.272,0,4.04,23.3,0,52.043,0Z" transform="translate(17.27 101.26)" fill="#c8e7b8"/></g><g transform="matrix(1, 0, 0, 1, 1196.3, 4623.64)" filter="url(#c)"><path d="M48.71,0A48.71,48.71,0,1,1,0,48.71,48.71,48.71,0,0,1,48.71,0Z" transform="translate(20.6 6)" fill="#e1f3d7"/></g><g transform="matrix(1, 0, 0, 1, 1196.3, 4623.64)" filter="url(#e)"><circle cx="3.895" cy="3.895" r="3.895" transform="translate(121.35 49.2) rotate(-45)" fill="#3a8416"/></g><g transform="matrix(1, 0, 0, 1, 1196.3, 4623.64)" filter="url(#g)"><circle cx="2.923" cy="2.923" r="2.923" transform="translate(9 82.11) rotate(-45)" fill="#3a8416"/></g><g transform="matrix(1, 0, 0, 1, 1196.3, 4623.64)" filter="url(#i)"><circle cx="1.951" cy="1.951" r="1.951" transform="translate(20.6 15.22) rotate(-45)" fill="#3a8416"/></g><g transform="translate(1215.743 4631.486)"><g transform="translate(2.621 22.071)"><g transform="translate(45.383)"><path d="M42.967,14v6.808a22.733,22.733,0,0,0-5.543,22.368H30V14Z" transform="translate(-30 -14)" fill="#b4dd7f"/></g><g transform="translate(25.933 6.483)"><path d="M26.1,37.45A6.451,6.451,0,0,0,20.5,40.692H18V18H30.967V39.654A6.457,6.457,0,0,0,26.1,37.45Z" transform="translate(-18 -18)" fill="#fcd03e"/></g><g transform="translate(6.483 12.967)"><path d="M6,22H18.967V38.208H6Z" transform="translate(-6 -22)" fill="#fc8116"/></g><g transform="translate(39.646 29.175)"><path d="M30.139,38.483l-.194.243-2.739-2.221A6.382,6.382,0,0,0,26.46,32H39.621a22.854,22.854,0,0,0,3.128,6.483Z" transform="translate(-26.46 -32)" fill="#ccd1d9"/></g><g transform="translate(0 29.175)"><path d="M29.554,35.242a6.43,6.43,0,0,0,.13,1.264l-2.739,2.221-.194-.243H3.621A1.626,1.626,0,0,1,2,36.863V33.621A1.626,1.626,0,0,1,3.621,32H30.429a6.466,6.466,0,0,0-.875,3.242Z" transform="translate(-2 -32)" fill="#ccd1d9"/></g><g transform="translate(36.128 33.681)"><path d="M28.553,34.78,31.292,37,48.878,51.345l3.161,2.577a3.232,3.232,0,1,1-4.571,4.571l-.421-.34v-.016L24.29,39.643a6.448,6.448,0,0,0,4.263-4.863Z" transform="translate(-24.29 -34.78)" fill="#ccd1d9"/></g><g transform="translate(3.242 33.681)"><path d="M28.442,34.78A6.448,6.448,0,0,0,32.7,39.643L9.948,58.136v.016l-.421.34a3.232,3.232,0,1,1-4.571-4.571l3.161-2.577L25.7,37Z" transform="translate(-4 -34.78)" fill="#ccd1d9"/></g><g transform="translate(27.554 25.933)"><path d="M31.091,33.242a6.5,6.5,0,1,1-.746-1.037A5.793,5.793,0,0,1,31.091,33.242Z" transform="translate(-19 -30)" fill="#fcd770"/></g><g transform="translate(43.13 35.658)"><path d="M41.415,36a22.793,22.793,0,0,0,7.067,6.564l-2.188,7.91-.1.113L28.61,36.243,28.8,36Z" transform="translate(-28.61 -36)" fill="#fcd03e"/></g><g transform="translate(9.19 38.543)"><path d="M34.608,37.78a6.308,6.308,0,0,1-4.182,0L7.67,56.274v.016l1.637,8.4A3.262,3.262,0,0,0,12.5,67.312H52.535a3.262,3.262,0,0,0,3.193-2.626l1.637-8.4v-.016Z" transform="translate(-7.67 -37.78)" fill="#ccd1d9"/></g><g transform="translate(3.242 35.658)"><path d="M25.7,36.243,8.117,50.588l-.1-.113L4,36H25.508Z" transform="translate(-4 -36)" fill="#fcd03e"/></g><g transform="translate(43.763 55.108)"><path d="M35.483,51.242v9.725H29V51.242A3.251,3.251,0,0,1,32.242,48a3.265,3.265,0,0,1,3.242,3.242Z" transform="translate(-29 -48)" fill="#fcd03e"/></g><g transform="translate(30.796 48.625)"><path d="M27.483,47.242V63.45H21V47.242A3.251,3.251,0,0,1,24.242,44a3.265,3.265,0,0,1,3.242,3.242Z" transform="translate(-21 -44)" fill="#fcd03e"/></g><g transform="translate(17.829 55.108)"><path d="M19.483,51.242v9.725H13V51.242A3.251,3.251,0,0,1,16.242,48a3.265,3.265,0,0,1,3.242,3.242Z" transform="translate(-13 -48)" fill="#fcd03e"/></g><g transform="translate(68.075 51.867)"><path d="M53.725,46a3.251,3.251,0,0,1,3.242,3.242V65.45A6.483,6.483,0,0,1,44,65.45V49.242A3.251,3.251,0,0,1,47.242,46h6.483Z" transform="translate(-44 -46)" fill="#969faa"/></g><g transform="translate(69.696 44.865)"><path d="M54.725,41.68v3.76a3.251,3.251,0,0,1-3.242,3.242H48.242A3.251,3.251,0,0,1,45,45.44V41.68a23.052,23.052,0,0,0,9.725,0Z" transform="translate(-45 -41.68)" fill="#ccd1d9"/></g><g transform="translate(51.867 0)"><path d="M61.554,58.865A22.719,22.719,0,0,1,34.94,43.175a22.694,22.694,0,1,1,26.614,15.69Z" transform="translate(-34 -14)" fill="#fcd770"/></g><g transform="translate(58.608 6.481)"><ellipse cx="16.047" cy="16.338" rx="16.047" ry="16.338" transform="translate(0 0)" fill="#69d6f4"/></g></g><g transform="translate(1 1)"><path d="M54.829,52.658A17.829,17.829,0,1,0,37,34.829,17.85,17.85,0,0,0,54.829,52.658Zm0-32.417A14.588,14.588,0,1,1,40.242,34.829,14.6,14.6,0,0,1,54.829,20.242Z" transform="translate(21.35 8.933)"/><path d="M83.663,60.721A24.293,24.293,0,1,0,62.592,17.908V13H46.383V42.175H43.142V19.483H26.933V42.175H23.692V25.967H7.483V42.175H4.242A3.245,3.245,0,0,0,1,45.417v3.242A3.245,3.245,0,0,0,4.242,51.9h.389L8.08,64.314,5.79,66.18l-.122.11a4.844,4.844,0,0,0,5,8.026l1.191,6.073a4.872,4.872,0,0,0,4.772,3.927H56.684a4.869,4.869,0,0,0,4.77-3.927l1.191-6.073a4.853,4.853,0,0,0,5.005-8.025l-2.415-1.969L66.658,59.2a24.1,24.1,0,0,0,4.036,1.524v2.525a4.809,4.809,0,0,0,.65,2.384,4.854,4.854,0,0,0-2.269,4.1V85.938a8.1,8.1,0,0,0,16.208,0V69.729a4.852,4.852,0,0,0-2.271-4.1,4.809,4.809,0,0,0,.65-2.384ZM98.25,37.313A21.071,21.071,0,1,1,77.179,16.242,21.1,21.1,0,0,1,98.25,37.313ZM44.707,47.589c.013-.185.055-.363.055-.551a8.1,8.1,0,0,0-.164-1.621h9.686a24.138,24.138,0,0,0,1.407,3.242H46.019ZM36.658,51.9a4.863,4.863,0,1,1,4.862-4.862A4.868,4.868,0,0,1,36.658,51.9ZM49.625,16.242H59.35v4.6a24.218,24.218,0,0,0-5.994,21.337H49.625Zm-19.45,6.483H39.9v16.9a8.011,8.011,0,0,0-9.683,2.554h-.042Zm-19.45,6.483H20.45V42.175H10.725ZM4.242,45.417H28.718a8.1,8.1,0,0,0-.164,1.621c0,.188.042.366.055.551L27.3,48.658H4.242ZM8,51.9H23.317l-12.5,10.179ZM7.958,70.875a1.618,1.618,0,0,1-.047-2.242l21.7-17.677a8.077,8.077,0,0,0,2.1,2.447L10.373,70.765l-.123.11a1.643,1.643,0,0,1-2.292,0Zm17.354,10.2H22.071v-8.1a1.621,1.621,0,1,1,3.242,0Zm12.967,0H35.038V66.488a1.621,1.621,0,1,1,3.242,0Zm12.967,0H48v-8.1a1.621,1.621,0,1,1,3.242,0Zm5.436,0H54.488v-8.1a4.863,4.863,0,1,0-9.725,0v8.1H41.521V66.488a4.863,4.863,0,1,0-9.725,0V81.075H28.554v-8.1a4.863,4.863,0,1,0-9.725,0v8.1H16.635a1.62,1.62,0,0,1-1.588-1.31l-1.459-7.436L34.94,54.949a7.749,7.749,0,0,0,3.436,0l21.354,17.38-1.459,7.438A1.623,1.623,0,0,1,56.682,81.075Zm9.151-11.346a1.594,1.594,0,0,1-.475,1.146,1.643,1.643,0,0,1-2.292,0L41.612,53.4a8.116,8.116,0,0,0,2.1-2.447l21.7,17.677A1.584,1.584,0,0,1,65.833,69.729Zm-3.342-7.644L50,51.9h7.78a24.478,24.478,0,0,0,5.973,5.66Zm14.688-.46a24.3,24.3,0,0,0,3.242-.242v1.862A1.622,1.622,0,0,1,78.8,64.867H75.558a1.622,1.622,0,0,1-1.621-1.621V61.384A24.3,24.3,0,0,0,77.179,61.625Zm4.862,24.313a4.863,4.863,0,0,1-9.725,0V69.729a1.622,1.622,0,0,1,1.621-1.621h6.483a1.622,1.622,0,0,1,1.621,1.621Z" transform="translate(-1 6.45)"/><path d="M23.268,14.638l9.725,9.725L50.822,6.534v7.433h3.242V1H41.1V4.242H48.53L32.993,19.779l-9.725-9.725L4.293,29.029l2.292,2.292Z" transform="translate(1.044 -1)"/><path d="M53,27h3.242v3.242H53Z" transform="translate(31.283 15.142)"/><path d="M41,27h3.242v3.242H41Z" transform="translate(23.833 15.142)"/><path d="M45,27h3.242v3.242H45Z" transform="translate(26.317 15.142)"/><path d="M49,27h3.242v3.242H49Z" transform="translate(28.8 15.142)"/></g></g></g></g></svg>