<svg xmlns="http://www.w3.org/2000/svg" xmlns:xlink="http://www.w3.org/1999/xlink" width="305" height="305" viewBox="0 0 305 305">
  <defs>
    <clipPath id="clip-path">
      <rect id="Rectángulo_298930" data-name="Rectángulo 298930" width="26.623" height="5.519" fill="none"/>
    </clipPath>
    <clipPath id="clip-path-2">
      <rect id="Rectángulo_298931" data-name="Rectángulo 298931" width="25.332" height="2.661" fill="none"/>
    </clipPath>
    <clipPath id="clip-path-3">
      <rect id="Rectángulo_298932" data-name="Rectángulo 298932" width="30.557" height="14.66" fill="none"/>
    </clipPath>
    <clipPath id="clip-path-4">
      <rect id="Rectángulo_298933" data-name="Rectángulo 298933" width="6.186" height="6.186" fill="none"/>
    </clipPath>
  </defs>
  <g id="Grupo_881211" data-name="Grupo 881211" transform="translate(-1068 -3607)">
    <g id="Grupo_879660" data-name="Grupo 879660" transform="translate(420 322)">
      <rect id="Rectángulo_298822" data-name="Rectángulo 298822" width="305" height="305" transform="translate(648 3285)" fill="none"/>
      <g id="Grupo_879670" data-name="Grupo 879670" transform="translate(-236.699 3265.006)">
        <g id="Group_878542" data-name="Group 878542" transform="translate(899.069 76.67)">
          <path id="Path_601710" data-name="Path 601710" d="M900.609,207.142s-2.446.99.376,6.189a68.455,68.455,0,0,0,4.749,7.751s.509,1.209-.516,1.426-3.3-.086-3.723,1.185c-.441,1.318.539,2.521,2.489,3.553s6.14,3.444,6.517,3.667.752.775.079,1.031-5.753.923-5.295,3.314,6.364,4.369,7.006,4.6.8.494.757.843-1.772.413-3.209.66-3.06.787-2.679,2.145,3.919,4.139,12.354,4.746l3.927.025,2.049-3.369c3.946-7.48,3.458-11.954,2.506-12.995s-2.267.052-3.238,1.139-1.938,2.521-2.256,2.373-.458-.424-.316-1.09,1.59-6.723-.2-8.376-5.042,2.306-5.615,2.74-.849-.185-.835-.613.18-5.272.337-7.47-.344-3.667-1.7-3.992c-1.3-.311-2.25,1.779-2.98,2.534s-1.483-.316-1.483-.316a68.409,68.409,0,0,0-4.066-8.129c-2.915-5.141-5.1-3.539-5.1-3.539" transform="translate(-898.988 -57.648)" fill="#f2d3b0"/>
          <path id="Path_601711" data-name="Path 601711" d="M923.223,248.57c-2.126-3.782-5.792-10.573-8.97-16.388s-6.057-11.068-8.164-14.863l-2.5-4.491-.678-1.222-.174-.32a1.057,1.057,0,0,1-.055-.115s.024.034.066.1l.185.313.7,1.21c.606,1.052,1.471,2.581,2.534,4.469,2.127,3.782,5.02,9.035,8.2,14.846s6.831,12.606,8.939,16.4" transform="translate(-898.541 -57.03)" fill="#2e353a"/>
          <path id="Path_601712" data-name="Path 601712" d="M904.018,222.033a1.274,1.274,0,0,1,.275.069c.175.052.426.133.736.237.618.209,1.465.519,2.393.878l2.372.928.72.276a1.23,1.23,0,0,1,.261.115,1.35,1.35,0,0,1-.276-.068c-.175-.052-.426-.133-.735-.241-.617-.215-1.458-.536-2.386-.9l-2.378-.91-.722-.273a1.348,1.348,0,0,1-.26-.115" transform="translate(-898.346 -55.444)" fill="#2e353a"/>
          <path id="Path_601713" data-name="Path 601713" d="M910.142,224.994c-.032-.01.531-1.784,1.261-3.961s1.341-3.932,1.375-3.922-.531,1.784-1.261,3.961-1.34,3.932-1.375,3.922" transform="translate(-897.452 -56.163)" fill="#2e353a"/>
          <path id="Path_601714" data-name="Path 601714" d="M914.048,232.757a1.33,1.33,0,0,1,.154-.246l.449-.649c.377-.548.9-1.306,1.437-2.164s1.009-1.649,1.341-2.226l.394-.688a.146.146,0,1,1,.042.023c-.081.167-.2.408-.361.7-.313.588-.768,1.39-1.312,2.25s-1.074,1.614-1.47,2.149c-.2.267-.363.481-.48.626a1.386,1.386,0,0,1-.191.218" transform="translate(-896.882 -54.786)" fill="#2e353a"/>
          <path id="Path_601715" data-name="Path 601715" d="M908.119,231.419a1.049,1.049,0,0,1,.268,0l.728.041c.614.038,1.461.1,2.4.174s1.782.149,2.394.21l.724.077a1.154,1.154,0,0,1,.265.045,1.166,1.166,0,0,1-.268,0l-.728-.039c-.614-.038-1.461-.1-2.4-.174s-1.782-.149-2.394-.21l-.724-.078a1.153,1.153,0,0,1-.265-.045" transform="translate(-897.748 -54.075)" fill="#2e353a"/>
          <path id="Path_601716" data-name="Path 601716" d="M910.673,238.9a1.726,1.726,0,0,1,.344,0l.933.046c.788.045,1.874.115,3.074.2s2.292.168,3.073.229l.929.085a1.751,1.751,0,0,1,.344.048,1.913,1.913,0,0,1-.344,0l-.932-.046c-.787-.045-1.874-.115-3.075-.2s-2.285-.167-3.071-.229l-.93-.085a1.925,1.925,0,0,1-.344-.048" transform="translate(-897.375 -52.982)" fill="#2e353a"/>
          <path id="Path_601717" data-name="Path 601717" d="M918.079,240.392a1.994,1.994,0,0,1,.186-.316l.539-.842c.458-.712,1.077-1.7,1.735-2.8s1.231-2.124,1.638-2.865l.484-.876a2,2,0,0,1,.19-.314,2.261,2.261,0,0,1-.148.337c-.1.213-.254.519-.449.894-.39.749-.949,1.775-1.6,2.883s-1.3,2.088-1.768,2.788c-.237.35-.433.63-.573.822a2.428,2.428,0,0,1-.229.29" transform="translate(-896.293 -53.934)" fill="#2e353a"/>
          <path id="Path_601718" data-name="Path 601718" d="M950.613,114.744H918.155a2.772,2.772,0,0,1-2.772-2.772V82.919a2.772,2.772,0,0,1,2.772-2.772h32.458a2.772,2.772,0,0,1,2.772,2.772v29.052a2.772,2.772,0,0,1-2.772,2.772" transform="translate(-896.687 -76.162)" fill="#fff"/>
          <path id="Path_601719" data-name="Path 601719" d="M953.385,86.034h-38V83a2.849,2.849,0,0,1,2.849-2.849h32.529a2.624,2.624,0,0,1,2.624,2.624h0Z" transform="translate(-896.687 -76.162)" fill="#e9e9e9"/>
          <path id="Path_601720" data-name="Path 601720" d="M920.394,83.33a.933.933,0,1,1-.988-.876h.056a.906.906,0,0,1,.932.877" transform="translate(-896.227 -75.826)" fill="#fff"/>
          <path id="Path_601721" data-name="Path 601721" d="M922.61,83.33a.933.933,0,1,1-.988-.876h.056a.906.906,0,0,1,.932.877" transform="translate(-895.904 -75.826)" fill="#fff"/>
          <path id="Path_601722" data-name="Path 601722" d="M924.823,83.33a.933.933,0,1,1-.988-.876h.056a.906.906,0,0,1,.932.877" transform="translate(-895.58 -75.826)" fill="#fff"/>
          <path id="Path_601723" data-name="Path 601723" d="M950.628,114.759c0-.008.124-.007.36-.039a2.681,2.681,0,0,0,.992-.344,2.745,2.745,0,0,0,1.375-2.3c.007-.391,0-.813,0-1.261-.009-3.561-.023-8.7-.039-15.048,0-3.177-.009-6.656-.015-10.391V83.965a14.162,14.162,0,0,0-.033-1.42,2.67,2.67,0,0,0-2.384-2.267c-.236-.017-.493-.011-.744-.013h-4.635l-27.328.009a2.661,2.661,0,0,0-2.557,1.948,2.832,2.832,0,0,0-.1.855V92.72c0,4.571,0,8.981-.007,13.179v6.136a2.676,2.676,0,0,0,1.414,2.292,2.746,2.746,0,0,0,1.335.312h1.413l10.392.015,15.047.039,4.091.023,1.063.011c.24,0,.362.013.362.013s-.123.008-.362.013l-1.063.011-4.091.023-15.056.057-10.392.015h-1.412a2.948,2.948,0,0,1-1.433-.333,2.888,2.888,0,0,1-1.531-2.475q0-2.988-.008-6.14c0-4.2,0-8.611-.007-13.179V83.088a3.127,3.127,0,0,1,.105-.917,2.9,2.9,0,0,1,2.793-2.128l27.328.009h4.635c.253,0,.5,0,.764.015a2.885,2.885,0,0,1,2.571,2.452q.051.724.031,1.45v1.413c0,3.735-.01,7.22-.015,10.391-.016,6.349-.03,11.488-.039,15.048,0,.445,0,.862-.01,1.261a2.8,2.8,0,0,1-1.434,2.339,2.617,2.617,0,0,1-1.013.325,2.4,2.4,0,0,1-.363.014" transform="translate(-896.702 -76.177)" fill="#e9e9e9"/>
          <path id="Path_601724" data-name="Path 601724" d="M948.079,110.625H919.894a2.091,2.091,0,0,1-2.091-2.091h0V89.691a2.091,2.091,0,0,1,2.091-2.091h28.184a2.091,2.091,0,0,1,2.092,2.091v18.842a2.091,2.091,0,0,1-2.092,2.091" transform="translate(-896.333 -75.074)" fill="#f4f4f4"/>
          <path id="Path_601725" data-name="Path 601725" d="M920.194,107.915l7.9-11.245a.893.893,0,0,1,1.245-.219.853.853,0,0,1,.185.173l5.429,6.733a.9.9,0,0,0,1.258.134c.021-.016.04-.033.058-.05l3.18-3.054a.894.894,0,0,1,1.265.025c.014.014.026.029.039.044l6.233,7.4a.894.894,0,0,1-.688,1.47H920.929a.9.9,0,0,1-.732-1.408" transform="translate(-896.007 -73.805)" fill="#e9e9e9"/>
          <path id="Path_601726" data-name="Path 601726" d="M936.594,94.012a2.754,2.754,0,1,1-2.282-2.283,2.75,2.75,0,0,1,2.282,2.283" transform="translate(-894.388 -74.476)" fill="#e9e9e9"/>
          <path id="Path_601727" data-name="Path 601727" d="M1124.273,218.48h-20.844a2.772,2.772,0,0,1-2.772-2.772h0V197.227a2.772,2.772,0,0,1,2.772-2.772h20.844a2.772,2.772,0,0,1,2.772,2.772h0v18.48a2.772,2.772,0,0,1-2.772,2.772h0" transform="translate(-869.633 -59.471)" fill="#fff"/>
          <path id="Path_601728" data-name="Path 601728" d="M1127.045,198.542h-26.389v-1.235a2.85,2.85,0,0,1,2.85-2.849h20.917a2.625,2.625,0,0,1,2.625,2.624Z" transform="translate(-869.633 -59.471)" fill="#dedede"/>
          <path id="Path_601729" data-name="Path 601729" d="M1104.139,196.665a.648.648,0,1,1-.687-.607h.04a.628.628,0,0,1,.646.609" transform="translate(-869.314 -59.237)" fill="#fff"/>
          <path id="Path_601730" data-name="Path 601730" d="M1105.676,196.665a.647.647,0,1,1-.685-.607h.038a.629.629,0,0,1,.647.609" transform="translate(-869.089 -59.237)" fill="#fff"/>
          <path id="Path_601731" data-name="Path 601731" d="M1107.213,196.665a.648.648,0,1,1-.687-.607h.04a.628.628,0,0,1,.646.609" transform="translate(-868.865 -59.237)" fill="#fff"/>
          <path id="Path_601732" data-name="Path 601732" d="M1124.287,218.495a3.333,3.333,0,0,0,.947-.2,2.744,2.744,0,0,0,1.719-2.011,4.441,4.441,0,0,0,.054-.948v-1.061q0-1.11-.01-2.407c0-1.728-.011-3.694-.018-5.865s-.009-4.554-.015-7.105c-.008-.634.013-1.3-.018-1.938a2.673,2.673,0,0,0-.858-1.686c-.989-.994-2.536-.626-3.942-.693l-18.694.009a2.648,2.648,0,0,0-2.575,2.026,4.911,4.911,0,0,0-.078,1.18v4.77c0,3.128,0,6.144-.007,9.017v4.2a2.638,2.638,0,0,0,.708,1.753,2.668,2.668,0,0,0,1.634.838c2.529.046,4.928.021,7.1.036l10.294.039,2.8.023.728.011a1.853,1.853,0,0,1,.247.013s-.084.008-.247.013l-.728.011-2.8.023-10.294.039c-2.177,0-4.542.033-7.12-.008a2.88,2.88,0,0,1-2.534-2.787q0-2.044-.008-4.2c0-2.874,0-5.891-.007-9.017V197.8a5.1,5.1,0,0,1,.084-1.238,2.893,2.893,0,0,1,2.812-2.213l18.694.01h2.127a2.887,2.887,0,0,1,2.881,2.581c.031.681.007,1.316.014,1.96,0,2.554-.009,4.935-.015,7.105s-.011,4.137-.018,5.865q0,1.294-.009,2.407v1.061a4.628,4.628,0,0,1-.068.967,2.86,2.86,0,0,1-.785,1.413,2.824,2.824,0,0,1-1.01.625,2.633,2.633,0,0,1-.715.149h-.249" transform="translate(-869.648 -59.487)" fill="#dedede"/>
          <path id="Path_601733" data-name="Path 601733" d="M1122.72,215.62h-18.294a2.092,2.092,0,0,1-2.092-2.091h0v-11.8a2.092,2.092,0,0,1,2.092-2.091h18.3a2.092,2.092,0,0,1,2.091,2.091h0v11.8a2.092,2.092,0,0,1-2.091,2.091h0" transform="translate(-869.388 -58.715)" fill="#f4f4f4"/>
          <path id="Path_601734" data-name="Path 601734" d="M1104,213.738l5.486-7.809a.621.621,0,0,1,.865-.152.6.6,0,0,1,.127.119l3.771,4.675a.62.62,0,0,0,.873.1.343.343,0,0,0,.044-.038l2.208-2.121a.622.622,0,0,1,.879.018l.026.03,4.33,5.138a.62.62,0,0,1-.474,1.022h-17.627a.622.622,0,0,1-.508-.979" transform="translate(-869.162 -57.834)" fill="#e9e9e9"/>
          <path id="Path_601735" data-name="Path 601735" d="M1115.385,204.086a1.91,1.91,0,1,1-1.585-1.585,1.909,1.909,0,0,1,1.585,1.585" transform="translate(-868.037 -58.3)" fill="#e9e9e9"/>
          <path id="Path_601736" data-name="Path 601736" d="M930.508,196.987H901.934a2.772,2.772,0,0,1-2.772-2.772V162.606a2.772,2.772,0,0,1,2.772-2.772h28.574a2.772,2.772,0,0,1,2.772,2.772h0v31.6a2.772,2.772,0,0,1-2.772,2.772h0" transform="translate(-899.055 -64.526)" fill="#fff"/>
          <path id="Path_601737" data-name="Path 601737" d="M933.28,166.159H899.162v-3.472a2.849,2.849,0,0,1,2.849-2.849h28.651a2.624,2.624,0,0,1,2.624,2.624Z" transform="translate(-899.055 -64.526)" fill="#dedede"/>
          <path id="Path_601738" data-name="Path 601738" d="M904.543,163.256a1,1,0,1,1-1.06-.941h.06a.972.972,0,0,1,1,.942" transform="translate(-898.562 -64.164)" fill="#fff"/>
          <path id="Path_601739" data-name="Path 601739" d="M906.922,163.256a1,1,0,1,1-1.06-.941h.06a.972.972,0,0,1,1,.942" transform="translate(-898.214 -64.164)" fill="#fff"/>
          <path id="Path_601740" data-name="Path 601740" d="M909.3,163.256a1,1,0,1,1-1.06-.941h.06a.972.972,0,0,1,1,.942" transform="translate(-897.867 -64.164)" fill="#fff"/>
          <path id="Path_601741" data-name="Path 601741" d="M930.521,197c0-.008.121-.008.353-.038a2.754,2.754,0,0,0,2.1-1.538,2.712,2.712,0,0,0,.265-1.031c.016-.38,0-.8,0-1.231-.009-3.493-.023-8.534-.039-14.762,0-3.117-.01-6.532-.015-10.2q0-2.75-.01-5.675a2.661,2.661,0,0,0-1.467-2.292,2.831,2.831,0,0,0-1.42-.284h-1.536l-26.809.009a2.668,2.668,0,0,0-2.541,1.885,6.289,6.289,0,0,0-.115,1.709v8.584c0,4.484,0,8.811-.007,12.931v8.907a2.724,2.724,0,0,0,1.059,2.364,2.6,2.6,0,0,0,1.194.509,11.277,11.277,0,0,0,1.32.037h2.6l4.891.008,14.761.039,4.011.023,1.043.011c.235,0,.355.013.355.013s-.12.008-.355.013l-1.043.013-4.011.023-14.761.039-4.891.008h-2.6a11.312,11.312,0,0,1-1.351-.037,2.8,2.8,0,0,1-1.286-.544,2.931,2.931,0,0,1-1.146-2.521v-8.907c0-4.126,0-8.446-.007-12.931v-9.46a3.17,3.17,0,0,1,.124-.9,2.914,2.914,0,0,1,2.775-2.063l26.809.009h1.536a3.041,3.041,0,0,1,1.519.309,2.88,2.88,0,0,1,1.583,2.477v5.683c0,3.667-.01,7.078-.015,10.2-.016,6.227-.03,11.269-.039,14.762,0,.437,0,.845-.014,1.235a2.8,2.8,0,0,1-1.453,2.271,2.676,2.676,0,0,1-1,.312,2.466,2.466,0,0,1-.356.013" transform="translate(-899.069 -64.545)" fill="#dedede"/>
          <path id="Path_601742" data-name="Path 601742" d="M914.379,180.023l-8.577-8.71a12.223,12.223,0,1,1-3.094,12.353Z" transform="translate(-898.538 -63.363)" fill="#f4f4f4"/>
          <path id="Path_601743" data-name="Path 601743" d="M912.523,179.055l-10.181,3.052a10.623,10.623,0,0,1,2.618-10.524Z" transform="translate(-898.657 -62.811)" fill="#f4f4f4"/>
          <path id="Path_601744" data-name="Path 601744" d="M1080.661,103.923h-20.569a3.342,3.342,0,0,1-3.342-3.342V80.012a3.341,3.341,0,0,1,3.342-3.342h20.569A3.342,3.342,0,0,1,1084,80.012v20.57a3.342,3.342,0,0,1-3.342,3.342" transform="translate(-876.044 -76.67)" fill="#f4f4f4"/>
          <path id="Path_601745" data-name="Path 601745" d="M1060.429,89.784l2.75-2.75,5.295,4.706,8.842-8.875,2.549,2.75-11.787,11.422Z" transform="translate(-875.507 -75.766)" fill="#fff"/>
        </g>
        <g id="Group_878546" data-name="Group 878546" transform="translate(970.107 88.493)">
          <path id="Path_601749" data-name="Path 601749" d="M1006.5,130.907H963.931a2.772,2.772,0,0,1-2.772-2.772h0V89.872a2.772,2.772,0,0,1,2.772-2.772H1006.5a2.772,2.772,0,0,1,2.772,2.772h0v38.262a2.772,2.772,0,0,1-2.772,2.772h0" transform="translate(-961.041 -86.97)" fill="#fff"/>
          <path id="Path_601750" data-name="Path 601750" d="M1009.277,94.555H961.159V89.949a2.846,2.846,0,0,1,2.847-2.849h42.648a2.624,2.624,0,0,1,2.624,2.624Z" transform="translate(-961.041 -86.97)" fill="#dedede"/>
          <path id="Path_601751" data-name="Path 601751" d="M967.5,91.13a1.181,1.181,0,1,1-1.25-1.108c.023,0,.047,0,.071,0a1.146,1.146,0,0,1,1.179,1.11" transform="translate(-960.459 -86.544)" fill="#fff"/>
          <path id="Path_601752" data-name="Path 601752" d="M970.31,91.13a1.181,1.181,0,1,1-1.25-1.108c.023,0,.047,0,.071,0a1.146,1.146,0,0,1,1.179,1.11" transform="translate(-960.049 -86.544)" fill="#fff"/>
          <path id="Path_601753" data-name="Path 601753" d="M973.116,91.13a1.181,1.181,0,1,1-1.25-1.108c.023,0,.047,0,.071,0a1.146,1.146,0,0,1,1.179,1.11" transform="translate(-959.639 -86.544)" fill="#fff"/>
          <path id="Path_601754" data-name="Path 601754" d="M965.777,97.036v26.8c0-.249,38.678,0,38.678,0" transform="translate(-960.366 -85.52)" fill="#fff"/>
          <path id="Path_601755" data-name="Path 601755" d="M1004.471,123.832a.923.923,0,0,1-.168.011l-.5.009-1.908.011h-7.016l-23.15-.016-3.346.021-1.636.025c-.269.008-.541.013-.8.032l-.09.01h-.011c.278-.007-.218-.14-.173-.108v-.652c0-2.132,0-4.188.007-6.146.01-3.914.018-7.44.026-10.407s.03-5.345.039-7.016c.01-.817.017-1.457.023-1.908,0-.207.009-.371.013-.5a.83.83,0,0,1,.013-.168.917.917,0,0,1,.013.168c0,.125.007.288.013.5,0,.452.013,1.091.023,1.908.009,1.671.023,4.064.039,7.016s.016,6.493.026,10.407c0,1.959,0,4.011.007,6.146v.652c.041.045-.442-.107-.158-.115l.025-.008a.225.225,0,0,1,.038-.008l.115-.013c.275-.021.543-.025.816-.033l1.64-.028,3.349-.022c9.041-.02,17.225.04,23.15.087l7.016.077,1.908.034.5.015a.836.836,0,0,1,.168.014" transform="translate(-960.383 -85.52)" fill="#2e353a"/>
          <rect id="Rectangle_298200" data-name="Rectangle 298200" width="8.252" height="10.749" transform="translate(9.349 24.553)" fill="#4d5a64"/>
          <rect id="Rectangle_298201" data-name="Rectangle 298201" width="8.252" height="16.498" transform="translate(20.559 18.804)" fill="#4d5a64"/>
          <rect id="Rectangle_298202" data-name="Rectangle 298202" width="8.252" height="21.315" transform="translate(31.767 13.988)" fill="#4d5a64"/>
          <path id="Path_601756" data-name="Path 601756" d="M1006.52,130.923c0-.013.158,0,.458-.054a2.764,2.764,0,0,0,2.258-2.4c.038-.862,0-1.876.01-3.006-.009-4.537-.023-11.092-.039-19.19,0-4.051-.01-8.489-.015-13.251V90.307a4.794,4.794,0,0,0-.046-.9,2.671,2.671,0,0,0-2.521-2.185H998.8l-34.85.009a2.648,2.648,0,0,0-1.962.869,2.729,2.729,0,0,0-.688,2.032v13.441c0,5.83,0,11.453-.008,16.81v7.825a2.666,2.666,0,0,0,2.148,2.553,4.505,4.505,0,0,0,.9.052h2.714l13.252.015,19.189.039,5.217.023,1.357.013c.306,0,.458.013.458.013s-.157.008-.458.013l-1.357.011-5.217.023L980.3,131l-13.252.015h-2.714a4.831,4.831,0,0,1-.936-.054,2.876,2.876,0,0,1-2.323-2.75q0-3.809-.008-7.831c0-5.358,0-10.98-.008-16.81V90.132a2.973,2.973,0,0,1,.756-2.2,2.891,2.891,0,0,1,2.143-.948l34.85.009,7.831.01a2.883,2.883,0,0,1,2.717,2.363,5.011,5.011,0,0,1,.047.935v2.718c0,4.763-.01,9.2-.015,13.251-.016,8.1-.03,14.653-.039,19.19-.013,1.135.014,2.135-.032,3.014a2.8,2.8,0,0,1-1.083,1.882,2.713,2.713,0,0,1-1.243.529,2.166,2.166,0,0,1-.344.03h-.115" transform="translate(-961.056 -86.987)" fill="#2e353a"/>
        </g>
        <g id="Group_878548" data-name="Group 878548" transform="translate(1146.321 164.875)">
          <path id="Path_601757" data-name="Path 601757" d="M1120.25,183.1l-.618-4.279a14.422,14.422,0,1,1,4.392,2.723h.006Z" transform="translate(-1114.808 -153.627)" fill="#fff"/>
          <path id="Path_601758" data-name="Path 601758" d="M1120.774,166.7l2.17-2.171,4.187,3.721,6.991-7.017,2.016,2.171-9.317,9.033Z" transform="translate(-1113.948 -152.527)" fill="#e49445"/>
          <path id="Path_601759" data-name="Path 601759" d="M1120.26,183.108s.088-.042.252-.115l.727-.313,2.778-1.177-.013.1H1124a.057.057,0,0,1,.055-.1,14.271,14.271,0,0,0,9.054.445c.37-.1.731-.248,1.107-.372a8.166,8.166,0,0,0,1.115-.465,14.254,14.254,0,0,0,6.236-20.21,14.464,14.464,0,0,0-2.081-2.726,14.779,14.779,0,0,0-5.908-3.611,14.307,14.307,0,0,0-3.345-.613,14.093,14.093,0,0,0-6.427,1.066,14.326,14.326,0,0,0-4.1,23.788c.184,1.384.327,2.454.425,3.191l.107.829c.023.188.032.29.032.29s-.018-.085-.048-.265l-.131-.809c-.115-.739-.282-1.811-.5-3.2l.018.034a14.338,14.338,0,0,1-3.931-5.822,14.526,14.526,0,0,1,8.022-18.288,14.36,14.36,0,0,1,6.55-1.1,14.586,14.586,0,0,1,3.413.622,14.342,14.342,0,0,1,8.145,6.464,14.522,14.522,0,0,1-2.085,17.512,14.367,14.367,0,0,1-4.3,3.031,8.2,8.2,0,0,1-1.133.466c-.383.124-.749.273-1.125.37a14.781,14.781,0,0,1-2.2.423,14.442,14.442,0,0,1-6.944-.951l.055-.1h.007a.057.057,0,0,1,.013.079h0a.07.07,0,0,1-.025.019l-2.84,1.129-.723.283a2.519,2.519,0,0,1-.238.087" transform="translate(-1114.818 -153.636)" fill="#2e353a"/>
        </g>
        <g id="Group_878558" data-name="Group 878558" transform="translate(919.829 90.285)">
          <path id="Path_601765" data-name="Path 601765" d="M981.04,183.85l-9.182-2.475-1.827,8.31-4.584-12.533c-2.137-5.991-5.062-8.057-7.079-8.615l-.729.949,1.932,33.151,6.122,7.614a6.031,6.031,0,0,0,10.295-1.4c3.438-8.846,4.6-22.31,5.054-25" transform="translate(-911.277 -76.871)" fill="#fc8116"/>
          <path id="Path_601766" data-name="Path 601766" d="M921.622,248.161h45.939l-4.813-32.982-29.283-2.095s-5.051,4.951-6.724,10.763-5.119,24.314-5.119,24.314" transform="translate(-916.536 -70.366)" fill="#2e353a"/>
          <path id="Path_601767" data-name="Path 601767" d="M929.253,150.771c1.084-9.785,3.218-20.558,17.165-20.02,0,0,10.5.367,13.848,7.833,1.811,4.042,1.3,19.4,2.129,32.061l2.039,16.247-42.18-6.517s6.324-23.52,7-29.6" transform="translate(-916.444 -82.391)" fill="#2e353a"/>
          <path id="Path_601768" data-name="Path 601768" d="M946.67,134.234l-.9-.8-9.283,4.1a2.625,2.625,0,0,0-2.4,2.623l2.122,31.134c.056,2.079-.5,3.381.808,5l9,10.762c3.144,3.878,2.577-4.868,4.813-9.33.156-.312-.6-1.429-.559-1.648a6.389,6.389,0,0,0,.115-.688c.2-2.475.144-4.614.144-4.614.079-2.713.1-3.825.1-3.8,0,0,5.739-.852,7.055-8.3.653-3.7.344-8.759-.04-13.733-.528-6.883-5.446-10.887-10.986-10.7" transform="translate(-914.715 -81.997)" fill="#eebe9c"/>
          <path id="Path_601769" data-name="Path 601769" d="M945.372,148.53a.959.959,0,0,1-.94.95.917.917,0,0,1-.972-.858V148.6a.958.958,0,0,1,.939-.95.917.917,0,0,1,.972.858v.023" transform="translate(-913.347 -79.921)" fill="#2e353a"/>
          <path id="Path_601770" data-name="Path 601770" d="M953.425,148.449a.959.959,0,0,1-.94.95.917.917,0,0,1-.972-.858v-.022a.957.957,0,0,1,.938-.951.917.917,0,0,1,.972.858v.023" transform="translate(-912.172 -79.933)" fill="#2e353a"/>
          <path id="Path_601771" data-name="Path 601771" d="M954.334,145.349c-.122.123-.838-.426-1.868-.441s-1.795.487-1.9.359c-.055-.057.071-.28.4-.515a2.63,2.63,0,0,1,1.528-.442,2.516,2.516,0,0,1,1.484.508c.313.249.416.477.357.532" transform="translate(-912.312 -80.409)" fill="#2e353a"/>
          <path id="Path_601772" data-name="Path 601772" d="M945.222,145.768c-.133.115-.791-.511-1.813-.631s-1.834.3-1.931.162c-.047-.062.1-.272.458-.47a2.635,2.635,0,0,1,1.564-.283,2.517,2.517,0,0,1,1.425.658c.284.28.364.517.3.565" transform="translate(-913.638 -80.377)" fill="#2e353a"/>
          <path id="Path_601773" data-name="Path 601773" d="M948.136,153.136a6.834,6.834,0,0,1,1.679-.273c.264-.023.513-.07.562-.249a1.343,1.343,0,0,0-.163-.784l-.744-2.017a34.4,34.4,0,0,1-1.657-5.272,34.539,34.539,0,0,1,2.078,5.126q.371,1.062.711,2.028a1.521,1.521,0,0,1,.115,1.031.666.666,0,0,1-.439.377,1.845,1.845,0,0,1-.448.055,6.774,6.774,0,0,1-1.7-.028" transform="translate(-912.712 -80.374)" fill="#2e353a"/>
          <path id="Path_601774" data-name="Path 601774" d="M949.8,163.055a19,19,0,0,1-9.959-2.844s2.425,5.213,9.912,4.643Z" transform="translate(-913.875 -78.086)" fill="#e7996e"/>
          <path id="Path_601775" data-name="Path 601775" d="M946.09,142.213c-.134.266-1.146.011-2.357.013-1.218-.023-2.229.212-2.359-.057-.057-.128.143-.369.573-.591a4.1,4.1,0,0,1,3.593.033c.419.229.614.476.556.6" transform="translate(-913.653 -80.866)" fill="#2e353a"/>
          <path id="Path_601776" data-name="Path 601776" d="M954.043,141.5c-.186.229-.892-.024-1.744-.05-.853-.056-1.579.13-1.742-.115-.071-.115.047-.353.367-.573a2.527,2.527,0,0,1,2.809.135c.3.246.393.488.311.6" transform="translate(-912.314 -80.979)" fill="#2e353a"/>
          <path id="Path_601777" data-name="Path 601777" d="M934.868,153.3s5.323,1.467,7.879-11.637c.873-4.481,4.879-8.218,4.879-8.218l-1.688-.448s-10.3,3.268-10.467,3.4-2.446,5.461-2.446,5.461Z" transform="translate(-914.871 -82.061)" fill="#2e353a"/>
          <path id="Path_601778" data-name="Path 601778" d="M936.435,150.512c.008-.556-.612-1.878-1.16-1.973-1.462-.254-4.109-.181-4.2,3.542-.121,5.092,5.015,4.162,5.028,4.017.01-.115.3-3.667.329-5.586" transform="translate(-915.155 -79.804)" fill="#eebe9c"/>
          <path id="Path_601779" data-name="Path 601779" d="M934.431,153.924c-.022-.017-.09.06-.242.125a.886.886,0,0,1-.663,0,2.2,2.2,0,0,1-.968-1.993,2.919,2.919,0,0,1,.278-1.261,1.022,1.022,0,0,1,.688-.665.45.45,0,0,1,.518.256c.065.144.03.245.057.254s.115-.083.076-.293a.562.562,0,0,0-.193-.324.667.667,0,0,0-.487-.141,1.247,1.247,0,0,0-.945.768,3.013,3.013,0,0,0-.344,1.412,2.3,2.3,0,0,0,1.241,2.229.954.954,0,0,0,.815-.115c.16-.121.19-.229.173-.244" transform="translate(-914.992 -79.595)" fill="#e7996e"/>
          <path id="Path_601780" data-name="Path 601780" d="M937.68,150.57c.254-.047.508-.107.756-.179a4.6,4.6,0,0,0,1.775-1.109,6.327,6.327,0,0,0,.908-1.136,8.479,8.479,0,0,0,.719-1.51,31.958,31.958,0,0,0,.973-3.731c.314-1.337.659-2.6,1.047-3.729a21.318,21.318,0,0,1,1.23-2.914,15.2,15.2,0,0,1,1.1-1.823c.143-.207.269-.358.344-.458a1.062,1.062,0,0,1,.131-.155,1.158,1.158,0,0,1-.109.171c-.072.115-.191.266-.328.477a17.19,17.19,0,0,0-1.063,1.834,22.182,22.182,0,0,0-1.2,2.911c-.38,1.124-.721,2.385-1.031,3.719a30.6,30.6,0,0,1-.988,3.744,8.62,8.62,0,0,1-.736,1.521,6.286,6.286,0,0,1-.936,1.146,4.529,4.529,0,0,1-1.826,1.091,2.854,2.854,0,0,1-.772.128" transform="translate(-914.191 -81.939)" fill="#2e353a"/>
          <path id="Path_601781" data-name="Path 601781" d="M932.624,172.7a1.4,1.4,0,0,1-.063-.244l-.152-.719L931.86,169l.122-.022c.031.183.068.387.1.6l-.006-.018.115.229-.126.05a49.073,49.073,0,0,1-1.9-8.126,49.753,49.753,0,0,1-.485-5.281,24.18,24.18,0,0,1,.311-5.823,9.059,9.059,0,0,1,.848-2.337,12.565,12.565,0,0,1,1.341-2c.994-1.227,2.073-2.292,3.056-3.343l5.28-5.547,3.573-3.726.981-1.005.259-.257a.46.46,0,0,1,.094-.083.529.529,0,0,1-.077.1l-.242.273-.949,1.031-3.519,3.782-5.243,5.581c-.979,1.057-2.056,2.125-3.035,3.338a10.023,10.023,0,0,0-2.138,4.246,24.238,24.238,0,0,0-.314,5.759,50.494,50.494,0,0,0,.458,5.26,51.249,51.249,0,0,0,1.824,8.115l-.126.052-.115-.229v-.018c-.033-.211-.065-.415-.094-.6l.122-.022c.21,1.177.375,2.1.49,2.75.05.3.091.546.115.724a1.391,1.391,0,0,1,.03.25" transform="translate(-915.367 -82.162)" fill="#4d5a64"/>
          <path id="Path_601782" data-name="Path 601782" d="M932.294,156.5a2.094,2.094,0,1,0,2.024-2.161h0a2.093,2.093,0,0,0-2.024,2.161" transform="translate(-914.978 -78.944)" fill="#4d5a64"/>
          <path id="Path_601783" data-name="Path 601783" d="M959.118,175.576a2.425,2.425,0,0,1,.078.48l.148,1.386c.132,1.2.253,2.951.365,5.112.222,4.324.217,10.307,0,16.9s-.392,12.565-.333,16.887c.023,2.16.064,3.909.115,5.115.018.573.033,1.031.044,1.391a2.313,2.313,0,0,1-.01.487,2.29,2.29,0,0,1-.065-.482l-.115-1.389c-.1-1.206-.182-2.956-.24-5.119-.127-4.327.008-10.307.222-16.9s.264-12.563.115-16.881c-.079-2.158-.159-3.906-.246-5.111-.032-.573-.058-1.031-.078-1.39a2.3,2.3,0,0,1,0-.487" transform="translate(-911.07 -75.843)" fill="#2e353a"/>
          <path id="Path_601784" data-name="Path 601784" d="M929.027,179.639l5.135,40.586,27.775,1.991,1.8.917L961.9,189.6l-9.644-22.927-.968-.59s-.809,6.778-3.419,6.663c-1.779-.078-8.5-3.268-9.977-4.261l-1.483-4.316Z" transform="translate(-915.455 -77.509)" fill="#fff"/>
          <path id="Path_601785" data-name="Path 601785" d="M924.851,228.1l5.906-13.546-5.722-43.356,9.96-4.175,3.263-3.521s3.028,11.185,3.973,15.1,3.649,12.531,4.856,20.252-.355,22.347-1.555,27.283-6.052,29.4-6.052,29.4h-22.3s3.6-18.862,7.667-27.436" transform="translate(-917.184 -77.606)" fill="#fc8116"/>
          <path id="Path_601786" data-name="Path 601786" d="M948.547,163.735l2.363,2.407,8.8,3.094s2.592,10.153,2.694,13.28-.048,37.848,0,39.48,6.238,31.99,5.739,33.369h-6.034s-3.241-24.947-3.455-31.475-1.014-22.569-2.636-30.413-7.58-27.138-7.58-27.138Z" transform="translate(-912.62 -77.572)" fill="#fc8116"/>
          <path id="Path_601787" data-name="Path 601787" d="M958.613,227.228a.557.557,0,0,1-.018-.163c0-.127-.01-.284-.017-.477q-.012-.672-.034-1.834c-.016-1.622-.039-3.917-.068-6.74-.054-5.69-.083-13.553-.229-22.233-.025-1.084-.046-2.157-.089-3.209s-.179-2.077-.29-3.094c-.229-2.034-.458-4-.709-5.857s-.523-3.627-.857-5.261a22.576,22.576,0,0,0-1.414-4.4,57.68,57.68,0,0,0-3.05-5.991l-.928-1.578-.242-.41a.6.6,0,0,1-.073-.146.585.585,0,0,1,.1.126l.272.392c.229.344.573.866.986,1.547a51.688,51.688,0,0,1,3.16,5.959,22.468,22.468,0,0,1,1.47,4.435c.344,1.642.633,3.412.893,5.272s.5,3.828.731,5.862c.115,1.014.267,2.049.3,3.119s.065,2.133.091,3.219c.143,8.685.133,16.546.124,22.233-.017,2.823-.032,5.118-.042,6.74q-.019,1.159-.031,1.834c-.007.193-.013.344-.017.477a.6.6,0,0,1-.018.163" transform="translate(-912.306 -77.265)" fill="#2e353a"/>
          <path id="Path_601788" data-name="Path 601788" d="M944.783,214.369a2.435,2.435,0,0,1-.093-.486c-.046-.321-.1-.794-.166-1.406-.115-1.224-.255-3-.29-5.2-.018-1.1-.01-2.3.034-3.6a15.653,15.653,0,0,0-.643-4.018,66.3,66.3,0,0,0-3.422-8.813c-1.411-3.059-2.865-5.926-4.2-8.524a35.021,35.021,0,0,1-1.8-3.754,32.07,32.07,0,0,1-1-3.471c-.508-2.144-.8-3.9-1-5.115-.1-.607-.16-1.081-.2-1.4a2.455,2.455,0,0,1-.04-.493,2.784,2.784,0,0,1,.115.482l.264,1.39c.236,1.206.567,2.953,1.1,5.083a33.322,33.322,0,0,0,1.031,3.438,35.794,35.794,0,0,0,1.815,3.711c1.359,2.592,2.823,5.461,4.24,8.526a64.07,64.07,0,0,1,3.413,8.869,15.674,15.674,0,0,1,.621,4.108c-.056,1.288-.079,2.488-.077,3.585,0,2.192.1,3.966.179,5.19.042.587.076,1.055.1,1.41a2.951,2.951,0,0,1,.023.494" transform="translate(-915.026 -76.936)" fill="#2e353a"/>
          <path id="Path_601789" data-name="Path 601789" d="M959.551,173.914a2.5,2.5,0,0,1,.243.414c.156.274.355.688.6,1.237a24.876,24.876,0,0,1,1.506,4.827,36.773,36.773,0,0,1,.727,7.465c-.01,2.827-.229,5.921-.513,9.161-.6,6.476-.979,12.345-1.106,16.6-.076,2.128-.115,3.852-.143,5.042-.017.573-.031,1.022-.041,1.375a.241.241,0,1,1-.071,0q-.009-.516-.024-1.375c-.016-1.192-.011-2.917.031-5.042.064-4.262.4-10.15,1-16.625.282-3.236.511-6.324.54-9.133a38.03,38.03,0,0,0-.646-7.415,27.337,27.337,0,0,0-1.389-4.825c-.229-.549-.4-.975-.54-1.261a2.489,2.489,0,0,1-.18-.445" transform="translate(-910.998 -76.086)" fill="#2e353a"/>
          <path id="Path_601790" data-name="Path 601790" d="M945.09,153.629a2.993,2.993,0,0,0-.318,1.737,1.431,1.431,0,0,0,.344.941,1.219,1.219,0,0,0,.889.328,2.441,2.441,0,0,0,.936-.242,3.336,3.336,0,0,0,1.261-1.619c-.819-.283-2.261-.871-3.123-1.146" transform="translate(-913.159 -79.048)" fill="#e7996e"/>
          <path id="Path_601791" data-name="Path 601791" d="M947.118,156.325a1.311,1.311,0,0,1-1.146.407,1.659,1.659,0,0,1-.618-.173,1.2,1.2,0,0,1-.524-.539,1.648,1.648,0,0,1-.171-.8,4.548,4.548,0,0,1,.094-.845,3.44,3.44,0,0,1,.238-.78l.046-.1.1.037c.889.331,1.666.633,2.219.857a4.146,4.146,0,0,1,.869.4,4.169,4.169,0,0,1-.917-.253c-.565-.184-1.35-.458-2.24-.777l.143-.061a3.357,3.357,0,0,0-.214.722,2.473,2.473,0,0,0,.039,1.5,1.181,1.181,0,0,0,.958.641,1.8,1.8,0,0,0,.83-.115,2.481,2.481,0,0,1,.294-.126" transform="translate(-913.172 -79.067)" fill="#2e353a"/>
          <path id="Path_601792" data-name="Path 601792" d="M1120.577,259.216H975.292a7.18,7.18,0,0,1-7.18-7.18v-106.6a7.18,7.18,0,0,1,7.18-7.18h145.286a7.18,7.18,0,0,1,7.18,7.18h0v106.6a7.18,7.18,0,0,1-7.18,7.18h0" transform="translate(-909.748 -81.293)" fill="#fff"/>
          <path id="Path_601793" data-name="Path 601793" d="M1127.819,154.583H968.112v-9.254a7.074,7.074,0,0,1,7.074-7.074h145.235a7.4,7.4,0,0,1,7.4,7.4Z" transform="translate(-909.748 -81.292)" fill="#dedede"/>
          <path id="Path_601794" data-name="Path 601794" d="M1120.591,259.235s.115-.01.356-.024c.115-.01.267-.009.441-.032l.609-.1c.229-.054.482-.115.761-.2a7.979,7.979,0,0,0,.885-.358,6.954,6.954,0,0,0,1.963-1.375,7.031,7.031,0,0,0,1.654-2.537l.146-.4c.042-.138.073-.28.115-.422a6.615,6.615,0,0,0,.165-.885,17.336,17.336,0,0,0,.054-1.921c0-2.674-.007-5.758-.011-9.229-.009-13.89-.023-33.985-.039-58.815q0-9.314-.008-19.489v-15.7c-.009-.894.02-1.8-.021-2.7a7.058,7.058,0,0,0-4.523-6.211,7.325,7.325,0,0,0-2.7-.476h-38.3l-106.809.01a7.047,7.047,0,0,0-5.893,3.157,7.193,7.193,0,0,0-1.146,3.234c-.041.573-.034,1.161-.033,1.747v42.949c0,17.868,0,35.1-.007,51.52v9.149a23.229,23.229,0,0,0,.091,2.988,7.037,7.037,0,0,0,5.74,5.873,18.054,18.054,0,0,0,2.9.115l22.628.006,40.617.015,58.813.039,15.989.023,4.158.013c.936,0,1.417.013,1.417.013s-.48.008-1.417.013l-4.158.011-15.989.023-58.812.039-40.617.015-22.628.006a18.239,18.239,0,0,1-2.938-.115,7.255,7.255,0,0,1-5.92-6.053,23.526,23.526,0,0,1-.1-3.021V240.99c0-16.418,0-33.653-.007-51.52V146.52c0-.586-.008-1.17.034-1.769a7.432,7.432,0,0,1,1.183-3.348,7.3,7.3,0,0,1,6.1-3.267l106.809.009h38.3a7.561,7.561,0,0,1,2.772.49,7.264,7.264,0,0,1,4.65,6.394c.039.917.01,1.808.019,2.707v15.7q0,10.165-.008,19.489c-.016,24.831-.03,44.924-.039,58.815,0,3.472-.008,6.556-.011,9.229a17.424,17.424,0,0,1-.06,1.929,6.729,6.729,0,0,1-.17.892c-.039.143-.07.286-.115.425l-.149.4a7.055,7.055,0,0,1-1.676,2.551,6.956,6.956,0,0,1-1.981,1.369,7.828,7.828,0,0,1-.892.354c-.281.077-.536.142-.765.194l-.611.091c-.175.021-.324.018-.442.026-.237.01-.357.011-.357.011" transform="translate(-909.761 -81.31)" fill="#2e353a"/>
          <path id="Path_601795" data-name="Path 601795" d="M977.725,146.472a1.87,1.87,0,1,1-1.87-1.87,1.871,1.871,0,0,1,1.87,1.87h0" transform="translate(-908.89 -80.366)" fill="#fff"/>
          <path id="Path_601796" data-name="Path 601796" d="M982.619,146.472a1.87,1.87,0,1,1-1.87-1.87,1.871,1.871,0,0,1,1.87,1.87h0" transform="translate(-908.176 -80.366)" fill="#fff"/>
          <path id="Path_601797" data-name="Path 601797" d="M987.514,146.472a1.87,1.87,0,1,1-1.87-1.87,1.871,1.871,0,0,1,1.87,1.87h0" transform="translate(-907.461 -80.366)" fill="#fff"/>
          <path id="Path_601798" data-name="Path 601798" d="M1104.475,247.018H987.042a2.091,2.091,0,0,1-2.092-2.091h0V162.6a2.091,2.091,0,0,1,2.092-2.091h117.433a2.091,2.091,0,0,1,2.092,2.091h0v82.326a2.091,2.091,0,0,1-2.092,2.091h0" transform="translate(-907.289 -78.043)" fill="#f4f4f4"/>
          <path id="Path_601799" data-name="Path 601799" d="M993.94,236.841l29.682-42.251a3.361,3.361,0,0,1,4.683-.818,3.326,3.326,0,0,1,.684.641l20.4,25.295a3.362,3.362,0,0,0,4.726.507c.076-.062.149-.126.219-.193l11.951-11.475a3.362,3.362,0,0,1,4.753.1c.05.053.1.107.146.163l23.425,27.8a3.362,3.362,0,0,1-2.571,5.527H996.687a3.361,3.361,0,0,1-2.75-5.293" transform="translate(-906.066 -73.275)" fill="#e9e9e9"/>
          <path id="Path_601800" data-name="Path 601800" d="M1055.561,184.6a10.338,10.338,0,1,1-8.574-8.575,10.339,10.339,0,0,1,8.574,8.575" transform="translate(-899.979 -75.796)" fill="#e9e9e9"/>
          <path id="Path_601801" data-name="Path 601801" d="M972.763,200.536s1.4-1.539-.868-1.979-13.776-.237-17.868,1.089l-5.551.943.974,9.122,3.467-.8,8.272,1.253c.951.144,3.857-1.069,1.558-2.584,0,0,2.731-1.337.665-3.109,0,0,2.008-1.058.379-3.153Z" transform="translate(-912.615 -72.518)" fill="#eebe9c"/>
          <path id="Path_601802" data-name="Path 601802" d="M947.676,200.035l2.153-.174-.24,9.786-2.1.433Z" transform="translate(-912.759 -72.297)" fill="#e9e9e9"/>
          <path id="Path_601803" data-name="Path 601803" d="M925.018,170.018s-5.253,1.807-6.344,9.013c-1.188,7.849,1.909,21.535,2.039,26.5.1,3.667,2.5,12.116,10.326,11.824a122.533,122.533,0,0,0,21.009-2.8l-.036-10.275-18.608.013-1.844-17.437" transform="translate(-917.006 -76.654)" fill="#fc8116"/>
          <path id="Path_601804" data-name="Path 601804" d="M931.572,186.853s.02.1.045.3.061.508.107.9c.089.8.22,1.956.388,3.452.329,3.012.8,7.368,1.394,12.78l-.086-.078,18.608-.039h.115v.115c.014,3.262.027,6.705.042,10.275v.1l-.093.021a125.724,125.724,0,0,1-15.05,2.4c-2.122.2-4.22.344-6.3.409a9.123,9.123,0,0,1-3.074-.482,8.486,8.486,0,0,1-2.656-1.531,12.029,12.029,0,0,1-3.323-4.885,16.27,16.27,0,0,1-1.11-5.564c-.115-1.834-.376-3.613-.609-5.343l-.7-5.037c-.426-3.252-.769-6.3-.887-9.086a30.751,30.751,0,0,1,.419-7.516,6.528,6.528,0,0,1,.2-.794c.078-.257.142-.513.229-.758a13.213,13.213,0,0,1,.573-1.375,11.245,11.245,0,0,1,1.384-2.2,10.189,10.189,0,0,1,2.7-2.355,7.028,7.028,0,0,1,.832-.427,2.151,2.151,0,0,1,.3-.115s-.1.044-.288.134a7.97,7.97,0,0,0-.817.448,10.394,10.394,0,0,0-2.655,2.373,11.267,11.267,0,0,0-1.352,2.193,13.252,13.252,0,0,0-.56,1.365c-.081.243-.144.5-.22.752a6.37,6.37,0,0,0-.195.788,30.836,30.836,0,0,0-.379,7.478c.13,2.783.481,5.818.917,9.067l.72,5.042c.236,1.732.5,3.511.621,5.362a16.056,16.056,0,0,0,1.1,5.488,11.805,11.805,0,0,0,3.256,4.785,8.241,8.241,0,0,0,2.581,1.48,8.9,8.9,0,0,0,2.991.468c2.063-.062,4.163-.21,6.279-.409a126.805,126.805,0,0,0,15.013-2.387l-.093.115c-.01-3.57-.019-7.014-.029-10.275l.115.115-18.608-.014h-.078l-.008-.078c-.557-5.416-1.006-9.774-1.316-12.788-.149-1.5-.265-2.659-.344-3.456-.037-.388-.063-.688-.083-.9s-.02-.306-.02-.306" transform="translate(-917.019 -76.655)" fill="#fc8116"/>
          <path id="Path_601805" data-name="Path 601805" d="M929.806,204.844a5.841,5.841,0,0,1,1.94-4.92,9.317,9.317,0,0,0-1.94,4.92" transform="translate(-915.345 -72.288)" fill="#2e353a"/>
          <path id="Path_601806" data-name="Path 601806" d="M928.57,181.05a9.869,9.869,0,0,1-.335-1.239,19.746,19.746,0,0,0-2.444-5.626,9.8,9.8,0,0,1-.677-1.09,4.962,4.962,0,0,1,.824.992,15.389,15.389,0,0,1,2.47,5.683,4.955,4.955,0,0,1,.164,1.279" transform="translate(-916.026 -76.205)" fill="#2e353a"/>
          <path id="Path_601807" data-name="Path 601807" d="M1054.588,131.03l-7.678-28.113c-1.681-7.055-7.189-11.958-14.2-10.085l-.637.211a12.965,12.965,0,0,0-8.521,15.383c1.49,6.107,3.218,12.835,4.315,16.013,2.27,6.579,9.219,5.417,9.219,5.417s1.206,4.056,1.764,6.02l-.258,5.037,5.118-2.914Z" transform="translate(-901.706 -87.984)" fill="#9e7362"/>
          <path id="Path_601808" data-name="Path 601808" d="M1035.322,125.779a16.829,16.829,0,0,0,7.759-5.393s-.423,5.652-7.213,7.242Z" transform="translate(-899.934 -83.902)" fill="#65463c"/>
          <path id="Path_601809" data-name="Path 601809" d="M1027.383,111.532a.993.993,0,0,0,1.225.651.952.952,0,0,0,.693-1.152l-.006-.021a.993.993,0,0,0-1.225-.656.95.95,0,0,0-.693,1.153l.006.021" transform="translate(-901.098 -85.372)" fill="#2e353a"/>
          <path id="Path_601810" data-name="Path 601810" d="M1025.586,108.754c.158.084.7-.682,1.719-1.015s1.928-.072,2-.229c.036-.072-.157-.256-.559-.384a2.728,2.728,0,0,0-1.649.034,2.615,2.615,0,0,0-1.312.963c-.229.344-.265.6-.189.636" transform="translate(-901.359 -85.854)" fill="#2e353a"/>
          <path id="Path_601811" data-name="Path 601811" d="M1034.814,109.133a.994.994,0,0,0,1.225.65.952.952,0,0,0,.693-1.152l-.006-.021a1,1,0,0,0-1.224-.651.95.95,0,0,0-.693,1.153l.006.021" transform="translate(-900.013 -85.722)" fill="#2e353a"/>
          <path id="Path_601812" data-name="Path 601812" d="M1034.337,106.081c.158.085.7-.682,1.719-1.015s1.928-.072,2-.229c.036-.072-.156-.256-.56-.384a2.72,2.72,0,0,0-1.649.034,2.62,2.62,0,0,0-1.312.962c-.229.344-.265.6-.189.636" transform="translate(-900.082 -86.245)" fill="#2e353a"/>
          <path id="Path_601813" data-name="Path 601813" d="M1033.781,114.817a7.033,7.033,0,0,0-1.748.249c-.268.06-.531.089-.633-.073a1.4,1.4,0,0,1-.081-.826q.053-1.062.115-2.228a35.693,35.693,0,0,0,.01-5.73,35.676,35.676,0,0,0-.472,5.719c-.026.778-.053,1.52-.077,2.229a1.583,1.583,0,0,0,.2,1.062.691.691,0,0,0,.552.238,1.892,1.892,0,0,0,.458-.085,6.981,6.981,0,0,0,1.672-.551" transform="translate(-900.583 -85.972)" fill="#2e353a"/>
          <path id="Path_601814" data-name="Path 601814" d="M1033.133,103.449c.229.213,1.118-.386,2.309-.809,1.183-.447,2.252-.573,2.285-.877.01-.146-.269-.312-.76-.382a4.248,4.248,0,0,0-3.5,1.284c-.33.371-.435.68-.333.783" transform="translate(-900.258 -86.68)" fill="#2e353a"/>
          <path id="Path_601815" data-name="Path 601815" d="M1024.687,106.186c.285.165,1.041-.337,2.035-.664.986-.355,1.893-.425,2.012-.729.048-.144-.158-.335-.6-.438a3.361,3.361,0,0,0-1.78.143,3.3,3.3,0,0,0-1.482.979c-.277.344-.319.625-.189.708" transform="translate(-901.497 -86.251)" fill="#2e353a"/>
          <path id="Path_601816" data-name="Path 601816" d="M1044.833,106.125c.1-.086,4.095-2.847,5.447,1.719s-3.509,4.981-3.553,4.852-1.891-6.57-1.891-6.57" transform="translate(-898.545 -86.116)" fill="#9e7362"/>
          <path id="Path_601817" data-name="Path 601817" d="M1047.335,110.366c.016-.021.1.032.249.054a.835.835,0,0,0,.6-.164,2.054,2.054,0,0,0,.387-2.035,2.72,2.72,0,0,0-.56-1.073.954.954,0,0,0-.778-.433.421.421,0,0,0-.4.358c-.023.146.033.229.01.243s-.12-.047-.14-.246a.523.523,0,0,1,.1-.344.62.62,0,0,1,.4-.246,1.168,1.168,0,0,1,1.041.458,2.814,2.814,0,0,1,.652,1.191,2.153,2.153,0,0,1-.573,2.315.89.89,0,0,1-.762.1c-.175-.071-.229-.166-.215-.179" transform="translate(-898.273 -85.933)" fill="#65463c"/>
          <path id="Path_601818" data-name="Path 601818" d="M1036.688,113.468c-.16.036.134,1.088-.557,2.088s-1.843,1.2-1.811,1.349c0,.07.307.134.785.014a2.726,2.726,0,0,0,1.528-1.067,2.377,2.377,0,0,0,.4-1.732c-.084-.452-.275-.68-.344-.653" transform="translate(-900.08 -84.912)" fill="#2e353a"/>
          <path id="Path_601819" data-name="Path 601819" d="M1013.949,105.62a1.129,1.129,0,0,1,.319-.783,3.469,3.469,0,0,1,1.624-.786,10.026,10.026,0,0,0,3.861-2.292,4.991,4.991,0,0,1-1.49-.5,2.987,2.987,0,0,1-1.673-2.6.663.663,0,0,1,.229-.543c.269-.18.615.034.892.2a2.573,2.573,0,0,0,2.613.29,4.226,4.226,0,0,0,1.582-1.031c.014-.026.024-.055.038-.08.164-.315.327-.619.487-.917h0a15.743,15.743,0,0,1,3.667-4.9,16.173,16.173,0,0,1,8.079-3.121,6.532,6.532,0,0,1,6.188,3.46,5.024,5.024,0,0,1,4.709-1.9l.034-.03c1.948.1,3.515,1.669,4.574,3.314.057.091.115.182.168.274a7.319,7.319,0,0,0,3.07,1.612c.2.048.432.115.512.3a.6.6,0,0,1-.163.56,3.677,3.677,0,0,1-1.253,1.02,8.261,8.261,0,0,0,.956,1.066c.3.278.658.612.589,1.015a.779.779,0,0,1-.678.573,2.284,2.284,0,0,1-.933-.127l1.013,1.239a4.367,4.367,0,0,1-1.96.446c.127,1.8.777,5,.688,6.271a7.215,7.215,0,0,0-2.088.723c-.712.5.007,1.806-1.139,1.719-.583-.046-1.979-1.79-2.314-2.27a27.178,27.178,0,0,1-4.419-10.689,8.746,8.746,0,0,0-3.142-1.094l.1.048c-2.063-.091-4.355-.1-5.866,1.305-1.17,1.089-1.552,2.75-2.238,4.2a9.965,9.965,0,0,1-6.022,5.532c.344,2.091,1.245,5.408,1.707,7.317l-2.727-3.282v.016c-.195-.181-.369-.372-.539-.564l-.056-.057v-.008a12.044,12.044,0,0,0-.848-.911l-.014.021a1.225,1.225,0,0,1-2.184-1.058,2.74,2.74,0,0,1,.4-.74,1.939,1.939,0,0,1-1.632.987,1.52,1.52,0,0,1-1.46-1.133,1.291,1.291,0,0,1,.441-1.215,4.372,4.372,0,0,1-2.537.186c-.55-.127-1.146-.431-1.16-1.07" transform="translate(-903.054 -88.55)" fill="#2e353a"/>
          <path id="Path_601820" data-name="Path 601820" d="M1035.367,92.8a5.9,5.9,0,0,1,.853.413,4.992,4.992,0,0,1,1.686,1.91,8.759,8.759,0,0,1,.677,1.646c.187.614.334,1.287.493,2a18.157,18.157,0,0,0,.6,2.2,7.948,7.948,0,0,0,.5,1.11,2.508,2.508,0,0,0,.8.98,1.051,1.051,0,0,0,1.031.036,1.571,1.571,0,0,0,.7-.732,3.607,3.607,0,0,0,.136-1.89l-.135.058a5.859,5.859,0,0,0,1.23,1.156,2.081,2.081,0,0,0,1.51.32,1.357,1.357,0,0,0,.652-.327,1.169,1.169,0,0,0,.33-.6,1.192,1.192,0,0,0-.036-.634.865.865,0,0,0-.369-.458l-.052.085a4.49,4.49,0,0,0,1.756.648,4.218,4.218,0,0,0,.5.04.773.773,0,0,0,.171-.008.846.846,0,0,0-.17-.019c-.115-.011-.277-.026-.488-.065a4.644,4.644,0,0,1-1.71-.678l-.052.085a.894.894,0,0,1,.344.979,1.049,1.049,0,0,1-.3.534,1.222,1.222,0,0,1-.594.288,1.95,1.95,0,0,1-1.406-.312,5.771,5.771,0,0,1-1.191-1.136l-.161-.185.025.244a3.489,3.489,0,0,1-.128,1.8,1.406,1.406,0,0,1-.63.654.887.887,0,0,1-.881-.029,2.373,2.373,0,0,1-.748-.917,8.009,8.009,0,0,1-.487-1.086,18.661,18.661,0,0,1-.607-2.177c-.164-.706-.316-1.381-.511-2a8.709,8.709,0,0,0-.706-1.662,4.932,4.932,0,0,0-1.753-1.909,2.8,2.8,0,0,0-.886-.359" transform="translate(-899.928 -87.93)" fill="#4d5a64"/>
          <path id="Path_601821" data-name="Path 601821" d="M1019.037,105.812a.276.276,0,0,0,.068.03l.2.072a2.458,2.458,0,0,0,.337.1,4.107,4.107,0,0,0,.47.093,6.2,6.2,0,0,0,3.012-.344,7.9,7.9,0,0,0,3.585-2.691,13.683,13.683,0,0,0,2.27-5.023c.244-.953.392-1.9.6-2.8a9.24,9.24,0,0,1,.885-2.478,4.753,4.753,0,0,1,1.575-1.742,3.388,3.388,0,0,1,.98-.419,3.677,3.677,0,0,1,.982-.1,4.034,4.034,0,0,1,2.688,1.175,4.826,4.826,0,0,1,.643.9.205.205,0,0,0-.026-.069l-.093-.195a3.467,3.467,0,0,0-.479-.678,3.972,3.972,0,0,0-1.05-.79,4.073,4.073,0,0,0-1.678-.458,3.838,3.838,0,0,0-1.016.092,3.48,3.48,0,0,0-1.021.427,4.863,4.863,0,0,0-1.634,1.782,9.273,9.273,0,0,0-.91,2.516c-.212.9-.361,1.847-.6,2.792a13.7,13.7,0,0,1-2.231,4.971,7.853,7.853,0,0,1-3.506,2.674,6.278,6.278,0,0,1-2.963.384,10.038,10.038,0,0,1-1.085-.229" transform="translate(-902.311 -88.281)" fill="#4d5a64"/>
          <path id="Path_601822" data-name="Path 601822" d="M1017.743,101.687a1.1,1.1,0,0,0,.289.1,5.474,5.474,0,0,0,.817.148,7.252,7.252,0,0,0,1.232.033,7.6,7.6,0,0,0,2.907-.768,7.322,7.322,0,0,0,1.056-.638,5.432,5.432,0,0,0,.636-.532c.14-.138.213-.218.205-.229s-.332.277-.908.664a8.322,8.322,0,0,1-1.054.6,8.127,8.127,0,0,1-2.854.753,8.217,8.217,0,0,1-1.211,0c-.688-.052-1.109-.158-1.116-.13" transform="translate(-902.501 -86.908)" fill="#4d5a64"/>
          <path id="Path_601823" data-name="Path 601823" d="M1019.92,140.47s-.679-1.92,1.626-4.505,16.8-8.042,16.8-8.042,5.377,5.236,11.46,1.925c4.735-2.577,4.369-6.616,4.369-6.616l18.421,3.084.627,13.918-6.6.039Z" transform="translate(-902.196 -83.486)" fill="#f2d3b0"/>
          <path id="Path_601824" data-name="Path 601824" d="M1047.888,162.092l22.722-7.125-7.422-17.98,14.325.274s10.339,20.17,6.428,26.062c-3.562,5.363-32.891,6.444-32.891,6.444Z" transform="translate(-898.099 -81.478)" fill="#9e7362"/>
          <path id="Path_601825" data-name="Path 601825" d="M1056.809,169.511l-.1,1.226a2.1,2.1,0,0,1-2.5,1.592c-.054-.011-.107-.025-.159-.041l-23.264-2.356.427-3.683,23.493.809c1.561-.013,2.218,1.045,2.106,2.454" transform="translate(-900.596 -77.205)" fill="#4d5a64"/>
          <path id="Path_601826" data-name="Path 601826" d="M1025.712,181.816a14.289,14.289,0,1,1,8.647-9.8,14.29,14.29,0,0,1-8.647,9.8m-10.078-25.721a13.328,13.328,0,1,0,8.137-.516,13.327,13.327,0,0,0-8.137.516" transform="translate(-904.184 -78.962)" fill="#2e353a"/>
          <path id="Path_601827" data-name="Path 601827" d="M1025.641,181.074a14.289,14.289,0,1,1,8.647-9.8,14.29,14.29,0,0,1-8.647,9.8m-10.078-25.721a13.328,13.328,0,1,0,8.137-.516,13.327,13.327,0,0,0-8.137.516" transform="translate(-904.195 -79.07)" fill="#4d5a64"/>
          <path id="Path_601828" data-name="Path 601828" d="M1027.713,158.348a1.413,1.413,0,0,1-.192-.138c-.126-.088-.291-.245-.537-.4a10.2,10.2,0,0,0-2.172-1.154,12.553,12.553,0,0,0-1.622-.51,13.679,13.679,0,0,0-1.927-.309,13.116,13.116,0,0,0-2.153-.019,12.605,12.605,0,0,0-2.283.356,11.7,11.7,0,0,0-2.171.787,12.692,12.692,0,0,0-1.84,1.115,12.087,12.087,0,0,0-2.567,2.579,11.562,11.562,0,0,0-1.24,2.126c-.13.261-.2.478-.261.619a1.492,1.492,0,0,1-.1.214,1.2,1.2,0,0,1,.068-.229c.055-.143.115-.366.235-.631a10.771,10.771,0,0,1,1.208-2.166,11.925,11.925,0,0,1,2.571-2.628,12.6,12.6,0,0,1,1.859-1.137,11.72,11.72,0,0,1,2.2-.8,12.6,12.6,0,0,1,2.31-.358,13.032,13.032,0,0,1,2.177.029,13.493,13.493,0,0,1,1.948.322,12.393,12.393,0,0,1,1.632.533,9.613,9.613,0,0,1,2.166,1.206,5.817,5.817,0,0,1,.523.426,1.348,1.348,0,0,1,.172.16" transform="translate(-903.828 -78.755)" fill="#fff"/>
          <path id="Path_601829" data-name="Path 601829" d="M1024.958,175.864c-.021-.03.573-.384,1.39-1.146l.314-.3c.108-.107.207-.229.318-.344.229-.236.432-.517.658-.8a11.1,11.1,0,0,0,1.925-4.324c.064-.361.135-.7.159-1.031.015-.163.039-.319.046-.47s.01-.3.016-.435c.022-1.112-.115-1.794-.08-1.8a3.055,3.055,0,0,1,.093.477,4.292,4.292,0,0,1,.065.566,6.942,6.942,0,0,1,.03.756v.44c0,.154-.025.312-.038.476a10.061,10.061,0,0,1-.148,1.044,10.757,10.757,0,0,1-1.948,4.379,10.275,10.275,0,0,1-.677.8c-.115.115-.218.242-.329.344l-.323.3a7.108,7.108,0,0,1-.582.484,4.264,4.264,0,0,1-.464.33,3.052,3.052,0,0,1-.416.25" transform="translate(-901.447 -77.356)" fill="#fff"/>
          <path id="Path_601830" data-name="Path 601830" d="M1025.662,162.81c0,.042-2.619.313-5.857.6s-5.868.493-5.872.452,2.619-.312,5.858-.6,5.868-.493,5.871-.452" transform="translate(-903.057 -77.708)" fill="#fff"/>
          <path id="Path_601831" data-name="Path 601831" d="M1027.86,166.364a.948.948,0,0,1-.188.022l-.542.032-1.991.1c-1.681.083-4,.2-6.567.362s-4.882.332-6.561.458l-1.988.15-.541.036a1.041,1.041,0,0,1-.189,0,.8.8,0,0,1,.187-.033l.539-.063c.469-.053,1.146-.12,1.985-.2,1.677-.156,3.995-.344,6.561-.505s4.889-.264,6.571-.317c.841-.027,1.523-.044,1.994-.05h.542a.807.807,0,0,1,.189.009" transform="translate(-903.734 -77.189)" fill="#fff"/>
          <g id="Group_878554" data-name="Group 878554" transform="translate(102.949 85.576)" opacity="0.3">
            <g id="Group_878553" data-name="Group 878553">
              <g id="Grupo_879662" data-name="Grupo 879662">
                <g id="Grupo_879661" data-name="Grupo 879661" clip-path="url(#clip-path)">
                  <g id="Group_878552" data-name="Group 878552" transform="translate(0.004 -0.002)">
                    <path id="Path_601832" data-name="Path 601832" d="M1007.252,164.825l25.868-1.6a13.83,13.83,0,0,1,.5,3.911l-26.448,1.6a10.239,10.239,0,0,1,.083-3.917" transform="translate(-1007.019 -163.221)" fill="#fff"/>
                  </g>
                </g>
              </g>
            </g>
          </g>
          <g id="Group_878557" data-name="Group 878557" transform="translate(103.858 91.966)" opacity="0.3">
            <g id="Group_878556" data-name="Group 878556">
              <g id="Grupo_879664" data-name="Grupo 879664">
                <g id="Grupo_879663" data-name="Grupo 879663" clip-path="url(#clip-path-2)">
                  <g id="Group_878555" data-name="Group 878555" transform="translate(0 0)">
                    <path id="Path_601833" data-name="Path 601833" d="M1007.809,170.486l25.305-1.687s.168-.069-.344,1.044l-24.533,1.616a2.367,2.367,0,0,1-.424-.973" transform="translate(-1007.809 -168.798)" fill="#fff"/>
                  </g>
                </g>
              </g>
            </g>
          </g>
          <path id="Path_601834" data-name="Path 601834" d="M1050.311,158.893s-13.031,3.782-13.4,4-5.5,3.867-5.6,5.187,1.633,7.226,1.633,7.226,1.758.251,1.889-2.9l.13-3.156,2.162-1.937a21.917,21.917,0,0,0-.6,4.681c.2,1.031,1.916,3.64,2.875,3.438a2.8,2.8,0,0,0,1.49-.858,2.1,2.1,0,0,0,2.674,1.294,2.126,2.126,0,0,0,.614-.337,3.886,3.886,0,0,0,2.865.034,7.9,7.9,0,0,0,2.4-2.674,1.094,1.094,0,0,0-.974-1.2,1.029,1.029,0,0,0-.252,0,5.005,5.005,0,0,0-2.514.983l-.124-1.324a15.235,15.235,0,0,1,3.209-2.9c1.031-.618,5.3-.717,6.622-2.063,1.123-1.146-1-3.662-2.407-4.425a2.388,2.388,0,0,0-.677-.245Z" transform="translate(-900.52 -78.279)" fill="#9e7362"/>
          <path id="Path_601835" data-name="Path 601835" d="M1041.516,168.066a.892.892,0,0,0-.142.229,4.2,4.2,0,0,0-.277.688,4.766,4.766,0,0,0,1.011,4.594,4.2,4.2,0,0,0,.54.509.956.956,0,0,0,.229.15c.016-.019-.3-.246-.694-.721a4.955,4.955,0,0,1-.99-4.506c.161-.6.351-.934.328-.945" transform="translate(-899.121 -76.94)" fill="#65463c"/>
          <path id="Path_601836" data-name="Path 601836" d="M1039.4,166.435a1.158,1.158,0,0,0-.149.249,2.5,2.5,0,0,0-.148.307,4.173,4.173,0,0,0-.167.421,6.569,6.569,0,0,0-.292,1.146,6.962,6.962,0,0,0,.131,2.865,6.712,6.712,0,0,0,.394,1.11c.064.155.142.285.2.4a2.915,2.915,0,0,0,.175.293,1.235,1.235,0,0,0,.172.229c.023-.014-.206-.359-.458-.97a7.46,7.46,0,0,1-.361-1.1,8.078,8.078,0,0,1-.2-1.4,9.5,9.5,0,0,1,.023-1.51,5.681,5.681,0,0,1,.308-1.031c.2-.63.4-1,.374-1.007" transform="translate(-899.461 -77.178)" fill="#65463c"/>
          <path id="Path_601837" data-name="Path 601837" d="M1037.123,164.3c-.01-.011-.138.073-.291.265a2.114,2.114,0,0,0-.4.863,1.781,1.781,0,0,0,.016.952.783.783,0,0,0,.158.361,2.688,2.688,0,0,1,.518-2.441" transform="translate(-899.78 -77.489)" fill="#65463c"/>
          <path id="Path_601838" data-name="Path 601838" d="M1075.6,156.259c-.04.021-.269-.515-.843-1.234a7.073,7.073,0,0,0-2.826-2.127,6.015,6.015,0,0,0-3.5-.269c-.9.186-1.435.415-1.451.375a1.2,1.2,0,0,1,.361-.19,6.69,6.69,0,0,1,1.053-.352,5.813,5.813,0,0,1,3.634.213,6.7,6.7,0,0,1,2.871,2.247,5.666,5.666,0,0,1,.573.955,1.2,1.2,0,0,1,.139.384" transform="translate(-895.312 -79.247)" fill="#65463c"/>
          <path id="Path_601839" data-name="Path 601839" d="M1058.427,133.921c-.229-7.591,9.669-10.967,14.105-4.8l.074.107c4.181,5.959,9.235,20.038,9.235,20.038l-17.9,2.78-4.469-12.221a22.744,22.744,0,0,1-1.046-5.9" transform="translate(-896.56 -83.093)" fill="#f2d3b0"/>
          <path id="Path_601840" data-name="Path 601840" d="M1009.776,137.868c.029.064.055.128.079.195a3.453,3.453,0,0,1,.189.933,2.944,2.944,0,0,0,.021.45,1.733,1.733,0,0,0,.125.265,4.531,4.531,0,0,1,.164,1.859,3.561,3.561,0,0,0,.344,1.992,1.314,1.314,0,0,0,1.749.54.894.894,0,0,0,.669.976,1.292,1.292,0,0,0,1.192-.37,2.415,2.415,0,0,0,.6-1.146.987.987,0,0,0,.983.955,1.527,1.527,0,0,0,1.25-.766,3.512,3.512,0,0,0,.431-1.458,17.186,17.186,0,0,1,.308-1.948s.642.1.934.131l.086.008a12.037,12.037,0,0,0,.614-1.066c.409-.841.721-1.375,1.031-2.138.229-.573.386-1.146.032-1.515-.851-.9-2.521.926-2.521.926-.235-.635-2.171-.738-2.548.108-.152-.465-.1-.735-.472-1.047a1.558,1.558,0,0,0-1.375-.344,1.116,1.116,0,0,0-.833,1.075,1.833,1.833,0,0,0-3.332.549.729.729,0,0,0-.046.253.3.3,0,0,0,.039.115c.087.163.2.306.276.476" transform="translate(-903.712 -81.714)" fill="#9e7362"/>
          <path id="Path_601841" data-name="Path 601841" d="M1008.149,136.47a1.462,1.462,0,0,0-1.161.386,2.4,2.4,0,0,0-.363,1.6c.583.115.886.132,1.47.243.124.023.229-.008.328.065.269.191.229.835.335,1.146a1.125,1.125,0,0,0,1.419.607,1.508,1.508,0,0,0,.91-1.343,2.326,2.326,0,0,0-.594-1.571,3.25,3.25,0,0,0-2.345-1.146" transform="translate(-904.127 -81.554)" fill="#9e7362"/>
          <path id="Path_601842" data-name="Path 601842" d="M1012.48,136.188a19.311,19.311,0,0,1,0,3.9,19.391,19.391,0,0,1-.4,3.884,19.34,19.34,0,0,1,0-3.9,19.388,19.388,0,0,1,.4-3.883" transform="translate(-903.341 -81.594)" fill="#65463c"/>
          <path id="Path_601843" data-name="Path 601843" d="M1014.832,136.512a16.566,16.566,0,0,1-.6,7.022,28.544,28.544,0,0,1,.285-3.511,28.8,28.8,0,0,1,.319-3.509" transform="translate(-903.014 -81.547)" fill="#65463c"/>
          <path id="Path_601844" data-name="Path 601844" d="M1017.125,136.825a8.24,8.24,0,0,1-.047,2.927,11.485,11.485,0,0,1-.555,2.865,10.322,10.322,0,0,1,.16-2.915,16.055,16.055,0,0,1,.441-2.879" transform="translate(-902.684 -81.502)" fill="#65463c"/>
          <path id="Path_601845" data-name="Path 601845" d="M1008.686,136.714c0-.047.28-.115.688.076a2.2,2.2,0,0,1,1.074,1.261,4.4,4.4,0,0,1,.267,1.6c-.048.484-.4.625-.407.562-.031-.045.159-.211.127-.573a7.865,7.865,0,0,0-.357-1.459,2.384,2.384,0,0,0-.842-1.153c-.3-.214-.551-.257-.545-.319" transform="translate(-903.823 -81.525)" fill="#65463c"/>
          <path id="Path_601846" data-name="Path 601846" d="M1066.949,126.382a20.162,20.162,0,0,0-1.923.8,9.6,9.6,0,0,0-5.217,8.015,20.042,20.042,0,0,0,.044,2.083,2.173,2.173,0,0,1-.127-.551,8.26,8.26,0,0,1-.089-1.541,9.334,9.334,0,0,1,5.312-8.162,8.253,8.253,0,0,1,1.445-.542,2.124,2.124,0,0,1,.555-.108" transform="translate(-896.384 -83.027)" fill="#2e353a"/>
          <path id="Path_601847" data-name="Path 601847" d="M967.256,174.777c-.43-.151-.682-.1-.965-.458a1.451,1.451,0,0,1-.293-1.281,1.037,1.037,0,0,1,1.015-.752,1.707,1.707,0,0,1,.573-3.085.661.661,0,0,1,.236-.037.264.264,0,0,1,.1.039c.149.084.28.191.437.266.058.029.115.054.179.078a3.237,3.237,0,0,0,.864.195,2.679,2.679,0,0,1,.417.029,1.421,1.421,0,0,1,.244.12,4.222,4.222,0,0,0,1.719.189,3.3,3.3,0,0,1,1.844.359,1.22,1.22,0,0,1,.466,1.637.832.832,0,0,1,.894.641,1.2,1.2,0,0,1-.368,1.1,2.25,2.25,0,0,1-1.073.532.917.917,0,0,1,.868.933,1.413,1.413,0,0,1-.737,1.146,3.241,3.241,0,0,1-1.364.371c-.472.045-1.97.26-2.431.374l-1.744.023a1.407,1.407,0,0,1-1.342-1.948.9.9,0,0,1,.449-.47" transform="translate(-910.063 -76.779)" fill="#eebe9c"/>
          <path id="Path_601848" data-name="Path 601848" d="M967.091,167.931a1.36,1.36,0,0,1,.382-1.072,1.166,1.166,0,0,1,1.05-.316,8.984,8.984,0,0,0,.513,1.414,1.667,1.667,0,0,0,.189.274c.173.254.772.229,1.06.333a1.044,1.044,0,0,1,.536,1.331.962.962,0,0,1-1.016.688,3.212,3.212,0,0,1-1.81-.612,2.573,2.573,0,0,1-.9-2.034" transform="translate(-909.897 -77.165)" fill="#eebe9c"/>
          <path id="Path_601849" data-name="Path 601849" d="M966.742,171.922c0,.045,1.624.033,3.625-.026s3.621-.144,3.62-.189-1.624-.033-3.625.026-3.621.144-3.62.189" transform="translate(-909.948 -76.412)" fill="#e7996e"/>
          <path id="Path_601850" data-name="Path 601850" d="M967,174.128a4.817,4.817,0,0,0,.96.079c.595.021,1.418.017,2.324-.041s1.719-.162,2.31-.259a4.825,4.825,0,0,0,.942-.2,6.53,6.53,0,0,0-.957.088c-.589.068-1.4.151-2.306.21s-1.719.079-2.313.088a6.564,6.564,0,0,0-.961.037" transform="translate(-909.91 -76.116)" fill="#e7996e"/>
          <path id="Path_601851" data-name="Path 601851" d="M967.736,176.305a5.039,5.039,0,0,0,.708-.016c.438-.024,1.045-.074,1.712-.146s1.271-.144,1.706-.2a6.107,6.107,0,0,0,.7-.1,5.452,5.452,0,0,0-.711.044c-.438.039-1.042.1-1.709.174s-1.269.131-1.705.171a6.7,6.7,0,0,0-.708.077" transform="translate(-909.803 -75.804)" fill="#e7996e"/>
          <path id="Path_601852" data-name="Path 601852" d="M967.3,168.439a.889.889,0,0,0,.115.6,2.063,2.063,0,0,0,1.121.963,4.357,4.357,0,0,0,.786.222,3.229,3.229,0,0,0,.664.08.708.708,0,0,0,.435-.155c.085-.073.1-.136.1-.14a.794.794,0,0,1-.532.179,3.937,3.937,0,0,1-.633-.115,5.227,5.227,0,0,1-.755-.229,2.14,2.14,0,0,1-1.081-.866,3.538,3.538,0,0,1-.221-.548" transform="translate(-909.868 -76.886)" fill="#e7996e"/>
        </g>
        <g id="Grupo_879669" data-name="Grupo 879669" transform="translate(1119.279 115.284)">
          <g id="Group_878566" data-name="Group 878566">
            <path id="Path_601853" data-name="Path 601853" d="M1131.271,149.387h-37.2a2.772,2.772,0,0,1-2.772-2.772h0V113.246a2.772,2.772,0,0,1,2.772-2.772h37.2a2.772,2.772,0,0,1,2.772,2.772h0v33.365a2.772,2.772,0,0,1-2.772,2.772h0" transform="translate(-1091.208 -110.348)" fill="#fff"/>
            <path id="Path_601854" data-name="Path 601854" d="M1134.045,117.1H1091.3v-3.773a2.849,2.849,0,0,1,2.849-2.849h37.267a2.624,2.624,0,0,1,2.625,2.624h0Z" transform="translate(-1091.208 -110.348)" fill="#dedede"/>
            <path id="Path_601855" data-name="Path 601855" d="M1096.941,114.053a1.05,1.05,0,1,1-1.112-.984h.064a1.017,1.017,0,0,1,1.047.986" transform="translate(-1090.692 -109.969)" fill="#fff"/>
            <path id="Path_601856" data-name="Path 601856" d="M1099.432,114.053a1.05,1.05,0,1,1-1.112-.984h.064a1.017,1.017,0,0,1,1.047.986" transform="translate(-1090.328 -109.969)" fill="#fff"/>
            <path id="Path_601857" data-name="Path 601857" d="M1101.924,114.053a1.05,1.05,0,1,1-1.112-.984h.064a1.017,1.017,0,0,1,1.047.986" transform="translate(-1089.964 -109.969)" fill="#fff"/>
            <path id="Path_601858" data-name="Path 601858" d="M1131.284,149.4c0-.01.14,0,.406-.046a2.758,2.758,0,0,0,2.222-1.953,3.973,3.973,0,0,0,.105-1.225v-1.419c-.009-4.018-.023-9.819-.039-16.989,0-3.587-.01-7.514-.015-11.732v-2.4a4.608,4.608,0,0,0-.039-.8,2.675,2.675,0,0,0-2.063-2.177,10.424,10.424,0,0,0-1.67-.06h-5.23l-30.852.009a2.658,2.658,0,0,0-2.636,2.385c-.026,1.326-.008,2.686-.014,4.011v7.872c0,5.157,0,10.139-.007,14.881v6.927a2.675,2.675,0,0,0,1.749,2.441,4.156,4.156,0,0,0,1.565.166h1.6l11.732.015,16.986.039,4.619.023,1.2.013c.271,0,.409.013.409.013s-.139.008-.409.013l-1.2.011-4.619.023-16.986.039-11.732.015h-1.6a4.344,4.344,0,0,1-1.636-.174,2.884,2.884,0,0,1-1.893-2.636q0-3.371-.008-6.932c0-4.742,0-9.721-.007-14.881v-7.872c.007-1.337-.015-2.663.014-4.039a2.9,2.9,0,0,1,2.885-2.6l30.852.009h6.084a3.9,3.9,0,0,1,.864.066,2.888,2.888,0,0,1,2.23,2.355,4.89,4.89,0,0,1,.039.829v2.4c0,4.217-.01,8.145-.015,11.732-.016,7.168-.03,12.971-.039,16.989v1.419a4.07,4.07,0,0,1-.115,1.246,2.809,2.809,0,0,1-1.16,1.547,2.76,2.76,0,0,1-1.125.415,2.037,2.037,0,0,1-.409.021" transform="translate(-1091.221 -110.364)" fill="#2e353a"/>
            <path id="Path_601859" data-name="Path 601859" d="M1128.336,144.75h-32.22a2.091,2.091,0,0,1-2.091-2.091h0V120.947a2.091,2.091,0,0,1,2.091-2.091h32.222a2.091,2.091,0,0,1,2.092,2.091h0v21.711a2.091,2.091,0,0,1-2.092,2.091h0" transform="translate(-1090.811 -109.124)" fill="#f2d3b0"/>
            <g id="Group_878562" data-name="Group 878562" transform="translate(6.086 20.932)" opacity="0.3">
              <g id="Group_878561" data-name="Group 878561">
                <g id="Grupo_879666" data-name="Grupo 879666">
                  <g id="Grupo_879665" data-name="Grupo 879665" clip-path="url(#clip-path-3)">
                    <g id="Group_878560" data-name="Group 878560" transform="translate(0.005 0.002)">
                      <path id="Path_601860" data-name="Path 601860" d="M1096.715,141.7l8.886-12.646a1,1,0,0,1,1.4-.243.989.989,0,0,1,.2.189l6.106,7.572a1,1,0,0,0,1.414.151c.023-.018.045-.038.067-.057l3.577-3.438a1,1,0,0,1,1.422.03.576.576,0,0,1,.044.048l7.011,8.322a1.006,1.006,0,0,1-.769,1.655h-28.536a1.006,1.006,0,0,1-.823-1.585" transform="translate(-1096.535 -128.63)" fill="#fff"/>
                    </g>
                  </g>
                </g>
              </g>
            </g>
            <g id="Group_878565" data-name="Group 878565" transform="translate(20.388 15.011)" opacity="0.3">
              <g id="Group_878564" data-name="Group 878564">
                <g id="Grupo_879668" data-name="Grupo 879668">
                  <g id="Grupo_879667" data-name="Grupo 879667" clip-path="url(#clip-path-4)">
                    <g id="Group_878563" data-name="Group 878563" transform="translate(-0.002 -0.001)">
                      <path id="Path_601861" data-name="Path 601861" d="M1115.2,126.556a3.094,3.094,0,1,1-3.094-3.094,3.095,3.095,0,0,1,3.094,3.094h0" transform="translate(-1109.009 -123.462)" fill="#fff"/>
                    </g>
                  </g>
                </g>
              </g>
            </g>
          </g>
        </g>
      </g>
    </g>
  </g>
</svg>
