<svg xmlns="http://www.w3.org/2000/svg" xmlns:xlink="http://www.w3.org/1999/xlink" width="305" height="305" viewBox="0 0 305 305">
  <defs>
    <clipPath id="clip-path">
      <rect id="Rectángulo_298310" data-name="Rectángulo 298310" width="241.863" height="273.096" fill="none"/>
    </clipPath>
    <clipPath id="clip-path-3">
      <rect id="Rectángulo_298295" data-name="Rectángulo 298295" width="66.34" height="48.088" fill="none"/>
    </clipPath>
    <clipPath id="clip-path-4">
      <rect id="Rectángulo_298296" data-name="Rectángulo 298296" width="66.707" height="49.876" fill="none"/>
    </clipPath>
    <clipPath id="clip-path-5">
      <rect id="Rectángulo_298297" data-name="Rectángulo 298297" width="9.363" height="13.105" fill="#b77b46"/>
    </clipPath>
    <clipPath id="clip-path-6">
      <rect id="Rectángulo_298298" data-name="Rectángulo 298298" width="24.57" height="13.33" fill="none"/>
    </clipPath>
    <clipPath id="clip-path-7">
      <rect id="Rectángulo_298299" data-name="Rectángulo 298299" width="13.635" height="11.748" fill="none"/>
    </clipPath>
    <clipPath id="clip-path-8">
      <rect id="Rectángulo_298300" data-name="Rectángulo 298300" width="1.791" height="1.803" fill="none"/>
    </clipPath>
    <clipPath id="clip-path-9">
      <rect id="Rectángulo_298301" data-name="Rectángulo 298301" width="19.383" height="9.718" fill="none"/>
    </clipPath>
    <clipPath id="clip-path-10">
      <rect id="Rectángulo_298302" data-name="Rectángulo 298302" width="15.601" height="18.601" fill="none"/>
    </clipPath>
    <clipPath id="clip-path-11">
      <rect id="Rectángulo_298303" data-name="Rectángulo 298303" width="4.326" height="26.859" fill="none"/>
    </clipPath>
    <clipPath id="clip-path-12">
      <rect id="Rectángulo_298304" data-name="Rectángulo 298304" width="22.048" height="14.853" fill="none"/>
    </clipPath>
    <clipPath id="clip-path-13">
      <rect id="Rectángulo_298305" data-name="Rectángulo 298305" width="4.862" height="12.883" fill="none"/>
    </clipPath>
    <clipPath id="clip-path-14">
      <rect id="Rectángulo_298306" data-name="Rectángulo 298306" width="70.963" height="48.789" fill="none"/>
    </clipPath>
    <clipPath id="clip-path-15">
      <rect id="Rectángulo_298307" data-name="Rectángulo 298307" width="48.674" height="70.632" fill="none"/>
    </clipPath>
    <clipPath id="clip-path-16">
      <rect id="Rectángulo_298308" data-name="Rectángulo 298308" width="44.311" height="65.626" fill="none"/>
    </clipPath>
  </defs>
  <g id="Grupo_881210" data-name="Grupo 881210" transform="translate(-648 -3836)">
    <g id="Grupo_879433" data-name="Grupo 879433" transform="translate(0 551)">
      <g id="Grupo_879432" data-name="Grupo 879432" transform="translate(679.568 3300.952)">
        <g id="Grupo_878744" data-name="Grupo 878744" clip-path="url(#clip-path)">
          <g id="Grupo_878743" data-name="Grupo 878743">
            <g id="Grupo_878742" data-name="Grupo 878742" clip-path="url(#clip-path)">
              <path id="Trazado_602076" data-name="Trazado 602076" d="M59.973,308.391c-1.163-1.229-2.891-1.694-4.479-2.278a24.037,24.037,0,0,1-11.014-36.858l-.24-1.236c-.543-5.748-7.486-9.869-12.792-7.594s-7.106,10.146-3.316,14.5c-6.228.515-10.343,7.612-9.466,13.8s5.405,11.265,10.446,14.958a49.446,49.446,0,0,0,28.713,9.484,3.968,3.968,0,0,0,2.038-.368c1.463-.85,1.272-3.181.109-4.41" transform="translate(-7.727 -108.215)" fill="#bde3a7"/>
              <path id="Trazado_602077" data-name="Trazado 602077" d="M371.877,287.158a7.513,7.513,0,0,0,.18-7.763,5.875,5.875,0,0,0-7.118-2.337,5.212,5.212,0,0,0-8.846-5.511c-1.658,2.561-.782,6,.643,8.7s3.376,5.232,3.845,8.246a12.031,12.031,0,0,1-2.544,8.745,35.7,35.7,0,0,1-6.732,6.445l-.463.446a16.726,16.726,0,0,0,13.392-1.151c2.288-1.266,4.406-3.359,4.555-5.969.084-1.457-.46-2.918-.239-4.361.327-2.136,2.192-3.647,3.326-5.486" transform="translate(-146.145 -112.149)" fill="#bde3a7"/>
              <path id="Trazado_602078" data-name="Trazado 602078" d="M143.562,450.132A8.437,8.437,0,0,1,137.68,447c-.854-1.188-1.265-2.635-2.008-3.9s-2.03-2.4-3.486-2.258c-2.255.22-3.775,3.337-5.974,2.788-1.321-.33-1.949-1.883-1.959-3.244a34.855,34.855,0,0,0,.219-4.071c-.476-3.8-5.352-5.663-8.99-4.476s-9.164,5.575-11.534,8.578c2.492,4.147,7.611,5.757,12.3,6.934q11.817,2.963,23.835,5.025a17.6,17.6,0,0,0,5.677.332,6.173,6.173,0,0,0,4.62-2.99,25.03,25.03,0,0,1-6.822.407" transform="translate(-43.3 -179.738)" fill="#bde3a7"/>
              <path id="Trazado_602079" data-name="Trazado 602079" d="M296.2,398.165c-.578-3.243-3.814-6.1-7.023-5.353,2.662-2.193,2.677-6.6.573-9.337s-5.76-3.912-9.207-3.809a29.509,29.509,0,0,0-9.958,2.6c1.569-2-.727-5.11-3.263-5.278s-4.8,1.446-6.857,2.939-4.431,3.011-6.941,2.62l2.36.941c5.629.852,11.3,2.169,16.179,5.11s8.888,7.734,9.73,13.365-2.121,11.933-7.463,13.9a22.656,22.656,0,0,0,18.957-8.557c2.022-2.6,3.49-5.9,2.912-9.141" transform="translate(-105.605 -157.029)" fill="#bde3a7"/>
              <path id="Trazado_602080" data-name="Trazado 602080" d="M9.521,261.341a48.731,48.731,0,0,1-.152-5.434,48.732,48.732,0,0,1,.152-5.434,48.732,48.732,0,0,1,.152,5.434,48.731,48.731,0,0,1-.152,5.434" transform="translate(-3.903 -104.335)" fill="#e4fcd4"/>
              <path id="Trazado_602081" data-name="Trazado 602081" d="M11.236,259.679a52.057,52.057,0,0,1-5.617.152A52.071,52.071,0,0,1,0,259.679a52.1,52.1,0,0,1,5.619-.152,52.081,52.081,0,0,1,5.617.152" transform="translate(0 -108.107)" fill="#e4fcd4"/>
              <path id="Trazado_602082" data-name="Trazado 602082" d="M381,357.077a97.446,97.446,0,0,1,0-10.868,97.387,97.387,0,0,1,0,10.868" transform="translate(-158.645 -144.214)" fill="#e4fcd4"/>
              <path id="Trazado_602083" data-name="Trazado 602083" d="M382.718,355.415a104.123,104.123,0,0,1-11.236,0,104.1,104.1,0,0,1,11.236,0" transform="translate(-154.742 -147.986)" fill="#e4fcd4"/>
              <path id="Trazado_602084" data-name="Trazado 602084" d="M324.495,37.436A48.722,48.722,0,0,1,324.343,32a48.722,48.722,0,0,1,.152-5.434A48.736,48.736,0,0,1,324.646,32a48.736,48.736,0,0,1-.152,5.434" transform="translate(-135.106 -11.067)" fill="#e0e0e0"/>
              <path id="Trazado_602085" data-name="Trazado 602085" d="M326.21,35.774a52.069,52.069,0,0,1-5.617.152,52.08,52.08,0,0,1-5.619-.152,104.1,104.1,0,0,1,11.236,0" transform="translate(-131.203 -14.838)" fill="#e0e0e0"/>
              <path id="Trazado_602086" data-name="Trazado 602086" d="M21.291,179.225A3.321,3.321,0,1,1,17.97,175.9a3.321,3.321,0,0,1,3.321,3.321" transform="translate(-6.103 -73.273)" fill="#e4fcd4"/>
              <path id="Trazado_602087" data-name="Trazado 602087" d="M242.708,421.62a3.321,3.321,0,1,1-3.321-3.321,3.321,3.321,0,0,1,3.321,3.321" transform="translate(-98.334 -174.244)" fill="#e4fcd4"/>
              <path id="Trazado_602088" data-name="Trazado 602088" d="M295.671,314.057a3.321,3.321,0,1,1-3.321-3.321,3.321,3.321,0,0,1,3.321,3.321" transform="translate(-120.396 -129.438)" fill="#e4fcd4"/>
              <path id="Trazado_602089" data-name="Trazado 602089" d="M126.565,30.636a3.321,3.321,0,1,1-3.321-3.321,3.321,3.321,0,0,1,3.321,3.321" transform="translate(-49.955 -11.378)" fill="#e4fcd4"/>
              <path id="Trazado_602090" data-name="Trazado 602090" d="M155.9,368.533a1.66,1.66,0,1,1-1.66-1.66,1.66,1.66,0,0,1,1.66,1.66" transform="translate(-63.558 -152.822)" fill="#e4fcd4"/>
              <path id="Trazado_602091" data-name="Trazado 602091" d="M87.233,354.337a1.66,1.66,0,1,1-1.66-1.66,1.66,1.66,0,0,1,1.66,1.66" transform="translate(-34.954 -146.909)" fill="#e4fcd4"/>
              <path id="Trazado_602092" data-name="Trazado 602092" d="M157.389,37.513a1.66,1.66,0,1,1-1.66-1.66,1.66,1.66,0,0,1,1.66,1.66" transform="translate(-64.177 -14.935)" fill="#e4fcd4"/>
              <path id="Trazado_602093" data-name="Trazado 602093" d="M282.753,191.5a1.66,1.66,0,1,1-1.661-1.661,1.66,1.66,0,0,1,1.661,1.661" transform="translate(-116.398 -79.078)" fill="#e0e0e0"/>
              <path id="Trazado_602094" data-name="Trazado 602094" d="M10.907,29.917s-3.7,1.909,1.483,9.655a107.9,107.9,0,0,0,8.577,11.482s.973,1.825-.6,2.313-5.19.342-5.674,2.4c-.5,2.132,1.211,3.886,4.421,5.221s10.139,4.52,10.764,4.81,1.293,1.108.273,1.612-8.9,2.281-7.833,5.969,10.624,5.939,11.664,6.206,1.328.659,1.311,1.215-2.721.9-4.941,1.5-4.691,1.679-3.9,3.755,6.753,5.932,20.084,5.664l6.169-.528L55.435,85.6c5.114-12.314,3.7-19.269,2.056-20.766s-3.552.408-4.918,2.257-2.677,4.241-3.2,4.054-.784-.6-.652-1.664S50.244,58.7,47.2,56.358s-7.574,4.349-8.416,5.114-1.359-.167-1.4-.842-.479-8.3-.55-11.777-1.079-5.712-3.247-6.022c-2.091-.3-3.274,3.119-4.3,4.408s-2.373-.282-2.373-.282a107.878,107.878,0,0,0-7.56-12.176c-5.32-7.65-8.512-4.82-8.512-4.82" transform="translate(-4.011 -12.267)" fill="#bde3a7"/>
              <path id="Trazado_602095" data-name="Trazado 602095" d="M57.411,97.889C53.526,92.255,46.788,82.126,40.959,73.46S29.847,56.957,25.991,51.3l-4.574-6.69-1.242-1.82-.319-.476c-.071-.108-.1-.166-.1-.166s.043.051.12.155l.334.465,1.273,1.8c1.1,1.564,2.683,3.838,4.625,6.655,3.885,5.634,9.187,13.461,15.014,22.124S53.667,92.158,57.523,97.812" transform="translate(-8.228 -17.559)" fill="#529d2e"/>
              <path id="Trazado_602096" data-name="Trazado 602096" d="M26.955,75.249a2.014,2.014,0,0,1,.443.069c.282.055.688.147,1.189.265,1,.238,2.375.6,3.884,1.032l3.858,1.114,1.171.33a1.95,1.95,0,0,1,.425.138,2,2,0,0,1-.443-.066c-.283-.056-.689-.148-1.188-.271-1-.249-2.368-.631-3.876-1.061l-3.865-1.086L27.38,75.39a2.035,2.035,0,0,1-.425-.142" transform="translate(-11.228 -31.344)" fill="#529d2e"/>
              <path id="Trazado_602097" data-name="Trazado 602097" d="M46.4,70.439c-.052-.012.575-2.878,1.4-6.4s1.536-6.369,1.588-6.357-.575,2.878-1.4,6.4-1.535,6.368-1.587,6.356" transform="translate(-19.325 -24.028)" fill="#529d2e"/>
              <path id="Trazado_602098" data-name="Trazado 602098" d="M60.711,95.677a2.123,2.123,0,0,1,.2-.409l.61-1.082c.514-.914,1.218-2.18,1.944-3.605s1.344-2.736,1.782-3.689l.52-1.129a2.1,2.1,0,0,1,.211-.405,2.085,2.085,0,0,1-.142.435c-.1.275-.26.67-.464,1.155-.407.969-1,2.293-1.736,3.721s-1.453,2.688-2,3.586c-.274.448-.5.808-.663,1.052a2.1,2.1,0,0,1-.269.37" transform="translate(-25.289 -35.556)" fill="#529d2e"/>
              <path id="Trazado_602099" data-name="Trazado 602099" d="M42.27,102.9a1.763,1.763,0,0,1,.421-.043l1.148-.044c.969-.029,2.309-.056,3.788-.074s2.82-.023,3.789-.018l1.149.017a1.77,1.77,0,0,1,.422.033,1.834,1.834,0,0,1-.421.042l-1.148.044c-.969.029-2.309.056-3.789.074s-2.819.023-3.789.017l-1.148-.017a1.782,1.782,0,0,1-.422-.032" transform="translate(-17.608 -42.789)" fill="#529d2e"/>
              <path id="Trazado_602100" data-name="Trazado 602100" d="M52.27,125.15a2.921,2.921,0,0,1,.539-.049l1.471-.062c1.242-.044,2.959-.092,4.855-.132s3.613-.067,4.857-.076h1.472a2.844,2.844,0,0,1,.54.026,2.921,2.921,0,0,1-.539.049l-1.471.062c-1.242.044-2.959.092-4.855.132s-3.613.067-4.856.076H52.81a2.911,2.911,0,0,1-.54-.026" transform="translate(-21.773 -51.998)" fill="#e0e0e0"/>
              <path id="Trazado_602101" data-name="Trazado 602101" d="M75.242,115.25a3.3,3.3,0,0,1,.246-.525l.724-1.4c.61-1.183,1.447-2.82,2.319-4.652s1.624-3.511,2.157-4.731l.633-1.444a3.314,3.314,0,0,1,.252-.521,3.241,3.241,0,0,1-.183.55c-.13.349-.324.852-.577,1.469-.5,1.234-1.232,2.925-2.109,4.76s-1.731,3.466-2.372,4.634c-.323.583-.588,1.052-.779,1.372a3.352,3.352,0,0,1-.312.488" transform="translate(-31.342 -42.479)" fill="#e0e0e0"/>
              <path id="Trazado_602102" data-name="Trazado 602102" d="M350.552,187.627c-6.577-5.736-7.2-15.134-6.022-23.4.2-1.379.2-2.855.991-4a2.834,2.834,0,0,1,3.592-1.09c.976.595,1.295,1.838,1.763,2.889a8.138,8.138,0,0,0,2.912,3.45,3.1,3.1,0,0,0,2.814.564c1.265-.53,1.583-2.164,1.723-3.542q.391-3.852.782-7.7a12.9,12.9,0,0,1,.856-4.044,4.3,4.3,0,0,1,2.995-2.6,2.6,2.6,0,0,1,3.018,2.082,12.756,12.756,0,0,1-.145,1.718,1.456,1.456,0,0,0,.7,1.455,1.674,1.674,0,0,0,1.58-.469,18.393,18.393,0,0,0,3.82-4.607,25.557,25.557,0,0,1,3.617-4.789,7.488,7.488,0,0,1,5.349-2.285,4.482,4.482,0,0,1,4.242,3.533c.291,1.995-1.054,3.842-2.455,5.28a30.91,30.91,0,0,1-7.055,5.409,2.542,2.542,0,0,0-1.194,1.036c-.4.885.373,1.89,1.247,2.29a16.046,16.046,0,0,0,3.174.708,3.115,3.115,0,0,1,2.469,1.9c.412,1.467-.924,2.816-2.186,3.656a26.47,26.47,0,0,1-8.275,3.658,8.923,8.923,0,0,0-3.047,1.1,2.563,2.563,0,0,0-1.131,2.83,2.609,2.609,0,0,0,2.7,1.388,18.455,18.455,0,0,0,3.145-.828c1.969-.51,4.4-.116,5.434,1.649a4.383,4.383,0,0,1,.048,3.9,10.1,10.1,0,0,1-2.454,3.177,26.616,26.616,0,0,1-12.158,6.725c-4.552,1.049-8.663,1.022-12.852-1.043" transform="translate(-143.315 -58.841)" fill="#e5ffd4"/>
              <path id="Trazado_602103" data-name="Trazado 602103" d="M359.823,183.685a124.017,124.017,0,0,1,6.327-12.752l1.83-3.257c.6-1.068,1.2-2.127,1.851-3.127a62,62,0,0,1,4.058-5.53c1.376-1.7,2.743-3.256,4.033-4.706s2.523-2.773,3.7-3.934a49.18,49.18,0,0,1,5.938-5.06c.745-.541,1.337-.941,1.742-1.207l.462-.3a.92.92,0,0,1,.162-.094,1.082,1.082,0,0,1-.148.116l-.448.32c-.395.28-.977.693-1.713,1.245a51.992,51.992,0,0,0-5.87,5.108c-1.162,1.166-2.382,2.5-3.666,3.946s-2.641,3.017-4.009,4.713a62.685,62.685,0,0,0-4.031,5.518c-.644.995-1.236,2.045-1.84,3.116l-1.829,3.257a127.1,127.1,0,0,0-6.333,12.718" transform="translate(-149.885 -59.867)" fill="#529d2e"/>
              <path id="Trazado_602104" data-name="Trazado 602104" d="M376.826,168.45a2.825,2.825,0,0,1-.071-.6c-.031-.389-.058-.951-.081-1.647-.047-1.392-.046-3.316-.037-5.437s-.017-4.04-.086-5.427c-.032-.694-.064-1.255-.09-1.642a2.782,2.782,0,0,1-.012-.606,2.773,2.773,0,0,1,.111.6c.057.385.116.946.171,1.641.115,1.389.17,3.315.161,5.439-.015,2.093-.027,3.987-.037,5.434,0,.653,0,1.2,0,1.646a2.721,2.721,0,0,1-.028.606" transform="translate(-156.807 -63.769)" fill="#529d2e"/>
              <path id="Trazado_602105" data-name="Trazado 602105" d="M395.158,176.869a3.823,3.823,0,0,1-.715.008c-.459-.008-1.122-.024-1.942-.017-1.639,0-3.9.08-6.4.277s-4.746.481-6.368.729c-.813.118-1.467.232-1.92.308a3.806,3.806,0,0,1-.709.1,3.838,3.838,0,0,1,.69-.194c.448-.106,1.1-.247,1.911-.389,1.62-.3,3.875-.6,6.378-.807a62.863,62.863,0,0,1,6.421-.2c.823.017,1.487.06,1.945.1a3.753,3.753,0,0,1,.709.092" transform="translate(-157.083 -73.589)" fill="#529d2e"/>
              <path id="Trazado_602106" data-name="Trazado 602106" d="M355.632,194.877a.909.909,0,0,1-.1-.229l-.234-.673c-.2-.585-.468-1.439-.785-2.5-.635-2.12-1.421-5.075-2.243-8.347s-1.581-6.233-2.17-8.363l-.707-2.521c-.075-.275-.138-.5-.188-.687a.9.9,0,0,1-.049-.244.949.949,0,0,1,.1.229l.233.672c.2.585.469,1.44.785,2.5.635,2.12,1.421,5.075,2.244,8.349s1.58,6.232,2.17,8.362c.29,1.035.529,1.887.707,2.52l.188.687a.942.942,0,0,1,.049.245" transform="translate(-145.442 -71.361)" fill="#529d2e"/>
              <path id="Trazado_602107" data-name="Trazado 602107" d="M384.592,203.051a.983.983,0,0,1-.244.071l-.708.155-2.606.545c-2.2.46-5.233,1.131-8.583,1.877s-6.392,1.39-8.6,1.8c-1.106.208-2,.367-2.623.464l-.716.108a.944.944,0,0,1-.253.02.981.981,0,0,1,.244-.071l.708-.155,2.606-.544c2.2-.46,5.234-1.131,8.584-1.878s6.39-1.39,8.6-1.8c1.106-.208,2-.367,2.623-.464l.716-.108a.937.937,0,0,1,.253-.02" transform="translate(-150.066 -84.58)" fill="#529d2e"/>
              <path id="Trazado_602108" data-name="Trazado 602108" d="M268.322,30.208c1.06-6.078,3.956-14.961,7.427-20.061s8.822-9.154,14.933-10,12.852,2.019,15.6,7.54c1.476,2.959,1.747,6.364,2.823,9.492s3.435,6.252,6.733,6.5c2.918.223,5.732-1.88,8.6-1.321,3.741.728,5.186,5.34,5.207,9.151s-.523,8.043,1.82,11.049c1.917,2.46,5.2,3.308,7.845,4.958,5.723,3.57,8.173,10.942,7.592,17.662s-3.675,12.941-6.962,18.83a147.139,147.139,0,0,0-11.115-27.939c-2.654-5.085-7.5-9.413-11.787-13.221-6.585-5.848-21.043-8.639-29.784-9.713s-10.286-1.31-18.942-2.93" transform="translate(-111.77 0)" fill="#bde3a7"/>
              <path id="Trazado_602109" data-name="Trazado 602109" d="M123.743,64.047C102.111,65.618,78.5,68.482,61.18,75.13l5.468,37.005s33.565-12.011,60.872-11.177Z" transform="translate(-25.485 -26.679)" fill="#e8505b"/>
              <g id="Grupo_878702" data-name="Grupo 878702" transform="translate(35.695 37.368)" opacity="0.8">
                <g id="Grupo_878701" data-name="Grupo 878701">
                  <g id="Grupo_878700" data-name="Grupo 878700" clip-path="url(#clip-path-3)">
                    <path id="Trazado_602110" data-name="Trazado 602110" d="M123.743,64.047C102.111,65.618,78.5,68.482,61.18,75.13l5.468,37.005s33.565-12.011,60.872-11.177Z" transform="translate(-61.18 -64.047)" fill="#ffeddd"/>
                  </g>
                </g>
              </g>
              <path id="Trazado_602111" data-name="Trazado 602111" d="M125.992,105.453a1.153,1.153,0,0,1-.208.039l-.614.085-2.361.295c-1.026.121-2.281.272-3.732.485s-3.11.415-4.932.718c-7.3,1.128-17.342,2.991-28.254,5.813-3.794.979-7.449,1.989-10.794,3.038l-.166.052-.023-.171c-1.169-8.486-2.3-15.8-3.169-20.989l-1.044-6.073-.285-1.623-.068-.42a.623.623,0,0,1-.015-.144.625.625,0,0,1,.04.139l.093.415q.118.578.332,1.614c.281,1.41.67,3.47,1.128,6.06.919,5.182,2.089,12.495,3.277,20.981l-.19-.119c3.355-1.06,7.01-2.074,10.809-3.054a275.487,275.487,0,0,1,28.3-5.731c1.826-.289,3.487-.482,4.942-.674s2.712-.331,3.741-.434l2.368-.239.616-.054a1.092,1.092,0,0,1,.212-.008" transform="translate(-29.294 -36.056)" fill="#e8505b"/>
              <path id="Trazado_602112" data-name="Trazado 602112" d="M128.37,99.019c-.015,0-.082-.258-.249-.736a7.832,7.832,0,0,0-1.113-1.913,9.728,9.728,0,0,0-2.626-2.3,10.282,10.282,0,0,0-.935-.5,8.559,8.559,0,0,0-1.057-.382,5.813,5.813,0,0,0-2.406-.234,5.064,5.064,0,0,0-2.45.964,8.206,8.206,0,0,0-1.96,2.131,32.545,32.545,0,0,0-2.75,5.869,7.366,7.366,0,0,1-2.035,2.918,3.868,3.868,0,0,1-1.689.809,3.381,3.381,0,0,1-1.9-.219c-2.464-.977-3.56-3.815-6.049-4.677a4.876,4.876,0,0,0-3.694.3,4.66,4.66,0,0,0-1.463,1.13,7.441,7.441,0,0,0-.976,1.567,10.238,10.238,0,0,1-1.914,3.175,2.835,2.835,0,0,1-1.678.757,3.281,3.281,0,0,1-1.756-.377,6.292,6.292,0,0,1-2.416-2.374,20.44,20.44,0,0,1-1.278-2.914,13.871,13.871,0,0,0-1.266-2.633,5.266,5.266,0,0,0-1.935-1.8,5.008,5.008,0,0,0-4.436-.13,7.513,7.513,0,0,0-2.816,2.03,5.473,5.473,0,0,0-1.056,1.93c-.149.486-.17.757-.191.753a3.421,3.421,0,0,1,.133-.77,5.306,5.306,0,0,1,1.023-1.988,7.546,7.546,0,0,1,2.84-2.111,5.181,5.181,0,0,1,4.6.1,5.479,5.479,0,0,1,2.03,1.855,14.074,14.074,0,0,1,1.305,2.672,20.545,20.545,0,0,0,1.273,2.868,6.045,6.045,0,0,0,2.313,2.262,3.005,3.005,0,0,0,1.6.343,2.546,2.546,0,0,0,1.509-.688,10.068,10.068,0,0,0,1.841-3.091,7.7,7.7,0,0,1,1.016-1.632,4.942,4.942,0,0,1,1.555-1.2,5.169,5.169,0,0,1,3.926-.32,8.071,8.071,0,0,1,3.156,2.379,8.747,8.747,0,0,0,2.908,2.311,3.085,3.085,0,0,0,1.736.206,3.581,3.581,0,0,0,1.561-.746,7.1,7.1,0,0,0,1.96-2.8,32.372,32.372,0,0,1,2.8-5.9,8.421,8.421,0,0,1,2.032-2.18,5.271,5.271,0,0,1,2.564-.987,6,6,0,0,1,2.484.262,8.786,8.786,0,0,1,1.078.4,10.509,10.509,0,0,1,.947.518A9.7,9.7,0,0,1,127.1,96.3a7.472,7.472,0,0,1,1.077,1.964c.086.242.118.437.153.563a.923.923,0,0,1,.038.194" transform="translate(-30.939 -38.617)" fill="#e8505b"/>
              <path id="Trazado_602113" data-name="Trazado 602113" d="M67.805,95.149c.016.082-.266.205-.629.274s-.67.058-.686-.024.265-.205.629-.274.67-.058.686.024" transform="translate(-27.697 -39.606)" fill="#e8505b"/>
              <path id="Trazado_602114" data-name="Trazado 602114" d="M69.612,106.758c.036.076-.177.25-.474.388s-.567.188-.6.113.177-.25.474-.388.567-.188.6-.113" transform="translate(-28.547 -44.456)" fill="#e8505b"/>
              <path id="Trazado_602115" data-name="Trazado 602115" d="M71.662,119.406c.027.08-.191.228-.488.332s-.56.123-.588.044.191-.228.488-.331.561-.124.588-.045" transform="translate(-29.402 -49.719)" fill="#e8505b"/>
              <path id="Trazado_602116" data-name="Trazado 602116" d="M74.036,131.848c.025.08-.222.229-.552.333s-.618.123-.643.043.222-.229.552-.333.618-.123.643-.043" transform="translate(-30.341 -54.901)" fill="#e8505b"/>
              <path id="Trazado_602117" data-name="Trazado 602117" d="M144.805,71.1a2.948,2.948,0,0,1,.707-.159c.464-.081,1.146-.182,2.012-.3,1.733-.243,4.2-.564,7.153-.927l.138-.018.013.139c.229,2.484.494,5.346.774,8.378l.012.126.013.146-.145.018-9.671,1.184-.13.016-.013-.128c-.271-2.536-.5-4.654-.66-6.179q-.1-1.062-.165-1.705a3.97,3.97,0,0,1-.036-.588,5.129,5.129,0,0,1,.106.623c.059.432.138,1.006.235,1.721.191,1.505.457,3.6.775,6.1l-.143-.113,9.665-1.232-.132.165-.012-.126c-.268-3.034-.521-5.9-.74-8.381l.15.122-9.9,1.123" transform="translate(-60.317 -29.03)" fill="#e8505b"/>
              <path id="Trazado_602118" data-name="Trazado 602118" d="M154.939,74.549c0,.09-1.665.089-3.7.308s-3.657.558-3.678.47a18.022,18.022,0,0,1,7.374-.778" transform="translate(-61.469 -31.006)" fill="#e8505b"/>
              <path id="Trazado_602119" data-name="Trazado 602119" d="M155.456,78.285c0,.088-1.55.148-3.449.334s-3.432.419-3.449.333a19.927,19.927,0,0,1,6.9-.666" transform="translate(-61.882 -32.574)" fill="#e8505b"/>
              <path id="Trazado_602120" data-name="Trazado 602120" d="M153.574,81.562a13.271,13.271,0,0,1-3.974.5,13.27,13.27,0,0,1,3.974-.5" transform="translate(-62.316 -33.958)" fill="#e8505b"/>
              <path id="Trazado_602121" data-name="Trazado 602121" d="M301.5,74.271c-21.18-6.455-39.048-11.966-63.04-11.814l-3.667,37.708c24.919,2.205,33.247,3.837,56.258,12.164Z" transform="translate(-97.804 -26.015)" fill="#e8505b"/>
              <g id="Grupo_878705" data-name="Grupo 878705" transform="translate(136.989 36.438)" opacity="0.8">
                <g id="Grupo_878704" data-name="Grupo 878704">
                  <g id="Grupo_878703" data-name="Grupo 878703" clip-path="url(#clip-path-4)">
                    <path id="Trazado_602122" data-name="Trazado 602122" d="M301.5,74.271c-21.18-6.455-39.048-11.966-63.04-11.814l-3.667,37.708c24.919,2.205,33.247,3.837,56.258,12.164Z" transform="translate(-234.793 -62.453)" fill="#fff1e5"/>
                  </g>
                </g>
              </g>
              <path id="Trazado_602123" data-name="Trazado 602123" d="M260.08,88.068l.935-8a9.38,9.38,0,0,0-6.532,1.806,9.835,9.835,0,0,0-4.014,7.911c-.008.385,0,.779.033,1.183V91h0l9.344-1.05Z" transform="translate(-104.333 -33.329)" fill="#ffa455"/>
              <path id="Trazado_602124" data-name="Trazado 602124" d="M277.165,86.91a9.05,9.05,0,0,0-6.657-6.344c-.094-.022-.188-.043-.285-.062-.06-.012-.12-.026-.181-.037q-.268-.049-.545-.084l-.025,0h0l-.023,0h0l-.935,8-.219,1.88,8.821,3.219.011,0a10.191,10.191,0,0,0,.457-2.048,10.978,10.978,0,0,0-.419-4.522" transform="translate(-111.759 -33.48)" fill="#e8505b"/>
              <g id="Grupo_878708" data-name="Grupo 878708" transform="translate(156.536 46.894)">
                <g id="Grupo_878707" data-name="Grupo 878707">
                  <g id="Grupo_878706" data-name="Grupo 878706" clip-path="url(#clip-path-5)">
                    <path id="Trazado_602125" data-name="Trazado 602125" d="M277.165,86.91a9.05,9.05,0,0,0-6.657-6.344c-.094-.022-.188-.043-.285-.062-.06-.012-.12-.026-.181-.037q-.268-.049-.545-.084l-.025,0h0l-.023,0h0l-.935,8-.219,1.88,8.821,3.219.011,0a10.191,10.191,0,0,0,.457-2.048,10.978,10.978,0,0,0-.419-4.522" transform="translate(-268.295 -80.374)" fill="#b77b46"/>
                  </g>
                </g>
              </g>
              <path id="Trazado_602126" data-name="Trazado 602126" d="M260.5,98.853l-9.344,1.05a9.271,9.271,0,0,0,18.177,2.171l-8.821-3.219" transform="translate(-104.619 -41.178)" fill="#fc8116"/>
              <path id="Trazado_602127" data-name="Trazado 602127" d="M319.666,90.618a4.882,4.882,0,0,1-.825-.333c-.52-.236-1.278-.566-2.22-.96a66.542,66.542,0,0,0-15.3-4.364c-1.008-.162-1.826-.282-2.392-.356a5.109,5.109,0,0,1-.877-.152,4.857,4.857,0,0,1,.89.034c.571.039,1.4.125,2.411.261a56.353,56.353,0,0,1,15.351,4.379c.934.42,1.68.781,2.186,1.05a5.125,5.125,0,0,1,.774.44" transform="translate(-124.156 -35.175)" fill="#e8505b"/>
              <path id="Trazado_602128" data-name="Trazado 602128" d="M318.566,97.365a4.884,4.884,0,0,1-.825-.333c-.52-.236-1.278-.566-2.22-.96a66.54,66.54,0,0,0-15.3-4.364c-1.008-.162-1.826-.282-2.392-.356a5.115,5.115,0,0,1-.877-.152,5,5,0,0,1,.89.034c.571.039,1.4.125,2.411.261a56.351,56.351,0,0,1,15.351,4.379c.934.42,1.68.781,2.186,1.05a5.118,5.118,0,0,1,.774.44" transform="translate(-123.697 -37.986)" fill="#e8505b"/>
              <path id="Trazado_602129" data-name="Trazado 602129" d="M317.467,104.111a4.994,4.994,0,0,1-.825-.334c-.52-.236-1.278-.566-2.22-.96a66.541,66.541,0,0,0-15.3-4.364c-1.008-.162-1.826-.282-2.392-.356a5.113,5.113,0,0,1-.877-.152,4.924,4.924,0,0,1,.89.034c.571.038,1.4.125,2.411.261a56.351,56.351,0,0,1,15.351,4.379c.934.42,1.68.781,2.186,1.05a5.021,5.021,0,0,1,.774.441" transform="translate(-123.24 -40.796)" fill="#e8505b"/>
              <path id="Trazado_602130" data-name="Trazado 602130" d="M315.727,110.857a4.752,4.752,0,0,1-.8-.333c-.5-.235-1.238-.565-2.149-.958a63.1,63.1,0,0,0-14.843-4.366c-.98-.163-1.775-.282-2.326-.357a4.76,4.76,0,0,1-.852-.152,4.7,4.7,0,0,1,.865.034c.556.039,1.358.125,2.345.262a53.474,53.474,0,0,1,14.9,4.382c.9.419,1.626.779,2.114,1.048a4.737,4.737,0,0,1,.747.439" transform="translate(-122.782 -43.606)" fill="#e8505b"/>
              <path id="Trazado_602131" data-name="Trazado 602131" d="M312.48,116.806a3.833,3.833,0,0,1-.722-.287l-1.928-.858a47.109,47.109,0,0,0-13.318-3.8l-2.091-.289a3.8,3.8,0,0,1-.764-.137,3.807,3.807,0,0,1,.777.019c.5.029,1.218.1,2.106.194a40.4,40.4,0,0,1,13.378,3.817c.806.385,1.453.708,1.891.947a3.776,3.776,0,0,1,.67.393" transform="translate(-122.324 -46.414)" fill="#e8505b"/>
              <path id="Trazado_602132" data-name="Trazado 602132" d="M302.426,120.058a9.342,9.342,0,0,1-1.507-.312c-.923-.215-2.2-.491-3.626-.735s-2.722-.424-3.662-.558a8.341,8.341,0,0,1-1.518-.263,7.263,7.263,0,0,1,1.542.05c.948.079,2.257.222,3.69.472a32.98,32.98,0,0,1,3.628.827,6.64,6.64,0,0,1,1.453.52" transform="translate(-121.681 -49.223)" fill="#e8505b"/>
              <path id="Trazado_602133" data-name="Trazado 602133" d="M244.9,70.054s.16-.013.487-.025l1.458-.048c1.288-.032,3.149-.011,5.532.124A88.046,88.046,0,0,1,271.8,73.582l.107.032-.02.113c-1.459,8.357-3.195,18.294-5.052,28.926-.075.431-.151.86-.225,1.282l-.029.163-.16-.042a128.025,128.025,0,0,0-12.973-2.676c-4.179-.641-8.176-1.1-11.889-1.331l-.143-.009.016-.14c1.021-8.919,1.877-16.391,2.478-21.648.306-2.6.546-4.652.712-6.068.084-.687.149-1.219.194-1.593l.054-.4a.782.782,0,0,1,.023-.132,1.191,1.191,0,0,1-.008.148c-.01.106-.022.243-.039.42l-.164,1.62c-.151,1.424-.368,3.488-.645,6.1-.568,5.241-1.376,12.692-2.34,21.585l-.126-.149c3.731.226,7.73.673,11.921,1.309a126.584,126.584,0,0,1,13.006,2.673l-.188.12c.074-.422.149-.851.225-1.282l5.1-28.918.088.145a90.094,90.094,0,0,0-19.358-3.573c-2.37-.158-4.248-.2-5.507-.2l-1.449,0c-.331,0-.51-.008-.51-.008" transform="translate(-100.563 -29.145)" fill="#e8505b"/>
              <path id="Trazado_602134" data-name="Trazado 602134" d="M207.2,195.939l20.653,4.573,3.156-4.573-.51-5.889-3.138-2.867H216.537l-10.1,9.1" transform="translate(-85.991 -77.971)" fill="#e8505b"/>
              <g id="Grupo_878711" data-name="Grupo 878711" transform="translate(120.444 109.211)" opacity="0.3">
                <g id="Grupo_878710" data-name="Grupo 878710">
                  <g id="Grupo_878709" data-name="Grupo 878709" clip-path="url(#clip-path-6)">
                    <path id="Trazado_602135" data-name="Trazado 602135" d="M207.2,195.939l20.653,4.573,3.156-4.573-.51-5.889-3.138-2.867H216.537l-10.1,9.1" transform="translate(-206.435 -187.182)"/>
                  </g>
                </g>
              </g>
              <path id="Trazado_602136" data-name="Trazado 602136" d="M257.806,124.154l26.07-3.511,4.1-1.158s9.4-2.064,10.275-2.378c1.014-.362,1.432.04,1.54.422.168.6-.4,1.265-1.263,1.6-.3.117-5.064,1.768-5.064,1.768a11.92,11.92,0,0,1,1.61.464c1.139.387,2.234,1.857,2.782,3.57s.55,2.242-.106,2.485a.89.89,0,0,1-.757-.105,1.76,1.76,0,0,1-.782-.98c-.915-2.732-2.624-2.947-2.624-2.947l-.537.151s1.764,1.232,1.733,2.721a1.7,1.7,0,0,1-.137.639,2.253,2.253,0,0,1-2.513,2.966c-.375-.065-.781-.287-.835-.664a1.2,1.2,0,0,1,.121-.583,1.81,1.81,0,0,0,.093-.305l-1.564.214s-3.537.292-5.063.593l-24.414,7.353a6.322,6.322,0,1,1-2.667-12.319" transform="translate(-105.107 -48.723)" fill="#ffbe9d"/>
              <path id="Trazado_602137" data-name="Trazado 602137" d="M307.438,123.418a1.313,1.313,0,0,0,1.124,1.04c.536.113,1.1.04,1.638.113,1.624.219,2.887,1.7,4.52,1.837.228.02.515-.027.582-.246.062-.2-.112-.394-.271-.534l-4.068-3.6" transform="translate(-128.064 -50.833)" fill="#ffbe9d"/>
              <path id="Trazado_602138" data-name="Trazado 602138" d="M310.954,122.031a2.2,2.2,0,0,1,.48.344c.3.236.716.586,1.232,1.023l1.8,1.547.517.451c.153.155.422.29.472.663a.458.458,0,0,1-.279.431.943.943,0,0,1-.439.072,3.577,3.577,0,0,1-.785-.156,20.825,20.825,0,0,1-2.609-1.323,4.077,4.077,0,0,0-1.161-.386c-.378-.057-.748-.046-1.091-.07a1.911,1.911,0,0,1-1.485-.642c-.242-.33-.19-.579-.18-.571a1.587,1.587,0,0,0,.272.493,1.851,1.851,0,0,0,1.4.5,11.154,11.154,0,0,1,1.116.034,4.218,4.218,0,0,1,1.247.382,24.2,24.2,0,0,0,2.579,1.285,3.34,3.34,0,0,0,.709.144c.225.016.418-.065.4-.185,0-.134-.188-.3-.364-.452l-.511-.458-1.757-1.6c-.5-.458-.9-.833-1.167-1.1a2.164,2.164,0,0,1-.4-.434" transform="translate(-128.055 -50.832)" fill="#eb996e"/>
              <path id="Trazado_602139" data-name="Trazado 602139" d="M322.047,128a2.236,2.236,0,0,1,1.026-.013,1.728,1.728,0,0,1,.893.613,4.433,4.433,0,0,1,.642,1.218,7.007,7.007,0,0,0,.594,1.3,2.273,2.273,0,0,0,.853.821.887.887,0,0,0,.8.018c.17-.09.234-.177.229-.182s-.093.048-.259.11a.837.837,0,0,1-.7-.072,2.252,2.252,0,0,1-.761-.793,7.8,7.8,0,0,1-.564-1.274,4.3,4.3,0,0,0-.686-1.263,1.811,1.811,0,0,0-1-.633,1.609,1.609,0,0,0-.8.024c-.181.055-.267.116-.263.126" transform="translate(-134.149 -53.241)" fill="#eb996e"/>
              <path id="Trazado_602140" data-name="Trazado 602140" d="M327.493,120.445a5.618,5.618,0,0,0-.95.322l-2.266.833-2.278.8a5.717,5.717,0,0,0-.938.355,4.505,4.505,0,0,0,.98-.221c.6-.167,1.413-.427,2.3-.746s1.684-.639,2.251-.89a4.443,4.443,0,0,0,.9-.453" transform="translate(-133.739 -50.17)" fill="#eb996e"/>
              <path id="Trazado_602141" data-name="Trazado 602141" d="M319.929,130.628c-.011.011.071.091.205.238a.931.931,0,0,1,.295.718.5.5,0,0,1-.307.386,2.68,2.68,0,0,1-.63.174,1.124,1.124,0,0,0-.7.377.959.959,0,0,0-.118.858,1.088,1.088,0,0,0,.586.629,1.359,1.359,0,0,0,.786.116,4.4,4.4,0,0,0,1.209-.451,2.614,2.614,0,0,0,.7-.519.583.583,0,0,0,.162-.275c-.016-.009-.073.087-.218.221a3.08,3.08,0,0,1-.706.449,4.732,4.732,0,0,1-1.173.394,1.075,1.075,0,0,1-1.153-.626.771.771,0,0,1,.086-.679.961.961,0,0,1,.587-.314,2.647,2.647,0,0,0,.666-.207.646.646,0,0,0,.371-.517.972.972,0,0,0-.38-.789c-.156-.134-.252-.192-.26-.183" transform="translate(-132.721 -54.413)" fill="#eb996e"/>
              <path id="Trazado_602142" data-name="Trazado 602142" d="M319.514,135.357c0-.009-.112,0-.259.122a.871.871,0,0,0-.292.725,1.163,1.163,0,0,0,.691.926,1.9,1.9,0,0,0,1.415.02,2.3,2.3,0,0,0,1.124-.857,2.2,2.2,0,0,0,.379-1.09,2.078,2.078,0,0,0-.084-.768c-.056-.174-.11-.26-.121-.256a3.632,3.632,0,0,1,.065,1.011,2.174,2.174,0,0,1-.389,1,2.2,2.2,0,0,1-1.041.775,1.769,1.769,0,0,1-1.273,0,1.032,1.032,0,0,1-.627-.774.828.828,0,0,1,.2-.653c.116-.126.212-.162.205-.178" transform="translate(-132.864 -55.893)" fill="#eb996e"/>
              <path id="Trazado_602143" data-name="Trazado 602143" d="M311.476,130.336c.018,0-.009-.188-.167-.452a1.893,1.893,0,0,0-.95-.777l.01.176a5.609,5.609,0,0,0,.6-.33,4.307,4.307,0,0,0,1.635-1.684,10.91,10.91,0,0,1-1.743,1.516c-.194.124-.389.233-.572.327l-.2.1.213.073a1.984,1.984,0,0,1,.915.665c.176.228.242.393.267.383" transform="translate(-129.166 -53.014)" fill="#eb996e"/>
              <path id="Trazado_602144" data-name="Trazado 602144" d="M326.14,127.751c-.038-.037-.314.268-.344.749s.2.82.24.788-.073-.356-.041-.775.193-.73.145-.762" transform="translate(-135.71 -53.214)" fill="#eb996e"/>
              <path id="Trazado_602145" data-name="Trazado 602145" d="M104.492,136.683s-3.808-6.172-4.482-6.7-6.7-2.731-7.217-2.568-7.821,1.41-6.982,2.277,5.933-.074,5.933-.074l.684.342s-4.4.7-5.327,1.237c-.853.493-.561,1.537.246,1.453s4.63-.823,4.857-.666-4.16,1.032-4.632,1.31c-.635.376-.7,1.505.1,1.45.473-.033,4.61-1.1,4.61-1.1A35.265,35.265,0,0,0,88.7,135.2c-.5.47-.1,1.184.608,1.027.488-.107,2.805-1.212,3.459-1.355,0,0,.61.163,1.165,1.4.258.576,1.436,4.173,3.589,4.126a6.76,6.76,0,0,1,3.78,1.531Z" transform="translate(-35.717 -53.074)" fill="#ffbe9d"/>
              <path id="Trazado_602146" data-name="Trazado 602146" d="M85.883,131.121a3.37,3.37,0,0,0,1.331.368,7.877,7.877,0,0,0,1.505.062c.558-.062,1.168-.148,1.81-.237l1.363-.2-.082-.008a19.763,19.763,0,0,0,3.15.988,19.521,19.521,0,0,0-3.039-1.3l-.036-.014-.047.006-1.352.182-1.789.262a9.676,9.676,0,0,1-1.459.012c-.832-.058-1.343-.178-1.356-.127" transform="translate(-35.775 -54.479)" fill="#eb996e"/>
              <path id="Trazado_602147" data-name="Trazado 602147" d="M106.922,139.243a1.456,1.456,0,0,1-1.7,0c-.521-.313-.92-.794-1.417-1.144-1.485-1.046-3.626-.8-5.06-1.914-.2-.156-.4-.411-.288-.639.1-.212.389-.236.623-.23l6.017.145" transform="translate(-41.001 -56.365)" fill="#ffbe9d"/>
              <path id="Trazado_602148" data-name="Trazado 602148" d="M104.98,135.34a2.421,2.421,0,0,0-.649-.082c-.418-.031-1.024-.064-1.773-.1l-2.631-.1-.76-.024a1.2,1.2,0,0,0-.884.184.507.507,0,0,0-.1.561,1.05,1.05,0,0,0,.3.389,3.961,3.961,0,0,0,.755.466,23.07,23.07,0,0,0,3.118.891,4.521,4.521,0,0,1,1.235.562c.35.237.642.527.94.765a2.118,2.118,0,0,0,1.691.6c.445-.086.59-.327.576-.328a1.761,1.761,0,0,1-.593.2,2.054,2.054,0,0,1-1.518-.651c-.277-.242-.561-.544-.933-.814a4.669,4.669,0,0,0-1.3-.63,26.829,26.829,0,0,1-3.065-.9,3.627,3.627,0,0,1-.684-.418c-.195-.156-.291-.369-.184-.451.1-.107.379-.1.637-.092l.761.012,2.633.027c.75,0,1.357,0,1.776-.012a2.394,2.394,0,0,0,.652-.051" transform="translate(-40.881 -56.247)" fill="#eb996e"/>
              <path id="Trazado_602149" data-name="Trazado 602149" d="M164.362,377.529l-1.391,15.306-4.591,11.789a1.575,1.575,0,0,0,2.417,1.827c2.585-1.969,12.059-9.261,12.1-10.386.045-1.3,2.539-16.048,2.539-16.048Z" transform="translate(-65.929 -157.261)" fill="#ffa455"/>
              <g id="Grupo_878714" data-name="Grupo 878714" transform="translate(93.448 237.773)" opacity="0.6">
                <g id="Grupo_878713" data-name="Grupo 878713">
                  <g id="Grupo_878712" data-name="Grupo 878712" clip-path="url(#clip-path-7)">
                    <path id="Trazado_602150" data-name="Trazado 602150" d="M160.166,419.195,173.8,407.531l-.074.647a2.369,2.369,0,0,1-.733,1.463c-1.1,1.029-4.2,3.8-11.362,9.312a1.575,1.575,0,0,1-1.467.241" transform="translate(-160.166 -407.531)" fill="#fff"/>
                  </g>
                </g>
              </g>
              <g id="Grupo_878717" data-name="Grupo 878717" transform="translate(104.03 232.387)" opacity="0.6">
                <g id="Grupo_878716" data-name="Grupo 878716">
                  <g id="Grupo_878715" data-name="Grupo 878715" clip-path="url(#clip-path-8)">
                    <path id="Trazado_602151" data-name="Trazado 602151" d="M178.784,398.4a.953.953,0,0,0-.4,1.207.916.916,0,0,0,1.193.407,1,1,0,0,0,.417-1.28.95.95,0,0,0-1.288-.286" transform="translate(-178.302 -398.3)" fill="#fff"/>
                  </g>
                </g>
              </g>
              <path id="Trazado_602152" data-name="Trazado 602152" d="M165.365,415.325c-.091.032-.344-.807-1.2-1.34a4.794,4.794,0,0,0-1.719-.537c-.009-.039.2-.136.561-.145a2.509,2.509,0,0,1,2.261,1.452c.142.334.141.562.1.571" transform="translate(-67.665 -172.162)" fill="#263238"/>
              <path id="Trazado_602153" data-name="Trazado 602153" d="M163.226,419.115c-.08.058-.513-.495-1.278-.81a12.764,12.764,0,0,0-1.469-.362,1.744,1.744,0,0,1,1.6.052c.869.365,1.229,1.089,1.145,1.121" transform="translate(-66.848 -174.031)" fill="#263238"/>
              <path id="Trazado_602154" data-name="Trazado 602154" d="M168.512,411.082a15.662,15.662,0,0,0-1.887-1.385,15.714,15.714,0,0,0-2.2-.786,4.3,4.3,0,0,1,4.092,2.171" transform="translate(-68.49 -170.31)" fill="#263238"/>
              <path id="Trazado_602155" data-name="Trazado 602155" d="M169.995,404.1c-.051.087-.855-.362-1.948-.526-1.091-.18-1.994,0-2.016-.1a3.909,3.909,0,0,1,3.963.625" transform="translate(-69.16 -167.949)" fill="#263238"/>
              <path id="Trazado_602156" data-name="Trazado 602156" d="M170.795,396.4a5,5,0,0,0-4.1-.324c-.021-.034.167-.207.543-.371a3.434,3.434,0,0,1,3.076.243c.345.221.5.421.477.452" transform="translate(-69.438 -164.726)" fill="#263238"/>
              <path id="Trazado_602157" data-name="Trazado 602157" d="M168.908,392.565a1.335,1.335,0,0,1,.045-.58,4.038,4.038,0,0,1,.632-1.46,1.788,1.788,0,0,1,.859-.763.633.633,0,0,1,.693.221,1.03,1.03,0,0,1,.163.717,2.225,2.225,0,0,1-2.172,1.825,2.581,2.581,0,0,1-2.366-1.629.894.894,0,0,1,.043-.745.62.62,0,0,1,.683-.253,2.2,2.2,0,0,1,.946.638,4.507,4.507,0,0,1,.907,1.3,1.367,1.367,0,0,1,.174.555,7.181,7.181,0,0,0-1.247-1.688,2.063,2.063,0,0,0-.838-.536.331.331,0,0,0-.373.136.615.615,0,0,0,0,.491,2.305,2.305,0,0,0,2.068,1.389,1.932,1.932,0,0,0,1.865-1.523.745.745,0,0,0-.092-.505.341.341,0,0,0-.38-.127,1.62,1.62,0,0,0-.74.632,5.973,5.973,0,0,0-.87,1.9" transform="translate(-69.44 -162.344)" fill="#263238"/>
              <path id="Trazado_602158" data-name="Trazado 602158" d="M181.05,313.11l11.454-90.7-3.663-21.084-21.6,1.145-2.69,108.962a1.664,1.664,0,0,0,1.345,1.677l12.58,1.939a2.25,2.25,0,0,0,2.575-1.942" transform="translate(-68.544 -83.863)" fill="#263238"/>
              <path id="Trazado_602159" data-name="Trazado 602159" d="M205.372,222.166,226.2,242.784l-29.974,7.29,2.134,15.123,40.572-5.522a12.768,12.768,0,0,0,8.83-19.84l-31.606-46.4-14.122,4.6Z" transform="translate(-81.74 -80.577)" fill="#263238"/>
              <path id="Trazado_602160" data-name="Trazado 602160" d="M209.913,233.684a23.754,23.754,0,0,1,1.151,5.248,23.865,23.865,0,0,1-1.151-5.248" transform="translate(-87.432 -97.342)" fill="#455a64"/>
              <path id="Trazado_602161" data-name="Trazado 602161" d="M198.435,268.561s.166-.062.495-.166l1.459-.453,5.59-1.7,20.341-6.118-.053.194-25.007-26.631.258-.085c-.5,4.184-1.012,8.554-1.54,13.011-2.579,21.6-5,41.147-6.878,55.279-.931,7.067-1.752,12.776-2.351,16.717-.333,1.966-.553,3.5-.78,4.525l-.251,1.167c-.058.263-.1.394-.1.394s.017-.137.065-.4.125-.664.221-1.172c.207-1.027.408-2.564.723-4.53.563-3.945,1.351-9.658,2.254-16.727,1.822-14.137,4.211-33.685,6.79-55.287.529-4.456,1.047-8.826,1.544-13.01l.038-.32.221.235,24.96,26.675.131.139-.183.054-20.37,6.019-5.608,1.639-1.469.42c-.332.093-.505.132-.505.132" transform="translate(-78.988 -97.16)" fill="#455a64"/>
              <path id="Trazado_602162" data-name="Trazado 602162" d="M193.166,328.622c-.083-.011,2.3-19.261,5.313-42.991s5.532-42.967,5.615-42.956-2.3,19.257-5.313,42.995-5.532,42.963-5.615,42.952" transform="translate(-80.463 -101.087)" fill="#455a64"/>
              <path id="Trazado_602163" data-name="Trazado 602163" d="M206.094,217.234a6.755,6.755,0,0,1,.483,1.406c.255.88.572,2.107.871,3.474s.52,2.616.655,3.523a6.762,6.762,0,0,1,.146,1.479,7.682,7.682,0,0,1-.358-1.441c-.212-1-.463-2.186-.74-3.5l-.782-3.486a7.7,7.7,0,0,1-.275-1.459" transform="translate(-85.846 -90.489)" fill="#455a64"/>
              <path id="Trazado_602164" data-name="Trazado 602164" d="M208.037,214.073c-.033-.018.292-.284.846-.091a.984.984,0,0,1,.632.746,1.082,1.082,0,0,1-.472,1.1,1.051,1.051,0,0,1-1.2-.118.921.921,0,0,1,.12-1.463c.136-.076.225-.074.229-.058.028.039-.318.162-.411.629a.676.676,0,0,0,.24.676.793.793,0,0,0,.861.074.826.826,0,0,0,.354-.8.784.784,0,0,0-.442-.595,1.618,1.618,0,0,0-.76-.106" transform="translate(-86.449 -89.106)" fill="#455a64"/>
              <path id="Trazado_602165" data-name="Trazado 602165" d="M253.768,281.53c-.063.069-1.236-1.011-2.924-1.984s-3.2-1.468-3.172-1.557a11.559,11.559,0,0,1,6.1,3.541" transform="translate(-103.169 -115.794)" fill="#455a64"/>
              <path id="Trazado_602166" data-name="Trazado 602166" d="M172.408,92.563l-11.961,5.774,5.155,35.985-2.026,16.152a6.314,6.314,0,0,0,2.109,5.537L185,155.631l13.528-7.437,6.213-1.05L202.2,134.85l1.139-17.441,14.139,7.549a4.924,4.924,0,0,0,3.553.424l25.921-6.7-1.347-9.987-23.466,2.653-17.87-15.79-13.3-2.99-2.372-3.918H174.985l-.952.714a2.848,2.848,0,0,0-.983,1.348Z" transform="translate(-66.835 -36.925)" fill="#fc8116"/>
              <path id="Trazado_602167" data-name="Trazado 602167" d="M138.13,105.257a14.345,14.345,0,0,0-5.386,7.025c-1.367,4.245-4.452,21.416-4.452,21.416L114.7,125.266l-7.832,8.232,18.116,15.975a9.209,9.209,0,0,0,15.216-5.661l2.224-16.282Z" transform="translate(-44.518 -43.845)" fill="#fc8116"/>
              <path id="Trazado_602168" data-name="Trazado 602168" d="M222.227,192.554l-.842-1.238-8.944,1.653-1.646,3.811Z" transform="translate(-87.807 -79.693)" fill="#ffbe9d"/>
              <path id="Trazado_602169" data-name="Trazado 602169" d="M169.426,184.343c7.991,3.216,16.525,2.033,24.137-2,2.3-1.217,4.428-2.733,6.736-3.932a14.3,14.3,0,0,1,7.462-1.9,7.314,7.314,0,0,1,6.249,4c1.037,2.385,0,5.631-2.442,6.521l.865.772a7.749,7.749,0,0,0,3.539-10.052c-1.343-2.723-4.164-4.346-6.231-6.568-3.04-3.269-3.357-9.6-3.376-14.519" transform="translate(-70.575 -65.256)" fill="#fc8116"/>
              <path id="Trazado_602170" data-name="Trazado 602170" d="M191.753,102.317a2.8,2.8,0,0,1-.589.034,2.237,2.237,0,0,0-1.417.652,3.316,3.316,0,0,0-.706,2.282,7.589,7.589,0,0,0,.648,3.06l.225.5-.44-.327a23.7,23.7,0,0,1-3.014-2.665,22.2,22.2,0,0,1-4.633-7.094,15.809,15.809,0,0,1-.751-2.466,5.611,5.611,0,0,1-.135-.936,27.174,27.174,0,0,0,1.085,3.321,23.4,23.4,0,0,0,4.654,6.964,24.706,24.706,0,0,0,2.965,2.645l-.215.176a6.975,6.975,0,0,1-.5-1.636,7.18,7.18,0,0,1-.134-1.549,3.449,3.449,0,0,1,.822-2.4,2.255,2.255,0,0,1,1.538-.624,2.763,2.763,0,0,1,.595.061" transform="translate(-75.37 -39.723)" fill="#263238"/>
              <path id="Trazado_602171" data-name="Trazado 602171" d="M200.7,100.554a3.136,3.136,0,0,1,3.149,1.008c.467.532.73,1.271,1.345,1.621s2.561.621,3.127.189c0,0,.345-1.662.527-2.35a52.191,52.191,0,0,0,1.33-7.983c-1.883-.911-1.364-2.113-4.749-1.883a8.639,8.639,0,0,1,.118,4.773" transform="translate(-83.604 -37.96)" fill="#fc8116"/>
              <path id="Trazado_602172" data-name="Trazado 602172" d="M205.552,95.844c-.032-.009.123-.451.2-1.28a9.439,9.439,0,0,0-.421-3.457l-.044-.14.142-.008a5.84,5.84,0,0,1,2.5.225,3.814,3.814,0,0,1,1.153.831,4.663,4.663,0,0,0,1.169.809l.092.043-.011.1c-.151,1.417-.323,2.964-.591,4.56-.176,1.043-.386,2.055-.63,3.019s-.436,1.889-.643,2.766l-.013.058-.039.025a1.861,1.861,0,0,1-1,.243,6.152,6.152,0,0,1-1.81-.25,1.859,1.859,0,0,1-.767-.418,8,8,0,0,1-.9-1.233,3.155,3.155,0,0,0-.919-.836,3.27,3.27,0,0,0-1.679-.525,3.662,3.662,0,0,0-.632.089,1.289,1.289,0,0,1,.629-.178,3.2,3.2,0,0,1,1.769.469,3.257,3.257,0,0,1,.995.859,8.367,8.367,0,0,0,.893,1.181,2.864,2.864,0,0,0,1.519.524,5.588,5.588,0,0,0,.893.048,1.663,1.663,0,0,0,.839-.2l-.052.082c.2-.882.388-1.824.627-2.782s.444-1.961.619-3c.266-1.586.443-3.127.6-4.541l.081.145a4.876,4.876,0,0,1-1.23-.865,3.6,3.6,0,0,0-1.068-.793,5.73,5.73,0,0,0-2.38-.243l.1-.148a9.02,9.02,0,0,1,.333,3.543,5.88,5.88,0,0,1-.2.95,1.332,1.332,0,0,1-.121.316" transform="translate(-83.604 -37.874)" fill="#263238"/>
              <path id="Trazado_602173" data-name="Trazado 602173" d="M224.972,158.361c-.024,0,.026-.233-.005-.67a4.068,4.068,0,0,0-.576-1.8,5.978,5.978,0,0,0-2.145-2.072,9.052,9.052,0,0,0-3.825-1.05c-1.484-.136-3.126-.055-4.894-.175a18.334,18.334,0,0,1-5.52-1.17,11.378,11.378,0,0,1-4.978-3.718,8.669,8.669,0,0,1-1.431-3,11.523,11.523,0,0,1-.328-3.4,58.955,58.955,0,0,1,.942-6.62,49.919,49.919,0,0,0,.582-6.165,51.148,51.148,0,0,0-.767-10.45,51.75,51.75,0,0,0-1.721-6.864c-.25-.8-.476-1.408-.621-1.824-.068-.2-.121-.352-.163-.475a.73.73,0,0,1-.045-.166.7.7,0,0,1,.075.155l.19.464c.166.41.41,1.013.677,1.808a47.868,47.868,0,0,1,1.82,6.863,50.213,50.213,0,0,1,.836,10.5,49.228,49.228,0,0,1-.568,6.2,59.647,59.647,0,0,0-.932,6.585,9.458,9.458,0,0,0,1.695,6.21,11.13,11.13,0,0,0,4.843,3.634,18.191,18.191,0,0,0,5.433,1.179c1.747.13,3.394.061,4.9.212a9.165,9.165,0,0,1,3.893,1.118,6.057,6.057,0,0,1,2.162,2.16,3.987,3.987,0,0,1,.533,1.855,2.4,2.4,0,0,1-.027.5.758.758,0,0,1-.029.169" transform="translate(-83.091 -45.298)" fill="#263238"/>
              <path id="Trazado_602174" data-name="Trazado 602174" d="M212.364,175.54a5.894,5.894,0,0,1-.674.7c-.222.221-.5.483-.84.767s-.712.628-1.16.962a31.8,31.8,0,0,1-3.228,2.232,32.77,32.77,0,0,1-8.844,3.7,31.781,31.781,0,0,1-3.855.734c-.553.086-1.058.113-1.5.152s-.823.056-1.135.06a5.85,5.85,0,0,1-.97-.009,5.91,5.91,0,0,1,.963-.109c.31-.022.689-.053,1.127-.111s.939-.1,1.485-.2a35.711,35.711,0,0,0,3.814-.792,34.842,34.842,0,0,0,8.773-3.673,35.575,35.575,0,0,0,3.24-2.162c.454-.321.835-.648,1.181-.921s.637-.519.87-.725a5.929,5.929,0,0,1,.753-.609" transform="translate(-79.211 -73.122)" fill="#263238"/>
              <path id="Trazado_602175" data-name="Trazado 602175" d="M207.65,142.694a1.3,1.3,0,0,1-.051.321c-.054.241-.121.542-.2.91a13.712,13.712,0,0,1-.386,1.425c-.176.548-.345,1.183-.622,1.854l-.408,1.063c-.145.369-.33.737-.5,1.127-.335.786-.78,1.582-1.231,2.429a33.647,33.647,0,0,1-7.982,9.515c-.756.592-1.462,1.169-2.178,1.635-.354.238-.684.485-1.022.691l-.976.586c-.613.389-1.208.667-1.718.935a13.8,13.8,0,0,1-1.335.627l-.861.359a1.311,1.311,0,0,1-.307.106,1.318,1.318,0,0,1,.284-.162l.835-.41c.366-.169.81-.384,1.307-.671s1.084-.57,1.686-.969l.959-.6c.332-.21.657-.46,1.005-.7.7-.471,1.4-1.052,2.144-1.644A34.788,34.788,0,0,0,204,151.685c.454-.837.9-1.622,1.246-2.4.177-.384.366-.748.515-1.111s.288-.714.423-1.048c.288-.662.471-1.288.66-1.829s.33-1.014.433-1.4c.1-.362.19-.657.258-.894a1.323,1.323,0,0,1,.11-.307" transform="translate(-78.257 -59.44)" fill="#263238"/>
              <path id="Trazado_602176" data-name="Trazado 602176" d="M177.1,203.49a3.526,3.526,0,0,1-1.065-.793A8.105,8.105,0,0,1,173.6,196.9a3.52,3.52,0,0,1,.177-1.315c.051.006-.008.508.037,1.309a9.128,9.128,0,0,0,2.375,5.65c.542.592.942.9.911.942" transform="translate(-72.315 -81.473)" fill="#263238"/>
              <path id="Trazado_602177" data-name="Trazado 602177" d="M178.652,201.341c.087.023-.075.772.01,1.693s.358,1.632.277,1.67a3.471,3.471,0,0,1-.287-3.362" transform="translate(-74.289 -83.869)" fill="#263238"/>
              <path id="Trazado_602178" data-name="Trazado 602178" d="M165.382,146.129a.985.985,0,0,1-.071-.274c-.04-.216-.087-.478-.145-.793-.124-.737-.289-1.725-.49-2.923-.411-2.469-.991-5.875-1.69-9.628s-1.387-7.141-1.893-9.592c-.244-1.19-.446-2.171-.6-2.9-.06-.315-.11-.576-.152-.792a1.032,1.032,0,0,1-.033-.281.983.983,0,0,1,.093.267l.207.779c.174.678.411,1.663.691,2.883.561,2.441,1.281,5.825,1.982,9.582s1.247,7.173,1.6,9.651c.178,1.239.313,2.244.394,2.939.035.319.064.583.088.8a.993.993,0,0,1,.01.282" transform="translate(-66.777 -49.546)" fill="#263238"/>
              <path id="Trazado_602179" data-name="Trazado 602179" d="M232.959,145.306a1.036,1.036,0,0,1-.029-.289c-.007-.225-.015-.5-.025-.829-.018-.719-.02-1.76-.011-3.047.025-2.573.137-6.129.434-10.045s.692-7.451,1-10c.158-1.241.286-2.262.383-3.022.048-.327.088-.6.121-.82a.146.146,0,1,1,.061.007c-.018.224-.039.5-.064.826-.072.763-.169,1.787-.287,3.032-.249,2.559-.611,6.093-.906,10s-.443,7.457-.523,10.027c-.035,1.249-.064,2.278-.085,3.043-.013.33-.023.6-.032.828a1.061,1.061,0,0,1-.032.289" transform="translate(-97.01 -48.723)" fill="#263238"/>
              <path id="Trazado_602180" data-name="Trazado 602180" d="M149.1,162.236c-.1.046-.872-2.081-2.359-4.392A33.454,33.454,0,0,0,143.583,154a5.484,5.484,0,0,1,1.143.931A15.757,15.757,0,0,1,147,157.678a18.985,18.985,0,0,1,1.639,3.16,6.043,6.043,0,0,1,.466,1.4" transform="translate(-59.809 -64.15)" fill="#263238"/>
              <path id="Trazado_602181" data-name="Trazado 602181" d="M150.108,159.7a10.918,10.918,0,0,1-.654-1.136,9.133,9.133,0,0,0-2.017-2.361,12.868,12.868,0,0,0-2.67-1.627,7.576,7.576,0,0,1-1.183-.574,4.585,4.585,0,0,1,1.268.377,10.423,10.423,0,0,1,2.777,1.589,7.942,7.942,0,0,1,2.012,2.491,3.886,3.886,0,0,1,.466,1.24" transform="translate(-59.81 -64.147)" fill="#263238"/>
              <path id="Trazado_602182" data-name="Trazado 602182" d="M157.853,134.246a.87.87,0,0,1-.121.258,2.67,2.67,0,0,1-.534.623,3.551,3.551,0,0,1-2.861.771,5.535,5.535,0,0,1-3.591-2.539A12.039,12.039,0,0,1,149.561,131c-.163-.427-.327-.855-.466-1.314a3.583,3.583,0,0,1-.164-1.466,2,2,0,0,1,.711-1.324,1.68,1.68,0,0,1,1.441-.257,2.813,2.813,0,0,1,1.92,1.82,2.737,2.737,0,0,1-.238,2.386,2.971,2.971,0,0,1-1.665,1.276,2.662,2.662,0,0,1-1.728-.082,2.963,2.963,0,0,1-1.079-.733,2.5,2.5,0,0,1-.455-.685.8.8,0,0,1-.087-.272,4.02,4.02,0,0,0,.626.875,2.946,2.946,0,0,0,1.054.656,2.509,2.509,0,0,0,1.606.036,2.768,2.768,0,0,0,1.513-1.2,2.486,2.486,0,0,0,.19-2.161,2.544,2.544,0,0,0-1.725-1.625,1.385,1.385,0,0,0-1.188.207,1.707,1.707,0,0,0-.594,1.125,6.04,6.04,0,0,0,.606,2.632,12.021,12.021,0,0,0,1.14,2.309,5.366,5.366,0,0,0,3.394,2.483,3.493,3.493,0,0,0,2.749-.65,4.288,4.288,0,0,0,.731-.791" transform="translate(-61.545 -52.728)" fill="#fafafa"/>
              <path id="Trazado_602183" data-name="Trazado 602183" d="M187.287,139.271a1.125,1.125,0,0,1-.159.138l-.488.377a12.924,12.924,0,0,1-2.009,1.263,6.178,6.178,0,0,1-1.635.544,4.267,4.267,0,0,1-2.047-.133,7.216,7.216,0,0,1-3.7-3.254,11.874,11.874,0,0,1,.108-12.4,6.411,6.411,0,0,1,2.746-2.567,3.6,3.6,0,0,1,1.967-.25,2.717,2.717,0,0,1,1.763,1,2.864,2.864,0,0,1,.548,1.986,4.574,4.574,0,0,1-.632,1.985,6.466,6.466,0,0,1-3.245,2.631,8.335,8.335,0,0,1-4.163.43,8.565,8.565,0,0,1-3.756-1.556,12.838,12.838,0,0,1-4.413-6.185,7.433,7.433,0,0,1-.536-3.542,3.56,3.56,0,0,1,.679-1.612,2.5,2.5,0,0,1,1.425-.928,3.122,3.122,0,0,1,2.939,1.015,3.345,3.345,0,0,1,.709,2.8,4.44,4.44,0,0,1-1.2,2.356,5.7,5.7,0,0,1-1.973,1.292,8.986,8.986,0,0,1-3.706.56,21.511,21.511,0,0,1-2.358-.24l-.609-.1a1.047,1.047,0,0,1-.205-.044,1.072,1.072,0,0,1,.21.013l.611.068c.537.057,1.33.159,2.354.183a8.99,8.99,0,0,0,3.638-.6,5.543,5.543,0,0,0,1.9-1.269,4.251,4.251,0,0,0,1.124-2.256,3.131,3.131,0,0,0-.673-2.607,2.885,2.885,0,0,0-2.707-.925,2.7,2.7,0,0,0-1.9,2.337,7.193,7.193,0,0,0,.537,3.406,12.589,12.589,0,0,0,4.322,6.037,8.273,8.273,0,0,0,3.627,1.5,8.043,8.043,0,0,0,4.011-.414,6.177,6.177,0,0,0,3.093-2.5,4.282,4.282,0,0,0,.593-1.853,2.568,2.568,0,0,0-.485-1.784,2.421,2.421,0,0,0-1.574-.89,3.314,3.314,0,0,0-1.808.226,6.15,6.15,0,0,0-2.624,2.453,11.438,11.438,0,0,0-1.779,6.476,11.561,11.561,0,0,0,1.62,5.657A7.066,7.066,0,0,0,181,141.3a4.823,4.823,0,0,0,3.58-.356,14.115,14.115,0,0,0,2.023-1.205l.5-.352a1.1,1.1,0,0,1,.177-.113" transform="translate(-68.042 -48.793)" fill="#fafafa"/>
              <path id="Trazado_602184" data-name="Trazado 602184" d="M168.51,98.965a1.739,1.739,0,0,1-.186.522,8.277,8.277,0,0,1-.749,1.313,9.613,9.613,0,0,1-8.648,4.127,8.293,8.293,0,0,1-1.491-.244,1.743,1.743,0,0,1-.523-.184c.013-.055.771.169,2.025.214a10.024,10.024,0,0,0,8.464-4.038c.754-1,1.057-1.733,1.108-1.709" transform="translate(-65.363 -41.224)" fill="#fafafa"/>
              <path id="Trazado_602185" data-name="Trazado 602185" d="M189.61,103.185a3.737,3.737,0,0,0-2.711,2.3c-.036-.005-.047-.232.068-.576a2.732,2.732,0,0,1,2.064-1.752c.358-.057.58-.01.579.026" transform="translate(-77.843 -42.96)" fill="#fafafa"/>
              <path id="Trazado_602186" data-name="Trazado 602186" d="M210.3,105.377a1.336,1.336,0,0,1-.5-.228,4.042,4.042,0,0,1-1.1-1.009,3.964,3.964,0,0,1-.809-2.069,1.974,1.974,0,0,1,.358-1.31,1.354,1.354,0,0,1,1.352-.571,1.5,1.5,0,0,1,1.061,1.019,1.4,1.4,0,0,1-.267,1.342,1.888,1.888,0,0,1-2.114.56,2.371,2.371,0,0,1-1.153-.955,1.11,1.11,0,0,1-.218-.5c.024-.011.1.166.314.434a2.43,2.43,0,0,0,1.128.82,1.673,1.673,0,0,0,1.824-.532,1.123,1.123,0,0,0,.2-1.076,1.217,1.217,0,0,0-.842-.814,1.064,1.064,0,0,0-1.05.454,1.706,1.706,0,0,0-.316,1.118,3.9,3.9,0,0,0,.7,1.956,6.085,6.085,0,0,0,1.418,1.363" transform="translate(-86.19 -41.722)" fill="#fafafa"/>
              <path id="Trazado_602187" data-name="Trazado 602187" d="M213.673,96.053a5.388,5.388,0,0,0-4.242-1.741c-.008-.035.253-.14.7-.174a3.958,3.958,0,0,1,3.161,1.3c.3.341.408.6.378.618" transform="translate(-87.239 -39.209)" fill="#fafafa"/>
              <path id="Trazado_602188" data-name="Trazado 602188" d="M228.418,105.658a.448.448,0,0,1-.115.072l-.351.183a15.162,15.162,0,0,1-1.4.6,16.89,16.89,0,0,1-5.5,1.033,7.8,7.8,0,0,1-1.866-.18,4.066,4.066,0,0,1-1.84-.9,2.73,2.73,0,0,1-.9-2,3.363,3.363,0,0,1,.776-2.194,4.51,4.51,0,0,1,4.645-1.194,5.411,5.411,0,0,1,3.723,3.606,5.321,5.321,0,0,1-1.111,5.057,8.152,8.152,0,0,1-4.321,2.325,24.78,24.78,0,0,1-4.425.447,24.449,24.449,0,0,0-3.82.373,7.745,7.745,0,0,0-4.7,2.682,5.62,5.62,0,0,0-.9,1.812.441.441,0,0,1,.019-.134,3.748,3.748,0,0,1,.093-.386,4.678,4.678,0,0,1,.689-1.362,7.759,7.759,0,0,1,4.752-2.821,23.973,23.973,0,0,1,3.851-.414,24.925,24.925,0,0,0,4.375-.469,7.9,7.9,0,0,0,4.161-2.249,5.03,5.03,0,0,0,1.043-4.773,5.124,5.124,0,0,0-3.513-3.406,4.237,4.237,0,0,0-4.35,1.088,3.1,3.1,0,0,0-.723,2.01,2.472,2.472,0,0,0,.805,1.817,3.854,3.854,0,0,0,1.724.854,7.663,7.663,0,0,0,1.81.194,17.5,17.5,0,0,0,5.459-.929c.623-.211,1.1-.406,1.416-.54a3.822,3.822,0,0,1,.491-.2" transform="translate(-85.941 -42.023)" fill="#fafafa"/>
              <path id="Trazado_602189" data-name="Trazado 602189" d="M213.462,145.622c-.049.022-.253-.489-.785-1.172a6,6,0,0,0-5.963-2.241c-.851.163-1.341.414-1.363.365a3.188,3.188,0,0,1,1.316-.575,5.771,5.771,0,0,1,6.183,2.324,3.177,3.177,0,0,1,.612,1.3" transform="translate(-85.54 -59.077)" fill="#fafafa"/>
              <path id="Trazado_602190" data-name="Trazado 602190" d="M225.1,155.893a2.86,2.86,0,0,1-.8,1.179,4.888,4.888,0,0,1-6.4.507,2.86,2.86,0,0,1-.974-1.038c.041-.037.376.4,1.1.861a4.972,4.972,0,0,0,6.127-.487c.637-.571.9-1.053.946-1.023" transform="translate(-90.363 -64.937)" fill="#fafafa"/>
              <path id="Trazado_602191" data-name="Trazado 602191" d="M229.626,135.455c-.026.044-.377-.169-1-.333a4.273,4.273,0,0,0-4.469,1.429c-.41.494-.573.87-.619.849a2.031,2.031,0,0,1,.449-.98,4.089,4.089,0,0,1,4.7-1.5,2.027,2.027,0,0,1,.934.538" transform="translate(-93.114 -56.105)" fill="#fafafa"/>
              <path id="Trazado_602192" data-name="Trazado 602192" d="M259.573,126.11a2.382,2.382,0,0,1,.107.433,3.146,3.146,0,0,1,.073.537,4.288,4.288,0,0,1,.02.74,7.4,7.4,0,0,1-1.672,4.348,7.693,7.693,0,0,1-2.516,2.074,7.791,7.791,0,0,1-3.645.837,9.8,9.8,0,0,1-7.494-3.709,5.866,5.866,0,0,1-1.056-2.021,3.831,3.831,0,0,1,.038-2.226,2.837,2.837,0,0,1,1.365-1.665,3.144,3.144,0,0,1,2.051-.243,3.487,3.487,0,0,1,1.735.92,3.994,3.994,0,0,1,.952,1.582,5.3,5.3,0,0,1-.026,3.256,6.192,6.192,0,0,1-1.377,2.312,6.31,6.31,0,0,1-1.606,1.242,5.988,5.988,0,0,1-1.191.474,2.338,2.338,0,0,1-.438.082,8.684,8.684,0,0,0,1.572-.66,6.3,6.3,0,0,0,2.836-3.515,5.114,5.114,0,0,0-.008-3.112,3.749,3.749,0,0,0-.9-1.472,3.22,3.22,0,0,0-1.6-.836,2.868,2.868,0,0,0-1.862.226,2.548,2.548,0,0,0-1.216,1.5,3.538,3.538,0,0,0-.029,2.053,5.588,5.588,0,0,0,1,1.915,9.576,9.576,0,0,0,7.257,3.615,7.429,7.429,0,0,0,5.99-2.766,7.437,7.437,0,0,0,1.721-4.219,10.774,10.774,0,0,0-.082-1.7" transform="translate(-101.324 -52.129)" fill="#fafafa"/>
              <path id="Trazado_602193" data-name="Trazado 602193" d="M278.126,138.658a1.556,1.556,0,0,1-.355-.4,4.2,4.2,0,0,1-.638-1.32,5.407,5.407,0,0,1-.088-2.173,19.869,19.869,0,0,1,.592-2.576,18.259,18.259,0,0,1,2.088-4.306c.328-.516.605-.925.8-1.2a1.831,1.831,0,0,1,.333-.416,14.755,14.755,0,0,1-.952,1.73,21.461,21.461,0,0,0-1.981,4.284,22.982,22.982,0,0,0-.606,2.527,5.514,5.514,0,0,0,.019,2.081,7.8,7.8,0,0,0,.784,1.773" transform="translate(-115.376 -52.595)" fill="#fafafa"/>
              <path id="Trazado_602194" data-name="Trazado 602194" d="M296.2,124.5a1.3,1.3,0,0,1,.176.418,7.464,7.464,0,0,1,.295,1.2,10.757,10.757,0,0,1-1.721,7.8,7.541,7.541,0,0,1-.772.964c-.2.21-.32.319-.336.3-.041-.036.387-.515.928-1.386a11.851,11.851,0,0,0,1.689-7.652c-.124-1.018-.31-1.632-.258-1.648" transform="translate(-122.398 -51.861)" fill="#fafafa"/>
              <path id="Trazado_602195" data-name="Trazado 602195" d="M222.072,169.886a1.038,1.038,0,0,1-.255-.131,6.72,6.72,0,0,0-.712-.388,8.361,8.361,0,0,0-2.844-.8,8.666,8.666,0,0,0-4.284.687,7.356,7.356,0,0,0-2.14,1.418,4.4,4.4,0,0,0-.843,1.042A2.106,2.106,0,0,0,210.7,173a1.526,1.526,0,0,0,.623,1.1,1.246,1.246,0,0,0,1.189.055,2.09,2.09,0,0,0,1.082-2.05,4.143,4.143,0,0,0-2.163-3.509,4.262,4.262,0,0,0-2.857-.378,8.728,8.728,0,0,0-1.038.336.942.942,0,0,1,.242-.156,3.826,3.826,0,0,1,.769-.3,4.27,4.27,0,0,1,2.983.3,4.345,4.345,0,0,1,2.345,3.695,3.024,3.024,0,0,1-.247,1.317,1.981,1.981,0,0,1-.994,1.009,1.542,1.542,0,0,1-1.474-.074,1.821,1.821,0,0,1-.76-1.312,2.4,2.4,0,0,1,.331-1.465,4.72,4.72,0,0,1,.9-1.11A7.551,7.551,0,0,1,213.864,169a8.708,8.708,0,0,1,4.42-.644,7.93,7.93,0,0,1,2.876.906,4.775,4.775,0,0,1,.691.442,1.016,1.016,0,0,1,.221.181" transform="translate(-86.45 -69.962)" fill="#fafafa"/>
              <path id="Trazado_602196" data-name="Trazado 602196" d="M234.87,179.535a3.867,3.867,0,0,1-.706,1.339c-.46.694-.889,1.218-.959,1.172a3.866,3.866,0,0,1,.706-1.34c.46-.693.889-1.217.959-1.171" transform="translate(-97.138 -74.785)" fill="#fafafa"/>
              <path id="Trazado_602197" data-name="Trazado 602197" d="M246.4,192.383c-.047.013-.128-.208-.331-.509a3.029,3.029,0,0,0-2.372-1.321c-.363-.013-.594.034-.608-.013s.2-.158.6-.2a2.664,2.664,0,0,1,2.565,1.428c.172.359.179.61.145.617" transform="translate(-101.258 -79.281)" fill="#fafafa"/>
              <path id="Trazado_602198" data-name="Trazado 602198" d="M201.651,188.752c.021.043-.7.4-1.828,1.045a15.782,15.782,0,0,0-3.969,3.067,8.448,8.448,0,0,0-2.1,4.459,10.316,10.316,0,0,0,.033,2.08,1.708,1.708,0,0,1-.167-.546,5.537,5.537,0,0,1-.079-1.557,8.18,8.18,0,0,1,2.087-4.638,14.293,14.293,0,0,1,4.092-3.054c.581-.3,1.061-.522,1.4-.665a1.991,1.991,0,0,1,.536-.191" transform="translate(-80.611 -78.624)" fill="#fafafa"/>
              <path id="Trazado_602199" data-name="Trazado 602199" d="M221.337,189.6c-.019.023-.327-.192-.636-.7a3.9,3.9,0,0,1,.363-4.357c.389-.452.728-.613.743-.586.033.043-.251.262-.573.717a4.187,4.187,0,0,0-.344,4.124c.242.5.485.766.446.8" transform="translate(-91.726 -76.628)" fill="#fafafa"/>
              <path id="Trazado_602200" data-name="Trazado 602200" d="M186,174.384c-.014.01-.1-.132-.334-.338a2.424,2.424,0,0,0-1.215-.54,3.033,3.033,0,0,0-2.035.425,6.187,6.187,0,0,0-1.932,2.039c-.576.886-1.065,1.954-1.8,2.992a6.362,6.362,0,0,1-3.217,2.4,5.962,5.962,0,0,1-4.416-.257,6.317,6.317,0,0,1-3.247-3.462,3.765,3.765,0,0,1-.1-2.462,3.449,3.449,0,0,1,1.513-1.855,3.552,3.552,0,0,1,2.254-.516,3.719,3.719,0,0,1,2,.953,4.9,4.9,0,0,1,1.583,3.668,6.059,6.059,0,0,1-1.089,3.332,6.763,6.763,0,0,1-2.11,1.984,8.383,8.383,0,0,1-2,.872,8.9,8.9,0,0,1-1.348.285c-.156.023-.276.031-.356.037a.379.379,0,0,1-.123,0,3.555,3.555,0,0,1,.469-.1,11.006,11.006,0,0,0,1.323-.338,8.577,8.577,0,0,0,1.949-.9,6.665,6.665,0,0,0,2.021-1.96,5.864,5.864,0,0,0,1.016-3.213,4.652,4.652,0,0,0-1.518-3.458,3.441,3.441,0,0,0-1.85-.873,3.265,3.265,0,0,0-2.065.482,3.161,3.161,0,0,0-1.381,1.7,3.474,3.474,0,0,0,.1,2.264,6.043,6.043,0,0,0,3.088,3.3,5.691,5.691,0,0,0,4.2.26,6.123,6.123,0,0,0,3.1-2.286c.727-1,1.229-2.067,1.827-2.961a6.293,6.293,0,0,1,2.026-2.069,3.135,3.135,0,0,1,2.141-.394,2.393,2.393,0,0,1,1.237.611,1.462,1.462,0,0,1,.293.383" transform="translate(-69.788 -71.978)" fill="#fafafa"/>
              <path id="Trazado_602201" data-name="Trazado 602201" d="M197.627,185.891a2.827,2.827,0,0,1-.941-.744,6.426,6.426,0,0,1-1.615-5.415,2.828,2.828,0,0,1,.38-1.138c.05.017-.09.451-.167,1.169a7.135,7.135,0,0,0,1.563,5.243c.458.558.813.844.78.886" transform="translate(-81.22 -74.394)" fill="#fafafa"/>
              <path id="Trazado_602202" data-name="Trazado 602202" d="M188.457,163.123c-.016.03-.411-.2-1.173-.495a13.987,13.987,0,0,0-8.4-.629,11.333,11.333,0,0,0-2.8,1.049,1.865,1.865,0,0,0-.927,1.108,1.054,1.054,0,0,0,.6,1.174.63.63,0,0,0,.615-.186,1.535,1.535,0,0,0,.349-.651,5.4,5.4,0,0,0,.134-1.55,7.016,7.016,0,0,0-.747-2.864,6.69,6.69,0,0,0-1.647-2.117,6.551,6.551,0,0,0-2.032-1.168,7.087,7.087,0,0,0-3.382-.337c-.8.128-1.228.305-1.237.275a1.354,1.354,0,0,1,.3-.137,5.973,5.973,0,0,1,.916-.256,6.923,6.923,0,0,1,3.472.25,6.679,6.679,0,0,1,2.124,1.179,6.881,6.881,0,0,1,1.735,2.183,7.23,7.23,0,0,1,.794,2.978,5.608,5.608,0,0,1-.141,1.647,1.827,1.827,0,0,1-.426.783.936.936,0,0,1-.91.263,1.153,1.153,0,0,1-.693-.628,1.468,1.468,0,0,1-.127-.9,2.144,2.144,0,0,1,1.069-1.305,11.38,11.38,0,0,1,2.889-1.067,13.835,13.835,0,0,1,5.168-.188,13.022,13.022,0,0,1,3.347.98,8.131,8.131,0,0,1,.847.428,1.326,1.326,0,0,1,.28.176" transform="translate(-69.902 -65.076)" fill="#fafafa"/>
              <path id="Trazado_602203" data-name="Trazado 602203" d="M121.611,159.96c-.019-.025.362-.282.938-.865a8.131,8.131,0,0,0,1.834-2.894,6.341,6.341,0,0,0-.147-4.937,6.236,6.236,0,0,0-1.862-2.3,5.245,5.245,0,0,0-2.938-1.1,3.387,3.387,0,0,0-1.544.323,1.949,1.949,0,0,0-1.026,1.041,1.5,1.5,0,0,0,.209,1.354,2.207,2.207,0,0,0,1.107.821,3.014,3.014,0,0,0,2.526-.429,4.278,4.278,0,0,0,1.532-1.739,8.782,8.782,0,0,0,.73-3.351c.016-.383.03-.7.04-.946a1.385,1.385,0,0,1,.029-.331,1.361,1.361,0,0,1,.033.331c.01.217.02.537.016.951a8.436,8.436,0,0,1-.655,3.44,4.456,4.456,0,0,1-1.588,1.857,3.262,3.262,0,0,1-2.749.485,2.474,2.474,0,0,1-1.26-.924,1.793,1.793,0,0,1-.251-1.616,2.24,2.24,0,0,1,1.176-1.215,3.672,3.672,0,0,1,1.685-.355,5.516,5.516,0,0,1,3.11,1.17,6.478,6.478,0,0,1,1.935,2.417,6.1,6.1,0,0,1,.576,2.742,7.082,7.082,0,0,1-.481,2.39,7.874,7.874,0,0,1-1.952,2.9,5.968,5.968,0,0,1-.737.605,1.38,1.38,0,0,1-.283.175" transform="translate(-48.524 -60.236)" fill="#fafafa"/>
              <path id="Trazado_602204" data-name="Trazado 602204" d="M144.034,174.937a2.436,2.436,0,0,1-.456-.485,9.533,9.533,0,0,1-1-1.518,10.77,10.77,0,0,1,.753-11.418,9.509,9.509,0,0,1,1.189-1.373,2.434,2.434,0,0,1,.516-.421c.043.043-.686.659-1.529,1.916a11.083,11.083,0,0,0-.739,11.2c.671,1.357,1.313,2.064,1.264,2.1" transform="translate(-58.855 -66.532)" fill="#fafafa"/>
              <path id="Trazado_602205" data-name="Trazado 602205" d="M156.516,157.976c-.055.02-.3-.878-1.02-2.165a11.988,11.988,0,0,0-9.221-6.1c-1.468-.162-2.388-.033-2.392-.092a2.368,2.368,0,0,1,.64-.11,10.137,10.137,0,0,1,1.773-.012,11.551,11.551,0,0,1,9.39,6.21,10.169,10.169,0,0,1,.683,1.636,2.37,2.37,0,0,1,.149.632" transform="translate(-59.934 -62.26)" fill="#fafafa"/>
              <g id="Grupo_878720" data-name="Grupo 878720" transform="translate(112.122 104.218)" opacity="0.3">
                <g id="Grupo_878719" data-name="Grupo 878719">
                  <g id="Grupo_878718" data-name="Grupo 878718" clip-path="url(#clip-path-9)">
                    <path id="Trazado_602206" data-name="Trazado 602206" d="M192.574,186.452c-.556.238-.5,1.127-.038,1.512a2.5,2.5,0,0,0,1.733.37,22.519,22.519,0,0,0,17.286-9.709c-5.275,4.327-12.193,5.962-18.848,7.47" transform="translate(-192.171 -178.625)"/>
                  </g>
                </g>
              </g>
              <g id="Grupo_878723" data-name="Grupo 878723" transform="translate(111.207 87.491)" opacity="0.3">
                <g id="Grupo_878722" data-name="Grupo 878722">
                  <g id="Grupo_878721" data-name="Grupo 878721" clip-path="url(#clip-path-10)">
                    <path id="Trazado_602207" data-name="Trazado 602207" d="M190.88,168.557a2.394,2.394,0,0,1,.554-2.862,9.624,9.624,0,0,1,2.7-1.605,17.046,17.046,0,0,0,7.862-8.073c1.06-2.3,1.865-5.117,4.212-6.061a22.786,22.786,0,0,1-15,17.888" transform="translate(-190.603 -149.956)"/>
                  </g>
                </g>
              </g>
              <g id="Grupo_878726" data-name="Grupo 878726" transform="translate(92.924 75.842)" opacity="0.3">
                <g id="Grupo_878725" data-name="Grupo 878725">
                  <g id="Grupo_878724" data-name="Grupo 878724" clip-path="url(#clip-path-11)">
                    <path id="Trazado_602208" data-name="Trazado 602208" d="M161.263,129.989a59.266,59.266,0,0,1-1.343,19.069,16.315,16.315,0,0,0-.651,4.018,5.34,5.34,0,0,0,1.94,3.772c.97-2.23.987-4.383,1.4-6.788.368-2.168.984-7.224.985-7.3a28.631,28.631,0,0,0-2.658-12.2" transform="translate(-159.268 -129.989)"/>
                  </g>
                </g>
              </g>
              <g id="Grupo_878729" data-name="Grupo 878729" transform="translate(105.596 56.589)" opacity="0.3">
                <g id="Grupo_878728" data-name="Grupo 878728">
                  <g id="Grupo_878727" data-name="Grupo 878727" clip-path="url(#clip-path-12)">
                    <path id="Trazado_602209" data-name="Trazado 602209" d="M181.307,97.089a23.251,23.251,0,0,0,6.6,12.391c1.291,1.257,2.894,2.419,4.695,2.361a10.986,10.986,0,0,1-.9-6.878,28.461,28.461,0,0,0,4.805,2.614,9.554,9.554,0,0,0,5.368.61q.56-4.848,1.121-9.7a1.791,1.791,0,0,0-.1-1.083.619.619,0,0,0-.924-.221.889.889,0,0,0-.181.425c-.658,2.834-1.023,5.369-1.681,8.2-.471.468-1.925.275-2.882-.078-.834-.307-1.153-1-1.705-1.693s-.454-.575-1.272-.922c-1.5-.638-4.392-.129-5.021,1.222s-.153,3.128.266,4.454a20.211,20.211,0,0,1-8.511-11.806" transform="translate(-180.986 -96.99)"/>
                  </g>
                </g>
              </g>
              <g id="Grupo_878732" data-name="Grupo 878732" transform="translate(136.503 70.372)" opacity="0.3">
                <g id="Grupo_878731" data-name="Grupo 878731">
                  <g id="Grupo_878730" data-name="Grupo 878730" clip-path="url(#clip-path-13)">
                    <path id="Trazado_602210" data-name="Trazado 602210" d="M235.188,120.614c-.117.235,3.633,12.882,3.633,12.882l-4.862-2.771Z" transform="translate(-233.96 -120.614)"/>
                  </g>
                </g>
              </g>
              <path id="Trazado_602211" data-name="Trazado 602211" d="M184.3,50.237V70.376a4.883,4.883,0,0,0,1.148,3.145,14.747,14.747,0,0,0,4.044,3.35l4.063,2.288,3.36-3a4.888,4.888,0,0,0,1.627-3.453c.058-1.467.058-2.945.058-2.945s5.693-.408,6.228-6.023c.251-2.644.331-8.057.345-13.047a10.921,10.921,0,0,0-10.022-10.909l-.16-.013A10.436,10.436,0,0,0,184.3,50.237" transform="translate(-76.771 -16.564)" fill="#ffbe9d"/>
              <path id="Trazado_602212" data-name="Trazado 602212" d="M203.712,89.2a13.621,13.621,0,0,1-7.138-2.769s1.473,4.26,7.123,4.218Z" transform="translate(-81.884 -36.003)" fill="#eb996e"/>
              <path id="Trazado_602213" data-name="Trazado 602213" d="M216.078,64.111a.805.805,0,0,1-.841.746.77.77,0,0,1-.767-.792.805.805,0,0,1,.84-.746.771.771,0,0,1,.768.793" transform="translate(-89.338 -26.375)" fill="#263238"/>
              <path id="Trazado_602214" data-name="Trazado 602214" d="M215.354,61.674c-.108.1-.679-.4-1.543-.473s-1.533.31-1.617.2c-.043-.051.075-.232.367-.41a2.213,2.213,0,0,1,1.306-.287,2.123,2.123,0,0,1,1.217.508c.249.226.323.422.27.465" transform="translate(-88.386 -25.282)" fill="#263238"/>
              <path id="Trazado_602215" data-name="Trazado 602215" d="M202.116,63.409a.805.805,0,0,1-.841.746.771.771,0,0,1-.768-.792.806.806,0,0,1,.841-.746.771.771,0,0,1,.768.792" transform="translate(-83.522 -26.083)" fill="#263238"/>
              <path id="Trazado_602216" data-name="Trazado 602216" d="M200.782,60.746c-.109.1-.68-.4-1.543-.473s-1.532.31-1.617.2c-.042-.05.074-.231.368-.409a2.212,2.212,0,0,1,1.305-.287,2.124,2.124,0,0,1,1.218.508c.248.225.323.422.27.465" transform="translate(-82.316 -24.895)" fill="#263238"/>
              <path id="Trazado_602217" data-name="Trazado 602217" d="M207.507,67.707a5.712,5.712,0,0,1,1.424-.137c.222,0,.435-.031.484-.179a1.128,1.128,0,0,0-.093-.666l-.513-1.733a28.918,28.918,0,0,1-1.1-4.514,29.1,29.1,0,0,1,1.462,4.414c.169.608.331,1.187.485,1.741a1.279,1.279,0,0,1,.043.875.557.557,0,0,1-.389.292,1.483,1.483,0,0,1-.379.021,5.616,5.616,0,0,1-1.422-.116" transform="translate(-86.438 -25.193)" fill="#263238"/>
              <path id="Trazado_602218" data-name="Trazado 602218" d="M202.934,73.532c.141,0,.065.941.813,1.673s1.754.711,1.75.843c.008.06-.238.163-.66.14a2.343,2.343,0,0,1-1.466-.651,2.043,2.043,0,0,1-.621-1.4c0-.394.121-.618.184-.607" transform="translate(-84.456 -30.63)" fill="#263238"/>
              <path id="Trazado_602219" data-name="Trazado 602219" d="M201.069,55.108c-.1.228-.958.045-1.981.083-1.025.018-1.866.247-1.983.025-.051-.106.109-.315.459-.515a3.444,3.444,0,0,1,3.019-.082c.36.18.532.38.486.489" transform="translate(-82.101 -22.623)" fill="#263238"/>
              <path id="Trazado_602220" data-name="Trazado 602220" d="M215.336,57.312c-.168.184-.746-.069-1.461-.138-.712-.093-1.332.023-1.455-.194-.053-.1.059-.293.339-.457a2.125,2.125,0,0,1,2.349.268c.236.222.3.431.228.522" transform="translate(-88.479 -23.446)" fill="#263238"/>
              <path id="Trazado_602221" data-name="Trazado 602221" d="M190.287,45.356l-.033.022a4.437,4.437,0,0,0-1.88,2.723c-.009.039-.018.076-.025.112-.352,1.585-.448,3.219-.816,4.8s-.3,2.789-1.884,3.146a2.109,2.109,0,0,1-2.205-.9,1.372,1.372,0,0,1-.139-.751c.02-3.9-.763-5.408-.421-9.455a3.424,3.424,0,0,1,1.646-2.66c.9-.537,1.984-1.081,2.889-.558s1.978,2.388,2.647,3.2" transform="translate(-76.145 -17.34)" fill="#263238"/>
              <path id="Trazado_602222" data-name="Trazado 602222" d="M184.354,62.132c-.092-.049-3.767-1.461-3.962,2.391s3.712,3.254,3.725,3.144.237-5.535.237-5.535" transform="translate(-75.14 -25.76)" fill="#ffbe9d"/>
              <path id="Trazado_602223" data-name="Trazado 602223" d="M183.713,67.02c-.016-.013-.069.044-.186.09a.671.671,0,0,1-.5-.015,1.662,1.662,0,0,1-.693-1.529,2.214,2.214,0,0,1,.236-.952.777.777,0,0,1,.531-.49.342.342,0,0,1,.387.2c.046.11.018.186.038.194s.086-.061.063-.221a.43.43,0,0,0-.139-.249.506.506,0,0,0-.366-.117.944.944,0,0,0-.732.562,2.282,2.282,0,0,0-.287,1.062,1.745,1.745,0,0,0,.894,1.713.721.721,0,0,0,.619-.071c.124-.089.149-.174.136-.182" transform="translate(-75.839 -26.632)" fill="#eb996e"/>
              <path id="Trazado_602224" data-name="Trazado 602224" d="M190.216,40.03c-.819-1.616,1.956-3.608,3.9-4.049s4.367.69,6.2,1.473a10.514,10.514,0,0,0,3.557,1.195,8.522,8.522,0,0,0,2.487-.42,6.236,6.236,0,0,1,2.5-.282,2.325,2.325,0,0,1,1.916,1.45,1.457,1.457,0,0,1-1.134,1.881,1.893,1.893,0,1,1,.214,3.538c.581-.369,1.361.384,1.237,1.061a2,2,0,0,1-1.434,1.345,7.215,7.215,0,0,1-5.122-.5c-1.613-.7-3.078-1.693-4.673-2.428s-4.259-2.039-5.958-1.593c-1.251.327-2.218,1.721-2.877,1.341a2.357,2.357,0,0,1-1.073-1.829,6.844,6.844,0,0,1,.257-2.181" transform="translate(-79.121 -14.947)" fill="#263238"/>
              <path id="Trazado_602225" data-name="Trazado 602225" d="M210.921,41.979c-.03-.022-.222.268-.672.682a5.317,5.317,0,0,1-2.249,1.2,4.887,4.887,0,0,1-3.652-.452,17.387,17.387,0,0,1-3.475-3.168,8,8,0,0,0-4.147-2.431,4.442,4.442,0,0,0-3.779.968,3.366,3.366,0,0,0-1.078,2.411,2.6,2.6,0,0,0,.107.72c.057.157.094.235.106.23a6.178,6.178,0,0,1-.065-.946,3.318,3.318,0,0,1,1.11-2.217,4.214,4.214,0,0,1,3.535-.823A7.8,7.8,0,0,1,200.6,40.51a16.855,16.855,0,0,0,3.575,3.205,5.243,5.243,0,0,0,6.173-.947,3.6,3.6,0,0,0,.45-.566c.088-.139.129-.216.118-.223" transform="translate(-79.924 -15.716)" fill="#455a64"/>
              <path id="Trazado_602226" data-name="Trazado 602226" d="M185.039,54.874c.013.015.174-.092.345-.384a2.594,2.594,0,0,0,.307-1.377c.017-1.245-.967-2.665-.965-4.386a3.873,3.873,0,0,1,.615-2.258,2.951,2.951,0,0,1,1.53-1.116,2.519,2.519,0,0,1,1.3-.068c.3.075.464.16.481.131s-.125-.147-.439-.272a2.4,2.4,0,0,0-1.412-.05,3.107,3.107,0,0,0-1.745,1.172,4.087,4.087,0,0,0-.709,2.466,7.03,7.03,0,0,0,.54,2.483,7.316,7.316,0,0,1,.537,1.914,2.968,2.968,0,0,1-.383,1.746" transform="translate(-76.789 -18.75)" fill="#455a64"/>
              <path id="Trazado_602227" data-name="Trazado 602227" d="M152.491,252.623s-.294.013-.868.022l-2.547.036c-2.239.036-5.542.121-9.789.33s-9.44.6-15.441,1.28c-3,.361-6.2.772-9.581,1.334-3.382.54-6.94,1.214-10.646,2.057s-7.561,1.85-11.5,3.137a76.96,76.96,0,0,0-11.93,4.922,38.983,38.983,0,0,0-5.721,3.654,18.3,18.3,0,0,0-4.684,5.124c-.142.258-.3.511-.429.773l-.33.823-.166.412c-.046.141-.072.287-.109.431l-.208.866a8.7,8.7,0,0,0,.175,3.56,13.047,13.047,0,0,0,3.921,6.119c3.656,3.433,8.318,5.823,13.153,7.827a107.873,107.873,0,0,0,15.325,4.848,201.609,201.609,0,0,0,33.453,4.926,265.66,265.66,0,0,0,33.846.132,212.954,212.954,0,0,0,31.247-4.077,132.28,132.28,0,0,0,14.168-3.821,70.527,70.527,0,0,0,12.664-5.517,34.67,34.67,0,0,0,5.339-3.8,15.447,15.447,0,0,0,3.866-4.921l.287-.712a3.758,3.758,0,0,0,.247-.72l.178-.738c.027-.123.065-.244.083-.368l.03-.376a7.373,7.373,0,0,0-.219-2.943,10.457,10.457,0,0,0-1.234-2.634,16.15,16.15,0,0,0-1.806-2.218,27.232,27.232,0,0,0-4.271-3.52,45.2,45.2,0,0,0-4.526-2.7,78.469,78.469,0,0,0-8.826-3.928,132.682,132.682,0,0,0-14.8-4.561c-4.126-1.032-7.365-1.68-9.564-2.1-1.1-.219-1.94-.359-2.5-.467s-.852-.165-.852-.165,1.164.171,3.368.572,5.448,1.032,9.581,2.047a131.055,131.055,0,0,1,14.827,4.518A78.253,78.253,0,0,1,224.55,266a45.272,45.272,0,0,1,4.551,2.7,27.472,27.472,0,0,1,4.311,3.54,16.4,16.4,0,0,1,1.836,2.247,10.661,10.661,0,0,1,1.265,2.693,7.586,7.586,0,0,1,.232,3.03l-.031.386c-.018.127-.057.251-.084.378l-.181.757a3.883,3.883,0,0,1-.251.738l-.292.729a15.666,15.666,0,0,1-3.917,5,34.9,34.9,0,0,1-5.375,3.84,70.641,70.641,0,0,1-12.706,5.552,132.255,132.255,0,0,1-14.195,3.842,212.65,212.65,0,0,1-31.287,4.1,265.187,265.187,0,0,1-33.885-.127,201.444,201.444,0,0,1-33.5-4.94A108.033,108.033,0,0,1,85.674,295.6c-4.852-2.016-9.536-4.415-13.236-7.893a13.311,13.311,0,0,1-3.993-6.253,8.973,8.973,0,0,1-.176-3.673l.215-.892c.039-.148.067-.3.113-.443l.17-.423.34-.844c.138-.268.294-.527.44-.791a18.527,18.527,0,0,1,4.755-5.2,39.14,39.14,0,0,1,5.764-3.672,77.018,77.018,0,0,1,11.975-4.923c3.953-1.284,7.817-2.287,11.529-3.123s7.276-1.505,10.662-2.039c3.383-.555,6.591-.959,9.593-1.312,6.008-.67,11.205-1.027,15.455-1.229s7.554-.257,9.794-.273l2.548-.005c.574,0,.868.009.868.009" transform="translate(-28.394 -105.227)" fill="#e8505b"/>
              <path id="Trazado_602228" data-name="Trazado 602228" d="M95.713,173.828s-.331.074-.981.2-1.618.312-2.883.583c-2.53.526-6.258,1.338-10.993,2.632A112.732,112.732,0,0,0,64.013,183.2c-1.583.727-3.2,1.523-4.819,2.442a45.175,45.175,0,0,0-4.836,3.1,26.6,26.6,0,0,0-4.465,4.1,14.063,14.063,0,0,0-3.027,5.55,10.192,10.192,0,0,0,.48,6.534,16.889,16.889,0,0,0,4.039,5.649,45.418,45.418,0,0,0,12.5,7.98c9.4,4.27,20.13,7.133,31.519,9.271a264.618,264.618,0,0,0,36.16,3.988,311.6,311.6,0,0,0,39.058-.7,226.112,226.112,0,0,0,38.537-6.279,115.533,115.533,0,0,0,17.552-6.026,60.026,60.026,0,0,0,7.93-4.233,30.2,30.2,0,0,0,6.68-5.636,12.643,12.643,0,0,0,3.312-7.658,6.62,6.62,0,0,0-.036-1.043,6.858,6.858,0,0,0-.11-1.033l-.228-1.013a6.95,6.95,0,0,0-.333-.979,14.607,14.607,0,0,0-2-3.578,27.455,27.455,0,0,0-5.918-5.467,53.708,53.708,0,0,0-6.775-3.96,95.789,95.789,0,0,0-13.876-5.446c-4.57-1.43-9.029-2.563-13.312-3.512a256.518,256.518,0,0,0-41.2-5.255c-4.9-.254-8.717-.265-11.3-.331l-2.94-.064c-.662-.016-1-.032-1-.032s.34,0,1,0l2.941.034c2.585.046,6.4.038,11.305.274a253.6,253.6,0,0,1,41.237,5.163c4.29.943,8.756,2.071,13.336,3.5a95.8,95.8,0,0,1,13.918,5.445,53.905,53.905,0,0,1,6.812,3.973,27.672,27.672,0,0,1,5.982,5.518,14.885,14.885,0,0,1,2.043,3.644,7.213,7.213,0,0,1,.34,1l.234,1.039a7.083,7.083,0,0,1,.115,1.061,6.915,6.915,0,0,1,.038,1.071,10.865,10.865,0,0,1-1.012,4.174,15.5,15.5,0,0,1-2.36,3.654,30.462,30.462,0,0,1-6.74,5.7,60.346,60.346,0,0,1-7.965,4.258,115.707,115.707,0,0,1-17.6,6.049,226.022,226.022,0,0,1-38.588,6.294,311.079,311.079,0,0,1-39.1.691,264.238,264.238,0,0,1-36.2-4.011c-11.4-2.149-22.15-5.024-31.573-9.317a45.619,45.619,0,0,1-12.559-8.041,17.117,17.117,0,0,1-4.084-5.732,10.414,10.414,0,0,1-.48-6.672,14.261,14.261,0,0,1,3.079-5.629,26.765,26.765,0,0,1,4.5-4.127,45.463,45.463,0,0,1,4.862-3.106c1.625-.918,3.249-1.714,4.837-2.438a112.084,112.084,0,0,1,16.881-5.913c4.745-1.278,8.478-2.07,11.013-2.578s3.876-.726,3.876-.726" transform="translate(-19.295 -70.637)" fill="#e8505b"/>
              <path id="Trazado_602229" data-name="Trazado 602229" d="M136.257,326.375l-2.91.459c-1.907.306-4.715.789-8.3,1.573a105.64,105.64,0,0,0-12.855,3.624,59.882,59.882,0,0,0-7.643,3.32,33.369,33.369,0,0,0-3.878,2.371,20.2,20.2,0,0,0-3.565,3.174,11.586,11.586,0,0,0-1.408,2.03,8.012,8.012,0,0,0-.869,2.359c-.033.21-.083.418-.1.631l-.037.642c0,.429.054.86.093,1.291a12.95,12.95,0,0,0,.335,1.265l.247.613.124.307.164.29a14.426,14.426,0,0,0,3.505,4.126,28.878,28.878,0,0,0,4.7,3.155,62.108,62.108,0,0,0,11,4.592,114.3,114.3,0,0,0,12.265,3.135,182.786,182.786,0,0,0,26.986,3.225,219.772,219.772,0,0,0,29.182-.508,155.525,155.525,0,0,0,28.744-4.954,72.431,72.431,0,0,0,12.95-4.934,32.351,32.351,0,0,0,5.634-3.639c.445-.331.819-.74,1.23-1.1s.742-.806,1.115-1.2a10.737,10.737,0,0,0,1.659-2.774,7.44,7.44,0,0,0-.257-6.152,14.772,14.772,0,0,0-4.019-4.679A41.015,41.015,0,0,0,219.92,332.9a87.926,87.926,0,0,0-10.615-3.4c-3.465-.895-6.83-1.6-10.059-2.166a199.136,199.136,0,0,0-30.905-2.827l-11.394-.063s4.057-.051,11.395-.008a197.247,197.247,0,0,1,30.926,2.771c3.233.564,6.6,1.264,10.072,2.156a88.128,88.128,0,0,1,10.636,3.4,41.126,41.126,0,0,1,10.473,5.723,14.927,14.927,0,0,1,4.066,4.731,7.607,7.607,0,0,1,.266,6.286,10.911,10.911,0,0,1-1.684,2.82c-.376.4-.722.84-1.127,1.218s-.792.782-1.24,1.115a32.531,32.531,0,0,1-5.664,3.662,72.55,72.55,0,0,1-12.981,4.952,155.467,155.467,0,0,1-28.777,4.963,219.648,219.648,0,0,1-29.207.5,182.6,182.6,0,0,1-27.011-3.239,114.311,114.311,0,0,1-12.28-3.147,62.269,62.269,0,0,1-11.025-4.613,29.005,29.005,0,0,1-4.722-3.175,14.558,14.558,0,0,1-3.536-4.172l-.166-.294-.125-.313-.25-.624a12.878,12.878,0,0,1-.34-1.288c-.04-.439-.09-.879-.093-1.316l.039-.654c.02-.216.071-.428.105-.642a8.162,8.162,0,0,1,.886-2.4,11.725,11.725,0,0,1,1.426-2.05,20.273,20.273,0,0,1,3.592-3.191,33.376,33.376,0,0,1,3.9-2.374,59.784,59.784,0,0,1,7.662-3.314,104.818,104.818,0,0,1,12.874-3.6c3.588-.774,6.4-1.246,8.308-1.54s2.916-.423,2.916-.423" transform="translate(-39.386 -135.139)" fill="#e8505b"/>
              <path id="Trazado_602230" data-name="Trazado 602230" d="M226.659,408.128a6,6,0,0,0-.485-2.126A11.142,11.142,0,0,0,221.9,401.5c-4.585-3.018-12.248-5.552-21.9-7.1a133.321,133.321,0,0,0-15.918-1.558,152.814,152.814,0,0,0-18.352.337c-3.224.256-6.52.627-9.863,1.159a94.232,94.232,0,0,0-10.131,2.137c-1.7.457-3.394.987-5.073,1.6a40.817,40.817,0,0,0-4.951,2.158,20.029,20.029,0,0,0-4.488,3.106,5.936,5.936,0,0,0-.005,9.574,20.01,20.01,0,0,0,4.487,3.109,40.808,40.808,0,0,0,4.952,2.159c1.679.617,3.375,1.146,5.074,1.6a94.138,94.138,0,0,0,10.133,2.137c3.344.532,6.641.9,9.865,1.159a152.842,152.842,0,0,0,18.355.337,133.356,133.356,0,0,0,15.919-1.559c9.647-1.55,17.309-4.084,21.893-7.1a11.13,11.13,0,0,0,4.271-4.5,5.991,5.991,0,0,0,.485-2.125c-.006.088-.017.236-.039.557a3.034,3.034,0,0,1-.121.676,4.426,4.426,0,0,1-.3.9,11.122,11.122,0,0,1-4.267,4.535c-4.587,3.036-12.254,5.585-21.907,7.147a132.974,132.974,0,0,1-15.927,1.575,152.766,152.766,0,0,1-18.369-.327c-3.226-.254-6.525-.625-9.874-1.156a94.154,94.154,0,0,1-10.146-2.138c-1.7-.458-3.4-.988-5.084-1.606a40.832,40.832,0,0,1-4.966-2.165A20.11,20.11,0,0,1,131.141,413a8.854,8.854,0,0,1-1.719-2.185,5.242,5.242,0,0,1,0-5.382,8.839,8.839,0,0,1,1.722-2.183,20.124,20.124,0,0,1,4.515-3.126,41.006,41.006,0,0,1,4.966-2.164c1.682-.618,3.38-1.147,5.082-1.605a94.109,94.109,0,0,1,10.144-2.137c3.347-.531,6.646-.9,9.871-1.156a152.73,152.73,0,0,1,18.367-.327,133,133,0,0,1,15.927,1.575c9.653,1.561,17.321,4.11,21.908,7.147a11.124,11.124,0,0,1,4.268,4.535,4.444,4.444,0,0,1,.3.9,3.044,3.044,0,0,1,.121.677c.022.321.033.47.039.557" transform="translate(-53.602 -163.539)" fill="#e8505b"/>
              <path id="Trazado_602231" data-name="Trazado 602231" d="M73.015,262.784a1.863,1.863,0,1,1-1.863-1.863,1.862,1.862,0,0,1,1.863,1.863" transform="translate(-28.863 -108.687)" fill="#e8505b"/>
              <path id="Trazado_602232" data-name="Trazado 602232" d="M361.751,264.947a1.863,1.863,0,1,1-1.862-1.862,1.863,1.863,0,0,1,1.862,1.862" transform="translate(-149.137 -109.589)" fill="#e8505b"/>
              <path id="Trazado_602233" data-name="Trazado 602233" d="M231.533,382.588a1.863,1.863,0,1,1-1.864-1.863,1.863,1.863,0,0,1,1.864,1.863" transform="translate(-94.894 -158.592)" fill="#e8505b"/>
              <path id="Trazado_602234" data-name="Trazado 602234" d="M135.912,301.209a.931.931,0,1,1-.931-.931.931.931,0,0,1,.931.931" transform="translate(-55.839 -125.082)" fill="#e8505b"/>
              <path id="Trazado_602235" data-name="Trazado 602235" d="M334.426,339.894a.931.931,0,1,1-.931-.931.931.931,0,0,1,.931.931" transform="translate(-138.53 -141.196)" fill="#e8505b"/>
              <path id="Trazado_602236" data-name="Trazado 602236" d="M208.409,413.724a.931.931,0,1,1-.931-.931.931.931,0,0,1,.931.931" transform="translate(-86.037 -171.95)" fill="#e8505b"/>
              <path id="Trazado_602237" data-name="Trazado 602237" d="M126.551,134.582a.468.468,0,1,1-.468-.468.468.468,0,0,1,.468.468" transform="translate(-52.325 -55.866)" fill="#e8505b"/>
              <path id="Trazado_602238" data-name="Trazado 602238" d="M219.677,225.97c-22.621,5.989-44.424,5.535-68.188,0l-2.775-43.439c24.556,4.781,49.207,4.175,70.963-1.027Z" transform="translate(-61.947 -75.606)" fill="#e8505b"/>
              <g id="Grupo_878735" data-name="Grupo 878735" transform="translate(86.767 105.898)" opacity="0.8">
                <g id="Grupo_878734" data-name="Grupo 878734">
                  <g id="Grupo_878733" data-name="Grupo 878733" clip-path="url(#clip-path-14)">
                    <path id="Trazado_602239" data-name="Trazado 602239" d="M219.677,225.97c-22.621,5.989-44.424,5.535-68.188,0l-2.775-43.439c24.556,4.781,49.207,4.175,70.963-1.027Z" transform="translate(-148.714 -181.504)" fill="#fff4ea"/>
                  </g>
                </g>
              </g>
              <path id="Trazado_602240" data-name="Trazado 602240" d="M221.346,246.4a.619.619,0,0,1-.141.071l-.427.181c-.379.15-.929.4-1.659.656a62.346,62.346,0,0,1-6.26,1.964,81.824,81.824,0,0,1-21.462,2.449,125.232,125.232,0,0,1-21.506-2.3c-2.721-.517-4.91-.994-6.419-1.345-.755-.171-1.338-.318-1.733-.415l-.449-.117a.612.612,0,0,1-.151-.05.647.647,0,0,1,.158.02l.456.087,1.745.36c1.515.315,3.71.76,6.432,1.249a132.145,132.145,0,0,0,21.47,2.209,84.515,84.515,0,0,0,21.4-2.353c2.681-.673,4.815-1.352,6.273-1.868.735-.243,1.291-.47,1.676-.6l.438-.153a.653.653,0,0,1,.153-.043" transform="translate(-67.123 -102.636)" fill="#e8505b"/>
              <path id="Trazado_602241" data-name="Trazado 602241" d="M201.15,237.872a14.868,14.868,0,0,1-8.71-.291V222.119a21.87,21.87,0,0,1,8.71,0Z" transform="translate(-80.161 -92.342)" fill="#fc8116"/>
              <path id="Trazado_602242" data-name="Trazado 602242" d="M224.693,230.975a.568.568,0,0,1-.012-.119c0-.09-.009-.2-.015-.337q-.012-.472-.035-1.291c-.023-1.142-.055-2.768-.1-4.8-.061-4.1-.148-9.845-.248-16.5l.116.141a23.356,23.356,0,0,0-9.014.007l.124-.151c0,.1,0,.2,0,.307.092,9.137.176,17.39.235,23.283l-.085-.1a20.343,20.343,0,0,0,3.8.462,13.971,13.971,0,0,0,2.867-.233,14.188,14.188,0,0,0,1.759-.462l.44-.154a.98.98,0,0,1,.162-.048.68.68,0,0,1-.139.069l-.443.19a12.267,12.267,0,0,1-1.756.519,13.64,13.64,0,0,1-2.892.287,20.113,20.113,0,0,1-3.837-.422l-.083-.016v-.086c-.083-5.893-.2-14.145-.327-23.282,0-.1,0-.21,0-.307V207.8l.125-.024a23.489,23.489,0,0,1,9.128.007l.116.024v.117c.05,6.687.093,12.456.124,16.578.005,2.023.01,3.641.013,4.778q0,.8-.006,1.268c0,.13-.005.236-.007.323a.348.348,0,0,1-.009.105" transform="translate(-89.646 -86.364)" fill="#e8505b"/>
              <path id="Trazado_602243" data-name="Trazado 602243" d="M248.188,227.019c-2.332,1.262-5.4,1.429-8.71,1.24V202.723a18.607,18.607,0,0,1,8.71,0Z" transform="translate(-99.755 -84.229)" fill="#fc8116"/>
              <path id="Trazado_602244" data-name="Trazado 602244" d="M177.517,239.884a6.269,6.269,0,0,1-.03-.654c-.009-.45-.02-1.046-.034-1.785-.016-1.554-.04-3.7-.068-6.27l.085.123a19.5,19.5,0,0,0-8.385-1.392h-.016l.138-.151c-.008,3.186-.015,6.171-.021,8.71l-.08-.121a16.286,16.286,0,0,0,3.362.96c1.03.186,1.938.292,2.687.366l1.743.148a6.146,6.146,0,0,1,.617.066,4.5,4.5,0,0,1-.621.015c-.4-.008-1-.025-1.753-.076s-1.669-.138-2.712-.307a16.012,16.012,0,0,1-3.427-.929l-.081-.033v-.088c-.006-2.539-.013-5.523-.021-8.71v-.141l.138-.01h.016a19.332,19.332,0,0,1,8.505,1.448l.086.033v.091c-.028,2.6-.051,4.781-.068,6.356q-.022,1.09-.034,1.755a4.464,4.464,0,0,1-.03.6" transform="translate(-70.357 -95.619)" fill="#e8505b"/>
              <path id="Trazado_602245" data-name="Trazado 602245" d="M182.409,208.04a8.691,8.691,0,0,1-1.7.105c-1.054.017-2.51,0-4.116-.1s-3.055-.244-4.1-.385a8.74,8.74,0,0,1-1.68-.3,10.446,10.446,0,0,1,1.7.09c1.047.086,2.494.2,4.094.3s3.049.149,4.1.187a10.433,10.433,0,0,1,1.7.11" transform="translate(-71.152 -86.369)" fill="#e8505b"/>
              <path id="Trazado_602246" data-name="Trazado 602246" d="M181.207,211.219a7.27,7.27,0,0,1-1.495-.007c-.922-.043-2.2-.124-3.6-.231s-2.676-.222-3.594-.32a7.261,7.261,0,0,1-1.478-.221,7.387,7.387,0,0,1,1.5.007c.922.043,2.193.124,3.6.231s2.671.222,3.589.32a7.368,7.368,0,0,1,1.483.222" transform="translate(-71.247 -87.647)" fill="#e8505b"/>
              <path id="Trazado_602247" data-name="Trazado 602247" d="M182.324,209.92a5.149,5.149,0,0,1,.007-.542q.022-.559.06-1.5c.062-1.319.15-3.174.257-5.453l.111.117a124.809,124.809,0,0,1-16.119-.894l.169-.141v.029l0,.031,0,.062-.007.123-.015.246-.029.491q-.028.489-.057.973-.057.967-.112,1.908c-.075,1.253-.147,2.467-.216,3.629l-.127-.151c4.661.574,8.689.817,11.544.928l3.341.1.879.027a2.693,2.693,0,0,1,.32.021,1.831,1.831,0,0,1-.3.022c-.2.008-.514.022-.9.026-.778.012-1.915.013-3.346-.018-2.86-.06-6.9-.265-11.573-.821l-.134-.016.008-.135c.065-1.162.134-2.376.2-3.63q.053-.941.109-1.908.028-.483.056-.973l.029-.491.014-.246.007-.124,0-.061,0-.031v-.029l.171-.143a136.663,136.663,0,0,0,16.082.974h.119l-.008.117c-.158,2.3-.286,4.179-.378,5.511q-.072.929-.114,1.478a3.838,3.838,0,0,1-.053.5" transform="translate(-69.177 -83.857)" fill="#e8505b"/>
              <path id="Trazado_602248" data-name="Trazado 602248" d="M195.907,219.342a6.956,6.956,0,0,1-1.122-1.557,5.528,5.528,0,0,1-.865-1.719,6.976,6.976,0,0,1,1.122,1.557,5.544,5.544,0,0,1,.865,1.719" transform="translate(-80.774 -90.002)" fill="#e8505b"/>
              <path id="Trazado_602249" data-name="Trazado 602249" d="M35.334,124.731l7.4,44.735s11.286,21.134,41.278,25.9l-4.84-39.934s-27.735-8.577-43.834-30.7" transform="translate(-14.718 -51.957)" fill="#e8505b"/>
              <g id="Grupo_878738" data-name="Grupo 878738" transform="translate(20.615 72.774)" opacity="0.8">
                <g id="Grupo_878737" data-name="Grupo 878737">
                  <g id="Grupo_878736" data-name="Grupo 878736" clip-path="url(#clip-path-15)">
                    <path id="Trazado_602250" data-name="Trazado 602250" d="M35.334,124.731l7.4,44.735s11.286,21.134,41.278,25.9l-4.84-39.934s-27.735-8.577-43.834-30.7" transform="translate(-35.334 -124.731)" fill="#ffefe2"/>
                  </g>
                </g>
              </g>
              <path id="Trazado_602251" data-name="Trazado 602251" d="M82.9,200.794a.9.9,0,0,1-.191-.044l-.551-.16-2.114-.644c-.913-.294-2.051-.594-3.315-1.11l-2.041-.777c-.725-.272-1.49-.559-2.264-.932-1.561-.715-3.3-1.45-5.058-2.441-1.806-.908-3.637-2.057-5.552-3.277a55.777,55.777,0,0,1-11.144-9.658,33.3,33.3,0,0,1-4.021-5.609l-.01-.019,0-.025c-1.35-8.718-2.534-16.377-3.386-21.878-.41-2.729-.739-4.922-.969-6.454-.106-.742-.188-1.323-.247-1.739-.024-.186-.043-.334-.057-.45a.644.644,0,0,1-.01-.155.652.652,0,0,1,.037.15c.022.116.05.263.084.447l.3,1.73c.251,1.529.61,3.717,1.057,6.44.878,5.5,2.1,13.151,3.488,21.862l-.014-.044a33.382,33.382,0,0,0,3.983,5.544,56.2,56.2,0,0,0,11.07,9.623c1.9,1.221,3.722,2.373,5.516,3.288,1.75,1,3.474,1.741,5.025,2.466.769.379,1.53.672,2.25.949l2.029.8c1.255.53,2.386.847,3.293,1.157l2.095.7.543.189a.893.893,0,0,1,.182.074" transform="translate(-17.479 -60.576)" fill="#e8505b"/>
              <path id="Trazado_602252" data-name="Trazado 602252" d="M82.119,194.887a.575.575,0,0,1-.1.093l-.317.255-1.247.971-4.711,3.608-.074.057-.055-.076-5.762-7.97.176.029L65.61,195l-.148.105-.062-.17-5.694-15.444-.817-2.223.278.016-3.6,7.141-.156.31-.114-.327-7.514-21.663.159-.009-1.105,4.659q-.193.786-.3,1.228l-.083.314a.412.412,0,0,1-.036.1.38.38,0,0,1,.013-.11l.061-.319q.094-.446.261-1.237c.242-1.1.589-2.679,1.029-4.677l.062-.283.1.274,7.634,21.621-.27-.018,3.588-7.145.157-.312.121.328.818,2.224c2.028,5.528,3.952,10.775,5.669,15.453l-.21-.065,4.431-3.127.1-.073.073.1,5.7,8.011-.13-.02,4.762-3.54,1.276-.933L82,194.96a.557.557,0,0,1,.118-.073" transform="translate(-19.335 -67.654)" fill="#e8505b"/>
              <path id="Trazado_602253" data-name="Trazado 602253" d="M95.228,176.507a2.641,2.641,0,0,1-.63-.141c-.4-.108-.973-.284-1.676-.516a57.453,57.453,0,0,1-10.535-4.757c-.639-.373-1.15-.687-1.5-.916a2.593,2.593,0,0,1-.522-.379,2.694,2.694,0,0,1,.582.278l1.54.83c1.3.7,3.117,1.627,5.169,2.555s3.949,1.672,5.333,2.187l1.641.606a2.656,2.656,0,0,1,.593.253" transform="translate(-33.478 -70.729)" fill="#e8505b"/>
              <path id="Trazado_602254" data-name="Trazado 602254" d="M101.164,182.074a6.209,6.209,0,0,1-1.449-.256,33.759,33.759,0,0,1-6.673-2.386,6.218,6.218,0,0,1-1.282-.721,8.134,8.134,0,0,1,1.371.525c.834.347,1.991.814,3.288,1.279s2.487.835,3.353,1.1a8.165,8.165,0,0,1,1.393.463" transform="translate(-38.223 -74.441)" fill="#e8505b"/>
              <path id="Trazado_602255" data-name="Trazado 602255" d="M86.9,212.362c0,.37-.225.67-.5.67s-.5-.3-.5-.67.225-.67.5-.67.5.3.5.67" transform="translate(-35.781 -88.181)" fill="#e8505b"/>
              <path id="Trazado_602256" data-name="Trazado 602256" d="M68.1,188.123c0,.37-.225.67-.5.67s-.5-.3-.5-.67.225-.67.5-.67.5.3.5.67" transform="translate(-27.947 -78.084)" fill="#e8505b"/>
              <path id="Trazado_602257" data-name="Trazado 602257" d="M49.107,162.829c0,.37-.225.67-.5.67s-.5-.3-.5-.67.225-.67.5-.67.5.3.5.67" transform="translate(-20.037 -67.548)" fill="#e8505b"/>
              <path id="Trazado_602258" data-name="Trazado 602258" d="M339.033,138.391l-3.706,45.449s-10.817,19.436-40.606,20.176l3.682-45.76s25.986-1.054,40.63-19.866" transform="translate(-122.767 -57.647)" fill="#e8505b"/>
              <path id="Trazado_602259" data-name="Trazado 602259" d="M358.623,128.216c-.971-3.146-3.325-7.63-8.927-8.563l-6.623,61.134s12.433-2.483,12.766-9.3c.029-.588,2.516-30.972,3.138-38.5a12.335,12.335,0,0,0-.355-4.778" transform="translate(-142.908 -49.842)" fill="#fc8116"/>
              <g id="Grupo_878741" data-name="Grupo 878741" transform="translate(171.955 80.744)" opacity="0.8">
                <g id="Grupo_878740" data-name="Grupo 878740">
                  <g id="Grupo_878739" data-name="Grupo 878739" clip-path="url(#clip-path-16)">
                    <path id="Trazado_602260" data-name="Trazado 602260" d="M339.033,138.391l-3.706,45.449s-10.817,19.436-40.606,20.176l3.682-45.76s25.986-1.054,40.63-19.866" transform="translate(-294.722 -138.391)" fill="#ffead8"/>
                  </g>
                </g>
              </g>
              <path id="Trazado_602261" data-name="Trazado 602261" d="M343.612,158.249a26.956,26.956,0,0,0-4.748,14.7,12.283,12.283,0,0,1-.515,4.464c-.573,1.394-2.071,2.559-3.525,2.16-1.519-.417-2.2-2.212-3.531-3.054a3.935,3.935,0,0,0-4,.085,6.692,6.692,0,0,0-2.625,3.193c-1.084,2.492-1.154,5.3-1.952,7.9s-2.754,5.215-5.469,5.334c-.991.043-1.972-.257-2.963-.228a6.087,6.087,0,0,0-4.895,3.477,17.936,17.936,0,0,0-1.548,6.064s15.879,1.513,33.707-19.537Z" transform="translate(-128.234 -65.919)" fill="#fc8116"/>
              <path id="Trazado_602262" data-name="Trazado 602262" d="M324.986,204.773c0,.564-.279,1.021-.623,1.021s-.623-.457-.623-1.021.279-1.021.623-1.021.623.457.623,1.021" transform="translate(-134.855 -84.873)" fill="#e8505b"/>
              <path id="Trazado_602263" data-name="Trazado 602263" d="M337.807,172.385c0,.564-.279,1.021-.623,1.021s-.623-.457-.623-1.021.279-1.021.623-1.021.623.457.623,1.021" transform="translate(-140.195 -71.382)" fill="#e8505b"/>
              <path id="Trazado_602264" data-name="Trazado 602264" d="M343.734,162.008a1.4,1.4,0,0,1-.1.259L343.3,163c-.313.663-.754,1.6-1.309,2.776l-4.736,9.864-.064.133-.126-.079-11.234-7.108.222-.071-.467,1.149-7.254,17.761-.05.121-.114-.064c-2.8-1.576-5.087-2.841-6.675-3.7-.8-.43-1.415-.761-1.84-.977l-.486-.237a.777.777,0,0,1-.17-.075,13.76,13.76,0,0,1,2.556,1.176c1.609.83,3.911,2.065,6.727,3.617l-.163.058,7.187-17.788.467-1.149.069-.169.153.1,11.213,7.141-.19.054c1.991-4.043,3.655-7.423,4.834-9.815l1.375-2.745.372-.719a1.43,1.43,0,0,1,.14-.24" transform="translate(-128.712 -67.485)" fill="#e8505b"/>
            </g>
          </g>
        </g>
      </g>
      <rect id="Rectángulo_298822" data-name="Rectángulo 298822" width="305" height="305" transform="translate(648 3285)" fill="none"/>
    </g>
  </g>
</svg>
