<svg xmlns="http://www.w3.org/2000/svg" xmlns:xlink="http://www.w3.org/1999/xlink" width="161.583" height="131.901" viewBox="0 0 161.583 131.901"><defs><clipPath id="a"><path d="M73.221,180.74l-.006,1.925c-.006,2.041-1.348,4.078-4.026,5.635-5.394,3.136-14.17,3.136-19.6,0-2.734-1.578-4.1-3.649-4.092-5.716l.006-1.925c-.006,2.068,1.358,4.138,4.091,5.716,5.429,3.134,14.2,3.134,19.6,0C71.873,184.819,73.215,182.78,73.221,180.74Z" transform="translate(-45.499 -180.661)" fill="#10191b"/></clipPath><clipPath id="b"><path d="M73.221,179.988l-.006,1.925c-.006,2.04-1.348,4.078-4.026,5.635-5.394,3.136-14.17,3.136-19.6,0-2.734-1.578-4.1-3.649-4.092-5.716l.006-1.925c-.006,2.067,1.358,4.138,4.091,5.716,5.429,3.134,14.2,3.134,19.6,0C71.873,184.067,73.215,182.03,73.221,179.988Z" transform="translate(-45.499 -179.909)" fill="none"/></clipPath><clipPath id="c"><path d="M74.648,124.545l2.268,1.319a1.844,1.844,0,0,0-1.86.182l-2.268-1.317A1.849,1.849,0,0,1,74.648,124.545Z" transform="translate(-72.788 -124.369)" fill="#c6d5fa"/></clipPath><clipPath id="d"><path d="M33.292,184.474l-2.268-1.317a1.834,1.834,0,0,1-.763-1.678L32.53,182.8A1.832,1.832,0,0,0,33.292,184.474Z" transform="translate(-30.262 -181.479)" fill="#c6d5fa"/></clipPath><clipPath id="e"><path d="M32.444,154.05l-2.268-1.317a5.738,5.738,0,0,1,2.605-4.511l2.266,1.317A5.737,5.737,0,0,0,32.444,154.05Z" transform="translate(-30.176 -148.222)" fill="#c6d5fa"/></clipPath><clipPath id="f"><path d="M65.215,188.728l.012-4.364a7.892,7.892,0,0,0,.686,3.2l-.012,4.364A7.892,7.892,0,0,1,65.215,188.728Z" transform="translate(-65.215 -184.364)" fill="#fc8116"/></clipPath><clipPath id="g"><path d="M74.892,194.046l-.012,4.363a25.82,25.82,0,0,1-3.551-1.678,12.778,12.778,0,0,1-5.664-5.909l.012-4.364a12.786,12.786,0,0,0,5.664,5.909A26,26,0,0,0,74.892,194.046Z" transform="translate(-65.664 -186.458)" fill="none"/></clipPath><clipPath id="h"><path d="M105.367,187.025l-.012,4.364c-3.77,6.789-16.338,10.5-28.069,8.3a30.079,30.079,0,0,1-5.591-1.578l.012-4.363a30.076,30.076,0,0,0,5.591,1.577C89.029,197.53,101.6,193.814,105.367,187.025Z" transform="translate(-71.695 -187.025)" fill="#fcd03e"/></clipPath><clipPath id="i"><path d="M99.147,180.268l-.012,4.364a8.486,8.486,0,0,1-1.146,4.1L98,184.371A8.481,8.481,0,0,0,99.147,180.268Z" transform="translate(-97.989 -180.268)" fill="#529d2e"/></clipPath><clipPath id="j"><path d="M80.805,148.872l-2.156-.836c-2.21-.857-4.988-.248-7.8,2.028l2.156.836C75.818,148.624,78.6,148.015,80.805,148.872Z" transform="translate(-70.85 -147.665)" fill="#c5243c"/></clipPath><clipPath id="k"><path d="M70.022,176.836l2.156.837c-2.182-.847-3.811-3.12-4.376-6.629-1.135-7.063,2.474-16.454,8.062-20.974l-2.156-.836c-5.588,4.522-9.2,13.911-8.062,20.974C66.212,173.717,67.84,175.991,70.022,176.836Z" transform="translate(-65.437 -149.235)" fill="#c5243c"/></clipPath><clipPath id="l"><path d="M55.333,190.967l-.141-.083a.216.216,0,0,1-.089-.194l.141.081A.219.219,0,0,0,55.333,190.967Z" transform="translate(-55.104 -190.69)" fill="#eff6fe"/></clipPath><clipPath id="m"><path d="M55.24,189.089l-.141-.081a.664.664,0,0,1,.3-.523l.141.081A.664.664,0,0,0,55.24,189.089Z" transform="translate(-55.099 -188.485)" fill="#eff6fe"/></clipPath><clipPath id="n"><path d="M72.66,188.835l-.449.261a.121.121,0,0,1,.122.012l.448-.261A.118.118,0,0,0,72.66,188.835Z" transform="translate(-72.211 -188.823)" fill="#372b3d"/></clipPath><clipPath id="o"><path d="M76.164,191.547l.449-.261a.377.377,0,0,0-.171-.295l-.449.261A.374.374,0,0,1,76.164,191.547Z" transform="translate(-75.993 -190.991)" fill="#372b3d"/></clipPath><clipPath id="p"><path d="M35.777,152.018l2.338,1.358c1.076.625,1.744,1.954,1.748,3.843a13.167,13.167,0,0,1-5.973,10.348l-2.338-1.358a13.169,13.169,0,0,0,5.973-10.348C37.521,153.972,36.853,152.643,35.777,152.018Z" transform="translate(-31.552 -152.018)" fill="#251b29"/></clipPath><clipPath id="q"><path d="M31.1,163.081l-2.338-1.358c1.09.633,2.6.544,4.265-.417l2.338,1.358C33.7,163.625,32.188,163.715,31.1,163.081Z" transform="translate(-28.761 -161.305)" fill="#251b29"/></clipPath><clipPath id="r"><path d="M37.329,150.478l2.338,1.36c-1.484-.863-3.539-.741-5.807.568l-2.339-1.358C33.79,149.738,35.845,149.616,37.329,150.478Z" transform="translate(-31.521 -149.928)" fill="#251b29"/></clipPath><clipPath id="s"><path d="M30.917,171.343l-2.338-1.358c-1.465-.851-2.373-2.662-2.381-5.235-.015-5.179,3.628-11.488,8.134-14.089l2.339,1.358c-4.508,2.6-8.151,8.91-8.135,14.09C28.544,168.681,29.451,170.492,30.917,171.343Z" transform="translate(-26.198 -150.661)" fill="#251b29"/></clipPath><clipPath id="t"><path d="M24.377,168.82l4.282-6.114.616.431-4.282,6.114Z" transform="translate(-24.377 -162.706)" fill="#e9ecf5"/></clipPath><clipPath id="u"><path d="M30.911,164.281,26.629,170.4l-.165-.116L24.78,169.1l4.282-6.114,1.682,1.178Z" transform="translate(-24.78 -162.988)" fill="#e9ecf5"/></clipPath><clipPath id="v"><path d="M19.47,176.574l8.088-11.549,1.01.708-8.086,11.549Z" transform="translate(-19.47 -165.025)" fill="#e5354f"/></clipPath><clipPath id="w"><path d="M31.249,167.609l-8.086,11.551-.272-.191-2.758-1.931,8.086-11.549,2.76,1.931Z" transform="translate(-20.132 -165.488)" fill="#e5354f"/></clipPath></defs><g transform="translate(-215.587 -2778.549)"><g transform="translate(2712.986 3009.229)"><ellipse cx="80.792" cy="29.568" rx="80.792" ry="29.568" transform="translate(-2497.399 -157.915)" fill="#529d2e" opacity="0.55"/><g transform="translate(-2487.217 -230.68)"><g transform="translate(0 0)"><g style="isolation:isolate"><g transform="translate(0 30.998)"><path d="M17.706,185.055l-1.247-.724-.1-41.339,1.247.724Z" transform="translate(-16.355 -142.991)" fill="#bcc5df"/></g><path d="M17.6,154.427l-1.247-.724,53.69-31,1.247.724Z" transform="translate(-16.355 -122.705)" fill="#fff"/><g transform="translate(1.247 0.724)"><path d="M70.86,123.179l.1,41.34-53.69,31-.1-41.339Z" transform="translate(-17.171 -123.179)" fill="#eef1f8"/></g></g><g transform="translate(2.763 4.525)"><g opacity="0.2"><path d="M68.344,125.739h0L18.2,154.685h0l-.041.024v37.04L68.471,162.7V125.666Zm-.043,31.6-4.389,2.535v-5.068l4.389-2.534Zm-49.97-2.535,4.389-2.534v5.069l-4.389,2.534ZM68.3,131.026l-4.389,2.534v-5.067l4.389-2.535ZM45.511,149.643v5.069l-4.389,2.534v-5.067Zm-4.389,12.865V157.44l4.389-2.534v5.067Zm-.17-4.969v5.067l-4.389,2.534v-5.067Zm4.728,2.338v-5.067l4.389-2.534v5.067Zm0-5.263v-5.069l4.389-2.534v5.069Zm-4.728-2.338v5.067l-4.389,2.534v-5.067Zm-4.558,7.894v5.067l-4.389,2.535V162.7Zm0,5.263V170.5l-4.389,2.533v-5.067Zm.17-.1,4.389-2.535v5.069L36.564,170.4Zm4.558-2.631,4.389-2.535v5.069l-4.389,2.533Zm4.558-2.633,4.389-2.534v5.069L45.68,165.14Zm4.558-2.827v-5.067l4.389-2.535v5.069Zm0-5.263v-5.067l4.389-2.535v5.067Zm-13.844,2.925v5.067l-4.389,2.534V157.44ZM31.836,162.8v5.069L27.447,170.4v-5.067Zm0,5.264v5.067l-4.389,2.533V170.6Zm18.4-5.556V157.44l4.389-2.534v5.067Zm4.558-7.9v-5.069l4.389-2.534v5.069Zm0-5.264v-5.067l4.389-2.534v5.067Zm-4.558-2.631v-5.067l4.389-2.535v5.069Zm-.17.1-4.389,2.533v-5.067l4.389-2.535Zm-4.558,2.631-4.389,2.533v-5.067l4.389-2.535Zm-4.558,2.633-4.389,2.534v-5.069l4.389-2.534Zm-4.558,2.63-4.389,2.535v-5.069l4.389-2.534Zm-4.558,2.633-4.389,2.534v-5.069l4.389-2.534Zm0,.2v5.067l-4.389,2.534v-5.067Zm-4.558,7.894V170.5l-4.389,2.533v-5.067Zm0,5.264v5.067L22.889,178.3V173.23ZM54.8,159.876v-5.067l4.389-2.534v5.067Zm4.558-7.894v-5.069l4.389-2.534v5.067Zm0-5.264v-5.067l4.389-2.534v5.067ZM54.8,144.087v-5.069l4.389-2.533v5.069Zm0-5.264v-5.067l4.389-2.534v5.067Zm-.17.1-4.389,2.535v-5.069l4.389-2.534Zm-4.558,2.633-4.389,2.533v-5.069l4.389-2.533Zm-4.558,2.631-4.389,2.534v-5.067l4.389-2.535Zm-4.558,2.631-4.389,2.533v-5.067l4.389-2.535Zm-4.558,2.631-4.389,2.533v-5.067l4.389-2.534Zm-4.558,2.631-4.389,2.534v-5.067l4.389-2.534Zm-4.558,2.631-4.389,2.535v-5.069l4.389-2.534Zm0,.2v5.069l-4.389,2.534V157.44Zm0,5.264v5.067l-4.389,2.535V162.7Zm-4.558,7.9v5.067l-4.389,2.533V170.6Zm-4.389,7.8,4.389-2.534V178.4l-4.389,2.534Zm13.5-2.534V178.4l-4.389,2.534v-5.069Zm.17-.1,4.389-2.534v5.069L32.006,178.3Zm4.558-2.631,4.389-2.533v5.069l-4.389,2.534Zm4.558-2.631,4.389-2.534V170.5l-4.389,2.535Zm4.558-2.631,4.389-2.534v5.067L45.68,170.4Zm4.558-2.631,4.389-2.535v5.069l-4.389,2.533Zm4.558-2.633,4.389-2.534v5.069L54.8,165.14Zm4.558-2.827v-5.067l4.389-2.535v5.069Zm4.558-7.9v-5.067l4.389-2.534v5.067Zm0-5.263V139.02l4.389-2.534v5.067Zm-4.558-2.631v-5.069l4.389-2.534v5.067Zm0-5.264v-5.067l4.389-2.535v5.069Zm-41.024,23.88,4.389-2.534v5.067l-4.389,2.534Zm0,5.264L22.72,162.8v5.069L18.331,170.4Zm0,15.789,4.389-2.534v5.067l-4.389,2.534Zm4.558-2.631,4.389-2.535v5.069l-4.389,2.534Zm4.389,2.729v5.069l-4.389,2.533v-5.068Zm.17-.1,4.389-2.534v5.067l-4.389,2.535Zm4.558-2.631,4.389-2.535v5.069l-4.389,2.535Zm4.558-2.631,4.389-2.535V178.4l-4.389,2.534Zm4.558-2.633,4.389-2.534v5.069L41.122,178.3ZM45.68,170.6l4.389-2.533v5.069l-4.389,2.534Zm4.558-2.631,4.389-2.534V170.5l-4.389,2.535Zm4.558-2.631,4.389-2.534v5.067L54.8,170.4Zm4.558-2.631,4.389-2.535v5.069l-4.389,2.535Zm0-.2V157.44l4.389-2.534v5.067ZM68.3,152.08l-4.389,2.534v-5.069l4.389-2.534Zm0-15.791-4.389,2.533v-5.067l4.389-2.534Zm-49.97,50.1,4.389-2.534v5.069l-4.389,2.534ZM63.913,165.14v-5.069l4.389-2.534v5.069Z" transform="translate(-18.163 -125.666)" fill="#a6afcd"/></g><g transform="translate(0.544 11.336)"><path d="M18.858,171.549a.339.339,0,0,1-.31-.475c.321-.723,3.183-7.093,4.862-8.109.9-.546,1.727.237,2.459.926s1.227,1.108,1.659.831c1.692-1.086,3.224-4.954,4.708-8.693,1.589-4.007,3.09-7.792,4.959-9.006,1.009-.654,1.977.219,2.833.987s1.47,1.264,2,.932c1.059-.663,1.922-3.192,2.836-5.868,1.348-3.947,2.876-8.421,5.768-9.584a4.441,4.441,0,0,1,5.09.976,19.2,19.2,0,0,1,3.221,4.743c1.78,3.25,3,5.16,4.905,4.279,1.38-.637,2.886-4.092,3.349-5.368a.338.338,0,1,1,.636.231c-.072.2-1.786,4.867-3.7,5.752a2.708,2.708,0,0,1-3.34-.8,18.443,18.443,0,0,1-2.442-3.767c-1.858-3.392-3.78-6.9-7.466-5.418-2.6,1.048-4.078,5.367-5.38,9.176-.995,2.914-1.855,5.432-3.117,6.222-1,.626-1.964-.238-2.812-1-.9-.805-1.478-1.27-2.012-.921-1.687,1.1-3.218,4.955-4.7,8.687-1.594,4.016-3.1,7.81-4.972,9.012-.908.584-1.748-.208-2.489-.908-.717-.675-1.218-1.1-1.644-.84-1.267.769-3.745,5.9-4.593,7.805A.339.339,0,0,1,18.858,171.549Z" transform="translate(-18.519 -133.085)" fill="#fd963d"/></g><g transform="translate(4.891 16.159)"><path d="M29.469,169.006l-8.1,4.679V158.834l8.1-4.679Z" transform="translate(-21.364 -126.781)" fill="#fd963d"/><path d="M37.425,166.945l-8.1,4.679V149.444l8.1-4.679Z" transform="translate(-17.163 -131.74)" fill="#fdd85e"/><path d="M53.337,154.87l-8.1,4.679V145.728l8.1-4.679Z" transform="translate(-8.76 -133.702)" fill="#ffd438"/><path d="M45.381,164.428l-8.1,4.679V140.92l8.105-4.679Z" transform="translate(-12.961 -136.241)" fill="#67c53a"/></g></g></g><g transform="translate(18.566 95.922)"><g style="isolation:isolate"><g transform="translate(29.443 17.005)"><path d="M58.961,196.608l0,1.637-11.183,6.5,0-1.637Z" transform="translate(-47.773 -196.608)" fill="#c6d5fa"/></g><path d="M55.972,195.806l0,1.637a1.5,1.5,0,0,1-.876,1.226l0-1.637A1.5,1.5,0,0,0,55.972,195.806Z" transform="translate(-14.466 -180.026)" fill="#c6d5fa"/><g transform="translate(0.888 9.478)"><path d="M53.384,205.707l0,1.637L29.086,193.319l0-1.637Z" transform="translate(-29.086 -191.681)" fill="#d4e2fc"/></g><path d="M28.5,192.506l0-1.638a1.5,1.5,0,0,0,.888,1.242l0,1.638A1.506,1.506,0,0,1,28.5,192.506Z" transform="translate(-28.505 -182.633)" fill="#d4e2fc"/><path d="M49.25,200.862l0,1.637a4.694,4.694,0,0,1-4.26,0l0-1.638A4.7,4.7,0,0,0,49.25,200.862Z" transform="translate(-19.803 -177.357)" fill="#cddcfb"/><g transform="translate(0.004)"><path d="M69.119,200.015a1.3,1.3,0,0,1,.015,2.469l-11.184,6.5a4.7,4.7,0,0,1-4.26,0L29.4,194.956a1.3,1.3,0,0,1-.014-2.466l11.184-6.5a4.7,4.7,0,0,1,4.26,0Z" transform="translate(-28.507 -185.479)" fill="#d4e2fc"/></g></g><g transform="translate(0.004)"><path d="M61.172,195.418l-2.135-1.233-15.481,8.938,2.187,1.262a4.7,4.7,0,0,0,4.26,0l11.184-6.5A1.3,1.3,0,0,0,61.172,195.418Z" transform="translate(-20.56 -180.882)" fill="#f1f1f1"/><path d="M44.826,185.989a4.7,4.7,0,0,0-4.26,0l-11.184,6.5a1.3,1.3,0,0,0,.014,2.466l.746.431,15.481-8.938Z" transform="translate(-28.507 -185.479)" fill="#f1f1f1"/><path d="M66.419,198.448l-15.479,8.937-16.488-9.519-2.13-1.229-1.069-.618-1.676-.967,3.91-2.258,3.033-1.75,8.538-4.93,1.675.967Z" transform="translate(-27.943 -185.144)" fill="#a4dc88"/><g transform="translate(1.634 0.97)"><path d="M46.733,187.081l-15.479,8.938-1.676-.967,3.91-2.258,3.033-1.75,8.538-4.93Z" transform="translate(-29.577 -186.114)" fill="#3c6ff7"/><path d="M33.439,190.8l-.2.032-.04-.028c-.02-.011-.041-.02-.061-.029l.053-.118c.008-.015-.009-.032-.037-.037l-.269-.041a.059.059,0,0,0-.063.021l-.057.121a.874.874,0,0,0-.127.02l-.154-.089a.078.078,0,0,0-.073,0l-.2.113a.023.023,0,0,0,0,.043l.154.089a.23.23,0,0,0-.035.073l-.209.034c-.028,0-.044.02-.037.037l.072.154a.063.063,0,0,0,.064.021l.2-.032a.443.443,0,0,0,.052.035c.015.009.031.017.046.024l-.053.115c-.006.017.009.034.038.037l.267.043a.068.068,0,0,0,.064-.021l.052-.112a.777.777,0,0,0,.145-.023l.141.081a.078.078,0,0,0,.073,0l.2-.113c.021-.011.021-.031,0-.043l-.139-.081a.187.187,0,0,0,.037-.084l.194-.029c.028,0,.043-.021.037-.037l-.072-.156A.068.068,0,0,0,33.439,190.8Zm-.432.31a.372.372,0,0,1-.336,0,.1.1,0,0,1,0-.194.372.372,0,0,1,.336,0A.1.1,0,0,1,33.007,191.114Z" transform="translate(-28.252 -183.754)" fill="#f1f1f1"/><g transform="translate(8.352 3.885)"><path d="M35.473,188.9c-.385.222-.51.538-.38.821l.15-.023c-.118-.254,0-.536.339-.735a2.044,2.044,0,0,1,1.273-.2l.04-.087A2.286,2.286,0,0,0,35.473,188.9Z" transform="translate(-35.043 -188.656)" fill="#f1f1f1"/><path d="M35.641,189c-.263.153-.35.368-.26.562l.15-.023c-.076-.165,0-.347.22-.477a1.323,1.323,0,0,1,.822-.127l.041-.086A1.563,1.563,0,0,0,35.641,189Z" transform="translate(-34.882 -188.564)" fill="#f1f1f1"/><path d="M35.809,189.1c-.141.083-.188.2-.139.3l.148-.023c-.034-.075,0-.157.1-.215a.592.592,0,0,1,.374-.058l.04-.086A.837.837,0,0,0,35.809,189.1Z" transform="translate(-34.721 -188.471)" fill="#f1f1f1"/><path d="M36.235,189.344a.314.314,0,0,1-.286,0,.121.121,0,0,1-.052-.052c-.017-.038,0-.083.052-.113a.323.323,0,0,1,.2-.029.284.284,0,0,1,.09.029A.087.087,0,0,1,36.235,189.344Z" transform="translate(-34.595 -188.398)" fill="#f1f1f1"/></g><g transform="translate(0.931 7.705)"><path d="M30.366,191.983a.232.232,0,0,1-.092.1l-.089-.05c.1-.063.081-.116.038-.17l.073-.041.961.553-.105.061Z" transform="translate(-30.186 -190.804)" fill="#f1f1f1"/><path d="M30.554,191.964c-.147-.084-.17-.182-.023-.266a.45.45,0,0,1,.463.012l.5.286c.147.084.17.182.021.267a.451.451,0,0,1-.461-.014Zm.607.229a.249.249,0,0,0,.254.014c.078-.044.061-.095-.026-.145l-.507-.293a.246.246,0,0,0-.254-.015c-.076.044-.061.1.026.147Z" transform="translate(-30.056 -190.901)" fill="#f1f1f1"/><path d="M31.016,191.636l.134.076-.1.06-.133-.076Zm.523.3.134.078-.1.058L31.437,192Z" transform="translate(-29.802 -190.903)" fill="#f1f1f1"/><path d="M31.481,191.429c.29.167.069.416.289.544l.015.008.315-.182.1.057-.422.243-.083-.047c-.309-.179-.044-.4-.315-.558a.249.249,0,0,0-.263-.023c-.079.046-.057.1.029.147l.084.05-.1.057-.079-.044c-.147-.086-.176-.18-.028-.266A.445.445,0,0,1,31.481,191.429Z" transform="translate(-29.796 -191.05)" fill="#f1f1f1"/><path d="M31.827,191.228l.018.009-.1.058-.024-.014a.24.24,0,0,0-.251-.014c-.081.047-.064.1.038.157l.215.124c-.04-.052-.024-.1.052-.148a.4.4,0,0,1,.406.028l.145.084c.147.086.171.183.023.267a.453.453,0,0,1-.463-.012l-.491-.283c-.151-.089-.177-.182-.026-.27A.439.439,0,0,1,31.827,191.228Zm.029.4.144.082a.242.242,0,0,0,.254.014c.076-.044.061-.095-.026-.145l-.144-.084a.247.247,0,0,0-.252-.014C31.754,191.526,31.769,191.576,31.856,191.627Z" transform="translate(-29.614 -191.156)" fill="#f1f1f1"/></g><g transform="translate(12.182 1.487)"><path d="M38.432,188.012l.194.112-.1.061-.194-.112-.31.179-.1-.057-.371-.558.118-.069.669.388.076-.046.1.057Zm-.413.127.211-.122-.469-.27Z" transform="translate(-37.549 -186.832)" fill="#f1f1f1"/><path d="M38.148,187.466l-.327.188-.1-.055.435-.251.093.053.62.643-.107.061Z" transform="translate(-37.456 -186.949)" fill="#f1f1f1"/><path d="M38.473,187.357l.3.174c.093.053.11.115.017.17a.286.286,0,0,1-.292-.011l-.3-.176c-.093-.052-.112-.115-.018-.168A.282.282,0,0,1,38.473,187.357Zm-.209.116.313.18a.149.149,0,0,0,.154.011c.047-.027.034-.06-.018-.09l-.312-.18a.151.151,0,0,0-.157-.011C38.195,187.411,38.212,187.443,38.264,187.474Zm.377-.387.582.773-.066.038-.581-.773Zm.663.2.3.173c.093.055.113.115.018.17a.283.283,0,0,1-.292-.011l-.3-.174c-.092-.053-.11-.115-.017-.168A.286.286,0,0,1,39.3,187.292Zm-.211.116.312.179a.152.152,0,0,0,.156.012c.049-.027.034-.061-.018-.09l-.312-.18a.152.152,0,0,0-.156-.011C39.028,187.345,39.042,187.377,39.093,187.408Z" transform="translate(-37.248 -187.087)" fill="#f1f1f1"/></g><g transform="translate(14.164 0.657)"><path d="M40.151,187.724l-1.3-.753.74-.426,1.3.753Zm-1.1-.753,1.1.637.538-.31-1.1-.637Z" transform="translate(-38.846 -186.544)" fill="#f1f1f1"/><path d="M40.524,187.144l-.638.369-.537-.31.639-.369Z" transform="translate(-38.581 -186.391)" fill="#f1f1f1"/><path d="M39.417,186.682l-.331.191-.2-.116.331-.191Z" transform="translate(-38.825 -186.532)" fill="#f1f1f1"/></g><g transform="translate(10.628 2.631)"><path d="M37.52,188.832l-.339.2-.649-.375.339-.2Z" transform="translate(-36.532 -187.507)" fill="#f1f1f1"/><path d="M37.924,188.7l-.338.2-.894-.516.339-.2Z" transform="translate(-36.448 -187.654)" fill="#f1f1f1"/><path d="M38.391,188.6l-.339.2-1.317-.76.339-.2Z" transform="translate(-36.425 -187.836)" fill="#f1f1f1"/></g></g></g><g transform="translate(4.677 2.278)"><path d="M36.409,187.994l-2.763,1.6a.767.767,0,0,1-.7,0h0a.213.213,0,0,1,0-.4l2.764-1.6a.764.764,0,0,1,.7,0h0A.212.212,0,0,1,36.409,187.994Z" transform="translate(-30.911 -186.685)" fill="#372b3d"/><path d="M36.469,187.088a1.088,1.088,0,0,0-.986,0,.3.3,0,0,0,0,.568,1.088,1.088,0,0,0,.986,0A.3.3,0,0,0,36.469,187.088Z" transform="translate(-29.605 -186.97)" fill="#372b3d"/><ellipse cx="0.36" cy="0.208" rx="0.36" ry="0.208" transform="translate(0.876 3.16)" fill="#372b3d"/><path d="M32.182,189.429a.566.566,0,0,0-.51,0,.155.155,0,0,0,0,.293.557.557,0,0,0,.51,0A.155.155,0,0,0,32.182,189.429Z" transform="translate(-31.566 -185.703)" fill="#372b3d"/></g><g transform="translate(29.953 17.306)"><path d="M50.028,200.173a.632.632,0,0,1-.312-.075l-1.452-.839a.258.258,0,0,1,0-.475l3.3-1.9a.677.677,0,0,1,.622,0l1.452.837a.257.257,0,0,1,0,.475h0l-3.3,1.905A.63.63,0,0,1,50.028,200.173Zm1.847-3.168a.438.438,0,0,0-.211.047l-3.3,1.905c-.043.024-.058.05-.058.064s.015.038.058.063l1.452.839a.486.486,0,0,0,.422,0l3.3-1.905c.041-.024.057-.049.057-.063s-.015-.04-.057-.064l-1.452-.839A.442.442,0,0,0,51.875,197.005Z" transform="translate(-48.107 -196.804)" fill="#cddcfb"/></g><g transform="translate(34.602 19.998)"><path d="M52.249,198.665l-.767.443.937.449v-.99Z" transform="translate(-50.974 -198.566)" fill="#d4e2fc"/><path d="M51.15,199.214v.991l1.445-.836-.937-.449Z" transform="translate(-51.15 -198.379)" fill="#f1f1f1"/></g><path d="M52.425,198.631v.81l-1.275.736v-.81Z" transform="translate(-16.547 -178.534)" fill="#10191b"/><path d="M32.813,195.04l-2.776-1.6v-.928l2.776,1.6Z" transform="translate(-27.696 -181.767)" fill="#bcc5df"/><g transform="translate(8.725 1.106)" style="mix-blend-mode:screen;isolation:isolate"><path d="M37.222,189.177l-3.008,9.92,3.616,2.088L42.374,186.2Z" transform="translate(-34.215 -186.203)" fill="#251b29"/></g><g transform="translate(4.383 5.9)" style="mix-blend-mode:screen;isolation:isolate"><path d="M33.5,196.162l2.068-6.822-3.033,1.75-1.165,3.842Z" transform="translate(-31.373 -189.34)" fill="#251b29"/></g></g><g transform="translate(21.119 2.543)"><g transform="translate(23.414 78.029)"><g style="isolation:isolate"><g transform="translate(0 7.987)" style="isolation:isolate"><path d="M73.221,180.74l-.006,1.925c-.006,2.041-1.348,4.078-4.026,5.635-5.394,3.136-14.17,3.136-19.6,0-2.734-1.578-4.1-3.649-4.092-5.716l.006-1.925c-.006,2.068,1.358,4.138,4.091,5.716,5.429,3.134,14.2,3.134,19.6,0C71.873,184.819,73.215,182.78,73.221,180.74Z" transform="translate(-45.499 -180.661)" fill="#10191b"/><g clip-path="url(#a)"><g style="isolation:isolate"><path d="M64.026,180.713l-.006,1.925a5.288,5.288,0,0,1-1.108,3.134l.006-1.925a5.288,5.288,0,0,0,1.108-3.134Z" transform="translate(-36.304 -180.634)" fill="#10191b"/><path d="M67.233,182.764l-.006,1.925a9.465,9.465,0,0,1-2.919,2.5,19.778,19.778,0,0,1-9.567,2.35l0-1.925a19.784,19.784,0,0,0,9.569-2.35,9.483,9.483,0,0,0,2.919-2.5Z" transform="translate(-40.619 -179.551)" fill="#10191b"/><path d="M59.626,188.726l0,1.925a20.156,20.156,0,0,1-10.03-2.349c-2.734-1.578-4.1-3.649-4.092-5.716l.006-1.925c-.006,2.068,1.358,4.138,4.091,5.716a20.16,20.16,0,0,0,10.03,2.349Z" transform="translate(-45.499 -180.661)" fill="#10191b"/></g></g></g><g transform="translate(0.006)"><path d="M69.128,177.786c5.428,3.134,5.457,8.216.064,11.35s-14.17,3.136-19.6,0-5.458-8.218-.064-11.353S63.7,174.65,69.128,177.786Z" transform="translate(-45.503 -175.434)" fill="#10191b"/></g></g></g><g transform="translate(23.414 76.88)"><g style="isolation:isolate"><g transform="translate(0 7.987)" style="isolation:isolate"><g clip-path="url(#b)"><g style="isolation:isolate"><path d="M64.026,179.961l-.006,1.925a5.288,5.288,0,0,1-1.108,3.134l.006-1.925a5.288,5.288,0,0,0,1.108-3.134Z" transform="translate(-36.304 -179.881)" fill="#d4dbef"/><path d="M67.233,182.012l-.006,1.925a9.464,9.464,0,0,1-2.919,2.5,19.778,19.778,0,0,1-9.567,2.35l0-1.925a19.784,19.784,0,0,0,9.569-2.35,9.483,9.483,0,0,0,2.919-2.5Z" transform="translate(-40.619 -178.799)" fill="#d4dbef"/><path d="M59.626,187.974l0,1.925a20.157,20.157,0,0,1-10.03-2.349c-2.734-1.578-4.1-3.649-4.092-5.716l.006-1.925c-.006,2.067,1.358,4.138,4.091,5.716a20.143,20.143,0,0,0,10.03,2.349Z" transform="translate(-45.499 -179.909)" fill="#d4dbef"/></g></g></g><g transform="translate(0.006)"><path d="M69.128,177.034c5.428,3.134,5.457,8.216.064,11.35s-14.17,3.136-19.6,0-5.458-8.218-.064-11.353S63.7,173.9,69.128,177.034Z" transform="translate(-45.503 -174.682)" fill="#e9ecf5"/></g></g></g><g transform="translate(27.013 55.445)"><g style="isolation:isolate"><g transform="translate(0 6.76)"><path d="M51.183,190.425l-3.329-1.935,4.13-23.413,3.329,1.935Z" transform="translate(-47.854 -165.078)" fill="#10191b"/></g><g transform="translate(4.13)"><path d="M53.886,169.348l-3.329-1.935,11.763-6.76,3.329,1.935Z" transform="translate(-50.556 -160.654)" fill="#251b29"/></g><g transform="translate(3.329 1.935)"><path d="M65.925,161.92,61.8,185.332l-11.763,6.76,4.13-23.412Z" transform="translate(-50.033 -161.92)" fill="#251b29"/></g></g></g><g style="isolation:isolate"><g transform="translate(65.113)" style="isolation:isolate"><path d="M74.648,124.545l2.268,1.319a1.844,1.844,0,0,0-1.86.182l-2.268-1.317A1.849,1.849,0,0,1,74.648,124.545Z" transform="translate(-72.788 -124.369)" fill="#c6d5fa"/><g clip-path="url(#c)"><g style="isolation:isolate"><path d="M75.056,126.045l-2.268-1.317a1.849,1.849,0,0,1,1.86-.183l2.268,1.319a1.844,1.844,0,0,0-1.86.182Z" transform="translate(-72.788 -124.369)" fill="#c6d5fa"/></g></g></g><g transform="translate(0.131 87.267)" style="isolation:isolate"><path d="M33.292,184.474l-2.268-1.317a1.834,1.834,0,0,1-.763-1.678L32.53,182.8A1.832,1.832,0,0,0,33.292,184.474Z" transform="translate(-30.262 -181.479)" fill="#c6d5fa"/><g clip-path="url(#d)"><g style="isolation:isolate"><path d="M33.292,184.474l-2.268-1.317a1.834,1.834,0,0,1-.763-1.678L32.53,182.8a1.832,1.832,0,0,0,.762,1.676Z" transform="translate(-30.262 -181.479)" fill="#c6d5fa"/></g></g></g><g transform="translate(0.001 40.959)"><path d="M32.575,198.8l-2.267-1.318-.131-46.309,2.267,1.318Z" transform="translate(-30.176 -151.174)" fill="#c6d5fa"/></g><g transform="translate(2.605 0.359)"><path d="M34.148,162.011l-2.267-1.318L94.39,124.6l2.267,1.317Z" transform="translate(-31.881 -124.604)" fill="#c6d5fa"/></g><g transform="translate(0 36.448)" style="isolation:isolate"><path d="M32.444,154.05l-2.268-1.317a5.738,5.738,0,0,1,2.605-4.511l2.266,1.317A5.737,5.737,0,0,0,32.444,154.05Z" transform="translate(-30.176 -148.222)" fill="#c6d5fa"/><g clip-path="url(#e)"><g style="isolation:isolate"><path d="M32.444,154.05l-2.268-1.317a5.738,5.738,0,0,1,2.605-4.511l2.266,1.317a5.737,5.737,0,0,0-2.6,4.511Z" transform="translate(-30.176 -148.222)" fill="#c6d5fa"/></g></g></g><path d="M96.773,125.59c1.444-.833,2.616-.165,2.621,1.494l.131,46.308a5.737,5.737,0,0,1-2.6,4.511l-62.51,36.09c-1.444.834-2.616.165-2.621-1.493L31.66,166.19a5.737,5.737,0,0,1,2.6-4.511Z" transform="translate(-29.392 -123.914)" fill="#e9ecf5"/></g><g transform="translate(3.664 2.713)"><path d="M32.654,193.224l.008,3.168a1.093,1.093,0,0,0,.076.46,1.134,1.134,0,0,0,.452-.171L95.7,160.591a4.335,4.335,0,0,0,1.907-3.3l0-1.568Z" transform="translate(-32.532 -110.525)" fill="#e9ecf5"/><path d="M97.643,171.348,32.7,208.845l0-1.033L32.574,165.7a4.339,4.339,0,0,1,1.905-3.3l62.044-35.819.466-.267a1.114,1.114,0,0,1,.452-.173,1.127,1.127,0,0,1,.076.46Z" transform="translate(-32.574 -126.145)" fill="#bcc5df"/><path d="M96.65,170.731,36.843,205.265l-4.149,2.393L32.666,197.3l-.034-11.849-.029-9.807-.029-10.093a4.335,4.335,0,0,1,1.907-3.3l10.024-5.787L56.574,149.5h0l12.406-7.163L87.394,131.7l9.129-5.27Z" transform="translate(-32.574 -125.993)" fill="#a4dc88"/></g><g transform="translate(3.693 26.218)" opacity="0.3" style="mix-blend-mode:screen;isolation:isolate"><path d="M56.564,141.527,32.622,177.481l-.029-9.807L44.5,148.5Z" transform="translate(-32.593 -141.527)" fill="#15d9fd"/></g><g transform="translate(3.756 8.424)" opacity="0.3" style="mix-blend-mode:screen;isolation:isolate"><path d="M87.362,129.883,36.811,203.443l-4.149,2.394-.029-10.36,36.317-54.965Z" transform="translate(-32.634 -129.883)" fill="#15d9fd"/></g></g><g transform="translate(74.275 78.93)"><ellipse cx="26.03" cy="15.029" rx="26.03" ry="15.029" transform="translate(0 5.416)" fill="#bcc5df" opacity="0.5" style="mix-blend-mode:multiply;isolation:isolate"/><g transform="translate(0.385)"><g transform="translate(0 2.421)" style="isolation:isolate"><g transform="translate(22.318 3.801)"><path d="M95.559,178.431l-.012,4.363-15.726,9.139.012-4.364Z" transform="translate(-79.821 -178.431)" fill="#fc8116"/></g><g transform="translate(0.686 12.94)"><path d="M87.309,184.412l-.012,4.364L65.664,191.9l.012-4.364Z" transform="translate(-65.664 -184.412)" fill="#962838"/></g><g transform="translate(0 12.867)" style="isolation:isolate"><g clip-path="url(#f)"><g style="isolation:isolate"><path d="M65.913,187.564l-.012,4.364a7.892,7.892,0,0,1-.686-3.2l.012-4.364a7.892,7.892,0,0,0,.686,3.2Z" transform="translate(-65.215 -184.364)" fill="#fc8116"/></g></g></g><g transform="translate(0.013)"><path d="M103.267,179.745l-15.725,9.139L65.909,192.01c-3.019-6.925,4.216-13.94,16.165-15.667C89.8,175.226,97.61,176.479,103.267,179.745Z" transform="translate(-65.223 -175.943)" fill="#fdab64"/></g><g transform="translate(0.698 12.94)"><path d="M87.3,184.412,74.888,195.127a25.99,25.99,0,0,1-3.551-1.679,12.786,12.786,0,0,1-5.664-5.909Z" transform="translate(-65.672 -184.412)" fill="#e9ecf5"/></g><g transform="translate(9.902 12.94)"><path d="M84.124,184.412l-.012,4.364L71.7,199.49l.012-4.364Z" transform="translate(-71.695 -184.412)" fill="#84888d"/></g><g transform="translate(0.686 16.067)" style="isolation:isolate"><g clip-path="url(#g)"><g style="isolation:isolate"><path d="M74.892,194.046l-.012,4.363a25.82,25.82,0,0,1-3.551-1.678,12.778,12.778,0,0,1-5.664-5.909l.012-4.364a12.786,12.786,0,0,0,5.664,5.909,26,26,0,0,0,3.551,1.679Z" transform="translate(-65.664 -186.458)" fill="#d4dbef"/></g></g></g><g transform="translate(9.902 16.933)" style="isolation:isolate"><g clip-path="url(#h)"><g style="isolation:isolate"><path d="M105.367,187.025l-.012,4.364c-3.77,6.789-16.338,10.5-28.069,8.3a30.079,30.079,0,0,1-5.591-1.578l.012-4.363a30.076,30.076,0,0,0,5.591,1.577c11.731,2.207,24.3-1.51,28.069-8.3Z" transform="translate(-71.695 -187.025)" fill="#fcd03e"/></g></g></g><g transform="translate(9.914 12.94)"><path d="M105.363,188.4c-3.77,6.789-16.338,10.505-28.069,8.3a30.076,30.076,0,0,1-5.591-1.577L84.12,184.412Z" transform="translate(-71.703 -184.412)" fill="#fde07e"/></g></g><g transform="translate(28.836)"><g style="isolation:isolate"><g transform="translate(21.244 9.029)" style="isolation:isolate"><g clip-path="url(#i)"><path d="M99.147,180.268l-.012,4.364a8.486,8.486,0,0,1-1.146,4.1L98,184.371a8.481,8.481,0,0,0,1.146-4.1Z" transform="translate(-97.989 -180.268)" fill="#529d2e"/></g></g><g transform="translate(0 9.138)"><path d="M105.342,184.333l-.012,4.363L84.086,184.7l.012-4.364Z" transform="translate(-84.086 -180.339)" fill="#67c53a"/></g><g transform="translate(0.012)"><path d="M99.821,174.359c6.163,3.557,8.174,8.346,5.518,13.132L84.094,183.5Z" transform="translate(-84.094 -174.359)" fill="#85d161"/></g></g></g></g></g><g transform="translate(30.372 13.797)"><g transform="translate(0)"><g style="isolation:isolate"><g transform="translate(0 30.649)"><path d="M37.567,189.015l-1.232-.716-.1-36.507,1.233.716Z" transform="translate(-36.231 -151.792)" fill="#bcc5df"/></g><path d="M37.464,163.1l-1.233-.716,53.085-30.649,1.233.716Z" transform="translate(-36.231 -131.734)" fill="#fff"/><g transform="translate(1.233 0.716)"><path d="M90.123,132.2l.1,36.507L37.141,199.359l-.1-36.507Z" transform="translate(-37.038 -132.203)" fill="#e9ecf5"/></g></g></g><g transform="translate(3.151 3.293)"><g transform="translate(0)" opacity="0.4"><g transform="translate(0.014)"><path d="M38.3,196.133V162.758l.015-.009,49.989-28.86v33.374l-.015.009Zm.063-33.339v33.231l49.879-28.8V134Z" transform="translate(-38.302 -133.889)" fill="#372b3d"/></g><g transform="translate(0.029 5.577)"><path d="M38.343,166.426l-.031-.054,49.942-28.833.031.054Z" transform="translate(-38.312 -137.539)" fill="#372b3d"/></g><g transform="translate(0.029 11.127)"><path d="M38.343,170.059,38.312,170l49.942-28.833.031.054Z" transform="translate(-38.312 -141.171)" fill="#372b3d"/></g><g transform="translate(0.029 16.678)"><path d="M38.343,173.691l-.031-.054L88.254,144.8l.031.054Z" transform="translate(-38.312 -144.803)" fill="#372b3d"/></g><g transform="translate(0 22.278)"><rect width="57.668" height="0.063" transform="matrix(0.867, -0.498, 0.498, 0.867, 0, 28.733)" fill="#372b3d"/></g><g transform="translate(0.029 27.778)"><path d="M38.343,180.955l-.031-.054,49.942-28.833.031.054Z" transform="translate(-38.312 -152.068)" fill="#372b3d"/></g><g transform="translate(44.961 2.937)"><rect width="0.062" height="33.302" fill="#372b3d"/></g><g transform="translate(39.967 5.821)"><rect width="0.062" height="33.302" fill="#372b3d"/></g><g transform="translate(34.973 8.704)"><rect width="0.062" height="33.302" fill="#372b3d"/></g><g transform="translate(29.979 11.587)"><rect width="0.062" height="33.302" fill="#372b3d"/></g><g transform="translate(24.984 14.471)"><rect width="0.062" height="33.302" fill="#372b3d"/></g><g transform="translate(19.99 17.354)"><rect width="0.062" height="33.302" fill="#372b3d"/></g><g transform="translate(14.996 20.237)"><rect width="0.062" height="33.302" fill="#372b3d"/></g><g transform="translate(10.002 23.121)"><rect width="0.062" height="33.302" fill="#372b3d"/></g><g transform="translate(5.008 26.004)"><rect width="0.062" height="33.302" fill="#372b3d"/></g></g><path d="M43.317,178l-4.994,2.883V165.545l4.994-2.883Z" transform="translate(-38.278 -118.695)" fill="#a6afcd"/><path d="M48.219,171.52,43.225,174.4v-4.774l4.994-2.883Z" transform="translate(-35.689 -116.539)" fill="#a6afcd"/><path d="M67.829,167.15l-4.994,2.883V145.142l4.994-2.883Z" transform="translate(-25.334 -129.47)" fill="#a6afcd"/><path d="M58.024,168.122l-4.994,2.883V159.682l4.994-2.883Z" transform="translate(-30.511 -121.791)" fill="#a6afcd"/><path d="M72.732,158.973l-4.994,2.883v-9.419l4.994-2.883Z" transform="translate(-22.745 -125.617)" fill="#a6afcd"/><path d="M53.122,177.2l-4.994,2.883V150.678l4.994-2.883Z" transform="translate(-33.1 -126.546)" fill="#a6afcd"/><path d="M62.927,167.888l-4.994,2.883V151.934l4.994-2.883Z" transform="translate(-27.923 -125.883)" fill="#a6afcd"/></g></g><g transform="translate(49.551 7.796)"><g transform="translate(0)" style="isolation:isolate"><g transform="translate(0 30.649)"><path d="M50.056,163.072l-1.233-.716-.041-14.492,1.233.716Z" transform="translate(-48.782 -147.864)" fill="#bcc5df"/></g><path d="M50.015,159.172l-1.233-.716,53.085-30.649,1.233.716Z" transform="translate(-48.782 -127.807)" fill="#fff"/><g transform="translate(1.233 0.716)"><path d="M102.674,128.275l.041,14.491L49.63,173.416l-.041-14.491Z" transform="translate(-49.589 -128.275)" fill="#eef1f8"/></g></g><g transform="translate(4.42 8.187)"><path d="M53.128,150.511c.086.131.185.3.3.5s.228.422.35.662.241.486.361.741.231.5.336.72q.156-.518.336-1.108t.361-1.158c.121-.379.237-.735.35-1.065s.211-.611.3-.842l1.012-.584q.071.525.131,1.195c.04.445.076.912.107,1.4s.06.981.086,1.476.049.963.067,1.4l-1.082.625c-.015-.546-.034-1.138-.058-1.777s-.06-1.277-.107-1.913q-.128.419-.286.931c-.105.339-.208.68-.31,1.018s-.2.665-.3.973-.177.576-.243.795l-.778.449c-.066-.142-.147-.315-.243-.515s-.194-.41-.3-.63-.206-.442-.31-.66-.2-.419-.286-.6q-.073,1.036-.107,2.037t-.058,1.843l-1.082.625q.028-.69.067-1.479T51.828,154c.031-.524.066-1.034.107-1.527s.084-.941.131-1.346Z" transform="translate(-51.675 -125.132)" fill="#7b839f"/><path d="M60.727,148.611a5.113,5.113,0,0,1-.189,1.4,5.323,5.323,0,0,1-.516,1.227,4.934,4.934,0,0,1-.779,1.015,4.781,4.781,0,0,1-.973.75,2.825,2.825,0,0,1-.955.362A1.129,1.129,0,0,1,56,152.625a3,3,0,0,1-.193-1.177,4.9,4.9,0,0,1,.2-1.4,5.534,5.534,0,0,1,.538-1.244,5.125,5.125,0,0,1,.784-1.021,4.484,4.484,0,0,1,.937-.73,2.825,2.825,0,0,1,.955-.362,1.2,1.2,0,0,1,.784.116,1.248,1.248,0,0,1,.527.63A3,3,0,0,1,60.727,148.611Zm-3.77,2.176a2.435,2.435,0,0,0,.089.7.926.926,0,0,0,.257.432.567.567,0,0,0,.41.137,1.22,1.22,0,0,0,.556-.189,2.239,2.239,0,0,0,.552-.449,2.692,2.692,0,0,0,.414-.614,3.308,3.308,0,0,0,.257-.727,3.6,3.6,0,0,0,.089-.808,2.483,2.483,0,0,0-.089-.709.926.926,0,0,0-.257-.437.576.576,0,0,0-.414-.136,1.253,1.253,0,0,0-.552.188,2.183,2.183,0,0,0-.556.457,2.833,2.833,0,0,0-.41.614,3.318,3.318,0,0,0-.257.732A3.623,3.623,0,0,0,56.958,150.787Z" transform="translate(-49.491 -126.033)" fill="#7b839f"/><path d="M62.947,150.363a13.776,13.776,0,0,0-1.033-1.337,8.63,8.63,0,0,0-1.183-1.119v3.735l-1.1.634v-5.7l.9-.523a4.2,4.2,0,0,1,.52.365c.191.154.384.324.581.509s.393.382.588.59.377.411.549.61v-3.365l1.1-.639v5.7Z" transform="translate(-47.472 -127.379)" fill="#7b839f"/><path d="M63.159,143.914l1.111-.642v5.7l-1.111.642Z" transform="translate(-45.611 -127.827)" fill="#7b839f"/><path d="M68.443,141.457v1.094l-1.49.86v4.607l-1.111.642v-4.607l-1.49.86v-1.1Z" transform="translate(-44.981 -128.786)" fill="#7b839f"/><path d="M72.164,142.006a5.1,5.1,0,0,1-.188,1.4,5.374,5.374,0,0,1-.516,1.229,4.891,4.891,0,0,1-.781,1.013,4.727,4.727,0,0,1-.972.752,2.788,2.788,0,0,1-.955.361,1.21,1.21,0,0,1-.784-.11,1.236,1.236,0,0,1-.527-.625,3.005,3.005,0,0,1-.193-1.177,4.886,4.886,0,0,1,.2-1.4,5.689,5.689,0,0,1,.538-1.245,5.173,5.173,0,0,1,.784-1.019,4.533,4.533,0,0,1,.938-.73,2.818,2.818,0,0,1,.954-.362,1.21,1.21,0,0,1,.784.115,1.261,1.261,0,0,1,.527.63A3,3,0,0,1,72.164,142.006ZM68.4,144.182a2.4,2.4,0,0,0,.089.706.926.926,0,0,0,.257.432.578.578,0,0,0,.41.138,1.239,1.239,0,0,0,.556-.189,2.238,2.238,0,0,0,.552-.451,2.693,2.693,0,0,0,.413-.613,3.334,3.334,0,0,0,.257-.727,3.6,3.6,0,0,0,.09-.808,2.444,2.444,0,0,0-.09-.711.929.929,0,0,0-.257-.435.568.568,0,0,0-.413-.136,1.227,1.227,0,0,0-.552.188,2.209,2.209,0,0,0-.556.455,2.824,2.824,0,0,0-.41.616,3.317,3.317,0,0,0-.257.732A3.609,3.609,0,0,0,68.4,144.182Z" transform="translate(-43.452 -129.52)" fill="#7b839f"/><path d="M72.518,138.722a2.755,2.755,0,0,1,1.7-.527c.394.076.591.437.591,1.079a2.606,2.606,0,0,1-.238,1.112,3.711,3.711,0,0,1-.688.984,3.3,3.3,0,0,1,.313.31c.11.119.219.249.325.388s.209.287.309.446.193.318.278.477l-1.242.718-.275-.41c-.093-.138-.188-.269-.286-.394s-.2-.24-.29-.347a2.38,2.38,0,0,0-.286-.275l-.549.316v2.083l-1.111.642,0-5.62q.364-.291.752-.549C72.083,138.985,72.313,138.84,72.518,138.722Zm.064,1.057c-.081.046-.153.09-.217.133l-.182.122v1.546l.313-.182a3.262,3.262,0,0,0,.9-.7,1.21,1.21,0,0,0,.27-.773c0-.28-.092-.426-.275-.439A1.629,1.629,0,0,0,72.582,139.78Z" transform="translate(-41.433 -130.517)" fill="#7b839f"/><path d="M74.181,137.55l1.112-.642v5.7l-1.112.642Z" transform="translate(-39.791 -131.188)" fill="#7b839f"/><path d="M78.968,141.114a13.6,13.6,0,0,0-1.033-1.337,8.552,8.552,0,0,0-1.183-1.12v3.736l-1.1.633v-5.7l.9-.523a4.226,4.226,0,0,1,.52.367c.191.153.384.322.581.509s.393.381.588.59.377.411.549.608V135.51l1.1-.637v5.7Z" transform="translate(-39.012 -132.263)" fill="#7b839f"/><path d="M81.662,134.713a2.733,2.733,0,0,0-1.123,1.146,3.484,3.484,0,0,0-.345,1.562,2.569,2.569,0,0,0,.086.711.9.9,0,0,0,.257.44.579.579,0,0,0,.428.136,1.364,1.364,0,0,0,.6-.209c.124-.072.229-.134.318-.191a2.421,2.421,0,0,0,.232-.167l0-1.983,1.112-.642v2.822a7.6,7.6,0,0,1-.642.564,8.445,8.445,0,0,1-1.09.732,2.885,2.885,0,0,1-1.009.385,1.149,1.149,0,0,1-.773-.13,1.236,1.236,0,0,1-.5-.643,3.256,3.256,0,0,1-.174-1.158,4.915,4.915,0,0,1,.193-1.378,5.508,5.508,0,0,1,.527-1.238,5.078,5.078,0,0,1,.787-1.035,4.7,4.7,0,0,1,1.6-1.065,3.779,3.779,0,0,1,.484-.157,1.627,1.627,0,0,1,.336-.049,1.23,1.23,0,0,1,.188.006l-.321,1.213a2.049,2.049,0,0,0-.523.06A2.435,2.435,0,0,0,81.662,134.713Z" transform="translate(-37.225 -133.165)" fill="#7b839f"/></g></g><g transform="translate(73.076 38.141)"><ellipse cx="9.1" cy="5.254" rx="9.1" ry="5.254" transform="translate(0 21.56)" fill="#bcc5df" opacity="0.8" style="mix-blend-mode:multiply;isolation:isolate"/><g transform="translate(1.924)"><g style="isolation:isolate"><g transform="translate(8.271)" style="isolation:isolate"><path d="M80.805,148.872l-2.156-.836c-2.21-.857-4.988-.248-7.8,2.028l2.156.836C75.818,148.624,78.6,148.015,80.805,148.872Z" transform="translate(-70.85 -147.665)" fill="#c5243c"/><g clip-path="url(#j)"><g style="isolation:isolate"><path d="M80.805,148.872l-2.156-.836c-2.21-.857-4.988-.248-7.8,2.028l2.156.836c2.812-2.275,5.59-2.885,7.8-2.028Z" transform="translate(-70.85 -147.665)" fill="#c5243c"/></g></g></g><g transform="translate(0 2.399)" style="isolation:isolate"><path d="M70.022,176.836l2.156.837c-2.182-.847-3.811-3.12-4.376-6.629-1.135-7.063,2.474-16.454,8.062-20.974l-2.156-.836c-5.588,4.522-9.2,13.911-8.062,20.974C66.212,173.717,67.84,175.991,70.022,176.836Z" transform="translate(-65.437 -149.235)" fill="#c5243c"/><g clip-path="url(#k)"><g style="isolation:isolate"><path d="M75.864,150.071l-2.156-.836c-5.588,4.522-9.2,13.911-8.062,20.974.565,3.508,2.194,5.782,4.376,6.627l2.156.837c-2.182-.847-3.811-3.12-4.376-6.629-1.135-7.063,2.474-16.454,8.062-20.974Z" transform="translate(-65.437 -149.235)" fill="#c5243c"/></g></g></g><g transform="translate(2.156 0.836)"><path d="M75.119,150.611c-5.588,4.52-9.2,13.911-8.062,20.974s6.587,9.123,12.176,4.6,9.2-13.913,8.062-20.974S80.707,146.089,75.119,150.611Z" transform="translate(-66.848 -148.213)" fill="#ff445f"/></g><g transform="translate(4.156 3.776)"><path d="M74.827,152.07c-4.506,3.646-7.417,11.217-6.5,16.914s5.313,7.356,9.819,3.71,7.417-11.219,6.5-16.914S79.333,148.424,74.827,152.07Z" transform="translate(-68.157 -150.137)" fill="#e9ecf5"/></g><g transform="translate(6.352 7.005)"><path d="M74.5,153.673a14.7,14.7,0,0,0-4.786,12.454c.674,4.195,3.91,5.417,7.229,2.732a14.706,14.706,0,0,0,4.786-12.454C81.059,152.212,77.822,150.988,74.5,153.673Z" transform="translate(-69.595 -152.249)" fill="#ff445f"/></g><g transform="translate(6.812 8.837)"><ellipse cx="6.292" cy="3.645" rx="6.292" ry="3.645" transform="matrix(0.361, -0.932, 0.932, 0.361, 0, 11.734)" fill="#e9ecf5"/></g><g transform="translate(10.217 12.687)"><path d="M73.939,156.5a5.432,5.432,0,0,0-1.769,4.6c.249,1.551,1.446,2,2.673,1.01a5.433,5.433,0,0,0,1.769-4.6C76.363,155.954,75.166,155.5,73.939,156.5Z" transform="translate(-72.124 -155.968)" fill="#ff445f"/></g></g></g><g transform="translate(14.362 12.265)"><g transform="translate(0 0.526)" style="isolation:isolate"><g transform="translate(1.841 2.128)"><path d="M75.176,158.4l.8-.465-.394-.512-.8.465Z" transform="translate(-74.782 -157.428)" fill="#bcc5df"/></g><g transform="translate(1.841 1.604)"><path d="M74.782,158.074l.8-.465.021-.523-.8.465Z" transform="translate(-74.782 -157.086)" fill="#bcc5df"/></g><g transform="translate(2.235 2.639)"><path d="M76.246,159.8l.8-.465-1.206-1.568-.8.465Z" transform="translate(-75.039 -157.763)" fill="#bcc5df"/></g><g transform="translate(0 0.464)"><path d="M75.5,156.34l-.064,1.6-.02.524.393.512,1.207,1.568-3.441-1.6a7.727,7.727,0,0,1,.1-1.166Z" transform="translate(-73.577 -156.34)" fill="#fff"/></g><g transform="translate(1.862)"><path d="M74.8,158.105l.8-.465.063-1.6-.8.465Z" transform="translate(-74.795 -156.036)" fill="#bcc5df"/></g></g><g transform="translate(2.096 1.91)"><path d="M88.474,157.662a.454.454,0,0,0-.387-.72l-12.7.521a.453.453,0,0,0,.038.906l12.7-.52A.456.456,0,0,0,88.474,157.662Z" transform="translate(-74.949 -156.942)" fill="#9aa7d2"/></g><g transform="translate(15.578 2.268)"><path d="M86.107,159.823l.8-.465-2.335-2.182-.8.465Z" transform="translate(-83.772 -157.176)" fill="#d4dbef"/></g><g transform="translate(13.537)"><path d="M85.208,156.157l.8-.465-2.772.078-.8.465Z" transform="translate(-82.436 -155.692)" fill="#d4dbef"/></g><g transform="translate(15.578)"><path d="M83.772,158.424l.8-.465.732-2.268-.8.465Z" transform="translate(-83.772 -155.692)" fill="#bcc5df"/></g><g transform="translate(11.886 0.465)"><path d="M85.779,156l-2.772.077-1.552,1.5-.1.913.69.384,2.565,1.653,2.772-.078-2.335-2.182Z" transform="translate(-81.355 -155.996)" fill="#fff"/></g></g><g transform="translate(13.266 16.558)"><g style="isolation:isolate"><g transform="translate(1.787 1.69)"><path d="M74.03,159.607l0,.925.653.035,0-.925Z" transform="translate(-74.03 -159.607)" fill="#bcc5df"/></g><g transform="translate(2.44 1.725)"><path d="M74.457,159.63l0,.925,2,.107,0-.925Z" transform="translate(-74.457 -159.63)" fill="#bcc5df"/></g><g transform="translate(1.409 1.69)"><path d="M73.782,159.919l0,.925.378-.312,0-.925Z" transform="translate(-73.782 -159.607)" fill="#bcc5df"/></g><g transform="translate(0 0.445)"><path d="M73.114,162.229l-.254-3.4.064-.037.188,2.512Z" transform="translate(-72.86 -158.792)" fill="#bcc5df"/></g><g transform="translate(0.064)"><path d="M73.886,158.5l3.394,1.832-2-.107-.652-.035-.379.312-1.157.955-.188-2.512A5.911,5.911,0,0,1,73.886,158.5Z" transform="translate(-72.902 -158.501)" fill="#fff"/></g><g transform="translate(0.252 2.002)"><path d="M73.025,160.765l0,.925,1.158-.954,0-.925Z" transform="translate(-73.025 -159.811)" fill="#bcc5df"/></g><g transform="translate(8.352 10.17)"><path d="M78.326,165.279l0,.925.457-.123,0-.925Z" transform="translate(-78.326 -165.156)" fill="#bcc5df"/></g><g transform="translate(8.284 10.292)"><path d="M78.281,165.589l0,.925.068-.352,0-.925Z" transform="translate(-78.281 -165.237)" fill="#bcc5df"/></g><g transform="translate(1.56 1.814)"><path d="M82.211,170.579a.455.455,0,0,0,.356-.737l-7.874-9.981a.454.454,0,0,0-.714.562l7.876,9.981A.448.448,0,0,0,82.211,170.579Z" transform="translate(-73.881 -159.688)" fill="#9aa7d2"/></g><g transform="translate(10.919 13.171)"><path d="M80.006,167.121l0,.925,3.236.687,0-.925Z" transform="translate(-80.006 -167.121)" fill="#d4dbef"/></g><g transform="translate(9.722 13.171)"><path d="M79.222,169l0,.925,1.2-1.876,0-.925Z" transform="translate(-79.222 -167.121)" fill="#bcc5df"/></g><g transform="translate(7.879 12.731)"><path d="M78.016,166.832l0,.925,1.843,2.317,0-.925Z" transform="translate(-78.016 -166.832)" fill="#d4dbef"/></g><g transform="translate(7.879 10.256)"><path d="M78.257,165.7l-.241,1.99L79.859,170l1.2-1.876,3.236.687L82.449,166.5l-3-1.174-.42-.112Z" transform="translate(-78.016 -165.213)" fill="#fff"/></g></g></g></g><g transform="translate(15.277 54.614)"><g style="isolation:isolate"><g transform="translate(0 15.661)"><path d="M27.626,180.162l-1.233-.716L26.352,168.7l1.233.716Z" transform="translate(-26.352 -168.695)" fill="#bcc5df"/></g><path d="M27.585,174.823l-1.233-.716,27.136-15.661,1.233.716Z" transform="translate(-26.352 -158.446)" fill="#fff"/><g transform="translate(1.233 0.716)"><path d="M54.3,158.915l.041,10.751L27.2,185.327l-.041-10.751Z" transform="translate(-27.159 -158.915)" fill="#eef1f8"/></g></g><g transform="translate(3.436 5.209)"><path d="M31.778,169.066v.85l-1.157.668v3.579l-.863.5v-3.579l-1.157.668v-.85Z" transform="translate(-28.601 -158.047)" fill="#7b839f"/><path d="M32.165,168.545a2.13,2.13,0,0,1,1.322-.408q.461.089.46.836a2.02,2.02,0,0,1-.185.865,2.937,2.937,0,0,1-.535.766,2.7,2.7,0,0,1,.244.238c.084.095.168.2.251.3s.163.223.241.347.15.248.215.37l-.964.558c-.07-.1-.142-.209-.214-.318s-.147-.209-.223-.306-.151-.186-.225-.269a1.793,1.793,0,0,0-.222-.214l-.426.246v1.617l-.863.5v-4.364q.282-.227.584-.426C31.826,168.75,32.006,168.637,32.165,168.545Zm.05.821c-.063.037-.119.072-.17.1l-.141.095v1.2l.243-.141a2.484,2.484,0,0,0,.7-.542.932.932,0,0,0,.211-.6c0-.218-.07-.332-.212-.341A1.28,1.28,0,0,0,32.216,169.365Z" transform="translate(-27.312 -158.545)" fill="#7b839f"/><path d="M36.276,170.733c-.043-.13-.089-.261-.138-.4l-.147-.4-1.5.863-.145.57c-.049.191-.095.374-.136.552l-.9.518q.215-.841.411-1.56c.13-.48.255-.934.38-1.363s.246-.839.365-1.23.246-.778.376-1.16l.818-.472c.125.234.251.477.373.727s.246.52.37.805.251.594.38.924.267.692.411,1.085Zm-1.038-2.827c-.018.075-.047.179-.084.312s-.079.284-.127.457-.1.362-.159.57-.118.426-.179.652l1.1-.633c-.058-.159-.115-.31-.17-.452s-.108-.274-.157-.39-.093-.22-.13-.309S35.263,167.956,35.238,167.906Z" transform="translate(-26.111 -159.32)" fill="#7b839f"/><path d="M36.181,170.83V166.4l2.567-1.482v.837l-1.705.984v.926l1.517-.876v.837l-1.517.876v1.828Z" transform="translate(-24.598 -160.236)" fill="#7b839f"/><path d="M38.259,169.63V165.2l2.569-1.482v.837l-1.705.984v.926l1.516-.876v.837l-1.516.876v1.828Z" transform="translate(-23.501 -160.87)" fill="#7b839f"/><path d="M40.338,163.662l.863-.5v4.428l-.863.5Z" transform="translate(-22.403 -161.164)" fill="#7b839f"/><path d="M43.289,166.852q-.935.541-1.426.222t-.489-1.423a3.834,3.834,0,0,1,.148-1.067,4.351,4.351,0,0,1,.41-.966,4.015,4.015,0,0,1,.62-.808,3.752,3.752,0,0,1,.781-.6,2.939,2.939,0,0,1,.442-.214,2.642,2.642,0,0,1,.348-.105,1.244,1.244,0,0,1,.249-.032c.067,0,.115,0,.145.006l-.249.949a1.527,1.527,0,0,0-.413.053,2.177,2.177,0,0,0-.535.231,1.976,1.976,0,0,0-.39.3,2.032,2.032,0,0,0-.338.442,2.458,2.458,0,0,0-.235.573,2.657,2.657,0,0,0-.089.7,2.247,2.247,0,0,0,.058.538.681.681,0,0,0,.189.348.453.453,0,0,0,.339.107,1.176,1.176,0,0,0,.509-.182,3.5,3.5,0,0,0,.338-.222c.1-.073.188-.145.266-.214a2.559,2.559,0,0,0,.2-.2c.06-.064.113-.122.16-.176l.238.662a4.148,4.148,0,0,1-.515.527A4.765,4.765,0,0,1,43.289,166.852Z" transform="translate(-21.856 -161.855)" fill="#7b839f"/></g></g><g transform="translate(20.507 13.539)"><g transform="translate(0.804 3.524)"><g transform="translate(0 50.224)"><path d="M30.8,187.441a.5.5,0,0,1-.374-.83l17.388-19.7a.5.5,0,0,1,.749.662l-17.388,19.7A.492.492,0,0,1,30.8,187.441Z" transform="translate(-30.301 -166.739)" fill="#fd963d"/></g><g transform="translate(17.388 50.223)"><path d="M56.126,168.588H56.1l-13.947-.851a.5.5,0,0,1,.061-1l13.947.851a.5.5,0,0,1-.031,1Z" transform="translate(-41.68 -166.738)" fill="#fd963d"/></g><g transform="translate(31.333 33.528)"><path d="M51.307,174.358a.505.505,0,0,1-.275-.081.5.5,0,0,1-.142-.692l11.547-17.547a.5.5,0,0,1,.836.55L51.724,174.133A.5.5,0,0,1,51.307,174.358Z" transform="translate(-50.807 -155.813)" fill="#fd963d"/></g><g transform="translate(42.883 17.713)"><path d="M58.865,162.278a.5.5,0,0,1-.313-.889l19.669-15.815a.5.5,0,0,1,.627.779L59.178,162.168A.505.505,0,0,1,58.865,162.278Z" transform="translate(-58.365 -145.463)" fill="#fd963d"/></g><g transform="translate(62.552)"><path d="M71.737,152.583a.5.5,0,0,1-.463-.686L78.4,134.184a.5.5,0,0,1,.928.373L72.2,152.27A.5.5,0,0,1,71.737,152.583Z" transform="translate(-71.237 -133.871)" fill="#fd963d"/></g></g><path d="M29.775,179.495v3.567l3.089-1.783v-3.567Z" transform="translate(-29.775 -107.197)" fill="#fc8116"/><path d="M41.2,167.1v3.566l3.089-1.783v-3.566Z" transform="translate(-23.745 -113.743)" fill="#fc8116"/><path d="M50.123,167.377v3.566l3.089-1.783v-3.566Z" transform="translate(-19.031 -113.596)" fill="#fc8116"/><path d="M58.48,155.291v3.566l3.089-1.783v-3.566Z" transform="translate(-14.618 -119.978)" fill="#fc8116"/><path d="M71.282,148.941l3.089-1.783v-3.566l-3.089,1.783Z" transform="translate(-7.858 -125.214)" fill="#fc8116"/><path d="M75.828,133.348v3.566l3.089-1.783v-3.567Z" transform="translate(-5.457 -131.565)" fill="#fc8116"/></g><g transform="translate(79.58 63.412)"><ellipse cx="5.204" cy="3.005" rx="5.204" ry="3.005" transform="translate(0.018 25.776)" fill="#bcc5df" opacity="0.5" style="mix-blend-mode:multiply;isolation:isolate"/><g transform="translate(0 2.784)"><g transform="translate(1.446)"><path d="M71.163,172.543c.341-.8.663-1.846,1.112-3.151a3.547,3.547,0,0,0,.194-1.1,2.11,2.11,0,0,0-.29-1.038.6.6,0,0,0-.365-.356.566.566,0,0,0-.435.151,3.929,3.929,0,0,0-1.339,2.411c-.16.834-.437,1.644-.591,2.483a2.43,2.43,0,0,0-.067.494c.018.779.529,1.256,1.053,1.019A1.811,1.811,0,0,0,71.163,172.543Z" transform="translate(-69.381 -165.569)" fill="#fff"/><path d="M73.719,182.135a23.434,23.434,0,0,0-1.8,1.747,4.552,4.552,0,0,0-.471.544.889.889,0,0,0-.226.581c.046.266.619.33.836.342a1.838,1.838,0,0,0,.854-.151,1.075,1.075,0,0,0,.553-.559A1.583,1.583,0,0,1,73.91,184c.2-.136.492-.17.622-.379a.68.68,0,0,0,.076-.365c0-.238-.067-.472-.067-.706a1.7,1.7,0,0,0-.02-.529.414.414,0,0,0-.371-.234.627.627,0,0,0-.434.173Z" transform="translate(-68.413 -157.704)" fill="#bcc5df"/><path d="M72.558,181.375a23.72,23.72,0,0,0-2.1,1.378,4.674,4.674,0,0,0-.564.448.885.885,0,0,0-.33.527c-.006.269.546.439.756.492a1.807,1.807,0,0,0,.866.011,1.076,1.076,0,0,0,.649-.445,1.556,1.556,0,0,1,.559-.542c.226-.1.515-.076.682-.257a.683.683,0,0,0,.144-.345c.046-.234.021-.477.066-.706a1.687,1.687,0,0,0,.079-.523.413.413,0,0,0-.321-.3.632.632,0,0,0-.458.089Z" transform="translate(-69.283 -158.065)" fill="#bcc5df"/><path d="M73.19,183.078a9.682,9.682,0,0,0-.309-2.628l0-.008a2.162,2.162,0,0,0,.214-.845c.017-.507-.037-1.225-.027-1.733.018-1.05.912-4.454-1.245-5.023-.324-.086-.842-.7-1.1-.466a1.65,1.65,0,0,0-.339.761,9.258,9.258,0,0,0-.127,1.064,8.116,8.116,0,0,0,.093,2.142c.176,1.024.208,3.495.74,4.595h0c.258,1.225.413,5.6.416,5.614.063.3.258.616,1.27.538.275-.021.4-.828.437-1.044A22.9,22.9,0,0,0,73.19,183.078Z" transform="translate(-68.939 -162.701)" fill="#251b29"/><path d="M74.833,172.835l-.127-.173a4.729,4.729,0,0,1-1.6.212c-1.2.119-1.293.329-2.067-.212a6.067,6.067,0,0,0,0,1.78c-.053.941.821,1.036.845,1.534.058,1.152.16,3.43.313,4.575a4.592,4.592,0,0,0,.2.946q.027.582.06,1.161a32.033,32.033,0,0,0,.356,4.972c.188.5.847.477,1.276.344a.888.888,0,0,0,.48-.325,1.306,1.306,0,0,0,.176-.542,14.5,14.5,0,0,0-.093-5.2v0a11.166,11.166,0,0,1,.284-3.07A10.552,10.552,0,0,0,74.833,172.835Z" transform="translate(-68.544 -162.521)" fill="#372b3d"/><path d="M73.557,171.512l0,0c-.038.3-.064.6-.075.9Q73.5,171.964,73.557,171.512Z" transform="translate(-67.217 -163.129)" fill="#f3a984"/><path d="M73.483,172.106c-.009.183-.012.368-.012.552l.009,0C73.476,172.471,73.477,172.288,73.483,172.106Z" transform="translate(-67.221 -162.815)" fill="#f3a984"/><path d="M75.178,174.892q.023-.456.078-.908l0,0a11.422,11.422,0,0,1,.206-1.145c.154-.672.332-1.209.515-1.873.1-.37.325-.932.356-1.2.07-.611-.283-1.082-1.074-1.618a11.576,11.576,0,0,0-2.644-1.164c-1.462-.457-1.667.076-2.087,1.241a9.632,9.632,0,0,0-.1,4.029,15.9,15.9,0,0,1,.17,1.847,7.635,7.635,0,0,1-.13,1.562c1.277.9,3.022.675,4.48.321a1.258,1.258,0,0,0,.261-.078A8.155,8.155,0,0,1,75.178,174.892Z" transform="translate(-68.916 -165.601)" fill="#f4f4f4"/><path d="M72.58,169.886c-.287.816.145,1.63.145,2.446.038,1.064,0,2.135-.069,3.207.382-.057.756-.136,1.114-.223a1.256,1.256,0,0,0,.261-.078,8.157,8.157,0,0,1-.026-1.022q.023-.456.078-.908l0,0a11.42,11.42,0,0,1,.206-1.145c.154-.672.332-1.209.515-1.873.1-.37.325-.932.356-1.2a1.238,1.238,0,0,0-.332-.99C73.954,168.6,72.962,168.893,72.58,169.886Z" transform="translate(-67.743 -164.926)" fill="#d4e2fc"/><g transform="translate(2.725 2.899)"><path d="M72.11,174.351c-.159.134-.347.3-.5.431-.226-.355-.232-.385-.443-.741a24.393,24.393,0,0,1,.59-6.118l.491.347A22.975,22.975,0,0,0,72.11,174.351Z" transform="translate(-71.164 -167.923)" fill="#1c232a"/></g><path d="M71.414,167.992a.065.065,0,0,0,0,.031.714.714,0,0,0,.058.189,2.26,2.26,0,0,0,.163.348.332.332,0,0,0,.145.148.26.26,0,0,0,.226-.031c.079-.044.223-.108.2-.208a1.849,1.849,0,0,0-.073-.254.929.929,0,0,0-.29-.48c-.174-.115-.3.058-.391.188A.209.209,0,0,0,71.414,167.992Z" transform="translate(-68.309 -165.142)" fill="#283032"/><path d="M73.6,168.02c.038,1.18-2.176,1.2-2.144.09.044-1.546.138-1.724.866-1.964a2.147,2.147,0,0,1,.619-.121c.77-.014.472.377.443.649C73.3,167.484,73.584,167.6,73.6,168.02Z" transform="translate(-68.286 -166.026)" fill="#f5a783"/><path d="M73.6,168.02c-.014-.425-.3-.536-.215-1.345.029-.272.327-.663-.443-.649a2.147,2.147,0,0,0-.619.121c-.718.237-.819.413-.865,1.9.613-.06,1.154-.735,1.777-.333a1.12,1.12,0,0,1,.356.461A.854.854,0,0,0,73.6,168.02Z" transform="translate(-68.285 -166.026)" fill="#ee9c76"/><path d="M73.233,167.175c-.623-.4-1.164.274-1.777.333l0,.063c-.031,1.057,1.98,1.089,2.135.066A1.12,1.12,0,0,0,73.233,167.175Z" transform="translate(-68.286 -165.486)" fill="#f5a783"/><path d="M72,168.319c-.038.127-.206.17-.316.243-.047.032-.131.095-.2.083s-.1-.1-.124-.151a3.279,3.279,0,0,1-.249-1.207.476.476,0,0,1,.122-.37.36.36,0,0,1,.362-.05c.122.053.151.292.107.4A.948.948,0,0,0,72,168.319Z" transform="translate(-68.467 -165.597)" fill="#fff"/><path d="M71.68,168.254a2.837,2.837,0,0,0,.426.513c.058.052.105.115.183.09a3,3,0,0,0,1.339-1.219.553.553,0,0,0-.141-.463c-.017-.023-.139-.188-.162-.2a2.611,2.611,0,0,1-.232.526A2,2,0,0,1,71.68,168.254Z" transform="translate(-68.167 -165.527)" fill="#fff"/></g><g transform="translate(2.893 8.685)"><path d="M71.541,172.1a2.645,2.645,0,0,0-.561.009c-.115.023.2.165.134.26-.1.142-.3.24-.281.414a1.645,1.645,0,0,0,.09.413.641.641,0,0,0,.263.321.313.313,0,0,0,.156.046.462.462,0,0,0,.11-.02l.607-.159a.767.767,0,0,0,.13-.044.433.433,0,0,0,.136-.122.739.739,0,0,0,.108-.616.7.7,0,0,0-.141-.306c-.061-.064-.176-.067-.258-.09A4.169,4.169,0,0,0,71.541,172.1Z" transform="translate(-70.061 -171.51)" fill="#ffbfa2"/><path d="M72.272,172.36l-.553-.41a.9.9,0,0,0-.226-.138c-.064-.023-.133-.032-.2-.049s-.119-.037-.18-.047a.978.978,0,0,0-.546.127.6.6,0,0,0-.2.121c-.035.035-.06.092-.031.131a.124.124,0,0,0,.057.04.468.468,0,0,0,.2.049c.083,0,.156-.05.237-.061a.413.413,0,0,1,.361.179c.087.112.142.244.219.362a.5.5,0,0,0,.325.248.535.535,0,0,0,.148,0,.821.821,0,0,0,.329-.1.435.435,0,0,0,.183-.225C72.428,172.473,72.353,172.419,72.272,172.36Z" transform="translate(-70.328 -171.71)" fill="#ffbfa2"/></g><path d="M71.366,171.175l-2.931-1.7.141-.095,2.931,1.7Z" transform="translate(-68.435 -164.254)" fill="#1c232a"/><path d="M70.494,170.493l1.24,3.784-.237-.158-1.143-3.531Z" transform="translate(-67.421 -163.667)" fill="#0f1317"/><path d="M72.606,174.926l-2.931-1.7-1.24-3.784,2.931,1.7Z" transform="translate(-68.435 -164.221)" fill="#0f1317"/><path d="M71.865,172.584c.121-.073-.315-.231-.365-.29-.119-.147-.1.092-.527.086a1.088,1.088,0,0,1-.373-.049c-.086-.032-.183-.086-.261-.037a.152.152,0,0,0-.043.188c-.116-.055-.138.162-.052.264.165.2-.127.231.217.5l-.064.043c.037.376.954.257,1.326.188A.461.461,0,0,0,71.865,172.584Z" transform="translate(-67.507 -162.741)" fill="#ffbfa2"/><g transform="translate(0.32 6.465)"><path d="M69.135,171.166c-.2.1-.313-.145-.223-.231s.414-.118.484.055C69.455,171.133,69.27,171.1,69.135,171.166Z" transform="translate(-68.519 -169.935)" fill="#ffbfa2"/><path d="M68.705,170.332c-.125.089-.031.325.035.329.038,0,.078-.029.112-.043a.463.463,0,0,1,.263-.024.418.418,0,0,0,.112.015.1.1,0,0,0,.087-.061c.058-.16-.194-.251-.267-.27A.347.347,0,0,0,68.705,170.332Z" transform="translate(-68.644 -170.257)" fill="#ffbfa2"/><path d="M68.761,170.839c.1.1.134-.083.414-.038a.466.466,0,0,0,.112.014.1.1,0,0,0,.084-.066c.057-.16-.2-.246-.269-.264C68.754,170.4,68.578,170.661,68.761,170.839Z" transform="translate(-68.621 -170.146)" fill="#ffbfa2"/><path d="M68.848,171c.113.047.128-.009.344-.032.333-.037.211-.339-.185-.28a1.434,1.434,0,0,0-.162.032A.152.152,0,0,0,68.848,171Z" transform="translate(-68.585 -170.032)" fill="#ffbfa2"/></g></g><path d="M76.284,170.153a3.582,3.582,0,0,0-.226-1.1,2.118,2.118,0,0,0-.654-.857.6.6,0,0,0-.471-.2.569.569,0,0,0-.348.3,3.929,3.929,0,0,0-.355,2.735c.157.83.2,1.679.364,2.511a11.786,11.786,0,0,0-2.749.8.769.769,0,0,0-.353.289.833.833,0,0,0,.212.8,1.079,1.079,0,0,0,.843.128,9.486,9.486,0,0,0,3.235-.784.645.645,0,0,0,.29-.176,1.828,1.828,0,0,0,.339-1.119C76.435,172.625,76.348,171.531,76.284,170.153Z" transform="translate(-66.841 -162.2)" fill="#fff"/><g transform="translate(3.543)"><path d="M71.045,165.2a1.52,1.52,0,0,0-.24.828,1.158,1.158,0,0,0,.066.38,1.148,1.148,0,0,1,.115.35,1.552,1.552,0,0,1-.153.452.555.555,0,0,0-.018.39,1.114,1.114,0,0,0,.119.2c.2.307.012.759.351.981a.562.562,0,0,0,.286.07,3.929,3.929,0,0,0,.914-.249,2.285,2.285,0,0,0,.656-.582,2.89,2.89,0,0,0,.454-.544c.027-.057-.037-.067.021-.1.035-.017.078-.243.118-.248a.439.439,0,0,0,.15-.083c.076-.052.112.133.138.046a3.726,3.726,0,0,0,.226-1.151,1.554,1.554,0,0,0-.24-.978,1.575,1.575,0,0,0-.694-.5,1.934,1.934,0,0,0-1.3-.023A1.858,1.858,0,0,0,71.045,165.2Z" transform="translate(-70.736 -164.132)" fill="#ffbfa2"/><path d="M73.883,165.943a1.554,1.554,0,0,0-.24-.978,1.575,1.575,0,0,0-.694-.5,1.95,1.95,0,0,0-.776-.121c-.394.788.176,1.8-.254,2.613-.144.191-.431.336-.431.576-.1.429.333.813.1,1.244a4.611,4.611,0,0,0,.536-.176,2.285,2.285,0,0,0,.656-.582,2.889,2.889,0,0,0,.454-.544c.027-.057-.037-.067.021-.1.035-.017.078-.243.118-.248a.439.439,0,0,0,.15-.083c.076-.052.112.133.138.046A3.727,3.727,0,0,0,73.883,165.943Z" transform="translate(-70.372 -164.131)" fill="#f8b495"/><path d="M72.432,165.607a.508.508,0,0,1,.3.029.533.533,0,0,1,.278.414,6.566,6.566,0,0,1-.086,1.134.315.315,0,0,0,.029.163c.076.134.217.061.3-.023.052-.055.092-.119.141-.174a.34.34,0,0,1,.185-.121.2.2,0,0,1,.226.18.667.667,0,0,1-.028.295c-.006.023-.055.2.015.2a2.28,2.28,0,0,0,.727-1.743,1.137,1.137,0,0,0-.7-1.248,1.261,1.261,0,0,0-1.171-.5,2.638,2.638,0,0,0-1.259.4l-.044.027a1.574,1.574,0,0,0-.475.445c-.324.5.113.906.642.822a4.3,4.3,0,0,0,.714-.238,1.147,1.147,0,0,1,.212-.057Z" transform="translate(-70.753 -164.204)" fill="#c99c83"/></g><path d="M73.936,165.783a2.721,2.721,0,0,1-.028.324,2.126,2.126,0,0,1-.7,1.42c-.07,0-.021-.174-.015-.2a.646.646,0,0,0,.027-.295.2.2,0,0,0-.226-.18.34.34,0,0,0-.185.121c-.049.055-.089.119-.141.174-.079.084-.222.157-.3.023a.315.315,0,0,1-.029-.164c0-.055,0-.109.011-.162.009-.1.026-.2.04-.293a2.251,2.251,0,0,0,.035-.678.529.529,0,0,0-.278-.414.508.508,0,0,0-.3-.029,4.4,4.4,0,0,1,.643-.539,4.783,4.783,0,0,1,.738-.358,1.1,1.1,0,0,1,.7,1.112A1.341,1.341,0,0,1,73.936,165.783Z" transform="translate(-66.63 -164.028)" fill="#b98c74"/><path d="M72.906,165.865c.313-.021.393.367.177.666a1.559,1.559,0,0,1-.255.235c-.559.477-.7-.04-.523-.2C72.718,166.188,72.513,165.891,72.906,165.865Z" transform="translate(-66.429 -163.326)" fill="#f8b495"/><path d="M72.6,166.487c.035-.032.391-.243.148-.387a.108.108,0,0,0-.151.092c-.006.037.006.075,0,.112a.174.174,0,0,1-.023.061c-.032.052-.141.1-.119.176S72.58,166.507,72.6,166.487Z" transform="translate(-66.312 -163.208)" fill="#f3a984"/></g><g transform="translate(58.436 97.32)"><ellipse cx="6.24" cy="3.602" rx="6.24" ry="3.602" transform="translate(1.709 23.197)" fill="#bcc5df" opacity="0.5" style="mix-blend-mode:multiply;isolation:isolate"/><path d="M55.1,189.107c.06-.081.16-.173.248-.121s.076.186.087.266a.6.6,0,0,1-.058.344.894.894,0,0,0-.107.342.2.2,0,0,0,.018.1,5.6,5.6,0,0,0-.623.553.643.643,0,0,1-.063-.217A2.088,2.088,0,0,1,55.1,189.107Z" transform="translate(-54.597 -185.033)" fill="#ffbfa2"/><path d="M58.989,189.91c-.011.009.015.009.02,0a.977.977,0,0,0-.024-.408c-.047-.35.081-.709.023-1.057a.606.606,0,0,0-.118-.286.872.872,0,0,0-.222-.17,3.812,3.812,0,0,1-.384-.246,1.753,1.753,0,0,0-.1,1.468Z" transform="translate(-52.764 -185.683)" fill="#ffbf99"/><path d="M59.251,189.061a20.28,20.28,0,0,1,2.416.633,2.15,2.15,0,0,1,.993.518,1.1,1.1,0,0,1,.157,1.106.619.619,0,0,1-.387.457,1.716,1.716,0,0,1-.744-.108,8.5,8.5,0,0,1-1.517-.607c-.165-.086-.33-.177-.494-.269-.246-.138-.492-.275-.737-.416A1.87,1.87,0,0,0,59.251,189.061Z" transform="translate(-52.304 -184.985)" fill="#fff"/><g transform="translate(0.768 0.8)"><g transform="translate(0 0.041)" style="isolation:isolate"><g transform="translate(0.008 5.723)" style="isolation:isolate"><path d="M55.333,190.967l-.141-.083a.216.216,0,0,1-.089-.194l.141.081A.219.219,0,0,0,55.333,190.967Z" transform="translate(-55.104 -190.69)" fill="#eff6fe"/><g clip-path="url(#l)"><g style="isolation:isolate"><path d="M55.333,190.967l-.141-.083a.216.216,0,0,1-.089-.194l.141.081a.219.219,0,0,0,.089.2Z" transform="translate(-55.104 -190.69)" fill="#eff6fe"/></g></g></g><g transform="translate(0 2.876)"><path d="M55.248,191.756l-.141-.082-.008-2.847.141.082Z" transform="translate(-55.099 -188.827)" fill="#eff6fe"/></g><g transform="translate(0.302)"><path d="M55.437,189.38,55.3,189.3l4.076-2.353.141.082Z" transform="translate(-55.296 -186.944)" fill="#eff6fe"/></g><g transform="translate(0 2.354)" style="isolation:isolate"><path d="M55.24,189.089l-.141-.081a.664.664,0,0,1,.3-.523l.141.081A.664.664,0,0,0,55.24,189.089Z" transform="translate(-55.099 -188.485)" fill="#eff6fe"/><g clip-path="url(#m)"><g style="isolation:isolate"><path d="M55.24,188.987l-.141-.081a.576.576,0,0,1,.053-.229l.141.081a.582.582,0,0,0-.053.229Z" transform="translate(-55.099 -188.384)" fill="#eff6fe"/><path d="M55.275,188.816l-.141-.081a.719.719,0,0,1,.1-.167l.141.083a.679.679,0,0,0-.1.165Z" transform="translate(-55.081 -188.441)" fill="#eff6fe"/><path d="M55.342,188.694l-.141-.083a.545.545,0,0,1,.147-.127l.141.081a.526.526,0,0,0-.147.128Z" transform="translate(-55.045 -188.485)" fill="#eff6fe"/></g></g></g><g transform="translate(0.141 0.04)"><path d="M59.569,187.012c.167-.1.3-.02.3.173l.008,2.848a.665.665,0,0,1-.3.523L55.5,192.909c-.167.1-.3.018-.3-.174l-.008-2.847a.664.664,0,0,1,.3-.523Z" transform="translate(-55.191 -186.971)" fill="#cddcfb"/><path d="M59.656,189.976a.506.506,0,0,1-.219.379l-4.075,2.353a.2.2,0,0,1-.047.018.131.131,0,0,1-.008-.049v-.026L55.3,189.83a.51.51,0,0,1,.219-.379l4.039-2.33.037-.023a.149.149,0,0,1,.047-.018.131.131,0,0,1,.008.049Z" transform="translate(-55.133 -186.913)" fill="#bcc5df"/><path d="M59.565,189.928a.5.5,0,0,1-.219.377l-4.039,2.332-.008-2.821a.51.51,0,0,1,.219-.379l4.039-2.33Z" transform="translate(-55.133 -186.899)" fill="#15d9fd"/></g></g><path d="M58.179,186.938l.141.081a.213.213,0,0,0-.215.021l-.141-.083A.216.216,0,0,1,58.179,186.938Z" transform="translate(-53.586 -186.918)" fill="#eff6fe"/><path d="M56.018,190.733l2.475-1.429v-.868l-2.475,1.429Z" transform="translate(-54.614 -186.115)" fill="#fff"/><path d="M56.3,188.493l-.994,1.6,0,.606,1.768-2.655Z" transform="translate(-54.992 -186.322)" fill="#47e0ff" opacity="0.3" style="mix-blend-mode:screen;isolation:isolate"/><path d="M55.3,191.845l0,.688.218-.126,3.507-5.1-1.174.678Z" transform="translate(-54.991 -186.713)" fill="#47e0ff" opacity="0.3" style="mix-blend-mode:screen;isolation:isolate"/></g><path d="M55.275,189.889a.2.2,0,0,0,.076.061c.1.057.295.142.339-.024a.39.39,0,0,0,0-.157l-.053-.322c-.011-.06-.008-.141.05-.156.04-.011.078.02.105.049a1.185,1.185,0,0,1,.191.3c.021.043.04.086.06.128a5.416,5.416,0,0,1,.391,1.015,1.8,1.8,0,0,1,.064.6,2.692,2.692,0,0,1-.086.494.525.525,0,0,1-.188.319c-.122.064-.243-.037-.322-.122a2.947,2.947,0,0,1-.263-.457c-.044-.069-.063-.145-.105-.212a.769.769,0,0,0-.22-.182,1.881,1.881,0,0,1-.454-.44,2.136,2.136,0,0,1-.219-.355,5.6,5.6,0,0,1,.623-.553Z" transform="translate(-54.574 -184.866)" fill="#ffbfa2"/><g transform="translate(4.903 25.238)"><path d="M62.375,204.091c-.024-.078-.075-.119-.215-.13-.167-.014-.333-.021-.5-.032l-.678-.043c.012-.183.017-.37.037-.55a.951.951,0,0,1-.6-.1c-.27-.1-.546-.191-.822-.272a.764.764,0,0,0-.364-.041c-.306.061-.472.564-.431.827a.77.77,0,0,0,.3.463,1.847,1.847,0,0,0,.814.359,1.7,1.7,0,0,1,.817.329,1.722,1.722,0,0,0,.95.533.679.679,0,0,0,.778-.652,2.218,2.218,0,0,0-.049-.46A2.132,2.132,0,0,0,62.375,204.091Z" transform="translate(-57.284 -202.91)" fill="#bcc5df"/><path d="M61.631,204.514c0-.032,0-.066,0-.1a2.13,2.13,0,0,0-.231-.937.723.723,0,0,0-.194-.318.521.521,0,0,0-.72.226c-.066.116-.1.244-.162.364a.837.837,0,0,1-.608.506c-.365.017-.776-.11-1.146-.131a.976.976,0,0,0-.426.04.729.729,0,0,0,.1,1.3,1.84,1.84,0,0,0,.874.171,1.7,1.7,0,0,1,.871.139c.477.225,1.03.549,1.511.11a.713.713,0,0,0,.206-.466A9.084,9.084,0,0,0,61.631,204.514Z" transform="translate(-57.806 -202.817)" fill="#d4dbef"/></g><path d="M60.27,199.679l-.17-.717C60.167,199.2,60.224,199.437,60.27,199.679Z" transform="translate(-51.691 -179.757)" fill="#6e4cb3"/><path d="M63.282,195.68a8.871,8.871,0,0,1,.035,1.649,18.127,18.127,0,0,1-.367,2.115,8.852,8.852,0,0,0-.267,1.65,18.152,18.152,0,0,1-.591,6.572.855.855,0,0,1-.313.52.772.772,0,0,1-.3.09,1.132,1.132,0,0,1-.313,0,.483.483,0,0,1-.3-.147.963.963,0,0,1-.176-.351,2.469,2.469,0,0,1-.072-.68c-.008-1.073.067-2.145.069-3.218a14.584,14.584,0,0,0-.1-1.864,15.928,15.928,0,0,1-.452-2.168c-.095-.694-.053-1.4-.212-2.087a10.243,10.243,0,0,1-.209-2.084Z" transform="translate(-51.901 -181.49)" fill="#6e4cb3"/><path d="M60.524,194.694c.011.113.877.541,1.108.309.057-.057.136-.185.241-.318a3.505,3.505,0,0,1,.646,3.634,15.41,15.41,0,0,0-1.093,4.7c-.2,2.318-.043,4.9-.079,5.86a.943.943,0,0,1-.186-.008.483.483,0,0,1-.3-.147.963.963,0,0,1-.176-.351,2.469,2.469,0,0,1-.072-.68c-.008-1.073.067-2.145.069-3.218a14.623,14.623,0,0,0-.1-1.866,15.86,15.86,0,0,1-.452-2.167c-.095-.694-.053-1.4-.212-2.087C59.615,197.084,59.493,193.895,60.524,194.694Z" transform="translate(-51.901 -182.078)" fill="#5e3e9e"/><path d="M60.607,195.209c-.1-.05-.6-.306-.6-.443,0-.092-.246-.168-.31-.167a.626.626,0,0,0-.327.144,1.51,1.51,0,0,0-.506.689,3.908,3.908,0,0,0-.2,1.186,22.305,22.305,0,0,0,.092,3.6q.1.905.266,1.8.085.447.188.889a.661.661,0,0,0,.362.521,1.384,1.384,0,0,0,1.8-.3c.393-.62.229-1.589.355-2.287a21.427,21.427,0,0,1,1.169-2.726,4.285,4.285,0,0,0,.078-2.1c-.057-.341-.162-1.157-.509-1.357a1.186,1.186,0,0,0-1.224.307C60.937,195.258,60.972,195.4,60.607,195.209Z" transform="translate(-52.468 -182.062)" fill="#8763cd"/><g transform="translate(5.978 4.816)"><path d="M64.145,195.073c.023-.179.049-.358.081-.535.148-.853.4-1.684.51-2.544a2.345,2.345,0,0,0-.385-2.016,1.4,1.4,0,0,0-.29-.212c-1.028-.581-2.014.125-2.978.474a9.067,9.067,0,0,0-1.808.889,1.585,1.585,0,0,0-.532.41,1.311,1.311,0,0,0-.231.685,3.829,3.829,0,0,0,.083.854,17.443,17.443,0,0,1,.2,4.978c-.086.712-.17,2.659-.17,2.659a3.176,3.176,0,0,0,1.539.222,7.6,7.6,0,0,0,3.823-.682c.136-.125.089-.413.093-.585.015-.517,0-1.033-.008-1.549A20.691,20.691,0,0,1,64.145,195.073Z" transform="translate(-58.509 -189.545)" fill="#ecf5fe"/></g><g transform="translate(5.978 6.181)"><path d="M58.512,191.752a1.311,1.311,0,0,1,.231-.685,1.585,1.585,0,0,1,.532-.41c.119-.076.241-.148.364-.219.75.631,1.783,1.389,1.256,2.31a15.955,15.955,0,0,0-1.763,7.648,1.644,1.644,0,0,1-.5-.154s.084-1.947.17-2.659a17.443,17.443,0,0,0-.2-4.978A3.829,3.829,0,0,1,58.512,191.752Z" transform="translate(-58.509 -190.439)" fill="#d4e2fc"/></g><g transform="translate(7.994 4.818)"><path d="M59.892,190.438c.174-.075.361-.151.494-.2a7.716,7.716,0,0,1,2.048-.692A.945.945,0,0,1,62,190.9a2.03,2.03,0,0,1-2.032-.142C59.851,190.679,59.762,190.537,59.892,190.438Z" transform="translate(-59.828 -189.547)" fill="#cddcfb"/></g><path d="M59.037,200.949q.066.779.122,1.562c.029.413.055.824.076,1.236q.025.477.041.954c.061,1.74-.124,2.132.7,2.356a1.1,1.1,0,0,0,.564.02c.535-.131.626-.6.694-1.183.037-.327.053-.721.064-1.053.009-.28.014-.559.018-.839q.011-.566.015-1.135.007-.747.012-1.5c0-.637.06-1.29.064-1.928a.3.3,0,0,0-.133-.237,8.386,8.386,0,0,0-2.214.857A2.658,2.658,0,0,0,59.037,200.949Z" transform="translate(-52.263 -179.631)" fill="#8763cd"/><path d="M59.952,190.821a1.192,1.192,0,0,1,1.143-.249,1.065,1.065,0,0,1,.39.344,1.894,1.894,0,0,1,.443,1.258.821.821,0,0,1-.052.264c-.121.309-.413.4-.682.533-.322.159-.637.336-.949.518a16.06,16.06,0,0,1-1.912,1.008,1.6,1.6,0,0,1-1.227.113.9.9,0,0,1-.512-.643.734.734,0,0,1,.446-.888C59.225,191.435,60,190.785,59.952,190.821Z" transform="translate(-53.553 -184.224)" fill="#fff"/><path d="M55.566,190.453c-.127.067-.35.24-.355.408,0,.141.159.339.219.455.191.37.391.732.591,1.094.092.165.182.329.278.489a8.25,8.25,0,0,0,.969,1.316,1.7,1.7,0,0,0,.575.486.62.62,0,0,0,.568-.185,1.1,1.1,0,0,0,.451-1.022,2.16,2.16,0,0,0-.571-.964,19.982,19.982,0,0,0-1.788-1.878,1.26,1.26,0,0,0-.371-.264A.7.7,0,0,0,55.566,190.453Z" transform="translate(-54.272 -184.303)" fill="#fff"/><path d="M57.95,188.628a2.878,2.878,0,0,1,.168.772,1.584,1.584,0,0,0,.038.33.939.939,0,0,0,.377.477.366.366,0,0,0,.277.1.513.513,0,0,1-.024-.215.432.432,0,0,1,.119-.258c.049-.05.131-.078.164-.144.063-.134-.026-.255-.067-.376s-.037-.275-.089-.408a.267.267,0,0,0-.063-.108.119.119,0,0,0-.116-.029c-.064.026-.073.11-.084.179a.06.06,0,0,1-.012.034c-.024.021-.06-.008-.076-.035-.087-.131-.167-.267-.252-.4a1.019,1.019,0,0,0-.234-.31.119.119,0,0,0-.055-.024l-.011,0a.123.123,0,0,0-.092.105A.519.519,0,0,0,57.95,188.628Z" transform="translate(-52.849 -185.435)" fill="#ffbf99"/><path d="M58.533,189.388a.7.7,0,0,1,.445-.355,1.243,1.243,0,0,1,.455.029l.095.018a1.87,1.87,0,0,1-.312,1.314c-.115-.067-.229-.133-.342-.2s-.354-.151-.426-.27C58.362,189.777,58.461,189.514,58.533,189.388Z" transform="translate(-52.581 -185.006)" fill="#fff"/><path d="M60.08,189.843c-.037-.255-.229-.2-.133-.428a1.28,1.28,0,0,1,.377-.507.91.91,0,0,1,.594-.2c.073,0,.122.047.194.047a4.165,4.165,0,0,1,.6-.009c.2.029.384.043.384.269a2.733,2.733,0,0,0,.083.882,2.2,2.2,0,0,1,.142.475.833.833,0,0,1-.5.769,1.962,1.962,0,0,1-1.151.1c-.193-.027-.463-.066-.576-.249a.729.729,0,0,1-.031-.471A2.569,2.569,0,0,0,60.08,189.843Z" transform="translate(-51.785 -185.17)" fill="#ffbfa2"/><g transform="translate(7.034)"><g transform="translate(0.147 0.798)"><path d="M59.556,187.53a1.025,1.025,0,0,0-.244.507c-.066.432.108.877.015,1.307a1.437,1.437,0,0,0,.908,1.6,2.913,2.913,0,0,0,1.5-.148,2.12,2.12,0,0,0,.8-.844C64.241,187.235,60.717,186.115,59.556,187.53Z" transform="translate(-59.296 -186.916)" fill="#ffbfa2"/></g><path d="M63.08,187.271a1.042,1.042,0,0,0-.31-.217.274.274,0,0,1-.1-.066.325.325,0,0,1-.043-.083.677.677,0,0,0-.3-.281,2.437,2.437,0,0,0-1.53-.191,2.029,2.029,0,0,0-.512.128,1.8,1.8,0,0,0-.5.339,1.543,1.543,0,0,0-.588,1.047.557.557,0,0,0,.1.235,1.386,1.386,0,0,0,.118.151,2.469,2.469,0,0,1,.272.6.468.468,0,0,0,.15.225c.147.1.351,0,.521.053a.426.426,0,0,1,.228.2,1.279,1.279,0,0,1,.105.292,2.966,2.966,0,0,1,.066.446.813.813,0,0,0,.176.446,1.154,1.154,0,0,0,1.051.182,1.5,1.5,0,0,0,.344-.107,1.639,1.639,0,0,0,.579-.582,2.512,2.512,0,0,0,.37-.66,2.619,2.619,0,0,0,.083-.42A2.109,2.109,0,0,0,63.08,187.271Z" transform="translate(-59.2 -186.394)" fill="#d6af75"/><path d="M60.318,188.119c.329-.028.419.379.2.7a1.655,1.655,0,0,1-.264.252c-.581.512-.738-.029-.553-.2C60.127,188.463,59.906,188.155,60.318,188.119Z" transform="translate(-58.975 -185.483)" fill="#ffbfa2"/><path d="M60.074,188.672c.037-.035.408-.263.15-.41a.114.114,0,0,0-.159.1c0,.038.009.078,0,.116a.172.172,0,0,1-.024.066c-.032.055-.144.108-.121.188S60.053,188.692,60.074,188.672Z" transform="translate(-58.819 -185.414)" fill="#f3a984"/></g></g><g transform="translate(84.718 89.403)"><ellipse cx="5.376" cy="3.104" rx="5.376" ry="3.104" transform="translate(4.966 12.807)" fill="#bcc5df" opacity="0.5" style="mix-blend-mode:multiply;isolation:isolate"/><g transform="translate(0 4.046)"><path d="M75.124,196.543a25.313,25.313,0,0,0-2.317,1.34,3.922,3.922,0,0,0-.619.342,1.182,1.182,0,0,0-.391.64c-.021.286.555.5.776.568a1.931,1.931,0,0,0,.923.064,1.147,1.147,0,0,0,.718-.434,1.681,1.681,0,0,1,.627-.544c.248-.089.553-.049.741-.231a.715.715,0,0,0,.174-.359c.061-.244.05-.5.112-.746a1.9,1.9,0,0,0,.116-.552.444.444,0,0,0-.325-.339.681.681,0,0,0-.494.067Z" transform="translate(-71.797 -177.306)" fill="#10191b"/><path d="M78.18,189.872c.359-.836.7-1.941,1.17-3.314a3.725,3.725,0,0,0,.206-1.158,2.247,2.247,0,0,0-.307-1.093.634.634,0,0,0-.385-.374.6.6,0,0,0-.457.159A4.133,4.133,0,0,0,77,186.628a26.953,26.953,0,0,0-.2,2.819c-.012.17.061,1.635.613,1.386A1.911,1.911,0,0,0,78.18,189.872Z" transform="translate(-69.154 -183.826)" fill="#67c53a"/><path d="M78.253,187.381c-.191-.148-.882-.449-1-.266-.083.127-.542,1.053-.929,1.585a9.974,9.974,0,0,1,1.4,1.21,4.1,4.1,0,0,0,1.091-1.959C78.806,187.7,78.505,187.575,78.253,187.381Z" transform="translate(-69.406 -182.173)" fill="#67c53a"/><path d="M77.154,197.7a24.716,24.716,0,0,0-1.931,1.8,4.779,4.779,0,0,0-.506.564.925.925,0,0,0-.249.605c.041.28.643.359.871.376a1.911,1.911,0,0,0,.9-.142,1.131,1.131,0,0,0,.594-.578,1.664,1.664,0,0,1,.484-.662c.217-.141.52-.17.662-.387a.731.731,0,0,0,.087-.384c.006-.249-.063-.5-.058-.743a1.786,1.786,0,0,0-.009-.556.437.437,0,0,0-.387-.255.663.663,0,0,0-.46.174Z" transform="translate(-70.388 -176.744)" fill="#10191b"/><path d="M80.872,188.788l0,0c-.04.315-.067.633-.078.95C80.8,189.424,80.83,189.106,80.872,188.788Z" transform="translate(-67.048 -181.259)" fill="#f3a984"/><path d="M80.794,189.413c-.009.193-.014.387-.014.581l.011,0C80.786,189.8,80.786,189.6,80.794,189.413Z" transform="translate(-67.053 -180.929)" fill="#f3a984"/><g transform="translate(2.094 8.41)"><path d="M73.683,193.176c-.461.3-.981,2.32.805,2.394a5.631,5.631,0,0,0,2.592-.888c1.143-.561,2.368-.932,3.525-1.462a4.774,4.774,0,0,0,1.009-.587,2.931,2.931,0,0,0,1.062-2.521.988.988,0,0,0-.1-.385c-.31-.553-2.265-.368-2.721-.142C78.17,190.418,74.162,192.865,73.683,193.176Z" transform="translate(-73.128 -189.364)" fill="#404b63"/><path d="M73.178,193.173c.026.492.07.978.144,1.47.079.544.167,1.088.194,1.638.031.591-.009,1.184,0,1.776a4.47,4.47,0,0,0,.092,1.106.7.7,0,0,0,.257.451,1.6,1.6,0,0,0,.61.206,1,1,0,0,0,.435-.024c.469-.153.487-.808.582-1.212a11.448,11.448,0,0,0,.2-1.131c.1-.746.133-1.5.176-2.245.024-.5.05-1,.032-1.5a3.059,3.059,0,0,0-.243-1.329,1.66,1.66,0,0,0-1.108-.778,1.069,1.069,0,0,0-1.2.536,1.674,1.674,0,0,0-.18.874Z" transform="translate(-73.167 -188.195)" fill="#404b63"/></g><g transform="translate(5.308 8.535)"><g transform="translate(0.048)"><path d="M75.652,194.863c-.419.345-.782,2.468.915,2.42a5.1,5.1,0,0,0,2.4-1.1c2.439-1.536,5.477-2.072,5.012-5.119-.043-.28-.116-1.465-.333-1.6-.157-.1-1.033.212-1.23.246-1.9.315-2.144.322-2.457.538-.052,1.423-.281,1.67-1.06,2.139C78.538,192.6,75.967,194.6,75.652,194.863Z" transform="translate(-75.302 -189.446)" fill="#546282"/></g><path d="M75.3,194.493c.06.49.136.972.241,1.458.118.538.241,1.074.306,1.621.069.588.069,1.183.119,1.773a4.505,4.505,0,0,0,.165,1.1.71.71,0,0,0,.287.432,1.6,1.6,0,0,0,.622.165.986.986,0,0,0,.432-.055c.458-.183.432-.839.5-1.248a11.448,11.448,0,0,0,.125-1.14c.046-.75.031-1.5.023-2.252-.009-.5-.017-1-.069-1.494a3.061,3.061,0,0,0-.332-1.311,1.673,1.673,0,0,0-1.158-.7,1.072,1.072,0,0,0-1.16.616,1.666,1.666,0,0,0-.121.885Z" transform="translate(-75.27 -187.661)" fill="#546282"/></g><path d="M82.66,185.258a12.247,12.247,0,0,0-2.783-1.225c-1.539-.481-1.754.079-2.2,1.306a10.114,10.114,0,0,0-.108,4.239,16.586,16.586,0,0,1,.179,1.944,4.481,4.481,0,0,1-.07.712.605.605,0,0,0,0,.309c.05.124.234.252.333.335a3.041,3.041,0,0,0,1.7.659,7.047,7.047,0,0,0,2.605-.356.905.905,0,0,0,.463-.266.939.939,0,0,0,.148-.446,12.186,12.186,0,0,0,.121-1.528c0-.231,0-.46.018-.689a7.392,7.392,0,0,1,.168-1q.149-.678.307-1.355c.052-.226.105-.451.159-.675a1.659,1.659,0,0,0,.1-.483A2.13,2.13,0,0,0,82.66,185.258Z" transform="translate(-68.836 -183.861)" fill="#85d161"/><path d="M80.415,187.764c-.332,1.6-.662,3.256-2.219,4.059a2.991,2.991,0,0,0-.347.211,3.05,3.05,0,0,0,1.623.6,7.046,7.046,0,0,0,2.605-.356.906.906,0,0,0,.463-.266.939.939,0,0,0,.148-.446,12.182,12.182,0,0,0,.121-1.528c0-.231,0-.46.018-.689a7.393,7.393,0,0,1,.168-1q.149-.678.307-1.355c.052-.226.105-.451.159-.675a1.659,1.659,0,0,0,.1-.483,1.207,1.207,0,0,0-.046-.27c-.261.11-.527.206-.787.309C81.784,186.253,80.6,186.773,80.415,187.764Z" transform="translate(-68.601 -182.96)" fill="#529d2e"/></g><g transform="translate(12.792 6.145)"><path d="M82.052,191.215c.269-.869.491-2,.814-3.418a3.7,3.7,0,0,0,.083-1.175,2.23,2.23,0,0,0-.42-1.053.637.637,0,0,0-.422-.333.6.6,0,0,0-.439.206,4.139,4.139,0,0,0-1.132,2.671c-.076.892-.277,1.77-.344,2.665a2.492,2.492,0,0,0-.015.523c.105.814.692,1.258,1.215.952A1.91,1.91,0,0,0,82.052,191.215Z" transform="translate(-80.168 -185.234)" fill="#85d161"/></g><g transform="translate(9.387)"><g transform="translate(0.643 5.832)"><path d="M79.331,191.626l-.516.443c-.231-.364-.238-.4-.454-.761a25.1,25.1,0,0,1,.605-6.279c.2.142.3.214.5.356A23.522,23.522,0,0,0,79.331,191.626Z" transform="translate(-78.361 -185.029)" fill="#372b3d"/></g><path d="M78.617,185.1a.173.173,0,0,0,0,.031.683.683,0,0,0,.061.194,2.063,2.063,0,0,0,.168.358.334.334,0,0,0,.148.153.273.273,0,0,0,.232-.031c.081-.046.228-.113.209-.214a1.735,1.735,0,0,0-.075-.26.943.943,0,0,0-.3-.492c-.179-.119-.307.058-.4.191A.207.207,0,0,0,78.617,185.1Z" transform="translate(-77.584 -179.318)" fill="#283032"/><path d="M80.859,185.129c-.014-.437-.31-.552-.222-1.38.029-.28.335-.682-.454-.666a2.154,2.154,0,0,0-.636.124c-.738.241-.842.423-.888,1.95.628-.06,1.183-.753,1.825-.342a1.183,1.183,0,0,1,.365.475A.926.926,0,0,0,80.859,185.129Z" transform="translate(-77.56 -180.225)" fill="#ee9c76"/><path d="M80.486,184.261c-.642-.411-1.2.283-1.824.342l0,.064c-.031,1.086,2.034,1.119,2.193.069A1.183,1.183,0,0,0,80.486,184.261Z" transform="translate(-77.561 -179.671)" fill="#f5a783"/><path d="M79.216,185.435c-.04.13-.211.176-.324.251-.05.034-.136.1-.2.084s-.1-.1-.127-.156a3.378,3.378,0,0,1-.257-1.239.494.494,0,0,1,.127-.379.37.37,0,0,1,.371-.052c.125.055.154.3.11.413A.969.969,0,0,0,79.216,185.435Z" transform="translate(-77.746 -179.785)" fill="#fff"/><path d="M78.891,185.369a2.88,2.88,0,0,0,.437.526c.06.053.108.119.188.093a3.078,3.078,0,0,0,1.374-1.251.569.569,0,0,0-.145-.477,2.336,2.336,0,0,0-.165-.208,2.827,2.827,0,0,1-.238.539A2.058,2.058,0,0,1,78.891,185.369Z" transform="translate(-77.438 -179.713)" fill="#fff"/><path d="M78.239,182.238a1.562,1.562,0,0,0-.246.848,1.216,1.216,0,0,0,.067.391,1.09,1.09,0,0,1,.118.359,1.6,1.6,0,0,1-.156.465.576.576,0,0,0-.02.4,1.362,1.362,0,0,0,.124.2c.2.315.011.779.361,1.005a.589.589,0,0,0,.293.073,3.931,3.931,0,0,0,.937-.257,2.318,2.318,0,0,0,.672-.6,2.943,2.943,0,0,0,.468-.558c.027-.058-.04-.069.02-.1.037-.017.081-.249.122-.254a.472.472,0,0,0,.153-.084c.078-.053.116.138.142.046a3.815,3.815,0,0,0,.231-1.18,1.578,1.578,0,0,0-.244-1,1.6,1.6,0,0,0-.714-.515,1.985,1.985,0,0,0-1.332-.024A1.915,1.915,0,0,0,78.239,182.238Z" transform="translate(-77.922 -181.139)" fill="#ffbfa2"/><path d="M81.151,183a1.578,1.578,0,0,0-.244-1,1.6,1.6,0,0,0-.714-.515,1.961,1.961,0,0,0-.8-.124c-.4.807.182,1.843-.26,2.68-.148.2-.443.345-.443.591-.1.442.342.834.1,1.276a4.121,4.121,0,0,0,.549-.18,2.317,2.317,0,0,0,.672-.6,2.943,2.943,0,0,0,.468-.558c.028-.058-.04-.069.02-.1.037-.017.081-.249.122-.254a.471.471,0,0,0,.153-.084c.078-.053.116.136.142.046A3.814,3.814,0,0,0,81.151,183Z" transform="translate(-77.549 -181.138)" fill="#f8b495"/><path d="M81.8,183.013a1.167,1.167,0,0,0-.721-1.281,1.3,1.3,0,0,0-1.2-.518,2.678,2.678,0,0,0-1.291.413l-.047.029a1.609,1.609,0,0,0-.486.455c-.335.517.116.929.657.844a4.345,4.345,0,0,0,.733-.245.714.714,0,0,1,.523-.029.546.546,0,0,1,.286.426,6.614,6.614,0,0,1-.089,1.163.331.331,0,0,0,.031.168c.078.138.223.063.306-.024.053-.055.095-.121.145-.179a.332.332,0,0,1,.189-.122.2.2,0,0,1,.232.183.686.686,0,0,1-.029.3c-.006.023-.057.2.017.2A2.349,2.349,0,0,0,81.8,183.013Z" transform="translate(-77.94 -181.213)" fill="#372b3d"/><path d="M79.067,182.473a.534.534,0,0,1,.306.029.546.546,0,0,1,.286.426,6.615,6.615,0,0,1-.089,1.163.33.33,0,0,0,.031.168c.078.138.223.063.306-.024.053-.055.095-.121.145-.179a.332.332,0,0,1,.189-.122.2.2,0,0,1,.232.183.686.686,0,0,1-.029.3c-.006.023-.057.2.017.2a2.349,2.349,0,0,0,.746-1.789,1.167,1.167,0,0,0-.721-1.281,2.024,2.024,0,0,0-.709.315A4.18,4.18,0,0,0,79.067,182.473Z" transform="translate(-77.345 -181.033)" fill="#251b29"/><path d="M80.225,183.632c-.15.206-.388.29-.533.186a.412.412,0,0,1,.006-.564c.148-.208.388-.292.533-.188S80.373,183.422,80.225,183.632Z" transform="translate(-77.071 -180.257)" fill="#ffbfa2"/><path d="M80.025,183.214a.147.147,0,0,1-.006.186c-.058.06-.167.067-.2.144-.012.027-.015.066-.043.079s-.069-.017-.07-.05a.126.126,0,0,1,.04-.09.258.258,0,0,0,.06-.082.251.251,0,0,0,0-.107A.118.118,0,0,1,80.025,183.214Z" transform="translate(-77.007 -180.183)" fill="#f3a984"/></g><g transform="translate(1.945 13.078)"><g style="isolation:isolate"><g transform="translate(0 2.149)"><path d="M73.07,191.177l0,.519,6,3.486v-.519Z" transform="translate(-73.07 -191.177)" fill="#10191b"/></g><g transform="translate(5.998 3.486)"><path d="M76.995,194.2v.519l3.722-2.149,0-.519Z" transform="translate(-76.995 -192.052)" fill="#251b29"/></g><path d="M73.07,191.92l6,3.486,3.722-2.149-6-3.486Z" transform="translate(-73.07 -189.771)" fill="#372b3d"/><path d="M76.134,191.137l1.63.941.889-.513-1.63-.941Z" transform="translate(-71.452 -189.321)" fill="#0d1315"/><path d="M80.931,193.531l-5.478-3.184L73.5,191.479l5.478,3.183Z" transform="translate(-72.844 -189.467)" fill="#0d1315"/></g></g><g transform="translate(4.44 10.184)"><g transform="translate(0 2.496)"><g transform="translate(0.545)"><path d="M76.355,190.708a2.749,2.749,0,0,1-.3.434c-.078.076-.024-.246-.133-.241-.165.006-.345.112-.471,0a1.568,1.568,0,0,1-.275-.286.6.6,0,0,1-.115-.373.3.3,0,0,1,.046-.145.385.385,0,0,1,.073-.076l.442-.391a.646.646,0,0,1,.1-.078.39.39,0,0,1,.167-.043.692.692,0,0,1,.538.237.64.64,0,0,1,.165.269c.018.081-.038.173-.064.249A3.784,3.784,0,0,1,76.355,190.708Z" transform="translate(-75.059 -189.51)" fill="#f8b495"/><path d="M76.312,190.112l.032.646a.842.842,0,0,1-.012.248c-.015.063-.044.121-.066.182s-.034.113-.058.167a.914.914,0,0,1-.382.359.548.548,0,0,1-.2.09c-.046.009-.1,0-.119-.044a.107.107,0,0,1,0-.066.4.4,0,0,1,.063-.177c.046-.063.121-.1.173-.153a.391.391,0,0,0,.047-.376,3.852,3.852,0,0,0-.17-.359.473.473,0,0,1-.023-.385.488.488,0,0,1,.081-.115.787.787,0,0,1,.252-.2.4.4,0,0,1,.272-.026C76.3,189.931,76.307,190.018,76.312,190.112Z" transform="translate(-74.824 -189.311)" fill="#f8b495"/></g><path d="M75.738,190.436c.121-.055.367.209.388.28.052.17-.122.028-.342.368a1.039,1.039,0,0,0-.157.316c-.018.084-.027.188-.107.223a.142.142,0,0,1-.168-.064c-.02.119-.2.023-.235-.1-.069-.234-.248-.021-.274-.429l-.067.029c-.274-.225.3-.88.546-1.135C75.759,189.475,75.86,190.182,75.738,190.436Z" transform="translate(-74.702 -189.368)" fill="#f8b495"/></g><path d="M78.168,189.434c-.42-.426-.665-1.21-1.164-1.557a20.425,20.425,0,0,0-1.5,2.4c-.225.5.732.958.963.7A19.974,19.974,0,0,0,78.168,189.434Z" transform="translate(-74.297 -187.877)" fill="#67c53a"/><g transform="translate(3.293 5.247)"><path d="M77.958,191.607a2.8,2.8,0,0,0-.471.351c-.084.089.274.017.274.138,0,.185-.112.39.014.526a1.72,1.72,0,0,0,.33.293.654.654,0,0,0,.42.113.327.327,0,0,0,.159-.057.423.423,0,0,0,.081-.084c.139-.168.28-.338.419-.507a.616.616,0,0,0,.083-.116.445.445,0,0,0,.043-.188.779.779,0,0,0-.286-.59.726.726,0,0,0-.306-.173c-.092-.018-.191.049-.275.081A4.265,4.265,0,0,0,77.958,191.607Z" transform="translate(-76.532 -191.311)" fill="#ffbfa2"/><path d="M78.716,191.358l-.72-.011a.98.98,0,0,0-.277.023c-.069.02-.133.053-.2.079s-.125.043-.185.072a1.04,1.04,0,0,0-.385.44.645.645,0,0,0-.092.223c-.008.05.006.115.053.131a.133.133,0,0,0,.073,0,.465.465,0,0,0,.2-.076,2.562,2.562,0,0,0,.164-.2.435.435,0,0,1,.417-.067c.142.041.269.121.406.174a.529.529,0,0,0,.428.012.588.588,0,0,0,.125-.095.879.879,0,0,0,.214-.289.435.435,0,0,0,.018-.3C78.919,191.359,78.822,191.359,78.716,191.358Z" transform="translate(-76.858 -191.292)" fill="#ffbfa2"/></g><path d="M78.775,193.449a1.141,1.141,0,0,0,.839-.309c.559-.414,3.293-2.682,3.476-3.738.046-.266-.255-.408-.492-.62a1.653,1.653,0,0,0-1.279.226,44.009,44.009,0,0,0-2.966,3.366.8.8,0,0,0-.177.445C78.179,193.077,78.543,193.4,78.775,193.449Z" transform="translate(-72.868 -187.431)" fill="#85d161"/><path d="M78.361,192.237c.058-.136-.246-.4-.324-.422-.191-.052-.026.136-.4.4a1.115,1.115,0,0,1-.345.186c-.093.024-.209.04-.244.128a.157.157,0,0,0,.078.185c-.133.026-.018.223.118.258.261.067.034.274.487.287l-.029.076c.261.3.969-.365,1.242-.651C79.432,192.176,78.641,192.092,78.361,192.237Z" transform="translate(-73.467 -185.802)" fill="#ffbfa2"/></g><g transform="translate(0.584 11.63)"><g style="isolation:isolate"><g transform="translate(0.049)"><path d="M72.66,188.835l-.449.261a.121.121,0,0,1,.122.012l.448-.261A.118.118,0,0,0,72.66,188.835Z" transform="translate(-72.211 -188.823)" fill="#372b3d"/><g clip-path="url(#n)"><g transform="translate(0.001 0)" style="isolation:isolate"><path d="M72.309,189.108l.448-.261a.188.188,0,0,0-.052-.021l-.448.261a.179.179,0,0,1,.052.021Z" transform="translate(-72.187 -188.823)" fill="#372b3d"/><path d="M72.28,189.087l.448-.261a.1.1,0,0,0-.066.008l-.449.261a.1.1,0,0,1,.067-.008Z" transform="translate(-72.211 -188.824)" fill="#372b3d"/><path d="M72.214,189.091l.448-.261,0,0-.448.261h0Z" transform="translate(-72.211 -188.82)" fill="#372b3d"/></g></g></g><g transform="translate(0.171 0.024)"><path d="M77.948,192.388l.449-.261-5.657-3.288-.448.261Z" transform="translate(-72.291 -188.839)" fill="#372b3d"/></g><g transform="translate(5.828 3.312)"><path d="M76.164,191.547l.449-.261a.377.377,0,0,0-.171-.295l-.449.261A.374.374,0,0,1,76.164,191.547Z" transform="translate(-75.993 -190.991)" fill="#372b3d"/><g clip-path="url(#o)"><path d="M76.077,191.324l.448-.26a.307.307,0,0,0-.083-.073l-.449.261a.334.334,0,0,1,.084.072Z" transform="translate(-75.993 -190.991)" fill="#372b3d"/><path d="M76.106,191.392l.448-.26a.416.416,0,0,0-.058-.093l-.448.26a.5.5,0,0,1,.058.093Z" transform="translate(-75.964 -190.966)" fill="#372b3d"/></g></g><g transform="translate(0 0.261)"><path d="M72.35,189.018c-.095-.055-.171-.011-.171.1l1.361,3.214,6,3.487L78.2,192.6a.469.469,0,0,0-.193-.289Z" transform="translate(-72.179 -188.994)" fill="#10191b"/></g><g transform="translate(5.969 3.479)"><path d="M77.477,194.7l.449-.261L76.534,191.1l-.448.261Z" transform="translate(-76.085 -191.1)" fill="#251b29"/></g></g></g></g><g transform="translate(4.76 41.598)"><g transform="translate(10.281)"><g style="isolation:isolate"><g transform="translate(8.181 3.194)" style="isolation:isolate"><path d="M35.777,152.018l2.338,1.358c1.076.625,1.744,1.954,1.748,3.843a13.167,13.167,0,0,1-5.973,10.348l-2.338-1.358a13.169,13.169,0,0,0,5.973-10.348C37.521,153.972,36.853,152.643,35.777,152.018Z" transform="translate(-31.552 -152.018)" fill="#251b29"/><g clip-path="url(#p)"><g style="isolation:isolate"><path d="M33.89,163.52l-2.338-1.358a10.872,10.872,0,0,0,2.851-2.478l2.338,1.358a10.873,10.873,0,0,1-2.851,2.479Z" transform="translate(-31.552 -147.97)" fill="#251b29"/><path d="M35.756,164.6l-2.338-1.358a13.051,13.051,0,0,0,3.122-7.869,5.677,5.677,0,0,0-.483-2.417l2.338,1.36a5.665,5.665,0,0,1,.483,2.416,13.048,13.048,0,0,1-3.122,7.869Z" transform="translate(-30.567 -151.525)" fill="#251b29"/><path d="M37.92,154.8l-2.338-1.36a3.178,3.178,0,0,0-1.265-1.426l2.338,1.358A3.174,3.174,0,0,1,37.92,154.8Z" transform="translate(-30.092 -152.018)" fill="#251b29"/></g></g></g><g transform="translate(3.916 17.385)" style="isolation:isolate"><path d="M31.1,163.081l-2.338-1.358c1.09.633,2.6.544,4.265-.417l2.338,1.358C33.7,163.625,32.188,163.715,31.1,163.081Z" transform="translate(-28.761 -161.305)" fill="#251b29"/><g clip-path="url(#q)"><g style="isolation:isolate"><path d="M31.1,163.081l-2.338-1.358c1.09.633,2.6.544,4.265-.417l2.338,1.358c-1.666.961-3.175,1.051-4.265.417Z" transform="translate(-28.761 -161.305)" fill="#251b29"/></g></g></g><g transform="translate(8.134)" style="isolation:isolate"><path d="M37.329,150.478l2.338,1.36c-1.484-.863-3.539-.741-5.807.568l-2.339-1.358C33.79,149.738,35.845,149.616,37.329,150.478Z" transform="translate(-31.521 -149.928)" fill="#251b29"/><g clip-path="url(#r)"><g style="isolation:isolate"><path d="M33.86,152.406l-2.339-1.358c2.269-1.31,4.324-1.432,5.808-.57l2.338,1.36c-1.484-.863-3.539-.741-5.807.568Z" transform="translate(-31.521 -149.928)" fill="#251b29"/></g></g></g><g transform="translate(0 1.12)" style="isolation:isolate"><path d="M30.917,171.343l-2.338-1.358c-1.465-.851-2.373-2.662-2.381-5.235-.015-5.179,3.628-11.488,8.134-14.089l2.339,1.358c-4.508,2.6-8.151,8.91-8.135,14.09C28.544,168.681,29.451,170.492,30.917,171.343Z" transform="translate(-26.198 -150.661)" fill="#251b29"/><g clip-path="url(#s)"><g transform="translate(0)" style="isolation:isolate"><path d="M30.69,165.337l-2.338-1.358a4.331,4.331,0,0,1-1.724-1.942l2.338,1.358a4.331,4.331,0,0,0,1.724,1.942Z" transform="translate(-25.971 -144.654)" fill="#251b29"/><path d="M29.193,168.236l-2.338-1.358a7.739,7.739,0,0,1-.657-3.293,17.784,17.784,0,0,1,4.251-10.716l2.338,1.36a17.784,17.784,0,0,0-4.251,10.716,7.732,7.732,0,0,0,.657,3.291Z" transform="translate(-26.198 -149.496)" fill="#251b29"/><path d="M31.318,155.393l-2.338-1.36a14.789,14.789,0,0,1,3.883-3.372l2.339,1.358a14.807,14.807,0,0,0-3.884,3.374Z" transform="translate(-24.729 -150.661)" fill="#251b29"/></g></g></g></g></g><g transform="translate(7.498 19.525)"><g style="isolation:isolate"><g style="isolation:isolate"><path d="M24.377,168.82l4.282-6.114.616.431-4.282,6.114Z" transform="translate(-24.377 -162.706)" fill="#e9ecf5"/><g clip-path="url(#t)"><g style="isolation:isolate"><path d="M24.377,168.82l4.282-6.114.258.179L24.635,169l-.258-.18Z" transform="translate(-24.377 -162.706)" fill="#e9ecf5"/><path d="M24.546,168.938l4.282-6.115.358.252L24.9,169.189l-.358-.251Z" transform="translate(-24.288 -162.644)" fill="#e9ecf5"/></g></g></g><g transform="translate(0.616 0.431)" style="isolation:isolate"><path d="M30.911,164.281,26.629,170.4l-.165-.116L24.78,169.1l4.282-6.114,1.682,1.178Z" transform="translate(-24.78 -162.988)" fill="#e9ecf5"/><g clip-path="url(#u)"><g style="isolation:isolate"><path d="M24.78,169.1l4.282-6.114,1.114.779-4.282,6.115L24.78,169.1Z" transform="translate(-24.78 -162.988)" fill="#fff"/><path d="M25.509,169.613l4.282-6.115.568.4.167.115-4.282,6.115-.165-.116-.57-.4Z" transform="translate(-24.395 -162.719)" fill="#e9ecf5"/></g></g></g></g></g><g transform="translate(0 23.069)"><g style="isolation:isolate"><g style="isolation:isolate"><path d="M19.47,176.574l8.088-11.549,1.01.708-8.086,11.549Z" transform="translate(-19.47 -165.025)" fill="#e5354f"/><g clip-path="url(#v)"><g style="isolation:isolate"><path d="M19.47,176.574l8.088-11.549.422.295-8.088,11.549-.422-.295Z" transform="translate(-19.47 -165.025)" fill="#e5354f"/><path d="M19.746,176.767l8.088-11.549.588.413L20.336,177.18l-.59-.413Z" transform="translate(-19.324 -164.923)" fill="#e5354f"/></g></g></g><g transform="translate(1.012 0.708)" style="isolation:isolate"><path d="M31.249,167.609l-8.086,11.551-.272-.191-2.758-1.931,8.086-11.549,2.76,1.931Z" transform="translate(-20.132 -165.488)" fill="#e5354f"/><g clip-path="url(#w)"><g style="isolation:isolate"><path d="M20.132,177.037l8.086-11.549,1.828,1.279-8.088,11.549-1.826-1.279Z" transform="translate(-20.132 -165.488)" fill="#ff445f"/><path d="M21.327,177.874l8.088-11.549.932.652.27.189-8.086,11.551-.272-.191-.932-.652Z" transform="translate(-19.501 -165.046)" fill="#e5354f"/></g></g></g></g></g><path d="M34.39,166.81a13.16,13.16,0,0,0,5.973-10.346c-.011-3.8-2.7-5.337-6.011-3.426a13.165,13.165,0,0,0-5.975,10.346c.012,3.8,2.7,5.338,6.013,3.426Z" transform="translate(-14.767 -148.72)" fill="#15d9fd" opacity="0.3"/><path d="M39.984,156.462a13.165,13.165,0,0,1-5.975,10.346c-2.028,1.17-3.823,1.048-4.913-.1a5.319,5.319,0,0,0,2.822-.819,13.161,13.161,0,0,0,5.973-10.346,4.747,4.747,0,0,0-1.1-3.33C38.686,152.286,39.977,153.831,39.984,156.462Z" transform="translate(-14.386 -148.719)" fill="#15d9fd" opacity="0.3"/><g transform="translate(12.619 1.359)"><path d="M35.863,151.937c4.506-2.6,8.174-.513,8.187,4.665s-3.628,11.488-8.135,14.09-8.172.513-8.187-4.665S31.356,154.539,35.863,151.937Zm.046,16.265a13.167,13.167,0,0,0,5.973-10.348c-.011-3.8-2.7-5.336-6.013-3.424A13.161,13.161,0,0,0,29.9,164.774c.011,3.8,2.7,5.337,6.013,3.427Z" transform="translate(-27.728 -150.817)" fill="#372b3d"/></g></g><g transform="translate(27.168 80.251)"><g transform="translate(11.253 28.835)" opacity="0.5" style="mix-blend-mode:multiply;isolation:isolate"><path d="M53.16,196.867,46.3,200.874,41.5,198.1v-.947l6.859-3.06Z" transform="translate(-41.499 -194.094)" fill="#bcc5df"/></g><g transform="translate(5.618 25.571)" opacity="0.5" style="mix-blend-mode:multiply;isolation:isolate"><path d="M49.473,194.731l-6.859,4.007-4.8-2.773v-.947l6.859-3.06Z" transform="translate(-37.811 -191.958)" fill="#bcc5df"/></g><g transform="translate(0 22.367)" opacity="0.5" style="mix-blend-mode:multiply;isolation:isolate"><path d="M45.8,192.634l-6.859,4.007-4.8-2.773v-.947l6.859-3.06Z" transform="translate(-34.134 -189.861)" fill="#bcc5df"/></g><g style="isolation:isolate"><g transform="translate(4.447 2.567)"><path d="M41.527,176.9l-.065,22.835-4.418,2.568.065-22.835Z" transform="translate(-37.044 -176.904)" fill="#fc8116"/></g><g transform="translate(0 2.568)"><path d="M38.646,179.471l-.065,22.835-4.447-2.567L34.2,176.9Z" transform="translate(-34.134 -176.904)" fill="#fd963d"/></g><g transform="translate(0.065)"><path d="M43.042,177.791l-4.418,2.568-4.447-2.567,4.418-2.568Z" transform="translate(-34.176 -175.223)" fill="#fdab64"/></g></g><g transform="translate(5.633 14.164)" style="isolation:isolate"><g transform="translate(4.447 2.568)"><path d="M45.214,186.173,45.149,198.1l-4.418,2.568.065-11.923Z" transform="translate(-40.731 -186.173)" fill="#bcc5df"/></g><g transform="translate(0 2.568)"><path d="M42.332,188.741l-.065,11.923L37.82,198.1l.065-11.923Z" transform="translate(-37.82 -186.173)" fill="#dde3f4"/></g><g transform="translate(0.065)"><path d="M46.728,187.06l-4.418,2.568-4.447-2.568,4.419-2.568Z" transform="translate(-37.863 -184.493)" fill="#e9ecf5"/></g></g><g transform="translate(11.266 11.596)" style="isolation:isolate"><g transform="translate(4.447 2.568)"><path d="M48.9,184.492l-.065,17.743L44.417,204.8l.065-17.743Z" transform="translate(-44.417 -184.492)" fill="#fcd03e"/></g><g transform="translate(0 2.568)"><path d="M46.019,187.06,45.954,204.8l-4.447-2.568.065-17.743Z" transform="translate(-41.507 -184.493)" fill="#fdd85e"/></g><g transform="translate(0.065)"><path d="M50.415,185.38,46,187.948l-4.447-2.568,4.418-2.568Z" transform="translate(-41.549 -182.812)" fill="#fde07e"/></g></g></g></g></g></g></svg>