<svg xmlns="http://www.w3.org/2000/svg" width="147.797" height="148.313" viewBox="0 0 147.797 148.313"><g transform="translate(-137.703 -252.321)"><g transform="translate(137.703 252.321)"><g transform="translate(3.774 81.212)"><path d="M251.524,430.794c3.486-4.317,5.566-16.7,5.566-16.7a34.97,34.97,0,0,1,7.674,7.84,61.128,61.128,0,0,0,11.394-2.843,46.375,46.375,0,0,0,10.762-5.337c-7.412-10.925-19.956-29.494-27.676-35.331-2.988-2.26-12.238-4.458-12.238-4.458-2.1-1.9-6.663,0-6.663,0-24.709,6.284-47.313-1.858-47.313-1.858s-3.2-1.477-5.827,0a35.24,35.24,0,0,0-7.691,0c-5.656.78-11.838,7.241-14.387,10.177-.761.881-21.716,25.149-21.716,25.149s-.727,9.9.8,11.207c12.281,10.52,30.368-13.384,30.368-13.384.115.048.4,20.817,10.081,31.677,0,0,6.868,3.135,33.563.682C244.713,435.178,251.524,430.794,251.524,430.794Z" transform="translate(-143.238 -371.447)" fill="#67c53a"/><g transform="translate(8.632 10.058)"><path d="M162.956,404.7c-4.111.361-6.238-.62-7.056-2.366v-.007c5.917-6.845,12.823-14.848,13.253-15.346.2-.239.436-.5.682-.777C172.9,393.072,175.452,403.6,162.956,404.7Z" transform="translate(-155.9 -386.2)" opacity="0.2"/><path d="M191.739,433.715a83.335,83.335,0,0,1-2.529-16.4,22.943,22.943,0,0,0,3.8-7.983S196.866,424.717,191.739,433.715Z" transform="translate(-166.502 -393.562)" opacity="0.2"/><path d="M315.66,432.915a32.545,32.545,0,0,0-5.42-5s.293-9.769,3.02-12.728C315.455,412.811,317.794,425.164,315.66,432.915Z" transform="translate(-205.022 -395.332)" opacity="0.2"/></g></g><g transform="translate(111.719 123.515)"><path d="M301.919,450.884a.341.341,0,0,1-.265-.555c3.39-4.2,5.475-16.422,5.5-16.545a.341.341,0,0,1,.534-.221,35.65,35.65,0,0,1,7.759,7.926.341.341,0,1,1-.564.382,35.283,35.283,0,0,0-7.151-7.433c-.449,2.467-2.417,12.449-5.542,16.319A.339.339,0,0,1,301.919,450.884Z" transform="translate(-301.578 -433.5)" fill="#263238"/></g><g transform="translate(3.428 80.867)"><path d="M184.5,437.109a.342.342,0,0,1-.254-.114c-5.632-6.316-9.216-17.317-10.1-31-2.4,2.995-12.109,14.392-21.675,15.423a11.027,11.027,0,0,1-8.642-2.683c-1.613-1.382-1-10.46-.92-11.492a.336.336,0,0,1,.082-.2L164.706,381.9c2.456-2.828,8.793-9.491,14.6-10.291a34.779,34.779,0,0,1,7.668-.013c2.725-1.458,5.9-.021,6.039.041.2.07,22.768,8.022,47.087,1.837.147-.065,4.653-1.9,6.908.019.988.237,9.389,2.309,12.283,4.5,7.661,5.795,20.052,24.062,27.455,34.975l.3.437a.341.341,0,1,1-.564.382l-.3-.436c-7.38-10.879-19.731-29.087-27.3-34.815-2.9-2.191-12.019-4.376-12.111-4.4a.335.335,0,0,1-.15-.078c-1.914-1.73-6.26.044-6.3.062-24.573,6.254-47.332-1.77-47.559-1.852-.057-.025-3.106-1.395-5.544-.024a.338.338,0,0,1-.208.041,35.128,35.128,0,0,0-7.6,0c-5.578.769-11.772,7.294-14.177,10.063l-21.641,25.062c-.269,3.772-.316,9.948.691,10.811a10.351,10.351,0,0,0,8.126,2.523c10.5-1.132,21.638-15.706,21.749-15.854a.343.343,0,0,1,.4-.108c.206.087.208.118.256.9.845,13.658,4.377,24.619,9.946,30.863a.341.341,0,0,1-.254.568Z" transform="translate(-142.73 -370.941)" fill="#263238"/></g><g transform="translate(44.588)"><path d="M286.866,366.335c-.2.085-.327.13-.327.13A1.329,1.329,0,0,0,286.866,366.335Z" transform="translate(-229.661 -288.608)" fill="#263238"/><path d="M267.653,311.649c2.6.382,3.229-1.518,3.229-1.518s-3.229,1.518-6.08-4.328c-1.623-3.332-.824-9.455.165-14.107,2-3.294,4.895-7.843,5.279-13.247.659-9.271-3.674-13.97-8.7-12.592,0,0-.368-7.832-7.437-10.642s-8.2-.5-14.976-2.205-13.487-.219-15.929,4.193-3.268,12.421-7.436,15.519-11.454,10.567-9.149,18.919,1,11.208-2.055,15.155-1.2,11.717,4.635,14.13a2.222,2.222,0,0,1-.722-3.516s1.352,5.236,5.911,4.28,10.321-1.271,13.263,1.954,13.712,4.1,16.138,1.634,4.309-.177,8.706,2.025,9.278.27,9.278.27-.412,1.9-1.46,2.474c.894-.378,3.368-1.558,4.061-3.327.68-1.738,1.131-3.488.264-7.625,3.049-1.2,1.64-3.208,1.64-3.208,2.854,1.648,4.216-3.112,4.216-3.112C267.845,312.738,267.653,311.649,267.653,311.649Z" transform="translate(-203.107 -252.321)" fill="#263238"/></g><g transform="translate(50.369 52.011)"><path d="M264.73,361.336s-19.245,8.566-25.424,8.911-27.22-10.838-27.22-10.838l16.036-4.376c2.184-4.164,2.237-9.053,1.715-14.789-.168-1.777-.38-3.457-.61-4.96-.548-3.634-1.149-6.17-1.149-6.17l22.658.937a40.291,40.291,0,0,0-1.167,4.394,54.973,54.973,0,0,0-1.07,9.344,45.812,45.812,0,0,0,.955,12.3Z" transform="translate(-211.745 -328.772)" fill="#fff"/><path d="M238.853,370.436c-6.544,0-26.238-10.435-27.086-10.887a.341.341,0,0,1,.07-.63l15.892-4.336c2.06-4.023,2.134-8.7,1.61-14.47-.16-1.683-.364-3.345-.607-4.938-.539-3.576-1.138-6.117-1.144-6.142a.341.341,0,0,1,.069-.3.355.355,0,0,1,.277-.124l22.658.937a.342.342,0,0,1,.31.449,39.454,39.454,0,0,0-1.157,4.356,54.439,54.439,0,0,0-1.063,9.286,47.935,47.935,0,0,0,.9,12.023l15.1,5.191a.341.341,0,0,1,.028.634c-.788.351-19.373,8.6-25.543,8.94C239.066,370.434,238.961,370.436,238.853,370.436Zm-26-11.087c3.831,1.993,20.911,10.708,26.274,10.4,5.336-.3,20.813-6.921,24.507-8.532l-14.45-4.968a.338.338,0,0,1-.218-.232,45.765,45.765,0,0,1-.967-12.4,55.124,55.124,0,0,1,1.077-9.4,40.668,40.668,0,0,1,1.038-4l-21.765-.9c.194.881.643,3.02,1.056,5.761.245,1.6.451,3.279.612,4.978.541,5.954.451,10.78-1.753,14.98a.338.338,0,0,1-.212.17Z" transform="translate(-211.586 -328.613)" fill="#263238"/><g transform="translate(5.797 33.236)"><path d="M220.59,377.868s12.135,2.128,15.148,1.779,5.379,2.623,5.379,2.623" transform="translate(-220.249 -377.526)" fill="#fff"/><path d="M240.958,382.45a.341.341,0,0,1-.267-.128c-.023-.028-2.291-2.829-5.073-2.5-3.033.343-14.749-1.695-15.247-1.782a.341.341,0,1,1,.118-.671c.121.02,12.117,2.119,15.05,1.775,3.166-.361,5.583,2.623,5.686,2.75a.341.341,0,0,1-.267.553Z" transform="translate(-220.09 -377.366)" fill="#263238"/></g><g transform="translate(29.204 34.029)"><path d="M274.16,379.029s-12.354,1.307-15.357,1.409a4.186,4.186,0,0,0-3.878,2.2" transform="translate(-254.583 -378.688)" fill="#fff"/><path d="M254.765,382.82a.34.34,0,0,1-.315-.472,4.5,4.5,0,0,1,4.182-2.411c2.957-.1,15.209-1.394,15.333-1.407a.341.341,0,1,1,.072.678c-.505.053-12.4,1.31-15.381,1.411a3.865,3.865,0,0,0-3.575,1.991A.341.341,0,0,1,254.765,382.82Z" transform="translate(-254.424 -378.529)" fill="#263238"/></g><path d="M257.571,336.933a54.973,54.973,0,0,0-1.07,9.344,19.5,19.5,0,0,1-6.347,3.747c-3.811,1.264-8.876-3.385-12.315-7.293-.168-1.777-.38-3.457-.61-4.96Z" transform="translate(-219.748 -331.261)" fill="#263238"/></g><g transform="translate(47.615 2.66)"><g transform="translate(8.373 27.907)"><path d="M225.434,300.023s-1.868-2.867-3.536-2.289-1.663,8.357-1.529,10.38,4.2,6.544,5.9,5.305" transform="translate(-219.984 -297.317)" fill="#fff"/><path d="M225.429,313.812a2.665,2.665,0,0,1-1.126-.286c-1.959-.918-4.318-3.874-4.429-5.548-.006-.1-.476-9.949,1.758-10.725,1.9-.653,3.852,2.3,3.934,2.425a.341.341,0,0,1-.571.372c-.479-.735-1.975-2.554-3.139-2.153-1.192.414-1.519,6.733-1.3,10.036.087,1.315,2.19,4.109,4.038,4.976a1.3,1.3,0,0,0,1.325.076.341.341,0,0,1,.4.552A1.483,1.483,0,0,1,225.429,313.812Z" transform="translate(-219.829 -297.159)" fill="#263238"/><g transform="translate(41.467 6.962)"><path d="M285.819,309.314s2.616-2.206,4.047-1.171-.819,8.482-1.53,10.38-5.909,5.055-7.182,3.378" transform="translate(-280.813 -307.529)" fill="#fff"/><path d="M282.152,322.559a1.678,1.678,0,0,1-1.429-.609.341.341,0,0,1,.543-.413c.226.3.661.4,1.288.31,2.019-.3,4.84-2.366,5.3-3.6,1.161-3.1,2.669-9.244,1.648-9.983-1-.723-2.956.59-3.628,1.155a.341.341,0,1,1-.439-.521c.115-.1,2.839-2.364,4.466-1.187,1.912,1.385-1.375,10.683-1.41,10.776-.589,1.571-3.7,3.722-5.841,4.035A3.489,3.489,0,0,1,282.152,322.559Z" transform="translate(-280.654 -307.371)" fill="#263238"/></g></g><g transform="translate(13.321 4)"><path d="M243.428,324.684c-6.871-1.012-13.688-12.659-14.509-15.936-.913-3.648-2.928-21.641,1-31.5,4.409-11.077,13.635-15.751,22.625-14.426s16.478,8.46,17.505,20.337c.914,10.571-6.2,27.219-8.13,30.449C260.184,316.51,250.669,325.751,243.428,324.684Z" transform="translate(-227.245 -262.253)" fill="#fff"/><path d="M244.5,324.949a8.724,8.724,0,0,1-1.276-.091h0c-7.071-1.042-13.912-12.683-14.79-16.191-.792-3.161-3.051-21.5,1.01-31.708,4.178-10.5,12.983-16.11,22.992-14.637s16.82,9.385,17.794,20.645c.946,10.943-6.508,27.854-8.177,30.653C260.56,316.117,251.931,324.948,244.5,324.949Zm4.82-62.177c-8.406,0-15.614,5.32-19.242,14.439-4,10.053-1.764,28.167-.982,31.291.756,3.02,7.426,14.68,14.228,15.681h0a7.776,7.776,0,0,0,1.138.081c6.757,0,15.252-8.053,17.006-10.994,1.65-2.766,9.015-19.464,8.083-30.245-.946-10.929-7.541-18.6-17.216-20.029A20.608,20.608,0,0,0,249.315,262.772Z" transform="translate(-227.087 -262.089)" fill="#263238"/></g><path d="M272.448,310.164c-.187,1.272-.907,2.22-1.608,2.117s-1.117-1.219-.929-2.49.907-2.22,1.608-2.116S272.635,308.892,272.448,310.164Z" transform="translate(-227.381 -272.596)" fill="#263238"/><path d="M240.751,305.494c-.187,1.273.228,2.387.929,2.49s1.421-.845,1.608-2.117-.229-2.387-.93-2.49S240.938,304.222,240.751,305.494Z" transform="translate(-218.101 -271.228)" fill="#263238"/><path d="M257.406,330.876s-3.557,6.981-8.1,5.84c-4.464-1.122-4.5-7.475-4.5-7.685,0,0,.228.1.64.248a27.212,27.212,0,0,0,5.549,1.426,30.539,30.539,0,0,0,5.535.222C257.078,330.9,257.406,330.876,257.406,330.876Z" transform="translate(-219.404 -279.395)" fill="#757575"/><g transform="translate(28.779 36.614)"><path d="M253.22,310.43c.179,4.386-3.583,5.127-2.865,6.648a4.187,4.187,0,0,0,2.415,2" transform="translate(-249.922 -310.089)" fill="#fff"/><path d="M252.611,319.264a.343.343,0,0,1-.093-.013,4.5,4.5,0,0,1-2.63-2.186c-.4-.841.22-1.492.874-2.182a5.78,5.78,0,0,0,1.958-4.6.341.341,0,0,1,.327-.354.348.348,0,0,1,.355.327,6.448,6.448,0,0,1-2.145,5.1c-.689.727-.933,1.038-.751,1.421a3.843,3.843,0,0,0,2.2,1.823.341.341,0,0,1-.094.668Z" transform="translate(-249.763 -309.93)" fill="#263238"/></g><g transform="translate(25.057 49.286)"><path d="M250.172,337.024a4.534,4.534,0,0,1-1.108-.138c-4.751-1.192-4.764-7.751-4.763-8.029a.341.341,0,0,1,.341-.339h0a.341.341,0,0,1,.339.343c0,.062.016,6.3,4.247,7.363s7.677-5.6,7.712-5.662a.34.34,0,1,1,.607.309C257.412,331.142,254.364,337.024,250.172,337.024Z" transform="translate(-244.302 -328.518)" fill="#263238"/></g><g transform="translate(18.255 24.3)"><path d="M234.665,296.4a.335.335,0,0,1-.211-.074.34.34,0,0,1-.055-.479c.042-.053,4.307-5.323,10.788-3.647a.341.341,0,0,1-.171.66c-6.042-1.565-10.044,3.362-10.083,3.411A.34.34,0,0,1,234.665,296.4Z" transform="translate(-234.325 -291.867)" fill="#263238"/></g><g transform="translate(40.697 26.387)"><path d="M276.561,302a.341.341,0,0,1-.317-.215c-.023-.059-2.435-5.929-8.671-6.173a.341.341,0,0,1-.328-.355.335.335,0,0,1,.354-.327c6.686.262,9.253,6.54,9.278,6.6a.341.341,0,0,1-.191.443A.357.357,0,0,1,276.561,302Z" transform="translate(-267.245 -294.928)" fill="#263238"/></g><g transform="translate(55.233 28.648)"><g transform="translate(0 0.001)"><path d="M302.683,298.746l-1.27,1.4-.983,1.089-11.364,6.6.469-3.184,9.3-5.412,2.013-.257Z" transform="translate(-288.725 -298.405)" fill="#92e3a9"/><path d="M288.907,308.02a.341.341,0,0,1-.337-.391l.469-3.184a.342.342,0,0,1,.166-.245l9.3-5.412a.34.34,0,0,1,.128-.043l3.844-.5a.341.341,0,0,1,.3.567l-2.253,2.491a.352.352,0,0,1-.082.067l-11.364,6.6A.341.341,0,0,1,288.907,308.02Zm.783-3.312-.342,2.321,10.707-6.219,1.6-1.766-2.858.368Z" transform="translate(-288.566 -298.246)" fill="#263238"/></g><g transform="translate(9.683)"><path d="M304.477,301.516c-1.682-.317-1.118-2.276-1.118-2.276l3.844-.494Z" transform="translate(-302.928 -298.404)" fill="#fff"/><path d="M304.318,301.7a.333.333,0,0,1-.063-.006,1.709,1.709,0,0,1-1.2-.775,2.693,2.693,0,0,1-.18-1.931.341.341,0,0,1,.284-.243l3.844-.494a.335.335,0,0,1,.348.186.341.341,0,0,1-.063.391l-2.726,2.769A.338.338,0,0,1,304.318,301.7Zm-.834-2.31a1.8,1.8,0,0,0,.151,1.173.975.975,0,0,0,.576.419l1.9-1.93Z" transform="translate(-302.769 -298.245)" fill="#263238"/></g><path d="M308.156,298.746l-1.27,1.4a.849.849,0,0,1-.561-1.164Z" transform="translate(-294.199 -298.404)" fill="#263238"/></g><path d="M258.127,270.269s-4.312,5.662-13.682,7.293c-11.73,2.043-18.207,12.193-18.048,16.424a36.109,36.109,0,0,1-2.006-18.671c2.327-15.568,16.854-20.023,27.416-18.938s15.66,11.675,15.66,11.675,7.931,6.176,6.782,13.961c-1.1,7.449-2.912,7.657-3.868,9.342-1.325,2.337.413,3.31-4.223,7.145,0,0,1.832-10.4-.442-18.157S258.127,270.269,258.127,270.269Z" transform="translate(-212.778 -256.223)" fill="#263238"/><path d="M265.418,272.961s-4.135,15.8-27.653,18.27c0,0,15.842-2.865,23.167-17.34Z" transform="translate(-217.165 -261.55)" fill="#263238"/><path d="M250.425,334.521s3.234-1.153,4.478,0c0,0-2.125,3.39-4.857,2.576s-3.316-4.089-3.316-4.089S248.21,332.319,250.425,334.521Z" transform="translate(-220.018 -280.629)" fill="#bfbfbf"/><path d="M257.128,330.984l-.923,1.043a19.068,19.068,0,0,1-10.614-1.694l-.32-1.136a29.756,29.756,0,0,0,5.869,1.561A35.636,35.636,0,0,0,257.128,330.984Z" transform="translate(-219.554 -279.448)" fill="#fff"/><g transform="translate(24.041 48.863)"><path d="M254.251,331.019a29.565,29.565,0,0,1-11.242-2.471.341.341,0,0,1,.288-.618c.073.034,7.38,3.385,14.326,2.114a.345.345,0,0,1,.4.274.342.342,0,0,1-.274.4A19.476,19.476,0,0,1,254.251,331.019Z" transform="translate(-242.811 -327.898)" fill="#263238"/></g><g transform="translate(14.32 7.169)"><path d="M228.893,281.048a.341.341,0,0,1-.279-.536c.148-.212,3.769-5.2,16-6.2,11.9-.978,16.931-7.372,16.981-7.436a.341.341,0,0,1,.542.414c-.209.273-5.247,6.7-17.467,7.7-11.869.976-15.459,5.868-15.494,5.917A.344.344,0,0,1,228.893,281.048Z" transform="translate(-228.553 -266.738)" fill="#757575"/></g><g transform="translate(16.561 7.697)"><path d="M232.18,269.967a.337.337,0,0,1-.145-.033.341.341,0,0,1-.163-.453c.6-1.285,2.276-1.736,3.479-1.963a.341.341,0,1,1,.127.669c-1.057.2-2.517.58-2.989,1.584A.341.341,0,0,1,232.18,269.967Z" transform="translate(-231.839 -267.513)" fill="#757575"/></g><g transform="translate(22.259 2.069)"><path d="M246.926,265.582c-2.231,0-4.391-.122-6.416-.286a.34.34,0,0,1-.312-.367.346.346,0,0,1,.367-.312c12,.969,20.108-.661,26.3-5.29a.341.341,0,1,1,.409.546C261.161,264.443,253.725,265.582,246.926,265.582Z" transform="translate(-240.197 -259.257)" fill="#757575"/></g><g transform="translate(0 52.395)"><path d="M207.893,339.246a.341.341,0,0,1-.34-.328,7.934,7.934,0,0,1,2.222-5.72.341.341,0,0,1,.519.442,7.307,7.307,0,0,0-2.06,5.253.341.341,0,0,1-.327.354Z" transform="translate(-207.547 -333.078)" fill="#757575"/></g><g transform="translate(4.109 21.712)"><path d="M213.915,317.173a.341.341,0,0,1-.26-.561c3.172-3.737,2.289-7.588,1.353-11.666a25.977,25.977,0,0,1-.941-7.017,12.326,12.326,0,0,1,6.523-9.813.341.341,0,1,1,.336.592,11.642,11.642,0,0,0-6.178,9.251,25.463,25.463,0,0,0,.925,6.834c.975,4.249,1.9,8.262-1.5,12.258A.34.34,0,0,1,213.915,317.173Z" transform="translate(-213.574 -288.071)" fill="#757575"/></g><g transform="translate(8.709 43.879)"><path d="M224.125,340.507a.337.337,0,0,1-.174-.048,6.885,6.885,0,0,1-3.463-4.122c-.652-2.6.747-5.39,2.037-7.527,2.293-3.8-1.245-7.609-1.281-7.646a.341.341,0,1,1,.495-.469c.04.042,3.927,4.234,1.37,8.468-1.815,3.006-2.42,5.168-1.959,7.008a6.16,6.16,0,0,0,3.15,3.7.341.341,0,0,1-.175.634Z" transform="translate(-220.322 -320.587)" fill="#757575"/></g><g transform="translate(34.589 22.921)"><path d="M258.626,291.9a.341.341,0,0,1-.147-.648,24.564,24.564,0,0,0,2.461-1.355.341.341,0,0,1,.363.577,25.261,25.261,0,0,1-2.53,1.394A.342.342,0,0,1,258.626,291.9Z" transform="translate(-258.285 -289.845)" fill="#757575"/></g><g transform="translate(39.22 12.856)"><path d="M265.418,284.316a.341.341,0,0,1-.211-.608,21.243,21.243,0,0,0,6.583-8.413.341.341,0,1,1,.633.253,21.918,21.918,0,0,1-6.793,8.694A.338.338,0,0,1,265.418,284.316Z" transform="translate(-265.077 -275.081)" fill="#757575"/></g><g transform="translate(48.793 13.418)"><path d="M287.009,297.281a.341.341,0,0,1-.3-.171c-.622-1.083-.4-2.946-.134-5.105.327-2.7.7-5.753-.366-8.245-1.891-4.434-6.867-7.186-6.917-7.213a.341.341,0,0,1,.326-.6c.213.116,5.232,2.889,7.218,7.545,1.135,2.661.736,5.951.416,8.6-.247,2.038-.46,3.8.048,4.683a.342.342,0,0,1-.3.511Z" transform="translate(-279.119 -275.905)" fill="#757575"/></g><g transform="translate(56.735 58.306)"><path d="M293.392,343.385a.315.315,0,0,1-.078-.009,7.814,7.814,0,0,1-2.385-1,.341.341,0,0,1,.363-.577,7.153,7.153,0,0,0,2.178.911.341.341,0,0,1-.078.672Z" transform="translate(-290.77 -341.749)" fill="#757575"/></g><g transform="translate(52.691 51.937)"><path d="M287.251,337.657a.34.34,0,0,1-.269-.13,11.194,11.194,0,0,1-2.138-4.714.341.341,0,1,1,.669-.129,10.493,10.493,0,0,0,2.006,4.422.34.34,0,0,1-.269.551Z" transform="translate(-284.838 -332.407)" fill="#757575"/></g><g transform="translate(50.648 55.6)"><path d="M287.388,352.667a.341.341,0,0,1-.312-.481c.007-.016.8-2.007-2.278-5.2-3.379-3.507-2.95-8.678-2.93-8.9a.348.348,0,0,1,.37-.309.342.342,0,0,1,.309.37c0,.05-.417,5.084,2.742,8.363,3.43,3.561,2.453,5.858,2.41,5.954A.341.341,0,0,1,287.388,352.667Z" transform="translate(-281.841 -337.779)" fill="#757575"/></g><g transform="translate(44.027 61.523)"><path d="M272.469,354.168a.341.341,0,0,1-.166-.639c2.848-1.594,1.025-6.549,1.006-6.6a.341.341,0,0,1,.638-.24c.085.226,2.041,5.557-1.312,7.434A.341.341,0,0,1,272.469,354.168Z" transform="translate(-272.128 -346.468)" fill="#757575"/></g><g transform="translate(52.691 11.979)"><path d="M293.732,286.262a.358.358,0,0,1-.1-.014.342.342,0,0,1-.232-.423,13.207,13.207,0,0,0,0-6.817c-1.019-3.04-8.225-4.525-8.3-4.54a.341.341,0,1,1,.135-.668c.313.063,7.667,1.582,8.809,4.992a13.661,13.661,0,0,1,0,7.225A.341.341,0,0,1,293.732,286.262Z" transform="translate(-284.838 -273.793)" fill="#757575"/></g></g><g transform="translate(0 59.312)"><path d="M142.614,408.566c-6.322-3.509-5.1-16.134-.909-31.9,2.057-7.744,9.149-27.251,9-27.98a18.6,18.6,0,0,0-1.566-3.779,16.72,16.72,0,0,1,2.9-2.46c3.691-1.572,10.969-3.557,14.311-2.175,1.04.431,2.555,2.865,2.346,3.861s-3.2,4.268-2.917,7.4-2.434,13.487-2.359,17.608c.013.849.05,1.915.1,3.069.031.736-.008,13.631-4.968,20.221" transform="translate(-137.866 -339.477)" fill="#67c53a"/><path d="M142.45,408.753a.345.345,0,0,1-.166-.043c-5.737-3.184-6.078-13.443-1.073-32.285,1.127-4.243,3.766-12.02,5.885-18.269,1.59-4.687,3.092-9.113,3.108-9.6a18.573,18.573,0,0,0-1.527-3.643.341.341,0,0,1,.055-.4,16.065,16.065,0,0,1,3.015-2.536c4.058-1.728,11.263-3.544,14.575-2.176,1.118.464,2.8,3.036,2.55,4.246a6.3,6.3,0,0,1-.816,1.543c-.91,1.462-2.285,3.67-2.095,5.754.148,1.623-.468,5.018-1.121,8.612a59.056,59.056,0,0,0-1.236,9.021c.013.847.051,1.91.1,3.06.006.13.142,13.562-5.035,20.442a.341.341,0,0,1-.545-.41c5.042-6.7,4.9-19.874,4.9-20-.05-1.158-.089-2.226-.1-3.078a59.256,59.256,0,0,1,1.247-9.154c.616-3.392,1.253-6.9,1.113-8.429-.211-2.312,1.237-4.637,2.194-6.176a6.913,6.913,0,0,0,.729-1.326c.172-.821-1.229-3.1-2.143-3.474-3.129-1.292-10.1.492-14.047,2.173a14.325,14.325,0,0,0-2.619,2.208,17.252,17.252,0,0,1,1.482,3.65c.074.372-.563,2.328-3.135,9.91-2.117,6.238-4.752,14-5.872,18.224-4.845,18.239-4.6,28.547.745,31.514a.341.341,0,0,1-.166.639Z" transform="translate(-137.702 -339.323)" fill="#263238"/></g><g transform="translate(9.84 21.002)"><path d="M167.773,292.766c.132,1.254,2.844,10.2,3.677,19.341a18.225,18.225,0,0,0,4.81-2.593c1.7-1.484,5.25-.3,5.1.691s-3.4.815-6.17,4.526-3.323,7.816-6.988,9.8-9.372,2.676-11.574.036-4.687-16.632-3.826-18.093a10.88,10.88,0,0,1,2.718-2.75s.932-2.732,2.349-2.938,4.8-.284,4.8-.284a3.913,3.913,0,0,1,2.709-.746s-1.1-10.5-2.074-14.026S166.659,282.226,167.773,292.766Z" transform="translate(-152.293 -283.286)" fill="#fff"/><path d="M161.254,326.469a6.425,6.425,0,0,1-5.043-1.844c-2.222-2.664-4.857-16.787-3.857-18.484a10.836,10.836,0,0,1,2.726-2.792c.211-.577,1.126-2.848,2.586-3.06,1.295-.188,4.133-.27,4.732-.285a4.325,4.325,0,0,1,2.395-.777h.048c-.214-1.961-1.175-10.5-2.019-13.567a2.245,2.245,0,0,1,.291-2.273,1.074,1.074,0,0,1,1.142-.17c1.3.5,3.055,3.245,3.7,9.355h0c.032.3.246,1.171.543,2.372a117.591,117.591,0,0,1,3.093,16.527,16.6,16.6,0,0,0,4.289-2.372c1.358-1.187,3.66-.826,4.788-.209.629.344.94.773.875,1.207-.085.561-.678.81-1.5,1.154a10.288,10.288,0,0,0-4.735,3.525,26.964,26.964,0,0,0-2.378,4.055c-1.184,2.33-2.3,4.531-4.722,5.839A15.232,15.232,0,0,1,161.254,326.469Zm3.541-26.561a3.65,3.65,0,0,0-2.068.7.341.341,0,0,1-.205.075c-.033,0-3.377.08-4.758.281-.991.144-1.835,2-2.076,2.711a.351.351,0,0,1-.128.17,10.567,10.567,0,0,0-2.619,2.642c-.734,1.245,1.605,15.078,3.794,17.7,2,2.4,7.483,1.865,11.15-.117,2.232-1.208,3.255-3.22,4.439-5.549a27.445,27.445,0,0,1,2.439-4.154,10.9,10.9,0,0,1,5.018-3.746c.522-.218,1.061-.444,1.088-.626.012-.078-.121-.286-.528-.508-1-.547-2.947-.806-4.012.124a18.3,18.3,0,0,1-4.921,2.657.341.341,0,0,1-.454-.29,115.371,115.371,0,0,0-3.118-16.872c-.314-1.272-.522-2.113-.559-2.463h0c-.657-6.219-2.424-8.469-3.265-8.79a.407.407,0,0,0-.44.038c-.2.178-.337.7-.093,1.588.967,3.511,2.039,13.652,2.084,14.081a.34.34,0,0,1-.383.374A2.975,2.975,0,0,0,164.795,299.908Z" transform="translate(-152.136 -283.128)" fill="#263238"/><g transform="translate(2.936 16.127)"><path d="M161.614,321.971a.966.966,0,0,1-.262-.037c-1.007-.282-1.562-2.063-1.469-4.673-1.171-.3-3.312-.976-3.437-1.846a.341.341,0,1,1,.675-.1c.07.314,1.593.957,3.2,1.35a.342.342,0,0,1,.26.349c-.151,2.886.492,4.13.96,4.261.284.078.539-.338.609-.468a14.142,14.142,0,0,0,.942-4.471.349.349,0,0,1,.35-.322.342.342,0,0,1,.332.341c0,.993.23,3.76,1.275,4.621.155.129.286.174.388.142.281-.095.546-.717.637-1.108a.341.341,0,0,1,.573-.165c.179.179.789.67,1.231.589.074-.014.3-.055.5-.489a55.718,55.718,0,0,0,2.059-5.623c-.02-.391-1.253-5.66-3.979-6.889a.341.341,0,0,1,.281-.622c3.1,1.4,4.379,7.158,4.379,7.521a48.109,48.109,0,0,1-2.12,5.9,1.373,1.373,0,0,1-1,.877,1.975,1.975,0,0,1-1.421-.434,1.8,1.8,0,0,1-.92,1.093,1.053,1.053,0,0,1-1.042-.261,4.4,4.4,0,0,1-1.2-2.376,7.771,7.771,0,0,1-.662,2A1.361,1.361,0,0,1,161.614,321.971Z" transform="translate(-156.443 -306.783)" fill="#263238"/></g><g transform="translate(5.617 21.331)"><path d="M164.68,319.128a.341.341,0,0,1-.318-.217c-.766-1.969-3.794-3.843-3.824-3.862a.341.341,0,1,1,.356-.581c.133.081,3.256,2.014,4.1,4.2a.341.341,0,0,1-.318.464Z" transform="translate(-160.376 -314.418)" fill="#263238"/></g><g transform="translate(10.514 19.648)"><path d="M169.939,322.073a.335.335,0,0,1-.111-.019.34.34,0,0,1-.211-.434c.664-1.918,1.479-4.894,1.211-5.5a21.987,21.987,0,0,0-3.165-3.58.341.341,0,0,1,.472-.493,22.427,22.427,0,0,1,3.317,3.8c.472,1.076-.909,5.19-1.191,6A.342.342,0,0,1,169.939,322.073Z" transform="translate(-167.558 -311.948)" fill="#263238"/></g><g transform="translate(14.364 28.48)"><path d="M173.548,330.189a.341.341,0,0,1-.322-.453,7.051,7.051,0,0,1,4.7-4.824.341.341,0,0,1,.146.666,6.387,6.387,0,0,0-4.2,4.383A.342.342,0,0,1,173.548,330.189Z" transform="translate(-173.206 -324.903)" fill="#263238"/></g></g><g transform="translate(12.501 68.181)"><path d="M162.2,355.037a10.517,10.517,0,0,1-6.039-2.1.341.341,0,0,1,.433-.527c.2.162,4.856,3.9,9.929.632a.341.341,0,1,1,.369.573A8.528,8.528,0,0,1,162.2,355.037Z" transform="translate(-156.039 -352.332)" fill="#263238"/></g><g transform="translate(13.633 80.321)"><path d="M158.041,372.112a.341.341,0,0,1-.088-.67,12.533,12.533,0,0,0,2.974-1.256.341.341,0,0,1,.34.591,13.27,13.27,0,0,1-3.137,1.324A.4.4,0,0,1,158.041,372.112Z" transform="translate(-157.7 -370.141)" fill="#263238"/></g><g transform="translate(19.119 66.888)"><path d="M166.089,362.881a.34.34,0,0,1-.213-.607,39.676,39.676,0,0,0,9.452-11.663.341.341,0,0,1,.6.332,40.374,40.374,0,0,1-9.622,11.863A.344.344,0,0,1,166.089,362.881Z" transform="translate(-165.747 -350.436)" fill="#263238"/></g><g transform="translate(47.399 81.527)"><path d="M222.968,384.216a.353.353,0,0,1-.137-.029c-5.673-2.5-15.095-11.315-15.494-11.689a.341.341,0,1,1,.467-.5c.1.091,9.735,9.108,15.3,11.561a.341.341,0,0,1-.138.653Z" transform="translate(-207.23 -371.909)" fill="#263238"/></g><g transform="translate(37.714 91.396)"><path d="M194.222,390.826a.341.341,0,0,1-.34-.313,16.064,16.064,0,0,0-.842-3.679.341.341,0,1,1,.647-.215,16.733,16.733,0,0,1,.875,3.839.34.34,0,0,1-.312.367Z" transform="translate(-193.023 -386.385)" fill="#263238"/></g><g transform="translate(34.338 83.667)"><path d="M190.789,380.795a.34.34,0,0,1-.315-.211c-.714-1.726-1.508-3.42-2.363-5.034a.341.341,0,1,1,.6-.32c.864,1.634,1.669,3.348,2.39,5.094a.34.34,0,0,1-.185.444A.327.327,0,0,1,190.789,380.795Z" transform="translate(-188.072 -375.049)" fill="#263238"/></g><g transform="translate(73.986 89.412)"><path d="M246.676,390.905h-.11a.341.341,0,0,1,0-.682h.111c1.4,0,16.238-.162,25.8-6.689a.341.341,0,1,1,.385.563C263.138,390.738,248.114,390.905,246.676,390.905Z" transform="translate(-246.23 -383.475)" fill="#263238"/></g><g transform="translate(103.476 83.385)"><path d="M289.827,378.559a.336.336,0,0,1-.217-.078.341.341,0,0,1-.046-.48,20.588,20.588,0,0,1,3.8-3.308.341.341,0,1,1,.379.566,20.4,20.4,0,0,0-3.653,3.176A.341.341,0,0,1,289.827,378.559Z" transform="translate(-289.486 -374.635)" fill="#263238"/></g><g transform="translate(109.657 95.036)"><path d="M298.895,396.736a.341.341,0,0,1-.168-.637,25.119,25.119,0,0,0,5.449-4.272.341.341,0,0,1,.486.478,25.776,25.776,0,0,1-5.6,4.387A.335.335,0,0,1,298.895,396.736Z" transform="translate(-298.553 -391.725)" fill="#263238"/></g><g transform="translate(116.967 90.808)"><path d="M309.617,388.452a.341.341,0,0,1-.262-.558,25.216,25.216,0,0,0,1.659-2.217.341.341,0,1,1,.57.374,26.1,26.1,0,0,1-1.7,2.278A.34.34,0,0,1,309.617,388.452Z" transform="translate(-309.276 -385.523)" fill="#263238"/></g><g transform="translate(34.776 103.631)"><path d="M189.054,416.06a.341.341,0,0,1-.27-.549c.038-.049,3.8-5,3.726-10.832a.341.341,0,0,1,.336-.346h0a.341.341,0,0,1,.341.336c.079,6.071-3.707,11.049-3.868,11.259A.34.34,0,0,1,189.054,416.06Z" transform="translate(-188.713 -404.333)" fill="#263238"/></g><g transform="translate(117.259 106.017)"><path d="M310.071,426.013a.34.34,0,0,1-.339-.313c-.009-.1-.768-10.352,6.353-17.762a.341.341,0,0,1,.492.473c-6.9,7.183-6.174,17.134-6.166,17.233a.34.34,0,0,1-.312.367Z" transform="translate(-309.705 -407.833)" fill="#263238"/></g><g transform="translate(117.388 111.585)"><path d="M310.235,425.094a.341.341,0,0,1-.291-.518,41.846,41.846,0,0,1,5-5.544,30.518,30.518,0,0,0,2.524-2.674.341.341,0,0,1,.582-.258c.32.32-.046.749-.667,1.42-.487.526-1.168,1.207-1.956,1.994a41.771,41.771,0,0,0-4.9,5.416A.338.338,0,0,1,310.235,425.094Zm7.33-8.512h0Zm0,0" transform="translate(-309.894 -416)" fill="#263238"/></g><g transform="translate(55.097 136.582)"><path d="M253.808,462.407c-12.082,0-34.84-8.991-35.071-9.083a.341.341,0,0,1,.252-.634c.23.091,22.867,9.035,34.815,9.035.125,0,.247,0,.37,0a.335.335,0,0,1,.346.335.341.341,0,0,1-.335.346C254.061,462.406,253.935,462.407,253.808,462.407Z" transform="translate(-218.522 -452.667)" fill="#263238"/></g><g transform="translate(63.094 77.929)"><g transform="translate(13.597 36.234)"><path d="M1.191,0h2A1.191,1.191,0,0,1,4.382,1.191V4.646A1.192,1.192,0,0,1,3.19,5.838h-2A1.191,1.191,0,0,1,0,4.647V1.191A1.191,1.191,0,0,1,1.191,0Z" transform="translate(0.433 0.433)" fill="#bfbfbf"/><path d="M254.2,426.485h-2.758a1.246,1.246,0,0,1-1.245-1.246v-4.214a1.247,1.247,0,0,1,1.245-1.245H254.2a1.246,1.246,0,0,1,1.245,1.245v4.214A1.246,1.246,0,0,1,254.2,426.485Zm-2.758-5.838a.38.38,0,0,0-.379.379v4.214a.38.38,0,0,0,.379.38H254.2a.38.38,0,0,0,.38-.38v-4.214a.38.38,0,0,0-.38-.379Z" transform="translate(-250.197 -419.781)" fill="#263238"/></g><path d="M246.474,403a.342.342,0,0,1-.268-.13c-.748-.948-18.3-23.328-15.689-32.7a5.05,5.05,0,0,1,3.268-3.511.341.341,0,0,1,.239.638,4.345,4.345,0,0,0-2.85,3.056c-2.339,8.4,12.958,28.709,15.277,31.722,12.264-18.74,13-27.2,11.45-31.005a4.24,4.24,0,0,0-2.735-2.705.341.341,0,0,1,.139-.667,4.887,4.887,0,0,1,3.214,3.083c1.646,3.973.943,12.763-11.761,32.067a.343.343,0,0,1-.271.154Z" transform="translate(-230.252 -366.632)" fill="#263238"/><path d="M254.249,418.6c0,.47-.209.852-.468.852s-.469-.382-.469-.852.21-.852.469-.852S254.249,418.132,254.249,418.6Z" transform="translate(-237.592 -382.901)" fill="#263238"/></g></g></g></svg>