<svg xmlns="http://www.w3.org/2000/svg" xmlns:xlink="http://www.w3.org/1999/xlink" width="186.786" height="172.99" viewBox="0 0 186.786 172.99"><defs><filter id="a" x="9.648" y="143.485" width="166.196" height="29.505" filterUnits="userSpaceOnUse"><feOffset dy="3" input="SourceAlpha"/><feGaussianBlur stdDeviation="3" result="b"/><feFlood flood-opacity="0.161"/><feComposite operator="in" in2="b"/><feComposite in="SourceGraphic"/></filter><filter id="c" x="14.393" y="7.857" width="156.707" height="156.707" filterUnits="userSpaceOnUse"><feOffset dy="3" input="SourceAlpha"/><feGaussianBlur stdDeviation="3" result="d"/><feFlood flood-opacity="0.161"/><feComposite operator="in" in2="d"/><feComposite in="SourceGraphic"/></filter><filter id="e" x="153.1" y="29.813" width="33.686" height="33.686" filterUnits="userSpaceOnUse"><feOffset dy="3" input="SourceAlpha"/><feGaussianBlur stdDeviation="3" result="f"/><feFlood flood-opacity="0.161"/><feComposite operator="in" in2="f"/><feComposite in="SourceGraphic"/></filter><filter id="g" x="0" y="77.211" width="29.771" height="29.771" filterUnits="userSpaceOnUse"><feOffset dy="3" input="SourceAlpha"/><feGaussianBlur stdDeviation="3" result="h"/><feFlood flood-opacity="0.161"/><feComposite operator="in" in2="h"/><feComposite in="SourceGraphic"/></filter><filter id="i" x="25.452" y="0" width="25.857" height="25.857" filterUnits="userSpaceOnUse"><feOffset dy="3" input="SourceAlpha"/><feGaussianBlur stdDeviation="3" result="j"/><feFlood flood-opacity="0.161"/><feComposite operator="in" in2="j"/><feComposite in="SourceGraphic"/></filter></defs><g transform="translate(5637.212 8245.424)"><g transform="translate(-5618.564 -8231.566)"><g transform="matrix(1, 0, 0, 1, -18.65, -13.86)" filter="url(#a)"><path d="M74.1,0c40.923,0,74.1,2.576,74.1,5.753s-33.175,5.753-74.1,5.753S0,8.93,0,5.753,33.175,0,74.1,0Z" transform="translate(18.65 149.48)" fill="#a1b3d6"/></g><g transform="matrix(1, 0, 0, 1, -18.65, -13.86)" filter="url(#c)"><path d="M69.354,0A69.353,69.353,0,1,1,0,69.353,69.353,69.353,0,0,1,69.354,0Z" transform="translate(23.39 13.86)" fill="#f3f9ff"/></g><g transform="matrix(1, 0, 0, 1, -18.65, -13.86)" filter="url(#e)"><circle cx="5.546" cy="5.546" r="5.546" transform="translate(162.1 43.66) rotate(-45)" fill="#455a64"/></g><g transform="matrix(1, 0, 0, 1, -18.65, -13.86)" filter="url(#g)"><circle cx="4.162" cy="4.162" r="4.162" transform="translate(9 89.1) rotate(-45)" fill="#455a64"/></g><g transform="matrix(1, 0, 0, 1, -18.65, -13.86)" filter="url(#i)"><circle cx="2.778" cy="2.778" r="2.778" transform="translate(34.45 9.93) rotate(-45)" fill="#455a64"/></g><g transform="translate(3.745 -0.187)"><path d="M20.143,86.487A6.571,6.571,0,0,1,7,86.487V35.91a11.983,11.983,0,0,0,2.19.2H33.285v50.38a6.571,6.571,0,0,1-13.143,0Z" transform="translate(7.143 41.558)" fill="#838f9b"/><path d="M47.89,37.762a5.989,5.989,0,0,1,.11,1.1,5.459,5.459,0,0,1-5.476,5.476H15.143a11.982,11.982,0,0,1-2.19-.2A13.12,13.12,0,0,1,2,31.19V29H12.952a4.394,4.394,0,0,0,4.381,4.381h25.19A5.477,5.477,0,0,1,47.89,37.762Z" transform="translate(1.19 33.332)" fill="#f0d0b4"/><path d="M12.952,44.476H2V33.523A17.519,17.519,0,0,1,19.523,16h4.1L21.714,35.714l4.381,4.381,4.381-4.381L28.548,16H62.653a39.473,39.473,0,0,0-9.375,10.952H44.714a5.478,5.478,0,0,0-5.476,5.476V48.857h-21.9a4.394,4.394,0,0,1-4.381-4.381Z" transform="translate(1.19 17.857)" fill="#a0d468"/><path d="M17.834,16l1.928,19.714-4.381,4.381L11,35.714,12.906,16h4.928Z" transform="translate(11.904 17.857)" fill="#e6e9ed"/><path d="M90.571,56.059V69.2l-5.936,1.49c-.088.219-.153.438-.263.657l3.154,5.213-9.309,9.309L73,82.717c-.219.11-.438.175-.657.263l-1.49,5.936H57.714l-1.49-5.936c-.219-.088-.438-.153-.657-.263l-5.213,3.154-9.309-9.309L44.2,71.348c-.11-.219-.175-.438-.263-.657L38,69.2V57.68a38.188,38.188,0,0,0,6.571.57,39.4,39.4,0,0,0,7.6-.745,13.3,13.3,0,0,0-1.03,5.126,13.143,13.143,0,1,0,17.3-12.442,39.233,39.233,0,0,0,9.747-10.8h.022L87.526,48.7l-3.154,5.213c.11.219.175.438.263.657Z" transform="translate(44.046 45.701)" fill="#fed066"/><path d="M67.523,2a8.762,8.762,0,1,1,0,17.523H50V10.762A8.759,8.759,0,0,1,58.762,2Z" transform="translate(58.331 1.19)" fill="#ffeaa7"/><path d="M86.3,82.795a39.484,39.484,0,0,1-23.876,8.061,38.188,38.188,0,0,1-6.571-.57A38.983,38.983,0,0,1,38.026,82.4a40.539,40.539,0,0,1-6.571-6.571,39.086,39.086,0,0,1-7.907-17.94A36.93,36.93,0,0,1,23,51.428,39.419,39.419,0,1,1,86.3,82.795Z" transform="translate(26.19 13.095)" fill="#e6e9ed"/><ellipse cx="30.76" cy="30.32" rx="30.76" ry="30.32" transform="translate(57.246 33.982)" fill="#69d6f4"/><g transform="translate(66.713 42.618)"><path d="M55.762,26V56.206a30.813,30.813,0,0,1-8.74,6.265L47,62.427V26Z" transform="translate(-11.953 -12.857)" fill="#ffeaa7"/><path d="M51.762,57.665l.022.044A31.408,31.408,0,0,1,43,60.359V30h8.762Z" transform="translate(-16.715 -8.096)" fill="#ffeaa7"/><path d="M47.762,72.22v.044a31.446,31.446,0,0,1-8.762,0V20h8.762V72.22Z" transform="translate(-21.476 -20)" fill="#ffeaa7"/><path d="M43.774,55.554V55.6a31.409,31.409,0,0,1-8.784-2.65l.022-.044V34h8.762Z" transform="translate(-26.25 -3.334)" fill="#ffeaa7"/><path d="M39.762,41.143v18.9l-.022.044A30.812,30.812,0,0,1,31,53.825V28h8.762Z" transform="translate(-31 -10.476)" fill="#ffeaa7"/></g><path d="M38.026,47.711l-8.455,8.455L23,49.6l8.455-8.455A40.539,40.539,0,0,0,38.026,47.711Z" transform="translate(26.19 47.784)" fill="#ccd1d9"/><path d="M36.523,54.952,19,72.476v-21.9L25.571,44l2.19,2.19,6.571,6.571Z" transform="translate(21.428 51.189)" fill="#cf9e76"/><circle cx="15.819" cy="15.819" r="15.819" transform="translate(11.546 2.343)" fill="#f0d0b4"/><path d="M134.323,94.05l-9.34-9.34A41.558,41.558,0,0,0,63.167,31.666H38.838a17.516,17.516,0,1,0-22.511.51A19.737,19.737,0,0,0,1,51.38V64.523A15.354,15.354,0,0,0,11.952,79.21v48.836a8.725,8.725,0,0,0,15.333,5.735,8.725,8.725,0,0,0,15.333-5.735v-3.474l18.43-18.43-2.19-2.19,5.6-5.6a41.375,41.375,0,0,0,15.394,6.847v11.419l5.292,1.321-2.806,4.679,11.712,11.712,4.674-2.808,1.321,5.29h16.564l1.321-5.292,4.674,2.808,11.712-11.712-2.806-4.679,5.292-1.319V100.049l-5.292-1.321Zm-8.468-29.527A37.237,37.237,0,1,1,88.617,27.285,37.279,37.279,0,0,1,125.855,64.523Zm-6.571,43.809a10.953,10.953,0,1,1-21.348-3.281,41.378,41.378,0,0,0,14.825-6.694,10.909,10.909,0,0,1,6.523,9.975ZM47,92.092l-4.381,4.381V79.856h1.1A7.645,7.645,0,0,0,49.137,77.6a41.494,41.494,0,0,0,5.656,11.077l-5.6,5.6Zm0-27.569c0,.267.035.526.039.791a7.578,7.578,0,0,0-3.325-.791h-1.1V50.285A3.29,3.29,0,0,1,45.9,47H50.92A41.328,41.328,0,0,0,47,64.523ZM29.386,52.753l-2.1,2.1-2.1-2.1,1.623-16.706h.953ZM14.143,18.523A13.143,13.143,0,1,1,27.285,31.666,13.156,13.156,0,0,1,14.143,18.523Zm6.571,17.523h1.693L20.624,54.388l6.661,6.661,6.661-6.661L32.163,36.047H58.35A41.914,41.914,0,0,0,53.3,42.618H45.9a7.675,7.675,0,0,0-7.667,7.667V64.523H18.524a2.193,2.193,0,0,1-2.19-2.19V47H11.952V60.142H5.381V51.38A15.351,15.351,0,0,1,20.714,36.047ZM5.381,64.523h6.974A6.562,6.562,0,0,0,18.524,68.9h25.19a3.286,3.286,0,1,1,0,6.571H16.333A10.965,10.965,0,0,1,5.381,64.523Zm28.476,67.9a4.385,4.385,0,0,1-4.381-4.381V88.617H25.095v39.428a4.381,4.381,0,1,1-8.762,0V79.856h21.9v48.19A4.385,4.385,0,0,1,33.857,132.426Zm8.762-14.049v-15.71L47,98.286l7.855,7.855Zm13.143-17.523-3.474-3.474,5.261-5.261a41.592,41.592,0,0,0,3.474,3.474Zm76.665,2.618v9.721l-4.269,1.065-1.17.451-1.021,2.495,2.839,4.729-6.874,6.874-4.727-2.837-2.672,1.086-1.341,5.371h-9.721l-1.067-4.269-.445-1.172-2.5-1.016-4.727,2.837-6.874-6.874L90.7,117.2l-1.1-2.672-5.364-1.338v-7.285a40.324,40.324,0,0,0,8.976-.033,15.33,15.33,0,1,0,23.232-10.494,42,42,0,0,0,6.131-6.88l6.23,6.23-2.839,4.729,1.1,2.672Z" transform="translate(0)"/><path d="M79.666,11.952A10.965,10.965,0,0,0,68.714,1H59.952A10.965,10.965,0,0,0,49,11.952V22.9H68.714A10.965,10.965,0,0,0,79.666,11.952Zm-26.285,0a6.579,6.579,0,0,1,6.571-6.571h8.762a6.571,6.571,0,0,1,0,13.143H53.381Z" transform="translate(57.141)"/><path d="M53,5h4.381V9.381H53Z" transform="translate(61.903 4.762)"/><path d="M57,5h4.381V9.381H57Z" transform="translate(66.665 4.762)"/><path d="M58.857,80.713A32.857,32.857,0,1,0,26,47.857,32.894,32.894,0,0,0,58.857,80.713ZM47.9,58.809h4.381V75.537a27.974,27.974,0,0,1-4.381-1.4Zm-4.381,13a28.588,28.588,0,0,1-4.381-3.457V45.666h4.381Zm13.143,4.407V28.143h4.381V76.221c-.725.057-1.45.112-2.19.112S57.391,76.277,56.666,76.221Zm8.762-26.174h4.381V74.135a28.444,28.444,0,0,1-4.381,1.4ZM78.57,68.357a28.587,28.587,0,0,1-4.381,3.457V41.285H78.57ZM58.857,19.381A28.421,28.421,0,0,1,82.951,62.962V36.9H69.809v8.762H65.428v-21.9H52.285V54.428H47.9V41.285H34.762V62.962A28.421,28.421,0,0,1,58.857,19.381Z" transform="translate(29.761 16.666)"/></g></g></g></svg>