<svg xmlns="http://www.w3.org/2000/svg" xmlns:xlink="http://www.w3.org/1999/xlink" width="248" height="239.111" viewBox="0 0 248 239.111"><defs><clipPath id="a"><rect width="237.908" height="239.111" fill="none"/></clipPath><filter id="c" x="145.526" y="148.66" width="81.763" height="102.451" filterUnits="userSpaceOnUse"><feOffset dy="3" input="SourceAlpha"/><feGaussianBlur stdDeviation="3" result="d"/><feFlood flood-opacity="0.161"/><feComposite operator="in" in2="d"/><feComposite in="SourceGraphic"/></filter><filter id="e" x="204.118" y="15.854" width="37.032" height="38.8" filterUnits="userSpaceOnUse"><feOffset dy="3" input="SourceAlpha"/><feGaussianBlur stdDeviation="3" result="f"/><feFlood flood-opacity="0.161"/><feComposite operator="in" in2="f"/><feComposite in="SourceGraphic"/></filter><filter id="g" x="206.824" y="90.865" width="38.936" height="38.936" filterUnits="userSpaceOnUse"><feOffset dy="3" input="SourceAlpha"/><feGaussianBlur stdDeviation="3" result="h"/><feFlood flood-opacity="0.161"/><feComposite operator="in" in2="h"/><feComposite in="SourceGraphic"/></filter><filter id="i" x="19.212" y="7.981" width="40.185" height="43.755" filterUnits="userSpaceOnUse"><feOffset dy="3" input="SourceAlpha"/><feGaussianBlur stdDeviation="3" result="j"/><feFlood flood-opacity="0.161"/><feComposite operator="in" in2="j"/><feComposite in="SourceGraphic"/></filter><filter id="k" x="-7.602" y="115.495" width="40.666" height="41.114" filterUnits="userSpaceOnUse"><feOffset dy="3" input="SourceAlpha"/><feGaussianBlur stdDeviation="3" result="l"/><feFlood flood-opacity="0.161"/><feComposite operator="in" in2="l"/><feComposite in="SourceGraphic"/></filter><filter id="m" x="146.557" y="128.239" width="33.212" height="37.232" filterUnits="userSpaceOnUse"><feOffset dy="3" input="SourceAlpha"/><feGaussianBlur stdDeviation="3" result="n"/><feFlood flood-opacity="0.161"/><feComposite operator="in" in2="n"/><feComposite in="SourceGraphic"/></filter><linearGradient id="p" x1="0.5" x2="0.5" y2="1" gradientUnits="objectBoundingBox"><stop offset="0" stop-color="#529d2e"/><stop offset="1" stop-color="#294f17"/></linearGradient><clipPath id="q"><rect width="4.861" height="13.366" fill="none"/></clipPath><clipPath id="r"><rect width="2.642" height="1.507" fill="none"/></clipPath><clipPath id="t"><rect width="20.251" height="61.636" fill="none"/></clipPath><clipPath id="u"><rect width="8.717" height="0.483" fill="none"/></clipPath></defs><g transform="translate(-613 -5278.917)"><path d="M20,0H228a20,20,0,0,1,20,20V207.739a0,0,0,0,1,0,0H0a0,0,0,0,1,0,0V20A20,20,0,0,1,20,0Z" transform="translate(613 5310.289)" fill="#c2e8b0"/><g transform="translate(613 5278.917)"><g clip-path="url(#a)"><path d="M95.719,394.422v23.267H167.27V394.422Z" transform="translate(-43.585 -179.598)" fill="#f5f5f5"/><path d="M90.207,382.48v6.5h77.055v-6.5H90.207Z" transform="translate(-41.075 -174.16)" fill="#e0e0e0"/><path d="M159.689,412.251h36.026V388.984h2.5v-6.5H158.187v5.9Z" transform="translate(-72.03 -174.16)" fill="#e0e0e0"/><rect width="14.51" height="3.502" transform="translate(62.141 218.577)" fill="#e0e0e0"/><rect width="18.632" height="7.395" transform="translate(60.273 226.457)" fill="#fff"/><path d="M110.8,349.666v17.872h54.963V349.666Z" transform="translate(-50.453 -159.219)" fill="#f5f5f5"/><path d="M106.568,340.492v5h59.19v-5h-59.19Z" transform="translate(-48.525 -155.041)" fill="#e0e0e0"/><path d="M159.941,363.361h27.673V345.489h1.922v-5H158.788v4.534Z" transform="translate(-72.303 -155.041)" fill="#ebebeb"/><rect width="11.146" height="2.69" transform="translate(68.036 193.33)" fill="#e0e0e0"/><rect width="14.312" height="5.681" transform="translate(66.602 199.383)" fill="#fff"/><g clip-path="url(#a)"><g transform="matrix(1, 0, 0, 1, 0, 0)" filter="url(#c)"><path d="M298.311,366.8c-12.031-8.22-14.9-23.682-14.574-37.61.054-2.325-.226-4.772.858-6.823s3.65-3.471,5.741-2.513c1.734.795,2.507,2.795,3.49,4.445a13.592,13.592,0,0,0,5.5,5.15c1.488.752,3.324,1.2,4.777.382,1.993-1.127,2.2-3.9,2.162-6.211q-.108-6.462-.215-12.923a21.543,21.543,0,0,1,.626-6.873,7.172,7.172,0,0,1,4.456-4.895c2.193-.638,4.925.6,5.413,2.859a21.329,21.329,0,0,1,.1,2.877,2.431,2.431,0,0,0,1.446,2.274,2.8,2.8,0,0,0,2.528-1.087,30.747,30.747,0,0,0,5.431-8.388,42.639,42.639,0,0,1,5.057-8.65c2.138-2.569,5.112-4.616,8.42-4.839s6.857,1.785,7.727,5.026-.994,6.576-3.035,9.235a51.593,51.593,0,0,1-10.637,10.352,4.245,4.245,0,0,0-1.777,1.951c-.486,1.546.99,3.061,2.517,3.552,1.729.556,3.6.358,5.4.551s3.765.968,4.465,2.664c.971,2.353-.979,4.85-2.906,6.492a44.2,44.2,0,0,1-13,7.687,14.916,14.916,0,0,0-4.837,2.413c-1.359,1.21-2.164,3.3-1.32,4.914s2.978,2.12,4.756,1.771a30.855,30.855,0,0,0,5.052-1.99c3.164-1.232,7.268-1.056,9.332,1.669a7.314,7.314,0,0,1,.846,6.46,16.86,16.86,0,0,1-3.445,5.749,44.449,44.449,0,0,1-18.84,13.535c-7.342,2.631-14.163,3.394-21.514.792" transform="translate(-129.19 -129.3)" fill="#fff"/></g><path d="M316.948,359.628a207.041,207.041,0,0,1,7.99-22.385l2.4-5.76c.79-1.888,1.575-3.762,2.455-5.546a103.4,103.4,0,0,1,5.644-9.966c1.949-3.083,3.911-5.937,5.764-8.593s3.641-5.093,5.358-7.247a82.081,82.081,0,0,1,8.853-9.554c1.129-1.042,2.032-1.822,2.651-2.342l.707-.588a1.728,1.728,0,0,1,.251-.188,1.579,1.579,0,0,1-.222.222l-.68.619c-.6.541-1.484,1.34-2.6,2.4a86.838,86.838,0,0,0-8.73,9.621c-1.7,2.161-3.46,4.605-5.3,7.263s-3.788,5.52-5.723,8.6a104.718,104.718,0,0,0-5.6,9.938c-.873,1.776-1.648,3.633-2.439,5.527s-1.584,3.814-2.393,5.758a212.115,212.115,0,0,0-8.006,22.33" transform="translate(-144.321 -130.893)" fill="#e0e0e0"/><path d="M337.7,336.84a4.726,4.726,0,0,1-.236-.984c-.129-.638-.283-1.565-.458-2.715-.351-2.3-.727-5.488-1.128-9.007s-.822-6.7-1.206-8.983c-.19-1.144-.351-2.068-.472-2.705a4.585,4.585,0,0,1-.139-1,4.6,4.6,0,0,1,.3.966c.17.627.379,1.546.606,2.686.462,2.281.932,5.463,1.333,8.987.387,3.473.737,6.615,1,9.016.127,1.084.236,2,.323,2.73a4.6,4.6,0,0,1,.072,1.01" transform="translate(-152.108 -141.814)" fill="#e0e0e0"/><path d="M370.407,347.287a6.433,6.433,0,0,1-1.184.154c-.762.076-1.865.18-3.223.352-2.719.322-6.46.9-10.558,1.715s-7.776,1.728-10.417,2.458c-1.323.356-2.387.673-3.123.887a6.419,6.419,0,0,1-1.157.3,6.35,6.35,0,0,1,1.106-.456c.722-.264,1.775-.625,3.091-1.021,2.627-.807,6.306-1.761,10.417-2.588a104.931,104.931,0,0,1,10.608-1.595c1.367-.133,2.477-.192,3.245-.216a6.3,6.3,0,0,1,1.194.013" transform="translate(-155.157 -158.124)" fill="#e0e0e0"/><path d="M304.767,387.35a1.515,1.515,0,0,1-.208-.36l-.52-1.07c-.447-.931-1.058-2.3-1.792-3.99-1.469-3.39-3.351-8.136-5.357-13.4s-3.843-10.024-5.239-13.44l-1.666-4.041-.447-1.1a.21.21,0,1,1,.078-.035l.519,1.069c.447.931,1.059,2.3,1.792,3.991,1.469,3.389,3.351,8.135,5.358,13.4s3.842,10.022,5.238,13.438c.685,1.66,1.247,3.026,1.666,4.04.179.441.326.8.447,1.1a1.537,1.537,0,0,1,.13.4" transform="translate(-131.78 -159.165)" fill="#e0e0e0"/><path d="M356.967,394.828a1.605,1.605,0,0,1-.391.166l-1.143.4L351.22,396.8c-3.559,1.2-8.455,2.9-13.862,4.8s-10.326,3.558-13.91,4.68c-1.792.562-3.247,1-4.258,1.284l-1.167.319a1.523,1.523,0,0,1-.415.083,1.62,1.62,0,0,1,.39-.166l1.143-.4,4.214-1.414c3.559-1.194,8.455-2.9,13.864-4.8s10.323-3.558,13.908-4.679c1.792-.562,3.246-1,4.258-1.284l1.167-.32a1.543,1.543,0,0,1,.415-.083" transform="translate(-144.621 -179.781)" fill="#e0e0e0"/><g transform="matrix(1, 0, 0, 1, 0, 0)" filter="url(#e)"><path d="M402.775,50.88a5.574,5.574,0,0,0,3.321-5.157,5.239,5.239,0,1,0-10.456-.048,5.566,5.566,0,0,0,3.332,5.205c-8.046,1.212-7.681,9.956-7.681,9.956l19.025.088s.434-8.839-7.541-10.043" transform="translate(-178.17 -18.27)" fill="#fff"/></g><g transform="matrix(1, 0, 0, 1, 0, 0)" filter="url(#g)"><path d="M402.253,180.9a8.6,8.6,0,0,1,2.1-.913l.433-2.079,3.514-.062.505,2.063a8.6,8.6,0,0,1,2.132.839l1.776-1.164,2.528,2.441-1.1,1.815a8.6,8.6,0,0,1,.913,2.1l2.079.432.062,3.514-2.063.506a8.625,8.625,0,0,1-.838,2.131l1.163,1.776-2.441,2.528-1.815-1.1a8.62,8.62,0,0,1-2.1.913l-.432,2.079-3.514.062-.506-2.063a8.609,8.609,0,0,1-2.132-.839l-1.776,1.164-2.528-2.441,1.1-1.815a8.6,8.6,0,0,1-.913-2.1l-2.079-.432-.062-3.514,2.063-.506a8.63,8.63,0,0,1,.838-2.132L398,182.327l2.441-2.528Zm1.873,4.681a3.77,3.77,0,1,0,5.33-.094,3.77,3.77,0,0,0-5.33.094" transform="translate(-180.43 -80.98)" fill="#fff"/></g><path d="M409.763,191.028a2.852,2.852,0,0,1,.7-.616,3.754,3.754,0,0,1,2.459-.582,3.8,3.8,0,0,1,1.672.594,3.858,3.858,0,0,1,1.352,1.523,3.869,3.869,0,0,1,.364,2.218,3.845,3.845,0,0,1-3.182,3.3,3.854,3.854,0,0,1-2.23-.286,3.854,3.854,0,0,1-1.57-1.3,3.793,3.793,0,0,1-.652-1.65,3.754,3.754,0,0,1,.495-2.478,2.857,2.857,0,0,1,.591-.723c.02.017-.228.247-.518.765a3.759,3.759,0,0,0-.417,2.413,3.683,3.683,0,0,0,2.152,2.788,3.677,3.677,0,0,0,2.114.259,3.653,3.653,0,0,0,3.008-3.116,3.687,3.687,0,0,0-.333-2.1,3.681,3.681,0,0,0-2.862-2.053,3.758,3.758,0,0,0-2.4.5c-.507.309-.728.564-.746.545" transform="translate(-186.072 -86.428)" fill="#e0e0e0"/><path d="M402.188,180.845a.885.885,0,0,1-.117-.062l-.348-.2-1.368-.808.042-.005-2.426,2.542.007-.068,1.171,1.771.021.032-.019.034a8.579,8.579,0,0,0-.825,2.118l-.01.041-.042.01-2.062.512.058-.076c.022,1.106.045,2.28.07,3.513l-.068-.082,2.08.429.053.011.015.052a8.535,8.535,0,0,0,.907,2.077l.029.048-.029.048-1.1,1.816-.015-.119,2.531,2.437-.125-.011,1.775-1.166.052-.034.054.03a8.563,8.563,0,0,0,2.107.827l.062.015.015.062c.159.646.332,1.351.507,2.063l-.105-.081,3.514-.063-.1.085.432-2.079.013-.064.063-.018a8.5,8.5,0,0,0,2.073-.9h0l.057-.033.055.034,1.815,1.1-.133.017,2.441-2.527-.013.133-1.163-1.776-.035-.054.032-.056a8.513,8.513,0,0,0,.83-2.105l.015-.062.062-.015,2.063-.5-.078.1q-.029-1.8-.058-3.514l.08.1-2.079-.436-.058-.012-.016-.056a8.514,8.514,0,0,0-.9-2.079l-.029-.048.029-.048,1.1-1.813.015.111-2.523-2.446.1.01-1.778,1.16-.04.026-.04-.023a8.592,8.592,0,0,0-2.111-.838l-.042-.01-.01-.041-.5-2.065.063.049-3.514.046.046-.038c-.178.83-.324,1.51-.446,2.077l0,.021-.02.005a8.934,8.934,0,0,0-1.607.618l-.377.2a.94.94,0,0,1-.126.064,1.075,1.075,0,0,1,.117-.08c.081-.05.2-.124.37-.214a8.327,8.327,0,0,1,1.6-.654l-.025.026c.115-.568.252-1.251.419-2.082l.008-.038h.039l3.513-.077h.051l.013.05.513,2.061-.052-.052a8.7,8.7,0,0,1,2.152.84l-.08,0,1.773-1.168.055-.036.048.046,2.533,2.435.052.05-.037.062-1.1,1.817v-.1a8.71,8.71,0,0,1,.926,2.124l-.073-.069,2.08.43.078.016,0,.08q.032,1.713.065,3.513l0,.082-.08.02-2.062.508.076-.077a8.711,8.711,0,0,1-.847,2.158l0-.11,1.164,1.776.047.071-.059.062-2.44,2.529-.06.062-.074-.045-1.815-1.1h.109a8.728,8.728,0,0,1-2.125.923l.076-.082-.433,2.079-.017.084-.086,0-3.514.06-.084,0-.02-.082c-.174-.712-.346-1.417-.5-2.063l.077.076a8.724,8.724,0,0,1-2.157-.85l.106,0-1.777,1.162-.067.044-.058-.056-2.525-2.444-.056-.053.04-.066,1.1-1.814v.1a8.743,8.743,0,0,1-.919-2.125l.068.063-2.079-.437-.066-.014V190.2c-.019-1.233-.037-2.407-.053-3.514v-.062l.059-.015,2.065-.5-.052.052a8.692,8.692,0,0,1,.852-2.145l0,.066-1.157-1.78-.024-.037.031-.031,2.455-2.514.02-.02.023.015,1.338.832.344.218a.955.955,0,0,1,.117.08" transform="translate(-180.369 -80.927)" fill="#e0e0e0"/><g transform="matrix(1, 0, 0, 1, 0, 0)" filter="url(#i)"><path d="M59.994,34.58a4.111,4.111,0,0,0,3.877-.836c.674.968,1.528,2.12,2.494,3.347q.8,1.013,1.535,1.892a4.194,4.194,0,0,0-2.16,4.944c-.909.284-1.936.63-3.035,1.033-.971.357-1.869.712-2.673,1.047a4.549,4.549,0,1,0,.16,1.034c.88-.277,1.862-.608,2.912-.995,1.125-.413,2.155-.824,3.044-1.2a4.215,4.215,0,1,0,2.839-6.216c-.514-.7-1.091-1.463-1.713-2.254-1-1.27-1.945-2.4-2.743-3.3a4.92,4.92,0,0,0,.85-1.6A4.221,4.221,0,1,0,57.36,28.95a4.4,4.4,0,0,0,2.634,5.63" transform="translate(-23.59 -11.69)" fill="#f6f6f6"/></g><g transform="matrix(1, 0, 0, 1, 0, 0)" filter="url(#k)"><path d="M12.761,223.356l4.249,5.236a.775.775,0,0,0,.663.285l6.722-.532a.776.776,0,0,1,.712,1.195L21.44,235.2a.776.776,0,0,0-.066.719l2.583,6.229a.776.776,0,0,1-.917,1.047l-6.515-1.739a.775.775,0,0,0-.7.16L10.7,245.995a.776.776,0,0,1-1.279-.548l-.359-6.734a.777.777,0,0,0-.369-.62l-5.75-3.521a.775.775,0,0,1,.126-1.385l6.292-2.423a.777.777,0,0,0,.475-.543l1.572-6.558a.776.776,0,0,1,1.357-.308" transform="translate(-1.17 -101.57)" fill="#fff"/></g><g transform="matrix(1, 0, 0, 1, 0, 0)" filter="url(#m)"><path d="M300.818,254.073a7.606,7.606,0,1,0-14.162,3.843h0l.022.028c.291.492.657.843,1.026,1.359l4.416,5.85a1.374,1.374,0,0,0,2.192,0l4.343-5.754a16.438,16.438,0,0,0,1.1-1.464l.016-.021h0a7.556,7.556,0,0,0,1.05-3.843m-7.606,3.311a3.347,3.347,0,1,1,3.347-3.347,3.348,3.348,0,0,1-3.347,3.347" transform="translate(-130.05 -112.23)" fill="#fff"/></g></g><g clip-path="url(#a)"><path d="M188.181,193.195a1.936,1.936,0,0,1-.2.332l-.623.919c-.547.794-1.349,1.936-2.351,3.337-2,2.8-4.81,6.652-8,10.837s-6.161,7.91-8.4,10.533c-1.126,1.306-2.04,2.361-2.706,3.058l-.763.807a2.045,2.045,0,0,1-.28.268,1.939,1.939,0,0,1,.237-.307l.723-.842c.641-.72,1.529-1.793,2.635-3.113,2.2-2.653,5.143-6.392,8.327-10.577s6.016-8.009,8.06-10.783l2.424-3.284.667-.887a2.019,2.019,0,0,1,.247-.3" transform="translate(-75.068 -87.97)" fill="#529d2e"/><path d="M234.632,73.249c.078.011-.266,2.93-.767,6.518s-.971,6.491-1.049,6.48.266-2.929.768-6.519.971-6.49,1.048-6.479" transform="translate(-106.007 -33.354)" fill="#529d2e"/><path d="M305.076,66.3a3.1,3.1,0,0,1-.363.319l-1.073.869-3.977,3.151-13.18,10.308L273.251,91.189l-4.03,3.078-1.1.826a3.086,3.086,0,0,1-.4.273,3.023,3.023,0,0,1,.362-.318l1.072-.868,3.975-3.15,13.185-10.312,13.232-10.243,4.029-3.078,1.1-.825a3.071,3.071,0,0,1,.4-.272" transform="translate(-121.905 -30.189)" fill="#529d2e"/><path d="M334.84,132.137c.006.078-13.341,1.186-29.807,2.474S275.206,136.88,275.2,136.8s13.338-1.186,29.81-2.474,29.824-2.269,29.83-2.191" transform="translate(-125.311 -60.166)" fill="#529d2e"/><path d="M295.971,181.605c-.035.07-5.7-2.748-12.641-6.292s-12.548-6.476-12.513-6.546,5.694,2.747,12.642,6.293,12.547,6.475,12.512,6.545" transform="translate(-123.315 -76.847)" fill="#529d2e"/><path d="M172.795,79.568a2.518,2.518,0,0,1-.279-.336l-.756-1c-.652-.867-1.584-2.131-2.724-3.7-2.282-3.138-5.387-7.508-8.732-12.392s-6.3-9.363-8.4-12.625c-1.051-1.631-1.893-2.956-2.465-3.878l-.654-1.064a2.45,2.45,0,0,1-.211-.382,2.582,2.582,0,0,1,.26.351l.7,1.036,2.54,3.828c2.143,3.233,5.12,7.689,8.464,12.573s6.422,9.269,8.662,12.436l2.65,3.752.713,1.026a2.511,2.511,0,0,1,.233.369" transform="translate(-67.652 -20.125)" fill="#529d2e"/><path d="M166.1,121.573c-.033.071-3.742-1.606-8.282-3.746s-8.2-3.931-8.162-4,3.741,1.606,8.283,3.746,8.194,3.931,8.161,4" transform="translate(-68.145 -51.829)" fill="#529d2e"/><path d="M129.293,142.421c-.007.078-12.512-.979-27.928-2.362s-27.912-2.566-27.9-2.644,12.51.979,27.93,2.362,27.909,2.566,27.9,2.644" transform="translate(-33.45 -62.569)" fill="#529d2e"/><path d="M156.353,174.039c.03.072-7.394,3.3-16.58,7.218s-16.663,7.029-16.694,6.957,7.392-3.3,16.582-7.219,16.661-7.029,16.692-6.957" transform="translate(-56.043 -79.247)" fill="#529d2e"/><path d="M230.4,123.856a27.215,27.215,0,1,1-27.215-27.215A27.215,27.215,0,0,1,230.4,123.856" transform="translate(-80.128 -44.005)" fill="url(#p)"/><path d="M225.075,127.533a10.81,10.81,0,1,0-11.81,13.922l.811,2.6,9.046-2.818s-.4-1.479-.786-2.789a10.807,10.807,0,0,0,2.74-10.92" transform="translate(-92.863 -54.612)" fill="#ffc811"/><path d="M225.094,151.117s-.012-.044-.029-.131-.042-.22-.074-.385c-.062-.339-.154-.84-.255-1.487s-.215-1.442-.289-2.371a16.025,16.025,0,0,1,.042-3.164,10.244,10.244,0,0,1,.368-1.809,1.991,1.991,0,0,1,.508-.853,1.116,1.116,0,0,1,.99-.273.737.737,0,0,1,.454.307.757.757,0,0,1,.122.543,1.541,1.541,0,0,1-.583.936,2.958,2.958,0,0,1-2.193.516,2.994,2.994,0,0,1-1.993-1.268,2.262,2.262,0,0,1-.432-1.172.972.972,0,0,1,.715-1.01.7.7,0,0,1,.638.2.979.979,0,0,1,.282.611,2.115,2.115,0,0,1-.406,1.252,3.227,3.227,0,0,1-2.188,1.448,2.811,2.811,0,0,1-2.459-.867,1.631,1.631,0,0,1-.459-1.228.826.826,0,0,1,.31-.6.81.81,0,0,1,.654-.139,1.078,1.078,0,0,1,.577.317,1.686,1.686,0,0,1,.343.546,3.1,3.1,0,0,1,.21,1.228,3.218,3.218,0,0,1-.916,2.184,3.281,3.281,0,0,1-2.044.959,1.717,1.717,0,0,1-1.083-.2.837.837,0,0,1-.367-.976.706.706,0,0,1,.393-.371,1.02,1.02,0,0,1,.522-.058,1.565,1.565,0,0,1,.852.511c.434.479.812.958,1.184,1.412,1.473,1.824,2.593,3.355,3.355,4.42.381.533.67.952.865,1.236l.219.325c.048.074.071.114.071.114s-.029-.035-.082-.106l-.23-.318-.885-1.221c-.775-1.056-1.905-2.578-3.386-4.392-.373-.449-.758-.932-1.185-1.4a1.466,1.466,0,0,0-.794-.477.648.648,0,0,0-.471,1.2,1.6,1.6,0,0,0,1.011.182,3.159,3.159,0,0,0,1.967-.929,3.1,3.1,0,0,0,.876-2.1,2.991,2.991,0,0,0-.2-1.176,1.175,1.175,0,0,0-.824-.784.681.681,0,0,0-.551.116.7.7,0,0,0-.259.506,1.5,1.5,0,0,0,.426,1.127,2.68,2.68,0,0,0,2.342.823,3.094,3.094,0,0,0,2.1-1.388,2,2,0,0,0,.387-1.168.85.85,0,0,0-.242-.529.567.567,0,0,0-.521-.166.758.758,0,0,0-.461.325.933.933,0,0,0-.15.554,2.146,2.146,0,0,0,.408,1.1,2.874,2.874,0,0,0,1.908,1.219,2.844,2.844,0,0,0,2.1-.487,1.427,1.427,0,0,0,.544-.859.638.638,0,0,0-.489-.728,1.007,1.007,0,0,0-.892.245,1.892,1.892,0,0,0-.483.808,10.212,10.212,0,0,0-.371,1.787,16.174,16.174,0,0,0-.062,3.147c.066.927.173,1.721.266,2.369s.177,1.144.231,1.49c.026.167.046.3.06.388s.016.133.016.133" transform="translate(-98.12 -63.512)" fill="#263238"/><path d="M231.68,161.529l-7.767,2.419a.611.611,0,0,1-.363-1.166l7.767-2.419a.61.61,0,1,1,.363,1.166" transform="translate(-101.597 -73.008)" fill="#263238"/><path d="M232.275,163.439l-7.767,2.419a.61.61,0,0,0,.363,1.166l.853-.265,1.8,1.8a.784.784,0,0,0,.788.194l2.775-.864a.785.785,0,0,0,.54-.615l.431-2.488.579-.181a.61.61,0,1,0-.363-1.166" transform="translate(-102.033 -74.408)" fill="#263238"/><g transform="translate(112.102 68.493)" opacity="0.2"><g clip-path="url(#q)"><path d="M206.931,128.886a7.952,7.952,0,0,1,1.639-2.017,5.73,5.73,0,0,1,1.447-.958c.378-.163.612-.194.657-.117.1.173-.593.694-1.428,1.727a8.89,8.89,0,0,0-1.273,9.54c.535,1.216,1.07,1.9.925,2.041-.063.063-.28-.029-.6-.285a5.734,5.734,0,0,1-1.145-1.3,7.946,7.946,0,0,1-1.053-2.377,8.418,8.418,0,0,1-.207-3.208" transform="translate(-205.822 -125.754)" fill="#fff"/></g></g><g transform="translate(118.075 66.833)" opacity="0.2"><g clip-path="url(#r)"><path d="M218.288,124.078c-.656.2-1.289.2-1.464-.127a.561.561,0,0,1,.174-.6,2.169,2.169,0,0,1,1.953-.6c.28.072.457.219.48.4" transform="translate(-216.788 -122.707)" fill="#fff"/></g></g><path d="M234.729,170.843c0,.022-.227-.007-.586,0a4.518,4.518,0,0,0-2.6.893,5.7,5.7,0,0,1-.463.358,1.677,1.677,0,0,1,.4-.431,3.962,3.962,0,0,1,2.658-.913,1.66,1.66,0,0,1,.585.092" transform="translate(-105.222 -77.749)" fill="#455a64"/><path d="M233.531,165.971c.011.035-1.384.5-3.116,1.04s-3.145.948-3.156.913,1.384-.5,3.117-1.04,3.145-.948,3.156-.913" transform="translate(-103.481 -75.573)" fill="#455a64"/><path d="M234.05,167.94a4.572,4.572,0,0,1-.741.316c-.464.178-1.111.408-1.831.644s-1.379.431-1.858.563a4.556,4.556,0,0,1-.784.182,5.128,5.128,0,0,1,.757-.272l1.844-.6,1.841-.606a5.086,5.086,0,0,1,.772-.228" transform="translate(-104.199 -76.47)" fill="#455a64"/><path d="M136.761,13.483a1.233,1.233,0,0,1-.026-.216c-.011-.157-.027-.367-.046-.635q-.014-.211-.031-.467c-.019-.171-.057-.356-.087-.558a9.739,9.739,0,0,0-.283-1.377A12.757,12.757,0,0,0,134.8,6.693a13.261,13.261,0,0,0-15.929-5.65,12.191,12.191,0,0,0-3.35,1.8,14.984,14.984,0,0,0-1.5,1.277,14.982,14.982,0,0,0-1.3,1.535,12.809,12.809,0,0,0-1.892,3.647,14.144,14.144,0,0,0-.683,4.175,14.157,14.157,0,0,0,.682,4.178,12.836,12.836,0,0,0,1.892,3.648,15.057,15.057,0,0,0,1.3,1.535,14.92,14.92,0,0,0,1.5,1.278,13.824,13.824,0,0,0,1.624,1.044,13.837,13.837,0,0,0,1.727.76,13.3,13.3,0,0,0,15.93-5.651,12.774,12.774,0,0,0,1.487-3.538,9.818,9.818,0,0,0,.283-1.377c.03-.2.068-.387.087-.558s.021-.326.031-.467c.019-.268.034-.478.046-.635a1.233,1.233,0,0,1,.026-.216,1.213,1.213,0,0,1,0,.217c0,.157-.01.368-.018.637q-.007.212-.017.47c-.014.173-.047.359-.074.563a9.4,9.4,0,0,1-.259,1.392,12.667,12.667,0,0,1-1.457,3.592,13.463,13.463,0,0,1-9.063,6.384,13.513,13.513,0,0,1-7.092-.569,14.063,14.063,0,0,1-1.764-.771,14.049,14.049,0,0,1-1.659-1.061,15.252,15.252,0,0,1-1.535-1.3,15.227,15.227,0,0,1-1.326-1.565,13.084,13.084,0,0,1-1.936-3.724,14.408,14.408,0,0,1-.7-4.266,14.4,14.4,0,0,1,.7-4.265A13.075,13.075,0,0,1,112.5,5.494a15.161,15.161,0,0,1,1.326-1.564,15.11,15.11,0,0,1,1.534-1.3,14.092,14.092,0,0,1,1.658-1.062A14.175,14.175,0,0,1,118.783.8a13.517,13.517,0,0,1,7.091-.569,13.461,13.461,0,0,1,9.063,6.383A12.648,12.648,0,0,1,136.4,10.2a9.477,9.477,0,0,1,.259,1.392c.027.2.06.391.074.563s.012.328.017.47c.008.269.014.48.018.638a1.213,1.213,0,0,1,0,.217" transform="translate(-50.027 0)" fill="#529d2e"/><path d="M132.93,18.644a6.617,6.617,0,0,0-.155-1.016,4.014,4.014,0,0,0-.467-1.1,4.14,4.14,0,0,0-4.971-1.757,3.885,3.885,0,0,0-1.044.563,4.734,4.734,0,0,0-.468.4,4.681,4.681,0,0,0-.4.478,4.107,4.107,0,0,0,0,4.875,3.785,3.785,0,0,0,.871.877,3.877,3.877,0,0,0,1.044.563,4.151,4.151,0,0,0,4.971-1.757,4.021,4.021,0,0,0,.467-1.1,6.617,6.617,0,0,0,.155-1.016.27.27,0,0,1,0,.068c0,.052,0,.118,0,.2a1.888,1.888,0,0,1-.027.324,3,3,0,0,1-.08.437,3.956,3.956,0,0,1-.454,1.128,4.223,4.223,0,0,1-2.843,2.009,4.249,4.249,0,0,1-2.229-.177,3.974,3.974,0,0,1-1.076-.576,4.729,4.729,0,0,1-.483-.408,4.838,4.838,0,0,1-.417-.492,4.223,4.223,0,0,1,0-5.024,4.779,4.779,0,0,1,.417-.492,4.866,4.866,0,0,1,.483-.409,4,4,0,0,1,1.076-.575,4.247,4.247,0,0,1,2.229-.177,4.221,4.221,0,0,1,2.844,2.009,3.956,3.956,0,0,1,.454,1.128,3,3,0,0,1,.08.437,1.888,1.888,0,0,1,.027.324c0,.082,0,.147,0,.2a.27.27,0,0,1,0,.068" transform="translate(-56.687 -6.56)" fill="#263238"/><path d="M137.562,27.786c.025-.025.937.847,2.038,1.948s1.972,2.013,1.947,2.038-.937-.846-2.038-1.947-1.972-2.013-1.947-2.038" transform="translate(-62.638 -12.652)" fill="#263238"/><path d="M43.552,118.5a17.888,17.888,0,1,1-17.888-17.888A17.888,17.888,0,0,1,43.552,118.5" transform="translate(-3.541 -45.815)" fill="#fff"/><path d="M43.434,118.408s-.015-.1-.029-.29l-.057-.849q-.017-.281-.039-.625c-.025-.229-.074-.477-.114-.747a12.922,12.922,0,0,0-.374-1.844,17.063,17.063,0,0,0-1.983-4.74,17.868,17.868,0,0,0-12.012-8.361,16.562,16.562,0,0,0-2.246-.259c-.383-.013-.769-.051-1.158-.044l-1.175.061c-.2.014-.4.013-.593.039l-.593.091c-.395.066-.8.112-1.194.194a18.832,18.832,0,0,0-2.368.7,18.457,18.457,0,0,0-2.315,1.018c-.375.2-.734.441-1.106.661a9.042,9.042,0,0,0-1.071.739,19.9,19.9,0,0,0-2.014,1.712,20.1,20.1,0,0,0-1.739,2.057,17.184,17.184,0,0,0-2.537,4.889,17.595,17.595,0,0,0,0,11.2,17.176,17.176,0,0,0,2.537,4.89,20.053,20.053,0,0,0,1.739,2.058A20.038,20.038,0,0,0,15,132.667a9.091,9.091,0,0,0,1.071.739c.371.22.731.457,1.106.661a18.583,18.583,0,0,0,2.316,1.019,18.835,18.835,0,0,0,2.368.7c.4.082.8.129,1.195.194l.593.091c.2.026.4.025.593.039l1.176.061c.389.006.775-.031,1.158-.044a16.483,16.483,0,0,0,2.247-.259A17.867,17.867,0,0,0,40.838,127.5a17.068,17.068,0,0,0,1.983-4.74,12.99,12.99,0,0,0,.374-1.844c.041-.27.09-.517.114-.747s.027-.437.039-.625l.057-.849c.014-.191.029-.289.029-.289s0,.1,0,.29-.017.486-.029.852q-.011.283-.025.628c-.02.23-.065.48-.1.752a12.673,12.673,0,0,1-.351,1.859,16.955,16.955,0,0,1-1.954,4.794,17.988,17.988,0,0,1-12.1,8.512,16.819,16.819,0,0,1-2.276.27c-.388.014-.779.053-1.174.048l-1.192-.058c-.2-.014-.4-.012-.6-.038l-.6-.091c-.4-.065-.809-.112-1.212-.194a19.018,19.018,0,0,1-2.4-.7,18.728,18.728,0,0,1-2.352-1.029c-.381-.206-.746-.445-1.124-.668a9.254,9.254,0,0,1-1.089-.748,20.312,20.312,0,0,1-2.047-1.736,20.413,20.413,0,0,1-1.768-2.088,17.454,17.454,0,0,1-2.581-4.967,17.845,17.845,0,0,1,0-11.378,17.444,17.444,0,0,1,2.581-4.965,20.406,20.406,0,0,1,1.768-2.087,20.238,20.238,0,0,1,2.047-1.735,9.27,9.27,0,0,1,1.088-.748c.377-.223.743-.462,1.124-.668a18.8,18.8,0,0,1,2.352-1.029,19.04,19.04,0,0,1,2.4-.7c.4-.083.811-.129,1.212-.194l.6-.091c.2-.026.4-.024.6-.038l1.192-.058c.394-.005.786.033,1.174.048a16.722,16.722,0,0,1,2.276.27,17.985,17.985,0,0,1,12.1,8.511,16.964,16.964,0,0,1,1.954,4.794,12.751,12.751,0,0,1,.351,1.859c.036.272.081.521.1.752s.017.44.025.628c.012.366.022.649.029.852s0,.29,0,.29" transform="translate(-3.423 -45.718)" fill="#529d2e"/><path d="M42.28,126.295a9.539,9.539,0,1,1-9.539-9.539,9.539,9.539,0,0,1,9.539,9.539" transform="translate(-10.565 -53.164)" fill="#f5f5f5"/><path d="M42.233,126.263s-.019-.209-.042-.607a4.643,4.643,0,0,0-.08-.732,6.948,6.948,0,0,0-.2-.984,9.1,9.1,0,0,0-1.056-2.532,9.483,9.483,0,0,0-11.395-4.054,8.9,8.9,0,0,0-2.4,1.291,10.609,10.609,0,0,0-1.076.914,10.812,10.812,0,0,0-.929,1.1,9.436,9.436,0,0,0,0,11.21,8.657,8.657,0,0,0,2.005,2.014,8.911,8.911,0,0,0,2.4,1.291,9.529,9.529,0,0,0,4.984.414,9.54,9.54,0,0,0,6.411-4.469,9.108,9.108,0,0,0,1.056-2.531,6.879,6.879,0,0,0,.2-.985,4.63,4.63,0,0,0,.08-.731c.023-.4.042-.607.042-.607s0,.209-.019.608a4.569,4.569,0,0,1-.069.735,6.834,6.834,0,0,1-.188.99,9.05,9.05,0,0,1-1.044,2.553,9.55,9.55,0,0,1-11.485,4.121,9.013,9.013,0,0,1-2.43-1.3,8.784,8.784,0,0,1-2.03-2.035,9.539,9.539,0,0,1,0-11.341A8.768,8.768,0,0,1,27,118.557a9.009,9.009,0,0,1,2.429-1.3,9.61,9.61,0,0,1,5.036-.408,9.582,9.582,0,0,1,6.448,4.529,9.053,9.053,0,0,1,1.045,2.553,6.826,6.826,0,0,1,.188.991,4.569,4.569,0,0,1,.069.735c.016.4.019.608.019.608" transform="translate(-10.518 -53.133)" fill="#263238"/><path d="M35.41,122.819a4.864,4.864,0,0,1,1.534.142,6.292,6.292,0,0,1,4.7,4.917,6.33,6.33,0,0,1-.262,3.338,6.361,6.361,0,0,1-2.21,2.961,6.311,6.311,0,0,1-7.527,0,6.372,6.372,0,0,1-2.211-2.962,6.281,6.281,0,0,1,.944-6,6.21,6.21,0,0,1,3.5-2.259,4.864,4.864,0,0,1,1.534-.142,12.478,12.478,0,0,0-1.507.249,6.221,6.221,0,0,0-3.364,2.274,6.1,6.1,0,0,0-.857,5.784,6.129,6.129,0,0,0,2.13,2.827,6.055,6.055,0,0,0,7.2,0,6.135,6.135,0,0,0,2.129-2.827,6.1,6.1,0,0,0-.857-5.784,6.22,6.22,0,0,0-3.363-2.274,12.493,12.493,0,0,0-1.508-.249" transform="translate(-13.234 -55.919)" fill="#529d2e"/><path d="M38.961,130.618a.966.966,0,0,1,.5.009,1.97,1.97,0,0,1,1.155.712,2.066,2.066,0,0,1,.328,1.975,2.1,2.1,0,0,1-3.96,0,2.065,2.065,0,0,1,.329-1.975,1.971,1.971,0,0,1,1.155-.712.966.966,0,0,1,.5-.009c0,.026-.176.028-.469.115a1.982,1.982,0,0,0-1.023.727,1.856,1.856,0,1,0,2.984,0,1.981,1.981,0,0,0-1.022-.727c-.294-.088-.471-.09-.469-.115" transform="translate(-16.785 -59.466)" fill="#529d2e"/><path d="M22.056,141.144c3.3-2.3,6.868-4.576,10.163-6.874" transform="translate(-10.043 -61.139)" fill="#f5f5f5"/><path d="M32.218,134.27c.017.026-2.243,1.586-5.049,3.484s-5.1,3.416-5.113,3.39,2.243-1.585,5.05-3.484,5.1-3.416,5.113-3.39" transform="translate(-10.043 -61.139)" fill="#263238"/><path d="M22.142,145.574a6.193,6.193,0,0,1-1.179.014,6.2,6.2,0,0,1-1.174-.1,6.192,6.192,0,0,1,1.179-.014,6.2,6.2,0,0,1,1.174.1" transform="translate(-9.011 -66.235)" fill="#263238"/><path d="M23.368,147.182a5.869,5.869,0,0,1,.343-1.589,5.869,5.869,0,0,1-.343,1.589" transform="translate(-10.636 -66.295)" fill="#263238"/><path d="M24.424,146.787a6.326,6.326,0,0,1,.3-1.664,6.326,6.326,0,0,1-.3,1.664" transform="translate(-11.117 -66.081)" fill="#263238"/><path d="M21.949,144.416a3.068,3.068,0,0,1,.819.135,3.054,3.054,0,0,1,.792.245,3.069,3.069,0,0,1-.819-.135,3.054,3.054,0,0,1-.792-.245" transform="translate(-9.994 -65.756)" fill="#263238"/><path d="M137.089,92.654A10.369,10.369,0,1,1,126.72,82.285a10.369,10.369,0,0,1,10.369,10.369" transform="translate(-52.98 -37.468)" fill="#fff"/><path d="M136.971,92.562a.757.757,0,0,1-.023-.168c-.01-.126-.023-.288-.039-.491a5.176,5.176,0,0,0-.094-.794,7.623,7.623,0,0,0-.222-1.066,9.908,9.908,0,0,0-1.156-2.736,10.262,10.262,0,0,0-12.323-4.362,9.629,9.629,0,0,0-2.589,1.395,9.37,9.37,0,0,0-2.162,2.174,10.185,10.185,0,0,0,0,12.092,9.358,9.358,0,0,0,2.162,2.175,9.627,9.627,0,0,0,2.589,1.4,10.288,10.288,0,0,0,12.323-4.362,9.892,9.892,0,0,0,1.156-2.736,7.623,7.623,0,0,0,.222-1.066,5.162,5.162,0,0,0,.094-.793c.016-.2.029-.365.039-.491a.757.757,0,0,1,.023-.168.719.719,0,0,1,.006.168c0,.127-.007.29-.011.494a4.805,4.805,0,0,1-.068.8,7.277,7.277,0,0,1-.2,1.081,9.827,9.827,0,0,1-1.126,2.791,10.457,10.457,0,0,1-7.036,4.966,10.5,10.5,0,0,1-5.512-.44A9.84,9.84,0,0,1,120.364,101a9.609,9.609,0,0,1-2.225-2.227,10.441,10.441,0,0,1,0-12.422,9.609,9.609,0,0,1,2.225-2.227,9.85,9.85,0,0,1,2.661-1.423,10.5,10.5,0,0,1,5.512-.44,10.452,10.452,0,0,1,7.036,4.966,9.805,9.805,0,0,1,1.127,2.79,7.353,7.353,0,0,1,.2,1.081,4.8,4.8,0,0,1,.068.8c0,.2.008.368.011.495a.719.719,0,0,1-.006.168" transform="translate(-52.861 -37.376)" fill="#529d2e"/><path d="M132.787,97.7a2.423,2.423,0,0,0,1.444-2.242,2.277,2.277,0,1,0-4.545-.021,2.419,2.419,0,0,0,1.448,2.262c-3.5.527-3.338,4.327-3.338,4.327l8.269.038s.189-3.842-3.278-4.365" transform="translate(-58.191 -42.358)" fill="#f5f5f5"/><path d="M132.741,97.664a4.026,4.026,0,0,1,1.527.533,3.609,3.609,0,0,1,1.255,1.406,5.393,5.393,0,0,1,.539,2.429v.041h-.044l-8.269-.026h-.056v-.054a5.368,5.368,0,0,1,.517-2.339,3.566,3.566,0,0,1,1.2-1.411,4.316,4.316,0,0,1,1.671-.635l-.013.106a2.47,2.47,0,0,1-1.474-2.169,2.534,2.534,0,0,1,1.041-2.2,2.212,2.212,0,0,1,2.157-.219,2.407,2.407,0,0,1,1.275,1.4,2.6,2.6,0,0,1,.057,1.557,2.456,2.456,0,0,1-.568,1.023,2.26,2.26,0,0,1-.581.45,1.929,1.929,0,0,1-.233.1,2.546,2.546,0,0,0,.785-.581,2.44,2.44,0,0,0,.542-1.012A2.545,2.545,0,0,0,134,94.554a2.334,2.334,0,0,0-1.241-1.345,2.125,2.125,0,0,0-2.068.22,2.439,2.439,0,0,0-.992,2.112,2.364,2.364,0,0,0,1.412,2.072l.174.071-.187.035a4.207,4.207,0,0,0-1.623.618,3.45,3.45,0,0,0-1.161,1.368,5.278,5.278,0,0,0-.507,2.284l-.056-.054,8.269.051-.044.041a5.352,5.352,0,0,0-.514-2.393,3.591,3.591,0,0,0-1.219-1.4,3.114,3.114,0,0,0-.613-.312,2.4,2.4,0,0,0-.485-.161l-.4-.1" transform="translate(-58.145 -42.323)" fill="#263238"/><path d="M95.141,197.039a18.068,18.068,0,1,1-18.068-18.068,18.068,18.068,0,0,1,18.068,18.068" transform="translate(-26.868 -81.494)" fill="#fff"/><path d="M95.022,196.941s-.015-.1-.029-.292l-.057-.857q-.017-.284-.039-.631c-.025-.231-.075-.481-.115-.754a13.151,13.151,0,0,0-.378-1.863,17.241,17.241,0,0,0-2-4.788,18.049,18.049,0,0,0-12.133-8.446,16.732,16.732,0,0,0-2.27-.261c-.387-.013-.777-.051-1.17-.045l-1.187.062c-.2.014-.4.013-.6.039l-.6.092c-.4.066-.806.113-1.207.2a19.149,19.149,0,0,0-2.392.7,18.71,18.71,0,0,0-2.339,1.029c-.379.205-.742.444-1.117.667a9.163,9.163,0,0,0-1.082.746,16.406,16.406,0,0,0-3.79,3.808,17.357,17.357,0,0,0-2.563,4.939,17.772,17.772,0,0,0,0,11.314,17.371,17.371,0,0,0,2.563,4.941,16.416,16.416,0,0,0,3.791,3.809,9.057,9.057,0,0,0,1.082.746c.375.223.738.462,1.117.668a18.8,18.8,0,0,0,2.339,1.029,19.128,19.128,0,0,0,2.392.7c.4.083.808.13,1.207.2l.6.092c.2.027.4.025.6.039l1.188.062c.393.006.783-.032,1.17-.045a16.645,16.645,0,0,0,2.27-.262A18.049,18.049,0,0,0,92.4,206.126a17.219,17.219,0,0,0,2-4.788,13.074,13.074,0,0,0,.378-1.863c.041-.273.091-.523.115-.754s.027-.442.039-.631l.057-.857c.015-.193.029-.292.029-.292s0,.1,0,.293-.017.491-.029.86q-.011.286-.026.635c-.02.233-.065.484-.1.759a12.884,12.884,0,0,1-.354,1.878,17.139,17.139,0,0,1-1.974,4.842,18.165,18.165,0,0,1-12.225,8.6,16.975,16.975,0,0,1-2.3.273c-.392.015-.787.053-1.186.048l-1.2-.059c-.2-.014-.406-.012-.608-.038l-.607-.092c-.4-.066-.817-.113-1.224-.2a19.215,19.215,0,0,1-2.428-.707,18.95,18.95,0,0,1-2.376-1.04c-.385-.208-.754-.45-1.135-.675a9.461,9.461,0,0,1-1.1-.755,16.673,16.673,0,0,1-3.854-3.862,17.61,17.61,0,0,1-2.606-5.016,18.02,18.02,0,0,1,0-11.492,17.617,17.617,0,0,1,2.607-5.015,16.646,16.646,0,0,1,3.853-3.861,9.324,9.324,0,0,1,1.1-.755c.381-.225.75-.467,1.135-.675a18.985,18.985,0,0,1,2.376-1.039,19.2,19.2,0,0,1,2.428-.707c.407-.083.82-.13,1.225-.2l.607-.092c.2-.026.406-.025.608-.038l1.2-.059c.4,0,.794.034,1.186.048a16.888,16.888,0,0,1,2.3.273,18.163,18.163,0,0,1,12.226,8.6,17.122,17.122,0,0,1,1.974,4.843,12.884,12.884,0,0,1,.354,1.878c.037.275.082.526.1.759s.018.444.026.635c.013.37.022.656.029.861s0,.293,0,.293" transform="translate(-26.749 -81.396)" fill="#529d2e"/><path d="M74.492,203.318a9.6,9.6,0,1,1,8.952,10.21,9.6,9.6,0,0,1-8.952-10.21" transform="translate(-33.91 -88.494)" fill="#f5f5f5"/><path d="M74.474,203.249a.811.811,0,0,1,.009.156c0,.114,0,.265,0,.456v.336c.006.124.024.258.037.4a6.993,6.993,0,0,0,.139,1,9.166,9.166,0,0,0,.9,2.6A9.513,9.513,0,0,0,86.7,212.991a8.709,8.709,0,0,0,2.481-1.133,8.659,8.659,0,0,0,2.134-1.881,9.193,9.193,0,0,0,1.524-2.52,9.411,9.411,0,0,0,.393-5.976,9.2,9.2,0,0,0-1.182-2.7,10.787,10.787,0,0,0-.856-1.159,10.658,10.658,0,0,0-1.014-.985,8.726,8.726,0,0,0-2.312-1.449A9.539,9.539,0,0,0,76.2,198.482a9.172,9.172,0,0,0-1.232,2.461,6.991,6.991,0,0,0-.268.973c-.032.143-.068.273-.089.395s-.031.233-.044.333c-.027.19-.048.339-.064.452a.827.827,0,0,1-.029.154.8.8,0,0,1,.007-.156c.01-.114.025-.265.042-.455q.015-.153.034-.337c.018-.123.051-.255.079-.4a6.781,6.781,0,0,1,.25-.986,9.1,9.1,0,0,1,1.212-2.506,9.671,9.671,0,0,1,6.8-4.152,9.709,9.709,0,0,1,5.058.741,8.933,8.933,0,0,1,2.368,1.474,8.876,8.876,0,0,1,1.917,2.189,9.4,9.4,0,0,1,1.213,2.761,9.612,9.612,0,0,1-.4,6.118,9.392,9.392,0,0,1-1.563,2.577,8.906,8.906,0,0,1-2.186,1.92,8.93,8.93,0,0,1-2.54,1.152,9.71,9.71,0,0,1-5.111.073,9.666,9.666,0,0,1-6.194-5,9.084,9.084,0,0,1-.874-2.643,6.81,6.81,0,0,1-.119-1.01c-.009-.147-.024-.282-.026-.406s.007-.236.01-.338c.008-.192.014-.343.019-.458a.776.776,0,0,1,.014-.155" transform="translate(-33.892 -88.425)" fill="#263238"/><path d="M96.364,207.786a1.851,1.851,0,0,1-.339.022l-.933.019c-.792.011-1.9.019-3.14.02H91.89v-.062c0-.2,0-.41,0-.623,0-1.391.007-2.65.018-3.561.008-.44.015-.8.02-1.079a2.388,2.388,0,0,1,.025-.4,2.362,2.362,0,0,1,.024.4c.005.276.012.64.02,1.079.011.911.019,2.17.019,3.561,0,.213,0,.423,0,.623l-.062-.062c1.245,0,2.349.009,3.14.02l.933.019a1.979,1.979,0,0,1,.339.022" transform="translate(-41.841 -92.038)" fill="#263238"/><path d="M92.005,197.242a5.271,5.271,0,0,1,0,1.613,5.271,5.271,0,0,1,0-1.613" transform="translate(-41.866 -89.813)" fill="#263238"/><path d="M99.148,199.619a5.094,5.094,0,0,1-1.124,1.124,2.591,2.591,0,0,1,.518-.606,2.624,2.624,0,0,1,.606-.518" transform="translate(-44.634 -90.895)" fill="#263238"/><path d="M103.649,204.748a9.384,9.384,0,0,1-1.358.826,3.539,3.539,0,0,1,1.358-.826" transform="translate(-46.577 -93.229)" fill="#263238"/><path d="M105.7,212.312a9.776,9.776,0,0,1-2.2,0,9.772,9.772,0,0,1,2.2,0" transform="translate(-47.128 -96.647)" fill="#263238"/><path d="M77.8,212.043a8.717,8.717,0,0,1-2.077,0,8.719,8.719,0,0,1,2.077,0" transform="translate(-34.48 -96.524)" fill="#263238"/><path d="M80.14,217.762a9.059,9.059,0,0,1-1.648,1.327,9.061,9.061,0,0,1,1.648-1.327" transform="translate(-35.741 -99.156)" fill="#263238"/><path d="M85.48,222.146a7.115,7.115,0,0,1-.534.926,6.959,6.959,0,0,1-.567.906,5.5,5.5,0,0,1,1.1-1.832" transform="translate(-38.42 -101.153)" fill="#263238"/><path d="M92.005,225.961a9.774,9.774,0,0,1,0-2.2,9.774,9.774,0,0,1,0,2.2" transform="translate(-41.866 -101.888)" fill="#263238"/><path d="M99.384,223.91a4.742,4.742,0,0,1-1.646-1.435,171.146,171.146,0,0,0,1.646,1.435" transform="translate(-44.504 -101.302)" fill="#263238"/><path d="M103.7,219.565a3.792,3.792,0,0,1-.728-.64,3.85,3.85,0,0,1-.641-.728,7.6,7.6,0,0,1,1.369,1.368" transform="translate(-46.596 -99.354)" fill="#263238"/><path d="M80.329,205.662a2.911,2.911,0,0,1-.643-.555,2.947,2.947,0,0,1-.555-.643,5.815,5.815,0,0,1,1.2,1.2" transform="translate(-36.031 -93.101)" fill="#263238"/><path d="M85.39,200.375a5.58,5.58,0,0,1-1.176-1.17,5.581,5.581,0,0,1,1.176,1.17" transform="translate(-38.346 -90.706)" fill="#263238"/><path d="M157.724,253.948a13.835,13.835,0,0,0-.308-1.975,7.825,7.825,0,0,0-.911-2.144,8.084,8.084,0,0,0-2.059-2.276,8.022,8.022,0,0,0-7.6-1.133,8.04,8.04,0,0,0-3.718,2.8,7.974,7.974,0,0,0,0,9.466,8.042,8.042,0,0,0,3.718,2.8,8.069,8.069,0,0,0,9.658-3.41,7.789,7.789,0,0,0,.911-2.144,13.823,13.823,0,0,0,.308-1.975.448.448,0,0,1,.008.132c0,.1,0,.232-.005.388a3.7,3.7,0,0,1-.05.631,5.774,5.774,0,0,1-.153.851,7.7,7.7,0,0,1-.882,2.2,8.224,8.224,0,0,1-5.538,3.918,8.271,8.271,0,0,1-4.345-.344,8.273,8.273,0,0,1-3.853-2.877,8.23,8.23,0,0,1,0-9.795,8.271,8.271,0,0,1,3.853-2.877,8.274,8.274,0,0,1,4.344-.344,8.224,8.224,0,0,1,5.539,3.917,7.689,7.689,0,0,1,.882,2.2,5.716,5.716,0,0,1,.154.851,3.7,3.7,0,0,1,.05.63c0,.157,0,.285.005.389a.448.448,0,0,1-.008.132" transform="translate(-64.335 -111.873)" fill="#529d2e"/><path d="M155.241,259.706a1.294,1.294,0,0,0-1.084.619c-.294-.226-.66-.49-1.066-.767q-.336-.228-.641-.422a1.32,1.32,0,0,0,.178-1.688c.246-.172.521-.373.812-.6.257-.2.493-.391.7-.568a1.436,1.436,0,1,0-.147-.3c-.237.167-.5.36-.779.576-.3.23-.568.452-.8.65a1.322,1.322,0,1,0-.886,2.3,1.3,1.3,0,0,0,.626-.165c.221.162.466.336.728.514.42.285.812.534,1.136.728a1.543,1.543,0,0,0-.1.56,1.328,1.328,0,1,0,1.321-1.442" transform="translate(-68.396 -115.755)" fill="#f5f5f5"/><path d="M155.2,259.661a.973.973,0,0,1,.5.09,1.428,1.428,0,0,1,.837,1.111,1.563,1.563,0,0,1-.176,1.01,1.353,1.353,0,0,1-.977.694,1.317,1.317,0,0,1-1.243-.538,1.591,1.591,0,0,1-.2-1.5l.02.057c-.592-.376-1.233-.775-1.871-1.24l.055,0a1.359,1.359,0,0,1-1.352-.02,1.376,1.376,0,1,1,1.626-2.2h-.075l.779-.635.8-.595-.021.066a1.364,1.364,0,0,1,.07-1.109,1.38,1.38,0,1,1,.09,1.411l.069.009c-.526.438-1.038.819-1.52,1.165l.01-.058a1.362,1.362,0,0,1-.188,1.737l-.005-.054c.716.459,1.265.886,1.7,1.2l-.032.005a1.338,1.338,0,0,1,.767-.572.922.922,0,0,1,.335-.035,1.83,1.83,0,0,0-.328.058,1.331,1.331,0,0,0-.736.574l-.013.02-.02-.014c-.442-.306-.993-.724-1.711-1.176l-.038-.024.033-.03a1.289,1.289,0,0,0,.167-1.641l-.022-.033.033-.024c.479-.348.985-.73,1.508-1.168l.041-.034.028.044a1.272,1.272,0,1,0,.707-1.937,1.266,1.266,0,0,0-.776.632,1.251,1.251,0,0,0-.064,1.018l.015.039-.036.026-.8.591-.774.631-.04.032-.035-.033a1.266,1.266,0,1,0-.247,2.047l.028-.016.027.02c.634.465,1.27.864,1.858,1.242l.034.021-.014.036a1.506,1.506,0,0,0,.18,1.417,1.237,1.237,0,0,0,1.163.513,1.283,1.283,0,0,0,.931-.651,1.5,1.5,0,0,0,.18-.969,1.406,1.406,0,0,0-.795-1.093,1.47,1.47,0,0,0-.485-.115" transform="translate(-68.351 -115.709)" fill="#263238"/><path d="M349.989,194.027s-.015-.1-.03-.3-.034-.508-.059-.891q-.018-.3-.04-.656c-.026-.24-.077-.5-.12-.784a13.636,13.636,0,0,0-.392-1.936,17.915,17.915,0,0,0-2.081-4.976A18.752,18.752,0,0,0,334.66,175.7a17.315,17.315,0,0,0-2.359-.272c-.4-.014-.807-.053-1.216-.047l-1.234.064c-.206.015-.416.013-.623.041l-.622.1c-.415.069-.837.117-1.254.2a19.771,19.771,0,0,0-2.486.73,19.47,19.47,0,0,0-2.431,1.069c-.393.214-.771.462-1.161.693a9.53,9.53,0,0,0-1.124.775,17.016,17.016,0,0,0-3.94,3.957,18.031,18.031,0,0,0-2.663,5.133,18.46,18.46,0,0,0,0,11.759,18.057,18.057,0,0,0,2.664,5.134,17.048,17.048,0,0,0,3.94,3.959,9.489,9.489,0,0,0,1.125.775c.39.231.767.48,1.161.694a19.47,19.47,0,0,0,2.431,1.069,19.687,19.687,0,0,0,2.486.73c.417.087.839.135,1.254.2l.622.1c.207.027.416.026.623.04l1.234.064c.409.006.814-.033,1.216-.047a17.4,17.4,0,0,0,2.359-.272,18.755,18.755,0,0,0,12.608-8.779,17.9,17.9,0,0,0,2.081-4.975,13.711,13.711,0,0,0,.392-1.936c.043-.283.094-.544.119-.784s.028-.459.04-.656c.025-.383.045-.679.059-.891s.03-.3.03-.3,0,.1,0,.3-.017.509-.031.894q-.011.3-.026.659c-.021.241-.069.5-.107.788a13.462,13.462,0,0,1-.368,1.951,17.789,17.789,0,0,1-2.052,5.03,18.875,18.875,0,0,1-12.7,8.93,17.558,17.558,0,0,1-2.388.283c-.407.015-.818.056-1.231.05l-1.251-.061c-.209-.014-.422-.013-.631-.04l-.63-.1c-.421-.069-.849-.117-1.272-.2a20.593,20.593,0,0,1-4.99-1.814c-.4-.216-.783-.467-1.179-.7a9.7,9.7,0,0,1-1.143-.784,17.314,17.314,0,0,1-4-4.011,18.3,18.3,0,0,1-2.708-5.211,18.726,18.726,0,0,1,0-11.937,18.3,18.3,0,0,1,2.707-5.209,17.31,17.31,0,0,1,4-4.01,9.721,9.721,0,0,1,1.142-.784c.4-.234.779-.485,1.178-.7a19.7,19.7,0,0,1,2.468-1.08,19.947,19.947,0,0,1,2.522-.734c.423-.087.851-.136,1.272-.2l.63-.1c.21-.027.422-.026.631-.039l1.251-.062c.414-.005.824.035,1.231.05a17.557,17.557,0,0,1,2.388.283,18.872,18.872,0,0,1,12.7,8.929,17.791,17.791,0,0,1,2.052,5.03,13.4,13.4,0,0,1,.369,1.951c.038.285.086.547.107.789s.018.461.026.659c.014.385.024.682.031.894s0,.3,0,.3" transform="translate(-142.205 -79.748)" fill="#529d2e"/><path d="M350.175,211.241a2.385,2.385,0,0,1-.414.027l-1.188.026-4.371.044-14.421.04h-1.164v-.136c.016-5.387.031-10.217.042-13.735.017-1.725.032-3.126.042-4.126.01-.466.019-.838.025-1.119a2.154,2.154,0,0,1,.027-.389,2.142,2.142,0,0,1,.027.389c.006.281.014.652.025,1.119.01,1,.025,2.4.042,4.126.011,3.517.026,8.348.042,13.735l-.136-.136h1.028l14.421.04,4.371.044,1.188.026a2.387,2.387,0,0,1,.414.027" transform="translate(-149.634 -87.368)" fill="#263238"/><path d="M349.576,200.5a5.538,5.538,0,0,1-.639.611l-1.808,1.588c-1.535,1.332-3.667,3.157-6.034,5.16l-.358.3-.092.078-.088-.082-2.683-2.494.167,0-3.941,3.251-1.143.915a2.528,2.528,0,0,1-.428.306,2.5,2.5,0,0,1,.374-.369l1.1-.97,3.877-3.326.084-.072.083.076,2.7,2.48-.18,0,.358-.3c2.367-2,4.518-3.8,6.085-5.1l1.865-1.522a5.5,5.5,0,0,1,.707-.529" transform="translate(-151.415 -91.297)" fill="#263238"/><path d="M359.6,204.788a6.727,6.727,0,0,1-.094-1.337c-.024-.828-.04-1.977-.041-3.257l.136.136h-.231c-1.333,0-2.539-.015-3.412-.04a7.284,7.284,0,0,1-1.413-.1,7.317,7.317,0,0,1,1.413-.1c.873-.025,2.079-.04,3.412-.04h.368v.136c0,1.28-.017,2.429-.042,3.257a6.731,6.731,0,0,1-.094,1.337" transform="translate(-161.44 -91.096)" fill="#263238"/><path d="M413.03,119.448a1.394,1.394,0,0,1-.026-.229c-.011-.164-.028-.387-.048-.671-.009-.149-.02-.313-.032-.493s-.059-.377-.092-.59a10.315,10.315,0,0,0-.3-1.456,13.5,13.5,0,0,0-1.571-3.742,14.025,14.025,0,0,0-16.848-5.979,12.889,12.889,0,0,0-3.544,1.908,12.779,12.779,0,0,0-2.96,2.975,13.57,13.57,0,0,0-2,3.858,13.88,13.88,0,0,0,0,8.836,13.568,13.568,0,0,0,2,3.859,12.812,12.812,0,0,0,2.961,2.975,12.863,12.863,0,0,0,3.545,1.908,14.061,14.061,0,0,0,16.848-5.979,13.511,13.511,0,0,0,1.571-3.742,10.315,10.315,0,0,0,.3-1.456c.033-.213.072-.408.092-.589s.022-.345.032-.494c.02-.284.036-.506.048-.67a1.394,1.394,0,0,1,.026-.229,1.322,1.322,0,0,1,0,.229c0,.165-.011.388-.02.674q-.008.225-.019.5c-.015.182-.05.38-.078.595a10.007,10.007,0,0,1-.275,1.472,13.388,13.388,0,0,1-1.541,3.8,14.232,14.232,0,0,1-9.58,6.746,14.282,14.282,0,0,1-7.494-.6,13.114,13.114,0,0,1-3.617-1.936,13.039,13.039,0,0,1-3.023-3.029,13.809,13.809,0,0,1-2.045-3.935,14.133,14.133,0,0,1,0-9.015,13.81,13.81,0,0,1,2.045-3.934,13.075,13.075,0,0,1,3.023-3.028,13.1,13.1,0,0,1,3.616-1.936,14.279,14.279,0,0,1,7.494-.6,14.235,14.235,0,0,1,9.58,6.744,13.4,13.4,0,0,1,1.542,3.8,10.093,10.093,0,0,1,.275,1.472c.028.215.063.413.078.595s.013.347.019.5c.008.285.015.509.02.674a1.322,1.322,0,0,1,0,.229" transform="translate(-175.127 -47.902)" fill="#529d2e"/><path d="M405.125,117.253l1.892,3.832a.492.492,0,0,0,.37.269l4.229.614a.492.492,0,0,1,.272.839l-3.06,2.983a.492.492,0,0,0-.142.435l.722,4.212a.491.491,0,0,1-.713.519l-3.783-1.989a.489.489,0,0,0-.458,0l-3.783,1.989a.492.492,0,0,1-.714-.519l.722-4.212a.493.493,0,0,0-.141-.435l-3.06-2.983a.492.492,0,0,1,.272-.839l4.229-.614a.493.493,0,0,0,.37-.269l1.891-3.832a.492.492,0,0,1,.882,0" transform="translate(-180.923 -53.266)" fill="#fafafa"/><path d="M405.055,117.235c-.006,0-.022-.04-.081-.1a.478.478,0,0,0-.792.154l-.368.767-1.016,2.1-.308.634-.164.336a.556.556,0,0,1-.328.262c-.526.09-1.053.161-1.622.249l-1.777.265-.937.142a.408.408,0,0,0-.223.65l3.073,2.987a.61.61,0,0,1,.186.6l-.1.57-.2,1.158q-.2,1.171-.407,2.389a.392.392,0,0,0,.172.434.374.374,0,0,0,.235.059.622.622,0,0,0,.252-.1l1.12-.589,2.288-1.2.293-.153a.585.585,0,0,1,.384-.046,1.406,1.406,0,0,1,.321.144l.287.151,1.137.6,2.217,1.164a.386.386,0,0,0,.446-.1.371.371,0,0,0,.1-.217,1.144,1.144,0,0,0-.032-.274q-.1-.6-.2-1.184-.2-1.171-.389-2.291-.047-.28-.094-.556a.607.607,0,0,1,.212-.579l.783-.76,1.5-1.452.712-.69a.415.415,0,0,0-.053-.681,1.475,1.475,0,0,0-.423-.091l-.449-.066-.869-.13-1.614-.242-.743-.112c-.124-.022-.229-.027-.363-.063a.55.55,0,0,1-.3-.236l-1.021-2.1-.635-1.33-.16-.348a.593.593,0,0,1-.048-.122.6.6,0,0,1,.068.112l.179.339.669,1.313,1.047,2.077a.435.435,0,0,0,.236.184c.094.026.229.035.344.054l.743.1,1.617.228.87.123.45.064a1.531,1.531,0,0,1,.477.106.568.568,0,0,1,.29.442.583.583,0,0,1-.2.5l-.708.694-1.49,1.46-.779.763a.413.413,0,0,0-.156.413q.047.276.1.556.193,1.118.4,2.29l.2,1.183a1.271,1.271,0,0,1,.034.328.575.575,0,0,1-.147.331.589.589,0,0,1-.675.15l-2.232-1.168-1.137-.6-.287-.151A1.326,1.326,0,0,0,404.7,129a.383.383,0,0,0-.251.03l-.286.15-2.289,1.2-1.12.588a.822.822,0,0,1-.331.119.581.581,0,0,1-.359-.09.6.6,0,0,1-.263-.641q.21-1.216.412-2.388l.2-1.158.1-.57a.413.413,0,0,0-.13-.434L397.3,122.8a.574.574,0,0,1-.093-.553.565.565,0,0,1,.411-.366l.952-.138,1.779-.252,1.607-.23a.429.429,0,0,0,.254-.2l.164-.327.316-.631,1.048-2.083.385-.759a.518.518,0,0,1,.522-.318.485.485,0,0,1,.342.178.3.3,0,0,1,.065.115" transform="translate(-180.853 -53.248)" fill="#263238"/><path d="M349.99,42.841a.751.751,0,0,1-.023-.168c-.01-.126-.023-.288-.039-.491a5.118,5.118,0,0,0-.094-.794,7.539,7.539,0,0,0-.222-1.066,9.916,9.916,0,0,0-1.156-2.736,10.262,10.262,0,0,0-12.323-4.361,9.616,9.616,0,0,0-2.589,1.4,9.352,9.352,0,0,0-2.162,2.174,10.185,10.185,0,0,0,0,12.092,9.385,9.385,0,0,0,2.162,2.175,9.627,9.627,0,0,0,2.589,1.4,10.292,10.292,0,0,0,12.323-4.362,9.9,9.9,0,0,0,1.155-2.736,7.621,7.621,0,0,0,.222-1.066,5.16,5.16,0,0,0,.094-.793c.016-.2.029-.365.039-.491a.751.751,0,0,1,.023-.168.72.72,0,0,1,.006.168c0,.127-.007.29-.011.494a4.805,4.805,0,0,1-.068.8,7.272,7.272,0,0,1-.2,1.081,9.819,9.819,0,0,1-1.126,2.79,10.455,10.455,0,0,1-7.036,4.966,10.5,10.5,0,0,1-5.512-.44,9.853,9.853,0,0,1-2.661-1.423,9.626,9.626,0,0,1-2.225-2.228,10.441,10.441,0,0,1,0-12.422,9.61,9.61,0,0,1,2.225-2.227,9.85,9.85,0,0,1,2.661-1.423,10.5,10.5,0,0,1,5.512-.44,10.454,10.454,0,0,1,7.036,4.965,9.815,9.815,0,0,1,1.127,2.791,7.35,7.35,0,0,1,.2,1.081,4.8,4.8,0,0,1,.068.8c0,.2.008.368.011.495a.72.72,0,0,1-.006.168" transform="translate(-149.859 -14.736)" fill="#529d2e"/><path d="M348.955,45.354a4.729,4.729,0,1,0-8.805,2.389h0l.014.018c.181.306.409.524.638.845l2.746,3.637a.854.854,0,0,0,1.363,0l2.7-3.577a10.258,10.258,0,0,0,.687-.91l.01-.013h0a4.7,4.7,0,0,0,.653-2.389m-4.729,2.059a2.081,2.081,0,1,1,2.081-2.081,2.081,2.081,0,0,1-2.081,2.081" transform="translate(-154.588 -18.498)" fill="#f5f5f5"/><path d="M346.4,49.561a4.915,4.915,0,0,0,.5-.087,2.075,2.075,0,0,0,1.12-.76,2.031,2.031,0,1,0-3.245,0,2.075,2.075,0,0,0,1.12.76,4.916,4.916,0,0,0,.5.087,1.6,1.6,0,0,1-.514-.044,2.076,2.076,0,0,1-1.173-.754,2.119,2.119,0,0,1-.318-2.01,2.128,2.128,0,0,1,4.008,0,2.117,2.117,0,0,1-.318,2.01,2.075,2.075,0,0,1-1.173.754,1.6,1.6,0,0,1-.514.044" transform="translate(-156.762 -20.646)" fill="#263238"/><path d="M348.908,45.316a3.4,3.4,0,0,1-.03.656,4.668,4.668,0,0,1-.6,1.748l-.026-.045h.062l-.036.048-.01.013,0,0c-.832,1.109-1.938,2.586-3.239,4.321a1.076,1.076,0,0,1-.669.52.911.911,0,0,1-.84-.257c-.371-.469-.724-.951-1.1-1.447l-2.357-3.119,0,.005-.013-.018-.069-.091h.116l-.048.086a5,5,0,0,1-.417-.917,4.768,4.768,0,0,1,4.755-6.271,4.839,4.839,0,0,1,2.306.727,4.725,4.725,0,0,1,2.053,2.769,3.407,3.407,0,0,1,.111.54,2.258,2.258,0,0,1,.04.4c.008.218.007.332.007.332a6.614,6.614,0,0,0-.2-1.263,4.712,4.712,0,0,0-2.052-2.713,4.771,4.771,0,0,0-2.267-.7,4.677,4.677,0,0,0-4.643,6.142,4.875,4.875,0,0,0,.407.9l.05.085h-.1l.045-.09.013.017,0,.005,2.346,3.112q.561.74,1.092,1.441a.808.808,0,0,0,.745.23.973.973,0,0,0,.612-.48l3.264-4.294,0,0,.01-.013.024.048H348.2l.027-.046a4.773,4.773,0,0,0,.617-1.722c.032-.211.042-.375.05-.484s.011-.168.011-.168" transform="translate(-154.541 -18.461)" fill="#263238"/><path d="M244.227,24.625s-.015-.1-.029-.3-.033-.5-.058-.869q-.017-.288-.039-.64c-.025-.234-.076-.488-.117-.764a13.26,13.26,0,0,0-.383-1.888,17.459,17.459,0,0,0-2.03-4.852,18.287,18.287,0,0,0-12.3-8.56,17,17,0,0,0-2.3-.265c-.392-.013-.788-.052-1.186-.045l-1.2.063c-.2.014-.406.013-.608.04l-.606.093c-.4.068-.816.115-1.223.2a19.272,19.272,0,0,0-2.424.712,18.935,18.935,0,0,0-2.37,1.042c-.384.209-.752.451-1.132.676a9.187,9.187,0,0,0-1.1.756,20.453,20.453,0,0,0-2.062,1.752,20.671,20.671,0,0,0-1.78,2.106,17.614,17.614,0,0,0-2.6,5.006,19.42,19.42,0,0,0-.937,5.732,19.433,19.433,0,0,0,.936,5.734,17.6,17.6,0,0,0,2.6,5.008,20.619,20.619,0,0,0,1.78,2.107,20.509,20.509,0,0,0,2.062,1.753,9.243,9.243,0,0,0,1.1.757c.38.225.748.468,1.132.676a19.025,19.025,0,0,0,2.371,1.042,19.341,19.341,0,0,0,2.424.712c.407.084.819.132,1.223.2l.606.094c.2.027.406.025.608.039l1.2.063c.4.006.793-.032,1.185-.045a16.909,16.909,0,0,0,2.3-.266,18.289,18.289,0,0,0,12.3-8.56,17.465,17.465,0,0,0,2.03-4.852,13.3,13.3,0,0,0,.382-1.888c.041-.276.092-.53.117-.764s.027-.448.039-.639q.038-.56.058-.869c.015-.2.029-.3.029-.3s0,.1,0,.3-.017.5-.03.871q-.011.29-.026.643c-.021.235-.066.491-.1.769a13,13,0,0,1-.359,1.9,17.348,17.348,0,0,1-2,4.906,18.409,18.409,0,0,1-12.388,8.711A17.065,17.065,0,0,1,226.99,43c-.4.015-.8.054-1.2.05l-1.219-.06c-.2-.014-.412-.012-.616-.039l-.615-.093c-.41-.066-.828-.114-1.241-.2a19.483,19.483,0,0,1-2.461-.716,19.172,19.172,0,0,1-2.407-1.053c-.389-.211-.764-.456-1.15-.684a9.516,9.516,0,0,1-1.114-.766,20.718,20.718,0,0,1-2.094-1.776,20.8,20.8,0,0,1-1.81-2.137,17.845,17.845,0,0,1-2.641-5.083,19.673,19.673,0,0,1-.953-5.823,19.657,19.657,0,0,1,.954-5.821,17.849,17.849,0,0,1,2.641-5.081,20.909,20.909,0,0,1,1.81-2.136,20.715,20.715,0,0,1,2.095-1.776,9.439,9.439,0,0,1,1.114-.765c.386-.228.76-.473,1.15-.684a19.245,19.245,0,0,1,2.407-1.053,19.476,19.476,0,0,1,2.46-.716c.413-.084.831-.132,1.241-.2l.615-.093c.2-.026.411-.025.615-.039l1.22-.06c.4,0,.8.034,1.2.05a17.066,17.066,0,0,1,2.329.276,18.409,18.409,0,0,1,12.389,8.71,17.36,17.36,0,0,1,2,4.906,13.068,13.068,0,0,1,.359,1.9c.038.278.083.533.1.769s.018.45.026.643c.013.375.023.664.03.872s0,.3,0,.3" transform="translate(-94.469 -2.822)" fill="#529d2e"/><path d="M237.2,33.12a.709.709,0,0,1,.232-.05,2.824,2.824,0,0,1,.681-.015,3.669,3.669,0,0,1,2.259,1.038,3.79,3.79,0,0,1-.019,5.43,3.8,3.8,0,0,1-4.487.609A3.79,3.79,0,0,1,234.4,34.9a3.669,3.669,0,0,1,1.9-1.6,2.835,2.835,0,0,1,.661-.167.7.7,0,0,1,.237-.014c.006.032-.322.064-.855.289a3.677,3.677,0,0,0-1.761,1.6,3.586,3.586,0,0,0-.029,3.41,3.516,3.516,0,0,0,1.45,1.46,3.533,3.533,0,0,0,4.145-.563,3.517,3.517,0,0,0,1.009-1.794,3.587,3.587,0,0,0-.936-3.279,3.679,3.679,0,0,0-2.123-1.072c-.573-.075-.9-.019-.9-.051" transform="translate(-106.499 -15.046)" fill="#263238"/><path d="M232.879,22.838a.544.544,0,0,1-.055-.115c-.038-.094-.087-.214-.148-.363l-.568-1.449.051.031-3.4.49.065-.068c-.052.627-.109,1.324-.17,2.068l0,.052-.049.021a8.419,8.419,0,0,0-1.908,1.125l-.046.036-.054-.025-1.893-.854.128-.032-2.071,2.74,0-.146,1.338,1.588.048.057-.028.069a8.329,8.329,0,0,0-.558,2.135l-.009.077-.074.028-1.942.73.085-.142c.147,1.069.3,2.222.468,3.4l-.125-.119,2.068.18.085.007.033.079a8.352,8.352,0,0,0,1.111,1.9l.053.069-.036.08-.86,1.89-.044-.176L227.1,40.28l-.185,0L228.5,38.95l.069-.058.083.034a8.268,8.268,0,0,0,2.125.562h0l.121.1v.006l0,.008.006.015.011.031.023.061.046.123.092.245.182.487.362.969-.159-.1,3.4-.461-.127.133q.093-1.044.184-2.068l.008-.088.082-.034a8.27,8.27,0,0,0,1.9-1.107l.069-.053.079.036,1.888.863-.172.043,2.084-2.73,0,.171-1.331-1.594-.052-.063.031-.074a8.3,8.3,0,0,0,.568-2.13l.01-.078.073-.027,1.946-.722-.079.132c-.159-1.2-.309-2.328-.452-3.405l.1.1-2.067-.189-.065-.006-.025-.06a8.369,8.369,0,0,0-1.107-1.916l-.036-.047.025-.053.87-1.885.027.107-2.721-2.1.083,0-1.6,1.319-.023.019-.026-.011a8.875,8.875,0,0,0-1.6-.5l-.408-.081a.552.552,0,0,1-.135-.03.83.83,0,0,1,.139.006c.091.01.23.026.414.057a8.035,8.035,0,0,1,1.631.465l-.049.007,1.579-1.348.04-.034.043.033,2.747,2.064.056.042-.029.064-.852,1.893-.012-.1a8.494,8.494,0,0,1,1.15,1.954l-.089-.065,2.069.175.09.008.013.091c.149,1.076.306,2.206.471,3.4l.014.1-.093.035-1.942.731.083-.1a8.515,8.515,0,0,1-.577,2.2l-.021-.137,1.336,1.589.071.084-.066.087-2.076,2.736-.069.09-.1-.047-1.89-.859.148-.017a8.546,8.546,0,0,1-1.967,1.149l.089-.122q-.09,1.024-.181,2.068l-.01.118-.117.016-3.4.464-.118.016-.041-.111-.362-.969-.182-.487-.091-.245-.046-.122-.023-.062-.011-.031-.005-.015,0-.008v-.006l.12.1h0a8.6,8.6,0,0,1-2.2-.582l.152-.024L227.1,40.511l-.091.076-.094-.072-2.732-2.082-.093-.07.048-.106.863-1.888.017.148a8.6,8.6,0,0,1-1.145-1.968l.118.087-2.067-.185-.11-.01-.015-.109c-.159-1.182-.313-2.335-.456-3.405l-.014-.105.1-.037,1.945-.722-.082.1a8.539,8.539,0,0,1,.586-2.2l.019.126-1.329-1.6-.06-.072.057-.074,2.089-2.727.052-.068.076.035,1.886.869-.1.012a8.511,8.511,0,0,1,1.961-1.132l-.053.073c.07-.744.135-1.44.194-2.066l.005-.061.059-.008,3.407-.434.039,0,.013.035.515,1.448c.053.156.1.28.129.378a.791.791,0,0,1,.039.135" transform="translate(-100.783 -9.49)" fill="#263238"/></g><g clip-path="url(#a)"><path d="M185.88,285.761l-.761.257c-3.4,1.148-13.513,4.491-16.572,5.742,0,0,5.413,47.881,6.049,52.332s.795,22.251.795,22.251h57.591s-.154-47.985.013-55.428c.216-9.63,1.408-19.154,1.408-19.154l-10.06-3.932-11.761-6.2Z" transform="translate(-76.747 -128.238)" fill="#529d2e"/><g transform="translate(106.287 167.883)" opacity="0.3"><g clip-path="url(#t)"><path d="M210.8,308.238q-7.051,26.19-14.859,52.169c-.614,2.041-1.223,4.283-.394,6.246a5.606,5.606,0,0,0,4.444,3.161,8.97,8.97,0,0,0,5.472-1.233c3.892-2.173,6.42-6.265,7.663-10.547s1.353-8.8,1.455-13.254q.408-17.83.815-35.659Z" transform="translate(-195.146 -308.238)"/></g></g><path d="M162,300.23s-8.447,3.743-7.788,18.755a184.906,184.906,0,0,0,2,19.555l23.752-6.84-6.04-26.066Z" transform="translate(-70.205 -136.708)" fill="#529d2e"/><path d="M270.909,324.388l-1.272,17.324,23.878-7.733s-5.12-30.58-13.229-33.75l-8.742,14.94Z" transform="translate(-122.778 -136.708)" fill="#529d2e"/><path d="M276.944,335.4a1.65,1.65,0,0,1,.045.353c.019.261.042.6.072,1.014.051.916.12,2.181.205,3.73.155,3.15.325,7.5.478,12.314s.294,9.134.4,12.317c.047,1.55.087,2.816.115,3.732.008.417.014.754.019,1.016a1.65,1.65,0,0,1-.013.355,1.674,1.674,0,0,1-.044-.352c-.018-.261-.042-.6-.072-1.013-.05-.916-.12-2.181-.2-3.73-.156-3.15-.325-7.5-.479-12.316-.154-4.794-.293-9.132-.4-12.315-.048-1.55-.087-2.816-.115-3.733-.008-.417-.014-.754-.019-1.016a1.7,1.7,0,0,1,.013-.355" transform="translate(-126.099 -152.722)" fill="#263238"/><path d="M181.279,312.91a2.709,2.709,0,0,1-.312-.551l-.77-1.537a25.449,25.449,0,0,0-2.975-4.782,11.618,11.618,0,0,0-4.42-3.37,14,14,0,0,0-2.243-.632,2.247,2.247,0,0,1,.635.026,7.359,7.359,0,0,1,1.682.419,11.125,11.125,0,0,1,4.565,3.375,22.383,22.383,0,0,1,2.937,4.876c.3.661.536,1.2.69,1.578a2.688,2.688,0,0,1,.212.6" transform="translate(-77.663 -137.527)" fill="#263238"/><path d="M280.184,298.9a22.155,22.155,0,0,0-2.212,8.231,4.364,4.364,0,0,1-.047-1.269,14.55,14.55,0,0,1,1.582-5.888,4.37,4.37,0,0,1,.676-1.075" transform="translate(-126.546 -136.1)" fill="#263238"/><path d="M171.782,312.221c0,.014-.086-.006-.235.025a.915.915,0,0,0-.522.381,2.213,2.213,0,0,0-.364.989,4.211,4.211,0,0,1-.173.674,1.318,1.318,0,0,1-.484.65,1.6,1.6,0,0,1-1.766-.19,6.262,6.262,0,0,1-1.263-1.605,2.905,2.905,0,0,0-.706-.759,1.581,1.581,0,0,0-.968-.331,1.038,1.038,0,0,0-.831.538,2.727,2.727,0,0,0-.252,1.114c-.028.4-.033.809-.081,1.216a2.542,2.542,0,0,1-.385,1.171,1.652,1.652,0,0,1-.457.43,1.482,1.482,0,0,1-.586.186,2.148,2.148,0,0,1-1.128-.214,4.628,4.628,0,0,1-1.505-1.395,5.4,5.4,0,0,0-1.2-1.222,1.8,1.8,0,0,0-1.3-.341,1.376,1.376,0,0,0-.842.565.973.973,0,0,0-.18.623c.009.154.051.23.035.235a.47.47,0,0,1-.091-.228.985.985,0,0,1,.143-.69,1.471,1.471,0,0,1,.9-.661,1.941,1.941,0,0,1,1.442.328,5.452,5.452,0,0,1,1.274,1.242,4.478,4.478,0,0,0,1.434,1.306,1.89,1.89,0,0,0,.987.182,1.151,1.151,0,0,0,.845-.507,4.722,4.722,0,0,0,.411-2.247,2.962,2.962,0,0,1,.287-1.23,1.317,1.317,0,0,1,1.063-.68A2.349,2.349,0,0,1,167.191,313a6.267,6.267,0,0,0,1.187,1.564,1.4,1.4,0,0,0,1.517.212,1.808,1.808,0,0,0,.611-1.19,2.254,2.254,0,0,1,.432-1.023.93.93,0,0,1,.6-.369.44.44,0,0,1,.244.031" transform="translate(-71.253 -141.966)" fill="#fafafa"/><path d="M175.416,327.344a.984.984,0,0,1,.011.312,1.959,1.959,0,0,1-.3.848,2.481,2.481,0,0,1-1.071.936,2.1,2.1,0,0,1-1.87-.027,11.671,11.671,0,0,0-1.91-1.123,1.961,1.961,0,0,0-2.038,1.019c-.495.73-.695,1.688-1.2,2.579a3.024,3.024,0,0,1-1.085,1.13,1.743,1.743,0,0,1-1.619.129,2.835,2.835,0,0,1-1.133-1.153c-.27-.445-.494-.9-.766-1.294a1.9,1.9,0,0,0-1.035-.838,1.444,1.444,0,0,0-1.219.239,4.591,4.591,0,0,0-1.467,2,16.492,16.492,0,0,1-1.026,2.02,3.467,3.467,0,0,1-2.681,1.763,1.879,1.879,0,0,1-.884-.155,1.116,1.116,0,0,1-.205-.111c-.044-.028-.065-.045-.063-.049a2.38,2.38,0,0,0,1.145.2,3.389,3.389,0,0,0,2.519-1.76,16.983,16.983,0,0,0,.981-2.01,4.785,4.785,0,0,1,1.536-2.123,1.712,1.712,0,0,1,1.435-.283,2.169,2.169,0,0,1,1.193.941c.29.42.516.875.779,1.3a2.579,2.579,0,0,0,1.009,1.042,1.457,1.457,0,0,0,1.361-.114,2.763,2.763,0,0,0,.985-1.024c.479-.835.684-1.8,1.221-2.588a2.945,2.945,0,0,1,1.01-.937,1.741,1.741,0,0,1,1.3-.162,3.317,3.317,0,0,1,1.061.575,7.361,7.361,0,0,0,.881.6,1.939,1.939,0,0,0,1.713.06,2.418,2.418,0,0,0,1.043-.851,2.367,2.367,0,0,0,.377-1.1" transform="translate(-70.06 -149.054)" fill="#fafafa"/><path d="M173.909,348.624c0,.013-.07-.019-.2-.029a.767.767,0,0,0-.525.167,1.6,1.6,0,0,0-.5.744,2.672,2.672,0,0,0-.052,1.22,3.1,3.1,0,0,1-.118,1.578,1.672,1.672,0,0,1-1.582.906,2.509,2.509,0,0,1-1.871-.87,7.6,7.6,0,0,1-1.189-1.9l.1.075a1.6,1.6,0,0,0-1.481.734,3.8,3.8,0,0,0-.624,1.8,12.905,12.905,0,0,1-.265,1.473,3.173,3.173,0,0,1-.709,1.313,1.773,1.773,0,0,1-1.325.608,2.075,2.075,0,0,1-1.282-.547,12.311,12.311,0,0,1-1.516-1.961,2.3,2.3,0,0,0-1.724-.985,2.164,2.164,0,0,0-1.569.525,2.285,2.285,0,0,0-.666,1.09,2.887,2.887,0,0,0-.048,1.113s-.015-.022-.031-.069a1.3,1.3,0,0,1-.054-.216,2.171,2.171,0,0,1,.026-.855,2.355,2.355,0,0,1,.666-1.181,2.381,2.381,0,0,1,2.716-.327,2.974,2.974,0,0,1,.867.757,12.735,12.735,0,0,0,1.5,1.908,1.815,1.815,0,0,0,1.118.476,1.5,1.5,0,0,0,1.117-.527,2.911,2.911,0,0,0,.641-1.2,13.143,13.143,0,0,0,.257-1.441,4.042,4.042,0,0,1,.68-1.923,1.867,1.867,0,0,1,1.752-.834l.069.013.03.062a7.456,7.456,0,0,0,1.131,1.849,2.269,2.269,0,0,0,1.684.81,1.456,1.456,0,0,0,1.394-.759,2.973,2.973,0,0,0,.132-1.477,2.763,2.763,0,0,1,.1-1.28,1.651,1.651,0,0,1,.575-.773.787.787,0,0,1,.586-.138.45.45,0,0,1,.193.076" transform="translate(-71.328 -158.704)" fill="#fafafa"/><path d="M295.448,344.462c0,.017-.1.014-.275.078a1.289,1.289,0,0,0-.613.494,3.358,3.358,0,0,0-.485,1.178,6.881,6.881,0,0,1-.462,1.686,1.749,1.749,0,0,1-.692.795,1.26,1.26,0,0,1-1.154.034,2.3,2.3,0,0,1-.879-.846,7.708,7.708,0,0,1-.575-1.119,3.517,3.517,0,0,0-.7-1.029,1.214,1.214,0,0,0-1.088-.422,1.05,1.05,0,0,0-.741.913,7.871,7.871,0,0,0-.072,1.42,3.947,3.947,0,0,1-.995,2.72,2.387,2.387,0,0,1-2.586.619,7.808,7.808,0,0,1-1.886-1.545,1.949,1.949,0,0,0-1.8-.626,2.284,2.284,0,0,0-1.3.979,4.255,4.255,0,0,0-.509,1.176c-.185.688-.249,1.084-.275,1.078a1.117,1.117,0,0,1,.022-.289c.025-.188.064-.465.146-.818a4.156,4.156,0,0,1,.482-1.233,2.43,2.43,0,0,1,1.382-1.089,1.753,1.753,0,0,1,1.053.045,2.942,2.942,0,0,1,.955.6,7.884,7.884,0,0,0,1.832,1.48,2.126,2.126,0,0,0,2.288-.574,3.692,3.692,0,0,0,.908-2.53,7.991,7.991,0,0,1,.079-1.471,1.743,1.743,0,0,1,.3-.706,1.179,1.179,0,0,1,.654-.421,1.478,1.478,0,0,1,1.343.5,3.752,3.752,0,0,1,.753,1.115,7.488,7.488,0,0,0,.546,1.09,2.076,2.076,0,0,0,.771.77,1.038,1.038,0,0,0,.947-.014,1.555,1.555,0,0,0,.617-.693,6.994,6.994,0,0,0,.487-1.635,3.346,3.346,0,0,1,.551-1.206,1.284,1.284,0,0,1,.685-.483.64.64,0,0,1,.291-.023" transform="translate(-126.747 -156.846)" fill="#fafafa"/><path d="M291.8,320.97c.008.005-.026.075-.1.2s-.186.309-.345.538a5.452,5.452,0,0,1-.651.782,2.859,2.859,0,0,1-1.16.714,2.024,2.024,0,0,1-1.651-.146c-.546-.334-.807-.973-1.3-1.314a.839.839,0,0,0-.824-.085,1.439,1.439,0,0,0-.634.686,2.589,2.589,0,0,0-.26.985c-.017.356,0,.731-.017,1.114a3.21,3.21,0,0,1-.215,1.141,1.623,1.623,0,0,1-.792.844,2.568,2.568,0,0,1-2.1-.122,9.382,9.382,0,0,1-1.566-1.032,4.621,4.621,0,0,0-1.379-.754,1.835,1.835,0,0,0-1.244.063,1.669,1.669,0,0,0-.757.578,1.258,1.258,0,0,0-.186.792.51.51,0,0,1-.059-.218,1.034,1.034,0,0,1,.151-.633,1.731,1.731,0,0,1,.788-.664,1.984,1.984,0,0,1,1.361-.11,4.718,4.718,0,0,1,1.46.755,9.59,9.59,0,0,0,1.536.985,2.329,2.329,0,0,0,1.87.11,1.341,1.341,0,0,0,.655-.7,2.967,2.967,0,0,0,.191-1.041c.014-.37,0-.741.018-1.118a2.85,2.85,0,0,1,.294-1.095,1.7,1.7,0,0,1,.771-.808,1.1,1.1,0,0,1,1.081.115c.577.431.808,1.048,1.276,1.331a1.827,1.827,0,0,0,1.469.153,2.751,2.751,0,0,0,1.108-.638,6,6,0,0,0,.67-.732,6.848,6.848,0,0,1,.534-.672" transform="translate(-125.929 -146.152)" fill="#fafafa"/><path d="M253.517,377.464a.8.8,0,0,1-.28.321,1.545,1.545,0,0,1-1.2.194,2.982,2.982,0,0,1-.843-.288,8.435,8.435,0,0,1-.881-.572,5.1,5.1,0,0,0-1.019-.583,1.717,1.717,0,0,0-1.241-.032,2.189,2.189,0,0,0-1.015.944,11.664,11.664,0,0,0-.709,1.416,7.821,7.821,0,0,1-.829,1.529,2.35,2.35,0,0,1-.7.624,1.364,1.364,0,0,1-.459.173c-.081.016-.162.039-.244.049l-.251,0a1.722,1.722,0,0,1-.944-.332,3.431,3.431,0,0,1-.721-.693c-.417-.518-.761-1.091-1.169-1.617a3.057,3.057,0,0,0-1.534-1.182,2.477,2.477,0,0,0-1.914.4,4.532,4.532,0,0,0-1.409,1.484c-.371.581-.675,1.2-1.021,1.789a6.061,6.061,0,0,1-1.251,1.6,3.285,3.285,0,0,1-1.77.845,2.461,2.461,0,0,1-1.789-.535,6.042,6.042,0,0,1-1.157-1.306,7.948,7.948,0,0,0-1.964-2.288,2.219,2.219,0,0,0-1.215-.368,2.841,2.841,0,0,0-1.123.257,3.1,3.1,0,0,0-1.387,1.219,2.508,2.508,0,0,0-.362,1.121,4.04,4.04,0,0,1,0,.42.306.306,0,0,1-.023-.106,2.138,2.138,0,0,1-.031-.316,2.436,2.436,0,0,1,.323-1.175,3.18,3.18,0,0,1,1.416-1.308,3,3,0,0,1,1.188-.294,2.409,2.409,0,0,1,1.323.379,8.011,8.011,0,0,1,2.049,2.321,5.855,5.855,0,0,0,1.117,1.244,2.207,2.207,0,0,0,1.608.474,3.03,3.03,0,0,0,1.621-.789,5.825,5.825,0,0,0,1.19-1.532c.338-.579.641-1.2,1.022-1.8a4.808,4.808,0,0,1,1.5-1.572,2.751,2.751,0,0,1,2.136-.431,3.311,3.311,0,0,1,1.682,1.285c.42.545.761,1.118,1.16,1.617a2.087,2.087,0,0,0,1.469.935,1.709,1.709,0,0,0,1.446-.735,7.685,7.685,0,0,0,.813-1.474,11.822,11.822,0,0,1,.738-1.437,2.389,2.389,0,0,1,1.129-1.013,1.9,1.9,0,0,1,1.379.052,5.183,5.183,0,0,1,1.044.621,8.857,8.857,0,0,0,.852.582,2.92,2.92,0,0,0,.8.3,1.517,1.517,0,0,0,1.142-.133,2.321,2.321,0,0,0,.313-.273" transform="translate(-101.57 -171.306)" fill="#fafafa"/><path d="M253.744,344.389s-.01.032-.044.088a.569.569,0,0,1-.221.188,1.257,1.257,0,0,1-1.083-.1c-.45-.21-.8-.722-1.4-.962a.885.885,0,0,0-.917.16,2.273,2.273,0,0,0-.5,1.023,6.8,6.8,0,0,1-.443,1.27,1.756,1.756,0,0,1-.473.578,1.51,1.51,0,0,1-.73.285,3.43,3.43,0,0,1-2.8-1.466,8.491,8.491,0,0,0-1.2-1.182,2.462,2.462,0,0,0-1.584-.508,4.338,4.338,0,0,0-3.042,1.79c-.777,1-1.3,2.161-1.985,3.182a5.3,5.3,0,0,1-2.71,2.253,3.047,3.047,0,0,1-1.678.1,2.816,2.816,0,0,1-1.356-.82,12.367,12.367,0,0,0-1.864-1.992,1.821,1.821,0,0,0-1.089-.28,1.922,1.922,0,0,0-.953.355,4.342,4.342,0,0,0-1.128,1.246c-.5.8-.675,1.3-.7,1.282a1.742,1.742,0,0,1,.124-.36,7.52,7.52,0,0,1,.484-.98,4.315,4.315,0,0,1,1.131-1.318,2.076,2.076,0,0,1,1.028-.4,2,2,0,0,1,1.209.288,11.966,11.966,0,0,1,1.926,2,2.582,2.582,0,0,0,1.247.743,2.8,2.8,0,0,0,1.537-.108,5.055,5.055,0,0,0,2.562-2.159c.668-1,1.188-2.16,1.992-3.2a4.593,4.593,0,0,1,3.258-1.894,2.729,2.729,0,0,1,1.753.568,8.583,8.583,0,0,1,1.234,1.225,4.663,4.663,0,0,0,1.184,1.052,2.409,2.409,0,0,0,1.4.355,1.3,1.3,0,0,0,1.037-.734,6.792,6.792,0,0,0,.444-1.224,2.42,2.42,0,0,1,.574-1.1,1.052,1.052,0,0,1,1.094-.174c.654.286.987.812,1.4,1.013a1.22,1.22,0,0,0,1.008.143.867.867,0,0,0,.289-.224" transform="translate(-102.832 -156.354)" fill="#fafafa"/><path d="M255.744,310.391c-.011.011-.086-.086-.278-.187a1.286,1.286,0,0,0-.922-.066,1.8,1.8,0,0,0-1.124.917,9.725,9.725,0,0,0-.677,1.91,4.223,4.223,0,0,1-.52,1.1,2.041,2.041,0,0,1-1.072.8,2.54,2.54,0,0,1-1.431-.04,5.155,5.155,0,0,1-1.351-.645,7.669,7.669,0,0,0-2.693-1.46,2.482,2.482,0,0,0-1.529.249A4.536,4.536,0,0,0,242.853,314c-.775.832-1.3,1.853-2.026,2.695a5.456,5.456,0,0,1-1.217,1.1,3,3,0,0,1-1.515.489,4.238,4.238,0,0,1-2.656-1.1c-.7-.566-1.289-1.151-1.912-1.569a3.343,3.343,0,0,0-1.845-.673,2.389,2.389,0,0,0-1.406.451,1.572,1.572,0,0,0-.568.745c-.075.206-.073.327-.091.325a.842.842,0,0,1,.036-.342,1.562,1.562,0,0,1,.555-.815,2.467,2.467,0,0,1,1.472-.523,3.471,3.471,0,0,1,1.959.664c.648.419,1.253,1.007,1.946,1.55a4.033,4.033,0,0,0,2.5,1.026,3.612,3.612,0,0,0,2.528-1.51c.7-.811,1.222-1.835,2.029-2.706a4.763,4.763,0,0,1,1.376-1.09,2.758,2.758,0,0,1,1.7-.271,7.77,7.77,0,0,1,2.791,1.516,3.308,3.308,0,0,0,2.572.678,1.816,1.816,0,0,0,.961-.706,4.065,4.065,0,0,0,.509-1.038,9.439,9.439,0,0,1,.73-1.926,2.211,2.211,0,0,1,.571-.647,1.851,1.851,0,0,1,.662-.3,1.307,1.307,0,0,1,.976.124.7.7,0,0,1,.251.237" transform="translate(-104.553 -141.153)" fill="#fafafa"/><path d="M261.185,293.75a.528.528,0,0,1-.032.2,3.158,3.158,0,0,1-.194.558,1.875,1.875,0,0,1-.576.758,1,1,0,0,1-1.241-.081,5.782,5.782,0,0,1-.839-1.254,1.793,1.793,0,0,0-.519-.569,1.544,1.544,0,0,0-.764-.242,2.212,2.212,0,0,0-1.62.607,5.319,5.319,0,0,0-1.128,1.6,4.117,4.117,0,0,1-.572.894,1.2,1.2,0,0,1-.989.443,1.358,1.358,0,0,1-.9-.523,2.613,2.613,0,0,1-.448-.855,3.434,3.434,0,0,0-.7-1.473,1.119,1.119,0,0,0-.61-.32.736.736,0,0,0-.581.178,2.472,2.472,0,0,0-.568,1.017,2.337,2.337,0,0,1-.468.821.927.927,0,0,1-.521.3.357.357,0,0,1-.209-.014.949.949,0,0,0,.647-.359,2.357,2.357,0,0,0,.4-.8,2.537,2.537,0,0,1,.585-1.117.944.944,0,0,1,.737-.244,1.335,1.335,0,0,1,.746.365,3.576,3.576,0,0,1,.783,1.558,2.374,2.374,0,0,0,.41.767,1.09,1.09,0,0,0,.717.42.923.923,0,0,0,.759-.356,3.873,3.873,0,0,0,.528-.833,5.5,5.5,0,0,1,1.2-1.681,2.464,2.464,0,0,1,1.822-.66,1.784,1.784,0,0,1,.885.3,2.005,2.005,0,0,1,.58.652,6.008,6.008,0,0,0,.773,1.229.82.82,0,0,0,1.019.1,1.83,1.83,0,0,0,.565-.675c.231-.444.3-.722.326-.714" transform="translate(-112.791 -133.351)" fill="#fafafa"/><path d="M195.006,294.576a.9.9,0,0,1,.052.258,6.987,6.987,0,0,1,.067.751,3.544,3.544,0,0,1-.142,1.2A2,2,0,0,1,193.949,298a1.419,1.419,0,0,1-.958.122,1.52,1.52,0,0,1-.849-.611c-.216-.285-.375-.607-.569-.9a1.436,1.436,0,0,0-2.628.137,2.934,2.934,0,0,0-.339,1.162,8.687,8.687,0,0,0,.023,1.293,4.1,4.1,0,0,1-.1,1.353,1.885,1.885,0,0,1-.767,1.111,1.493,1.493,0,0,1-1.3.105,2.862,2.862,0,0,1-1.028-.678c-.556-.58-.9-1.233-1.376-1.7a2.091,2.091,0,0,0-1.629-.661,2.04,2.04,0,0,0-1.352.579,2.16,2.16,0,0,0-.56.989,2.953,2.953,0,0,0-.053.989.662.662,0,0,1-.074-.254,2.02,2.02,0,0,1,.02-.76,2.22,2.22,0,0,1,.554-1.074,2.191,2.191,0,0,1,1.454-.669,2.3,2.3,0,0,1,1.8.693c.515.488.876,1.152,1.4,1.679a2.623,2.623,0,0,0,.934.608,1.221,1.221,0,0,0,1.069-.086,1.618,1.618,0,0,0,.643-.952,3.855,3.855,0,0,0,.085-1.261,4.443,4.443,0,0,1,.357-2.607,1.693,1.693,0,0,1,3.079-.135c.2.316.353.635.548.9a1.3,1.3,0,0,0,.713.54,1.221,1.221,0,0,0,.82-.092,1.84,1.84,0,0,0,.969-1.088,3.6,3.6,0,0,0,.181-1.144c0-.646-.034-1.008-.009-1.009" transform="translate(-82.127 -134.134)" fill="#fafafa"/><path d="M226.15,178.191c-3.688-.795-7.162,2.74-10.912,2.329-2.277-.249-4.12-1.9-6.207-2.84a11.541,11.541,0,0,0-10.271.478c-2.913,1.8-4.735,3.619-4.863,7.042-2.9-1.355-7.231,2.523-8.521,6.021s-.6,6.943.6,10.473a49.194,49.194,0,0,0,9.567,16.568c.375.428.954.886,1.447.6a1.243,1.243,0,0,0,.448-1.039c.251-3.343-.452-6.671-1.019-9.975s-1-6.722-.215-9.981,3.017-6.36,6.239-7.285a10.622,10.622,0,0,1,7.213.917c2.253,1.025,4.28,2.481,6.445,3.682a13.66,13.66,0,0,0,7.036,2.064,6.486,6.486,0,0,0,5.88-3.809c.861-2.321-.586-5.393-3.042-5.7a4.866,4.866,0,0,0,.173-9.548" transform="translate(-84.095 -80.461)" fill="#263238"/><path d="M225.011,240.822l-.952-7.107s9.252-2.6,8.236-12.038c-.49-4.559-2.264-13.863-3.967-22.265a17.691,17.691,0,0,0-19.449-14.053l-.909.109c-9.738,1.751-13.692,11-11.673,20.685l5.489,37.906A11.724,11.724,0,0,0,215,253.993h0a11.726,11.726,0,0,0,10.016-13.172" transform="translate(-89.149 -84.344)" fill="#ffbe9d"/><path d="M237.091,272.55a22.079,22.079,0,0,1-12.708-2.017s3.719,6.435,13.024,4.456Z" transform="translate(-102.172 -123.186)" fill="#eb996e"/><path d="M247.969,220.841a1.382,1.382,0,0,1-1.126,1.567,1.322,1.322,0,0,1-1.542-1.1,1.383,1.383,0,0,1,1.125-1.568,1.323,1.323,0,0,1,1.544,1.1" transform="translate(-111.689 -100.049)" fill="#263238"/><path d="M248.374,220.385c-.146.2-1.257-.437-2.7-.259-1.449.157-2.423,1.03-2.6.871-.087-.069.046-.407.468-.8a3.717,3.717,0,0,1,2.056-.915,3.578,3.578,0,0,1,2.18.425c.486.288.675.588.6.676" transform="translate(-110.668 -99.838)" fill="#263238"/><path d="M222.65,222.948a1.4,1.4,0,0,1-1.122,1.594,1.336,1.336,0,0,1-1.547-1.126,1.4,1.4,0,0,1,1.12-1.6,1.338,1.338,0,0,1,1.548,1.127" transform="translate(-100.159 -100.996)" fill="#263238"/><path d="M222.844,222.459c-.146.2-1.258-.436-2.7-.259-1.449.157-2.423,1.029-2.6.871-.086-.069.044-.406.468-.8a3.713,3.713,0,0,1,2.056-.915,3.577,3.577,0,0,1,2.179.425c.485.289.675.588.6.676" transform="translate(-99.043 -100.783)" fill="#263238"/><path d="M236.993,232.349a9.634,9.634,0,0,1,2.3-.707c.365-.083.706-.2.739-.458a1.9,1.9,0,0,0-.379-1.067l-1.432-2.685c-2-3.828-3.5-6.993-3.341-7.072s1.9,2.959,3.9,6.787q.727,1.417,1.388,2.707a2.156,2.156,0,0,1,.366,1.429.934.934,0,0,1-.543.614,2.526,2.526,0,0,1-.618.163,9.49,9.49,0,0,1-2.385.29" transform="translate(-106.947 -100.339)" fill="#263238"/><path d="M231.029,245.153c.234-.042.426,1.53,1.906,2.484s3.132.581,3.172.8c.033.1-.337.35-1.042.454a3.942,3.942,0,0,1-2.637-.578,3.435,3.435,0,0,1-1.5-2.1c-.139-.65-.01-1.06.1-1.064" transform="translate(-105.125 -111.629)" fill="#263238"/><path d="M220.5,210.573c-.1.411-1.565.4-3.24.807-1.684.375-2.993,1.037-3.262.711-.121-.157.074-.557.582-1a5.8,5.8,0,0,1,4.953-1.156c.654.176,1,.448.966.642" transform="translate(-97.426 -95.522)" fill="#263238"/><path d="M246.776,211.571c-.215.359-1.254.138-2.456.266-1.206.086-2.189.487-2.465.171-.123-.155,0-.5.4-.868a3.578,3.578,0,0,1,3.965-.352c.464.287.644.609.551.783" transform="translate(-110.107 -95.78)" fill="#263238"/><path d="M194.806,236.207c-.169-.05-6.707-1.138-5.727,5.282s7.223,4.112,7.206,3.926-1.479-9.208-1.479-9.208" transform="translate(-86.051 -107.51)" fill="#ffbe9d"/><path d="M195.372,245.177c-.032-.016-.1.1-.276.211a1.139,1.139,0,0,1-.833.145,2.8,2.8,0,0,1-1.66-2.288,3.738,3.738,0,0,1,.069-1.648,1.308,1.308,0,0,1,.71-.987.576.576,0,0,1,.707.205c.113.167.092.3.128.307.02.013.121-.129.029-.386a.725.725,0,0,0-.314-.364.853.853,0,0,0-.643-.069,1.592,1.592,0,0,0-1.016,1.174,3.841,3.841,0,0,0-.115,1.849,2.936,2.936,0,0,0,2.054,2.523,1.212,1.212,0,0,0,1-.325c.174-.189.186-.338.162-.346" transform="translate(-87.47 -109.406)" fill="#eb996e"/><path d="M229.22,195.77A13.711,13.711,0,0,1,216.8,194.5c-2.526-1.669-4.631-4.251-7.611-4.791a7.712,7.712,0,0,0-5.759,1.5,14.9,14.9,0,0,0-3.949,4.613c2.4,4.571,1.815,10.066,1.172,15.187a2.582,2.582,0,0,1-.572,1.577c-.692.678-1.888.356-2.636-.259a8.016,8.016,0,0,1-2.253-3.992A26.7,26.7,0,0,1,194,197.877a18.183,18.183,0,0,1,3.866-9.705,17.225,17.225,0,0,1,11.449-5.973,21.151,21.151,0,0,1,12.7,2.892,12.389,12.389,0,0,1,4.5,4.084" transform="translate(-88.285 -82.917)" fill="#263238"/><path d="M237.924,182.008a1.391,1.391,0,0,1,.009.566,2.634,2.634,0,0,1-.741,1.437,4.129,4.129,0,0,1-2.312,1.092,6.915,6.915,0,0,1-1.611.094,3.45,3.45,0,0,1-1.734-.564,2.289,2.289,0,0,1-1.023-1.723,2.015,2.015,0,0,1,1.171-1.809,2.492,2.492,0,0,1,1.142-.287,2.118,2.118,0,0,1,1.166.364,2.953,2.953,0,0,1,1.23,2.138,3.422,3.422,0,0,1-.732,2.486,5.209,5.209,0,0,1-2.176,1.606,8.547,8.547,0,0,1-5.579.062,24.422,24.422,0,0,1-5.11-2.3,30.97,30.97,0,0,0-4.654-2.241,9.618,9.618,0,0,0-4.557-.546,9.2,9.2,0,0,0-3.737,1.453,11.489,11.489,0,0,0-3.809,4.4,15.131,15.131,0,0,0-.654,1.468,4.391,4.391,0,0,1-.211.521.479.479,0,0,1,.029-.141c.026-.092.061-.228.121-.4a12.07,12.07,0,0,1,.6-1.5,11.349,11.349,0,0,1,3.795-4.533,9.367,9.367,0,0,1,3.825-1.528,9.856,9.856,0,0,1,4.693.529,30.8,30.8,0,0,1,4.709,2.245,24.4,24.4,0,0,0,5.047,2.265,8.259,8.259,0,0,0,5.372-.046,4.91,4.91,0,0,0,2.05-1.5,3.12,3.12,0,0,0,.681-2.266,2.671,2.671,0,0,0-1.093-1.936,1.955,1.955,0,0,0-2.029-.075,1.764,1.764,0,0,0-1.045,1.563,2.061,2.061,0,0,0,.907,1.546,3.251,3.251,0,0,0,1.618.545,6.823,6.823,0,0,0,1.566-.066,4.039,4.039,0,0,0,2.252-1,2.655,2.655,0,0,0,.766-1.359,4.488,4.488,0,0,0,.054-.555" transform="translate(-92.891 -82.333)" fill="#455a64"/><path d="M185.072,207.2a10.718,10.718,0,0,0,2.029.275,5.577,5.577,0,0,0,2.132-.484,9.371,9.371,0,0,0,2.277-1.453,7.583,7.583,0,0,0,2.41-4.184,15.638,15.638,0,0,0,.189-2.048,1.686,1.686,0,0,1,.1.554,6.47,6.47,0,0,1-.065,1.535,7.4,7.4,0,0,1-2.424,4.386,9.063,9.063,0,0,1-2.373,1.483,5.5,5.5,0,0,1-2.248.438,5.127,5.127,0,0,1-1.516-.271,1.631,1.631,0,0,1-.513-.232" transform="translate(-84.271 -90.754)" fill="#455a64"/><path d="M186.618,215.62c0-.06.774.017,1.981-.2a8.9,8.9,0,0,0,6.923-5.874c.408-1.156.458-1.931.517-1.923a1.59,1.59,0,0,1,0,.543,7.394,7.394,0,0,1-.3,1.451,8.6,8.6,0,0,1-7.1,6.028,7.424,7.424,0,0,1-1.48.056,1.586,1.586,0,0,1-.536-.084" transform="translate(-84.976 -94.541)" fill="#455a64"/><path d="M219.087,235.892a.177.177,0,1,1,.1-.217.169.169,0,0,1-.1.217" transform="translate(-99.661 -107.257)" fill="#eb996e"/><path d="M224.02,234.089a.207.207,0,1,1,.09-.242.185.185,0,0,1-.09.242" transform="translate(-101.903 -106.414)" fill="#eb996e"/><path d="M227.429,233.491c-.086.022-.185-.075-.22-.216s.007-.273.093-.294.185.075.219.216-.006.272-.092.294" transform="translate(-103.453 -106.085)" fill="#eb996e"/><path d="M222.006,238.895c-.088.011-.165-.027-.172-.083s.059-.111.148-.121.165.027.172.083-.059.111-.147.121" transform="translate(-101.011 -108.686)" fill="#eb996e"/><path d="M226.513,237.124a.184.184,0,1,1,.12-.212.173.173,0,0,1-.12.212" transform="translate(-103.051 -107.809)" fill="#eb996e"/><path d="M250.4,231.324a.183.183,0,1,1,.1-.223.172.172,0,0,1-.1.223" transform="translate(-113.919 -105.172)" fill="#eb996e"/><path d="M253.837,230.552a.208.208,0,1,1,.113-.233.186.186,0,0,1-.113.233" transform="translate(-115.489 -104.799)" fill="#eb996e"/><path d="M247.367,231.84a.143.143,0,1,1,.109-.185.152.152,0,0,1-.109.185" transform="translate(-112.545 -105.441)" fill="#eb996e"/><path d="M250.3,234.943a.188.188,0,1,1,.044-.242.175.175,0,0,1-.044.242" transform="translate(-113.854 -106.825)" fill="#eb996e"/><path d="M253.289,234.055a.137.137,0,1,1,.179-.111.15.15,0,0,1-.179.111" transform="translate(-115.27 -106.453)" fill="#eb996e"/><path d="M187.834,240.556c.01.032-.353.03-.643-.391a1.121,1.121,0,0,1-.168-.84,1.411,1.411,0,0,1,.583-.868,1.479,1.479,0,0,1,1.01-.25,1.633,1.633,0,0,1,.784.3c.394.292.46.611.433.614-.043.026-.171-.235-.542-.446a1.453,1.453,0,0,0-1.522.015,1.222,1.222,0,0,0-.49.69.975.975,0,0,0,.085.682c.194.374.49.45.471.493" transform="translate(-85.15 -108.462)" fill="#263238"/><path d="M234.036,366.81l.485,14.064s-40.772,8.077-46.017,10.779-7.386,3.12-7.068,10.908l65.156-.112s8.03-3.008,7.871-11.75-2.344-29.746-2.344-29.746Z" transform="translate(-82.602 -164.358)" fill="#ffbe9d"/><path d="M183.056,424.951l5.414-.5,5.168-12.348c-.838-.142-18.275-2.72-19.3-2.438l-4.181,14.857s12.529.424,12.9.424" transform="translate(-77.479 -186.531)" fill="#ffbe9d"/><path d="M170.257,434.218c.013.025.117.047.291.066,1.44.157,8.09-.248,8.09-.248.3-.858-.271-3.439-1.1-3.59s-7.906.326-7.906.326-1.115.147-1.392,2.02c-.172,1.157,2.016,1.425,2.016,1.425" transform="translate(-76.603 -195.988)" fill="#ffbe9d"/><path d="M166.131,427.28c.013.025.116.047.29.066,1.44.158,7.727.089,8-.678.3-.858-.179-3.009-1.007-3.16s-7.906.326-7.906.326-1.115.146-1.393,2.02c-.171,1.157,2.016,1.425,2.016,1.425" transform="translate(-74.725 -192.829)" fill="#ffbe9d"/><path d="M164.085,420.5c.013.025.117.047.29.066,1.44.157,7.727.088,8-.678.3-.859-.179-3.009-1.007-3.16s-7.906.326-7.906.326-1.115.146-1.392,2.02c-.172,1.157,2.016,1.425,2.016,1.425" transform="translate(-73.793 -189.741)" fill="#ffbe9d"/><path d="M162.162,413.754c.013.025.117.047.29.066,1.44.157,7.727.088,8-.678.3-.859-.179-3.009-1.007-3.161s-7.906.327-7.906.327-1.115.146-1.392,2.02c-.172,1.157,2.016,1.425,2.016,1.425" transform="translate(-72.917 -186.67)" fill="#ffbe9d"/><path d="M176.855,430.3a12.4,12.4,0,0,1-3.061.283,11.7,11.7,0,0,1-3.027-.109,12.4,12.4,0,0,1,3.061-.283,11.7,11.7,0,0,1,3.027.109" transform="translate(-77.758 -195.877)" fill="#eb996e"/><path d="M174.721,423.516a24.212,24.212,0,0,1-4.352.336,24.249,24.249,0,0,1-4.365-.059,24.165,24.165,0,0,1,4.352-.336,24.133,24.133,0,0,1,4.364.059" transform="translate(-75.589 -192.799)" fill="#eb996e"/><g transform="translate(90.117 226.847)" opacity="0.78"><g clip-path="url(#u)"><path d="M174.174,416.6a24.158,24.158,0,0,1-4.352.336,24.258,24.258,0,0,1-4.365-.059,24.155,24.155,0,0,1,4.352-.336,24.189,24.189,0,0,1,4.364.059" transform="translate(-165.457 -416.496)" fill="#eb996e"/></g></g><path d="M187.87,408.57s-11.87-5.277-12.61-4.515a17.449,17.449,0,0,0-1.884,3.213Z" transform="translate(-78.946 -183.95)" fill="#ffbe9d"/><path d="M287.644,409.771c-.05.015-.292-.85-.857-2.175a22.2,22.2,0,0,0-1.125-2.261,21.612,21.612,0,0,0-3.79-4.86,22.179,22.179,0,0,0-1.919-1.643c-1.147-.871-1.926-1.316-1.9-1.361a2.684,2.684,0,0,1,.567.277,14.444,14.444,0,0,1,1.452.922,19.2,19.2,0,0,1,1.979,1.615,19.9,19.9,0,0,1,3.838,4.922,19.1,19.1,0,0,1,1.083,2.314,14.438,14.438,0,0,1,.54,1.633,2.662,2.662,0,0,1,.131.618" transform="translate(-126.61 -180.985)" fill="#eb996e"/><path d="M186.217,298.482l-12.278,34.943-13.8,3.975s5,21.179,10.115,24.983a11.9,11.9,0,0,0,7.485,2.49c5.517-.385,11.706-4.275,14.064-9.706,2.1-4.827,7.7-54.734,7.7-54.734Z" transform="translate(-72.917 -135.912)" fill="#ffbe9d"/><path d="M217.79,277.637l.715-8.515-1.974-6.833-.764-2.614,1.493,1.527,2.724-2.9s-.884-5.157-1.621-5.157a13.764,13.764,0,0,0-2.757.809c-.561.205-.978.369-.978.369l-2.306,1.179,2.306-3.536s2.375,1.976,3.589.259c.929-1.313-2.532-4.255-3.835-5.293a1.29,1.29,0,0,0-1.059-.254l-1.345.27a1.958,1.958,0,0,0-1.968-1.792,3.025,3.025,0,0,0-2.578,1.545l-1.419.255A2.361,2.361,0,0,0,203.8,248.5l-3.115,8.474,4,17.226" transform="translate(-91.379 -111.629)" fill="#ffbe9d"/><path d="M204.582,274.084s-.035-.1-.088-.306l-.226-.9c-.194-.808-.475-1.971-.833-3.454l-2.96-12.54-.008-.032.011-.032,1.947-5.328,1.048-2.865a2.754,2.754,0,0,1,.875-1.363,2.515,2.515,0,0,1,1.566-.557l-.023,0,1.418-.257-.095.07a3.461,3.461,0,0,1,1.038-1.121,2.845,2.845,0,0,1,1.484-.491,2.193,2.193,0,0,1,1.526.48,1.861,1.861,0,0,1,.757,1.45l-.167-.144,1.017-.2a4.522,4.522,0,0,1,.534-.092,1.44,1.44,0,0,1,.571.085,1.565,1.565,0,0,1,.487.295l.412.336q.41.341.81.7a18.19,18.19,0,0,1,1.533,1.534,5.06,5.06,0,0,1,1.158,1.906,1.246,1.246,0,0,1-.017.691,1.653,1.653,0,0,1-.395.557,1.67,1.67,0,0,1-1.231.447,4.249,4.249,0,0,1-2.291-.992l.209-.031-2.308,3.535-.18-.2,2.307-1.177.007,0,.005,0c.778-.3,1.546-.587,2.321-.834a10.181,10.181,0,0,1,1.18-.32,1.05,1.05,0,0,1,.346-.021.547.547,0,0,1,.3.237,2.743,2.743,0,0,1,.284.554,27.152,27.152,0,0,1,1.093,4.467l.011.061-.044.046-2.73,2.9-.085.09-.086-.088-1.49-1.53.19-.111,2.709,9.457,0,.015,0,.015c-.242,2.682-.433,4.806-.565,6.275-.07.716-.123,1.271-.161,1.662-.02.179-.035.319-.047.427a.708.708,0,0,1-.024.144.725.725,0,0,1,0-.146c.006-.108.014-.249.025-.429q.042-.588.118-1.666c.114-1.471.28-3.6.489-6.282l0,.03c-.766-2.613-1.7-5.786-2.768-9.439l-.127-.435.318.324,1.5,1.523-.17,0,2.719-2.907-.032.107a27.175,27.175,0,0,0-1.091-4.41,2.5,2.5,0,0,0-.254-.5.337.337,0,0,0-.143-.133.942.942,0,0,0-.246.023,9.837,9.837,0,0,0-1.144.314c-.766.246-1.531.538-2.3.832l.012-.005-2.306,1.18-.465.238.285-.437,2.3-3.538.083-.127.126.1a4,4,0,0,0,2.119.926,1.386,1.386,0,0,0,1.03-.372,1.421,1.421,0,0,0,.32-.442.968.968,0,0,0,.008-.535,4.823,4.823,0,0,0-1.1-1.783,17.778,17.778,0,0,0-1.508-1.51q-.395-.355-.8-.692a3.5,3.5,0,0,0-.816-.584,1.558,1.558,0,0,0-.953.017l-1.017.2-.172.034,0-.179a1.6,1.6,0,0,0-.652-1.219,1.913,1.913,0,0,0-1.34-.422,2.839,2.839,0,0,0-2.3,1.462l-.035.059-.06.011-1.419.254-.012,0h-.012a2.25,2.25,0,0,0-1.4.495,2.487,2.487,0,0,0-.8,1.249l-1.057,2.862-1.968,5.32,0-.064,2.866,12.561.773,3.468c.083.388.148.691.194.91s.056.313.056.313" transform="translate(-91.282 -111.515)" fill="#eb996e"/><path d="M226.079,268.353a15.42,15.42,0,0,1,2.387-1.286l.886-.431-.737.66a2.267,2.267,0,0,0-.491.627,2.316,2.316,0,0,0-.272,1.259,2.376,2.376,0,0,0,.324,1.016,5.871,5.871,0,0,0,.647.784c-.007.028-.422-.122-.816-.676a2.4,2.4,0,0,1-.415-1.1,2.476,2.476,0,0,1,.843-2.119l.149.228a15.39,15.39,0,0,1-2.5,1.037" transform="translate(-102.943 -121.411)" fill="#eb996e"/><path d="M214.093,255.234a7.353,7.353,0,0,1,.667-1.285c.443-.774,1.072-1.835,1.782-3,.358-.581.69-1.132,1.017-1.632a3.405,3.405,0,0,1,1.128-1.141,1.772,1.772,0,0,1,1.061-.235c.259.033.381.12.375.132s-.14-.025-.381-.022a1.842,1.842,0,0,0-.953.3c-.75.442-1.276,1.606-2,2.749-.71,1.162-1.365,2.205-1.852,2.953a7.352,7.352,0,0,1-.838,1.18" transform="translate(-97.485 -112.895)" fill="#eb996e"/><path d="M206.344,255.039a5.015,5.015,0,0,1,.4-1.158c.286-.7.713-1.653,1.225-2.687s1.014-1.95,1.4-2.6a4.975,4.975,0,0,1,.678-1.022,5.56,5.56,0,0,1-.5,1.117l-1.319,2.633-1.3,2.643a5.565,5.565,0,0,1-.585,1.076" transform="translate(-93.955 -112.73)" fill="#eb996e"/><path d="M183.526,356.37a3,3,0,0,1-.2.633l-.631,1.69c-.537,1.425-1.273,3.394-2.051,5.582s-1.448,4.182-1.93,5.626l-.576,1.709a2.944,2.944,0,0,1-.245.617,2.981,2.981,0,0,1,.139-.649c.106-.413.274-1.007.491-1.737.434-1.461,1.076-3.468,1.854-5.661s1.547-4.154,2.132-5.561c.292-.7.537-1.27.715-1.658a2.968,2.968,0,0,1,.3-.592" transform="translate(-81.001 -162.271)" fill="#eb996e"/><path d="M193.646,378.657a.69.69,0,0,1-.012.161c-.016.121-.037.276-.063.469-.063.431-.15,1.034-.26,1.8-.119.781-.264,1.737-.483,2.84a22.919,22.919,0,0,1-1.026,3.681,12.185,12.185,0,0,1-2.4,3.959,18.1,18.1,0,0,1-4.139,3.338,22.231,22.231,0,0,1-5.427,2.258,11.985,11.985,0,0,1-3.095.433,9.387,9.387,0,0,1-3.174-.556,11.69,11.69,0,0,1-5.056-3.736,20.067,20.067,0,0,1-2.929-5.1c-.712-1.741-1.133-3.475-1.625-5.055l-1.364-4.412c-.843-2.7-1.485-4.891-1.886-6.419-.2-.764-.35-1.359-.441-1.765-.042-.191-.076-.343-.1-.462a.661.661,0,0,1-.026-.16.687.687,0,0,1,.054.153l.129.455.493,1.749c.433,1.518,1.1,3.7,1.971,6.388l1.4,4.4c.5,1.585.932,3.309,1.643,5.026a19.915,19.915,0,0,0,2.9,5.018,11.45,11.45,0,0,0,4.936,3.645,9.122,9.122,0,0,0,3.079.541,11.785,11.785,0,0,0,3.024-.419,22.168,22.168,0,0,0,5.364-2.214,17.993,17.993,0,0,0,4.1-3.273,12.053,12.053,0,0,0,2.388-3.873,23.358,23.358,0,0,0,1.058-3.64c.233-1.095.394-2.047.529-2.825l.313-1.792.091-.464a.681.681,0,0,1,.04-.157" transform="translate(-72.916 -168.448)" fill="#eb996e"/></g><g clip-path="url(#a)"><path d="M18.43,360.951a6.114,6.114,0,0,0-3.17-4.048c-1.692-.729-3.652-.314-5.383.315A19.345,19.345,0,0,1,4.606,358.8c-1.839.114-3.915-.759-4.466-2.517-.517-1.653.479-3.416,1.727-4.617a11.1,11.1,0,0,1,10.1-2.745,11.1,11.1,0,0,1,7.754,7.031" transform="translate(0 -158.75)" fill="#2c5519"/><path d="M37.828,367.143c2.7-2.563,2.563-7.025,1.217-10.495a15.9,15.9,0,0,0-7.565-7.889,23.954,23.954,0,0,0-20.878-.677,9.913,9.913,0,0,1,8.012,4.7c1.479,2.456,1.807,5.436,3.029,8.029a12.639,12.639,0,0,0,16.184,6.327" transform="translate(-4.828 -157.555)" fill="url(#p)"/><path d="M50.96,319.4c2.987-3.526,3.385-9.187,2.945-13.787s-1.507-9.23-.78-13.794c.43-2.7,1.479-5.285,1.833-8s-.148-5.785-2.252-7.537c-2.418-2.014-6.225-1.539-8.74.352s-3.972,4.862-5.038,7.823c-2.339,6.505-3.2,13.719-1.276,20.36S44.084,317.393,50.7,319.4" transform="translate(-16.663 -125.208)" fill="url(#p)"/><path d="M49.617,382.624a2.5,2.5,0,0,0,.011-.406c0-.266,0-.66-.022-1.165-.038-1.011-.136-2.474-.362-4.271a56.866,56.866,0,0,0-1.148-6.253,28.828,28.828,0,0,0-2.854-7.241,30.177,30.177,0,0,0-4.663-6.235,29.7,29.7,0,0,0-4.889-4.066c-.746-.516-1.468-.907-2.089-1.27-.637-.334-1.193-.609-1.649-.829l-1.075-.452a2.425,2.425,0,0,0-.381-.142,2.535,2.535,0,0,0,.361.187l1.053.493c.448.233,1,.518,1.623.863.612.373,1.324.772,2.059,1.295a30.723,30.723,0,0,1,9.435,10.276c2.747,4.8,3.5,9.856,4.044,13.4.248,1.788.372,3.245.44,4.253q.042.73.068,1.161a2.46,2.46,0,0,0,.039.405" transform="translate(-13.886 -159.504)" fill="#263238"/><path d="M100.943,330.995c5.527,3.335,5.51,6.37,4.587,9.235s-4.315,4.855-7.127,3.782a8.723,8.723,0,0,1-3.725-3.376,15.606,15.606,0,0,0-3.286-3.872,4.212,4.212,0,0,0-4.761-.39" transform="translate(-39.447 -150.717)" fill="#2c5519"/><path d="M97.911,331.445c-1.446-2-5.015-2.575-7.27-1.579s-3.906,2.973-5.384,4.945-2.917,4.055-4.963,5.427-4.908,1.869-6.949.487a5.974,5.974,0,0,1-2.36-4.087,13.607,13.607,0,0,1,.325-4.819c.488-2.318,1.284-4.738,3.139-6.212,2.068-1.641,4.936-1.719,7.574-1.632a28.368,28.368,0,0,1,8.942,1.375,12.417,12.417,0,0,1,6.947,6.094" transform="translate(-32.277 -147.51)" fill="url(#p)"/><path d="M74.022,366.715a.442.442,0,0,0,.015-.121c0-.095.011-.212.019-.357.011-.333.027-.791.047-1.371.035-1.212.084-2.93.145-5.045s.154-4.664.307-7.477.367-5.9.793-9.12a29.361,29.361,0,0,1,.916-4.631,24.022,24.022,0,0,1,1.694-4.053,23.349,23.349,0,0,1,2.137-3.354,21.841,21.841,0,0,1,2.333-2.562,17.168,17.168,0,0,1,4.137-2.82c.27-.123.5-.245.717-.331l.54-.209.331-.134a.432.432,0,0,0,.11-.054.456.456,0,0,0-.118.03l-.339.111-.551.188c-.216.079-.455.194-.73.312A16.553,16.553,0,0,0,82.31,328.5a21.571,21.571,0,0,0-2.378,2.565,23.269,23.269,0,0,0-2.176,3.373,24.017,24.017,0,0,0-1.724,4.087,29.307,29.307,0,0,0-.929,4.67c-.428,3.23-.63,6.326-.775,9.141s-.21,5.353-.255,7.484-.06,3.856-.066,5.048c0,.581,0,1.039,0,1.373,0,.145,0,.262.006.357a.451.451,0,0,0,.01.122" transform="translate(-33.698 -148.021)" fill="#263238"/><path d="M63.654,355.128a15.835,15.835,0,0,0,.605-2.374,24.906,24.906,0,0,0,.253-6.668,44.277,44.277,0,0,0-2.106-9.675c-1.134-3.556-2.674-7.358-3.989-11.445a52.576,52.576,0,0,1-1.587-6.056,53.867,53.867,0,0,1-.784-5.778,84.517,84.517,0,0,1-.176-9.881c.1-2.815.245-5.09.339-6.663.045-.775.081-1.382.107-1.812.009-.2.016-.352.022-.471a.737.737,0,0,0,0-.161.842.842,0,0,0-.024.159c-.012.119-.027.274-.046.47-.036.429-.088,1.035-.154,1.808-.123,1.571-.3,3.846-.417,6.664a81.5,81.5,0,0,0,.124,9.906,53.28,53.28,0,0,0,.773,5.805,52.223,52.223,0,0,0,1.589,6.085c1.32,4.1,2.865,7.9,4.009,11.44a45.026,45.026,0,0,1,2.149,9.621,25.728,25.728,0,0,1-.174,6.636c-.136.774-.26,1.373-.369,1.773-.047.191-.083.343-.112.459a.749.749,0,0,0-.03.159" transform="translate(-25.318 -133.937)" fill="#263238"/><path d="M45.227,406.522H71.178l.593-5H45.227Z" transform="translate(-20.594 -182.833)" fill="#455a64"/><path d="M70.721,409.654l-3.245,14.985h-14.1L50.34,409.654Z" transform="translate(-22.922 -186.534)" fill="#455a64"/><path d="M45.228,410.561c0,.069,5.706.108,12.742.088s12.743-.091,12.743-.159-5.7-.108-12.743-.088-12.742.091-12.742.159" transform="translate(-20.594 -186.872)" fill="#455a64"/><path d="M53.4,422.521a10.706,10.706,0,0,1,2.285-1.31,8.077,8.077,0,0,1,2.779-.558,9.779,9.779,0,0,1,3.417.627c1.183.4,2.288.865,3.363,1.122a8.013,8.013,0,0,0,2.907.088,5.982,5.982,0,0,0,1.868-.591,3.628,3.628,0,0,0,.45-.286c.1-.073.146-.115.141-.121s-.222.128-.634.321a6.536,6.536,0,0,1-1.85.5,8.142,8.142,0,0,1-2.832-.137c-1.039-.259-2.143-.73-3.335-1.134a9.712,9.712,0,0,0-3.5-.62,7.95,7.95,0,0,0-2.839.624,7.344,7.344,0,0,0-1.691.986,4.434,4.434,0,0,0-.4.348c-.088.084-.131.131-.125.138" transform="translate(-24.317 -191.436)" fill="#263238"/><path d="M53.767,424.378a11.281,11.281,0,0,1,2.195-1.292,7.435,7.435,0,0,1,2.68-.552,9.654,9.654,0,0,1,3.306.595c1.143.382,2.216.826,3.241,1.1a8.328,8.328,0,0,0,2.794.313,4.73,4.73,0,0,0,1.831-.49,3.317,3.317,0,0,0,.436-.276c.094-.071.141-.112.136-.119s-.215.125-.614.308a5.046,5.046,0,0,1-1.8.4,8.523,8.523,0,0,1-2.721-.358c-1-.282-2.068-.73-3.224-1.117a9.577,9.577,0,0,0-3.389-.588,7.337,7.337,0,0,0-4.363,1.6,4.552,4.552,0,0,0-.387.339c-.084.082-.125.127-.12.134" transform="translate(-24.482 -192.293)" fill="#fff"/><path d="M52.933,420.521a12.259,12.259,0,0,1,2.347-1.383,8.624,8.624,0,0,1,2.849-.685,9.214,9.214,0,0,1,3.526.621,31.742,31.742,0,0,0,3.483,1.137,8.841,8.841,0,0,0,3,0,6.735,6.735,0,0,0,1.928-.61,3.592,3.592,0,0,0,.468-.291c.1-.075.151-.118.146-.124s-.228.133-.656.328a7.444,7.444,0,0,1-1.914.524,9.059,9.059,0,0,1-2.931-.056,35.356,35.356,0,0,1-3.446-1.148,9.193,9.193,0,0,0-3.619-.615,8.734,8.734,0,0,0-4.637,1.795,4.743,4.743,0,0,0-.416.359c-.091.087-.136.135-.13.142" transform="translate(-24.102 -190.429)" fill="#fff"/><path d="M44.806,410.635c0,.068,5.838.124,13.037.124s13.038-.056,13.038-.124-5.836-.124-13.038-.124-13.037.056-13.037.124" transform="translate(-20.402 -186.924)" fill="#263238"/></g><path d="M.708,437.166h0Z" transform="translate(-0.322 -199.061)" fill="#f5f5f5"/><g clip-path="url(#a)"><path d="M237.829,437.048c0,.078-53.085.142-118.555.142-65.492,0-118.567-.063-118.567-.142s53.074-.142,118.567-.142c65.469,0,118.555.063,118.555.142" transform="translate(-0.322 -198.943)" fill="#263238"/></g></g></g></g></svg>