<svg xmlns="http://www.w3.org/2000/svg" xmlns:xlink="http://www.w3.org/1999/xlink" width="56.799" height="56.798" viewBox="0 0 56.799 56.798"><defs><clipPath id="a"><rect width="56.799" height="56.799" fill="none"/></clipPath></defs><g clip-path="url(#a)"><path d="M48.035,56.8H46.593a4.549,4.549,0,0,1-3.858-3.13.728.728,0,0,0-.808-.492q-3.769.011-7.538,0a4,4,0,0,1-4.257-4.23c0-1.109-.01-2.217,0-3.326a.807.807,0,0,0-.556-.844,6.238,6.238,0,0,1-3.649-3.507.653.653,0,0,0-.584-.433,11.39,11.39,0,0,1-1.683-.337.882.882,0,0,0-.855.264,7.12,7.12,0,0,1-3.678,1.554,7.077,7.077,0,0,1-7.039-3.259.984.984,0,0,0-1.173-.493,8.916,8.916,0,0,1-4.478-.334c-.589-.2-.628-.167-.628.461,0,2.624.008,5.247-.01,7.871a.857.857,0,0,0,.64.943,4.773,4.773,0,0,1,2.985,5.833A4.392,4.392,0,0,1,5.436,56.8H4.548c-.177-.116-.374-.031-.56-.057C2.23,56.878.174,54.69.083,53.282A.539.539,0,0,0,0,52.916V51.252a4.513,4.513,0,0,1,3.174-3.816.611.611,0,0,0,.446-.664q-.009-4.765,0-9.53a1.075,1.075,0,0,0-.435-.849,9.72,9.72,0,0,1-2.724-3.85A10.944,10.944,0,0,1,0,30.4v-2.44a8.5,8.5,0,0,1,1.253-3.79,1.135,1.135,0,0,0,.11-.752,4.6,4.6,0,0,1,2.324-4.607,1.182,1.182,0,0,0,.659-.93,5.911,5.911,0,0,1,5.332-4.923,5,5,0,0,1,1.6.128.755.755,0,0,0,.831-.256,8.092,8.092,0,0,1,5.224-2.749c.381-.049.5-.22.495-.576-.012-.535,0-1.071,0-1.607A4.035,4.035,0,0,1,22.1,3.62c3.418,0,6.835-.01,10.253.009a.855.855,0,0,0,.973-.657A4.786,4.786,0,0,1,35.479.459,4.874,4.874,0,0,1,37.052,0h1.442a4.416,4.416,0,0,1,3.8,2.725A4.865,4.865,0,0,1,38.018,9.6a4.914,4.914,0,0,1-4.7-3.144.879.879,0,0,0-.985-.655c-3.383.018-6.766.006-10.148.011A1.921,1.921,0,0,0,20.012,8c0,.573,0,1.146,0,1.719a.553.553,0,0,0,.437.616,7.9,7.9,0,0,1,1.724.753.672.672,0,0,0,.851-.074,4.711,4.711,0,0,1,6.519.719,1.187,1.187,0,0,0,1.019.545A8.81,8.81,0,0,1,35.4,13.661c.548.326.55.327.838-.239a4.079,4.079,0,0,1,3.908-2.253c2.125-.028,4.252-.006,6.377-.007.763,0,.763,0,1.036-.712a4.858,4.858,0,0,1,8.984-.09,8.612,8.612,0,0,1,.26,1.288V13.09a4.484,4.484,0,0,1-3.332,3.87,4.851,4.851,0,0,1-5.922-2.822c-.3-.786-.3-.787-1.151-.787q-2.911,0-5.823,0a4.822,4.822,0,0,0-.992.086,1.849,1.849,0,0,0-1.192,3,9.5,9.5,0,0,1,1.545,3.353.982.982,0,0,0,.716.808,4.653,4.653,0,0,1,3.079,3.306c.115.4.291.591.726.577.757-.024,1.516-.02,2.273,0a.664.664,0,0,0,.734-.513,4.827,4.827,0,0,1,2.567-2.84,4.9,4.9,0,0,1,6.55,2.592c.144.368.1.76.22,1.127V26.4a4.6,4.6,0,0,1-3.823,3.934,4.784,4.784,0,0,1-5.466-3.052.831.831,0,0,0-.938-.63c-.793.036-1.589,0-2.383.013-.529.008-.607.118-.375.6a7.552,7.552,0,0,1,.823,3.415,7.215,7.215,0,0,1-1.224,3.968,5.6,5.6,0,0,0-.708,1.492A9.647,9.647,0,0,1,39.382,41a.554.554,0,0,0-.174.809,10.594,10.594,0,0,1,.812,1.939,3.513,3.513,0,0,1-1.361,4.056,3.62,3.62,0,0,1-4.414-.324,14.841,14.841,0,0,0-1.338-1.244c-.146-.1-.3-.287-.488-.182-.157.088-.1.3-.1.465,0,.831-.017,1.663,0,2.494a1.855,1.855,0,0,0,2,1.97c2.55.015,5.1,0,7.649.013a.72.72,0,0,0,.781-.6A4.87,4.87,0,0,1,47.8,47.211a4.962,4.962,0,0,1,4.233,3.558,4.887,4.887,0,0,1-2.819,5.792c-.386.152-.794.125-1.179.238"/><path d="M26.825,383.154a.2.2,0,0,1-.029-.092.628.628,0,0,1,.583.092Z" transform="translate(-22.831 -326.355)" fill="#3b3b3b"/><path d="M49.882,104.978a5.075,5.075,0,0,1-4.553-.55c-.3-.176-.176-.324-.051-.529a3.77,3.77,0,0,0,.285-3.6c-.263-.627-.739-.876-1.258-.675a.957.957,0,0,0-.5,1.37,2,2,0,0,1-.892,2.609,2.025,2.025,0,0,1-2.654-.8c-.407-.6-.9-.749-1.4-.426a.978.978,0,0,0-.215,1.418,3.78,3.78,0,0,0,4.369,1.776.93.93,0,0,1,.98.2,7.178,7.178,0,0,0,4.885,1.442c.046.359-.219.572-.414.793a6.648,6.648,0,0,1-2.8,2.3,1.076,1.076,0,0,0-.925.749.916.916,0,0,0,.891,1.161,7.257,7.257,0,0,0,.922-.116,2.722,2.722,0,0,1,.333,3.433c-.311-.079-.474-.341-.671-.554a7.2,7.2,0,0,0-2.824-1.9,20.439,20.439,0,0,1-2.661-1.09,4.291,4.291,0,0,1-1.6-1.335c-.353-.523-.323-.565.28-.667a12.989,12.989,0,0,0,1.4-.309.943.943,0,0,0,.732-1.127.92.92,0,0,0-1.2-.679,9.714,9.714,0,0,1-6.145-.237,1.03,1.03,0,0,0-1.173.4,5.283,5.283,0,0,1-9.107-2.849,5.481,5.481,0,0,1,.624-3.371.976.976,0,0,0-.295-1.445c-.51-.278-1.028-.086-1.365.537a4.987,4.987,0,0,0-.474,1.058c-.109.409-.349.414-.666.35a2.049,2.049,0,0,1-1.568-1.973.928.928,0,0,0-1.183-.893,1.035,1.035,0,0,0-.693,1.181,3.874,3.874,0,0,0,3.264,3.557c.294.053.385.135.407.436.095,1.281.107,1.28-1.216,1.4a7.515,7.515,0,0,1-7.821-6.248,7.7,7.7,0,0,1,.617-4.4c.334.265.637.532.967.759a.958.958,0,0,0,1.381-.151.977.977,0,0,0-.305-1.4,2.729,2.729,0,1,1,3.4-4.211c.089.094.163.2.253.294a.923.923,0,0,0,1.294.136.905.905,0,0,0,.158-1.327,4.459,4.459,0,0,0-3.017-1.785c-.217-.034-.368-.014-.328-.337A3.692,3.692,0,0,1,21.785,84.5c-.084.261-.176.519-.251.782a.984.984,0,0,0,.6,1.348c.541.162,1.017-.156,1.223-.823a5.832,5.832,0,0,1,4.692-4.28,5.749,5.749,0,0,1,4.207.776.38.38,0,0,1,.207.532,3.455,3.455,0,0,0-.211,1.139.991.991,0,0,0,.892,1.126.981.981,0,0,0,.994-1.029,2.659,2.659,0,0,1,2.31-2.628c.389-.021.539.288.687.546a1.008,1.008,0,0,0,1.043.545,1.34,1.34,0,0,1,.958.136,2.116,2.116,0,0,1,.439,1.272c.045.744.406,1.168.978,1.159.554-.009.877-.4.9-1.14.007-.255.09-.312.32-.3a3.634,3.634,0,0,1,1.235.228,8.156,8.156,0,0,1,3.8,4.5,9.166,9.166,0,0,1,.477,1.817.831.831,0,0,1-.053.591c-.382.6-.383,1.022,0,1.392.355.346.78.345,1.359-.005a2.092,2.092,0,0,1,1.182-.4A1.893,1.893,0,0,1,50.7,92.9a3.812,3.812,0,0,1,.16,2.749,1.11,1.11,0,0,0,.035,1.1.373.373,0,0,1-.015.465c-.378.808-.2,1.229.663,1.566a2.155,2.155,0,0,1,.251,1.592,6.061,6.061,0,0,1-1.3,3.453c-.287.357-.317.823-.617,1.156" transform="translate(-10.944 -69.369)" fill="#ecc19c"/><path d="M239.372,18.735a2.8,2.8,0,0,1-.267-5.552.629.629,0,0,1,.719.264,3.894,3.894,0,0,1,.033,4.936,1.423,1.423,0,0,1-.485.352" transform="translate(-201.764 -11.205)" fill="#b4dd7f"/><path d="M334.989,159.334a2.8,2.8,0,0,1,.348-5.539,1.309,1.309,0,0,1,.521.4,3.981,3.981,0,0,1,.028,4.794.736.736,0,0,1-.9.349" transform="translate(-283.53 -131.038)" fill="#b4dd7f"/><path d="M15.078,338.508a2.8,2.8,0,0,1,.252-5.547,2.259,2.259,0,0,1,.423.26,3.95,3.95,0,0,1-.018,5.118.609.609,0,0,1-.657.169" transform="translate(-10.89 -283.693)" fill="#b4dd7f"/><path d="M302.968,338.508a2.8,2.8,0,0,1,.252-5.547,2.26,2.26,0,0,1,.423.26,3.95,3.95,0,0,1-.018,5.118.609.609,0,0,1-.657.169" transform="translate(-256.181 -283.693)" fill="#b4dd7f"/><path d="M335.333,69.944a2.8,2.8,0,0,1-.125-5.563c.31-.043.461.191.625.378a3.845,3.845,0,0,1,.06,4.751,2.062,2.062,0,0,1-.56.435" transform="translate(-283.526 -54.85)" fill="#b4dd7f"/><path d="M263.144,200.819a2.79,2.79,0,0,1,.605-1.379,5.889,5.889,0,0,0,1.067-4.6,1.475,1.475,0,0,1-.011-.221,2.452,2.452,0,0,0,1.279-.6c.217-.161.319-.179.423.11a5.191,5.191,0,0,1-3.364,6.691" transform="translate(-224.207 -165.21)" fill="#ce9768"/><path d="M220.9,105.072a8.941,8.941,0,0,0-3.907-6.616c-.12-.082-.27-.128-.321-.287a6.541,6.541,0,0,1,3.108,1.45,7.875,7.875,0,0,1,2.76,4.157c.093.323.1.538-.321.625a4.145,4.145,0,0,0-1.319.672" transform="translate(-184.608 -83.642)" fill="#ce9768"/><path d="M316.19,338.382c.39.012.585-.27.785-.533a3.769,3.769,0,0,0-.36-4.8,1.465,1.465,0,0,1-.173-.213,2.639,2.639,0,0,1,2.709,1.328,2.668,2.668,0,0,1-.025,2.978,2.765,2.765,0,0,1-2.678,1.32,1.126,1.126,0,0,1-.258-.079" transform="translate(-269.403 -283.567)" fill="#93c651"/><path d="M349.4,69.684a3.863,3.863,0,0,0,1.21-2.91,3.22,3.22,0,0,0-1.335-2.653,2.78,2.78,0,0,1,3.195,2.351,2.845,2.845,0,0,1-2.305,3.209,1.377,1.377,0,0,1-.765,0" transform="translate(-297.59 -54.59)" fill="#93c651"/><path d="M28.3,338.384c.39.012.585-.27.785-.533a3.769,3.769,0,0,0-.36-4.8,1.459,1.459,0,0,1-.173-.213,2.641,2.641,0,0,1,2.709,1.328,2.669,2.669,0,0,1-.025,2.978,2.766,2.766,0,0,1-2.678,1.32,1.124,1.124,0,0,1-.258-.079" transform="translate(-24.112 -283.569)" fill="#93c651"/><path d="M347.772,159.285a.806.806,0,0,0,.777-.418,3.846,3.846,0,0,0-.429-5.121,2.809,2.809,0,0,1,3.1,2.847,2.861,2.861,0,0,1-3.135,2.782,1.658,1.658,0,0,1-.312-.09" transform="translate(-296.312 -130.989)" fill="#93c651"/><path d="M252.618,18.487a4.127,4.127,0,0,0,1.218-2.911,4,4,0,0,0-.991-2.445.643.643,0,0,0-.494-.2,2.79,2.79,0,0,1,3.337,2.337,2.845,2.845,0,0,1-2.52,3.231,5.213,5.213,0,0,1-.55-.016" transform="translate(-215.011 -10.956)" fill="#93c651"/><path d="M263.5,156.83c0-.055.02-.131-.008-.162-.528-.6-.186-1.206-.058-1.834a3.7,3.7,0,0,0-1.043-3.43,2.632,2.632,0,0,1,2.9,1.861,2.713,2.713,0,0,1-1.247,3.194c-.188.114-.365.247-.547.371" transform="translate(-223.567 -128.988)" fill="#ce9768"/><path d="M240.986,289.8c.663-1.219.2-2.329-.333-3.433.262-.084.525-.165.787-.252.756-.252.752-.25,1.117.487a9.214,9.214,0,0,1,.583,1.489,1.4,1.4,0,0,1-.47,1.592,1.342,1.342,0,0,1-1.684.117" transform="translate(-205.044 -243.654)" fill="#ce9768"/><path d="M234.656,256.218a9.729,9.729,0,0,0,3.213-3.088,13.793,13.793,0,0,0,1.831-.447c-.358,1.4-3,3.238-5.044,3.535" transform="translate(-199.934 -215.293)" fill="#ce9768"/><path d="M175.03,82.529c-.091,0-.183,0-.273.009-.883.092-1.7.053-2.092-.952-.046-.119-.213-.19-.323-.284a2.524,2.524,0,0,1,2.688,1.227" transform="translate(-146.84 -69.224)" fill="#ce9768"/><path d="M126.989,171.338a7,7,0,0,1-3.833-2.029.968.968,0,0,1-.112-1.463c.426-.415.941-.366,1.459.139a4.975,4.975,0,0,0,8.482-2.373c.175-.682.6-.99,1.185-.858.555.125.818.64.642,1.315a6.783,6.783,0,0,1-5.315,5.2.758.758,0,0,0-.586.48,5.461,5.461,0,0,1-4.947,3.349c-.7.037-1.143-.317-1.163-.893-.019-.545.372-.948,1.045-.982a3.87,3.87,0,0,0,2.462-1,2.863,2.863,0,0,0,.681-.892" transform="translate(-104.594 -140.35)"/><path d="M89.723,137.608a5.192,5.192,0,0,1,4.959-4.888c.689-.015,1.142.336,1.166.9s-.4.941-1.094.985a3.282,3.282,0,0,0-3.138,3.076c-.047.5-.148.968-.709,1.129-.723.207-1.24-.327-1.184-1.2" transform="translate(-76.443 -113.081)"/></g></svg>