<svg xmlns="http://www.w3.org/2000/svg" xmlns:xlink="http://www.w3.org/1999/xlink" width="315.193" height="207.739" viewBox="0 0 315.193 207.739"><defs><clipPath id="a"><rect width="315.192" height="189.793" fill="none"/></clipPath><clipPath id="f"><rect width="2.215" height="1.568" fill="none"/></clipPath><clipPath id="g"><rect width="10.103" height="1.067" fill="none"/></clipPath><clipPath id="h"><rect width="7.386" height="0.942" fill="none"/></clipPath><clipPath id="i"><rect width="8.633" height="41.37" fill="none"/></clipPath><clipPath id="k"><rect width="9.255" height="7.324" fill="none"/></clipPath><clipPath id="l"><rect width="6.014" height="4.584" fill="none"/></clipPath><clipPath id="m"><rect width="11.687" height="1.182" fill="none"/></clipPath><clipPath id="n"><rect width="6.989" height="0.881" fill="none"/></clipPath><clipPath id="o"><rect width="16.057" height="17.924" fill="none"/></clipPath></defs><g transform="translate(-557.455 -4623.034)"><path d="M20,0H228a20,20,0,0,1,20,20V207.739a0,0,0,0,1,0,0H0a0,0,0,0,1,0,0V20A20,20,0,0,1,20,0Z" transform="translate(613 4623.034)" fill="#c2e8b0"/><g transform="translate(557.455 4638.135)" clip-path="url(#a)"><rect width="19.565" height="2.614" transform="translate(200.366 117.168)" fill="#e0e0e0"/><g clip-path="url(#a)"><path d="M436.17,252.026a6.165,6.165,0,0,1,0,2.449,6.141,6.141,0,0,1,0-2.449" transform="translate(-233.138 -134.749)" fill="#fafafa"/><path d="M435.254,251.912a6.165,6.165,0,0,1,0,2.449,6.141,6.141,0,0,1,0-2.449" transform="translate(-232.649 -134.688)" fill="#fafafa"/><path d="M469.237,252.026a6.165,6.165,0,0,1,0,2.449,6.164,6.164,0,0,1,0-2.449" transform="translate(-250.818 -134.749)" fill="#fafafa"/><path d="M468.321,251.912a6.164,6.164,0,0,1,0,2.449,6.164,6.164,0,0,1,0-2.449" transform="translate(-250.328 -134.688)" fill="#fafafa"/><path d="M451.469,254.631c0,.068-2.241.123-5,.123s-5-.055-5-.123,2.24-.123,5-.123,5,.055,5,.123" transform="translate(-236.033 -136.076)" fill="#fafafa"/><rect width="19.565" height="5.228" transform="translate(200.282 128.937)" fill="#e0e0e0"/><path d="M450.274,281.347a.441.441,0,0,1-.106.061c-.072.037-.181.087-.326.149a5.666,5.666,0,0,1-1.326.38,3.457,3.457,0,0,1-2.153-.306,2.858,2.858,0,0,1-1.022-.926,2.153,2.153,0,0,1-.356-1.506,1.588,1.588,0,0,1,.36-.779,1.029,1.029,0,0,1,.825-.375,1.184,1.184,0,0,1,.829.447,1.616,1.616,0,0,1,.379.892,2.372,2.372,0,0,1-.675,1.853,2.977,2.977,0,0,1-1.88.919,4.99,4.99,0,0,1-2.183-.271,4.025,4.025,0,0,1-1.907-1.282,2.1,2.1,0,0,1-.444-1.128,1.465,1.465,0,0,1,.417-1.174.952.952,0,0,1,.612-.268,1.118,1.118,0,0,1,.639.18,1.7,1.7,0,0,1,.72,1.054,2.463,2.463,0,0,1-.771,2.3,3.849,3.849,0,0,1-2.2.9,5.421,5.421,0,0,1-2.283-.225,3.154,3.154,0,0,1-1.737-1.35,2.313,2.313,0,0,1-.218-2.077,1.091,1.091,0,0,1,.8-.675,1.26,1.26,0,0,1,.986.238,1.632,1.632,0,0,1,.466,1.761,3.05,3.05,0,0,1-.987,1.389,4.443,4.443,0,0,1-2.683,1.042,4.3,4.3,0,0,1-2.126-.483,4.248,4.248,0,0,1-1.108-.822,3.136,3.136,0,0,1-.234-.272.441.441,0,0,1-.069-.1A4.978,4.978,0,0,0,431.961,282a4.259,4.259,0,0,0,2.077.431,4.32,4.32,0,0,0,2.576-1.037,2.879,2.879,0,0,0,.917-1.311,1.441,1.441,0,0,0-.407-1.544,1.056,1.056,0,0,0-.823-.194.875.875,0,0,0-.64.555,2.1,2.1,0,0,0,.214,1.873,2.931,2.931,0,0,0,1.619,1.245,5.211,5.211,0,0,0,2.181.208,3.618,3.618,0,0,0,2.064-.838,2.224,2.224,0,0,0,.7-2.067,1.455,1.455,0,0,0-.61-.9.749.749,0,0,0-.954.058,1.224,1.224,0,0,0-.342.98,1.854,1.854,0,0,0,.394,1,3.805,3.805,0,0,0,1.79,1.2,4.777,4.777,0,0,0,2.08.268,2.758,2.758,0,0,0,1.749-.841,2.165,2.165,0,0,0,.63-1.683,1.249,1.249,0,0,0-1.014-1.171.842.842,0,0,0-.679.306,1.41,1.41,0,0,0-.324.686,2,2,0,0,0,.315,1.392,2.732,2.732,0,0,0,.957.891,3.394,3.394,0,0,0,2.074.331,6.211,6.211,0,0,0,1.322-.331c.294-.107.446-.173.45-.164" transform="translate(-230.176 -148.653)" fill="#fafafa"/><rect width="17.818" height="9.07" transform="translate(202.029 119.858)" fill="#ebebeb"/><path d="M440.378,258.242a78.5,78.5,0,0,1,0,8.78,78.481,78.481,0,0,1,0-8.78" transform="translate(-235.388 -138.073)" fill="#e0e0e0"/><path d="M443.28,258a76.2,76.2,0,0,1,0,8.667,76.5,76.5,0,0,1,0-8.667" transform="translate(-236.94 -137.943)" fill="#e0e0e0"/><path d="M467.977,257.374a84.856,84.856,0,0,1,0,9.127,84.814,84.814,0,0,1,0-9.127" transform="translate(-250.144 -137.608)" fill="#e0e0e0"/><path d="M464.566,257.637a80.518,80.518,0,0,1,0,8.892,80.5,80.5,0,0,1,0-8.892" transform="translate(-248.321 -137.749)" fill="#e0e0e0"/><rect width="120.12" height="79.678" transform="translate(95.944 16.596)" fill="#e0e0e0"/><path d="M0,24.3A20.354,20.354,0,1,1,20.68,44.418,20.428,20.428,0,0,1,0,24.3m30.081-.485a9.732,9.732,0,1,0-9.574,9.933,9.763,9.763,0,0,0,9.574-9.933" transform="translate(0 -1.885)" fill="#f5f5f5"/><path d="M0,24.306A20.427,20.427,0,0,1,20.026,3.533L20.2,14.2a9.777,9.777,0,0,0,.313,19.551l.17,10.669A20.42,20.42,0,0,1,0,24.306" transform="translate(0 -1.889)" fill="#529d2e"/><path d="M39.11,0A23.255,23.255,0,0,1,62.922,23.169l-12.425.2c-.1-6.306-4.9-10.276-11.176-10.175Z" transform="translate(-20.911 0)" fill="#fff"/><path d="M207.951,387.715a2.874,2.874,0,0,1-.79-3.523,3.138,3.138,0,0,1,1.665-1.173,6.766,6.766,0,0,0,1.825-.946c.99-.842,1.263-2.241,1.92-3.364a4.2,4.2,0,0,1,3.649-2.188,4.607,4.607,0,0,1,3.767,3.054,13.655,13.655,0,0,1,.68,5.06,3.47,3.47,0,0,1-.73,2.654,3.419,3.419,0,0,1-2.475.57l-9.307-.286" transform="translate(-110.585 -201.311)" fill="#f5f5f5"/><path d="M219.37,345.582H194.894l4.409,26.29a2.936,2.936,0,0,0,2.09,2.341c.028.009.057.015.086.023.073.019.143.043.218.056a3.027,3.027,0,0,0,.5.057l0,.025.119-.019h10.909a3.065,3.065,0,0,0,.6-.06,2.947,2.947,0,0,0,2.476-2.569l2.126-18.114.1-.72h-.012l.842-7.174Zm-4.618,16.77h-2.512l.254-7.63h2.91Zm.9-7.63h2.4l-.9,7.63H215Zm-7.176,16.088-.153-6.628h3.617l-.22,6.628Zm-3.911-6.628h3.515l.153,6.628h-3.152Zm.272,6.628h-2.947c-.28-1.79-.645-4.115-1.039-6.628h3.47Zm-.414-8.458-.593-7.63h4.032l.176,7.63Zm3.858,0-.176-7.63h4.149l-.253,7.63Zm-.218-9.46-.163-7.066h4.65l-.235,7.066Zm-.243,0h-4.132l-.549-7.066h4.518Zm-4.376,0h-4.372c-.154-.976-.3-1.9-.434-2.731-.456-2.857-.627-3.931-.722-4.336h4.979Zm.142,1.83.593,7.63h-3.615c-.122-.774-.245-1.557-.368-2.341-.283-1.8-.567-3.6-.834-5.289Zm-3.269,7.63h-2.362l-1.28-7.63h2.439c.373,2.358.786,4.982,1.2,7.63m.288,1.83c.36,2.294.714,4.555,1.039,6.628h-2.269l-1.112-6.628Zm11.358,6.628.22-6.628H214.6l-.566,6.628Zm.6-17.918.235-7.066h3.375l-.6,7.066Zm-14.874-7.066c.1.511.544,3.291,1.142,7.066h-2.457l-1.185-7.066Zm18.485,24.984h-1.892l.566-6.628h2.1Zm2.1-17.918H215.8l.6-7.066H219.1Z" transform="translate(-104.203 -184.77)" fill="#e0e0e0"/><rect width="5.27" height="21.053" transform="translate(287.017 29.014)" fill="#e0e0e0"/><rect width="5.27" height="16.461" transform="translate(294.768 33.606)" fill="#e0e0e0"/><rect width="5.27" height="12.7" transform="translate(302.637 37.367)" fill="#e0e0e0"/><rect width="5.27" height="7.542" transform="translate(309.922 42.525)" fill="#e0e0e0"/><path d="M624.06,158.285a18.237,18.237,0,0,0-25.639.868,17.974,17.974,0,0,0,.873,25.484,18.237,18.237,0,0,0,25.639-.868,17.975,17.975,0,0,0-.873-25.484m-6.045,19.061a8.72,8.72,0,0,1-12.259.415,8.594,8.594,0,0,1-.417-12.185,8.72,8.72,0,0,1,12.259-.415,8.594,8.594,0,0,1,.417,12.185" transform="translate(-317.347 -82.038)" fill="#f5f5f5"/><path d="M598.421,159.153a18.238,18.238,0,0,1,25.639-.868l-6.462,6.876a8.721,8.721,0,0,0-12.259.415,8.594,8.594,0,0,0,.417,12.185l-6.462,6.877a17.975,17.975,0,0,1-.873-25.485" transform="translate(-317.347 -82.038)" fill="#ebebeb"/><path d="M649,157.52c8.954,8.314,10.026,21.83,1.662,30.729l-9.083-7.867c4-4.256,4.868-9.938.587-13.913Z" transform="translate(-343.029 -84.22)" fill="#fafafa"/><path d="M179.078,242.426H130.686a1.5,1.5,0,0,1-1.5-1.5V229.452a1.5,1.5,0,0,1,1.5-1.5h48.392a1.5,1.5,0,0,1,1.5,1.5v11.471a1.5,1.5,0,0,1-1.5,1.5" transform="translate(-69.069 -121.876)" fill="#e0e0e0"/><path d="M146.059,242.816a3.122,3.122,0,0,1-4.4.486,3.156,3.156,0,0,1-.484-4.423,3.122,3.122,0,0,1,4.4-.486,3.156,3.156,0,0,1,.484,4.423" transform="translate(-75.111 -127.09)" fill="#f5f5f5"/><path d="M146.949,242.164a12.7,12.7,0,0,1-1.684,1.819l-.414.4-.085.082-.081-.083a8.862,8.862,0,0,1-1.257-1.43,8.814,8.814,0,0,1,1.424,1.263h-.166l.41-.405a12.778,12.778,0,0,1,1.853-1.647" transform="translate(-76.685 -129.475)" fill="#e0e0e0"/><path d="M193.359,240.985c0,.067-6.9.121-15.407.121s-15.408-.054-15.408-.121,6.9-.121,15.408-.121,15.407.054,15.407.121" transform="translate(-86.906 -128.781)" fill="#fafafa"/><path d="M193.65,246.619c0,.067-6.9.121-15.407.121s-15.408-.054-15.408-.121,6.9-.121,15.408-.121,15.407.054,15.407.121" transform="translate(-87.062 -131.793)" fill="#fafafa"/><path d="M576.777,250.859l-.941,73.059H617.87V251.856Z" transform="translate(-307.878 -134.125)" fill="#f5f5f5"/><path d="M626.095,252.039l-.372,72.51h18.82V252.486Z" transform="translate(-334.551 -134.756)" fill="#e0e0e0"/><path d="M580.7,253.686v14.943h19.911V254.392Z" transform="translate(-310.478 -135.636)" fill="#e0e0e0"/><path d="M595.448,262.289V264.5h6.092v-2.408Z" transform="translate(-318.364 -140.129)" fill="#f5f5f5"/><rect width="6.291" height="0.903" transform="translate(277.084 126.223)" fill="#f5f5f5"/><path d="M580.7,366.214v14.943h19.911V366.921Z" transform="translate(-310.478 -195.801)" fill="#e0e0e0"/><path d="M595.448,374.818v2.208h6.092v-2.408Z" transform="translate(-318.364 -200.294)" fill="#f5f5f5"/><rect width="6.291" height="0.903" transform="translate(277.084 178.587)" fill="#f5f5f5"/><path d="M580.7,289.885v14.943h19.911V290.592Z" transform="translate(-310.478 -154.991)" fill="#e0e0e0"/><path d="M595.448,298.489V300.7h6.092v-2.408Z" transform="translate(-318.364 -159.484)" fill="#f5f5f5"/><rect width="6.291" height="0.903" transform="translate(277.084 143.068)" fill="#f5f5f5"/><rect width="19.91" height="14.943" transform="translate(269.96 152.786)" fill="#e0e0e0"/><path d="M595.179,342.591v2.075h5.726V342.4Z" transform="translate(-318.221 -183.07)" fill="#f5f5f5"/><rect width="5.914" height="0.849" transform="translate(276.959 163.34)" fill="#f5f5f5"/></g><g clip-path="url(#a)"><path d="M315.854,406.361c0,.067-68.919.121-153.915.121-85.025,0-153.93-.054-153.93-.121s68.9-.121,153.93-.121c85,0,153.915.054,153.915.121" transform="translate(-4.283 -217.202)" fill="#263238"/></g><rect width="124.398" height="81.595" transform="translate(88.742 18.595)" fill="#fafafa"/><g clip-path="url(#a)"><path d="M314.963,121.417c0-.785-.038-31.829-.1-81.594l.1.1-124.388.025h-.01l.121-.121c0,29.017-.007,56.631-.01,81.594l-.111-.111,124.4.111-124.4.111h-.111v-.111c0-24.963-.007-52.577-.01-81.594V39.7h.131l124.388.025h.1v.1c-.059,49.765-.1,80.809-.1,81.594" transform="translate(-101.823 -21.227)" fill="#263238"/><path d="M272.323,136.792l12.236.168A12.182,12.182,0,0,1,272.323,148.8h-.072Z" transform="translate(-145.563 -73.138)" fill="#455a64"/><path d="M297.508,161.685a1.2,1.2,0,0,1-.262.021l-.748.02-2.734.032h-.034l-.022-.028-4.036-5.085-3.254-4.149.063.031-3.6-.033-1.007-.022a1.912,1.912,0,0,1-.356-.025,1.948,1.948,0,0,1,.356-.024l1.007-.022,3.6-.034h.039l.025.031,3.275,4.132,4,5.112-.057-.027,2.734.032.748.02a1.2,1.2,0,0,1,.262.021" transform="translate(-150.516 -81.464)" fill="#263238"/><path d="M316.217,175.318c0,.052-1.772.094-3.959.094s-3.959-.042-3.959-.094,1.772-.094,3.959-.094,3.959.042,3.959.094" transform="translate(-164.836 -93.686)" fill="#263238"/><path d="M316.217,178.469c0,.052-1.772.094-3.959.094s-3.959-.042-3.959-.094,1.772-.094,3.959-.094,3.959.042,3.959.094" transform="translate(-164.836 -95.371)" fill="#263238"/><path d="M254.186,119.258l-.172,12a12.007,12.007,0,1,1,12.409-12Z" transform="translate(-129.361 -57.345)" fill="#529d2e"/><path d="M245.285,116.011a.8.8,0,0,1-.213.05l-.608.1-2.2.309-.036.005-.027-.027-2.932-2.852c-1.409-1.382-2.676-2.64-3.587-3.557l-1.072-1.093a3.256,3.256,0,0,1-.375-.419,3.187,3.187,0,0,1,.426.367l1.114,1.051c.935.893,2.217,2.136,3.625,3.517l2.908,2.876-.063-.021,2.206-.243.614-.056a.792.792,0,0,1,.218,0" transform="translate(-125.237 -58.023)" fill="#263238"/><path d="M218.48,107.281c0,.052-1.772.094-3.959.094s-3.959-.042-3.959-.094,1.772-.094,3.959-.094,3.959.042,3.959.094" transform="translate(-112.58 -57.309)" fill="#263238"/><path d="M218.48,110.432c0,.052-1.772.094-3.959.094s-3.959-.042-3.959-.094,1.772-.094,3.959-.094,3.959.042,3.959.094" transform="translate(-112.58 -58.994)" fill="#263238"/><path d="M349.638,73.52l-.048-7.459a9.518,9.518,0,0,0-6.154,2.4,8.824,8.824,0,0,0-2.966,7.725,10.5,10.5,0,0,0,.174,1.084c0,.008,0,.017,0,.026h0l8.987-2.022Z" transform="translate(-182.006 -35.32)" fill="#c2e8b0"/><path d="M370.6,71.257a8.848,8.848,0,0,0-7.254-5.078c-.094-.009-.189-.018-.285-.025-.06,0-.12-.011-.181-.014q-.267-.015-.542-.016h-.048l.048,7.459.012,1.753,8.99,1.961.011,0a8.884,8.884,0,0,0,.2-1.934,9.677,9.677,0,0,0-.951-4.109" transform="translate(-193.701 -35.354)" fill="#85d161"/><path d="M350.947,87.858l-8.988,2.022a9.212,9.212,0,0,0,17.989-.061l-8.99-1.962" transform="translate(-182.833 -46.974)" fill="#529d2e"/><path d="M412.6,84.833c0,.067-4.647.121-10.378.121s-10.378-.054-10.378-.121,4.646-.121,10.378-.121,10.378.054,10.378.121" transform="translate(-209.507 -45.292)" fill="#263238"/><path d="M412.6,79.749c0,.067-4.647.121-10.378.121s-10.378-.054-10.378-.121,4.646-.121,10.378-.121,10.378.054,10.378.121" transform="translate(-209.507 -42.574)" fill="#263238"/><path d="M412.6,74.665c0,.067-4.647.121-10.378.121s-10.378-.054-10.378-.121,4.646-.121,10.378-.121,10.378.054,10.378.121" transform="translate(-209.507 -39.856)" fill="#263238"/><path d="M412.6,89.563c0,.067-4.647.121-10.378.121s-10.378-.054-10.378-.121,4.646-.121,10.378-.121,10.378.054,10.378.121" transform="translate(-209.507 -47.821)" fill="#263238"/><path d="M406.262,94.711c0,.067-3.192.121-7.128.121s-7.128-.054-7.128-.121,3.191-.121,7.128-.121,7.128.054,7.128.121" transform="translate(-209.591 -50.574)" fill="#263238"/><rect width="2.138" height="23.876" transform="translate(160.575 61.262)" fill="#529d2e"/><rect width="2.138" height="15.767" transform="translate(164.702 69.372)" fill="#a4dc88"/><rect width="2.138" height="21.029" transform="translate(168.83 64.23)" fill="#529d2e"/><rect width="2.138" height="22.954" transform="translate(172.957 62.185)" fill="#a4dc88"/><rect width="2.138" height="15.281" transform="translate(177.084 69.857)" fill="#529d2e"/><rect width="2.138" height="12.284" transform="translate(181.212 72.854)" fill="#a4dc88"/><rect width="2.138" height="21.425" transform="translate(185.339 63.713)" fill="#529d2e"/><rect width="2.138" height="17.562" transform="translate(189.466 67.576)" fill="#a4dc88"/><rect width="2.138" height="20.649" transform="translate(193.594 64.489)" fill="#529d2e"/><rect width="2.138" height="14.068" transform="translate(197.721 71.07)" fill="#a4dc88"/><rect width="2.138" height="16.745" transform="translate(201.849 68.394)" fill="#529d2e"/><path d="M388.193,186.433c0,.048-10.141.088-22.647.088s-22.649-.04-22.649-.088,10.139-.088,22.649-.088,22.647.04,22.647.088" transform="translate(-183.334 -99.632)" fill="#263238"/><path d="M347.979,190.472a14.354,14.354,0,0,1-3.173,0,14.354,14.354,0,0,1,3.173,0" transform="translate(-184.355 -101.791)" fill="#263238"/><path d="M358.578,190.678a20.48,20.48,0,0,1-3.792,0,20.48,20.48,0,0,1,3.792,0" transform="translate(-189.691 -101.902)" fill="#263238"/><path d="M368.224,190.678a20.481,20.481,0,0,1-3.792,0,20.481,20.481,0,0,1,3.792,0" transform="translate(-194.848 -101.902)" fill="#263238"/><path d="M377.87,190.678a20.481,20.481,0,0,1-3.792,0,20.481,20.481,0,0,1,3.792,0" transform="translate(-200.006 -101.902)" fill="#263238"/><path d="M387.516,190.678a20.481,20.481,0,0,1-3.792,0,20.481,20.481,0,0,1,3.792,0" transform="translate(-205.163 -101.902)" fill="#263238"/><path d="M397.162,190.678a20.481,20.481,0,0,1-3.792,0,20.481,20.481,0,0,1,3.792,0" transform="translate(-210.321 -101.902)" fill="#263238"/><path d="M406.808,190.678a20.481,20.481,0,0,1-3.792,0,20.481,20.481,0,0,1,3.792,0" transform="translate(-215.478 -101.902)" fill="#263238"/><path d="M416.455,190.678a20.481,20.481,0,0,1-3.792,0,20.481,20.481,0,0,1,3.792,0" transform="translate(-220.636 -101.902)" fill="#263238"/><path d="M426.1,190.678a20.481,20.481,0,0,1-3.792,0,20.481,20.481,0,0,1,3.792,0" transform="translate(-225.793 -101.902)" fill="#263238"/><path d="M435.747,190.678a20.481,20.481,0,0,1-3.792,0,20.481,20.481,0,0,1,3.792,0" transform="translate(-230.951 -101.902)" fill="#263238"/><path d="M218.455,70.555A2.058,2.058,0,1,1,216.4,68.5a2.058,2.058,0,0,1,2.058,2.058" transform="translate(-114.6 -36.623)" fill="#529d2e"/><path d="M263.6,69.292c0,.067-6.939.121-15.5.121s-15.5-.054-15.5-.121,6.937-.121,15.5-.121,15.5.054,15.5.121" transform="translate(-124.369 -36.983)" fill="#529d2e"/><path d="M245.313,74.639a1.854,1.854,0,0,1-.48.047c-.309.015-.756.028-1.309.039-1.105.022-2.632.035-4.318.035s-3.214-.014-4.32-.035c-.552-.011-1-.024-1.309-.039a1.852,1.852,0,0,1-.48-.047,1.852,1.852,0,0,1,.48-.047c.309-.014.757-.028,1.309-.039,1.106-.022,2.632-.035,4.32-.035s3.213.013,4.318.035c.553.011,1,.024,1.309.039a1.854,1.854,0,0,1,.48.047" transform="translate(-124.628 -39.842)" fill="#529d2e"/><rect width="65.106" height="74.304" transform="translate(21.103 25.982)" fill="#fafafa"/><path d="M110.316,130s0-.121-.006-.353,0-.58-.006-1.033c0-.912-.007-2.258-.013-4.01-.007-3.508-.016-8.641-.028-15.161-.013-13.028-.032-31.59-.054-53.747l.107.107-65.1.014h-.007l.121-.121c-.007,27.395-.013,52.941-.019,74.3l-.1-.1,47.222.053,13.2.027,3.48.012c.788,0,1.2.011,1.2.011s-.4.007-1.178.012l-3.461.012-13.18.027-47.287.053h-.1V130c-.006-21.363-.012-46.909-.019-74.3v-.121h.128l65.1.014h.107v.107c-.022,22.185-.041,40.772-.054,53.816-.012,6.509-.022,11.634-.028,15.136-.005,1.744-.009,3.082-.013,3.989q0,.671-.006,1.021c0,.228-.006.341-.006.341" transform="translate(-24.107 -29.713)" fill="#263238"/><path d="M114.035,135.441c-.021.044-.721-.361-2.094-.8a13.46,13.46,0,0,0-6-.445,13.115,13.115,0,0,0-3.96,1.273,18.618,18.618,0,0,0-3.893,2.8c-1.277,1.127-2.544,2.406-4.007,3.589a13.81,13.81,0,0,1-5.113,2.767,7.733,7.733,0,0,1-2.986.18,9.683,9.683,0,0,1-2.766-.854,48.278,48.278,0,0,1-4.634-2.755,14.45,14.45,0,0,0-4.358-1.954,12.942,12.942,0,0,0-4.146-.318,13.352,13.352,0,0,0-5.723,1.863c-1.228.751-1.807,1.315-1.84,1.275a2.848,2.848,0,0,1,.416-.409,9.916,9.916,0,0,1,1.332-1.014,13.059,13.059,0,0,1,10.047-1.757,14.684,14.684,0,0,1,4.486,1.962,49.467,49.467,0,0,0,4.6,2.71,7.882,7.882,0,0,0,5.46.639,13.5,13.5,0,0,0,4.949-2.676c1.439-1.156,2.712-2.428,4.007-3.557a18.773,18.773,0,0,1,4-2.822A13.264,13.264,0,0,1,112,134.481a10.705,10.705,0,0,1,1.537.662,2.914,2.914,0,0,1,.5.3" transform="translate(-33.423 -71.519)" fill="#529d2e"/><rect width="5.535" height="14.97" transform="translate(39.023 73.901)" fill="#529d2e"/><rect width="5.535" height="14.97" transform="translate(62.51 73.901)" fill="#529d2e"/><rect width="5.535" height="23.761" transform="translate(70.339 65.11)" fill="#529d2e"/><rect width="5.535" height="5.038" transform="translate(31.86 84.159)" fill="#529d2e"/><rect width="5.535" height="8.21" transform="translate(46.851 80.661)" fill="#529d2e"/><rect width="5.535" height="10.095" transform="translate(54.681 78.777)" fill="#529d2e"/><path d="M89.361,194.519a10.244,10.244,0,0,1-2.99.222,10.246,10.246,0,0,1-2.991-.222,10.246,10.246,0,0,1,2.991-.222,10.244,10.244,0,0,1,2.99.222" transform="translate(-44.58 -103.883)" fill="#263238"/><path d="M74.559,194.519a10.249,10.249,0,0,1-2.99.222,10.248,10.248,0,0,1-2.991-.222,10.248,10.248,0,0,1,2.991-.222,10.249,10.249,0,0,1,2.99.222" transform="translate(-36.666 -103.883)" fill="#263238"/><path d="M157.628,194.519a13.038,13.038,0,0,1-3.38.222,13.035,13.035,0,0,1-3.381-.222,13.035,13.035,0,0,1,3.381-.222,13.038,13.038,0,0,1,3.38.222" transform="translate(-80.663 -103.883)" fill="#263238"/><path d="M139.958,194.519a13.041,13.041,0,0,1-3.381.222,13.035,13.035,0,0,1-3.38-.222,13.035,13.035,0,0,1,3.38-.222,13.041,13.041,0,0,1,3.381.222" transform="translate(-71.216 -103.883)" fill="#263238"/><path d="M122.531,194.519a10.236,10.236,0,0,1-2.99.223,10.235,10.235,0,0,1-2.991-.223,10.246,10.246,0,0,1,2.991-.222,10.246,10.246,0,0,1,2.99.222" transform="translate(-62.315 -103.883)" fill="#263238"/><path d="M105.148,194.519a10.236,10.236,0,0,1-2.99.223,10.235,10.235,0,0,1-2.991-.223,10.246,10.246,0,0,1,2.991-.222,10.246,10.246,0,0,1,2.99.222" transform="translate(-53.021 -103.883)" fill="#263238"/><rect width="45.235" height="18.786" transform="translate(31.729 36.814)" fill="#e0e0e0"/><path d="M83.536,89.449a2.109,2.109,0,1,1-2.109-2.109,2.109,2.109,0,0,1,2.109,2.109" transform="translate(-42.408 -46.698)" fill="#263238"/><rect width="14.693" height="0.816" transform="translate(43.236 41.295)" fill="#263238"/><rect width="28.584" height="0.816" transform="translate(43.236 43.149)" fill="#fff"/><path d="M83.536,103.381a2.109,2.109,0,1,1-2.109-2.109,2.109,2.109,0,0,1,2.109,2.109" transform="translate(-42.408 -54.146)" fill="#529d2e"/><rect width="7.504" height="0.816" transform="translate(43.236 47.778)" fill="#529d2e"/><rect width="28.584" height="0.816" transform="translate(43.236 49.632)" fill="#fff"/><rect width="71.495" height="81.595" transform="translate(219.243 12.643)" fill="#fafafa"/><path d="M542.506,108.626s0-.133-.006-.388,0-.636-.006-1.133c0-1-.007-2.478-.013-4.4-.006-3.851-.016-9.488-.028-16.646-.013-14.306-.032-34.692-.054-59.025l.107.107-71.487.014h-.007l.121-.121c-.007,30.083-.013,58.135-.019,81.595l-.1-.1,51.859.053,14.5.027,3.82.012c.866,0,1.317.012,1.317.012s-.437.007-1.3.011l-3.8.012-14.475.027-51.924.053h-.1v-.1c-.005-23.459-.012-51.512-.019-81.595V26.91h.128l71.487.014h.107v.107c-.022,24.361-.041,44.77-.054,59.094-.012,7.148-.022,12.777-.028,16.623-.005,1.915-.01,3.386-.013,4.382,0,.492,0,.867-.006,1.121s-.006.376-.006.376" transform="translate(-251.768 -14.388)" fill="#263238"/><rect width="57.918" height="46.462" transform="translate(224.963 19.167)" fill="#e0e0e0"/><rect width="1.901" height="0.548" transform="translate(229.011 57.368)" fill="#263238"/><rect width="2.431" height="0.548" transform="translate(233.311 60.297)" fill="#263238"/><rect width="2.431" height="0.548" transform="translate(241.774 60.297)" fill="#263238"/><rect width="2.431" height="0.548" transform="translate(250.236 60.297)" fill="#263238"/><rect width="2.431" height="0.548" transform="translate(258.698 60.297)" fill="#263238"/><rect width="2.431" height="0.548" transform="translate(267.16 60.297)" fill="#263238"/><rect width="2.431" height="0.548" transform="translate(275.622 60.297)" fill="#263238"/><rect width="1.901" height="0.548" transform="translate(229.011 50.053)" fill="#263238"/><rect width="1.901" height="0.548" transform="translate(229.011 36.284)" fill="#263238"/><rect width="1.901" height="0.548" transform="translate(229.011 29.364)" fill="#263238"/><rect width="1.901" height="0.548" transform="translate(229.107 43.168)" fill="#263238"/><path d="M544.3,86.706a1.268,1.268,0,0,1-.2.013l-.6.012-2.3.022-8.459.039-27.908.035H498.1v-.12c.016-9.329.031-17.539.041-23.431.015-2.931.027-5.285.036-6.92.009-.8.016-1.426.021-1.862,0-.2.008-.363.011-.482a.083.083,0,1,1,.022,0c0,.119.006.278.011.482,0,.436.012,1.061.02,1.862.009,1.634.021,3.988.036,6.92.01,5.891.025,14.1.041,23.431l-.12-.12h6.613l27.908.035,8.459.039,2.3.023.6.012a1.4,1.4,0,0,1,.2.012" transform="translate(-266.315 -28.791)" fill="#263238"/><path d="M547.086,93.217c0,.067-10.025.121-22.388.121s-22.391-.054-22.391-.121S512.33,93.1,524.7,93.1s22.388.054,22.388.121" transform="translate(-268.565 -49.775)" fill="#263238"/><path d="M547.086,78.422c0,.067-10.025.121-22.388.121s-22.391-.054-22.391-.121S512.33,78.3,524.7,78.3s22.388.054,22.388.121" transform="translate(-268.565 -41.865)" fill="#263238"/><path d="M547.086,63.552c0,.067-10.025.121-22.388.121s-22.391-.054-22.391-.121,10.023-.121,22.391-.121,22.388.054,22.388.121" transform="translate(-268.565 -33.914)" fill="#263238"/><path d="M547.086,108.012c0,.067-10.025.121-22.388.121s-22.391-.054-22.391-.121,10.023-.121,22.391-.121,22.388.054,22.388.121" transform="translate(-268.565 -57.685)" fill="#263238"/><path d="M503.3,85.808V79.7l3.807-5.91,2.583,1.982,5.3-8.237,3.127,2.2,4.351-7.6,3.535,2.88,5.3-10.08,5.711,11.266,4.623-5.637,5.439-1.557v26.8Z" transform="translate(-269.096 -29.374)" fill="#455a64"/><path d="M547.616,58.953a.386.386,0,0,1-.1.009l-.283.009-1.1.018-4.173.032.053-.027-4.466,5.85-.028.037h-.048l-11.2.021.1-.057-4.706,7.838-4.623,7.681-.091.151-.1-.142-6.061-8.343.163-.005L505.41,80.64l-1.549,2.379-.412.62c-.094.139-.15.207-.15.207s.038-.079.124-.223l.388-.636,1.5-2.408,5.471-8.66.077-.122.086.117,6.09,8.322-.194.008,4.615-7.686,4.714-7.833.034-.056h.066l11.2.02-.076.038,4.511-5.815.02-.027h.033l4.173.032,1.1.018.283.009a.386.386,0,0,1,.1.009" transform="translate(-269.096 -31.484)" fill="#e8505b"/><path d="M522.524,90.741a.43.43,0,1,1-.43-.414.422.422,0,0,1,.43.414" transform="translate(-278.915 -48.295)" fill="#e8505b"/><path d="M550.278,74.966a.43.43,0,1,1-.43-.414.422.422,0,0,1,.43.414" transform="translate(-293.754 -39.86)" fill="#e8505b"/><path d="M571.854,71.09a.43.43,0,1,1-.43-.414.422.422,0,0,1,.43.414" transform="translate(-305.29 -37.788)" fill="#e8505b"/><path d="M539.574,155.74c0,.067-12.222.121-27.294.121s-27.3-.054-27.3-.121,12.219-.121,27.3-.121,27.294.054,27.294.121" transform="translate(-259.303 -83.204)" fill="#263238"/><path d="M539.574,162.082c0,.067-12.222.121-27.294.121s-27.3-.054-27.3-.121,12.219-.121,27.3-.121,27.294.054,27.294.121" transform="translate(-259.303 -86.595)" fill="#263238"/><path d="M539.574,168.424c0,.067-12.222.121-27.294.121s-27.3-.054-27.3-.121,12.219-.121,27.3-.121,27.294.054,27.294.121" transform="translate(-259.303 -89.985)" fill="#263238"/><path d="M539.574,174.767c0,.067-12.222.121-27.294.121s-27.3-.054-27.3-.121,12.219-.121,27.3-.121,27.294.054,27.294.121" transform="translate(-259.303 -93.377)" fill="#263238"/></g><g clip-path="url(#a)"><path d="M550.995,153.481c1.494-2.507,1.929-5.851,2.313-8.744.181-1.362.5-3.3-.458-4.155-1.023-.916-1.118-2.323-2.3-3.031a3.622,3.622,0,0,0-3.89.032" transform="translate(-292.282 -73.249)" fill="#263238"/><path d="M537.627,163.946h0a4.03,4.03,0,0,1-4.335-3.864c-.084-2.194-.158-4.411-.158-4.411a3.959,3.959,0,0,1-3.565-3.6c-.241-3.29-.131-10.885-.131-10.885a11.463,11.463,0,0,1,11.586.745l-.2,11.578v6.229c-.022,2.089-1.108,4.049-3.191,4.209" transform="translate(-283.057 -74.831)" fill="#ffbe9d"/><path d="M529.676,144.884a1.686,1.686,0,0,1,2.248-.491,1.912,1.912,0,0,1,.637,2.391A2.52,2.52,0,0,1,530.947,148a1.263,1.263,0,0,0-.989,1.36c.094.826,1.468,1.136,2.088,1.819.964,1.063,3.081,1.513,4.506,1.682,1.4.166,1.232.179,2.047-.973a4.417,4.417,0,0,0,.8-2.671q.075-3.639.15-7.277a10.4,10.4,0,0,0-.166-2.611,3.5,3.5,0,0,0-1.377-2.159,10.757,10.757,0,0,0-2.725-.866,22.529,22.529,0,0,1-3.173-1.67,3.9,3.9,0,0,0-3.443-.334c-.768.386-1.283,1.152-2.03,1.577-1.064.6-2.511.468-3.028,2.031a2.651,2.651,0,0,0,.018,1.673,3.866,3.866,0,0,0,5.255,2.067,5.215,5.215,0,0,0,.062,2.3c.121.364.164.919.733.929" transform="translate(-279.886 -71.661)" fill="#263238"/><path d="M538.045,159.93c.025-.021.137.174.411.157a.765.765,0,0,0,.615-.751.822.822,0,0,0-.564-.819c-.271-.1-.465-.049-.473-.087-.014-.022.181-.148.521-.078a.985.985,0,0,1,.517.3.954.954,0,0,1,.243.7.908.908,0,0,1-.856.91.493.493,0,0,1-.368-.185c-.058-.081-.058-.138-.044-.143" transform="translate(-287.666 -84.654)" fill="#eb996e"/><path d="M545.416,139.656c-.008-.007.071-.126.275-.279a2.207,2.207,0,0,1,1-.389,2.88,2.88,0,0,1,1.575.24,3.608,3.608,0,0,1,1.451,1.3,7.366,7.366,0,0,1,1.022,3.331,8.6,8.6,0,0,1,.087,1.436,8.31,8.31,0,0,1-.257-1.415,7.952,7.952,0,0,0-1.054-3.219,3.513,3.513,0,0,0-1.345-1.23,2.641,2.641,0,0,0-2.754.226" transform="translate(-291.614 -74.299)" fill="#455a64"/><path d="M524.4,142.223c0,.007-.045.009-.125-.009a.95.95,0,0,1-.328-.148,1.2,1.2,0,0,1-.382-.429,1.093,1.093,0,0,1-.1-.762,1.247,1.247,0,0,1,.533-.768,1.788,1.788,0,0,1,1.04-.2,1.435,1.435,0,0,0,.993-.251,7.161,7.161,0,0,0,.8-.867,4.1,4.1,0,0,1,2.048-1.182,4.352,4.352,0,0,1,1.931-.043,3.727,3.727,0,0,1,1.213.466,1.41,1.41,0,0,1,.376.29,5.669,5.669,0,0,0-1.62-.588,4.385,4.385,0,0,0-1.845.091,3.983,3.983,0,0,0-1.925,1.13,6.894,6.894,0,0,1-.84.893,1.356,1.356,0,0,1-.566.254,2.693,2.693,0,0,1-.572.03,1.621,1.621,0,0,0-.931.151,1.085,1.085,0,0,0-.474.638,1.06,1.06,0,0,0,.375,1.075,2.6,2.6,0,0,0,.4.232" transform="translate(-279.861 -73.501)" fill="#455a64"/><path d="M541,155.525c-.008-.02.166-.081.435-.262a2.718,2.718,0,0,0,.9-1,2.534,2.534,0,0,0-.447-2.917,4.752,4.752,0,0,0-1.028-.752c-.384-.223-.776-.431-1.133-.674a3.836,3.836,0,0,1-.911-.858,3.976,3.976,0,0,1-.77-1.947,3.605,3.605,0,0,1,.108-1.406,2.108,2.108,0,0,1,.131-.36c.037-.08.06-.119.067-.116a4.882,4.882,0,0,0-.136,1.859,3.937,3.937,0,0,0,.777,1.833,3.678,3.678,0,0,0,.867.8c.344.231.73.434,1.121.662a4.845,4.845,0,0,1,1.076.8,2.671,2.671,0,0,1,.64,1.087,2.621,2.621,0,0,1-1.212,3.076,1.169,1.169,0,0,1-.484.182" transform="translate(-287.656 -77.65)" fill="#455a64"/><path d="M547.739,150.364a1.478,1.478,0,0,1-.424.094,6.133,6.133,0,0,1-1.182.036,7.326,7.326,0,0,1-3.67-1.262,5.81,5.81,0,0,1-2.407-3.029,2.5,2.5,0,0,1-.049-1.192.952.952,0,0,1,.163-.4,2.906,2.906,0,0,0,.05,1.549,5.97,5.97,0,0,0,2.379,2.877,7.707,7.707,0,0,0,3.548,1.291c.976.107,1.588-.009,1.592.04" transform="translate(-288.695 -77.316)" fill="#455a64"/><path d="M557.231,149.766a5.811,5.811,0,0,1,4.535-2.054,4.177,4.177,0,0,1,3.805,2.946,10.482,10.482,0,0,1-.232,3.843c-.162,1.282-.005,2.781,1.041,3.541a6.054,6.054,0,0,0,2.2.725,2.41,2.41,0,0,1,1.826,1.3,1.853,1.853,0,0,1-1.133,2.155,4.17,4.17,0,0,1-2.632.036,2.2,2.2,0,0,1-.976,2.637,2.914,2.914,0,0,1-2.922-.122,4.361,4.361,0,0,1-1.785-2.419,2.169,2.169,0,0,1-2.992.569,3.138,3.138,0,0,1-1.21-3.008,5.868,5.868,0,0,1,1.516-3.007,7.434,7.434,0,0,0,1.059-1.349,1.717,1.717,0,0,0,.067-1.644,1,1,0,0,0-1.464-.294" transform="translate(-297.663 -78.972)" fill="#263238"/><path d="M559.239,154.27a1.133,1.133,0,0,1-.989-.012,2.38,2.38,0,0,1-1.435-1.873,2.451,2.451,0,0,1,.157-1.335,2.545,2.545,0,0,1,.63-.893,1.615,1.615,0,0,1,.865-.482,7.717,7.717,0,0,0-.745.6,2.437,2.437,0,0,0-.668,2.069,2.1,2.1,0,0,0,2.184,1.922" transform="translate(-297.692 -80.024)" fill="#e8505b"/><path d="M533.046,169.972a1.556,1.556,0,0,1-.751-.074,4.051,4.051,0,0,1-2.666-2.353,1.549,1.549,0,0,1-.167-.736,4.739,4.739,0,0,1,.323.665,4.647,4.647,0,0,0,2.561,2.26,4.784,4.784,0,0,1,.7.238" transform="translate(-283.079 -89.186)" fill="#eb996e"/><path d="M560.785,166.082c0,.008-.057,0-.161-.024a1.611,1.611,0,0,1-.429-.191,2.338,2.338,0,0,1-.934-1.422,2.916,2.916,0,0,1-.041-1.2,4.807,4.807,0,0,1,.434-1.295c.415-.868,1.069-1.691,1.552-2.649a4.7,4.7,0,0,0,.487-1.464,2.833,2.833,0,0,0-1.827-3.05,3.029,3.029,0,0,0-1.628-.1c-.386.081-.583.19-.592.168s.043-.038.136-.09a2.324,2.324,0,0,1,.434-.169,2.918,2.918,0,0,1,3.528,1.761,3.008,3.008,0,0,1,.186,1.511,4.856,4.856,0,0,1-.505,1.543c-.5.99-1.158,1.8-1.569,2.639a3.518,3.518,0,0,0-.427,2.354,2.328,2.328,0,0,0,.821,1.383,4.322,4.322,0,0,0,.536.292" transform="translate(-298.153 -82.599)" fill="#455a64"/><path d="M565.765,167.971a.675.675,0,0,1-.208.012,2.318,2.318,0,0,1-.587-.105,3.3,3.3,0,0,1-1.713-1.336,5.075,5.075,0,0,1-.74-3.135,32.058,32.058,0,0,1,.634-3.9,9.121,9.121,0,0,0,.139-2,5.174,5.174,0,0,0-.421-1.8,3.28,3.28,0,0,0-2.309-1.927,4.8,4.8,0,0,0-2.118.007c-.5.111-.758.221-.766.2a.669.669,0,0,1,.183-.1,4.063,4.063,0,0,1,.561-.2,4.633,4.633,0,0,1,2.179-.083,3.486,3.486,0,0,1,1.391.625,3.545,3.545,0,0,1,1.083,1.377,5.316,5.316,0,0,1,.455,1.876,9.127,9.127,0,0,1-.136,2.058,34.747,34.747,0,0,0-.65,3.867,4.98,4.98,0,0,0,.659,3.03,3.311,3.311,0,0,0,1.6,1.341,4.938,4.938,0,0,0,.765.182" transform="translate(-298.168 -82.083)" fill="#455a64"/><path d="M569.137,216.772l-7.007,5.466,2.94,4.827,8.438-6.216Z" transform="translate(-300.551 -115.9)" fill="#ffbe9d"/><path d="M517.436,171.822s.034-.584-1.494-.669a15.827,15.827,0,0,0-1.7-.057,3.9,3.9,0,0,1-.731-1.417,4.249,4.249,0,0,1,.327-1.44l1.546-.142-.419-1.05-1.09.076-3.078.369-1.225,5.389-8.4,15.683a4.049,4.049,0,0,0,1.6,5.9c2.172,1.049,5.082-1.179,5.887-3.453l4.65-17.444,1.636-1.278,2.343-.43" transform="translate(-267.593 -89.314)" fill="#ffbe9d"/><path d="M495.752,313.952l11.439-65.806-.016,0c.024-.1.048-.189.072-.285l0-.012h0c1.946-7.719,4.947-10.193,4.947-10.193l17.505,1.1c1.488,2.676,1.677,9.095,1.677,9.095.2.787-3.7,64.55-3.7,64.55l-5.854-.161-3.175-60.327-17.036,62.3Z" transform="translate(-265.06 -127.064)" fill="#ffbe9d"/><path d="M490.756,402.207l.022-.595,6.022.174-.052,1.96-.372.012c-1.657.041-8.428.1-9.524-.242-1.222-.381,3.9-1.31,3.9-1.31" transform="translate(-260.201 -214.727)" fill="#e8505b"/><g transform="translate(234.375 187.371)" opacity="0.6"><g clip-path="url(#f)"><path d="M503.667,404.2a1.927,1.927,0,0,1,.8-1.168,2.131,2.131,0,0,1,1.414-.367l-.047,1.557Z" transform="translate(-503.667 -402.657)" fill="#fff"/></g></g><g transform="translate(226.443 188.016)" opacity="0.6"><g clip-path="url(#g)"><path d="M488.227,404.043s-1.8.431-1.586.71,7.059.459,10.086.293l-.006-.125-7.986-.147s-.16-.709-.508-.732" transform="translate(-486.623 -404.043)" fill="#fff"/></g></g><path d="M496.836,405.628a.558.558,0,0,1-.1.007l-.3.009-1.091.015c-.921.007-2.194,0-3.6-.036s-2.677-.095-3.6-.148l-1.088-.071-.3-.024a.609.609,0,0,1-.1-.013.571.571,0,0,1,.1,0l.3.012,1.089.049c.919.041,2.191.092,3.6.128s2.676.05,3.6.055l1.091.007.3,0a.617.617,0,0,1,.1.006" transform="translate(-260.201 -216.734)" fill="#263238"/><path d="M490.529,404.782a2.187,2.187,0,0,0-.189-.489,2.367,2.367,0,0,0-.359-.4.794.794,0,0,1,.423.364.706.706,0,0,1,.126.523" transform="translate(-261.974 -215.947)" fill="#263238"/><path d="M494.664,403.566c-.017.009-.1-.088-.182-.219s-.137-.244-.12-.254.1.088.182.219.137.244.12.254" transform="translate(-264.315 -215.519)" fill="#263238"/><path d="M495.653,403.25c-.014.014-.107-.047-.208-.137s-.171-.172-.157-.186.107.048.208.137.171.172.157.186" transform="translate(-264.812 -215.43)" fill="#263238"/><path d="M496.047,402.465a1.471,1.471,0,1,1-.313-.039.757.757,0,0,1,.313.039" transform="translate(-264.883 -215.163)" fill="#263238"/><path d="M496.2,401.712a.643.643,0,0,1-.352.085.651.651,0,0,1-.359-.054,2.1,2.1,0,0,1,.355-.014,2.075,2.075,0,0,1,.356-.018" transform="translate(-264.92 -214.777)" fill="#263238"/><path d="M493.323,402.454a1.2,1.2,0,0,1-.385-.013,2.415,2.415,0,0,1-.408-.094,1.194,1.194,0,0,1-.232-.1.2.2,0,0,1-.092-.114.137.137,0,0,1,.063-.141.738.738,0,0,1,.868.215.619.619,0,0,1,.118.242c.013.062.012.1.007.1a.971.971,0,0,0-.166-.31.7.7,0,0,0-.323-.208.639.639,0,0,0-.46.017c-.062.04-.04.108.027.147a1.22,1.22,0,0,0,.214.092,2.806,2.806,0,0,0,.394.106c.229.044.376.048.376.06" transform="translate(-263.163 -214.899)" fill="#263238"/><path d="M494.345,402.3a.334.334,0,0,1-.037-.25.561.561,0,0,1,.113-.259.392.392,0,0,1,.326-.174.142.142,0,0,1,.114.168.373.373,0,0,1-.07.158,1.1,1.1,0,0,1-.188.212.561.561,0,0,1-.225.139c-.007-.009.079-.062.188-.173a1.251,1.251,0,0,0,.168-.211c.055-.074.1-.209,0-.228a.349.349,0,0,0-.258.145.57.57,0,0,0-.116.23,1.236,1.236,0,0,0-.014.242" transform="translate(-264.286 -214.73)" fill="#263238"/><path d="M505.86,402.592c0,.013-.171-.02-.443,0a2.029,2.029,0,0,0-.978.345,1.818,1.818,0,0,0-.628.778c-.1.236-.112.4-.126.4a.29.29,0,0,1,0-.113,1.36,1.36,0,0,1,.074-.3,1.731,1.731,0,0,1,.632-.815,1.945,1.945,0,0,1,1.018-.338,1.671,1.671,0,0,1,.329.016.37.37,0,0,1,.117.028" transform="translate(-269.3 -215.226)" fill="#263238"/><path d="M500.067,404.727a5.291,5.291,0,0,1-1.752-.031c0-.02.393.013.876.021s.874-.01.876.01" transform="translate(-266.431 -216.373)" fill="#263238"/><path d="M504.4,404.829c.014.014-.034.076-.077.159s-.067.156-.088.154-.028-.089.022-.183.13-.143.142-.129" transform="translate(-269.588 -216.446)" fill="#263238"/><path d="M505.322,403.753c.014.013-.027.07-.09.127s-.127.092-.141.079.027-.07.091-.127.127-.092.141-.079" transform="translate(-270.052 -215.87)" fill="#263238"/><path d="M506.571,403.249c0,.019-.085.016-.173.043s-.154.068-.169.055.037-.088.148-.12.2,0,.194.022" transform="translate(-270.661 -215.584)" fill="#263238"/><path d="M507.735,403.061c.007.018-.028.045-.079.062s-.1.016-.1,0,.029-.045.079-.062.1-.016.1,0" transform="translate(-271.369 -215.495)" fill="#263238"/><path d="M558.656,181.286a11.533,11.533,0,0,1,4.633,1.825c5.535,3.588,14.791,11.175,14.023,14.688-.654,2.991-7.874,6.623-7.874,6.623l-4.689-5.639,2.874-1.644-7.066-4.7Z" transform="translate(-298.693 -96.927)" fill="#263238"/><path d="M530.484,192.327l-.23.841-.814,3.889-.2,5.7c4.2,5.406,4.261,9.957,4.261,9.957l-21.206,2.477a41.368,41.368,0,0,1,1.532-9.464c1.227-2.081,1.168-8.308.939-8.535-1.325-1.313-1.646-2.275-.588-3.957,0,0-6.574,6.906-7.251,7.526-2.322,2.129-4.557,1.536-5.594.61-2.9-2.591.077-5.933.077-5.933l11.073-12.691a5.515,5.515,0,0,1,2.878-1.754c1.18-.278,2.371-.42,2.371-.42l7.394.063a12.435,12.435,0,0,1,2.2.269,5.288,5.288,0,0,1,3.229,4,23.919,23.919,0,0,1-.073,7.421" transform="translate(-267.364 -96.545)" fill="#263238"/><path d="M564.213,194.909a2.972,2.972,0,0,1,.045.614c.01.4,0,.97-.04,1.678a44.528,44.528,0,0,1-.73,5.482c-.139.724-.285,1.421-.437,2.067l0-.023c-.065,1.647-.131,3.072-.187,4.084-.03.471-.055.865-.076,1.186a.216.216,0,1,1-.079,0c0-.321,0-.716.008-1.188.015-1.014.05-2.439.1-4.087v-.011l0-.012c.146-.641.288-1.338.426-2.058.4-2.114.672-4.046.8-5.45.064-.7.1-1.272.117-1.665a2.988,2.988,0,0,1,.049-.613" transform="translate(-300.862 -104.211)" fill="#455a64"/><path d="M566.09,207.158a88.311,88.311,0,0,1,7.6,5.262,88.408,88.408,0,0,1-7.6-5.262" transform="translate(-302.667 -110.759)" fill="#455a64"/><path d="M530.859,189.3c.006-.006.042.022.108.082a2.179,2.179,0,0,1,.264.288,3.191,3.191,0,0,1,.573,1.314,4.336,4.336,0,0,1-.12,2.125,8.663,8.663,0,0,1-1.19,2.312,8.319,8.319,0,0,1-.875,1.028c-.308.313-.638.571-.926.834-.586.525-1.092,1.024-1.51,1.45s-.747.779-.976,1.023a2.29,2.29,0,0,1-.37.367,2.027,2.027,0,0,1,.3-.428c.207-.264.518-.637.922-1.08s.9-.958,1.484-1.5c.291-.274.615-.533.908-.837a8.351,8.351,0,0,0,.846-1,8.875,8.875,0,0,0,1.174-2.238,4.313,4.313,0,0,0,.165-2.026,3.813,3.813,0,0,0-.777-1.715" transform="translate(-281.146 -101.212)" fill="#455a64"/><path d="M531.326,226.312l.245-2.849h14.463l-.078,2.226Z" transform="translate(-284.08 -119.478)" fill="#455a64"/><path d="M502.642,211.311c.027.036-.365.274-.8.838a3.855,3.855,0,0,0,.205,5.053c.481.526.891.731.867.77-.007.013-.115-.024-.3-.123a3.292,3.292,0,0,1-.695-.528,3.824,3.824,0,0,1-.215-5.28,3.294,3.294,0,0,1,.65-.583c.172-.113.277-.159.285-.147" transform="translate(-267.735 -112.979)" fill="#455a64"/><path d="M557.639,398.087l1.64,3.816-7.34-.087-.155-3.89Z" transform="translate(-295.019 -212.757)" fill="#e8505b"/><path d="M552,404.735a6.718,6.718,0,0,0,1.028.053c.635.011,1.513.007,2.482-.008l2.477-.052a7.718,7.718,0,0,0,1.027-.052,6.735,6.735,0,0,0-1.028-.05c-.635-.01-1.514-.007-2.482.009l-2.477.05a7.742,7.742,0,0,0-1.027.05" transform="translate(-295.135 -216.336)" fill="#263238"/><path d="M558.51,398.094a10.31,10.31,0,0,0,.171,3.083,10.3,10.3,0,0,0-.171-3.083" transform="translate(-298.583 -212.846)" fill="#263238"/><g transform="translate(256.866 188.285)" opacity="0.6"><g clip-path="url(#h)"><path d="M559.384,405.562l-7.336-.246-.047-.7,7.014.06.371.8" transform="translate(-552.001 -404.62)" fill="#fff"/></g></g><path d="M527.382,234.529c5.522,17.427-1.6,38.581.11,58.887.168,1.995.978,4.382-.888,5.517a3.047,3.047,0,0,1-1.683.411,12.135,12.135,0,0,1-4.067-1.354,12.085,12.085,0,0,0-8-.31c-1.762.55-3.509,1.52-5.334,1.244-2.423-.366-3.993-2.761-6.224-3.777-2.088-.95-4.5-.6-6.794-.653l-.069,0a5.147,5.147,0,0,1-4.753-6.517c3.333-12.208,14.388-51.866,19.282-59.106l14.63-.623a21.288,21.288,0,0,1,3.793,6.283" transform="translate(-261.714 -122.035)" fill="#529d2e"/><path d="M552.243,259.377a6.518,6.518,0,0,1-.8,1,22.91,22.91,0,0,1-2.16,2.208,14.5,14.5,0,0,1-2.549,1.753,5.6,5.6,0,0,1-1.161.537,36.155,36.155,0,0,0,3.551-2.474c.9-.784,1.641-1.579,2.193-2.141a6.843,6.843,0,0,1,.922-.884" transform="translate(-291.699 -138.679)" fill="#263238"/><g transform="translate(245.45 127.274)" opacity="0.1"><g clip-path="url(#i)"><path d="M536.1,273.51a62.332,62.332,0,0,0-2.451,37.3c.262,1.065.53,2.276-.076,3.19-.786,1.183-2.686,1.1-3.762.174a6.453,6.453,0,0,1-1.774-3.785c-2.008-10.4,1.629-20.845,5.559-30.678" transform="translate(-527.468 -273.51)"/></g></g></g><rect width="27.728" height="1.349" transform="translate(143.377 133.147)" fill="#263238"/><path d="M292.9,266.635l-5.2-19.49h21.65l4.71,19.49Z" transform="translate(-153.824 -132.14)" fill="#263238"/><path d="M314.166,266.2H294.825l-4.5-17.114h19.441Z" transform="translate(-155.225 -133.175)" fill="#f5f5f5"/><path d="M290.647,250.312h19.444l-.327-1.23h-19.44Z" transform="translate(-155.225 -133.175)" fill="#ebebeb"/><g clip-path="url(#a)"><path d="M295.531,250.159a.212.212,0,1,0,.213-.212.212.212,0,0,0-.213.212" transform="translate(-158.01 -133.638)" fill="#fafafa"/><path d="M293.958,250.159a.212.212,0,1,0,.213-.212.212.212,0,0,0-.213.212" transform="translate(-157.169 -133.638)" fill="#fafafa"/><path d="M292.387,250.159a.212.212,0,1,0,.212-.212.212.212,0,0,0-.212.212" transform="translate(-156.329 -133.638)" fill="#fafafa"/><path d="M318.47,264.272l2.129,2.436a3.009,3.009,0,0,0,1.308-2.45,3.454,3.454,0,0,0-6.873.027Z" transform="translate(-168.437 -139.636)" fill="#e8505b"/><path d="M317.87,268.616a4.843,4.843,0,0,1,.607.609c.38.408.924,1,1.574,1.731l.074.082-.091.069a3.686,3.686,0,0,1-3.59.352,3.516,3.516,0,0,1-1.477-1.188,3.025,3.025,0,0,1-.548-1.6l0-.108h.106c1.019-.005,1.863,0,2.447.008a5.23,5.23,0,0,1,.9.044,6.31,6.31,0,0,1-.937.072c-.587.027-1.416.058-2.408.084l.1-.108a2.864,2.864,0,0,0,.531,1.474,3.331,3.331,0,0,0,1.383,1.1,3.53,3.53,0,0,0,3.375-.3l-.018.151c-.617-.722-1.125-1.33-1.48-1.764a5.9,5.9,0,0,1-.547-.711" transform="translate(-168.106 -143.59)" fill="#263238"/><path d="M318.85,263.668a.193.193,0,1,0,.192-.194.193.193,0,0,0-.192.194" transform="translate(-170.477 -140.87)" fill="#263238"/><path d="M310.619,260.742a11.026,11.026,0,0,1,2.3-.13h.357l.034.035a9.04,9.04,0,0,1,1.331,1.49,9.1,9.1,0,0,1-1.5-1.319l.085.035-.307,0a11.01,11.01,0,0,1-2.3-.112" transform="translate(-166.077 -139.34)" fill="#263238"/><path d="M300.377,262.029a7.179,7.179,0,0,1-.22-.9c-.13-.591-.315-1.455-.527-2.512l-.023-.116h.12l4.812-.041.12.1h0v.011l0,.014.005.028.011.058.021.115.043.228q.043.228.085.451.084.447.164.879l.3,1.643.024.131h-.132c-1.445,0-2.662-.021-3.506-.038l-.976-.026a1.382,1.382,0,0,1-.33-.027,2.2,2.2,0,0,1,.372-.029l1-.034c.85-.024,2.04-.051,3.442-.066l-.107.13c-.1-.518-.208-1.067-.319-1.639l-.169-.879-.086-.451-.043-.228-.022-.115-.011-.058-.006-.028,0-.014v-.011h0c-.107-.088.145.119.119.1l-4.812,0,.1-.117c.182,1.023.323,1.873.419,2.477a9.345,9.345,0,0,1,.134.97" transform="translate(-160.189 -138.188)" fill="#263238"/><path d="M318.235,271.995a.193.193,0,1,0,.192-.194.193.193,0,0,0-.192.194" transform="translate(-170.149 -145.322)" fill="#263238"/><path d="M311.136,272.1a12.689,12.689,0,0,1,3.5-.014,12.641,12.641,0,0,1-3.5.014" transform="translate(-166.353 -145.412)" fill="#263238"/><path d="M300.42,272.43a3.972,3.972,0,0,1-.211-.643c-.127-.429-.309-1.062-.523-1.853l-.03-.111.118,0c1.31-.024,3.054-.042,4.962-.05l.118.092h0v.008l0,.01.005.021.011.041.021.083.042.165.084.328.163.642.307,1.219.036.142h-.146c-1.472,0-2.726-.02-3.6-.037l-1.015-.027a1.342,1.342,0,0,1-.346-.03,2.269,2.269,0,0,1,.389-.032l1.036-.036c.88-.025,2.107-.051,3.537-.066l-.109.142c-.1-.389-.208-.8-.318-1.216q-.082-.316-.166-.642l-.085-.328-.042-.165-.021-.083-.011-.042-.005-.02,0-.011v-.007h0l.118.091c-1.909.007-3.652,0-4.962-.01l.088-.114c.184.761.325,1.387.422,1.829a5.533,5.533,0,0,1,.136.711" transform="translate(-160.215 -144.227)" fill="#263238"/><path d="M302.082,260.874a11.256,11.256,0,0,1,3.292-.013,11.256,11.256,0,0,1-3.292.013" transform="translate(-161.512 -139.412)" fill="#263238"/><path d="M302.169,262.032a11.392,11.392,0,0,1,3.312-.013,11.392,11.392,0,0,1-3.312.013" transform="translate(-161.559 -140.031)" fill="#263238"/><path d="M302.38,263.149a10.595,10.595,0,0,1,3.2-.013,10.592,10.592,0,0,1-3.2.013" transform="translate(-161.672 -140.628)" fill="#263238"/><path d="M302.291,272a10.217,10.217,0,0,1,3.138-.013,10.214,10.214,0,0,1-3.138.013" transform="translate(-161.624 -145.363)" fill="#263238"/><path d="M302.71,273.286a7.446,7.446,0,0,1,2.676-.011,7.446,7.446,0,0,1-2.676.011" transform="translate(-161.848 -146.049)" fill="#263238"/><path d="M237.549,288.892v2.556h1.674V343.2h3.435V291.448h18.228V343.2h3.435V291.448h79.075v51.738h3.435V291.448h1.486v-2.556Z" transform="translate(-127.009 -154.46)" fill="#263238"/><path d="M397.586,330.223a26.71,26.71,0,0,0,4.467,0,26.581,26.581,0,0,0-4.467,0" transform="translate(-212.575 -176.508)" fill="#263238"/><path d="M327.541,331.329c-.067,0-.121-.027-.121-.06s.054-.059.121-.059.121.027.121.059-.054.06-.121.06" transform="translate(-175.06 -177.086)" fill="#455a64"/><path d="M352.3,209.766l-12.828-13.033-.277-1.411c-.053-.258-.107-.546-.157-.874a3.472,3.472,0,0,1,.02-1.148,5.208,5.208,0,0,1,.4-1.366c.216-.377-.13-.832-.487-.677a3.637,3.637,0,0,0-1.112,2.589c-.134,1.408-1.335-.46-1.785-1.133A13.333,13.333,0,0,0,333.829,190c-.454-.035-.57.457-.106,1.119s1.721,2.744,1.365,2.967l-.013,0a1.678,1.678,0,0,0-1.772.879c-.324.622-.685,1.5-.389,1.91a23.09,23.09,0,0,0,2.046,2.167l.43.369s11.1,16.082,13.517,16.6c1.5.325,24.762,2.255,24.762,2.255l1.754-6.408Z" transform="translate(-177.938 -101.586)" fill="#b78876"/><path d="M332.826,203.155l1.187,1.14a1.418,1.418,0,0,0,.447.328.426.426,0,0,0,.588-.56,1.408,1.408,0,0,0-.273-.422l-1.153-1.386" transform="translate(-177.95 -108.138)" fill="#b78876"/><path d="M333.62,202.252c.026-.021.249.2.588.573l.587.664a2.2,2.2,0,0,1,.327.443.628.628,0,0,1-.033.659.582.582,0,0,1-.649.149,1.311,1.311,0,0,1-.465-.328l-.621-.632a2.809,2.809,0,0,1-.53-.627,2.786,2.786,0,0,1,.648.5l.657.595a1.155,1.155,0,0,0,.388.264.352.352,0,0,0,.382-.074.4.4,0,0,0,.008-.407,2.161,2.161,0,0,0-.284-.4l-.547-.7a2.784,2.784,0,0,1-.456-.682" transform="translate(-177.948 -108.136)" fill="#aa6550"/><path d="M334.636,201.372l1.187,1.14a1.418,1.418,0,0,0,.447.328.426.426,0,0,0,.588-.56,1.406,1.406,0,0,0-.273-.422l-1.153-1.387" transform="translate(-178.918 -107.185)" fill="#b78876"/><path d="M335.43,200.469c.026-.021.248.2.588.573l.587.664a2.2,2.2,0,0,1,.327.443.628.628,0,0,1-.033.659.582.582,0,0,1-.649.149,1.316,1.316,0,0,1-.465-.327l-.621-.633a2.809,2.809,0,0,1-.53-.627,2.786,2.786,0,0,1,.648.5l.657.595a1.155,1.155,0,0,0,.388.264.352.352,0,0,0,.382-.074.4.4,0,0,0,.008-.407,2.176,2.176,0,0,0-.284-.4l-.547-.7a2.783,2.783,0,0,1-.456-.682" transform="translate(-178.916 -107.183)" fill="#aa6550"/><path d="M336.622,199.911l1.187,1.14a1.418,1.418,0,0,0,.447.328.426.426,0,0,0,.588-.56,1.408,1.408,0,0,0-.273-.422l-1.153-1.386" transform="translate(-179.979 -106.403)" fill="#b78876"/><path d="M337.416,199.008c.026-.021.249.2.588.573l.587.664a2.2,2.2,0,0,1,.327.443.628.628,0,0,1-.033.659.582.582,0,0,1-.649.149,1.31,1.31,0,0,1-.465-.328l-.621-.632a2.807,2.807,0,0,1-.53-.627,2.789,2.789,0,0,1,.648.5l.657.595a1.155,1.155,0,0,0,.388.264.352.352,0,0,0,.382-.074.4.4,0,0,0,.008-.407,2.2,2.2,0,0,0-.284-.4l-.547-.7a2.785,2.785,0,0,1-.456-.682" transform="translate(-179.977 -106.402)" fill="#aa6550"/><path d="M340.653,202.961c0-.038.294-.1.723.034l-.137.117a2.039,2.039,0,0,1-.031-.815,2.079,2.079,0,0,1,.445-.992c.183-.214.337-.3.356-.275a4.247,4.247,0,0,0-.562,1.306,2.414,2.414,0,0,0-.007.735l.025.186-.162-.069c-.371-.158-.653-.18-.651-.227" transform="translate(-182.135 -107.481)" fill="#aa6550"/><path d="M397.5,187.965l.055,17.853-6.961.332-.282-4.279s-3.358.51-4.06-2.016c-.449-1.614-.336-14.087-.336-14.087Z" transform="translate(-206.326 -99.323)" fill="#b78876"/><path d="M381.866,184.312a15.162,15.162,0,0,0,2.973,3.019l1.11,2.974c.964-.755,2.258-.711,2.5.982.177,1.224-1.345,1.471-1.345,1.471a22.2,22.2,0,0,0,2.777,4.162,4.109,4.109,0,0,0,3.693,1.734h1.67s3.417-2.855,2.741-10.375-7.436-5.325-9.049-7.2c-2.628-3.06-8.794-.324-7.072,3.237" transform="translate(-204.01 -96.107)" fill="#263238"/><path d="M398.027,197.867a2.4,2.4,0,0,1-.826-.038,4.3,4.3,0,0,1-1.994-1.026,10.846,10.846,0,0,1-2.016-2.666,9.606,9.606,0,0,0-2.558-3.129,10.255,10.255,0,0,0-3.857-1.225,7.279,7.279,0,0,1-3.114-1.185,3.343,3.343,0,0,1-1.248-1.848,1.919,1.919,0,0,1-.034-.826,2.843,2.843,0,0,0,.071.817,3.347,3.347,0,0,0,1.253,1.8,7.281,7.281,0,0,0,3.089,1.152,10.234,10.234,0,0,1,3.894,1.233,9.6,9.6,0,0,1,2.58,3.163,10.945,10.945,0,0,0,1.985,2.661,4.339,4.339,0,0,0,1.957,1.041,3.432,3.432,0,0,0,.605.072c.14,0,.214,0,.214,0" transform="translate(-204.43 -99.407)" fill="#455a64"/><path d="M398.522,190.608s-.125-.036-.36-.109a5.439,5.439,0,0,0-1.048-.233,2.35,2.35,0,0,0-1.612.361,1.323,1.323,0,0,0-.561.846,1.177,1.177,0,0,0,.325,1.065.9.9,0,0,0,.563.223,1.188,1.188,0,0,0,.62-.169,1.9,1.9,0,0,0,.842-1.074,2.664,2.664,0,0,0-2.246-3.494,4.669,4.669,0,0,0-1.73.227,12.155,12.155,0,0,1-1.791.43,7.286,7.286,0,0,1-1.9,0,6.279,6.279,0,0,1-1.832-.507,2.214,2.214,0,0,1-1.253-1.322,1.728,1.728,0,0,1,.426-1.686,1.487,1.487,0,0,1,1.635-.242,1.25,1.25,0,0,1,.606.571,1.37,1.37,0,0,1,.128.8,1.821,1.821,0,0,1-.815,1.276,2.615,2.615,0,0,1-1.376.382,4.04,4.04,0,0,1-1.3-.2,4.666,4.666,0,0,1-1.917-1.181,4.9,4.9,0,0,1-.979-1.4,4.959,4.959,0,0,1-.347-1.022c-.041-.244-.058-.372-.058-.372s.03.126.077.368a5.251,5.251,0,0,0,.362,1.01,4.927,4.927,0,0,0,.983,1.374,4.634,4.634,0,0,0,1.9,1.155,4,4,0,0,0,1.282.192,2.545,2.545,0,0,0,1.333-.376,1.739,1.739,0,0,0,.774-1.219,1.2,1.2,0,0,0-.688-1.279,1.4,1.4,0,0,0-1.534.227,1.636,1.636,0,0,0-.4,1.594,2.122,2.122,0,0,0,1.2,1.26,6.2,6.2,0,0,0,1.8.5,7.2,7.2,0,0,0,1.874,0,12.229,12.229,0,0,0,1.779-.426,4.749,4.749,0,0,1,1.765-.228,2.75,2.75,0,0,1,2.313,3.612,1.981,1.981,0,0,1-.881,1.114,1.256,1.256,0,0,1-.659.176.968.968,0,0,1-.606-.244,1.239,1.239,0,0,1-.339-1.127,1.377,1.377,0,0,1,.59-.88,2.378,2.378,0,0,1,1.648-.354,5.121,5.121,0,0,1,1.049.252c.234.079.354.128.354.128" transform="translate(-204.531 -98.264)" fill="#455a64"/><path d="M394.748,387.938l-2.275-2.919,5.44-4.3,3.374,4.236-.32.288c-1.436,1.269-7.389,6.351-8.632,6.84-1.388.544,2.413-4.148,2.413-4.148" transform="translate(-209.604 -203.558)" fill="#e8505b"/><g transform="translate(182.428 181.285)" opacity="0.4"><g clip-path="url(#k)"><path d="M392.957,395.046s-1.251,1.747-.838,1.854,6.622-4.8,9.171-7.208l-.105-.114-7.194,5.788s-.707-.557-1.034-.32" transform="translate(-392.035 -389.578)" fill="#fff"/></g></g><path d="M401.28,389.425a.618.618,0,0,1-.086.084l-.255.228-.955.824c-.811.69-1.944,1.629-3.218,2.638s-2.448,1.9-3.305,2.529l-1.021.741-.281.2a.611.611,0,0,1-.1.064.645.645,0,0,1,.091-.078l.272-.209,1-.762c.848-.643,2.015-1.538,3.289-2.547s2.412-1.939,3.232-2.618l.972-.8.266-.216a.63.63,0,0,1,.1-.071" transform="translate(-209.618 -208.211)" fill="#263238"/><path d="M395.014,401.644a1.832,1.832,0,0,0-1.194-.438,1.12,1.12,0,0,1,1.194.438" transform="translate(-210.561 -214.488)" fill="#263238"/><path d="M397.709,397.453a.731.731,0,0,1-.336-.073c-.178-.062-.316-.13-.309-.152a.724.724,0,0,1,.337.073c.178.062.316.13.309.152" transform="translate(-212.295 -212.38)" fill="#263238"/><path d="M398.335,396.4c0,.023-.133.034-.293.024s-.289-.037-.288-.06.133-.034.293-.023.289.037.288.06" transform="translate(-212.665 -211.906)" fill="#263238"/><path d="M398.08,394.893c.014.018-.1.134-.255.261s-.294.213-.308.195.1-.134.255-.261.294-.213.308-.2" transform="translate(-212.537 -211.134)" fill="#263238"/><path d="M397.622,393.954a1.019,1.019,0,0,1-.605.557c-.012-.021.141-.125.3-.277s.281-.294.3-.281" transform="translate(-212.27 -210.632)" fill="#263238"/><path d="M395.748,396.877a1.293,1.293,0,0,1-.351.274,2.589,2.589,0,0,1-.437.212,1.266,1.266,0,0,1-.282.081.239.239,0,0,1-.173-.04.174.174,0,0,1-.057-.181.817.817,0,0,1,.94-.439.8.8,0,0,1,.3.143c.061.049.087.084.083.087a1.26,1.26,0,0,0-.395-.172.8.8,0,0,0-.452.042.69.69,0,0,0-.394.358c-.023.085.05.133.141.121a1.361,1.361,0,0,0,.263-.071,3.058,3.058,0,0,0,.434-.191c.239-.128.372-.233.381-.222" transform="translate(-210.894 -212.132)" fill="#263238"/><path d="M396.695,396.09c0,.008-.124-.041-.232-.211a.733.733,0,0,1-.107-.331.447.447,0,0,1,.15-.408.177.177,0,0,1,.235.076.48.48,0,0,1,.064.2,1.337,1.337,0,0,1,0,.342.642.642,0,0,1-.088.3c-.013,0,.02-.118.029-.3a1.57,1.57,0,0,0-.019-.325c-.011-.112-.083-.27-.183-.217s-.114.218-.113.33a.739.739,0,0,0,.081.305,1.578,1.578,0,0,0,.181.24" transform="translate(-211.917 -211.256)" fill="#263238"/><path d="M407.827,386.416c.008.013-.168.108-.39.332a2.172,2.172,0,0,0-.527,2.262c.1.3.217.462.2.47a.409.409,0,0,1-.087-.11,1.815,1.815,0,0,1-.173-.34,2.106,2.106,0,0,1,.542-2.324,1.8,1.8,0,0,1,.3-.229.408.408,0,0,1,.127-.06" transform="translate(-217.453 -206.602)" fill="#263238"/><path d="M404.052,382.511a24.213,24.213,0,0,1,1.8,2.213,24.172,24.172,0,0,1-1.8-2.213" transform="translate(-216.032 -204.514)" fill="#263238"/><path d="M403.428,393.1a5.708,5.708,0,0,1-1.578,1.272c-.013-.021.359-.28.793-.631s.767-.658.785-.641" transform="translate(-214.854 -210.178)" fill="#263238"/><path d="M407.486,391.289c.024,0,.03.1.059.208s.066.2.046.212-.1-.064-.127-.191,0-.233.023-.229" transform="translate(-217.849 -209.208)" fill="#263238"/><path d="M407.466,389.533c.023,0,.033.087.021.188s-.039.182-.062.179-.033-.087-.021-.188.039-.182.062-.179" transform="translate(-217.821 -208.269)" fill="#263238"/><path d="M408.109,388.058c.011.021-.062.078-.12.169s-.081.179-.106.178-.038-.112.035-.224.182-.145.19-.124" transform="translate(-218.071 -207.477)" fill="#263238"/><path d="M408.943,387.135c.02.012.011.064-.021.118s-.073.087-.093.075-.011-.065.02-.118.073-.087.093-.075" transform="translate(-218.581 -206.986)" fill="#263238"/><g transform="translate(184.238 179.295)" opacity="0.3"><g clip-path="url(#l)"><path d="M401.937,385.681l-5.5,4.205-.509-.661,5.785-3.922Z" transform="translate(-395.924 -385.303)"/></g></g><path d="M338.722,398.246l.01-3.7,6.933-.025.042,5.415-.43.029c-1.913.113-9.733.441-11.014.058-1.428-.428,4.458-1.776,4.458-1.776" transform="translate(-178.6 -210.935)" fill="#e8505b"/><g transform="translate(155.421 188.072)" opacity="0.4"><g clip-path="url(#m)"><path d="M335.824,404.164s-2.062.6-1.8.942,8.175.305,11.665-.015l-.012-.154-9.233.118s-.213-.875-.617-.89" transform="translate(-333.998 -404.164)" fill="#fff"/></g></g><path d="M345.8,405.809a.653.653,0,0,1-.119.014l-.343.022-1.26.06c-1.064.043-2.535.082-4.16.091s-3.1-.017-4.162-.049l-1.26-.047-.343-.019a.653.653,0,0,1-.119-.012.673.673,0,0,1,.12,0l.343,0,1.261.02c1.065.017,2.535.032,4.16.024s3.094-.039,4.159-.066l1.261-.033.342-.006a.685.685,0,0,1,.12,0" transform="translate(-178.599 -216.969)" fill="#263238"/><path d="M338.482,405.064a1.827,1.827,0,0,0-.67-1.081,1.12,1.12,0,0,1,.67,1.081" transform="translate(-180.616 -215.994)" fill="#263238"/><path d="M343.211,403.4c-.02.013-.118-.106-.22-.265s-.168-.3-.149-.31.118.106.22.265.168.3.149.31" transform="translate(-183.303 -215.374)" fill="#263238"/><path d="M344.341,402.97c-.015.017-.125-.055-.245-.162s-.2-.208-.189-.225.125.055.245.162.2.208.189.225" transform="translate(-183.873 -215.245)" fill="#263238"/><path d="M344.767,401.965a1.587,1.587,0,1,1-.363-.036.811.811,0,0,1,.363.036" transform="translate(-183.947 -214.896)" fill="#263238"/><path d="M344.913,401.007a1.018,1.018,0,0,1-.82.065,2.277,2.277,0,0,1,.41-.03,2.228,2.228,0,0,1,.41-.035" transform="translate(-183.974 -214.4)" fill="#263238"/><path d="M341.625,402.05a1.284,1.284,0,0,1-.446,0,2.589,2.589,0,0,1-.475-.1,1.311,1.311,0,0,1-.272-.111.239.239,0,0,1-.111-.138.174.174,0,0,1,.067-.178.817.817,0,0,1,1.011.235.8.8,0,0,1,.147.3.247.247,0,0,1,.012.12,1.249,1.249,0,0,0-.2-.379.8.8,0,0,0-.382-.246.691.691,0,0,0-.531.038c-.071.053-.043.136.036.182a1.346,1.346,0,0,0,.251.106,3.107,3.107,0,0,0,.459.117c.267.046.437.046.437.06" transform="translate(-181.955 -214.63)" fill="#263238"/><path d="M342.815,401.818a.438.438,0,0,1-.053-.309.73.73,0,0,1,.12-.326.446.446,0,0,1,.37-.229.177.177,0,0,1,.138.205.485.485,0,0,1-.075.2,1.338,1.338,0,0,1-.209.27.638.638,0,0,1-.255.181c-.007-.011.088-.08.211-.222a1.549,1.549,0,0,0,.185-.268c.061-.094.1-.263-.01-.283s-.225.1-.293.19a.736.736,0,0,0-.125.29,1.659,1.659,0,0,0-.006.3" transform="translate(-183.261 -214.376)" fill="#263238"/><path d="M356.178,401.686c0,.016-.2-.018-.512.021a2.17,2.17,0,0,0-1.81,1.455c-.1.3-.114.5-.13.5a.422.422,0,0,1,0-.14,1.79,1.79,0,0,1,.074-.374,2.108,2.108,0,0,1,1.86-1.5,1.851,1.851,0,0,1,.382.008.392.392,0,0,1,.136.031" transform="translate(-189.122 -214.743)" fill="#263238"/><path d="M357.4,395.545a24.233,24.233,0,0,1,.048,2.849,24.251,24.251,0,0,1-.048-2.849" transform="translate(-191.077 -211.483)" fill="#263238"/><path d="M349.5,404.606a5.7,5.7,0,0,1-2.026.028c0-.024.455,0,1.013-.007s1.01-.045,1.013-.021" transform="translate(-185.783 -216.324)" fill="#263238"/><path d="M354.524,404.595c.017.017-.037.1-.082.2s-.071.2-.094.195-.036-.109.018-.229.144-.182.159-.166" transform="translate(-189.446 -216.321)" fill="#263238"/><path d="M355.543,403.22c.017.016-.028.088-.1.161s-.143.119-.16.1.028-.088.1-.161.142-.119.159-.1" transform="translate(-189.956 -215.585)" fill="#263238"/><path d="M356.962,402.546c0,.024-.1.023-.2.06s-.174.091-.193.075.04-.112.166-.155.233,0,.226.02" transform="translate(-190.643 -215.206)" fill="#263238"/><path d="M358.3,402.273c.008.021-.031.057-.088.08s-.111.023-.12,0,.031-.057.088-.08.111-.023.12,0" transform="translate(-191.456 -215.072)" fill="#263238"/><g transform="translate(160.12 185.792)" opacity="0.3"><g clip-path="url(#n)"><path d="M351.083,400.136l-6.989.007.007-.835,6.956-.046Z" transform="translate(-344.094 -399.263)"/></g></g><path d="M354.083,261.724l-2.776,8.36c-.75,2.258-2.722,2.644-5.1,2.644H330.763v-3.464l14.109-2.014,3.363-8.589Z" transform="translate(-176.847 -138.296)" fill="#b78876"/><path d="M318.248,276.415l-1.225-.58s-1.32-2.553-1.624-2.45-.391.853.139,2.026l-1.628-.465s-3.529,1.631-3.373,1.85a.815.815,0,0,0,1.214.347c.769-.393,1.776-.854,1.776-.854l1.9.543-2.452.311-2.306,2.1a1.129,1.129,0,0,0,1.41-.035l5.99,1.287,1.876.106v-3.464Z" transform="translate(-166.03 -146.167)" fill="#b78876"/><path d="M313.856,284.487c.026.017.137-.161.353-.4a1.816,1.816,0,0,1,.436-.337,1.784,1.784,0,0,1,.647-.169,8.96,8.96,0,0,0,1.8-.307,8.926,8.926,0,0,0-1.821.121,1.768,1.768,0,0,0-.71.205,1.667,1.667,0,0,0-.45.4,1.071,1.071,0,0,0-.252.482" transform="translate(-167.806 -151.448)" fill="#aa6550"/><path d="M315.847,285.887c.023,0,.041-.124.209-.16s.444-.064.728-.093a5.914,5.914,0,0,0,1.053-.107,2.112,2.112,0,0,0-1.072-.08,3.212,3.212,0,0,0-.754.154.3.3,0,0,0-.182.188c-.015.064.006.1.017.1" transform="translate(-168.86 -152.608)" fill="#aa6550"/><path d="M373.665,241.86l-1.187,4.023-7.538-3.412c.271-.842,1.517-4.595,3.9-10.548a10.235,10.235,0,0,1,7.813-6.3,44.686,44.686,0,0,1,7.217-.708c4.227.047,10.449,2.689,11.285,6.832.638,3.163.023,8.746.023,15.531l-.551,12.963-21.66.735Z" transform="translate(-195.12 -120.254)" fill="#529d2e"/><g transform="translate(183.982 123.785)" opacity="0.3"><g clip-path="url(#o)"><path d="M411.43,266.252c-2.636.539-5.342,0-8.028-.164-1.628-.1-3.435-.273-4.723.728a5.771,5.771,0,0,0-1.727,3.387,64.607,64.607,0,0,0-1.58,12.941l13.038.791Z" transform="translate(-395.373 -266.011)"/></g></g><path d="M382.5,231.088c0,.019.217.032.576.173a3,3,0,0,1,1.248,1.01,4.207,4.207,0,0,1,.745,2.257,14.2,14.2,0,0,1-.228,2.969,49.729,49.729,0,0,1-1.21,5.31c-.178.65-.326,1.188-.438,1.595a3.739,3.739,0,0,0-.139.592,3.831,3.831,0,0,0,.209-.571c.122-.371.294-.91.5-1.579a41.256,41.256,0,0,0,1.268-5.316,13.725,13.725,0,0,0,.215-3.011,4.256,4.256,0,0,0-.812-2.324,2.946,2.946,0,0,0-1.328-1,2.178,2.178,0,0,0-.443-.1.494.494,0,0,0-.158,0" transform="translate(-204.507 -123.552)" fill="#263238"/><path d="M365.446,260.432a7.288,7.288,0,0,0,1.062.609c.669.35,1.606.812,2.657,1.287s2.018.871,2.724,1.14a7.29,7.29,0,0,0,1.16.393,8.563,8.563,0,0,0-1.109-.516c-.692-.3-1.648-.715-2.7-1.188s-1.992-.915-2.676-1.235a8.7,8.7,0,0,0-1.121-.49" transform="translate(-195.39 -139.242)" fill="#263238"/><path d="M353.4,304.529a7.719,7.719,0,0,0-3.152,10.338L369.1,347.234l8.7-5.254L363.16,312.758l10.61-6.926" transform="translate(-186.799 -162.821)" fill="#263238"/><path d="M369.062,301.079,343.183,302a7.719,7.719,0,0,0-7.445,7.834l1.074,36.962,10.884-.024-.363-34.947,21.729-.571Z" transform="translate(-179.506 -160.976)" fill="#263238"/><path d="M360.632,326.878a1.843,1.843,0,0,1,.031.342c.011.248.025.574.042.981.032.852.065,2.085.1,3.609.065,3.048.108,7.259.132,11.909s.046,8.839.061,11.91c.008,1.5.015,2.73.02,3.609,0,.407,0,.733,0,.981a1.79,1.79,0,0,1-.018.342,1.843,1.843,0,0,1-.031-.342c-.011-.248-.025-.574-.042-.981-.032-.852-.065-2.085-.1-3.609-.065-3.047-.108-7.259-.132-11.911s-.046-8.836-.061-11.908c-.009-1.5-.015-2.73-.02-3.609,0-.407,0-.733,0-.982a1.841,1.841,0,0,1,.018-.342" transform="translate(-192.806 -174.77)" fill="#455a64"/><path d="M393.377,250.672h-7.829a5.707,5.707,0,0,0-5.706,5.707v27.315H364.2a3.952,3.952,0,0,0-3.952,3.952h35.716c0-.008,0-.015,0-.023a3.259,3.259,0,0,0,3.122-3.255v-27.99a5.707,5.707,0,0,0-5.707-5.707" transform="translate(-192.61 -134.025)" fill="#455a64"/><path d="M407.107,252.609c.067,0,.121,8.028.121,17.928s-.054,17.929-.121,17.929-.121-8.026-.121-17.929.054-17.928.121-17.928" transform="translate(-217.601 -135.061)" fill="#263238"/><path d="M391.1,358.817V330.162h-2.545v28.655c-1.554,3.063-5.208,5.136-9.658,6.833h22.693c-4.609-1.872-8.768-3.31-10.489-6.833" transform="translate(-202.581 -176.526)" fill="#455a64"/></g><g clip-path="url(#a)"><path d="M89.257,305.646a1.015,1.015,0,0,1,.07-.17l.228-.486a12.146,12.146,0,0,0,.67-1.946,17.18,17.18,0,0,0-.056-7.516,40.33,40.33,0,0,0-1.395-5.048c-.59-1.792-1.275-3.693-1.835-5.748a22.233,22.233,0,0,1-.906-6.608,25.849,25.849,0,0,1,1.538-6.993,34,34,0,0,0,1.78-6.887,10.5,10.5,0,0,0-1.262-6.361c-1.007-1.856-2.275-3.443-3.223-5.087a17.677,17.677,0,0,1-1.937-4.891,18.212,18.212,0,0,1-.123-7.577,14.083,14.083,0,0,1,.791-2.676,1.117,1.117,0,0,1-.047.178c-.04.127-.093.3-.16.513a19.157,19.157,0,0,0-.491,2,18.445,18.445,0,0,0,.2,7.52,17.635,17.635,0,0,0,1.944,4.828c.946,1.625,2.219,3.206,3.247,5.083a10.713,10.713,0,0,1,1.3,6.49,34.01,34.01,0,0,1-1.786,6.938,25.822,25.822,0,0,0-1.531,6.927,22.13,22.13,0,0,0,.885,6.541c.55,2.045,1.228,3.947,1.811,5.743a39.926,39.926,0,0,1,1.371,5.078,16.983,16.983,0,0,1-.02,7.572,11.229,11.229,0,0,1-.717,1.943l-.25.477a1.12,1.12,0,0,1-.092.158" transform="translate(-44.091 -127.064)" fill="#263238"/><path d="M89.776,262.383s-1.926-6.158,1.529-9.765a.213.213,0,0,1,.366.106c.185,1.017.415,4.115-1.895,9.659" transform="translate(-47.714 -135.03)" fill="#529d2e"/><path d="M91.465,257.107a5.67,5.67,0,0,1-.13,1.136l-.439,2.716c-.161,1.015-.307,1.934-.431,2.717a6.168,6.168,0,0,1-.2,1.124,4.78,4.78,0,0,1,.034-1.145c.064-.7.188-1.671.362-2.734s.359-2.02.51-2.709a5.141,5.141,0,0,1,.3-1.105" transform="translate(-48.249 -137.466)" fill="#263238"/><path d="M95.253,295.788s1.178-6.344,5.918-7.916a.214.214,0,0,1,.274.265c-.313.985-1.557,3.831-6.192,7.652" transform="translate(-50.928 -153.909)" fill="#529d2e"/><path d="M99.837,291.4a5.65,5.65,0,0,1-.646.944l-1.659,2.2-1.651,2.2a6.177,6.177,0,0,1-.706.9,4.775,4.775,0,0,1,.566-1c.385-.592.948-1.39,1.6-2.247s1.262-1.617,1.717-2.156a5.193,5.193,0,0,1,.78-.838" transform="translate(-50.885 -155.803)" fill="#263238"/><path d="M92.445,328.377s-.716-6.413,3.364-9.294a.213.213,0,0,1,.339.174c-.013,1.034-.378,4.119-3.7,9.12" transform="translate(-49.401 -170.58)" fill="#529d2e"/><path d="M95.045,323.3A5.672,5.672,0,0,1,94.7,324.4l-.95,2.583-.941,2.584a6.235,6.235,0,0,1-.415,1.065,4.747,4.747,0,0,1,.252-1.117c.2-.678.5-1.6.877-2.615s.738-1.914,1.017-2.562a5.135,5.135,0,0,1,.5-1.028" transform="translate(-49.397 -172.859)" fill="#263238"/><path d="M100.154,362.931s-.485-6.435,3.694-9.168a.214.214,0,0,1,.333.186c-.05,1.032-.525,4.1-4.027,8.981" transform="translate(-53.54 -189.125)" fill="#529d2e"/><path d="M102.982,357.92A5.657,5.657,0,0,1,102.6,359l-1.041,2.547-1.034,2.549a6.2,6.2,0,0,1-.452,1.049,4.766,4.766,0,0,1,.292-1.107c.221-.671.56-1.586.97-2.582s.806-1.886,1.108-2.524a5.145,5.145,0,0,1,.539-1.009" transform="translate(-53.502 -191.366)" fill="#263238"/><path d="M77.742,252.629s-5.72-2.987-5.832-7.98a.214.214,0,0,1,.334-.185c.85.588,3.206,2.613,5.5,8.164" transform="translate(-38.448 -130.686)" fill="#529d2e"/><path d="M74.459,248.589a5.681,5.681,0,0,1,.712.894l1.613,2.23,1.618,2.224a6.166,6.166,0,0,1,.651.939,4.819,4.819,0,0,1-.786-.833c-.453-.543-1.051-1.314-1.679-2.188s-1.176-1.68-1.557-2.274a5.117,5.117,0,0,1-.572-.991" transform="translate(-39.809 -132.911)" fill="#263238"/><path d="M90.4,281.462s-5.891-2.634-6.306-7.611a.213.213,0,0,1,.322-.2c.884.535,3.359,2.413,5.984,7.815" transform="translate(-44.959 -146.292)" fill="#529d2e"/><path d="M86.86,277.644a5.659,5.659,0,0,1,.765.85l1.745,2.128,1.75,2.121a6.213,6.213,0,0,1,.708.9,4.751,4.751,0,0,1-.835-.784c-.485-.514-1.128-1.248-1.809-2.082s-1.276-1.606-1.693-2.175a5.143,5.143,0,0,1-.631-.954" transform="translate(-46.44 -148.446)" fill="#263238"/><path d="M87.309,310.941s-4.045-5.028-2.148-9.648a.214.214,0,0,1,.379-.035c.544.879,1.891,3.678,1.768,9.683" transform="translate(-45.262 -161.018)" fill="#529d2e"/><path d="M86.593,305.849a5.622,5.622,0,0,1,.295,1.105l.584,2.689c.221,1,.422,1.912.592,2.686a6.228,6.228,0,0,1,.221,1.121,4.726,4.726,0,0,1-.387-1.078c-.2-.678-.436-1.624-.663-2.678s-.4-2.011-.516-2.708a5.177,5.177,0,0,1-.127-1.137" transform="translate(-46.293 -163.526)" fill="#263238"/><path d="M91.87,350.362s-5.846-2.733-6.177-7.716a.214.214,0,0,1,.325-.2c.875.55,3.317,2.469,5.852,7.914" transform="translate(-45.816 -183.076)" fill="#529d2e"/><path d="M88.4,346.48a5.682,5.682,0,0,1,.752.862l1.709,2.157,1.714,2.151a6.182,6.182,0,0,1,.692.909,4.775,4.775,0,0,1-.822-.8c-.477-.522-1.107-1.266-1.774-2.112s-1.249-1.627-1.656-2.2a5.124,5.124,0,0,1-.615-.965" transform="translate(-47.265 -185.25)" fill="#263238"/><path d="M111.165,304.971a.475.475,0,0,1,.007.142c0,.113-.006.248-.01.413-.017.388-.04.911-.069,1.564-.075,1.376-.181,3.294-.306,5.588v.013a21.679,21.679,0,0,1-3.2,7.436c-1.172,1.851-2.4,3.534-3.459,5.1a36.083,36.083,0,0,0-2.594,4.287,18.165,18.165,0,0,0-1.213,3.146c-.1.386-.18.686-.225.892a1.654,1.654,0,0,1-.085.31,1.563,1.563,0,0,1,.038-.32c.029-.209.092-.514.181-.906a16.62,16.62,0,0,1,1.151-3.2,34.259,34.259,0,0,1,2.563-4.337c1.052-1.576,2.274-3.262,3.44-5.1a21.98,21.98,0,0,0,3.2-7.347l0,.013c.161-2.292.3-4.208.392-5.582.053-.652.1-1.174.127-1.561l.041-.41a.474.474,0,0,1,.025-.14" transform="translate(-53.468 -163.057)" fill="#263238"/><path d="M115.021,325.083s2.476-5.959-.638-9.863a.214.214,0,0,0-.374.072c-.276,1-.786,4.061,1.013,9.791" transform="translate(-60.804 -168.492)" fill="#2b5f11"/><path d="M115.521,319.779a5.141,5.141,0,0,1,.2,1.128c.087.7.186,1.67.262,2.744s.114,2.05.113,2.756a4.738,4.738,0,0,1-.069,1.143,6.2,6.2,0,0,1-.1-1.138c-.053-.791-.115-1.718-.184-2.744s-.136-1.954-.191-2.745a5.651,5.651,0,0,1-.027-1.143" transform="translate(-61.755 -170.974)" fill="#263238"/><path d="M97.819,356.055s1.984-6.14-1.436-9.779a.213.213,0,0,0-.367.1c-.194,1.015-.455,4.111,1.8,9.677" transform="translate(-51.271 -185.104)" fill="#2b5f11"/><path d="M97.7,350.773a5.138,5.138,0,0,1,.287,1.108c.144.691.32,1.649.484,2.713s.28,2.034.336,2.738a4.769,4.769,0,0,1,.024,1.145,6.2,6.2,0,0,1-.194-1.126c-.116-.784-.254-1.7-.405-2.72l-.413-2.721a5.669,5.669,0,0,1-.119-1.137" transform="translate(-52.23 -187.545)" fill="#263238"/><path d="M123.285,310.678s5.286-3.7,4.753-8.666a.214.214,0,0,0-.355-.14c-.767.693-2.842,3.005-4.4,8.806" transform="translate(-65.916 -161.371)" fill="#2b5f11"/><path d="M127.138,306.22a5.138,5.138,0,0,1-.439,1.057c-.3.638-.739,1.509-1.251,2.456s-1,1.791-1.383,2.387a4.757,4.757,0,0,1-.671.928,6.172,6.172,0,0,1,.525-1.015l1.317-2.414,1.311-2.419a5.667,5.667,0,0,1,.591-.979" transform="translate(-65.973 -163.724)" fill="#263238"/><path d="M104.612,347.421s6.376-.994,8.084-5.687a.213.213,0,0,0-.256-.282c-.994.284-3.875,1.446-7.827,5.968" transform="translate(-55.932 -182.557)" fill="#2b5f11"/><path d="M111.065,344.737a5.138,5.138,0,0,1-.86.755c-.551.44-1.328,1.029-2.2,1.654s-1.69,1.166-2.293,1.534a4.765,4.765,0,0,1-1.012.537,6.167,6.167,0,0,1,.919-.68l2.246-1.587,2.242-1.595a5.667,5.667,0,0,1,.962-.618" transform="translate(-55.977 -184.317)" fill="#263238"/><path d="M89.4,379.5l-1.86,12.518H99.135l-1.5-12.518Z" transform="translate(-46.807 -202.907)" fill="#455a64"/><path d="M99.479,387.7a45.416,45.416,0,0,1-4.674.121,45.409,45.409,0,0,1-4.674-.121,45.425,45.425,0,0,1,4.674-.121,45.433,45.433,0,0,1,4.674.121" transform="translate(-48.19 -207.225)" fill="#263238"/><path d="M99.62,389.842c0,.067-2.161.121-4.827.121s-4.827-.054-4.827-.121,2.161-.121,4.827-.121,4.827.054,4.827.121" transform="translate(-48.102 -208.37)" fill="#263238"/></g></g></g></svg>