<svg xmlns="http://www.w3.org/2000/svg" xmlns:xlink="http://www.w3.org/1999/xlink" width="298.187" height="210.367" viewBox="0 0 298.187 210.367"><defs><clipPath id="a"><rect width="298.186" height="200.739" fill="none"/></clipPath><clipPath id="d"><rect width="16.713" height="20.092" fill="none"/></clipPath><clipPath id="e"><rect width="15.873" height="21.26" fill="none"/></clipPath><clipPath id="f"><rect width="11.674" height="16.569" fill="none"/></clipPath><clipPath id="g"><rect width="6.383" height="10.234" fill="none"/></clipPath><clipPath id="h"><rect width="5.515" height="19.858" fill="none"/></clipPath><clipPath id="i"><rect width="3.535" height="2.435" fill="none"/></clipPath><clipPath id="k"><rect width="11.357" height="16.079" fill="none"/></clipPath><clipPath id="l"><rect width="13.372" height="7.011" fill="none"/></clipPath><clipPath id="n"><rect width="19.258" height="7.567" fill="none"/></clipPath></defs><g transform="translate(-565.957 -4967.662)"><path d="M20,0H228a20,20,0,0,1,20,20V207.739a0,0,0,0,1,0,0H0a0,0,0,0,1,0,0V20A20,20,0,0,1,20,0Z" transform="translate(613 4967.662)" fill="#c2e8b0"/><g transform="translate(565.957 4977.289)" clip-path="url(#a)"><g clip-path="url(#a)"><path d="M1.1,151.314s2.578-2.111,6.625,4.157a86.285,86.285,0,0,1,5.715,9.952s1.033,1.294,1.892.291,1.9-3.706,3.565-3.409c1.727.308,2.471,2.124,2.433,4.908s.1,8.888.117,9.439.4,1.3,1.1.713,4.5-5.817,6.876-3.861.991,9.695.857,10.544.063,1.185.477,1.35,1.528-1.714,2.672-3.156,2.724-2.914,4-1.671,2.215,6.848-2.216,16.561L32.861,201.5l-4.974.232c-10.676-.152-15.338-3.4-15.917-5.085s1.428-2.481,3.221-2.9,3.968-.62,4-1.065-.191-.767-1.016-1.008-8.411-2.306-9.163-5.286,5.6-4.186,6.432-4.562.31-1.052-.174-1.3-5.948-2.988-8.482-4.145-3.855-2.607-3.395-4.3c.444-1.632,3.332-1.416,4.607-1.763s.546-1.835.546-1.835A86.372,86.372,0,0,1,2,159.062c-3.933-6.341-.839-7.788-.839-7.788" transform="translate(0 -81.426)" fill="#ebebeb"/><path d="M39.285,209.27c-2.907-4.645-8.212-12.815-12.73-19.852s-8.6-13.408-11.53-18.038l-3.464-5.487-.943-1.492c-.107-.165-.19-.293-.249-.386s-.089-.129-.089-.129.023.048.076.137l.235.394.919,1.506c.8,1.308,1.968,3.191,3.423,5.514,2.906,4.645,6.975,11.028,11.492,18.064s9.837,15.2,12.768,19.827" transform="translate(-5.544 -88.391)" fill="#e0e0e0"/><path d="M36.649,183.908a1.6,1.6,0,0,0-.09.347c-.049.225-.11.553-.182.958-.143.812-.311,1.937-.474,3.183-.157,1.229-.3,2.34-.407,3.19-.052.383-.095.706-.129.966a1.61,1.61,0,0,0-.034.357,1.58,1.58,0,0,0,.093-.346c.048-.225.11-.553.178-.96.135-.813.288-1.941.452-3.186.165-1.227.315-2.337.429-3.186.053-.383.1-.705.135-.965a1.588,1.588,0,0,0,.031-.357" transform="translate(-19.054 -99.19)" fill="#e0e0e0"/><path d="M22.283,201.56c.007-.042-2.3-.492-5.149-1s-5.169-.895-5.176-.853,2.3.492,5.149,1,5.169.894,5.176.852" transform="translate(-6.449 -107.707)" fill="#e0e0e0"/><path d="M39.649,226.51a1.657,1.657,0,0,0-.366.021l-.989.1c-.835.087-1.989.2-3.267.284s-2.438.119-3.278.138l-.995.023a1.677,1.677,0,0,0-.365.026,1.664,1.664,0,0,0,.364.034c.235.012.575.022,1,.026.841.009,2-.01,3.286-.094s2.437-.214,3.271-.329c.416-.059.753-.111.984-.153a1.692,1.692,0,0,0,.357-.08" transform="translate(-16.391 -122.164)" fill="#e0e0e0"/><path d="M53.8,209.34a1.461,1.461,0,0,0-.165.3l-.4.83c-.329.7-.774,1.68-1.258,2.761s-.913,2.066-1.217,2.78l-.352.85a1.421,1.421,0,0,0-.11.32,1.435,1.435,0,0,0,.165-.3l.4-.83c.329-.7.775-1.68,1.258-2.762s.913-2.065,1.217-2.78l.352-.85a1.439,1.439,0,0,0,.11-.32" transform="translate(-27.127 -112.906)" fill="#e0e0e0"/><path d="M69.315,227.641a2.358,2.358,0,0,0-.207.381l-.513,1.061c-.427.9-1.007,2.146-1.64,3.526s-1.2,2.635-1.6,3.546l-.468,1.082a2.336,2.336,0,0,0-.152.405,2.357,2.357,0,0,0,.207-.381l.513-1.061c.427-.9,1.007-2.146,1.64-3.527s1.2-2.634,1.6-3.545l.468-1.082a2.335,2.335,0,0,0,.152-.405" transform="translate(-34.914 -122.777)" fill="#e0e0e0"/><path d="M51.051,248.759a2.662,2.662,0,0,0-.464.014l-1.259.088c-1.063.073-2.532.168-4.157.227s-3.1.078-4.162.083l-1.262.007a2.687,2.687,0,0,0-.463.02,2.659,2.659,0,0,0,.462.04c.3.016.729.032,1.263.042,1.066.023,2.541.023,4.169-.038s3.1-.171,4.159-.272c.531-.052.96-.1,1.256-.136a2.686,2.686,0,0,0,.458-.074" transform="translate(-21.188 -134.164)" fill="#e0e0e0"/><path d="M391.842,32.086a19.4,19.4,0,0,1,4.985,1.316l3.664-3.07,6.294,4.79-1.983,4.35a19.4,19.4,0,0,1,2.6,4.455l4.76.42,1.062,7.838-4.476,1.673a19.338,19.338,0,0,1-1.317,4.985l3.071,3.665L405.711,68.8l-4.35-1.982a19.392,19.392,0,0,1-4.455,2.6l-.419,4.76-7.839,1.064-1.673-4.476a19.361,19.361,0,0,1-4.985-1.317l-3.665,3.071-6.294-4.79,1.984-4.35a19.426,19.426,0,0,1-2.6-4.454l-4.76-.42L365.6,50.664l4.476-1.673a19.347,19.347,0,0,1,1.317-4.986l-3.071-3.665,4.789-6.293,4.35,1.983a19.369,19.369,0,0,1,4.455-2.6l.419-4.76,7.837-1.063Zm-2.351,10.808a8.486,8.486,0,1,0,8.523,6.491,8.488,8.488,0,0,0-8.523-6.491" transform="translate(-197.181 -14.891)" fill="#727997" fill-rule="evenodd"/><path d="M247.687,88.322a12.592,12.592,0,0,1,3.236.855l2.378-1.993,4.086,3.109L256.1,93.116a12.608,12.608,0,0,1,1.686,2.892l3.09.272.69,5.087-2.905,1.086a12.55,12.55,0,0,1-.855,3.236l1.993,2.379-3.109,4.085-2.824-1.287a12.575,12.575,0,0,1-2.892,1.686l-.272,3.091-5.088.691-1.086-2.906a12.573,12.573,0,0,1-3.236-.855l-2.379,1.993-4.086-3.109,1.288-2.824a12.592,12.592,0,0,1-1.686-2.892l-3.09-.272-.691-5.088,2.906-1.086a12.555,12.555,0,0,1,.855-3.236l-1.993-2.379,3.108-4.085,2.824,1.287a12.6,12.6,0,0,1,2.892-1.686l.272-3.09,5.087-.691Zm-1.526,7.016a5.509,5.509,0,1,0,5.533,4.213,5.51,5.51,0,0,0-5.533-4.213" transform="translate(-124.399 -46.069)" fill="#727997" fill-rule="evenodd"/><path d="M344.6,171.01a6.722,6.722,0,0,1,1.839,1.216,8.861,8.861,0,0,1,2.852,5.242,8.97,8.97,0,0,1-.315,4.176,9.113,9.113,0,0,1-2.63,4.025,9.119,9.119,0,0,1-4.828,2.207,9.082,9.082,0,0,1-9.485-5.2,9.119,9.119,0,0,1-.733-5.258,9.109,9.109,0,0,1,1.981-4.382,8.981,8.981,0,0,1,3.354-2.51,8.862,8.862,0,0,1,5.952-.411,6.73,6.73,0,0,1,2.014.9c-.026.058-.7-.364-2.064-.7a8.874,8.874,0,0,0-5.755.549,8.692,8.692,0,0,0-5.016,6.633,8.695,8.695,0,0,0,.722,4.976,8.623,8.623,0,0,0,8.965,4.917,8.7,8.7,0,0,0,4.583-2.065,8.7,8.7,0,0,0,2.9-7.794,8.873,8.873,0,0,0-2.63-5.15c-1.018-.964-1.738-1.309-1.7-1.362" transform="translate(-178.618 -91.57)" fill="#4a506b"/><path d="M335,144.886a1.918,1.918,0,0,1,.068-.305l.242-.918.991-3.619.039.094-7.3-3.948.159-.028-3.307,3.767-.059.068-.089-.022a20.311,20.311,0,0,0-5.337-.565l-.1,0-.05-.089-2.446-4.379.21.086-7.959,2.34.144-.2c.1,1.549.205,3.256.315,5.005l.008.128-.11.066a20.184,20.184,0,0,0-4.169,3.355l-.091.1-.129-.037-4.821-1.373.262-.109-3.981,7.279-.051-.292L301.2,154.6l.11.1-.035.143a20.246,20.246,0,0,0-.575,5.313l0,.149-.131.073-4.385,2.435.119-.288,2.325,7.964-.259-.182,5.006-.306.154-.009.08.132a20.122,20.122,0,0,0,3.338,4.163h0c.031.114-.069-.254.07.256v.005l0,.009-.005.019-.011.038-.022.076-.044.152-.087.3-.174.606-.346,1.208-.688,2.4-.122-.294,7.274,3.992-.311.054,3.323-3.753.1-.114.147.036a20.07,20.07,0,0,0,5.311.584l.15,0,.072.131,2.43,4.387-.281-.116,7.967-2.314-.169.24q-.153-2.548-.3-5.006l-.008-.139.119-.071a20.106,20.106,0,0,0,4.178-3.34l.093-.1.129.037,4.816,1.388-.245.1,4.006-7.266.042.24-3.746-3.331-.083-.074.027-.107a20.242,20.242,0,0,0,.6-5.329l0-.1.088-.049,4.393-2.418-.071.174-2.287-7.975.117.082-5.007.273-.05,0-.025-.042a21.1,21.1,0,0,0-2.405-3.276l-.684-.738a2.06,2.06,0,0,1-.224-.247,2.5,2.5,0,0,1,.254.217c.162.152.407.384.716.711a19.694,19.694,0,0,1,2.484,3.248l-.076-.04,5-.337.091-.006.026.088,2.357,7.955.034.115-.106.059-4.377,2.447.086-.151a20.505,20.505,0,0,1-.576,5.426l-.056-.181,3.762,3.313.117.1-.075.137-3.976,7.282-.082.149-.164-.047L335.62,174l.221-.06a20.523,20.523,0,0,1-4.262,3.428l.11-.21q.153,2.459.311,5.005l.012.187-.181.053-7.962,2.33-.186.055-.095-.17-2.436-4.383.222.127a20.56,20.56,0,0,1-5.443-.591l.247-.077-3.32,3.756-.134.151-.177-.1-7.277-3.988-.179-.1.056-.2.688-2.4.346-1.209.174-.606.087-.3.044-.152.022-.076.011-.038.005-.019,0-.01v0c.139.51.038.141.069.254h0l0,0a20.609,20.609,0,0,1-3.423-4.269l.234.123-5.006.3-.2.012-.057-.195-2.318-7.966-.056-.193.175-.1,4.388-2.43-.127.222a20.7,20.7,0,0,1,.6-5.441l.075.24-3.75-3.326-.143-.126.092-.166,4-7.27.088-.159.175.05,4.817,1.388-.22.06A20.567,20.567,0,0,1,310.2,142l-.1.193c-.1-1.75-.2-3.457-.3-5.006l-.01-.161.154-.044,7.97-2.3.14-.04.07.127,2.421,4.392-.151-.086a20.492,20.492,0,0,1,5.417.609l-.148.046,3.337-3.74.069-.078.09.05,7.251,4.033.058.032-.018.062c-.462,1.545-.817,2.736-1.065,3.563l-.284.919a2.47,2.47,0,0,1-.109.315" transform="translate(-159.52 -72.618)" fill="#4a506b"/><path d="M414.807,140.736l-7.229-28.746,29.412-.486Z" transform="translate(-219.825 -60.139)" fill="#4a506b"/><rect width="16.713" height="67.587" transform="translate(198.193 70.263) rotate(-52.806)" fill="#4a506b"/></g><g clip-path="url(#a)"><path d="M533.851,330.566l3.736,8.471s-7.355,6.643-6.817,8.275l16.684-6.654-5.28-13.437Z" transform="translate(-286.252 -176.484)" fill="#e8505b"/><g transform="translate(244.49 150.736)" opacity="0.5"><g clip-path="url(#d)"><path d="M533.851,330.566l3.736,8.471s-7.355,6.643-6.817,8.275l16.684-6.654-5.28-13.437Z" transform="translate(-530.742 -327.22)"/></g></g><path d="M547.4,354.83l-.585-1.334-15.778,6.879s-.614.62-.322,1.109Z" transform="translate(-286.193 -190.656)" fill="#263238"/><path d="M599.858,355.529l4.677,7.99s-6.551,7.437-5.83,9l15.818-8.512-6.776-12.748Z" transform="translate(-322.877 -189.448)" fill="#e8505b"/><g transform="translate(275.771 161.809)" opacity="0.5"><g clip-path="url(#e)"><path d="M599.858,355.529l4.677,7.99s-6.551,7.437-5.83,9l15.818-8.512-6.776-12.748Z" transform="translate(-598.649 -351.257)"/></g></g><path d="M614.45,377.459l-.733-1.258-14.892,8.631s-.539.685-.193,1.138Z" transform="translate(-322.806 -202.902)" fill="#263238"/><path d="M537.563,88.51l-10.253.8-.34-5.74s-4.136-.06-4.755-4.1-1.224-13.43-1.224-13.43a14.2,14.2,0,0,1,14.381-.211l.664.377Z" transform="translate(-280.993 -34.506)" fill="#ffbe9d"/><path d="M533.938,103.759A9.5,9.5,0,0,0,539,101.518a5.176,5.176,0,0,1-4.985,3.38Z" transform="translate(-287.976 -54.753)" fill="#eb996e"/><path d="M553.85,77.739c.065-.04,2.665-1.213,2.965,1.566a2.1,2.1,0,0,1-2.565,2.428c-.014-.079-.4-3.994-.4-3.994" transform="translate(-298.716 -41.777)" fill="#ffbe9d"/><path d="M556.288,81.609c.011-.01.052.029.138.057a.486.486,0,0,0,.363-.031,1.2,1.2,0,0,0,.438-1.135,1.6,1.6,0,0,0-.21-.678.564.564,0,0,0-.4-.333.248.248,0,0,0-.271.164c-.029.082-.005.135-.019.141s-.065-.04-.055-.157a.311.311,0,0,1,.09-.186.368.368,0,0,1,.26-.1.683.683,0,0,1,.552.376,1.651,1.651,0,0,1,.252.756,1.264,1.264,0,0,1-.576,1.276.52.52,0,0,1-.451-.026c-.094-.059-.115-.12-.106-.126" transform="translate(-300.018 -42.798)" fill="#eb996e"/><path d="M524.779,81.546a.583.583,0,0,0,.639.5.558.558,0,0,0,.522-.6.584.584,0,0,0-.639-.505.559.559,0,0,0-.523.605" transform="translate(-283.034 -43.653)" fill="#263238"/><path d="M524.375,79.662c.082.065.474-.32,1.1-.406s1.122.161,1.178.076c.029-.039-.064-.164-.282-.281a1.6,1.6,0,0,0-.957-.154,1.536,1.536,0,0,0-.859.417c-.171.174-.216.319-.176.348" transform="translate(-282.811 -42.543)" fill="#263238"/><path d="M537.908,80.027a.584.584,0,0,0,.639.5.559.559,0,0,0,.522-.6.584.584,0,0,0-.639-.505.558.558,0,0,0-.522.605" transform="translate(-290.115 -42.834)" fill="#263238"/><path d="M537.68,78.048c.082.065.475-.32,1.1-.406s1.121.161,1.178.075c.028-.038-.063-.164-.283-.281a1.6,1.6,0,0,0-.956-.154,1.539,1.539,0,0,0-.86.417c-.17.174-.216.319-.176.348" transform="translate(-289.987 -41.673)" fill="#263238"/><path d="M532.268,83.55a4.161,4.161,0,0,0-1.036-.04c-.161.006-.316,0-.358-.109a.816.816,0,0,1,.04-.486q.142-.608.3-1.275a20.97,20.97,0,0,0,.61-3.311,21.066,21.066,0,0,0-.875,3.254c-.1.447-.19.872-.279,1.28a.928.928,0,0,0,.006.635.4.4,0,0,0,.293.2,1.092,1.092,0,0,0,.275,0,4.092,4.092,0,0,0,1.024-.143" transform="translate(-286.183 -42.246)" fill="#263238"/><path d="M536.259,90.038c-.1.008-.008.684-.519,1.244s-1.239.587-1.231.682c0,.044.179.109.484.074a1.7,1.7,0,0,0,1.033-.531,1.481,1.481,0,0,0,.392-1.037c-.014-.286-.113-.443-.158-.432" transform="translate(-288.284 -48.561)" fill="#263238"/><path d="M536.595,72.949c.085.16.695-.007,1.437-.022s1.36.1,1.435-.064c.033-.079-.092-.223-.353-.353a2.5,2.5,0,0,0-2.188.065c-.253.146-.369.3-.331.374" transform="translate(-289.405 -38.988)" fill="#263238"/><path d="M524.308,75.65c.129.126.537-.081,1.051-.16.511-.1.965-.039,1.044-.2.034-.078-.055-.21-.264-.316a1.541,1.541,0,0,0-1.689.291c-.161.171-.2.325-.143.387" transform="translate(-282.769 -40.364)" fill="#263238"/><path d="M515.882,57.751a1.508,1.508,0,0,1,.364-1.412,1.07,1.07,0,0,1,1.387-.091,1.249,1.249,0,0,1,.852-1.649c.654-.135,1.287.285,1.95.37a3.035,3.035,0,0,0,1.859-.484c.565-.325,1.078-.737,1.653-1.044a5.225,5.225,0,0,1,7.045,2.108,2.321,2.321,0,0,1,2.566.58,3.809,3.809,0,0,1,.95,2.574,8.561,8.561,0,0,1-.207,1.881c.007.052.019.1.026.154.271,2.231.387,4.88-.56,5.028-1.651.258-1.7-2.915-1.7-2.915-2.141-.5-1.812-3.648-2.385-4.038s-1.786-1.313-5.732,1.458a8.315,8.315,0,0,1-4.967,1.255c-.036,0-.072,0-.109-.006l-.025,0c-.013,0-.023-.007-.037-.009a3.86,3.86,0,0,1-1.155-.309,2.177,2.177,0,0,1-1.039-.872,1.192,1.192,0,0,1,.054-1.3,2.619,2.619,0,0,1-.794-1.276" transform="translate(-278.215 -28.494)" fill="#263238"/><path d="M533.938,105.426l.457,16.064,10-21.518-.251-1.992Z" transform="translate(-287.976 -52.845)" fill="#ebebeb"/><path d="M524.077,217.863c-.366.12-21.177,21.167-20.709,24.947s15.282,31.778,15.282,31.778l10.569-5.211L519.3,244.832l.13-1.523,12.117-9.929-.647-15.968Z" transform="translate(-271.484 -117.26)" fill="#263238"/><path d="M558.073,218.116c.242.367,3.846,33.432,4.812,35.143S578.326,283.2,578.326,283.2l10.748-4.331-13.12-31.023,1.5-29.362-.809-8.291-16.226,3.327Z" transform="translate(-300.993 -113.365)" fill="#263238"/><path d="M562.683,263.934a1.862,1.862,0,0,1-.07-.331c-.04-.24-.092-.558-.157-.955l-.533-3.517c-.431-2.995-1.02-7.091-1.671-11.616-.625-4.531-1.191-8.63-1.6-11.627-.192-1.471-.348-2.67-.46-3.527-.047-.4-.085-.719-.113-.961a1.837,1.837,0,0,1-.024-.337,1.871,1.871,0,0,1,.07.331c.04.24.091.557.157.954l.532,3.517,1.671,11.619c.625,4.529,1.19,8.629,1.6,11.626.192,1.471.348,2.67.46,3.528l.113.96a1.858,1.858,0,0,1,.024.337" transform="translate(-300.98 -124.622)" fill="#455a64"/><path d="M594.562,289.87a31.367,31.367,0,0,1-1.472,5.177,31.369,31.369,0,0,1,1.472-5.177" transform="translate(-319.875 -156.339)" fill="#455a64"/><path d="M597.923,298.522a2.993,2.993,0,0,1-.587-.816,8.042,8.042,0,0,1-1-4.695,3,3,0,0,1,.2-.984,10.488,10.488,0,0,0,1.385,6.494" transform="translate(-321.61 -157.503)" fill="#455a64"/><path d="M530.446,269.2a5.663,5.663,0,0,1,2.973,2.711c-.058.038-.571-.714-1.393-1.458s-1.613-1.192-1.58-1.253" transform="translate(-286.092 -145.188)" fill="#455a64"/><path d="M533.985,267.082a4.6,4.6,0,0,1,1.605,2.6,39.3,39.3,0,0,0-1.605-2.6" transform="translate(-287.999 -144.047)" fill="#455a64"/><path d="M535.925,128.718l2.66,13.2,2.165,18.418s8.926-1.247,12.73-2.451c4.412-1.4,14.013-2.586,14.013-2.586l-1.618,1.6a11.43,11.43,0,0,0,5.622-4.24c-5.92-5.491-10.971-16.787-10.971-16.787l-4.5-22.352s-.684-3.153-1.1-4.555-7.248-5.925-8.2-6.5l-.6-.281-.189-1.791-.7-.422-7.4,6.721a8.017,8.017,0,0,0-2.575,5.023,57.981,57.981,0,0,0-.323,8.408c.088,2.618.978,8.593.978,8.593" transform="translate(-288.502 -53.92)" fill="#529d2e"/><path d="M527.845,112.426s-3.909,2.1-4.586,3.874,1.337,21.275,1.337,21.275l-14.035.263-.044,8.363s22.293,1.762,23.161.556c1.173-1.63,2.536-16.865,2.536-16.865l.506-10.961s-1.292-8.359-8.875-6.506" transform="translate(-275.344 -60.492)" fill="#263238"/><g transform="translate(249.819 72.036)" opacity="0.3"><g clip-path="url(#f)"><path d="M542.574,172.337a13.425,13.425,0,0,0,5.618.525,5.577,5.577,0,0,0,4.736-3.1c.572-1.408.334-3,.42-4.513.076-1.318.4-2.608.6-3.914a13.537,13.537,0,0,0-.909-4.954s-.5,9.05-1.916,12.85a3.114,3.114,0,0,1-.868,1.387,3.409,3.409,0,0,1-1.835.505,53.176,53.176,0,0,1-6.111-.123" transform="translate(-542.311 -156.376)"/></g></g><path d="M536.567,129.434a1.225,1.225,0,0,1,0,.2c-.005.141-.013.334-.023.582-.025.523-.061,1.276-.108,2.239s-.113,2.164-.186,3.542-.13,2.955-.3,4.688c-.151,1.734-.333,3.632-.55,5.667s-.467,4.209-.854,6.483a14.125,14.125,0,0,1-.385,1.719,3.355,3.355,0,0,1-1.012,1.516,2.563,2.563,0,0,1-1.746.624c-.619.014-1.239,0-1.867-.01-2.505-.062-5.095-.19-7.746-.334-3.984-.22-7.823-.469-11.411-.72l-.1-.007v-.1c.018-2.97.035-5.769.05-8.35v-.1l.1,0,13.547-.291,3.79-.066,1-.01c.226,0,.342.007.342.007s-.116.013-.342.023l-1,.04-3.788.12-13.545.374.1-.1c-.009,2.581-.018,5.38-.028,8.35l-.1-.111c3.587.245,7.426.49,11.409.71,2.65.144,5.239.274,7.739.339.625.008,1.245.025,1.855.012a2.34,2.34,0,0,0,1.613-.57,3.133,3.133,0,0,0,.947-1.417,14.045,14.045,0,0,0,.381-1.686c.391-2.262.64-4.435.874-6.466s.416-3.929.578-5.661c.18-1.731.237-3.3.334-4.683s.163-2.564.224-3.539.116-1.713.151-2.236l.046-.581a1.2,1.2,0,0,1,.023-.2" transform="translate(-275.214 -69.809)" fill="#263238"/><path d="M516.384,176.3a35.678,35.678,0,0,1-.094-4.056,35.615,35.615,0,0,1,.137-4.055,35.71,35.71,0,0,1,.094,4.056,35.564,35.564,0,0,1-.137,4.054" transform="translate(-278.457 -90.711)" fill="#263238"/><path d="M512.876,170.816c-.027-.015.113-.171.38-.083a.432.432,0,0,1,.285.372.51.51,0,0,1-.285.5.524.524,0,0,1-.565-.1.472.472,0,0,1-.137-.442c.063-.264.247-.321.253-.294.023.026-.087.124-.091.314a.321.321,0,0,0,.117.263.33.33,0,0,0,.327.052.314.314,0,0,0,.168-.278.271.271,0,0,0-.141-.235c-.161-.1-.3-.035-.311-.065" transform="translate(-276.437 -92.069)" fill="#263238"/><path d="M580.873,133.539s7.3,9.548,8.191,12.149a9.563,9.563,0,0,1-1.285,8.124c-1.487,1.786-2.687,1.06-2.687,1.06Z" transform="translate(-313.29 -72.023)" fill="#263238"/><path d="M585.137,178.163a15.31,15.31,0,0,1-3.7.635,15.256,15.256,0,0,1,3.7-.635" transform="translate(-313.595 -96.08)" fill="#263238"/><path d="M592.511,193.467a2.459,2.459,0,0,1,.2.5c.111.329.278.8.495,1.383a41.077,41.077,0,0,0,1.961,4.424,46.618,46.618,0,0,0,2.453,4.175c.341.518.622.934.819,1.22a2.487,2.487,0,0,1,.285.461,2.413,2.413,0,0,1-.357-.407c-.22-.27-.522-.673-.882-1.182a35.836,35.836,0,0,1-2.523-4.161,32.576,32.576,0,0,1-1.91-4.476c-.2-.591-.343-1.074-.427-1.412a2.453,2.453,0,0,1-.112-.53" transform="translate(-319.566 -104.345)" fill="#263238"/><g transform="translate(273.441 90.253)" opacity="0.3"><g clip-path="url(#g)"><path d="M593.591,195.922a21.575,21.575,0,0,0,4.109,5.741,10.611,10.611,0,0,1,1.793,1.737,2.186,2.186,0,0,1,.229,2.35.738.738,0,0,1-.728.393.936.936,0,0,1-.477-.386,28.456,28.456,0,0,1-4.848-9.52" transform="translate(-593.591 -195.922)"/></g></g><g transform="translate(268.196 62.956)" opacity="0.3"><g clip-path="url(#h)"><path d="M586.486,156.523a3.532,3.532,0,0,0,1.2-3.307,12.242,12.242,0,0,0-1.213-3.471,57.176,57.176,0,0,1-3.557-10.431l-.714-2.648,3.612,18.9Z" transform="translate(-582.205 -136.665)"/></g></g><path d="M552.257,107.712a16.194,16.194,0,0,1,1.361-1.36,16.057,16.057,0,0,1,1.359-1.361,8.089,8.089,0,0,1-2.72,2.721" transform="translate(-297.855 -56.625)" fill="#263238"/><path d="M544.3,114.405c.012.039-.422.169-1.067.489a8.486,8.486,0,0,0-3.876,3.922c-.312.65-.437,1.084-.476,1.073a.866.866,0,0,1,.051-.316,5.2,5.2,0,0,1,.276-.824,7.622,7.622,0,0,1,3.956-4,5.255,5.255,0,0,1,.821-.287.866.866,0,0,1,.315-.054" transform="translate(-290.641 -61.701)" fill="#263238"/><path d="M586.713,156.975a.807.807,0,0,1-.115-.183l-.292-.548-1.051-2.056,0-.008,0-.011c-.457-2.092-1.1-5.144-1.8-8.538l-1.668-8.228-.479-2.5c-.048-.275-.087-.5-.119-.682a.122.122,0,1,1,.046-.009l.161.673.551,2.484,1.734,8.214c.7,3.394,1.32,6.451,1.732,8.553l-.006-.018.987,2.087.256.566a.81.81,0,0,1,.075.2" transform="translate(-313.439 -72.262)" fill="#263238"/><path d="M538.694,146.58a4.111,4.111,0,0,1-.107-.692c-.053-.488-.123-1.126-.206-1.894-.164-1.6-.374-3.814-.592-6.259s-.4-4.662-.525-6.266c-.054-.771-.1-1.411-.133-1.9a3.993,3.993,0,0,1-.017-.7,4.131,4.131,0,0,1,.107.693c.053.488.122,1.126.206,1.895.164,1.6.374,3.813.592,6.259s.4,4.659.525,6.264c.054.771.1,1.411.133,1.9a4.047,4.047,0,0,1,.018.7" transform="translate(-289.685 -69.505)" fill="#263238"/><path d="M498.762,167.106A23.262,23.262,0,0,0,495,164.672c-.566-.106-3.944-.05-5.5-.018a1.111,1.111,0,0,0-1.115,1.079.638.638,0,0,0,.01.11,1.014,1.014,0,0,0,.739.767,1.178,1.178,0,0,0-.818,1.108c-.013.878,1.049,1.062,1.049,1.062a1.506,1.506,0,0,0-.152.135,1.047,1.047,0,0,0,.514,1.756l.479.109a1.036,1.036,0,0,0-.639.872c.018,1.155,2.614,1.376,2.614,1.376s6.417,1.016,6.556.97.026-6.891.026-6.891" transform="translate(-263.369 -88.781)" fill="#ffbe9d"/><path d="M492.179,161.1a1.871,1.871,0,0,0,.765,1.557l3.576-.14a14.225,14.225,0,0,1-3.042-1.373,3.079,3.079,0,0,0-.51-.5.506.506,0,0,0-.789.455" transform="translate(-265.453 -86.593)" fill="#ffbe9d"/><path d="M494.133,164.6a5.25,5.25,0,0,1-1.633.116,6.626,6.626,0,0,1-1.629-.116,5.247,5.247,0,0,1,1.633-.116,6.629,6.629,0,0,1,1.629.116" transform="translate(-264.748 -88.714)" fill="#eb996e"/><path d="M492.924,168.922a5.181,5.181,0,0,1-2.806-.1,26.559,26.559,0,0,1,2.806.1" transform="translate(-264.342 -91.036)" fill="#eb996e"/><path d="M499.417,168.514c.053.033-.016.228-.217.358s-.407.114-.415.052.133-.142.29-.246.289-.2.343-.164" transform="translate(-269.016 -90.883)" fill="#eb996e"/><path d="M493.464,173.788a10.287,10.287,0,0,1-3.075-.1,10.284,10.284,0,0,1,3.075.1" transform="translate(-264.488 -93.636)" fill="#eb996e"/><path d="M500.626,171.918c.029-.008.084.064.1.2a.737.737,0,0,1-.626.8c-.141.016-.224-.021-.222-.05,0-.063.308-.1.512-.366s.173-.571.234-.585" transform="translate(-269.607 -92.723)" fill="#eb996e"/><path d="M495.012,178.372a8.361,8.361,0,0,1-2.752-.34,8.39,8.39,0,0,1,2.752.34" transform="translate(-265.497 -96.001)" fill="#eb996e"/><path d="M501.729,176.362c.029,0,.073.074.069.213a.861.861,0,0,1-.192.486c-.262.316-.555.432-.588.388s.19-.264.406-.53.245-.546.3-.557" transform="translate(-270.218 -95.12)" fill="#eb996e"/><path d="M599.083,221.118a4.089,4.089,0,0,0,3.1-1.954c.073-.123.136-.293.04-.4a.355.355,0,0,0-.27-.081,8.39,8.39,0,0,0-2.939.5.4.4,0,0,0-.263.2.41.41,0,0,0,.012.242l.378,1.453" transform="translate(-322.925 -117.945)" fill="#e8505b"/><g transform="translate(275.812 100.738)" opacity="0.4"><g clip-path="url(#i)"><path d="M599.083,221.118a4.089,4.089,0,0,0,3.1-1.954c.073-.123.136-.293.04-.4a.355.355,0,0,0-.27-.081,8.39,8.39,0,0,0-2.939.5.4.4,0,0,0-.263.2.41.41,0,0,0,.012.242l.378,1.453" transform="translate(-598.738 -218.683)"/></g></g><path d="M532.607,114.143s-1.472,4.942-1.066,4.661,1.285-1.061,1.285-1.061Z" transform="translate(-286.645 -61.562)" fill="#ebebeb"/><path d="M532.927,119.089l-.805,1.924a2.6,2.6,0,0,0-.156.621c-.067.539-.144,1.527.177,1.6a1.08,1.08,0,0,0,.86-.356Z" transform="translate(-286.881 -64.23)" fill="#263238"/><path d="M557.781,118.017s-7.875-3.073-12.236-.359-5.155,7.043-7.752,7.043c-5.064,0-4.9-3.573-4.9-3.573l-1.077.326c-.021.732-1.174,5.981,4.163,6.632s7.58-6.625,12.381-6.632a15.937,15.937,0,0,1,8.446,2.6l3.449-2.182Z" transform="translate(-286.767 -62.854)" fill="#263238"/><path d="M544.455,128.479a7.4,7.4,0,0,0,3.038-3.486c1.223-2.822,3.85-6.045,6.043-6.855s7.267-1.375,10.771.909l2.245,3.032-2.914,1.89a27.06,27.06,0,0,0-5.135-2.056c-3.622-1.012-5.823.131-7.928,2.124-.131.124-.251.246-.356.365a23.887,23.887,0,0,1-3.334,2.951,5.255,5.255,0,0,1-2.43,1.125" transform="translate(-293.648 -63.335)" fill="#455a64"/></g><g clip-path="url(#a)"><path d="M76.408,22.266c-4.671.72-8.1-3.2-9.187-6.7-1.008-3.225-1.487-6.58-2.9-9.647C62.338,1.635,57.1-.346,52.391.05S42.944,2.8,38.782,5.032l1.148,25.8S49,21.183,53.351,21.008c7.268-.293,6.872,11.653,13.929,13.417a16.389,16.389,0,0,0,16.584-5.958,24.311,24.311,0,0,0,4.621-12.145s-3.251,4.584-12.077,5.943" transform="translate(-20.917 0)" fill="#529d2e"/><path d="M38.365,1.63c.064,0,1.335,27.4,2.839,61.2s2.672,61.209,2.608,61.212-1.335-27.393-2.839-61.2S38.3,1.633,38.365,1.63" transform="translate(-20.691 -0.879)" fill="#263238"/><g transform="translate(42.624 13.783)" opacity="0.2"><g clip-path="url(#k)"><path d="M92.528,29.921a31.409,31.409,0,0,0,3.436,7.745,9.527,9.527,0,0,0,5.832,4.39,5.684,5.684,0,0,1,1.309.34,1.264,1.264,0,0,1,.779,1.027c.019.676-.679,1.118-1.286,1.417a10.6,10.6,0,0,1-2.685,1.032c-.946.176-1.686.275-2.336-.435a13.593,13.593,0,0,1-1.689-2.024c-2.132-3.634-3.187-8.831-3.36-12.942" transform="translate(-92.528 -29.921)"/></g></g><path d="M98.336,40.2a.947.947,0,0,1-.21-.12c-.133-.086-.323-.222-.557-.41A9.6,9.6,0,0,1,95.845,37.8a14.378,14.378,0,0,1-1.725-3.355,37.026,37.026,0,0,1-1.277-4.434,49.5,49.5,0,0,1-1.19-8.286c-.059-1.071-.07-1.938-.069-2.537.006-.278.011-.506.015-.69a.929.929,0,0,1,.022-.24.975.975,0,0,1,.025.24c.007.183.017.411.028.689.027.6.062,1.462.142,2.527a55.333,55.333,0,0,0,1.253,8.245,39.464,39.464,0,0,0,1.252,4.412,14.82,14.82,0,0,0,1.659,3.335,10.444,10.444,0,0,0,1.647,1.9c.447.394.721.581.709.6" transform="translate(-49.395 -9.847)" fill="#263238"/><rect width="3.352" height="5.231" transform="translate(51.547 48.179)" fill="#263238"/><path d="M114.992,100.844h-6.9V95.206a13.171,13.171,0,0,1,6.9,0Z" transform="translate(-58.297 -51.101)" fill="#529d2e"/><path d="M115.032,95.795a1.312,1.312,0,0,1-.255.126,6.513,6.513,0,0,1-.727.268,8.443,8.443,0,0,1-1.12.265,9.523,9.523,0,0,1-1.4.12,9.633,9.633,0,0,1-1.406-.106A8.55,8.55,0,0,1,109,96.213a6.583,6.583,0,0,1-.729-.261,1.32,1.32,0,0,1-.256-.124c.008-.021.381.136,1.008.3a9.808,9.808,0,0,0,1.115.228,9.5,9.5,0,0,0,2.778-.013,9.807,9.807,0,0,0,1.113-.238c.625-.175,1-.335,1.005-.314" transform="translate(-58.256 -51.665)" fill="#263238"/><path d="M112.971,102.29c-.033,0-.059-1.083-.059-2.417s.026-2.418.059-2.418.059,1.082.059,2.418-.026,2.417-.059,2.417" transform="translate(-60.898 -52.562)" fill="#263238"/><path d="M115.822,102.335c-.033,0-.059-1.087-.059-2.428s.026-2.429.059-2.429.059,1.087.059,2.429-.026,2.428-.059,2.428" transform="translate(-62.436 -52.574)" fill="#263238"/><path d="M118.673,102.288c-.033,0-.059-1.087-.059-2.428s.026-2.429.059-2.429.059,1.087.059,2.429-.026,2.428-.059,2.428" transform="translate(-63.974 -52.549)" fill="#263238"/><path d="M121.048,101.828c-.033,0-.059-1.175-.059-2.624s.026-2.625.059-2.625.059,1.175.059,2.625-.026,2.624-.059,2.624" transform="translate(-65.255 -52.089)" fill="#263238"/><path d="M110.275,101.755c-.033,0-.059-1.175-.059-2.624s.026-2.625.059-2.625.059,1.175.059,2.625-.026,2.624-.059,2.624" transform="translate(-59.444 -52.05)" fill="#263238"/><rect width="3.783" height="2.424" transform="matrix(0.723, -0.691, 0.691, 0.723, 69.574, 57.521)" fill="#263238"/><path d="M156.739,119.212,153.29,115.6l2.948-2.817a9.527,9.527,0,0,1,3.449,3.609Z" transform="translate(-82.676 -60.83)" fill="#529d2e"/><path d="M154.543,116.755c-.019-.02.649-.7,1.493-1.512s1.543-1.46,1.563-1.44-.649.7-1.493,1.512-1.543,1.46-1.563,1.44" transform="translate(-83.351 -61.378)" fill="#263238"/><path d="M155.97,118.248a4.086,4.086,0,0,1,.448-.454c.286-.271.685-.64,1.128-1.046l1.14-1.032.347-.31c.083-.074.124-.111.129-.112a13.271,13.271,0,0,1-1.548,1.528c-.443.4-.849.767-1.147,1.024a3.963,3.963,0,0,1-.5.4" transform="translate(-84.121 -62.184)" fill="#263238"/><path d="M157.87,120.229a4.146,4.146,0,0,1,.455-.457c.289-.273.694-.644,1.144-1.051l1.159-1.034.356-.309a1.2,1.2,0,0,1,.135-.109,2.691,2.691,0,0,1-.442.47c-.287.276-.69.65-1.14,1.057s-.862.77-1.164,1.029a4.1,4.1,0,0,1-.5.4" transform="translate(-85.146 -63.249)" fill="#263238"/><path d="M159.648,122.069c-.019-.02.658-.693,1.511-1.5s1.562-1.45,1.581-1.43-.658.693-1.512,1.5-1.562,1.45-1.581,1.429" transform="translate(-86.105 -64.255)" fill="#263238"/><rect width="2.424" height="3.783" transform="matrix(0.75, -0.662, 0.662, 0.75, 29.934, 58.009)" fill="#263238"/><path d="M65.125,118.841l-3.743,3.3-2.7-3.057a9.522,9.522,0,0,1,3.743-3.3Z" transform="translate(-31.651 -62.447)" fill="#529d2e"/><path d="M62.587,124.678c-.021.018-.671-.676-1.452-1.551s-1.4-1.6-1.377-1.619.671.676,1.452,1.551,1.4,1.6,1.377,1.618" transform="translate(-32.23 -65.535)" fill="#263238"/><path d="M64.142,123.152a4.086,4.086,0,0,1-.436-.466c-.259-.3-.613-.709-1-1.168l-.986-1.18-.3-.359c-.07-.087-.106-.129-.107-.133a13.277,13.277,0,0,1,1.466,1.607c.387.459.732.879.978,1.187a3.971,3.971,0,0,1,.381.512" transform="translate(-33.071 -64.637)" fill="#263238"/><path d="M66.2,121.265a4.141,4.141,0,0,1-.438-.473c-.261-.3-.616-.719-1-1.185l-.988-1.2-.294-.368a1.179,1.179,0,0,1-.1-.139,2.711,2.711,0,0,1,.452.46c.264.3.621.715,1.011,1.181s.735.892.982,1.2a4.073,4.073,0,0,1,.383.518" transform="translate(-34.179 -63.589)" fill="#263238"/><path d="M68.1,119.745c-.021.018-.667-.685-1.442-1.57s-1.387-1.618-1.366-1.637.667.685,1.442,1.57,1.387,1.618,1.366,1.636" transform="translate(-35.215 -62.854)" fill="#263238"/><path d="M109.405,138.326a27.63,27.63,0,1,1-27.63-27.63,27.63,27.63,0,0,1,27.63,27.63" transform="translate(-29.203 -59.703)" fill="#529d2e"/><path d="M109.789,140.956A25.384,25.384,0,1,1,84.4,115.572a25.384,25.384,0,0,1,25.384,25.384" transform="translate(-31.833 -62.333)" fill="#fff"/><path d="M84.3,166.325a25.471,25.471,0,1,1,25.471-25.471A25.5,25.5,0,0,1,84.3,166.325m0-50.768a25.3,25.3,0,1,0,25.3,25.3,25.326,25.326,0,0,0-25.3-25.3" transform="translate(-31.731 -62.231)" fill="#263238"/><path d="M79.545,137.18c1.057-3.283,3.225-5.5,6.1-7.416a16.55,16.55,0,0,1,10.224-2.336v20.458Z" transform="translate(-42.902 -68.694)" fill="#e1f3d7"/><path d="M96.834,161.283l-11.418-8.87,13.372,6.165.393,2.343Z" transform="translate(-46.068 -82.203)" fill="#529d2e"/><g transform="translate(39.347 70.21)" opacity="0.4"><g clip-path="url(#l)"><path d="M85.416,152.413l11.923,7.011,1.448-.846Z" transform="translate(-85.416 -152.413)"/></g></g><path d="M112.528,165.81a2.376,2.376,0,1,1-2.376,2.376,2.376,2.376,0,0,1,2.376-2.376" transform="translate(-59.41 -89.429)" fill="#fafafa"/><path d="M112.472,165.8a5.107,5.107,0,0,0-.574.1,2.368,2.368,0,0,0-1.282.867,2.327,2.327,0,0,0-.325,2.2,2.327,2.327,0,0,0,.81,1.076,2.311,2.311,0,0,0,2.741,0,2.325,2.325,0,0,0,.81-1.077,2.327,2.327,0,0,0-.325-2.2,2.369,2.369,0,0,0-1.281-.867,5.107,5.107,0,0,0-.574-.1,1.846,1.846,0,0,1,.585.052,2.4,2.4,0,0,1,1.8,1.876,2.429,2.429,0,0,1-.1,1.276,2.43,2.43,0,0,1-.844,1.132,2.417,2.417,0,0,1-2.876,0,2.428,2.428,0,0,1-.844-1.132,2.427,2.427,0,0,1-.1-1.275,2.39,2.39,0,0,1,.46-1.015,2.364,2.364,0,0,1,1.336-.861,1.84,1.84,0,0,1,.585-.053" transform="translate(-59.354 -89.422)" fill="#263238"/><path d="M113.239,167.129a1.768,1.768,0,1,1-1.768,1.768,1.769,1.769,0,0,1,1.768-1.768" transform="translate(-60.121 -90.14)" fill="#263238"/><path d="M114.866,147.764s-.487-15.3.221-18.526a76.311,76.311,0,0,1-.221,18.526" transform="translate(-61.864 -69.704)" fill="#263238"/><path d="M86.39,167.477h-.031l.068-1.907.054,0Zm9.525-1.546L95.2,164.16l.053-.021.685,1.781Zm-18.892-.911-.029-.015.849-1.709.047.024Zm26.983-4.39-1.361-1.338.035-.036,1.35,1.35Zm-34.532-1.661-.029-.035,1.48-1.206.025.03Zm39.784-6.473-1.789-.665.019-.05,1.782.685Zm-44.227-2.125-.013-.049,1.845-.49.009.033Zm43.8-7.335,0-.031,1.905-.115,0,.054Zm0-.035,0-.042,1.905-.115,0,.042Zm-42.473-2.008-1.887-.286.006-.043,1.887.288Zm40.137-6.569-.018-.035,1.7-.877.021.04Zm-37-1.742L67.89,131.65l.021-.033,1.609,1.027Zm31.373-5.132-.033-.026,1.193-1.491.033.027ZM75.74,126.361l-1.046-1.6.029-.019,1.059,1.588Zm17.193-2.817-.036-.01.479-1.848.047.012Zm-8.915-.416-.31-1.883.043-.007.308,1.884Z" transform="translate(-34.771 -65.388)" fill="#263238"/></g><path d="M47.225,279.182l61.715,10.1v-10.1Z" transform="translate(-25.47 -150.575)" fill="#e0e0e0"/><path d="M203.312,328.727l61.715,10.1v-10.1Z" transform="translate(-109.655 -177.297)" fill="#e0e0e0"/><path d="M358.324,376.121l61.715,10.1v-10.1Z" transform="translate(-193.26 -202.859)" fill="#e0e0e0"/><path d="M513.131,413.836l61.715,10.1v-10.1Z" transform="translate(-276.754 -223.2)" fill="#e0e0e0"/><rect width="61.715" height="7.567" transform="translate(21.754 121.04)" fill="#529d2e"/><g clip-path="url(#a)"><g transform="translate(64.211 121.04)" opacity="0.3"><g clip-path="url(#n)"><rect width="19.258" height="7.567"/></g></g></g><rect width="61.715" height="7.567" transform="translate(93.657 143.863)" fill="#529d2e"/><g clip-path="url(#a)"><g transform="translate(136.114 143.863)" opacity="0.3"><g clip-path="url(#n)"><rect width="19.258" height="7.567"/></g></g></g><rect width="61.715" height="7.567" transform="translate(165.065 165.695)" fill="#529d2e"/><g clip-path="url(#a)"><g transform="translate(207.521 165.695)" opacity="0.3"><g clip-path="url(#n)"><rect width="19.258" height="7.567"/></g></g></g><rect width="61.715" height="7.567" transform="translate(236.472 183.069)" fill="#529d2e"/><g clip-path="url(#a)"><g transform="translate(278.928 183.069)" opacity="0.3"><g clip-path="url(#n)"><rect width="19.258" height="7.567" transform="translate(0 0)"/></g></g><path d="M564.745,335.651a1.678,1.678,0,1,0,1.678-1.678,1.678,1.678,0,0,0-1.678,1.678" transform="translate(-304.592 -180.126)" fill="#ebebeb"/></g></g></g></svg>