<svg xmlns="http://www.w3.org/2000/svg" width="227.636" height="163.072" viewBox="0 0 227.636 163.072"><g transform="translate(-380.682 -6399)"><g transform="translate(7090.318 12211.083)"><path d="M295.2,301.082s-38.447-32.828-9.22-63.942c31.117-33.126,3.549-75.653,45.789-92.812,45.667-18.551,57.417,14.122,76.536,9.105,38.132-10.007,86.5-5.079,78.452,43.527-10.1,61.015,31.345,53.232,6.728,104.325Z" transform="translate(-6984.646 -5950.657)" fill="#fed5b1"/><path d="M.359,0H216.944a.359.359,0,0,1,.359.359v0a.359.359,0,0,1-.359.359H.359A.359.359,0,0,1,0,.359v0A.359.359,0,0,1,.359,0Z" transform="translate(-6699.303 -5649.73)" fill="#233862"/></g><g transform="translate(-155.764 6204.949)"><g transform="translate(573.657 230.148)"><g transform="translate(60.735 43.17)"><g transform="translate(5.753)"><rect width="5.753" height="23.535" fill="#a2f476"/><g transform="translate(0.769 1.966)"><path d="M607.757,248.969a2.109,2.109,0,1,1,2.107-2.109A2.11,2.11,0,0,1,607.757,248.969Zm0-3.692a1.583,1.583,0,1,0,1.581,1.583A1.585,1.585,0,0,0,607.757,245.278Z" transform="translate(-605.648 -244.752)" fill="#fff"/></g></g><g transform="translate(11.506)"><rect width="5.753" height="23.535" fill="#fc8116"/><g transform="translate(0.768 1.966)"><path d="M610.493,248.969a2.109,2.109,0,1,1,2.107-2.109A2.111,2.111,0,0,1,610.493,248.969Zm0-3.692a1.583,1.583,0,1,0,1.581,1.583A1.585,1.585,0,0,0,610.493,245.278Z" transform="translate(-608.384 -244.752)" fill="#fff"/></g></g><rect width="5.753" height="23.535" fill="#529d2e"/><g transform="translate(0.768 1.966)"><path d="M605.02,248.969a2.109,2.109,0,1,1,2.109-2.109A2.111,2.111,0,0,1,605.02,248.969Zm0-3.692a1.583,1.583,0,1,0,1.583,1.583A1.585,1.585,0,0,0,605.02,245.278Z" transform="translate(-602.911 -244.752)" fill="#fff"/></g></g><path d="M705.331,258.187H601.414a1.644,1.644,0,0,1,0-3.288H705.331a1.644,1.644,0,1,1,0,3.288Z" transform="translate(-544.87 -188.43)" fill="#a2f476"/><g transform="translate(117.11 68.235)"><rect width="42.947" height="55.074" fill="#a2f476"/><g transform="translate(0.666 1.298)"><g transform="translate(0 0.003)"><path d="M671.029,267.217H629.94a.264.264,0,0,1-.263-.263V256.621a.263.263,0,0,1,.263-.263h14.755a.263.263,0,0,1,0,.526H630.2v9.808h40.564v-9.808h-14.45a.263.263,0,1,1,0-.526h14.713a.262.262,0,0,1,.263.263v10.333A.263.263,0,0,1,671.029,267.217Z" transform="translate(-629.677 -256.358)" fill="#fff"/></g><g transform="translate(14.753)"><path d="M647.918,259.179H637.766a.263.263,0,0,1-.248-.175l-.809-2.3a.268.268,0,0,1,.162-.336.263.263,0,0,1,.336.164l.744,2.117h9.772c.208-.7.414-1.4.606-2.1a.266.266,0,0,1,.321-.185.263.263,0,0,1,.185.322c-.208.767-.437,1.537-.664,2.3A.264.264,0,0,1,647.918,259.179Z" transform="translate(-636.694 -256.357)" fill="#fff"/></g><g transform="translate(0 10.474)"><g transform="translate(0 0.001)"><path d="M671.029,272.2H629.94a.264.264,0,0,1-.263-.263V261.6a.264.264,0,0,1,.263-.263h14.755a.263.263,0,0,1,0,.526H630.2v9.808h40.564v-9.808h-14.45a.263.263,0,1,1,0-.526h14.713a.263.263,0,0,1,.263.263v10.333A.263.263,0,0,1,671.029,272.2Z" transform="translate(-629.677 -261.339)" fill="#fff"/></g><g transform="translate(14.753)"><path d="M647.918,264.163H637.766a.26.26,0,0,1-.248-.177l-.809-2.3a.264.264,0,0,1,.5-.172l.744,2.121h9.772c.208-.7.414-1.4.606-2.1a.262.262,0,1,1,.506.135c-.208.769-.437,1.537-.664,2.306A.263.263,0,0,1,647.918,264.163Z" transform="translate(-636.694 -261.339)" fill="#fff"/></g></g><g transform="translate(0 20.807)"><g transform="translate(0 0.001)"><path d="M671.029,277.115H629.94a.264.264,0,0,1-.263-.263V266.517a.264.264,0,0,1,.263-.263h14.755a.263.263,0,0,1,0,.526H630.2v9.81h40.564v-9.81h-14.45a.263.263,0,1,1,0-.526h14.713a.263.263,0,0,1,.263.263v10.335A.263.263,0,0,1,671.029,277.115Z" transform="translate(-629.677 -266.254)" fill="#fff"/></g><g transform="translate(14.753)"><path d="M647.918,269.078H637.766a.26.26,0,0,1-.248-.177l-.809-2.3a.264.264,0,0,1,.5-.172l.744,2.121h9.772c.208-.7.414-1.4.606-2.1a.262.262,0,1,1,.506.135c-.208.769-.437,1.537-.664,2.306A.263.263,0,0,1,647.918,269.078Z" transform="translate(-636.694 -266.254)" fill="#fff"/></g></g><g transform="translate(0 31.143)"><g transform="translate(0 0.001)"><path d="M671.029,282.029H629.94a.264.264,0,0,1-.263-.263V271.433a.264.264,0,0,1,.263-.263h14.755a.263.263,0,0,1,0,.526H630.2V281.5h40.564V271.7h-14.45a.263.263,0,1,1,0-.526h14.713a.263.263,0,0,1,.263.263v10.333A.263.263,0,0,1,671.029,282.029Z" transform="translate(-629.677 -271.17)" fill="#fff"/></g><g transform="translate(14.754)"><path d="M647.918,273.992H637.765a.26.26,0,0,1-.248-.177l-.807-2.294a.262.262,0,1,1,.494-.177l.746,2.121h9.772c.208-.7.414-1.4.606-2.1a.263.263,0,1,1,.507.139c-.208.767-.437,1.535-.664,2.3A.264.264,0,0,1,647.918,273.992Z" transform="translate(-636.695 -271.17)" fill="#fff"/></g></g><g transform="translate(0 41.615)"><g transform="translate(0 0.002)"><path d="M671.029,287.011H629.94a.264.264,0,0,1-.263-.263V276.415a.263.263,0,0,1,.263-.263h14.755a.263.263,0,0,1,0,.526H630.2v9.808h40.564v-9.808h-14.45a.263.263,0,1,1,0-.526h14.713a.262.262,0,0,1,.263.263v10.333A.263.263,0,0,1,671.029,287.011Z" transform="translate(-629.677 -276.152)" fill="#fff"/></g><g transform="translate(14.753)"><path d="M647.918,278.973H637.766a.26.26,0,0,1-.248-.177l-.809-2.294a.268.268,0,0,1,.162-.336.264.264,0,0,1,.336.164l.744,2.117h9.772c.208-.7.414-1.4.606-2.1a.262.262,0,1,1,.506.137c-.2.746-.425,1.493-.645,2.237C648.137,278.9,648.034,278.973,647.918,278.973Z" transform="translate(-636.694 -276.151)" fill="#fff"/></g></g></g></g><g transform="translate(0 1.734)"><path d="M598.1,259.84q-1.492,18.026-2.983,35.989c-.061.643-.1,1.266-.166,1.907-.061.767-.124,1.514-.185,2.279-1.306.063-2.632.124-3.938.187q-.186-1.586-.435-3.606c-.33-2.817-.746-6.217-1.242-10.07-.891-6.837-1.182-8.847-1.409-12.1a98.066,98.066,0,0,1,.061-14.193q5.1-.621,10.195-1.245C598.019,259.278,598.061,259.568,598.1,259.84Z" transform="translate(-558.38 -185.657)" fill="#ff9769"/><path d="M596.033,284.648a.481.481,0,0,1-.023.12,2.315,2.315,0,0,1-.38.715h-7.945a2.328,2.328,0,0,1-.2-.835,1.557,1.557,0,0,1,.011-.463,2.98,2.98,0,0,1,1.224-1.678,6.973,6.973,0,0,0,2.187-4.1c1.337.04,2.659.09,3.984.13a8.5,8.5,0,0,0,.742,3.929A3.148,3.148,0,0,1,596.033,284.648Z" transform="translate(-558.43 -164.251)" fill="#12263f"/><rect width="8.859" height="1.004" transform="translate(29.04 120.571)" fill="#529d2e"/><rect width="2.649" height="0.471" transform="translate(32.915 116.086)" fill="#529d2e"/><rect width="2.649" height="0.471" transform="translate(32.915 117.012)" fill="#529d2e"/><ellipse cx="1.383" cy="1.822" rx="1.383" ry="1.822" transform="translate(33.18 111.86)" fill="#12263f"/><path d="M593.608,276.511c-.061.643-.1,1.266-.166,1.907-1.512-.372-3.044-.767-4.558-1.139C590.459,277.03,592.034,276.782,593.608,276.511Z" transform="translate(-556.871 -166.34)" fill="#12263f"/><g transform="translate(47.399 72.669)"><path d="M615.238,284.768a1.727,1.727,0,0,1-1.053.473,70.734,70.734,0,0,1-7.558.09c-1.892-.042-3.585-.105-4.371-.132a4.733,4.733,0,0,1-.055-.673,6.065,6.065,0,0,1,.029-.833c.013-.08.025-.158.042-.231a6.462,6.462,0,0,1,.376-1.285,6.085,6.085,0,0,0,.124-3.465c1.3-.193,2.615-.3,3.925-.425.534.368,1.057.732,1.587,1.1.158.105.318.217.482.332.1.067.2.137.3.21.16.109.317.221.484.33.111.08.223.154.334.233l.475.33.307.212c.366.254.473.326.481.33.6.414,3.807.462,4.44,1.633A1.681,1.681,0,0,1,615.238,284.768Z" transform="translate(-589.593 -237.05)" fill="#12263f"/><path d="M613.326,299.926c-1.325.124-2.651.25-3.957.374-.414-.933-.807-1.844-1.2-2.735s-.786-1.741-1.161-2.569c-1.367-3-2.609-5.658-3.688-7.894-3.149-6.486-4.081-8.248-5.075-11.273a43.268,43.268,0,0,1-1.928-16.617c3.419-.185,6.818-.351,10.237-.538l.309.807c1.991,12.454,3.98,24.865,5.969,37.317C613,297.834,613.162,298.892,613.326,299.926Z" transform="translate(-596.202 -258.673)" fill="#ff9769"/><path d="M611.983,283.518l-6.4-.622,3.835-2.9a2.368,2.368,0,0,1,2.714,2.113A2.8,2.8,0,0,1,611.983,283.518Z" transform="translate(-585.856 -235.188)" fill="#12263f"/></g><rect width="14.186" height="1.004" transform="translate(59.731 120.571)" fill="#529d2e"/><rect width="2.649" height="0.471" transform="matrix(0.805, -0.593, 0.593, 0.805, 64.164, 116.177)" fill="#529d2e"/><rect width="2.649" height="0.471" transform="translate(64.809 116.701) rotate(-36.345)" fill="#529d2e"/><path d="M.723,0H1.935a0,0,0,0,1,0,0V2.389a0,0,0,0,1,0,0H0a0,0,0,0,1,0,0V.723A.723.723,0,0,1,.723,0Z" transform="translate(63.435 112.348)" fill="#12263f"/><path d="M607.165,277.752c-1.554.248-3.107.517-4.663.767-.393-.891-.786-1.741-1.161-2.569C603.269,276.549,605.216,277.15,607.165,277.752Z" transform="translate(-543.139 -166.958)" fill="#12263f"/><path d="M603.554,231.539c1.728,3.273,3.444,6.524,5.172,9.8.507.959,1.026,1.941,1.53,2.9l2.655,5.027c-1.175,1.711-2.332,3.429-3.482,5.128L603.6,245.9c-2.474-3.582-4.926-7.178-7.4-10.758,2.929-2.952,5.47-3.515,7.018-3.585C603.336,231.55,603.453,231.547,603.554,231.539Z" transform="translate(-548.806 -215.916)" fill="#ff9769"/><path d="M613.377,251.9l-7.079,4.4-4.922-7.943q-.722-4.037-1.446-8.071l-3.955-9.572a12.789,12.789,0,0,1,5.38.507C608.123,233.421,612.683,241.649,613.377,251.9Z" transform="translate(-549.054 -216.911)" fill="#12263f"/><rect width="21.807" height="26.229" transform="translate(30.557 37.688)" fill="#12263f"/><path d="M597.9,275.458l-10.241,1.236q.656-16.32,1.312-32.637l10.39,6.528Q598.625,263.023,597.9,275.458Z" transform="translate(-558.226 -202.116)" fill="#ff9769"/><path d="M598.916,275.9l10.312-.271q-3.034-16.049-6.063-32.1-4.664,3.986-9.326,7.974Q596.378,263.706,598.916,275.9Z" transform="translate(-551.409 -202.693)" fill="#ff9769"/><path d="M609.456,261.273a16.248,16.248,0,0,1-21.264-1.713q.971-3.191,1.947-6.387-.52-9.757-1.038-19.516a17.913,17.913,0,0,1,9.1-3.091A18.251,18.251,0,0,1,610,234.259l-2.1,18.524Z" transform="translate(-557.634 -217.015)" fill="#ff9769"/><path d="M597.374,227.909c.042.563.078,1.114.12,1.68.046.61.082,1.226.128,1.835.071,1.1.155,2.195.24,3.29-1.932,0-3.864-.006-5.781-.017.647-2.418,1.3-4.821,1.964-7.245Q595.709,227.683,597.374,227.909Z" transform="translate(-553.348 -220.421)" fill="#ff9769"/><path d="M595.44,227.821l.65,1.362c.046.61.082,1.226.128,1.835a2.489,2.489,0,0,1-1.886-.378,2.524,2.524,0,0,1-.912-2.6C594.081,227.966,594.758,227.886,595.44,227.821Z" transform="translate(-551.943 -220.015)" fill="#12263f"/><path d="M596.47,233.134l.149-.006a2.562,2.562,0,0,0,2.5-2.51L599,225.494a5.051,5.051,0,0,0-3.12-.807,5.3,5.3,0,0,0-2.9,1.123l.105,4.421A3.1,3.1,0,0,0,596.47,233.134Z" transform="translate(-552.358 -223.484)" fill="#ff9769"/><path d="M599.73,312.08l-13.855-1.167q2.179-32.7,4.358-65.4l11.086,3.461Q600.524,280.528,599.73,312.08Z" transform="translate(-560.188 -200.508)" fill="#529d2e"/><path d="M610.507,271.712q3.639,19.845,7.274,39.691H601.723q-4.207-31.69-8.414-63.385l11.759-2.594Q607.789,258.568,610.507,271.712Z" transform="translate(-551.993 -200.61)" fill="#529d2e"/><path d="M611.08,250.168a13.5,13.5,0,0,1-2.567,2.525c-7.615,5.691-18.888,1.243-20.652.519a24.77,24.77,0,0,1,2.649-11.7l17.759-.389Q609.676,245.643,611.08,250.168Z" transform="translate(-558.005 -205.353)" fill="#529d2e"/><path d="M608.627,256.252a19.7,19.7,0,0,1-19.851-.162q-.23-11.334-.458-22.672a35.767,35.767,0,0,1,5.418-2.191c.944-.3,1.854-.538,2.72-.736a2.749,2.749,0,0,0,5.491.093,17.257,17.257,0,0,1,8.3,3.61Q609.439,245.225,608.627,256.252Z" transform="translate(-557.495 -217.071)" fill="#fff"/><path d="M598.128,281.171H585.091q.066-21.2.128-42.414a13.354,13.354,0,0,1,4.306-4.92c2.216-1.493,4.753-2.119,8.513-3.044.87-.214,1.591-.37,2.071-.469Q599.118,255.749,598.128,281.171Z" transform="translate(-561.052 -217.254)" fill="#12263f"/><path d="M594.963,281.2H608q-2.182-23.441-4.362-46.881a29.439,29.439,0,0,0-8.853-4.011Q594.872,255.749,594.963,281.2Z" transform="translate(-550.367 -217.279)" fill="#12263f"/><rect width="33.145" height="55.987" transform="translate(0.264 15.914)" fill="#fff"/><g transform="translate(0 15.652)"><path d="M601.24,288.065H573.92a.264.264,0,0,1-.263-.263V231.816a.264.264,0,0,1,.263-.263h28.357a.263.263,0,1,1,0,.526H574.183V287.54H601.24a.263.263,0,1,1,0,.526Z" transform="translate(-573.657 -231.553)" fill="#12263f"/></g><path d="M583.49,235.1a.834.834,0,0,1-1.007.441.847.847,0,0,1-.456-.618.931.931,0,0,1-.828,1.106.912.912,0,0,1-.763-.9c.008.206.021.912-.269,1.024s-.818-.378-1.316-1.243a.921.921,0,0,1-.585.61.932.932,0,0,1-.854-.2l-.845-3.08a6.056,6.056,0,0,1,6.923,0Z" transform="translate(-570.449 -216.334)" fill="#ff9769"/><path d="M594.891,239.78q-.6,1.7-1.186,3.393c1.894,1.264,3.667,2.367,5.275,3.324.807.481,1.573.919,2.283,1.327.889.509,1.581.872,1.684.927,6.843,3.648,10.02,1.482,10.02,1.482a4.61,4.61,0,0,0,1.943-3.318,4.476,4.476,0,0,0-2.687-3.992,76.3,76.3,0,0,1-10.316-1.369C599.371,241.041,597.029,240.43,594.891,239.78Z" transform="translate(-551.556 -206.831)" fill="#ff9769"/><path d="M607.016,251.307q-5.181-1.012-10.361-2.029l.795-8.683,15.122-.177a6.937,6.937,0,0,1,.313,8A7.224,7.224,0,0,1,607.016,251.307Z" transform="translate(-548.304 -206.127)" fill="#12263f"/><g transform="translate(5.012 47.432)"><path d="M583.2,253.83l6.976-1.61a7.159,7.159,0,1,1-8.586-5.367,7.277,7.277,0,0,1,1.61-.183Z" transform="translate(-576.041 -246.669)" fill="#529d2e"/><g transform="translate(7.161)"><path d="M579.447,253.83v-7.161a7.036,7.036,0,0,1,6.976,5.55Z" transform="translate(-579.447 -246.669)" fill="#12263f"/></g></g><g transform="translate(6.903 23.326)"><g transform="translate(5.27)"><path d="M584.11,245.137l-4.663-8.771a9.6,9.6,0,0,1,4.663-1.163Z" transform="translate(-579.447 -235.203)" fill="#12263f"/></g><g transform="translate(0 1.163)"><path d="M586.874,244.527l6.648,7.382a9.934,9.934,0,1,1-13.293-14.765,9.486,9.486,0,0,1,1.983-1.388Z" transform="translate(-576.94 -235.756)" fill="#fc8116"/></g><g transform="translate(9.933)"><path d="M581.665,245.137V235.2a9.933,9.933,0,0,1,9.934,9.934,9.521,9.521,0,0,1-3.286,7.382Z" transform="translate(-581.665 -235.203)" fill="#529d2e"/></g></g><path d="M599.979,226.854c.034.418.582.507.568.757-.025.441-1.77,1.015-3.694.8-1.358-.151-1.676-.572-2.26-.313-1.331.589-1.068,3.37-1.4,3.366-.278,0-.5-1.938-.4-3.7a4.287,4.287,0,0,1,.341-1.682c.511-1.1,1.549-1.848,1.808-1.674.187.124-.08.7.111.8.267.145.952-.879,1.346-.7.189.084.105.349.29.448.4.212,1.013-.9,1.915-.841a1.631,1.631,0,0,1,.805.362c.25.16,1.167.748,1.1,1.392C600.469,226.328,599.948,226.442,599.979,226.854Z" transform="translate(-552.585 -224.108)" fill="#12263f"/><g transform="translate(42.069 5.243)"><path d="M595.29,228.654c-.91,0-1.623-.452-1.623-1.026s.713-1.026,1.623-1.026,1.621.441,1.621,1.026S596.2,228.654,595.29,228.654Zm0-1.526c-.618,0-1.1.269-1.1.5,0,.2.427.5,1.1.5s1.1-.3,1.1-.5S595.969,227.128,595.29,227.128Z" transform="translate(-593.667 -226.602)" fill="#12263f"/></g><g transform="translate(45.458 5.243)"><path d="M596.9,228.654c-.91,0-1.623-.452-1.623-1.026s.713-1.026,1.623-1.026,1.621.452,1.621,1.026S597.813,228.654,596.9,228.654Zm0-1.526c-.616,0-1.1.269-1.1.5,0,.2.429.5,1.1.5s1.1-.3,1.1-.5C598,227.4,597.518,227.128,596.9,227.128Z" transform="translate(-595.279 -226.602)" fill="#12263f"/></g><g transform="translate(27.541 22.647)"><path d="M599.836,244.986a.253.253,0,0,1-.156-.053l-12.818-9.581a.265.265,0,0,1-.052-.37.268.268,0,0,1,.368-.053l12.816,9.581a.264.264,0,0,1-.158.475Z" transform="translate(-586.757 -234.88)" fill="#a2f476"/></g><path d="M598.618,245.1l-5.008.387a12.8,12.8,0,0,1-.776-1.423,13.264,13.264,0,0,1-1.209-5.483c.311.013.776.036,1.337.086a12.039,12.039,0,0,1,3.5.606,5.769,5.769,0,0,1,2.67,2.4c.076.383.595,3.105-.166,3.425A.5.5,0,0,1,598.618,245.1Z" transform="translate(-553.849 -208.159)" fill="#ff9769"/><path d="M592.668,246.625h-8.939a.193.193,0,0,1-.194-.191c0-.154.086-.24.194-.24h8.939a.192.192,0,0,1,.191.191C592.859,246.539,592.773,246.625,592.668,246.625Z" transform="translate(-562.768 -199.761)" fill="#529d2e"/><path d="M592.668,247h-8.939a.193.193,0,0,1-.194-.193c0-.151.086-.238.194-.238h8.939a.192.192,0,0,1,.191.191C592.859,246.912,592.773,247,592.668,247Z" transform="translate(-562.768 -199.349)" fill="#529d2e"/><path d="M592.668,247.372h-8.939a.193.193,0,0,1-.194-.193c0-.151.086-.24.194-.24h8.939a.194.194,0,0,1,.191.193C592.859,247.286,592.773,247.372,592.668,247.372Z" transform="translate(-562.768 -198.939)" fill="#529d2e"/><path d="M592.668,247.745h-8.939a.194.194,0,0,1-.194-.193c0-.154.086-.24.194-.24h8.939a.192.192,0,0,1,.191.193C592.859,247.657,592.773,247.745,592.668,247.745Z" transform="translate(-562.768 -198.528)" fill="#529d2e"/><path d="M592.668,252.088h-8.939a.194.194,0,0,1-.194-.193c0-.154.086-.24.194-.24h8.939a.192.192,0,0,1,.191.193C592.859,252,592.773,252.088,592.668,252.088Z" transform="translate(-562.768 -193.741)" fill="#529d2e"/><path d="M592.668,252.459h-8.939a.193.193,0,0,1-.194-.191c0-.153.086-.24.194-.24h8.939a.192.192,0,0,1,.191.193C592.859,252.373,592.773,252.459,592.668,252.459Z" transform="translate(-562.768 -193.329)" fill="#529d2e"/><path d="M592.668,252.832h-8.939a.193.193,0,0,1-.194-.191c0-.153.086-.24.194-.24h8.939a.192.192,0,0,1,.191.191C592.859,252.746,592.773,252.832,592.668,252.832Z" transform="translate(-562.768 -192.918)" fill="#529d2e"/><path d="M592.668,253.205h-8.939a.193.193,0,0,1-.194-.191c0-.153.086-.24.194-.24h8.939a.192.192,0,0,1,.191.191C592.859,253.119,592.773,253.205,592.668,253.205Z" transform="translate(-562.768 -192.507)" fill="#529d2e"/><path d="M595.146,234.593q-1.479-.933-2.956-1.869.025-1.22.046-2.437l2.845.845Z" transform="translate(-553.227 -217.296)" fill="#fff"/><path d="M595.646,234.641h-1.854q.11-1.728.221-3.454.927-.47,1.854-.944Z" transform="translate(-551.461 -217.345)" fill="#fff"/><circle cx="0.427" cy="0.427" r="0.427" transform="translate(41.787 20.312)" fill="#12263f"/><path d="M594.387,237.461a.427.427,0,1,1-.427-.427A.427.427,0,0,1,594.387,237.461Z" transform="translate(-551.746 -209.859)" fill="#12263f"/><circle cx="0.427" cy="0.427" r="0.427" transform="translate(41.787 38.97)" fill="#12263f"/><g transform="translate(49.641 33.609)"><path d="M609.232,241.04l-11.708-.421a.266.266,0,0,1-.254-.273.283.283,0,0,1,.273-.252l11.7.421a.263.263,0,0,1-.008.526Z" transform="translate(-597.269 -240.094)" fill="#fff"/></g><g transform="translate(48.341 40.131)"><path d="M604.5,248.143a.279.279,0,0,1-.133-.036l-7.583-4.421a.264.264,0,0,1,.265-.456l7.583,4.423a.263.263,0,0,1-.133.49Z" transform="translate(-596.65 -243.196)" fill="#fff"/></g></g><g transform="translate(75.067 0.932)"><path d="M623.578,234.683c-.587,2.275-1.383,5.367-4.179,7.171-1.831,1.184-5.241,2.277-6.759.637-1.23-1.329-.952-4.169.389-5.439,1.135-1.076,2.559-.574,3.238-1.77.618-1.1-.269-2.052.473-2.849.576-.616,1.377-.328,2.332-1.251a3.841,3.841,0,0,0,.605-.778c1.934-3.128,2.92-5.637,3.538-5.569C624.047,224.928,624.846,229.768,623.578,234.683Z" transform="translate(-606.617 -222.505)" fill="#529d2e"/><path d="M621.305,274.453l10.317-3.372Q628.711,258,625.8,244.921l-9.679.347Z" transform="translate(-601.912 -200.361)" fill="#ff9769"/><path d="M611.209,272.45l10.838.61q2.044-13.245,4.085-26.49l-9.141-3.194Q614.1,257.914,611.209,272.45Z" transform="translate(-607.327 -202.065)" fill="#ff9769"/><path d="M629.778,255.047a42.3,42.3,0,0,0-16.188-4.514,31.572,31.572,0,0,0,2.853-9.965l11.843.128a23.157,23.157,0,0,1,1.493,14.351Z" transform="translate(-604.704 -205.16)" fill="#ff9769"/><path d="M627.9,252.449l-11.5-.574q-1.473-9.388-2.943-18.779a18.2,18.2,0,0,1,23.122,4.465Q632.238,245,627.9,252.449Z" transform="translate(-604.851 -215.971)" fill="#ff9769"/><path d="M624.646,284.983c0,.282.032.532.048.721.845.032,2.659.093,4.678.141,1.861.046,3.927.078,5.569.046a22.8,22.8,0,0,0,2.5-.141c.547-.078,1.015-.2,1.125-.517a.286.286,0,0,0-.015-.25c-.109-.484-.969-1.047-1.236-1.219-.627-.437-1.268-.877-1.909-1.314-.391-.282-.8-.563-1.2-.845-.172-.109-.345-.235-.515-.345-.111-.092-.221-.156-.33-.233-.156-.109-.328-.235-.5-.359-.124-.08-.233-.158-.359-.235-.172-.126-.345-.235-.517-.359a3.686,3.686,0,0,0-.328-.219c-.172-.126-.345-.25-.515-.362-.563-.391-1.127-.782-1.676-1.156-1.423.109-2.815.233-4.224.36a6.678,6.678,0,0,1-.124,3.786,6.21,6.21,0,0,0-.391,1.36,1.509,1.509,0,0,0-.048.25A6.01,6.01,0,0,0,624.646,284.983Z" transform="translate(-592.521 -163.526)" fill="#12263f"/><path d="M622.456,275.545c1.94,5.952,3.359,8.777,4.015,12.236a27.3,27.3,0,0,0,1.732,5.782c.254.6.448.963.723,1.575q1.4,3.109,2.985,6.715c1.409-.145,2.817-.269,4.226-.414q-3.45-21.6-6.921-43.2l-.309-.87q-5.159,1.678-10.318,3.376A132.79,132.79,0,0,0,622.456,275.545Z" transform="translate(-599.191 -186.642)" fill="#ff9769"/><path d="M622.315,234.817a3.161,3.161,0,0,1-5.647.94q.492-2.488.751-5.115c.046-.471.094-.94.126-1.425a4.079,4.079,0,0,1,.029-.423c0-.015.048-.906.048-.906.954-.141,1.909-.282,2.878-.423a31.939,31.939,0,0,0,.658,3.536A36.007,36.007,0,0,0,622.315,234.817Z" transform="translate(-601.31 -219.605)" fill="#ff9769"/><path d="M617.3,227.95a1.321,1.321,0,0,0,1.724.574,1.234,1.234,0,0,0,.242-1.749,1.322,1.322,0,0,0-1.722-.576A1.236,1.236,0,0,0,617.3,227.95Z" transform="translate(-600.887 -221.155)" fill="#ff9769"/><path d="M617.131,227.965a.93.93,0,0,0,1.261.292.872.872,0,0,0,.3-1.224.937.937,0,0,0-1.264-.292A.872.872,0,0,0,617.131,227.965Z" transform="translate(-600.951 -220.548)" fill="#ff9769"/><path d="M619.434,228.614a2.909,2.909,0,0,1-2.409,1.331c.046-.471.095-.94.126-1.425a4.062,4.062,0,0,1,.029-.423Z" transform="translate(-600.916 -218.908)" fill="#12263f"/><g transform="translate(13.756 1.039)"><path d="M618.631,233.25l-.158-.015a2.737,2.737,0,0,1-2.563-2.788l.351-5.466a5.386,5.386,0,0,1,3.366-.727,5.655,5.655,0,0,1,3.048,1.324l-.3,4.716A3.311,3.311,0,0,1,618.631,233.25Z" transform="translate(-615.906 -224.22)" fill="#ff9769"/></g><path d="M635.923,253.437c-.708,2.214-6.023,3.166-6.711,2.59-.62-1.306-1.24-2.613-1.861-3.9q-3.418-7.206-6.841-14.372c.065-.109.133-.2.2-.309a12.657,12.657,0,0,1,6.955-4.518q1.794,4.45,3.587,8.9C632.8,245.708,634.371,249.56,635.923,253.437Z" transform="translate(-597.074 -213.58)" fill="#ff9769"/><path d="M609.534,252.2c.708,2.214,6.023,3.166,6.709,2.59.62-1.306,1.241-2.611,1.861-3.9q3.422-7.209,6.843-14.372c-.067-.111-.132-.2-.2-.311a12.65,12.65,0,0,0-6.953-4.518l-3.589,8.9C612.656,244.467,611.084,248.321,609.534,252.2Z" transform="translate(-609.174 -214.948)" fill="#ff9769"/><path d="M611.262,274.152c.208,3.046.477,4.951,1.493,12.93.351,2.735.662,5.241.952,7.5.063.643.145,1.266.208,1.865.248,1.989.475,3.751.641,5.243,1.388-.063,2.8-.124,4.207-.187.166-1.968.33-3.957.5-5.927q1.523-18.521,3.068-37c-.042-.311-.084-.622-.124-.912-3.564-.187-7.148-.372-10.733-.559A103.974,103.974,0,0,0,611.262,274.152Z" transform="translate(-607.549 -186.936)" fill="#ff9769"/><path d="M610.979,285.249a1.95,1.95,0,0,0,0,.5,1.6,1.6,0,0,0,.063.456h8.889a1.745,1.745,0,0,0,.166-.332c0-.04.021-.082.021-.124-.145-.767-.29-1.554-.435-2.342-.311-1.8-.6-3.564-.849-5.283a14.124,14.124,0,0,0-2.84-.04c-.517.04-.994.124-1.43.185-.828,3.482-1.636,4.724-2.279,5.18A3.523,3.523,0,0,0,610.979,285.249Z" transform="translate(-607.598 -163.864)" fill="#12263f"/><rect width="2.217" height="0.588" transform="translate(39.409 116.935) rotate(134.996)" fill="#fff"/><rect width="2.217" height="0.588" transform="translate(9.875 116.683) rotate(177.576)" fill="#fff"/><rect width="2.217" height="0.588" transform="translate(9.929 117.611) rotate(177.576)" fill="#fff"/><rect width="2.217" height="0.588" transform="translate(40.198 117.586) rotate(135)" fill="#fff"/><path d="M619.622,315.508l-4.915.387c-3.5-13.02-6.98-34.092-.837-58.02a107.009,107.009,0,0,1,5.811-16.729q2.911,8.5,5.824,17Q622.562,286.83,619.622,315.508Z" transform="translate(-608.106 -204.522)" fill="#fc8116"/><path d="M619.622,315.508l-4.915.387c-3.5-13.02-6.98-34.092-.837-58.02a107.009,107.009,0,0,1,5.811-16.729q2.911,8.5,5.824,17Q622.562,286.83,619.622,315.508Z" transform="translate(-608.106 -204.522)" fill="#fc8116"/><path d="M639.455,317.24l-5.155,1.5a185.518,185.518,0,0,1-18.5-60.12q5.027-8.994,10.049-17.99Q632.651,278.932,639.455,317.24Z" transform="translate(-602.267 -205.093)" fill="#fc8116"/><path d="M630.859,256.747l-13.413-.795q-1.8-4.434-3.61-8.868l2.142-5.992,11.914-.551a26.183,26.183,0,0,1,1.356,2.92A27.757,27.757,0,0,1,630.859,256.747Z" transform="translate(-604.431 -205.189)" fill="#fc8116"/><path d="M630.278,252.7l-12.345-.53Q615,244.8,612.063,237.42a8.953,8.953,0,0,1,3.194-5.092,9.126,9.126,0,0,1,6.816-1.743,2.786,2.786,0,0,0,1.041,2.174c1.074.627,3.036.013,4.051-1.928a12.456,12.456,0,0,1,11.748,8.576Z" transform="translate(-606.386 -216.269)" fill="#12263f"/><path d="M633.084,237.906c.555.753.29.929.967,2.17,1.087,2,2.086,2.113,2.271,3.011.416,2.006-3.616,5.973-7.316,5.374-2.409-.389-3.723-2.561-5.5-5.5-1.312-2.17-3.471-5.737-3.048-10.1.2-2.058.788-3.027.134-4.209-1.087-1.97-4.6-1.278-4.92-2.718-.17-.767.65-1.751,1.489-2.073a2.772,2.772,0,0,1,1.943.13c4.468,1.545,6.332.608,7.251,2.2.584,1.011-.093,1.52.647,2.849.765,1.369,1.669,1.165,2.266,2.332.837,1.631-.591,2.7.2,4.079C630.225,236.786,631.829,236.2,633.084,237.906Z" transform="translate(-602.437 -223.726)" fill="#529d2e"/><g transform="translate(29.764 12.422)"><path d="M625.685,232.539a.262.262,0,0,1-.246-.175c-.05-.139-.086-.259-.12-.37a2.209,2.209,0,0,0-.4-.833,3.148,3.148,0,0,0-1.249-1.028.263.263,0,1,1,.225-.475,3.709,3.709,0,0,1,1.447,1.19,2.736,2.736,0,0,1,.481,1c.032.1.063.212.109.343a.262.262,0,0,1-.16.336A.242.242,0,0,1,625.685,232.539Z" transform="translate(-623.52 -229.635)" fill="#a2f476"/></g><g transform="translate(26.794 6.325)"><path d="M622.9,230.425c-.2-.036-.288-.177-.257-.317q.035-.161.076-.322a2.608,2.608,0,0,0-.084-2,2.041,2.041,0,0,0-.441-.593.262.262,0,1,1,.355-.385,2.606,2.606,0,0,1,.555.738,3.1,3.1,0,0,1,.124,2.363c-.023.105-.048.21-.072.313A.261.261,0,0,1,622.9,230.425Z" transform="translate(-622.107 -226.735)" fill="#a2f476"/></g><g transform="translate(22.614 0.773)"><path d="M622.413,226.817a.265.265,0,0,1-.263-.265,1.746,1.746,0,0,0-.231-1.026,1.936,1.936,0,0,0-1.583-.91.263.263,0,0,1,.092-.517,2.441,2.441,0,0,1,1.947,1.165,2.273,2.273,0,0,1,.3,1.293A.263.263,0,0,1,622.413,226.817Z" transform="translate(-620.119 -224.094)" fill="#a2f476"/></g><rect width="15.684" height="21.354" transform="translate(10.943 21.294)" fill="#fff"/><path d="M628.2,237.98l8.185-3.166a25.091,25.091,0,0,1,0,4.4,4.22,4.22,0,0,1-.4,1.877c-1.112,1.856-4.775,1.451-5.5,1.36a7.877,7.877,0,0,0-2.462,1.3c-.641.5-.572.645-2.18,2.3-.7.719-1.369,1.385-1.987,2-.776.776-1.39,1.341-1.48,1.425-6.049,5.67-9.93,4.318-9.93,4.318a4.919,4.919,0,0,1-2.924-2.882,4.781,4.781,0,0,1,1.659-4.867,81.536,81.536,0,0,0,10.266-4.283C623.929,240.528,626.176,239.246,628.2,237.98Z" transform="translate(-609.363 -211.503)" fill="#ff9769"/><g transform="translate(3.547 31.122)"><path d="M611.313,241.512a.262.262,0,0,1-.1-.5l5.939-2.458a.263.263,0,0,1,.2.486l-5.939,2.458A.246.246,0,0,1,611.313,241.512Z" transform="translate(-611.05 -238.529)" fill="#12263f"/></g><path d="M622.018,241.545l-6.814-5.889a6.376,6.376,0,0,0-.908,5.525,6.248,6.248,0,0,0,6.313,3.94c1.97,1.428,3.818,2.681,5.494,3.77.843.547,1.642,1.047,2.384,1.512.929.582,1.652,1,1.76,1.06,7.159,4.182,10.64,2,10.64,2A4.921,4.921,0,0,0,643.1,250a4.785,4.785,0,0,0-2.7-4.377,81.5,81.5,0,0,1-10.962-1.892C626.749,243.08,624.272,242.329,622.018,241.545Z" transform="translate(-604.261 -210.575)" fill="#ff9769"/><g transform="translate(16.224 31.337)"><path d="M617.344,242.1a.263.263,0,0,1-.181-.454l3.154-2.948a.264.264,0,0,1,.359.387l-3.154,2.945A.252.252,0,0,1,617.344,242.1Z" transform="translate(-617.08 -238.632)" fill="#12263f"/></g><g transform="translate(10.352 28.415)"><path d="M614.55,240.07a.262.262,0,0,1-.12-.5l4.487-2.3a.263.263,0,0,1,.24.469l-4.487,2.3A.272.272,0,0,1,614.55,240.07Z" transform="translate(-614.286 -237.242)" fill="#12263f"/></g><path d="M617.319,243.628q-3.236-1.271-6.471-2.546,1.277-3.646,2.554-7.3,1.154,1.372,2.308,2.742Z" transform="translate(-607.725 -212.635)" fill="#12263f"/><path d="M631.813,242.74q-4.2,1.325-8.393,2.653-.694-.788-1.392-1.577,2.949-4.544,5.9-9.084Q629.87,238.734,631.813,242.74Z" transform="translate(-595.401 -211.594)" fill="#12263f"/><g transform="translate(20.182 47.125)"><path d="M634.09,309.477a.267.267,0,0,1-.259-.21c-2-9.812-3.963-19.792-5.828-29.658-1.5-7.947-2.973-16-4.377-23.944a6.973,6.973,0,0,1-2.142-1.289c-3.021-2.685-2.544-7.142-2.418-8.008a.251.251,0,0,1,.3-.221.262.262,0,0,1,.221.3c-.118.818-.572,5.033,2.247,7.535a6.524,6.524,0,0,0,2.115,1.245.265.265,0,0,1,.17.2c1.411,7.987,2.893,16.09,4.4,24.083,1.865,9.864,3.824,19.842,5.826,29.65a.261.261,0,0,1-.2.311A.227.227,0,0,1,634.09,309.477Z" transform="translate(-618.962 -246.141)" fill="#fff"/></g><g transform="translate(12.859 42.834)"><path d="M615.742,258.289a.269.269,0,0,1-.261-.294l1.657-13.661a.248.248,0,0,1,.292-.229.262.262,0,0,1,.229.29L616,258.056A.263.263,0,0,1,615.742,258.289Z" transform="translate(-615.479 -244.1)" fill="#fff"/></g><g transform="translate(12.859 56.497)"><path d="M617.382,252.192a.26.26,0,0,1-.143-.044l-1.64-1.068a.264.264,0,0,1-.078-.364.268.268,0,0,1,.366-.076l1.64,1.068a.263.263,0,0,1,.076.364A.26.26,0,0,1,617.382,252.192Z" transform="translate(-615.479 -250.599)" fill="#fff"/></g><g transform="translate(14.499 57.563)"><path d="M617.7,261.6a.265.265,0,0,1-.261-.233l-1.182-9.97a.261.261,0,0,1,.231-.29.257.257,0,0,1,.29.229l1.184,9.969a.263.263,0,0,1-.231.292Z" transform="translate(-616.259 -251.106)" fill="#fff"/></g><g transform="translate(28.15 33.617)"><path d="M627.6,241.028c-.044,0-4.634-.79-4.634-.79a.262.262,0,0,1-.214-.3.265.265,0,0,1,.3-.214l4.589.786a.263.263,0,0,1-.044.521Z" transform="translate(-622.752 -239.716)" fill="#12263f"/></g></g><g transform="translate(116.914 31.005)"><rect width="11.741" height="8.976" transform="translate(16.631 26.488)" fill="#529d2e"/><path d="M674.271,240.6v22.666a4.82,4.82,0,0,1-4.827,4.829H634.1a4.84,4.84,0,0,1-4.724-3.854,4.94,4.94,0,0,1-.105-.976V240.6a2.581,2.581,0,0,1,2.569-2.569H671.7A2.567,2.567,0,0,1,674.271,240.6Z" transform="translate(-629.267 -238.03)" fill="#a2f476"/><path d="M666.487,238.031,645.064,268.1H634.041a4.84,4.84,0,0,1-4.724-3.854l18.667-26.21Z" transform="translate(-629.212 -238.03)" fill="#fff" opacity="0.65"/><path d="M660.655,238.031,639.23,268.1h-1.8l21.424-30.065Z" transform="translate(-620.271 -238.031)" fill="#fff" opacity="0.65"/><path d="M674.271,249.1v1.968a4.82,4.82,0,0,1-4.827,4.829H634.1a4.833,4.833,0,0,1-4.829-4.829V249.1Z" transform="translate(-629.267 -225.83)" fill="#529d2e"/><g transform="translate(20.915 24.994)"><path d="M640.708,252.907a1.494,1.494,0,1,1,1.493-1.495A1.495,1.495,0,0,1,640.708,252.907Zm0-2.462a.968.968,0,1,0,.967.967A.967.967,0,0,0,640.708,250.445Z" transform="translate(-639.215 -249.919)" fill="#fff"/></g><g transform="translate(16.369 29.802)"><path d="M649.056,252.732h-11.74a.263.263,0,1,1,0-.526h11.74a.263.263,0,1,1,0,.526Z" transform="translate(-637.053 -252.206)" fill="#fff"/></g></g><g transform="translate(116.846)"><path d="M638.969,233.28H629.5a.262.262,0,0,1-.263-.263v-9.471a.263.263,0,0,1,.263-.263h9.471a.263.263,0,0,1,.263.263v9.471A.262.262,0,0,1,638.969,233.28Zm-9.208-.526h8.946v-8.946h-8.946Z" transform="translate(-629.235 -223.283)" fill="#12263f"/><g transform="translate(9.471)"><path d="M643.474,233.28H634a.263.263,0,0,1-.263-.263v-9.471a.264.264,0,0,1,.263-.263h9.471a.263.263,0,0,1,.263.263v9.471A.261.261,0,0,1,643.474,233.28Zm-9.208-.526h8.946v-8.946h-8.946Z" transform="translate(-633.74 -223.283)" fill="#12263f"/></g><g transform="translate(18.943)"><path d="M647.979,233.28h-9.471a.262.262,0,0,1-.263-.263v-9.471a.263.263,0,0,1,.263-.263h9.471a.263.263,0,0,1,.263.263v9.471A.262.262,0,0,1,647.979,233.28Zm-9.208-.526h8.946v-8.946h-8.946Z" transform="translate(-638.245 -223.283)" fill="#12263f"/></g><g transform="translate(28.414)"><path d="M652.484,233.28h-9.471a.262.262,0,0,1-.263-.263v-9.471a.263.263,0,0,1,.263-.263h9.471a.263.263,0,0,1,.263.263v9.471A.262.262,0,0,1,652.484,233.28Zm-9.208-.526h8.946v-8.946h-8.946Z" transform="translate(-642.75 -223.283)" fill="#12263f"/></g><g transform="translate(0 9.471)"><path d="M638.969,237.785H629.5a.262.262,0,0,1-.263-.263v-9.471a.263.263,0,0,1,.263-.263h9.471a.263.263,0,0,1,.263.263v9.471A.262.262,0,0,1,638.969,237.785Zm-9.208-.526h8.946v-8.946h-8.946Z" transform="translate(-629.235 -227.788)" fill="#12263f"/></g><g transform="translate(9.471 9.471)"><path d="M643.474,237.785H634a.263.263,0,0,1-.263-.263v-9.471a.264.264,0,0,1,.263-.263h9.471a.263.263,0,0,1,.263.263v9.471A.261.261,0,0,1,643.474,237.785Zm-9.208-.526h8.946v-8.946h-8.946Z" transform="translate(-633.74 -227.788)" fill="#12263f"/></g><g transform="translate(18.943 9.471)"><path d="M647.979,237.785h-9.471a.262.262,0,0,1-.263-.263v-9.471a.263.263,0,0,1,.263-.263h9.471a.263.263,0,0,1,.263.263v9.471A.262.262,0,0,1,647.979,237.785Zm-9.208-.526h8.946v-8.946h-8.946Z" transform="translate(-638.245 -227.788)" fill="#12263f"/></g><g transform="translate(28.414 9.471)"><path d="M652.484,237.785h-9.471a.262.262,0,0,1-.263-.263v-9.471a.263.263,0,0,1,.263-.263h9.471a.263.263,0,0,1,.263.263v9.471A.262.262,0,0,1,652.484,237.785Zm-9.208-.526h8.946v-8.946h-8.946Z" transform="translate(-642.75 -227.788)" fill="#12263f"/></g><g transform="translate(0 18.879)"><path d="M638.969,242.26H629.5a.263.263,0,0,1-.263-.263v-9.471a.263.263,0,0,1,.263-.263h9.471a.263.263,0,0,1,.263.263V242A.263.263,0,0,1,638.969,242.26Zm-9.208-.526h8.946v-8.946h-8.946Z" transform="translate(-629.235 -232.263)" fill="#12263f"/></g><g transform="translate(9.471 18.879)"><path d="M643.474,242.26H634a.264.264,0,0,1-.263-.263v-9.471a.264.264,0,0,1,.263-.263h9.471a.263.263,0,0,1,.263.263V242A.263.263,0,0,1,643.474,242.26Zm-9.208-.526h8.946v-8.946h-8.946Z" transform="translate(-633.74 -232.263)" fill="#12263f"/></g><g transform="translate(18.943 18.879)"><path d="M647.979,242.26h-9.471a.263.263,0,0,1-.263-.263v-9.471a.263.263,0,0,1,.263-.263h9.471a.263.263,0,0,1,.263.263V242A.263.263,0,0,1,647.979,242.26Zm-9.208-.526h8.946v-8.946h-8.946Z" transform="translate(-638.245 -232.263)" fill="#12263f"/></g><g transform="translate(28.414 18.879)"><path d="M652.484,242.26h-9.471a.263.263,0,0,1-.263-.263v-9.471a.263.263,0,0,1,.263-.263h9.471a.263.263,0,0,1,.263.263V242A.263.263,0,0,1,652.484,242.26Zm-9.208-.526h8.946v-8.946h-8.946Z" transform="translate(-642.75 -232.263)" fill="#12263f"/></g><rect width="5.871" height="6.475" transform="translate(2.266 8.873)" fill="#fc8116"/><rect width="1.219" height="3.559" transform="translate(4.592 7.833)" fill="#12263f"/><g transform="translate(13.545 16.727)"><rect width="5.871" height="6.475" transform="translate(0 2.722) rotate(-27.625)" fill="#fc8116"/><rect width="1.219" height="3.559" transform="translate(1.578 0.722) rotate(-27.621)" fill="#12263f"/></g><g transform="translate(23.941 2.121)"><rect width="11.822" height="16.093" transform="translate(0 1.782)" fill="#529d2e"/><rect width="1.219" height="3.559" transform="translate(5.301)" fill="#12263f"/></g></g></g><g transform="translate(593.691 217.056)"><path d="M629.287,249.876l-.275-.011a9.292,9.292,0,0,1-1.936-.332.528.528,0,0,1-.366-.648.523.523,0,0,1,.648-.364,8.1,8.1,0,0,0,1.711.292l.231.01a.526.526,0,0,1-.013,1.051Zm2.09-.177a.525.525,0,0,1-.1-1.041,9.972,9.972,0,0,0,1.909-.578.527.527,0,0,1,.4.973,11.227,11.227,0,0,1-2.111.635A.552.552,0,0,1,631.377,249.7Zm-6.109-.927a.5.5,0,0,1-.242-.061,11.957,11.957,0,0,1-1.848-1.188.526.526,0,1,1,.647-.828,10.967,10.967,0,0,0,1.686,1.085.526.526,0,0,1-.244.992Zm9.967-.677a.527.527,0,0,1-.3-.961,7.284,7.284,0,0,0,1.463-1.3.526.526,0,0,1,.8.683A8.533,8.533,0,0,1,635.533,248,.542.542,0,0,1,635.235,248.1ZM621.966,246.2a.526.526,0,0,1-.393-.174,11.217,11.217,0,0,1-1.3-1.777.527.527,0,0,1,.908-.534,9.933,9.933,0,0,0,1.179,1.608.528.528,0,0,1-.042.744A.514.514,0,0,1,621.966,246.2Zm15.894-1.3a.552.552,0,0,1-.173-.029.524.524,0,0,1-.324-.669,5.8,5.8,0,0,0,.3-1.9.526.526,0,0,1,1.051,0,6.849,6.849,0,0,1-.359,2.239A.523.523,0,0,1,637.861,244.9Zm-17.973-2.311a.523.523,0,0,1-.5-.378,7.157,7.157,0,0,1-.187-.809,7.891,7.891,0,0,1-.113-1.331.563.563,0,0,1,.526-.568.49.49,0,0,1,.526.484,7.152,7.152,0,0,0,.1,1.236,6.16,6.16,0,0,0,.162.7.526.526,0,0,1-.359.652A.572.572,0,0,1,619.887,242.59Zm18.068-1.842a.527.527,0,0,1-.515-.414,13.838,13.838,0,0,0-.576-1.938.526.526,0,0,1,.984-.37,14.951,14.951,0,0,1,.622,2.088.529.529,0,0,1-.4.624A.686.686,0,0,1,637.955,240.748Zm-18.081-2.313a.5.5,0,0,1-.122-.015.524.524,0,0,1-.389-.633,13.343,13.343,0,0,1,.679-2.075.525.525,0,0,1,.969.4,12.706,12.706,0,0,0-.627,1.915A.523.523,0,0,1,619.875,238.435Zm16.634-1.623a.525.525,0,0,1-.469-.288c-.3-.587-.635-1.19-1.009-1.793a.526.526,0,1,1,.893-.555c.391.631.744,1.261,1.053,1.875a.523.523,0,0,1-.469.761Zm-52.8-.153a.526.526,0,0,1-.448-.8q.564-.911,1.165-1.783a.526.526,0,1,1,.864.6c-.391.563-.769,1.144-1.133,1.734A.523.523,0,0,1,583.711,236.659Zm37.736-2.111a.537.537,0,0,1-.257-.067.526.526,0,0,1-.2-.717c.341-.606.725-1.217,1.144-1.821a.522.522,0,0,1,.732-.132.528.528,0,0,1,.133.732c-.4.576-.767,1.161-1.093,1.739A.528.528,0,0,1,621.447,234.548Zm12.854-1.314a.524.524,0,0,1-.425-.214q-.6-.82-1.276-1.629a.525.525,0,0,1,.807-.673q.7.836,1.318,1.682a.525.525,0,0,1-.116.734A.513.513,0,0,1,634.3,233.234Zm-48.2-.029a.526.526,0,0,1-.414-.847q.656-.848,1.35-1.65a.525.525,0,0,1,.795.685q-.675.782-1.314,1.606A.524.524,0,0,1,586.1,233.2Zm37.734-2.113a.521.521,0,0,1-.332-.12.527.527,0,0,1-.076-.74c.441-.538.914-1.076,1.413-1.606a.525.525,0,1,1,.765.719c-.481.513-.938,1.03-1.362,1.554A.533.533,0,0,1,623.835,231.092Zm-34.982-1.066a.527.527,0,0,1-.378-.891q.747-.769,1.524-1.488a.525.525,0,1,1,.713.772c-.5.467-1,.946-1.482,1.449A.527.527,0,0,1,588.854,230.026Zm42.748-.013a.529.529,0,0,1-.383-.164c-.469-.5-.961-.982-1.472-1.457a.526.526,0,0,1,.715-.772c.53.492,1.034.992,1.522,1.505a.526.526,0,0,1-.383.887Zm-4.89-1.987a.526.526,0,0,1-.359-.91q.444-.416.91-.824-.353-.271-.713-.532a.525.525,0,0,1,.618-.849q.476.347.933.7a.518.518,0,0,1,.589.156.513.513,0,0,1,.116.408.545.545,0,0,1,.124.782.53.53,0,0,1-.74.071l-.09-.074c-.351.3-.7.616-1.028.927A.531.531,0,0,1,626.712,228.026Zm-34.765-.847a.525.525,0,0,1-.332-.931c.553-.452,1.118-.885,1.688-1.3a.525.525,0,1,1,.618.849q-.832.6-1.642,1.264A.523.523,0,0,1,591.947,227.179Zm78.013-.622a.521.521,0,0,1-.359-.141c-.4-.374-.852-.784-1.358-1.217a.526.526,0,1,1,.683-.8c.521.446.986.868,1.394,1.251a.526.526,0,0,1-.359.908Zm-40.021-1.23a.533.533,0,0,1-.423-.21.526.526,0,0,1,.109-.736q.848-.631,1.745-1.228a.525.525,0,0,1,.58.875q-.874.583-1.7,1.2A.509.509,0,0,1,629.939,225.327Zm-34.584-.6a.519.519,0,0,1-.444-.246.526.526,0,0,1,.164-.725q.911-.571,1.844-1.079a.525.525,0,1,1,.5.923c-.6.326-1.2.677-1.783,1.047A.531.531,0,0,1,595.354,224.723Zm29.766-.042a.528.528,0,0,1-.282-.082q-.874-.555-1.783-1.055a.525.525,0,0,1,.5-.921q.943.514,1.842,1.089a.526.526,0,0,1-.282.969ZM666.945,224a.542.542,0,0,1-.317-.105c-.524-.4-1.087-.8-1.69-1.194a.526.526,0,0,1,.578-.879c.622.41,1.2.824,1.745,1.23a.528.528,0,0,1-.315.948Zm-33.5-1a.526.526,0,0,1-.267-.98q.915-.536,1.867-1.03a.526.526,0,0,1,.479.936c-.616.317-1.221.654-1.814,1A.528.528,0,0,1,633.443,223Zm-34.393-.282a.525.525,0,0,1-.219-1c.65-.3,1.31-.572,1.974-.824a.527.527,0,0,1,.37.986q-.962.359-1.907.795A.538.538,0,0,1,599.051,222.722Zm22.38-.061a.52.52,0,0,1-.221-.05c-.624-.286-1.259-.555-1.9-.8a.529.529,0,0,1-.307-.679.519.519,0,0,1,.679-.3q1,.378,1.974.828a.526.526,0,0,1-.221,1Zm42-.967a.553.553,0,0,1-.261-.067c-.582-.332-1.192-.654-1.829-.957a.526.526,0,0,1,.452-.95q.99.476,1.9.99a.526.526,0,0,1-.259.984Zm-60.45-.448a.526.526,0,0,1-.149-1.03q1.034-.3,2.077-.526a.525.525,0,1,1,.221,1.026q-1.006.214-2,.509A.522.522,0,0,1,602.984,221.246Zm14.513-.067a.508.508,0,0,1-.147-.021c-.658-.193-1.327-.362-2-.5a.526.526,0,0,1,.214-1.03q1.053.221,2.079.521a.526.526,0,0,1-.147,1.03Zm19.676-.111a.528.528,0,0,1-.479-.309.522.522,0,0,1,.263-.694q.971-.438,1.968-.82a.526.526,0,0,1,.376.982c-.645.246-1.285.511-1.913.795A.511.511,0,0,1,637.173,221.067Zm-30.081-.694a.526.526,0,0,1-.067-1.047c.706-.093,1.423-.158,2.134-.2a.526.526,0,0,1,.055,1.051c-.685.034-1.371.1-2.052.187C607.138,220.372,607.115,220.374,607.092,220.374Zm6.292-.046c-.746-.086-1.432-.137-2.115-.162a.527.527,0,0,1-.509-.542.581.581,0,0,1,.544-.509c.713.025,1.432.08,2.138.164a.526.526,0,0,1-.059,1.049Zm46.255-.439a.5.5,0,0,1-.189-.038c-.629-.244-1.278-.471-1.949-.671a.526.526,0,0,1,.3-1.007q1.047.315,2.027.7a.526.526,0,0,1-.191,1.015Zm-18.541-.32a.525.525,0,0,1-.16-1.026q1.019-.325,2.058-.578a.526.526,0,0,1,.25,1.022c-.671.162-1.333.351-1.991.557A.515.515,0,0,1,641.1,219.568Zm14.521-.894a.662.662,0,0,1-.109-.011c-.658-.139-1.337-.259-2.031-.349a.526.526,0,0,1-.454-.589.539.539,0,0,1,.591-.454c.721.095,1.426.219,2.113.362a.526.526,0,0,1-.109,1.041Zm-10.445-.114a.525.525,0,0,1-.09-1.043q1.053-.189,2.117-.3a.526.526,0,0,1,.111,1.047q-1.028.107-2.044.29A.481.481,0,0,1,645.175,218.561Zm6.278-.423c-.713-.036-1.4-.038-2.086-.019a.526.526,0,0,1-.029-1.051c.711-.021,1.428-.017,2.142.019a.526.526,0,0,1-.027,1.051Z" transform="translate(-583.186 -217.056)" fill="#12263f"/></g></g></g></svg>