<svg xmlns="http://www.w3.org/2000/svg" width="227.636" height="163.072" viewBox="0 0 227.636 163.072"><g transform="translate(-686.182 -6399)"><g transform="translate(7395.818 12211.083)"><path d="M295.2,301.082s-38.447-32.828-9.22-63.942c31.117-33.126,3.549-75.653,45.789-92.812,45.667-18.551,57.417,14.122,76.536,9.105,38.132-10.007,86.5-5.079,78.452,43.527-10.1,61.015,31.345,53.232,6.728,104.325Z" transform="translate(-6984.646 -5950.657)" fill="#e1f3d7"/><path d="M.359,0H216.944a.359.359,0,0,1,.359.359v0a.359.359,0,0,1-.359.359H.359A.359.359,0,0,1,0,.359v0A.359.359,0,0,1,.359,0Z" transform="translate(-6699.303 -5649.73)" fill="#233862"/></g><g transform="translate(170.551 6396.241)"><g transform="translate(633.887 110.866)"><rect width="56.063" height="50.741" transform="translate(57.407 51.898) rotate(180)" fill="#a2f476"/><g transform="translate(3.294 2.464)"><path d="M663.794,80.087H612.112a.24.24,0,0,1-.24-.24V70.885a.24.24,0,0,1,.24-.24h18.5a.24.24,0,1,1,0,.481H612.353v8.48h51.2v-8.48H645.238a.24.24,0,1,1,0-.481h18.556a.24.24,0,0,1,.24.24v8.961A.24.24,0,0,1,663.794,80.087Z" transform="translate(-611.872 -70.645)" fill="#fff"/><g transform="translate(18.505 0.001)"><path d="M635.339,73.118H622.568a.242.242,0,0,1-.221-.146c-.286-.665-.575-1.333-.837-2a.241.241,0,0,1,.135-.312.243.243,0,0,1,.313.135c.24.614.5,1.227.767,1.841h12.465l.95-1.86a.24.24,0,1,1,.429.217l-1.017,1.993A.241.241,0,0,1,635.339,73.118Z" transform="translate(-621.493 -70.645)" fill="#fff"/></g><g transform="translate(0 9.671)"><g transform="translate(0 0.002)"><path d="M663.794,85.116H612.112a.24.24,0,0,1-.24-.24V75.914a.24.24,0,0,1,.24-.24h18.5a.24.24,0,1,1,0,.481H612.353v8.48h51.2v-8.48H645.238a.24.24,0,1,1,0-.481h18.556a.24.24,0,0,1,.24.24v8.961A.24.24,0,0,1,663.794,85.116Z" transform="translate(-611.872 -75.674)" fill="#fff"/></g><g transform="translate(18.505)"><path d="M635.339,78.146H622.568a.242.242,0,0,1-.221-.146c-.286-.665-.575-1.331-.837-2a.241.241,0,1,1,.448-.175c.24.612.5,1.225.767,1.839h12.465l.95-1.86a.24.24,0,1,1,.429.217l-1.017,1.993A.237.237,0,0,1,635.339,78.146Z" transform="translate(-621.493 -75.673)" fill="#fff"/></g></g><g transform="translate(0 19.343)"><g transform="translate(0 0)"><path d="M663.794,90.144H612.112a.24.24,0,0,1-.24-.24V80.942a.24.24,0,0,1,.24-.24h18.5a.24.24,0,1,1,0,.481H612.353v8.48h51.2v-8.48H645.238a.24.24,0,1,1,0-.481h18.556a.24.24,0,0,1,.24.24V89.9A.24.24,0,0,1,663.794,90.144Z" transform="translate(-611.872 -80.702)" fill="#fff"/></g><g transform="translate(18.505)"><path d="M635.339,83.175H622.568a.242.242,0,0,1-.221-.146c-.286-.665-.575-1.333-.837-2a.241.241,0,0,1,.448-.177c.24.614.5,1.227.767,1.841h12.465l.95-1.862a.24.24,0,0,1,.429.217l-1.017,1.993A.239.239,0,0,1,635.339,83.175Z" transform="translate(-621.493 -80.702)" fill="#fff"/></g></g><g transform="translate(0 29.013)"><path d="M663.794,95.172H612.112a.24.24,0,0,1-.24-.24V85.97a.24.24,0,0,1,.24-.24h18.5a.24.24,0,1,1,0,.481H612.353v8.48h51.2v-8.48H645.238a.24.24,0,1,1,0-.481h18.556a.24.24,0,0,1,.24.24v8.961A.24.24,0,0,1,663.794,95.172Z" transform="translate(-611.872 -85.73)" fill="#fff"/><g transform="translate(18.505 0.001)"><path d="M635.339,88.2H622.568a.242.242,0,0,1-.221-.146c-.286-.665-.575-1.333-.837-2a.241.241,0,0,1,.135-.312.243.243,0,0,1,.313.135c.24.614.5,1.227.767,1.841h12.465l.95-1.86a.242.242,0,0,1,.323-.106.24.24,0,0,1,.106.323l-1.017,1.991A.239.239,0,0,1,635.339,88.2Z" transform="translate(-621.493 -85.731)" fill="#fff"/></g></g><g transform="translate(0 38.684)"><path d="M663.794,100.2H612.112a.24.24,0,0,1-.24-.24V91a.242.242,0,0,1,.24-.24h18.5a.24.24,0,1,1,0,.481H612.353v8.482h51.2V91.239H645.238a.24.24,0,1,1,0-.481h18.556a.242.242,0,0,1,.24.24v8.963A.24.24,0,0,1,663.794,100.2Z" transform="translate(-611.872 -90.758)" fill="#fff"/><g transform="translate(18.505 0)"><path d="M635.339,93.231H622.568a.242.242,0,0,1-.221-.146c-.286-.665-.575-1.331-.837-2a.241.241,0,1,1,.448-.175c.24.612.5,1.225.767,1.839h12.465l.95-1.86a.24.24,0,1,1,.429.217L635.552,93.1A.237.237,0,0,1,635.339,93.231Z" transform="translate(-621.493 -90.758)" fill="#fff"/></g></g></g><rect width="58.751" height="1.764" transform="translate(58.751 1.764) rotate(180)" fill="#529d2e"/></g><g transform="translate(622.714 29.559)"><g transform="translate(3.64)"><path d="M613.773,38.259l.119-11.169a10.91,10.91,0,0,0-7.649,2.918Z" transform="translate(-606.243 -27.09)" fill="#a2f476"/></g><g transform="translate(11.17 0.001)"><path d="M610.158,38.259l8.847,6.816a11.171,11.171,0,0,0-2.031-15.665,10.713,10.713,0,0,0-6.7-2.32Z" transform="translate(-610.158 -27.09)" fill="#529d2e"/></g><g transform="translate(0 2.918)"><path d="M615.521,36.858l-7.53-8.251a11.169,11.169,0,1,0,15.058,16.5,10.01,10.01,0,0,0,1.319-1.433Z" transform="translate(-604.35 -28.607)" fill="#fc8116"/></g></g><g transform="translate(584.461 53.503)"><path d="M587.916,55.29c-.85,3.41,5.541,10.086,12.359,9.909,6.678-.173,10.5-6.718,12.359-9.909,2.5-4.283,5.152-11.878,2.2-14.508a5.774,5.774,0,0,0-5.555-.665c-1.593.692-1.964,2.012-3.777,2.258-1.375.187-2-.456-2.668.075-.752.6-.406,1.791-1.221,3a7.3,7.3,0,0,1-.946,1.11,4.861,4.861,0,0,1-.387.335c-2.175,1.691-4.951.106-5.889,1.444-.483.69.123,1.225-.444,2.075-.654.977-1.8.79-3.1,1.419A5.94,5.94,0,0,0,587.916,55.29Z" transform="translate(-581.343 -39.394)" fill="#529d2e"/><g transform="translate(5.088 12.346)"><path d="M588.8,53.132a.234.234,0,0,1-.192-.1c-1.215-1.646-1.719-3.214-1.419-4.416a5.969,5.969,0,0,1,1.612-2.593.241.241,0,0,1,.335.346,5.561,5.561,0,0,0-1.481,2.364c-.26,1.044.229,2.506,1.341,4.014a.242.242,0,0,1-.05.337A.252.252,0,0,1,588.8,53.132Z" transform="translate(-587.107 -45.958)" fill="#a2f476"/></g><g transform="translate(11.197 7.27)"><path d="M590.523,46.473a.241.241,0,0,1-.2-.373,1.365,1.365,0,0,0,.212-.989,1.539,1.539,0,0,1,.237-1.091c.514-.733,1.471-.715,2.489-.7l.192,0a.24.24,0,0,1,0,.481l-.2,0c-.964-.019-1.719-.033-2.085.492a1.068,1.068,0,0,0-.15.783,1.854,1.854,0,0,1-.292,1.287A.24.24,0,0,1,590.523,46.473Z" transform="translate(-590.283 -43.319)" fill="#a2f476"/></g><g transform="translate(19.361 1.766)"><path d="M594.769,43.026c-.19-.042-.267-.175-.233-.3.05-.188.089-.371.125-.544a2.287,2.287,0,0,1,.681-1.454,1.53,1.53,0,0,1,1.391-.192,4.177,4.177,0,0,0,1.4.067.247.247,0,0,1,.269.206.24.24,0,0,1-.206.271,4.712,4.712,0,0,1-1.544-.071c-.489-.09-.737-.119-1,.094a1.888,1.888,0,0,0-.512,1.177c-.038.183-.079.373-.131.569A.24.24,0,0,1,594.769,43.026Z" transform="translate(-594.528 -40.457)" fill="#a2f476"/></g><path d="M601.684,88.783a10.058,10.058,0,0,1-6.4-.746,9.651,9.651,0,0,1-3.043-2.339q3.061-13.132,6.122-26.267l8.059,2.652Q604.053,75.432,601.684,88.783Z" transform="translate(-577.276 -21.172)" fill="#ff9769"/><path d="M610.071,87.762l-9.911-.61-.869-24.5,5.516-4.937q.49,1.194.946,2.437A73.424,73.424,0,0,1,610.071,87.762Z" transform="translate(-570.769 -22.759)" fill="#ff9769"/><path d="M595.814,69.54a38.653,38.653,0,0,1,14.81-4.131,28.887,28.887,0,0,1-2.61-9.117l-10.834.117a21.189,21.189,0,0,0-1.366,13.131Z" transform="translate(-574.422 -24.071)" fill="#ff9769"/><path d="M599.844,66.07l10.532.067q1.826-8.5,3.654-17a16.646,16.646,0,0,0-21.349,2.889Q596.261,59.047,599.844,66.07Z" transform="translate(-576.872 -33.098)" fill="#ff9769"/><path d="M597.22,100.141c0,.258-.029.487-.044.66-.771.029-2.433.085-4.28.129-1.7.042-3.591.071-5.095.042a20.814,20.814,0,0,1-2.289-.129c-.5-.071-.931-.187-1.031-.473a.262.262,0,0,1,.014-.229c.1-.442.889-.958,1.131-1.116.573-.4,1.16-.8,1.746-1.2.358-.258.731-.515,1.1-.773.158-.1.315-.215.473-.315.1-.085.2-.142.3-.214.142-.1.3-.215.458-.329.115-.073.215-.144.329-.215.158-.115.315-.215.473-.329a3.371,3.371,0,0,1,.3-.2c.158-.115.315-.229.473-.331.513-.358,1.029-.715,1.531-1.058,1.3.1,2.575.214,3.864.329a6.1,6.1,0,0,0,.115,3.464,5.928,5.928,0,0,1,.358,1.244,1.586,1.586,0,0,1,.042.229A5.523,5.523,0,0,1,597.22,100.141Z" transform="translate(-584.461 10.801)" fill="#12263f"/><path d="M601.318,89.721c-1.773,5.445-3.073,8.03-3.674,11.194a25.035,25.035,0,0,1-1.583,5.289c-.233.55-.411.881-.663,1.442q-1.281,2.842-2.729,6.141c-1.291-.133-2.579-.246-3.868-.379q3.156-19.762,6.332-39.522l.285-.8q4.72,1.535,9.44,3.089A121.45,121.45,0,0,1,601.318,89.721Z" transform="translate(-580.455 -8.56)" fill="#ff9769"/><path d="M597.942,49.817a2.891,2.891,0,0,0,5.11,1.148q-.323-2.3-.423-4.712c-.019-.431-.037-.862-.041-1.306a3.762,3.762,0,0,0-.008-.389c0-.013,0-.831,0-.831-.864-.177-1.729-.356-2.608-.533a28.962,28.962,0,0,1-.781,3.195A33.463,33.463,0,0,1,597.942,49.817Z" transform="translate(-572.015 -36.163)" fill="#ff9769"/><path d="M601.312,43.61a1.212,1.212,0,0,1-1.6.439,1.132,1.132,0,0,1-.133-1.612,1.209,1.209,0,0,1,1.6-.437A1.13,1.13,0,0,1,601.312,43.61Z" transform="translate(-570.755 -37.411)" fill="#ff9769"/><path d="M601.175,43.679a.854.854,0,0,1-1.167.2.8.8,0,0,1-.21-1.133.853.853,0,0,1,1.167-.2A.8.8,0,0,1,601.175,43.679Z" transform="translate(-570.44 -36.898)" fill="#ff9769"/><path d="M599.27,44.26a2.71,2.71,0,0,0,1.029,1.016,2.648,2.648,0,0,0,1.1.323c-.019-.431-.037-.862-.041-1.306a3.762,3.762,0,0,0-.008-.389Z" transform="translate(-570.788 -35.509)" fill="#12263f"/><g transform="translate(27.024 0.912)"><path d="M601.814,48.287l.144,0a2.506,2.506,0,0,0,2.483-2.416l-.04-5.01a4.928,4.928,0,0,0-3.037-.837,5.159,5.159,0,0,0-2.852,1.052l.035,4.324A3.029,3.029,0,0,0,601.814,48.287Z" transform="translate(-598.512 -40.013)" fill="#ff9769"/></g><path d="M588.825,68.016c.648,2.027,5.51,2.9,6.139,2.371.565-1.2,1.133-2.391,1.7-3.566q3.13-6.6,6.26-13.148c-.06-.1-.121-.183-.183-.285a11.564,11.564,0,0,0-6.36-4.131Q594.74,53.329,593.1,57.4C591.681,60.946,590.242,64.472,588.825,68.016Z" transform="translate(-580.433 -30.565)" fill="#ff9769"/><path d="M615.348,67.531c-.648,2.025-5.51,2.9-6.137,2.37-.567-1.194-1.135-2.391-1.7-3.566q-3.13-6.592-6.26-13.148c.062-.1.121-.183.183-.283a11.562,11.562,0,0,1,6.36-4.133l3.283,8.143C612.492,60.461,613.93,63.985,615.348,67.531Z" transform="translate(-568.962 -31.015)" fill="#ff9769"/><path d="M609.528,88.6c-.292,3.385-.969,8.749-1.366,11.828-.323,2.5-.608,4.795-.871,6.861-.058.589-.133,1.158-.19,1.706-.227,1.821-.437,3.431-.588,4.8-1.27-.058-2.558-.113-3.847-.171-.152-1.8-.3-3.62-.456-5.42-.929-11.3-2.585-35.176-2.477-35.574q2.273.343,4.689.629,2.7.317,5.253.519A100.643,100.643,0,0,1,609.528,88.6Z" transform="translate(-570.366 -8.985)" fill="#ff9769"/><path d="M608.993,100.358a1.788,1.788,0,0,1,0,.454,1.532,1.532,0,0,1-.056.417h-8.132a1.4,1.4,0,0,1-.152-.3c0-.037-.019-.075-.019-.113.133-.7.265-1.421.4-2.143.285-1.648.55-3.26.777-4.833a12.9,12.9,0,0,1,2.6-.037c.475.037.91.113,1.308.169.758,3.185,1.5,4.322,2.085,4.739A3.223,3.223,0,0,1,608.993,100.358Z" transform="translate(-569.529 10.517)" fill="#12263f"/><rect width="2.028" height="0.538" transform="translate(33.547 106.036) rotate(2.424)" fill="#fff"/><rect width="2.028" height="0.538" transform="translate(33.497 106.886) rotate(2.424)" fill="#fff"/><path d="M599.461,66.156q5.652.078,11.3.152,3.061-6.586,6.12-13.173a8.206,8.206,0,0,0-2.656-4.816,8.341,8.341,0,0,0-6.134-1.941,2.551,2.551,0,0,1-1.063,1.931c-1.014.517-2.774-.144-3.6-1.968A11.386,11.386,0,0,0,592.26,53.57Z" transform="translate(-577.261 -33.27)" fill="#12263f"/><g transform="translate(26.121 28.496)"><path d="M601.169,57.534a.25.25,0,0,1-.166-.065l-2.885-2.7a.241.241,0,0,1,.329-.352l2.885,2.7a.241.241,0,0,1-.163.417Z" transform="translate(-598.043 -54.355)" fill="#12263f"/></g><g transform="translate(30.273 25.822)"><path d="M604.547,55.554a.247.247,0,0,1-.11-.025l-4.106-2.11a.241.241,0,0,1-.1-.323.238.238,0,0,1,.323-.1l4.106,2.108a.24.24,0,0,1-.11.454Z" transform="translate(-600.201 -52.965)" fill="#12263f"/></g><path d="M592.448,86.933l23.976.8a41.17,41.17,0,0,0,.933-9.594,43.193,43.193,0,0,0-6.678-21.83l-11.788-.029q-1.918,7.521-3.645,15.712Q593.639,79.692,592.448,86.933Z" transform="translate(-577.087 -24.084)" fill="#529d2e"/><path d="M590.322,59.384l8.388,4q1.973-4.227,3.945-8.449l-5.564-7.109a29.557,29.557,0,0,0-6.768,11.557Z" transform="translate(-579.05 -31.886)" fill="#12263f"/><path d="M604.1,63.553q4.353-1.3,8.7-2.593A33,33,0,0,0,607.141,49q-.586-.773-1.191-1.475-2.181,3.237-4.364,6.474Q602.847,58.775,604.1,63.553Z" transform="translate(-568.65 -32.166)" fill="#12263f"/><path d="M603.644,51.707c1.01-.337,2.018-.667,3.025-1,1.075,1.708,2.016,3.3,2.827,4.751.408.727.781,1.417,1.125,2.056.433.8.739,1.421.785,1.514,3.085,6.155,1.1,8.947,1.1,8.947a4.1,4.1,0,0,1-2.972,1.673,3.93,3.93,0,0,1-3.474-2.456,68.7,68.7,0,0,0-1-9.209C604.665,55.717,604.175,53.621,603.644,51.707Z" transform="translate(-566.75 -29.227)" fill="#ff9769"/><rect width="12.764" height="1.347" transform="translate(34.353 33.039) rotate(180)" fill="#fc8116"/><path d="M603.61,53.044q1.093,1.232,2.175,2.466c-1.167,1.723-2.289,3.272-3.322,4.637-.517.685-1.016,1.321-1.477,1.91-.577.74-1.039,1.285-1.106,1.367-4.541,5.455-7.98,4.714-7.98,4.714A4.218,4.218,0,0,1,589.112,66a4.091,4.091,0,0,1,.9-4.308,70.363,70.363,0,0,0,8.268-4.72C600.249,55.658,602.023,54.333,603.61,53.044Z" transform="translate(-580.432 -27.069)" fill="#ff9769"/><g transform="translate(34.813 21.482)"><path d="M602.8,59.326c-.206-.06-.271-.2-.225-.321l2.92-8.14a.245.245,0,0,1,.308-.144.237.237,0,0,1,.144.306l-2.92,8.14A.242.242,0,0,1,602.8,59.326Z" transform="translate(-602.562 -50.708)" fill="#fff"/></g><g transform="translate(19.587 21.924)"><path d="M594.885,57.787c-.215-.069-.273-.212-.223-.335l2.668-6.366a.24.24,0,1,1,.442.187l-2.666,6.366A.24.24,0,0,1,594.885,57.787Z" transform="translate(-594.645 -50.938)" fill="#fff"/></g><path d="M598.423,41.539c-1.064,1.952.265,4.7.867,4.678.575-.019.415-2.554,1.837-3.095.729-.277,1.2.229,2.31.417,2.31.39,5.014-1,5.014-2,0-1.1-2.245-2-5.014-2C602.379,39.539,599.523,39.518,598.423,41.539Z" transform="translate(-571.94 -39.539)" fill="#529d2e"/><g transform="translate(34.808 13.404)"><path d="M602.8,56.394c-.194-.046-.267-.179-.231-.308l2.7-9.4a.234.234,0,0,1,.3-.165.241.241,0,0,1,.163.3l-2.7,9.4A.24.24,0,0,1,602.8,56.394Z" transform="translate(-602.559 -46.508)" fill="#fc8116"/></g><path d="M594.752,70.511h18.464a47.267,47.267,0,0,1,10.553-20.458H605.305a45.414,45.414,0,0,0-10.553,20.458Z" transform="translate(-574.96 -29.831)" fill="#fff"/><g transform="translate(21.431 19.98)"><path d="M595.843,64.623c-.21-.063-.271-.2-.223-.325a45.58,45.58,0,0,1,8.72-14.29.24.24,0,0,1,.177-.081H615.3a.24.24,0,0,1,0,.481H604.624a45.068,45.068,0,0,0-8.557,14.061A.241.241,0,0,1,595.843,64.623Z" transform="translate(-595.604 -49.927)" fill="#12263f"/></g><g transform="translate(40.881 19.98)"><path d="M608.431,57.586a.23.23,0,0,1-.121-.033.239.239,0,0,1-.085-.329,47.55,47.55,0,0,1,4.893-6.816h-7.161a.24.24,0,1,1,0-.481h7.688a.241.241,0,0,1,.181.4,47.166,47.166,0,0,0-5.187,7.141A.241.241,0,0,1,608.431,57.586Z" transform="translate(-605.717 -49.927)" fill="#12263f"/></g><path d="M596.755,60.463l4.212-2.189c2.847-1.714,4.179-3.795,3.676-4.866-.406-.864-1.966-.985-2.666-1l-3.668,1.612c1.248-1.675,1.369-2.083,1.279-2.168-.175-.163-1.289.731-1.95,1.333a13.645,13.645,0,0,0-2.37,2.835Q596.012,58.242,596.755,60.463Z" transform="translate(-574.484 -28.188)" fill="#ff9769"/><g transform="translate(38.047 36.727)"><path d="M604.483,62.7c-.194-.046-.267-.179-.231-.308l1.05-3.581a.24.24,0,1,1,.462.135l-1.05,3.581A.238.238,0,0,1,604.483,62.7Z" transform="translate(-604.243 -58.635)" fill="#12263f"/></g><path d="M602.267,106.247l4.277-.058,3.283-24.6-9.859-.138Q601.117,93.848,602.267,106.247Z" transform="translate(-570.143 -0.843)" fill="#12263f"/><path d="M588.8,106l3.774.85a106.6,106.6,0,0,0,9.147-24.882q-4.89-.427-9.778-.852Q590.373,93.564,588.8,106Z" transform="translate(-580.453 -1.145)" fill="#12263f"/><path d="M600.117,84.491q5.075-.058,10.147-.112l.2-3.018H599.727Z" transform="translate(-570.367 -0.923)" fill="#12263f"/><path d="M590.087,84.452l10.721.023.2-3.02q-5.346-.257-10.7-.517Q590.2,82.695,590.087,84.452Z" transform="translate(-579.267 -1.314)" fill="#12263f"/><rect width="2.028" height="0.538" transform="translate(33.497 105.092) rotate(2.424)" fill="#fff"/><rect width="2.028" height="0.538" transform="matrix(0.819, 0.574, -0.574, 0.819, 7.309, 105.919)" fill="#fff"/><rect width="2.028" height="0.538" transform="matrix(0.819, 0.574, -0.574, 0.819, 6.81, 106.608)" fill="#fff"/><rect width="2.028" height="0.538" transform="matrix(0.819, 0.574, -0.574, 0.819, 7.776, 105.097)" fill="#fff"/><g transform="translate(30.557 83.222)"><path d="M609.116,83.29h-8.526a.24.24,0,0,1,0-.481h8.526a.24.24,0,0,1,0,.481Z" transform="translate(-600.349 -82.809)" fill="#fff"/></g><g transform="translate(11.085 82.917)"><path d="M599.332,83.131h-8.867a.24.24,0,0,1,0-.481h8.867a.24.24,0,0,1,0,.481Z" transform="translate(-590.225 -82.65)" fill="#fff"/></g><path d="M599.745,43.417c-.167.21.425,1.41,1.244,1.377.66-.027,1.2-.839,1.064-1.064-.069-.123-.3-.017-.843-.04C600.273,43.646,599.858,43.277,599.745,43.417Z" transform="translate(-570.376 -35.987)" fill="#fff"/></g><g transform="translate(634.921 53.476)"><path d="M621.539,47.724c-1.873,2.822-3.733,5.622-5.6,8.443-.548.825-1.112,1.671-1.66,2.5L611.4,63c.912,1.666,1.808,3.335,2.7,4.985l6.084-7.2c2.579-3.035,5.139-6.082,7.718-9.115-2.393-2.954-4.654-3.7-6.058-3.906C621.737,47.753,621.629,47.739,621.539,47.724Z" transform="translate(-610.049 -31.954)" fill="#ff9769"/><path d="M611.32,61.664q2.175,3.064,4.35,6.13l8.74-9.851L623.024,47.3a23.492,23.492,0,0,0-2.724,1.75A26.623,26.623,0,0,0,611.32,61.664Z" transform="translate(-610.122 -32.342)" fill="#fc8116"/><path d="M629.81,47.67c2.043,2.7,4.072,5.381,6.112,8.082.6.79,1.212,1.6,1.81,2.393l3.137,4.147c-.808,1.718-1.6,3.439-2.389,5.143l-6.514-6.809c-2.76-2.87-5.5-5.755-8.265-8.624,2.208-3.095,4.42-3.979,5.807-4.27C629.614,47.71,629.722,47.691,629.81,47.67Z" transform="translate(-598.689 -32.004)" fill="#ff9769"/><path d="M626.445,58.683l9.1,8.524q1.855-2.966,3.708-5.932a31.98,31.98,0,0,0-10.369-12.74q-.816-.574-1.633-1.071Q626.85,53.075,626.445,58.683Z" transform="translate(-596.157 -32.195)" fill="#fc8116"/><path d="M623.456,75.772c.91,11,1.819,21.951,2.729,32.925.058.589.094,1.158.152,1.744.056.7.114,1.383.171,2.085l3.6.171q.17-1.451.4-3.3c.3-2.577.683-5.687,1.137-9.213.816-6.255,1.081-8.093,1.291-11.069a90.021,90.021,0,0,0-.058-12.984L623.55,75C623.531,75.26,623.494,75.526,623.456,75.772Z" transform="translate(-598.917 -6.774)" fill="#ff9769"/><g transform="translate(26.206 103.468)"><path d="M624.5,100.123a.437.437,0,0,0,.019.11,2.075,2.075,0,0,0,.35.654h7.268a2.224,2.224,0,0,0,.185-.764,1.494,1.494,0,0,0-.011-.423,2.747,2.747,0,0,0-1.118-1.537,6.354,6.354,0,0,1-2-3.75c-1.221.037-2.433.083-3.645.119a7.786,7.786,0,0,1-.677,3.595A2.859,2.859,0,0,0,624.5,100.123Z" transform="translate(-624.223 -92.313)" fill="#12263f"/><rect width="8.105" height="0.918" transform="translate(8.105 8.887) rotate(180)" fill="#529d2e"/><rect width="2.424" height="0.431" transform="translate(4.559 4.297) rotate(180)" fill="#fc8116"/><rect width="2.424" height="0.431" transform="translate(4.559 5.144) rotate(180)" fill="#fc8116"/><rect width="2.424" height="0.431" transform="translate(4.559 5.883) rotate(180)" fill="#fc8116"/><ellipse cx="1.266" cy="1.667" rx="1.266" ry="1.667" transform="translate(1.786)" fill="#12263f"/></g><g transform="translate(10.032 40.679)"><path d="M625.6,75.772c-.912,11-1.821,21.951-2.731,32.925-.056.589-.094,1.158-.152,1.744-.056.7-.114,1.383-.169,2.085l-3.6.171q-.17-1.451-.4-3.3c-.3-2.577-.683-5.687-1.137-9.213-.815-6.255-1.081-8.093-1.289-11.069a90,90,0,0,1,.056-12.984L625.5,75C625.522,75.26,625.56,75.526,625.6,75.772Z" transform="translate(-615.913 -47.453)" fill="#ff9769"/><path d="M625.422,88.227l-9.369,1.131q1.007-14.341,2.012-28.683l9.5,2.889Q626.494,75.894,625.422,88.227Z" transform="translate(-615.784 -60.675)" fill="#ff9769"/><g transform="translate(0 62.789)"><path d="M623.746,100.123a.437.437,0,0,1-.019.11,2.08,2.08,0,0,1-.35.654h-7.268a2.221,2.221,0,0,1-.185-.764,1.494,1.494,0,0,1,.011-.423,2.747,2.747,0,0,1,1.117-1.537,6.354,6.354,0,0,0,2-3.75c1.221.037,2.433.083,3.645.119a7.788,7.788,0,0,0,.677,3.595A2.859,2.859,0,0,1,623.746,100.123Z" transform="translate(-615.913 -92.313)" fill="#12263f"/><rect width="8.105" height="0.918" transform="translate(0 7.969)" fill="#529d2e"/><rect width="2.424" height="0.431" transform="translate(3.545 3.865)" fill="#fc8116"/><rect width="2.424" height="0.431" transform="translate(3.545 4.713)" fill="#fc8116"/><rect width="2.424" height="0.431" transform="translate(3.545 5.549)" fill="#fc8116"/><ellipse cx="1.266" cy="1.667" rx="1.266" ry="1.667" transform="translate(3.788)" fill="#12263f"/></g></g><path d="M624.607,88.979l9.367,1.131q-1.094-15.126-2.187-30.25c-1.946.025-6.343.371-8.905,3.543a7.511,7.511,0,0,0-.619.887Q623.433,76.634,624.607,88.979Z" transform="translate(-600.019 -20.749)" fill="#ff9769"/><path d="M617.336,74.172A14.867,14.867,0,0,0,636.791,72.6q-.891-2.922-1.781-5.843.476-8.929.95-17.854a16.392,16.392,0,0,0-8.328-2.829,16.686,16.686,0,0,0-10.79,3.381q.961,8.473,1.92,16.946Z" transform="translate(-605.023 -33.494)" fill="#ff9769"/><path d="M621.345,43.282c-.085.51-.161,1.008-.246,1.519-.092.552-.175,1.11-.267,1.662-.156,1-.323,1.989-.489,2.979,1.76.156,3.52.31,5.268.46-.392-2.256-.79-4.5-1.193-6.762Z" transform="translate(-601.791 -36.187)" fill="#ff9769"/><path d="M620.771,45.416a1.694,1.694,0,1,0,1.652-2.069A1.9,1.9,0,0,0,620.771,45.416Z" transform="translate(-601.396 -35.997)" fill="#12263f"/><path d="M623.09,48.5l-.136.006a2.342,2.342,0,0,1-2.522-2.035l-.394-4.672a4.616,4.616,0,0,1,2.756-1.042,4.848,4.848,0,0,1,2.748.735l.34,4.031A2.834,2.834,0,0,1,623.09,48.5Z" transform="translate(-602.073 -38.394)" fill="#ff9769"/><path d="M615.843,98.028c.129-2.2.331-4.326.592-6.37A103.429,103.429,0,0,1,618.4,62.439q.629-2.94,1.391-5.687,8.2.242,16.395.481c.683,1.629,1.321,3.352,1.9,5.17a65.91,65.91,0,0,1,2.223,29.256c.26,2.044.463,4.17.592,6.37a96.1,96.1,0,0,1-2.445,27.684q-2.888-.058-5.778-.112-2.152-27.918-4.306-55.834-2.155,27.918-4.308,55.834-2.888.055-5.776.112A96.1,96.1,0,0,1,615.843,98.028Z" transform="translate(-606.094 -23.619)" fill="#12263f"/><path d="M616.368,71.146a27.466,27.466,0,0,0,21.826-.3q-.715-10.951-1.429-21.9a21.174,21.174,0,0,0-7.5-2.945,6.172,6.172,0,0,1-5.128.046A18.04,18.04,0,0,0,618.8,48.23a17.681,17.681,0,0,0-2.056,1.473Q616.554,60.424,616.368,71.146Z" transform="translate(-605.461 -33.547)" fill="#fc8116"/><path d="M620.128,46.744a7.355,7.355,0,0,0,1.85.589,7.824,7.824,0,0,0,4.412-.544q-.381-.7-.763-1.391a7.673,7.673,0,0,1-4.851-.01C620.561,45.84,620.343,46.292,620.128,46.744Z" transform="translate(-601.989 -34.111)" fill="#fc8116"/><g transform="translate(18.597 12.375)"><path d="M623.149,47.188a4.9,4.9,0,0,1-2.67-.787.241.241,0,0,1-.075-.333.246.246,0,0,1,.333-.073,4.491,4.491,0,0,0,1.962.689,4.61,4.61,0,0,0,2.866-.669.24.24,0,0,1,.25.41A5.164,5.164,0,0,1,623.149,47.188Z" transform="translate(-620.367 -45.959)" fill="#fff"/></g><g transform="translate(6.216 19.747)"><path d="M613.929,73.643c.577.815,6.158,8.428,15.608,8.418a18.79,18.79,0,0,0,11.259-3.92q-1.97-6.8-3.943-13.609,2.239-7,4.481-14-6.52,1.036-13.036,2.073l-10.963-2.816Q618.76,57.5,620.187,65.2,617.057,69.421,613.929,73.643Z" transform="translate(-613.929 -49.792)" fill="#fff"/><g transform="translate(14.436 3.02)"><path d="M621.81,66.212a.241.241,0,0,1-.24-.238L621.435,51.6a.24.24,0,0,1,.481,0l.135,14.369a.239.239,0,0,1-.239.242Z" transform="translate(-621.435 -51.362)" fill="#12263f"/></g><g transform="translate(14.436 18.5)"><path d="M622.052,72.409a.242.242,0,0,1-.24-.233l-.377-12.517a.24.24,0,0,1,.233-.248.243.243,0,0,1,.248.233l.377,12.517a.239.239,0,0,1-.233.248Z" transform="translate(-621.435 -59.411)" fill="#12263f"/></g></g><path d="M630.325,58.773c.465,3.839,3.787,6.316,6.791,5.853,2.872-.442,5.06-3.672,4.683-5.987a2.954,2.954,0,0,0-1.235-2.05c-.84-.471-1.648-.06-2.741.017a6.731,6.731,0,0,1-4.389-1.442,4.979,4.979,0,0,0-3.61-2.612c-2.7-.2-5.26,2.673-4.722,4.389C625.5,58.215,627.688,59.071,630.325,58.773Z" transform="translate(-597.463 -27.507)" fill="#ff9769"/><path d="M624.76,54.826c.181.444,1.51.321,2.968-.273s2.495-1.439,2.314-1.883-1.512-.321-2.969.275S624.579,54.384,624.76,54.826Z" transform="translate(-597.732 -27.634)" fill="#ff9769"/><path d="M622.216,58.863c-.465,3.839-3.787,6.316-6.791,5.853-2.872-.442-5.06-3.672-4.685-5.987a2.965,2.965,0,0,1,1.237-2.05c.841-.471,1.646-.06,2.741.019a6.739,6.739,0,0,0,4.387-1.444,4.984,4.984,0,0,1,3.612-2.612c2.7-.2,5.26,2.673,4.722,4.389C627.035,58.3,624.851,59.161,622.216,58.863Z" transform="translate(-610.697 -27.424)" fill="#ff9769"/><path d="M622.264,54.917c-.181.442-1.51.319-2.97-.275s-2.493-1.439-2.312-1.883,1.51-.319,2.97.275S622.445,54.473,622.264,54.917Z" transform="translate(-604.912 -27.55)" fill="#ff9769"/><path d="M620,42.6c-.1.908.046,1.846.231,1.862.14.012.115-.589.49-.806.6-.348,1.342.781,2.537.842,1.242.063,2.7-1.041,2.712-2.121.011-.7-.427-1.577-.944-1.666-.185-.033-.277.054-.471-.029-.394-.167-.387-.683-.667-.721-.206-.029-.281.244-.5.221-.29-.029-.312-.531-.638-.639-.2-.065-.392.054-.806.335a8.735,8.735,0,0,0-1.389,1.027A3.163,3.163,0,0,0,620,42.6Z" transform="translate(-602.138 -39.525)" fill="#12263f"/><g transform="translate(11.947 21.891)"><path d="M624.72,53.373c-.06-.008-7.632-1.994-7.632-1.994a.241.241,0,0,1,.123-.465l7.57,1.987a.24.24,0,0,1-.062.473Z" transform="translate(-616.909 -50.907)" fill="#12263f"/></g><g transform="translate(8.166 43.691)"><path d="M625.918,68a.239.239,0,0,1-.108-.025L615.078,62.7a.241.241,0,0,1,.212-.433l10.734,5.278a.24.24,0,0,1-.106.456Z" transform="translate(-614.943 -62.242)" fill="#12263f"/></g><g transform="translate(8.901 42.748)"><path d="M624.276,66.286a.252.252,0,0,1-.1-.023l-8.711-4.056a.239.239,0,0,1-.115-.319.244.244,0,0,1,.319-.115l8.711,4.054a.242.242,0,0,1-.1.46Z" transform="translate(-615.325 -61.751)" fill="#12263f"/></g><g transform="translate(10.06 41.692)"><path d="M623.952,64.764c-.088-.015-7.872-3.1-7.872-3.1a.241.241,0,0,1,.177-.448l7.784,3.083a.24.24,0,0,1-.089.464Z" transform="translate(-615.928 -61.202)" fill="#12263f"/></g><g transform="translate(22.002 35.209)"><path d="M622.378,59.627a.24.24,0,0,1-.052-.475l5.855-1.314a.237.237,0,0,1,.289.181.241.241,0,0,1-.183.288l-5.856,1.314A.238.238,0,0,1,622.378,59.627Z" transform="translate(-622.137 -57.831)" fill="#12263f"/></g><g transform="translate(22.037 35.868)"><path d="M622.4,60.311a.24.24,0,0,1-.06-.473l6.418-1.658a.245.245,0,0,1,.292.173.242.242,0,0,1-.173.294L622.455,60.3A.211.211,0,0,1,622.4,60.311Z" transform="translate(-622.155 -58.174)" fill="#12263f"/></g><g transform="translate(23.451 41.346)"><path d="M623.13,63.159a.244.244,0,0,1-.233-.181.24.24,0,0,1,.173-.292l6.418-1.656a.24.24,0,1,1,.119.465l-6.416,1.656A.225.225,0,0,1,623.13,63.159Z" transform="translate(-622.89 -61.022)" fill="#12263f"/></g><path d="M621.1,44.392c-.01.2.46.464.891.439.679-.038,1.231-.777,1.117-.983-.1-.175-.7-.01-1.117.1S621.109,44.194,621.1,44.392Z" transform="translate(-601.091 -35.604)" fill="#fff"/></g><g transform="translate(675.084 93.943)"><g transform="translate(9.248 0.241)"><rect width="4.624" height="16.682" transform="translate(4.624 16.682) rotate(180)" fill="#529d2e"/><g transform="translate(0.753 1.319)"><path d="M638.339,64.492a1.558,1.558,0,1,1,1.558-1.558A1.56,1.56,0,0,1,638.339,64.492Zm0-2.635a1.077,1.077,0,1,0,1.077,1.077A1.079,1.079,0,0,0,638.339,61.857Z" transform="translate(-636.779 -61.376)" fill="#12263f"/></g></g><g transform="translate(0 0.241)"><rect width="4.624" height="16.682" transform="translate(4.624 16.682) rotate(180)" fill="#fc8116"/><g transform="translate(0.754 1.319)"><path d="M633.529,64.492a1.558,1.558,0,1,1,1.56-1.558A1.559,1.559,0,0,1,633.529,64.492Zm0-2.635a1.077,1.077,0,1,0,1.079,1.077A1.079,1.079,0,0,0,633.529,61.857Z" transform="translate(-631.971 -61.376)" fill="#12263f"/></g></g><g transform="translate(4.383)"><rect width="4.624" height="16.682" transform="translate(4.865 16.923) rotate(180)" fill="#fff"/><path d="M638.722,77.729H634.1a.241.241,0,0,1-.24-.24V60.805a.241.241,0,0,1,.24-.24h4.624a.24.24,0,0,1,.24.24V77.488A.24.24,0,0,1,638.722,77.729Zm-4.383-.481h4.143v-16.2h-4.143Z" transform="translate(-633.858 -60.565)" fill="#12263f"/><g transform="translate(0.994 1.56)"><path d="M635.933,64.492a1.558,1.558,0,1,1,1.558-1.558A1.559,1.559,0,0,1,635.933,64.492Zm0-2.635a1.077,1.077,0,1,0,1.077,1.077A1.08,1.08,0,0,0,635.933,61.857Z" transform="translate(-634.375 -61.376)" fill="#12263f"/></g></g></g><g transform="translate(663.703 29.318)"><g transform="translate(0 21.657)"><path d="M655.154,50.108H625.9a.242.242,0,0,1-.188-.094.238.238,0,0,1-.044-.208,15.435,15.435,0,0,1,14.563-11.58c.094,0,.19,0,.285,0a15.533,15.533,0,0,1,14.869,11.582.236.236,0,0,1-.042.208A.245.245,0,0,1,655.154,50.108Zm-28.938-.481h28.625A15.05,15.05,0,0,0,640.518,38.7c-.092,0-.183,0-.277,0A14.947,14.947,0,0,0,626.216,49.627Z" transform="translate(-625.662 -38.224)" fill="#12263f"/></g><g transform="translate(14.627)"><path d="M633.507,49.784a.24.24,0,0,1-.24-.24V27.2a.24.24,0,0,1,.481,0V49.544A.241.241,0,0,1,633.507,49.784Z" transform="translate(-633.267 -26.964)" fill="#12263f"/></g><rect width="5.851" height="2.561" transform="translate(11.942 20.019)" fill="#12263f"/></g><g transform="translate(650.167 24.415)"><g transform="translate(0 14.34)"><path d="M638.234,39.9h-19.37a.24.24,0,0,1-.19-.094.236.236,0,0,1-.042-.208,10.294,10.294,0,0,1,9.719-7.728c.063,0,.127,0,.19,0a10.369,10.369,0,0,1,9.926,7.73.244.244,0,0,1-.044.208A.236.236,0,0,1,638.234,39.9Zm-19.054-.481h18.737a9.742,9.742,0,0,0-18.737,0Z" transform="translate(-618.624 -31.871)" fill="#12263f"/></g><g transform="translate(9.684)"><path d="M623.9,39.688a.242.242,0,0,1-.24-.24V24.655a.24.24,0,1,1,.481,0V39.448A.24.24,0,0,1,623.9,39.688Z" transform="translate(-623.659 -24.415)" fill="#12263f"/></g><rect width="3.874" height="1.695" transform="translate(7.988 13.337)" fill="#12263f"/></g></g></g></svg>