<svg xmlns="http://www.w3.org/2000/svg" xmlns:xlink="http://www.w3.org/1999/xlink" width="525.169" height="699.409" viewBox="0 0 525.169 699.409"><defs><clipPath id="a"><rect width="221.595" height="208.737" transform="translate(0 30)" fill="none"/></clipPath><clipPath id="b"><rect width="221.595" height="238.737" fill="none"/></clipPath><clipPath id="d"><rect width="79.501" height="66.549" fill="none"/></clipPath><clipPath id="e"><rect width="50.952" height="40.191" fill="none"/></clipPath><clipPath id="f"><rect width="400" height="402.334" fill="none"/></clipPath><clipPath id="g"><rect width="400" height="367.334" fill="none"/></clipPath><clipPath id="h"><rect width="143.637" height="206.606" fill="none"/></clipPath><clipPath id="i"><rect width="143.636" height="206.606" fill="none"/></clipPath><clipPath id="j"><rect width="31.6" height="54.229" fill="none"/></clipPath><clipPath id="k"><rect width="59.061" height="29.781" fill="none"/></clipPath><clipPath id="l"><rect width="116.684" height="207.382" fill="none"/></clipPath><clipPath id="m"><rect width="225.875" height="130.91" fill="none"/></clipPath><clipPath id="n"><rect width="186.334" height="139.155" fill="none"/></clipPath><clipPath id="o"><rect width="105.133" height="106.362" fill="none"/></clipPath><clipPath id="p"><rect width="204.09" height="532.816" fill="none"/></clipPath><clipPath id="r"><rect width="39.447" height="37.22" fill="none"/></clipPath><clipPath id="s"><rect width="21.638" height="27.615" fill="none"/></clipPath></defs><g transform="translate(-895 -3050.033)"><g transform="translate(1198.405 3020.033)"><g clip-path="url(#a)"><g clip-path="url(#b)"><path d="M34.145,6.768A19.068,19.068,0,0,1,38.8,4.744l.96-4.608L47.544,0l1.121,4.571A19.071,19.071,0,0,1,53.389,6.43l3.934-2.58,5.6,5.409-2.439,4.022a19.083,19.083,0,0,1,2.024,4.657l4.607.959.138,7.784L62.682,27.8a19.063,19.063,0,0,1-1.858,4.723L63.4,36.46l-5.408,5.6-4.022-2.439a19.122,19.122,0,0,1-4.657,2.023l-.959,4.608-7.786.136-1.121-4.571a19.133,19.133,0,0,1-4.723-1.858l-3.934,2.579-5.6-5.408,2.439-4.022a19.079,19.079,0,0,1-2.023-4.657L21,27.494l-.136-7.784,4.571-1.122a19.063,19.063,0,0,1,1.858-4.723L24.713,9.93l5.409-5.6Zm4.15,10.371a8.353,8.353,0,1,0,11.811-.207,8.353,8.353,0,0,0-11.811.207" transform="translate(2.285 32.176)" fill="#e0e0e0"/></g><rect width="221.069" height="165.257" transform="translate(0.288 73.219)" fill="#fff"/><rect width="221.069" height="20.426" transform="translate(0.288 73.22)" fill="#e0e0e0"/><g clip-path="url(#b)"><path d="M14.4,75.488a2.944,2.944,0,1,1-2.944-2.944A2.944,2.944,0,0,1,14.4,75.488" transform="translate(0.932 7.945)" fill="#fff"/><path d="M23.348,75.488A2.944,2.944,0,1,1,20.4,72.544a2.944,2.944,0,0,1,2.944,2.944" transform="translate(1.912 7.945)" fill="#fff"/><path d="M32.293,75.488a2.944,2.944,0,1,1-2.944-2.944,2.944,2.944,0,0,1,2.944,2.944" transform="translate(2.892 7.945)" fill="#fff"/><path d="M221.359,231.277s-.018-1.036-.026-3.022-.016-4.933-.028-8.775c-.013-7.689-.034-18.972-.06-33.381-.03-28.8-.072-70.081-.123-120.078l.236.236L.307,66.309H.29l.288-.288C.568,125.412.558,181.669.55,231.277l-.261-.261,159.576.13,45.317.07,12.021.031,3.1.014c.7.006,1.058.016,1.058.016s-.342.01-1.029.016l-3.068.014-11.968.031-45.259.07L.29,231.538H.028v-.261C.02,181.669.01,125.412,0,66.02v-.288H.307l221.051.052h.237v.236c-.051,50.058-.093,91.395-.123,120.227-.026,14.386-.047,25.651-.06,33.328-.012,3.822-.021,6.749-.028,8.731s-.026,2.971-.026,2.971" transform="translate(0 7.199)" fill="#263238"/><path d="M207.931,155.782c0,.16-43.995.288-98.253.288-54.276,0-98.262-.129-98.262-.288s43.986-.288,98.262-.288c54.258,0,98.253.129,98.253.288" transform="translate(1.25 17.03)" fill="#e0e0e0"/><path d="M207.931,140.492c0,.16-43.995.288-98.253.288-54.276,0-98.262-.129-98.262-.288s43.986-.288,98.262-.288c54.258,0,98.253.129,98.253.288" transform="translate(1.25 15.356)" fill="#e0e0e0"/><path d="M207.931,125.2c0,.16-43.995.288-98.253.288-54.276,0-98.262-.129-98.262-.288s43.986-.288,98.262-.288c54.258,0,98.253.129,98.253.288" transform="translate(1.25 13.681)" fill="#e0e0e0"/><path d="M207.931,109.911c0,.16-43.995.288-98.253.288-54.276,0-98.262-.129-98.262-.288s43.986-.288,98.262-.288c54.258,0,98.253.129,98.253.288" transform="translate(1.25 12.006)" fill="#e0e0e0"/><path d="M194.149,161c-3.83-9.242-6.455-19.341-9.393-28.913-2.556-8.334-2.794-12.228-4.987-19.267-3.455-11.087-12.6-12.316-19.252-9.31-5.926,2.677-8.483,9.644-10.449,15.913q-3.528,11.244-7.055,22.489c-1.114,3.552-2.253,7.158-4.3,10.252s-5.169,5.662-8.814,6.143c-6.009.792-11.39-4.238-13.96-9.8s-3.281-11.836-5.578-17.523-7.023-11.14-13.082-11.249c-7.46-.135-12.53,7.478-15.632,14.358a164.112,164.112,0,0,0-9.407,26.894c-.8,3.141-1.528,6.358-3.124,9.169s-4.246,5.216-7.423,5.606c-4.1.5-7.9-2.418-10.282-5.833s-3.848-7.425-6.287-10.8-6.369-6.175-10.435-5.466c-3.653.638-6.265,3.837-8.425,6.89a161.438,161.438,0,0,0-15.093,26.27H214.433c-9.362-3.224-16.454-16.58-20.284-25.822" transform="translate(1.223 11.182)" fill="#529d2e"/><rect width="9.598" height="9.598" transform="translate(59.901 211.313)" fill="#ff725e"/><path d="M121.8,195H71.739a1.1,1.1,0,0,1,0-2.206H121.8a1.1,1.1,0,1,1,0,2.206" transform="translate(7.736 21.115)" fill="#263238"/><path d="M205.642,187.224s-.247.02-.731.03l-2.147.029-8.253.053-30.353.092-100.141.084-52.823-.02h-.269v-.269c.042-26.043.079-48.241.1-63.95.032-7.83.059-14.042.077-18.317.018-2.114.032-3.745.042-4.871.01-.539.017-.953.022-1.254.008-.282.022-.425.022-.425s.016.143.023.425c0,.3.012.715.022,1.254.009,1.126.023,2.757.042,4.871.018,4.275.043,10.487.077,18.317.026,15.709.062,37.907.1,63.95l-.269-.269,52.823-.02,100.141.084,30.353.092,8.253.054,2.147.028c.484.01.731.03.731.03" transform="translate(1.197 10.778)" fill="#263238"/><g transform="translate(110.824 131.453)" opacity="0.3"><g clip-path="url(#d)"><path d="M172.025,118.477,99.884,185.026h36.071l43.43-40.206Z" transform="translate(-99.884 -118.477)" fill="#fff"/></g></g><g transform="translate(69.5 157.81)" opacity="0.3"><g clip-path="url(#e)"><path d="M112.551,147.876,72.862,182.424H62.64l46.87-40.191,4.083,6.917" transform="translate(-62.639 -142.233)" fill="#fff"/></g></g><path d="M11.167,186.844a128.092,128.092,0,0,1,6.675-13.271,150.862,150.862,0,0,1,9.441-14.662,18.649,18.649,0,0,1,3.707-3.787,8.414,8.414,0,0,1,5.349-1.721,10.181,10.181,0,0,1,5.558,2.166,17.222,17.222,0,0,1,4.213,4.678c2.343,3.6,3.839,7.954,6.945,11.4a12.279,12.279,0,0,0,5.824,3.718,7.662,7.662,0,0,0,3.529.043,8.5,8.5,0,0,0,3.25-1.571,13.806,13.806,0,0,0,4.323-6.059,63.14,63.14,0,0,0,2.2-7.565,163.809,163.809,0,0,1,4.946-15.784q1.47-3.984,3.193-7.982a56.747,56.747,0,0,1,3.942-7.883,23.392,23.392,0,0,1,5.978-6.751,12.388,12.388,0,0,1,4.171-2,11.086,11.086,0,0,1,4.676-.135,13.95,13.95,0,0,1,7.849,5.014,24.949,24.949,0,0,1,4.488,8.38c1.019,3.032,1.723,6.165,2.605,9.25a31.454,31.454,0,0,0,3.72,8.846,16.214,16.214,0,0,0,7.1,6.181,9.782,9.782,0,0,0,8.949-.729,16.4,16.4,0,0,0,6.013-6.929,59.171,59.171,0,0,0,3.193-8.684l5.43-17.285c.9-2.817,1.716-5.631,2.722-8.364a29.683,29.683,0,0,1,3.949-7.676,14.561,14.561,0,0,1,3.013-3.031,14.038,14.038,0,0,1,3.755-1.928,16.587,16.587,0,0,1,4.079-.821,14.944,14.944,0,0,1,4.1.342,12.544,12.544,0,0,1,6.683,4.274,19.673,19.673,0,0,1,3.458,6.891c1.488,4.828,2.3,9.634,3.5,14.132.58,2.257,1.257,4.435,1.9,6.581s1.254,4.247,1.858,6.3a192.764,192.764,0,0,0,7.4,21.827,75.232,75.232,0,0,0,8.415,15.179,31.051,31.051,0,0,0,7.762,7.687,18.144,18.144,0,0,0,2.522,1.331c.591.256.89.4.89.4s-.311-.109-.911-.348a16.6,16.6,0,0,1-2.563-1.287,30.643,30.643,0,0,1-7.88-7.651,74.518,74.518,0,0,1-8.531-15.186,190.615,190.615,0,0,1-7.492-21.839q-.915-3.072-1.875-6.289c-.651-2.138-1.337-4.328-1.925-6.591-1.215-4.521-2.035-9.317-3.524-14.106a19.2,19.2,0,0,0-3.38-6.715,12.041,12.041,0,0,0-6.423-4.1,14.42,14.42,0,0,0-3.943-.322,16.148,16.148,0,0,0-3.943.8A13.156,13.156,0,0,0,155.529,108a29.171,29.171,0,0,0-3.863,7.541c-.991,2.7-1.805,5.522-2.705,8.341q-2.655,8.475-5.416,17.289a59.546,59.546,0,0,1-3.223,8.772,16.959,16.959,0,0,1-6.227,7.165,10.32,10.32,0,0,1-9.462.771,16.773,16.773,0,0,1-7.367-6.4,31.955,31.955,0,0,1-3.795-9.007c-.888-3.108-1.589-6.231-2.6-9.226a24.357,24.357,0,0,0-4.382-8.2,13.393,13.393,0,0,0-7.518-4.825,10.536,10.536,0,0,0-4.43.125,11.824,11.824,0,0,0-3.983,1.913,22.887,22.887,0,0,0-5.835,6.589,56.372,56.372,0,0,0-3.913,7.806q-1.718,3.979-3.191,7.952a163.417,163.417,0,0,0-4.954,15.726,63.906,63.906,0,0,1-2.23,7.621,14.31,14.31,0,0,1-4.495,6.257,8.971,8.971,0,0,1-3.433,1.649,8.114,8.114,0,0,1-3.745-.053,12.7,12.7,0,0,1-6.041-3.866c-3.181-3.562-4.654-7.929-6.963-11.485a16.8,16.8,0,0,0-4.1-4.587,9.816,9.816,0,0,0-5.341-2.109,8.067,8.067,0,0,0-5.132,1.634,18.405,18.405,0,0,0-3.654,3.7,154.426,154.426,0,0,0-9.5,14.576c-2.388,4.141-4.064,7.456-5.184,9.709q-.817,1.684-1.249,2.577c-.281.581-.437.873-.437.873" transform="translate(1.223 11.158)" fill="#263238"/></g></g></g><g transform="translate(915 3065.7)"><g clip-path="url(#f)"><path d="M112.228,11.685a32.9,32.9,0,0,1,8.037-3.493L121.922.236,135.362,0,137.3,7.892a32.934,32.934,0,0,1,8.157,3.209l6.792-4.453,9.672,9.338-4.21,6.944a32.933,32.933,0,0,1,3.493,8.039l7.955,1.656.236,13.441L161.5,48a32.936,32.936,0,0,1-3.209,8.154l4.453,6.794L153.4,72.62l-6.944-4.21a32.928,32.928,0,0,1-8.039,3.491l-1.656,7.956-13.441.236L121.39,72.2a32.873,32.873,0,0,1-8.154-3.208l-6.794,4.453L96.77,64.107l4.212-6.944a32.849,32.849,0,0,1-3.493-8.039l-7.956-1.656L89.3,34.028l7.893-1.935a32.933,32.933,0,0,1,3.208-8.154l-4.453-6.794,9.338-9.672Zm7.165,17.905a14.421,14.421,0,1,0,20.391-.359,14.419,14.419,0,0,0-20.391.359" transform="translate(-89.297)" fill="#e0e0e0"/><path d="M109.955,175.655a51.912,51.912,0,0,1,12.669-5.506l2.61-12.54,21.187-.371,3.05,12.439a51.878,51.878,0,0,1,12.855,5.057l10.708-7.019,15.245,14.721-6.637,10.946a51.922,51.922,0,0,1,5.506,12.671l12.539,2.61.371,21.187-12.439,3.05a51.879,51.879,0,0,1-5.057,12.855l7.018,10.708-14.718,15.245-10.947-6.637a51.921,51.921,0,0,1-12.671,5.506l-2.61,12.54-21.187.371-3.05-12.441a52.02,52.02,0,0,1-12.855-5.057l-10.708,7.019L85.591,258.289l6.636-10.947a51.9,51.9,0,0,1-5.506-12.671l-12.539-2.61-.373-21.186,12.441-3.05a52.023,52.023,0,0,1,5.057-12.855l-7.018-10.708,14.718-15.245Zm11.294,28.224a22.732,22.732,0,1,0,32.143-.566,22.732,22.732,0,0,0-32.143.566" transform="translate(63.067 113.848)" fill="#ebebeb"/></g><rect width="399.275" height="288.14" transform="translate(0.399 58.695)" fill="#fff"/><g clip-path="url(#g)"><path d="M256.57,147.316H161.96a28.489,28.489,0,0,1-28.489-28.489v-9.454A28.489,28.489,0,0,1,161.96,80.883H256.57a28.489,28.489,0,0,1,28.489,28.489v9.454a28.489,28.489,0,0,1-28.489,28.489" transform="translate(71.174 43.131)" fill="#ebebeb"/><path d="M18.923,151.188a61.771,61.771,0,1,1,62.755,61.05,62,62,0,0,1-62.755-61.05m91.293-1.473a29.535,29.535,0,1,0-29.057,30.144,29.63,29.63,0,0,0,29.057-30.144" transform="translate(10.086 46.999)" fill="#f5f5f5"/><path d="M18.924,151.185A62,62,0,0,1,79.693,88.141l.518,32.381a29.671,29.671,0,0,0,.949,59.334l.517,32.379a61.971,61.971,0,0,1-62.753-61.05" transform="translate(10.087 47.002)" fill="#455a64"/><path d="M99.142,138.558a2.169,2.169,0,0,1,.025.48c0,.362-.006.826-.009,1.412A13.8,13.8,0,0,1,99,142.739a20.821,20.821,0,0,1-.515,3.094,28.123,28.123,0,0,1-3.076,8.019A29.59,29.59,0,0,1,59.861,167.4a31.107,31.107,0,0,1-3.934-1.657,31.563,31.563,0,0,1-3.709-2.308,33.189,33.189,0,0,1-3.439-2.843,33.59,33.59,0,0,1-2.99-3.431,29.189,29.189,0,0,1-4.411-8.2,29.795,29.795,0,0,1-.305-18.928,29.232,29.232,0,0,1,4.146-8.336,33.457,33.457,0,0,1,2.878-3.526,33.282,33.282,0,0,1,3.347-2.953A27.366,27.366,0,0,1,58.957,111a29.683,29.683,0,0,1,35.967,12.389,28.151,28.151,0,0,1,3.33,7.915,21.089,21.089,0,0,1,.613,3.076,13.765,13.765,0,0,1,.23,2.285c.021.584.04,1.049.054,1.411a2.112,2.112,0,0,1-.009.48,2.152,2.152,0,0,1-.072-.477c-.035-.36-.078-.822-.133-1.4a14.8,14.8,0,0,0-.3-2.26,21.736,21.736,0,0,0-.679-3.031,28.447,28.447,0,0,0-3.41-7.763,29.451,29.451,0,0,0-7.593-8.2,28.961,28.961,0,0,0-27.73-3.73,30.833,30.833,0,0,0-3.778,1.751,31.092,31.092,0,0,0-3.533,2.378,32.514,32.514,0,0,0-3.255,2.884,32.955,32.955,0,0,0-2.8,3.442,28.509,28.509,0,0,0-4.026,8.123,31.423,31.423,0,0,0-1.352,9.239,29.481,29.481,0,0,0,5.934,17.177,32.9,32.9,0,0,0,2.906,3.349,32.413,32.413,0,0,0,3.346,2.777A26.771,26.771,0,0,0,60.1,166.7,28.966,28.966,0,0,0,87.7,162.077a29.441,29.441,0,0,0,7.324-8.445,28.46,28.46,0,0,0,3.162-7.869,21.553,21.553,0,0,0,.581-3.053A14.653,14.653,0,0,0,99,140.443c.037-.583.066-1.044.089-1.4a2.23,2.23,0,0,1,.057-.48" transform="translate(21.161 58.155)" fill="#263238"/><path d="M18.923,151.3s.051.339.107,1c.055.691.133,1.667.235,2.936.049.647.1,1.366.163,2.162.1.791.279,1.647.432,2.579s.339,1.933.526,3a32.9,32.9,0,0,0,.859,3.362,59.416,59.416,0,0,0,7.091,16.32,61.663,61.663,0,0,0,15.9,17.277l2.691,1.95c.937.612,1.935,1.151,2.916,1.742,1,.553,1.956,1.22,3.025,1.7s2.134.987,3.218,1.487l1.634.756c.569.2,1.141.4,1.716.6l3.484,1.214c1.179.382,2.416.606,3.64.921a31.5,31.5,0,0,0,3.737.793,56.762,56.762,0,0,0,7.8.784c1.328.023,2.668.135,4.014.089q2.019-.136,4.069-.278c.682-.058,1.372-.063,2.053-.17l2.047-.35c1.365-.253,2.757-.431,4.126-.748a67.138,67.138,0,0,0,16.113-6.24c1.277-.741,2.513-1.576,3.783-2.366a32.1,32.1,0,0,0,3.66-2.633,68.577,68.577,0,0,0,6.857-6.069l3.063-3.5.771-.882.684-.951,1.375-1.909,1.38-1.918,1.2-2.048,1.2-2.059.6-1.032.5-1.087q1-2.18,2.013-4.374.791-2.281,1.588-4.583a66.024,66.024,0,0,0,2.853-19.454,66.036,66.036,0,0,0-3.47-19.362q-.872-2.272-1.736-4.529-1.079-2.164-2.151-4.308l-.537-1.072-.636-1.013-1.265-2.018-1.263-2.01-1.443-1.874-1.434-1.864-.715-.929-.8-.856-3.175-3.4a68.589,68.589,0,0,0-7.05-5.846,32.45,32.45,0,0,0-3.743-2.516c-1.3-.747-2.557-1.542-3.859-2.24a66.859,66.859,0,0,0-16.308-5.718c-1.38-.271-2.777-.406-4.151-.615l-2.056-.284c-.684-.084-1.374-.066-2.058-.1-1.369-.052-2.728-.1-4.075-.147-1.348,0-2.683.153-4.009.221a57.112,57.112,0,0,0-7.767,1.035,31.884,31.884,0,0,0-3.71.914c-1.211.354-2.441.619-3.608,1.041q-1.736.669-3.441,1.326-.853.327-1.7.653l-1.608.806-3.169,1.593c-1.05.515-1.986,1.211-2.968,1.8-.961.621-1.943,1.191-2.858,1.835l-2.626,2.033a61.721,61.721,0,0,0-15.337,17.781A59.387,59.387,0,0,0,20.763,136.2a32.756,32.756,0,0,0-.751,3.387q-.23,1.615-.429,3.019c-.124.937-.281,1.8-.35,2.591q-.051,1.194-.094,2.165-.092,1.909-.141,2.939c-.037.664-.075,1-.075,1s-.015-.337-.006-1c.014-.69.035-1.67.061-2.947q.025-.977.055-2.173c.057-.8.2-1.664.313-2.6s.255-1.955.394-3.037a32.742,32.742,0,0,1,.719-3.41,59.062,59.062,0,0,1,6.478-16.688,61.9,61.9,0,0,1,15.374-18l2.643-2.062c.921-.653,1.909-1.234,2.878-1.864.989-.6,1.932-1.3,2.99-1.828l3.2-1.619c.538-.274,1.078-.546,1.622-.82l1.711-.665,3.474-1.351c1.178-.429,2.419-.7,3.643-1.064a32.164,32.164,0,0,1,3.747-.934,57.79,57.79,0,0,1,7.85-1.067c1.34-.072,2.689-.228,4.052-.235l4.123.14c.692.035,1.389.018,2.082.1l2.081.282c1.389.207,2.8.342,4.2.613a67.729,67.729,0,0,1,16.515,5.757c1.32.707,2.6,1.509,3.91,2.263a32.785,32.785,0,0,1,3.793,2.541,69,69,0,0,1,7.143,5.912q1.6,1.711,3.218,3.441l.81.865.725.938,1.455,1.889,1.46,1.9,1.282,2.035,1.283,2.044.644,1.026.544,1.084q1.088,2.173,2.182,4.362l1.76,4.591a66.692,66.692,0,0,1,3.519,19.609,66.741,66.741,0,0,1-2.893,19.7l-1.613,4.643q-1.023,2.224-2.041,4.428l-.511,1.1-.61,1.046-1.217,2.084-1.214,2.073-1.4,1.94-1.392,1.933-.695.963-.78.891-3.106,3.539a68.786,68.786,0,0,1-6.949,6.139,32.638,32.638,0,0,1-3.709,2.659c-1.286.8-2.538,1.641-3.833,2.389a65.381,65.381,0,0,1-8.057,3.714,64.661,64.661,0,0,1-8.261,2.574c-1.386.32-2.8.5-4.177.75l-2.07.35c-.69.106-1.388.109-2.078.167q-2.072.14-4.115.273c-1.362.041-2.717-.072-4.059-.1a57.918,57.918,0,0,1-7.879-.811,32.221,32.221,0,0,1-3.776-.813c-1.234-.322-2.484-.555-3.675-.944l-3.514-1.236q-.872-.308-1.733-.61l-1.65-.768q-1.638-.764-3.244-1.515c-1.076-.489-2.039-1.165-3.048-1.73-.989-.6-1.995-1.148-2.936-1.771q-1.371-1-2.709-1.975a61.874,61.874,0,0,1-15.946-17.5,58.987,58.987,0,0,1-7.01-16.473,32.5,32.5,0,0,1-.828-3.385q-.264-1.617-.492-3.024c-.141-.938-.313-1.8-.4-2.593q-.069-1.2-.126-2.171c-.066-1.276-.118-2.254-.155-2.945-.031-.665-.026-1-.026-1" transform="translate(10.086 46.886)" fill="#263238"/><path d="M54.938,84.9c39.842-.642,71.626,30.279,72.265,70.3l-37.707.607c-.307-19.137-14.868-31.186-33.919-30.878Z" transform="translate(29.296 45.266)" fill="#529d2e"/><path d="M54.945,84.9s.025.262.043.741c.017.515.038,1.216.066,2.11.048,1.883.117,4.58.2,8.027.15,6.952.363,16.916.626,29.152l-.3-.293a42.107,42.107,0,0,1,11.34,1.389A32.406,32.406,0,0,1,78.152,131.5a29.2,29.2,0,0,1,8.519,10.394A32.821,32.821,0,0,1,89.889,155.8l-.393-.38,29.2-.483,8.508-.136-.391.4a79.15,79.15,0,0,0-3.844-22.309l-1.909-5.09c-.713-1.645-1.553-3.214-2.311-4.8a37.068,37.068,0,0,0-2.571-4.523,42.011,42.011,0,0,0-2.794-4.246l-3.005-3.94c-1.053-1.24-2.188-2.384-3.254-3.556q-.807-.867-1.605-1.725l-1.737-1.538-3.393-3A72.61,72.61,0,0,0,86.4,91.858l-3.341-1.546c-1.115-.432-2.225-.785-3.29-1.167s-2.107-.733-3.113-1.084c-1.015-.322-2.033-.511-3-.76l-2.8-.678-1.325-.32c-.437-.081-.871-.127-1.293-.19l-4.618-.649a28.659,28.659,0,0,0-3.678-.291l-2.709-.135-1.688-.094a5.782,5.782,0,0,1-.6-.048,3.958,3.958,0,0,1,.544-.011c.411.006.96.011,1.661.02q1.134.016,2.745.044a26.938,26.938,0,0,1,3.752.216l4.649.586c.425.058.862.1,1.3.175l1.334.307,2.827.65c.972.242,2,.422,3.024.736q1.523.517,3.143,1.064c1.075.374,2.2.722,3.323,1.148q1.647.745,3.378,1.532a72.5,72.5,0,0,1,14.164,8.618l3.441,3.008q.872.766,1.759,1.546.81.86,1.63,1.736c1.079,1.176,2.229,2.327,3.3,3.577l3.05,3.971A42.4,42.4,0,0,1,116.8,118.1a37.539,37.539,0,0,1,2.61,4.566c.77,1.6,1.624,3.183,2.346,4.844q.961,2.546,1.94,5.143a79.5,79.5,0,0,1,3.91,22.543l.011.4-.4.008-8.508.138-29.2.458-.388.006-.006-.388A32.111,32.111,0,0,0,86,142.215a28.534,28.534,0,0,0-8.275-10.161,31.821,31.821,0,0,0-10.98-5.4,41.66,41.66,0,0,0-11.154-1.426h-.3l0-.291c-.13-12.312-.236-22.341-.311-29.339-.021-3.418-.04-6.095-.052-7.961V85.578a5.284,5.284,0,0,1,.02-.681" transform="translate(29.289 45.266)" fill="#263238"/><rect width="399.275" height="38.486" transform="translate(0.4 58.695)" fill="#e0e0e0"/><path d="M260.574,97.082H148.359a2.394,2.394,0,0,1,0-4.788H260.574a2.394,2.394,0,1,1,0,4.788" transform="translate(77.837 49.216)" fill="#263238"/><path d="M260.574,105.382H148.359a2.393,2.393,0,0,1,0-4.787H260.574a2.393,2.393,0,1,1,0,4.787" transform="translate(77.837 53.643)" fill="#263238"/><path d="M199.357,113.683h-51a2.394,2.394,0,0,1,0-4.788h51a2.394,2.394,0,1,1,0,4.788" transform="translate(77.837 58.069)" fill="#263238"/><path d="M256.57,200.319H161.96a28.489,28.489,0,0,1-28.489-28.489v-9.454a28.489,28.489,0,0,1,28.489-28.489H256.57a28.489,28.489,0,0,1,28.489,28.489v9.454a28.489,28.489,0,0,1-28.489,28.489" transform="translate(71.174 71.395)" fill="#ebebeb"/><path d="M270.889,213.375H145.565a13.132,13.132,0,0,1,0-26.265H270.889a13.132,13.132,0,0,1,0,26.265" transform="translate(70.62 99.777)" fill="#ebebeb"/><path d="M260.091,150.476H147.876a2.394,2.394,0,0,1,0-4.788H260.091a2.394,2.394,0,1,1,0,4.788" transform="translate(77.579 77.689)" fill="#263238"/><path d="M256.974,199.089H144.759a2.394,2.394,0,0,1,0-4.788H256.974a2.394,2.394,0,1,1,0,4.788" transform="translate(75.917 103.612)" fill="#263238"/><path d="M260.091,158.777H147.876a2.394,2.394,0,0,1,0-4.788H260.091a2.394,2.394,0,1,1,0,4.788" transform="translate(77.579 82.115)" fill="#263238"/><path d="M198.874,167.078h-51a2.394,2.394,0,0,1,0-4.788h51a2.394,2.394,0,1,1,0,4.788" transform="translate(77.579 86.542)" fill="#263238"/><path d="M145.084,90.275a10.625,10.625,0,0,1-2.1.155l-5.721.127c-4.831.072-11.5.117-18.874.117l-8.592-.021.267-.11c-3.749,3.712-6.986,6.877-9.3,9.1q-1.626,1.536-2.728,2.574a5.541,5.541,0,0,1-1.04.862,5.542,5.542,0,0,1,.862-1.04l2.574-2.728c2.22-2.314,5.385-5.55,9.1-9.3l.109-.11h.158c2.672-.008,5.572-.015,8.592-.021,7.37,0,14.043.044,18.874.117l5.721.127a10.624,10.624,0,0,1,2.1.155" transform="translate(51.724 47.927)" fill="#263238"/><path d="M131.58,91.323a3.188,3.188,0,1,1-3.188-3.188,3.188,3.188,0,0,1,3.188,3.188" transform="translate(66.766 46.998)" fill="#263238"/><path d="M131.58,153.84a3.188,3.188,0,1,1-3.188-3.188,3.188,3.188,0,0,1,3.188,3.188" transform="translate(66.766 80.336)" fill="#263238"/><path d="M138.608,153.278a35.969,35.969,0,0,1-5.353.241c-3.307.048-7.875.061-12.919.04l-12.916-.127-3.913-.081a10.785,10.785,0,0,1-1.437-.072c-.038-.163,2.055-.33,5.346-.411,3.307-.09,7.876-.127,12.924-.107s9.612.1,12.918.195a35.1,35.1,0,0,1,5.35.324" transform="translate(54.429 81.457)" fill="#263238"/><rect width="10.451" height="10.451" transform="translate(48.987 304.808)" fill="#455a64"/><rect width="10.451" height="10.451" transform="translate(84.053 304.808)" fill="#e0e0e0"/><rect width="10.451" height="10.451" transform="translate(122.104 304.808)" fill="#529d2e"/><path d="M21.683,52.76a5.436,5.436,0,0,1-5.317,5.547,5.552,5.552,0,0,1,0-11.095,5.436,5.436,0,0,1,5.317,5.547" transform="translate(5.891 25.177)" fill="#fff"/><path d="M33.375,52.76a5.322,5.322,0,1,1-5.317-5.547,5.437,5.437,0,0,1,5.317,5.547" transform="translate(12.126 25.177)" fill="#fff"/><path d="M45.066,52.76a5.322,5.322,0,1,1-5.317-5.547,5.436,5.436,0,0,1,5.317,5.547" transform="translate(18.36 25.177)" fill="#fff"/><path d="M399.675,326.56c0-2.674-.127-113.37-.325-288.141l.325.325L.432,38.819H.4l.4-.4C.787,141.7.773,239.646.762,326.56L.4,326.2l399.275.362L.4,326.922H.037v-.362C.026,239.646.014,141.7,0,38.419v-.4H.432l399.243.075H400v.324c-.2,174.771-.322,285.469-.325,288.141" transform="translate(0 20.274)" fill="#263238"/></g></g><g transform="translate(895 3540.034)"><g clip-path="url(#h)"><g clip-path="url(#i)"><path d="M44.38,151.209S36.986,110.24,37.6,86.4s-.037-50.652-.037-50.652h3.408s-2.307,47.312.2,75.848c2.508,28.514,9.122,39.609,9.122,39.609Z" transform="translate(28.183 14.67)" fill="#263238"/><path d="M68.662,4.326a7.423,7.423,0,0,0-3.1-3.663c-2.162-1.1-5-.646-7.409.042-10.3,2.935-19.424,18.4-23.586,26.54L48.231,64.359C72.9,45.915,77.179,21.718,68.662,4.326" transform="translate(25.93 0)" fill="#455a64"/><path d="M58.9,1.535a1.849,1.849,0,0,1-.2.484c-.177.355-.4.8-.67,1.353-.6,1.168-1.44,2.867-2.445,4.974a163.6,163.6,0,0,0-6.87,16.745A156.589,156.589,0,0,0,43.9,42.3c-.488,2.224-.854,4.028-1.087,5.277-.119.584-.215,1.059-.292,1.437a1.83,1.83,0,0,1-.14.5A1.754,1.754,0,0,1,42.4,49c.049-.381.11-.86.186-1.448.168-1.258.474-3.072.912-5.307a132.857,132.857,0,0,1,4.677-17.274A139.026,139.026,0,0,1,55.219,8.228c1.055-2.1,1.953-3.78,2.615-4.926l.767-1.32a2.124,2.124,0,0,1,.3-.447" transform="translate(31.786 0.63)" fill="#263238"/><path d="M47.954,67.721C35.141,62.017,27.59,51.284,26.885,39.5c-.492-8.238,2.648-16.318,6.206-24.05a3.165,3.165,0,0,1,1.447-1.745,4.416,4.416,0,0,1,3.493.437c9.31,4.273,14.951,12.417,17.952,20.7,2,5.517,3.031,11.332,2.109,17.028S53.128,63.771,47.954,67.721" transform="translate(20.132 5.537)" fill="#455a64"/><path d="M42.8,65.961a1.669,1.669,0,0,1-.051-.5c-.009-.374-.019-.846-.033-1.424,0-1.237-.067-3.024-.193-5.232a116.228,116.228,0,0,0-2.379-17.144c-1.421-6.648-3.145-12.6-4.416-16.9-.627-2.106-1.141-3.83-1.517-5.093-.159-.566-.291-1.025-.394-1.391a1.793,1.793,0,0,1-.1-.492,1.868,1.868,0,0,1,.212.47c.131.361.294.812.5,1.367.42,1.19,1,2.921,1.691,5.062,1.37,4.287,3.159,10.239,4.586,16.9A101.957,101.957,0,0,1,42.919,58.8c.075,2.214.075,4.007.012,5.245-.028.58-.052,1.049-.072,1.424a1.7,1.7,0,0,1-.063.5" transform="translate(25.29 7.297)" fill="#263238"/><g transform="translate(46.967 19.03)" opacity="0.3"><g clip-path="url(#j)"><path d="M47.954,67.721C35.141,62.017,27.59,51.284,26.885,39.5c-.492-8.238,2.648-16.318,6.206-24.05a3.165,3.165,0,0,1,1.447-1.745,4.416,4.416,0,0,1,3.493.437c9.31,4.273,14.951,12.417,17.952,20.7,2,5.517,3.031,11.332,2.109,17.028S53.128,63.771,47.954,67.721" transform="translate(-26.834 -13.493)"/></g></g><path d="M47.16,96.646c12.611,2.233,22.995,9.4,35.161,12.885,8.048,2.306,17.151,3.121,23.578,7.657-1.542-3.138-5.2-5.227-8.75-7.015A175.861,175.861,0,0,0,65.28,97.914C59.557,96.322,53.347,94.99,47.515,96.3" transform="translate(35.382 39.297)" fill="#455a64"/><path d="M57.379,106.717c-15.793-.2-32.422-11.039-48.141-11.686,16.451-4.28,40.006-.784,48.141,11.686" transform="translate(6.931 38.279)" fill="#455a64"/><path d="M40.269,85.675c8.02-2.33,16.825-2.44,25.247-1.385s16.559,3.231,24.649,5.4c-.81-4.416-5.247-7.736-9.416-10.675a66.354,66.354,0,0,0-9.9-6.129,26.138,26.138,0,0,0-11.87-2.7,20.638,20.638,0,0,0-13.1,5.32c-3.294,3.06-5.065,6.141-5.611,10.168" transform="translate(30.212 28.795)" fill="#455a64"/><path d="M38.068,72.968c-9.941-6.839-25-6.17-38.068-5.933,20.089,7.74,41.737,18.35,59.038,29.645.532-7.444-8.412-15.072-20.97-23.712" transform="translate(0 27.451)" fill="#455a64"/><g transform="translate(0 94.349)" opacity="0.3"><g clip-path="url(#k)"><path d="M38.068,72.968c-9.941-6.839-25-6.17-38.068-5.933,20.089,7.74,41.737,18.35,59.038,29.645.532-7.444-8.412-15.072-20.97-23.712" transform="translate(0 -66.899)"/></g></g><path d="M42.846,74.083a119.371,119.371,0,0,1,15.288-7.16c5.233-1.917,10.115-4.967,15.168-7.173,6.553-2.859,12.231-6.833,18.246-10.379s12.623-6.744,19.983-7.683a48.478,48.478,0,0,0-18.185.848A135.827,135.827,0,0,0,76.23,47.9c-7.755,2.815-15.646,5.7-21.985,10.269s-12.07,9.08-11.4,15.913" transform="translate(32.105 16.895)" fill="#455a64"/><path d="M87.624,105.6a2.241,2.241,0,0,1-.5-.173l-1.377-.575c-1.188-.511-2.9-1.266-5.048-2.137-1.064-.453-2.242-.925-3.523-1.409-1.267-.508-2.643-1.007-4.1-1.516a70.366,70.366,0,0,0-9.724-2.73,25.789,25.789,0,0,0-10.13-.206,34.384,34.384,0,0,0-4.292,1.034,24.256,24.256,0,0,0-3.465,1.433,21.769,21.769,0,0,0-4.355,2.9c-.914.79-1.36,1.274-1.4,1.25-.016-.01.082-.138.284-.375a12.406,12.406,0,0,1,.954-.991,19.576,19.576,0,0,1,4.3-3.051,23.582,23.582,0,0,1,3.5-1.512A33.642,33.642,0,0,1,53.1,96.45a25.968,25.968,0,0,1,10.379.171,67.323,67.323,0,0,1,9.8,2.79c1.46.52,2.835,1.037,4.1,1.56,1.278.5,2.449.99,3.5,1.463,2.132.91,3.812,1.709,4.971,2.268.529.259.968.474,1.327.649a1.994,1.994,0,0,1,.443.254" transform="translate(29.79 39.393)" fill="#263238"/><path d="M30.013,98.34a4.328,4.328,0,0,1,.989.233,25.249,25.249,0,0,1,2.573.9,32.231,32.231,0,0,1,7.545,4.31,26.7,26.7,0,0,1,5.65,5.9,16.592,16.592,0,0,1,1.222,2.037c.245.5.364.774.327.787-.089.032-.679-1.046-1.894-2.661a30.81,30.81,0,0,0-5.7-5.737,36.415,36.415,0,0,0-7.341-4.355c-2.053-.912-3.413-1.344-3.376-1.419" transform="translate(22.517 40.349)" fill="#263238"/><path d="M10.049,70.75a3.943,3.943,0,0,1,.672.161l1.9.543,2.989.889c1.164.348,2.429.863,3.861,1.371a96.575,96.575,0,0,1,20.56,10.556,93.635,93.635,0,0,1,9.588,7.607,91.428,91.428,0,0,1,6.8,6.947c1.8,2.059,3.17,3.773,4.108,4.959l1.08,1.365a2.587,2.587,0,0,1,.35.491,2.761,2.761,0,0,1-.443-.439c-.277-.3-.677-.739-1.171-1.319-.994-1.158-2.408-2.842-4.248-4.87s-4.148-4.369-6.87-6.857a98.158,98.158,0,0,0-9.565-7.54A101.532,101.532,0,0,0,19.3,74c-1.414-.525-2.664-1.058-3.812-1.427l-2.946-.958L10.684,71a3.779,3.779,0,0,1-.635-.247" transform="translate(7.539 29.03)" fill="#263238"/><path d="M64.865,76.359a6.916,6.916,0,0,1-1.258-.131l-1.451-.216c-.565-.087-1.223-.089-1.941-.149a24.036,24.036,0,0,0-10.853,1.726,19.892,19.892,0,0,0-4.939,2.952A19.435,19.435,0,0,0,41.247,83.7a24.748,24.748,0,0,0-2.17,3.34,3.1,3.1,0,0,1,.32-.993,13.283,13.283,0,0,1,1.512-2.516,17.892,17.892,0,0,1,3.143-3.287,19.45,19.45,0,0,1,5.046-3.06,23.376,23.376,0,0,1,11.151-1.644c.726.082,1.393.107,1.959.22l1.446.293a6.414,6.414,0,0,1,1.211.3" transform="translate(29.313 30.957)" fill="#263238"/><path d="M81.044,47.959a3.482,3.482,0,0,1-.6.3c-.455.2-1.04.456-1.763.771-1.533.666-3.737,1.647-6.416,2.919-2.666,1.288-5.807,2.871-9.149,4.8a74.977,74.977,0,0,0-10.214,6.9A22.19,22.19,0,0,0,48.727,68c-1.034,1.6-2.023,3.148-2.933,4.633a76.977,76.977,0,0,0-4.388,8.049,42.381,42.381,0,0,0-2.134,5.667c-.4,1.362-.55,2.131-.606,2.124a2.172,2.172,0,0,1,.063-.564c.058-.367.152-.907.327-1.6a35.97,35.97,0,0,1,1.974-5.739,70.5,70.5,0,0,1,4.3-8.125c.9-1.495,1.88-3.048,2.909-4.653A22.31,22.31,0,0,1,52.5,63.322,72.919,72.919,0,0,1,62.819,56.4c3.374-1.917,6.549-3.476,9.25-4.733,2.711-1.24,4.95-2.18,6.514-2.8l1.813-.7a3.822,3.822,0,0,1,.648-.214" transform="translate(29.005 19.679)" fill="#263238"/><path d="M42.1,82.98a4.326,4.326,0,0,1-.313-1.072c-.184-.786-.417-1.77-.691-2.941a69.947,69.947,0,0,0-2.986-9.549,74.926,74.926,0,0,0-4.51-9.156c-.613-1.085-1.129-2-1.54-2.723a4.554,4.554,0,0,1-.506-1.024,5.088,5.088,0,0,1,.7.945c.418.622,1.008,1.53,1.7,2.666a60.423,60.423,0,0,1,4.687,9.153,55.814,55.814,0,0,1,2.841,9.631c.249,1.252.425,2.266.516,2.972a4.176,4.176,0,0,1,.1,1.1" transform="translate(23.668 23.19)" fill="#263238"/><path d="M55.476,65.418a29.849,29.849,0,0,0-5.135-13.739C42.675,40,28.269,31.344,12.191,28.756Q29.852,49.964,47.509,71.172l4.561,7.572c3.112-4.115,3.8-8.518,3.406-13.326" transform="translate(9.146 11.799)" fill="#455a64"/><rect width="82.125" height="11.728" transform="translate(33.16 160.811)" fill="#727997"/><path d="M22.45,120.69l6.994,36.394h54.52l8.345-36.394Z" transform="translate(16.843 49.523)" fill="#12263f"/><path d="M101.311,122.418c0,.128-18.525.233-41.371.233s-41.374-.1-41.374-.233,18.521-.233,41.374-.233,41.371.1,41.371.233" transform="translate(13.929 50.136)" fill="#263238"/></g></g></g><g transform="translate(1303.485 3540.652)"><g clip-path="url(#l)"><path d="M25.652,106.336a33.925,33.925,0,0,0-14.514-5c-2.371-.244-4.962-.174-6.865,1.262a1.411,1.411,0,0,0-.706,1.254,1.534,1.534,0,0,0,.671.858c5.9,4.5,14.837,5.073,21.415,1.622" transform="translate(0.21 5.986)" fill="#e0e0e0"/><path d="M24.927,106.933a70.794,70.794,0,0,1-9.374-8.249A23.705,23.705,0,0,1,9.676,87.816a4.385,4.385,0,0,1,.464-3.637c7.473,5.836,13.343,13.384,14.788,22.754" transform="translate(0.562 4.978)" fill="#e0e0e0"/><path d="M24.372,107.252a33.916,33.916,0,0,1,.174-12.308A16.638,16.638,0,0,1,31.1,84.788c1.291,3.019.736,6.5-.174,9.65a46.882,46.882,0,0,1-6.5,13.686" transform="translate(1.413 5.014)" fill="#e0e0e0"/><path d="M32.283,118.39c-4.446.54-8.319,2.884-11.64,5.891a22.019,22.019,0,0,0-6.658,11.429c4.362-.269,8.062-3.345,10.746-6.794s4.543-7.233,7.491-10.458" transform="translate(0.827 7.001)" fill="#e0e0e0"/><path d="M32.875,121.888A28.708,28.708,0,0,1,36.19,94.733c2.533,9.012,1.6,19.192-3.315,27.155" transform="translate(1.826 5.602)" fill="#e0e0e0"/><path d="M43.027,131.256a20.76,20.76,0,0,0-19.849,11.426c-.246.491-.463,1.116-.133,1.556a1.478,1.478,0,0,0,1.317.388c3.911-.254,7.379-2.608,10.24-5.287s5.353-5.777,8.514-8.094" transform="translate(1.353 7.76)" fill="#e0e0e0"/><path d="M41.7,132.2a36.964,36.964,0,0,1-.369-20.65c.728-2.658,1.949-5.457,4.406-6.7a.869.869,0,0,1,.675-.119.891.891,0,0,1,.426.494,12.439,12.439,0,0,1,1.039,5.925,37.2,37.2,0,0,1-.928,6c-.774,3.665-1.186,7.6-3.2,10.765a21.929,21.929,0,0,0-1.278,2.365c-.38.8-.383,1.087-.732,1.725" transform="translate(2.368 6.191)" fill="#e0e0e0"/><path d="M65.839,135.535c-1.9-7.22.117-15.973,4.667-21.892.335-.435.78-.9,1.326-.853.839.078,1.055,1.195,1.018,2.036a39.559,39.559,0,0,1-7.01,20.709" transform="translate(3.851 6.67)" fill="#e0e0e0"/><path d="M67.98,136.179a31.845,31.845,0,0,0,26.131-5.315,21.152,21.152,0,0,0-14.146-1.736c-4.726,1.08-9.044,3.2-11.985,7.051" transform="translate(4.02 7.605)" fill="#e0e0e0"/><path d="M69.82,131.983c4.913-8.009,14.331-13.237,23.716-13.714-1.081,3.817-4.217,6.784-7.757,8.577s-7.489,2.573-11.384,3.329c-1.516.294-3.594.617-4.575,1.808" transform="translate(4.129 6.994)" fill="#e0e0e0"/><path d="M66.45,110.735a68.9,68.9,0,0,0,3.033-13.889c.365-4.733-.31-9.675-2.766-13.738-4.589,8.88-5.053,19.255-.4,28.1" transform="translate(3.728 4.915)" fill="#e0e0e0"/><path d="M80.848,102.86c5.367-9.754,16.315-17.545,27.394-18.637-4.274,10.641-15.929,18.865-27.394,18.637" transform="translate(4.781 4.981)" fill="#e0e0e0"/><path d="M77.66,103.712c8,1.219,14.823,6.33,22.3,9.429a9.994,9.994,0,0,0,5.041.966,3.947,3.947,0,0,0,2.471-6.982,10.789,10.789,0,0,0-3.662-2.222c-8.146-3.391-16.882-3.476-25.464-1.419" transform="translate(4.592 6.038)" fill="#e0e0e0"/><path d="M73.287,108.945c1.812.519,2.431,1.457,3.866,2.679a41.7,41.7,0,0,0,16.911,8.688c.646.16,1.494.225,1.814-.359.28-.511-.074-1.128-.437-1.581a23.273,23.273,0,0,0-10.211-6.932c-3.9-1.454-7.285-3.2-11.943-2.83" transform="translate(4.334 6.42)" fill="#e0e0e0"/><path d="M68.353,76.961a32.009,32.009,0,0,0,24.538,8.348,1.682,1.682,0,0,0,1.116-.4c.617-.673-.123-1.709-.843-2.271-7.214-5.624-15.952-7.956-24.811-5.677" transform="translate(4.042 4.5)" fill="#e0e0e0"/><path d="M74.2,75.144a34.2,34.2,0,0,1,30.618-5.052A24.313,24.313,0,0,1,90.231,76.5,46.193,46.193,0,0,1,74.2,75.144" transform="translate(4.388 4.05)" fill="#e0e0e0"/><path d="M72.109,61.271c-.709-7.2-.249-12.884-.749-20.119-.039-.578-.164-1.273-.7-1.482-.753-.29-1.381.635-1.628,1.4A23.062,23.062,0,0,0,72.1,61.112" transform="translate(4.019 2.343)" fill="#e0e0e0"/><path d="M71.389,62.077A42.322,42.322,0,0,0,83.317,50.484c2.356-3.223,4.342-7.085,3.807-11.04a11.411,11.411,0,0,0-8.6,4.273,24.02,24.02,0,0,0-4.386,8.825c-.955,3.167-1.624,6.424-2.744,9.536" transform="translate(4.221 2.332)" fill="#e0e0e0"/><path d="M82.463,58.746a96.177,96.177,0,0,0,29.354-17.308c-3.506-1.413-7.521-.568-11.026.847A34.771,34.771,0,0,0,82.309,58.668" transform="translate(4.867 2.407)" fill="#e0e0e0"/><path d="M74.5,65.007c5.419.592,10.923.978,16.3.079,5.284-.883,10.278-2.977,15.217-5.056a1.781,1.781,0,0,0,1.034-.785,1.188,1.188,0,0,0-.371-1.3,3.132,3.132,0,0,0-1.3-.608c-5.369-1.5-11.162-.8-16.444.982A76.275,76.275,0,0,0,74.5,65.007" transform="translate(4.405 3.342)" fill="#e0e0e0"/><path d="M45.438,78.477c-3.7-7.463-3.457-16.171-.264-23.862C47.422,58.04,47.7,62.4,47.286,66.479s-1.652,8.272-1.733,12.369" transform="translate(2.526 3.23)" fill="#e0e0e0"/><path d="M32.722,70.112A33.285,33.285,0,0,0,7.99,80.648a23.109,23.109,0,0,0,13.543-2.51,68.926,68.926,0,0,0,11.6-7.768" transform="translate(0.472 4.146)" fill="#e0e0e0"/><path d="M23.265,67c-4.516-.366-8.861-.926-13.2.406A15.836,15.836,0,0,0,0,75.938,23.853,23.853,0,0,0,12.377,73.6,71.287,71.287,0,0,0,23.265,67" transform="translate(0 3.936)" fill="#e0e0e0"/><path d="M37.325,67.507c-4.062-2.662-8.234-5.372-12.964-6.474S14.15,60.744,10.852,64.31c3.829,2.246,8.474,2.512,12.914,2.509s9.882-.054,14.066,1.427" transform="translate(0.642 3.582)" fill="#e0e0e0"/><path d="M36.31,68.908c-6.945-6.82-9.578-19.07-6.784-28.393A43.262,43.262,0,0,1,36.31,68.908" transform="translate(1.681 2.396)" fill="#e0e0e0"/><path d="M53.9,50.33c1.31-3.045,2.231-6.239,3.406-9.341a26.808,26.808,0,0,1,4.856-8.609,12.781,12.781,0,0,1,8.6-4.458A34.644,34.644,0,0,1,54.069,50.38" transform="translate(3.187 1.651)" fill="#e0e0e0"/><path d="M51.641,53.564c-2.169-2.984-4.673-7.033-7.612-9.26s-6.766-3.575-10.354-2.719A24.118,24.118,0,0,0,51.641,53.564" transform="translate(1.991 2.444)" fill="#e0e0e0"/><path d="M51.5,50.563a51.559,51.559,0,0,1-3.426-11.094,17.313,17.313,0,0,1,1.737-11.282c3.813,7.206,5.04,14.941,1.884,22.458" transform="translate(2.828 1.667)" fill="#e0e0e0"/><path d="M53.933,29.04c2.16-7.144,8.7-12.4,15.763-14.817a5.879,5.879,0,0,1,2.763-.414,2.4,2.4,0,0,1,2.037,1.7c.257,1.215-.746,2.3-1.69,3.112A53.658,53.658,0,0,1,53.933,29.04" transform="translate(3.189 0.814)" fill="#e0e0e0"/><path d="M54.013,24.011c.274-4.606.561-9.278,2.06-13.643S60.459,1.91,64.659,0c.715,4.652-1.338,9.28-3.813,13.283S55.387,21.064,53.9,25.529" transform="translate(3.187)" fill="#e0e0e0"/><path d="M54.648,27.062c-1.785-5.207-1.969-11.819-5.087-16.355-2.179-3.17-5.668-5.33-7.546-8.688a13.221,13.221,0,0,0,.438,9.864,28.539,28.539,0,0,0,5.768,8.256c2.307,2.464,4.282,4.317,6.427,6.924" transform="translate(2.439 0.119)" fill="#e0e0e0"/><path d="M53.948,179.085c-.139,0-.258-34.73-.268-77.563s.094-77.571.233-77.571.258,34.723.269,77.57-.1,77.564-.234,77.564" transform="translate(3.174 1.416)" fill="#e0e0e0"/><path d="M84.286,72.2a7.431,7.431,0,0,1-1.306.49L79.386,73.9c-3.03,1.032-7.193,2.526-11.71,4.378C63.2,80.2,58.984,81.755,56.582,83.837a8.153,8.153,0,0,0-2.229,2.949c-.344.816-.407,1.314-.452,1.306a1.011,1.011,0,0,1,.015-.364,5.617,5.617,0,0,1,.255-1.013,7.846,7.846,0,0,1,2.175-3.144,19.517,19.517,0,0,1,4.814-2.99c1.925-.9,4.06-1.837,6.326-2.768,4.531-1.857,8.726-3.3,11.79-4.251,1.532-.478,2.781-.829,3.648-1.062a7.485,7.485,0,0,1,1.362-.3" transform="translate(3.187 4.269)" fill="#e0e0e0"/><path d="M94.1,49.125a2.138,2.138,0,0,1-.365.391L92.62,50.562l-4.16,3.78L74.613,66.672C69.207,71.483,64.535,76.081,61.3,79.542c-1.622,1.729-2.9,3.162-3.768,4.16l-1.006,1.149a2.181,2.181,0,0,1-.376.381,2.138,2.138,0,0,1,.3-.444c.211-.28.517-.7.935-1.212.826-1.04,2.065-2.511,3.657-4.276a175.367,175.367,0,0,1,13.241-13c5.424-4.8,10.36-9.113,13.947-12.221l4.266-3.66,1.177-.977a2.154,2.154,0,0,1,.433-.315" transform="translate(3.32 2.905)" fill="#e0e0e0"/><path d="M68.073,70.983c-.142-.064.987-2.67,2.113-5.968S71.855,58.936,72,58.959a20.347,20.347,0,0,1-1.338,6.217,40.622,40.622,0,0,1-1.682,4.174,6.474,6.474,0,0,1-.907,1.633" transform="translate(4.025 3.487)" fill="#e0e0e0"/><path d="M55.087,91.576a6.321,6.321,0,0,1-.834-.967c-.565-.724-1.28-1.642-2.133-2.737-1.793-2.316-4.27-5.515-7.049-9.014s-5.332-6.64-7.181-8.912l-2.181-2.7a6.136,6.136,0,0,1-.752-1.031,6.258,6.258,0,0,1,.9.9c.557.6,1.344,1.489,2.3,2.6,1.92,2.216,4.519,5.323,7.3,8.828s5.217,6.74,6.938,9.114c.861,1.187,1.546,2.155,2.007,2.834a6.273,6.273,0,0,1,.676,1.082" transform="translate(2.067 3.916)" fill="#e0e0e0"/><path d="M47.873,82.679a12.234,12.234,0,0,1-2.788-5.219,14.9,14.9,0,0,1-.632-5.262l.221.018c-.1.4-.172.614-.212.608s-.041-.231-.008-.644l.221.018a24.014,24.014,0,0,0,.891,5.119,38.95,38.95,0,0,0,2.307,5.362" transform="translate(2.627 4.268)" fill="#e0e0e0"/><path d="M40.407,72.008a8.982,8.982,0,0,0-1.947-1.13,13.007,13.007,0,0,0-5.4-.43,33.321,33.321,0,0,0-5.442.878,16.733,16.733,0,0,1-2.24.538,7.793,7.793,0,0,1,2.145-.879,24.855,24.855,0,0,1,5.5-1.038,11.805,11.805,0,0,1,5.575.6,3.457,3.457,0,0,1,1.813,1.459" transform="translate(1.5 4.132)" fill="#e0e0e0"/><path d="M38.825,69.6c-.039.078-1.135-.454-2.984-1.086a30.012,30.012,0,0,0-15.027-1.146c-1.922.344-3.085.7-3.113.622a2.875,2.875,0,0,1,.79-.338,18.82,18.82,0,0,1,2.254-.632,26.518,26.518,0,0,1,15.218,1.161,18.593,18.593,0,0,1,2.13.966,2.883,2.883,0,0,1,.732.453" transform="translate(1.047 3.927)" fill="#e0e0e0"/><path d="M54.117,59.809a61.691,61.691,0,0,1-2.174-7.554,61.568,61.568,0,0,1-1.688-7.679,61.9,61.9,0,0,1,2.174,7.555,61.718,61.718,0,0,1,1.688,7.678" transform="translate(2.971 2.636)" fill="#e0e0e0"/><path d="M54.364,59.416a36.329,36.329,0,0,0-2.411-4.523,19.872,19.872,0,0,0-3.548-3.661,3.3,3.3,0,0,1,1.369.706,11,11,0,0,1,2.59,2.667,10.021,10.021,0,0,1,2,4.811" transform="translate(2.862 3.029)" fill="#e0e0e0"/><path d="M55.709,155.773c-.054.008-.157-.835-.548-2.31a32.893,32.893,0,0,0-2.321-6.013c-2.4-4.9-6.766-11.121-12.315-17.349-2.748-3.14-5.416-6.1-7.68-8.941a62.6,62.6,0,0,1-5.492-7.92,38.031,38.031,0,0,1-2.773-5.878c-.255-.724-.442-1.29-.544-1.681a2.8,2.8,0,0,1-.143-.6c.046-.015.3.794.87,2.21a43.065,43.065,0,0,0,2.9,5.769,66.466,66.466,0,0,0,5.546,7.81c2.273,2.807,4.944,5.754,7.7,8.9,5.564,6.244,9.919,12.539,12.256,17.523a30.035,30.035,0,0,1,2.19,6.121,16.794,16.794,0,0,1,.307,1.742,2.871,2.871,0,0,1,.051.614" transform="translate(1.413 6.214)" fill="#e0e0e0"/><path d="M81.358,123.7a12.512,12.512,0,0,1-1.437.807,31.39,31.39,0,0,0-3.728,2.465,42.81,42.81,0,0,0-4.9,4.465c-1.718,1.815-3.489,3.924-5.3,6.183-3.612,4.532-6.99,8.543-9.013,11.744-1.027,1.589-1.774,2.927-2.262,3.867a12.692,12.692,0,0,1-.792,1.447,1.362,1.362,0,0,1,.132-.408c.108-.258.252-.647.483-1.126a36.465,36.465,0,0,1,2.138-3.969c1.966-3.279,5.317-7.345,8.923-11.87,1.81-2.263,3.6-4.375,5.353-6.189a39.8,39.8,0,0,1,5.017-4.43,26.2,26.2,0,0,1,3.85-2.352c.477-.239.865-.387,1.123-.5a1.371,1.371,0,0,1,.406-.138" transform="translate(3.189 7.315)" fill="#e0e0e0"/><path d="M81.392,133.185a20.98,20.98,0,0,1-3.038.442,39.96,39.96,0,0,0-7.205,1.419,21.66,21.66,0,0,0-6.452,3.385c-1.487,1.149-2.188,2.1-2.257,2.044a2.329,2.329,0,0,1,.45-.7,11.464,11.464,0,0,1,1.582-1.62,19.567,19.567,0,0,1,6.522-3.588,32.594,32.594,0,0,1,7.324-1.294,16.885,16.885,0,0,1,3.074-.088" transform="translate(3.692 7.874)" fill="#e0e0e0"/><path d="M63.279,139.6c-.159-.09,1.211-2.181,2.273-4.994,1-2.839,1.23-5.327,1.409-5.3a4.806,4.806,0,0,1-.051,1.63,17.4,17.4,0,0,1-.886,3.839,18.578,18.578,0,0,1-1.761,3.523,4.921,4.921,0,0,1-.983,1.3" transform="translate(3.741 7.647)" fill="#e0e0e0"/><path d="M90.241,98.222a2.276,2.276,0,0,1-.486.258l-1.428.649c-.626.268-1.384.608-2.24,1.059s-1.86.9-2.9,1.525l-1.658.943c-.575.33-1.144.722-1.749,1.1-1.222.74-2.446,1.653-3.753,2.585A64.374,64.374,0,0,0,61.575,121.3c-.886,1.338-1.757,2.593-2.456,3.839-.358.617-.731,1.2-1.041,1.785l-.885,1.688c-.59,1.064-1.011,2.08-1.426,2.954s-.735,1.64-.982,2.274c-.243.587-.441,1.067-.6,1.449a2.275,2.275,0,0,1-.241.495,2.251,2.251,0,0,1,.146-.529l.513-1.485c.22-.647.508-1.432.907-2.316s.792-1.92,1.365-3l.862-1.714c.3-.594.67-1.185,1.023-1.811.688-1.265,1.552-2.537,2.434-3.891a62.033,62.033,0,0,1,14.557-15.063c1.324-.928,2.565-1.834,3.805-2.565.613-.374,1.192-.76,1.774-1.085l1.684-.919c1.06-.61,2.078-1.046,2.952-1.467s1.645-.745,2.283-.986l1.468-.563a2.292,2.292,0,0,1,.523-.164" transform="translate(3.19 5.808)" fill="#e0e0e0"/><path d="M67.72,112.155a3.484,3.484,0,0,1,1.194-1.777,7.528,7.528,0,0,1,4.808-1.845,13.162,13.162,0,0,1,5.061.988,7.24,7.24,0,0,1,1.914.93,11.777,11.777,0,0,1-2.03-.594,15.26,15.26,0,0,0-4.928-.822,7.832,7.832,0,0,0-4.593,1.612,14.244,14.244,0,0,0-1.425,1.508" transform="translate(4.004 6.418)" fill="#e0e0e0"/><path d="M64.658,115.62a18.064,18.064,0,0,0,1.365-4.442,18.043,18.043,0,0,0-.306-4.638,2.939,2.939,0,0,1,.565,1.293,9.182,9.182,0,0,1-.777,6.658c-.424.768-.8,1.164-.846,1.129" transform="translate(3.823 6.3)" fill="#e0e0e0"/><path d="M31.285,157.641c.749,13.273,4.748,26.771,10.9,40.419H68.937c5.867-13.512,9.59-26.99,10.252-40.419Z" transform="translate(1.85 9.322)" fill="#e0e0e0"/><path d="M74.618,177.933c0,.139-8.808.251-19.671.251s-19.673-.112-19.673-.251,8.807-.251,19.673-.251,19.671.112,19.671.251" transform="translate(2.086 10.507)" fill="#fafafa"/><path d="M73.916,182.473c0,.139-8.257.251-18.442.251s-18.443-.112-18.443-.251,8.256-.251,18.443-.251,18.442.112,18.442.251" transform="translate(2.19 10.776)" fill="#fafafa"/><path d="M42,165.869a38.024,38.024,0,0,1,.251,6.162A38.024,38.024,0,0,1,42,178.193a38.023,38.023,0,0,1-.251-6.162A38.023,38.023,0,0,1,42,165.869" transform="translate(2.469 9.809)" fill="#fafafa"/><path d="M55.532,165.869a40.921,40.921,0,0,1,.251,6.381,40.91,40.91,0,0,1-.251,6.381,40.669,40.669,0,0,1-.252-6.381,40.68,40.68,0,0,1,.252-6.381" transform="translate(3.269 9.809)" fill="#fafafa"/><path d="M68.236,165.767a42.4,42.4,0,0,1,.251,6.508,42.377,42.377,0,0,1-.251,6.508,42.377,42.377,0,0,1-.251-6.508,42.4,42.4,0,0,1,.251-6.508" transform="translate(4.02 9.803)" fill="#fafafa"/><path d="M78.289,165.883c0,.139-10.331.251-23.072.251s-23.074-.112-23.074-.251,10.329-.251,23.074-.251,23.072.112,23.072.251" transform="translate(1.901 9.795)" fill="#fafafa"/></g></g><path d="M103.131,172.178a42.11,42.11,0,0,1,10.277-4.466l2.117-10.173,17.186-.3,2.474,10.091a42.083,42.083,0,0,1,10.428,4.1l8.686-5.694,12.367,11.941-5.384,8.879a42.119,42.119,0,0,1,4.466,10.278l10.171,2.117.3,17.186-10.091,2.474a42.083,42.083,0,0,1-4.1,10.428l5.693,8.686-11.939,12.367-8.88-5.384a42.118,42.118,0,0,1-10.278,4.466l-2.117,10.173-17.186.3-2.474-10.092a42.2,42.2,0,0,1-10.428-4.1l-8.686,5.694-12.365-11.94,5.383-8.88a42.1,42.1,0,0,1-4.466-10.278l-10.171-2.117-.3-17.186L83.9,198.273A42.2,42.2,0,0,1,88,187.846l-5.693-8.686,11.939-12.367Zm9.162,22.9a18.44,18.44,0,1,0,26.074-.459,18.44,18.44,0,0,0-26.074.459" transform="translate(872.237 3299.003)" fill="#ebebeb"/><g transform="translate(1063.683 3680.084)"><path d="M3.5,42.242V69.358H86.888V42.242Z" fill="#f5f5f5"/><path d="M43.152,34.661H0v7.581H89.8V34.661Z" fill="#e0e0e0"/><path d="M43.152,34.661v6.88L44.9,69.358H86.888V42.242H89.8V34.661Z" fill="#e0e0e0"/><rect width="16.911" height="4.082" transform="translate(15.161 46.615)" fill="#e0e0e0"/><rect width="21.715" height="8.619" transform="translate(12.985 55.8)" fill="#fff"/><path d="M16.328,7.581V34.7H99.717V7.581Z" fill="#f5f5f5"/><rect width="89.804" height="7.582" transform="translate(12.829 -0.001)" fill="#e0e0e0"/><path d="M55.982,0V6.88L57.732,34.7H99.718V7.582h2.916V0Z" fill="#e0e0e0"/><rect width="16.911" height="4.082" transform="translate(27.991 11.953)" fill="#e0e0e0"/><rect width="21.715" height="8.619" transform="translate(25.814 21.139)" fill="#fff"/></g><g transform="translate(1026.885 3593.823)"><g transform="translate(0 0)" clip-path="url(#m)"><path d="M79.836,126.7A64.1,64.1,0,1,1,91.223,5.159,64.1,64.1,0,0,1,79.836,126.7M53.133,5.72a59.77,59.77,0,1,0,36.4,3.388,59.786,59.786,0,0,0-36.4-3.388" transform="translate(0.318 0)" fill="#455a64"/><path d="M79.836,126.7A64.1,64.1,0,1,1,91.223,5.159,64.1,64.1,0,0,1,79.836,126.7M53.133,5.72a59.77,59.77,0,1,0,36.4,3.388,59.786,59.786,0,0,0-36.4-3.388" transform="translate(0.318 0)" fill="#263238"/><path d="M77.963,128.992A64.1,64.1,0,1,1,89.35,7.454,64.1,64.1,0,0,1,77.963,128.992M51.26,8.015a59.77,59.77,0,1,0,36.4,3.388,59.79,59.79,0,0,0-36.4-3.388" transform="translate(0 0.389)" fill="#455a64"/><path d="M207.988,113.8l-1.03,2.646c-.919,2.359-5.025,2.977-7.566,1.973L103.4,81.045l4.834-12.418,95.85,37.316c3.119,1.309,5.089,4.817,3.905,7.854" transform="translate(17.54 11.641)" fill="#455a64"/><path d="M87.04,36.331c.105.131-12.081,10.178-27.217,22.439s-27.5,22.1-27.6,21.968S44.3,70.562,59.439,58.3s27.5-22.1,27.6-21.966" transform="translate(5.465 6.163)" fill="#263238"/><path d="M70.775,33.154c.108.13-8.9,7.8-20.126,17.126S30.239,67.069,30.131,66.939s8.9-7.8,20.128-17.127S70.667,33.024,70.775,33.154" transform="translate(5.111 5.624)" fill="#263238"/><path d="M81.988,53.065c.108.13-6.06,5.434-13.775,11.846S54.156,76.421,54.048,76.291s6.059-5.433,13.776-11.847S81.881,52.936,81.988,53.065" transform="translate(9.168 9.001)" fill="#263238"/></g></g><g transform="translate(1233.666 3341.457)"><rect width="185.489" height="138.659" transform="translate(0.845 0.26)" fill="#fff"/><rect width="185.489" height="17.139" transform="translate(0.26 0.26)" fill="#e0e0e0"/><g clip-path="url(#n)"><path d="M12.885,8.83a2.47,2.47,0,1,1-2.47-2.47,2.47,2.47,0,0,1,2.47,2.47" fill="#fff"/><path d="M21.213,8.83a2.47,2.47,0,1,1-2.47-2.47,2.47,2.47,0,0,1,2.47,2.47" fill="#fff"/><path d="M29.541,8.83a2.47,2.47,0,1,1-2.47-2.47,2.47,2.47,0,0,1,2.47,2.47" fill="#fff"/><path d="M185.749,138.92s-.016-.87-.023-2.537-.014-4.141-.025-7.365c-.012-6.453-.031-15.919-.054-28.01-.027-24.161-.065-58.8-.112-100.747l.214.214L.276.522H.261L.521.261C.512,50.094.5,97.3.5,138.92l-.235-.235,133.886.117,38.027.063,10.086.028,2.6.013c.585,0,.889.014.889.014s-.286.009-.862.014l-2.573.013-10.04.028-37.973.063-134.04.117H.025v-.235C.018,97.3.009,50.094,0,.261V0H.276L185.749.048h.214V.261c-.046,42-.084,76.688-.111,100.881-.023,12.07-.042,21.52-.055,27.962-.01,3.206-.018,5.662-.024,7.324s-.023,2.492-.023,2.492" fill="#263238"/><path d="M175.532,83.825c0,.144-36.914.26-82.438.26-45.541,0-82.447-.116-82.447-.26s36.906-.26,82.447-.26c45.524,0,82.438.116,82.438.26" fill="#e0e0e0"/><path d="M175.532,69.59c0,.144-36.914.261-82.438.261-45.541,0-82.447-.117-82.447-.261s36.906-.26,82.447-.26c45.524,0,82.438.116,82.438.26" fill="#e0e0e0"/><path d="M175.532,55.355c0,.145-36.914.261-82.438.261-45.541,0-82.447-.116-82.447-.261S47.553,55.1,93.094,55.1c45.524,0,82.438.116,82.438.259" fill="#e0e0e0"/><path d="M175.532,41.121c0,.144-36.914.26-82.438.26-45.541,0-82.447-.116-82.447-.26s36.906-.26,82.447-.26c45.524,0,82.438.116,82.438.26" fill="#e0e0e0"/><rect width="13.717" height="27.587" transform="translate(24.6 77.372)" fill="#529d2e"/><rect width="13.717" height="27.587" transform="translate(73.834 77.372)" fill="#455a64"/><rect width="13.717" height="18.183" transform="translate(148.514 86.777)" fill="#455a64"/><rect width="13.717" height="40.652" transform="translate(123.067 64.308)" fill="#e0e0e0"/><rect width="13.717" height="56.478" transform="translate(97.897 48.481)" fill="#529d2e"/><rect width="13.717" height="40.652" transform="translate(48.235 64.308)" fill="#e0e0e0"/><path d="M173.566,104.959s-.208.019-.614.027l-1.8.026-6.924.049-25.468.083-84.024.076L10.414,105.2h-.242v-.242c.038-21.849.071-40.473.094-53.657.029-6.567.053-11.778.069-15.368.016-1.77.029-3.14.038-4.087.009-.451.015-.8.02-1.052.007-.236.02-.357.02-.357s.014.121.021.357c0,.254.011.6.02,1.052.009.947.021,2.317.038,4.087.016,3.59.039,8.8.069,15.368.023,13.184.056,31.808.094,53.657l-.242-.241,44.321-.018,84.024.076,25.468.083,6.924.048,1.8.026c.406.009.614.026.614.026" fill="#263238"/><rect width="6.027" height="6.027" transform="translate(39.245 118.954)" fill="#ff725e"/><rect width="6.027" height="6.027" transform="translate(76.087 118.763)" fill="#e0e0e0"/><rect width="6.027" height="6.027" transform="translate(115.942 118.954)" fill="#455a64"/><path d="M65.236,121.776a64.908,64.908,0,0,1-8.207.26,64.905,64.905,0,0,1-8.208-.26,64.905,64.905,0,0,1,8.208-.26,64.908,64.908,0,0,1,8.207.26" fill="#263238"/><path d="M101.8,121.776a64.908,64.908,0,0,1-8.207.26,64.905,64.905,0,0,1-8.208-.26,64.905,64.905,0,0,1,8.208-.26,64.908,64.908,0,0,1,8.207.26" fill="#263238"/><path d="M140.721,121.776a64.908,64.908,0,0,1-8.207.26,64.905,64.905,0,0,1-8.208-.26,64.905,64.905,0,0,1,8.208-.26,64.908,64.908,0,0,1,8.207.26" fill="#263238"/></g></g><g transform="translate(1262.434 3520.673)"><g transform="translate(0 0)" clip-path="url(#o)"><path d="M104.189,50.383A50.759,50.759,0,1,1,52.623.216a50.942,50.942,0,0,1,51.566,50.167M29.172,51.593a24.27,24.27,0,1,0,23.876-24.77,24.349,24.349,0,0,0-23.876,24.77" transform="translate(0.933 0.072)" fill="#f5f5f5"/><path d="M91.291,50.382a50.942,50.942,0,0,1-49.936,51.8l-.426-26.608a24.382,24.382,0,0,0-.779-48.757L39.725.215A50.924,50.924,0,0,1,91.291,50.382" transform="translate(13.831 0.072)" fill="#455a64"/><path d="M22.336,44.793a1.606,1.606,0,0,1-.023-.394c0-.3,0-.684.005-1.161a11.137,11.137,0,0,1,.127-1.882,17.156,17.156,0,0,1,.421-2.544,23.138,23.138,0,0,1,2.525-6.594,24.332,24.332,0,0,1,29.23-11.143,22.986,22.986,0,0,1,6.287,3.261,27.027,27.027,0,0,1,2.83,2.338A27.578,27.578,0,0,1,66.2,29.5a24.6,24.6,0,0,1,.469,29.166,27.623,27.623,0,0,1-2.367,2.9,27.4,27.4,0,0,1-2.753,2.428,23.03,23.03,0,0,1-6.18,3.463A24.406,24.406,0,0,1,25.791,57.262a23.123,23.123,0,0,1-2.734-6.509,17.345,17.345,0,0,1-.5-2.529,11.33,11.33,0,0,1-.186-1.878c-.018-.476-.031-.857-.042-1.158a1.659,1.659,0,0,1,.009-.4,37.922,37.922,0,0,0,.986,5.889,23.359,23.359,0,0,0,2.8,6.374,24.2,24.2,0,0,0,6.237,6.737A23.792,23.792,0,0,0,55.133,66.85a22.435,22.435,0,0,0,6-3.389,26.755,26.755,0,0,0,2.672-2.37,26.859,26.859,0,0,0,2.3-2.824,23.977,23.977,0,0,0-.456-28.356,27.133,27.133,0,0,0-2.385-2.749,26.7,26.7,0,0,0-2.748-2.281,22.4,22.4,0,0,0-6.107-3.194A23.789,23.789,0,0,0,31.75,25.48a24.189,24.189,0,0,0-6.018,6.932,23.37,23.37,0,0,0-2.6,6.462,38.186,38.186,0,0,0-.8,5.918" transform="translate(7.769 6.873)" fill="#263238"/><path d="M104.279,50.455s-.043-.278-.09-.822c-.046-.569-.111-1.368-.2-2.411q-.061-.8-.135-1.776c-.078-.65-.229-1.354-.356-2.119a37.1,37.1,0,0,0-1.141-5.23,48.788,48.788,0,0,0-5.828-13.406A50.684,50.684,0,0,0,83.468,10.5,50.117,50.117,0,0,0,62.059,1.333a46.833,46.833,0,0,0-6.4-.643c-1.091-.019-2.191-.109-3.3-.073L49.015.845c-.559.05-1.127.051-1.685.14l-1.681.289c-1.122.208-2.265.353-3.389.615a52.71,52.71,0,0,0-6.7,2.1,53.3,53.3,0,0,0-6.535,3.024c-1.049.608-2.064,1.294-3.108,1.943a26.375,26.375,0,0,0-3.005,2.162,56.084,56.084,0,0,0-5.633,4.986l-2.516,2.876-.634.723-.562.782-1.128,1.568-1.134,1.576-.984,1.681L9.336,27l-.495.848-.413.892Q7.6,30.532,6.774,32.336,6.125,34.21,5.469,36.1A54.267,54.267,0,0,0,3.126,52.08a54.233,54.233,0,0,0,2.85,15.9L7.4,71.7q.888,1.778,1.767,3.539l.441.879.522.832,1.041,1.66,1.037,1.65L13.392,81.8l1.18,1.532.586.764.657.7q1.308,1.4,2.607,2.793a56.135,56.135,0,0,0,5.79,4.8,26.164,26.164,0,0,0,3.074,2.065c1.064.615,2.1,1.267,3.17,1.842a55.081,55.081,0,0,0,13.4,4.7c1.134.224,2.281.333,3.408.5l1.689.235c.562.069,1.128.054,1.691.085l3.348.12c1.107,0,2.2-.125,3.294-.181a47.173,47.173,0,0,0,6.38-.849,50.166,50.166,0,0,0,21.1-9.857,50.671,50.671,0,0,0,12.6-14.606,48.775,48.775,0,0,0,5.4-13.584,36.979,36.979,0,0,0,.972-5.263c.1-.77.231-1.478.288-2.129q.042-.979.078-1.78c.051-1.043.09-1.846.117-2.416.031-.545.065-.824.065-.824s.015.279.008.824c-.012.572-.028,1.376-.049,2.423q-.02.8-.044,1.786c-.047.655-.164,1.367-.256,2.141a36.484,36.484,0,0,1-.913,5.3A48.532,48.532,0,0,1,97.7,76.646a51.144,51.144,0,0,1-33.927,24.837,47.341,47.341,0,0,1-6.452.878c-1.1.059-2.212.187-3.333.191l-3.388-.113c-.569-.03-1.143-.015-1.712-.082l-1.711-.232c-1.142-.171-2.3-.28-3.453-.5a55.692,55.692,0,0,1-13.576-4.733c-1.085-.58-2.135-1.239-3.214-1.86a26.857,26.857,0,0,1-3.118-2.087,56.5,56.5,0,0,1-5.873-4.86q-1.319-1.407-2.646-2.828l-.665-.71-.6-.774-1.2-1.55-1.2-1.558L10.59,78.987,9.535,77.305l-.53-.843-.448-.891L6.763,71.984,5.317,68.212A54.856,54.856,0,0,1,2.425,52.091,54.839,54.839,0,0,1,4.8,35.892q.665-1.915,1.325-3.817l1.678-3.64.419-.9.5-.86,1-1.712,1-1.7,1.15-1.6,1.145-1.589.572-.791.642-.732q1.282-1.462,2.552-2.911A57.078,57.078,0,0,1,22.5,10.59,27.077,27.077,0,0,1,25.55,8.4c1.058-.655,2.087-1.348,3.152-1.963A55.66,55.66,0,0,1,42.117,1.272c1.141-.263,2.3-.408,3.434-.616l1.7-.289C47.819.28,48.394.279,48.96.23L52.344.008c1.119-.034,2.233.059,3.337.082a47.427,47.427,0,0,1,6.477.669A51.116,51.116,0,0,1,96.868,24.487a48.5,48.5,0,0,1,5.758,13.54,36.451,36.451,0,0,1,1.083,5.269c.116.771.256,1.478.324,2.131q.057.983.1,1.785c.054,1.045.1,1.848.125,2.42.024.545.019.824.019.824" transform="translate(0.844 0)" fill="#263238"/><path d="M59.65,93.935C26.911,94.463.793,69.054.267,36.163l30.985-.5C31.5,51.39,43.47,61.291,59.124,61.038Z" transform="translate(0.093 12.417)" fill="#529d2e"/><path d="M59.743,94.024a5.7,5.7,0,0,1-.038-.611c-.013-.427-.032-1-.055-1.735-.04-1.552-.1-3.768-.171-6.6-.125-5.718-.3-13.9-.523-23.949l.266.256A34.577,34.577,0,0,1,49.9,60.248a26.637,26.637,0,0,1-9.238-4.5A24.026,24.026,0,0,1,33.653,47.2a27,27,0,0,1-2.648-11.442l.345.334-23.993.4L.365,36.6l.344-.356A64.969,64.969,0,0,0,3.867,54.573q.791,2.111,1.568,4.182c.584,1.351,1.275,2.64,1.9,3.941a30.352,30.352,0,0,0,2.111,3.717A34.358,34.358,0,0,0,11.737,69.9l2.468,3.238c.866,1.019,1.8,1.959,2.672,2.92L18.2,77.475l1.426,1.263L22.411,81.2a59.641,59.641,0,0,0,11.495,7.09l2.744,1.27c.915.355,1.828.646,2.7.959l2.557.892c.833.264,1.669.419,2.462.626s1.563.379,2.3.557l1.088.264c.359.067.716.105,1.062.156l3.794.535a23.6,23.6,0,0,0,3.02.241l2.226.115,1.387.078a4.361,4.361,0,0,1,.492.04,2.99,2.99,0,0,1-.445.009l-1.364-.012q-.934-.014-2.257-.034a22.109,22.109,0,0,1-3.085-.178l-3.822-.477c-.349-.049-.708-.082-1.07-.144l-1.1-.251L44.279,92.4c-.8-.2-1.643-.346-2.485-.605l-2.584-.872c-.884-.307-1.807-.593-2.731-.944L33.7,88.725a59.486,59.486,0,0,1-11.644-7.083q-1.391-1.213-2.828-2.471L17.784,77.9l-1.34-1.426c-.887-.968-1.832-1.913-2.711-2.94l-2.508-3.264a35.092,35.092,0,0,1-2.331-3.517A30.859,30.859,0,0,1,6.748,63c-.632-1.314-1.335-2.617-1.928-3.983q-.791-2.091-1.6-4.227A65.361,65.361,0,0,1,.009,36.259L0,35.909.355,35.9c2.22-.036,4.6-.076,6.992-.113l23.993-.377.341-.005.005.341a26.373,26.373,0,0,0,2.557,11.167,23.435,23.435,0,0,0,6.793,8.342,26.132,26.132,0,0,0,9.014,4.437,34.2,34.2,0,0,0,9.162,1.173h.262l0,.256c.1,10.117.187,18.358.247,24.113.016,2.806.03,5,.039,6.541,0,.713,0,1.273,0,1.688a4.117,4.117,0,0,1-.019.558" transform="translate(0 12.327)" fill="#263238"/></g></g><path d="M94.093,167.573a29.132,29.132,0,0,1,7.11-3.09l1.464-7.037,11.889-.208,1.711,6.981a29.113,29.113,0,0,1,7.214,2.838l6.009-3.939,8.555,8.261-3.725,6.143a29.137,29.137,0,0,1,3.09,7.11l7.036,1.464.208,11.889-6.981,1.711a29.113,29.113,0,0,1-2.838,7.214l3.938,6.009-8.259,8.555-6.143-3.725a29.137,29.137,0,0,1-7.11,3.09l-1.464,7.037-11.889.208L102.2,221.1a29.192,29.192,0,0,1-7.214-2.838L88.975,222.2l-8.554-8.26,3.724-6.143a29.122,29.122,0,0,1-3.09-7.11l-7.036-1.464-.209-11.889,6.981-1.711a29.194,29.194,0,0,1,2.838-7.214L79.69,172.4l8.259-8.555Zm6.338,15.839a12.756,12.756,0,1,0,18.038-.318,12.757,12.757,0,0,0-18.038.318" transform="translate(1072.866 3368.155)" fill="#ebebeb"/><g transform="translate(1105 3216.627)"><g clip-path="url(#p)"><g clip-path="url(#p)"><path d="M147.217,18.616a3.568,3.568,0,0,0-2.441-1.057,12.944,12.944,0,0,0-7.592,1.469,11.1,11.1,0,0,0,1.534-13.279A12.529,12.529,0,0,0,126.329.134a14.42,14.42,0,0,0-10.782,8.625,17.015,17.015,0,0,0,.61,13.97l7.925,2.079a22.2,22.2,0,0,0,12.471,3.835c1.775,0,3.713-.3,4.911-1.614s1-3.882-.7-4.422c1.634.364,3.4.719,4.938.07s2.561-2.757,1.51-4.06" transform="translate(48.709 0)" fill="#263238"/><path d="M128.755,6.617a19.349,19.349,0,0,0-14.9,1.54A11.5,11.5,0,0,0,94,11.195a10.063,10.063,0,0,0-12.032,4.084,10.062,10.062,0,0,0,2.256,12.5A12.5,12.5,0,0,0,78.991,46.8c-3.746,1.817-4.388,6.888-3.835,11.015s1.741,8.548-.11,12.278c-1.429,2.881-4.377,4.662-6.393,7.167s-2.721,6.821.01,8.518a8.7,8.7,0,1,0,3.147,17.088,10.662,10.662,0,0,0,1.134,10.228,17.17,17.17,0,0,0,8.551,6.233,25.555,25.555,0,0,0,27.918-7.873L140.187,16.3a19.352,19.352,0,0,0-11.433-9.683" transform="translate(26.051 1.587)" fill="#263238"/><path d="M134.822,28.138,135.232,23l-30.516-7.729c-9.458-1.58-20.324,7.341-21.5,16.857C81.908,42.7,80.73,55.665,81.51,63.659,83.078,79.735,95.161,82.5,95.161,82.5L94.28,98.306l35.186,2.561Z" transform="translate(34.62 6.43)" fill="#ae7461"/><path d="M85.249,37.434a2.046,2.046,0,0,0,1.845,2.179A1.959,1.959,0,0,0,89.31,37.9a2.047,2.047,0,0,0-1.842-2.18,1.958,1.958,0,0,0-2.219,1.716" transform="translate(36.316 15.212)" fill="#263238"/><path d="M84.714,32.5c.237.281,1.854-.77,4.05-.632,2.2.106,3.742,1.333,4,1.078.125-.111-.1-.608-.776-1.162a5.606,5.606,0,0,0-3.179-1.192,5.385,5.385,0,0,0-3.244.836c-.707.478-.964.945-.847,1.072" transform="translate(36.081 13.03)" fill="#263238"/><path d="M99.238,38.192a2.047,2.047,0,0,0,1.845,2.179,1.959,1.959,0,0,0,2.216-1.714,2.048,2.048,0,0,0-1.844-2.18,1.958,1.958,0,0,0-2.218,1.716" transform="translate(42.276 15.535)" fill="#263238"/><path d="M99.844,33.7c.238.281,1.855-.77,4.05-.633,2.2.107,3.742,1.335,4,1.08.123-.113-.1-.607-.777-1.161a5.6,5.6,0,0,0-3.179-1.194,5.385,5.385,0,0,0-3.244.836c-.7.478-.964.945-.847,1.072" transform="translate(42.527 13.541)" fill="#263238"/><path d="M95.2,49.669a14.63,14.63,0,0,0-3.531-.858c-.558-.091-1.082-.235-1.154-.623a2.872,2.872,0,0,1,.475-1.641l1.917-4.173c2.671-5.945,4.64-10.847,4.4-10.952s-2.6,4.628-5.271,10.573q-.967,2.2-1.848,4.2a3.254,3.254,0,0,0-.424,2.185,1.409,1.409,0,0,0,.874.876,3.784,3.784,0,0,0,.944.19,14.343,14.343,0,0,0,3.618.222" transform="translate(38.214 13.386)" fill="#263238"/><path d="M91.08,63.7A42.249,42.249,0,0,0,113.294,59.3s-6.049,10.825-22.442,8.375Z" transform="translate(38.707 25.264)" fill="#6f4439"/><path d="M100.194,28.3c.217.6,2.416.315,5,.626,2.588.26,4.672,1.015,5.014.479.153-.258-.21-.82-1.052-1.4a8.758,8.758,0,0,0-7.628-.841c-.948.382-1.425.853-1.332,1.137" transform="translate(42.683 11.354)" fill="#263238"/><path d="M85.091,28.715c.352.525,1.9.111,3.722.212,1.824.037,3.337.568,3.728.07.173-.242-.036-.759-.676-1.278a5.4,5.4,0,0,0-6-.228c-.679.469-.926.968-.771,1.224" transform="translate(36.234 11.371)" fill="#263238"/><path d="M84.3,22a26.731,26.731,0,0,1,14.537-9.6l25.78,3.243,2.2-.039c.483-1.624,3.223-2.476,3.223-2.476,2.423-1.858,10.815-1.959,16.663,4.156,2.111,2.2,3.609,7.752,3.658,10.8.019,1.155-1.219,2.739-.254,3.374a29.538,29.538,0,0,0,3.519.25c6.557,1.436,10.655,7.25,9.468,15.943a4.425,4.425,0,0,0-.141,1.312,3.59,3.59,0,0,0,1.149,1.708A11.377,11.377,0,0,1,165.9,63.335a13.506,13.506,0,0,0-1.753,3.8c-.4,2.48,1.413,4.69,2.816,6.772,4.207,6.246,5.11,15.32.173,21-1.2,1.383-2.748,2.615-3.2,4.389a10.525,10.525,0,0,0-.141,2.672c.031,4.536-2.362,9.613-6.8,10.57-2.463.53-5.452-.164-7.2,1.646a10.689,10.689,0,0,0-1.572,2.873,9.2,9.2,0,0,1-10.6,4.563c-4-1.234-5.326-17.465-4.747-21.61-4.844-1.761-8.431-2.073-8.2-7.224,0,0,.749-8.864-.686-13.182s1.443-13.508,3.083-17.971-.314-14.852-.753-18.984a15.037,15.037,0,0,1,.342-3.534v0l0-.013c.18-1,.415-2.135.692-3.347.1-1.129,1.031-7.159,1.015-8.214-.064-3.9-4.911-1.817-8.613-.573a9.491,9.491,0,0,1-2.777.5,9.886,9.886,0,0,1-7.962-3.773,14.234,14.234,0,0,1-14.049,3.842A38.742,38.742,0,0,1,88.305,35.3a13.056,13.056,0,0,1-9.443,3.246A26.735,26.735,0,0,1,84.3,22" transform="translate(33.597 5.117)" fill="#263238"/><path d="M94.73,48.439a3.885,3.885,0,0,1,3.408-1.617,3.555,3.555,0,0,1,2.514,1.191,2.253,2.253,0,0,1,.3,2.56,2.61,2.61,0,0,1-2.791.856,8.14,8.14,0,0,1-2.835-1.5,2.36,2.36,0,0,1-.649-.607.723.723,0,0,1-.037-.8" transform="translate(40.276 19.946)" fill="#6f4439"/><path d="M100.317,45.167c-.351,0-.24,2.336-2.158,4.1s-4.424,1.629-4.425,1.957c-.026.148.578.426,1.633.4a5.833,5.833,0,0,0,3.7-1.5,5.074,5.074,0,0,0,1.66-3.428c.04-.983-.248-1.549-.408-1.527" transform="translate(39.935 19.243)" fill="#263238"/><path d="M73.125,339.746l2.9,30.217s-32.935,12.3-33.293,18.392l62.267.17-.036-4.553-2.611-15.545L98.5,338.232Z" transform="translate(18.206 144.103)" fill="#455a64"/><path d="M80.151,357.227a2.6,2.6,0,0,1,1.807,2.965,2.5,2.5,0,0,1-2.923,1.817,2.744,2.744,0,0,1-1.9-3.15c.421-1.206,2.122-2.153,3.25-1.553" transform="translate(32.825 152.15)" fill="#e0e0e0"/><path d="M105.008,374.859l-.034-4.553-59.724,1.145s-2.834,1.242-2.508,3.239Z" transform="translate(18.199 157.768)" fill="#263238"/><path d="M65.356,360.345c.011.311,1.567.448,3.1,1.445,1.56.957,2.353,2.3,2.638,2.179.287-.061-.181-1.921-2.059-3.095-1.867-1.191-3.748-.814-3.679-.529" transform="translate(27.844 153.4)" fill="#263238"/><path d="M60.674,362.246c-.07.3,1.278.827,2.339,2.141,1.1,1.282,1.369,2.705,1.678,2.689.292.05.5-1.774-.846-3.381s-3.166-1.745-3.172-1.449" transform="translate(25.849 154.28)" fill="#263238"/><path d="M58.773,369.426c.282.066.712-1.49-.091-3.192s-2.26-2.377-2.391-2.118c-.175.255.771,1.168,1.41,2.575.67,1.392.763,2.7,1.072,2.734" transform="translate(23.973 155.108)" fill="#263238"/><path d="M63.809,355.5c.131.284,1.557-.15,3.317-.034,1.761.078,3.132.666,3.293.4.18-.227-1.159-1.375-3.234-1.48-2.072-.123-3.529.871-3.375,1.115" transform="translate(27.181 150.98)" fill="#263238"/><path d="M126.71,340.292l2.668,29.7s-32.43,11.889-32.819,17.868l61.17.542-.007-4.474-2.471-15.287-3.6-29.686Z" transform="translate(41.139 144.412)" fill="#455a64"/><path d="M133.421,357.6a2.556,2.556,0,0,1,1.757,2.923,2.456,2.456,0,0,1-2.882,1.767,2.7,2.7,0,0,1-1.845-3.106c.421-1.184,2.1-2.1,3.2-1.506" transform="translate(55.538 152.31)" fill="#e0e0e0"/><path d="M157.736,374.968l-.007-4.474-58.679.764s-2.791,1.2-2.483,3.167Z" transform="translate(41.132 157.848)" fill="#263238"/><path d="M118.864,360.58c.009.307,1.537.449,3.037,1.437,1.526.95,2.3,2.277,2.578,2.156.282-.058-.167-1.887-2.005-3.052-1.827-1.181-3.676-.823-3.611-.542" transform="translate(50.641 153.505)" fill="#263238"/><path d="M114.252,362.421c-.071.3,1.251.82,2.285,2.118,1.071,1.266,1.329,2.665,1.633,2.652.287.05.5-1.741-.811-3.328-1.3-1.6-3.1-1.733-3.106-1.442" transform="translate(48.676 154.356)" fill="#263238"/><path d="M112.341,369.463c.278.066.709-1.459-.07-3.136s-2.206-2.349-2.337-2.095c-.173.251.752,1.152,1.37,2.538.65,1.372.733,2.661,1.037,2.692" transform="translate(46.828 155.158)" fill="#263238"/><path d="M117.375,355.806c.127.279,1.532-.137,3.259-.014,1.73.088,3.072.674,3.233.412.177-.221-1.131-1.356-3.169-1.473-2.034-.133-3.472.834-3.323,1.075" transform="translate(50.003 151.127)" fill="#263238"/><path d="M67.745,155.02s-14.76,42.744-15.267,74.542-1.018,82.361,5.6,138.138,9.67,78.192,9.67,78.192h33.589s3.562-34.925,3.053-66.2-2.953-41.18.05-75.585,7.758-55.07,12.762-65.494c0,0,13.864-16.481,14.882-39.089s-6.983-42.037-6.983-42.037Z" transform="translate(22.242 66.046)" fill="#263238"/><path d="M84.033,214.409c.558,1.717,10.524,71.8,17.8,102.705s15.363,39.091,16.78,64.235c1.633,28.92,9.573,63.962,9.573,63.962h35.765s-5.028-53.455-10.059-95.241-12.3-93.3-11.177-108.758,3.913-34.542,0-56.195-12.368-27.362-12.368-27.362L100,156.383Z" transform="translate(35.802 66.627)" fill="#263238"/><path d="M115.026,168.965a7.5,7.5,0,0,1,.555,1.088,21.556,21.556,0,0,1,1.214,3.29,43.583,43.583,0,0,1,1.179,12.81,84.5,84.5,0,0,1-2.941,18.858,60.608,60.608,0,0,1-3.9,10.61,75.559,75.559,0,0,1-6.463,10.255c-4.861,6.7-7.263,14.325-9.081,21.214a151.179,151.179,0,0,0-3.394,18.7c-.66,5.379-1.057,9.751-1.353,12.77q-.218,2.184-.349,3.477a7.385,7.385,0,0,1-.171,1.208,7.515,7.515,0,0,1,.021-1.219q.077-1.3.21-3.488c.207-3.028.522-7.41,1.117-12.809a143.75,143.75,0,0,1,3.251-18.807A91.44,91.44,0,0,1,98.3,236.145a53.446,53.446,0,0,1,2.5-5.452,56.387,56.387,0,0,1,3.253-5.241,76.037,76.037,0,0,0,6.42-10.156,60.653,60.653,0,0,0,3.9-10.469,86.6,86.6,0,0,0,3.077-18.7,45.553,45.553,0,0,0-.933-12.716,25.533,25.533,0,0,0-1.071-3.3,7.591,7.591,0,0,1-.415-1.148" transform="translate(38.474 71.987)" fill="#455a64"/><path d="M11.3,104.072c6.168,3.689,17.308,7.14,17.308,7.14L41.1,101.231S32.168,84.905,29.291,80.279a24.726,24.726,0,0,1-2.329-4.938c-.965-3.475-3.515-2-3.986.742a14.889,14.889,0,0,0,.777,4.405,12.913,12.913,0,0,1,.871,5.293s-.91-.774-3.156-2.286c-2.444-1.646-10.71-8.536-14.2-11.421C2.054,67.763-.576,70.435.106,72.1.951,74.173,13.9,83.238,13.435,84.79c0,0-2.493,1.416-2.845,3.03a8.189,8.189,0,0,0,.024,3.211s-2.336.228-2.96,1.728a5.829,5.829,0,0,0,.177,3.612s-2.165.2-2.414,1.379,1.249,3.547,5.888,6.32" transform="translate(0 29.713)" fill="#ae7461"/><path d="M32.876,97.477c.188.565,26.777,27.788,26.777,27.788S81.842,100.271,88.6,91.076s17-20.469,25.819-22.581,21.074,3.569,21.074,3.569l-15.621,32.12L100.147,131.3s-21.309,26.765-31.441,30.894-20.059-1.8-24.374-6.3-29.918-43.419-29.918-43.419Z" transform="translate(6.141 28.982)" fill="#529d2e"/><path d="M160.557,78.957l-61.186-10.6s-16.989,29.91-23.344,61.339-13.6,62.827-13.6,62.827l56.517,6.963a65.136,65.136,0,0,0,17.7-.244l5.89-.89L137.7,178.394c8.079-20.17,13.972-37.4,17.473-51.633,7.6-30.877,5.388-47.8,5.388-47.8" transform="translate(26.597 29.122)" fill="#529d2e"/><path d="M95.407,96.747a7.162,7.162,0,0,1-.994,1.339l-2.869,3.505c-2.424,2.958-5.71,7.095-9.346,11.664s-7,8.662-9.529,11.54c-1.263,1.44-2.307,2.587-3.055,3.355A7.19,7.19,0,0,1,68.4,129.3a7.1,7.1,0,0,1,.994-1.339l2.869-3.505c2.424-2.958,5.71-7.095,9.348-11.665s6.995-8.66,9.527-11.538c1.263-1.44,2.307-2.587,3.055-3.355a7.19,7.19,0,0,1,1.214-1.147" transform="translate(29.141 41.218)" fill="#263238"/><path d="M122.609,146.162a16.532,16.532,0,0,1-3.837,1.1,56.9,56.9,0,0,1-19.2.74,16.618,16.618,0,0,1-3.912-.8,29.525,29.525,0,0,1,3.969.282,76.889,76.889,0,0,0,19.048-.734,29.623,29.623,0,0,1,3.934-.588" transform="translate(40.755 62.262)" fill="#263238"/><path d="M45.8,124.161c-.205,0-.322-3.474-.261-7.752s.277-7.746.482-7.743.322,3.474.261,7.753-.277,7.745-.482,7.742" transform="translate(19.396 46.297)" fill="#263238"/><g transform="translate(146.515 111.611)" opacity="0.3"><g clip-path="url(#r)"><path d="M141.413,81.676l-38.231-3.41A6.379,6.379,0,0,0,107.23,86.6a12.376,12.376,0,0,0,9.821,18.456,11.437,11.437,0,0,1,3.047.379c2.119.763,3.133,3.09,4.405,4.948a11.577,11.577,0,0,0,7.127,4.944,8.452,8.452,0,0,0,8.043-2.668c1.872-2.279,2.186-5.428,2.332-8.374a149.042,149.042,0,0,0-.593-22.607" transform="translate(-102.742 -78.266)"/></g></g><g transform="translate(100.313 140.188)" opacity="0.3"><g clip-path="url(#s)"><path d="M70.343,125.92A27,27,0,0,0,91.958,98.305c-8,8.677-14.752,19.8-21.615,27.615" transform="translate(-70.344 -98.305)"/></g></g><path d="M150.41,74.98,117.787,38.673c1.194,9.214-2.279,18.382-6.45,26.683-2.374,4.725-5.024,10.345-2.53,15.008a30.924,30.924,0,0,0-5.389,7.36c-1.285,2.769-1.693,6.109-.351,8.85s4.747,4.539,7.6,3.444a9.952,9.952,0,0,0,13.726,12.345,15.781,15.781,0,0,0,6.1,9.5c3.186,2.166,7.609,2.671,10.928.714s5-6.554,3.221-9.969c7.177-1.587,11.662-9.324,11.875-16.672s-2.873-14.356-6.1-20.96" transform="translate(43.558 16.477)" fill="#263238"/><path d="M91.07,28.448c.009.024-.174.1-.539.215a4.545,4.545,0,0,1-1.661.116,6.6,6.6,0,0,1-4.938-3.4,6.379,6.379,0,0,1-.683-4.211,8.544,8.544,0,0,1,2.242-4.351,9.285,9.285,0,0,1,4.682-2.69,12.574,12.574,0,0,1,5.784.058,16.152,16.152,0,0,1,3.177,1.128l-.5.2a13.367,13.367,0,0,1,6.834-7.042,12.878,12.878,0,0,1,12.719,1.315,8.588,8.588,0,0,1,1.094.92c.23.232.341.361.324.378-.041.047-.54-.416-1.569-1.075a13.465,13.465,0,0,0-4.786-1.874,12.334,12.334,0,0,0-7.508.934,12.842,12.842,0,0,0-6.423,6.72l-.147.362-.355-.168a15.657,15.657,0,0,0-3.027-1.07,11.984,11.984,0,0,0-5.445-.074,8.655,8.655,0,0,0-4.357,2.454,7.985,7.985,0,0,0-2.131,3.987,5.874,5.874,0,0,0,.54,3.855,6.412,6.412,0,0,0,4.512,3.36,7.6,7.6,0,0,0,2.163-.044" transform="translate(35.426 3.135)" fill="#455a64"/><path d="M146.776,49.313c-.058-.029.274-.673.622-1.924a12.908,12.908,0,0,0,.288-5.449,11.762,11.762,0,0,0-3.82-7.036,12.382,12.382,0,0,0-9.342-3.042l-.546.057.154-.53a14.656,14.656,0,0,0,.56-3.351,15.208,15.208,0,0,0-3.542-10.517,14.605,14.605,0,0,0-7.846-4.695,15.727,15.727,0,0,0-6.273-.194c-1.475.265-2.26.572-2.285.5a1.92,1.92,0,0,1,.552-.267,10.931,10.931,0,0,1,1.676-.521,15.3,15.3,0,0,1,14.7,4.727,15.725,15.725,0,0,1,3.766,11,15.31,15.31,0,0,1-.6,3.527l-.392-.472a12.924,12.924,0,0,1,9.858,3.286,12.111,12.111,0,0,1,3.873,7.453,12.37,12.37,0,0,1-.521,5.6,8.553,8.553,0,0,1-.6,1.4c-.167.3-.262.456-.284.446" transform="translate(48.887 5.105)" fill="#455a64"/><path d="M102.49,25.468c-.019.031-.376-.1-.911-.523a6.364,6.364,0,0,1-1.744-2.286,7.48,7.48,0,0,1-.588-4.241,7.964,7.964,0,0,1,2.558-4.575,9.054,9.054,0,0,1,4.726-2.25,10.37,10.37,0,0,1,6.871,1.415c.572.357.844.615.819.65a27.281,27.281,0,0,0-3.564-1.278,10.47,10.47,0,0,0-4.014-.111,8.7,8.7,0,0,0-4.338,2.125,7.516,7.516,0,0,0-2.383,4.138,7.261,7.261,0,0,0,.4,3.919,9.114,9.114,0,0,0,2.172,3.018" transform="translate(42.247 4.893)" fill="#455a64"/><path d="M116.983,93.628c-.016.02-.171-.076-.455-.28a9.31,9.31,0,0,1-1.159-1A13.384,13.384,0,0,1,112.083,79.3a13.742,13.742,0,0,1,6.41-7.859,13.008,13.008,0,0,1,4.007-1.463l-.205.608a10.374,10.374,0,0,1-2.491-8.3A9.679,9.679,0,0,1,123.21,56.2a9.835,9.835,0,0,1,4.148-2.086,6.6,6.6,0,0,1,1.239-.178c.285-.01.434-.006.436.019.006.06-.588.108-1.607.412a10.333,10.333,0,0,0-3.9,2.2,9.318,9.318,0,0,0-3.085,5.8,9.809,9.809,0,0,0,2.393,7.718l.441.488-.645.121a12.388,12.388,0,0,0-3.776,1.39,13.218,13.218,0,0,0-6.121,7.413,12.911,12.911,0,0,0,.135,7.932,14.013,14.013,0,0,0,2.708,4.727c.866.971,1.447,1.416,1.4,1.472" transform="translate(47.525 22.978)" fill="#455a64"/><path d="M119.094,27.126l-1.018-4.6A33.622,33.622,0,0,0,114.8,44.129c.629,3.393,1.758,7.032.289,10.153-1,2.132-3.06,3.592-4.237,5.633-1.49,2.583-.391,9.385-.774,10.724-.871,3.052-3.826,5-4.522,8.686s.19,8.14,3.5,9.9c6.235-10.283,12.615-20.969,14.082-32.9,1.208-9.83-1.032-19.762-4.046-29.2" transform="translate(44.877 9.596)" fill="#263238"/><path d="M132.215,51.2a1.4,1.4,0,0,1-.532.03,11.443,11.443,0,0,1-1.514-.158,10.411,10.411,0,0,1-5.107-2.3,7.914,7.914,0,0,1-2.232-3.243,6.045,6.045,0,0,1,.077-4.535,5.54,5.54,0,0,1,3.85-3.207,4.038,4.038,0,0,1,2.747.392,2.573,2.573,0,0,1,1.332,2.59A2.1,2.1,0,0,1,130,42.113a2.768,2.768,0,0,1-1.436.453,5.341,5.341,0,0,1-2.658-.635,12.768,12.768,0,0,1-3.9-3.08,12.619,12.619,0,0,1-2.1-13.2,10.413,10.413,0,0,1,.7-1.352c.193-.291.3-.436.324-.424.058.033-.318.659-.757,1.881a13.231,13.231,0,0,0-.729,5.375,12.492,12.492,0,0,0,6.789,10.148,4.655,4.655,0,0,0,2.292.548,1.517,1.517,0,0,0,1.577-1.181,1.834,1.834,0,0,0-.965-1.831,3.336,3.336,0,0,0-2.242-.318,4.875,4.875,0,0,0-3.364,2.775,5.439,5.439,0,0,0-.118,4.049,7.488,7.488,0,0,0,2,3.057,10.738,10.738,0,0,0,4.813,2.4c1.265.294,1.994.348,1.988.411" transform="translate(50.66 10.173)" fill="#455a64"/></g></g></g></g></svg>