<svg xmlns="http://www.w3.org/2000/svg" width="227.636" height="163.796" viewBox="0 0 227.636 163.796"><g transform="translate(6702.847 5304)"><g transform="translate(6.789 508.083)"><path d="M295.2,301.082s-38.447-32.828-9.22-63.942c31.117-33.126,3.549-75.653,45.789-92.812,45.667-18.551,57.417,14.122,76.536,9.105,38.132-10.007,86.5-5.079,78.452,43.527-10.1,61.015,31.345,53.232,6.728,104.325Z" transform="translate(-6984.646 -5950.657)" fill="#dbf5cc"/><path d="M.359,0H216.944a.359.359,0,0,1,.359.359v0a.359.359,0,0,1-.359.359H.359A.359.359,0,0,1,0,.359v0A.359.359,0,0,1,.359,0Z" transform="translate(-6699.303 -5649.73)" fill="#233862"/></g><g transform="translate(-7124.657 -5450.227)"><g transform="translate(505.253 227.212)"><path d="M493.456,209.763c3.982,10.865,1.244,23.584-1.693,23.944-3.391.414-7.78-15.576-9.624-22.291-2.154-7.848-4.3-15.684-2.215-16.786C482.283,193.386,490.126,200.681,493.456,209.763Z" transform="translate(-479.072 -194.217)" fill="#a2f476"/><g transform="translate(1.174)"><path d="M488.665,255.1c-.227-.054-.313-.209-.27-.358a75.72,75.72,0,0,0,2.919-21.068,70.227,70.227,0,0,0-2.7-19.23,71.514,71.514,0,0,0-8.977-19.646.281.281,0,0,1,.47-.308,72.035,72.035,0,0,1,9.046,19.8,70.835,70.835,0,0,1,2.719,19.383,76.065,76.065,0,0,1-2.941,21.223A.283.283,0,0,1,488.665,255.1Z" transform="translate(-479.594 -194.369)" fill="#12263f"/></g><g transform="translate(12.894 25.477)"><path d="M497.722,218.756c-2.5,4.106-8.185,11.812-10.71,10.692-2.327-1.034-2.04-9.6,1.988-15.653,3.829-5.766,11.093-9.336,12.939-7.7C504.209,208.116,498.221,217.94,497.722,218.756Z" transform="translate(-483.885 -205.699)" fill="#a2f476"/><g transform="translate(0 0.446)"><path d="M485.127,244.083a.284.284,0,0,1-.281-.27,46.739,46.739,0,0,1,1.981-15.581,42.51,42.51,0,0,1,6.1-12.352,42.965,42.965,0,0,1,10.011-9.93.28.28,0,1,1,.324.456,41.854,41.854,0,0,0-15.9,21.972,46.264,46.264,0,0,0-1.956,15.412.281.281,0,0,1-.27.292Z" transform="translate(-484.807 -205.898)" fill="#12263f"/></g></g><path d="M0,0H21.161a0,0,0,0,1,0,0V20.316a4.318,4.318,0,0,1-4.318,4.318H4.318A4.318,4.318,0,0,1,0,20.316V0A0,0,0,0,1,0,0Z" transform="translate(1.915 55.114)" fill="#529d2e"/></g><g transform="translate(458.105 168.067)"><path d="M499.487,227.619h-3.029q.148-2.317.3-4.632a3.125,3.125,0,0,1,1.342.3,3.185,3.185,0,0,1,1.385,1.3Z" transform="translate(-410.216 -99.491)" fill="#12263f"/><g transform="translate(78.867 126.003)"><path d="M507.134,230.756c0,.281-.031.533-.047.72-.846.031-2.66.094-4.68.142-1.864.047-3.931.079-5.574.047a22.77,22.77,0,0,1-2.5-.142c-.549-.079-1.019-.2-1.127-.517a.282.282,0,0,1,.016-.25c.108-.486.969-1.048,1.237-1.221.625-.438,1.268-.877,1.909-1.315.391-.281.8-.564,1.205-.845.173-.11.344-.234.517-.344a3.679,3.679,0,0,1,.328-.234c.157-.11.328-.236.5-.362.126-.076.234-.155.36-.234.173-.126.344-.234.517-.36.11-.079.218-.157.328-.22.173-.124.344-.25.517-.36.564-.391,1.127-.783,1.675-1.158,1.423.11,2.818.234,4.227.36a6.67,6.67,0,0,0,.126,3.789,6.492,6.492,0,0,1,.391,1.363,1.6,1.6,0,0,1,.045.25A5.9,5.9,0,0,1,507.134,230.756Z" transform="translate(-493.177 -224.102)" fill="#12263f"/><path d="M493.2,227.32c.108.3.587.43,1.127.506,2.462.322,10.659.031,12.759-.043a5.432,5.432,0,0,0,.061-.722H493.207A.38.38,0,0,0,493.2,227.32Z" transform="translate(-493.178 -220.407)" fill="#12263f"/><path d="M497.215,227.828l.151.726c2.024-.045,3.834-.112,4.677-.142a5.445,5.445,0,0,0,.056-.72,6.153,6.153,0,0,0-.032-.89c-.013-.085-.025-.169-.045-.247-.151.034-.3.061-.459.094A43.662,43.662,0,0,0,497.215,227.828Z" transform="translate(-488.138 -221.039)" fill="#12263f"/></g><g transform="translate(0 0.321)"><g transform="translate(28.572 16.081)"><path d="M471.459,183.735c1.855,1.3,3.685,2.586,5.52,3.892.578.38,1.136.762,1.7,1.167.279.191.562.4.841.6.866.612,1.732,1.223,2.615,1.83l3.258,2.3c1.268.881,2.539,1.763,3.787,2.649.958.187,5.4-3.5,4.9-5.945q-3.839-3.053-7.648-6.092c-.938-.742-1.882-1.507-2.82-2.251-.367-.3-.731-.58-1.1-.879-2.318-1.835-4.643-3.688-6.942-5.527a13.485,13.485,0,0,0-4.079,7.866C471.488,183.495,471.472,183.6,471.459,183.735Z" transform="translate(-470.003 -175.218)" fill="#ff9769"/><path d="M474.669,183.987c.279.191.562.4.841.6.866.612,1.732,1.223,2.615,1.83,1.439-2.377,2.865-4.709,4.3-7.088Z" transform="translate(-465.994 -170.411)" fill="#12263f"/><path d="M479.864,192q3.687-3.862,7.371-7.729-5.127-4.432-10.249-8.869a5.722,5.722,0,0,0-4.036.994,6.336,6.336,0,0,0-1.653,7.31Z" transform="translate(-470.811 -175.361)" fill="#fc8116"/></g><path d="M481.091,174.259q2.057-.054,4.108-.1c.708,2.5,1.286,4.821,1.763,6.906.238,1.048.445,2.035.639,2.95.243,1.147.394,2.026.418,2.159,1.563,8.727-1.909,11.421-1.909,11.421a5.268,5.268,0,0,1-4.29.947,5.115,5.115,0,0,1-3.4-4.324,87.127,87.127,0,0,0,2.136-11.7C480.889,179.575,481.049,176.811,481.091,174.259Z" transform="translate(-432.739 -160.78)" fill="#ff9769"/><path d="M485.346,252.871q-.81,1.369-1.621,2.737l-2.332-1.788c-.2-.6-.472-1.455-.81-2.483-.151-.461-.31-.942-.495-1.5-.331-.989-.666-1.932-.98-2.851-1.156-3.337-2.215-6.285-3.139-8.776-2.705-7.22-3.524-9.188-4.279-12.509a46.228,46.228,0,0,1-.394-17.888,52.155,52.155,0,0,0,10.924-.124c.038.193.148.753.281,1.464,2.379,12.919,1.347,20.719,2.626,40.334C485.2,250.609,485.272,251.751,485.346,252.871Z" transform="translate(-442.478 -118.912)" fill="#ff9769"/><g transform="translate(37.582 133.201)"><path d="M488.894,234.379a1.855,1.855,0,0,1-1.124.506,75.2,75.2,0,0,1-8.084.094c-2.026-.045-3.836-.112-4.677-.139a5.441,5.441,0,0,1-.056-.722,6.13,6.13,0,0,1,.031-.888c.011-.085.025-.169.043-.247a6.907,6.907,0,0,1,.4-1.374,6.509,6.509,0,0,0,.133-3.706c1.394-.207,2.8-.326,4.2-.456.573.4,1.131.783,1.7,1.178.169.112.34.229.515.353l.328.227c.169.117.337.236.515.353.119.085.238.164.357.247l.511.355c.106.074.214.146.326.225.394.274.506.351.515.355.645.443,4.072.495,4.749,1.747A1.8,1.8,0,0,1,488.894,234.379Z" transform="translate(-474.657 -227.446)" fill="#12263f"/><path d="M485.177,232.924q-3.42-.334-6.84-.666l4.1-3.1a2.536,2.536,0,0,1,2.905,2.26A3.015,3.015,0,0,1,485.177,232.924Z" transform="translate(-470.425 -225.337)" fill="#12263f"/><rect width="15.173" height="1.074" transform="translate(0 7.129)" fill="#529d2e"/><rect width="2.834" height="0.504" transform="matrix(0.805, -0.593, 0.593, 0.805, 4.741, 2.43)" fill="#529d2e"/><rect width="2.834" height="0.504" transform="matrix(0.805, -0.593, 0.593, 0.805, 5.432, 2.99)" fill="#529d2e"/><rect width="2.834" height="0.504" transform="translate(6.031 3.472) rotate(-36.345)" fill="#529d2e"/><rect width="2.834" height="0.504" transform="translate(6.623 4.033) rotate(-36.349)" fill="#529d2e"/><rect width="2.834" height="0.504" transform="matrix(0.805, -0.593, 0.593, 0.805, 7.322, 4.435)" fill="#529d2e"/></g><g transform="translate(0 85.483)"><path d="M464.055,249.462l-3.02,1.005-.589-2.88c.25-.582.6-1.408,1.016-2.4.187-.448.382-.915.607-1.457.4-.962.765-1.893,1.129-2.8,1.313-3.279,2.447-6.2,3.382-8.684,2.687-7.227,3.362-9.251,4.965-12.255a46.3,46.3,0,0,1,11.43-13.766c1.27,1.237,2.6,2.494,3.989,3.757q2.152,1.963,4.25,3.742l-.657.857q-12.241,16.106-24.452,32.185C465.429,247.659,464.732,248.567,464.055,249.462Z" transform="translate(-455.182 -206.225)" fill="#ff9769"/><g transform="translate(0 40.138)"><path d="M469.25,237.7a1.846,1.846,0,0,1-1.183-.355,75.273,75.273,0,0,1-6.168-5.226c-1.5-1.36-2.822-2.6-3.44-3.171a5.6,5.6,0,0,1,.429-.582,6.314,6.314,0,0,1,.607-.652c.065-.054.13-.11.2-.157a6.882,6.882,0,0,1,1.205-.774,6.5,6.5,0,0,0,2.527-2.712c1.19.758,2.325,1.588,3.47,2.408.173.672.342,1.333.51,2,.054.2.106.4.157.6.032.126.065.252.1.385.052.2.1.4.157.6.034.144.072.281.108.423l.153.6c.032.124.065.25.1.385.117.463.153.6.155.6.2.756,2.752,3.042,2.442,4.432A1.793,1.793,0,0,1,469.25,237.7Z" transform="translate(-457.663 -224.075)" fill="#12263f"/><path d="M465.866,233.274l-4.729-4.985,5.129.344a2.532,2.532,0,0,1,.713,3.609A2.981,2.981,0,0,1,465.866,233.274Z" transform="translate(-454.319 -218.813)" fill="#12263f"/><rect width="15.173" height="1.073" transform="translate(0.703 4.446) rotate(40.953)" fill="#529d2e"/><rect width="2.834" height="0.504" transform="matrix(0.997, 0.08, -0.08, 0.997, 7.364, 4.004)" fill="#529d2e"/><rect width="2.834" height="0.504" transform="translate(7.519 4.881) rotate(4.606)" fill="#529d2e"/><rect width="2.834" height="0.504" transform="translate(7.74 5.615) rotate(4.606)" fill="#529d2e"/><rect width="2.834" height="0.504" transform="matrix(0.997, 0.08, -0.08, 0.997, 7.929, 6.422)" fill="#529d2e"/><rect width="2.834" height="0.504" transform="matrix(0.997, 0.08, -0.08, 0.997, 8.154, 7.116)" fill="#529d2e"/></g></g><path d="M473.035,226.944c.45.349,4.495,3.4,8.615,1.893a7.126,7.126,0,0,0,2.411-1.5l-4.338-34.665-10.485,7.893Z" transform="translate(-444.205 -137.661)" fill="#ff9769"/><path d="M471.122,226.08c.45.349,4.5,3.4,8.615,1.893a7.2,7.2,0,0,0,2.413-1.5l-4.34-34.667q-5.242,3.95-10.485,7.895Z" transform="translate(-446.594 -138.744)" fill="#ff9769"/><path d="M467.967,207.163c-1,5.041-2.676,10.546.207,13.325,2.186,2.107,6.177,1.952,8.88.917a10.648,10.648,0,0,0,6-6.3q.03-3.474.059-6.951,1.133-11.515,2.269-23.033a23.863,23.863,0,0,0-1.041-4.92,25.491,25.491,0,0,0-1.992-4.583,5.56,5.56,0,0,0-1.288-.569,5.318,5.318,0,0,0-1.358-.319l-.535-.027a7.477,7.477,0,0,0-5.246,2.309Q470.932,192.081,467.967,207.163Z" transform="translate(-447.54 -160.096)" fill="#ff9769"/><g transform="translate(29.46)"><path d="M471.209,179a3.164,3.164,0,0,0,5.453,1.758q-.121-2.533.009-5.174c.023-.47.045-.942.085-1.428.02-.139.025-.281.031-.423,0-.016.085-.9.085-.9-.922-.281-1.846-.56-2.786-.843a31.961,31.961,0,0,1-1.172,3.4A36.049,36.049,0,0,1,471.209,179Z" transform="translate(-471.203 -163.495)" fill="#ff9769"/><path d="M474.918,172.558a1.324,1.324,0,0,1-1.637.792,1.237,1.237,0,0,1-.463-1.707,1.324,1.324,0,0,1,1.637-.792A1.237,1.237,0,0,1,474.918,172.558Z" transform="translate(-469.385 -165.013)" fill="#ff9769"/><path d="M474.778,172.523a.937.937,0,0,1-1.216.452.875.875,0,0,1-.452-1.178.936.936,0,0,1,1.217-.45A.873.873,0,0,1,474.778,172.523Z" transform="translate(-468.934 -164.389)" fill="#ff9769"/><path d="M472.664,172.943c.726.551,1.466,1.1,2.19,1.671.022-.47.045-.942.085-1.428.02-.139.025-.281.032-.423Q473.817,172.854,472.664,172.943Z" transform="translate(-469.386 -162.524)" fill="#12263f"/><g transform="translate(0.89 1.848)"><path d="M475.286,172.672l-.627-.1-.209-1.07.508-.517a.907.907,0,0,0,.472.546c.135.054.223.031.277.1C475.786,171.723,475.77,171.971,475.286,172.672Z" transform="translate(-468.046 -166.589)" fill="#ff9769"/><path d="M476.594,177.987l.155-.034a2.739,2.739,0,0,0,2.188-3.094l-1.046-5.381a5.4,5.4,0,0,0-3.434-.292,5.667,5.667,0,0,0-2.856,1.7l.9,4.641A3.312,3.312,0,0,0,476.594,177.987Z" transform="translate(-471.602 -169.032)" fill="#ff9769"/></g><path d="M475.821,172.033a.89.89,0,1,1-1.756-.245,7.1,7.1,0,0,1,.895.065A6.613,6.613,0,0,1,475.821,172.033Z" transform="translate(-467.662 -163.742)" fill="#fff"/><path d="M471.473,172.582c.121.859-.081,1.1.187,1.651.04.088.047.083.315.58.2.371.351.661.389.738.618,1.19.564,1.527.814,1.6.492.137,1.549-.933,1.482-1.963-.054-.839-.83-1.273-.654-1.563.27-.445,2.179.349,2.429-.106.155-.283-.47-.805-.3-1.041.209-.3,1.365.295,1.576-.023.121-.18-.182-.486-.063-.625.187-.216.956.436,1.671.139a1.077,1.077,0,0,0,.34-.229,2.167,2.167,0,0,0,.78-1.947c-.047-.187-.128-.632-.457-.78-.528-.241-1.106.551-1.639.306-.385-.178-.308-.686-.632-.76-.443-.1-.8.83-1.234.715s-.317-.877-.78-1.039c-.5-.178-1.106.854-1.558.65-.184-.085-.184-.3-.342-.3-.211-.007-.277.367-.7.693-.247.191-.276.1-.472.261-.461.373-.268.841-.7,1.232-.3.272-.483.133-.645.371C471.073,171.439,471.35,171.723,471.473,172.582Z" transform="translate(-471.206 -168.21)" fill="#12263f"/></g><path d="M479.84,172.946v37.328c.032.031,15.358.031,15.358.031a1.616,1.616,0,0,1-.02-.295,4.308,4.308,0,0,1,2.372-3.989,4.463,4.463,0,0,1,6.46,3.971,1.616,1.616,0,0,1-.02.313h13.188c.029-.031.029-14.292.029-14.292a4.456,4.456,0,0,1-4.405-4.434,4.411,4.411,0,0,1,4.378-4.425c.027-.029.027-14.207.027-14.207-.029-.031-37.336-.031-37.336-.031A.031.031,0,0,0,479.84,172.946Z" transform="translate(-430.966 -162.335)" fill="#529d2e"/><g transform="translate(57.974 22.012)"><path d="M486.956,187.544l3.539-2.453q-1.012-3.113-2.021-6.227a20.655,20.655,0,0,0-1.882,1.977c-.738.888-1.4,1.837-1.444,1.806a8.653,8.653,0,0,1,.852-1.862.757.757,0,0,0,.128-.445,1.046,1.046,0,0,0-.5-.724,4.269,4.269,0,0,0-1.475,1.936,6.143,6.143,0,0,0-.261,2.084,13.609,13.609,0,0,0,.092,1.977Z" transform="translate(-483.887 -176.919)" fill="#ff9769"/><path d="M485.9,181.815q1.265-1.336,2.532-2.669c.178-.558.031-1.03-.182-1.127s-.522.2-.546.229l-1.9,1.941Q485.853,181,485.9,181.815Z" transform="translate(-481.491 -177.999)" fill="#ff9769"/><path d="M486.335,183.286l3.305-2.458c.31-.553.254-1.048.043-1.172s-.6.153-.639.178q-1.234.89-2.467,1.783Z" transform="translate(-480.831 -175.969)" fill="#ff9769"/><path d="M486.285,183.586l3.748-1.711c.418-.477.468-.971.286-1.136s-.623.023-.661.038L486.872,182Z" transform="translate(-480.893 -174.665)" fill="#ff9769"/><path d="M486.616,182.934q1.7-1.636,3.4-3.267c.286-.636.178-1.131-.067-1.21-.2-.063-.515.184-.684.326-1.239,1.032-2.824,2.456-3.265,2.851Z" transform="translate(-481.255 -177.44)" fill="#ff9769"/></g><path d="M474.49,226.977l14.427-1.282q-2.341-16.8-4.677-33.6l-17.231.58c-.092.349-.225.866-.349,1.5-1.183,6.065.594,11.023,1.907,14.81C470.4,214.274,472.257,219.975,474.49,226.977Z" transform="translate(-447.907 -138.384)" fill="#12263f"/><path d="M469.263,215.221q3.086-.877,6.17-1.752-.287-5.586-.578-11.171l-6.789-.479Q468.667,208.521,469.263,215.221Z" transform="translate(-445.666 -126.244)" fill="#12263f"/><path d="M465.868,214.971l22.428,1.257c.2-4.612.364-10.108.425-16.323.117-11.916-.243-17.881-4.236-22.95a18.667,18.667,0,0,0-1.284-1.468q-2.493-.334-4.983-.67a10.411,10.411,0,0,0-2.363,1.151c-4.428,2.914-5.408,8.583-6,12.329C468.607,196.136,467.222,204.893,465.868,214.971Z" transform="translate(-448.412 -159.96)" fill="#fc8116"/><g transform="translate(25.484 19.248)"><path d="M469.873,184.094c1.518,1.684,3.013,3.346,4.509,5.03.479.5.935,1,1.394,1.518.227.247.456.519.686.767.706.791,1.412,1.581,2.141,2.37.872.978,1.765,1.974,2.66,2.973,1.039,1.142,2.078,2.287,3.1,3.429.893.394,6.047-2.2,6.11-4.7q-3.056-3.835-6.089-7.648c-.749-.935-1.5-1.891-2.244-2.827-.29-.376-.582-.729-.872-1.1-1.851-2.307-3.7-4.634-5.529-6.942A13.49,13.49,0,0,0,470,183.721C469.956,183.867,469.913,183.971,469.873,184.094Z" transform="translate(-468.895 -176.525)" fill="#ff9769"/><path d="M472.5,184.606c.227.247.456.519.686.767.706.791,1.412,1.581,2.141,2.37,1.932-1.995,3.845-3.949,5.777-5.943Z" transform="translate(-465.617 -170.489)" fill="#12263f"/><path d="M476,193.957l8.911-5.882q-4-5.471-8-10.94a5.731,5.731,0,0,0-4.155.065,6.341,6.341,0,0,0-3.249,6.755Z" transform="translate(-469.438 -176.77)" fill="#fc8116"/></g><path d="M480.124,176.071c.448.535.879.8,1.07.684.169-.1.126-.477.1-.65a3.1,3.1,0,0,0,2.943,1.189A3.051,3.051,0,0,0,486.1,176.1q.432-1.4.866-2.8a9.8,9.8,0,0,0-2.554-.643,10,10,0,0,0-4.74.643Z" transform="translate(-431.178 -162.725)" fill="#ff9769"/><path d="M480.206,177.024l.547,0,.126-2.361c-.857-1.655-1.253-1.941-1.455-1.882-.3.085-.371.951-.274,1.574a6.042,6.042,0,0,0,.537,1.435C479.918,176.329,480.1,176.763,480.206,177.024Z" transform="translate(-431.878 -162.508)" fill="#ff9769"/><path d="M495.717,180.523q1.228,1.656,2.442,3.308c-1.642,2.017-3.207,3.823-4.639,5.41-.719.8-1.408,1.534-2.046,2.219-.8.857-1.432,1.486-1.527,1.581-6.242,6.3-10.443,5-10.443,5a5.272,5.272,0,0,1-3.24-2.966,5.11,5.11,0,0,1,1.585-5.266,87.743,87.743,0,0,0,10.8-4.979C491.251,183.413,493.6,181.955,495.717,180.523Z" transform="translate(-435.712 -152.835)" fill="#ff9769"/><g transform="translate(40.686 30.279)"><path d="M479.473,186.062a.288.288,0,0,1-.223-.108l-2.993-3.825a.283.283,0,0,1,.049-.4.286.286,0,0,1,.4.05l2.993,3.825a.283.283,0,0,1-.049.4A.292.292,0,0,1,479.473,186.062Z" transform="translate(-476.199 -181.675)" fill="#12263f"/></g><g transform="translate(45.361 33.651)"><path d="M478.557,185.356a.275.275,0,0,1-.25-.155.28.28,0,0,1,.124-.376l3.236-1.619a.28.28,0,0,1,.25.5l-3.234,1.619A.253.253,0,0,1,478.557,185.356Z" transform="translate(-478.278 -183.175)" fill="#12263f"/></g><g transform="translate(27.863 90.257)"><path d="M470.849,218.39a.282.282,0,0,1-.281-.279l-.072-9.48a.28.28,0,0,1,.279-.283.283.283,0,0,1,.283.279l.072,9.48a.28.28,0,0,1-.279.283Z" transform="translate(-470.496 -208.348)" fill="#12263f"/></g><g transform="translate(26.831 88.112)"><path d="M471.35,210.1a.28.28,0,0,1-.252-.16l-1.032-2.143a.28.28,0,1,1,.5-.245L471.6,209.7a.282.282,0,0,1-.128.376A.277.277,0,0,1,471.35,210.1Z" transform="translate(-470.037 -207.394)" fill="#12263f"/></g><path d="M475.578,229.275l5.525-.425L480.772,227l-6.105-.13Q475.122,228.072,475.578,229.275Z" transform="translate(-437.425 -94.963)" fill="#529d2e"/><path d="M460.316,225.6l4.632,3.04q.435-.83.87-1.664-2.378-1.916-4.754-3.834Z" transform="translate(-455.345 -99.616)" fill="#529d2e"/></g><g transform="translate(57.745)"><path d="M507.736,219.084H536.8a2.985,2.985,0,1,0,0-5.97H507.736a2.985,2.985,0,0,0,0,5.97Z" transform="translate(-457.605 -111.819)" fill="#12263f"/><path d="M513.051,250.886a.918.918,0,0,0,.917-.917V215.359a.918.918,0,0,0-1.835,0v34.609A.92.92,0,0,0,513.051,250.886Z" transform="translate(-448.387 -110.161)" fill="#12263f"/><g transform="translate(41.056 56.246)"><path d="M502.171,212.984a4.5,4.5,0,0,0,.007,2.17c.659,2.629,3.922,4.542,8.129,4.835-.11-1.83-.191-3.674-.3-5.5.616-.661,1.536-1.61,2.624-2.784.632-.7,1.248-1.36,1.77-1.943.881-.965,1.572-1.707,1.842-2.028a53.8,53.8,0,0,0,6.422-9.453c-2.348-1.208-4.7-2.395-7.056-3.582-2.363,2.791-4.805,5.86-7.236,9.2-.479.645-.935,1.3-1.394,1.95-.389.522-.731,1.039-1.075,1.554C504.57,209.3,503.318,211.168,502.171,212.984Z" transform="translate(-502.043 -191.065)" fill="#ff9769"/><path d="M503.76,201.206l8.5,2.361c-1.938-.994-3.852-2-5.783-3.011-.551-.31-1.1-.621-1.639-.9C504.446,200.174,504.1,200.691,503.76,201.206Z" transform="translate(-499.899 -184.874)" fill="#12263f"/><path d="M503.542,207.734q5.343,2.4,10.69,4.808,3.552-4.7,7.1-9.4.786-3.44,1.567-6.883a5.14,5.14,0,0,0-2.8-2.966C516.121,191.87,509.508,197.62,503.542,207.734Z" transform="translate(-500.172 -193.08)" fill="#fc8116"/></g><path d="M495.456,250.759l3.989.333c3.569-5.032,6.737-9.242,9.242-12.478,4.342-5.628,5.961-7.4,7.778-10.681a36.176,36.176,0,0,0,2.1-4.545,32.64,32.64,0,0,0,1.331-4.122,39.083,39.083,0,0,0,1.064-5.673c-2.66-1.552-5.363-3.1-8.046-4.652a1.9,1.9,0,0,0-1.131.02,2.677,2.677,0,0,0-.353.155,1.936,1.936,0,0,0-.711.733c-2.57,6.492-5.1,13.119-7.6,19.833Q499.134,240.321,495.456,250.759Z" transform="translate(-469.212 -117.124)" fill="#ff9769"/><path d="M504.331,219.054l-2.307.1q.091-4.682.178-9.363,1.066,3.434,2.129,6.863Z" transform="translate(-461.011 -115.97)" fill="#12263f"/><path d="M507.448,200.483c1.064,5.673,2.1,11.367,3.168,17.063.022,2.86.045,5.718.067,8.554,0,1.286.023,2.55.023,3.834a38.6,38.6,0,0,0,4.2,1.293,39.924,39.924,0,0,0,5.311.924c2.321.288,5.691,1.214,10.216,4.063a7.182,7.182,0,0,0,1.887-2.757c.947-2.568-.085-4.832-1.066-8.309a53.874,53.874,0,0,1-1.664-8.511c-.11-6.957-.22-13.939-.353-20.9a19.962,19.962,0,0,0-2.725-1.309,18.654,18.654,0,0,0-6.074-1.286c-.375-.02-.753-.02-1.129-.02a18.865,18.865,0,0,0-5.143.818,3.553,3.553,0,0,1-.4.133Z" transform="translate(-454.239 -136.778)" fill="#ff9769"/><path d="M511.317,190.776c-.038.6-.07,1.192-.108,1.8-.045.652-.074,1.311-.119,1.965-.063,1.178-.142,2.35-.218,3.521,2.064-.025,4.131-.049,6.182-.081-.719-2.579-1.446-5.143-2.179-7.726Z" transform="translate(-449.963 -140.366)" fill="#ff9769"/><path d="M511.767,190.633l-.679,1.464c-.045.652-.074,1.311-.119,1.965a2.543,2.543,0,0,0,2.962-3.218C513.22,190.772,512.5,190.7,511.767,190.633Z" transform="translate(-449.842 -139.89)" fill="#12263f"/><path d="M511.938,196.325l-.148-.056a2.737,2.737,0,0,1-1.709-3.382l1.826-5.167a5.4,5.4,0,0,1,3.44.214,5.685,5.685,0,0,1,2.575,2.1l-1.576,4.459A3.31,3.31,0,0,1,511.938,196.325Z" transform="translate(-451.123 -143.759)" fill="#ff9769"/><path d="M512.143,187.5c-.751-.074-.945-.971-1.374-.911-.6.085-1.3,2-.616,3.389.708,1.444,2.694,1.875,3.49,2.04,1.435.3,1.9-.025,2.4.432,1.158,1.041-.034,3.782.3,3.886.2.063.52-1.41,1.633-3.629.463-.924.724-1.3.573-1.77-.245-.762-1.187-.564-2.354-1.448-1.518-1.147-1.536-2.694-2.444-2.712C513.1,186.766,512.871,187.573,512.143,187.5Z" transform="translate(-451.212 -144.941)" fill="#12263f"/><path d="M510.308,190.33c-.085.162.326.654.852.832.791.265,1.713-.229,1.689-.436-.007-.045-.056-.085-1.354-.3C510.49,190.259,510.346,190.254,510.308,190.33Z" transform="translate(-450.681 -140.327)" fill="#fff"/><path d="M502.246,210.633c.711,3.279,1.441,6.582,2.15,9.86,2.35-.133,4.677-.288,7.027-.443,1-.065,2.015-.11,3.013-.178q9.839-.6,19.68-1.174c-.333-1.907-.688-3.789-1.021-5.673-.065-.333-.133-.666-.178-1a13.891,13.891,0,0,1-.265-1.419,18.833,18.833,0,0,1-.178-2.372,33.368,33.368,0,0,1-6.714,1.064c-.931.045-1.552.022-2.3.045-3.213.067-6.427.133-9.617.2-3.148.043-6.271.11-9.4.178-.375.02-.753.02-1.131.02a2.675,2.675,0,0,0-.353.155A1.936,1.936,0,0,0,502.246,210.633Z" transform="translate(-460.734 -117.908)" fill="#ff9769"/><path d="M503.166,221.5c1.857,2.8,3.746,5.6,5.6,8.394,2.138-.983,4.248-1.977,6.377-2.979.9-.427,1.837-.841,2.741-1.266q8.942-4.155,17.888-8.286c-1.005-1.653-2.024-3.276-3.022-4.909-.182-.286-.366-.571-.528-.863a13.7,13.7,0,0,1-.767-1.223,18.916,18.916,0,0,1-1.032-2.143,33.332,33.332,0,0,1-5.86,3.445c-.85.382-1.437.587-2.13.884l-8.88,3.7c-2.914,1.192-5.8,2.395-8.682,3.6-.342.157-.693.295-1.043.434a2.415,2.415,0,0,0-.274.272A1.94,1.94,0,0,0,503.166,221.5Z" transform="translate(-459.585 -117.926)" fill="#ff9769"/><g transform="translate(0 102.619)"><path d="M527.68,221.818a39.185,39.185,0,0,1-3.389,4.675,32.656,32.656,0,0,1-2.97,3.159,33.126,33.126,0,0,1-3.845,3.2c-3.033,2.2-5.257,3.117-11.6,6.337-3.638,1.851-8.293,4.3-13.676,7.337-1.165-.666-2.307-1.329-3.47-2.015q7.792-7.859,15.941-15.774,6.827-6.641,13.611-13.053.874-.809,1.747-1.621a1.76,1.76,0,0,1,.956-.353,2.3,2.3,0,0,1,.373,0,2,2,0,0,1,1.039.456c.625.915,1.268,1.851,1.914,2.766C525.436,218.576,526.558,220.2,527.68,221.818Z" transform="translate(-477.606 -213.703)" fill="#ff9769"/><g transform="translate(0 30.631)"><path d="M496.5,235.4c-.119.254-.254.468-.349.63-.778-.333-2.447-1.052-4.293-1.873-1.7-.753-3.587-1.608-5.06-2.339a22.428,22.428,0,0,1-2.206-1.2c-.461-.3-.832-.618-.8-.949a.3.3,0,0,1,.121-.218c.308-.394,1.327-.535,1.642-.576.753-.128,1.52-.252,2.289-.373.472-.088.962-.169,1.45-.25.2-.025.412-.065.614-.09.139-.038.265-.047.4-.072.189-.032.4-.072.607-.112.146-.016.279-.04.425-.058.209-.038.411-.065.621-.1a3.577,3.577,0,0,1,.391-.058c.209-.04.418-.079.621-.106.677-.112,1.354-.225,2.01-.331,1.241.708,2.449,1.417,3.668,2.132a6.669,6.669,0,0,0-1.5,3.479,6.449,6.449,0,0,1-.229,1.4,1.248,1.248,0,0,1-.065.247A5.679,5.679,0,0,1,496.5,235.4Z" transform="translate(-483.78 -227.325)" fill="#12263f"/><path d="M483.787,228.5c-.032.319.348.641.8.94,2.087,1.342,9.622,4.583,11.551,5.413a5.352,5.352,0,0,0,.362-.625l-12.6-5.954A.384.384,0,0,0,483.787,228.5Z" transform="translate(-483.785 -226.145)" fill="#12263f"/><path d="M487.55,230.043l-.175.722c1.851.823,3.515,1.536,4.288,1.871a5.074,5.074,0,0,0,.36-.627,6.3,6.3,0,0,0,.351-.819c.025-.081.049-.162.067-.243-.151-.034-.3-.072-.457-.108A43.091,43.091,0,0,0,487.55,230.043Z" transform="translate(-479.303 -223.931)" fill="#12263f"/></g></g><path d="M521.508,217.948l-18.7,2.165q-.391-5.717-.78-11.43l16.195-.088Q519.865,213.271,521.508,217.948Z" transform="translate(-461.011 -117.461)" fill="#529d2e"/><path d="M511.271,220.717a39.192,39.192,0,0,1-3.389,4.675c-2.057-3.553-4.009-7.191-6.006-10.807,2.017.416,4.032.832,6.029,1.248C509.027,217.475,510.149,219.1,511.271,220.717Z" transform="translate(-461.196 -109.982)" fill="#12263f"/><path d="M534.787,223.2q-12.079,5.528-24.159,11.059l-9.354-9.631,21.173-13.638,15.486-5.565a11.2,11.2,0,0,1,2.829,11.929A10.98,10.98,0,0,1,534.787,223.2Z" transform="translate(-461.949 -121.416)" fill="#529d2e"/><g transform="translate(41.232 91.247)"><path d="M502.4,219.4a.282.282,0,0,1-.155-.517l15.673-10.2a.284.284,0,0,1,.389.081.28.28,0,0,1-.081.389l-15.673,10.2A.277.277,0,0,1,502.4,219.4Z" transform="translate(-502.122 -208.646)" fill="#12263f"/></g><g transform="translate(27.992 122.391)"><path d="M496.513,228.493a.278.278,0,0,1-.247-.148.281.281,0,0,1,.117-.38l10.292-5.437a.284.284,0,0,1,.38.117.281.281,0,0,1-.117.378l-10.292,5.437A.284.284,0,0,1,496.513,228.493Z" transform="translate(-496.234 -222.496)" fill="#12263f"/></g><g transform="translate(34.572 104.59)"><path d="M499.441,220.308a.291.291,0,0,1-.207-.09.281.281,0,0,1,.016-.4l5.541-5.165a.279.279,0,0,1,.4.016.283.283,0,0,1-.016.4l-5.541,5.165A.284.284,0,0,1,499.441,220.308Z" transform="translate(-499.16 -214.579)" fill="#12263f"/></g><path d="M533.413,225.281c-1.806,1.142-15.68,9.716-23.289,4.333a9.013,9.013,0,0,1-1.635-1.5q-.681-14.541-1.363-29.079c1.082-.9,2.307-1.83,3.683-2.757a45.953,45.953,0,0,1,4.821-2.838l5.644-.479a10.31,10.31,0,0,1,4.711,1.331,10.915,10.915,0,0,1,4.888,6.366Z" transform="translate(-454.641 -136.981)" fill="#fc8116"/><path d="M533.413,225.419c-1.806,1.142-15.68,9.716-23.289,4.333a9.013,9.013,0,0,1-1.635-1.5q-.681-14.541-1.363-29.079c1.082-.9,2.307-1.83,3.683-2.757a45.953,45.953,0,0,1,4.821-2.838l5.644-.479c1.621-.29,5.808-.8,9.372,1.68a10.265,10.265,0,0,1,1.612,1.392q-.691,2.314-1.385,4.625Z" transform="translate(-454.641 -137.119)" fill="#fc8116"/><path d="M514.876,183.433c.594.326.274,1.165.927,3.521.308,1.111.616,2.154.9,3.119.355,1.212.661,2.125.706,2.262,2.982,9.1,7.749,10.249,7.749,10.249,4.092.142,5.3-.951,5.748-1.7,1.8-3.056-3.656-9.737-8.124-15.208-1.815-2.224-3.411-3.949-4.461-5.041C517.107,180.6,514.521,183.24,514.876,183.433Z" transform="translate(-445.005 -152.379)" fill="#ff9769"/><g transform="translate(69.876 45.425)"><path d="M529.146,190.824a4.5,4.5,0,0,0-.893-1.979c-1.677-2.127-7.717,2.188-6.87,3.814-.292.855-.744,2.1-1.259,3.614-.29.9-.58,1.752-.818,2.5-.409,1.237-.735,2.2-.852,2.6a53.677,53.677,0,0,0-1.995,11.252c2.635.142,5.271.261,7.9.382,1.016-3.512,1.99-7.313,2.842-11.356.171-.783.324-1.565.474-2.348.142-.634.243-1.246.344-1.857C528.462,195.167,528.842,192.949,529.146,190.824Z" transform="translate(-512.863 -188.268)" fill="#ff9769"/><path d="M531.567,200q-5.13-3.528-10.265-7.059l-6.442,6.179q2.9,7.842,5.813,15.684,1.94-2.6,3.879-5.226Q528.1,204.774,531.567,200Z" transform="translate(-514.86 -182.436)" fill="#fc8116"/></g><g transform="translate(53.96 80.238)"><path d="M508.808,205.95a.28.28,0,0,1-.256-.164l-.744-1.639a.283.283,0,0,1,.139-.373.288.288,0,0,1,.373.139l.744,1.641a.285.285,0,0,1-.139.373A.3.3,0,0,1,508.808,205.95Z" transform="translate(-507.782 -203.75)" fill="#12263f"/></g><g transform="translate(56.888 45.741)"><path d="M512,192.073c-.09-.016-2.728-.906-2.728-.906a.274.274,0,0,1-.175-.355l.749-2.213a.28.28,0,0,1,.355-.175l2.638.891a.283.283,0,0,1,.162.139.287.287,0,0,1,.013.216l-.749,2.213A.284.284,0,0,1,512,192.073Zm-2.282-1.349,2.1.713.569-1.682-2.1-.711Z" transform="translate(-509.084 -188.408)" fill="#12263f"/></g><g transform="translate(60.533 46.968)"><path d="M513.622,192.624c-.09-.016-2.725-.906-2.725-.906a.279.279,0,0,1-.175-.358l.746-2.213a.276.276,0,0,1,.139-.162.258.258,0,0,1,.216-.013l2.638.89a.3.3,0,0,1,.162.142.278.278,0,0,1,.014.216l-.749,2.213a.28.28,0,0,1-.142.162A.271.271,0,0,1,513.622,192.624Zm-2.28-1.349,2.1.713.569-1.682-2.107-.713Z" transform="translate(-510.705 -188.954)" fill="#12263f"/></g><g transform="translate(59.923 48.01)"><path d="M511.626,190.262c-.083-.013-1-.3-1-.3a.28.28,0,1,1,.166-.535l.913.283a.281.281,0,0,1-.083.549Z" transform="translate(-510.433 -189.417)" fill="#12263f"/></g><g transform="translate(26.046 61.863)"><rect width="42.049" height="0.809" transform="translate(4.556 22.214)" fill="#12263f"/><path d="M530.5,218.375H499.924l-4.486-20.04a2.138,2.138,0,0,1,2.141-2.757h25.059a3.648,3.648,0,0,1,3.375,2.757Z" transform="translate(-495.368 -195.578)" fill="#12263f"/><path d="M507.9,202.059h-6.5a.589.589,0,0,1-.544-.443l-.153-.679a.346.346,0,0,1,.346-.443h6.5a.589.589,0,0,1,.544.443l.151.679A.344.344,0,0,1,507.9,202.059Z" transform="translate(-488.718 -189.44)" fill="#a2f476"/></g><g transform="translate(64.908 126.535)"><path d="M531.2,238.726a.278.278,0,0,1-.272-.214c-.479-1.974-2.552-8.671-9.2-11.938a16.835,16.835,0,0,0-8.774-1.617.288.288,0,0,1-.3-.259.285.285,0,0,1,.259-.3,17.5,17.5,0,0,1,9.067,1.673c6.872,3.377,9.01,10.279,9.5,12.311a.275.275,0,0,1-.207.337A.21.21,0,0,1,531.2,238.726Z" transform="translate(-512.651 -224.339)" fill="#12263f"/></g><path d="M526.039,231.448a3.724,3.724,0,1,1-3.724-3.724A3.723,3.723,0,0,1,526.039,231.448Z" transform="translate(-440.325 -93.576)" fill="#12263f"/><path d="M517.943,231.448a3.724,3.724,0,1,1-3.724-3.724A3.723,3.723,0,0,1,517.943,231.448Z" transform="translate(-450.434 -93.576)" fill="#12263f"/><g transform="translate(47.349 126.535)"><path d="M505.124,238.726c-.218-.043-.31-.2-.274-.346.49-2.033,2.629-8.934,9.5-12.311a17.5,17.5,0,0,1,9.064-1.673.287.287,0,0,1,.261.3.3.3,0,0,1-.3.259,16.829,16.829,0,0,0-8.776,1.617c-6.652,3.267-8.723,9.964-9.2,11.938A.281.281,0,0,1,505.124,238.726Z" transform="translate(-504.842 -224.339)" fill="#12263f"/></g><path d="M503.965,231.448a3.724,3.724,0,1,0,3.724-3.724A3.724,3.724,0,0,0,503.965,231.448Z" transform="translate(-458.588 -93.576)" fill="#12263f"/><g transform="translate(29.153)"><g transform="translate(4.416)"><path d="M499.345,168.1l-.009,37.328c.029.031,15.358.034,15.358.034a1.591,1.591,0,0,1-.02-.292,4.308,4.308,0,0,1,2.372-3.989,4.464,4.464,0,0,1,6.46,3.973,1.6,1.6,0,0,1-.02.31l13.188,0c.029-.031.038-37.359.038-37.359-.029-.031-37.339-.038-37.339-.038A.03.03,0,0,0,499.345,168.1Z" transform="translate(-497.937 -168.067)" fill="#a2f476"/><path d="M498.716,174.4l0,8.833a4.416,4.416,0,1,0,0-8.833Z" transform="translate(-498.714 -160.164)" fill="#a2f476"/><path d="M498.871,177.517c0,1.147,1.587,2.078,3.548,2.078s3.553-.929,3.553-2.078-1.59-2.078-3.551-2.078S498.871,176.368,498.871,177.517Z" transform="translate(-498.518 -158.862)" fill="#a2f476"/></g><path d="M496.75,178.813a4.416,4.416,0,1,0,4.419-4.414A4.419,4.419,0,0,0,496.75,178.813Z" transform="translate(-496.75 -160.161)" fill="#a2f476"/></g><g transform="translate(27.523 84.66)"><path d="M.59,0H74.245a.59.59,0,0,1,.59.59V2.855a.589.589,0,0,1-.589.589H.589A.589.589,0,0,1,0,2.855V.59A.59.59,0,0,1,.59,0Z" transform="translate(74.835 3.444) rotate(-180)" fill="#a2f476"/><g transform="translate(2.952 2.945)"><path d="M497.619,260.964a.28.28,0,0,1-.281-.281V207.307a.281.281,0,1,1,.562,0v53.376A.281.281,0,0,1,497.619,260.964Z" transform="translate(-497.338 -207.026)" fill="#12263f"/><g transform="translate(68.368)"><path d="M528.023,260.964a.281.281,0,0,1-.281-.281V207.307a.281.281,0,1,1,.562,0v53.376A.281.281,0,0,1,528.023,260.964Z" transform="translate(-527.742 -207.026)" fill="#12263f"/></g></g></g><path d="M519.371,181.493c0,.567-1.14,1.028-2.546,1.028s-2.548-.461-2.548-1.028,1.14-1.025,2.548-1.025S519.371,180.927,519.371,181.493Z" transform="translate(-445.71 -152.583)" fill="#ff9769"/></g></g></g></g></svg>