<svg xmlns="http://www.w3.org/2000/svg" width="840" height="466.325" viewBox="0 0 840 466.325">
  <g id="Grupo_881213" data-name="Grupo 881213" transform="translate(-370 -8109.758)">
    <g id="Grupo_879680" data-name="Grupo 879680" transform="translate(261.367 8018.598)">
      <path id="Trazado_603969" data-name="Trazado 603969" d="M635.4,310.288a9.388,9.388,0,0,1-5.109-1.5L588.21,281.492a100.2,100.2,0,0,1-96.267,91.122l-31.752,48.957a.86.86,0,0,0-.01.913l30.907,50.44c106.651-1.411,193.059-86.668,196.3-192.865l-47.083,28.85A9.37,9.37,0,0,1,635.4,310.288Z" transform="translate(50.656 60.912)" fill="#b0c710"/>
      <path id="Trazado_603970" data-name="Trazado 603970" d="M562.858,278.73a84.181,84.181,0,0,1-80.211,78.41v8.238a92.414,92.414,0,0,0,88.469-86.648Z" transform="translate(60.191 60.351)" fill="#b0c710"/>
      <path id="Trazado_603971" data-name="Trazado 603971" d="M562.851,299.288h8.238A92.411,92.411,0,0,0,482.994,209.8v8.238A84.181,84.181,0,0,1,562.851,299.288Z" transform="translate(60.337 31.261)" fill="#529d2e"/>
      <path id="Trazado_603972" data-name="Trazado 603972" d="M578.167,332.469l46.323,30.044a.856.856,0,0,0,.914.008l51.2-31.37.414.676C675.481,225.507,590.615,139.37,484.8,135.8l28.171,45.861a9.433,9.433,0,0,1-.124,10.024l-27.1,41.787A100.2,100.2,0,0,1,578.167,332.469Z" transform="translate(61.099 0.026)" fill="#529d2e"/>
      <path id="Trazado_603973" data-name="Trazado 603973" d="M503.144,218.043V209.8a92.41,92.41,0,0,0-88.112,90.122h8.238A84.18,84.18,0,0,1,503.144,218.043Z" transform="translate(31.654 31.261)" fill="#fc8116"/>
      <path id="Trazado_603974" data-name="Trazado 603974" d="M536.844,233.223l29.934-46.157a.863.863,0,0,0,.011-.913L535.82,135.736c-106.517,1.7-192.708,87.035-195.761,193.217l45.184-28.478a9.453,9.453,0,0,1,10.064.1l43.637,28.3A100.2,100.2,0,0,1,536.844,233.223Z" transform="translate(0.011 0)" fill="#fc8116"/>
      <path id="Trazado_603975" data-name="Trazado 603975" d="M423.422,279.18h-8.259A92.427,92.427,0,0,0,502.6,365.164V356.9A84.183,84.183,0,0,1,423.422,279.18Z" transform="translate(31.709 60.541)" fill="#fcd03e"/>
      <path id="Trazado_603976" data-name="Trazado 603976" d="M439.012,288.074l-48.337-31.349a.859.859,0,0,0-.914-.011l-49.729,31.345c2.227,105.508,86.53,190.811,191.634,194.656l-28.1-45.861a9.431,9.431,0,0,1,.127-10.018l28.833-44.46A100.209,100.209,0,0,1,439.012,288.074Z" transform="translate(0 51.005)" fill="#fcd03e"/>
    </g>
    <g id="Grupo_879688" data-name="Grupo 879688" transform="translate(0 441)">
      <g id="Grupo_879681" data-name="Grupo 879681" transform="translate(-245 5184.045)">
        <g id="Rectángulo_298818" data-name="Rectángulo 298818" transform="translate(1140 2517.57)" fill="#fff2cb" stroke="#f6d05c" stroke-width="2">
          <rect width="315" height="148.468" rx="8" stroke="none"/>
          <rect x="1" y="1" width="313" height="146.468" rx="7" fill="none"/>
        </g>
      </g>
      <text id="Formulación:_busca_identificar_por_medio_de_herramientas_como_big_data_cómo_está_la_entidad_en_la_actualidad_y_qué_requiere_para_afrontar_los_retos_futuros." data-name="Formulación: busca identificar por medio de herramientas como big data cómo está la entidad en la actualidad y qué requiere para afrontar los retos futuros." transform="translate(915 7719)" fill="#12263f" font-size="16" font-family="Roboto-Bold, Roboto" font-weight="700"><tspan x="0" y="17">Formulación: </tspan><tspan y="17" font-family="Roboto-Regular, Roboto" font-weight="400">busca identificar por </tspan><tspan x="0" y="41" font-family="Roboto-Regular, Roboto" font-weight="400">medio de herramientas como </tspan><tspan y="41" font-family="Roboto-Italic, Roboto" font-weight="400" font-style="italic">big data</tspan><tspan y="41" font-family="Roboto-Regular, Roboto" font-weight="400"> </tspan><tspan x="0" y="65" font-family="Roboto-Regular, Roboto" font-weight="400">cómo está la entidad en la actualidad y </tspan><tspan x="0" y="89" font-family="Roboto-Regular, Roboto" font-weight="400">qué requiere para afrontar los retos </tspan><tspan x="0" y="113" font-family="Roboto-Regular, Roboto" font-weight="400">futuros.</tspan></text>
    </g>
    <g id="Grupo_879687" data-name="Grupo 879687" transform="translate(0 441)">
      <g id="Grupo_879682" data-name="Grupo 879682" transform="translate(-297.5 5469.045)">
        <g id="Rectángulo_298818-2" data-name="Rectángulo 298818" transform="translate(1140 2517.57)" fill="#fff2cb" stroke="#f6d05c" stroke-width="2">
          <rect width="315" height="148.468" rx="8" stroke="none"/>
          <rect x="1" y="1" width="313" height="146.468" rx="7" fill="none"/>
        </g>
      </g>
      <text id="Previsión:_a_través_de_los_datos_obtenidos_busca_analizar_cómo_será_un_futuro_cercano_para_hacer_proyecciones." data-name="Previsión: a través de los datos obtenidos busca analizar cómo será un futuro cercano para hacer proyecciones." transform="translate(870 8014)" fill="#12263f" font-size="16" font-family="Roboto-Bold, Roboto" font-weight="700"><tspan x="0" y="17">Previsión: </tspan><tspan y="17" font-family="Roboto-Regular, Roboto" font-weight="400">a través de los datos </tspan><tspan x="0" y="41" font-family="Roboto-Regular, Roboto" font-weight="400">obtenidos busca analizar cómo </tspan><tspan x="0" y="65" font-family="Roboto-Regular, Roboto" font-weight="400">será un futuro cercano para hacer </tspan><tspan x="0" y="89" font-family="Roboto-Regular, Roboto" font-weight="400">proyecciones.</tspan></text>
    </g>
    <g id="Grupo_879686" data-name="Grupo 879686" transform="translate(0 441)">
      <g id="Grupo_879683" data-name="Grupo 879683" transform="translate(-770 5440.962)">
        <g id="Rectángulo_298818-3" data-name="Rectángulo 298818" transform="translate(1140 2517.57)" fill="#fff2cb" stroke="#f6d05c" stroke-width="2">
          <rect width="315" height="148.468" rx="8" stroke="none"/>
          <rect x="1" y="1" width="313" height="146.468" rx="7" fill="none"/>
        </g>
      </g>
      <text id="Valoración:_está_enfocada_en_encontrar_el_porqué_de_los_diferentes_acontecimientos_de_la_entidad_ya_sean_en_sus_procesos_mercado_y_demás_profundizando_en_cada_detalle." data-name="Valoración: está enfocada en encontrar el porqué de los diferentes acontecimientos de la entidad, ya sean en sus procesos, mercado y demás, profundizando en cada detalle." transform="translate(385 7974)" fill="#12263f" font-size="16" font-family="Roboto-Bold, Roboto" font-weight="700"><tspan x="0" y="17">Valoración: </tspan><tspan y="17" font-family="Roboto-Regular, Roboto" font-weight="400">está enfocada en encontrar </tspan><tspan x="0" y="41" font-family="Roboto-Regular, Roboto" font-weight="400">el porqué de los diferentes </tspan><tspan x="0" y="65" font-family="Roboto-Regular, Roboto" font-weight="400">acontecimientos de la entidad, ya sean </tspan><tspan x="0" y="89" font-family="Roboto-Regular, Roboto" font-weight="400">en sus procesos, mercado y demás, </tspan><tspan x="0" y="113" font-family="Roboto-Regular, Roboto" font-weight="400">profundizando en cada detalle.</tspan></text>
    </g>
    <g id="Grupo_879685" data-name="Grupo 879685" transform="translate(0 441)">
      <g id="Grupo_879684" data-name="Grupo 879684" transform="translate(-750 5151.188)">
        <g id="Rectángulo_298818-4" data-name="Rectángulo 298818" transform="translate(1140 2517.57)" fill="#fff2cb" stroke="#f6d05c" stroke-width="2">
          <rect width="340" height="167.242" rx="8" stroke="none"/>
          <rect x="1" y="1" width="338" height="165.242" rx="7" fill="none"/>
        </g>
      </g>
      <text id="Valoración:_está_enfocada_en_analizar_los_datos_desde_el_qué_cómo_cuándo_dónde_y_cuanto_desde_la_perspectiva_de_hechos_presentados_en_la_entidad_dando_la_información_completa_para_su_comprensión." data-name="Valoración: está enfocada en analizar los datos desde el qué, cómo, cuándo, dónde y cuanto, desde la perspectiva de hechos presentados en la entidad, dando la información completa para su comprensión." transform="translate(411 7682)" fill="#12263f" font-size="16" font-family="Roboto-Bold, Roboto" font-weight="700"><tspan x="0" y="17">Valoración: </tspan><tspan y="17" font-family="Roboto-Regular, Roboto" font-weight="400">está enfocada en analizar los </tspan><tspan x="0" y="41" font-family="Roboto-Regular, Roboto" font-weight="400">datos desde el qué, cómo, cuándo, dónde </tspan><tspan x="0" y="65" font-family="Roboto-Regular, Roboto" font-weight="400">y cuanto, desde la perspectiva de hechos </tspan><tspan x="0" y="89" font-family="Roboto-Regular, Roboto" font-weight="400">presentados en la entidad, dando la </tspan><tspan x="0" y="113" font-family="Roboto-Regular, Roboto" font-weight="400">información completa para su </tspan><tspan x="0" y="137" font-family="Roboto-Regular, Roboto" font-weight="400">comprensión.</tspan></text>
    </g>
    <path id="Trazado_605316" data-name="Trazado 605316" d="M10.217,6.2,13.5,15.484,16.774,6.2h3.463V19H17.591V15.5l.264-6.038L14.4,19H12.59L9.145,9.473,9.409,15.5V19H6.772V6.2Zm11.76,7.954a5.64,5.64,0,0,1,.545-2.522,3.989,3.989,0,0,1,1.569-1.714,4.577,4.577,0,0,1,2.377-.606,4.33,4.33,0,0,1,3.142,1.178,4.727,4.727,0,0,1,1.358,3.2l.018.65a4.97,4.97,0,0,1-1.222,3.511,4.247,4.247,0,0,1-3.278,1.323A4.268,4.268,0,0,1,23.2,17.857a5.058,5.058,0,0,1-1.226-3.586Zm2.54.18a3.555,3.555,0,0,0,.51,2.073,1.831,1.831,0,0,0,2.9.009,3.89,3.89,0,0,0,.519-2.267,3.519,3.519,0,0,0-.519-2.06,1.686,1.686,0,0,0-1.459-.731,1.658,1.658,0,0,0-1.441.726A3.955,3.955,0,0,0,24.517,14.338Zm7.638-.163a5.731,5.731,0,0,1,1-3.542,3.237,3.237,0,0,1,2.729-1.318,2.913,2.913,0,0,1,2.294,1.037V5.5h2.549V19H38.43l-.123-1.011a2.989,2.989,0,0,1-2.443,1.187,3.228,3.228,0,0,1-2.694-1.323A5.916,5.916,0,0,1,32.155,14.175Zm2.54.189a3.754,3.754,0,0,0,.466,2.051,1.517,1.517,0,0,0,1.354.713,1.7,1.7,0,0,0,1.661-.995V12.375a1.675,1.675,0,0,0-1.644-.995Q34.695,11.38,34.695,14.364ZM47.07,19.176a4.668,4.668,0,0,1-3.406-1.283,4.561,4.561,0,0,1-1.314-3.419v-.246a5.745,5.745,0,0,1,.554-2.562,4.064,4.064,0,0,1,1.569-1.74,4.4,4.4,0,0,1,2.316-.611,3.947,3.947,0,0,1,3.072,1.23,5,5,0,0,1,1.121,3.489v1.037H44.925a2.36,2.36,0,0,0,.743,1.494,2.245,2.245,0,0,0,1.569.563,2.742,2.742,0,0,0,2.294-1.063l1.248,1.4a3.813,3.813,0,0,1-1.547,1.261A5.075,5.075,0,0,1,47.07,19.176Zm-.29-7.813a1.587,1.587,0,0,0-1.226.512,2.651,2.651,0,0,0-.6,1.466h3.533v-.2a1.891,1.891,0,0,0-.457-1.311A1.638,1.638,0,0,0,46.78,11.362ZM55.1,19H52.554V5.5H55.1Zm1.7-4.843a5.64,5.64,0,0,1,.545-2.522,3.989,3.989,0,0,1,1.569-1.714,4.577,4.577,0,0,1,2.377-.606,4.33,4.33,0,0,1,3.142,1.178,4.727,4.727,0,0,1,1.358,3.2l.018.65a4.97,4.97,0,0,1-1.222,3.511,4.735,4.735,0,0,1-6.561,0A5.058,5.058,0,0,1,56.8,14.271Zm2.54.18a3.555,3.555,0,0,0,.51,2.073,1.831,1.831,0,0,0,2.9.009,3.89,3.89,0,0,0,.519-2.267,3.519,3.519,0,0,0-.519-2.06,1.686,1.686,0,0,0-1.459-.731,1.658,1.658,0,0,0-1.441.726A3.955,3.955,0,0,0,59.339,14.338Zm13.184,2.035a.818.818,0,0,0-.461-.734,5.241,5.241,0,0,0-1.481-.479q-3.393-.712-3.393-2.883a2.613,2.613,0,0,1,1.05-2.114,4.237,4.237,0,0,1,2.747-.848,4.56,4.56,0,0,1,2.9.853,2.687,2.687,0,0,1,1.085,2.215h-2.54a1.229,1.229,0,0,0-.352-.9,1.488,1.488,0,0,0-1.1-.356,1.52,1.52,0,0,0-.993.29.916.916,0,0,0-.352.738.783.783,0,0,0,.4.681,4.114,4.114,0,0,0,1.349.448,11.019,11.019,0,0,1,1.6.426,2.628,2.628,0,0,1,2.013,2.558,2.481,2.481,0,0,1-1.116,2.1,4.815,4.815,0,0,1-2.883.8,5.029,5.029,0,0,1-2.123-.426,3.561,3.561,0,0,1-1.455-1.169,2.716,2.716,0,0,1-.527-1.6H69.3a1.326,1.326,0,0,0,.5,1.037,1.987,1.987,0,0,0,1.248.36,1.839,1.839,0,0,0,1.1-.277A.861.861,0,0,0,72.523,16.372ZM89.67,14.333a5.7,5.7,0,0,1-1,3.52,3.2,3.2,0,0,1-2.694,1.323,2.963,2.963,0,0,1-2.329-1v4.482H81.11V9.49h2.355l.088.932a2.985,2.985,0,0,1,2.408-1.107,3.22,3.22,0,0,1,2.733,1.3A5.858,5.858,0,0,1,89.67,14.2Zm-2.54-.185a3.743,3.743,0,0,0-.47-2.048,1.532,1.532,0,0,0-1.367-.721,1.663,1.663,0,0,0-1.644.914v3.894a1.692,1.692,0,0,0,1.661.94Q87.13,17.128,87.13,14.148ZM96.754,19a2.821,2.821,0,0,1-.255-.853,3.073,3.073,0,0,1-2.4,1.028,3.376,3.376,0,0,1-2.316-.809,2.6,2.6,0,0,1-.918-2.039,2.687,2.687,0,0,1,1.121-2.32,5.529,5.529,0,0,1,3.239-.817h1.169v-.545a1.567,1.567,0,0,0-.338-1.055,1.331,1.331,0,0,0-1.068-.4,1.513,1.513,0,0,0-1.006.308,1.045,1.045,0,0,0-.365.844h-2.54a2.551,2.551,0,0,1,.51-1.529,3.37,3.37,0,0,1,1.441-1.1,5.253,5.253,0,0,1,2.092-.4,4.15,4.15,0,0,1,2.791.883,3.09,3.09,0,0,1,1.033,2.483V16.8a4.546,4.546,0,0,0,.378,2.048V19Zm-2.1-1.767a2.188,2.188,0,0,0,1.037-.25,1.645,1.645,0,0,0,.7-.672V14.676h-.949q-1.907,0-2.03,1.318l-.009.149a1.017,1.017,0,0,0,.334.782A1.3,1.3,0,0,0,94.654,17.233Zm11.584-5.361a6.9,6.9,0,0,0-.914-.07,1.86,1.86,0,0,0-1.89.976V19h-2.54V9.49h2.4l.07,1.134a2.354,2.354,0,0,1,2.118-1.31,2.662,2.662,0,0,1,.791.114ZM112.707,19a2.821,2.821,0,0,1-.255-.853,3.073,3.073,0,0,1-2.4,1.028,3.376,3.376,0,0,1-2.316-.809,2.6,2.6,0,0,1-.918-2.039,2.687,2.687,0,0,1,1.121-2.32,5.529,5.529,0,0,1,3.239-.817h1.169v-.545a1.567,1.567,0,0,0-.338-1.055,1.331,1.331,0,0,0-1.068-.4,1.513,1.513,0,0,0-1.006.308,1.045,1.045,0,0,0-.365.844h-2.54a2.551,2.551,0,0,1,.51-1.529,3.37,3.37,0,0,1,1.441-1.1,5.253,5.253,0,0,1,2.092-.4,4.15,4.15,0,0,1,2.791.883,3.09,3.09,0,0,1,1.033,2.483V16.8a4.546,4.546,0,0,0,.378,2.048V19Zm-2.1-1.767a2.188,2.188,0,0,0,1.037-.25,1.645,1.645,0,0,0,.7-.672V14.676H111.4q-1.907,0-2.03,1.318l-.009.149a1.017,1.017,0,0,0,.334.782A1.3,1.3,0,0,0,110.606,17.233ZM13.329,41.176a4.668,4.668,0,0,1-3.406-1.283,4.561,4.561,0,0,1-1.314-3.419v-.246a5.745,5.745,0,0,1,.554-2.562,4.064,4.064,0,0,1,1.569-1.74,4.4,4.4,0,0,1,2.316-.611,3.947,3.947,0,0,1,3.072,1.23,5,5,0,0,1,1.121,3.489v1.037H11.184a2.36,2.36,0,0,0,.743,1.494,2.245,2.245,0,0,0,1.569.563,2.742,2.742,0,0,0,2.294-1.063l1.248,1.4a3.813,3.813,0,0,1-1.547,1.261A5.075,5.075,0,0,1,13.329,41.176Zm-.29-7.813a1.587,1.587,0,0,0-1.226.512,2.651,2.651,0,0,0-.6,1.466h3.533v-.2a1.891,1.891,0,0,0-.457-1.311A1.638,1.638,0,0,0,13.039,33.362ZM21.362,41H18.813V27.5h2.549Zm12.085,0a2.821,2.821,0,0,1-.255-.853,3.073,3.073,0,0,1-2.4,1.028,3.376,3.376,0,0,1-2.316-.809,2.6,2.6,0,0,1-.918-2.039,2.687,2.687,0,0,1,1.121-2.32,5.529,5.529,0,0,1,3.239-.817h1.169v-.545a1.567,1.567,0,0,0-.338-1.055,1.331,1.331,0,0,0-1.068-.4,1.513,1.513,0,0,0-1.006.308,1.045,1.045,0,0,0-.365.844h-2.54a2.551,2.551,0,0,1,.51-1.529,3.37,3.37,0,0,1,1.441-1.1,5.253,5.253,0,0,1,2.092-.4A4.15,4.15,0,0,1,34.6,32.2a3.09,3.09,0,0,1,1.033,2.483V38.8a4.546,4.546,0,0,0,.378,2.048V41Zm-2.1-1.767a2.188,2.188,0,0,0,1.037-.25,1.645,1.645,0,0,0,.7-.672V36.676h-.949q-1.907,0-2.03,1.318l-.009.149a1.017,1.017,0,0,0,.334.782A1.3,1.3,0,0,0,31.346,39.233Zm8.578-7.743.079,1.1a3.32,3.32,0,0,1,2.733-1.274,2.759,2.759,0,0,1,2.25.888,4.142,4.142,0,0,1,.756,2.654V41H43.2V34.918a1.648,1.648,0,0,0-.352-1.173,1.574,1.574,0,0,0-1.169-.365,1.747,1.747,0,0,0-1.608.914V41h-2.54V31.49ZM53.178,41a2.821,2.821,0,0,1-.255-.853,3.073,3.073,0,0,1-2.4,1.028,3.376,3.376,0,0,1-2.316-.809,2.6,2.6,0,0,1-.918-2.039,2.687,2.687,0,0,1,1.121-2.32,5.529,5.529,0,0,1,3.239-.817h1.169v-.545a1.567,1.567,0,0,0-.338-1.055,1.331,1.331,0,0,0-1.068-.4,1.513,1.513,0,0,0-1.006.308,1.045,1.045,0,0,0-.365.844H47.5a2.551,2.551,0,0,1,.51-1.529,3.37,3.37,0,0,1,1.441-1.1,5.253,5.253,0,0,1,2.092-.4,4.15,4.15,0,0,1,2.791.883,3.09,3.09,0,0,1,1.033,2.483V38.8a4.546,4.546,0,0,0,.378,2.048V41Zm-2.1-1.767a2.188,2.188,0,0,0,1.037-.25,1.645,1.645,0,0,0,.7-.672V36.676h-.949q-1.907,0-2.03,1.318l-.009.149a1.017,1.017,0,0,0,.334.782A1.3,1.3,0,0,0,51.078,39.233ZM52.044,27.5h2.769l-2.435,2.725H50.313ZM60,41H57.45V27.5H60Zm4.772,0H62.222V31.49h2.549Zm-2.7-11.971a1.251,1.251,0,0,1,.382-.94,1.648,1.648,0,0,1,2.079,0,1.342,1.342,0,0,1,0,1.89,1.629,1.629,0,0,1-2.065,0A1.247,1.247,0,0,1,62.073,29.029Zm9.94,9.343a.818.818,0,0,0-.461-.734,5.241,5.241,0,0,0-1.481-.479q-3.393-.712-3.393-2.883a2.613,2.613,0,0,1,1.05-2.114,4.237,4.237,0,0,1,2.747-.848,4.56,4.56,0,0,1,2.9.853,2.687,2.687,0,0,1,1.085,2.215h-2.54a1.229,1.229,0,0,0-.352-.9,1.488,1.488,0,0,0-1.1-.356,1.52,1.52,0,0,0-.993.29.916.916,0,0,0-.352.738.783.783,0,0,0,.4.681,4.114,4.114,0,0,0,1.349.448,11.019,11.019,0,0,1,1.6.426,2.628,2.628,0,0,1,2.013,2.558,2.481,2.481,0,0,1-1.116,2.1,4.815,4.815,0,0,1-2.883.8,5.029,5.029,0,0,1-2.123-.426,3.561,3.561,0,0,1-1.455-1.169,2.716,2.716,0,0,1-.527-1.6h2.408a1.326,1.326,0,0,0,.5,1.037,1.987,1.987,0,0,0,1.248.36,1.839,1.839,0,0,0,1.1-.277A.861.861,0,0,0,72.013,38.372ZM78.8,41H76.25V31.49H78.8ZM76.1,29.029a1.251,1.251,0,0,1,.382-.94,1.648,1.648,0,0,1,2.079,0,1.342,1.342,0,0,1,0,1.89,1.629,1.629,0,0,1-2.065,0A1.247,1.247,0,0,1,76.1,29.029Zm9.94,9.343a.818.818,0,0,0-.461-.734,5.241,5.241,0,0,0-1.481-.479q-3.393-.712-3.393-2.883a2.613,2.613,0,0,1,1.05-2.114,4.237,4.237,0,0,1,2.747-.848,4.56,4.56,0,0,1,2.9.853,2.687,2.687,0,0,1,1.085,2.215h-2.54a1.229,1.229,0,0,0-.352-.9,1.488,1.488,0,0,0-1.1-.356,1.52,1.52,0,0,0-.993.29.916.916,0,0,0-.352.738.783.783,0,0,0,.4.681,4.114,4.114,0,0,0,1.349.448,11.019,11.019,0,0,1,1.6.426,2.628,2.628,0,0,1,2.013,2.558,2.481,2.481,0,0,1-1.116,2.1,4.815,4.815,0,0,1-2.883.8,5.029,5.029,0,0,1-2.123-.426,3.561,3.561,0,0,1-1.455-1.169,2.716,2.716,0,0,1-.527-1.6h2.408a1.326,1.326,0,0,0,.5,1.037,1.987,1.987,0,0,0,1.248.36,1.839,1.839,0,0,0,1.1-.277A.861.861,0,0,0,86.041,38.372Zm8.191-2.2a5.731,5.731,0,0,1,1-3.542,3.237,3.237,0,0,1,2.729-1.318,2.913,2.913,0,0,1,2.294,1.037V27.5H102.8V41h-2.294l-.123-1.011a2.989,2.989,0,0,1-2.443,1.187,3.228,3.228,0,0,1-2.694-1.323A5.916,5.916,0,0,1,94.232,36.175Zm2.54.189a3.754,3.754,0,0,0,.466,2.051,1.517,1.517,0,0,0,1.354.713,1.7,1.7,0,0,0,1.661-.995V34.375a1.675,1.675,0,0,0-1.644-.995Q96.772,33.38,96.772,36.364Zm12.375,4.812a4.668,4.668,0,0,1-3.406-1.283,4.561,4.561,0,0,1-1.314-3.419v-.246a5.745,5.745,0,0,1,.554-2.562,4.064,4.064,0,0,1,1.569-1.74,4.4,4.4,0,0,1,2.316-.611,3.947,3.947,0,0,1,3.072,1.23,5,5,0,0,1,1.121,3.489v1.037H107a2.36,2.36,0,0,0,.743,1.494,2.245,2.245,0,0,0,1.569.563,2.742,2.742,0,0,0,2.294-1.063l1.248,1.4a3.813,3.813,0,0,1-1.547,1.261A5.075,5.075,0,0,1,109.147,41.176Zm-.29-7.813a1.587,1.587,0,0,0-1.226.512,2.651,2.651,0,0,0-.6,1.466h3.533v-.2a1.891,1.891,0,0,0-.457-1.311A1.638,1.638,0,0,0,108.857,33.362ZM27.541,63H24.992V49.5h2.549Zm1.7-4.843a5.64,5.64,0,0,1,.545-2.522,3.989,3.989,0,0,1,1.569-1.714,4.577,4.577,0,0,1,2.377-.606,4.33,4.33,0,0,1,3.142,1.178,4.727,4.727,0,0,1,1.358,3.2l.018.65a4.97,4.97,0,0,1-1.222,3.511,4.247,4.247,0,0,1-3.278,1.323,4.268,4.268,0,0,1-3.283-1.318,5.058,5.058,0,0,1-1.226-3.586Zm2.54.18a3.555,3.555,0,0,0,.51,2.073,1.831,1.831,0,0,0,2.9.009,3.89,3.89,0,0,0,.519-2.267,3.519,3.519,0,0,0-.519-2.06,1.686,1.686,0,0,0-1.459-.731,1.658,1.658,0,0,0-1.441.726A3.955,3.955,0,0,0,31.777,58.338ZM44.96,60.372a.818.818,0,0,0-.461-.734,5.241,5.241,0,0,0-1.481-.479q-3.393-.712-3.393-2.883a2.613,2.613,0,0,1,1.05-2.114,4.237,4.237,0,0,1,2.747-.848,4.56,4.56,0,0,1,2.9.853A2.687,2.687,0,0,1,47.4,56.382h-2.54a1.229,1.229,0,0,0-.352-.9,1.488,1.488,0,0,0-1.1-.356,1.52,1.52,0,0,0-.993.29.916.916,0,0,0-.352.738.783.783,0,0,0,.4.681,4.114,4.114,0,0,0,1.349.448,11.019,11.019,0,0,1,1.6.426,2.628,2.628,0,0,1,2.013,2.558,2.481,2.481,0,0,1-1.116,2.1,4.815,4.815,0,0,1-2.883.8,5.029,5.029,0,0,1-2.123-.426,3.561,3.561,0,0,1-1.455-1.169,2.716,2.716,0,0,1-.527-1.6h2.408a1.326,1.326,0,0,0,.5,1.037,1.987,1.987,0,0,0,1.248.36,1.839,1.839,0,0,0,1.1-.277A.861.861,0,0,0,44.96,60.372Zm8.191-2.2a5.731,5.731,0,0,1,1-3.542,3.237,3.237,0,0,1,2.729-1.318,2.913,2.913,0,0,1,2.294,1.037V49.5h2.549V63H59.427L59.3,61.989a2.989,2.989,0,0,1-2.443,1.187,3.228,3.228,0,0,1-2.694-1.323A5.916,5.916,0,0,1,53.152,58.175Zm2.54.189a3.754,3.754,0,0,0,.466,2.051,1.517,1.517,0,0,0,1.354.713,1.7,1.7,0,0,0,1.661-.995V56.375a1.675,1.675,0,0,0-1.644-.995Q55.692,55.38,55.692,58.364ZM69.2,63a2.821,2.821,0,0,1-.255-.853,3.073,3.073,0,0,1-2.4,1.028,3.376,3.376,0,0,1-2.316-.809,2.6,2.6,0,0,1-.918-2.039,2.687,2.687,0,0,1,1.121-2.32,5.529,5.529,0,0,1,3.239-.817H68.84v-.545a1.567,1.567,0,0,0-.338-1.055,1.331,1.331,0,0,0-1.068-.4,1.513,1.513,0,0,0-1.006.308,1.045,1.045,0,0,0-.365.844h-2.54a2.551,2.551,0,0,1,.51-1.529,3.37,3.37,0,0,1,1.441-1.1,5.253,5.253,0,0,1,2.092-.4,4.15,4.15,0,0,1,2.791.883,3.09,3.09,0,0,1,1.033,2.483V60.8a4.546,4.546,0,0,0,.378,2.048V63Zm-2.1-1.767a2.188,2.188,0,0,0,1.037-.25,1.645,1.645,0,0,0,.7-.672V58.676h-.949q-1.907,0-2.03,1.318l-.009.149a1.017,1.017,0,0,0,.334.782A1.3,1.3,0,0,0,67.1,61.233Zm9.281-10.081V53.49h1.626v1.863H76.381V60.1a1.133,1.133,0,0,0,.2.756,1.015,1.015,0,0,0,.773.229,4.051,4.051,0,0,0,.747-.062v1.925a5.229,5.229,0,0,1-1.538.229,2.425,2.425,0,0,1-2.725-2.7V55.354H72.453V53.49h1.389V51.152Zm2.382,7a5.64,5.64,0,0,1,.545-2.522,3.989,3.989,0,0,1,1.569-1.714,4.577,4.577,0,0,1,2.377-.606A4.33,4.33,0,0,1,86.4,54.492a4.727,4.727,0,0,1,1.358,3.2l.018.65a4.97,4.97,0,0,1-1.222,3.511,4.735,4.735,0,0,1-6.561,0,5.058,5.058,0,0,1-1.226-3.586Zm2.54.18a3.555,3.555,0,0,0,.51,2.073,1.831,1.831,0,0,0,2.9.009,3.89,3.89,0,0,0,.519-2.267,3.519,3.519,0,0,0-.519-2.06,1.686,1.686,0,0,0-1.459-.731,1.658,1.658,0,0,0-1.441.726A3.955,3.955,0,0,0,81.3,58.338Zm13.184,2.035a.818.818,0,0,0-.461-.734,5.241,5.241,0,0,0-1.481-.479q-3.393-.712-3.393-2.883a2.613,2.613,0,0,1,1.05-2.114,4.237,4.237,0,0,1,2.747-.848,4.56,4.56,0,0,1,2.9.853,2.687,2.687,0,0,1,1.085,2.215H94.39a1.229,1.229,0,0,0-.352-.9,1.488,1.488,0,0,0-1.1-.356,1.52,1.52,0,0,0-.993.29.916.916,0,0,0-.352.738.783.783,0,0,0,.4.681,4.114,4.114,0,0,0,1.349.448,11.019,11.019,0,0,1,1.6.426,2.628,2.628,0,0,1,2.013,2.558,2.481,2.481,0,0,1-1.116,2.1,4.815,4.815,0,0,1-2.883.8,5.029,5.029,0,0,1-2.123-.426,3.561,3.561,0,0,1-1.455-1.169,2.716,2.716,0,0,1-.527-1.6h2.408a1.326,1.326,0,0,0,.5,1.037,1.987,1.987,0,0,0,1.248.36,1.839,1.839,0,0,0,1.1-.277A.861.861,0,0,0,94.487,60.372Z" transform="translate(739 8319.384)" fill="#12263f"/>
  </g>
</svg>
