<svg xmlns="http://www.w3.org/2000/svg" xmlns:xlink="http://www.w3.org/1999/xlink" width="42.487" height="54" viewBox="0 0 42.487 54"><defs><clipPath id="a"><rect width="42.487" height="54" fill="none"/></clipPath></defs><g clip-path="url(#a)"><path d="M.992,54a1.588,1.588,0,0,1-.987-1.762A15.781,15.781,0,0,1,5.087,41.47c.726-.714,1.486-1.394,2.258-2.057.275-.236.26-.349.014-.589a16.752,16.752,0,0,1-4.415-6.76,15.751,15.751,0,0,1-.7-3.339.852.852,0,0,1,.7-1.052c.619-.059.935.235,1.013.97a13.286,13.286,0,0,0,.645,2.925,15.553,15.553,0,0,0,3.949,6.026.442.442,0,0,0,.679.044c.934-.692.941-.682.131-1.493a12.62,12.62,0,0,1-.987-17.2,18.968,18.968,0,0,1,1.4-1.5c.245-.232.244-.4-.016-.646-.828-.768-.823-.782-1.614.019a14.087,14.087,0,0,0-4.1,7.851c-.123.788-.4,1.012-1.046.919-.622-.258-.742-.45-.647-1.128A15.385,15.385,0,0,1,6.4,16.176a13.553,13.553,0,0,1,.991-1.021c.254-.228.228-.336-.027-.55a27.291,27.291,0,0,1-4.178-4.228A15.024,15.024,0,0,1,0,1.464,1.315,1.315,0,0,1,1.421.006Q2.5-.007,3.583.005A1.325,1.325,0,0,1,5.019,1.35c.047.542.145,1.079.181,1.622.027.415.222.5.607.5,1.318-.023,2.636-.018,3.954,0A.775.775,0,0,1,10.588,4.5a.842.842,0,0,1-.921.545c-1.16,0-2.32,0-3.48,0-.1,0-.2.012-.338.021A9.657,9.657,0,0,0,6.868,6.922c.125.189.284.174.457.174h8.383c.178,0,.34,0,.457-.177a9.842,9.842,0,0,0,1.019-1.88H15.539c-.6,0-1.2,0-1.793,0-.623-.006-.976-.291-.984-.782s.331-.794.956-.8c1.2-.007,2.39-.013,3.585.005.323,0,.463-.08.507-.417.068-.522.15-1.04.178-1.568A1.363,1.363,0,0,1,19.523,0q1-.006,2,0a1.34,1.34,0,0,1,1.5,1.538,15.264,15.264,0,0,1-3.795,9.595,27.564,27.564,0,0,1-3.47,3.379c-.363.3-.335.448-.017.743a15.727,15.727,0,0,1,1.218,1.313.337.337,0,0,0,.483.1,11.264,11.264,0,0,1,10.516.287c.2.107.319.122.471-.084a1.03,1.03,0,0,1,.892-.362q2.162,0,4.323,0a1.182,1.182,0,0,1,1.115.65q1.052,1.852,2.129,3.69a1.227,1.227,0,0,1-.006,1.339c-.708,1.21-1.4,2.43-2.108,3.641-.1.164-.209.392-.359.436-.6.174-.509.625-.521,1.07a11.058,11.058,0,0,1-1.623,5.537c-.171.281-.16.44.082.655.367.326.7.692,1.049,1.038s.66.8,1.307.705c.3-.043.573.22.8.451.641.651,1.283,1.3,1.94,1.937a.87.87,0,0,1,.14,1.262.76.76,0,0,1-1.208.063c-.416-.347-.774-.757-1.162-1.134-.887-.915-.659-.818-1.489-.019-.29.279-.564.576-.857.851-.237.223-.267.413-.019.659,1.862,1.852,3.709,3.72,5.58,5.564a1.308,1.308,0,0,0,1.681.233,1.419,1.419,0,0,0,.19-2.194c-.411-.453-.88-.851-1.282-1.312-.417-.48-.4-.9.032-1.248a.866.866,0,0,1,1.26.142c.435.459.9.886,1.333,1.349a3.077,3.077,0,0,1-.03,4.243,3.012,3.012,0,0,1-4.267.13c-2.134-2.063-4.21-4.186-6.31-6.284a1.011,1.011,0,0,1-.36-.844c.073-.411-.148-.613-.385-.846-.438-.432-.889-.852-1.3-1.31-.247-.276-.425-.286-.746-.094a11.146,11.146,0,0,1-6.226,1.6,10.811,10.811,0,0,1-4.508-1.114.417.417,0,0,0-.612.124,14.647,14.647,0,0,1-1.257,1.347c-.289.266-.2.393.045.6a27.4,27.4,0,0,1,4.042,4.064,15.413,15.413,0,0,1,3.291,8.663A1.678,1.678,0,0,1,22.085,54H18.921c-.764-.133-1.011-.688-1.081-1.363-.045-.436-.059-.876-.133-1.31-.1-.574-.172-.645-.81-.646-2.161-.005-4.323,0-6.484,0-1.441,0-2.882,0-4.323,0-.606,0-.659.049-.756.63-.078.468-.123.941-.183,1.411A1.269,1.269,0,0,1,4.05,54Z" transform="translate(0 0)"/><path d="M20.971,122.914c.6-.029.849-.387.929-.946a14.585,14.585,0,0,1,4.726-8.542c.18-.174.3-.18.476-.013a8.264,8.264,0,0,0,.89.741c.3.206.241.335.01.554a13.031,13.031,0,0,0-3.43,4.683,12.328,12.328,0,0,0,2.442,13.551,11.9,11.9,0,0,0,1,1.012c.269.236.222.366-.039.553-.383.275-.745.816-1.111.813-.417,0-.723-.6-1.056-.951a14.066,14.066,0,0,1-4.015-8.5.865.865,0,0,0-.876-.87q.027-1.042.054-2.083" transform="translate(-17.969 -97.322)" fill="#b4dd7f"/><path d="M165.487,290.826h-1.422a1.253,1.253,0,0,1-1.191-.71c-.454-.829-.935-1.644-1.419-2.455a1.241,1.241,0,0,1,0-1.384q.742-1.239,1.446-2.5a1.225,1.225,0,0,1,1.159-.672c.965,0,1.931,0,2.9,0a1.263,1.263,0,0,1,1.194.709q.688,1.24,1.416,2.457a1.246,1.246,0,0,1,0,1.385q-.74,1.241-1.445,2.5a1.2,1.2,0,0,1-1.108.669c-.509.006-1.018,0-1.527,0" transform="translate(-138.516 -243.201)"/><path d="M169.95,43.1c.491,0,.983,0,1.474,0a1.143,1.143,0,0,1,1.079.616q.741,1.3,1.5,2.593a1.179,1.179,0,0,1-.006,1.29c-.5.845-.991,1.692-1.471,2.547a1.2,1.2,0,0,1-1.112.662c-1,.006-2,.007-3,0a1.167,1.167,0,0,1-1.078-.627q-.737-1.3-1.5-2.593a1.178,1.178,0,0,1,.006-1.289q.759-1.29,1.5-2.592a1.114,1.114,0,0,1,1.031-.6c.527,0,1.053,0,1.58,0" transform="translate(-142.299 -37.022)"/><path d="M246.284,270.5a.853.853,0,0,0,.173,1.291c.417.423.857.826,1.253,1.268a1.442,1.442,0,0,1-.357,2.309c-.258.059-.377-.147-.518-.288q-2.574-2.563-5.138-5.136c-.635-.638-.635-.891.019-1.52.227-.219.379-.568.777-.557q.522.5,1.043,1.006a.857.857,0,0,0,1.283.164l1.465,1.463" transform="translate(-207.224 -230.11)" fill="#b0c0d2"/><path d="M12.217,267.469c-1,0-.976,0-.844-1.072a14.821,14.821,0,0,1,4.728-8.941c1.676-1.635,3.542-3.047,5.3-4.589a21.633,21.633,0,0,0,2.379-2.311c.243-.29.4-.29.653-.019a3.892,3.892,0,0,0,.767.64c.3.191.257.32.045.557a42.129,42.129,0,0,1-4.62,4.233,32.889,32.889,0,0,0-4.737,4.487,11.615,11.615,0,0,0-2.665,6.416c-.051.6-.054.6-1,.6" transform="translate(-9.713 -215.051)" fill="#6e61b5"/><path d="M12.336,11.254c.9,0,.887,0,1,.944a12.392,12.392,0,0,0,3.633,7.2c1.54,1.6,3.295,2.954,4.98,4.388a33.482,33.482,0,0,1,3.368,3.183c.226.254.271.4-.053.592a2.641,2.641,0,0,0-.648.535c-.313.366-.518.342-.841-.027A43.613,43.613,0,0,0,18.81,23.6a25.521,25.521,0,0,1-5.254-5.508,13.359,13.359,0,0,1-2.12-6.159c-.061-.675-.043-.677.637-.677h.264" transform="translate(-9.805 -9.668)" fill="#6e61b5"/><path d="M97.724,141.541a9.151,9.151,0,0,1-6.5-3.247,9.436,9.436,0,0,1-1.915-9.915,9.608,9.608,0,0,1,7.74-6.437,5.088,5.088,0,0,1,.68-.041c.042.246-.172.283-.312.354a19.76,19.76,0,0,0-2.54,1.671,9.543,9.543,0,0,0-3.136,2.6A8.616,8.616,0,0,0,94.517,139.3c.121.066.237.142.355.213a19.551,19.551,0,0,0,2.538,1.672c.14.072.354.109.313.354" transform="translate(-76.162 -104.719)" fill="#b4dd7f"/><path d="M172.516,157.284a16.5,16.5,0,0,0,0-13.467,2.92,2.92,0,0,1,.947.313c.393.177.9.278.628.939-.093.227.086.472.209.685q1.049,1.821,2.1,3.641a1.108,1.108,0,0,0,.891.654c.3.019.362.152.37.43a7.036,7.036,0,0,1-5.15,6.806" transform="translate(-148.2 -123.546)" fill="#b2d9fd"/><path d="M209.44,128.449c.682-.011,1.364-.017,2.046-.035a.418.418,0,0,1,.417.245q.828,1.46,1.677,2.909a.42.42,0,0,1,.029.484c-.636,1.043-1.179,2.141-1.87,3.151a16.657,16.657,0,0,1-2.14.053c-.212.008-.306-.151-.394-.3-.513-.877-1.045-1.743-1.522-2.64a.82.82,0,0,1-.068-.8,21.758,21.758,0,0,1,1.825-3.061" transform="translate(-178.284 -110.315)" fill="#fde07e"/><path d="M149.029,148.292a14.169,14.169,0,0,1-1.608,7.156.531.531,0,0,1-.61.344c-.49-.056-1.157.025-1.395-.3s.328-.774.512-1.183a12.48,12.48,0,0,0-.422-11.77c-.232-.415-.195-.543.265-.608,1.774-.25,1.355-.4,2.055,1.056a13.2,13.2,0,0,1,1.2,5.3" transform="translate(-124.872 -121.79)" fill="#6e61b5"/><path d="M98.824,298.207c-.869,0-.894,0-.987-.819a12.907,12.907,0,0,0-4.341-8.02c-.688-.652-1.4-1.276-2.13-1.886-.247-.207-.255-.321,0-.5.4-.28.71-.859,1.146-.865s.772.546,1.137.866a18.57,18.57,0,0,1,4.9,6.121,14.524,14.524,0,0,1,1.2,4.665c.034.342-.045.49-.406.443a4.093,4.093,0,0,0-.527,0" transform="translate(-78.328 -245.789)" fill="#b4dd7f"/><path d="M99.1,11.118c.958,0,.934,0,.871.719A14.277,14.277,0,0,1,95.7,20.655c-.831.861-1.735,1.641-2.63,2.432-.214.189-.364.2-.572,0-.349-.34-.959-.62-1.015-.992-.05-.336.614-.632.967-.94a17.889,17.889,0,0,0,4.51-5.369A10.628,10.628,0,0,0,98.1,11.76c.04-.571.233-.726.742-.644a1.672,1.672,0,0,0,.263,0" transform="translate(-78.586 -9.532)" fill="#b4dd7f"/><path d="M135.6,198.528a19.612,19.612,0,0,1-2.424-1.584,1.5,1.5,0,0,1-.427-.442,9.72,9.72,0,0,0,4.669.765,8.683,8.683,0,0,0,7.563-7.31,9.159,9.159,0,0,0,.089-1.311c-.009-.337.1-.42.418-.407,1.028.043.886-.179.863.895a9.9,9.9,0,0,1-8.71,9.4,6.125,6.125,0,0,1-2.04,0" transform="translate(-114.039 -161.706)" fill="#b4dd7f"/><path d="M41.388,334.848A10.169,10.169,0,0,1,42.4,333a.453.453,0,0,1,.439-.209q4.239,0,8.478,0c.141,0,.275,0,.371.135a9.524,9.524,0,0,1,1.045,1.89c-.127.015-.195.03-.262.03H41.388" transform="translate(-35.555 -285.884)" fill="#fefefe"/><path d="M112.03,184.332c-.7,0-1.4-.012-2.105.006-.273.007-.415-.058-.452-.351a8.808,8.808,0,0,1,0-2.151c.033-.283.168-.361.448-.358q2.158.022,4.316,0c.29,0,.4.088.425.375a15.948,15.948,0,0,1,.005,2.05c-.018.321-.125.453-.476.438-.718-.03-1.439-.009-2.158-.009" transform="translate(-93.985 -155.899)" fill="#b2d9fd"/><path d="M232.971,263.23c-.28.263-.566.52-.839.79-.424.42-.431.62-.009,1.05.674.689,1.358,1.368,2.043,2.046q1.83,1.81,3.666,3.613a1.342,1.342,0,0,1-1.69-.154c-1.973-1.942-3.923-3.907-5.886-5.86-.14-.139-.165-.236-.013-.385q.882-.864,1.746-1.748c.14-.144.238-.161.375,0,.194.224.4.433.606.649" transform="translate(-197.703 -225.475)" fill="#727997"/><path d="M199.464,128.429a14.131,14.131,0,0,1-1.378,2.458,1.461,1.461,0,0,0,.011,1.854,21.327,21.327,0,0,1,1.244,2.123.552.552,0,0,0,.583.324c.613-.015,1.226,0,1.839,0-.185.155-.4.071-.606.072-.949.008-1.9-.013-2.846.005a.685.685,0,0,1-.715-.393c-.5-.909-1.018-1.8-1.549-2.693a.6.6,0,0,1-.011-.715q.805-1.328,1.553-2.69a.62.62,0,0,1,.666-.377c.4.032.806.025,1.209.035" transform="translate(-168.309 -110.294)" fill="#fcd03e"/><path d="M65.582,304.39h-6.3c.325-.317.583-.589.862-.836q1.005-.892,2.029-1.762c.1-.088.194-.292.389-.128a36.527,36.527,0,0,1,3.019,2.726" transform="translate(-50.927 -259.092)" fill="#fdfdfd"/><path d="M59.291,61.644h6.176c.086.169-.07.22-.145.295-.831.836-1.731,1.595-2.632,2.352-.112.094-.2.237-.395.074a37.034,37.034,0,0,1-3-2.721" transform="translate(-50.934 -52.955)" fill="#fdfdfd"/><path d="M132.749,123.462a8.341,8.341,0,0,1,2.328-1.7c.177-.1.4-.141.523-.324a9.064,9.064,0,0,1,4.723.709c.13.052.258.11.384.17.845.4.837.4.325,1.241-.134.222-.224.274-.48.14a8.444,8.444,0,0,0-7.651-.266.7.7,0,0,1-.154.03" transform="translate(-114.038 -104.255)" fill="#96c45a"/><path d="M53.033,186.228c-.508,0-1.017-.011-1.525,0-.254.008-.39-.042-.378-.337.019-.472.019-.947,0-1.419-.012-.3.127-.339.38-.336,1.017.011,2.033.016,3.05,0,.316-.006.385.1.352.394a6.838,6.838,0,0,0-.024,1c.024.7.031.7-.645.7H53.033" transform="translate(-43.922 -158.184)" fill="#fdfdfd"/><path d="M56.057,212.236h-.735c-1.155,0-1.155,0-1.531-1.125-.318-.952-.318-.952.671-.952.823,0,1.645.008,2.468,0,.262,0,.4.046.468.343a12.746,12.746,0,0,0,.488,1.434c.081.218.066.316-.2.309-.542-.014-1.085,0-1.628,0" transform="translate(-46.048 -180.534)" fill="#fdfdfd"/><path d="M116.809,152.072c-.561,0-1.121-.008-1.682,0-.3.006-.439-.027-.248-.367a7.288,7.288,0,0,1,2.375-2.548c.193-.127.289-.106.412.086a11.005,11.005,0,0,1,1.186,2.5c.095.288-.005.329-.256.325-.6-.01-1.191,0-1.787,0" transform="translate(-98.613 -128.068)" fill="#b2d8fc"/><path d="M57.722,158.329c-.206.652-.4,1.247-.578,1.848-.06.207-.189.216-.356.216-1.051,0-2.1-.009-3.154,0-.278,0-.34-.093-.26-.334.006-.017.011-.033.015-.05.4-1.684.4-1.684,2.119-1.684Z" transform="translate(-45.823 -136.013)" fill="#fefefe"/><path d="M116.876,212.931c.6,0,1.192.005,1.787,0,.243,0,.3.065.222.31a10.889,10.889,0,0,1-1.185,2.5c-.124.2-.222.207-.412.082a7.255,7.255,0,0,1-2.373-2.55c-.169-.3-.059-.353.226-.347.578.011,1.156,0,1.735,0" transform="translate(-98.649 -182.916)" fill="#b2d9fd"/><path d="M65.018,131.7a17.234,17.234,0,0,1,2.166-2.429c.162-.157.253-.11.378.018.439.453.89.895,1.316,1.36.109.119.392.229.2.457s-.235.6-.654.6c-1.1-.011-2.2,0-3.406,0" transform="translate(-55.854 -110.966)" fill="#fdfdfd"/><path d="M65.082,236.124c1.2,0,2.3.007,3.407,0,.418,0,.475.369.651.6s-.113.334-.224.455c-.415.453-.856.882-1.282,1.325-.141.147-.239.191-.417.017a17.484,17.484,0,0,1-2.135-2.4" transform="translate(-55.909 -202.84)" fill="#fefefe"/><path d="M214.647,248.434c-.531-.555-1.033-1.095-1.554-1.615-.174-.174-.152-.281.023-.414.1-.074.176-.173.275-.246.261-.193.406-.666.706-.612.273.049.5.412.724.655.32.344.971.675.9,1.014-.095.438-.654.775-1.072,1.217" transform="translate(-182.955 -210.935)" fill="#b2d9fc"/><path d="M187.362,294.377c.4.673.8,1.347,1.207,2.017a.34.34,0,0,1,0,.39c-.406.671-.806,1.344-1.208,2.017-.929.159-.941.151-1.4-.6-.227-.376-.43-.765-.659-1.14a.838.838,0,0,1,0-.943c.219-.36.421-.731.629-1.1.443-.778.473-.8,1.428-.641" transform="translate(-159.06 -252.82)" fill="#6d61b5"/><path d="M177.546,294.219c-.692-.133-.992.247-1.385.785a2.151,2.151,0,0,0,.026,2.893c.379.523.691.872,1.353.746a12.368,12.368,0,0,1-2.495.062c-.065,0-.139-.093-.2-.154a.855.855,0,0,1-.114-.176c-.359-.642-.977-1.274-1-1.93-.028-.708.68-1.339,1.037-2.02.065-.123.122-.287.284-.279a12.574,12.574,0,0,1,2.493.072" transform="translate(-149.244 -252.662)" fill="#53469b"/><path d="M181.386,58.6c-1.033.342-1.487-.236-1.988-1.052a1.937,1.937,0,0,1-.012-2.342,1.979,1.979,0,0,1,1.947-1.138,2.039,2.039,0,0,1,2.109,1.234c.418.779.616,1.4-.021,2.092a.421.421,0,0,0-.079.136c-.341.916-.925,1.409-1.957,1.07" transform="translate(-153.769 -46.446)" fill="#b4dd7f"/></g></svg>