<svg xmlns="http://www.w3.org/2000/svg" xmlns:xlink="http://www.w3.org/1999/xlink" width="304" height="255.779" viewBox="0 0 304 255.779"><defs><filter id="a" x="96" y="0" width="208" height="208" filterUnits="userSpaceOnUse"><feOffset dy="3" input="SourceAlpha"/><feGaussianBlur stdDeviation="3" result="b"/><feFlood flood-opacity="0.161"/><feComposite operator="in" in2="b"/><feComposite in="SourceGraphic"/></filter><clipPath id="c"><path d="M415.172,50.59l-6.117,3.556c-2.816,1.635-4.56,5.113-4.574,10.055-.028,9.954,6.97,22.073,15.63,27.074l6.117-3.556c-8.661-5-15.659-17.12-15.63-27.071C410.611,55.7,412.358,52.225,415.172,50.59Z" transform="translate(-404.48 -50.59)" fill="#251b29"/></clipPath><clipPath id="d"><path d="M421.21,68.478l6.117-3.556c-2.85,1.658-6.8,1.422-11.157-1.094l-6.117,3.556C414.412,69.9,418.358,70.133,421.21,68.478Z" transform="translate(-410.053 -63.828)" fill="#251b29"/></clipPath><clipPath id="e"><path d="M410.8,49.053l-6.117,3.554c3.884-2.255,9.261-1.938,15.2,1.489l6.117-3.556C420.056,47.112,414.679,46.8,410.8,49.053Z" transform="translate(-404.678 -47.611)" fill="#251b29"/></clipPath><clipPath id="f"><path d="M425.152,102.771l6.117-3.554c3.834-2.227,6.21-6.964,6.229-13.7.039-13.549-9.491-30.055-21.285-36.865L410.1,52.211c11.794,6.807,21.324,23.315,21.285,36.865C431.361,95.807,428.986,100.544,425.152,102.771Z" transform="translate(-410.096 -48.655)" fill="#251b29"/></clipPath><clipPath id="g"><path d="M430.7,81.826l-11.2-16-1.61,1.13,11.2,16Z" transform="translate(-417.893 -65.825)" fill="#e9ecf5"/></clipPath><clipPath id="h"><path d="M416.169,69.613l11.2,16,.432-.3c.892-.623,2.861-2,4.4-3.082l-11.2-16c-1.543,1.08-3.514,2.457-4.4,3.082Z" transform="translate(-416.169 -66.228)" fill="#e9ecf5"/></clipPath><clipPath id="i"><path d="M444.772,99.351l-21.159-30.22-2.645,1.851L442.13,101.2Z" transform="translate(-420.969 -69.131)" fill="#67c53a"/></clipPath><clipPath id="j"><path d="M369.51,71.435l-.031,10.38a12.662,12.662,0,0,0-5.349-5.323l.028-10.38A12.687,12.687,0,0,1,369.51,71.435Z" transform="translate(-364.131 -66.112)" fill="#529d2e"/></clipPath><clipPath id="k"><path d="M366.792,71.174l-.031,10.38a7.373,7.373,0,0,0-.724-3.164l.031-10.38A7.372,7.372,0,0,1,366.792,71.174Z" transform="translate(-366.038 -68.01)" fill="#fcd03e"/></clipPath><clipPath id="l"><path d="M351.623,87.11l.031-10.38c.008-3.032,2-6.058,5.977-8.372,8.01-4.653,21.041-4.653,29.1,0l-.028,10.38c-8.063-4.653-21.094-4.653-29.1,0C353.623,81.051,351.632,84.078,351.623,87.11Z" transform="translate(-351.623 -64.868)" fill="#fd963d"/></clipPath><clipPath id="m"><path d="M346.8,79.449l.031-10.38a12.151,12.151,0,0,0,1.2,5.228L348,84.677A12.193,12.193,0,0,1,346.8,79.449Z" transform="translate(-346.798 -69.069)" fill="#fd963d"/></clipPath><clipPath id="n"><path d="M371.479,84.92l-.028,10.38a44.669,44.669,0,0,1-15.431-5.065,20.809,20.809,0,0,1-8.793-8.922l.028-10.38a20.84,20.84,0,0,0,8.793,8.922A44.689,44.689,0,0,0,371.479,84.92Z" transform="translate(-347.227 -70.933)" fill="none"/></clipPath><clipPath id="o"><path d="M398.778,69.147l-.028,10.38c-.025,8.694-10.024,16.637-25.211,19a55.769,55.769,0,0,1-17.675,0l.028-10.38a55.788,55.788,0,0,0,17.678,0C388.757,85.784,398.753,77.841,398.778,69.147Z" transform="translate(-355.864 -69.147)" fill="#fcd03e"/></clipPath><clipPath id="p"><path d="M367.126,74.288l-1.414.822a.385.385,0,0,1,.39.036l1.414-.822A.385.385,0,0,0,367.126,74.288Z" transform="translate(-365.712 -74.251)" fill="none"/></clipPath><clipPath id="q"><path d="M395.245,85.775l.247-.14a.376.376,0,0,0,.151-.339l-.244.143A.363.363,0,0,1,395.245,85.775Z" transform="translate(-395.245 -85.295)" fill="#eff6fe"/></clipPath><clipPath id="r"><path d="M395.641,84.258l.244-.14a1.152,1.152,0,0,0-.522-.906l-.244.14A1.156,1.156,0,0,1,395.641,84.258Z" transform="translate(-395.119 -83.212)" fill="#eff6fe"/></clipPath></defs><g transform="translate(-1020 -5884)"><g transform="translate(0 598)"><g transform="matrix(1, 0, 0, 1, 1020, 5286)" filter="url(#a)"><path d="M95,0A95,95,0,1,1,0,95,95,95,0,0,1,95,0Z" transform="translate(105 6)" fill="#d3d3d3"/></g><g transform="translate(1010.652 5276.476)"><g transform="translate(9.348 122.442)"><ellipse cx="124.667" cy="71.431" rx="124.667" ry="71.431" fill="#f5f5f5"/></g><g transform="translate(18.754 172.436)"><path d="M282.406,350.987c-12.446-7.186-32.626-7.186-45.072,0-10.55,6.092-12.153,15.39-4.817,22.459a5.3,5.3,0,0,0-1.186.482l-39.32,22.7c-1.669.964-1.669,2.526,0,3.49l2.461,1.421a6.211,6.211,0,0,0,5.942-.167l36.621-23.967a3.7,3.7,0,0,0,.421-.331c12.455,7.117,32.544,7.1,44.951-.067C294.853,369.823,294.853,358.173,282.406,350.987Z" transform="translate(-105.795 -324.567)" fill="#e6e6e6"/><path d="M426.756,309.227c9.862,5.556,9.961,14.733.221,20.5s-25.634,5.938-35.5.383-9.965-14.732-.221-20.5S416.894,303.672,426.756,309.227Z" transform="translate(-198.517 -305.17)" fill="#e0e0e0"/></g><g transform="translate(32.636 41.958)"><g transform="translate(0 92.5)"><g transform="translate(10.03 5.722)"><rect width="125.945" height="0.55" transform="translate(0 63.013) rotate(-30.021)" fill="#e0e0e0"/></g><g transform="translate(19.944 11.449)"><rect width="125.945" height="0.55" transform="translate(0 63.007) rotate(-30.018)" fill="#e0e0e0"/></g><g transform="translate(29.861 17.171)"><rect width="125.945" height="0.55" transform="translate(0 63.013) rotate(-30.021)" fill="#e0e0e0"/></g><g transform="translate(39.777 22.896)"><rect width="125.945" height="0.55" transform="translate(0 63.013) rotate(-30.021)" fill="#e0e0e0"/></g><g transform="translate(10.053 57.285)"><rect width="0.55" height="57.247" transform="matrix(0.5, -0.866, 0.866, 0.5, 0, 0.477)" fill="#e0e0e0"/></g><g transform="translate(19.968 51.56)"><rect width="0.55" height="57.248" transform="translate(0 0.477) rotate(-60)" fill="#e0e0e0"/></g><g transform="translate(29.884 45.835)"><rect width="0.55" height="57.248" transform="translate(0 0.477) rotate(-60)" fill="#e0e0e0"/></g><g transform="translate(39.8 40.11)"><rect width="0.55" height="57.248" transform="matrix(0.5, -0.866, 0.866, 0.5, 0, 0.477)" fill="#e0e0e0"/></g><g transform="translate(49.715 34.385)"><rect width="0.55" height="57.248" transform="translate(0 0.477) rotate(-60)" fill="#e0e0e0"/></g><g transform="translate(59.631 28.661)"><rect width="0.55" height="57.248" transform="translate(0 0.477) rotate(-60)" fill="#e0e0e0"/></g><g transform="translate(69.547 22.936)"><rect width="0.55" height="57.247" transform="translate(0 0.477) rotate(-60)" fill="#e0e0e0"/></g><g transform="translate(79.462 17.211)"><rect width="0.55" height="57.248" transform="translate(0 0.477) rotate(-60)" fill="#e0e0e0"/></g><g transform="translate(89.378 11.486)"><rect width="0.55" height="57.247" transform="translate(0 0.477) rotate(-60)" fill="#e0e0e0"/></g><g transform="translate(99.293 5.762)"><rect width="0.55" height="57.248" transform="translate(0 0.477) rotate(-60)" fill="#e0e0e0"/></g><path d="M103.933,324.291a.276.276,0,0,1-.137-.036l-49.544-28.6a.276.276,0,0,1,0-.477L163.324,232.2a.275.275,0,0,1,.276,0l49.544,28.6a.276.276,0,0,1,0,.477L104.071,324.255A.278.278,0,0,1,103.933,324.291ZM54.94,295.413,103.933,323.7l108.523-62.655-48.994-28.286Z" transform="translate(-54.115 -232.165)" fill="#e0e0e0"/></g></g><g transform="translate(26.606 45.12)"><g transform="translate(-2 25)"><path d="M51.139,100.15a1.369,1.369,0,0,1-.212-.016L48.786,99.8a1.182,1.182,0,0,1-.969-1.531l1.173-3.957a.926.926,0,0,0-.283-.827,6.186,6.186,0,0,1-.638-.685.348.348,0,0,0-.484-.1l-2.679,2.028a.975.975,0,0,1-1.607-.574l-.729-3.022a2.17,2.17,0,0,1,.5-1.85L45.7,86.523a2.1,2.1,0,0,0,.463-1.13,19.406,19.406,0,0,1,.222-2.119.549.549,0,0,0-.327-.572l-1.688-.591a1.292,1.292,0,0,1-.787-1.669l1.629-4.413a1.768,1.768,0,0,1,1.558-1.1l2.04-.035a1.169,1.169,0,0,0,.842-.5c.429-.727.889-1.427,1.366-2.081a1.913,1.913,0,0,0,.308-1.148l-.388-3a2.235,2.235,0,0,1,.667-1.8l3-2.7a1,1,0,0,1,1.674.409l.871,2.322a.242.242,0,0,0,.135.151.3.3,0,0,0,.241-.022,10.6,10.6,0,0,1,1.332-.539,1.623,1.623,0,0,0,.852-.722l1.734-3.913a1.629,1.629,0,0,1,1.668-.91l2.142.332a1.182,1.182,0,0,1,.969,1.53l-1.172,3.958a.924.924,0,0,0,.282.827,6.211,6.211,0,0,1,.639.685.345.345,0,0,0,.484.1l2.678-2.028a.975.975,0,0,1,1.608.574l.728,3.022a2.163,2.163,0,0,1-.5,1.851l-2.63,2.762a2.086,2.086,0,0,0-.463,1.129,19.5,19.5,0,0,1-.222,2.12.547.547,0,0,0,.327.572l1.689.591a1.292,1.292,0,0,1,.785,1.67l-1.628,4.412a1.772,1.772,0,0,1-1.559,1.105l-2.04.035a1.169,1.169,0,0,0-.842.5c-.427.723-.886,1.423-1.366,2.08a1.907,1.907,0,0,0-.307,1.147l.388,3a2.244,2.244,0,0,1-.666,1.8l-3,2.7a1,1,0,0,1-1.675-.409l-.87-2.322a.244.244,0,0,0-.135-.151.292.292,0,0,0-.241.022,10.847,10.847,0,0,1-1.331.539,1.634,1.634,0,0,0-.855.722l-1.733,3.913A1.638,1.638,0,0,1,51.139,100.15Zm-3.37-8.461a1.337,1.337,0,0,1,1.039.518,5.363,5.363,0,0,0,.542.581,1.864,1.864,0,0,1,.55,1.8l-1.172,3.958a.233.233,0,0,0,.2.321l2.141.332a.67.67,0,0,0,.653-.356l1.734-3.913a2.547,2.547,0,0,1,1.428-1.24,9.776,9.776,0,0,0,1.212-.492,1.239,1.239,0,0,1,1.008-.049,1.188,1.188,0,0,1,.672.7l.871,2.322a.194.194,0,0,0,.058.094.288.288,0,0,0,.09-.059l3-2.7a1.31,1.31,0,0,0,.358-.968l-.388-3a2.853,2.853,0,0,1,.483-1.83c.461-.632.9-1.306,1.315-2a2.111,2.111,0,0,1,1.646-.972L67.25,84.7a.834.834,0,0,0,.683-.484l1.628-4.413a.341.341,0,0,0-.208-.443l-1.69-.592a1.5,1.5,0,0,1-.951-1.618,18.527,18.527,0,0,0,.212-2.016,3.019,3.019,0,0,1,.725-1.739l2.631-2.762a1.226,1.226,0,0,0,.261-.972h0l-.728-3.022a.245.245,0,0,0-.035-.087.683.683,0,0,0-.075.048L67.024,68.63a1.284,1.284,0,0,1-1.8-.26,5.185,5.185,0,0,0-.542-.58,1.865,1.865,0,0,1-.55-1.8l1.173-3.957a.258.258,0,0,0-.019-.212.255.255,0,0,0-.185-.109l-2.141-.332a.671.671,0,0,0-.653.356l-1.734,3.913a2.546,2.546,0,0,1-1.427,1.24,9.785,9.785,0,0,0-1.212.491,1.236,1.236,0,0,1-1.008.049,1.191,1.191,0,0,1-.672-.7l-.87-2.321a.193.193,0,0,0-.059-.094.274.274,0,0,0-.089.058l-3,2.7a1.3,1.3,0,0,0-.358.968l.388,3a2.859,2.859,0,0,1-.484,1.83c-.459.629-.9,1.3-1.315,2a2.109,2.109,0,0,1-1.646.971l-2.039.034a.832.832,0,0,0-.682.483L44.474,80.77a.341.341,0,0,0,.208.443l1.69.592a1.5,1.5,0,0,1,.951,1.617,18.449,18.449,0,0,0-.212,2.017,3.031,3.031,0,0,1-.723,1.739l-2.633,2.763a1.231,1.231,0,0,0-.261.972l.729,3.022a.244.244,0,0,0,.035.087c.007-.006.034-.017.075-.048l2.679-2.028A1.25,1.25,0,0,1,47.769,91.689ZM54.484,89.1a3.772,3.772,0,0,1-1.123-.166,4.165,4.165,0,0,1-2.691-3.246c-.893-3.706,1.114-9.179,4.475-12.2,1.873-1.684,3.886-2.359,5.527-1.85a4.166,4.166,0,0,1,2.691,3.246c.893,3.706-1.114,9.179-4.474,12.2h0A6.868,6.868,0,0,1,54.484,89.1Zm5.056-16.68A5.951,5.951,0,0,0,55.781,74.2c-3.13,2.813-5.007,7.87-4.187,11.272a3.221,3.221,0,0,0,2.048,2.561c1.314.405,2.993-.194,4.611-1.649,3.128-2.813,5.007-7.87,4.186-11.272a3.221,3.221,0,0,0-2.048-2.561A2.877,2.877,0,0,0,59.541,72.423Z" transform="translate(-42.524 -60.427)" fill="#85d161"/></g><g transform="translate(23.634 41.064)"><path d="M48.276,86.948a.914.914,0,0,1-.142-.011l-1.43-.222a.789.789,0,0,1-.647-1.022l.783-2.642a.618.618,0,0,0-.189-.552,4.13,4.13,0,0,1-.426-.457.232.232,0,0,0-.323-.065l-1.788,1.354a.651.651,0,0,1-1.073-.383l-.487-2.018a1.449,1.449,0,0,1,.332-1.235l1.757-1.845a1.4,1.4,0,0,0,.309-.754,12.957,12.957,0,0,1,.148-1.415.367.367,0,0,0-.218-.382L43.755,74.9a.863.863,0,0,1-.525-1.114l1.087-2.947a1.18,1.18,0,0,1,1.04-.738l1.362-.023a.781.781,0,0,0,.562-.336c.287-.486.593-.953.912-1.389a1.277,1.277,0,0,0,.206-.767l-.259-2a1.492,1.492,0,0,1,.445-1.2l2-1.8a.668.668,0,0,1,1.118.273l.581,1.55a.162.162,0,0,0,.09.1.2.2,0,0,0,.161-.015,7.078,7.078,0,0,1,.889-.36,1.083,1.083,0,0,0,.569-.482l1.158-2.613a1.087,1.087,0,0,1,1.113-.608l1.43.222a.789.789,0,0,1,.647,1.022l-.782,2.642a.617.617,0,0,0,.188.552,4.147,4.147,0,0,1,.427.457.23.23,0,0,0,.323.065l1.788-1.354a.651.651,0,0,1,1.074.383l.486,2.018a1.444,1.444,0,0,1-.333,1.236l-1.756,1.844a1.393,1.393,0,0,0-.309.754,13.019,13.019,0,0,1-.148,1.415.365.365,0,0,0,.218.382l1.128.395a.863.863,0,0,1,.524,1.115l-1.087,2.946a1.183,1.183,0,0,1-1.041.738l-1.362.023a.781.781,0,0,0-.562.337c-.285.483-.592.95-.912,1.389a1.273,1.273,0,0,0-.205.766l.259,2a1.5,1.5,0,0,1-.445,1.2l-2,1.8a.668.668,0,0,1-1.118-.273l-.581-1.55a.163.163,0,0,0-.09-.1.2.2,0,0,0-.161.015,7.241,7.241,0,0,1-.888.36,1.091,1.091,0,0,0-.571.482l-1.157,2.612A1.094,1.094,0,0,1,48.276,86.948ZM46.026,81.3a.893.893,0,0,1,.694.346,3.581,3.581,0,0,0,.362.388,1.244,1.244,0,0,1,.367,1.2l-.782,2.642a.156.156,0,0,0,.135.214l1.43.222a.447.447,0,0,0,.436-.238l1.158-2.613a1.7,1.7,0,0,1,.953-.828,6.526,6.526,0,0,0,.809-.328.827.827,0,0,1,.673-.033.793.793,0,0,1,.449.467l.581,1.55a.13.13,0,0,0,.039.063.192.192,0,0,0,.06-.039l2-1.8a.875.875,0,0,0,.239-.646l-.259-2a1.905,1.905,0,0,1,.323-1.221c.308-.422.6-.872.878-1.337a1.41,1.41,0,0,1,1.1-.649l1.361-.023a.557.557,0,0,0,.456-.323l1.087-2.946a.228.228,0,0,0-.139-.3l-1.128-.4a1,1,0,0,1-.635-1.08,12.37,12.37,0,0,0,.142-1.346,2.016,2.016,0,0,1,.484-1.161l1.756-1.844a.819.819,0,0,0,.174-.649h0l-.486-2.018a.164.164,0,0,0-.023-.058.456.456,0,0,0-.05.032L58.882,65.9a.857.857,0,0,1-1.2-.174,3.462,3.462,0,0,0-.362-.387,1.245,1.245,0,0,1-.367-1.2l.783-2.642a.172.172,0,0,0-.012-.142.17.17,0,0,0-.124-.073l-1.429-.222a.448.448,0,0,0-.436.238l-1.158,2.612a1.7,1.7,0,0,1-.953.828,6.534,6.534,0,0,0-.809.328.825.825,0,0,1-.673.033.8.8,0,0,1-.448-.468l-.581-1.55a.129.129,0,0,0-.039-.063.183.183,0,0,0-.06.039l-2,1.8a.869.869,0,0,0-.239.646l.259,2a1.909,1.909,0,0,1-.323,1.221c-.307.42-.6.87-.878,1.337a1.408,1.408,0,0,1-1.1.648l-1.361.023a.556.556,0,0,0-.455.322l-1.087,2.947a.228.228,0,0,0,.139.3l1.128.4a1,1,0,0,1,.635,1.08,12.318,12.318,0,0,0-.142,1.347,2.023,2.023,0,0,1-.483,1.161l-1.758,1.845a.822.822,0,0,0-.174.649l.487,2.018a.163.163,0,0,0,.023.058s.023-.011.05-.032l1.788-1.354A.835.835,0,0,1,46.026,81.3Zm4.483-1.726a2.519,2.519,0,0,1-.75-.111,2.781,2.781,0,0,1-1.8-2.167c-.6-2.474.744-6.129,2.988-8.146a3.973,3.973,0,0,1,3.69-1.235,2.782,2.782,0,0,1,1.8,2.167c.6,2.475-.744,6.129-2.987,8.146h0A4.585,4.585,0,0,1,50.509,79.572Zm3.376-11.136a3.973,3.973,0,0,0-2.51,1.184c-2.089,1.878-3.343,5.254-2.8,7.526a2.15,2.15,0,0,0,1.367,1.71,3.388,3.388,0,0,0,3.079-1.1c2.089-1.878,3.343-5.254,2.795-7.526a2.15,2.15,0,0,0-1.367-1.71A1.92,1.92,0,0,0,53.885,68.436Z" transform="translate(-42.524 -60.427)" fill="#85d161"/></g></g></g><g transform="translate(1041.5 5295)"><g transform="translate(132.646 9.824)"><g style="isolation:isolate"><g transform="translate(97.435 56.254)"><path d="M428.833,109.88l2.262-1.315.19-67.007-2.262,1.315Z" transform="translate(-428.833 -41.559)" fill="#bcc5df"/></g><g transform="translate(0.19)"><path d="M491.6,79.07l2.262-1.315L396.423,21.5l-2.262,1.315Z" transform="translate(-394.16 -21.501)" fill="#fff"/></g><g transform="translate(0 1.315)"><path d="M394.283,21.97l-.19,67.007,97.435,56.254.19-67.007Z" transform="translate(-394.093 -21.97)" fill="#e9ecf5"/></g></g><g transform="translate(2.298 6.043)"><g opacity="0.4"><path d="M486.692,137.9l-.084-.05-91.7-52.938V23.656l.087.05,91.7,52.938ZM395.027,84.846l91.55,52.857,0-60.993L395.027,23.855Z" transform="translate(-394.912 -23.656)" fill="#372b3d"/><g transform="translate(0.029 10.237)"><rect width="0.114" height="105.847" transform="matrix(0.5, -0.866, 0.866, 0.5, 0, 0.099)" fill="#372b3d"/></g><g transform="translate(0.029 20.424)"><rect width="0.115" height="105.847" transform="matrix(0.5, -0.866, 0.866, 0.5, 0, 0.099)" fill="#372b3d"/></g><g transform="translate(0.029 30.611)"><rect width="0.115" height="105.847" transform="translate(0 0.099) rotate(-60.001)" fill="#372b3d"/></g><g transform="translate(0.029 40.799)"><rect width="0.115" height="105.847" transform="translate(0 0.099) rotate(-60.001)" fill="#372b3d"/></g><g transform="translate(0.029 50.986)"><rect width="0.115" height="105.847" transform="translate(0 0.099) rotate(-60.001)" fill="#372b3d"/></g><g transform="translate(9.167 5.391)"><rect width="0.115" height="61.124" fill="#372b3d"/></g><g transform="translate(18.334 10.684)"><rect width="0.115" height="61.124" fill="#372b3d"/></g><g transform="translate(27.5 15.976)"><rect width="0.115" height="61.124" fill="#372b3d"/></g><g transform="translate(36.667 21.268)"><rect width="0.115" height="61.124" fill="#372b3d"/></g><g transform="translate(45.834 26.56)"><rect width="0.115" height="61.124" fill="#372b3d"/></g><g transform="translate(55 31.852)"><rect width="0.115" height="61.124" fill="#372b3d"/></g><g transform="translate(64.167 37.145)"><rect width="0.115" height="61.124" fill="#372b3d"/></g><g transform="translate(73.334 42.437)"><rect width="0.115" height="61.124" fill="#372b3d"/></g><g transform="translate(82.5 47.729)"><rect width="0.115" height="61.124" fill="#372b3d"/></g></g><path d="M424.348,80.583l9.167,5.292V57.721l-9.167-5.292Z" transform="translate(-341.79 28.27)" fill="#a6afcd"/><path d="M419.445,65.275l9.167,5.292V61.8l-9.167-5.292Z" transform="translate(-350.638 35.639)" fill="#a6afcd"/><path d="M399.835,77.713,409,83.005V37.318l-9.167-5.292Z" transform="translate(-386.028 -8.552)" fill="#a6afcd"/><path d="M409.64,67.349l9.167,5.292V51.858l-9.167-5.292Z" transform="translate(-368.333 17.689)" fill="#a6afcd"/><path d="M394.932,56.609,404.1,61.9V44.613l-9.167-5.292Z" transform="translate(-394.875 4.614)" fill="#a6afcd"/><path d="M414.542,91.537l9.167,5.292V42.854l-9.167-5.292Z" transform="translate(-359.485 1.44)" fill="#a6afcd"/><path d="M404.738,73.393l9.167,5.292V44.11l-9.167-5.292Z" transform="translate(-377.18 3.707)" fill="#a6afcd"/></g></g><g transform="translate(0 0)"><g transform="translate(42.902 0.767)"><g style="isolation:isolate"><g transform="translate(145.654 84.094)"><path d="M414.386,49.639l2.381-1.383-.359,126.528-2.381,1.384Z" transform="translate(-414.027 -48.255)" fill="#bcc5df"/></g><g transform="translate(0.359)"><path d="M362.222,19.655l2.381-1.384,145.655,84.094-2.381,1.383Z" transform="translate(-362.222 -18.272)" fill="#fff"/></g><g transform="translate(0 1.384)"><path d="M508.108,102.859l-.359,126.528L362.095,145.293l.359-126.528Z" transform="translate(-362.095 -18.765)" fill="#eef1f8"/></g></g><g transform="translate(100.745 114.437)"><path d="M403.363,68.337l-5.348-3.088V59.074l5.348,3.087Z" transform="translate(-398.015 -59.074)" fill="#fdab64"/><path d="M403.363,71.345l-5.348-3.087V62.083l5.348,3.087Z" transform="translate(-398.015 -53.644)" fill="#85d161"/><path d="M403.363,74.354l-5.348-3.087V65.092l5.348,3.087Z" transform="translate(-398.015 -48.214)" fill="#fde07e"/><path d="M434.68,86.417,400.838,66.879V60.7L434.68,80.242Z" transform="translate(-392.92 -56.133)" fill="#fdab64"/><path d="M434.68,89.426,400.838,69.888V63.713L434.68,83.251Z" transform="translate(-392.921 -50.703)" fill="#85d161"/><path d="M434.68,92.434,400.838,72.9V66.722L434.68,86.259Z" transform="translate(-392.921 -45.273)" fill="#fde07e"/></g><g transform="translate(3.962 59.891)"><g opacity="0.2"><path d="M363.507,39.626v67.985l92.338,53.308V92.937l-.078-.045h0L363.74,39.761h0Zm.309,48.843,8.055,4.65v9.3l-8.055-4.65Zm91.719,13.948-8.055-4.65v-9.3l8.055,4.65ZM363.816,40.165l8.055,4.65v9.3l-8.055-4.65Zm49.89,48.125v9.3l-8.058-4.653v-9.3ZM405.647,102.6V93.3l8.058,4.653v9.3Zm16.421.18v9.3l-8.055-4.65v-9.3ZM397.281,97.77v-9.3l8.055,4.65v9.3Zm0-9.662v-9.3l8.055,4.65v9.3Zm24.788,5.012v9.3l-8.055-4.65v-9.3Zm8.369,14.489v9.3l-8.058-4.653v-9.3Zm0,9.662v9.3l-8.058-4.65v-9.3Zm-8.369,4.471-8.055-4.65v-9.3l8.055,4.65Zm-8.364-4.83-8.058-4.653v-9.3l8.058,4.65Zm-8.369-4.832-8.055-4.65v-9.3l8.055,4.65ZM388.915,92.937v-9.3l8.058,4.65v9.3Zm0-9.659v-9.3l8.058,4.65v9.3Zm41.523,14.671v9.3l-8.058-4.65V93.3Zm8.363,14.489v9.3l-8.055-4.653v-9.3Zm0,9.662v9.3l-8.055-4.65v-9.3Zm-49.887-19.5V93.3l8.058,4.65v9.3Zm-8.366-14.492v-9.3l8.055,4.65v9.3Zm0-9.659v-9.3L388.6,73.8v9.3Zm8.366-4.832v-9.3l8.058,4.65v9.3Zm8.366-4.471,8.055,4.65v9.3l-8.055-4.65Zm8.366,4.83,8.058,4.653v9.3l-8.058-4.65Zm8.366,4.83,8.055,4.653v9.3l-8.055-4.65Zm8.366,4.83,8.058,4.653v9.3l-8.058-4.653Zm8.366,4.832,8.055,4.65v9.3l-8.055-4.65Zm8.055,14.312v9.3l-8.055-4.65v-9.3Zm8.369,14.492v9.3l-8.058-4.653v-9.3Zm0,9.659v9.3l-8.058-4.65v-9.3ZM380.548,97.77v-9.3L388.6,93.12v9.3Zm-8.366-14.492v-9.3l8.058,4.65v9.3Zm0-9.659v-9.3l8.058,4.653v9.3Zm8.366-4.832v-9.3l8.055,4.65v9.3Zm0-9.659v-9.3l8.055,4.653v9.3Zm8.366-4.471,8.058,4.65v9.3l-8.058-4.65Zm8.366,4.83,8.055,4.65v9.3l-8.055-4.65Zm8.366,4.83,8.058,4.65v9.3l-8.058-4.653Zm8.366,4.83,8.055,4.65v9.3l-8.055-4.65Zm8.366,4.83,8.058,4.653v9.3l-8.058-4.65Zm8.366,4.832,8.055,4.65v9.3l-8.055-4.65Zm8.366,4.83,8.058,4.65v9.3l-8.058-4.65Zm8.058,14.309v9.3l-8.058-4.65V93.3Zm0,9.662v9.3l-8.058-4.65v-9.3Zm8.364,14.492v9.3l-8.055-4.65v-9.3Zm0,18.96-8.055-4.65v-9.3l8.055,4.65Zm-16.733-9.3v9.3l-8.055-4.65v-9.3Zm-8.363,4.473-8.058-4.653v-9.3l8.058,4.65Zm-8.369-4.832-8.055-4.65v-9.3l8.055,4.65Zm-8.364-4.83-8.058-4.65v-9.3l8.058,4.653Zm-8.369-4.83-8.055-4.65v-9.3l8.055,4.65Zm-8.364-4.83-8.058-4.65v-9.3l8.058,4.65Zm-8.369-4.83-8.055-4.65v-9.3l8.055,4.65ZM372.182,92.94v-9.3l8.058,4.653v9.3Zm-8.366-14.492v-9.3l8.055,4.65v9.3Zm0-9.659v-9.3l8.055,4.65v9.3Zm8.366-4.832v-9.3l8.058,4.653v9.3Zm0-9.659v-9.3l8.058,4.653v9.3Zm83.352,57.782-8.055-4.65v-9.3l8.055,4.65Zm0,9.659-8.055-4.65v-9.3l8.055,4.65Zm0,28.984-8.055-4.65v-9.3l8.055,4.65Zm-8.364-4.83-8.058-4.65v-9.3l8.058,4.65Zm0,.359v9.3l-8.058-4.653v-9.3Zm-8.369,4.471-8.055-4.65v-9.3l8.055,4.653Zm-8.363-4.83-8.058-4.65v-9.3l8.058,4.653Zm-8.369-4.83-8.055-4.65v-9.3l8.055,4.65Zm-8.364-4.83-8.058-4.65v-9.3l8.058,4.65Zm-8.369-4.83-8.055-4.653v-9.3l8.055,4.65Zm-8.364-4.83-8.058-4.653v-9.3l8.058,4.653Zm-8.369-4.832-8.055-4.65v-9.3l8.055,4.653Zm-8.364-4.83-8.058-4.65v-9.3l8.058,4.65ZM372.182,102.6V93.3l8.058,4.65v9.3Zm-8.366-23.792,8.055,4.65v9.3l-8.055-4.65Zm0-28.983,8.055,4.653v9.3l-8.055-4.65Zm91.719,110.56-8.055-4.65v-9.3l8.055,4.65Zm-91.719-52.952v-9.3l8.055,4.65v9.3Z" transform="translate(-363.507 -39.626)" fill="#828cc0"/></g><g transform="translate(0.784 20.809)"><path d="M453.72,117.646a.628.628,0,0,0,.252-.053.622.622,0,0,0,.314-.819c-.589-1.329-5.842-13.019-8.922-14.887-1.649-1-3.172.438-4.516,1.7-1.366,1.287-2.252,2.033-3.043,1.523-3.1-1.991-5.921-9.09-8.644-15.953-2.914-7.357-5.671-14.3-9.1-16.531-1.851-1.2-3.629.4-5.2,1.812s-2.7,2.319-3.671,1.708c-1.944-1.217-3.528-5.856-5.205-10.767-2.474-7.247-5.278-15.459-10.588-17.594a8.153,8.153,0,0,0-9.34,1.795c-2.356,2.207-4.165,5.511-5.915,8.706-3.267,5.966-5.5,9.471-9,7.853-2.533-1.17-5.3-7.511-6.151-9.856a.621.621,0,0,0-1.167.424c.132.365,3.279,8.933,6.8,10.56,2.2,1.015,4.2.533,6.131-1.47a33.846,33.846,0,0,0,4.482-6.914c3.411-6.226,6.936-12.666,13.7-9.945,4.782,1.921,7.488,9.847,9.875,16.842,1.829,5.349,3.4,9.968,5.721,11.418,1.843,1.153,3.607-.435,5.163-1.837,1.641-1.478,2.709-2.331,3.691-1.694,3.1,2.014,5.907,9.1,8.624,15.947,2.922,7.371,5.685,14.335,9.126,16.542,1.666,1.069,3.206-.384,4.566-1.666,1.315-1.24,2.235-2.017,3.021-1.543,2.325,1.408,6.874,10.82,8.428,14.326A.623.623,0,0,0,453.72,117.646Z" transform="translate(-363.787 -47.045)" fill="#fd963d"/></g><g transform="translate(1.54 29.661)"><path d="M387.925,95.374l14.877,8.588V76.7l-14.876-8.589Z" transform="translate(-320.981 -17.872)" fill="#fd963d"/><path d="M379.968,99.437l14.876,8.588V67.314l-14.876-8.589Z" transform="translate(-335.339 -34.818)" fill="#fde07e"/><path d="M364.056,80.377l14.877,8.589V63.6L364.057,55.01Z" transform="translate(-364.056 -41.524)" fill="#fde07e"/><path d="M372.012,101.937l14.876,8.589V58.79L372.013,50.2Z" transform="translate(-349.698 -50.201)" fill="#fd963d"/></g></g><g transform="translate(3.687 16.375)"><path d="M369.486,34l-4.715,1.349c3.495,7.4,9.062,14.1,15.319,17.712v-6.8C375.757,43.764,371.9,39.125,369.486,34Z" transform="translate(-360.951 -6.256)" fill="#ffd438"/><path d="M382.487,37.517c-1.986,4.412-6.728,5.6-12.254,2.409v6.8c7.979,4.608,14.831,2.894,17.7-3.478Z" transform="translate(-351.094 0.084)" fill="#fec08a"/><path d="M381.621,33.516v-6.8c-7.977-4.605-14.828-2.892-17.7,3.481l5.444,5.73C371.355,31.513,376.1,30.327,381.621,33.516Z" transform="translate(-362.481 -24.111)" fill="#fdd85e"/><path d="M369.3,37.252a12.79,12.79,0,0,1,1-5.242l-5.444-5.73a18.4,18.4,0,0,0-1.442,7.573,37.064,37.064,0,0,0,3.82,15.44l4.715-1.349A25.677,25.677,0,0,1,369.3,37.252Z" transform="translate(-363.409 -20.195)" fill="#fcd03e"/><path d="M380.84,44.1l4.715-1.349c-3.495-7.4-9.062-14.1-15.322-17.714v6.8C374.566,34.342,378.423,38.981,380.84,44.1Z" transform="translate(-351.094 -22.435)" fill="#fd963d"/><path d="M376.66,43.4a12.741,12.741,0,0,1-1,5.242l5.447,5.73a18.4,18.4,0,0,0,1.442-7.573,37.065,37.065,0,0,0-3.82-15.44L374.015,32.7A25.678,25.678,0,0,1,376.66,43.4Z" transform="translate(-344.269 -11.037)" fill="#fdab64"/><g transform="translate(43.548 19.084)"><g opacity="0.4"><path d="M458.617,115.325l-.087-.05L378.936,69.322V30.915l.087.05,79.594,45.952Zm-79.566-46.07,79.451,45.87V76.985l-79.451-45.87Z" transform="translate(-378.936 -30.915)" fill="#cddcfb"/><g transform="translate(0.03 6.429)"><rect width="0.115" height="91.873" transform="translate(0 0.099) rotate(-60.001)" fill="#cddcfb"/></g><g transform="translate(0.03 12.808)"><rect width="0.115" height="91.873" transform="translate(0 0.099) rotate(-60.001)" fill="#cddcfb"/></g><g transform="translate(0.03 19.187)"><rect width="0.115" height="91.873" transform="translate(0 0.099) rotate(-60.001)" fill="#cddcfb"/></g><g transform="translate(0.03 25.566)"><rect width="0.115" height="91.873" transform="translate(0 0.099) rotate(-60.001)" fill="#cddcfb"/></g><g transform="translate(0.03 31.945)"><rect width="0.115" height="91.873" transform="translate(0 0.099) rotate(-60.001)" fill="#cddcfb"/></g><g transform="translate(71.61 41.441)"><rect width="0.115" height="38.274" fill="#cddcfb"/></g><g transform="translate(63.653 36.848)"><rect width="0.115" height="38.274" fill="#cddcfb"/></g><g transform="translate(55.697 32.254)"><rect width="0.115" height="38.274" fill="#cddcfb"/></g><g transform="translate(47.74 27.661)"><rect width="0.115" height="38.274" fill="#cddcfb"/></g><g transform="translate(39.783 23.067)"><rect width="0.115" height="38.274" fill="#cddcfb"/></g><g transform="translate(31.827 18.474)"><rect width="0.115" height="38.274" fill="#cddcfb"/></g><g transform="translate(23.871 13.88)"><rect width="0.115" height="38.274" fill="#cddcfb"/></g><g transform="translate(15.914 9.287)"><rect width="0.115" height="38.274" fill="#cddcfb"/></g><g transform="translate(7.958 4.693)"><rect width="0.115" height="38.274" fill="#cddcfb"/></g></g><path d="M386.913,69.713l-7.957-4.593V33.225l7.957,4.594Z" transform="translate(-378.898 -26.746)" fill="#fde07e"/><path d="M391.169,64.033l-7.957-4.594V40.19l7.956,4.594Z" transform="translate(-371.219 -14.176)" fill="#fdab64"/><path d="M408.19,73.86l-7.957-4.594V50.017l7.956,4.594Z" transform="translate(-340.501 3.558)" fill="#fdab64"/><path d="M399.679,61.045l-7.957-4.593V49.482l7.957,4.594Z" transform="translate(-355.86 2.593)" fill="#fdab64"/><path d="M412.445,74.192,404.489,69.6V53.651l7.956,4.593Z" transform="translate(-332.822 10.117)" fill="#ffd438"/><path d="M395.424,70.538l-7.956-4.594V40.4L395.424,45Z" transform="translate(-363.54 -13.791)" fill="#fde07e"/><path d="M403.935,80.9l-7.957-4.594V42.3l7.957,4.593Z" transform="translate(-348.181 -10.375)" fill="#fde07e"/></g></g><g transform="translate(102.612 151.192)"><path d="M416.55,95.334l-8.933,12.708c-8.546-10.63-11.474-24.939-6.541-31.957,3.287-4.675,8.9-5.177,15.473-1.383Z" transform="translate(-398.681 -72.179)" fill="#85d161"/><g transform="translate(8.937 23.155)"><path d="M410.8,80.435l8.933,23.021c-5.691.51-12.175-3.234-17.866-10.313Z" transform="translate(-401.867 -80.435)" fill="#d2ed1b"/></g><g transform="translate(17.87 10.445)"><path d="M405.052,88.614,413.985,75.9c8.546,10.63,11.474,24.939,6.541,31.956a8.344,8.344,0,0,1-6.541,3.775Z" transform="translate(-405.052 -75.903)" fill="#fdab64"/></g><g transform="translate(17.87 2.524)"><path d="M405.052,93.71V73.079A31.4,31.4,0,0,1,413.985,81Z" transform="translate(-405.052 -73.079)" fill="#fde07e"/></g></g></g><g transform="translate(156.105 83.052)"><g transform="translate(5.674)"><g style="isolation:isolate"><g transform="translate(0 8.356)" style="isolation:isolate"><path d="M415.172,50.59l-6.117,3.556c-2.816,1.635-4.56,5.113-4.574,10.055-.028,9.954,6.97,22.073,15.63,27.074l6.117-3.556c-8.661-5-15.659-17.12-15.63-27.071C410.611,55.7,412.358,52.225,415.172,50.59Z" transform="translate(-404.48 -50.59)" fill="#251b29"/><g clip-path="url(#c)"><g style="isolation:isolate"><path d="M414.855,71.555,420.972,68a28.4,28.4,0,0,1-7.463-6.482l-6.117,3.554a28.424,28.424,0,0,0,7.463,6.484Z" transform="translate(-399.225 -30.87)" fill="#251b29"/><path d="M412.647,82.39l6.117-3.554c-4.883-5.876-8.187-13.746-8.167-20.589a14.865,14.865,0,0,1,1.265-6.327l-6.12,3.556A14.9,14.9,0,0,0,404.48,61.8c-.02,6.846,3.284,14.716,8.167,20.589Z" transform="translate(-404.48 -48.19)" fill="#251b29"/><path d="M404.93,57.877l6.12-3.556a8.318,8.318,0,0,1,3.31-3.73l-6.117,3.556a8.339,8.339,0,0,0-3.312,3.73Z" transform="translate(-403.668 -50.59)" fill="#251b29"/></g></g></g><g transform="translate(15.631 45.484)" style="isolation:isolate"><path d="M421.21,68.478l6.117-3.556c-2.85,1.658-6.8,1.422-11.157-1.094l-6.117,3.556C414.412,69.9,418.358,70.133,421.21,68.478Z" transform="translate(-410.053 -63.828)" fill="#251b29"/><g clip-path="url(#d)"><g style="isolation:isolate"><path d="M421.21,68.478l6.117-3.556c-2.85,1.658-6.8,1.422-11.157-1.094l-6.117,3.556c4.359,2.516,8.3,2.749,11.157,1.094Z" transform="translate(-410.053 -63.828)" fill="#251b29"/></g></g></g><g transform="translate(0.555)" style="isolation:isolate"><path d="M410.8,49.053l-6.117,3.554c3.884-2.255,9.261-1.938,15.2,1.489l6.117-3.556C420.056,47.112,414.679,46.8,410.8,49.053Z" transform="translate(-404.678 -47.611)" fill="#251b29"/><g clip-path="url(#e)"><g style="isolation:isolate"><path d="M419.874,54.1l6.117-3.556c-5.935-3.427-11.311-3.744-15.2-1.486l-6.117,3.554c3.884-2.255,9.261-1.938,15.2,1.489Z" transform="translate(-404.678 -47.611)" fill="#251b29"/></g></g></g><g transform="translate(15.751 2.929)" style="isolation:isolate"><path d="M425.152,102.771l6.117-3.554c3.834-2.227,6.21-6.964,6.229-13.7.039-13.549-9.491-30.055-21.285-36.865L410.1,52.211c11.794,6.807,21.324,23.315,21.285,36.865C431.361,95.807,428.986,100.544,425.152,102.771Z" transform="translate(-410.096 -48.655)" fill="#251b29"/><g clip-path="url(#f)"><g style="isolation:isolate"><path d="M415.464,73.507l6.117-3.554a11.339,11.339,0,0,0,4.51-5.082l-6.12,3.554a11.321,11.321,0,0,1-4.507,5.082Z" transform="translate(-400.409 -19.39)" fill="#251b29"/><path d="M423.12,92.01l6.12-3.554a20.235,20.235,0,0,0,1.719-8.616c.028-9.32-4.473-20.037-11.123-28.038l-6.117,3.556c6.65,8,11.149,18.718,11.123,28.038a20.22,20.22,0,0,1-1.722,8.613Z" transform="translate(-403.558 -42.976)" fill="#251b29"/><path d="M420.257,61.038l6.117-3.556a38.709,38.709,0,0,0-10.161-8.826L410.1,52.211a38.658,38.658,0,0,1,10.161,8.826Z" transform="translate(-410.096 -48.655)" fill="#251b29"/></g></g></g></g></g><g transform="translate(38.458 51.085)"><g style="isolation:isolate"><g transform="translate(4.835)" style="isolation:isolate"><path d="M430.7,81.826l-11.2-16-1.61,1.13,11.2,16Z" transform="translate(-417.893 -65.825)" fill="#e9ecf5"/><g clip-path="url(#g)"><g style="isolation:isolate"><path d="M430.1,81.826l-11.2-16-.673.471,11.2,16,.673-.471Z" transform="translate(-417.29 -65.825)" fill="#e9ecf5"/><path d="M430.032,81.994l-11.2-16c-.25.177-.564.4-.937.659l11.2,16,.937-.656Z" transform="translate(-417.893 -65.522)" fill="#e9ecf5"/></g></g></g><g transform="translate(0 1.13)" style="isolation:isolate"><path d="M416.169,69.613l11.2,16,.432-.3c.892-.623,2.861-2,4.4-3.082l-11.2-16c-1.543,1.08-3.514,2.457-4.4,3.082Z" transform="translate(-416.169 -66.228)" fill="#e9ecf5"/><g clip-path="url(#h)"><g style="isolation:isolate"><path d="M430.97,82.226l-11.2-16-2.914,2.039,11.2,16,2.914-2.039Z" transform="translate(-414.933 -66.228)" fill="#fff"/><path d="M429.292,82.953l-11.2-16L416.6,68l-.432.3,11.2,16,.432-.3,1.489-1.043Z" transform="translate(-416.169 -64.916)" fill="#e9ecf5"/></g></g></g></g></g><g transform="translate(43.991 60.358)"><g style="isolation:isolate"><g transform="translate(7.929)" style="isolation:isolate"><path d="M444.772,99.351l-21.159-30.22-2.645,1.851L442.13,101.2Z" transform="translate(-420.969 -69.131)" fill="#67c53a"/><g clip-path="url(#i)"><g style="isolation:isolate"><path d="M443.782,99.351l-21.159-30.22-1.105.774,21.161,30.22,1.1-.774Z" transform="translate(-419.978 -69.131)" fill="#67c53a"/><path d="M443.67,99.627l-21.161-30.22c-.407.286-.926.648-1.54,1.077L442.13,100.7l1.54-1.077Z" transform="translate(-420.969 -68.633)" fill="#67c53a"/></g></g></g><g transform="translate(0 1.851)" style="isolation:isolate"><path d="M418.142,75.344l21.161,30.22.71-.5c1.458-1.024,4.692-3.287,7.219-5.057l-21.161-30.22-7.219,5.057Z" transform="translate(-418.142 -69.791)" fill="#85d161"/><g transform="translate(0 3.349)"><g style="isolation:isolate"><path d="M442.453,101.2,421.292,70.985c-.99.693-1.857,1.3-2.44,1.708l-.71.5L439.3,103.41l.71-.5,2.44-1.711Z" transform="translate(-418.142 -70.985)" fill="#67c53a"/></g></g></g></g></g><path d="M421.208,89.057c-8.661-5-15.659-17.12-15.63-27.071s7.073-13.964,15.734-8.964,15.656,17.12,15.628,27.071-7.07,13.964-15.731,8.964Z" transform="translate(-396.826 -41.727)" fill="#15d9fd" opacity="0.3"/><path d="M405.577,61.981c-.028,9.951,6.97,22.07,15.63,27.074,5.306,3.06,10,2.74,12.854-.252a13.966,13.966,0,0,1-7.382-2.143c-8.661-5-15.659-17.12-15.63-27.074.011-3.854,1.074-6.821,2.878-8.711C408.976,51.053,405.6,55.1,405.577,61.981Z" transform="translate(-396.826 -41.721)" fill="#15d9fd" opacity="0.3"/><g transform="translate(0 3.556)"><path d="M445.167,88.673c-.039,13.552-9.631,19.016-21.425,12.209s-21.324-23.315-21.285-36.867S412.088,45,423.882,51.808,445.206,75.123,445.167,88.673Zm-21.405,5.691c8.661,5,15.7.987,15.731-8.967s-6.97-22.07-15.63-27.071-15.7-.987-15.731,8.964,6.97,22.073,15.631,27.074Z" transform="translate(-402.457 -48.878)" fill="#372b3d"/></g></g><g transform="translate(46.059)"><g transform="translate(9.168)"><path d="M444.9,99.386,419.5,77.731l-16.8-42.9-36.21-14.711L367.352,18l37.122,15.082,16.954,43.278L445.3,96.716,473.857,84.43l38.177,2.383,31.461-1.619.118,2.29L512.021,89.11l-.065,0-37.7-2.353Z" transform="translate(-366.489 -17.999)" fill="#fd963d"/><g transform="translate(33.639 12.554)"><path d="M378.483,24.685a6.845,6.845,0,0,0,3.094,5.36c1.711.987,3.1.185,3.1-1.787a6.846,6.846,0,0,0-3.094-5.363C379.869,21.912,378.483,22.711,378.483,24.685Z" transform="translate(-378.483 -22.475)" fill="#fc8116"/><path d="M384.571,39.611a6.836,6.836,0,0,0,3.094,5.36c1.711.987,3.1.188,3.1-1.787a6.841,6.841,0,0,0-3.1-5.36C385.957,36.837,384.571,37.636,384.571,39.611Z" transform="translate(-367.496 4.462)" fill="#fc8116"/><path d="M393.141,47.545a6.836,6.836,0,0,0,3.1,5.36c1.708.987,3.094.188,3.094-1.787a6.841,6.841,0,0,0-3.094-5.36C394.527,44.771,393.141,45.57,393.141,47.545Z" transform="translate(-352.03 18.781)" fill="#fc8116"/><path d="M428.188,43.065a6.836,6.836,0,0,0,3.1,5.36c1.708.987,3.094.188,3.094-1.787a6.841,6.841,0,0,0-3.094-5.36C429.574,40.291,428.188,41.09,428.188,43.065Z" transform="translate(-288.782 10.696)" fill="#fc8116"/><path d="M403.739,42.737a6.841,6.841,0,0,0,3.1,5.36c1.708.987,3.094.188,3.094-1.787a6.836,6.836,0,0,0-3.094-5.36C405.125,39.963,403.739,40.762,403.739,42.737Z" transform="translate(-332.904 10.104)" fill="#fc8116"/><path d="M417.188,43.847a6.832,6.832,0,0,0,3.1,5.36c1.708.987,3.094.188,3.094-1.787a6.845,6.845,0,0,0-3.094-5.36C418.574,41.073,417.188,41.872,417.188,43.847Z" transform="translate(-308.633 12.107)" fill="#fc8116"/></g></g><g transform="translate(0 21.281)"><g transform="translate(0 1.993)"><path d="M475.943,82.9,441.436,44.549l-26.3,4.749L393.686,28.787l-30,6.217-.465-2.245L394.4,26.3l21.482,20.537,26.4-4.769,33.88,37.656,36.116-30.293,36.878-9.715.584,2.217-36.382,9.584Z" transform="translate(-363.22 -26.297)" fill="#67c53a"/></g><g transform="translate(28.657)"><path d="M390.474,33.406a6.846,6.846,0,0,0,3.094,5.363c1.711.984,3.1.185,3.1-1.789a6.84,6.84,0,0,0-3.1-5.36C391.859,30.633,390.474,31.435,390.474,33.406Z" transform="translate(-342.694 -15.46)" fill="#529d2e"/><path d="M402.348,46.7a6.841,6.841,0,0,0,3.094,5.36c1.708.987,3.1.188,3.1-1.787a6.843,6.843,0,0,0-3.1-5.36C403.734,43.923,402.348,44.722,402.348,46.7Z" transform="translate(-321.265 8.523)" fill="#529d2e"/><path d="M414.981,35.778a6.832,6.832,0,0,0,3.1,5.36c1.708.987,3.093.188,3.093-1.787a6.845,6.845,0,0,0-3.093-5.36C416.367,33,414.981,33.8,414.981,35.778Z" transform="translate(-298.466 -11.182)" fill="#529d2e"/><path d="M428.188,32.162a6.841,6.841,0,0,0,3.1,5.36c1.708.987,3.094.188,3.094-1.787a6.836,6.836,0,0,0-3.094-5.36C429.574,29.388,428.188,30.187,428.188,32.162Z" transform="translate(-274.632 -17.707)" fill="#529d2e"/><path d="M380.659,34.572a6.845,6.845,0,0,0,3.094,5.36c1.711.987,3.1.185,3.1-1.787a6.841,6.841,0,0,0-3.1-5.363C382.045,31.8,380.659,32.6,380.659,34.572Z" transform="translate(-360.406 -13.359)" fill="#529d2e"/><path d="M373.438,27.8a6.846,6.846,0,0,0,3.094,5.363c1.711.984,3.1.185,3.1-1.787a6.841,6.841,0,0,0-3.1-5.363C374.824,25.022,373.438,25.824,373.438,27.8Z" transform="translate(-373.438 -25.586)" fill="#529d2e"/></g></g></g><g transform="translate(0 123.52)"><ellipse cx="36.611" cy="21.138" rx="36.611" ry="21.138" transform="translate(2.754 10.938)" fill="#f6f6f6" style="mix-blend-mode:multiply;isolation:isolate"/><g style="isolation:isolate"><g transform="translate(48.612 5.837)"><path d="M373.772,64.12l-.029,10.38-9.612,5.586.029-10.38Z" transform="translate(-364.131 -64.12)" fill="#0d889f"/></g><g transform="translate(48.641 5.838)"><path d="M373.753,64.121c4.457,2.572,7.244,5.351,8.888,8.866l-13.148,2.042a12.688,12.688,0,0,0-5.351-5.323Z" transform="translate(-364.141 -64.121)" fill="#85d161"/></g><g transform="translate(53.963 14.705)"><path d="M379.216,67.282l-.029,10.38L366.039,79.7l.03-10.38Z" transform="translate(-366.039 -67.282)" fill="#a89317"/></g><g transform="translate(48.613 11.422)" style="isolation:isolate"><g clip-path="url(#j)"><g style="isolation:isolate"><path d="M369.51,71.435l-.031,10.38a12.662,12.662,0,0,0-5.349-5.323l.028-10.38a12.687,12.687,0,0,1,5.351,5.323Z" transform="translate(-364.131 -66.112)" fill="#529d2e"/></g></g></g><g transform="translate(53.962 16.745)" style="isolation:isolate"><g clip-path="url(#k)"><g style="isolation:isolate"><path d="M366.792,71.174l-.031,10.38a7.373,7.373,0,0,0-.724-3.164l.031-10.38a7.372,7.372,0,0,1,.724,3.164Z" transform="translate(-366.038 -68.01)" fill="#fcd03e"/></g></g></g><g transform="translate(13.533 7.932)" style="isolation:isolate"><path d="M351.623,87.11l.031-10.38c.008-3.032,2-6.058,5.977-8.372,8.01-4.653,21.041-4.653,29.1,0l-.028,10.38c-8.063-4.653-21.094-4.653-29.1,0C353.623,81.051,351.632,84.078,351.623,87.11Z" transform="translate(-351.623 -64.868)" fill="#fd963d"/><g clip-path="url(#l)"><g style="isolation:isolate"><path d="M386.732,68.357l-.028,10.38c-8.063-4.653-21.094-4.653-29.1,0-3.98,2.311-5.971,5.337-5.98,8.369l.031-10.38c.008-3.032,2-6.058,5.977-8.372,8.01-4.653,21.041-4.653,29.1,0Z" transform="translate(-351.623 -64.868)" fill="#fd963d"/></g></g></g><g transform="translate(0.031)"><path d="M405.031,67.877l-9.612,5.584c-8.061-4.653-21.091-4.653-29.1,0-5.357,3.116-7.113,7.525-5.273,11.5L348.01,86.983c-4.939-10.551,5.808-21.4,24.011-24.224C384.139,60.874,396.124,62.731,405.031,67.877Z" transform="translate(-346.809 -62.039)" fill="#fdab64"/></g><g transform="translate(0 19.716)" style="isolation:isolate"><g clip-path="url(#m)"><g style="isolation:isolate"><path d="M348.029,74.3,348,84.677a12.193,12.193,0,0,1-1.2-5.228l.031-10.38a12.151,12.151,0,0,0,1.2,5.228Z" transform="translate(-346.798 -69.069)" fill="#fd963d"/></g></g></g><g transform="translate(1.202 22.918)"><path d="M360.293,70.211l-.029,10.38-13.037,2.025.029-10.38Z" transform="translate(-347.227 -70.211)" fill="#0e8fa7"/></g><g transform="translate(1.231 22.918)"><path d="M374.916,78.664l-3.455,7.559a44.688,44.688,0,0,1-15.431-5.065,20.84,20.84,0,0,1-8.793-8.922l13.036-2.025a12.639,12.639,0,0,0,5.368,5.36A26.836,26.836,0,0,0,374.916,78.664Z" transform="translate(-347.237 -70.211)" fill="#e9ecf5"/></g><g transform="translate(1.203 24.943)" style="isolation:isolate"><g clip-path="url(#n)"><g style="isolation:isolate"><path d="M371.479,84.92l-.028,10.38a44.669,44.669,0,0,1-15.431-5.065,20.809,20.809,0,0,1-8.793-8.922l.028-10.38a20.84,20.84,0,0,0,8.793,8.922,44.689,44.689,0,0,0,15.431,5.065Z" transform="translate(-347.227 -70.933)" fill="#d4dbef"/></g></g></g><g transform="translate(25.427 19.934)" style="isolation:isolate"><g clip-path="url(#o)"><g style="isolation:isolate"><path d="M398.778,69.147l-.028,10.38c-.025,8.694-10.024,16.637-25.211,19a55.769,55.769,0,0,1-17.675,0l.028-10.38a55.788,55.788,0,0,0,17.678,0c15.187-2.359,25.183-10.3,25.208-19Z" transform="translate(-355.864 -69.147)" fill="#fcd03e"/></g></g></g><g transform="translate(25.455 14.704)"><path d="M397.56,67.282c4.939,10.554-5.806,21.4-24.008,24.227a55.788,55.788,0,0,1-17.678,0l3.455-7.559c6.86,1.052,14.467.022,19.826-3.094,5.377-3.122,7.124-7.55,5.256-11.533Z" transform="translate(-355.874 -67.282)" fill="#fde07e"/></g></g></g><g transform="translate(45.002 143.511)"><ellipse cx="10.004" cy="5.776" rx="10.004" ry="5.776" transform="translate(24.052 47.928)" fill="#bcc5df" opacity="0.8" style="mix-blend-mode:multiply;isolation:isolate"/><path d="M365.773,89.54c-3.907,2.255-3.907,5.912,0,8.167a15.644,15.644,0,0,0,14.15,0c3.907-2.255,3.907-5.912,0-8.167A15.626,15.626,0,0,0,365.773,89.54Z" transform="translate(-362.843 -35.458)" fill="#bcc5df" opacity="0.8" style="mix-blend-mode:multiply;isolation:isolate"/><g transform="translate(25.383 6.999)"><g transform="translate(0 4.552)"><g transform="translate(2.363)"><path d="M375.647,83.292c.558-1.3,1.086-3.012,1.818-5.147a5.779,5.779,0,0,0,.32-1.8,3.48,3.48,0,0,0-.474-1.7.985.985,0,0,0-.6-.581.92.92,0,0,0-.712.247,6.429,6.429,0,0,0-2.188,3.941c-.264,1.363-.715,2.687-.968,4.058a4.093,4.093,0,0,0-.109.8c.031,1.276.864,2.053,1.722,1.669A2.972,2.972,0,0,0,375.647,83.292Z" transform="translate(-372.736 -71.896)" fill="#fff"/><path d="M378.463,87.889a38.254,38.254,0,0,0-2.948,2.855,7.255,7.255,0,0,0-.769.889,1.441,1.441,0,0,0-.37.948c.076.435,1.01.538,1.366.558a2.98,2.98,0,0,0,1.4-.247,1.774,1.774,0,0,0,.9-.914,2.581,2.581,0,0,1,.732-1.043c.334-.224.8-.278,1.015-.62a1.111,1.111,0,0,0,.126-.6c0-.387-.112-.771-.112-1.153a2.789,2.789,0,0,0-.031-.864.677.677,0,0,0-.609-.381,1.021,1.021,0,0,0-.707.28Z" transform="translate(-369.79 -47.961)" fill="#bcc5df"/><path d="M377.792,87.159a37.789,37.789,0,0,0-3.43,2.252,7.2,7.2,0,0,0-.92.729A1.436,1.436,0,0,0,372.9,91c-.008.44.892.718,1.234.8a2.963,2.963,0,0,0,1.419.017,1.747,1.747,0,0,0,1.06-.726,2.557,2.557,0,0,1,.914-.886c.37-.16.841-.126,1.113-.421a1.127,1.127,0,0,0,.236-.564c.073-.381.034-.777.107-1.153a2.849,2.849,0,0,0,.132-.853.675.675,0,0,0-.527-.491,1.028,1.028,0,0,0-.749.143Z" transform="translate(-372.438 -49.062)" fill="#bcc5df"/><path d="M378.34,96.469a15.749,15.749,0,0,0-.5-4.294v-.014a3.517,3.517,0,0,0,.348-1.38c.028-.827-.059-2-.045-2.833.031-1.714,1.492-7.278-2.033-8.206-.53-.14-1.377-1.147-1.809-.763a2.752,2.752,0,0,0-.553,1.242,15.591,15.591,0,0,0-.208,1.739,13.244,13.244,0,0,0,.151,3.5c.289,1.674.339,5.713,1.212,7.511h0c.421,2,.673,9.154.679,9.177.1.482.421,1,2.075.878.449-.034.654-1.352.712-1.705A37.367,37.367,0,0,0,378.34,96.469Z" transform="translate(-371.392 -63.168)" fill="#0f1317"/><path d="M380.467,79.475l-.2-.28a7.83,7.83,0,0,1-2.617.348c-1.955.194-2.112.536-3.38-.348a9.9,9.9,0,0,0,.006,2.908c-.09,1.537,1.338,1.694,1.377,2.507.1,1.885.266,5.607.513,7.477a7.368,7.368,0,0,0,.331,1.545c.028.634.062,1.265.1,1.9.261,4.726.21,7.132.581,8.125.306.822,1.383.78,2.087.564a1.471,1.471,0,0,0,.783-.533,2.157,2.157,0,0,0,.286-.886,23.705,23.705,0,0,0-.151-8.5V94.3a18.3,18.3,0,0,1,.463-5.015A17.233,17.233,0,0,0,380.467,79.475Z" transform="translate(-370.19 -62.622)" fill="#1c232a"/><path d="M376.514,78.171l-.006.006c-.064.491-.1.984-.123,1.475C376.41,79.158,376.452,78.662,376.514,78.171Z" transform="translate(-366.15 -64.47)" fill="#f3a984"/><path d="M376.4,78.7c-.014.3-.02.6-.02.9l.017-.008C376.387,79.3,376.387,79,376.4,78.7Z" transform="translate(-366.163 -63.517)" fill="#f3a984"/><path d="M381.555,87.177c.025-.494.067-.99.129-1.481l-.006.006c.081-.628.2-1.256.337-1.871.252-1.1.541-1.974.841-3.06.165-.606.533-1.523.581-1.958.118-1-.46-1.767-1.753-2.642a19.013,19.013,0,0,0-4.322-1.9c-2.39-.746-2.723.123-3.41,2.031-.639,1.773-.454,4.7-.168,6.583a25.955,25.955,0,0,1,.278,3.021,12.328,12.328,0,0,1-.213,2.549c2.089,1.481,4.939,1.105,7.323.527a2.144,2.144,0,0,0,.426-.129A13.859,13.859,0,0,1,381.555,87.177Z" transform="translate(-371.32 -71.995)" fill="#f4f4f4"/><path d="M375.66,78.044c-.471,1.335.233,2.667.233,4,.064,1.736,0,3.489-.109,5.242.623-.093,1.237-.224,1.82-.365a2.145,2.145,0,0,0,.426-.129,13.852,13.852,0,0,1-.042-1.672c.025-.494.067-.99.129-1.481l-.006.006c.081-.628.2-1.256.337-1.871.252-1.1.541-1.974.841-3.06.165-.606.533-1.523.581-1.958a2.011,2.011,0,0,0-.541-1.616C377.9,75.943,376.282,76.423,375.66,78.044Z" transform="translate(-367.753 -69.938)" fill="#d4e2fc"/><g transform="translate(4.454 4.738)"><path d="M375.87,85.481c-.261.219-.567.485-.822.7-.37-.581-.381-.628-.724-1.212a39.906,39.906,0,0,1,.962-10c.32.227.48.339.805.567A37.382,37.382,0,0,0,375.87,85.481Z" transform="translate(-374.324 -74.975)" fill="#1c232a"/></g><path d="M374.549,75.255a.218.218,0,0,0-.006.048,1.251,1.251,0,0,0,.1.311,3.642,3.642,0,0,0,.269.569.55.55,0,0,0,.236.244.445.445,0,0,0,.37-.05c.129-.073.365-.179.337-.339a2.947,2.947,0,0,0-.121-.415,1.5,1.5,0,0,0-.477-.785c-.283-.188-.485.1-.637.306A.408.408,0,0,0,374.549,75.255Z" transform="translate(-369.475 -70.596)" fill="#283032"/><path d="M378.085,76.545c.062,1.927-3.556,1.96-3.5.146.073-2.527.224-2.816,1.416-3.209a3.465,3.465,0,0,1,1.012-.2c1.257-.022.771.614.724,1.06C377.595,75.668,378.063,75.85,378.085,76.545Z" transform="translate(-369.405 -73.286)" fill="#f5a783"/><path d="M378.083,76.545c-.022-.7-.491-.878-.351-2.2.048-.446.533-1.083-.724-1.06a3.465,3.465,0,0,0-1.012.2c-1.175.387-1.341.676-1.414,3.108,1-.1,1.885-1.2,2.906-.544a1.821,1.821,0,0,1,.581.754A1.506,1.506,0,0,0,378.083,76.545Z" transform="translate(-369.402 -73.286)" fill="#ee9c76"/><path d="M377.491,74.4c-1.021-.656-1.9.449-2.906.544l0,.1c-.051,1.73,3.237,1.781,3.489.109A1.822,1.822,0,0,0,377.491,74.4Z" transform="translate(-369.405 -71.643)" fill="#f5a783"/><path d="M375.724,76.43c-.065.2-.337.278-.516.4-.079.05-.216.154-.32.132s-.168-.16-.2-.247a5.425,5.425,0,0,1-.409-1.975.776.776,0,0,1,.2-.6.579.579,0,0,1,.592-.084c.2.087.247.477.177.656A1.541,1.541,0,0,0,375.724,76.43Z" transform="translate(-369.955 -71.981)" fill="#fff"/><path d="M374.783,76.225a4.586,4.586,0,0,0,.7.839c.1.084.171.188.3.146a4.9,4.9,0,0,0,2.191-1.991.922.922,0,0,0-.233-.76,3.681,3.681,0,0,0-.264-.331,4.352,4.352,0,0,1-.379.858A3.285,3.285,0,0,1,374.783,76.225Z" transform="translate(-369.042 -71.768)" fill="#fff"/></g><g transform="translate(4.728 14.195)"><path d="M375.186,78.7a4.357,4.357,0,0,0-.917.014c-.185.039.334.272.222.424-.171.236-.5.393-.46.679a2.6,2.6,0,0,0,.149.673,1.047,1.047,0,0,0,.429.527.538.538,0,0,0,.253.073.776.776,0,0,0,.179-.031l.993-.261a1.121,1.121,0,0,0,.213-.073.717.717,0,0,0,.222-.2,1.21,1.21,0,0,0,.177-1.007,1.16,1.16,0,0,0-.227-.5c-.1-.1-.289-.109-.424-.146A6.088,6.088,0,0,0,375.186,78.7Z" transform="translate(-372.769 -77.741)" fill="#ffbfa2"/><path d="M376.757,79.407l-.9-.67a1.666,1.666,0,0,0-.37-.222c-.107-.039-.219-.053-.325-.081s-.2-.059-.3-.076a1.593,1.593,0,0,0-.889.2,1,1,0,0,0-.323.2.182.182,0,0,0-.05.216.2.2,0,0,0,.1.062.712.712,0,0,0,.32.081c.132-.006.252-.081.387-.1a.676.676,0,0,1,.589.295c.143.179.23.4.356.592a.814.814,0,0,0,.53.4.888.888,0,0,0,.244-.006,1.322,1.322,0,0,0,.536-.171.68.68,0,0,0,.3-.367C377.012,79.6,376.888,79.505,376.757,79.407Z" transform="translate(-373.579 -78.347)" fill="#ffbfa2"/></g><path d="M376.684,79.2l-4.791-2.777.231-.154,4.791,2.777Z" transform="translate(-371.893 -67.894)" fill="#1c232a"/><path d="M373.832,77.263l2.026,6.184-.388-.259-1.869-5.77Z" transform="translate(-368.811 -66.108)" fill="#0f1317"/><path d="M378.71,85.289l-4.791-2.777-2.026-6.184,4.791,2.777Z" transform="translate(-371.893 -67.795)" fill="#0f1317"/><path d="M376.195,79.377c.2-.118-.516-.376-.6-.474-.2-.241-.157.149-.864.14a1.784,1.784,0,0,1-.609-.081c-.14-.053-.3-.14-.426-.059a.246.246,0,0,0-.07.306c-.191-.09-.224.266-.084.435.269.323-.21.376.353.808l-.107.07c.062.611,1.559.421,2.168.309A.756.756,0,0,0,376.195,79.377Z" transform="translate(-369.07 -63.291)" fill="#ffbfa2"/><g transform="translate(0.524 10.565)"><path d="M372.707,78.086c-.334.165-.51-.238-.365-.376s.676-.194.791.09C373.228,78.03,372.928,77.979,372.707,78.086Z" transform="translate(-371.7 -76.071)" fill="#ffbfa2"/><path d="M372.181,77.177c-.2.143-.051.53.056.536.062.006.129-.045.182-.067a.742.742,0,0,1,.429-.042.7.7,0,0,0,.185.025.152.152,0,0,0,.14-.1c.1-.261-.317-.409-.438-.443A.564.564,0,0,0,372.181,77.177Z" transform="translate(-372.08 -77.053)" fill="#ffbfa2"/><path d="M372.24,77.849c.163.157.219-.137.676-.062a.823.823,0,0,0,.182.02.152.152,0,0,0,.137-.1c.092-.266-.32-.4-.44-.435C372.226,77.125,371.94,77.56,372.24,77.849Z" transform="translate(-372.01 -76.715)" fill="#ffbfa2"/><path d="M372.33,77.953c.185.079.21-.011.561-.05.544-.062.345-.553-.3-.457-.039.008-.216.034-.264.05A.25.25,0,0,0,372.33,77.953Z" transform="translate(-371.901 -76.367)" fill="#ffbfa2"/></g></g><path d="M382.475,78.562a5.761,5.761,0,0,0-.367-1.789,3.5,3.5,0,0,0-1.069-1.4.984.984,0,0,0-.768-.32.917.917,0,0,0-.572.491,6.448,6.448,0,0,0-.578,4.471c.258,1.355.328,2.743.595,4.1a19.232,19.232,0,0,0-4.493,1.3,1.269,1.269,0,0,0-.578.474,1.355,1.355,0,0,0,.348,1.31,1.774,1.774,0,0,0,1.38.21c.928-.126,3.837-.376,5.287-1.282a1.037,1.037,0,0,0,.474-.289,2.96,2.96,0,0,0,.552-1.826C382.725,82.6,382.582,80.814,382.475,78.562Z" transform="translate(-367.046 -65.565)" fill="#fff"/><g transform="translate(5.791)"><path d="M374.409,73.193a2.528,2.528,0,0,0-.393,1.352,1.953,1.953,0,0,0,.109.623,1.826,1.826,0,0,1,.188.572,2.518,2.518,0,0,1-.252.74.923.923,0,0,0-.028.637,1.888,1.888,0,0,0,.2.32c.32.5.017,1.242.575,1.6a.95.95,0,0,0,.466.118,6.554,6.554,0,0,0,1.495-.409,3.7,3.7,0,0,0,1.069-.951,4.744,4.744,0,0,0,.743-.889c.045-.093-.062-.112.034-.157.059-.028.129-.4.194-.4a.708.708,0,0,0,.244-.137c.123-.081.185.219.224.076a6.1,6.1,0,0,0,.37-1.879,2.208,2.208,0,0,0-1.526-2.418,3.171,3.171,0,0,0-2.123-.036A3.044,3.044,0,0,0,374.409,73.193Z" transform="translate(-373.905 -71.442)" fill="#ffbfa2"/><path d="M378.537,74.4a2.208,2.208,0,0,0-1.526-2.418,3.106,3.106,0,0,0-1.268-.2c-.645,1.287.286,2.934-.415,4.269-.236.314-.7.55-.7.94-.157.7.544,1.332.157,2.033a6.755,6.755,0,0,0,.878-.286,3.706,3.706,0,0,0,1.069-.951,4.744,4.744,0,0,0,.743-.889c.045-.093-.062-.112.034-.157.059-.028.129-.4.194-.4a.708.708,0,0,0,.244-.137c.123-.081.185.219.224.076A6.1,6.1,0,0,0,378.537,74.4Z" transform="translate(-372.799 -71.441)" fill="#f8b495"/><path d="M376.7,73.958a.827.827,0,0,1,.488.048.865.865,0,0,1,.454.676,10.82,10.82,0,0,1-.14,1.854.509.509,0,0,0,.048.266c.123.219.356.1.488-.036.084-.09.149-.194.23-.286a.557.557,0,0,1,.3-.2.332.332,0,0,1,.37.294,1.123,1.123,0,0,1-.045.482c-.011.036-.092.32.022.323a3.737,3.737,0,0,0,1.189-2.85,1.855,1.855,0,0,0-1.15-2.039,2.059,2.059,0,0,0-1.91-.827,4.318,4.318,0,0,0-2.059.656l-.073.048a2.53,2.53,0,0,0-.777.726c-.53.822.185,1.481,1.046,1.343a7.247,7.247,0,0,0,1.169-.39,2.088,2.088,0,0,1,.345-.093Z" transform="translate(-373.958 -71.663)" fill="#c99c83"/></g><path d="M378.344,74a4.445,4.445,0,0,1-.045.527,3.48,3.48,0,0,1-1.144,2.322c-.115,0-.034-.286-.023-.323a1.123,1.123,0,0,0,.045-.482.332.332,0,0,0-.37-.295.557.557,0,0,0-.3.2c-.081.093-.146.2-.23.286-.132.137-.362.255-.488.036a.514.514,0,0,1-.048-.269q0-.13.017-.261c.017-.16.042-.32.067-.48a3.8,3.8,0,0,0,.056-1.111.874.874,0,0,0-.454-.679.849.849,0,0,0-.488-.045,7.345,7.345,0,0,1,1.052-.883,8.209,8.209,0,0,1,1.206-.583,1.8,1.8,0,0,1,1.147,1.82C378.344,73.848,378.344,73.924,378.344,74Z" transform="translate(-366.403 -71.13)" fill="#b98c74"/><path d="M376.377,73.143c.51-.034.639.6.289,1.091a2.592,2.592,0,0,1-.418.384c-.914.78-1.144-.065-.855-.331C376.068,73.67,375.732,73.188,376.377,73.143Z" transform="translate(-365.791 -68.994)" fill="#f8b495"/><path d="M375.711,73.993c.059-.053.642-.4.247-.631a.176.176,0,0,0-.25.146c-.008.062.008.123,0,.182a.261.261,0,0,1-.039.1c-.05.084-.227.165-.194.289S375.678,74.024,375.711,73.993Z" transform="translate(-365.436 -68.633)" fill="#f3a984"/></g><g transform="translate(3.478 12.87)"><g transform="translate(4.568 1.387)"><g style="isolation:isolate"><g style="isolation:isolate"><g clip-path="url(#p)"><g style="isolation:isolate"><path d="M366.1,75.147l1.414-.822a.385.385,0,0,0-.39-.036l-1.414.822a.385.385,0,0,1,.39.036Z" transform="translate(-365.712 -74.251)" fill="#7f89a6"/></g></g></g></g></g><g transform="translate(0 1.353)"><g transform="translate(2.975 41.091)"><path d="M365.335,90.7c.048-.129.135-.2.373-.208.283-.014.567-.014.85-.022l1.15-.034c-.008-.309-.006-.625-.028-.934a1.585,1.585,0,0,0,1.027-.137c.466-.154.934-.289,1.411-.409a1.324,1.324,0,0,1,.617-.05c.513.123.766.984.679,1.43a1.3,1.3,0,0,1-.541.763,3.127,3.127,0,0,1-1.4.561,2.841,2.841,0,0,0-1.405.5,2.9,2.9,0,0,1-1.644.844,1.147,1.147,0,0,1-1.276-1.153,3.815,3.815,0,0,1,.109-.774C365.29,90.925,365.3,90.8,365.335,90.7Z" transform="translate(-365.144 -88.889)" fill="#3f4961"/><path d="M366.313,91.593c0-.056,0-.112-.006-.168a3.648,3.648,0,0,1,.393-1.587,1.214,1.214,0,0,1,.331-.538.88.88,0,0,1,1.217.384c.112.194.174.412.275.614a1.419,1.419,0,0,0,1.032.858,19.412,19.412,0,0,0,1.941-.224,1.656,1.656,0,0,1,.724.07,1.237,1.237,0,0,1-.177,2.21,3.144,3.144,0,0,1-1.484.289,2.86,2.86,0,0,0-1.472.236c-.808.381-1.747.928-2.563.185a1.2,1.2,0,0,1-.351-.788A14.926,14.926,0,0,1,366.313,91.593Z" transform="translate(-363.301 -88.382)" fill="#546282"/></g><path d="M366.308,86.575l.289-1.212C366.482,85.761,366.387,86.168,366.308,86.575Z" transform="translate(-360.068 -54.162)" fill="#6e4cb3"/><path d="M364.948,83.123c.137-.724-.053-2.089.979-2.2.937-.1,1.45,1.052,1.7,1.324.376.407,1.868-.264,1.9-.454,1.8-1.29,1.391,4.1.813,6.232-.309,1.147-.283,2.353-.485,3.523a26.715,26.715,0,0,1-.9,3.646,24.65,24.65,0,0,0-.286,3.15c-.065,1.82,0,3.64-.081,5.458a4.262,4.262,0,0,1-.163,1.147,1.661,1.661,0,0,1-.32.586.833.833,0,0,1-.522.23,1.976,1.976,0,0,1-.53-.028,1.3,1.3,0,0,1-.51-.174,1.421,1.421,0,0,1-.5-.9c-.109-.412-.2-.827-.295-1.242a26.848,26.848,0,0,1-.482-3.3,29.514,29.514,0,0,1-.076-3.267c.014-.555.045-1.111.084-1.666.02-.286.045-.569.07-.853.014-.143.025-.286.042-.429a1.921,1.921,0,0,0,.042-.418l.011.008a8.317,8.317,0,0,0-.1-1.268q-.219-1.313-.435-2.625a22.818,22.818,0,0,1-.3-2.305A16.438,16.438,0,0,1,364.948,83.123Z" transform="translate(-363.19 -62.184)" fill="#2c2030"/><path d="M369.245,82.37c.168-.087,1.027-.519,1.021-.752-.006-.154.418-.286.524-.283a1.056,1.056,0,0,1,.555.244,2.6,2.6,0,0,1,.858,1.17,6.531,6.531,0,0,1,.339,2.008,37.587,37.587,0,0,1-.154,6.1q-.164,1.536-.452,3.049-.143.757-.317,1.506a1.121,1.121,0,0,1-.614.883,2.346,2.346,0,0,1-3.043-.508c-.665-1.052-.39-2.692-.6-3.879-.309-1.719-1.453-2.984-1.98-4.619a7.272,7.272,0,0,1-.132-3.556c.1-.581.275-1.963.864-2.3a2.014,2.014,0,0,1,2.076.522C368.687,82.454,368.628,82.687,369.245,82.37Z" transform="translate(-362.262 -61.436)" fill="#372b3d"/><g transform="translate(0 6.81)"><path d="M365.179,86.036c-.039-.3-.084-.606-.137-.906-.252-1.444-.684-2.855-.867-4.311-.14-1.133-.241-2.544.656-3.416a2.386,2.386,0,0,1,.491-.362c1.744-.984,3.41.213,5.046.8a15.4,15.4,0,0,1,3.065,1.509,2.757,2.757,0,0,1,.9.693,2.264,2.264,0,0,1,.39,1.164,6.625,6.625,0,0,1-.14,1.444,29.588,29.588,0,0,0-.342,8.439c.107.9.149,1.8.2,2.707.017.339.233.875.062,1.186s-.844.6-1.164.763a6.9,6.9,0,0,1-7.183-.555,1.706,1.706,0,0,1-.9-1.484c.045-.83.017-1.674.036-2.51A34.5,34.5,0,0,0,365.179,86.036Z" transform="translate(-364.083 -76.666)" fill="#e9ecf5"/></g><g transform="translate(0 6.81)"><path d="M365.179,86.036c-.039-.3-.084-.606-.137-.906-.252-1.444-.684-2.855-.867-4.311-.14-1.133-.241-2.544.656-3.416a2.386,2.386,0,0,1,.491-.362c1.744-.984,3.41.213,5.046.8a15.4,15.4,0,0,1,3.065,1.509,2.757,2.757,0,0,1,.9.693,2.264,2.264,0,0,1,.39,1.164,6.625,6.625,0,0,1-.14,1.444,29.588,29.588,0,0,0-.342,8.439c.107.9.149,1.8.2,2.707.017.339.233.875.062,1.186s-.844.6-1.164.763a6.9,6.9,0,0,1-7.183-.555,1.706,1.706,0,0,1-.9-1.484c.045-.83.017-1.674.036-2.51A34.5,34.5,0,0,0,365.179,86.036Z" transform="translate(-364.083 -76.666)" fill="#e9ecf5"/></g><g transform="translate(2.564 6.815)"><path d="M369.557,78.177c-.3-.126-.611-.255-.839-.337a13.046,13.046,0,0,0-3.467-1.172,1.6,1.6,0,0,0,.729,2.3,3.443,3.443,0,0,0,3.444-.241C369.624,78.586,369.775,78.345,369.557,78.177Z" transform="translate(-364.997 -76.668)" fill="#cddcfb"/></g><path d="M369.982,88.548q-.113,1.321-.207,2.645-.076,1.048-.129,2.1-.042.808-.073,1.615c-.1,2.948.21,3.612-1.181,3.994a1.9,1.9,0,0,1-.953.034c-.906-.224-1.063-1.021-1.175-2.005-.062-.555-.093-1.223-.109-1.784q-.021-.711-.034-1.422c-.011-.642-.017-1.285-.025-1.924q-.013-1.271-.02-2.538c-.008-1.083-.1-2.188-.107-3.27a.5.5,0,0,1,.222-.4,14.079,14.079,0,0,1,3.753,1.453A4.463,4.463,0,0,1,369.982,88.548Z" transform="translate(-360.682 -53.765)" fill="#372b3d"/><path d="M368.93,77.814c.062-.432.39-.331.224-.724a2.092,2.092,0,0,0-.639-.858,1.531,1.531,0,0,0-1.007-.334c-.123.008-.208.079-.331.079a7.3,7.3,0,0,0-1.021-.014c-.337.051-.648.073-.648.454a4.663,4.663,0,0,1-.14,1.5,3.6,3.6,0,0,0-.241.8,1.41,1.41,0,0,0,.853,1.3,3.341,3.341,0,0,0,1.952.174c.325-.048.785-.112.976-.424a1.245,1.245,0,0,0,.05-.8A4.239,4.239,0,0,1,368.93,77.814Z" transform="translate(-362.208 -71.246)" fill="#ffbfa2"/><g transform="translate(2.35)"><path d="M370.74,75.278a1.755,1.755,0,0,1,.415.861c.109.732-.185,1.486-.025,2.216a2.435,2.435,0,0,1-1.54,2.715,4.948,4.948,0,0,1-2.538-.25,3.55,3.55,0,0,1-1.349-1.43C362.8,74.779,368.771,72.883,370.74,75.278Z" transform="translate(-364.921 -74.238)" fill="#ffbfa2"/></g></g><path d="M364.79,78.193c.02.137.039.275.065.41a2.811,2.811,0,0,0,.076.3,1.925,1.925,0,0,0,.1.25,5.4,5.4,0,0,0,.527.869,2.789,2.789,0,0,0,.984.987,2.445,2.445,0,0,0,.581.179,1.952,1.952,0,0,0,1.781-.306,1.359,1.359,0,0,0,.3-.757,5.059,5.059,0,0,1,.115-.757c.017-.064.034-.129.053-.194a1.654,1.654,0,0,1,.123-.3.7.7,0,0,1,.387-.337c.289-.087.634.076.883-.09a.8.8,0,0,0,.252-.381c.056-.14.109-.3.168-.454a2.083,2.083,0,0,1,.292-.567,2.436,2.436,0,0,0,.2-.258.893.893,0,0,0,.165-.4,2.6,2.6,0,0,0-1-1.773,3.089,3.089,0,0,0-.841-.575,3.411,3.411,0,0,0-.869-.219,4.118,4.118,0,0,0-2.592.325,1.147,1.147,0,0,0-.5.477.663.663,0,0,1-.073.14.458.458,0,0,1-.177.109,1.787,1.787,0,0,0-.524.367C364.554,75.975,364.655,77.22,364.79,78.193Z" transform="translate(-362.982 -73.756)" fill="#d6af75"/><path d="M366.778,75.352c-.558-.048-.71.642-.337,1.184a2.817,2.817,0,0,0,.449.426c.984.867,1.251-.05.937-.345C367.1,75.932,367.479,75.41,366.778,75.352Z" transform="translate(-360.197 -70.88)" fill="#ffbfa2"/><path d="M366.747,76.184c-.064-.059-.693-.443-.255-.693a.193.193,0,0,1,.269.165c.008.067-.014.135-.006.2a.26.26,0,0,0,.042.109c.053.1.244.185.2.32C366.966,76.4,366.781,76.221,366.747,76.184Z" transform="translate(-360.014 -70.661)" fill="#f3a984"/><path d="M374.839,80.932c.118-.177.048-.516-.129-.412a.237.237,0,0,0-.1-.289c-.129-.064-.275.036-.4.1a1.849,1.849,0,0,1-.581.137c-.418.048-.878-.107-.839-.168a.535.535,0,0,1,.44-.283,3.159,3.159,0,0,0,.314.048.527.527,0,0,0,.247-.09.194.194,0,0,0,.07-.056c.031-.056-.008-.126-.059-.168a.772.772,0,0,0-.269-.129,1.284,1.284,0,0,0-.721-.09c-.079.022-.152.059-.227.084s-.171.053-.252.093a6.181,6.181,0,0,0-.9.564c-1.063.466-.984,1.144-.412,1.6a4.253,4.253,0,0,0,1.559.44l.039.006.084.006h.008c.645.045,1.974.05,1.972-.519l-.109-.059C375.078,81.274,374.609,81.271,374.839,80.932Z" transform="translate(-352.307 -63.369)" fill="#f3a984"/><path d="M375.971,80.593a1.47,1.47,0,0,1-.149.914c-.143.177-.474.238-.642.317-.872.393-6,2.017-6.852,1.436-.443-.3.081-1.913.864-2.589.836-.724,4.947-.9,5.842-.9a1.139,1.139,0,0,1,.566.1A.968.968,0,0,1,375.971,80.593Z" transform="translate(-356.715 -62.906)" fill="#e9ecf5"/><path d="M370.749,79.074a2.009,2.009,0,0,0-1.456-1.341,1.783,1.783,0,0,0-.864.165,3.211,3.211,0,0,0-1.73,1.456,1.507,1.507,0,0,0-.151.429c-.087.555.261.942.538,1.366.337.51.642,1.041.945,1.573a27.382,27.382,0,0,0,1.924,3.116,2.716,2.716,0,0,0,1.694,1.22,1.535,1.535,0,0,0,1.3-.5,1.631,1.631,0,0,0,.4-1.775A55.764,55.764,0,0,0,370.749,79.074Z" transform="translate(-359.66 -66.59)" fill="#e9ecf5"/></g><g transform="translate(18.008)"><path d="M370.7,69.363,377,73a3.182,3.182,0,0,1,1.439,2.491v1.627c.258.937,1.172,4.229,1.231,4.535l-2.014-2.6a3.227,3.227,0,0,0-.9-.819L370.7,74.737a3.177,3.177,0,0,1-1.439-2.488V70.193C369.264,69.276,369.909,68.906,370.7,69.363Z" transform="translate(-369.264 -69.167)" fill="#dde3f4"/></g></g></g><g transform="translate(114.898 177.361)"><ellipse cx="9.194" cy="5.308" rx="9.194" ry="5.308" transform="translate(0 41.168)" fill="#bcc5df" opacity="0.8" style="mix-blend-mode:multiply;isolation:isolate"/><path d="M395.935,83.91c-.1-.143-.278-.3-.429-.213s-.129.325-.149.463a1.036,1.036,0,0,0,.1.595,1.6,1.6,0,0,1,.188.595.426.426,0,0,1-.031.168,9.664,9.664,0,0,1,1.08.959,1.047,1.047,0,0,0,.107-.376A3.6,3.6,0,0,0,395.935,83.91Z" transform="translate(-374.08 -76.843)" fill="#ffbfa2"/><path d="M392.056,86.274c.02.014-.028.014-.034-.008a1.684,1.684,0,0,1,.042-.707c.081-.609-.14-1.228-.039-1.834a1,1,0,0,1,.2-.494,1.389,1.389,0,0,1,.381-.294,6.767,6.767,0,0,0,.668-.429,3.035,3.035,0,0,1,.177,2.547Z" transform="translate(-380.13 -78.943)" fill="#ffbf99"/><path d="M395.637,83.757a34.047,34.047,0,0,0-4.187,1.1,3.694,3.694,0,0,0-1.725.9,1.912,1.912,0,0,0-.272,1.918,1.073,1.073,0,0,0,.67.791,2.969,2.969,0,0,0,1.29-.188,14.5,14.5,0,0,0,2.631-1.052c.289-.149.572-.308.858-.466q.64-.358,1.276-.724A3.217,3.217,0,0,1,395.637,83.757Z" transform="translate(-384.961 -76.687)" fill="#fff"/><g transform="translate(13.015 1.387)"><g transform="translate(0 0.072)" style="isolation:isolate"><g transform="translate(7.965 9.925)" style="isolation:isolate"><path d="M395.245,85.775l.247-.14a.376.376,0,0,0,.151-.339l-.244.143A.363.363,0,0,1,395.245,85.775Z" transform="translate(-395.245 -85.295)" fill="#eff6fe"/><g clip-path="url(#q)"><g style="isolation:isolate"><path d="M395.245,85.775l.247-.14a.376.376,0,0,0,.151-.339l-.244.143a.363.363,0,0,1-.154.337Z" transform="translate(-395.245 -85.295)" fill="#eff6fe"/></g></g></g><g transform="translate(8.12 4.988)"><path d="M395.3,88.614l.244-.142.014-4.938-.244.142Z" transform="translate(-395.3 -83.535)" fill="#eff6fe"/></g><g transform="translate(0.542)"><path d="M399.667,85.979l.244-.142-7.069-4.081-.244.142Z" transform="translate(-392.598 -81.756)" fill="#eff6fe"/></g><g transform="translate(7.612 4.082)" style="isolation:isolate"><path d="M395.641,84.258l.244-.14a1.152,1.152,0,0,0-.522-.906l-.244.14A1.156,1.156,0,0,1,395.641,84.258Z" transform="translate(-395.119 -83.212)" fill="#eff6fe"/><g clip-path="url(#r)"><g style="isolation:isolate"><path d="M395.365,83.932l.244-.14a.992.992,0,0,0-.093-.4l-.244.143a.979.979,0,0,1,.093.4Z" transform="translate(-394.843 -82.885)" fill="#eff6fe"/><path d="M395.386,83.72l.244-.143a1.191,1.191,0,0,0-.177-.286l-.244.14a1.263,1.263,0,0,1,.177.289Z" transform="translate(-394.957 -83.069)" fill="#eff6fe"/><path d="M395.372,83.574l.244-.14a.974.974,0,0,0-.252-.222l-.244.14a1.031,1.031,0,0,1,.253.222Z" transform="translate(-395.119 -83.212)" fill="#eff6fe"/></g></g></g><g transform="translate(0 0.069)"><path d="M392.946,81.854c-.289-.168-.524-.034-.527.3l-.014,4.939a1.164,1.164,0,0,0,.525.906L400,92.08c.292.168.527.034.527-.3l.014-4.939a1.157,1.157,0,0,0-.522-.906Z" transform="translate(-392.405 -81.781)" fill="#cddcfb"/><path d="M392.508,86.907a.875.875,0,0,0,.382.656l7.068,4.081a.285.285,0,0,0,.081.034.234.234,0,0,0,.011-.084v-.045l.014-4.894a.871.871,0,0,0-.379-.656l-7-4.042-.064-.039a.32.32,0,0,0-.081-.034.216.216,0,0,0-.014.084Z" transform="translate(-392.219 -81.596)" fill="#bcc5df"/><path d="M392.565,86.8a.883.883,0,0,0,.381.656l7,4.044.014-4.894a.871.871,0,0,0-.379-.656l-7-4.042Z" transform="translate(-392.116 -81.549)" fill="#15d9fd"/></g></g><path d="M392.709,81.765l-.244.143a.368.368,0,0,1,.373.036l.244-.143A.375.375,0,0,0,392.709,81.765Z" transform="translate(-392.297 -81.731)" fill="#eff6fe"/><path d="M397.286,87.149l-4.292-2.478V83.166l4.292,2.478Z" transform="translate(-391.343 -79.14)" fill="#fff"/><path d="M395.453,83.574l1.724,2.777,0,1.051-3.067-4.6Z" transform="translate(-389.334 -79.807)" fill="#47e0ff" opacity="0.3" style="mix-blend-mode:screen;isolation:isolate"/><path d="M399.357,89.971l0,1.193-.378-.218L392.894,82.1l2.037,1.176Z" transform="translate(-391.522 -81.07)" fill="#47e0ff" opacity="0.3" style="mix-blend-mode:screen;isolation:isolate"/></g><path d="M396.8,85.012a.375.375,0,0,1-.132.107c-.174.1-.513.247-.589-.045a.625.625,0,0,1,.006-.269l.093-.561c.017-.1.011-.244-.09-.269-.067-.02-.135.034-.182.084a2.143,2.143,0,0,0-.331.513c-.036.073-.07.149-.1.222a9.317,9.317,0,0,0-.676,1.761,3.03,3.03,0,0,0-.112,1.038,4.6,4.6,0,0,0,.149.853.918.918,0,0,0,.325.555c.21.112.421-.062.558-.21a5.094,5.094,0,0,0,.454-.794c.081-.121.112-.25.185-.367a1.3,1.3,0,0,1,.382-.317,3.222,3.222,0,0,0,.785-.763,3.546,3.546,0,0,0,.381-.614,9.665,9.665,0,0,0-1.08-.959Z" transform="translate(-375.293 -76.302)" fill="#ffbfa2"/><g transform="translate(5.238 43.767)"><path d="M389.786,98.891c.045-.135.129-.208.373-.227.289-.022.581-.036.869-.053l1.175-.076c-.022-.317-.031-.639-.065-.954a1.66,1.66,0,0,0,1.046-.18c.468-.174.945-.331,1.425-.471a1.316,1.316,0,0,1,.631-.073c.527.107.816.979.746,1.436a1.32,1.32,0,0,1-.527.8,3.173,3.173,0,0,1-1.414.625,2.936,2.936,0,0,0-1.416.569,2.958,2.958,0,0,1-1.649.923,1.174,1.174,0,0,1-1.346-1.13,3.624,3.624,0,0,1,.084-.8A3.67,3.67,0,0,1,389.786,98.891Z" transform="translate(-389.632 -96.841)" fill="#bcc5df"/><path d="M390.567,99.487a1.7,1.7,0,0,0-.006-.171,3.744,3.744,0,0,1,.4-1.627,1.283,1.283,0,0,1,.339-.55.9.9,0,0,1,1.245.393c.115.2.179.424.28.631a1.445,1.445,0,0,0,1.057.875,19.485,19.485,0,0,0,1.986-.227,1.732,1.732,0,0,1,.74.07,1.331,1.331,0,0,1,.508,1.6,1.311,1.311,0,0,1-.69.665,3.179,3.179,0,0,1-1.514.3,2.927,2.927,0,0,0-1.509.241c-.827.39-1.789.951-2.622.191a1.235,1.235,0,0,1-.359-.808A15.6,15.6,0,0,1,390.567,99.487Z" transform="translate(-388.217 -96.543)" fill="#d4dbef"/></g><path d="M390.562,94.353l.294-1.242C390.739,93.521,390.643,93.936,390.562,94.353Z" transform="translate(-382.716 -59.806)" fill="#6e4cb3"/><path d="M388.894,90.01a15.216,15.216,0,0,0-.059,2.861,30.921,30.921,0,0,0,.634,3.666,15.558,15.558,0,0,1,.466,2.864,31.541,31.541,0,0,0,1.024,11.4,1.488,1.488,0,0,0,.544.9,1.369,1.369,0,0,0,.527.157,2.08,2.08,0,0,0,.544.008.848.848,0,0,0,.525-.255,1.656,1.656,0,0,0,.3-.609,4.263,4.263,0,0,0,.126-1.178c.014-1.862-.118-3.722-.118-5.584a24.887,24.887,0,0,1,.177-3.234,26.941,26.941,0,0,0,.785-3.758c.165-1.2.093-2.437.367-3.621a17.515,17.515,0,0,0,.365-3.615Z" transform="translate(-385.909 -65.403)" fill="#6e4cb3"/><path d="M393.049,89.178c-.02.2-1.523.937-1.921.536-.1-.1-.236-.32-.421-.553a6.081,6.081,0,0,0-1.119,6.3,26.824,26.824,0,0,1,1.9,8.148c.353,4.019.073,8.5.137,10.161a1.554,1.554,0,0,0,.322-.011.848.848,0,0,0,.525-.255,1.656,1.656,0,0,0,.3-.609,4.263,4.263,0,0,0,.126-1.178c.014-1.862-.118-3.722-.118-5.584a24.887,24.887,0,0,1,.177-3.234,26.937,26.937,0,0,0,.785-3.758c.165-1.2.092-2.437.367-3.621C394.623,93.324,394.836,87.793,393.049,89.178Z" transform="translate(-385.279 -67.3)" fill="#5e3e9e"/><path d="M393.57,90.048c.171-.09,1.049-.53,1.04-.768,0-.16.429-.292.539-.292a1.133,1.133,0,0,1,.569.25,2.644,2.644,0,0,1,.878,1.2,6.746,6.746,0,0,1,.348,2.056,38.673,38.673,0,0,1-.16,6.243q-.168,1.569-.46,3.119c-.1.516-.208,1.032-.325,1.543a1.138,1.138,0,0,1-.631.9,2.394,2.394,0,0,1-3.11-.519c-.682-1.077-.4-2.757-.617-3.969-.317-1.761-1.489-3.051-2.028-4.726a7.442,7.442,0,0,1-.135-3.64c.1-.592.28-2.008.883-2.353a2.058,2.058,0,0,1,2.123.533C393,90.132,392.939,90.374,393.57,90.048Z" transform="translate(-384.962 -67.247)" fill="#8763cd"/><g transform="translate(1.462 8.349)"><path d="M389.408,93.8c-.039-.311-.087-.62-.14-.928-.261-1.478-.7-2.92-.886-4.412-.146-1.158-.25-2.6.668-3.495a2.517,2.517,0,0,1,.5-.37c1.784-1.007,3.489.219,5.163.822a15.657,15.657,0,0,1,3.136,1.545,2.747,2.747,0,0,1,.923.71,2.3,2.3,0,0,1,.4,1.186,6.775,6.775,0,0,1-.146,1.481,30.225,30.225,0,0,0-.348,8.633c.146,1.237.292,4.614.292,4.614a5.524,5.524,0,0,1-2.667.381c-4.115.073-6.392-.965-6.63-1.181s-.154-.715-.163-1.015c-.025-.895-.008-1.792.014-2.687A35.749,35.749,0,0,0,389.408,93.8Z" transform="translate(-388.286 -84.213)" fill="#ecf5fe"/></g><g transform="translate(7.969 10.719)"><path d="M394.99,87.335a2.3,2.3,0,0,0-.4-1.186,2.747,2.747,0,0,0-.923-.71c-.208-.135-.418-.261-.631-.381-1.3,1.1-3.094,2.409-2.179,4.008,2.387,4.258,2.934,8.72,3.057,13.263a2.929,2.929,0,0,0,.875-.266s-.146-3.377-.292-4.614a30.222,30.222,0,0,1,.348-8.633A6.775,6.775,0,0,0,394.99,87.335Z" transform="translate(-390.606 -85.058)" fill="#d4e2fc"/></g><g transform="translate(4.085 8.354)"><path d="M393.888,85.76c-.306-.129-.628-.261-.858-.345a13.408,13.408,0,0,0-3.551-1.2,1.638,1.638,0,0,0,.749,2.353,3.521,3.521,0,0,0,3.523-.244C393.955,86.178,394.109,85.934,393.888,85.76Z" transform="translate(-389.221 -84.215)" fill="#cddcfb"/></g><path d="M394.32,96.37q-.118,1.355-.213,2.709-.072,1.069-.132,2.143c-.028.553-.053,1.1-.073,1.655-.1,3.018.216,3.694-1.206,4.086a1.933,1.933,0,0,1-.979.034c-.926-.227-1.088-1.043-1.2-2.053-.064-.567-.1-1.251-.112-1.823-.017-.485-.025-.97-.034-1.456q-.017-.984-.025-1.969c-.008-.867-.017-1.73-.022-2.6-.008-1.108-.1-2.238-.109-3.343a.518.518,0,0,1,.227-.412,14.386,14.386,0,0,1,3.84,1.487A4.555,4.555,0,0,1,394.32,96.37Z" transform="translate(-383.345 -59.399)" fill="#8763cd"/><path d="M394.117,85.669a2.049,2.049,0,0,0-1.98-.429,1.81,1.81,0,0,0-.676.595,3.3,3.3,0,0,0-.771,2.182,1.594,1.594,0,0,0,.09.457c.21.536.718.693,1.184.923.561.278,1.105.586,1.646.9a28.146,28.146,0,0,0,3.315,1.753,2.782,2.782,0,0,0,2.129.2,1.567,1.567,0,0,0,.886-1.116,1.269,1.269,0,0,0-.771-1.54C395.38,86.734,394.03,85.61,394.117,85.669Z" transform="translate(-382.494 -74.229)" fill="#fff"/><path d="M398.761,85.15c.222.118.609.415.614.71.006.241-.272.586-.379.788-.331.639-.679,1.271-1.024,1.9-.16.283-.317.569-.482.85a14.665,14.665,0,0,1-1.68,2.28,2.98,2.98,0,0,1-1,.841,1.08,1.08,0,0,1-.987-.32,1.912,1.912,0,0,1-.783-1.773,3.73,3.73,0,0,1,.99-1.672,35.175,35.175,0,0,1,3.1-3.259,2.209,2.209,0,0,1,.645-.46A1.229,1.229,0,0,1,398.761,85.15Z" transform="translate(-378.281 -74.484)" fill="#fff"/><path d="M393.986,83.676a4.909,4.909,0,0,0-.292,1.341,2.766,2.766,0,0,1-.067.569,1.618,1.618,0,0,1-.654.827.656.656,0,0,1-.482.174.853.853,0,0,0,.045-.376.743.743,0,0,0-.208-.446c-.084-.087-.23-.137-.283-.25-.109-.233.045-.443.115-.653s.064-.477.154-.707a.489.489,0,0,1,.109-.188.209.209,0,0,1,.2-.05c.112.045.129.194.146.311a.084.084,0,0,0,.022.056c.039.039.1-.011.132-.059.151-.227.289-.466.438-.7a1.774,1.774,0,0,1,.4-.538.2.2,0,0,1,.1-.039l.02,0a.217.217,0,0,1,.16.185A.934.934,0,0,1,393.986,83.676Z" transform="translate(-380.108 -78.14)" fill="#ffbf99"/><path d="M393.318,84.354a1.221,1.221,0,0,0-.769-.614,2.155,2.155,0,0,0-.791.051l-.166.034a3.217,3.217,0,0,0,.541,2.275c.2-.115.4-.23.595-.348s.614-.261.738-.471C393.615,85.027,393.444,84.57,393.318,84.354Z" transform="translate(-380.917 -76.754)" fill="#fff"/><path d="M393.244,85.386c.064-.44.4-.339.23-.74a2.16,2.16,0,0,0-.653-.878,1.55,1.55,0,0,0-1.029-.339c-.129.006-.213.079-.339.079a7.628,7.628,0,0,0-1.043-.014c-.348.05-.667.076-.667.466a4.719,4.719,0,0,1-.14,1.531,3.6,3.6,0,0,0-.247.822,1.443,1.443,0,0,0,.872,1.335,3.412,3.412,0,0,0,1.994.177c.334-.048.8-.115,1-.432a1.27,1.27,0,0,0,.05-.816A4.447,4.447,0,0,1,393.244,85.386Z" transform="translate(-384.904 -77.284)" fill="#ffbfa2"/><g transform="translate(3.213 0)"><g transform="translate(0.654 1.384)"><path d="M395.1,82.794a1.8,1.8,0,0,1,.426.881c.112.749-.191,1.52-.028,2.266a2.494,2.494,0,0,1-1.573,2.779,5.079,5.079,0,0,1-2.6-.255A3.658,3.658,0,0,1,389.945,87C386.972,82.283,393.083,80.342,395.1,82.794Z" transform="translate(-389.143 -81.73)" fill="#ffbfa2"/></g><path d="M389.5,82.756a1.828,1.828,0,0,1,.536-.376.509.509,0,0,0,.182-.112.621.621,0,0,0,.073-.143,1.168,1.168,0,0,1,.513-.488,4.232,4.232,0,0,1,2.653-.331,3.474,3.474,0,0,1,.889.224,3.14,3.14,0,0,1,.861.586,2.665,2.665,0,0,1,1.018,1.815.906.906,0,0,1-.168.407,2.317,2.317,0,0,1-.2.266,4.194,4.194,0,0,0-.471,1.046.81.81,0,0,1-.258.387c-.258.171-.611,0-.9.093a.708.708,0,0,0-.4.348,1.99,1.99,0,0,0-.182.5,5.337,5.337,0,0,0-.118.774,1.38,1.38,0,0,1-.3.774,2.008,2.008,0,0,1-1.823.317,2.731,2.731,0,0,1-.6-.185,2.862,2.862,0,0,1-1-1.01,3.286,3.286,0,0,1-.782-1.874C388.87,84.781,388.767,83.5,389.5,82.756Z" transform="translate(-388.91 -81.236)" fill="#d6af75"/><path d="M391.043,82.867c-.569-.048-.726.659-.345,1.212a2.724,2.724,0,0,0,.46.438c1.007.886,1.279-.051.959-.353C391.374,83.462,391.758,82.929,391.043,82.867Z" transform="translate(-386.06 -78.297)" fill="#ffbfa2"/><path d="M391.011,83.722c-.065-.062-.71-.457-.261-.71a.2.2,0,0,1,.275.168c.008.067-.014.137-.006.2a.32.32,0,0,0,.042.112c.056.1.252.188.21.325C391.236,83.943,391.048,83.755,391.011,83.722Z" transform="translate(-385.874 -78.071)" fill="#f3a984"/></g></g><g transform="translate(15.773 20.594)"><g style="isolation:isolate"><g transform="translate(68.728 40.86)"><path d="M376.927,60.67l2.025-1.142.32-19.618-2.024,1.142Z" transform="translate(-376.927 -39.91)" fill="#bcc5df"/></g><g transform="translate(0.32)"><path d="M421.264,67.343l2.024-1.142L354.56,25.341l-2.024,1.142Z" transform="translate(-352.536 -25.341)" fill="#fff"/></g><g transform="translate(0 1.142)"><path d="M352.742,25.748l-.32,19.618,68.728,40.86.32-19.618Z" transform="translate(-352.422 -25.748)" fill="#dde3f4"/></g></g><g transform="translate(6.9 12.752)"><path d="M361.122,41.079q-.13-.568-.278-1.178l-.3-1.212-3.155-1.876-.32.847c-.109.286-.208.564-.3.836l-1.89-1.125c.317-.833.617-1.6.9-2.294s.561-1.346.83-1.952.538-1.172.8-1.705.533-1.041.813-1.531l1.725,1.027c.258.808.51,1.632.76,2.468s.5,1.711.752,2.625.508,1.885.771,2.906.538,2.132.83,3.326Zm-2.1-8.571c-.042.112-.1.264-.185.452s-.174.409-.278.656-.219.522-.348.819-.258.611-.39.942l2.311,1.374q-.177-.724-.345-1.383c-.109-.44-.216-.847-.317-1.217s-.188-.7-.264-.976S359.075,32.67,359.027,32.508Z" transform="translate(-354.882 -29.888)" fill="#529d2e"/><path d="M363.6,43.786q-.761-2.078-1.649-4.193t-1.9-4.123l-.078,6.159-1.8-1.066.121-9.4,1.481.881c.255.452.533.987.839,1.607s.617,1.271.934,1.955.628,1.386.942,2.1.6,1.405.878,2.061l.07-5.548,1.809,1.074-.121,9.4Z" transform="translate(-348.946 -27.594)" fill="#529d2e"/><path d="M367.264,44.731c-.087-.381-.18-.774-.278-1.181s-.2-.808-.3-1.212l-3.155-1.876c-.107.283-.213.564-.32.85s-.208.561-.3.833l-1.89-1.125c.317-.83.617-1.6.9-2.291s.561-1.349.83-1.952.539-1.175.8-1.705.536-1.043.816-1.531l1.725,1.024q.387,1.216.76,2.468t.752,2.628q.379,1.371.771,2.906t.83,3.324Zm-2.1-8.571c-.042.112-.1.261-.185.452s-.174.407-.278.653-.219.522-.348.819-.258.611-.39.942L366.28,40.4q-.177-.724-.345-1.383c-.112-.44-.216-.847-.317-1.217s-.188-.7-.264-.976S365.217,36.322,365.169,36.16Z" transform="translate(-343.798 -23.297)" fill="#529d2e"/><path d="M369.737,45.6l-.022,1.817-5.4-3.209.121-9.4,1.82,1.08-.1,7.584Z" transform="translate(-337.862 -21.004)" fill="#529d2e"/><path d="M369.754,41.907c.336-.449.656-.9.959-1.369a15.344,15.344,0,0,0,.841-1.447l2.008,1.192q-.686,1.123-1.414,2.126t-1.543,1.969l-.045,3.6-1.82-1.083.045-3.568q-.774-1.91-1.472-3.775T365.97,35.77l2.109,1.254c.241.8.5,1.6.78,2.415S369.437,41.071,369.754,41.907Z" transform="translate(-334.872 -19.273)" fill="#529d2e"/><path d="M371.49,46.189a2.773,2.773,0,0,0,.637.3.789.789,0,0,0,.4.036.305.305,0,0,0,.216-.179.937.937,0,0,0,.062-.359,1.72,1.72,0,0,0-.362-.99,11.63,11.63,0,0,0-1.276-1.419c-.264-.266-.525-.547-.788-.844a6.7,6.7,0,0,1-.7-.954,5.256,5.256,0,0,1-.5-1.077,3.724,3.724,0,0,1-.182-1.223,2.232,2.232,0,0,1,.224-1.049,1.1,1.1,0,0,1,.606-.536,1.653,1.653,0,0,1,.94-.008,4.573,4.573,0,0,1,1.24.538,8.076,8.076,0,0,1,1.408,1.041,10.186,10.186,0,0,1,.973,1.032l-.544,1.357a10.379,10.379,0,0,0-.749-.808,5.16,5.16,0,0,0-1-.749,1.751,1.751,0,0,0-.94-.348c-.193.028-.292.185-.294.474a1.215,1.215,0,0,0,.1.5,2.614,2.614,0,0,0,.294.5,5.447,5.447,0,0,0,.44.522c.165.177.348.365.55.567.418.429.78.825,1.091,1.186a6.858,6.858,0,0,1,.766,1.08,4.459,4.459,0,0,1,.451,1.1,4.821,4.821,0,0,1,.137,1.245c-.011.878-.286,1.4-.819,1.571a3.321,3.321,0,0,1-2.4-.7,10,10,0,0,1-.968-.651c-.286-.222-.541-.435-.763-.637s-.41-.4-.567-.572-.292-.331-.4-.468l.536-1.377a9.185,9.185,0,0,0,.886.942A7.25,7.25,0,0,0,371.49,46.189Z" transform="translate(-329.82 -15.562)" fill="#529d2e"/><path d="M371.487,39l1.817,1.083-.118,9.4-1.82-1.083Z" transform="translate(-325.134 -13.438)" fill="#529d2e"/><path d="M375.224,48.409a2.831,2.831,0,0,0,.637.3.8.8,0,0,0,.407.036.306.306,0,0,0,.213-.179.949.949,0,0,0,.062-.359,1.7,1.7,0,0,0-.362-.99A11.389,11.389,0,0,0,374.9,45.8c-.264-.266-.524-.547-.788-.844a6.908,6.908,0,0,1-.7-.954,5.091,5.091,0,0,1-.5-1.077,3.643,3.643,0,0,1-.185-1.223,2.265,2.265,0,0,1,.224-1.049,1.1,1.1,0,0,1,.606-.536,1.663,1.663,0,0,1,.942-.008,4.471,4.471,0,0,1,1.237.538,7.971,7.971,0,0,1,1.408,1.041,10.577,10.577,0,0,1,.976,1.032l-.547,1.355a10.363,10.363,0,0,0-.749-.8,5.158,5.158,0,0,0-1-.749,1.751,1.751,0,0,0-.94-.348c-.194.025-.292.185-.295.474a1.176,1.176,0,0,0,.1.5,2.455,2.455,0,0,0,.292.5,5.89,5.89,0,0,0,.44.522c.165.174.351.365.55.567q.627.644,1.091,1.186a6.861,6.861,0,0,1,.766,1.08,4.462,4.462,0,0,1,.452,1.1,4.713,4.713,0,0,1,.137,1.245c-.011.875-.286,1.4-.819,1.571a3.324,3.324,0,0,1-2.4-.7,10,10,0,0,1-.968-.651c-.286-.222-.541-.435-.76-.637s-.412-.4-.569-.572-.292-.331-.4-.468l.536-1.377a9.475,9.475,0,0,0,.886.942A7.386,7.386,0,0,0,375.224,48.409Z" transform="translate(-323.082 -11.555)" fill="#529d2e"/></g></g></g></g></g></svg>