<svg xmlns="http://www.w3.org/2000/svg" width="51.823" height="52.227" viewBox="0 0 51.823 52.227"><g transform="translate(-1271 -6301.773)"><g transform="translate(825.813 6185.185)"><path d="M483.491,167.51c-.32.386-.648.765-.957,1.16-.153.2-.252.194-.4,0-.309-.395-.637-.774-.957-1.159a1.955,1.955,0,0,1-.6-.53c-.569-.719-1.161-1.421-1.709-2.155a1.389,1.389,0,0,0-1.242-.589c-2.877.017-5.754,0-8.631.015a3.311,3.311,0,0,1-2.223-.657,1.506,1.506,0,0,0-1.033-.213q-8.874,0-17.748,0c-.09,0-.18.007-.27,0-.428-.034-.638.141-.615.589.018.359-.018.72.022,1.078a1.571,1.571,0,0,0,1.4,1.423,6.464,6.464,0,0,0,.862.024h27.35c.216,0,.432,0,.647,0,.77.026.949.309.654,1.035-.042.858-.042.858-.938.858-9.317,0-18.634-.037-27.951.026a3.653,3.653,0,0,1-3.94-3.989c.028-.358,0-.719,0-1.079a1.744,1.744,0,0,1,1.9-1.865c.935,0,1.872-.027,2.805.011.425.018.487-.125.486-.508q-.019-8.418-.009-16.836,0-12.3,0-24.606a2.631,2.631,0,0,1,2.952-2.958h39.877a3.479,3.479,0,0,1,3.794,3.781c0,1.565,0,3.13,0,4.695a1.737,1.737,0,0,1-1.878,1.884c-.971.005-1.943.012-2.914-.005-.292-.005-.4.058-.395.376q.017,6.1,0,12.195c0,.293.06.4.377.394.719-.024,1.439-.014,2.158-.006A2.569,2.569,0,0,1,497,142.512q.014,9.47,0,18.94a2.571,2.571,0,0,1-2.639,2.62c-1.133.013-2.265.014-3.4.02a1.09,1.09,0,0,1-.722.143q-1.666.006-3.332,0a1.072,1.072,0,0,0-.918.339c-.689.778-1.312,1.612-1.965,2.42A1.878,1.878,0,0,1,483.491,167.51Z" transform="translate(0)"/><path d="M488.028,443.925c-.043-.869-.043-.869-.934-.869h-28c-1.553,0-2.173-.605-2.162-2.138,0-.425-.193-1,.085-1.233.261-.215.819-.081,1.247-.081q8.874,0,17.749-.007a1.256,1.256,0,0,1,.922.31,2.519,2.519,0,0,0,1.754.562c3.093-.007,6.186,0,9.279-.012a.9.9,0,0,1,.808.392c.785,1.027,1.593,2.036,2.392,3.052Z" transform="translate(-9.997 -276.392)" fill="silver"/><path d="M725.852,446.294a.944.944,0,0,1,1.028-.564c1.382.042,2.767.024,4.15.03a7.1,7.1,0,0,1-.061,1.388,2.6,2.6,0,0,1-2.708,2.047c-.161,0-.322-.005-.483-.008a2.377,2.377,0,0,1-1.927-1.653A1.44,1.44,0,0,1,725.852,446.294Z" transform="translate(-240.063 -281.669)" fill="#e4e0db"/><path d="M713.055,449.645a2.679,2.679,0,0,0,1.926,2.894l-4.225-.01C711.479,451.534,712.26,450.584,713.055,449.645Z" transform="translate(-227.265 -285.02)" fill="silver"/><path d="M531.588,128.579a4.248,4.248,0,0,0-.46,2.142c.008,6.294,0,12.589.016,18.883,0,.449-.1.554-.553.553-6.87-.016-13.74.023-20.609-.034a2.856,2.856,0,0,0-3.047,3.073c.065,6.006.019,12.013.034,18.02,0,.42-.1.527-.524.526q-6.393-.025-12.786,0c-.424,0-.523-.108-.523-.526q.017-20.745.01-41.489c0-.845.279-1.162,1.044-1.163q18.559,0,37.119,0C531.379,128.562,531.45,128.57,531.588,128.579Z" transform="translate(-41.031 -10.246)" fill="#e4e0db"/><path d="M614.781,290.185H627.3c1.042,0,1.281.234,1.281,1.252q0,9.116,0,18.233c0,.989-.249,1.235-1.245,1.236-2.733,0-5.466.007-8.2-.008a.86.86,0,0,0-.768.369c-.805,1.036-1.64,2.049-2.446,3.084-.216.277-.334.328-.576.013-.778-1.011-1.6-1.988-2.379-3a1.047,1.047,0,0,0-.935-.47c-3.29.02-6.581.012-9.871.011-.953,0-1.207-.257-1.208-1.218q0-9.143,0-18.287c0-.961.253-1.216,1.209-1.216Z" transform="translate(-133.296 -148.558)" fill="#b4dd7f"/><path d="M771.982,132.652c0,.807-.009,1.615.006,2.422.005.278-.033.419-.368.411-.914-.023-1.83-.02-2.745,0-.3.006-.353-.1-.351-.372.011-1.615-.008-3.229.012-4.844a1.705,1.705,0,0,1,1.727-1.7,1.724,1.724,0,0,1,1.715,1.713C772,131.073,771.981,131.862,771.982,132.652Z" transform="translate(-276.701 -10.255)" fill="#aeaeae"/><path d="M624.9,155.15a8.633,8.633,0,1,1,8.519,8.652A8.639,8.639,0,0,1,624.9,155.15Z" transform="translate(-153.793 -25.631)"/><path d="M512.85,184.21c-2.409,0-4.819-.008-7.228.008-.387,0-.557-.049-.544-.506.034-1.225.008-1.242,1.216-1.219.4.008.55-.073.536-.515-.036-1.132,0-2.266-.02-3.4-.006-.323.064-.423.409-.423,1.326,0,1.326-.015,1.326,1.332,0,.881.011,1.763-.006,2.643-.006.284.081.353.36.36,1.373.031,1.373.041,1.373-1.336,0-1.708.013-3.417-.01-5.125-.005-.389.109-.468.478-.464,1.259.016,1.259,0,1.259,1.236,0,1.726.011,3.453-.009,5.179,0,.375.048.525.482.515,1.253-.028,1.253,0,1.253-1.245,0-2.589.008-5.179-.009-7.768,0-.385.064-.519.487-.51,1.248.027,1.248,0,1.248,1.249,0,2.589.009,5.179-.01,7.768,0,.395.08.512.493.5,1.243-.025,1.243,0,1.243-1.254,0-3.452.007-6.9-.01-10.357,0-.4.092-.507.5-.5,1.239.024,1.239,0,1.239,1.257,0,3.452.008,6.9-.011,10.357,0,.411.106.5.5.494,1.243-.023,1.22,0,1.248,1.24.009.427-.131.488-.512.485C517.7,184.2,515.277,184.21,512.85,184.21Z" transform="translate(-51.251 -46.037)"/><path d="M510.27,154.178c-1.582,0-3.164-.009-4.745.008-.323,0-.422-.066-.422-.409,0-1.325-.015-1.325,1.331-1.325,2.858,0,5.716.007,8.574-.009.37,0,.482.078.476.464-.017,1.271,0,1.271-1.278,1.271Z" transform="translate(-51.274 -30.683)"/><path d="M532.565,284.157c1.006,0,2.013.011,3.019-.007.3-.005.387.074.392.382.018,1.351.029,1.351-1.3,1.351-1.725,0-3.45-.01-5.175.008-.345,0-.449-.079-.447-.438.007-1.3-.008-1.3,1.3-1.3Z" transform="translate(-71.767 -143.395)"/><path d="M532.553,320.069c.988,0,1.977.013,2.965-.007.335-.007.456.061.454.431-.008,1.3.009,1.3-1.3,1.3-1.725,0-3.45-.008-5.175.007-.334,0-.456-.061-.454-.431.008-1.3-.009-1.3,1.3-1.3Z" transform="translate(-71.762 -174.126)"/><path d="M532.569,355.989c1.006,0,2.013.012,3.019-.007.3-.006.385.08.389.385.018,1.348.028,1.348-1.306,1.348-1.725,0-3.45-.01-5.175.008-.35,0-.446-.087-.444-.441.007-1.294-.007-1.294,1.307-1.294Z" transform="translate(-71.769 -204.866)"/><path d="M532.445,393.625c-1.006,0-2.013-.012-3.019.007-.305.006-.384-.083-.388-.387-.017-1.347-.028-1.347,1.307-1.347,1.725,0,3.45.01,5.175-.009.352,0,.444.091.443.442-.007,1.293.007,1.293-1.308,1.293Z" transform="translate(-71.754 -235.594)"/><path d="M506.9,285.1c0,.828,0,.828-.845.828-.882,0-.882,0-.882-.9,0-.828,0-.828.845-.828C506.9,284.2,506.9,284.2,506.9,285.1Z" transform="translate(-51.334 -143.436)"/><path d="M506.058,320.116c.841,0,.841,0,.841.832,0,.9,0,.9-.886.9-.841,0-.841,0-.841-.832C505.173,320.116,505.173,320.116,506.058,320.116Z" transform="translate(-51.334 -174.173)"/><path d="M506.068,356.032c.832,0,.832,0,.832.841,0,.885,0,.885-.9.885-.832,0-.832,0-.832-.841C505.173,356.032,505.173,356.032,506.068,356.032Z" transform="translate(-51.334 -204.909)"/><path d="M506,393.676c-.824,0-.824,0-.824-.849,0-.878,0-.878.9-.878.824,0,.824,0,.824.849C506.9,393.676,506.9,393.676,506,393.676Z" transform="translate(-51.334 -235.645)"/><path d="M616.316,320.683c-.647,0-1.3-.034-1.941.011-.5.035-.681-.082-.659-.629.048-1.185-.007-2.373.026-3.559a1.046,1.046,0,0,0-.48-1.048.867.867,0,0,1-.4-.862c.023-1.258.019-2.517.006-3.775a2.569,2.569,0,0,1,1.22-2.372c.291-.181.186-.288.062-.49a2.811,2.811,0,0,1,1.513-4.243,2.583,2.583,0,0,1,3.246,2.339,2.875,2.875,0,0,1-.475,2c-.143.19-.074.256.095.364a2.692,2.692,0,0,1,1.255,2.521c-.025,1.222-.02,2.445,0,3.667a.864.864,0,0,1-.406.863,1.028,1.028,0,0,0-.476,1.047c.028,1.24,0,2.481.017,3.721.005.348-.086.467-.446.453C617.755,320.664,617.035,320.683,616.316,320.683Z" transform="translate(-143.487 -160.062)"/><path d="M676.2,320.7c-.7,0-1.4-.023-2.1.009-.391.018-.526-.076-.515-.5.031-1.24-.009-2.481.022-3.721a1.008,1.008,0,0,0-.463-1,.912.912,0,0,1-.42-.909c.025-1.294.007-2.589.011-3.883a2.486,2.486,0,0,1,1.152-2.191c.281-.184.285-.278.116-.562a2.9,2.9,0,0,1-.063-2.981,2.578,2.578,0,0,1,4.478-.034,2.893,2.893,0,0,1,0,2.936c-.184.331-.227.454.127.686a2.408,2.408,0,0,1,1.093,2.11c.009,1.366-.014,2.733.014,4.1a.822.822,0,0,1-.435.74,1.012,1.012,0,0,0-.45.954c.029,1.276,0,2.553.018,3.829.005.335-.091.432-.423.421C677.634,320.687,676.914,320.7,676.2,320.7Z" transform="translate(-194.711 -160.084)"/><path d="M736.017,320.676c-.7,0-1.4-.024-2.1.009-.4.019-.473-.125-.466-.488.021-1.222-.013-2.446.019-3.667a1.106,1.106,0,0,0-.5-1.094.832.832,0,0,1-.385-.816c.021-1.294.011-2.589.007-3.883a2.508,2.508,0,0,1,1.193-2.276c.307-.192.213-.3.075-.528a2.81,2.81,0,0,1,1.548-4.229,2.583,2.583,0,0,1,3.217,2.261,2.877,2.877,0,0,1-.451,2.058c-.157.211-.093.281.1.4a2.636,2.636,0,0,1,1.234,2.423c-.016,1.258-.017,2.517,0,3.776a.836.836,0,0,1-.383.819,1.093,1.093,0,0,0-.5,1.091c.03,1.24,0,2.481.017,3.721,0,.321-.069.443-.414.43C737.493,320.658,736.755,320.676,736.017,320.676Z" transform="translate(-245.945 -160.056)"/><path d="M696.729,165.909a7.5,7.5,0,0,1-.454,2.56c-.111.32-.217.424-.557.206-1.555-1-3.125-1.972-4.7-2.944a.607.607,0,0,1-.345-.592q.026-2.774,0-5.549c0-.39.132-.44.464-.383a6.952,6.952,0,0,1,5.483,5.61A5.526,5.526,0,0,1,696.729,165.909Z" transform="translate(-210.082 -36.454)" fill="#e49035"/><path d="M642.832,162.41c0,.9-.01,1.8.006,2.694a.641.641,0,0,1-.336.65q-2.365,1.446-4.7,2.94c-.331.212-.433.126-.562-.2a6.953,6.953,0,0,1,5.084-9.257c.378-.074.538-.027.519.423C642.805,160.577,642.832,161.494,642.832,162.41Z" transform="translate(-163.955 -36.476)" fill="#f19c35"/><path d="M653.719,219.872a7.03,7.03,0,0,1-5.049-2.177c-.251-.257-.322-.4.051-.626,1.55-.94,3.085-1.9,4.614-2.877a.58.58,0,0,1,.725,0c1.53.972,3.064,1.938,4.613,2.879.375.228.3.369.05.626A6.982,6.982,0,0,1,653.719,219.872Z" transform="translate(-173.956 -83.417)" fill="#d78535"/><path d="M628.308,347.035c0,.341-.027.685.006,1.023a1.347,1.347,0,0,1-.6,1.47.664.664,0,0,0-.271.657c.011,1.005,0,2.011.009,3.016,0,.289-.073.406-.389.419-1.343.056-1.342.067-1.342-1.293,0-.646-.038-1.3.012-1.938a1.084,1.084,0,0,0-.523-1.09.774.774,0,0,1-.359-.768c.017-1.023.02-2.047,0-3.07a1.077,1.077,0,0,1,.675-1.045,2.1,2.1,0,0,1,2.22.055.944.944,0,0,1,.565.895C628.3,345.921,628.308,346.478,628.308,347.035Z" transform="translate(-153.747 -194.718)" fill="#1c3b54"/><path d="M632.607,316.649a.886.886,0,1,1-1.727.018c0-.674.319-1.056.881-1.046C632.3,315.632,632.606,316,632.607,316.649Z" transform="translate(-158.91 -170.327)" fill="#1c3a53"/><path d="M688.172,346.995c0,.341-.021.684,0,1.023a1.388,1.388,0,0,1-.616,1.518.613.613,0,0,0-.257.609c.011.987-.007,1.975.011,2.962.006.35-.062.508-.465.509-1.268,0-1.268.021-1.268-1.262,0-.646-.035-1.3.011-1.938a1.13,1.13,0,0,0-.537-1.137.727.727,0,0,1-.344-.721q.023-1.562,0-3.124a1.054,1.054,0,0,1,.644-1.011,2.1,2.1,0,0,1,2.221.025.971.971,0,0,1,.6.931C688.164,345.917,688.172,346.456,688.172,346.995Z" transform="translate(-204.978 -194.712)" fill="#1c3b54"/><path d="M692.468,316.677a.886.886,0,1,1-1.727-.036c0-.641.315-1.013.854-1.018C692.154,315.617,692.473,316,692.468,316.677Z" transform="translate(-210.137 -170.328)" fill="#1c3a53"/><path d="M748.032,346.993c0,.341-.022.684,0,1.023a1.378,1.378,0,0,1-.623,1.515c-.228.127-.251.363-.249.612.009,1.005-.006,2.011.009,3.016,0,.316-.081.435-.421.443-1.312.031-1.312.044-1.312-1.27,0-.646-.039-1.3.012-1.938a1.143,1.143,0,0,0-.545-1.134.7.7,0,0,1-.336-.67q.024-1.589,0-3.178a1.062,1.062,0,0,1,.653-1.006,2.108,2.108,0,0,1,2.268.06.916.916,0,0,1,.538.857C748.029,345.88,748.031,346.436,748.032,346.993Z" transform="translate(-256.204 -194.7)" fill="#1c3b54"/><path d="M752.329,316.648a.886.886,0,1,1-1.727.021c0-.674.318-1.057.88-1.047C752.02,315.631,752.328,316,752.329,316.648Z" transform="translate(-261.364 -170.327)" fill="#1c3a53"/></g></g></svg>