<svg xmlns="http://www.w3.org/2000/svg" width="204.186" height="168.118" viewBox="0 0 204.186 168.118"><g transform="translate(-810.001 -534.888)"><g transform="translate(401.538 39.207)"><g transform="translate(408.463 495.681)"><g transform="translate(0 0)"><circle cx="79.245" cy="79.245" r="79.245" fill="#fde07e"/><ellipse cx="84.667" cy="6.573" rx="84.667" ry="6.573" transform="translate(34.853 154.972)" fill="#fdd85e"/><g transform="translate(19.559 19.732)"><path d="M1018.564,954.215l46.972-34.583,30.062,111.179-54.452,3.22Z" transform="translate(-1017.601 -917.319)" fill="#fc8116"/><path d="M1089.48,931.611l52.534-34.682,28.223,112.393-54.452,3.22Z" transform="translate(-1084.725 -895.83)" fill="#fff"/><path d="M1184.6,910.862l59.98-34.491,25.447,112.393-54.452,3.22Z" transform="translate(-1174.762 -876.371)" fill="#c4d7f2"/><path d="M1304.553,928.695l65-31.765,21.858,111.623-54.452,3.22Z" transform="translate(-1288.297 -895.83)" fill="#fff"/><g transform="translate(0 7.343)"><path d="M1409.384,1016.857l24.989,98.54a4.2,4.2,0,0,1-3.041,5.107l-65.835,24.171a4.2,4.2,0,0,1-5.107-3.041l-24.988-98.54a4.2,4.2,0,0,1,3.041-5.107l65.835-24.171A4.2,4.2,0,0,1,1409.384,1016.857Z" transform="translate(-1317.372 -1013.686)" fill="#fdab64"/><path d="M1053.882,1548.92l-24.555,6.227a2.266,2.266,0,0,1-2.753-1.639l-25.941-102.3a2.266,2.266,0,0,1,1.639-2.753l24.555-6.227a2.266,2.266,0,0,1,2.753,1.639l25.941,102.3A2.266,2.266,0,0,1,1053.882,1548.92Z" transform="translate(-1000.563 -1419.247)" fill="#fd963d"/><rect width="1.939" height="110.065" transform="translate(31.468 21.665) rotate(-14.23)" fill="#003889" opacity="0.12" style="mix-blend-mode:multiply;isolation:isolate"/><path d="M1249.876,1803.807l-4.592,1.165a4.03,4.03,0,0,1-4.9-2.916l-12.928-50.98a4.031,4.031,0,0,1,2.916-4.9l4.593-1.165a4.03,4.03,0,0,1,4.9,2.916l12.928,50.98A4.03,4.03,0,0,1,1249.876,1803.807Z" transform="translate(-1215.207 -1705.786)" fill="#fff"/><circle cx="6.399" cy="6.399" r="6.399" transform="translate(27.335 114.421) rotate(-45)" fill="#fff"/></g></g><line y2="13.15" transform="translate(73.487 96.924)" fill="#003889"/><circle cx="6.337" cy="6.337" r="6.337" transform="translate(128.493 25.474) rotate(-45)" fill="#fcd03e"/></g></g><g transform="translate(423.367 569.251)"><g transform="translate(73.744 -44.177)"><g transform="translate(61.456 25.265)"><rect width="4.28" height="17.098" fill="#85d161"/><rect width="4.28" height="13.368" transform="translate(6.295 3.73)" fill="#85d161"/><rect width="4.28" height="10.315" transform="translate(12.686 6.783)" fill="#85d161"/><rect width="4.28" height="6.125" transform="translate(18.603 10.973)" fill="#85d161"/></g><rect width="40.821" height="25.265" fill="#fafafa"/><g transform="translate(4.338 7.437)"><path d="M112.9,79.948c-2.831-1.073-6.086,1.895-8.861.685-1.615-.7-2.347-2.531-3.138-4.1S98.748,73.294,97,73.477c-1.767.184-3.2,2.23-4.9,1.737-1.076-.311-1.613-1.5-1.883-2.591a5.874,5.874,0,0,0-1.277-3.051c-.82-.762-2.53-.558-2.659.554V83.52H118.2A55.956,55.956,0,0,0,112.9,79.948Z" transform="translate(-86.274 -69.118)" fill="#ebebeb"/></g><g transform="translate(2.552 21.787)"><path d="M112.8,133.678c0,.029-7.737.052-17.28.052s-17.282-.023-17.282-.052,7.736-.052,17.282-.052S112.8,133.649,112.8,133.678Z" transform="translate(-78.242 -133.626)" fill="#e0e0e0"/></g><g transform="translate(2.552 15.937)"><path d="M112.8,107.381c0,.029-7.737.052-17.28.052s-17.282-.023-17.282-.052,7.736-.052,17.282-.052S112.8,107.352,112.8,107.381Z" transform="translate(-78.242 -107.329)" fill="#e0e0e0"/></g><g transform="translate(2.552 10.087)"><path d="M112.8,81.083c0,.029-7.737.052-17.28.052s-17.282-.023-17.282-.052,7.736-.052,17.282-.052S112.8,81.054,112.8,81.083Z" transform="translate(-78.242 -81.031)" fill="#e0e0e0"/></g><g transform="translate(2.552 4.527)"><path d="M112.8,56.091c0,.028-7.737.052-17.28.052s-17.282-.023-17.282-.052,7.736-.052,17.282-.052S112.8,56.062,112.8,56.091Z" transform="translate(-78.242 -56.039)" fill="#e0e0e0"/></g></g><g transform="translate(62.133 -10.801)"><g transform="translate(0 11.406)"><path d="M262.416,78.507H166.735a2.986,2.986,0,0,0-2.987,2.987v67.581a2.987,2.987,0,0,0,2.987,2.987h36.722s2.336,9.036-4.905,12.774h34.337s-8.176-4.616-6.073-12.774h35.6a2.987,2.987,0,0,0,2.987-2.987V81.494A2.987,2.987,0,0,0,262.416,78.507Z" transform="translate(-163.748 -78.507)" fill="#263238"/><g transform="translate(48.938 65.877)"><path d="M386.9,375.2a1.843,1.843,0,0,1-2.6,2.6.663.663,0,0,1-.16-.16,1.843,1.843,0,0,1,2.6-2.6A.658.658,0,0,1,386.9,375.2Z" transform="translate(-383.734 -374.634)" fill="#455a64"/></g></g><g transform="translate(1.647)"><g transform="translate(0 12.649)"><rect width="98.7" height="59.949" fill="#fafafa"/></g><g transform="translate(7.878 35.874)"><g transform="translate(76.375 22.935)"><rect width="2.898" height="3.99" fill="#e8505b"/></g><g transform="translate(76.375 22.935)" opacity="0.79"><rect width="2.898" height="3.99" fill="#fff"/></g><g transform="translate(70.254 20.585)"><rect width="2.898" height="6.34" fill="#e8505b"/></g><g transform="translate(70.254 20.585)" opacity="0.79"><rect width="2.898" height="6.34" fill="#fff"/></g><g transform="translate(63.652 18.676)"><rect width="2.898" height="8.144" fill="#e8505b"/></g><g transform="translate(63.652 18.676)" opacity="0.79"><rect width="2.898" height="8.144" fill="#fff"/></g><g transform="translate(2.423 21.317)"><rect width="2.898" height="5.504" fill="#e8505b"/><g opacity="0.79"><rect width="2.898" height="5.504" fill="#fff"/></g></g><g transform="translate(8.714 23.568)"><rect width="2.898" height="3.252" fill="#e8505b"/></g><g transform="translate(8.714 23.568)" opacity="0.79"><rect width="2.898" height="3.252" fill="#fff"/></g><g transform="translate(14.56 19.461)"><rect width="2.898" height="7.464" fill="#e8505b"/></g><g transform="translate(14.56 19.461)" opacity="0.79"><rect width="2.898" height="7.464" fill="#fff"/></g><g transform="translate(20.681 22.935)"><rect width="2.898" height="3.885" fill="#e8505b"/></g><g transform="translate(20.681 22.935)" opacity="0.79"><rect width="2.898" height="3.885" fill="#fff"/></g><g transform="translate(26.698 19.461)"><rect width="2.898" height="7.359" fill="#e8505b"/></g><g transform="translate(32.657 10.05)"><rect width="2.898" height="16.77" fill="#e8505b"/></g><g transform="translate(38.87 3.168)"><rect width="2.898" height="23.653" fill="#fc8116"/></g><g transform="translate(45.055 12.871)"><rect width="2.898" height="13.949" fill="#e8505b"/></g><g transform="translate(32.657 10.05)" opacity="0.79"><rect width="2.898" height="16.77" fill="#fff"/></g><g transform="translate(45.055 12.871)" opacity="0.79"><rect width="2.898" height="13.949" fill="#fff"/></g><g transform="translate(57.182 10.574)"><rect width="2.898" height="16.247" fill="#455a64"/></g><g transform="translate(51.23 5.631)"><rect width="2.898" height="21.189" fill="#fec08a"/></g><g transform="translate(0.008)"><path d="M207.051,189.075H206.6v-.214h1.155v.214H207.3v1.147h-.253Z" transform="translate(-206.6 -188.779)" fill="#263238"/><path d="M211.682,190.791a.554.554,0,1,1,.553.533A.523.523,0,0,1,211.682,190.791Zm.862,0a.309.309,0,1,0-.309.325A.3.3,0,0,0,212.544,190.791Z" transform="translate(-210.551 -189.867)" fill="#263238"/><path d="M218.428,188.494v1.443h-.233V189.8a.428.428,0,0,1-.344.148.532.532,0,0,1,0-1.064.425.425,0,0,1,.335.14v-.533Zm-.239.924a.31.31,0,1,0-.309.325A.3.3,0,0,0,218.189,189.418Z" transform="translate(-214.939 -188.494)" fill="#263238"/><path d="M224.33,190.7v.609h-.23v-.126a.368.368,0,0,1-.327.14c-.237,0-.387-.13-.387-.311s.117-.309.432-.309h.269v-.016c0-.142-.086-.226-.259-.226a.513.513,0,0,0-.315.1l-.1-.177a.731.731,0,0,1,.44-.128C224.157,190.26,224.33,190.4,224.33,190.7Zm-.243.284v-.121h-.251c-.165,0-.21.062-.21.138s.074.144.2.144A.265.265,0,0,0,224.087,190.985Z" transform="translate(-219.653 -189.867)" fill="#263238"/><path d="M229.242,190.312l-.486,1.122a.4.4,0,0,1-.4.307.429.429,0,0,1-.278-.1l.1-.179a.263.263,0,0,0,.179.072c.086,0,.136-.041.183-.144l.018-.041-.453-1.043h.253l.327.768.329-.768Z" transform="translate(-223.299 -189.908)" fill="#263238"/></g><g transform="translate(0.009 31.51)"><path d="M206.839,330.136v.694h-.071v-.63H206.6v-.063Z" transform="translate(-206.604 -330.136)" fill="#e0e0e0"/></g><g transform="translate(3.485 31.504)"><path d="M222.738,330.746v.063h-.487v-.051l.289-.283c.078-.077.093-.124.093-.171,0-.081-.056-.13-.163-.13a.235.235,0,0,0-.189.077l-.051-.044a.312.312,0,0,1,.246-.1c.141,0,.23.071.23.187a.285.285,0,0,1-.114.217l-.236.232Z" transform="translate(-222.231 -330.11)" fill="#e0e0e0"/></g><g transform="translate(7.048 31.51)"><path d="M238.748,330.631c0,.116-.084.205-.252.205a.361.361,0,0,1-.25-.089l.035-.057a.3.3,0,0,0,.215.08c.115,0,.178-.054.178-.14s-.058-.138-.187-.138h-.05v-.052l.192-.241h-.355v-.063h.446v.051l-.2.247C238.674,330.441,238.748,330.52,238.748,330.631Z" transform="translate(-238.247 -330.136)" fill="#e0e0e0"/></g><g transform="translate(10.626 31.51)"><path d="M254.877,330.648h-.126v.182h-.065v-.182h-.357V330.6l.335-.46h.072l-.323.448h.275v-.161h.063v.161h.126Z" transform="translate(-254.329 -330.136)" fill="#e0e0e0"/></g><g transform="translate(14.2 31.51)"><path d="M270.9,330.626c0,.118-.082.21-.252.21a.358.358,0,0,1-.249-.089l.034-.057a.3.3,0,0,0,.213.08c.118,0,.18-.057.18-.142s-.055-.145-.232-.145h-.148l.036-.348h.38v.063h-.317l-.024.221h.089C270.816,330.421,270.9,330.5,270.9,330.626Z" transform="translate(-270.395 -330.136)" fill="#e0e0e0"/></g><g transform="translate(17.778 31.504)"><path d="M287,330.6a.216.216,0,0,1-.237.213c-.184,0-.285-.128-.285-.347,0-.236.129-.359.317-.359a.317.317,0,0,1,.165.038l-.029.057a.244.244,0,0,0-.135-.033c-.15,0-.246.1-.246.284,0,.016,0,.036,0,.056a.222.222,0,0,1,.212-.119A.21.21,0,0,1,287,330.6Zm-.071,0c0-.091-.067-.15-.174-.15a.161.161,0,0,0-.178.152c0,.076.064.149.184.149A.152.152,0,0,0,286.93,330.6Z" transform="translate(-286.479 -330.11)" fill="#e0e0e0"/></g><g transform="translate(21.338 31.51)"><path d="M302.991,330.136v.051l-.29.643h-.077l.285-.63h-.357v.13h-.07v-.193Z" transform="translate(-302.482 -330.136)" fill="#e0e0e0"/></g><g transform="translate(0.009 4.292)"><path d="M206.839,207.815v.694h-.071v-.63H206.6v-.063Z" transform="translate(-206.604 -207.809)" fill="#263238"/><path d="M208.4,208.141c0-.221.116-.353.277-.353s.278.132.278.353-.117.353-.278.353S208.4,208.362,208.4,208.141Zm.481,0c0-.185-.083-.287-.2-.287s-.2.1-.2.287.083.287.2.287S208.885,208.326,208.885,208.141Z" transform="translate(-208.004 -207.788)" fill="#263238"/><path d="M211.309,210.524a.053.053,0,0,1,.053-.054.053.053,0,0,1,.054.054.054.054,0,0,1-.054.055A.053.053,0,0,1,211.309,210.524Z" transform="translate(-210.262 -209.873)" fill="#263238"/><path d="M212.2,208.141c0-.221.116-.353.276-.353s.278.132.278.353-.117.353-.278.353S212.2,208.362,212.2,208.141Zm.481,0c0-.185-.083-.287-.2-.287s-.2.1-.2.287.083.287.2.287S212.682,208.326,212.682,208.141Z" transform="translate(-210.956 -207.788)" fill="#263238"/><path d="M215.15,208.141c0-.221.116-.353.277-.353s.277.132.277.353-.117.353-.277.353S215.15,208.362,215.15,208.141Zm.481,0c0-.185-.083-.287-.2-.287s-.2.1-.2.287.083.287.2.287S215.631,208.326,215.631,208.141Z" transform="translate(-213.249 -207.788)" fill="#263238"/><path d="M218.1,208.141c0-.221.116-.353.277-.353s.278.132.278.353-.117.353-.278.353S218.1,208.362,218.1,208.141Zm.481,0c0-.185-.083-.287-.2-.287s-.2.1-.2.287.083.287.2.287S218.58,208.326,218.58,208.141Z" transform="translate(-215.542 -207.788)" fill="#263238"/></g><g transform="translate(24.899 31.504)"><path d="M319.028,330.616c0,.123-.1.2-.27.2s-.268-.076-.268-.2a.173.173,0,0,1,.134-.17.156.156,0,0,1-.109-.153c0-.113.1-.183.243-.183s.245.07.245.183a.157.157,0,0,1-.111.153A.175.175,0,0,1,319.028,330.616Zm-.073,0c0-.085-.073-.139-.2-.139s-.2.053-.2.139.073.14.2.14S318.955,330.7,318.955,330.615Zm-.2-.2c.108,0,.172-.049.172-.124s-.068-.126-.172-.126-.172.048-.172.125S318.651,330.42,318.759,330.42Z" transform="translate(-318.491 -330.11)" fill="#e0e0e0"/></g><g transform="translate(28.467 31.504)"><path d="M335.048,330.457c0,.236-.129.359-.317.359a.318.318,0,0,1-.164-.038l.029-.058a.243.243,0,0,0,.135.033c.149,0,.246-.1.246-.284,0-.016,0-.036,0-.057a.221.221,0,0,1-.212.119.21.21,0,0,1-.234-.208.216.216,0,0,1,.237-.213C334.948,330.11,335.048,330.238,335.048,330.457Zm-.1-.138c0-.077-.063-.149-.183-.149a.152.152,0,0,0-.169.151c0,.091.067.15.174.15A.161.161,0,0,0,334.95,330.319Z" transform="translate(-334.527 -330.11)" fill="#e0e0e0"/></g><g transform="translate(31.994 31.504)"><path d="M350.619,330.136v.694h-.071v-.63h-.163v-.063Z" transform="translate(-350.384 -330.13)" fill="#e0e0e0"/><path d="M352.184,330.463c0-.221.116-.353.277-.353s.277.132.277.353-.117.353-.277.353S352.184,330.684,352.184,330.463Zm.481,0c0-.185-.083-.287-.2-.287s-.2.1-.2.287.083.287.2.287S352.665,330.648,352.665,330.463Z" transform="translate(-351.784 -330.11)" fill="#e0e0e0"/></g><g transform="translate(35.461 31.51)"><path d="M366.2,330.136v.694h-.071v-.63h-.163v-.063Z" transform="translate(-365.97 -330.136)" fill="#e0e0e0"/><path d="M367.813,330.136v.694h-.071v-.63h-.164v-.063Z" transform="translate(-367.22 -330.136)" fill="#e0e0e0"/></g><g transform="translate(39.034 31.504)"><path d="M382.262,330.136v.694h-.071v-.63h-.163v-.063Z" transform="translate(-382.027 -330.13)" fill="#e0e0e0"/><path d="M384.183,330.746v.063H383.7v-.051l.289-.283c.078-.077.093-.124.093-.171,0-.081-.057-.13-.163-.13a.235.235,0,0,0-.189.077l-.051-.044a.312.312,0,0,1,.246-.1c.141,0,.23.071.23.187a.285.285,0,0,1-.114.217l-.236.232Z" transform="translate(-383.308 -330.11)" fill="#e0e0e0"/></g><g transform="translate(42.583 31.51)"><path d="M398.2,330.136v.694h-.065v-.63h-.149v-.063Z" transform="translate(-397.983 -330.136)" fill="#e0e0e0"/><path d="M399.908,330.631a.2.2,0,0,1-.229.205.312.312,0,0,1-.228-.089l.032-.057a.265.265,0,0,0,.2.08c.1,0,.163-.054.163-.14s-.053-.138-.171-.138h-.045v-.052l.175-.241h-.323v-.063h.406v.051l-.179.247A.19.19,0,0,1,399.908,330.631Z" transform="translate(-399.124 -330.136)" fill="#e0e0e0"/></g><g transform="translate(46.172 31.51)"><path d="M414.352,330.136v.694h-.071v-.63h-.163v-.063Z" transform="translate(-414.117 -330.136)" fill="#e0e0e0"/><path d="M416.466,330.648h-.139v.182h-.071v-.182h-.392V330.6l.367-.46h.079l-.355.448h.3v-.161h.069v.161h.139Z" transform="translate(-415.475 -330.136)" fill="#e0e0e0"/></g><g transform="translate(49.721 31.51)"><path d="M430.3,330.136v.694h-.071v-.63h-.164v-.063Z" transform="translate(-430.067 -330.136)" fill="#e0e0e0"/><path d="M432.234,330.626c0,.118-.082.21-.252.21a.359.359,0,0,1-.249-.089l.035-.057a.3.3,0,0,0,.213.08c.118,0,.18-.057.18-.142s-.055-.145-.232-.145h-.148l.036-.348h.38v.063h-.317l-.024.221h.089C432.154,330.421,432.234,330.5,432.234,330.626Z" transform="translate(-431.362 -330.136)" fill="#e0e0e0"/></g><g transform="translate(53.301 31.504)"><path d="M446.395,330.136v.694h-.071v-.63h-.164v-.063Z" transform="translate(-446.16 -330.13)" fill="#e0e0e0"/><path d="M448.481,330.6a.216.216,0,0,1-.237.213c-.184,0-.285-.128-.285-.347,0-.236.129-.359.317-.359a.318.318,0,0,1,.165.038l-.029.057a.243.243,0,0,0-.135-.033c-.15,0-.246.1-.246.284,0,.016,0,.036,0,.056a.222.222,0,0,1,.212-.119A.21.21,0,0,1,448.481,330.6Zm-.07,0c0-.091-.067-.15-.174-.15a.161.161,0,0,0-.178.152c0,.076.063.149.183.149A.152.152,0,0,0,448.411,330.6Z" transform="translate(-447.56 -330.11)" fill="#e0e0e0"/></g><g transform="translate(56.846 31.51)"><path d="M462.332,330.136v.694h-.071v-.63H462.1v-.063Z" transform="translate(-462.097 -330.136)" fill="#e0e0e0"/><path d="M464.317,330.136v.051l-.29.643h-.077l.285-.63h-.357v.13h-.071v-.193Z" transform="translate(-463.427 -330.136)" fill="#e0e0e0"/></g><g transform="translate(60.43 31.504)"><path d="M478.444,330.136v.694h-.071v-.63h-.164v-.063Z" transform="translate(-478.209 -330.13)" fill="#e0e0e0"/><path d="M480.528,330.616c0,.123-.1.2-.27.2s-.268-.076-.268-.2a.173.173,0,0,1,.134-.17.157.157,0,0,1-.109-.153c0-.113.1-.183.243-.183s.245.07.245.183a.157.157,0,0,1-.111.153A.175.175,0,0,1,480.528,330.616Zm-.073,0c0-.085-.073-.139-.2-.139s-.2.053-.2.139.072.14.2.14S480.455,330.7,480.455,330.615Zm-.2-.2c.108,0,.172-.049.172-.124s-.068-.126-.172-.126-.172.048-.172.125S480.151,330.42,480.259,330.42Z" transform="translate(-479.595 -330.11)" fill="#e0e0e0"/></g><g transform="translate(63.776 31.504)"><path d="M493.484,330.136v.694h-.071v-.63h-.164v-.063Z" transform="translate(-493.249 -330.13)" fill="#e0e0e0"/><path d="M495.476,330.457c0,.236-.129.359-.317.359a.319.319,0,0,1-.165-.038l.029-.058a.243.243,0,0,0,.135.033c.15,0,.246-.1.246-.284,0-.016,0-.036,0-.057a.222.222,0,0,1-.212.119.21.21,0,0,1-.234-.208.216.216,0,0,1,.237-.213C495.376,330.11,495.476,330.238,495.476,330.457Zm-.1-.138c0-.077-.063-.149-.183-.149a.152.152,0,0,0-.17.151c0,.091.068.15.174.15A.161.161,0,0,0,495.378,330.319Z" transform="translate(-494.576 -330.11)" fill="#e0e0e0"/></g><g transform="translate(67.131 31.504)"><path d="M508.837,330.746v.063h-.487v-.051l.289-.283c.078-.077.093-.124.093-.171,0-.081-.057-.13-.163-.13a.236.236,0,0,0-.189.077l-.051-.044a.312.312,0,0,1,.246-.1c.141,0,.23.071.23.187a.285.285,0,0,1-.114.217l-.236.232Z" transform="translate(-508.33 -330.11)" fill="#e0e0e0"/><path d="M510.994,330.463c0-.221.116-.353.276-.353s.278.132.278.353-.117.353-.278.353S510.994,330.684,510.994,330.463Zm.481,0c0-.185-.083-.287-.2-.287s-.2.1-.2.287.083.287.2.287S511.475,330.648,511.475,330.463Z" transform="translate(-510.401 -330.11)" fill="#e0e0e0"/></g><g transform="translate(70.477 31.504)"><path d="M523.877,330.746v.063h-.487v-.051l.289-.283c.078-.077.093-.124.093-.171,0-.081-.057-.13-.162-.13a.236.236,0,0,0-.189.077l-.05-.044a.312.312,0,0,1,.246-.1c.141,0,.23.071.23.187a.285.285,0,0,1-.114.217l-.236.232Z" transform="translate(-523.37 -330.11)" fill="#e0e0e0"/><path d="M526.095,330.136v.694h-.071v-.63h-.164v-.063Z" transform="translate(-525.306 -330.13)" fill="#e0e0e0"/></g><g transform="translate(73.823 31.504)"><path d="M538.917,330.746v.063h-.487v-.051l.288-.283c.078-.077.093-.124.093-.171,0-.081-.057-.13-.163-.13a.236.236,0,0,0-.189.077l-.051-.044a.312.312,0,0,1,.246-.1c.141,0,.23.071.23.187a.285.285,0,0,1-.114.217l-.236.232Z" transform="translate(-538.41 -330.11)" fill="#e0e0e0"/><path d="M541.447,330.746v.063h-.487v-.051l.289-.283c.078-.077.093-.124.093-.171,0-.081-.057-.13-.163-.13a.235.235,0,0,0-.189.077l-.051-.044a.312.312,0,0,1,.246-.1c.141,0,.23.071.23.187a.285.285,0,0,1-.114.217l-.236.232Z" transform="translate(-540.377 -330.11)" fill="#e0e0e0"/></g><g transform="translate(77.168 31.504)"><path d="M553.956,330.746v.063h-.487v-.051l.288-.283c.078-.077.093-.124.093-.171,0-.081-.057-.13-.163-.13a.236.236,0,0,0-.189.077l-.05-.044a.312.312,0,0,1,.246-.1c.141,0,.23.071.23.187a.285.285,0,0,1-.114.217l-.236.232Z" transform="translate(-553.449 -330.11)" fill="#e0e0e0"/><path d="M556.441,330.631c0,.116-.084.205-.252.205a.361.361,0,0,1-.25-.089l.035-.057a.3.3,0,0,0,.215.08c.115,0,.178-.054.178-.14s-.058-.138-.187-.138h-.05v-.052l.192-.241h-.355v-.063h.446v.051l-.2.247C556.366,330.441,556.441,330.52,556.441,330.631Z" transform="translate(-555.385 -330.13)" fill="#e0e0e0"/></g><g transform="translate(0 30.343)"><path d="M286.129,324.948c0,.032-17.812.058-39.78.058s-39.784-.026-39.784-.058,17.808-.058,39.784-.058S286.129,324.916,286.129,324.948Z" transform="translate(-206.565 -324.89)" fill="#e0e0e0"/></g><g transform="translate(26.698 19.461)" opacity="0.79"><rect width="2.898" height="7.359" fill="#fff"/></g><g transform="translate(4.413 4.737)"><path d="M227.734,209.847a3.876,3.876,0,0,1-1.334,0,3.875,3.875,0,0,1,1.334,0Z" transform="translate(-226.4 -209.789)" fill="#263238"/><g transform="translate(3.991)"><path d="M247,209.847a15.3,15.3,0,0,1-2.658,0,15.293,15.293,0,0,1,2.658,0Z" transform="translate(-244.342 -209.789)" fill="#263238"/></g><g transform="translate(9.307)"><path d="M270.894,209.847a15.3,15.3,0,0,1-2.658,0,15.293,15.293,0,0,1,2.658,0Z" transform="translate(-268.236 -209.789)" fill="#263238"/></g><g transform="translate(14.623)"><path d="M294.789,209.847a15.3,15.3,0,0,1-2.658,0,15.3,15.3,0,0,1,2.658,0Z" transform="translate(-292.131 -209.789)" fill="#263238"/></g><g transform="translate(19.939)"><path d="M318.687,209.847a15.3,15.3,0,0,1-2.658,0,15.3,15.3,0,0,1,2.658,0Z" transform="translate(-316.029 -209.789)" fill="#263238"/></g><g transform="translate(25.255)"><path d="M342.585,209.847a15.3,15.3,0,0,1-2.658,0,15.3,15.3,0,0,1,2.658,0Z" transform="translate(-339.927 -209.789)" fill="#263238"/></g><g transform="translate(30.572)"><path d="M366.485,209.847a15.3,15.3,0,0,1-2.658,0,15.3,15.3,0,0,1,2.658,0Z" transform="translate(-363.827 -209.789)" fill="#263238"/></g><g transform="translate(35.888)"><path d="M390.379,209.847a15.3,15.3,0,0,1-2.658,0,15.3,15.3,0,0,1,2.658,0Z" transform="translate(-387.721 -209.789)" fill="#263238"/></g><g transform="translate(41.204)"><path d="M414.277,209.847a15.3,15.3,0,0,1-2.658,0,15.3,15.3,0,0,1,2.658,0Z" transform="translate(-411.619 -209.789)" fill="#263238"/></g><g transform="translate(46.52)"><path d="M438.173,209.847a15.3,15.3,0,0,1-2.658,0,15.295,15.295,0,0,1,2.658,0Z" transform="translate(-435.515 -209.789)" fill="#263238"/></g><g transform="translate(51.836)"><path d="M462.07,209.847a15.3,15.3,0,0,1-2.658,0,15.3,15.3,0,0,1,2.658,0Z" transform="translate(-459.412 -209.789)" fill="#263238"/></g><g transform="translate(57.153)"><path d="M485.968,209.847a15.3,15.3,0,0,1-2.658,0,15.3,15.3,0,0,1,2.658,0Z" transform="translate(-483.31 -209.789)" fill="#263238"/></g><g transform="translate(62.469)"><path d="M509.868,209.847a15.307,15.307,0,0,1-2.659,0,15.3,15.3,0,0,1,2.659,0Z" transform="translate(-507.209 -209.789)" fill="#263238"/></g><g transform="translate(67.787)"><path d="M533.772,209.847a15.312,15.312,0,0,1-2.659,0,15.308,15.308,0,0,1,2.659,0Z" transform="translate(-531.113 -209.789)" fill="#263238"/></g><g transform="translate(73.101)"><path d="M556.336,209.847a3.876,3.876,0,0,1-1.334,0,3.875,3.875,0,0,1,1.334,0Z" transform="translate(-555.002 -209.789)" fill="#263238"/></g></g><g transform="translate(2.434 23.936)"><path d="M220.393,296.091a35.9,35.9,0,0,1-2.886,2.886,35.99,35.99,0,0,1,2.886-2.886Z" transform="translate(-217.506 -296.09)" fill="#e8505b"/></g><g transform="translate(8.706 23.985)"><path d="M248.588,296.309a36,36,0,0,1-2.886,2.886,36,36,0,0,1,2.886-2.886Z" transform="translate(-245.701 -296.308)" fill="#e8505b"/></g><g transform="translate(20.686 23.934)"><path d="M302.438,296.081a35.993,35.993,0,0,1-2.886,2.886,35.993,35.993,0,0,1,2.886-2.886Z" transform="translate(-299.551 -296.08)" fill="#e8505b"/></g><g transform="translate(2.395 21.372)"><path d="M220.217,284.567a35.9,35.9,0,0,1-2.886,2.886,36.073,36.073,0,0,1,2.886-2.886Z" transform="translate(-217.33 -284.566)" fill="#e8505b"/></g><g transform="translate(14.616 23.978)"><path d="M275.152,296.279a35.9,35.9,0,0,1-2.886,2.886,36.007,36.007,0,0,1,2.886-2.886Z" transform="translate(-272.265 -296.278)" fill="#e8505b"/></g><g transform="translate(14.577 21.414)"><path d="M274.976,284.755a35.936,35.936,0,0,1-2.886,2.886,36.056,36.056,0,0,1,2.886-2.886Z" transform="translate(-272.089 -284.754)" fill="#e8505b"/></g><g transform="translate(14.576 19.46)"><path d="M274.072,275.971a16.971,16.971,0,0,1-1.983,1.983,17.016,17.016,0,0,1,1.983-1.983Z" transform="translate(-272.088 -275.97)" fill="#e8505b"/></g><g transform="translate(38.895 23.934)" opacity="0.6"><path d="M384.291,296.081a36,36,0,0,1-2.886,2.886,36,36,0,0,1,2.886-2.886Z" transform="translate(-381.404 -296.08)" fill="#fff"/></g><g transform="translate(38.856 21.37)" opacity="0.6"><path d="M384.116,284.557a36.008,36.008,0,0,1-2.886,2.886,35.9,35.9,0,0,1,2.886-2.886Z" transform="translate(-381.229 -284.556)" fill="#fff"/></g><g transform="translate(38.856 18.513)" opacity="0.6"><path d="M384.116,271.715a35.987,35.987,0,0,1-2.886,2.886,35.907,35.907,0,0,1,2.886-2.886Z" transform="translate(-381.229 -271.714)" fill="#fff"/></g><g transform="translate(38.895 15.75)" opacity="0.6"><path d="M384.291,259.295a36.007,36.007,0,0,1-2.886,2.886,36.007,36.007,0,0,1,2.886-2.886Z" transform="translate(-381.404 -259.294)" fill="#fff"/></g><g transform="translate(38.856 13.187)" opacity="0.6"><path d="M384.116,247.771a35.981,35.981,0,0,1-2.886,2.886,35.914,35.914,0,0,1,2.886-2.886Z" transform="translate(-381.229 -247.77)" fill="#fff"/></g><g transform="translate(38.856 10.33)" opacity="0.6"><path d="M384.116,234.929a36,36,0,0,1-2.886,2.886,35.907,35.907,0,0,1,2.886-2.886Z" transform="translate(-381.229 -234.928)" fill="#fff"/></g><g transform="translate(45.016 23.934)"><path d="M411.806,296.081a36.007,36.007,0,0,1-2.886,2.886,35.993,35.993,0,0,1,2.886-2.886Z" transform="translate(-408.919 -296.08)" fill="#e8505b"/></g><g transform="translate(44.977 21.37)"><path d="M411.63,284.557a36.057,36.057,0,0,1-2.886,2.886,35.95,35.95,0,0,1,2.886-2.886Z" transform="translate(-408.743 -284.556)" fill="#e8505b"/></g><g transform="translate(44.977 18.513)"><path d="M411.63,271.715a36.037,36.037,0,0,1-2.886,2.886,35.956,35.956,0,0,1,2.886-2.886Z" transform="translate(-408.743 -271.714)" fill="#e8505b"/></g><g transform="translate(45.016 15.75)"><path d="M411.806,259.295a36.014,36.014,0,0,1-2.886,2.886,36,36,0,0,1,2.886-2.886Z" transform="translate(-408.919 -259.294)" fill="#e8505b"/></g><g transform="translate(44.977 13.187)"><path d="M411.63,247.771a36.03,36.03,0,0,1-2.886,2.886,35.963,35.963,0,0,1,2.886-2.886Z" transform="translate(-408.743 -247.77)" fill="#e8505b"/></g><g transform="translate(57.168 23.934)"><path d="M466.432,296.081a36.019,36.019,0,0,1-2.886,2.886,35.993,35.993,0,0,1,2.886-2.886Z" transform="translate(-463.545 -296.08)" fill="#263238"/></g><g transform="translate(57.129 21.37)"><path d="M466.257,284.557a36.014,36.014,0,0,1-2.886,2.886,35.907,35.907,0,0,1,2.886-2.886Z" transform="translate(-463.37 -284.556)" fill="#263238"/></g><g transform="translate(57.129 18.513)"><path d="M466.257,271.715a35.993,35.993,0,0,1-2.886,2.886,35.913,35.913,0,0,1,2.886-2.886Z" transform="translate(-463.37 -271.714)" fill="#263238"/></g><g transform="translate(57.168 15.75)"><path d="M466.432,259.295a36.026,36.026,0,0,1-2.886,2.886,36,36,0,0,1,2.886-2.886Z" transform="translate(-463.545 -259.294)" fill="#263238"/></g><g transform="translate(57.129 13.187)"><path d="M466.257,247.771a35.987,35.987,0,0,1-2.886,2.886,35.92,35.92,0,0,1,2.886-2.886Z" transform="translate(-463.37 -247.77)" fill="#263238"/></g><g transform="translate(57.129 10.741)"><path d="M466.257,236.776a35.9,35.9,0,0,1-2.886,2.886,36.017,36.017,0,0,1,2.886-2.886Z" transform="translate(-463.37 -236.775)" fill="#263238"/></g><g transform="translate(32.653 23.934)"><path d="M356.233,296.081a36.007,36.007,0,0,1-2.886,2.886,36.007,36.007,0,0,1,2.886-2.886Z" transform="translate(-353.346 -296.08)" fill="#e8505b"/></g><g transform="translate(32.614 21.37)"><path d="M356.057,284.557a36.014,36.014,0,0,1-2.886,2.886,36.014,36.014,0,0,1,2.886-2.886Z" transform="translate(-353.17 -284.556)" fill="#e8505b"/></g><g transform="translate(32.614 18.513)"><path d="M356.057,271.715a35.993,35.993,0,0,1-2.886,2.886,36.02,36.02,0,0,1,2.886-2.886Z" transform="translate(-353.17 -271.714)" fill="#e8505b"/></g><g transform="translate(26.779 23.934)"><path d="M329.829,296.081a36.019,36.019,0,0,1-2.886,2.886,35.886,35.886,0,0,1,2.886-2.886Z" transform="translate(-326.942 -296.08)" fill="#e8505b"/></g><g transform="translate(26.74 21.37)"><path d="M329.653,284.557a36.014,36.014,0,0,1-2.886,2.886,36,36,0,0,1,2.886-2.886Z" transform="translate(-326.766 -284.556)" fill="#e8505b"/></g><g transform="translate(26.74 19.435)"><path d="M328.73,275.86a16.676,16.676,0,0,1-1.964,1.964,16.639,16.639,0,0,1,1.964-1.964Z" transform="translate(-326.765 -275.859)" fill="#e8505b"/></g><g transform="translate(32.653 15.75)"><path d="M356.233,259.295a36.014,36.014,0,0,1-2.886,2.886,36.014,36.014,0,0,1,2.886-2.886Z" transform="translate(-353.346 -259.294)" fill="#e8505b"/></g><g transform="translate(32.653 10.613)"><path d="M356.233,236.2a35.907,35.907,0,0,1-2.886,2.886,36.115,36.115,0,0,1,2.886-2.886Z" transform="translate(-353.346 -236.199)" fill="#e8505b"/></g><g transform="translate(32.614 13.187)"><path d="M356.057,247.771a35.987,35.987,0,0,1-2.886,2.886,36.027,36.027,0,0,1,2.886-2.886Z" transform="translate(-353.17 -247.77)" fill="#e8505b"/></g><g transform="translate(51.276 23.934)"><path d="M439.945,296.081a35.986,35.986,0,0,1-2.886,2.886,36,36,0,0,1,2.886-2.886Z" transform="translate(-437.058 -296.08)" fill="#e8505b"/></g><g transform="translate(51.237 21.37)"><path d="M439.769,284.557a36.014,36.014,0,0,1-2.886,2.886,35.987,35.987,0,0,1,2.886-2.886Z" transform="translate(-436.882 -284.556)" fill="#e8505b"/></g><g transform="translate(51.237 18.513)"><path d="M439.769,271.715a35.993,35.993,0,0,1-2.886,2.886,35.993,35.993,0,0,1,2.886-2.886Z" transform="translate(-436.882 -271.714)" fill="#e8505b"/></g><g transform="translate(51.276 15.75)"><path d="M439.945,259.295a35.993,35.993,0,0,1-2.886,2.886,36.007,36.007,0,0,1,2.886-2.886Z" transform="translate(-437.058 -259.294)" fill="#e8505b"/></g><g transform="translate(51.237 13.187)"><path d="M439.769,247.771a35.987,35.987,0,0,1-2.886,2.886,36,36,0,0,1,2.886-2.886Z" transform="translate(-436.882 -247.77)" fill="#e8505b"/></g><g transform="translate(51.237 10.33)"><path d="M439.769,234.929a36.007,36.007,0,0,1-2.886,2.886,35.993,35.993,0,0,1,2.886-2.886Z" transform="translate(-436.882 -234.928)" fill="#e8505b"/></g><g transform="translate(51.237 7.733)"><path d="M439.769,223.257a35.906,35.906,0,0,1-2.886,2.886,36.087,36.087,0,0,1,2.886-2.886Z" transform="translate(-436.882 -223.256)" fill="#e8505b"/></g><g transform="translate(51.237 5.63)"><path d="M439.275,213.8a24.782,24.782,0,0,1-2.393,2.393,24.722,24.722,0,0,1,2.393-2.393Z" transform="translate(-436.882 -213.803)" fill="#e8505b"/></g><g transform="translate(38.895 7.427)" opacity="0.6"><path d="M384.291,221.882a35.9,35.9,0,0,1-2.886,2.886,36.108,36.108,0,0,1,2.886-2.886Z" transform="translate(-381.404 -221.881)" fill="#fff"/></g><g transform="translate(38.856 4.864)" opacity="0.6"><path d="M384.116,210.359a36,36,0,0,1-2.886,2.886,35.91,35.91,0,0,1,2.886-2.886Z" transform="translate(-381.229 -210.358)" fill="#fff"/></g><g transform="translate(38.856 3.167)" opacity="0.6"><path d="M382.954,202.731a12.87,12.87,0,0,1-1.726,1.726,12.87,12.87,0,0,1,1.726-1.726Z" transform="translate(-381.228 -202.73)" fill="#fff"/></g><g transform="translate(63.677 24.039)"><path d="M495.688,296.552a35.913,35.913,0,0,1-2.886,2.886,35.967,35.967,0,0,1,2.886-2.886Z" transform="translate(-492.801 -296.551)" fill="#e8505b"/></g><g transform="translate(63.637 21.475)"><path d="M495.512,285.029a36.013,36.013,0,0,1-2.886,2.886,35.973,35.973,0,0,1,2.886-2.886Z" transform="translate(-492.625 -285.028)" fill="#e8505b"/></g><g transform="translate(63.637 18.634)"><path d="M495.5,272.259a35.527,35.527,0,0,1-2.87,2.87,35.633,35.633,0,0,1,2.87-2.87Z" transform="translate(-492.625 -272.258)" fill="#e8505b"/></g><g transform="translate(70.272 24.039)"><path d="M525.335,296.552a35.9,35.9,0,0,1-2.886,2.886,36.008,36.008,0,0,1,2.886-2.886Z" transform="translate(-522.448 -296.551)" fill="#e8505b"/></g><g transform="translate(70.233 21.475)"><path d="M525.159,285.029a35.986,35.986,0,0,1-2.886,2.886,36,36,0,0,1,2.886-2.886Z" transform="translate(-522.272 -285.028)" fill="#e8505b"/></g><g transform="translate(70.232 20.589)"><path d="M523.183,281.045c.011.011-.03.073-.106.164-.038.045-.085.1-.138.155l-.084.089-.045.046-.023.024-.011.012-.006.006,0,0h0l-.082-.082h0l.082.082h0l0,0-.006.006-.012.012-.023.023-.046.045-.089.084c-.057.053-.11.1-.155.138-.091.076-.153.117-.164.106s.03-.073.106-.164c.038-.045.085-.1.138-.155l.084-.089.045-.047.023-.023.012-.012.006-.006,0,0h0l.082.082h0l-.082-.082h0l0,0,.006-.006.012-.012.024-.023.046-.045.089-.084c.057-.053.11-.1.155-.138C523.11,281.075,523.172,281.034,523.183,281.045Z" transform="translate(-522.267 -281.043)" fill="#e8505b"/></g><g transform="translate(76.38 24.039)"><path d="M552.791,296.552a35.9,35.9,0,0,1-2.886,2.886,36.008,36.008,0,0,1,2.886-2.886Z" transform="translate(-549.904 -296.551)" fill="#e8505b"/></g><g transform="translate(76.34 22.966)"><path d="M551.121,291.732a8.424,8.424,0,0,1-1.394,1.394,8.424,8.424,0,0,1,1.394-1.394Z" transform="translate(-549.726 -291.73)" fill="#e8505b"/></g></g><g transform="translate(0 18.062)"><path d="M269.853,108.482c0,.032-22.1.058-49.348.058s-49.352-.026-49.352-.058,22.092-.058,49.352-.058S269.853,108.45,269.853,108.482Z" transform="translate(-171.153 -108.424)" fill="#263238"/></g><g transform="translate(14.449 24.849)"><rect width="20.705" height="6.926" rx="3.463" fill="#67c53a"/><g transform="translate(3.096 1.966)"><path d="M251.371,150.66l-.58-.984-.233.268a.225.225,0,0,1-.394-.13l-.141-1.8a.225.225,0,0,1,.342-.209l1.5.923a.225.225,0,0,1-.052.407l-.318.1.689.931Zm-.545-1.363.622,1.056.416-.254-.732-.989.619-.189-1.5-.928-.115.011.111-.009.141,1.8Z" transform="translate(-250.022 -147.77)" fill="#fff"/></g><g transform="translate(7.667 0.359)" opacity="0.4"><path d="M270.627,146.61c-.032,0-.058-1.357-.058-3.03s.026-3.03.058-3.03.058,1.357.058,3.03S270.659,146.61,270.627,146.61Z" transform="translate(-270.569 -140.549)" fill="#fff"/></g><g transform="translate(8.876 1.653)"><path d="M276,146.93a.385.385,0,0,1,.4-.39.372.372,0,0,1,.281.112l-.052.052a.3.3,0,0,0-.227-.091.318.318,0,1,0,0,.636.3.3,0,0,0,.227-.092l.052.052a.374.374,0,0,1-.282.113A.385.385,0,0,1,276,146.93Z" transform="translate(-276.004 -146.501)" fill="#fff"/><path d="M279.782,146.363h.078v.814h-.078Z" transform="translate(-278.942 -146.363)" fill="#fff"/><path d="M281.031,146.418a.056.056,0,0,1,.057-.055.055.055,0,0,1,.057.054.057.057,0,0,1-.114,0Zm.017.182h.078v.577h-.078Z" transform="translate(-279.913 -146.363)" fill="#fff"/><path d="M282.175,147.7a.284.284,0,0,1,.3-.293.252.252,0,0,1,.226.114l-.058.039a.2.2,0,0,0-.168-.085.225.225,0,0,0,0,.45.2.2,0,0,0,.168-.085l.058.04a.254.254,0,0,1-.226.114A.285.285,0,0,1,282.175,147.7Z" transform="translate(-280.802 -147.176)" fill="#fff"/><path d="M285.389,146.887l-.136.125v.164h-.078v-.814h.078v.551l.344-.315h.1l-.246.236.27.341h-.1Z" transform="translate(-283.135 -146.363)" fill="#fff"/><path d="M287.7,147.923l.035-.061a.348.348,0,0,0,.205.065c.11,0,.155-.037.155-.094,0-.15-.374-.032-.374-.26,0-.094.081-.164.228-.164a.391.391,0,0,1,.2.054l-.034.063a.294.294,0,0,0-.17-.049c-.1,0-.15.041-.15.1,0,.156.374.038.374.26,0,.1-.088.164-.238.164A.384.384,0,0,1,287.7,147.923Z" transform="translate(-285.099 -147.176)" fill="#fff"/></g><g transform="translate(8.838 3.505)"><path d="M276.5,154.8v1.68h-.312v-1.418h-.355V154.8Z" transform="translate(-275.835 -154.773)" fill="#fff"/><path d="M280.33,155.553c0-.552.3-.864.7-.864s.7.312.7.864-.3.864-.7.864S280.33,156.1,280.33,155.553Zm1.09,0c0-.406-.158-.593-.389-.593s-.386.187-.386.593.159.593.386.593S281.42,155.959,281.42,155.553Z" transform="translate(-279.33 -154.689)" fill="#fff"/><path d="M287.414,160.832a.2.2,0,1,1,.393,0,.2.2,0,1,1-.393,0Z" transform="translate(-284.838 -159.311)" fill="#fff"/><path d="M291.049,155.961c0,.3-.214.54-.665.54a1.049,1.049,0,0,1-.631-.194l.132-.242a.8.8,0,0,0,.494.166c.223,0,.355-.1.355-.257s-.1-.262-.451-.262h-.406l.086-.914h.986v.262h-.722l-.036.389h.161C290.85,155.447,291.049,155.663,291.049,155.961Z" transform="translate(-286.657 -154.773)" fill="#fff"/><path d="M296.383,155.553c0-.552.3-.864.7-.864s.7.312.7.864-.3.864-.7.864S296.383,156.1,296.383,155.553Zm1.09,0c0-.406-.158-.593-.389-.593s-.387.187-.387.593.159.593.387.593S297.473,155.959,297.473,155.553Z" transform="translate(-291.812 -154.689)" fill="#fff"/><path d="M303.639,155.553c0-.552.3-.864.7-.864s.7.312.7.864-.3.864-.7.864S303.639,156.1,303.639,155.553Zm1.09,0c0-.406-.158-.593-.389-.593s-.386.187-.386.593.158.593.386.593S304.729,155.959,304.729,155.553Z" transform="translate(-297.454 -154.689)" fill="#fff"/></g><g transform="translate(24.473)"><rect width="20.705" height="6.926" rx="2.778" fill="#c2e8b0"/><g transform="translate(8.944 1.647)"><path d="M386.92,146.833c0,.163-.118.262-.313.262H386.4v.242h-.081v-.767h.287C386.8,146.57,386.92,146.669,386.92,146.833Zm-.081,0c0-.123-.081-.193-.235-.193h-.2v.384h.2C386.758,147.024,386.839,146.954,386.839,146.833Z" transform="translate(-386.319 -146.518)" fill="#fff"/><path d="M390.022,147.725h-.482a.214.214,0,0,0,.227.2.228.228,0,0,0,.177-.076l.044.05a.305.305,0,0,1-.525-.2.278.278,0,0,1,.282-.293.275.275,0,0,1,.28.293C390.024,147.707,390.022,147.716,390.022,147.725Zm-.482-.058h.409a.2.2,0,0,0-.409,0Z" transform="translate(-388.763 -147.17)" fill="#fff"/><path d="M392.994,147.408v.076h-.019a.187.187,0,0,0-.194.213v.294H392.7v-.577h.075v.113A.217.217,0,0,1,392.994,147.408Z" transform="translate(-391.284 -147.17)" fill="#fff"/><path d="M394.457,146.512v.068h.178v.066h-.175v.511h-.078v-.511h-.1v-.066h.1v-.071a.159.159,0,0,1,.174-.171.183.183,0,0,1,.115.036l-.027.058a.131.131,0,0,0-.085-.028C394.492,146.4,394.457,146.441,394.457,146.512Z" transform="translate(-392.507 -146.338)" fill="#fff"/><path d="M396.048,147.7a.293.293,0,1,1,.294.294A.284.284,0,0,1,396.048,147.7Zm.508,0a.215.215,0,1,0-.214.225A.211.211,0,0,0,396.556,147.7Z" transform="translate(-393.884 -147.17)" fill="#fff"/><path d="M399.695,147.408v.076h-.019a.186.186,0,0,0-.194.213v.294H399.4v-.577h.074v.113A.217.217,0,0,1,399.695,147.408Z" transform="translate(-396.493 -147.17)" fill="#fff"/><path d="M402.294,147.654v.335h-.078v-.327c0-.122-.061-.184-.166-.184a.185.185,0,0,0-.193.208v.3h-.078v-.327c0-.122-.061-.184-.167-.184a.186.186,0,0,0-.193.208v.3h-.078v-.577h.074v.105a.234.234,0,0,1,.212-.11.207.207,0,0,1,.2.122.251.251,0,0,1,.228-.122A.218.218,0,0,1,402.294,147.654Z" transform="translate(-398 -147.17)" fill="#fff"/><path d="M406.844,147.632v.357h-.075v-.09a.216.216,0,0,1-.2.1c-.131,0-.21-.068-.21-.168s.057-.163.222-.163h.183v-.035c0-.1-.056-.152-.163-.152a.293.293,0,0,0-.192.068l-.035-.058a.367.367,0,0,1,.235-.078A.2.2,0,0,1,406.844,147.632Zm-.078.184v-.094h-.181c-.112,0-.148.044-.148.1s.054.108.146.108A.185.185,0,0,0,406.767,147.816Z" transform="translate(-401.902 -147.17)" fill="#fff"/><path d="M410.02,147.654v.335h-.078v-.327a.161.161,0,0,0-.173-.184.189.189,0,0,0-.2.208v.3h-.078v-.577h.075v.106a.242.242,0,0,1,.219-.111A.221.221,0,0,1,410.02,147.654Z" transform="translate(-404.335 -147.17)" fill="#fff"/><path d="M412.577,147.7a.284.284,0,0,1,.3-.293.252.252,0,0,1,.226.114l-.058.039a.2.2,0,0,0-.168-.085.225.225,0,0,0,0,.45.2.2,0,0,0,.168-.085l.058.04a.254.254,0,0,1-.226.114A.285.285,0,0,1,412.577,147.7Z" transform="translate(-406.736 -147.17)" fill="#fff"/><path d="M415.87,147.725h-.483a.214.214,0,0,0,.227.2.228.228,0,0,0,.177-.076l.044.05a.3.3,0,0,1-.525-.2.278.278,0,0,1,.282-.293.275.275,0,0,1,.28.293C415.871,147.707,415.87,147.716,415.87,147.725Zm-.483-.058h.409a.2.2,0,0,0-.409,0Z" transform="translate(-408.861 -147.17)" fill="#fff"/></g><g transform="translate(8.915 3.505)"><path d="M387.562,155.911c0,.312-.271.506-.689.506s-.684-.194-.684-.506a.422.422,0,0,1,.269-.4.383.383,0,0,1-.209-.353c0-.288.252-.468.624-.468s.629.18.629.468a.383.383,0,0,1-.214.353A.423.423,0,0,1,387.562,155.911Zm-.314-.01c0-.166-.144-.269-.375-.269s-.37.1-.37.269.139.271.37.271S387.247,156.071,387.247,155.9Zm-.691-.73c0,.144.12.235.317.235s.322-.091.322-.235-.13-.238-.322-.238S386.556,155.02,386.556,155.171Z" transform="translate(-386.189 -154.689)" fill="#fff"/><path d="M393.326,160.832a.2.2,0,1,1,.393,0,.2.2,0,1,1-.393,0Z" transform="translate(-391.738 -159.311)" fill="#fff"/><path d="M396.962,155.961c0,.3-.214.54-.665.54a1.048,1.048,0,0,1-.631-.194l.132-.242a.8.8,0,0,0,.495.166c.223,0,.355-.1.355-.257s-.1-.262-.451-.262h-.406l.086-.914h.986v.262h-.722l-.036.389h.161C396.762,155.447,396.962,155.663,396.962,155.961Z" transform="translate(-393.558 -154.773)" fill="#fff"/><path d="M402.3,155.553c0-.552.3-.864.7-.864s.7.312.7.864-.3.864-.7.864S402.3,156.1,402.3,155.553Zm1.09,0c0-.406-.158-.593-.389-.593s-.386.187-.386.593.158.593.386.593S403.385,155.959,403.385,155.553Z" transform="translate(-398.712 -154.689)" fill="#fff"/><path d="M409.551,155.553c0-.552.3-.864.7-.864s.7.312.7.864-.3.864-.7.864S409.551,156.1,409.551,155.553Zm1.09,0c0-.406-.158-.593-.389-.593s-.387.187-.387.593.158.593.387.593S410.641,155.959,410.641,155.553Z" transform="translate(-404.354 -154.689)" fill="#fff"/></g><g transform="translate(2.488 1.713)"><path d="M358.143,149.807a.264.264,0,0,1-.261-.3l.108-.793a.04.04,0,0,0-.013-.036l-.592-.539a.263.263,0,0,1,.13-.454l.788-.142a.041.041,0,0,0,.03-.024l.329-.729a.263.263,0,0,1,.472-.016l.379.7a.042.042,0,0,0,.032.021l.8.088a.263.263,0,0,1,.161.444l-.553.578a.041.041,0,0,0-.011.037l.162.784a.264.264,0,0,1-.373.291l-.721-.348a.042.042,0,0,0-.038,0l-.695.4A.264.264,0,0,1,358.143,149.807Zm.759-2.948h0a.039.039,0,0,0-.036.024l-.329.729a.263.263,0,0,1-.193.151l-.787.142a.041.041,0,0,0-.02.071l.592.538a.264.264,0,0,1,.084.23l-.108.793a.041.041,0,0,0,.061.041l.7-.4a.263.263,0,0,1,.245-.008l.721.348a.039.039,0,0,0,.043,0,.039.039,0,0,0,.015-.04l-.162-.784a.263.263,0,0,1,.068-.236l.554-.578a.04.04,0,0,0,.009-.043.039.039,0,0,0-.034-.027l-.8-.088a.263.263,0,0,1-.2-.137l-.379-.7A.039.039,0,0,0,358.9,146.858Z" transform="translate(-357.298 -146.635)" fill="#fff"/></g></g><g transform="translate(48.946)"><rect width="20.705" height="6.926" rx="3.463" fill="#fd963d"/><g transform="translate(7.667 0.359)" opacity="0.4"><path d="M490.647,146.61c-.032,0-.058-1.357-.058-3.03s.026-3.03.058-3.03.058,1.357.058,3.03S490.679,146.61,490.647,146.61Z" transform="translate(-490.589 -140.549)" fill="#fff"/></g><g transform="translate(8.944 1.653)"><path d="M496.329,146.57h.313a.385.385,0,1,1,0,.767h-.313Zm.308.7a.314.314,0,1,0,0-.627h-.227v.627Z" transform="translate(-496.329 -146.524)" fill="#fff"/><path d="M500.069,147.7a.293.293,0,1,1,.294.294A.284.284,0,0,1,500.069,147.7Zm.508,0a.215.215,0,1,0-.214.225A.21.21,0,0,0,500.577,147.7Z" transform="translate(-499.237 -147.176)" fill="#fff"/><path d="M503.847,147.428l-.218.577h-.074l-.182-.473-.182.473h-.073l-.217-.577h.075l.181.49.185-.49h.067l.184.49.183-.49Z" transform="translate(-501.439 -147.191)" fill="#fff"/><path d="M508.218,147.654v.335h-.078v-.327a.161.161,0,0,0-.173-.184.189.189,0,0,0-.2.208v.3h-.078v-.577h.075v.106a.242.242,0,0,1,.219-.111A.221.221,0,0,1,508.218,147.654Z" transform="translate(-505.16 -147.176)" fill="#fff"/><path d="M511.027,146.363h.078v.814h-.078Z" transform="translate(-507.757 -146.363)" fill="#fff"/><path d="M512.092,147.7a.293.293,0,1,1,.294.294A.284.284,0,0,1,512.092,147.7Zm.508,0a.215.215,0,1,0-.214.225A.211.211,0,0,0,512.6,147.7Z" transform="translate(-508.585 -147.176)" fill="#fff"/><path d="M515.7,147.632v.357h-.074v-.09a.216.216,0,0,1-.2.1c-.131,0-.211-.068-.211-.168s.057-.163.222-.163h.183v-.035c0-.1-.056-.152-.163-.152a.293.293,0,0,0-.192.068l-.035-.058a.365.365,0,0,1,.234-.078A.2.2,0,0,1,515.7,147.632Zm-.078.184v-.094h-.181c-.112,0-.148.044-.148.1s.054.108.146.108A.185.185,0,0,0,515.622,147.816Z" transform="translate(-511.014 -147.176)" fill="#fff"/><path d="M518.676,146.363v.814H518.6v-.114a.25.25,0,0,1-.223.119.293.293,0,0,1,0-.586.252.252,0,0,1,.22.114v-.346Zm-.077.525a.215.215,0,1,0-.214.225A.211.211,0,0,0,518.6,146.888Z" transform="translate(-513.251 -146.363)" fill="#fff"/></g><g transform="translate(8.925 3.505)"><path d="M497.584,155.872a.56.56,0,0,1-.614.545c-.458,0-.727-.3-.727-.835a.8.8,0,0,1,.823-.893.841.841,0,0,1,.442.108l-.115.235a.571.571,0,0,0-.319-.082c-.317,0-.516.2-.516.578v0a.574.574,0,0,1,.449-.175A.525.525,0,0,1,497.584,155.872Zm-.3.014c0-.175-.132-.286-.336-.286a.306.306,0,0,0-.341.288c0,.158.125.283.348.283A.292.292,0,0,0,497.282,155.887Z" transform="translate(-496.243 -154.689)" fill="#fff"/><path d="M503.067,160.832a.2.2,0,1,1,.394,0,.2.2,0,1,1-.394,0Z" transform="translate(-501.549 -159.311)" fill="#fff"/><path d="M506.7,155.961c0,.3-.214.54-.665.54a1.048,1.048,0,0,1-.631-.194l.132-.242a.8.8,0,0,0,.494.166c.223,0,.355-.1.355-.257s-.1-.262-.451-.262h-.406l.087-.914h.986v.262h-.722l-.036.389h.161C506.5,155.447,506.7,155.663,506.7,155.961Z" transform="translate(-503.368 -154.773)" fill="#fff"/><path d="M512.037,155.553c0-.552.3-.864.7-.864s.7.312.7.864-.3.864-.7.864S512.037,156.1,512.037,155.553Zm1.089,0c0-.406-.158-.593-.389-.593s-.386.187-.386.593.158.593.386.593S513.126,155.959,513.126,155.553Z" transform="translate(-508.523 -154.689)" fill="#fff"/><path d="M519.293,155.553c0-.552.3-.864.7-.864s.7.312.7.864-.3.864-.7.864S519.293,156.1,519.293,155.553Zm1.089,0c0-.406-.158-.593-.389-.593s-.386.187-.386.593.158.593.386.593S520.382,155.959,520.382,155.553Z" transform="translate(-514.165 -154.689)" fill="#fff"/></g><g transform="translate(2.546 2.149)"><path d="M469.158,151.765a1.586,1.586,0,1,1,1.586-1.586A1.587,1.587,0,0,1,469.158,151.765Zm0-2.949a1.363,1.363,0,1,0,1.363,1.363A1.365,1.365,0,0,0,469.158,148.816Z" transform="translate(-467.572 -148.594)" fill="#fff"/><g transform="translate(0.793 1.474)"><path d="M471.923,156.3a.111.111,0,0,1-.086-.04l-.673-.813a.111.111,0,1,1,.171-.142l.581.7.531-.74a.111.111,0,0,1,.181.13l-.615.857a.111.111,0,0,1-.087.047Z" transform="translate(-471.139 -155.22)" fill="#fff"/></g><g transform="translate(1.456 0.736)"><path d="M474.228,153.689a.111.111,0,0,1-.111-.111v-1.565a.111.111,0,1,1,.222,0v1.565A.111.111,0,0,1,474.228,153.689Z" transform="translate(-474.117 -151.902)" fill="#fff"/></g></g></g></g><g transform="translate(4.836 14.704)"><circle cx="0.597" cy="0.597" r="0.597" fill="#263238"/></g><g transform="translate(6.912 14.704)"><circle cx="0.597" cy="0.597" r="0.597" fill="#263238"/></g><g transform="translate(8.987 14.704)"><circle cx="0.597" cy="0.597" r="0.597" fill="#263238"/></g><g transform="translate(84.498)"><path d="M550.995,27.677l-.011,0,.125-.44.011,0Z" transform="translate(-550.984 -27.233)" fill="#263238"/></g></g><g transform="translate(7.201 84.924)"><path d="M283.926,409.038c0,.032-19.659.058-43.9.058s-43.907-.026-43.907-.058,19.654-.058,43.907-.058S283.926,409.006,283.926,409.038Z" transform="translate(-196.116 -408.98)" fill="#455a64"/></g></g><g transform="translate(92.479 -14.154)"><g transform="translate(0.058 0.058)"><rect width="40.862" height="18.89" fill="#fafafa"/></g><path d="M565.344,184.479s0-.116,0-.337,0-.552,0-.982c0-.863-.006-2.131-.011-3.764-.005-3.263-.013-7.981-.023-13.807l.042.042-40.86.016h0l.058-.058c0,6.644,0,13.034,0,18.89l-.055-.055,29.337.026,8.475.015,2.264.007.585,0c.132,0,.2,0,.2,0s-.065,0-.194,0l-.579,0-2.253.007-8.462.015-29.375.026h-.055v-.055c0-5.856,0-12.246,0-18.89v-.058h.061l40.86.016h.042v.042c-.01,5.837-.017,10.564-.022,13.833,0,1.629-.008,2.894-.011,3.754,0,.427,0,.753,0,.974S565.344,184.479,565.344,184.479Z" transform="translate(-524.424 -165.531)" fill="#263238"/><g transform="translate(2.731 5.071)"><g transform="translate(0 0.613)"><g transform="translate(0 7.417)"><path d="M536.9,224.445v.6h-.061V224.5H536.7v-.054Z" transform="translate(-536.699 -224.44)" fill="#263238"/><path d="M538.25,224.725c0-.19.1-.3.238-.3s.238.113.238.3-.1.3-.238.3S538.25,224.915,538.25,224.725Zm.413,0c0-.159-.071-.247-.175-.247s-.176.088-.176.247.072.247.176.247S538.663,224.885,538.663,224.725Z" transform="translate(-537.905 -224.422)" fill="#263238"/></g><g transform="translate(0.008 3.708)"><path d="M537.17,208.3v.055h-.418v-.043l.248-.243c.067-.066.08-.106.08-.147,0-.069-.049-.112-.14-.112a.2.2,0,0,0-.163.067l-.043-.037a.267.267,0,0,1,.211-.085c.121,0,.2.061.2.161a.245.245,0,0,1-.1.187l-.2.2Z" transform="translate(-536.734 -207.753)" fill="#263238"/><path d="M539.028,208.056c0-.19.1-.3.238-.3s.239.113.239.3-.1.3-.239.3S539.028,208.246,539.028,208.056Zm.413,0c0-.159-.071-.247-.176-.247s-.176.088-.176.247.072.247.176.247S539.441,208.216,539.441,208.056Z" transform="translate(-538.518 -207.753)" fill="#263238"/></g><path d="M537.13,191.531c0,.1-.073.176-.216.176a.31.31,0,0,1-.215-.077l.03-.049a.26.26,0,0,0,.185.069c.1,0,.153-.046.153-.12s-.05-.118-.161-.118h-.042v-.045l.165-.207h-.3v-.055h.384v.044l-.169.212C537.066,191.369,537.13,191.436,537.13,191.531Z" transform="translate(-536.699 -191.101)" fill="#263238"/><path d="M539.028,191.386c0-.19.1-.3.238-.3s.239.113.239.3-.1.3-.239.3S539.028,191.576,539.028,191.386Zm.413,0c0-.159-.071-.247-.176-.247s-.176.088-.176.247.072.247.176.247S539.441,191.546,539.441,191.386Z" transform="translate(-538.51 -191.083)" fill="#263238"/></g><g transform="translate(2.835 9.987)"><path d="M549.442,233.521c0-.19.1-.3.238-.3s.239.113.239.3-.1.3-.239.3S549.442,233.711,549.442,233.521Zm.413,0c0-.16-.071-.247-.176-.247s-.175.088-.175.247.072.247.175.247S549.855,233.681,549.855,233.521Z" transform="translate(-549.442 -233.218)" fill="#263238"/><g transform="translate(4.213 0.005)"><path d="M568.58,233.241v.6h-.062V233.3h-.14v-.055Z" transform="translate(-568.378 -233.241)" fill="#263238"/></g><g transform="translate(8.631)"><path d="M588.677,233.765v.054h-.419v-.043l.248-.243c.067-.066.08-.106.08-.147,0-.069-.048-.112-.139-.112a.2.2,0,0,0-.163.067l-.043-.038a.268.268,0,0,1,.211-.085c.121,0,.2.061.2.161a.244.244,0,0,1-.1.187l-.2.2Z" transform="translate(-588.241 -233.218)" fill="#263238"/></g><g transform="translate(13.034 0.005)"><path d="M608.465,233.666c0,.1-.073.176-.216.176a.31.31,0,0,1-.215-.077l.03-.049a.26.26,0,0,0,.185.069c.1,0,.153-.046.153-.12s-.051-.118-.161-.118H608.2V233.5l.165-.207h-.3v-.055h.384v.043l-.169.212C608.4,233.5,608.465,233.571,608.465,233.666Z" transform="translate(-608.034 -233.241)" fill="#263238"/></g><g transform="translate(17.472 0.005)"><path d="M628.5,233.681h-.119v.157h-.061v-.157h-.337v-.044l.316-.4h.068l-.305.385h.259v-.138h.059v.138h.119Z" transform="translate(-627.981 -233.241)" fill="#263238"/></g><g transform="translate(21.868 0.005)"><path d="M648.17,233.662c0,.1-.071.181-.216.181a.308.308,0,0,1-.214-.077l.03-.049a.257.257,0,0,0,.183.069c.1,0,.155-.049.155-.122s-.048-.124-.2-.124h-.127l.031-.3h.326v.055h-.273l-.02.19h.077C648.1,233.486,648.17,233.556,648.17,233.662Z" transform="translate(-647.74 -233.241)" fill="#263238"/></g><g transform="translate(26.304)"><path d="M668.131,233.642a.186.186,0,0,1-.2.183c-.159,0-.245-.11-.245-.3s.111-.309.273-.309a.275.275,0,0,1,.141.032l-.025.049a.208.208,0,0,0-.116-.028c-.129,0-.212.083-.212.245,0,.014,0,.031,0,.048a.19.19,0,0,1,.182-.1A.181.181,0,0,1,668.131,233.642Zm-.061,0c0-.078-.058-.129-.15-.129a.138.138,0,0,0-.153.13c0,.066.054.128.158.128A.13.13,0,0,0,668.071,233.643Z" transform="translate(-667.683 -233.218)" fill="#263238"/></g><g transform="translate(30.698 0.005)"><path d="M687.872,233.241v.043l-.25.553h-.067l.246-.542h-.307v.112h-.061v-.166Z" transform="translate(-687.434 -233.241)" fill="#263238"/></g></g><g transform="translate(2.772 0.849)"><g transform="translate(0.396 7.455)"><path d="M581.773,225.713c0,.032-6.9.058-15.417.058s-15.418-.026-15.418-.058,6.9-.058,15.418-.058S581.773,225.681,581.773,225.713Z" transform="translate(-550.938 -225.655)" fill="#263238"/></g><g transform="translate(0.396 3.728)"><path d="M581.773,208.958c0,.032-6.9.058-15.417.058s-15.418-.026-15.418-.058,6.9-.058,15.418-.058S581.773,208.926,581.773,208.958Z" transform="translate(-550.938 -208.9)" fill="#263238"/></g><g transform="translate(0.396)"><path d="M581.773,192.2c0,.032-6.9.058-15.417.058s-15.418-.026-15.418-.058,6.9-.058,15.418-.058S581.773,192.17,581.773,192.2Z" transform="translate(-550.938 -192.144)" fill="#263238"/></g><g transform="translate(0 7.26)"><path d="M549.554,224.978a.2.2,0,1,1-.2-.2A.2.2,0,0,1,549.554,224.978Z" transform="translate(-549.158 -224.78)" fill="#e8505b"/><g transform="translate(4.433)"><path d="M569.482,224.978a.2.2,0,1,1-.2-.2A.2.2,0,0,1,569.482,224.978Z" transform="translate(-569.086 -224.78)" fill="#e8505b"/></g><g transform="translate(8.867)"><path d="M589.411,224.978a.2.2,0,1,1-.2-.2A.2.2,0,0,1,589.411,224.978Z" transform="translate(-589.015 -224.78)" fill="#e8505b"/></g><g transform="translate(13.3)"><path d="M609.339,224.978a.2.2,0,1,1-.2-.2A.2.2,0,0,1,609.339,224.978Z" transform="translate(-608.943 -224.78)" fill="#e8505b"/></g><g transform="translate(17.733)"><path d="M629.267,224.978a.2.2,0,1,1-.2-.2A.2.2,0,0,1,629.267,224.978Z" transform="translate(-628.871 -224.78)" fill="#e8505b"/></g><g transform="translate(26.6)"><path d="M669.124,224.978a.2.2,0,1,1-.2-.2A.2.2,0,0,1,669.124,224.978Z" transform="translate(-668.728 -224.78)" fill="#e8505b"/></g><g transform="translate(22.167)"><path d="M649.2,224.978a.2.2,0,1,1-.2-.2A.2.2,0,0,1,649.2,224.978Z" transform="translate(-648.8 -224.78)" fill="#e8505b"/></g><g transform="translate(31.033)"><path d="M689.052,224.978a.2.2,0,1,1-.2-.2A.2.2,0,0,1,689.052,224.978Z" transform="translate(-688.656 -224.78)" fill="#e8505b"/></g></g><g transform="translate(2.156 7.383)"><path d="M559.111,225.461a.13.13,0,1,1-.13-.13A.13.13,0,0,1,559.111,225.461Z" transform="translate(-558.851 -225.331)" fill="#e0e0e0"/><g transform="translate(4.45)"><path d="M579.114,225.461a.13.13,0,1,1-.13-.13A.13.13,0,0,1,579.114,225.461Z" transform="translate(-578.854 -225.331)" fill="#e0e0e0"/></g><g transform="translate(8.9 0)"><circle cx="0.13" cy="0.13" r="0.13" fill="#e0e0e0"/></g><g transform="translate(13.35 0)"><circle cx="0.13" cy="0.13" r="0.13" fill="#e0e0e0"/></g><g transform="translate(17.8 0)"><circle cx="0.13" cy="0.13" r="0.13" fill="#e0e0e0"/></g><g transform="translate(22.25)"><path d="M659.128,225.461a.13.13,0,1,1-.13-.13A.13.13,0,0,1,659.128,225.461Z" transform="translate(-658.868 -225.331)" fill="#e0e0e0"/></g><g transform="translate(26.7)"><path d="M679.131,225.461a.13.13,0,1,1-.13-.13A.13.13,0,0,1,679.131,225.461Z" transform="translate(-678.871 -225.331)" fill="#e0e0e0"/></g></g></g><g transform="translate(3.713)"><g transform="translate(3.204 6.229)"><path d="M568.764,216.811a.486.486,0,1,1-.486-.486A.486.486,0,0,1,568.764,216.811Z" transform="translate(-567.793 -216.325)" fill="#e8505b"/></g><g transform="translate(7.072 3.946)"><path d="M586.151,206.551a.486.486,0,1,1-.486-.486A.486.486,0,0,1,586.151,206.551Z" transform="translate(-585.18 -206.065)" fill="#e8505b"/></g><g transform="translate(11.873 4.149)"><path d="M607.731,207.463a.486.486,0,1,1-.486-.486A.486.486,0,0,1,607.731,207.463Z" transform="translate(-606.76 -206.977)" fill="#e8505b"/></g><g transform="translate(16.559)"><path d="M628.8,188.812a.486.486,0,1,1-.486-.486A.486.486,0,0,1,628.8,188.812Z" transform="translate(-627.828 -188.326)" fill="#e8505b"/></g><g transform="translate(20.937 2.639)"><path d="M648.478,200.674a.486.486,0,1,1-.486-.486A.486.486,0,0,1,648.478,200.674Z" transform="translate(-647.507 -200.188)" fill="#e8505b"/></g><g transform="translate(25.37 3.341)"><path d="M668.406,203.832a.486.486,0,1,1-.486-.486A.486.486,0,0,1,668.406,203.832Z" transform="translate(-667.435 -203.346)" fill="#e8505b"/></g><g transform="translate(0 0.431)"><path d="M583.878,196.547a.69.69,0,0,1-.114,0,2.363,2.363,0,0,1-.331-.044,2.509,2.509,0,0,1-1.153-.548,2.4,2.4,0,0,1-.566-.737,5.388,5.388,0,0,0-.594-.919,1.961,1.961,0,0,0-1-.7,1.277,1.277,0,0,0-.663.024,1.783,1.783,0,0,0-.615.348,11.78,11.78,0,0,0-1.022,1.171,2.024,2.024,0,0,1-.666.518,1.342,1.342,0,0,1-.875.072,1.1,1.1,0,0,1-.666-.612,4.249,4.249,0,0,1-.287-.885,5.114,5.114,0,0,0-.264-.9.707.707,0,0,0-.284-.34.926.926,0,0,0-.448-.087,7.5,7.5,0,0,0-.975.172,2.837,2.837,0,0,1-.514.059,1.162,1.162,0,0,1-.523-.1,1.065,1.065,0,0,1-.415-.348,2.59,2.59,0,0,1-.254-.472c-.141-.328-.234-.672-.362-1a2.422,2.422,0,0,0-.234-.47.856.856,0,0,0-.385-.32c-.04-.012-.08-.027-.121-.036l-.128-.012a.462.462,0,0,0-.237.049.981.981,0,0,0-.355.371,4.532,4.532,0,0,0-.412,1.019c-.106.357-.195.723-.281,1.093-.142.611-.268,1.221-.425,1.818a9.142,9.142,0,0,1-.273.881,2.293,2.293,0,0,1-.461.8.64.64,0,0,1-.438.194.888.888,0,0,1-.448-.136,2.13,2.13,0,0,1-.63-.637,7.729,7.729,0,0,1-.761-1.544,3.586,3.586,0,0,0-.849-1.366,1.59,1.59,0,0,0-1.425-.348,2.4,2.4,0,0,0-.678.3,4.6,4.6,0,0,0-.592.428,7.91,7.91,0,0,0-.989.994l0,0h0a10.634,10.634,0,0,1-1.464,1.217,7.144,7.144,0,0,1-1.5.813,3.3,3.3,0,0,1-1.468.245,5.161,5.161,0,0,1-1.223-.3,11.536,11.536,0,0,1-1.588-.726c-.176-.1-.308-.174-.4-.227s-.131-.085-.131-.085.048.024.138.073l.4.215a12.345,12.345,0,0,0,1.593.7,5.151,5.151,0,0,0,1.211.282,3.246,3.246,0,0,0,1.437-.25,7.107,7.107,0,0,0,1.479-.812,10.624,10.624,0,0,0,1.446-1.212l0,0a7.974,7.974,0,0,1,1-1.011,4.7,4.7,0,0,1,.6-.439,2.493,2.493,0,0,1,.705-.312,1.691,1.691,0,0,1,1.519.367,3.674,3.674,0,0,1,.881,1.4,7.657,7.657,0,0,0,.752,1.522,2.028,2.028,0,0,0,.595.6.774.774,0,0,0,.392.12.525.525,0,0,0,.357-.162,2.194,2.194,0,0,0,.432-.759,8.962,8.962,0,0,0,.269-.87c.156-.592.282-1.2.424-1.814.086-.37.175-.738.282-1.1a4.632,4.632,0,0,1,.424-1.046,1.088,1.088,0,0,1,.4-.413.577.577,0,0,1,.293-.06l.145.014c.047.011.094.028.14.042a.971.971,0,0,1,.438.363,2.545,2.545,0,0,1,.246.493c.129.338.222.681.359,1a1.331,1.331,0,0,0,.612.763,1.607,1.607,0,0,0,.97.037,7.477,7.477,0,0,1,.991-.172,1.022,1.022,0,0,1,.5.1.806.806,0,0,1,.327.388,5.146,5.146,0,0,1,.269.919,4.157,4.157,0,0,0,.277.865,1,1,0,0,0,.6.564,1.25,1.25,0,0,0,.811-.065,1.938,1.938,0,0,0,.637-.493,11.632,11.632,0,0,1,1.036-1.174,1.863,1.863,0,0,1,.646-.36,1.355,1.355,0,0,1,.7-.021,2.025,2.025,0,0,1,1.035.73,5.389,5.389,0,0,1,.592.935,2.359,2.359,0,0,0,.547.728,2.532,2.532,0,0,0,1.128.559,2.786,2.786,0,0,0,.327.055C583.84,196.543,583.878,196.544,583.878,196.547Z" transform="translate(-553.391 -190.263)" fill="#e8505b"/></g></g></g><g transform="translate(2.978 3.366)"><path d="M545.5,180.72c0,.032-1.721.058-3.844.058s-3.844-.026-3.844-.058,1.721-.058,3.844-.058S545.5,180.688,545.5,180.72Z" transform="translate(-537.812 -180.662)" fill="#263238"/></g></g><g transform="translate(39.095 -36.759)"><g transform="translate(0 0)"><g transform="translate(29.567 113.146)"><path d="M153.194,439.83l.355,6.015s6.161,1.159,6.335,2.265l-11.567,1.607-.937-9.35Z" transform="translate(-147.38 -439.83)" fill="#e8505b"/><g transform="translate(2.224 5.823)"><path d="M154.237,457.03a.478.478,0,0,0-.277.574.459.459,0,0,0,.566.28.5.5,0,0,0,.29-.609.476.476,0,0,0-.621-.225" transform="translate(-153.939 -457)" fill="#ebebeb"/></g><g transform="translate(0.844 7.644)"><path d="M149.962,464.614l-.093-.932,10.98-1.311s.677.3.705.66Z" transform="translate(-149.869 -462.371)" fill="#ebebeb"/></g><g transform="translate(5.35 5.9)"><path d="M164.159,457.266c0,.057-.278.11-.54.319s-.389.462-.443.445,0-.354.321-.6S164.166,457.213,164.159,457.266Z" transform="translate(-163.157 -457.228)" fill="#263238"/></g><g transform="translate(6.919 6.309)"><path d="M168.484,458.452c.018.054-.219.174-.389.433s-.2.518-.258.521-.124-.315.094-.633S168.477,458.4,168.484,458.452Z" transform="translate(-167.782 -458.433)" fill="#263238"/></g><g transform="translate(8.36 6.701)"><path d="M172.125,460.61c-.051.017-.157-.259-.04-.585s.37-.474.4-.429-.12.227-.211.5S172.181,460.6,172.125,460.61Z" transform="translate(-172.032 -459.589)" fill="#263238"/></g><g transform="translate(4.915 4.419)"><path d="M163.076,453.019c-.019.054-.287,0-.606.053s-.56.178-.594.132.187-.271.564-.328S163.1,452.971,163.076,453.019Z" transform="translate(-161.872 -452.862)" fill="#263238"/></g><g transform="translate(4.189 2.563)"><path d="M161.569,448.189a1.1,1.1,0,0,1-.583.053,2.649,2.649,0,0,1-.627-.13,2.76,2.76,0,0,1-.352-.146.714.714,0,0,1-.189-.12.249.249,0,0,1-.055-.3.313.313,0,0,1,.237-.154.761.761,0,0,1,.221.01,2.068,2.068,0,0,1,.945.391c.294.224.406.428.388.441s-.172-.144-.467-.325a2.35,2.35,0,0,0-.548-.243,2.184,2.184,0,0,0-.345-.071c-.126-.021-.231-.012-.258.046-.01.022-.01.031.019.064a.582.582,0,0,0,.139.088,3.118,3.118,0,0,0,.325.147,3.26,3.26,0,0,0,.584.162A4,4,0,0,1,161.569,448.189Z" transform="translate(-159.733 -447.387)" fill="#263238"/></g><g transform="translate(5.732 1.559)"><path d="M164.51,446.32a.932.932,0,0,1-.207-.548,1.9,1.9,0,0,1,.019-.646,1.936,1.936,0,0,1,.115-.368.485.485,0,0,1,.344-.33.274.274,0,0,1,.259.14.793.793,0,0,1,.08.208,1.29,1.29,0,0,1,.038.392,1.343,1.343,0,0,1-.192.626c-.2.323-.429.414-.436.395s.166-.155.313-.462a1.346,1.346,0,0,0,.132-.565,1.217,1.217,0,0,0-.043-.336c-.03-.122-.086-.217-.131-.2s-.148.107-.186.21a1.947,1.947,0,0,0-.114.33,2.1,2.1,0,0,0-.058.592C164.459,446.1,164.54,446.309,164.51,446.32Z" transform="translate(-164.283 -444.427)" fill="#263238"/></g></g><g transform="translate(5.031 112.371)"><path d="M79.209,437.546l-1.343,7.44-2.759,5.579a.775.775,0,0,0,.4,1.059h0a.769.769,0,0,0,.707-.06c1.352-.853,6.309-4.017,6.377-4.567.078-.637,1.938-7.754,1.938-7.754Z" transform="translate(-75.026 -437.546)" fill="#e8505b"/><path d="M76.44,469.071l7.186-5.126-.064.314a1.166,1.166,0,0,1-.422.685c-.583.457-2.222,1.683-5.971,4.072a.774.774,0,0,1-.729.055Z" transform="translate(-75.96 -454.992)" fill="#ebebeb"/><g transform="translate(6.359 6.747)"><path d="M94.052,457.477a.469.469,0,0,0-.248.574.451.451,0,0,0,.567.251.494.494,0,0,0,.259-.609.467.467,0,0,0-.619-.2" transform="translate(-93.778 -457.441)" fill="#ebebeb"/></g><g transform="translate(1.482 10.093)"><path d="M80.748,468.4a1.67,1.67,0,0,0-1.351-1.046c0-.02.1-.058.281-.047a1.235,1.235,0,0,1,1.045.809C80.778,468.288,80.768,468.4,80.748,468.4Z" transform="translate(-79.397 -467.307)" fill="#263238"/></g><g transform="translate(0.808 11.327)"><path d="M78.7,471.692c-.042.025-.231-.264-.591-.453a6.3,6.3,0,0,0-.7-.241.858.858,0,0,1,.783.095C78.6,471.31,78.746,471.68,78.7,471.692Z" transform="translate(-77.408 -470.947)" fill="#263238"/></g><g transform="translate(2.164 8.859)"><path d="M83.318,464.928a7.749,7.749,0,0,0-.865-.76,7.7,7.7,0,0,0-1.047-.481,2.117,2.117,0,0,1,1.912,1.241Z" transform="translate(-81.407 -463.671)" fill="#263238"/></g><g transform="translate(2.758 7.32)"><path d="M85.072,459.7c-.029.04-.4-.214-.932-.342s-.977-.086-.983-.136a1.923,1.923,0,0,1,1.915.478Z" transform="translate(-83.157 -459.13)" fill="#263238"/></g><g transform="translate(3.129 5.146)"><path d="M86.245,453.289a2.46,2.46,0,0,0-1.993-.336c-.009-.018.091-.094.282-.158a1.686,1.686,0,0,1,1.5.252C86.19,453.17,86.26,453.275,86.245,453.289Z" transform="translate(-84.251 -452.72)" fill="#263238"/></g><g transform="translate(3.264 3.535)"><path d="M85.646,449.356a.66.66,0,0,1,.047-.282,1.992,1.992,0,0,1,.373-.688.881.881,0,0,1,.454-.336.312.312,0,0,1,.33.138.508.508,0,0,1,.049.358,1.1,1.1,0,0,1-1.143.8,1.27,1.27,0,0,1-1.09-.9.44.44,0,0,1,.053-.363.306.306,0,0,1,.346-.095,1.083,1.083,0,0,1,.436.353,2.216,2.216,0,0,1,.388.679.677.677,0,0,1,.062.279,3.527,3.527,0,0,0-.538-.881,1.008,1.008,0,0,0-.388-.3.163.163,0,0,0-.189.05.3.3,0,0,0-.021.241,1.134,1.134,0,0,0,.954.77.951.951,0,0,0,.98-.666.369.369,0,0,0-.023-.252.168.168,0,0,0-.181-.079.8.8,0,0,0-.39.278A2.939,2.939,0,0,0,85.646,449.356Z" transform="translate(-84.651 -447.969)" fill="#263238"/></g></g><path d="M83.776,274.377c-.078-.005-2.547,56.339-2.547,56.339h7.533l3.661-30.523,1.894-23.325,3.91,21.835,4.73,31.081,7.579-1.626-5.129-55.512-10.747-5.955Z" transform="translate(-74.095 -212.26)" fill="#263238"/><g transform="translate(13.318)"><g transform="translate(0 3.539)"><g transform="translate(1.607)"><path d="M105.359,135.262l7.121-.569c.044-.832-.015-4.048-.015-4.048a3.556,3.556,0,0,0,3-3.423c.037-2.963-.477-9.765-.477-9.765h0a10.3,10.3,0,0,0-10.345,1.3l-.439.338Z" transform="translate(-104.204 -116.621)" fill="#ffbe9d"/><g transform="translate(4.404 12.884)"><path d="M121.054,155.71a6.886,6.886,0,0,1-3.862-1.1,3.649,3.649,0,0,0,3.869,1.865Z" transform="translate(-117.192 -154.613)" fill="#eb996e"/></g></g><g transform="translate(0 5.45)"><path d="M101.437,132.785c-.051-.022-2.035-.6-1.971,1.423a1.523,1.523,0,0,0,2.086,1.484C101.554,135.635,101.437,132.785,101.437,132.785Z" transform="translate(-99.464 -132.692)" fill="#ffbe9d"/><g transform="translate(0.516 0.663)"><path d="M101.914,136.238c-.009-.006-.035.026-.093.055a.352.352,0,0,1-.263.014.874.874,0,0,1-.429-.77,1.166,1.166,0,0,1,.083-.508.408.408,0,0,1,.257-.279.18.18,0,0,1,.211.09c.029.056.017.1.028.1s.042-.036.023-.119a.224.224,0,0,0-.084-.124.266.266,0,0,0-.2-.045.5.5,0,0,0-.358.326,1.2,1.2,0,0,0-.1.568.916.916,0,0,0,.542.858.378.378,0,0,0,.321-.064C101.912,136.286,101.921,136.241,101.914,136.238Z" transform="translate(-100.985 -134.647)" fill="#eb996e"/></g></g><g transform="translate(5.396 2.964)"><g transform="translate(0.288 1.596)"><g transform="translate(4.475)"><g transform="translate(0.792 0.744)"><path d="M132.6,132.642a.423.423,0,0,1-.408.427.4.4,0,0,1-.436-.381.423.423,0,0,1,.408-.427A.405.405,0,0,1,132.6,132.642Z" transform="translate(-131.755 -132.259)" fill="#263238"/></g><path d="M131.092,130.51c-.052.055-.373-.182-.828-.181s-.789.229-.838.173c-.024-.025.029-.124.175-.23a1.159,1.159,0,0,1,.671-.207,1.114,1.114,0,0,1,.659.213C131.071,130.385,131.118,130.485,131.092,130.51Z" transform="translate(-129.42 -130.065)" fill="#263238"/></g><g transform="translate(0 0.085)"><g transform="translate(0.839 0.659)"><path d="M119.544,132.642a.423.423,0,0,1-.408.427.4.4,0,0,1-.436-.381.424.424,0,0,1,.408-.427A.4.4,0,0,1,119.544,132.642Z" transform="translate(-118.699 -132.259)" fill="#263238"/></g><path d="M117.9,130.76c-.052.055-.373-.182-.828-.181s-.789.229-.838.173c-.024-.025.029-.124.175-.23a1.16,1.16,0,0,1,.671-.207,1.117,1.117,0,0,1,.659.213C117.875,130.635,117.922,130.735,117.9,130.76Z" transform="translate(-116.225 -130.315)" fill="#263238"/></g><g transform="translate(3.111 0.113)"><path d="M125.612,134.19a3.005,3.005,0,0,1,.739-.133c.116-.012.227-.035.246-.115a.589.589,0,0,0-.078-.345l-.344-.885a15.215,15.215,0,0,1-.772-2.315,15.232,15.232,0,0,1,.957,2.248q.172.466.329.891a.672.672,0,0,1,.06.456.291.291,0,0,1-.191.17.784.784,0,0,1-.2.027A2.971,2.971,0,0,1,125.612,134.19Z" transform="translate(-125.398 -130.397)" fill="#263238"/></g><g transform="translate(1.911 4.221)"><path d="M121.933,142.511c.074,0,.075.49.5.84s.949.3.953.366c.007.031-.117.1-.339.1a1.23,1.23,0,0,1-.8-.277,1.072,1.072,0,0,1-.386-.7C121.843,142.63,121.9,142.508,121.933,142.511Z" transform="translate(-121.859 -142.511)" fill="#263238"/></g></g><path d="M117.453,125.7c-.045.124-.5.065-1.034.13s-.966.21-1.037.1c-.032-.053.043-.17.217-.29a1.812,1.812,0,0,1,1.578-.174C117.374,125.545,117.473,125.642,117.453,125.7Z" transform="translate(-115.376 -125.36)" fill="#263238"/><g transform="translate(4.717 0.251)"><path d="M130.836,126.572c-.08.1-.394,0-.771-.009s-.7.069-.77-.039c-.032-.053.018-.156.157-.254a1.116,1.116,0,0,1,1.242.038C130.828,126.415,130.872,126.521,130.836,126.572Z" transform="translate(-129.286 -126.1)" fill="#263238"/></g></g></g><g transform="translate(0.535)"><path d="M114.34,108.69a1.092,1.092,0,0,0-.4-.977.775.775,0,0,0-1,.075.905.905,0,0,0-.778-1.1c-.483-.031-.9.334-1.362.462a2.2,2.2,0,0,1-1.383-.16c-.438-.176-.848-.42-1.292-.582a3.788,3.788,0,0,0-4.845,2.224,1.682,1.682,0,0,0-1.783.675,2.76,2.76,0,0,0-.423,1.944,6.163,6.163,0,0,0,.339,1.329c0,.038,0,.076,0,.114.031,1.629.215,3.542.91,3.552,1.211.019.923-2.264.923-2.264,1.486-.574.933-2.8,1.3-3.139s1.149-1.123,4.262.468a6.026,6.026,0,0,0,3.692.4l.077-.016.018,0c.009,0,.016-.008.025-.011a2.808,2.808,0,0,0,.8-.338,1.578,1.578,0,0,0,.658-.731.864.864,0,0,0-.17-.927A1.9,1.9,0,0,0,114.34,108.69Z" transform="translate(-101.041 -106.185)" fill="#263238"/></g></g><path d="M177.738,240.827a.589.589,0,0,1,.074.083,1.466,1.466,0,0,1,.12,1.365,25.35,25.35,0,0,1-.976,2.46s.234,1.015,0,1.25-4.1,0-4.1,0-.664-.37-.156-.692h2.715" transform="translate(-134.419 -195.167)" fill="#ffbe9d"/><g transform="translate(0 19.014)"><g transform="translate(0 4.572)"><path d="M68.785,175.736s-3.341,1.06-4.9,7.655c-1.144,4.842-4.384,14.476-3.563,16.014,1.017,1.9,12.828,4.95,12.828,4.95l1.005-4.513-5.916-4,3.169-10.71S71.77,176.233,68.785,175.736Z" transform="translate(-60.192 -175.736)" fill="#67c53a"/></g><g transform="translate(8.043)"><path d="M85.4,179.128c0,.5,1.5,10.555,1.5,10.555l-2.99,16.337,11.584.613,1.289-7.049,1.6,7.049L108.8,204.1l-2.673-11.148,1.013-14.33-1.119-11.905-4.28-1.463-2.211-2.587-3.578,2.23-4.413-2.643-1.4,1.9-5.686,2.668C83.892,167.863,85.4,179.128,85.4,179.128Z" transform="translate(-83.908 -162.253)" fill="#67c53a"/></g><g transform="translate(15.532)"><path d="M106.136,162.253l-.144,3.166,6.092,16.208,2.463-15.924-.8-3.056s0,0,0,0l-3.2,2.25Z" transform="translate(-105.992 -162.253)" fill="#fff"/></g><g transform="translate(30.159 4.463)"><path d="M149.124,175.414a14.032,14.032,0,0,1,3.908,5.148c.991,2.793,2.621,6.47,2.621,6.47h-5.438Z" transform="translate(-149.124 -175.414)" fill="#67c53a"/></g><g transform="translate(12.651 1.905)"><path d="M106.331,185.953a1.133,1.133,0,0,1-.147-.175l-.392-.523-1.416-1.941-4.616-6.441L99,175.8l-.036-.05L99,175.7l1.209-1.748.019.115-2.686-2.005-.043-.032.019-.049,1.154-3,.328-.823a1.744,1.744,0,0,1,.128-.284,1.783,1.783,0,0,1-.09.3l-.292.837-1.1,3.025-.024-.081,2.7,1.983.065.048-.046.067-1.2,1.752v-.1l.764,1.072,4.574,6.471,1.37,1.973.365.542A1.094,1.094,0,0,1,106.331,185.953Z" transform="translate(-97.497 -167.87)" fill="#263238"/></g><g transform="translate(20.948 19.594)"><path d="M121.974,237.325a.676.676,0,0,1-.01-.176c0-.136,0-.3.006-.5.013-.464.031-1.091.052-1.854.053-1.589.125-3.738.205-6.113s.139-4.525.188-6.114c.02-.762.037-1.389.049-1.853.007-.2.014-.369.019-.5a.673.673,0,0,1,.019-.176.659.659,0,0,1,.017.176c0,.136.008.3.014.5.01.438.01,1.072.007,1.855-.009,1.566-.056,3.729-.136,6.118s-.176,4.549-.257,6.112c-.044.762-.081,1.388-.108,1.852l-.039.5A.66.66,0,0,1,121.974,237.325Z" transform="translate(-121.964 -220.031)" fill="#263238"/></g><g transform="translate(21.738 2.862)"><path d="M124.293,187.346a.815.815,0,0,1,.059-.185l.2-.517.77-1.888,2.6-6.2.623-1.466.014.09-1.418-1.695-.047-.056.05-.052,2.054-2.126-.014.064-.657-1.91-.17-.522a.818.818,0,0,1-.048-.186.789.789,0,0,1,.081.174l.2.51.71,1.891.014.036-.027.028-2.026,2.152,0-.108,1.427,1.687.034.041-.021.049-.621,1.466L125.44,184.8l-.822,1.867-.232.5A.787.787,0,0,1,124.293,187.346Z" transform="translate(-124.292 -170.694)" fill="#263238"/></g><g transform="translate(12.735 6.04)" opacity="0.3"><path d="M97.746,180.064l1.8,2.006L98.3,184.3l7.667,9.1-6.734-9.589,1.206-1.75Z" transform="translate(-97.746 -180.064)"/></g><g transform="translate(21.918 9.288)" opacity="0.3"><path d="M124.824,199.44l4.27-8.378-.111-1.42Z" transform="translate(-124.824 -189.642)"/></g><g transform="translate(1.452 14.807)"><path d="M64.472,220.387c.01-.017.277.148.813.362s1.321.52,2.322.865c2,.695,4.848,1.606,8.173,2.6l-.105.059,1.275-4.745.038.1-.191-.121-5.77-3.657-.052-.033.017-.058,2.069-7.1.6-2.023.167-.535a1.035,1.035,0,0,1,.066-.182,1.05,1.05,0,0,1-.04.189l-.142.542-.56,2.036-2.008,7.122-.035-.091,5.778,3.645.191.121.055.035-.017.063-1.283,4.743-.023.084-.082-.025c-3.325-1.011-6.166-1.943-8.16-2.666-1-.36-1.782-.674-2.309-.913A4.93,4.93,0,0,1,64.472,220.387Z" transform="translate(-64.472 -205.917)" fill="#263238"/></g><g transform="translate(8.48 6.226)"><path d="M85.2,180.613c.007-.01.09.044.234.15a4.788,4.788,0,0,1,.567.5,6.881,6.881,0,0,1,1.968,4.48,4.848,4.848,0,0,1-.017.755.835.835,0,0,1-.048.273c-.032,0,0-.394-.059-1.019a7.6,7.6,0,0,0-1.934-4.4C85.488,180.881,85.18,180.638,85.2,180.613Z" transform="translate(-85.198 -180.612)" fill="#263238"/></g><g transform="translate(30.287 6.141)"><path d="M150.075,188.624c-.048,0-.213-1.843-.368-4.124s-.241-4.134-.192-4.137.214,1.843.368,4.125S150.124,188.621,150.075,188.624Z" transform="translate(-149.501 -180.363)" fill="#263238"/></g><g transform="translate(15.556 2.565)"><path d="M114.573,170.757a1.2,1.2,0,0,1-.181.2c-.124.127-.308.31-.547.538a15.325,15.325,0,0,1-2.128,1.734l-.112.074-.006-.135a5.606,5.606,0,0,0-.274-1.805,4.751,4.751,0,0,0-.438-.9c-.09-.146-.189-.29-.294-.43l-.04-.052-.02-.026-.005-.007v0h0l.11.023h0l-.007,0a.48.48,0,0,0-.076.081,1.339,1.339,0,0,0-.132.216,6.3,6.3,0,0,0-.425,1.545c-.095.515-.175,1.013-.244,1.484l-.021.139-.109-.086-2.585-2.062-.728-.6a1.63,1.63,0,0,1-.248-.227,1.684,1.684,0,0,1,.281.187l.756.562,2.623,2.01-.129.053c.065-.474.141-.974.234-1.493a6.292,6.292,0,0,1,.437-1.594,1.473,1.473,0,0,1,.15-.245.636.636,0,0,1,.109-.113l.021-.015.009-.005c-.023-.006.21.045.112.024h0v0l.005.007.021.027.041.054c.108.144.209.293.3.444a4.864,4.864,0,0,1,.45.935,5.639,5.639,0,0,1,.266,1.857l-.117-.061a17.551,17.551,0,0,0,2.151-1.672l.574-.507A1.17,1.17,0,0,1,114.573,170.757Z" transform="translate(-106.063 -169.816)" fill="#263238"/></g><g transform="translate(20.082 2.749)"><path d="M120.8,186.834c-.048,0-.4-3.681-.782-8.23s-.655-8.242-.606-8.246.4,3.68.782,8.231S120.851,186.83,120.8,186.834Z" transform="translate(-119.408 -170.358)" fill="#263238"/></g><g transform="translate(9.76 15.598)" opacity="0.3"><path d="M89.973,208.249s-.3,7.978-.3,8l-.7-4.715Z" transform="translate(-88.973 -208.249)"/></g></g><g transform="translate(16.524 35.095)"><path d="M109.039,221.32l3.042,3.384h21.307l7.073-13.587a.988.988,0,0,0-.876-1.444H118.728a.987.987,0,0,0-.912.61l-4.291,10.358-4.124-.106A.471.471,0,0,0,109.039,221.32Z" transform="translate(-108.918 -209.673)" fill="#455a64"/><g transform="translate(0.139 0.5)"><path d="M109.328,221.647a1.627,1.627,0,0,1,.23.209l.62.621,2.193,2.256-.12.02c.621-1.368,1.363-3.013,2.14-4.79,1.062-2.423,1.987-4.632,2.653-6.232l.789-1.9.22-.513a.805.805,0,0,1,.088-.174.8.8,0,0,1-.055.188l-.19.525c-.169.455-.42,1.11-.737,1.917-.637,1.614-1.544,3.832-2.607,6.256-.778,1.778-1.53,3.42-2.168,4.781l-.046.1-.074-.079-2.148-2.3-.59-.649A1.64,1.64,0,0,1,109.328,221.647Z" transform="translate(-109.328 -211.148)" fill="#263238"/></g><g transform="translate(16.527 6.243)"><path d="M159.481,230.359a1.19,1.19,0,1,1,.7-1.647A1.271,1.271,0,0,1,159.481,230.359Z" transform="translate(-157.652 -228.083)" fill="#fff"/></g></g><path d="M99.627,244.383l1.931-.181a23.689,23.689,0,0,1,4.049-1.055.86.86,0,0,1-.442.953c-.612.374-1.531.817-1.531.817l1.385,1.583a.945.945,0,0,0,.711.323h4.539a1.114,1.114,0,0,1-.646.714c-.476.136-3.785,1.123-3.785,1.123l-7.178-.756Z" transform="translate(-85.613 -196.696)" fill="#ffbe9d"/></g></g></g></g></g></svg>