<svg xmlns="http://www.w3.org/2000/svg" xmlns:xlink="http://www.w3.org/1999/xlink" width="108" height="85" viewBox="0 0 108 85"><defs><clipPath id="a"><rect width="99.226" height="83.959" fill="none"/></clipPath><clipPath id="c"><path d="M46.138,387.033H0c0,.675,2.905,1.572,4.341,1.572H87.935c1.436,0,4.341-.9,4.341-1.572Z" transform="translate(0 -387.033)" fill="none"/></clipPath><linearGradient id="d" y1="1" x2="0.002" y2="1" gradientUnits="objectBoundingBox"><stop offset="0" stop-color="#8aa2a7"/><stop offset="0.299" stop-color="#879fa4"/><stop offset="0.479" stop-color="#80979c"/><stop offset="0.627" stop-color="#73888d"/><stop offset="0.759" stop-color="#617479"/><stop offset="0.879" stop-color="#495a5f"/><stop offset="0.99" stop-color="#2c3a3f"/><stop offset="1" stop-color="#2a373c"/></linearGradient><clipPath id="e"><path d="M.143,379.439A.154.154,0,0,0,0,379.6v1.57a.155.155,0,0,0,.143.164H92.133a.155.155,0,0,0,.143-.164V379.6a.154.154,0,0,0-.143-.163Z" transform="translate(0 -379.439)" fill="none"/></clipPath><linearGradient id="f" y1="1.68" x2="0.002" y2="1.68" gradientUnits="objectBoundingBox"><stop offset="0" stop-color="#5e7078"/><stop offset="0" stop-color="#6a7b82"/><stop offset="0.001" stop-color="#919ea3"/><stop offset="0.002" stop-color="#b3bcbf"/><stop offset="0.003" stop-color="#cfd4d6"/><stop offset="0.005" stop-color="#e4e7e8"/><stop offset="0.006" stop-color="#f3f4f5"/><stop offset="0.008" stop-color="#fcfcfc"/><stop offset="0.01" stop-color="#fff"/><stop offset="0.03" stop-color="#8aa0a6"/><stop offset="0.048" stop-color="#9cafb4"/><stop offset="0.081" stop-color="#b7c6c9"/><stop offset="0.118" stop-color="#cdd8da"/><stop offset="0.162" stop-color="#dee6e7"/><stop offset="0.216" stop-color="#eaf0f0"/><stop offset="0.291" stop-color="#f1f6f5"/><stop offset="0.5" stop-color="#f3f8f7"/><stop offset="0.71" stop-color="#f1f6f5"/><stop offset="0.786" stop-color="#eaf0f0"/><stop offset="0.841" stop-color="#dee6e7"/><stop offset="0.885" stop-color="#cdd8da"/><stop offset="0.922" stop-color="#b7c6ca"/><stop offset="0.955" stop-color="#9cb0b6"/><stop offset="0.97" stop-color="#8ea4ab"/><stop offset="0.99" stop-color="#ecf2f4"/><stop offset="0.992" stop-color="#e8eef0"/><stop offset="0.994" stop-color="#dde4e7"/><stop offset="0.995" stop-color="#cbd3d7"/><stop offset="0.997" stop-color="#b1bcc0"/><stop offset="0.998" stop-color="#8f9da3"/><stop offset="1" stop-color="#677880"/><stop offset="1" stop-color="#5e7078"/></linearGradient><clipPath id="g"><path d="M182.028,379.439a1.283,1.283,0,0,0,1.283,1.283h12.215a1.283,1.283,0,0,0,1.283-1.283Z" transform="translate(-182.028 -379.439)" fill="none"/></clipPath><linearGradient id="h" x1="-2.622" y1="2.485" x2="-2.607" y2="2.485" gradientUnits="objectBoundingBox"><stop offset="0" stop-color="#8aa0a6"/><stop offset="0.007" stop-color="#8fa4aa"/><stop offset="0.042" stop-color="#aab9bd"/><stop offset="0.083" stop-color="#c0cacd"/><stop offset="0.131" stop-color="#d1d7d9"/><stop offset="0.189" stop-color="#dde0e1"/><stop offset="0.272" stop-color="#e4e5e6"/><stop offset="0.5" stop-color="#e6e7e8"/><stop offset="0.73" stop-color="#e4e5e6"/><stop offset="0.813" stop-color="#dde0e1"/><stop offset="0.873" stop-color="#d1d7d9"/><stop offset="0.921" stop-color="#c0cace"/><stop offset="0.961" stop-color="#aababf"/><stop offset="0.997" stop-color="#90a5ac"/><stop offset="1" stop-color="#8ea4ab"/></linearGradient><clipPath id="j"><rect width="26.318" height="8.791" fill="none"/></clipPath><clipPath id="k"><rect width="26.318" height="7.042" fill="none"/></clipPath><clipPath id="l"><rect width="24.572" height="24.572" fill="none"/></clipPath><clipPath id="m"><rect width="7.508" height="5.91" fill="none"/></clipPath></defs><g transform="translate(-203.907 -882)"><g transform="translate(203.907 882)"><rect width="108" height="85" transform="translate(0)" fill="none"/><g transform="translate(4.197 0.624)"><g clip-path="url(#a)"><g clip-path="url(#a)"><path d="M115.349,192.037a2.85,2.85,0,0,1-2.855,2.846H43.033a2.85,2.85,0,0,1-2.855-2.846V145.56a2.85,2.85,0,0,1,2.855-2.846h69.462a2.85,2.85,0,0,1,2.855,2.846Z" transform="translate(-31.625 -112.335)" fill="#d0d2d3"/><rect width="74.411" height="51.79" rx="13.275" transform="translate(8.933 30.758)" fill="#060808"/><path d="M114.93,368.2H43.409c-1.07,0-1.445-.55-1.445-1.408v1.643a2.826,2.826,0,0,0,2.826,2.826h68.759a2.826,2.826,0,0,0,2.826-2.826V366.8a1.326,1.326,0,0,1-1.445,1.408" transform="translate(-33.031 -288.718)" fill="#111215"/><rect width="56.297" height="1.733" rx="0.672" transform="translate(17.99 79.924)" fill="#14181b"/><path d="M0,0H69.787V43.456H0Z" transform="translate(11.244 34.09)" fill="#c6c6c6"/></g><g transform="translate(0 82.387)"><g clip-path="url(#c)"><rect width="92.276" height="1.572" transform="translate(0 0)" fill="url(#d)"/></g></g><g transform="translate(0 80.77)"><g clip-path="url(#e)"><rect width="92.276" height="1.898" fill="url(#f)"/></g></g><g transform="translate(38.748 80.77)"><g clip-path="url(#g)"><rect width="14.781" height="1.283" fill="url(#h)"/></g></g><g clip-path="url(#a)"><rect width="56.343" height="39.853" transform="translate(25.775 55.26) rotate(-78.746)" fill="#f9f9f9"/><rect width="1.3" height="4.269" transform="translate(39.342 7.867) rotate(-78.747)" fill="#e0e0e0"/><rect width="1.3" height="4.697" transform="matrix(0.195, -0.981, 0.981, 0.195, 44.026, 8.799)" fill="#e0e0e0"/><rect width="1.3" height="4.827" transform="translate(49.093 9.807) rotate(-78.745)" fill="#e0e0e0"/><rect width="1.3" height="6.321" transform="translate(38.588 11.656) rotate(-78.746)" fill="#e0e0e0"/><rect width="1.3" height="7.807" transform="matrix(0.195, -0.981, 0.981, 0.195, 45.416, 13.015)" fill="#e0e0e0"/><rect width="1.3" height="14.768" transform="translate(38.943 9.874) rotate(-78.746)" fill="#e0e0e0"/><rect width="1.3" height="2.672" transform="translate(38.19 13.657) rotate(-78.746)" fill="#e0e0e0"/><rect width="1.3" height="7.116" transform="matrix(0.195, -0.981, 0.981, 0.195, 41.29, 14.274)" fill="#e0e0e0"/><rect width="1.3" height="4.827" transform="translate(47.94 15.597) rotate(-78.745)" fill="#e0e0e0"/><rect width="1.3" height="4.269" transform="translate(37.436 17.447) rotate(-78.747)" fill="#e0e0e0"/><rect width="1.3" height="9.993" transform="matrix(0.195, -0.981, 0.981, 0.195, 42.12, 18.378)" fill="#e0e0e0"/><rect width="1.3" height="9.941" transform="matrix(0.195, -0.981, 0.981, 0.195, 37.791, 15.664)" fill="#e0e0e0"/><rect width="1.3" height="4.44" transform="translate(47.87 17.67) rotate(-78.746)" fill="#e0e0e0"/><path d="M283.647,60.949a5.477,5.477,0,1,1-4.3-6.44,5.477,5.477,0,0,1,4.3,6.44" transform="translate(-214.728 -42.822)" fill="#e0e0e0"/><path d="M286.78,64.986a4.328,4.328,0,1,1-3.4-5.085l.1.02a4.324,4.324,0,0,1,3.3,5.065" transform="translate(-218.992 -47.084)" fill="#ee5253"/><path d="M302.2,62.17l-3.673,2.283.844-4.241.1.02A4.313,4.313,0,0,1,302.2,62.17" transform="translate(-234.984 -47.395)" fill="#05bce3"/><path d="M302.773,68.548a4.322,4.322,0,0,1-2.741,3.212l-1.5-4.056,2.721-3.362a4.328,4.328,0,0,1,1.52,4.206" transform="translate(-234.984 -50.646)" fill="#f29c1f"/><path d="M284.7,64.142l-3.74-2.173a4.335,4.335,0,0,1,3.255-2.125,4.263,4.263,0,0,1,.612-.025Z" transform="translate(-221.154 -47.084)" fill="#0fab82"/><path d="M297.678,59.922l-.94,4.221-.485-4.3a4.291,4.291,0,0,1,.612-.025,4.351,4.351,0,0,1,.717.082l.1.02" transform="translate(-233.19 -47.084)" fill="#5e4a9d"/><rect width="11.978" height="32.305" transform="translate(34.373 32.838) rotate(-78.746)" fill="#efefef"/><rect width="11.978" height="16.153" transform="matrix(0.195, -0.981, 0.981, 0.195, 34.373, 32.839)" fill="#eaeae9"/><rect width="2.184" height="32.305" transform="translate(36.285 23.233) rotate(-78.746)" fill="#c8c8c8"/><rect width="16.153" height="16.153" transform="translate(46.376 55.286) rotate(-78.746)" fill="#efefef"/><rect width="2.184" height="16.153" transform="matrix(0.195, -0.981, 0.981, 0.195, 49.102, 41.586)" fill="#c8c8c8"/><rect width="6.51" height="1.471" transform="translate(30.688 51.227) rotate(-78.749)" fill="#23b899"/><rect width="10.368" height="1.471" transform="translate(32.237 51.535) rotate(-78.749)" fill="#3b97d2"/><rect width="11.556" height="1.471" transform="translate(33.786 51.843) rotate(-78.749)" fill="#f29c1f"/><rect width="12.425" height="1.471" transform="translate(35.33 52.15) rotate(-78.749)" fill="#945ba4"/><rect width="8.507" height="1.471" transform="translate(41.516 53.381) rotate(-78.749)" fill="#34495e"/><rect width="10.248" height="1.471" transform="translate(39.967 53.073) rotate(-78.749)" fill="#5e4a9d"/><rect width="13.427" height="1.471" transform="translate(38.419 52.765) rotate(-78.749)" fill="#f16b6c"/><rect width="15.057" height="1.471" transform="translate(36.875 52.457) rotate(-78.749)" fill="#d15627"/><rect width="0.173" height="12.54" transform="translate(30.521 52.066) rotate(-78.745)" fill="#4bbc99"/><rect width="0.817" height="7.99" transform="matrix(0.195, -0.981, 0.981, 0.195, 49.817, 43.304)" fill="#e2e2e2"/><rect width="0.817" height="7.99" transform="matrix(0.195, -0.981, 0.981, 0.195, 49.566, 44.563)" fill="#e2e2e2"/><rect width="0.817" height="7.99" transform="matrix(0.195, -0.981, 0.981, 0.195, 49.316, 45.821)" fill="#e2e2e2"/><rect width="0.817" height="7.99" transform="matrix(0.195, -0.981, 0.981, 0.195, 49.066, 47.079)" fill="#e2e2e2"/><rect width="0.817" height="7.99" transform="matrix(0.195, -0.981, 0.981, 0.195, 48.815, 48.337)" fill="#e2e2e2"/><rect width="0.817" height="7.99" transform="matrix(0.195, -0.981, 0.981, 0.195, 48.565, 49.595)" fill="#e2e2e2"/><rect width="0.817" height="7.99" transform="matrix(0.195, -0.981, 0.981, 0.195, 48.315, 50.853)" fill="#e2e2e2"/><rect width="0.817" height="7.99" transform="matrix(0.195, -0.981, 0.981, 0.195, 48.064, 52.111)" fill="#e2e2e2"/><rect width="0.817" height="7.99" transform="matrix(0.195, -0.981, 0.981, 0.195, 47.814, 53.37)" fill="#e2e2e2"/><rect width="0.817" height="7.99" transform="matrix(0.195, -0.981, 0.981, 0.195, 47.563, 54.628)" fill="#e2e2e2"/><rect width="0.817" height="13.924" transform="translate(36.862 25.078) rotate(-78.746)" fill="#d6d6d5"/><rect width="0.817" height="13.924" transform="translate(36.612 26.336) rotate(-78.746)" fill="#d6d6d5"/><rect width="0.817" height="13.924" transform="translate(36.362 27.594) rotate(-78.746)" fill="#d6d6d5"/><rect width="0.817" height="13.924" transform="translate(36.111 28.853) rotate(-78.746)" fill="#d6d6d5"/><rect width="0.817" height="13.924" transform="translate(35.861 30.111) rotate(-78.746)" fill="#d6d6d5"/><rect width="0.817" height="13.924" transform="translate(35.611 31.369) rotate(-78.746)" fill="#d6d6d5"/><rect width="0.817" height="7.99" transform="matrix(0.195, -0.981, 0.981, 0.195, 52.807, 28.278)" fill="#e0e0e0"/><rect width="0.817" height="7.99" transform="matrix(0.195, -0.981, 0.981, 0.195, 52.556, 29.536)" fill="#e0e0e0"/><rect width="0.817" height="7.99" transform="matrix(0.195, -0.981, 0.981, 0.195, 52.306, 30.795)" fill="#e0e0e0"/><rect width="0.817" height="7.99" transform="matrix(0.195, -0.981, 0.981, 0.195, 52.056, 32.053)" fill="#e0e0e0"/><rect width="0.817" height="4.871" transform="translate(61.922 30.092) rotate(-78.747)" fill="#e0e0e0"/><rect width="0.817" height="4.871" transform="translate(61.672 31.35) rotate(-78.747)" fill="#e0e0e0"/><rect width="0.817" height="4.871" transform="translate(61.421 32.609) rotate(-78.747)" fill="#e0e0e0"/><rect width="0.817" height="4.871" transform="translate(61.171 33.867) rotate(-78.747)" fill="#e0e0e0"/><rect width="0.817" height="7.99" transform="matrix(0.195, -0.981, 0.981, 0.195, 51.805, 33.311)" fill="#e0e0e0"/><rect width="0.817" height="7.99" transform="matrix(0.195, -0.981, 0.981, 0.195, 51.555, 34.569)" fill="#e0e0e0"/><rect width="40.025" height="55.795" transform="translate(11.579 24.408) rotate(-14.041)" fill="#eaeaea"/><rect width="26.556" height="0.091" transform="translate(19.246 38.857) rotate(-14.041)" fill="#e6e7e8"/><rect width="26.556" height="0.091" transform="translate(18.754 36.887) rotate(-14.041)" fill="#e6e7e8"/><rect width="26.556" height="0.091" transform="translate(18.261 34.917) rotate(-14.041)" fill="#e6e7e8"/><rect width="26.556" height="0.091" transform="translate(17.768 32.948) rotate(-14.041)" fill="#e6e7e8"/><rect width="26.556" height="0.091" transform="translate(17.276 30.978) rotate(-14.041)" fill="#e6e7e8"/><rect width="0.474" height="3.578" transform="matrix(0.97, -0.243, 0.243, 0.97, 19.447, 37.259)" fill="#468fcd"/><rect width="0.474" height="2.976" transform="matrix(0.97, -0.243, 0.243, 0.97, 20.189, 37.694)" fill="#42b662"/><rect width="0.474" height="4.071" transform="matrix(0.97, -0.243, 0.243, 0.97, 20.533, 36.479)" fill="#f79720"/><rect width="0.474" height="1.634" transform="matrix(0.97, -0.243, 0.243, 0.97, 22.788, 38.427)" fill="#468fcd"/><rect width="0.474" height="5.627" transform="matrix(0.97, -0.243, 0.243, 0.97, 22.415, 34.404)" fill="#42b662"/><rect width="0.474" height="4.892" transform="matrix(0.97, -0.243, 0.243, 0.97, 23.203, 34.965)" fill="#f79720"/><rect width="0.474" height="3.053" transform="matrix(0.97, -0.243, 0.243, 0.97, 25.313, 36.333)" fill="#468fcd"/><rect width="0.474" height="6.106" transform="matrix(0.97, -0.243, 0.243, 0.97, 25.169, 33.222)" fill="#42b662"/><rect width="0.474" height="8.483" transform="matrix(0.97, -0.243, 0.243, 0.97, 25.201, 30.763)" fill="#f79720"/><rect width="0.474" height="6.864" transform="matrix(0.97, -0.243, 0.243, 0.97, 27.257, 31.918)" fill="#468fcd"/><rect width="0.474" height="5.627" transform="matrix(0.97, -0.243, 0.243, 0.97, 28.154, 32.969)" fill="#42b662"/><rect width="0.474" height="1.033" transform="matrix(0.97, -0.243, 0.243, 0.97, 29.878, 37.273)" fill="#f79720"/><rect width="0.474" height="3.728" transform="matrix(0.97, -0.243, 0.243, 0.97, 30.887, 34.242)" fill="#468fcd"/><rect width="0.474" height="7.589" transform="matrix(0.97, -0.243, 0.243, 0.97, 30.547, 30.348)" fill="#42b662"/><rect width="0.474" height="4.444" transform="matrix(0.97, -0.243, 0.243, 0.97, 31.92, 33.247)" fill="#f79720"/><rect width="0.474" height="6.315" transform="matrix(0.97, -0.243, 0.243, 0.97, 33.129, 31.016)" fill="#468fcd"/><rect width="0.474" height="4.444" transform="matrix(0.97, -0.243, 0.243, 0.97, 34.179, 32.682)" fill="#42b662"/><rect width="0.474" height="5.627" transform="matrix(0.97, -0.243, 0.243, 0.97, 34.502, 31.381)" fill="#f79720"/><rect width="0.474" height="3.43" transform="matrix(0.97, -0.243, 0.243, 0.97, 36.698, 33.096)" fill="#468fcd"/><rect width="0.474" height="6.861" transform="matrix(0.97, -0.243, 0.243, 0.97, 36.462, 29.619)" fill="#42b662"/><rect width="0.474" height="9.629" transform="matrix(0.97, -0.243, 0.243, 0.97, 36.4, 26.781)" fill="#f79720"/><rect width="0.474" height="7.189" transform="matrix(0.97, -0.243, 0.243, 0.97, 38.656, 28.733)" fill="#468fcd"/><rect width="0.474" height="2.035" transform="matrix(0.97, -0.243, 0.243, 0.97, 40.502, 33.583)" fill="#42b662"/><path d="M189.591,140.506l.363,1.451-.46.115-1.611-6.444.46-.115Z" transform="translate(-147.888 -106.667)" fill="#f79720"/><rect width="0.474" height="6.106" transform="matrix(0.97, -0.243, 0.243, 0.97, 41.788, 29.066)" fill="#468fcd"/><rect width="0.474" height="4.891" transform="matrix(0.97, -0.243, 0.243, 0.97, 42.679, 30.095)" fill="#42b662"/><rect width="0.474" height="8.973" transform="matrix(0.97, -0.243, 0.243, 0.97, 42.298, 25.982)" fill="#f79720"/><rect width="26.556" height="0.091" transform="translate(19.739 40.827) rotate(-14.041)" fill="#231f20"/><rect width="0.473" height="0.473" transform="translate(16.357 31.01) rotate(-14.03)" fill="#e6e7e8"/><rect width="0.473" height="0.473" transform="translate(16.85 32.98) rotate(-14.03)" fill="#e6e7e8"/><rect width="0.473" height="0.473" transform="translate(17.343 34.95) rotate(-14.03)" fill="#e6e7e8"/><rect width="0.473" height="0.473" transform="translate(17.835 36.92) rotate(-14.03)" fill="#e6e7e8"/><rect width="0.473" height="0.473" transform="translate(18.328 38.89) rotate(-14.03)" fill="#e6e7e8"/><rect width="0.473" height="0.473" transform="translate(18.821 40.86) rotate(-14.03)" fill="#e6e7e8"/><rect width="1.731" height="0.506" transform="translate(20.441 41.293) rotate(-14.043)" fill="#e6e7e8"/><rect width="1.731" height="0.506" transform="translate(23.311 40.575) rotate(-14.043)" fill="#e6e7e8"/><rect width="1.731" height="0.506" transform="translate(26.18 39.858) rotate(-14.043)" fill="#e6e7e8"/><rect width="1.731" height="0.506" transform="translate(29.049 39.14) rotate(-14.043)" fill="#e6e7e8"/><rect width="1.731" height="0.506" transform="translate(31.919 38.423) rotate(-14.043)" fill="#e6e7e8"/><rect width="1.731" height="0.506" transform="translate(34.788 37.705) rotate(-14.043)" fill="#e6e7e8"/><rect width="1.731" height="0.506" transform="translate(37.657 36.987) rotate(-14.043)" fill="#e6e7e8"/><rect width="1.731" height="0.506" transform="translate(40.526 36.27) rotate(-14.043)" fill="#e6e7e8"/><rect width="1.731" height="0.506" transform="translate(43.396 35.552) rotate(-14.043)" fill="#e6e7e8"/><rect width="0.809" height="0.809" transform="matrix(0.97, -0.243, 0.243, 0.97, 44.447, 26.369)" fill="#468fcd"/><rect width="0.809" height="0.809" transform="matrix(0.97, -0.243, 0.243, 0.97, 44.834, 27.914)" fill="#42b662"/><rect width="0.809" height="0.809" transform="matrix(0.97, -0.243, 0.243, 0.97, 45.22, 29.459)" fill="#f79720"/><rect width="2.38" height="0.396" transform="matrix(0.97, -0.243, 0.243, 0.97, 45.951, 26.206)" fill="#e6e7e8"/><rect width="2.38" height="0.396" transform="matrix(0.97, -0.243, 0.243, 0.97, 46.338, 27.751)" fill="#e6e7e8"/><rect width="2.38" height="0.396" transform="matrix(0.97, -0.243, 0.243, 0.97, 46.724, 29.296)" fill="#e6e7e8"/><path d="M104.432,225.262l-3.678.92a4.089,4.089,0,0,0,1.958,2.543l1.83-3.32a.311.311,0,0,1-.11-.143" transform="translate(-79.307 -177.311)" fill="#f6921e"/><path d="M119.84,209.571a.312.312,0,0,1,.212.356l3.612,1.154a4.1,4.1,0,0,0-3.117-5.235Z" transform="translate(-94.33 -162.028)" fill="#8bc53f"/><path d="M100.246,218.587l3.678-.92a.311.311,0,0,1,.02-.155l-3.332-1.809a4.085,4.085,0,0,0-.366,2.884" transform="translate(-78.817 -169.787)" fill="#704c9e"/><path d="M105.885,209.4a.311.311,0,0,1,.179-.123.316.316,0,0,1,.1-.009l.708-3.726a4.105,4.105,0,0,0-4.315,2.048Z" transform="translate(-80.723 -161.736)" fill="#eb008b"/><path d="M112.484,225.349a.311.311,0,0,1-.4.16l-1.83,3.32A4.1,4.1,0,0,0,116.1,226.5Z" transform="translate(-86.784 -177.38)" fill="#a87c4f"/><rect width="0.914" height="1.004" transform="translate(29.688 42.545) rotate(-14.046)" fill="#a87c4f"/><rect width="0.914" height="1.004" transform="translate(30.186 44.534) rotate(-14.046)" fill="#8bc53f"/><rect width="0.914" height="1.004" transform="translate(30.683 46.523) rotate(-14.046)" fill="#eb008b"/><rect width="0.914" height="1.004" transform="translate(31.18 48.512) rotate(-14.046)" fill="#f6921e"/><rect width="0.914" height="1.004" transform="translate(31.678 50.501) rotate(-14.046)" fill="#704c9e"/><rect width="3.705" height="1.004" transform="translate(31.905 41.991) rotate(-14.041)" fill="#d0d2d3"/><rect width="3.705" height="1.004" transform="translate(32.402 43.98) rotate(-14.041)" fill="#d0d2d3"/><rect width="3.705" height="1.004" transform="translate(32.9 45.969) rotate(-14.041)" fill="#d0d2d3"/><rect width="3.705" height="1.004" transform="translate(33.397 47.958) rotate(-14.041)" fill="#d0d2d3"/><rect width="3.705" height="1.004" transform="translate(33.894 49.947) rotate(-14.041)" fill="#d0d2d3"/><path d="M211.29,183.81a4.751,4.751,0,1,0-3.456,5.761,4.751,4.751,0,0,0,3.456-5.761" transform="translate(-158.946 -141.85)" fill="#fff"/><path d="M212.275,185.233a4.39,4.39,0,1,0-3.193,5.323,4.39,4.39,0,0,0,3.193-5.323" transform="translate(-160.281 -143.185)" fill="#e85c49"/><path d="M212.4,201.779l-8.764-.558a4.391,4.391,0,0,0,8.764.558" transform="translate(-160.281 -158.388)" fill="#00b2b7"/><path d="M206.952,182.528a4.39,4.39,0,0,0-1.811,7.575l2.876-3.317Z" transform="translate(-160.281 -143.674)" fill="#f2a246"/><path d="M218.924,194.837a1.953,1.953,0,1,0-1.42,2.368,1.953,1.953,0,0,0,1.42-2.368" transform="translate(-169.294 -152.198)" fill="#fff"/><path d="M220.279,196.793a1.456,1.456,0,1,0-1.059,1.766,1.456,1.456,0,0,0,1.059-1.766" transform="translate(-171.13 -154.034)" fill="#0ba14a"/><path d="M224.358,196.793a1.456,1.456,0,0,0-1.766-1.059l.707,2.826a1.456,1.456,0,0,0,1.059-1.766" transform="translate(-175.209 -154.034)" fill="#5caf65"/><rect width="31.332" height="17.694" transform="translate(23.365 56.866) rotate(-14.041)" fill="#9fd9f5"/><rect width="31.332" height="4.866" transform="matrix(0.97, -0.243, 0.243, 0.97, 26.477, 69.31)" fill="#cceaf4"/><path d="M131.134,273.191a2.389,2.389,0,0,0,.793-1.057c.179-.606.085-1.244.9-1.547s.647-2.12,1.549-2.345,1.985,2.036,2.886,1.81,1.056-1,2.049-1.252c.53-.132,1.726.857,2.424.682.622-.155.867-1.538,1.895-1.8s1.564.963,2.4.753.785-2.806,1.655-3.024,1.368.979,2.643.661.435-2.488,1.617-2.783c.63-.158,1.611.576,1.96.6s.285-.116.666-.069c.739.092,1.682,2.234,2.877,2.781Z" transform="translate(-103.22 -207.23)" fill="#b0c536"/><path d="M131.134,269.329a2.269,2.269,0,0,0,.858-.8c.237-.473.292-.961.891-1.11.88-.22,1.516.451,2.269.055.343-.18,1.648.287,2.273.125.871-.225.824-3.3,1.6-3.491s1.659.719,2.535.5.952-1.909,1.742-2.107,1.969,1.671,2.743,1.478.4-2.468,1.153-3.055c.33-.255.48-.189.622-.306.522-.432.834-2.085,1.466-2.243.992-.248,2.4,3.728,3.235,3.518.554-.139,1.379-1.167,2.088-1.344s1.283,1.5,2.846,2.2Z" transform="translate(-103.22 -203.368)" fill="#f05d61"/><g transform="translate(27.914 57.17)" opacity="0.1"><g clip-path="url(#j)"><path d="M154.607,268.585c-.709.177-1.534,1.205-2.088,1.344-.356.089-.814-.576-1.3-1.353-.12.7-.156,1.49-.887,1.673-1.275.319-1.772-.878-2.643-.66s-.816,2.814-1.655,3.024-1.376-1.01-2.4-.753-1.273,1.64-1.895,1.8c-.7.175-1.894-.815-2.424-.682a2.15,2.15,0,0,0-.968.551c-.223.921-.421,1.982-.919,2.111-.625.161-1.93-.306-2.273-.125-.753.4-1.39-.275-2.269-.055-.6.15-.654.637-.891,1.11a2.269,2.269,0,0,1-.858.8l26.318-6.582c-1.562-.7-2.137-2.373-2.846-2.2" transform="translate(-131.134 -268.571)" fill="#231f20"/></g></g><path d="M131.134,277.055c.807-.282,1.188-.833,1.556-.976s.559-.089.881-.22.476-.726,1.619-1.012c.678-.17,1.363.553,2.531.261.525-.131.54-1.788,1.6-2.053s1.539-.031,2.357-.235.239-4.411,1.113-4.629,2.428,3.212,3.094,3.046,1.042-.918,2.166-1.2,1.6,1.964,2.693,1.717.973-1.066,1.964-1.3,1.556.458,2.143.324.467-.307.884-.411a7.4,7.4,0,0,1,1.718.106Z" transform="translate(-103.22 -211.094)" fill="#10aeb9"/><g transform="translate(27.914 58.919)" opacity="0.3"><g clip-path="url(#k)"><path d="M155.735,277.141c-.417.1-.3.277-.884.411s-1.152-.559-2.143-.324-.875,1.053-1.964,1.3-1.569-2-2.693-1.717a3.854,3.854,0,0,0-1.518.847c-.087.424-.216.754-.49.823-.774.194-1.953-1.675-2.743-1.478-.592.148-.783,1.134-1.21,1.711-.073.48-.192.825-.413.881-.818.2-1.3-.03-2.357.235s-1.075,1.922-1.6,2.053a.558.558,0,0,1-.3.218c-.625.161-1.93-.306-2.273-.125a1.27,1.27,0,0,1-.919.078c-.332.249-.466.5-.661.58-.322.131-.512.077-.881.22s-.75.693-1.557.976l26.318-6.582a7.4,7.4,0,0,0-1.718-.106" transform="translate(-131.134 -276.787)" fill="#231f20"/></g></g><path d="M119.887,284.7l-2.19-8.755.308.014,31.288,1.387Zm-1.593-8.268,1.928,7.709,25.9-6.476Z" transform="translate(-92.643 -217.205)" fill="#231f20"/><path d="M230.027,304.321a1.175,1.175,0,1,0,1.425.855,1.175,1.175,0,0,0-1.425-.855m.437,1.747a.626.626,0,1,1,.455-.759.625.625,0,0,1-.455.759" transform="translate(-180.361 -239.514)" fill="#b0c536"/><path d="M229.172,305.877a1.171,1.171,0,0,0,.207.43l.436-.334a.626.626,0,0,1,.345-.987l-.133-.533a1.175,1.175,0,0,0-.855,1.425" transform="translate(-180.361 -239.644)" fill="#e0dd6f"/><path d="M184.81,315.629a1.175,1.175,0,1,0,1.425.855,1.175,1.175,0,0,0-1.425-.855m.437,1.747a.626.626,0,1,1,.455-.759.626.626,0,0,1-.455.759" transform="translate(-144.769 -248.414)" fill="#f05d61"/><path d="M186.247,317.135l-.538-.11a.626.626,0,1,1-.765-.732l-.133-.533a1.175,1.175,0,1,0,1.437,1.374" transform="translate(-144.77 -248.546)" fill="#f9b086"/><path d="M139.4,326.988a1.175,1.175,0,1,0,1.425.855,1.175,1.175,0,0,0-1.425-.855m.437,1.747a.626.626,0,1,1,.455-.759.625.625,0,0,1-.455.759" transform="translate(-109.022 -257.355)" fill="#10aeb9"/><path d="M138.54,328.544a1.175,1.175,0,0,0,1.763.712l-.291-.466a.626.626,0,1,1-.483-1.138l-.133-.533a1.175,1.175,0,0,0-.855,1.425" transform="translate(-109.022 -257.486)" fill="#98ccaa"/><rect width="3.65" height="0.662" transform="translate(41.657 67.219) rotate(-14.042)" fill="#808184"/><rect width="2.134" height="0.671" transform="matrix(0.97, -0.243, 0.243, 0.97, 41.872, 68.08)" fill="#808184"/><rect width="3.65" height="0.662" transform="translate(51.282 64.812) rotate(-14.042)" fill="#808184"/><rect width="2.134" height="0.671" transform="matrix(0.97, -0.243, 0.243, 0.97, 51.497, 65.672)" fill="#808184"/><rect width="3.65" height="0.662" transform="translate(31.989 69.637) rotate(-14.042)" fill="#808184"/><rect width="2.134" height="0.671" transform="translate(32.204 70.497) rotate(-14.043)" fill="#808184"/><rect width="42.733" height="60.415" transform="translate(24.647 9.31)" fill="#fff"/><path d="M149.805,174.465a6.791,6.791,0,1,1-6.791-6.791,6.791,6.791,0,0,1,6.791,6.791" transform="translate(-107.226 -131.982)" fill="#e0e0e0"/><path d="M152.207,177.757a5.9,5.9,0,1,1-5.9-5.9,5.9,5.9,0,0,1,5.9,5.9" transform="translate(-110.517 -135.273)" fill="#fff"/><path d="M153.661,179.751a5.367,5.367,0,1,1-5.362-5.362h.121a5.362,5.362,0,0,1,5.241,5.361" transform="translate(-112.51 -137.267)" fill="#ee5253"/><path d="M172.041,176.086l-3.914,3.665v-5.362h.121a5.349,5.349,0,0,1,3.793,1.7" transform="translate(-132.338 -137.267)" fill="#05bce3"/><path d="M173.489,182.024a5.358,5.358,0,0,1-2.556,4.57l-2.806-4.57,2.5-4.747a5.368,5.368,0,0,1,2.866,4.747" transform="translate(-132.338 -139.541)" fill="#f29c1f"/><path d="M149.363,180.024l-5.074-1.737a5.375,5.375,0,0,1,3.444-3.372,5.321,5.321,0,0,1,.738-.178Z" transform="translate(-113.575 -137.54)" fill="#0fab82"/><path d="M162.22,174.39l-.122,5.361-1.63-5.11a5.3,5.3,0,0,1,.738-.178,5.381,5.381,0,0,1,.892-.074h.122" transform="translate(-126.31 -137.267)" fill="#5e4a9d"/><rect width="34.639" height="12.844" transform="translate(28.997 52.576)" fill="#efefef"/><rect width="17.32" height="12.844" transform="translate(28.997 52.576)" fill="#eaeae9"/><rect width="34.639" height="2.342" transform="translate(28.997 52.576)" fill="#c8c8c8"/><rect width="14.93" height="0.876" transform="translate(29.991 55.862)" fill="#d6d6d5"/><rect width="14.93" height="0.876" transform="translate(29.991 57.238)" fill="#d6d6d5"/><rect width="14.93" height="0.876" transform="translate(29.991 58.613)" fill="#d6d6d5"/><rect width="14.93" height="0.876" transform="translate(29.991 59.988)" fill="#d6d6d5"/><rect width="14.93" height="0.876" transform="translate(29.991 61.364)" fill="#d6d6d5"/><rect width="14.93" height="0.876" transform="translate(29.991 62.74)" fill="#d6d6d5"/><rect width="8.568" height="0.876" transform="translate(47.428 55.891)" fill="#e0e0e0"/><rect width="8.568" height="0.876" transform="translate(47.428 57.266)" fill="#e0e0e0"/><rect width="8.568" height="0.876" transform="translate(47.428 58.642)" fill="#e0e0e0"/><rect width="8.568" height="0.876" transform="translate(47.428 60.017)" fill="#e0e0e0"/><rect width="5.223" height="0.876" transform="translate(57.394 55.891)" fill="#e0e0e0"/><rect width="5.223" height="0.876" transform="translate(57.394 57.266)" fill="#e0e0e0"/><rect width="5.223" height="0.876" transform="translate(57.394 58.642)" fill="#e0e0e0"/><rect width="5.223" height="0.876" transform="translate(57.394 60.017)" fill="#e0e0e0"/><rect width="8.568" height="0.876" transform="translate(47.428 61.393)" fill="#e0e0e0"/><rect width="8.568" height="0.876" transform="translate(47.428 62.768)" fill="#e0e0e0"/><rect width="2.952" height="13.679" transform="translate(46.014 35.596)" fill="#70c5a4"/><rect width="2.952" height="5.955" transform="translate(46.014 43.32)" fill="#ee5253"/><rect width="2.952" height="2.152" transform="translate(46.014 47.123)" fill="#f89d47"/><rect width="2.952" height="13.679" transform="translate(49.631 35.596)" fill="#70c5a4"/><rect width="2.952" height="5.294" transform="translate(49.631 43.981)" fill="#ee5253"/><rect width="2.952" height="4.319" transform="translate(49.631 44.956)" fill="#f89d47"/><rect width="2.952" height="13.679" transform="translate(53.248 35.596)" fill="#70c5a4"/><rect width="2.952" height="10.587" transform="translate(53.248 38.688)" fill="#ee5253"/><rect width="2.952" height="2.952" transform="translate(53.248 46.323)" fill="#f89d47"/><rect width="2.952" height="13.679" transform="translate(56.865 35.596)" fill="#70c5a4"/><rect width="2.952" height="8.638" transform="translate(56.865 40.637)" fill="#ee5253"/><rect width="2.952" height="6.84" transform="translate(56.865 42.435)" fill="#f89d47"/><rect width="2.952" height="13.679" transform="translate(60.482 35.596)" fill="#70c5a4"/><rect width="2.952" height="4.659" transform="translate(60.482 44.616)" fill="#ee5253"/><rect width="2.952" height="3.173" transform="translate(60.482 46.102)" fill="#f89d47"/><path d="M136.285,70.258l4.192-6.436L145,69.169l6.574-3.994,5.848.707L161.95,61l4.794,4.434,3.916-2.378V73.467H136.224Z" transform="translate(-107.226 -48.013)" fill="#fcc731"/><path d="M136.339,85.576l4.138-3.646,4.451,3.935,6.317-2.393,6.17-1.052,4.648-4.366,4.608,5.839,3.987-3.436v6.319l-34.436.232Z" transform="translate(-107.226 -61.439)" fill="#945ba4"/><rect width="9.442" height="1.394" transform="translate(42.733 27.217)" fill="#e0e0e0"/><rect width="5.037" height="1.394" transform="translate(52.719 27.217)" fill="#e0e0e0"/><rect width="5.176" height="1.394" transform="translate(58.258 27.217)" fill="#e0e0e0"/><rect width="7.026" height="1.394" transform="translate(47.35 31.36)" fill="#e0e0e0"/><rect width="8.595" height="1.394" transform="translate(54.838 31.36)" fill="#e0e0e0"/><rect width="9.618" height="1.394" transform="translate(53.816 29.412)" fill="#e0e0e0"/><rect width="8.047" height="1.394" transform="translate(45.201 29.412)" fill="#e0e0e0"/><rect width="2.865" height="1.394" transform="translate(28.997 27.217)" fill="#e0e0e0"/><rect width="7.63" height="1.394" transform="translate(32.386 27.217)" fill="#e0e0e0"/><rect width="2.671" height="1.394" transform="translate(39.657 27.217)" fill="#e0e0e0"/><rect width="4.577" height="1.394" transform="translate(28.997 31.36)" fill="#e0e0e0"/><rect width="12.765" height="1.394" transform="translate(34.118 31.36)" fill="#e0e0e0"/><rect width="10.66" height="1.394" transform="translate(28.997 29.412)" fill="#e0e0e0"/><rect width="4.761" height="1.394" transform="translate(40.017 29.412)" fill="#e0e0e0"/><rect width="0.232" height="9.919" transform="translate(28.997 15.65)" fill="#4bbc99"/><rect width="34.204" height="0.232" transform="translate(29.229 25.337)" fill="#4bbc99"/><rect width="3.196" height="5.239" transform="translate(83.882 45.147) rotate(-45)" fill="#231f20"/><path d="M434.477,243.743a.943.943,0,0,1-1.334.011l-4.408-4.408a.943.943,0,0,1,.011-1.333l1.727-1.726a.943.943,0,0,1,1.334-.011l4.408,4.408a.943.943,0,0,1-.011,1.333Z" transform="translate(-337.259 -185.768)" fill="#231f20"/><rect width="4.344" height="13.991" transform="translate(85.827 47.947) rotate(-45.058)" fill="#f9a442"/><rect width="2.22" height="13.991" transform="translate(87.328 46.444) rotate(-45.054)" fill="#e99636"/><path d="M308.983,100.31a13.661,13.661,0,1,0,10.7,16.087,13.661,13.661,0,0,0-10.7-16.087m-5.117,25.435a12.284,12.284,0,1,1,14.465-9.62,12.284,12.284,0,0,1-14.465,9.62" transform="translate(-230.335 -78.744)" fill="#231f20"/><g transform="translate(63.668 22.673)" opacity="0.4"><g clip-path="url(#l)"><path d="M323.426,121.221a12.284,12.284,0,1,1-9.62-14.465,12.284,12.284,0,0,1,9.62,14.465" transform="translate(-299.098 -106.512)" fill="#b2d6f1"/></g></g><g transform="translate(66.229 24.02)" opacity="0.4"><g clip-path="url(#m)"><path d="M318.527,113.1c.492.665-.741,2.412-2.755,3.9s-4.045,2.159-4.537,1.494.741-2.412,2.755-3.9,4.044-2.159,4.537-1.494" transform="translate(-311.127 -112.842)" fill="#fff"/></g></g></g></g></g></g></g></svg>