<svg xmlns="http://www.w3.org/2000/svg" width="1240" height="431.14" viewBox="0 0 1240 431.14"><g transform="translate(-180 -9477.118)"><path d="M0,0H1131a109,109,0,0,1,109,109V430.257a0,0,0,0,1,0,0H0a0,0,0,0,1,0,0V0A0,0,0,0,1,0,0Z" transform="translate(180 9478)" fill="#ffead8"/><g transform="translate(181.04 9839.317)"><path d="M392.974,292.224l-20.493,1.908,7.542,7.542-17.447,17.447a2.433,2.433,0,1,0,3.441,3.441l17.447-17.447,7.6,7.6Z" transform="translate(-361.863 -255.142)" fill="#529d2e"/><path d="M565.865,168.785l-17.495,1.629,6.439,6.439-14.895,14.894a2.077,2.077,0,1,0,2.938,2.937l14.894-14.894,6.49,6.49Z" transform="translate(-512.498 -168.785)" fill="#fcd03e"/></g><g transform="translate(1348.208 9477.118)"><path d="M384.815,292.224,369.7,293.632l5.564,5.565-12.872,12.872a1.8,1.8,0,1,0,2.539,2.539L377.8,301.735l5.608,5.61Z" transform="translate(-357.517 -247.849)" fill="#529d2e"/><path d="M652.883,258.188l-29.308,2.728L634.36,271.7l-24.95,24.95a3.48,3.48,0,1,0,4.921,4.922l24.952-24.952L650.154,287.5Z" transform="translate(-581.091 -218.563)" fill="#fc8116"/><path d="M571.865,168.785l-21.447,2,7.893,7.893-18.259,18.259a2.546,2.546,0,1,0,3.6,3.6l18.259-18.258,7.956,7.957Z" transform="translate(-500.074 -168.785)" fill="#fcd03e"/></g></g></svg>