<svg xmlns="http://www.w3.org/2000/svg" width="335" height="335" viewBox="0 0 335 335">
  <g id="Grupo_881209" data-name="Grupo 881209" transform="translate(-370 -2369)">
    <g id="Grupo_881201" data-name="Grupo 881201" transform="translate(-517)">
      <rect id="Rectángulo_299200" data-name="Rectángulo 299200" width="335" height="335" transform="translate(887 2369)" fill="none"/>
      <g id="Grupo_881202" data-name="Grupo 881202" transform="translate(874.885 2348.116)">
        <g id="Background_Simple" data-name="Background Simple" transform="translate(30.462 42.391)">
          <g id="Grupo_881186" data-name="Grupo 881186">
            <path id="Trazado_605176" data-name="Trazado 605176" d="M319.946,155.657c-33.117-56.712-122.938-36.514-141.285-64.1-9.393-14.125-19.9-30.5-35.147-39.012a83.73,83.73,0,0,0-46.071-9.938c-52.454,3.84-74.7,50.772-64.616,102.311,13.447,68.75,74.392,138.977,146.794,139.469,37.867.257,74.019-13.279,102.379-32.414l.634-.43C310.965,232.258,345.23,198.956,319.946,155.657Z" transform="translate(-30.462 -42.391)" fill="#fcd03e"/>
            <path id="Trazado_605177" data-name="Trazado 605177" d="M319.946,155.657c-33.117-56.712-122.938-36.514-141.285-64.1-9.393-14.125-19.9-30.5-35.147-39.012a83.73,83.73,0,0,0-46.071-9.938c-52.454,3.84-74.7,50.772-64.616,102.311,13.447,68.75,74.392,138.977,146.794,139.469,37.867.257,74.019-13.279,102.379-32.414l.634-.43C310.965,232.258,345.23,198.956,319.946,155.657Z" transform="translate(-30.462 -42.391)" fill="#fff" opacity="0.7"/>
          </g>
        </g>
        <g id="Lines" transform="translate(44.305 57.362)">
          <g id="Grupo_881187" data-name="Grupo 881187">
            <path id="Trazado_605178" data-name="Trazado 605178" d="M69.42,215.179H65.739a14.9,14.9,0,0,0-14.9,14.9v81.76a14.9,14.9,0,0,0,14.9,14.9h50.52a14.9,14.9,0,0,0,14.9-14.9h0" transform="translate(-50.838 -112.758)" fill="none" stroke="#12263f" stroke-linecap="round" stroke-linejoin="round" stroke-width="1.103" stroke-dasharray="4.412"/>
            <path id="Trazado_605179" data-name="Trazado 605179" d="M162.964,89.7V73.552a9.125,9.125,0,0,1,9.126-9.126h65.7a9.125,9.125,0,0,1,9.126,9.126h0" transform="translate(-86.786 -64.426)" fill="none" stroke="#12263f" stroke-linecap="round" stroke-linejoin="round" stroke-width="1.103" stroke-dasharray="4.412"/>
          </g>
        </g>
        <g id="Shadow" transform="translate(49.496 298.011)">
          <g id="Grupo_881188" data-name="Grupo 881188" transform="translate(0)">
            <ellipse id="Elipse_7612" data-name="Elipse 7612" cx="130.12" cy="18.183" rx="130.12" ry="18.183" fill="#fcd03e"/>
            <ellipse id="Elipse_7613" data-name="Elipse 7613" cx="130.12" cy="18.183" rx="130.12" ry="18.183" fill="#fff" opacity="0.5"/>
          </g>
        </g>
        <g id="Window" transform="translate(56.957 89.221)">
          <g id="Grupo_881189" data-name="Grupo 881189" transform="translate(0)">
            <path id="Trazado_605180" data-name="Trazado 605180" d="M314.777,126.405V248.738A15.081,15.081,0,0,1,299.7,263.817H84.539A15.081,15.081,0,0,1,69.46,248.738V126.405c0-.359.015-.712.045-1.064a15.077,15.077,0,0,1,15.034-14.022H299.7a15.077,15.077,0,0,1,15.034,14.022C314.762,125.693,314.777,126.046,314.777,126.405Z" transform="translate(-69.46 -111.319)" fill="#fff" stroke="#12263f" stroke-linecap="round" stroke-linejoin="round" stroke-width="1.103"/>
            <path id="Rectángulo_299201" data-name="Rectángulo 299201" d="M0,0H231.411a0,0,0,0,1,0,0V106.336a20.8,20.8,0,0,1-20.8,20.8H20.8A20.8,20.8,0,0,1,0,106.336V0A0,0,0,0,1,0,0Z" transform="translate(7.338 19.674)" fill="#12263f"/>
            <path id="Trazado_605181" data-name="Trazado 605181" d="M311.675,140.275v113.01A14.055,14.055,0,0,1,297.7,267.412H94.235A14.055,14.055,0,0,1,80.26,253.285V140.275Z" transform="translate(-72.922 -120.602)" fill="#fff" opacity="0.2"/>
            <path id="Trazado_605182" data-name="Trazado 605182" d="M314.754,125.341H69.526A15.077,15.077,0,0,1,84.56,111.319H299.719A15.077,15.077,0,0,1,314.754,125.341Z" transform="translate(-69.481 -111.319)" fill="#fcd03e" stroke="#12263f" stroke-miterlimit="10" stroke-width="1.103"/>
            <path id="Trazado_605183" data-name="Trazado 605183" d="M111.36,120.378a2.671,2.671,0,1,1-2.671-2.671A2.671,2.671,0,0,1,111.36,120.378Z" transform="translate(-81.181 -113.367)" fill="#12263f"/>
            <path id="Trazado_605184" data-name="Trazado 605184" d="M127.983,120.378a2.671,2.671,0,1,1-2.671-2.671A2.671,2.671,0,0,1,127.983,120.378Z" transform="translate(-86.51 -113.367)" fill="#12263f"/>
            <circle id="Elipse_7614" data-name="Elipse 7614" cx="2.671" cy="2.671" r="2.671" transform="translate(47.424 4.34)" fill="#12263f"/>
            <path id="Trazado_605185" data-name="Trazado 605185" d="M311.672,140.282v113a14.136,14.136,0,0,1-14.134,14.135H94.392a14.131,14.131,0,0,1-13.858-11.392l-.007-.007v-.03a14.013,14.013,0,0,1-.262-2.705v-113Z" transform="translate(-72.924 -120.605)" fill="none" stroke="#12263f" stroke-miterlimit="10" stroke-width="1.103"/>
            <path id="Trazado_605186" data-name="Trazado 605186" d="M407.9,162.719a14.364,14.364,0,0,0-3.14-1.3l-1.266-5.674h-5.4l-1.259,5.674a13.932,13.932,0,0,0-3.148,1.3L388.82,159.6l-3.815,3.815,3.065,4.871a13.874,13.874,0,0,0-1.3,3.148l-5.674,1.259v5.4l5.674,1.266a13.752,13.752,0,0,0,1.3,3.17l-3.118,4.9,3.815,3.815,4.9-3.118a13.926,13.926,0,0,0,3.148,1.3l1.259,5.666h5.4l1.266-5.666a14.356,14.356,0,0,0,3.14-1.3l.247.158V162.576Zm-7.09,19.673a6.97,6.97,0,1,1,6.97-6.97A6.966,6.966,0,0,1,400.812,182.392Z" transform="translate(-169.373 -125.563)" fill="#12263f"/>
            <path id="Trazado_605187" data-name="Trazado 605187" d="M238.283,163.223V151.847l-11.962-2.653a30.91,30.91,0,0,0-2.735-6.64l1.446-2.279H168.577l1.394,2.218a29.45,29.45,0,0,0-2.728,6.633l-11.961,2.661v11.377l11.961,2.668a29.848,29.848,0,0,0,2.728,6.685L163.4,182.852l8.05,8.041,10.328-6.573a30.382,30.382,0,0,0,6.64,2.75l2.653,11.947h11.377l2.675-11.947a30.6,30.6,0,0,0,6.618-2.75l10.335,6.573,8.041-8.041-6.528-10.335a31.18,31.18,0,0,0,2.735-6.625Zm-41.445,9.009a14.7,14.7,0,1,1,14.7-14.7A14.7,14.7,0,0,1,196.839,172.232Z" transform="translate(-96.975 -120.602)" fill="#12263f"/>
            <path id="Trazado_605188" data-name="Trazado 605188" d="M138.775,270.426l.479-9.024-9.353-2.638a25.345,25.345,0,0,0-1.919-5.366l5.651-7.937-6.055-6.723-8.469,4.789a25.075,25.075,0,0,0-5.156-2.466l-1.619-9.593-9.023-.48-2.608,9.383a23.6,23.6,0,0,0-5.367,1.9l-7.929-5.651-6.73,6.056,4.8,8.476A23.418,23.418,0,0,0,83,256.306l-2.735.45V268.98l1.986.562a23.639,23.639,0,0,0,1.919,5.381l-3.9,5.464.262,4.684v.03l.007.007,4.025,4.467,8.484-4.789a23.5,23.5,0,0,0,5.171,2.5l1.544,9.211v.007l.075.382,9.024.48.24-.861v-.007l2.368-8.514a24.148,24.148,0,0,0,5.4-1.9l7.914,5.644,6.73-6.048-4.781-8.484a23.452,23.452,0,0,0,2.443-5.142Zm-23.968-14.1a11.686,11.686,0,1,0-.869,16.5A11.686,11.686,0,0,0,114.807,256.329Z" transform="translate(-72.924 -149.686)" fill="#12263f"/>
            <path id="Trazado_605189" data-name="Trazado 605189" d="M252.44,255.338a18.381,18.381,0,0,0,.548-4.273l6.487-3.411-1.792-6.582-7.323.342a18.209,18.209,0,0,0-2.631-3.4l2.169-7-5.913-3.387-4.947,5.4a19.153,19.153,0,0,0-4.26-.542l-3.425-6.493-6.572,1.789.346,7.332a18.607,18.607,0,0,0-3.406,2.628l-7.007-2.163-3.392,5.9,5.426,4.934a17.8,17.8,0,0,0-.535,4.262l-6.5,3.422,1.792,6.582,7.332-.347a17.444,17.444,0,0,0,2.621,3.4l-2.18,6.969,5.913,3.387,4.921-5.352a17.925,17.925,0,0,0,4.269.538l3.415,6.5,6.573-1.788-.289-6.263-.049-1.073a18.071,18.071,0,0,0,3.44-2.632l7,2.177,2.894-5.057.493-.856Zm-15.54,4a8.8,8.8,0,1,1,6.18-10.808A8.8,8.8,0,0,1,236.9,259.336Z" transform="translate(-114.426 -148.081)" fill="#12263f"/>
            <path id="Trazado_605190" data-name="Trazado 605190" d="M352.219,265.626l1.5-9.031-9.143-3.68a24.284,24.284,0,0,0-1.311-5.636l6.58-7.329-5.329-7.45-9.076,3.852a24.142,24.142,0,0,0-4.9-3.043l-.532-9.847-9.039-1.492-3.7,9.106a25.3,25.3,0,0,0-5.613,1.319l-7.352-6.58-7.442,5.329,3.86,9.069a24.668,24.668,0,0,0-2.75,4.272c-.1.209-.21.419-.307.629l-9.84.548-1.5,9.023,1.484.6,7.66,3.088a23.745,23.745,0,0,0,1.311,5.613l-6.58,7.352,5.329,7.442,9.075-3.867a23.538,23.538,0,0,0,4.894,3.065l.51,9.8,9.031,1.491,3.7-9.038a23.75,23.75,0,0,0,5.628-1.319l7.337,6.588,7.45-5.336-3.86-9.076a23.644,23.644,0,0,0,3.1-4.924Zm-25.339-.4a11.827,11.827,0,1,1,2.728-16.5A11.829,11.829,0,0,1,326.88,265.222Z" transform="translate(-138.986 -146.794)" fill="#12263f"/>
          </g>
        </g>
        <g id="Graphics" transform="translate(67.779 71.103)">
          <g id="Grupo_881197" data-name="Grupo 881197">
            <g id="Grupo_881194" data-name="Grupo 881194" transform="translate(0 70.058)">
              <rect id="Rectángulo_299202" data-name="Rectángulo 299202" width="88.863" height="116.187" rx="13.11" fill="#fcd03e" stroke="#12263f" stroke-miterlimit="10" stroke-width="1.103"/>
              <rect id="Rectángulo_299203" data-name="Rectángulo 299203" width="88.863" height="116.187" rx="13.11" opacity="0.2"/>
              <g id="Grupo_881193" data-name="Grupo 881193" transform="translate(8.273 8.779)">
                <path id="Trazado_605191" data-name="Trazado 605191" d="M186.429,209.6v98.372a8.908,8.908,0,0,1-8.911,8.911H106.47a8.906,8.906,0,0,1-8.9-8.911V209.6a8.9,8.9,0,0,1,8.9-8.9h71.048A8.906,8.906,0,0,1,186.429,209.6Z" transform="translate(-97.566 -200.692)" fill="#fff" stroke="#12263f" stroke-linecap="round" stroke-linejoin="round" stroke-width="1.103"/>
                <path id="Trazado_605192" data-name="Trazado 605192" d="M186.429,209.6v5.268H97.566V209.6a8.9,8.9,0,0,1,8.9-8.9h71.048A8.906,8.906,0,0,1,186.429,209.6Z" transform="translate(-97.566 -200.692)" fill="#fcd03e" stroke="#12263f" stroke-miterlimit="10" stroke-width="1.103"/>
                <rect id="Rectángulo_299204" data-name="Rectángulo 299204" width="21.862" height="3.667" transform="translate(8.357 20.274)" fill="#fcd03e"/>
                <rect id="Rectángulo_299205" data-name="Rectángulo 299205" width="21.862" height="3.667" transform="translate(8.357 53.149)" fill="#fcd03e"/>
                <rect id="Rectángulo_299206" data-name="Rectángulo 299206" width="21.862" height="3.667" transform="translate(8.357 82.961)" fill="#fcd03e"/>
                <g id="Grupo_881190" data-name="Grupo 881190" transform="translate(8.357 29.353)">
                  <rect id="Rectángulo_299207" data-name="Rectángulo 299207" width="62.091" height="2.689" fill="#12263f"/>
                  <rect id="Rectángulo_299208" data-name="Rectángulo 299208" width="50.895" height="2.621" transform="translate(0 5.148)" fill="#12263f"/>
                  <rect id="Rectángulo_299209" data-name="Rectángulo 299209" width="57.56" height="2.621" transform="translate(0 10.208)" fill="#12263f"/>
                  <rect id="Rectángulo_299210" data-name="Rectángulo 299210" width="57.56" height="2.621" transform="translate(0 15.264)" fill="#12263f"/>
                </g>
                <g id="Grupo_881191" data-name="Grupo 881191" transform="translate(8.357 59.165)">
                  <rect id="Rectángulo_299211" data-name="Rectángulo 299211" width="62.091" height="2.689" fill="#12263f"/>
                  <rect id="Rectángulo_299212" data-name="Rectángulo 299212" width="50.895" height="2.621" transform="translate(0 5.148)" fill="#12263f"/>
                  <rect id="Rectángulo_299213" data-name="Rectángulo 299213" width="57.56" height="2.621" transform="translate(0 10.208)" fill="#12263f"/>
                </g>
                <g id="Grupo_881192" data-name="Grupo 881192" transform="translate(8.357 91.903)">
                  <rect id="Rectángulo_299214" data-name="Rectángulo 299214" width="62.091" height="2.689" fill="#12263f"/>
                  <rect id="Rectángulo_299215" data-name="Rectángulo 299215" width="50.895" height="2.621" transform="translate(0 5.148)" fill="#12263f"/>
                  <rect id="Rectángulo_299216" data-name="Rectángulo 299216" width="57.56" height="2.621" transform="translate(0 10.208)" fill="#12263f"/>
                </g>
              </g>
            </g>
            <g id="Grupo_881196" data-name="Grupo 881196" transform="translate(84.467)">
              <path id="Trazado_605193" data-name="Trazado 605193" d="M322.529,95.279v39.758a10.616,10.616,0,0,1-10.62,10.62H220.335a10.62,10.62,0,0,1-10.62-10.62V95.279a10.627,10.627,0,0,1,10.62-10.627h91.575A10.622,10.622,0,0,1,322.529,95.279Z" transform="translate(-209.715 -84.652)" fill="#fff" stroke="#12263f" stroke-miterlimit="10" stroke-width="1.103"/>
              <path id="Trazado_605194" data-name="Trazado 605194" d="M322.529,95.279v.907H209.715v-.907a10.627,10.627,0,0,1,10.62-10.627h91.575A10.622,10.622,0,0,1,322.529,95.279Z" transform="translate(-209.715 -84.652)" fill="#fcd03e" stroke="#12263f" stroke-miterlimit="10" stroke-width="1.103"/>
              <path id="Trazado_605195" data-name="Trazado 605195" d="M232.8,94.626a1.626,1.626,0,1,1,0-2.3A1.625,1.625,0,0,1,232.8,94.626Z" transform="translate(-216.225 -86.96)" fill="#12263f"/>
              <path id="Trazado_605196" data-name="Trazado 605196" d="M243.919,94.626a1.626,1.626,0,1,1,0-2.3A1.625,1.625,0,0,1,243.919,94.626Z" transform="translate(-219.79 -86.96)" fill="#12263f"/>
              <path id="Trazado_605197" data-name="Trazado 605197" d="M255.039,94.626a1.626,1.626,0,1,1,0-2.3A1.625,1.625,0,0,1,255.039,94.626Z" transform="translate(-223.356 -86.96)" fill="#12263f"/>
              <rect id="Rectángulo_299217" data-name="Rectángulo 299217" width="36.877" height="31.876" transform="translate(7.193 18.845)" fill="none" stroke="#12263f" stroke-linecap="round" stroke-linejoin="round" stroke-width="1.103" stroke-dasharray="4.412"/>
              <g id="Grupo_881195" data-name="Grupo 881195" transform="translate(49.76 18.845)">
                <rect id="Rectángulo_299218" data-name="Rectángulo 299218" width="42.44" height="2.239" fill="#12263f"/>
                <rect id="Rectángulo_299219" data-name="Rectángulo 299219" width="32.554" height="2.239" transform="translate(0 4.642)" fill="#12263f"/>
                <rect id="Rectángulo_299220" data-name="Rectángulo 299220" width="48.477" height="2.265" transform="translate(0 9.258)" fill="#12263f"/>
                <rect id="Rectángulo_299221" data-name="Rectángulo 299221" width="41.279" height="2.265" transform="translate(0 13.768)" fill="#12263f"/>
              </g>
            </g>
          </g>
        </g>
        <g id="Character" transform="translate(164.915 154.832)">
          <g id="Grupo_881199" data-name="Grupo 881199">
            <path id="Trazado_605198" data-name="Trazado 605198" d="M274.9,436.851s-19.7,5.651-22.453,6.626c-2.5.884-9.285,3.26-14.374,2.525a10.975,10.975,0,0,1-1.454-.315c-5.157-1.536-7.472-2.968-8.147-6.213s1.889-5.628,4.362-7.157,15.888-3.125,15.888-3.125l3.237.952h.007Z" transform="translate(-228.362 -278.84)" fill="#fcd03e"/>
            <path id="Trazado_605199" data-name="Trazado 605199" d="M238.074,446a10.975,10.975,0,0,1-1.454-.315c-5.157-1.536-7.472-2.968-8.147-6.213s1.889-5.628,4.362-7.157,15.888-3.125,15.888-3.125l3.237.952c-2.93,1.349-13.857,2.1-16.24,3.47s-3.538,3.957-2.129,7.45C234.341,442.921,236.35,444.72,238.074,446Z" transform="translate(-228.362 -278.84)" fill="#fff"/>
            <path id="Trazado_605200" data-name="Trazado 605200" d="M271.989,438.035s-14.8,3.834-20.665,6.288-17.062,3.527-21.05-1.533-.46-9.415,3.527-10.382,12.05-2.5,16.454-1.887" transform="translate(-228.413 -279.221)" fill="none" stroke="#12263f" stroke-linecap="round" stroke-linejoin="round" stroke-width="1.103"/>
            <path id="Trazado_605201" data-name="Trazado 605201" d="M240.481,446.18s-7.529-4.128-5.029-9.914c1.845-4.27,11.889-3.344,16.862-5.678" transform="translate(-230.472 -279.288)" fill="none" stroke="#12263f" stroke-linecap="round" stroke-linejoin="round" stroke-width="1.103"/>
            <path id="Trazado_605202" data-name="Trazado 605202" d="M365.809,446.736a6.246,6.246,0,0,1-2.953,5.148,11.55,11.55,0,0,1-6.055,1.252c-6.91-.09-19.9-5.029-19.9-5.029l-12.163-6.723,6.325-10.013,1.731-2.743,4.475,1s3.7,2.1,7.427,3.77,12.762,2.023,15.948,4.6S366.153,443.378,365.809,446.736Z" transform="translate(-259.261 -278.66)" fill="#fcd03e"/>
            <path id="Trazado_605203" data-name="Trazado 605203" d="M368.793,446.736a6.246,6.246,0,0,1-2.953,5.148,9.109,9.109,0,0,0-.345-6.07c-1.349-3.05-5.778-5.74-11.594-6.19s-10.267-3.17-12.6-4.385c-1.821-.944-5.658-3.005-7.255-3.867l1.731-2.743,4.475,1s3.7,2.1,7.427,3.77,12.763,2.023,15.948,4.6S369.138,443.378,368.793,446.736Z" transform="translate(-262.245 -278.66)" fill="#fff"/>
            <path id="Trazado_605204" data-name="Trazado 605204" d="M328.112,445.178a76.781,76.781,0,0,0,28.47,9.726c2.212.266,4.787.3,6.27-1.36a4.635,4.635,0,0,0,1.021-3.475c-.268-3.122-2.893-5.6-5.773-6.836s-6.059-1.533-9.117-2.218a36.044,36.044,0,0,1-8.768-3.207c-2.2-1.147-4.326-2.54-6.752-3.054s-5.316.109-6.61,2.225" transform="translate(-259.938 -280.569)" fill="none" stroke="#12263f" stroke-linecap="round" stroke-linejoin="round" stroke-width="1.103"/>
            <path id="Trazado_605205" data-name="Trazado 605205" d="M364.992,452.956a8.1,8.1,0,0,0,4.449-5.748c.441-2.943-1.235-5.9-3.6-7.712a19.985,19.985,0,0,0-8.227-3.267,53.427,53.427,0,0,1-8.666-2.1c-4.262-1.665-8.465-4.955-12.888-3.782" transform="translate(-262.891 -279.133)" fill="none" stroke="#12263f" stroke-linecap="round" stroke-linejoin="round" stroke-width="1.103"/>
            <path id="Trazado_605206" data-name="Trazado 605206" d="M314.158,287.427l-20.58-7.832-.255-.1s.075-.548.135-1.342c.127-1.641.195-4.317-.577-5.224-1.147-1.341-4.4-.217-7.57-1.671s-9.038,1.147-9.038,1.147-4.235-.779-6.1,2.279a16.591,16.591,0,0,0-.622,6.138s-.135.052-.39.143c-2.451.914-15.791,5.935-18.616,7.952-3.118,2.211-6.565,24.882-7.674,31.536s-3.08,12.659-2.076,14.952,15.333,13.326,23.577,16.173,37.5,2.016,37.5,2.016.48-.128,1.326-.4c4.947-1.589,22.5-8.132,31.807-23.563C335,329.635,325.984,300.062,314.158,287.427Zm-55.6,38.131c-1.514,1.072-.7,5.231-.7,5.231l-2.578-2.271,6.468-15.9,2.758,12.208S260.07,324.494,258.556,325.558Zm51.742,10.1c-.712.368,2.046-7.277.734-9.008s-5.239-1.566-5.239-1.566l.337-2.091c.046-.232,2.331-11.954,2.331-11.954l.772-.921s8,13.722,9.435,18.556C318.669,328.676,309.946,335.661,310.3,335.661Z" transform="translate(-232.259 -228.066)" fill="#fcd03e"/>
            <path id="Trazado_605207" data-name="Trazado 605207" d="M286.222,222.254,275.6,233.531s-1.466,1.294-.883,4.566,1.938,6.082,2.962,6.3a14.559,14.559,0,0,0,2.459.22,43.875,43.875,0,0,0,3.888,6.871s.562,7.613.262,9.728c0,0,3.816,3.333,7.41,3.757s9.148-5.083,9.148-5.083l1.377-6.742s3.258-4.946,3.481-6.263,1.711-.979,2.444-1.628a12.4,12.4,0,0,0,2.705-6.3c.28-2.745.3-5.9-2.889-4.972-2.763-.743-1.033-6.583-1.033-6.583l-4.855-4.284Z" transform="translate(-243.18 -212.496)" fill="#fff"/>
            <path id="Trazado_605208" data-name="Trazado 605208" d="M307.094,279.595a10.72,10.72,0,0,1-.547,1.229c-1.754,3.305-9.391,9.6-9.391,9.6l-2.308-7.1-1.267,7.1c-2.548-1.109-10.319-7.847-10.319-7.847s-.262-.629-.585-1.611c.255-.09.39-.143.39-.143a16.591,16.591,0,0,1,.622-6.138c1.866-3.058,6.1-2.279,6.1-2.279s5.868-2.6,9.038-1.147,6.423.33,7.57,1.671.442,6.566.442,6.566Z" transform="translate(-245.775 -228.066)" fill="#fff" opacity="0.5"/>
            <path id="Trazado_605209" data-name="Trazado 605209" d="M337.5,290.889l-20.58-7.832-.255-.1s.075-.548.135-1.342l-.427,2.668-3.042,4.137a83.38,83.38,0,0,1,9.5,4.186,8.341,8.341,0,0,1,4.362,8.319l-3.794,32.44-1.551,18.421,4.691,4.871c4.947-1.589,22.5-8.132,31.807-23.563C358.344,333.1,349.329,303.525,337.5,290.889Zm-3.86,48.234c-.712.368,2.046-7.277.734-9.008s-5.239-1.566-5.239-1.566l.337-2.091c.046-.232,2.331-11.954,2.331-11.954l.772-.921s8,13.722,9.435,18.556C342.014,332.138,333.29,339.123,333.643,339.123Z" transform="translate(-255.604 -231.528)" opacity="0.2"/>
            <path id="Trazado_605210" data-name="Trazado 605210" d="M267.986,336.441l-3.2-10.694s-5.738-19.569-9.672-24.4l1.034,13.763s-3.375,16.441-6.5,21.328-3.8,6.1,0,6.1,13.04,7.367,13.04,7.367l-.712-6.146Zm-8.042,4.137-2.578-2.271,6.468-15.9,2.758,12.208s-4.429-.329-5.943.734S259.944,340.578,259.944,340.578Z" transform="translate(-234.351 -237.854)" opacity="0.2"/>
            <path id="Trazado_605211" data-name="Trazado 605211" d="M288.485,265.284s.59,5.766,0,8.4" transform="translate(-247.637 -226.291)" fill="none" stroke="#12263f" stroke-linecap="round" stroke-linejoin="round" stroke-width="1.103"/>
            <path id="Trazado_605212" data-name="Trazado 605212" d="M314.108,273.913a24.728,24.728,0,0,1,.642-5.51" transform="translate(-255.852 -227.291)" fill="none" stroke="#12263f" stroke-linecap="round" stroke-linejoin="round" stroke-width="1.103"/>
            <path id="Trazado_605213" data-name="Trazado 605213" d="M305.334,228.582s3.489,4.383,3.31,7.694-.447,7.246-.358,11.093-6.172,11.9-9.393,12.614-5.994.895-8.051-1.162a77.834,77.834,0,0,1-6.8-8.588c-2.684-3.668-2.057-11.72-2.057-11.72" transform="translate(-245.533 -214.525)" fill="none" stroke="#12263f" stroke-linecap="round" stroke-linejoin="round" stroke-width="1.103"/>
            <path id="Trazado_605214" data-name="Trazado 605214" d="M303.864,247.714a18.114,18.114,0,0,0-.272,3.646,4.148,4.148,0,0,0,.895,2.856c.385.393.946.708,1.019,1.254a1.325,1.325,0,0,1-.717,1.188,10.128,10.128,0,0,0-1.258.747" transform="translate(-252.462 -220.658)" fill="none" stroke="#12263f" stroke-linecap="round" stroke-linejoin="round" stroke-width="1.103"/>
            <path id="Trazado_605215" data-name="Trazado 605215" d="M295.866,262.6s.4,2.6,3.891,3.144" transform="translate(-250.004 -225.432)" fill="none" stroke="#12263f" stroke-linecap="round" stroke-linejoin="round" stroke-width="1.103"/>
            <path id="Trazado_605216" data-name="Trazado 605216" d="M295.715,249.99c0,.751-.325,1.361-.726,1.361s-.726-.609-.726-1.361.325-1.36.726-1.36S295.715,249.239,295.715,249.99Z" transform="translate(-249.49 -220.952)" fill="#12263f"/>
            <path id="Trazado_605217" data-name="Trazado 605217" d="M311.024,250.471c0,.751-.325,1.361-.726,1.361s-.726-.609-.726-1.361.325-1.36.726-1.36S311.024,249.72,311.024,250.471Z" transform="translate(-254.398 -221.106)" fill="#12263f"/>
            <path id="Trazado_605218" data-name="Trazado 605218" d="M308.621,245.607s3.382-3.382,6.244.39" transform="translate(-254.093 -219.536)" fill="none" stroke="#12263f" stroke-linecap="round" stroke-linejoin="round" stroke-width="2.206"/>
            <path id="Trazado_605219" data-name="Trazado 605219" d="M295.482,245.855s-2.146-2.406-5.528,0" transform="translate(-248.108 -219.72)" fill="none" stroke="#12263f" stroke-linecap="round" stroke-linejoin="round" stroke-width="2.206"/>
            <path id="Trazado_605220" data-name="Trazado 605220" d="M288.747,268.453s2.071,5.71,6.7,7.329S306.214,269,306.214,269l-.321-1.092s-4.025,5.229-8.5,4.337-8.906-6.958-8.906-6.958Z" transform="translate(-247.637 -226.291)" fill="#12263f"/>
            <path id="Trazado_605221" data-name="Trazado 605221" d="M280.2,249.5s-2.758.974-3.491-1.175-3.248-7.8-1.048-9.69,3.967,2.489,3.967,2.489" transform="translate(-243.244 -217.595)" fill="none" stroke="#12263f" stroke-linecap="round" stroke-linejoin="round" stroke-width="1.103"/>
            <path id="Trazado_605222" data-name="Trazado 605222" d="M320.72,251s2.563.516,3.3-1.633,3.247-7.8,1.048-9.69-3.968,2.489-3.968,2.489" transform="translate(-257.972 -217.931)" fill="none" stroke="#12263f" stroke-linecap="round" stroke-linejoin="round" stroke-width="1.103"/>
            <path id="Trazado_605223" data-name="Trazado 605223" d="M278.214,236.929a3.821,3.821,0,0,0,2.42-1.429,6.025,6.025,0,0,0,.7-2.169,26.2,26.2,0,0,0,.384-4.371,5.883,5.883,0,0,1,.154-1.7,4.363,4.363,0,0,1,.922-1.516c.963-1.128,2.121-2.081,3.036-3.248a5.419,5.419,0,0,0,1.34-4.106,18.653,18.653,0,0,0,15.269,3.949c4.853-.952,9.512-5.211,8.944-10.563a4.331,4.331,0,0,0-3.419-3.727c-2.4-.6-4.555.682-6.729,1.5-3.962,1.494-7.84-1.072-11.843-1.5-3.424-.368-7.627.056-9.41,3.461,0,0-6.151.723-8.844,5.774s2.427,12.044,2.427,12.044,2.061-2.495,4.71,2.556Z" transform="translate(-241.826 -207.891)" fill="#12263f"/>
            <path id="Trazado_605224" data-name="Trazado 605224" d="M316.811,225.669s-1.59,8.288,2.56,12.3c0,0,.908-2.491,1.829-3.1a9.61,9.61,0,0,0-.727-9.2C317.436,220.846,316.811,225.669,316.811,225.669Z" transform="translate(-256.623 -212.904)" fill="#12263f"/>
            <path id="Trazado_605225" data-name="Trazado 605225" d="M312.994,212.8a7.83,7.83,0,0,1-4.736,4.943c-5.761,2.347-11.357-.256-17.125-.766-4.714-.417-9.912,3.83-10.241,8.67" transform="translate(-245.203 -209.465)" fill="none" stroke="#fff" stroke-linecap="round" stroke-linejoin="round" stroke-width="1.103" opacity="0.2"/>
            <path id="Trazado_605226" data-name="Trazado 605226" d="M275.626,225.637a10.071,10.071,0,0,1,6.136-8.888" transform="translate(-243.515 -210.731)" fill="none" stroke="#fff" stroke-linecap="round" stroke-linejoin="round" stroke-width="1.103" opacity="0.2"/>
            <path id="Trazado_605227" data-name="Trazado 605227" d="M286.53,276.2a26.271,26.271,0,0,0,8.971,6.138s6.9-2,10.407-6.809" transform="translate(-247.011 -229.575)" fill="none" stroke="#12263f" stroke-linecap="round" stroke-linejoin="round" stroke-width="1.103"/>
            <circle id="Elipse_7615" data-name="Elipse 7615" cx="6.103" cy="6.103" r="6.103" transform="translate(35.923 26.035) rotate(-24.636)" fill="none" stroke="#12263f" stroke-linecap="round" stroke-linejoin="round" stroke-width="1.103"/>
            <circle id="Elipse_7616" data-name="Elipse 7616" cx="6.103" cy="6.103" r="6.103" transform="translate(50.848 23.725) rotate(-7.003)" fill="none" stroke="#12263f" stroke-linecap="round" stroke-linejoin="round" stroke-width="1.103"/>
            <path id="Trazado_605228" data-name="Trazado 605228" d="M286.805,273.162a4.784,4.784,0,0,0-2.936,2.277c-1.08,1.9-.429,7.887-.429,7.887s5.577,5.519,10.324,7.846l1.4-7.877,2.174,7.877s7.353-5.2,9.389-9.6c0,0,.664-5.125,0-6.809a2.35,2.35,0,0,0-2.2-1.605" transform="translate(-245.958 -228.817)" fill="none" stroke="#12263f" stroke-linecap="round" stroke-linejoin="round" stroke-width="1.103"/>
            <path id="Trazado_605229" data-name="Trazado 605229" d="M273.23,340.995s-2.177-14.6-5.078-20.563" transform="translate(-241.119 -243.972)" fill="none" stroke="#12263f" stroke-linecap="round" stroke-linejoin="round" stroke-width="1.103"/>
            <path id="Trazado_605230" data-name="Trazado 605230" d="M258.921,301.351a59.176,59.176,0,0,1,4.511,7.549" transform="translate(-238.159 -237.854)" fill="none" stroke="#12263f" stroke-linecap="round" stroke-linejoin="round" stroke-width="1.103"/>
            <path id="Trazado_605231" data-name="Trazado 605231" d="M343.228,314.035a42.177,42.177,0,0,1,2.4-7.129" transform="translate(-265.188 -239.635)" fill="none" stroke="#12263f" stroke-linecap="round" stroke-linejoin="round" stroke-width="1.103"/>
            <path id="Trazado_605232" data-name="Trazado 605232" d="M336.6,342.08s1.573-10.012,3.444-18.263" transform="translate(-263.062 -245.057)" fill="none" stroke="#12263f" stroke-linecap="round" stroke-linejoin="round" stroke-width="1.103"/>
            <path id="Trazado_605233" data-name="Trazado 605233" d="M340.521,328.058A11.516,11.516,0,0,1,346.6,323.9" transform="translate(-264.32 -245.085)" fill="none" stroke="#12263f" stroke-linecap="round" stroke-linejoin="round" stroke-width="1.103"/>
            <path id="Trazado_605234" data-name="Trazado 605234" d="M318.245,283.592s12.663,5.058,20.836,7.931c0,0,10.055,9.457,20.835,42.208,0,0-9.882,16.619-28.671,21.946" transform="translate(-257.179 -232.161)" fill="none" stroke="#12263f" stroke-linecap="round" stroke-linejoin="round" stroke-width="1.103"/>
            <path id="Trazado_605235" data-name="Trazado 605235" d="M342.184,362.6l9.078-7.58s4.8-3.65,9.8-1.153" transform="translate(-264.853 -254.412)" fill="none" stroke="#12263f" stroke-linecap="round" stroke-linejoin="round" stroke-width="1.103"/>
            <path id="Trazado_605236" data-name="Trazado 605236" d="M341.665,328.669s7.51,11.061,9.431,18.554" transform="translate(-264.687 -246.613)" fill="none" stroke="#12263f" stroke-linecap="round" stroke-linejoin="round" stroke-width="1.103"/>
            <path id="Trazado_605237" data-name="Trazado 605237" d="M260.93,358.479l-2.657-2.533a12.457,12.457,0,0,0-8.41,2.3" transform="translate(-235.255 -255.336)" fill="none" stroke="#12263f" stroke-linecap="round" stroke-linejoin="round" stroke-width="1.103"/>
            <path id="Trazado_605238" data-name="Trazado 605238" d="M262.241,348.222s3.3-10.84,6.555-16.435" transform="translate(-239.224 -247.612)" fill="none" stroke="#12263f" stroke-linecap="round" stroke-linejoin="round" stroke-width="1.103"/>
            <path id="Trazado_605239" data-name="Trazado 605239" d="M269.678,285.547s-18.215,6.835-20,8.825-8.574,40.219-8.753,44.594c-.16,3.911,14.029,12.7,21.038,16.4" transform="translate(-232.389 -232.788)" fill="none" stroke="#12263f" stroke-linecap="round" stroke-linejoin="round" stroke-width="1.103"/>
            <rect id="Rectángulo_299222" data-name="Rectángulo 299222" width="29.632" height="21.052" rx="6.532" transform="translate(78.04 25.569)" fill="#fff" stroke="#12263f" stroke-linecap="round" stroke-linejoin="round" stroke-width="1.103"/>
            <path id="Trazado_605240" data-name="Trazado 605240" d="M354.611,254.846l-5.7,3.577,5.288,4.69" transform="translate(-267.011 -222.945)" fill="none" stroke="#12263f" stroke-linecap="round" stroke-linejoin="round" stroke-width="1.103"/>
            <path id="Trazado_605241" data-name="Trazado 605241" d="M372.209,263.627l5.12-4.364-5.911-3.875" transform="translate(-274.226 -223.119)" fill="none" stroke="#12263f" stroke-linecap="round" stroke-linejoin="round" stroke-width="1.103"/>
            <line id="Línea_393" data-name="Línea 393" y1="13.189" x2="4.206" transform="translate(90.37 30.004)" fill="none" stroke="#12263f" stroke-linecap="round" stroke-linejoin="round" stroke-width="1.103"/>
            <path id="Trazado_605242" data-name="Trazado 605242" d="M302.165,303.991a1.2,1.2,0,1,1-1.2-1.2A1.2,1.2,0,0,1,302.165,303.991Z" transform="translate(-251.255 -238.317)" fill="#12263f"/>
            <g id="Grupo_881198" data-name="Grupo 881198" transform="translate(25.067 97.023)">
              <path id="Trazado_605243" data-name="Trazado 605243" d="M314.3,397.859H272.844a.972.972,0,0,1-.972-.972h0a.972.972,0,0,1,.972-.972H314.3a.972.972,0,0,1,.972.972h0A.972.972,0,0,1,314.3,397.859Z" transform="translate(-267.378 -365.195)" fill="#12263f"/>
              <path id="Trazado_605244" data-name="Trazado 605244" d="M313.63,380.14l5.555-26.088a2.777,2.777,0,0,0-2.716-3.354H268.034a2.776,2.776,0,0,0-2.724,3.314l4.981,25.22a2.775,2.775,0,0,0,2.66,2.237l37.9.868A2.776,2.776,0,0,0,313.63,380.14Z" transform="translate(-265.257 -350.698)" fill="#fff" stroke="#12263f" stroke-linecap="round" stroke-linejoin="round" stroke-width="1.103"/>
              <path id="Trazado_605245" data-name="Trazado 605245" d="M306.79,371a3.867,3.867,0,1,1-3.867-3.866A3.867,3.867,0,0,1,306.79,371Z" transform="translate(-276.093 -355.968)" fill="#12263f"/>
              <line id="Línea_394" data-name="Línea 394" x2="5.755" transform="translate(38.296 2.475)" fill="none" stroke="#12263f" stroke-linecap="round" stroke-linejoin="round" stroke-width="1.103"/>
              <line id="Línea_395" data-name="Línea 395" x2="21.844" transform="translate(10.815 2.475)" fill="none" stroke="#12263f" stroke-linecap="round" stroke-linejoin="round" stroke-width="1.103"/>
            </g>
            <path id="Trazado_605246" data-name="Trazado 605246" d="M303.346,418.244l-4.417,11.589s-11.258-2.839-25.686-5.795c-15.085-3.091-30.841-7.094-39.014-21.432a8.121,8.121,0,0,1-1.193-5.771c1.179-4.953,7.622-6.3,11.869-6.793a79.006,79.006,0,0,1,8.037-.453c1.368-.019,5.878-.735,6.97.068a31.952,31.952,0,0,0,5.242,3.106c2.412,1.024,37.616-.92,37.616-.92a12.565,12.565,0,0,0,1.107-4.227c5.534-2.812,18.349-5.195,23.763-4.142,8.515,1.656,13.481,6.623,12.536,11.826S320.44,414.46,303.346,418.244Z" transform="translate(-229.812 -264.103)" fill="#12263f"/>
            <path id="Trazado_605247" data-name="Trazado 605247" d="M314.3,425.2a73.34,73.34,0,0,1-19.46-8.751c-8.751-5.913-15.588-12.772-27.779-11.353" transform="translate(-240.77 -271.053)" fill="none" stroke="#fff" stroke-linecap="round" stroke-linejoin="round" stroke-width="1.103"/>
            <path id="Trazado_605248" data-name="Trazado 605248" d="M304.99,411.125c5.528-1.59,9.585-5.165,14.02-8.6a94.937,94.937,0,0,1,15.01-9.863" transform="translate(-252.929 -267.129)" fill="none" stroke="#fff" stroke-linecap="round" stroke-linejoin="round" stroke-width="1.103"/>
            <line id="Línea_396" data-name="Línea 396" x2="1.622" transform="translate(50.118 30.004)" fill="none" stroke="#12263f" stroke-linecap="round" stroke-linejoin="round" stroke-width="1.103"/>
          </g>
        </g>
      </g>
    </g>
  </g>
</svg>
