<svg xmlns="http://www.w3.org/2000/svg" width="340" height="343.987" viewBox="0 0 340 343.987"><g transform="translate(-285 -3160.537)"><g transform="translate(252.188 3137.667)"><g transform="translate(32.813 30.258)"><g transform="translate(0 22.941)"><rect width="152.143" height="94.165" fill="#f5f5f5"/><g transform="translate(16.17 27.717)"><path d="M155.154,126.509c-10.549-4-22.685,7.062-33.026,2.551-6.018-2.625-8.747-9.431-11.7-15.3s-8.029-12.054-14.559-11.373c-6.587.687-11.912,8.313-18.275,6.475-4.01-1.158-6.012-5.606-7.017-9.657s-1.7-8.529-4.76-11.37-9.428-2.081-9.909,2.066v49.92H174.891S158.806,127.893,155.154,126.509Z" transform="translate(-55.913 -86.142)" fill="#fff"/></g><g transform="translate(9.51 81.203)"><path d="M175.213,162.746c0,.106-28.838.193-64.4.193s-64.411-.087-64.411-.193,28.832-.194,64.411-.194S175.213,162.639,175.213,162.746Z" transform="translate(-46.399 -162.552)" fill="#e8e8e8"/></g><g transform="translate(9.51 59.399)"><path d="M175.213,131.6c0,.106-28.838.193-64.4.193S46.4,131.7,46.4,131.6s28.832-.194,64.411-.194S175.213,131.49,175.213,131.6Z" transform="translate(-46.399 -131.403)" fill="#e8e8e8"/></g><g transform="translate(9.51 37.595)"><path d="M175.213,100.448c0,.106-28.838.193-64.4.193s-64.411-.087-64.411-.193,28.832-.194,64.411-.194S175.213,100.341,175.213,100.448Z" transform="translate(-46.399 -100.254)" fill="#e8e8e8"/></g><g transform="translate(9.51 16.873)"><path d="M175.213,70.844c0,.107-28.838.194-64.4.194S46.4,70.951,46.4,70.844s28.832-.193,64.411-.193S175.213,70.738,175.213,70.844Z" transform="translate(-46.399 -70.651)" fill="#e8e8e8"/></g></g><g transform="translate(210 -7.388)"><g transform="translate(6.523 7.196)"><path d="M382.552,66.256V39.525a26.732,26.732,0,1,1-26.725,27.349Z" transform="translate(-355.827 -39.525)" fill="#fff"/></g><path d="M374.157,56.98l-26.731.6A28.2,28.2,0,0,1,355,38.338a27.485,27.485,0,0,1,18.743-8.08Z" transform="translate(-347.426 -30.258)" fill="#fff"/></g><g transform="translate(37.801 241.539)"><g transform="translate(0 6.51)"><path d="M105.681,373.888V349.7a24.187,24.187,0,1,0,24.18,24.747Z" transform="translate(-81.494 -349.701)" fill="#d0f8bc"/></g><g transform="translate(30.083)"><path d="M120.236,365.5l24.187.547a25.513,25.513,0,0,0-6.853-17.415,24.867,24.867,0,0,0-16.959-7.31Z" transform="translate(-120.236 -341.317)" fill="#d0f8bc"/></g></g><g transform="translate(209 93.66)"><rect width="11.306" height="35.311" fill="#a4dc88"/><g transform="translate(16.881 8.066)"><rect width="11.306" height="27.245" fill="#a4dc88"/></g><g transform="translate(32.509 19.132)"><rect width="11.306" height="16.18" fill="#a4dc88"/></g></g></g><g transform="translate(39.278 126.256)"><g transform="translate(0 8.205)"><path d="M373.629,175.839s-.331-.221-.965-.669l-1.18-.835-1.68-1.085a58.274,58.274,0,0,0-11.89-5.75,52.452,52.452,0,0,0-9.259-2.319,43.081,43.081,0,0,0-11.325-.257c-8.1.867-17.007,4.7-24.761,11.438a74.536,74.536,0,0,0-10.924,11.8c-3.3,4.532-6.59,9.366-9.993,14.363-6.78,10.016-13.749,20.9-20.985,32.419s-14.738,23.667-22.77,36.1c-4.029,6.21-8.168,12.506-12.491,18.812-2.168,3.143-4.216,6.4-6.322,9.656s-4.23,6.528-6.43,9.78a195.841,195.841,0,0,1-13.966,18.607,67.683,67.683,0,0,1-8.09,8.036,27.5,27.5,0,0,1-4.678,3.172,12.243,12.243,0,0,1-5.386,1.589,14.575,14.575,0,0,1-5.353-1.55,54.834,54.834,0,0,1-4.859-2.564c-3.146-1.837-6.142-3.842-9.067-5.877-5.84-4.088-11.372-8.341-16.693-12.582q-3.989-3.182-7.811-6.368t-7.573-6.224c-5.026-4.029-9.965-7.871-14.882-11.385a49.305,49.305,0,0,0-15.383-8.036,34.983,34.983,0,0,0-15.921-.567,43.947,43.947,0,0,0-13.521,5.4,65.686,65.686,0,0,0-10.425,7.836c-6.02,5.526-11.1,10.4-15.227,14.406s-7.282,7.17-9.42,9.316l-2.427,2.445c-.547.551-.833.828-.833.828s.266-.3.8-.856l2.4-2.474c2.119-2.165,5.263-5.339,9.368-9.372s9.176-8.917,15.184-14.46a65.775,65.775,0,0,1,10.446-7.891,44.15,44.15,0,0,1,13.6-5.457,35.28,35.28,0,0,1,16.062.546,49.616,49.616,0,0,1,15.494,8.064c4.93,3.515,9.876,7.354,14.91,11.381q3.775,3.02,7.584,6.221,3.822,3.175,7.81,6.357c5.319,4.233,10.849,8.479,16.682,12.557,2.92,2.03,5.912,4.029,9.043,5.856a54.537,54.537,0,0,0,4.824,2.544,14.273,14.273,0,0,0,5.19,1.513,11.868,11.868,0,0,0,5.2-1.545,27.086,27.086,0,0,0,4.611-3.129,67.221,67.221,0,0,0,8.038-7.991,195.794,195.794,0,0,0,13.935-18.569c2.2-3.249,4.325-6.517,6.426-9.773s4.156-6.515,6.329-9.664c4.321-6.3,8.461-12.593,12.49-18.8,8.033-12.43,15.546-24.572,22.787-36.087s14.228-22.4,21.024-32.409c3.412-5,6.7-9.821,10.021-14.362a74.735,74.735,0,0,1,10.988-11.835c7.8-6.759,16.769-10.595,24.922-11.445a43.179,43.179,0,0,1,11.379.291,52.284,52.284,0,0,1,9.282,2.361,57.342,57.342,0,0,1,11.882,5.83l1.669,1.1,1.17.852C373.315,175.595,373.629,175.839,373.629,175.839Z" transform="translate(-41.139 -164.452)" fill="#fc8116"/></g><g transform="translate(50.369 121.931)"><g transform="translate(3.584 3.663)"><path d="M119.657,320.258a4.52,4.52,0,1,1-4.518-4.63A4.575,4.575,0,0,1,119.657,320.258Z" transform="translate(-110.62 -315.628)" fill="#636363"/></g><path d="M114.107,327.5a8.3,8.3,0,1,1,8.1-8.293A8.209,8.209,0,0,1,114.107,327.5Zm0-15.81a7.519,7.519,0,1,0,7.326,7.517A7.432,7.432,0,0,0,114.107,311.688Z" transform="translate(-106.005 -310.911)" fill="#636363"/></g><g transform="translate(293.256)"><g transform="translate(3.584 3.662)"><path d="M432.452,163.232a4.52,4.52,0,1,1-4.519-4.63A4.575,4.575,0,0,1,432.452,163.232Z" transform="translate(-423.415 -158.602)" fill="#636363"/></g><path d="M426.9,170.471a8.295,8.295,0,1,1,8.1-8.293A8.209,8.209,0,0,1,426.9,170.471Zm0-15.809a7.519,7.519,0,1,0,7.326,7.516A7.431,7.431,0,0,0,426.9,154.662Z" transform="translate(-418.8 -153.886)" fill="#636363"/></g></g><g transform="translate(42.341 72.795)"><g transform="translate(0 113.724)"><g transform="translate(0.151 0.184)"><path d="M45.279,231.73v40.346H95.073l9.149,12.823V272.077h10.823V231.73Z" transform="translate(-45.279 -231.73)" fill="#fafafa"/></g><path d="M45.235,231.678s.1-.008.319-.011l.965-.011,3.775-.022,14.29-.05L115,231.494h.183v.184c.005,12.358.012,25.991.018,40.346v.2H104.179l.2-.2q0,6.505,0,12.822v.628l-.364-.511-9.145-12.826.159.082-49.794-.045h-.151v-.151c.033-12.451.061-22.549.081-29.548.016-3.473.029-6.174.037-8.021q.01-1.358.016-2.079c.005-.467.016-.7.016-.7s.01.252.016.728.009,1.189.017,2.107c.009,1.854.021,4.567.037,8.055.019,6.978.047,17.044.081,29.456l-.151-.151,49.794-.046h.1l.059.082,9.153,12.82-.364.116q0-6.308,0-12.822v-.2H115l-.2.2c.007-14.355.012-27.988.018-40.346l.184.183-50.3-.091-14.331-.049-3.811-.023-.985-.011C45.354,231.685,45.235,231.678,45.235,231.678Z" transform="translate(-45.084 -231.494)" fill="#263238"/><g transform="translate(13.073 16.091)"><path d="M105.843,252.419c0,.112-9.834.2-21.96.2s-21.963-.09-21.963-.2,9.831-.2,21.963-.2S105.843,252.307,105.843,252.419Z" transform="translate(-61.92 -252.216)" fill="#263238"/></g><g transform="translate(13.073 24.985)"><path d="M105.843,263.873c0,.112-9.834.2-21.96.2s-21.963-.09-21.963-.2,9.831-.2,21.963-.2S105.843,263.761,105.843,263.873Z" transform="translate(-61.92 -263.67)" fill="#263238"/></g></g><g transform="translate(266.068)"><g transform="translate(0.201 0.184)"><path d="M452.042,85.275H387.991v36.347h10.59l-.794.144,9.073,11.563-.594-11.707h45.775Z" transform="translate(-387.991 -85.275)" fill="#fafafa"/></g><path d="M451.984,85.222s.01.207.016.628.009,1.06.016,1.874c.009,1.669.022,4.1.038,7.233.019,6.312.046,15.411.08,26.612v.149h-.151l-45.775.045.195-.205c.189,3.715.392,7.674.6,11.707l.032.629-.389-.5-9.075-11.561-.207-.264.331-.06.794-.144.036.4H387.732v-.2c.006-12.94.012-25.208.018-36.347v-.184h.184l46.291.092,13.118.049,3.464.022.884.011c.2,0,.293.011.293.011s-.109.007-.314.011l-.905.01-3.5.023-13.159.049-46.172.091.183-.183c.005,11.14.012,23.407.018,36.347l-.2-.2h10.589l.036.4-.794.144.124-.324,9.071,11.565-.357.134c-.2-4.032-.4-7.993-.589-11.707l-.01-.2h.206l45.775.046-.15.15c.034-11.163.061-20.23.08-26.52.016-3.143.029-5.59.038-7.267q.01-1.239.016-1.9C451.974,85.45,451.984,85.222,451.984,85.222Z" transform="translate(-387.732 -85.038)" fill="#263238"/><g transform="translate(12.258 14.694)"><path d="M403.518,104.163c0-.112,8.941-.2,19.968-.2s19.969.09,19.969.2-8.939.2-19.969.2S403.518,104.275,403.518,104.163Z" transform="translate(-403.518 -103.961)" fill="#263238"/></g><g transform="translate(12.258 22.482)"><path d="M403.518,114.194c0-.112,8.941-.2,19.968-.2s19.969.091,19.969.2-8.939.2-19.969.2S403.518,114.305,403.518,114.194Z" transform="translate(-403.518 -113.991)" fill="#263238"/></g></g><g transform="translate(39.27 1.958)"><g transform="translate(0.002 0.138)"><path d="M159.544,140.193a34.663,34.663,0,1,0-8.25,9.188l15.537,3.659h0Z" transform="translate(-95.66 -87.738)" fill="#fff"/></g><path d="M151.527,149.257l-.314-.041a34.227,34.227,0,0,1-16.391,6.8,30.655,30.655,0,0,1-5.388.251c-.926-.056-1.87-.082-2.82-.165l-2.871-.444a34.323,34.323,0,0,1-21.189-13.674,33.865,33.865,0,0,1-5.713-13.111,34.6,34.6,0,0,1,.413-15.081,33.461,33.461,0,0,1,7.268-13.936,34.074,34.074,0,0,1,13.056-9.327,34.638,34.638,0,0,1,15.194-2.348,33.5,33.5,0,0,1,13.961,4.1,34.531,34.531,0,0,1,16.169,19.8,36.918,36.918,0,0,1,1.52,11.059,34.157,34.157,0,0,1-4.993,16.936l-.041.069.039.068L166.833,153,159.7,140.156a34.236,34.236,0,0,0,5.109-17,37.179,37.179,0,0,0-1.49-11.2A34.926,34.926,0,0,0,146.98,91.842a33.97,33.97,0,0,0-14.169-4.191,35.141,35.141,0,0,0-15.439,2.371A34.6,34.6,0,0,0,104.1,99.5a33.986,33.986,0,0,0-7.382,14.166,35.113,35.113,0,0,0-.4,15.322,34.333,34.333,0,0,0,5.823,13.3,34.733,34.733,0,0,0,21.522,13.806l2.91.439c.963.08,1.917.1,2.855.155a31.017,31.017,0,0,0,5.45-.279,34.344,34.344,0,0,0,16.439-6.92L166.833,153Z" transform="translate(-95.657 -87.56)" fill="#263238"/><g transform="translate(31.842 20.382)"><path d="M136.668,115.961l.982,15.518a2.518,2.518,0,0,0,2.363,2.355h0a2.518,2.518,0,0,0,2.653-2.237l1.723-15.6a1.976,1.976,0,0,0-1.992-2.193l-3.785.053A1.975,1.975,0,0,0,136.668,115.961Z" transform="translate(-136.664 -113.808)" fill="#ff725e"/></g><g transform="translate(31.921 44.155)"><path d="M144.15,149.406a3.788,3.788,0,1,1-2.4-4.788A3.787,3.787,0,0,1,144.15,149.406Z" transform="translate(-136.766 -144.424)" fill="#ff725e"/></g></g></g><g transform="translate(113.209 81.302)"><g transform="translate(53.557 174.05)"><path d="M285.241,320.138l3.072,8.7s14.216,13.05,16.312,30.531,2.1,21.291,2.1,21.291l-4.4,50.985H207.553s-3.139-41.212-1.974-52.866,7.93-24.84,7.93-24.84l7.224-17.481.214-8.8Z" transform="translate(-205.32 -320.138)" fill="#263238"/><g transform="translate(16.645 9.585)"><path d="M292.937,332.486a4.272,4.272,0,0,1-.664.145l-1.916.338-7.062,1.159c-5.967.955-14.219,2.222-23.35,3.5s-17.423,2.3-23.438,2.895c-3.007.308-5.444.512-7.13.632l-1.943.121a4.213,4.213,0,0,1-.679.015,4.228,4.228,0,0,1,.672-.1l1.936-.2c1.68-.168,4.112-.415,7.112-.759,6-.672,14.281-1.74,23.413-3.011s17.384-2.5,23.362-3.382l7.081-1.032,1.928-.263A4.194,4.194,0,0,1,292.937,332.486Z" transform="translate(-226.756 -332.482)" fill="#455a64"/></g><g transform="translate(15.504 40.438)"><path d="M238.831,372.215a4.042,4.042,0,0,1-.348.853c-.245.538-.627,1.3-1.126,2.236a64.669,64.669,0,0,1-9.616,13.4c-.724.771-1.326,1.379-1.758,1.784a4.069,4.069,0,0,1-.7.6,3.957,3.957,0,0,1,.582-.711l1.659-1.866c1.389-1.583,3.245-3.827,5.12-6.436s3.4-5.088,4.458-6.911L238.344,373A4.07,4.07,0,0,1,238.831,372.215Z" transform="translate(-225.286 -372.214)" fill="#455a64"/></g></g><g transform="translate(169.214 20.481)"><g transform="translate(9.92 56.887)"><path d="M382.205,199.908s1.944,32.663,2.528,36.358-2.528,8.36-2.528,8.36-7.193.778-12.054-8.166l-3.111-7a44.571,44.571,0,0,0,1.75-18.47c-1.166-10.5-1.75-15.36-1.75-15.36Z" transform="translate(-367.04 -195.63)" fill="#ffbe9d"/></g><g transform="translate(0 0)"><g transform="translate(0 0.72)"><path d="M370.627,138.217c.853,7.884.743,14.7-3.141,16.092-.326.116-2.933.219-3.279.256-4.47.484-8.844-6.051-9.768-14.6s1.95-15.865,6.42-16.349a29.568,29.568,0,0,1,3.217-.314C368.084,124.021,369.788,130.473,370.627,138.217Z" transform="translate(-354.265 -123.297)" fill="#455a64"/></g><g transform="translate(8.906 31.54)"><path d="M385.607,175.309s3.278,1.088,2.684,4.253a72.922,72.922,0,0,1-2.684,8.773l-4.07,4.515-14.789-4.515a9.111,9.111,0,0,1-1.008-4.421c.1-2.473-.006-8.605-.006-8.605a14.654,14.654,0,0,0,2.677-5.638c.5-2.558.853-5.529.957-6.443a.269.269,0,0,1,.325-.234,3.814,3.814,0,0,1,2.872,2.622c.791,2.473.593,3.166.593,3.166Z" transform="translate(-365.734 -162.987)" fill="#ffbe9d"/></g><g transform="translate(12.694 29.95)"><path d="M374.945,164.317l-2.115-3.377-2.218,1.711,4.113,8.13,1.122-3.407Z" transform="translate(-370.613 -160.94)" fill="#455a64"/></g><g transform="translate(12.985 31.048)"><path d="M375.029,164.633s2.312-3.5,4.46-1.83,1.652,2.656,0,5.713c0,0,4.212-.578,3.222,3.882,0,0,4.177-.821,4.07,2.77,0,0,3.446,2.847,1.959,4.995s-7.187,6.278-8.756,5.782-1.762-2.643-1.762-2.643a5.931,5.931,0,0,1-2.451-1.569c-.578-.909.165-2.312.165-2.312s-1.652-1.426-2.065-1.828,0-2.468,0-2.468l2.23-2.56s-3.222,1.735-3.965,1.239-1.569-.909-.909-1.982a34.082,34.082,0,0,1,3.122-3.559Z" transform="translate(-370.988 -162.353)" fill="#ffbe9d"/></g><g transform="translate(20.577 43.86)"><path d="M380.767,187.208a11.585,11.585,0,0,1,.983-1.423A12.847,12.847,0,0,1,384.6,182.7a29.957,29.957,0,0,0,3.284-2.524,16.512,16.512,0,0,0,1.081-1.317,3.1,3.1,0,0,1-.873,1.513,20.613,20.613,0,0,1-3.248,2.65,15.608,15.608,0,0,0-2.869,2.941A5.462,5.462,0,0,1,380.767,187.208Z" transform="translate(-380.764 -178.854)" fill="#eb996e"/></g><g transform="translate(17.925 41.087)"><path d="M377.353,182.939a32.554,32.554,0,0,1,3.155-4.039c.919-1.065,1.7-2.09,2.388-2.735a3.136,3.136,0,0,1,1.237-.878c.033.052-.427.387-1.031,1.077-.617.674-1.356,1.721-2.285,2.8A32.6,32.6,0,0,1,377.353,182.939Z" transform="translate(-377.349 -175.282)" fill="#eb996e"/></g><g transform="translate(18.094 37.025)"><path d="M377.573,174.283a14.985,14.985,0,0,1,1.788-2.041,25.372,25.372,0,0,0,1.542-2.19,4.069,4.069,0,0,1-1.236,2.454A6.813,6.813,0,0,1,377.573,174.283Z" transform="translate(-377.567 -170.051)" fill="#eb996e"/></g><g transform="translate(12.161 45.483)"><path d="M369.927,180.952a2.9,2.9,0,0,1,1.377.565,7.861,7.861,0,0,1,2.459,2.618,14.965,14.965,0,0,1,1.4,3.29,5.053,5.053,0,0,1,.332,1.44,5.77,5.77,0,0,1-.6-1.345,21.511,21.511,0,0,0-1.479-3.177,9,9,0,0,0-2.274-2.59C370.429,181.219,369.9,181.014,369.927,180.952Z" transform="translate(-369.926 -180.943)" fill="#eb996e"/></g><g transform="translate(2.633)"><ellipse cx="6.947" cy="15.563" rx="6.947" ry="15.563" transform="translate(0 1.495) rotate(-6.177)" fill="#263238"/></g><g transform="translate(4.122 1.139)"><path d="M366.938,154.188c3.573-1.793,5.706-8.364,4.891-15.89-.81-7.486-4.266-13.427-8.116-14.462-3.03,1.73-4.752,8.26-3.938,15.789C360.585,147.106,363.631,153.092,366.938,154.188Z" transform="translate(-359.573 -123.836)" fill="#e0e0e0"/></g><g transform="translate(10.733 10.67)"><path d="M369,150.777a67.209,67.209,0,0,1-.638-7.321,66.928,66.928,0,0,1-.235-7.347,67.16,67.16,0,0,1,.638,7.322A66.853,66.853,0,0,1,369,150.777Z" transform="translate(-368.087 -136.11)" fill="#fff"/></g><g transform="translate(9.351 6.313)"><path d="M367.273,144.585a9.514,9.514,0,0,1-.4-2.037c-.181-1.267-.368-3.028-.475-4.979s-.111-3.723-.07-5a9.536,9.536,0,0,1,.172-2.068,11.794,11.794,0,0,1,.114,2.069c.032,1.276.082,3.036.188,4.979s.249,3.7.356,4.97A11.858,11.858,0,0,1,367.273,144.585Z" transform="translate(-366.308 -130.499)" fill="#fff"/></g><g transform="translate(12.853 30.95)"><path d="M374.991,164.593a1.091,1.091,0,0,1-.022.246l-.109.7c-.111.648-.264,1.548-.459,2.693l0,.026-.019.02c-.453.471-.96,1.01-1.506,1.618a14.522,14.522,0,0,0-1.643,2.08,1.017,1.017,0,0,0-.132.628.976.976,0,0,0,.374.544,6.586,6.586,0,0,0,.637.443.907.907,0,0,0,.686.077,13,13,0,0,0,3.195-1.293l.755-.39-.554.641-2.222,2.569.033-.055a3.1,3.1,0,0,0,.082,2.471,6.882,6.882,0,0,0,2.079,1.79l.175.11-.119.168c-.477.669-.768,1.687-.026,2.238a9.039,9.039,0,0,0,2.425,1.376l-.271.181v-.057c.055.054-.125-.13.13.162.524-.3.149-.12.265-.172h0v0l0,.092.019.2a3.813,3.813,0,0,0,.07.4,3.144,3.144,0,0,0,.275.749,2.034,2.034,0,0,0,.484.607,1.206,1.206,0,0,0,.658.307,3.828,3.828,0,0,0,1.572-.45,14.284,14.284,0,0,0,1.529-.848,26.251,26.251,0,0,0,2.683-1.948,16.511,16.511,0,0,0,2.3-2.237,2.009,2.009,0,0,0,.535-1.326,3.105,3.105,0,0,0-.38-1.4,8.141,8.141,0,0,0-1.868-2.278l-.066-.057,0-.094a3.045,3.045,0,0,0-.26-1.378,2.065,2.065,0,0,0-.937-.936,4.566,4.566,0,0,0-2.651-.28l-.242.036.038-.245c.041-.27.095-.537.127-.8a4.451,4.451,0,0,0,0-.783,2.169,2.169,0,0,0-.552-1.339,3.184,3.184,0,0,0-2.6-.773l-.283.024.131-.243a23.623,23.623,0,0,0,1.176-2.336,3.307,3.307,0,0,0,.254-1.13,1.816,1.816,0,0,0-.3-1.007,4.588,4.588,0,0,0-1.452-1.333,1.961,1.961,0,0,0-1.6-.029,5.31,5.31,0,0,0-1.864,1.4c-.185.2-.314.361-.4.467a.95.95,0,0,1-.14.159.69.69,0,0,1,.1-.185,5.933,5.933,0,0,1,.374-.5,6.39,6.39,0,0,1,.7-.733,4.03,4.03,0,0,1,1.166-.763,2.134,2.134,0,0,1,1.744,0l.43.262.4.32a4.162,4.162,0,0,1,.737.8,2.048,2.048,0,0,1,.358,1.134,3.516,3.516,0,0,1-.255,1.227,23.309,23.309,0,0,1-1.165,2.383l-.151-.218a4.436,4.436,0,0,1,1.492.086,2.729,2.729,0,0,1,1.388.761,2.493,2.493,0,0,1,.65,1.524,4.766,4.766,0,0,1,.011.849c-.032.281-.085.562-.129.847l-.2-.209a4.9,4.9,0,0,1,2.882.3,2.441,2.441,0,0,1,1.107,1.1,3.415,3.415,0,0,1,.305,1.554l-.068-.151a8.458,8.458,0,0,1,1.972,2.392,3.482,3.482,0,0,1,.428,1.586,2.51,2.51,0,0,1-.165.846,3.628,3.628,0,0,1-.452.722,16.815,16.815,0,0,1-2.357,2.3,26.312,26.312,0,0,1-2.725,1.979,14.51,14.51,0,0,1-1.572.871,4.123,4.123,0,0,1-1.769.485,2,2,0,0,1-1.469-1.128,3.529,3.529,0,0,1-.31-.846,4.193,4.193,0,0,1-.077-.437l-.02-.222,0-.117v-.03c.116-.054-.259.13.266-.175.256.291.075.107.131.163v.113l0,.3-.269-.116a9.291,9.291,0,0,1-2.544-1.459,1.883,1.883,0,0,1-.467-.624,1.562,1.562,0,0,1-.1-.778,3,3,0,0,1,.551-1.349l.055.277a7.167,7.167,0,0,1-2.2-1.924,2.58,2.58,0,0,1-.345-1.416,4.579,4.579,0,0,1,.244-1.368l.01-.029.023-.026,2.239-2.552.2.252a13.1,13.1,0,0,1-3.3,1.3,1.2,1.2,0,0,1-.89-.13,6.6,6.6,0,0,1-.659-.47,1.241,1.241,0,0,1-.459-.707,1.269,1.269,0,0,1,.167-.8,14.143,14.143,0,0,1,1.711-2.109c.56-.6,1.078-1.131,1.543-1.594l-.024.046q.348-1.717.545-2.691l.152-.692A.9.9,0,0,1,374.991,164.593Z" transform="translate(-370.818 -162.228)" fill="#eb996e"/></g></g></g><g transform="translate(12.07 161.635)"><path d="M197.232,340.561,167.906,304.15s-15.6,13.131-16.008,13.543,24.394,24.544,40.325,33.886l5.009-3.316Z" transform="translate(-151.892 -304.15)" fill="#ffbe9d"/><g transform="translate(39.513 23.724)"><path d="M233.236,335.7s-9.259-1.461-10.112-.852-7.188,4.873-7.188,4.873a34.675,34.675,0,0,1-2.8,3.777s-2.072,2.437-3.655,2.68a7.09,7.09,0,0,1-2.559,0l-4.143,11.453s3.168,3.289,5.117,3.045,12.3-5.97,12.3-5.97l2.559-.853s9.991.365,10.477-2.681v-.853l-9.868-.853-3.655.61,6.335-2.382s9.259-.542,10.112-.785,1.827-1.584,1.461-2.315l-1.949-.244s2.1-1.454,2.028-2.795l-8.764-1.391S234.21,337.531,233.236,335.7Z" transform="translate(-202.778 -334.702)" fill="#ffbe9d"/><g transform="translate(14.599 7.653)"><path d="M240.881,346.416a3.582,3.582,0,0,1-.8-.112c-.51-.092-1.253-.213-2.171-.349-1.837-.273-4.385-.593-7.2-.909a9.051,9.051,0,0,0-1.02-.086,3.091,3.091,0,0,0-.94.169c-.595.234-1.2.516-1.747.769-1.111.518-2.093,1.022-2.9,1.477a21.723,21.723,0,0,0-1.854,1.165,4.454,4.454,0,0,1-.664.46,2.406,2.406,0,0,1,.567-.585,14.737,14.737,0,0,1,1.805-1.287c.8-.492,1.774-1.027,2.884-1.567.563-.269,1.128-.545,1.777-.807a3.461,3.461,0,0,1,1.061-.2,8.849,8.849,0,0,1,1.075.087c2.824.315,5.373.683,7.206,1.028.917.172,1.655.337,2.159.477A2.784,2.784,0,0,1,240.881,346.416Z" transform="translate(-221.579 -344.558)" fill="#eb996e"/></g><g transform="translate(14.437 4.826)"><path d="M233.348,341.95c-.026.064-.714-.24-1.885-.466a10.272,10.272,0,0,0-8.669,2.247c-.913.766-1.367,1.365-1.422,1.322a4.925,4.925,0,0,1,1.232-1.537,9.609,9.609,0,0,1,8.921-2.312A4.923,4.923,0,0,1,233.348,341.95Z" transform="translate(-221.37 -340.917)" fill="#eb996e"/></g></g></g><g transform="translate(0 70.876)"><g transform="translate(130.929 12.515)"><path d="M370.923,239.262a15.179,15.179,0,0,1,1.784,6.251c0,3.036-1.776,8.35-1.776,8.35l-2.209,2.087s1.45,6.641-6.961,8.539-55.488-25.165-55.488-25.165l-1.312-35.939a41.635,41.635,0,0,1,11.766,7.781c4.934,4.933,33.019,25.618,33.019,25.618s1.141-7.327,2.406-6.843S370.923,239.262,370.923,239.262Z" transform="translate(-304.961 -203.385)" fill="#e0e0e0"/></g><g transform="translate(44.038)"><path d="M279.952,199.783l-25.478-5.419-6.632-6.816-29.3-.28-3.528,6.413-21.953,13.35s5.529,36.568,7.545,40.826,18,51.283,18,51.283l63.872-7.62.547-29.512,1.846-14.28a42.33,42.33,0,0,0,.182-9.211C283.862,225.162,279.952,199.783,279.952,199.783Z" transform="translate(-193.061 -187.268)" fill="#e0e0e0"/></g><g transform="translate(0 19.752)"><path d="M172.823,292.486l-20.935,14.357-7.316-10.427,1.955-1.738s-10.8-8.929-10.151-15.229,12.041-22.5,12.041-22.5,24.4-39.95,31.968-44.233c1.058-.6,10.239,21.573,10.239,30.262s-1.738,8.688-1.738,8.688-7.386,7.169-10.862,13.686-9.378,13.613-13.288,16.22Z" transform="translate(-136.348 -212.705)" fill="#e0e0e0"/></g><g transform="translate(16.682 83.443)"><path d="M157.832,294.789a1.531,1.531,0,0,1,.565-.057,10.267,10.267,0,0,1,1.539.085,15.123,15.123,0,0,1,4.862,1.474,16.135,16.135,0,0,1,4.128,2.963,7.075,7.075,0,0,1,1.336,1.624,24.15,24.15,0,0,0-5.644-4.224,17.528,17.528,0,0,0-4.724-1.554C158.632,294.882,157.831,294.858,157.832,294.789Z" transform="translate(-157.832 -294.728)" fill="#263238"/></g><g transform="translate(23.064 76.431)"><path d="M166.053,285.7a6.287,6.287,0,0,1,1.558,1.324,14.45,14.45,0,0,1,2.7,4.135,14.75,14.75,0,0,1,1.172,4.8A6.4,6.4,0,0,1,171.4,298c-.069,0-.052-.78-.2-2.015a17.2,17.2,0,0,0-1.258-4.664,16.8,16.8,0,0,0-2.541-4.105C166.594,286.265,166.008,285.752,166.053,285.7Z" transform="translate(-166.051 -285.698)" fill="#263238"/></g><g transform="translate(93.795 53.7)"><path d="M266.74,256.424a5.379,5.379,0,0,1,.19,1.058,10.353,10.353,0,0,1,.123,1.255c.023.491.078,1.051.051,1.671a19.484,19.484,0,0,1-.095,2.026c-.042.729-.176,1.5-.3,2.309a26.7,26.7,0,0,1-3.9,9.872c-.465.677-.892,1.33-1.361,1.891a19.542,19.542,0,0,1-1.315,1.543c-.4.471-.827.842-1.18,1.185a10.514,10.514,0,0,1-.947.832,5.479,5.479,0,0,1-.861.642c-.056-.065,1.153-1.009,2.776-2.85.4-.462.841-.971,1.263-1.557.451-.562.863-1.214,1.313-1.886a27.975,27.975,0,0,0,3.849-9.739c.132-.8.277-1.555.332-2.274.092-.715.121-1.386.143-2C266.892,257.95,266.655,256.433,266.74,256.424Z" transform="translate(-257.14 -256.424)" fill="#263238"/></g><g transform="translate(65.988 6.413)"><path d="M257.155,228.9a3.724,3.724,0,0,1-.5-.373c-.32-.251-.772-.645-1.388-1.112-1.209-.962-3.015-2.288-5.3-3.867s-5.058-3.4-8.127-5.47a98.6,98.6,0,0,1-9.7-7.231l.3-.035c-.325.465-.658.976-.971,1.5A22.212,22.212,0,0,0,228.8,219.4l-.117.615-.255-.57a98.827,98.827,0,0,1-5.736-16.934c-.522-2.166-.873-3.911-1.081-5.115-.112-.6-.175-1.068-.223-1.384a2.54,2.54,0,0,1-.052-.483,2.54,2.54,0,0,1,.12.471c.073.346.168.8.287,1.371.249,1.193.638,2.927,1.193,5.08a105.4,105.4,0,0,0,5.849,16.832l-.372.045a22.409,22.409,0,0,1,2.712-7.216c.319-.537.658-1.057.99-1.53l.128-.183.171.149a102.428,102.428,0,0,0,9.638,7.23c3.053,2.085,5.814,3.93,8.08,5.544s4.055,2.976,5.237,3.977c.6.486,1.04.9,1.344,1.17A3.754,3.754,0,0,1,257.155,228.9Z" transform="translate(-221.329 -195.527)" fill="#263238"/></g><g transform="translate(101.813 7.096)"><path d="M271.1,196.406a1.546,1.546,0,0,1,.213.321c.128.217.32.538.55.961.47.843,1.122,2.086,1.882,3.668a62.441,62.441,0,0,1,4.734,13.191l.12.536-.435-.339a28.66,28.66,0,0,1-5.666-5.865l.363-.106c-.252,4.485-.482,8.583-.671,11.945l0,.037-.017.031-3.39,6.082-.954,1.66a3.645,3.645,0,0,1-.362.567,3.672,3.672,0,0,1,.279-.612l.877-1.7,3.268-6.148-.019.068c.165-3.364.367-7.463.589-11.95l.028-.568.335.461a28.835,28.835,0,0,0,5.585,5.787l-.315.2a66.727,66.727,0,0,0-4.579-13.164c-.726-1.592-1.342-2.85-1.772-3.712l-.49-.992A1.573,1.573,0,0,1,271.1,196.406Z" transform="translate(-267.465 -196.406)" fill="#263238"/></g><g transform="translate(133.754 25.197)"><path d="M311.228,247.26c-.111.01-.786-6.147-1.508-13.751s-1.216-13.781-1.1-13.792.786,6.146,1.508,13.753S311.34,247.249,311.228,247.26Z" transform="translate(-308.6 -219.717)" fill="#263238"/></g><g transform="translate(175.638 45.457)"><path d="M368.59,256.876a6.513,6.513,0,0,1-1.36-1.3,20.636,20.636,0,0,1-4.324-7.923,6.531,6.531,0,0,1-.356-1.847,43.97,43.97,0,0,0,2.434,5.854A44.046,44.046,0,0,0,368.59,256.876Z" transform="translate(-362.539 -245.809)" fill="#263238"/></g><g transform="translate(175.089 43.416)"><path d="M364.617,257.177c-.023.016-.158-.141-.382-.44a9.739,9.739,0,0,1-.835-1.348,14.036,14.036,0,0,1-1.059-10.21,9.659,9.659,0,0,1,.54-1.49c.158-.339.258-.52.283-.509.066.027-.251.789-.547,2.07a15.568,15.568,0,0,0,1.039,10.013C364.21,256.457,364.676,257.137,364.617,257.177Z" transform="translate(-361.831 -243.179)" fill="#263238"/></g><g transform="translate(43.086 42.182)"><path d="M191.839,241.591a3.721,3.721,0,0,1,.419.78l1.028,2.175,3.413,7.164c1.336,2.8,2.511,5.35,3.309,7.221.4.935.711,1.7.912,2.23a3.758,3.758,0,0,1,.275.842,3.7,3.7,0,0,1-.42-.78c-.28-.592-.622-1.318-1.027-2.175l-3.413-7.165c-1.336-2.8-2.511-5.349-3.309-7.221-.4-.935-.711-1.7-.912-2.23A3.757,3.757,0,0,1,191.839,241.591Z" transform="translate(-191.835 -241.591)" fill="#263238"/></g><g transform="translate(108.57 84.783)"><path d="M285.925,296.454a4.493,4.493,0,0,1-.228.944c-.17.6-.441,1.461-.8,2.52-.707,2.116-1.779,5.01-3.129,8.138s-2.726,5.891-3.782,7.857c-.527.983-.969,1.77-1.29,2.306a4.526,4.526,0,0,1-.531.813,4.443,4.443,0,0,1,.392-.888l1.175-2.362c.988-1.995,2.316-4.768,3.665-7.886s2.455-5.985,3.23-8.073c.364-.984.67-1.812.915-2.474A4.437,4.437,0,0,1,285.925,296.454Z" transform="translate(-276.167 -296.454)" fill="#263238"/></g><g transform="translate(111.777 97.798)"><path d="M286.4,313.215a5.368,5.368,0,0,1-.62,1.437,29.652,29.652,0,0,1-4.333,6.158,5.378,5.378,0,0,1-1.143,1.069c-.089-.082,1.5-1.85,3.175-4.243S286.288,313.16,286.4,313.215Z" transform="translate(-280.296 -313.214)" fill="#263238"/></g><g transform="translate(101.687 39.667)"><path d="M278.95,296.484a3.44,3.44,0,0,1-.088-.6l-.173-1.725c-.133-1.5-.351-3.665-.632-6.34-.587-5.346-1.5-12.729-3.055-20.786a194.353,194.353,0,0,0-5.028-20.392c-.383-1.29-.759-2.446-1.092-3.462s-.613-1.892-.862-2.6c-.229-.685-.411-1.232-.55-1.644a3.378,3.378,0,0,1-.165-.582,3.373,3.373,0,0,1,.242.554l.621,1.619c.272.7.583,1.57.928,2.583s.749,2.162,1.15,3.448a173.941,173.941,0,0,1,5.153,20.4c1.562,8.073,2.427,15.474,2.942,20.833.245,2.681.419,4.853.5,6.357q.061,1.081.1,1.731A3.459,3.459,0,0,1,278.95,296.484Z" transform="translate(-267.304 -238.352)" fill="#263238"/></g><g transform="translate(114.133 95.709)"><path d="M283.848,317.746a9.1,9.1,0,0,0-.509-7.22c.038-.028.341.287.672.905a6.768,6.768,0,0,1,.375,5.324C284.145,317.414,283.89,317.768,283.848,317.746Z" transform="translate(-283.331 -310.524)" fill="#263238"/></g><g transform="translate(113.298 104.473)"><path d="M282.4,324.016c-.111-.006-.172-.506-.137-1.114s.155-1.1.267-1.09.172.505.137,1.114S282.515,324.022,282.4,324.016Z" transform="translate(-282.256 -321.811)" fill="#263238"/></g><g transform="translate(8.223 91.651)"><path d="M168.578,305.3a4.574,4.574,0,0,1-.929.317c-.6.172-1.471.447-2.53.82s-2.3.868-3.661,1.457c-1.35.613-2.812,1.337-4.308,2.17a64.046,64.046,0,0,0-7.321,4.824c-.895.68-1.61,1.242-2.1,1.638a4.584,4.584,0,0,1-.791.58,4.587,4.587,0,0,1,.689-.7c.459-.434,1.149-1.033,2.025-1.745a52.716,52.716,0,0,1,7.3-4.952c1.507-.839,2.986-1.559,4.356-2.158,1.38-.575,2.637-1.061,3.72-1.387s1.962-.576,2.581-.7A4.586,4.586,0,0,1,168.578,305.3Z" transform="translate(-146.938 -305.298)" fill="#263238"/></g><g transform="translate(11.35 91.555)"><path d="M168.663,305.3c0,.071-1.063.037-2.759.187a28.779,28.779,0,0,0-6.485,1.366,35.123,35.123,0,0,0-6.052,2.732c-1.482.842-2.363,1.433-2.4,1.378a2.626,2.626,0,0,1,.571-.483c.38-.293.955-.686,1.683-1.141a29.316,29.316,0,0,1,6.07-2.869,24.826,24.826,0,0,1,6.593-1.267,16.911,16.911,0,0,1,2.037.005A2.715,2.715,0,0,1,168.663,305.3Z" transform="translate(-150.966 -305.174)" fill="#263238"/></g><g transform="translate(44.369 44.959)" opacity="0.3"><path d="M193.667,245.167a16.609,16.609,0,0,0,7.284,16.151C199.121,256.659,195.949,249.961,193.667,245.167Z" transform="translate(-193.488 -245.167)"/></g><g transform="translate(74.228 21.551)" opacity="0.3"><path d="M231.941,220.29a17.664,17.664,0,0,0,3.983,5.3l-.078-4.245,19.451,8.644-20.879-14.963c-1.14,1.918-1.338,3.35-2.478,5.268" transform="translate(-231.941 -215.022)"/></g><g transform="translate(106.39 19.451)" opacity="0.3"><path d="M277.111,216.379c-.833-1.307-3.132-4.061-3.132-4.061-.074,2.038-.252,4.828-.326,6.866l-.294,4.883c.3-1.7.526-4.988.828-6.689l3.618,3.429A5.092,5.092,0,0,0,277.111,216.379Z" transform="translate(-273.36 -212.318)"/></g><g transform="translate(133.877 28.513)" opacity="0.3"><path d="M308.758,223.988l2.479,22.4C312.317,239.1,314.3,235.142,308.758,223.988Z" transform="translate(-308.758 -223.988)"/></g><g transform="translate(175.72 45.822)" opacity="0.3"><path d="M376.126,261.264c-.932-.773-2.992-1.254-4.055-1.832-4.824-2.62-7.381-7.418-9.261-12.575l-.166-.578c.193,6.916,4.576,14.306,10.886,17.142a3.7,3.7,0,0,0,2.069.437,1.461,1.461,0,0,0,1.291-1.452A1.876,1.876,0,0,0,376.126,261.264Z" transform="translate(-362.644 -246.279)"/></g><g transform="translate(89.177 63.276)" opacity="0.3"><path d="M251.192,285.5c7.983-2.649,11.833-10.167,13.879-16.739a26.5,26.5,0,0,1-1.016,8.446,13.425,13.425,0,0,1-4.758,6.921,9.055,9.055,0,0,1-8.1,1.372" transform="translate(-251.192 -268.756)"/></g><g transform="translate(11.574 92.036)" opacity="0.3"><path d="M167.99,305.929a23.188,23.188,0,0,0-16.161,5.217c-.329.273-.684.666-.543,1.069a.744.744,0,0,0,.788.419,2.229,2.229,0,0,0,.881-.369,69.4,69.4,0,0,1,15.035-6.471" transform="translate(-151.254 -305.794)"/></g><g transform="translate(109.697 76.139)" opacity="0.3"><path d="M292.02,285.767a1.628,1.628,0,0,0-2.2-.04,4.739,4.739,0,0,0-1.27,2.045l-9.482,23.537-1.454,3.49,9.942-16.664c1.983-3.325,4-6.742,4.692-10.551A2.229,2.229,0,0,0,292.02,285.767Z" transform="translate(-277.618 -285.322)"/></g></g><g transform="translate(48.723)"><g transform="translate(5.094)"><path d="M210.719,111.188c5.883-8.206,15.626-13.01,25.557-14.831,4.178-.766,6.918-.211,11.082.632a17.977,17.977,0,0,1,10.661,6.113c3.163,3.931,5.894,8.386,6.763,13.357a84.493,84.493,0,0,1,1.728,15.431,28.324,28.324,0,0,1-3.9,14.848l-12.979,3.118c-7.233.711-14.567,1.417-21.734.214s-14.271-4.564-18.449-10.511C203.647,131.3,204.837,119.395,210.719,111.188Z" transform="translate(-205.654 -95.993)" fill="#263238"/></g><g transform="translate(58.55 46.1)"><path d="M274.5,167.649c-.024.033.234.311.828.638a6.446,6.446,0,0,0,2.762.741,7.027,7.027,0,0,0,4.119-1.112,7.014,7.014,0,0,0,1.93-9.5,7.026,7.026,0,0,0-3.359-2.63,6.441,6.441,0,0,0-2.832-.4,2.01,2.01,0,0,0-1.011.265,9.82,9.82,0,0,1,3.635.645,6.77,6.77,0,0,1,2.96,2.51,6.459,6.459,0,0,1-1.728,8.508,6.771,6.771,0,0,1-3.7,1.157A9.8,9.8,0,0,1,274.5,167.649Z" transform="translate(-274.497 -155.361)" fill="#e0e0e0"/></g><g transform="translate(0 43.615)"><path d="M199.107,161.095a9.816,9.816,0,0,1,3.971-7.67,7.069,7.069,0,0,1,8.331.189l2.219,2.326a8.491,8.491,0,0,1,5.419,8.232,9.3,9.3,0,0,1-5.952,8.007,10.3,10.3,0,0,1-9.935-1.739A11.546,11.546,0,0,1,199.107,161.095Z" transform="translate(-199.095 -152.162)" fill="#263238"/></g><g transform="translate(1.838 46.614)"><path d="M202.8,170.642a4.451,4.451,0,0,1-.874-2.566c0-1.687,1.082-3.966,2.628-6.092a17.781,17.781,0,0,1,4.99-4.553c1.485-.924,2.523-1.293,2.483-1.4a7.168,7.168,0,0,0-2.71,1,15.838,15.838,0,0,0-5.281,4.564,15.557,15.557,0,0,0-1.916,3.363,7.1,7.1,0,0,0-.649,3.129,3.706,3.706,0,0,0,.721,2.044C202.518,170.541,202.78,170.672,202.8,170.642Z" transform="translate(-201.462 -156.023)" fill="#455a64"/></g><g transform="translate(8.836 47.913)"><path d="M211.413,174.487c.214-.027-.933-3.938.032-8.705.894-4.783,3.423-7.979,3.235-8.083a7.076,7.076,0,0,0-1.61,2.059,18.315,18.315,0,0,0-2.377,12.217A7.1,7.1,0,0,0,211.413,174.487Z" transform="translate(-210.473 -157.696)" fill="#455a64"/></g><g transform="translate(12.725 4.728)"><g transform="translate(4.919)"><path d="M254.61,172.513c-.382-4.6-.732-8.365-.729-8.344,0,0,10.626-1.862,12.708-15.768,1.034-6.916.586-18.235-.08-27.485-.6-8.326-8.417-19.216-18.705-18.595l-4.6-.239-17.053,8.073a4.885,4.885,0,0,0-4.326,4.993l3.737,59.482,31.708,33.384,1.819-9.419Z" transform="translate(-221.817 -102.082)" fill="#ffbe9d"/></g><g transform="translate(28.905 41.705)"><path d="M252.711,158.509a2.926,2.926,0,0,1,.895-1.866,2.991,2.991,0,0,1,3.607-.437,4.005,4.005,0,0,1,1.758,3.655h0a3.64,3.64,0,0,1-2.5,1.674,4.442,4.442,0,0,1-.488.047,3.272,3.272,0,0,1-2.255-.731A2.915,2.915,0,0,1,252.711,158.509Z" transform="translate(-252.706 -155.791)" fill="#eb996e"/></g><g transform="translate(18.341 14.324)"><g transform="translate(24.049 12.356)"><path d="M273.626,138.035a1.782,1.782,0,0,1-1.7,1.812,1.7,1.7,0,0,1-1.85-1.59,1.783,1.783,0,0,1,1.7-1.813A1.706,1.706,0,0,1,273.626,138.035Z" transform="translate(-270.073 -136.441)" fill="#263238"/></g><g transform="translate(21.152 8.023)"><path d="M273.381,132.7c-.218.234-1.576-.752-3.493-.731-1.915,0-3.313.994-3.522.761-.1-.1.118-.524.726-.975a4.89,4.89,0,0,1,2.817-.9,4.7,4.7,0,0,1,2.783.871C273.285,132.18,273.489,132.6,273.381,132.7Z" transform="translate(-266.342 -130.861)" fill="#263238"/></g><g transform="translate(16.074 9.139)"><path d="M260.843,148.257a12.75,12.75,0,0,1,3.108-.589c.488-.055.951-.156,1.03-.491a2.485,2.485,0,0,0-.339-1.447l-1.481-3.713c-2.056-5.287-3.551-9.636-3.337-9.717s2.055,4.139,4.112,9.426q.742,1.956,1.419,3.736a2.834,2.834,0,0,1,.271,1.919,1.228,1.228,0,0,1-.8.722,3.337,3.337,0,0,1-.83.123A12.407,12.407,0,0,1,260.843,148.257Z" transform="translate(-259.803 -132.298)" fill="#263238"/></g><g transform="translate(0 42.969)"><path d="M257.743,180.659a35.321,35.321,0,0,1-18.641-4.794s5.04,9.581,18.927,8.157Z" transform="translate(-239.102 -175.865)" fill="#eb996e"/></g><g transform="translate(11.185 26.474)"><path d="M253.808,154.623c.311-.021.334,2.059,2.128,3.519s4.006,1.212,4.025,1.5c.03.13-.49.408-1.426.443a5.182,5.182,0,0,1-3.358-1.137A4.508,4.508,0,0,1,253.525,156C253.439,155.129,253.665,154.612,253.808,154.623Z" transform="translate(-253.506 -154.623)" fill="#263238"/></g><g transform="translate(20.761)"><path d="M272.367,122.484c-.333.438-1.657,0-3.245-.009-1.587-.063-2.929.318-3.242-.134-.138-.219.07-.658.654-1.075a4.7,4.7,0,0,1,5.227.115C272.326,121.824,272.514,122.271,272.367,122.484Z" transform="translate(-265.839 -120.529)" fill="#263238"/></g><g transform="translate(6.05 12.681)"><path d="M246.894,138.55a1.781,1.781,0,0,0,1.8,1.715,1.7,1.7,0,0,0,1.76-1.689,1.781,1.781,0,0,0-1.8-1.716A1.7,1.7,0,0,0,246.894,138.55Z" transform="translate(-246.894 -136.86)" fill="#263238"/></g><g transform="translate(3.048 9.256)"><path d="M243.06,134.485c.231.222,1.533-.838,3.448-.922,1.911-.111,3.362.808,3.559.565.1-.109-.148-.517-.779-.934a4.892,4.892,0,0,0-2.862-.739,4.7,4.7,0,0,0-2.731,1.024C243.126,133.958,242.946,134.386,243.06,134.485Z" transform="translate(-243.028 -132.448)" fill="#263238"/></g><g transform="translate(3.048 6.473)"><path d="M243.085,131.007c.357.419,1.655-.093,3.24-.189,1.581-.15,2.942.156,3.23-.313.126-.227-.106-.652-.712-1.037a4.7,4.7,0,0,0-5.213.4C243.09,130.345,242.927,130.8,243.085,131.007Z" transform="translate(-243.028 -128.864)" fill="#263238"/></g></g><g transform="translate(0 32.65)"><path d="M225.361,147.858c-.012-1.034-1.229-3.462-2.252-3.612-2.731-.4-7.644-.138-7.628,6.788.022,9.468,9.523,7.492,9.539,7.221C225.034,158.043,225.4,151.428,225.361,147.858Z" transform="translate(-215.482 -144.129)" fill="#ffbe9d"/><g transform="translate(1.588 2.976)"><path d="M221.763,155.448c-.042-.03-.165.116-.443.244a1.65,1.65,0,0,1-1.234.029c-1-.365-1.846-1.951-1.9-3.657a5.434,5.434,0,0,1,.456-2.363,1.9,1.9,0,0,1,1.238-1.269.841.841,0,0,1,.975.45c.127.265.068.454.118.47.026.024.2-.158.126-.55a1.052,1.052,0,0,0-.374-.592,1.249,1.249,0,0,0-.913-.239,2.32,2.32,0,0,0-1.719,1.472,5.6,5.6,0,0,0-.565,2.641c.065,1.907,1.046,3.69,2.416,4.083a1.768,1.768,0,0,0,1.508-.255C221.747,155.677,221.8,155.465,221.763,155.448Z" transform="translate(-217.528 -147.961)" fill="#eb996e"/></g></g></g><g transform="translate(12.675 3.241)"><path d="M221.617,134.261l2.555,2.332c9.715-10.565,28.353-36.656,27.318-35.106a30.18,30.18,0,0,0-14.885-.661c-7.611,1.8-21.959,6.586-21.155,15.646S221.617,134.261,221.617,134.261Z" transform="translate(-215.418 -100.167)" fill="#263238"/></g><g transform="translate(9.197 49.088)"><path d="M222.337,170.934c.028.029-.193.337-.739.738a6.455,6.455,0,0,1-2.646,1.086,7.035,7.035,0,0,1-4.227-.579A7.016,7.016,0,0,1,211.6,163a7.031,7.031,0,0,1,3-3.036,6.457,6.457,0,0,1,2.759-.752,2.008,2.008,0,0,1,1.036.134,9.824,9.824,0,0,0-3.523,1.1,6.77,6.77,0,0,0-2.617,2.866,6.46,6.46,0,0,0,2.8,8.22,6.772,6.772,0,0,0,3.822.676A9.821,9.821,0,0,0,222.337,170.934Z" transform="translate(-210.939 -159.21)" fill="#e0e0e0"/></g><g transform="translate(12.084 1.764)"><path d="M215.027,142.124a20.078,20.078,0,0,0-.047-2.2,33.076,33.076,0,0,1,.412-5.938,40.379,40.379,0,0,1,7.819-17.8,64.3,64.3,0,0,1,14.33-13.383c2.065-1.451,3.785-2.559,4.978-3.318a15.492,15.492,0,0,0,1.829-1.225,1.908,1.908,0,0,0-.523.231c-.331.173-.82.425-1.434.778-1.236.694-3,1.747-5.109,3.158A60.6,60.6,0,0,0,222.7,115.8a39.219,39.219,0,0,0-7.756,18.119,28.773,28.773,0,0,0-.211,6.016c.029.71.138,1.255.182,1.625A1.921,1.921,0,0,0,215.027,142.124Z" transform="translate(-214.657 -98.264)" fill="#455a64"/></g><g transform="translate(9.155 1.589)"><path d="M237.531,98.042a1.992,1.992,0,0,0-.539.216c-.346.158-.846.408-1.483.744-1.274.672-3.094,1.692-5.262,3.09a79.992,79.992,0,0,0-7.322,5.328,46.472,46.472,0,0,0-7.872,7.837,21.5,21.5,0,0,0-2.841,5.051A20,20,0,0,0,211,125.57a31.375,31.375,0,0,0,.6,9.056c.513,2.533,1.1,4.536,1.521,5.912.211.688.388,1.218.515,1.576a1.965,1.965,0,0,0,.224.536,16.343,16.343,0,0,0-.5-2.18c-.345-1.393-.863-3.408-1.315-5.928a32.269,32.269,0,0,1-.46-8.912,19.748,19.748,0,0,1,1.214-5.094,21.238,21.238,0,0,1,2.77-4.9,47.793,47.793,0,0,1,7.732-7.763,89.861,89.861,0,0,1,7.2-5.407c2.123-1.438,3.9-2.514,5.134-3.251A17.409,17.409,0,0,0,237.531,98.042Z" transform="translate(-210.885 -98.039)" fill="#455a64"/></g><g transform="translate(18.701 3.281)"><path d="M223.181,134.52a8.852,8.852,0,0,0,1.157-1.272l2.964-3.612c2.481-3.068,5.872-7.332,9.585-12.066s7.049-9.045,9.438-12.184l2.8-3.739a8.877,8.877,0,0,0,.96-1.426,8.7,8.7,0,0,0-1.155,1.269l-2.963,3.611c-2.48,3.067-5.873,7.334-9.589,12.072s-7.051,9.047-9.439,12.187l-2.8,3.738A8.673,8.673,0,0,0,223.181,134.52Z" transform="translate(-223.179 -100.218)" fill="#e0e0e0"/></g><g transform="translate(39.835 44.511)"><path d="M253.786,153.724a10.987,10.987,0,0,0-1.758.051,10.862,10.862,0,0,0-1.621.683c-.1-.05.444-.847,1.535-1.078A1.932,1.932,0,0,1,253.786,153.724Z" transform="translate(-250.395 -153.315)" fill="#eb996e"/></g><g transform="translate(29.843 32.746)"><path d="M241.052,138.436a5.012,5.012,0,0,1-3.525-.216,18.77,18.77,0,0,1,3.525.216Z" transform="translate(-237.527 -138.164)" fill="#eb996e"/></g><g transform="translate(30.479 33.593)"><path d="M240.8,139.331c.015.113-.533.276-1.2.485s-1.206.386-1.259.284.437-.452,1.138-.67S240.792,139.222,240.8,139.331Z" transform="translate(-238.346 -139.255)" fill="#eb996e"/></g><g transform="translate(59.762 31.895)"><path d="M278.217,137.112c.039.1-.413.367-1.009.585s-1.111.311-1.149.206.414-.367,1.009-.585S278.179,137.007,278.217,137.112Z" transform="translate(-276.057 -137.068)" fill="#eb996e"/></g><g transform="translate(59.693 33.035)"><path d="M278.057,139.3c-.036.106-.533.031-1.109-.167s-1.014-.444-.978-.551.533-.03,1.109.168S278.093,139.2,278.057,139.3Z" transform="translate(-275.968 -138.536)" fill="#eb996e"/></g></g></g></g></g></svg>