<svg xmlns="http://www.w3.org/2000/svg" xmlns:xlink="http://www.w3.org/1999/xlink" width="400" height="293" viewBox="0 0 400 293"><defs><clipPath id="a"><rect width="347.968" height="264.649" fill="none"/></clipPath><clipPath id="e"><rect width="31.662" height="46.942" fill="none"/></clipPath><clipPath id="f"><rect width="26.363" height="29.278" fill="none"/></clipPath><clipPath id="g"><rect width="17.864" height="15.704" fill="none"/></clipPath><clipPath id="h"><rect width="50.6" height="43.88" fill="none"/></clipPath><clipPath id="i"><rect width="8.129" height="10.021" fill="none"/></clipPath><clipPath id="j"><rect width="40.751" height="55.912" fill="none"/></clipPath><clipPath id="l"><rect width="24.532" height="12.871" fill="none"/></clipPath><clipPath id="m"><rect width="26.567" height="2.756" fill="none"/></clipPath></defs><g transform="translate(-810 -3817.748)"><g transform="translate(0 -225.979)"><path d="M242.944,317.089a43.83,43.83,0,0,1,10.878-4.9l2.241-11.15,18.191-.331,2.618,11.06a43.639,43.639,0,0,1,11.038,4.5l9.194-6.241,13.089,13.088-5.7,9.733a47.028,47.028,0,0,1,4.727,11.268l10.765,2.321.32,18.838-10.681,2.712a47.157,47.157,0,0,1-4.342,11.429l6.025,9.523-12.636,13.555-9.4-5.9a43.76,43.76,0,0,1-10.879,4.9l-2.241,11.15-18.19.33-2.619-11.062a43.711,43.711,0,0,1-11.037-4.5l-9.193,6.241-13.09-13.088,5.7-9.733A46.931,46.931,0,0,1,223,369.563l-10.767-2.32-.319-18.838,10.681-2.713a47.137,47.137,0,0,1,4.342-11.43l-6.025-9.521,12.636-13.555Zm9.7,25.1a20.723,20.723,0,0,0,.486,28.58,19.045,19.045,0,0,0,27.6-.5,20.727,20.727,0,0,0-.485-28.582,19.048,19.048,0,0,0-27.6.5" transform="translate(889.694 3923.757)" fill="#fcfffa"/><path d="M232.666,311.665a29.315,29.315,0,0,1,7.275-3.275l1.5-7.457,12.167-.221,1.751,7.4a29.187,29.187,0,0,1,7.382,3.008l6.149-4.174,8.754,8.753-3.811,6.509a31.452,31.452,0,0,1,3.161,7.536l7.2,1.552.214,12.6-7.144,1.814a31.539,31.539,0,0,1-2.9,7.644l4.03,6.369-8.451,9.066-6.286-3.947a29.267,29.267,0,0,1-7.276,3.274l-1.5,7.457-12.166.221-1.752-7.4a29.234,29.234,0,0,1-7.381-3.008l-6.148,4.174-8.755-8.753,3.811-6.51a31.388,31.388,0,0,1-3.161-7.535l-7.2-1.552-.213-12.6,7.144-1.814a31.526,31.526,0,0,1,2.9-7.644l-4.03-6.368,8.451-9.066Zm6.486,16.784a13.86,13.86,0,0,0,.325,19.115,12.738,12.738,0,0,0,18.457-.336,13.862,13.862,0,0,0-.324-19.116,12.739,12.739,0,0,0-18.457.337" transform="translate(598.089 3743.014)" fill="#fcfffa"/><g transform="translate(588 2300.335)"><rect width="400" height="283.783" transform="translate(222 1748)" fill="none"/><g transform="translate(248.016 1757.567)"><g clip-path="url(#a)"><g clip-path="url(#a)"><path d="M225.987,308.14a19.88,19.88,0,0,1,4.934-2.221l1.016-5.057,8.251-.15,1.187,5.017a19.794,19.794,0,0,1,5.007,2.04l4.17-2.831,5.937,5.936-2.585,4.415a21.329,21.329,0,0,1,2.144,5.111l4.883,1.053.145,8.545-4.845,1.23a21.39,21.39,0,0,1-1.969,5.184L257,340.73l-5.732,6.148L247,344.2a19.848,19.848,0,0,1-4.934,2.22l-1.016,5.057-8.251.15-1.188-5.017a19.826,19.826,0,0,1-5.006-2.04l-4.17,2.831-5.937-5.936,2.585-4.415a21.287,21.287,0,0,1-2.144-5.11l-4.884-1.052-.145-8.545,4.845-1.23a21.38,21.38,0,0,1,1.969-5.184l-2.733-4.319,5.732-6.148Zm4.4,11.383a9.4,9.4,0,0,0,.22,12.964,8.639,8.639,0,0,0,12.517-.228,9.4,9.4,0,0,0-.22-12.964,8.64,8.64,0,0,0-12.518.228" transform="translate(-87.707 -118.182)" fill="#529d2e"/><path d="M6.5.261,7.1.252l-2.013,131.1-.6.009Z" transform="translate(179.552 23.888) rotate(-59.77)" fill="#ebebeb"/><path d="M55.268,162.851l-.42-.424c.462-.49,46.449-49.284,65.9-71.29,14.09-15.943,55.1-60.159,55.508-60.6l.423.421c-.413.445-41.413,44.656-55.5,60.593-19.455,22.013-65.448,70.813-65.91,71.3" transform="translate(-22.701 -12)" fill="#ebebeb"/><path d="M26.35,257.559a4.921,4.921,0,0,0,2.826-4.543,4.7,4.7,0,0,0-4.428-4.933,4.692,4.692,0,0,0-4.466,4.891,4.914,4.914,0,0,0,2.833,4.586c-6.843,1.068-6.533,8.771-6.533,8.771l16.184.077s.369-7.787-6.415-8.848" transform="translate(-6.862 -97.499)" fill="#529d2e"/><path d="M17.813,270.645C7.99,270.645,0,262.37,0,252.2s7.99-18.447,17.813-18.447,17.813,8.275,17.813,18.447-7.991,18.447-17.813,18.447m0-36.368c-9.543,0-17.3,8.04-17.3,17.921s7.762,17.921,17.3,17.921,17.3-8.04,17.3-17.921-7.762-17.921-17.3-17.921" transform="translate(0 -91.866)" fill="#ffeee0"/><path d="M525.724,148.27a4.8,4.8,0,0,0,2.754-4.43,4.357,4.357,0,1,0-8.672-.041,4.791,4.791,0,0,0,2.763,4.471c-6.673,1.041-6.369,8.552-6.369,8.552l15.779.075s.36-7.593-6.255-8.627" transform="translate(-213.647 -54.64)" fill="#529d2e"/><path d="M519.285,160.924c-11.054,1.214-20.326-8.387-19.155-19.835a17.72,17.72,0,0,1,15.381-15.93c11.053-1.213,20.325,8.388,19.154,19.835a17.718,17.718,0,0,1-15.381,15.93m-.056-35.256c-10.738-1.178-19.745,8.151-18.607,19.272a17.213,17.213,0,0,0,14.944,15.475c10.739,1.178,19.746-8.151,18.607-19.271a17.213,17.213,0,0,0-14.944-15.475" transform="translate(-206.956 -49.148)" fill="#ebebeb"/><path d="M286.207,21.827a4.511,4.511,0,0,0,2.591-4.165,4.1,4.1,0,1,0-8.154-.039,4.505,4.505,0,0,0,2.6,4.2c-6.274.979-5.99,8.041-5.99,8.041l14.837.071s.339-7.139-5.881-8.112" transform="translate(-114.75 -5.164)" fill="#ebebeb"/><path d="M280.155,33.725c-10.393,1.142-19.111-7.887-18.01-18.65A16.66,16.66,0,0,1,276.607.1c10.392-1.141,19.111,7.887,18.01,18.65a16.66,16.66,0,0,1-14.462,14.979M280.1.576c-10.1-1.108-18.566,7.664-17.5,18.121a16.185,16.185,0,0,0,14.052,14.55c10.1,1.108,18.566-7.664,17.495-18.12A16.185,16.185,0,0,0,280.1.576" transform="translate(-108.459 0)" fill="#ebebeb"/><path d="M125.047,362.23a4.2,4.2,0,0,0,2.411-3.876,3.813,3.813,0,1,0-7.589-.036,4.193,4.193,0,0,0,2.418,3.913c-5.839.911-5.575,7.484-5.575,7.484l13.808.065s.315-6.644-5.474-7.549" transform="translate(-48.305 -139.182)" fill="#529d2e"/><path d="M117.762,373.4c-8.38,0-15.2-7.061-15.2-15.74s6.818-15.739,15.2-15.739,15.2,7.061,15.2,15.739-6.818,15.74-15.2,15.74m0-31.031a15.3,15.3,0,1,0,14.765,15.291,15.052,15.052,0,0,0-14.765-15.291" transform="translate(-42.45 -134.376)" fill="#ffeee0"/><path d="M3,.154l.6-.01L2.685,52.632l-.6.01Z" transform="matrix(0.669, -0.744, 0.744, 0.669, 24.82, 178.396)" fill="#ffeee0"/></g><rect width="82.956" height="60.322" transform="translate(0.672 47.555)" fill="#fafafa"/><g clip-path="url(#a)"><path d="M84,138.565s-.009-.379-.013-1.1-.008-1.8-.014-3.192c-.007-2.8-.018-6.905-.031-12.156-.016-10.493-.037-25.557-.064-43.872l.123.127L1.046,78.4H1.04l.152-.158c0,21.574-.009,42.055-.013,60.322l-.139-.144,59.809.071,17.047.039,4.53.017,1.169.008c.263,0,.4.009.4.009s-.127.005-.385.008l-1.153.008-4.5.017-17.015.039-59.9.071H.9v-.144C.9,120.3.892,99.817.887,78.243v-.158h.159L84,78.115h.124v.127c-.027,18.348-.049,33.44-.064,43.952-.013,5.238-.024,9.334-.032,12.127-.006,1.386-.011,2.447-.013,3.169S84,138.565,84,138.565" transform="translate(-0.367 -30.688)" fill="#263238"/><path d="M84.231,98.308c0,.087-18.6.158-41.54.158S1.147,98.4,1.147,98.308s18.6-.158,41.544-.158,41.54.07,41.54.158" transform="translate(-0.475 -38.574)" fill="#263238"/><path d="M11.789,85.357a17.155,17.155,0,0,1-2.244,2.351,16.981,16.981,0,0,1-2.451,2.118,17.136,17.136,0,0,1,2.244-2.351,16.946,16.946,0,0,1,2.451-2.118" transform="translate(-2.935 -33.545)" fill="#263238"/><path d="M11.733,89.9a17.083,17.083,0,0,1-2.27-2.324,17.343,17.343,0,0,1-2.046-2.538,17.091,17.091,0,0,1,2.271,2.324A17.329,17.329,0,0,1,11.733,89.9" transform="translate(-3.069 -33.418)" fill="#263238"/><path d="M25.85,89.758c-.02-.021-.039-.507-.065-1.327s-.054-1.97-.067-3.338l.132.137-4.5.021.152-.157h0v.633q0,.315,0,.623,0,.617,0,1.206c-.005.779-.011,1.516-.015,2.2l-.132-.137c1.322.013,2.431.044,3.224.07a12.61,12.61,0,0,1,1.281.067,9.1,9.1,0,0,1-1.2.067c-.784.025-1.928.056-3.308.07h-.131v-.138c0-.685-.01-1.422-.015-2.2q0-.588,0-1.206c0-.206,0-.413,0-.623v-.633h0l.153-.159,4.5.022h.133v.136c-.013,1.429-.043,2.614-.067,3.426a10.1,10.1,0,0,1-.064,1.239" transform="translate(-8.757 -33.379)" fill="#263238"/><path d="M40.086,92.1a9.364,9.364,0,0,1-2.417.158,9.363,9.363,0,0,1-2.418-.158,9.383,9.383,0,0,1,2.418-.158,9.384,9.384,0,0,1,2.417.158" transform="translate(-14.59 -36.134)" fill="#263238"/><path d="M68.186,123.163a11.615,11.615,0,0,0-23.1-2.137,12.372,12.372,0,0,0,1.426,8.227h-.006l.033.046c.446.779,1.005,1.336,1.57,2.154l6.758,9.271a2.058,2.058,0,0,0,3.355,0l6.645-9.118a25.946,25.946,0,0,0,1.691-2.319l.024-.033h0a12.308,12.308,0,0,0,1.607-6.09m-11.64,5.249a5.308,5.308,0,1,1,5.123-5.305,5.216,5.216,0,0,1-5.123,5.305" transform="translate(-18.586 -43.667)" fill="#e0e0e0"/><rect width="106.487" height="77.433" transform="translate(241.317 131.284)" fill="#fafafa"/><path d="M518.1,293.618s-.009-.484-.013-1.41-.008-2.3-.014-4.095c-.007-3.59-.018-8.859-.031-15.6-.016-13.469-.037-32.812-.064-56.329l.123.128-106.479.03h-.009l.153-.158c-.005,27.694-.01,53.985-.014,77.433l-.139-.144,76.788.071,21.877.039,5.811.017,1.5.009c.337,0,.513.009.513.009s-.165.005-.5.008l-1.483.008-5.783.017-21.846.039-76.879.071h-.139v-.144c0-23.448-.009-49.739-.014-77.433v-.158h.161l106.479.03h.124v.127c-.027,23.55-.049,42.92-.065,56.408-.013,6.728-.024,11.987-.031,15.57-.007,1.782-.011,3.147-.014,4.071s-.013,1.383-.013,1.383" transform="translate(-170.3 -84.901)" fill="#263238"/><path d="M518.375,241.941c0,.087-23.877.158-53.323.158s-53.329-.07-53.329-.158,23.872-.158,53.329-.158,53.323.07,53.323.158" transform="translate(-170.407 -95.023)" fill="#263238"/><path d="M425.386,225.287a28.12,28.12,0,0,1-2.909,2.985,27.8,27.8,0,0,1-3.117,2.752,55.794,55.794,0,0,1,6.026-5.737" transform="translate(-173.567 -88.539)" fill="#263238"/><path d="M425.314,231.114a56.3,56.3,0,0,1-5.539-6.241,56.294,56.294,0,0,1,5.539,6.241" transform="translate(-173.738 -88.376)" fill="#263238"/><path d="M443.472,230.966a3.117,3.117,0,0,1-.031-.459c-.009-.333-.021-.741-.035-1.232-.024-1.052-.054-2.532-.067-4.3l.132.137-5.782.021c-.034.034.288-.3.152-.157v.814q0,.4,0,.8,0,.791,0,1.548c-.005,1-.011,1.95-.015,2.825l-.132-.137c1.7.013,3.133.044,4.15.069l1.19.036a2.931,2.931,0,0,1,.443.032,1.7,1.7,0,0,1-.389.031l-1.16.036c-1.008.026-2.47.056-4.234.07h-.131v-.138c0-.875-.009-1.823-.015-2.825q0-.756,0-1.548,0-.4,0-.8v-.814c-.136.141.186-.194.154-.159l5.782.021h.133v.137c-.013,1.826-.043,3.341-.067,4.385-.013.479-.025.877-.034,1.2a1.906,1.906,0,0,1-.03.4" transform="translate(-181.077 -88.355)" fill="#263238"/><path d="M461.708,233.97a30.59,30.59,0,0,1-6.206,0,30.59,30.59,0,0,1,6.206,0" transform="translate(-188.526 -91.89)" fill="#263238"/><rect width="38.074" height="39.431" transform="translate(297.362 155.976)" fill="#e0e0e0"/></g><rect width="220.367" height="175.457" transform="translate(61.989 16.234)" fill="#fff"/><g clip-path="url(#a)"><path d="M326.022,202.1c0-1.082-.05-69.443-.126-175.456l.126.13L105.674,26.8h-.019l.153-.158c-.006,63.188-.011,122.981-.015,175.456l-.138-.142,220.367.142-220.367.142h-.137V202.1c0-52.475-.01-112.268-.015-175.456v-.158h.171l220.348.028h.126v.131c-.076,106.013-.125,174.375-.126,175.456" transform="translate(-43.666 -10.409)" fill="#263238"/><path d="M286.112,215.575s.188-.273.569-.792l.321-.436c.108-.168.205-.367.323-.575a9.123,9.123,0,0,0,.723-1.5c.113-.295.247-.6.36-.935l.288-1.08a7.93,7.93,0,0,0,.24-1.2,13.251,13.251,0,0,0,.178-1.324,25.958,25.958,0,0,0-.282-6.387,58.8,58.8,0,0,0-5.664-16.517A129.592,129.592,0,0,0,271,165.242a198.382,198.382,0,0,0-18.135-21.1,224.113,224.113,0,0,0-23.81-21.047c-4.444-3.383-9.133-6.664-14.075-9.755a134.365,134.365,0,0,0-15.634-8.489,71.25,71.25,0,0,0-17.4-5.647,29.707,29.707,0,0,0-9.276-.236,16.914,16.914,0,0,0-4.481,1.344,12.7,12.7,0,0,0-3.761,2.848,13.272,13.272,0,0,0-2.312,4.191,18.59,18.59,0,0,0-.782,4.765,32.8,32.8,0,0,0,1.278,9.52,76.987,76.987,0,0,0,7.4,17.261,141.107,141.107,0,0,0,9.925,15.123c3.528,4.735,7.21,9.185,10.962,13.374a225.057,225.057,0,0,0,22.9,22.1,193.681,193.681,0,0,0,22.3,16.26,122.83,122.83,0,0,0,20.175,10.284,53.857,53.857,0,0,0,16.489,3.946,23.369,23.369,0,0,0,6.158-.436,12.175,12.175,0,0,0,1.251-.333,7.188,7.188,0,0,0,1.126-.384l1-.419c.307-.155.586-.328.857-.478a8.639,8.639,0,0,0,1.353-.914c.186-.145.366-.267.515-.4l.382-.379c.454-.45.694-.675.694-.675s-.222.242-.669.7l-.377.387c-.147.134-.326.259-.511.407a8.53,8.53,0,0,1-1.35.934c-.27.153-.55.33-.858.489l-1.005.43a7.24,7.24,0,0,1-1.131.4,12.244,12.244,0,0,1-1.255.344,23.374,23.374,0,0,1-6.188.473c-4.685-.168-10.326-1.524-16.554-3.9a122.433,122.433,0,0,1-20.237-10.253,193.065,193.065,0,0,1-22.363-16.246,224.706,224.706,0,0,1-22.96-22.112c-3.76-4.193-7.452-8.648-10.991-13.391a141.161,141.161,0,0,1-9.958-15.157,77.3,77.3,0,0,1-7.437-17.347,33.208,33.208,0,0,1-1.293-9.635,18.985,18.985,0,0,1,.8-4.872,13.66,13.66,0,0,1,2.386-4.323,13.057,13.057,0,0,1,3.879-2.939,17.271,17.271,0,0,1,4.582-1.375,30.045,30.045,0,0,1,9.387.238,71.526,71.526,0,0,1,17.483,5.68,134.5,134.5,0,0,1,15.67,8.519c4.951,3.1,9.645,6.392,14.094,9.783a223.667,223.667,0,0,1,23.823,21.105,197.717,197.717,0,0,1,18.129,21.159,129.216,129.216,0,0,1,12.14,19.655,58.67,58.67,0,0,1,5.621,16.59,25.888,25.888,0,0,1,.25,6.421,13.166,13.166,0,0,1-.187,1.331,7.921,7.921,0,0,1-.25,1.209l-.3,1.084c-.117.335-.255.643-.372.938a8.976,8.976,0,0,1-.743,1.5c-.121.208-.221.405-.332.572l-.329.432c-.392.513-.6.768-.6.768" transform="translate(-66.619 -38.642)" fill="#e0e0e0"/><path d="M297.484,178.742s-.035-.333-.084-.983q-.018-.245-.042-.546c-.027-.2-.083-.415-.128-.651a9.182,9.182,0,0,0-.423-1.615c-.106-.3-.2-.62-.332-.948L296,173a7.675,7.675,0,0,0-.594-1.063,12.79,12.79,0,0,0-.719-1.111,24.652,24.652,0,0,0-4.316-4.571,54.932,54.932,0,0,0-14.843-8.422,121.238,121.238,0,0,0-21.667-6.233,187.15,187.15,0,0,0-27.095-3.242,214.236,214.236,0,0,0-31.3.707c-5.491.54-11.1,1.323-16.774,2.424a132.059,132.059,0,0,0-17.123,4.443,71.834,71.834,0,0,0-16.61,7.777,31.072,31.072,0,0,0-7.074,6.218,18.1,18.1,0,0,0-2.48,4.092,11.942,11.942,0,0,0-.007,9.44,18.1,18.1,0,0,0,2.479,4.095,30.971,30.971,0,0,0,7.073,6.223,71.79,71.79,0,0,0,16.614,7.782A132.023,132.023,0,0,0,178.688,206c5.676,1.1,11.285,1.884,16.777,2.424a214.28,214.28,0,0,0,31.3.707,187.259,187.259,0,0,0,27.1-3.242,121.224,121.224,0,0,0,21.666-6.233,54.938,54.938,0,0,0,14.841-8.422,24.677,24.677,0,0,0,4.315-4.571,12.864,12.864,0,0,0,.719-1.111,7.672,7.672,0,0,0,.594-1.063l.479-1c.129-.328.226-.65.332-.947a9.177,9.177,0,0,0,.423-1.615c.046-.236.1-.452.128-.651s.029-.383.042-.546c.049-.649.084-.983.084-.983s-.01.333-.047.986q-.014.246-.032.549c-.024.2-.077.418-.12.656a9.042,9.042,0,0,1-.407,1.629c-.1.3-.2.625-.325.956l-.475,1.014a7.694,7.694,0,0,1-.589,1.074,12.933,12.933,0,0,1-.716,1.123,24.668,24.668,0,0,1-4.313,4.619,54.812,54.812,0,0,1-14.857,8.505,120.847,120.847,0,0,1-21.692,6.3,186.638,186.638,0,0,1-27.13,3.293,213.8,213.8,0,0,1-31.347-.673c-5.5-.536-11.121-1.317-16.81-2.416a132.2,132.2,0,0,1-17.173-4.447,72.092,72.092,0,0,1-16.7-7.818,31.338,31.338,0,0,1-7.158-6.3,18.479,18.479,0,0,1-2.533-4.188,12.335,12.335,0,0,1,.007-9.738,18.478,18.478,0,0,1,2.535-4.185,31.406,31.406,0,0,1,7.159-6.293,72.118,72.118,0,0,1,16.7-7.814,132.191,132.191,0,0,1,17.17-4.446c5.688-1.1,11.306-1.879,16.807-2.415a213.758,213.758,0,0,1,31.343-.673,186.646,186.646,0,0,1,27.129,3.292,120.806,120.806,0,0,1,21.693,6.3,54.807,54.807,0,0,1,14.858,8.505,24.655,24.655,0,0,1,4.314,4.619,12.693,12.693,0,0,1,.716,1.122,7.734,7.734,0,0,1,.59,1.074q.248.532.474,1.014c.128.331.223.656.326.957a9.069,9.069,0,0,1,.407,1.629c.043.238.1.455.12.656s.023.385.032.549c.037.653.047.986.047.986" transform="translate(-55.486 -58.068)" fill="#e0e0e0"/><path d="M287.543,81.691s-.276-.176-.8-.533l-.442-.3c-.169-.1-.367-.187-.576-.294a8.452,8.452,0,0,0-1.492-.643c-.292-.1-.6-.214-.926-.309l-1.06-.222a7.079,7.079,0,0,0-1.175-.166,11.875,11.875,0,0,0-1.288-.092,23.4,23.4,0,0,0-6.133.731c-4.552,1.065-9.837,3.473-15.521,6.989A124.944,124.944,0,0,0,240.1,100.766a197.415,197.415,0,0,0-19.074,20.191,229.364,229.364,0,0,0-18.635,26.049c-2.952,4.826-5.791,9.9-8.427,15.214a143.319,143.319,0,0,0-7.1,16.737,77.89,77.89,0,0,0-4.241,18.361,32.951,32.951,0,0,0,.411,9.6,18.413,18.413,0,0,0,1.6,4.537,13,13,0,0,0,3,3.689,12.506,12.506,0,0,0,4.2,2.1,16.8,16.8,0,0,0,4.644.48,29.78,29.78,0,0,0,9.083-1.976,72.186,72.186,0,0,0,16.118-8.831,136.644,136.644,0,0,0,13.884-11.3c4.318-3.971,8.352-8.082,12.129-12.246a228.424,228.424,0,0,0,19.716-25.186,201.971,201.971,0,0,0,14.126-24.164,131.582,131.582,0,0,0,8.517-21.553,59.276,59.276,0,0,0,2.666-17.307,25.865,25.865,0,0,0-.844-6.332,13.045,13.045,0,0,0-.407-1.269,7.75,7.75,0,0,0-.447-1.137l-.472-1.007c-.171-.307-.357-.583-.519-.852a9,9,0,0,0-.974-1.335c-.152-.182-.283-.359-.419-.5l-.391-.368c-.465-.438-.7-.671-.7-.671s.249.212.724.643l.4.363c.138.143.272.319.427.5a8.816,8.816,0,0,1,.993,1.331c.166.268.355.545.53.852l.483,1.009a7.809,7.809,0,0,1,.459,1.141,13.321,13.321,0,0,1,.418,1.273,25.852,25.852,0,0,1,.883,6.36,59.177,59.177,0,0,1-2.612,17.371,131.259,131.259,0,0,1-8.483,21.614,201.407,201.407,0,0,1-14.108,24.223,227.986,227.986,0,0,1-19.719,25.244c-3.78,4.175-7.818,8.3-12.142,12.278a136.805,136.805,0,0,1-13.915,11.332,72.478,72.478,0,0,1-16.2,8.879,30.109,30.109,0,0,1-9.193,2,17.165,17.165,0,0,1-4.748-.492,12.872,12.872,0,0,1-4.328-2.168,13.368,13.368,0,0,1-3.1-3.8,18.8,18.8,0,0,1-1.64-4.639,33.316,33.316,0,0,1-.417-9.715,78.194,78.194,0,0,1,4.266-18.453,143.5,143.5,0,0,1,7.128-16.777c2.646-5.329,5.492-10.405,8.454-15.235a228.9,228.9,0,0,1,18.689-26.067,196.694,196.694,0,0,1,19.134-20.188,124.528,124.528,0,0,1,18.1-13.9c5.707-3.506,11.016-5.9,15.594-6.951a23.362,23.362,0,0,1,6.168-.7,11.958,11.958,0,0,1,1.3.1,7.216,7.216,0,0,1,1.182.175l1.064.233c.33.1.636.22.93.319a8.4,8.4,0,0,1,1.492.664c.208.11.406.2.574.3l.438.31c.522.369.782.566.782.566" transform="translate(-75.365 -31.049)" fill="#e0e0e0"/><path d="M129.2,255.684a3.219,3.219,0,0,1,0,4.44,2.959,2.959,0,0,1-4.287,0,3.219,3.219,0,0,1,0-4.44,2.958,2.958,0,0,1,4.287,0" transform="translate(-51.334 -100.124)" fill="#e0e0e0"/><path d="M420.374,93.987a3.033,3.033,0,1,1-3.031-3.139,3.087,3.087,0,0,1,3.031,3.139" transform="translate(-171.478 -35.704)" fill="#e0e0e0"/><path d="M164.429,272.769a.771.771,0,1,1-.77-.8.784.784,0,0,1,.77.8" transform="translate(-67.417 -106.887)" fill="#e0e0e0"/><path d="M192.482,127.847a.771.771,0,1,1-.771-.8.785.785,0,0,1,.771.8" transform="translate(-79.028 -49.931)" fill="#e0e0e0"/><path d="M397.587,198.29a.771.771,0,1,1-.77-.8.785.785,0,0,1,.77.8" transform="translate(-163.918 -77.616)" fill="#e0e0e0"/><path d="M415.853,137.015a.771.771,0,1,1-.77-.8.785.785,0,0,1,.77.8" transform="translate(-171.478 -53.534)" fill="#e0e0e0"/><path d="M294.221,150.176c0,27.816-21.627,50.365-48.306,50.365s-48.305-22.549-48.305-50.365,21.627-50.365,48.305-50.365,48.306,22.549,48.306,50.365" transform="translate(-81.788 -39.227)" fill="#fed5b1"/><g transform="translate(115.822 107.141)" opacity="0.3"><g clip-path="url(#e)"><path d="M228.026,202.77c.252-2.193,1.9-4.417.955-6.395-1.063-2.208-4.157-1.853-6.335-2.841-3.042-1.385-3.982-5.295-5.969-8.057-1.781-2.47-5.938-5.184-9.1-4.44a3.946,3.946,0,0,0-3.317,3.7l-.291-.047c-.848-.1-1.842-.143-2.308-.871-.543-.846-.008-2.105-.566-2.936a4.473,4.473,0,0,0-1.208-.934c-.413-.3-.764-.871-.512-1.33.206-.388.741-.467,1.009-.823a.831.831,0,0,0-.015-.989c-.871-1.068-1.842,1.108-2.323,1.622a4.232,4.232,0,0,1-.39.38v.008c-.008.095-.015.182-.015.277-.012.3-.011.6-.015.9s-.015.6-.015.9c0,.245.008.488.012.732s0,.491.011.732a8.083,8.083,0,0,1,1.491.76c.94.562,1.987,1.306,2.048,2.43a.955.955,0,0,0,.1.53.726.726,0,0,0,.451.237,12.872,12.872,0,0,0,2.453.356c.015,1.005.084,2.058.069,3.055-.023,1.448-.482,2.881-.329,4.313.222,2.026,1.582,3.688,2.766,5.318,4.509,6.237,6.939,13.39,9.575,20.718.489.4,1.187.941,1.691,1.314.4.3.764.555,1.169.84s.771.525,1.187.794c.291.19.354.243.652.426-.038-.087.034.062,0-.025-1.062-2.414-1.065-5.76,1.22-6.955a5.145,5.145,0,0,0,1.292-.7c1.016-1,.183-3.055,1.2-4.052.573-.554,1.468-.514,2.178-.847,1.276-.609,1.689-2.3,1.59-3.76a23.764,23.764,0,0,1-.405-4.337" transform="translate(-197.61 -176.511)"/></g></g><g transform="translate(116.428 74.983)" opacity="0.3"><g clip-path="url(#f)"><path d="M201.038,145.085a2.181,2.181,0,0,1,3.156.1,3.56,3.56,0,0,1,.253,2.557c-.176,1.171-.352,2.343-.535,3.514a1.888,1.888,0,0,0,.046,1.053c.336.744,1.513.6,1.964-.064a3.346,3.346,0,0,0,.283-2.382,4.674,4.674,0,0,1,.023-2.43c.764-1.883,3.477-1.6,5.051-2.826a8.893,8.893,0,0,0,1.995-3.15c.581-1.116,1.552-2.232,2.775-2.176.413.016.818.174,1.23.158a1.718,1.718,0,0,0,1.054-2.754,3.1,3.1,0,0,1-.535-.57,1.058,1.058,0,0,1,.383-1.242,2.783,2.783,0,0,1,1.284-.427c1.032-.174,2.064-.341,3.1-.507,1.139-.182,2.6-.792,2.438-1.97-.137-1.022-1.475-1.48-1.673-2.494a3.479,3.479,0,0,0-.13-.744c-.313-.649-1.253-.388-1.857-.04a1.474,1.474,0,0,0-2.27-.751,4.2,4.2,0,0,0-.9,2.224c-.5,1.9-1.965,3.34-3.355,4.677a2.773,2.773,0,0,1-1.628.949c-.634.032-1.3-.673-1.009-1.25.2-.4.749-.625.7-1.068-.076-.554-1.009-.515-1.192-1.045.367-1.567,2.1-2.216,3.432-3.055a8.549,8.549,0,0,0,3.508-4.464,1.17,1.17,0,0,0,.046-.918c-.2-.4-.711-.459-1.146-.459-1.024-.016-2.3.127-2.675,1.116a12.178,12.178,0,0,0-.175,1.686c-.359,1.646-2.537,1.828-3.867,2.81a12.194,12.194,0,0,1-1.5,1.2,5.462,5.462,0,0,1-2.033.34c-.123.008-.434,0-.557.013-.42.605-.751,1.157-1.141,1.784s-.783,1.329-1.145,1.973a50.465,50.465,0,0,0-4.105,9.708c-.374,1.184-.7,2.46-.983,3.68s-.49,2.379-.689,3.634a14.5,14.5,0,0,0,.871-3.15,5.858,5.858,0,0,1,1.521-3.245" transform="translate(-198.645 -123.532)"/></g></g><g transform="translate(146.788 64.13)" opacity="0.3"><g clip-path="url(#g)"><path d="M263.068,115.429c.457-.62.323-1.512.619-2.229.492-1.191,2.02-1.617,2.55-2.79.2-.452.254-1,.61-1.338.3-.28.736-.336,1.054-.589a1.557,1.557,0,0,0-.339-2.35c-1.894-1.253-5.38.2-7.017,1.422-2.1,1.576-4.163,3.474-6.962,3.29a5.319,5.319,0,0,0-2.3.013c-.723.283-1.169,1.406-.546,1.881.346.264.837.191,1.228.378.721.347.794,1.428.441,2.166s-.987,1.291-1.4,1.993a3.882,3.882,0,0,0-.52,2.291,2.122,2.122,0,0,0,.655,1.472c.872.72,2.2.1,2.934-.762s1.247-1.983,2.2-2.575a5.375,5.375,0,0,1,1.569-.566l3.65-.9a2.611,2.611,0,0,0,1.571-.808" transform="translate(-250.444 -105.652)"/></g></g><g transform="translate(161.838 71.572)" opacity="0.3"><g clip-path="url(#h)"><path d="M326.705,156.908q-.006-1.081-.062-2.145c-.037-.71-.064-1.431-.132-2.135-.053-.57-.1-1.139-.178-1.7-.074-.594-.151-1.276-.246-1.864a46.967,46.967,0,0,0-1.063-5.029c-.18-.653-.486-1.349-.689-1.992s-.419-1.28-.648-1.913v-.008h0c-.244-.475-.5-.941-.787-1.4-2.683-4.4-6.58-7.851-9.53-12.062-.963-1.369-1.712-2.5-3.416-2.77-2.522-.4-3.8,1.085-5.587-1.393-.481-.665-1.322-1.282-2.033-.886.183.531.374,1.06.557,1.6a.774.774,0,0,1,.062.348c-.038.372-.573.475-.879.269a3.232,3.232,0,0,1-.672-.894,2.418,2.418,0,0,0-3.63-.309,1.44,1.44,0,0,0-.8-1.171,1.658,1.658,0,0,1-2.078,1.385c-.145-.483.688-.57.978-.982.267-.387-.053-.926-.4-1.25a5.2,5.2,0,0,0-3.324-1.337,4.415,4.415,0,0,1-2.278-.277c-.39-.237-.665-.633-1.062-.863-.849-.5-1.911-.039-2.767.451a5.5,5.5,0,0,0-2.79,2.841c-.42,1.314.5,3.094,1.835,2.929a2.494,2.494,0,0,1,1.016-.119c.474.135.688.7.726,1.211a3.686,3.686,0,0,0,.222,1.48c.229.443.924.665,1.192.245a2.825,2.825,0,0,0,.39-2.532,3.486,3.486,0,0,1,.176-2.588c.512-.72,1.964-.49,1.864.4-.061.523-.634.9-.611,1.432s.658.823,1.177.8a5.407,5.407,0,0,1,1.551-.079c.512.126.917.815.55,1.2-.634.744-2.285-.531-2.614.4a2.8,2.8,0,0,0-.023.759c-.061.776-1,1.061-1.75,1.156a3.988,3.988,0,0,1-2.224-.166,1.483,1.483,0,0,1-.757-1.923.839.839,0,0,0-1.169.443,2.623,2.623,0,0,0-.084,1.44c-.795-.182-1.506.515-1.956,1.2s-.894,1.5-1.666,1.749-1.85-.087-2.255.641c-.527.949,1,2.152.466,3.094-.305.531-1.039.515-1.62.681-1.536.451-2.071,2.778-1.024,4.02a2.932,2.932,0,0,0,4.249-.016,14.216,14.216,0,0,0,1.644-2.944c.558-.974,1.612-1.86,2.667-1.544a3.215,3.215,0,0,1,1.093.712c.512.444,1.024.887,1.536,1.338a1.448,1.448,0,0,1,.657,1.084c-.03.356-.3.633-.413.966-.321.958,1.016,1.868,1.857,1.346a1.956,1.956,0,0,0,.359-2.683c-.795-1.14-2.591-1.71-2.545-3.119.917-.775,2.361.039,2.9,1.14s.55,2.39,1,3.522,1.712,2.145,2.766,1.591c-.275-.982-.542-1.955-.818-2.929.673-.522,1.445,1,2.247.744.489-.158.55-.886.336-1.377a7,7,0,0,1-.68-1.432,1.6,1.6,0,0,1,1.826-1.67,2.445,2.445,0,0,1,1.788,2.042,4.666,4.666,0,0,0,.245,1.132c.351.76,1.261.989,2.01,1.306s1.536,1.1,1.223,1.876c-.145.34-.489.665-.367,1.013.115.308.558.443.558.775-.008.222-.229.372-.428.459-.5.214-1.054.285-1.544.53a1.441,1.441,0,0,0-.894,1.283c.061.791.97,1.171,1.4,1.828a9.964,9.964,0,0,1,.611,2.168,7.8,7.8,0,0,0,1.154,1.734c1.268,1.788,1.567,4.092,2.186,6.213.275.958.78,2.026,1.727,2.208a2.815,2.815,0,0,0,1.528-.308,9.162,9.162,0,0,0,3.745-2.311,3.352,3.352,0,0,0,.3-4.163.773.773,0,0,0-.466-.309,1.374,1.374,0,0,0-.719.262,2,2,0,0,1-2.132-.475A6.235,6.235,0,0,1,308,149.31c-.375-.784-.749-1.575-1.131-2.367a1.3,1.3,0,0,1,1.635.158,9.093,9.093,0,0,1,1.116,1.425,7.019,7.019,0,0,0,4.822,2.342,4.451,4.451,0,0,1,1.36.293c1.353.641,1.743,2.707,3.172,3.15a8.813,8.813,0,0,1,1.215.285,2.319,2.319,0,0,1,1.016,1.567,25.763,25.763,0,0,0,.894,3.5,3.145,3.145,0,0,0,2.584,2.129,2.638,2.638,0,0,0,1.911-.864c.061-1.092.129-2.222.129-3.331,0-.229,0-.459-.015-.688" transform="translate(-276.121 -117.912)"/></g></g><g transform="translate(187.9 131.284)" opacity="0.3"><g clip-path="url(#i)"><path d="M325.564,216.33c-.72.147-.863.585-1.254,1.137-.509.718-1.238,1.437-1.7,2.146-.785,1.2-.078,3.077-1.111,4.088a8.424,8.424,0,0,0-.672.568,1.292,1.292,0,0,0,.247,1.746,1.608,1.608,0,0,0,1.8.034,2.723,2.723,0,0,0,1.1-1.56,2.673,2.673,0,0,1,.559-1.279c.592-.536,1.51-.138,2.289-.251,3.312-.48,1.889-7.271-1.259-6.63" transform="translate(-320.587 -216.287)"/></g></g><g transform="translate(155.028 93.996)" opacity="0.3"><g clip-path="url(#j)"><path d="M303.472,182.743c1.905-1.708,2.675-5.568.308-6.46-.9-.337-1.93-.066-2.818-.422-1.16-.466-1.7-1.814-2.121-3.026q-1.649-4.776-3.3-9.552c-.663-1.918-1.669-4.141-3.616-4.423-1.1-.16-2.175.385-3.271.592-3.774.711-10.121-8.747-12.994-2.381-.4-1.731-3.117-1.081-3.984.456s-1.051,3.573-2.427,4.64c-1.049.815-2.588.863-3.446,1.89a4.719,4.719,0,0,0-.782,2.7q-.219,2.73-.437,5.459a7.7,7.7,0,0,0,.488,4.318c.7,1.281,2.534,1.993,3.584,1a11.261,11.261,0,0,0,1.081-1.688,2.688,2.688,0,0,1,2.819-1.007A4.766,4.766,0,0,1,274.7,176.4c4.913,5.479,6.673,13.279,6.889,20.752a12.289,12.289,0,0,0,.527,4.046c.569,1.491,1.769,2.7,2.122,4.258.271,1.2.016,2.518.513,3.637.915,2.06,3.969,2.148,5.633.672s2.24-3.858,2.576-6.1.556-4.6,1.768-6.493c.751-1.172,1.856-2.11,2.383-3.407.734-1.814.19-3.964.872-5.8.906-2.435,3.581-3.513,5.487-5.221" transform="translate(-264.502 -154.855)"/></g></g><path d="M294.106,150.141s-.017-.276-.035-.813-.013-1.34-.1-2.385a52.979,52.979,0,0,0-1.366-9.057,51.212,51.212,0,0,0-1.965-6.305A49.182,49.182,0,0,0,287.3,124.5a50.243,50.243,0,0,0-12.206-14.315,46.525,46.525,0,0,0-9.2-5.774,46.609,46.609,0,0,0-30.042-3.445,49.83,49.83,0,0,0-6.455,1.93,48.483,48.483,0,0,0-22.357,17.594,49.148,49.148,0,0,0-3.9,6.591c-.591,1.149-1.09,2.349-1.6,3.547-.463,1.22-.936,2.442-1.318,3.7a51.178,51.178,0,0,0-1.818,7.746,52.43,52.43,0,0,0,0,16.11,51.371,51.371,0,0,0,1.816,7.75c.382,1.261.855,2.484,1.318,3.7.514,1.2,1.013,2.4,1.6,3.548a49.171,49.171,0,0,0,3.9,6.594,48.482,48.482,0,0,0,22.36,17.6,49.817,49.817,0,0,0,6.456,1.931,46.379,46.379,0,0,0,30.044-3.447,46.554,46.554,0,0,0,9.2-5.775,50.241,50.241,0,0,0,12.2-14.316,49.155,49.155,0,0,0,3.337-7.077,51.294,51.294,0,0,0,1.964-6.3,52.959,52.959,0,0,0,1.366-9.055c.089-1.046.071-1.848.1-2.385s.035-.813.035-.813,0,.276,0,.814.007,1.341-.072,2.389a51.765,51.765,0,0,1-1.312,9.081,51.021,51.021,0,0,1-1.944,6.33,49.2,49.2,0,0,1-3.325,7.112,50.325,50.325,0,0,1-12.22,14.4,46.716,46.716,0,0,1-9.238,5.82,46.823,46.823,0,0,1-30.2,3.5,50.048,50.048,0,0,1-6.5-1.936,48.736,48.736,0,0,1-22.5-17.69,49.411,49.411,0,0,1-3.929-6.633c-.595-1.156-1.1-2.364-1.615-3.57-.467-1.228-.942-2.458-1.327-3.728a51.6,51.6,0,0,1-1.829-7.8,52.756,52.756,0,0,1,0-16.21,51.51,51.51,0,0,1,1.83-7.795c.384-1.269.86-2.5,1.328-3.726.518-1.205,1.02-2.413,1.615-3.568a49.446,49.446,0,0,1,3.928-6.631,48.739,48.739,0,0,1,22.5-17.685,49.92,49.92,0,0,1,6.494-1.936,46.576,46.576,0,0,1,30.2,3.5,46.715,46.715,0,0,1,9.239,5.819,50.325,50.325,0,0,1,12.221,14.4,49.132,49.132,0,0,1,3.326,7.112,50.954,50.954,0,0,1,1.945,6.331,51.738,51.738,0,0,1,1.312,9.082c.079,1.048.051,1.851.072,2.389s0,.814,0,.814" transform="translate(-81.729 -39.142)" fill="#263238"/><path d="M283.076,201.26c-.085,0-.153-22.358-.153-49.932s.068-49.937.153-49.937.152,22.353.152,49.937-.068,49.932-.152,49.932" transform="translate(-117.098 -39.848)" fill="#263238"/><path d="M287.9,200.989s.078-.066.239-.181l.716-.506c.639-.429,1.546-1.117,2.691-2.031a53.609,53.609,0,0,0,8.611-8.969,59.342,59.342,0,0,0,8.791-16.347,73.549,73.549,0,0,0,3.888-22.555,82.95,82.95,0,0,0-2.467-22.8,46.858,46.858,0,0,0-8.108-16.655,28.843,28.843,0,0,0-4.974-5.019,26.818,26.818,0,0,0-4.481-2.833,29.562,29.562,0,0,0-3.078-1.3l-.821-.289c-.184-.067-.277-.109-.277-.109s.1.021.286.078l.831.259a26.587,26.587,0,0,1,3.109,1.253,26.251,26.251,0,0,1,4.533,2.8,28.689,28.689,0,0,1,5.039,5.019,46.761,46.761,0,0,1,8.212,16.718,82.62,82.62,0,0,1,2.5,22.885,73.355,73.355,0,0,1-3.929,22.646,59.007,59.007,0,0,1-8.887,16.386,52.233,52.233,0,0,1-8.707,8.928c-1.159.9-2.078,1.575-2.73,1.987l-.733.48c-.166.106-.255.154-.255.154" transform="translate(-119.157 -39.848)" fill="#263238"/><path d="M261.539,201.127s-.091-.049-.26-.157l-.748-.487c-.664-.42-1.6-1.1-2.793-2.006a60.211,60.211,0,0,1-9.107-8.849,61.825,61.825,0,0,1-5.165-7.169,47.781,47.781,0,0,1-4.435-9.178,67.448,67.448,0,0,1-2.9-10.937,81.127,81.127,0,0,1-1.185-12.116,81.948,81.948,0,0,1,2.608-23.306,48.7,48.7,0,0,1,3.727-9.512,32.693,32.693,0,0,1,5.072-7.233,31.987,31.987,0,0,1,10.249-7.312,32.728,32.728,0,0,1,3.186-1.228l.848-.26c.191-.057.291-.079.291-.079s-.094.043-.283.109l-.837.291c-.735.256-1.81.665-3.157,1.28A31.848,31.848,0,0,0,241.5,117.535,48.674,48.674,0,0,0,237.82,127a82.235,82.235,0,0,0-2.573,23.217,81.358,81.358,0,0,0,1.174,12.068,67.534,67.534,0,0,0,2.873,10.892,47.778,47.778,0,0,0,4.385,9.139,62.5,62.5,0,0,0,14.13,16.06c1.175.919,2.1,1.614,2.755,2.05l.731.514c.164.117.244.184.244.184" transform="translate(-97.231 -39.811)" fill="#263238"/><path d="M294.654,181.31c0,.087-21.494.158-48,.158s-48.007-.07-48.007-.158,21.49-.158,48.007-.158,48,.07,48,.158" transform="translate(-82.217 -71.194)" fill="#263238"/><path d="M292.008,139.039c0,.087-18.337.158-40.951.158s-40.955-.07-40.955-.158,18.332-.158,40.955-.158,40.951.07,40.951.158" transform="translate(-86.959 -54.581)" fill="#263238"/><path d="M291.59,224.378c0,.087-18.754.158-41.884.158s-41.888-.07-41.888-.158,18.75-.158,41.888-.158,41.884.07,41.884.158" transform="translate(-86.014 -88.12)" fill="#263238"/><path d="M277.219,191.557H216.826c-8.554,0-15.488-7.181-15.488-16.04s6.934-16.04,15.488-16.04h60.392c8.554,0,15.488,7.181,15.488,16.04s-6.934,16.04-15.488,16.04" transform="translate(-83.331 -62.676)" fill="#fff"/><path d="M277.122,191.455s.191-.021.562-.046a11.969,11.969,0,0,0,1.64-.168,14.726,14.726,0,0,0,5.9-2.247,16.277,16.277,0,0,0,1.766-1.309l.865-.819c.3-.274.55-.612.838-.926a16.21,16.21,0,0,0,2.79-4.79,16.417,16.417,0,0,0,1-6.329,16.613,16.613,0,0,0-1.8-6.927,16.117,16.117,0,0,0-5.151-5.8,14.634,14.634,0,0,0-1.767-1.019,14.33,14.33,0,0,0-6.074-1.543c-5.79-.053-12-.005-18.515-.015l-42.438.013a15.142,15.142,0,0,0-10.105,3.95,15.929,15.929,0,0,0-3.372,4.336,16.643,16.643,0,0,0-1.589,10.58,16.663,16.663,0,0,0,1.781,4.948,15.7,15.7,0,0,0,7.295,6.707,15.965,15.965,0,0,0,4.627,1.187c1.565.122,3.147.055,4.688.075l8.99.008,16.137.019,23.367.05,6.353.03,1.652.015c.372.005.563.016.563.016s-.191.011-.563.016l-1.652.015-6.353.03-23.367.05-16.137.019-8.99.008c-1.548-.018-3.106.053-4.712-.069a16.228,16.228,0,0,1-4.713-1.2A15.982,15.982,0,0,1,203.2,183.5a16.936,16.936,0,0,1-1.819-5.042,16.96,16.96,0,0,1,1.614-10.787,16.237,16.237,0,0,1,3.437-4.423,15.434,15.434,0,0,1,10.305-4.03l42.438.013c6.524.017,12.716-.021,18.525.044a15.047,15.047,0,0,1,4.23.763,15.2,15.2,0,0,1,1.939.817,15,15,0,0,1,1.791,1.039,16.335,16.335,0,0,1,5.212,5.9,16.805,16.805,0,0,1,1.809,7.026,16.582,16.582,0,0,1-1.037,6.4,16.313,16.313,0,0,1-2.84,4.826c-.291.315-.547.654-.85.929l-.876.821a16.356,16.356,0,0,1-1.789,1.309,14.581,14.581,0,0,1-5.953,2.205,10.914,10.914,0,0,1-1.648.137c-.372.014-.563.013-.563.013" transform="translate(-83.235 -62.574)" fill="#263238"/><path d="M246.357,173.079l-4.775,13.886H237.03l-2.523-7.558-2.622,7.558h-4.552l-4.774-13.886h4.453l2.746,8.4,2.844-8.4h4.008l2.771,8.48,2.845-8.48Z" transform="translate(-92.114 -68.022)" fill="#263238"/><path d="M285.987,173.079l-4.775,13.886h-4.551l-2.523-7.558-2.622,7.558h-4.552l-4.774-13.886h4.453l2.746,8.4,2.845-8.4h4.007l2.771,8.48,2.845-8.48Z" transform="translate(-108.517 -68.022)" fill="#263238"/><path d="M325.618,173.079l-4.774,13.886h-4.552l-2.523-7.558-2.622,7.558H306.6l-4.774-13.886h4.453l2.746,8.4,2.844-8.4h4.008l2.771,8.48,2.844-8.48Z" transform="translate(-124.92 -68.022)" fill="#263238"/><path d="M221.574,236.778l-20.935,6.31a1.182,1.182,0,0,0-.468,1.957l14.285,14.292a1.109,1.109,0,0,0,1.849-.469l6.651-20.6a1.147,1.147,0,0,0-1.381-1.488" transform="translate(-82.706 -93.037)" fill="#fc8116"/><path d="M187.426,266.323l14.755-14.2,5.876,5.914L193.375,272.62Z" transform="translate(-77.573 -99.088)" fill="#fc8116"/><path d="M326.958,53.282c0,.087-49.072.158-109.592.158-60.541,0-109.6-.07-109.6-.158s49.062-.158,109.6-.158c60.52,0,109.592.07,109.592.158" transform="translate(-44.602 -20.878)" fill="#263238"/><path d="M121.485,37.1a37.234,37.234,0,0,1-3.364,3.417,36.834,36.834,0,0,1-3.571,3.185,37.157,37.157,0,0,1,3.364-3.417,36.835,36.835,0,0,1,3.571-3.184" transform="translate(-47.41 -14.581)" fill="#263238"/><path d="M121.4,43.807a37.256,37.256,0,0,1-3.3-3.484,37.4,37.4,0,0,1-3.075-3.7,37.166,37.166,0,0,1,3.3,3.484,37.479,37.479,0,0,1,3.075,3.7" transform="translate(-47.608 -14.393)" fill="#263238"/><path d="M142.316,43.653a4.017,4.017,0,0,1-.031-.524c-.009-.372-.02-.843-.035-1.416-.024-1.211-.054-2.915-.067-4.952l.132.137-6.654.022c-.034.034.288-.3.152-.157V37.7c0,.31,0,.617,0,.921,0,.607,0,1.2,0,1.781-.005,1.155-.01,2.245-.015,3.251l-.132-.137c1.967.013,3.613.044,4.782.07l1.367.035a3.624,3.624,0,0,1,.506.032,2.391,2.391,0,0,1-.451.031l-1.337.036c-1.16.025-2.841.056-4.867.07h-.131v-.138c0-1.006-.01-2.1-.015-3.251,0-.579,0-1.174,0-1.781,0-.3,0-.612,0-.921v-.937c-.137.141.185-.194.153-.159l6.654.021h.133v.136c-.013,2.1-.043,3.838-.067,5.04-.014.561-.025,1.021-.035,1.385a2.577,2.577,0,0,1-.03.467" transform="translate(-56.071 -14.384)" fill="#263238"/><path d="M163.282,47.109a20.308,20.308,0,0,1-3.571.158,20.307,20.307,0,0,1-3.571-.158,20.307,20.307,0,0,1,3.571-.158,20.308,20.308,0,0,1,3.571.158" transform="translate(-64.624 -18.452)" fill="#263238"/><rect width="1.331" height="5.958" transform="translate(140.846 41.19)" fill="#263238"/><path d="M249.271,72.046v2.622h-1.282V72.249c0-.741-.328-1.08-.9-1.08-.617,0-1.06.391-1.06,1.234v2.264h-1.282v-4.58h1.224v.537a1.9,1.9,0,0,1,1.463-.6,1.767,1.767,0,0,1,1.833,2.026" transform="translate(-101.299 -27.518)" fill="#263238"/><path d="M256.922,73.834a1.784,1.784,0,0,1-1.044.29,1.482,1.482,0,0,1-1.652-1.643V70.6h-.682V69.578h.682V68.463h1.282v1.115h1.1V70.6h-1.1v1.865c0,.392.205.6.551.6a.841.841,0,0,0,.518-.171Z" transform="translate(-104.939 -26.907)" fill="#263238"/><path d="M264.378,72.752h-3.345a1.185,1.185,0,0,0,1.266.919,1.471,1.471,0,0,0,1.11-.443l.682.766a2.277,2.277,0,0,1-1.824.741,2.329,2.329,0,0,1-2.523-2.358A2.289,2.289,0,0,1,262.1,70.02a2.228,2.228,0,0,1,2.3,2.375c0,.1-.016.247-.025.358m-3.361-.775h2.178a1.1,1.1,0,0,0-2.178,0" transform="translate(-107.504 -27.518)" fill="#263238"/><path d="M271.9,70.02v1.226c-.107-.008-.189-.017-.288-.017-.707,0-1.175.4-1.175,1.276v2.162h-1.282V70.088h1.225v.6a1.757,1.757,0,0,1,1.52-.672" transform="translate(-111.399 -27.518)" fill="#263238"/><path d="M279.662,72.046v2.622H278.38V72.249c0-.741-.329-1.08-.9-1.08-.616,0-1.06.391-1.06,1.234v2.264h-1.282v-4.58h1.224v.537a1.9,1.9,0,0,1,1.463-.6,1.767,1.767,0,0,1,1.833,2.026" transform="translate(-113.878 -27.518)" fill="#263238"/><path d="M288.991,72.752h-3.345a1.185,1.185,0,0,0,1.266.919,1.471,1.471,0,0,0,1.11-.443l.682.766a2.277,2.277,0,0,1-1.825.741,2.329,2.329,0,0,1-2.523-2.358,2.289,2.289,0,0,1,2.358-2.358,2.228,2.228,0,0,1,2.3,2.375c0,.1-.016.247-.025.358m-3.361-.775h2.178a1.1,1.1,0,0,0-2.178,0" transform="translate(-117.691 -27.518)" fill="#263238"/><path d="M296.247,73.834a1.784,1.784,0,0,1-1.044.29,1.483,1.483,0,0,1-1.652-1.643V70.6h-.682V69.578h.682V68.463h1.282v1.115h1.1V70.6h-1.1v1.865c0,.392.206.6.551.6a.841.841,0,0,0,.518-.171Z" transform="translate(-121.215 -26.907)" fill="#263238"/><path d="M304.1,67.86h2.425a2.982,2.982,0,1,1,0,5.958H304.1Zm2.375,5.218a2.241,2.241,0,1,0,0-4.477h-1.553v4.477Z" transform="translate(-125.864 -26.67)" fill="#263238"/><path d="M318.7,72v2.724h-.748v-.6a1.6,1.6,0,0,1-1.43.646c-.986,0-1.611-.544-1.611-1.327,0-.724.452-1.319,1.751-1.319h1.249v-.162c0-.69-.386-1.09-1.167-1.09a2.158,2.158,0,0,0-1.381.485l-.329-.612a2.834,2.834,0,0,1,1.8-.579A1.649,1.649,0,0,1,318.7,72m-.789,1.345v-.63H316.7c-.781,0-1,.315-1,.7,0,.451.362.732.961.732a1.261,1.261,0,0,0,1.258-.8" transform="translate(-130.339 -27.579)" fill="#263238"/><path d="M326.935,70.244l-2.112,4.962c-.386.954-.887,1.252-1.553,1.252a1.6,1.6,0,0,1-1.118-.417l.337-.613a1.093,1.093,0,0,0,.781.332c.378,0,.617-.178.83-.7l.14-.315-1.923-4.5h.822l1.521,3.609,1.5-3.609Z" transform="translate(-133.334 -27.607)" fill="#263238"/></g><g clip-path="url(#a)"><path d="M392.037,159.776s-7.38,2.066-8.763,7.833c-2.186,9.116-8.871,36.011-8.871,36.011l-7.054,5.914,4.5,7.726s7.864-2.677,11.151-7.054,6.638-20.723,6.638-20.723Z" transform="translate(-152.04 -62.793)" fill="#fc8116"/><path d="M410.845,89.7c1.742-2.083,6.164-1.885,7.242-.57a3.312,3.312,0,0,1,4.445,1.409l4.721.948a4.794,4.794,0,0,1,2.277.887,1.784,1.784,0,0,1,.448,2.262,2.683,2.683,0,0,1,1.173,4.2,1.888,1.888,0,0,1-.2,2.674,18.615,18.615,0,0,1,3.151,5.343,3.882,3.882,0,0,1,.294,2.558c-.276.83-1.308,1.422-2.006.926a2.223,2.223,0,0,1,.152,2.328c.795,0,1.061,1.267.529,1.879a2.833,2.833,0,0,1-2.213.7,3.72,3.72,0,0,0-2.3.465.757.757,0,0,0,.271.516,3.463,3.463,0,0,1,.835,4.592c-.092.14-.177.269-.252.385a7.177,7.177,0,0,1-2.27,1.736c-1.775,1.015-2.849.858-4.848,1.207.578,1.326-2.612,4.375-6.407,1.55a69.655,69.655,0,0,1-20.438,3.383c-1.1.03-2.424-.091-2.935-1.1a2.669,2.669,0,0,1-2.531-.79,8.352,8.352,0,0,1-1.529-2.37,4.916,4.916,0,0,1-3.549-4.383,6.184,6.184,0,0,1-2.332-4.3,3.633,3.633,0,0,1-2.1-4.806,22.245,22.245,0,0,1,2.131-6.772c-1.267-.251-1.781-2-1.291-3.235A6.738,6.738,0,0,1,384,98.524c-.936.283-1.785-.922-1.584-1.91a3.817,3.817,0,0,1,1.863-2.227,17.456,17.456,0,0,1,3.863-1.9c.408-1.729,2.483-3.737,4.018-4.536,6.193-3.224,10.565-4.109,18.687,1.75" transform="translate(-157.351 -33.568)" fill="#263238"/><path d="M426.145,104.867a2.609,2.609,0,0,0-2.2-2.735l-13.382-3.926c-4.3-.6-7.325,4.819-7.722,9.3-.44,4.975-.788,11.068-.321,14.8a9.482,9.482,0,0,0,7.4,8.565c0-.01-.109,5.426-.109,5.426l-.177,6.312c2.06-.3,15.277-6.845,15.277-6.845Z" transform="translate(-166.506 -38.578)" fill="#ffbe9d"/><path d="M413.651,126.511a6.441,6.441,0,0,0-1.611-.35c-.253-.035-.493-.094-.531-.275a1.381,1.381,0,0,1,.192-.776l.808-1.985a35.379,35.379,0,0,0,1.835-5.2,35.127,35.127,0,0,0-2.234,5.034q-.406,1.046-.777,2a1.576,1.576,0,0,0-.16,1.031.649.649,0,0,0,.408.4,1.644,1.644,0,0,0,.431.075,6.249,6.249,0,0,0,1.641.051" transform="translate(-170.162 -46.346)" fill="#263238"/><path d="M415.258,150.55s3.9.53,8.8-2.324c0,0-1.318,5.536-8.852,4.91Z" transform="translate(-171.848 -58.254)" fill="#eb996e"/><path d="M420.966,112.55c.09.283,1.089.18,2.254.361,1.169.156,2.1.538,2.264.291.073-.118-.084-.387-.458-.67a3.852,3.852,0,0,0-3.442-.5c-.434.167-.656.381-.618.515" transform="translate(-174.231 -43.951)" fill="#263238"/><path d="M406,112.349c.169.24.862.016,1.688.029.826-.017,1.52.2,1.688-.038.074-.117-.03-.355-.329-.586a2.374,2.374,0,0,0-2.72.007c-.3.232-.4.471-.326.588" transform="translate(-168.03 -43.754)" fill="#263238"/><path d="M397.782,109.242A5.25,5.25,0,0,1,398.929,106a18.645,18.645,0,0,0,1.317-1.36c.8-1.119.656-2.651.98-4a5.588,5.588,0,0,1,3.318-3.856c1.346-.523,2.882-.481,4.141-1.2.931-.532,1.632-1.44,2.591-1.913,1.869-.923,4.069.041,5.865,1.108.376,1.457-.5,2.738-1.341,3.968a5.014,5.014,0,0,1-3.68,2.157c-1.126.089-2.447-.152-3.227.694-.82.89-.472,2.429-1.142,3.445-.957,1.453-3.195.944-4.646,1.856-1.121.7-1.575,2.115-2.126,3.348s-1.516,2.524-2.827,2.482a15.84,15.84,0,0,1-.37-3.491" transform="translate(-164.634 -36.669)" fill="#263238"/><path d="M426.088,100.2a24.8,24.8,0,0,1,9.695,1.645,4.649,4.649,0,0,1,2.409,1.662,4.871,4.871,0,0,1,.544,2.584,27.112,27.112,0,0,1-2.014,8.852l-3.344,2.149c-2.61-.594-1.488-5.263-1.4-7.595a5.5,5.5,0,0,1-3.179-4.807,6.118,6.118,0,0,1-2.712-4.49" transform="translate(-176.352 -39.374)" fill="#263238"/><path d="M438.549,125.366c.077-1.6,1.971-1.945,3.313-1.142.736.441,1.3,1.327,1.232,3.029-.181,4.538-4.542,3.413-4.545,3.283,0-.081-.09-3.294,0-5.17" transform="translate(-181.493 -48.657)" fill="#ffbe9d"/><path d="M440.975,129.854c.02-.013.074.059.2.126a.739.739,0,0,0,.57.036,1.968,1.968,0,0,0,.944-1.718,2.686,2.686,0,0,0-.168-1.141.9.9,0,0,0-.55-.632.385.385,0,0,0-.46.2c-.063.124-.039.216-.063.223s-.091-.08-.049-.266a.5.5,0,0,1,.184-.277.56.56,0,0,1,.427-.1,1.087,1.087,0,0,1,.769.738,2.767,2.767,0,0,1,.215,1.277,2.054,2.054,0,0,1-1.192,1.911.8.8,0,0,1-.693-.149c-.131-.118-.15-.22-.135-.228" transform="translate(-182.512 -49.636)" fill="#eb996e"/><path d="M435.562,121.275a.293.293,0,0,0,.013.06.658.658,0,0,0,.062.172,1.026,1.026,0,0,0,.515.462,2.6,2.6,0,0,0,1.086.216,3.51,3.51,0,0,0,.7-.059,2.514,2.514,0,0,0,.762-.252l-.053-.027a2.29,2.29,0,0,0,1.184,1.627,2.149,2.149,0,0,0,2.305-.251l-.074-.012a.9.9,0,0,0,.58.387,1.207,1.207,0,0,0,.708-.073,1.157,1.157,0,0,0,.563-.489,1.619,1.619,0,0,0,.211-.75,2.37,2.37,0,0,0-.5-1.5,6.675,6.675,0,0,0-1.172-1.145l-.006.1a1.606,1.606,0,0,0,.678-1.086,2.4,2.4,0,0,0-.145-1.335,3.588,3.588,0,0,0-.784-1.118,10.522,10.522,0,0,0-1.05-.892l.009.1a1.741,1.741,0,0,0,.411-1.323,2.5,2.5,0,0,0-.515-1.338,5.853,5.853,0,0,0-2.159-1.508l.036.078a3.136,3.136,0,0,0-.733-2.762,2.9,2.9,0,0,0-2.482-.9l.069.076a2.659,2.659,0,0,0-.626-2.2,2.44,2.44,0,0,0-1.864-.91l.056.056a2.572,2.572,0,0,0-1.024-1.961,2.343,2.343,0,0,0-1.838-.493l.05.043a2.561,2.561,0,0,0-.373-1.157,3.183,3.183,0,0,0-.678-.821,2.469,2.469,0,0,0-1.507-.644l-.164-.009c-.053,0-.1.01-.154.015a2.1,2.1,0,0,0-.277.038,2.987,2.987,0,0,0-.417.129l-.242.112a.477.477,0,0,0-.08.042.527.527,0,0,0,.085-.03l.246-.1a3.225,3.225,0,0,1,.415-.117,2.119,2.119,0,0,1,.273-.031c.049,0,.1-.011.152-.012l.161.012a2.433,2.433,0,0,1,1.466.649,3.12,3.12,0,0,1,.655.809,2.486,2.486,0,0,1,.353,1.117l0,.052.049-.009a2.26,2.26,0,0,1,1.764.487,2.467,2.467,0,0,1,.974,1.879v.057h.055a2.33,2.33,0,0,1,1.774.877,2.535,2.535,0,0,1,.593,2.09l-.018.089.087-.012a2.78,2.78,0,0,1,2.373.867,3,3,0,0,1,.7,2.639l-.012.053.048.024a5.75,5.75,0,0,1,2.112,1.471,2.368,2.368,0,0,1,.486,1.263,1.6,1.6,0,0,1-.374,1.218l-.052.056.061.046a5.269,5.269,0,0,1,1.794,1.953A2.267,2.267,0,0,1,443,118.63a1.473,1.473,0,0,1-.618,1l-.076.047.07.057a6.593,6.593,0,0,1,1.154,1.12,2.248,2.248,0,0,1,.481,1.424,1.221,1.221,0,0,1-.7,1.14.941.941,0,0,1-1.162-.268l-.031-.049-.044.036a2.061,2.061,0,0,1-2.2.253,2.217,2.217,0,0,1-1.152-1.558l-.009-.05-.044.024a2.462,2.462,0,0,1-.74.253,3.5,3.5,0,0,1-.69.066,2.606,2.606,0,0,1-1.071-.194,1.02,1.02,0,0,1-.513-.436c-.072-.139-.084-.225-.093-.222" transform="translate(-176.583 -39.159)" fill="#455a64"/><path d="M452.844,114.5a1.558,1.558,0,0,0,.161-.277,2.387,2.387,0,0,0,.218-.9,2.348,2.348,0,0,0-.38-1.416,2.319,2.319,0,0,0-1.6-1.019l.038.054a3.2,3.2,0,0,0-.431-2.231,2.99,2.99,0,0,0-.872-.928,6.767,6.767,0,0,0-1.206-.564,2.4,2.4,0,0,1-.579-.343,1.536,1.536,0,0,1-.408-.551c-.2-.432-.272-.944-.525-1.408a2.632,2.632,0,0,0-2.688-1.324l.076.075a3.776,3.776,0,0,0-.964-2.982,3.482,3.482,0,0,0-2.986-1.07l.074.073a3.283,3.283,0,0,0-1.685-3.139,3.067,3.067,0,0,0-3.152.239l.07.006a4.177,4.177,0,0,0-1.544-.941,6.146,6.146,0,0,0-1.577-.347,7.1,7.1,0,0,0-2.593.226,5.142,5.142,0,0,0-1.531.69,3.059,3.059,0,0,0-.352.274c-.077.065-.114.1-.114.1s.162-.132.484-.347a5.318,5.318,0,0,1,1.53-.654,7.13,7.13,0,0,1,2.568-.2,6.084,6.084,0,0,1,1.551.353,4.1,4.1,0,0,1,1.5.924l.033.033.038-.027a2.957,2.957,0,0,1,3.032-.219,3.157,3.157,0,0,1,1.61,3.013l-.007.085.081-.012a3.357,3.357,0,0,1,2.873,1.031,3.641,3.641,0,0,1,.93,2.869l-.011.091.088-.016a2.509,2.509,0,0,1,2.556,1.255c.241.433.313.943.525,1.4a1.662,1.662,0,0,0,.442.592,2.482,2.482,0,0,0,.608.358,6.808,6.808,0,0,1,1.192.549,2.892,2.892,0,0,1,.845.89,3.108,3.108,0,0,1,.432,2.156l-.008.048.046.006a2.246,2.246,0,0,1,1.556.969,2.3,2.3,0,0,1,.39,1.374,2.471,2.471,0,0,1-.192.893c-.083.192-.144.283-.138.287" transform="translate(-177.263 -37.522)" fill="#455a64"/><path d="M396.73,116.7a.459.459,0,0,0,.011-.372.876.876,0,0,0-.262-.371,1.47,1.47,0,0,0-.545-.273,2.509,2.509,0,0,1-.688-.283,1.408,1.408,0,0,1-.5-.719,2.86,2.86,0,0,1-.127-1.036c.01-.375.06-.772.053-1.2a12.519,12.519,0,0,0-.6-2.671,3.9,3.9,0,0,1-.083-1.49,1.825,1.825,0,0,1,.774-1.289,6.4,6.4,0,0,1,1.526-.565,2.628,2.628,0,0,0,.779-.392,1.824,1.824,0,0,0,.542-.727,9.1,9.1,0,0,0,.432-1.793,3.081,3.081,0,0,1,.29-.865,1.351,1.351,0,0,1,.636-.6,4.721,4.721,0,0,1,1.209-.192,1.859,1.859,0,0,0,.611-.17,1.218,1.218,0,0,0,.477-.432,4.513,4.513,0,0,0,.44-1.166,2.818,2.818,0,0,1,.533-1.033,2.61,2.61,0,0,1,1.891-.977,2.654,2.654,0,0,1,1.87.665l.059.053.031-.075a4.222,4.222,0,0,1,2.562-2.369,3.722,3.722,0,0,1,1.461-.156,3.4,3.4,0,0,1,1.208.326,3.331,3.331,0,0,1,1.522,1.618l.054.11a.171.171,0,0,0,.021.036.163.163,0,0,0-.013-.039l-.046-.115a2.7,2.7,0,0,0-.21-.434,3.1,3.1,0,0,0-1.3-1.239,3.457,3.457,0,0,0-1.23-.347,3.783,3.783,0,0,0-1.5.147,4.308,4.308,0,0,0-2.641,2.415l.09-.021a2.764,2.764,0,0,0-1.949-.7,2.729,2.729,0,0,0-1.985,1.018,2.96,2.96,0,0,0-.559,1.077,4.433,4.433,0,0,1-.424,1.13,1.269,1.269,0,0,1-1,.543,4.774,4.774,0,0,0-1.243.2,1.5,1.5,0,0,0-.7.657,3.223,3.223,0,0,0-.3.9,9.012,9.012,0,0,1-.421,1.766,1.687,1.687,0,0,1-.5.676,2.47,2.47,0,0,1-.74.373,6.461,6.461,0,0,0-1.553.583,1.714,1.714,0,0,0-.564.605,2.345,2.345,0,0,0-.259.771,4.009,4.009,0,0,0,.091,1.537,12.624,12.624,0,0,1,.613,2.646c.01.415-.037.812-.043,1.191a2.926,2.926,0,0,0,.141,1.064,1.467,1.467,0,0,0,.54.748,2.517,2.517,0,0,0,.709.28,1.438,1.438,0,0,1,.535.253.867.867,0,0,1,.262.349.574.574,0,0,1,.014.362" transform="translate(-163.002 -37.772)" fill="#455a64"/><path d="M384.086,107.694a.473.473,0,0,0,.044-.086l.116-.256.436-.991c.191-.429.4-.965.713-1.553a4,4,0,0,1,1.44-1.653c.351-.205.759-.344,1.166-.54a2.773,2.773,0,0,0,.592-.373,1.556,1.556,0,0,0,.437-.6c.2-.474.2-1.008.356-1.5a1.285,1.285,0,0,1,.411-.627,2.334,2.334,0,0,1,.7-.35,4.424,4.424,0,0,0,.77-.32,1.444,1.444,0,0,0,.588-.652,6.858,6.858,0,0,0,.346-1.765,2.229,2.229,0,0,1,.277-.837,1.093,1.093,0,0,1,.687-.486c.574-.134,1.2.063,1.835-.052a1.532,1.532,0,0,0,.835-.476,4.135,4.135,0,0,0,.533-.79,8.482,8.482,0,0,1,.468-.79,1.706,1.706,0,0,1,.634-.581,2.488,2.488,0,0,1,1.654-.014,3.734,3.734,0,0,0,1.665.121,4.373,4.373,0,0,0,1.436-.707,7.494,7.494,0,0,1,1.276-.763,4.375,4.375,0,0,1,2.6-.131,4.781,4.781,0,0,1,1.941.994,5.548,5.548,0,0,1,1.083,1.283,6.471,6.471,0,0,1,.47.968l.105.261a.531.531,0,0,0,.04.087.462.462,0,0,0-.028-.092l-.093-.266a5.95,5.95,0,0,0-.451-.985,5.512,5.512,0,0,0-1.08-1.315,4.831,4.831,0,0,0-1.966-1.029,4.452,4.452,0,0,0-2.659.119,7.481,7.481,0,0,0-1.3.768,4.29,4.29,0,0,1-1.4.685,3.631,3.631,0,0,1-1.613-.126,5.357,5.357,0,0,0-.855-.139,1.756,1.756,0,0,0-.882.16,1.835,1.835,0,0,0-.684.623,8.734,8.734,0,0,0-.477.8,4.014,4.014,0,0,1-.514.762,1.4,1.4,0,0,1-.764.437c-.595.112-1.217-.086-1.84.054a1.226,1.226,0,0,0-.767.543,2.365,2.365,0,0,0-.3.89,6.831,6.831,0,0,1-.332,1.731,1.311,1.311,0,0,1-.536.6,4.33,4.33,0,0,1-.748.313,2.4,2.4,0,0,0-.731.371,1.408,1.408,0,0,0-.449.686c-.162.518-.158,1.045-.346,1.491a1.817,1.817,0,0,1-.972.921c-.4.2-.808.337-1.169.551a4.06,4.06,0,0,0-1.459,1.7c-.305.6-.511,1.136-.7,1.568l-.413,1-.1.262a.542.542,0,0,0-.031.091" transform="translate(-158.968 -35.64)" fill="#455a64"/><path d="M390.73,110.751a.334.334,0,0,0-.08-.013.478.478,0,0,0-.232.057.98.98,0,0,0-.423.811,2.451,2.451,0,0,0,.1.677,2.893,2.893,0,0,1,.125.783,1.794,1.794,0,0,1-.295.843c-.165.276-.378.548-.548.876a1.344,1.344,0,0,0-.091,1.143c.146.384.422.7.561,1.093a1.749,1.749,0,0,1-.1,1.25c-.164.418-.4.823-.561,1.286a2.11,2.11,0,0,0-.129.739,1.893,1.893,0,0,0,.178.748,8.8,8.8,0,0,0,.853,1.279,2.131,2.131,0,0,1,.485,1.428,7.071,7.071,0,0,1-.505,1.539,2.432,2.432,0,0,0-.149.836,1.921,1.921,0,0,0,.218.812,6.93,6.93,0,0,0,.965,1.267,3.7,3.7,0,0,1,.786,1.27,11.484,11.484,0,0,0,.477,1.4,1.636,1.636,0,0,0,.454.566,1.985,1.985,0,0,0,.624.3,5.2,5.2,0,0,1,.61.214,2.17,2.17,0,0,1,.512.348,4.6,4.6,0,0,1,.733.958c.207.334.4.663.613.957a3,3,0,0,0,1.544,1.136,3.115,3.115,0,0,0,1.433.117,2.786,2.786,0,0,0,.868-.279,2.131,2.131,0,0,0,.273-.168,3.261,3.261,0,0,1-1.148.395,3.114,3.114,0,0,1-1.4-.138,2.937,2.937,0,0,1-1.49-1.121c-.209-.291-.4-.618-.6-.956a4.673,4.673,0,0,0-.745-.986,2.282,2.282,0,0,0-.539-.37,5.356,5.356,0,0,0-.622-.222,1.877,1.877,0,0,1-.588-.283,1.506,1.506,0,0,1-.417-.525,11.573,11.573,0,0,1-.466-1.389,3.825,3.825,0,0,0-.808-1.315,6.841,6.841,0,0,1-.945-1.24,1.781,1.781,0,0,1-.2-.753,2.3,2.3,0,0,1,.142-.786,7.037,7.037,0,0,0,.512-1.572,1.788,1.788,0,0,0-.121-.821,3.362,3.362,0,0,0-.391-.7,8.847,8.847,0,0,1-.844-1.256,1.769,1.769,0,0,1-.168-.694,1.971,1.971,0,0,1,.12-.694c.152-.447.386-.853.553-1.283a1.866,1.866,0,0,0,.095-1.335c-.154-.417-.431-.732-.569-1.093a1.235,1.235,0,0,1,.079-1.059c.16-.317.369-.592.536-.875a1.867,1.867,0,0,0,.3-.887,2.911,2.911,0,0,0-.139-.8,2.462,2.462,0,0,1-.114-.657.961.961,0,0,1,.384-.789.551.551,0,0,1,.3-.069" transform="translate(-161.028 -43.521)" fill="#455a64"/><path d="M454.3,111.589a1.562,1.562,0,0,0,.346-.041,2.337,2.337,0,0,0,.916-.425,2.418,2.418,0,0,0,.9-1.351,2.623,2.623,0,0,0-.389-2.135,6.288,6.288,0,0,0-.889-.918,3.041,3.041,0,0,1-.835-1.065,2.064,2.064,0,0,1,.046-1.442c.161-.489.41-.968.562-1.508a4.657,4.657,0,0,0-.385-3.431,4.373,4.373,0,0,0-2.933-2.181l.041.106a2.3,2.3,0,0,0,.365-1,2.936,2.936,0,0,0-.081-1.078,3.164,3.164,0,0,0-.454-.99,3.64,3.64,0,0,0-.754-.785,6.645,6.645,0,0,0-2.9-1.161,9.91,9.91,0,0,0-2.946-.085l.072.063a3.225,3.225,0,0,0-1.8-2.761,3.079,3.079,0,0,0-1.543-.282,4.994,4.994,0,0,0-1.431.415,2.809,2.809,0,0,1-.673.172,1.723,1.723,0,0,1-.66-.061,5.308,5.308,0,0,1-1.167-.566,4.613,4.613,0,0,0-1.114-.507,3.685,3.685,0,0,0-1.109-.136,3.6,3.6,0,0,0-1.811.542,3.842,3.842,0,0,0-1.051.974,3.788,3.788,0,0,0-.449.788,2.054,2.054,0,0,0-.105.3c.006,0,.039-.1.125-.287a4.022,4.022,0,0,1,.463-.77,3.85,3.85,0,0,1,1.049-.946,3.548,3.548,0,0,1,1.781-.514,3.611,3.611,0,0,1,1.083.141,4.577,4.577,0,0,1,1.091.506,5.369,5.369,0,0,0,1.187.582,1.818,1.818,0,0,0,.7.068,2.9,2.9,0,0,0,.7-.175,4.918,4.918,0,0,1,1.4-.4,2.971,2.971,0,0,1,1.484.277,3.1,3.1,0,0,1,1.722,2.654l0,.071.068-.008a9.8,9.8,0,0,1,2.909.088,6.534,6.534,0,0,1,2.841,1.136,3.514,3.514,0,0,1,.727.756,3.022,3.022,0,0,1,.434.946,2.794,2.794,0,0,1,.078,1.025,2.176,2.176,0,0,1-.34.936l-.057.086.1.02a4.249,4.249,0,0,1,2.849,2.111,4.54,4.54,0,0,1,.383,3.334c-.146.525-.393,1-.555,1.5a2.174,2.174,0,0,0-.037,1.517,3.119,3.119,0,0,0,.867,1.1,6.243,6.243,0,0,1,.883.9,2.55,2.55,0,0,1,.393,2.065,2.384,2.384,0,0,1-.866,1.33,2.417,2.417,0,0,1-.894.439c-.222.053-.342.058-.341.065" transform="translate(-178.827 -34.756)" fill="#263238"/><path d="M389.192,97.214a.431.431,0,0,0,.011-.087c.005-.065.012-.149.02-.255.017-.233.042-.561.073-.98s.086-.946.188-1.541a9.014,9.014,0,0,1,.55-1.966,5.815,5.815,0,0,1,1.365-2.009,4.12,4.12,0,0,1,1.112-.735,11.629,11.629,0,0,1,1.356-.429,3.908,3.908,0,0,0,1.372-.656,6.4,6.4,0,0,0,1.1-1.168c.333-.43.649-.883,1.02-1.294a4.485,4.485,0,0,1,1.3-1.026,7.682,7.682,0,0,1,3.153-.748,19.9,19.9,0,0,1,3.047.079,15.19,15.19,0,0,1,4.972,1.351,11.038,11.038,0,0,1,2.888,1.985c.148.147.285.274.395.392l.269.307.168.188a.382.382,0,0,0,.061.061.452.452,0,0,0-.05-.07l-.158-.2-.261-.317c-.107-.121-.242-.251-.388-.4a10.78,10.78,0,0,0-2.884-2.034,15.091,15.091,0,0,0-5-1.389,19.734,19.734,0,0,0-3.067-.087,7.773,7.773,0,0,0-3.207.761A4.612,4.612,0,0,0,397.259,86c-.378.419-.695.876-1.025,1.3a6.3,6.3,0,0,1-1.073,1.147,3.8,3.8,0,0,1-1.329.64,11.476,11.476,0,0,0-1.367.439,4.228,4.228,0,0,0-1.141.762,5.9,5.9,0,0,0-1.378,2.055,8.956,8.956,0,0,0-.536,1.992c-.1.6-.138,1.124-.166,1.55s-.04.759-.048.984c0,.106,0,.191-.006.256a.431.431,0,0,0,0,.087" transform="translate(-161.08 -33.076)" fill="#263238"/><path d="M417.992,134.6l-3.2,1.278-.3.121a7.088,7.088,0,0,0,.634,1.653,1.72,1.72,0,0,0,1.2.848,1.88,1.88,0,0,0,1.151-.318,2.4,2.4,0,0,0,.973-1.65,2.59,2.59,0,0,0-.457-1.932" transform="translate(-171.552 -52.899)" fill="#eb996e"/><path d="M416.125,138.437a2.406,2.406,0,0,0,1.227-.337,2.114,2.114,0,0,0,.821-1.094,2.722,2.722,0,0,0,0-1.7,3.338,3.338,0,0,0-.167-.425.613.613,0,0,0-.093-.16c-.033-.025-.019-.024-.069-.015l-.777.322-1.343.542a6.112,6.112,0,0,1-1.265.432,6.2,6.2,0,0,1,1.189-.621l1.32-.6c.256-.112.5-.225.8-.347a.327.327,0,0,1,.342.083.846.846,0,0,1,.148.236,3.412,3.412,0,0,1,.183.464,2.905,2.905,0,0,1-.023,1.885,2.234,2.234,0,0,1-.962,1.177,1.8,1.8,0,0,1-.972.246c-.237-.012-.359-.07-.356-.086" transform="translate(-171.538 -52.826)" fill="#263238"/><path d="M442.684,133.765a2.251,2.251,0,0,1,.662.381,3.08,3.08,0,0,1,1.091,1.792,3.362,3.362,0,0,1-.011,1.489,3.7,3.7,0,0,1-.778,1.507A3.6,3.6,0,0,1,442.144,140a3.2,3.2,0,0,1-1.952.078,3.535,3.535,0,0,1-1.686-1.025,3.362,3.362,0,0,1-.824-1.683,3.608,3.608,0,0,1,.814-3,3.042,3.042,0,0,1,.985-.683,3,3,0,0,1,.86-.248,1.8,1.8,0,0,1,.564.011.613.613,0,0,1,.188.059,2.322,2.322,0,0,0-.743,0,3.085,3.085,0,0,0-.831.27,3.021,3.021,0,0,0-.937.678,3.5,3.5,0,0,0-.748,2.884,3.213,3.213,0,0,0,.79,1.595,3.391,3.391,0,0,0,1.609.974,3.051,3.051,0,0,0,1.854-.07,3.458,3.458,0,0,0,1.445-1.008,3.579,3.579,0,0,0,.758-1.436,3.264,3.264,0,0,0,.029-1.426,3.084,3.084,0,0,0-1.016-1.766,6.8,6.8,0,0,0-.621-.434" transform="translate(-181.129 -52.435)" fill="#e0e0e0"/><path d="M423.476,123.329a.972.972,0,0,0,.89,1.019.92.92,0,0,0,1-.861.973.973,0,0,0-.89-1.019.919.919,0,0,0-1,.861" transform="translate(-175.27 -48.13)" fill="#263238"/><path d="M407.306,122.5a.973.973,0,0,0,.891,1.019.92.92,0,0,0,1-.861.973.973,0,0,0-.89-1.019.92.92,0,0,0-1,.861" transform="translate(-168.578 -47.804)" fill="#263238"/><path d="M405.151,118.25c.111.174.965-.449,2.075-.339,1.112.09,1.857.855,1.994.7.067-.067-.034-.372-.357-.717a2.516,2.516,0,0,0-1.576-.764,2.465,2.465,0,0,0-1.673.473c-.373.283-.519.566-.464.644" transform="translate(-167.682 -46.031)" fill="#263238"/><path d="M421.547,119c.138.158.974-.538,2.162-.548,1.188-.028,2.064.642,2.192.478.063-.072-.076-.359-.459-.662a2.817,2.817,0,0,0-1.755-.581,2.747,2.747,0,0,0-1.72.635c-.363.315-.487.606-.42.677" transform="translate(-174.465 -46.253)" fill="#263238"/><path d="M364.3,372.135,370.5,387.7l11.193-4.782-6.282-19.208Z" transform="translate(-150.779 -142.942)" fill="#ffbe9d"/><path d="M368.405,397.631l3.662,8.024s-10.616,10.462-9.757,12.939l24.4-10.853-5.943-16.034Z" transform="translate(-149.935 -153.944)" fill="#455a64"/><path d="M390.463,407.345a1.089,1.089,0,0,1,1.178.872,1.076,1.076,0,0,1-.824,1.216,1.149,1.149,0,0,1-1.242-.929c-.036-.551.461-1.214.992-1.167" transform="translate(-161.239 -160.086)" fill="#e0e0e0"/><g transform="translate(212.247 251.778)" opacity="0.6"><g clip-path="url(#l)"><path d="M386.658,416.816l-.916-2.018-23.056,11.16s-.883.972-.432,1.71Z" transform="translate(-362.126 -414.798)" fill="#fff"/></g></g><path d="M378.222,414.474c.055.122.674-.087,1.425.049.754.116,1.278.516,1.368.418.1-.073-.384-.732-1.3-.88s-1.57.311-1.5.413" transform="translate(-156.539 -162.717)" fill="#263238"/><path d="M374.632,418.321c.022.132.625.112,1.247.454.631.323.967.842,1.083.784.12-.03-.1-.79-.877-1.2s-1.5-.157-1.452-.038" transform="translate(-155.055 -164.329)" fill="#263238"/><path d="M373.112,423.6c.119-.022.029-.712-.557-1.252s-1.256-.561-1.263-.435c-.025.131.487.333.962.784s.734.944.858.9" transform="translate(-153.673 -165.791)" fill="#263238"/><path d="M376.474,408.941c.1.09.573-.323,1.266-.575s1.309-.265,1.328-.4-.669-.349-1.482-.04-1.21.944-1.112,1.015" transform="translate(-155.812 -160.258)" fill="#263238"/><path d="M352.193,342.763l-15.038-48.457s.721-7.916,2.232-10.361,44.834-15.222,44.834-15.222,10.995-2.247,18.143.779,14.388,6.693,13.453,11.932a14.383,14.383,0,0,1-.653,2.344,18.526,18.526,0,0,1-17.608,12.258l-5.674.412-29.036,4.457a2.288,2.288,0,0,0-1.819,2.833l8.02,32.509s-10.372,4.7-16.854,6.516" transform="translate(-139.544 -105.296)" fill="#263238"/><path d="M338.771,334.18l-1.078,16.8,12.082.826,2.551-20.107Z" transform="translate(-139.766 -130.361)" fill="#ffbe9d"/><path d="M327.143,359.776l-.884,9.579s-13.985,4.534-14.271,7.15l26.524,1.419,1.5-17.1Z" transform="translate(-129.128 -141.395)" fill="#455a64"/><path d="M334.92,364.866a1.015,1.015,0,0,1,.036-.49,3.106,3.106,0,0,1,.584-1.226,1.78,1.78,0,0,1,.333-.347.635.635,0,0,1,.6-.1.414.414,0,0,1,.254.258.5.5,0,0,1-.025.333,3.3,3.3,0,0,1-.3.49c-.22.316-.4.631-.684.985a.784.784,0,0,1-.721.266,1.585,1.585,0,0,1-.675-.311,5.821,5.821,0,0,1-.973-.906,5.668,5.668,0,0,1-.378-.5,1.545,1.545,0,0,1-.276-.564.511.511,0,0,1,.327-.589.714.714,0,0,1,.633.162,3.78,3.78,0,0,1,.645.737,4.635,4.635,0,0,1,.612,1.218,1.165,1.165,0,0,1,.1.483,9.347,9.347,0,0,0-.893-1.586,3.937,3.937,0,0,0-.621-.662.451.451,0,0,0-.376-.109.256.256,0,0,0-.136.3,1.358,1.358,0,0,0,.243.456,5.532,5.532,0,0,0,.365.469,5.741,5.741,0,0,0,.926.854,1.286,1.286,0,0,0,.528.254.459.459,0,0,0,.438-.166c.233-.288.458-.647.674-.944a3.353,3.353,0,0,0,.285-.436c.059-.138.033-.23-.07-.274-.238-.1-.483.141-.656.35a4.493,4.493,0,0,0-.8,1.59" transform="translate(-137.696 -142.325)" fill="#263238"/><path d="M349.483,374.28a1.131,1.131,0,0,1,.685,1.32,1.037,1.037,0,0,1-1.258.714,1.193,1.193,0,0,1-.719-1.4,1.069,1.069,0,0,1,1.388-.594" transform="translate(-144.09 -147.072)" fill="#e0e0e0"/><g transform="translate(182.856 233.772)" opacity="0.6"><g clip-path="url(#m)"><path d="M338.51,387.888l.038-2.229-25.445-.527s-1.207.469-1.117,1.337Z" transform="translate(-311.981 -385.132)" fill="#fff"/></g></g><path d="M335.616,375.222c0,.134.642.23,1.258.7.628.449.927,1.048,1.049,1,.121-.02-.033-.832-.788-1.381s-1.541-.439-1.519-.314" transform="translate(-138.907 -147.425)" fill="#263238"/><path d="M330.767,376.976c-.036.128.513.387.925.977.428.579.509,1.2.638,1.2.121.027.249-.753-.276-1.478s-1.278-.825-1.287-.7" transform="translate(-136.899 -148.136)" fill="#263238"/><path d="M327.127,381.016c.116.035.33-.626.034-1.378s-.887-1.078-.947-.968c-.079.106.295.521.529,1.143s.257,1.183.384,1.2" transform="translate(-135.011 -148.812)" fill="#263238"/><path d="M336.287,369.705c.048.125.652-.028,1.381.063.731.075,1.288.361,1.361.249.08-.093-.451-.619-1.312-.713s-1.489.293-1.43.4" transform="translate(-139.183 -145.133)" fill="#263238"/><path d="M344.335,259.315s-7.222-.911-8.355,7.2-6.429,45.683-6.429,45.683l19.857,2.575,4.177-38.718,27.489-10.739s-31.859-6.833-36.739-6" transform="translate(-136.397 -101.885)" fill="#263238"/><path d="M403.508,243.375s-4.909,12.58-4.129,14.039,11.855,7.8,11.855,7.8l27.846,12.471a25.176,25.176,0,0,0,3.393-12.017c.295-7.354-9.018-21.007-9.018-21.007Z" transform="translate(-165.263 -95.649)" fill="#263238"/><path d="M384.545,268.264a.638.638,0,0,1-.136.068l-.41.175-1.6.655-5.988,2.4-20.67,8.181.1-.13c-.41,3.825-.854,7.955-1.313,12.229l-2.889,26.486-.015.132-.127-.017-12.291-1.652-3.383-.475-.884-.134a1.775,1.775,0,0,1-.3-.059,1.83,1.83,0,0,1,.305.02l.888.1,3.392.4,12.3,1.539-.141.115c.778-7.289,1.76-16.5,2.826-26.494l1.325-12.227.011-.1.087-.034,20.71-8.072,6.02-2.315,1.614-.606.419-.15a.611.611,0,0,1,.145-.042" transform="translate(-138.503 -105.43)" fill="#455a64"/><path d="M443.825,269.382a4.045,4.045,0,0,1-.785-.258l-2.1-.8a45.3,45.3,0,0,0-7.056-2.172,20.2,20.2,0,0,0-7.3-.217,28.756,28.756,0,0,0-2.96.752,3.481,3.481,0,0,1,.751-.354,12.737,12.737,0,0,1,2.17-.626,18.957,18.957,0,0,1,7.4.123,38.666,38.666,0,0,1,7.076,2.278c.879.366,1.584.678,2.068.9a4.045,4.045,0,0,1,.74.377" transform="translate(-175.33 -104.303)" fill="#455a64"/><path d="M440.389,260.361a20.067,20.067,0,0,0-2.473-.121c-.764.023-1.676.1-2.69.182s-2.125.174-3.28.349a14.815,14.815,0,0,0-5.63,1.892,17.183,17.183,0,0,0-1.987,1.522,2.214,2.214,0,0,1,.433-.534,8.553,8.553,0,0,1,1.437-1.185,13.881,13.881,0,0,1,5.7-2.018c1.169-.178,2.29-.262,3.306-.327s1.933-.12,2.708-.113a9.89,9.89,0,0,1,1.827.163,2.077,2.077,0,0,1,.648.189" transform="translate(-175.624 -102.185)" fill="#455a64"/><path d="M373.2,405.193a1.233,1.233,0,0,1-.2-.508,3.769,3.769,0,0,1-.054-1.5,1.987,1.987,0,0,1,.135-.5.608.608,0,0,1,.493-.378.42.42,0,0,1,.349.142.6.6,0,0,1,.134.345,3.918,3.918,0,0,1-.036.628c-.049.418-.065.819-.149,1.3a.783.783,0,0,1-.521.6,1.471,1.471,0,0,1-.751,0,5.8,5.8,0,0,1-1.3-.459,5.956,5.956,0,0,1-.572-.324,1.725,1.725,0,0,1-.513-.438.6.6,0,0,1,.016-.74.655.655,0,0,1,.643-.131,3.909,3.909,0,0,1,.925.441,5.17,5.17,0,0,1,1.122.938c.229.26.328.427.313.439a10.255,10.255,0,0,0-1.546-1.176,3.984,3.984,0,0,0-.869-.377.414.414,0,0,0-.388.064.3.3,0,0,0,.021.367,1.5,1.5,0,0,0,.433.345,5.918,5.918,0,0,0,.547.3,5.748,5.748,0,0,0,1.232.429,1.2,1.2,0,0,0,.592.01.457.457,0,0,0,.314-.368c.072-.4.106-.86.159-1.257a4.04,4.04,0,0,0,.049-.569c-.012-.166-.079-.245-.192-.242-.261.007-.366.364-.423.653a5.432,5.432,0,0,0,.034,1.963" transform="translate(-153.179 -158.109)" fill="#263238"/><path d="M434.427,166.475s.079-4.711-.365-5.267l-9.315-3.365-6.71,2.081c-1.575.716-4.592,5.365-6.3,5.123-1.9-.269-2.26-5.451-3.044-6.945l-3.434.914s-5.883,16.178-5.958,20.758,2.249,10.752,1.864,20.354c-.2,5.019-.672,9.5,2.343,9.632l29.947,1.287s6.841-1.646,7.3-5.843-6.335-38.729-6.335-38.729" transform="translate(-165.266 -62.034)" fill="#fc8116"/><path d="M454.182,200.233l-4.693-15.377s-2.823-19.511-9.38-22.215c-2.806-1.158-8.942-.956-10.8,2.989s.436,6.822.887,8.771,6.8,15.621,6.8,15.621a68.084,68.084,0,0,1,3.116,7.7l-25.344,13.895,3.194,8.655,31.687-11.941a7.277,7.277,0,0,0,4.481-4.863,6.311,6.311,0,0,0,.058-3.23" transform="translate(-171.665 -63.677)" fill="#fc8116"/><path d="M381.343,250l6.519-2.892,12.517-.489,1.047-.687,2.7,7.312a20.237,20.237,0,0,1-5.053,1.55l-10.476-.78-5.508.361Z" transform="translate(-157.833 -96.653)" fill="#ffbe9d"/><path d="M319.993,208.073l35.952,1.848a2.275,2.275,0,0,1,2.385,1.88l2.843,27.315,18.524.8a1.12,1.12,0,0,1-.09,2.237l-18.2-.782-3.455-.149-37.508-1.612-2.9-28.824a2.412,2.412,0,0,1,2.446-2.71" transform="translate(-131.423 -81.773)" fill="#e0e0e0"/><path d="M319.965,208.068a1.854,1.854,0,0,0-.569.03,2.345,2.345,0,0,0-1.411.885,2.494,2.494,0,0,0-.492,1.17,7.143,7.143,0,0,0,.071,1.537c.107,1.1.229,2.375.368,3.8.563,5.725,1.376,13.976,2.374,24.12l.01.1.1,0,57.4,2.5,1.545.066a1.45,1.45,0,0,0,.823-.126,1.25,1.25,0,0,0,.58-.648,1.3,1.3,0,0,0-.5-1.571,1.455,1.455,0,0,0-.8-.192l-.761-.032-6.012-.257-11.532-.492.134.129L358.444,212a2.143,2.143,0,0,0-.608-1.446,2.641,2.641,0,0,0-1.35-.688,11.551,11.551,0,0,0-1.448-.115l-1.411-.07-5.413-.271-9.619-.476-13.7-.662-3.665-.164-.946-.036c-.213-.007-.322,0-.322,0s.108.014.321.029l.946.061,3.662.212,13.692.747,9.618.512,5.412.287,1.411.074a11.314,11.314,0,0,1,1.413.115,2.41,2.41,0,0,1,1.231.626,1.886,1.886,0,0,1,.534,1.3c.846,8.188,1.789,17.314,2.8,27.1l.013.124.121.005,11.532.5,6.012.259.761.033a1.174,1.174,0,0,1,.665.149.99.99,0,0,1,.379,1.2.956.956,0,0,1-.442.5,1.169,1.169,0,0,1-.681.093l-1.545-.067-57.4-2.431.105.1c-1.039-10.14-1.884-18.387-2.471-24.11l-.4-3.8a7.1,7.1,0,0,1-.086-1.516,2.427,2.427,0,0,1,.464-1.14,2.339,2.339,0,0,1,1.367-.892,4.525,4.525,0,0,1,.563-.064" transform="translate(-131.395 -81.769)" fill="#263238"/><path d="M351.908,233.274a2.255,2.255,0,1,1-2.158-2.429,2.286,2.286,0,0,1,2.158,2.429" transform="translate(-143.785 -90.724)" fill="#fff"/><path d="M386.758,242.237c-.051.007-.919-6.955-1.938-15.547s-1.8-15.565-1.753-15.572.919,6.954,1.938,15.548,1.8,15.564,1.753,15.571" transform="translate(-158.546 -82.971)" fill="#263238"/><path d="M446.936,218.39a.664.664,0,0,1-.137.065l-.41.168-1.6.629-6.019,2.314-20.9,7.935-.134.051-.051-.138-3.2-8.653-.048-.13.118-.065,5.011-2.748,20.343-11.128-.06.172-6.173-15.717-1.71-4.41-.441-1.166-.108-.3a.455.455,0,0,1-.031-.105.434.434,0,0,1,.05.1l.127.293q.171.412.477,1.15l1.777,4.382,6.275,15.675.046.114-.106.058L419.711,218.1l-5.012,2.747.07-.195,3.188,8.658-.185-.087,20.935-7.829,6.047-2.233,1.617-.583.419-.144a.647.647,0,0,1,.145-.041" transform="translate(-171.531 -72.771)" fill="#263238"/><path d="M429.21,151.775l-9.568,4.568-2.468,5.72-.374-5.843-2.887-2.377-1.54,2.28,2.785,8.262,4.4.189,10.589-8.816.355-.195Z" transform="translate(-170.676 -59.649)" fill="#fc8116"/><path d="M412.37,158.939a12.051,12.051,0,0,1,.77,1.733c.451,1.074,1.019,2.609,1.747,4.206l.054.106-.269.016c.672-1.6,1.131-3.133,1.5-4.216a12.155,12.155,0,0,1,.627-1.748,10.49,10.49,0,0,1-.423,1.814,37.262,37.262,0,0,1-1.425,4.282l-.124.3-.146-.28-.061-.119c-.751-1.65-1.274-3.17-1.678-4.274a11.192,11.192,0,0,1-.569-1.815" transform="translate(-170.673 -62.464)" fill="#263238"/><path d="M435.62,158.017a3.557,3.557,0,0,1-.582.488l-1.652,1.233c-1.4,1.03-3.35,2.435-5.513,3.97l-2.567,1.812-.209.147-.017-.26c-.124-1.927-.22-3.579-.276-4.75-.022-.54-.039-.994-.055-1.37a1.952,1.952,0,0,1,.013-.494,1.875,1.875,0,0,1,.082.487c.038.373.083.825.137,1.363.107,1.167.241,2.816.386,4.742l-.225-.113,2.557-1.826c2.163-1.536,4.131-2.912,5.564-3.894l1.706-1.15a3.506,3.506,0,0,1,.649-.387" transform="translate(-175.797 -62.101)" fill="#263238"/><path d="M400.514,215.676a1.246,1.246,0,0,1-.131-.263,4.2,4.2,0,0,1-.221-.824,20.709,20.709,0,0,1-.268-3.168c-.036-1.355,0-2.988.077-4.824s.142-3.885.223-6.074l.039.11a14.038,14.038,0,0,1-2.7-4.505,14.189,14.189,0,0,1-.861-4.064,17.62,17.62,0,0,1,.237-3.864,57.521,57.521,0,0,1,1.6-6.31,42.449,42.449,0,0,0,1.032-4.246c.186-1.016.227-1.59.261-1.586a2.1,2.1,0,0,1-.015.417c-.016.273-.05.676-.129,1.189a36.059,36.059,0,0,1-.942,4.288,61.936,61.936,0,0,0-1.53,6.3,17.554,17.554,0,0,0-.216,3.8,14.11,14.11,0,0,0,3.477,8.382l.042.047,0,.063c-.095,2.188-.184,4.232-.264,6.074-.1,1.834-.154,3.457-.144,4.808a23.8,23.8,0,0,0,.18,3.153,7.625,7.625,0,0,0,.252,1.1" transform="translate(-164.169 -69.192)" fill="#263238"/><path d="M417.754,212.653a2.458,2.458,0,0,1-.049-.446c-.02-.324-.047-.75-.08-1.282-.066-1.113-.131-2.725-.186-4.719-.112-3.986-.132-9.5.114-15.581s.72-11.575,1.156-15.538c.217-1.981.414-3.582.57-4.685q.115-.79.184-1.27a2.449,2.449,0,0,1,.085-.44,2.486,2.486,0,0,1-.024.448c-.032.323-.074.747-.127,1.277l-.474,4.694c-.381,3.965-.815,9.452-1.065,15.527s-.26,11.58-.2,15.563c.038,1.966.068,3.57.09,4.719.009.533.016.96.022,1.284a2.471,2.471,0,0,1-.013.449" transform="translate(-172.74 -66.297)" fill="#263238"/><path d="M450.53,163.458c0,.06-.784-.05-2.012.148a8.741,8.741,0,0,0-4.339,2.043,9.236,9.236,0,0,0-2.629,4.118c-.381,1.225-.4,2.04-.457,2.034a1.812,1.812,0,0,1-.01-.569,7.758,7.758,0,0,1,.26-1.53,8.873,8.873,0,0,1,2.637-4.293,8.37,8.37,0,0,1,4.508-2.024,7.069,7.069,0,0,1,1.5-.027,1.642,1.642,0,0,1,.542.1" transform="translate(-182.554 -64.19)" fill="#263238"/><path d="M462.954,223.067a10.664,10.664,0,0,0-2.4-1.619,10.344,10.344,0,0,0-2.8-.6,1.761,1.761,0,0,1,.86-.127,5.381,5.381,0,0,1,2.057.437,5.532,5.532,0,0,1,1.755,1.193c.382.4.551.7.523.719" transform="translate(-189.46 -86.744)" fill="#263238"/><path d="M439.02,213.579c.008.02-.138.1-.41.228a8.842,8.842,0,0,1-1.189.445,12.576,12.576,0,0,1-8.224-.346,8.846,8.846,0,0,1-1.15-.544c-.261-.15-.4-.242-.39-.261.023-.049.614.251,1.613.594a14.2,14.2,0,0,0,8.1.341c1.023-.257,1.635-.507,1.655-.456" transform="translate(-177.001 -83.748)" fill="#263238"/></g></g></g></g><path d="M221.574,236.778l-20.935,6.31a1.182,1.182,0,0,0-.468,1.957l14.285,14.292a1.109,1.109,0,0,0,1.849-.469l6.651-20.6a1.147,1.147,0,0,0-1.381-1.488" transform="translate(753.31 3964.865)" fill="#fc8116"/></g></g></svg>