<svg xmlns="http://www.w3.org/2000/svg" xmlns:xlink="http://www.w3.org/1999/xlink" width="270.723" height="222.901" viewBox="0 0 270.723 222.901"><defs><clipPath id="a"><rect width="217.912" height="218.535" fill="none"/></clipPath><clipPath id="d"><rect width="32.917" height="18.716" fill="none"/></clipPath><clipPath id="f"><rect width="2.591" height="9.333" fill="none"/></clipPath><clipPath id="g"><rect width="8.067" height="10.714" fill="none"/></clipPath><clipPath id="h"><rect width="2.229" height="24.182" fill="none"/></clipPath><clipPath id="i"><rect width="1.51" height="1.596" fill="none"/></clipPath></defs><g transform="translate(2257.274 7074.988)"><g transform="translate(-2257.274 -7074.988)"><g transform="translate(0)"><g transform="translate(0 0)"><circle cx="105.068" cy="105.068" r="105.068" transform="translate(0 0)" fill="#fdab64"/><ellipse cx="112.256" cy="8.715" rx="112.256" ry="8.715" transform="translate(46.21 205.471)" fill="#fc8116"/><line y2="17.435" transform="translate(97.433 128.508)" fill="#003889"/><circle cx="8.402" cy="8.402" r="8.402" transform="translate(170.364 33.775) rotate(-45)" fill="#fc8116"/></g></g><g transform="translate(28.616)"><g clip-path="url(#a)"><g clip-path="url(#a)"><path d="M341.476,1.685l-2.554,26.89a1.721,1.721,0,0,0,1.357,1.934l43.065,6.509a1.735,1.735,0,0,0,1.888-1.557l3.139-20.767a1.734,1.734,0,0,0-1.354-2.047L360.5,8.835a1.553,1.553,0,0,1-1.066-.691L355.6,2.394a1.551,1.551,0,0,0-1.055-.69L343.378.016a1.749,1.749,0,0,0-1.9,1.669" transform="translate(-173.852 0)" fill="#94a70e"/><rect width="31.7" height="47.589" transform="translate(163.477 33.974) rotate(-81.405)" fill="#f5f5f5"/><path d="M335.408,8.8l-1.348,33.23a1.1,1.1,0,0,0,.878,1.173l45.857,6.93a1.1,1.1,0,0,0,1.2-.911l7.249-32.337a1.127,1.127,0,0,0-.847-1.406L336.635,7.655A1.133,1.133,0,0,0,335.408,8.8" transform="translate(-171.362 -3.921)" fill="#b0c710"/><path d="M182.394,346.935l-5.821,18.677a1.278,1.278,0,0,0,.726,1.6l31.048,11.7a1.284,1.284,0,0,0,1.63-.8l5.362-14.232a1.283,1.283,0,0,0-.708-1.676l-19.143-7.063a1.211,1.211,0,0,1-.691-.666l-2.013-4.715a1.209,1.209,0,0,0-.684-.663l-8.05-3.033a1.289,1.289,0,0,0-1.656.872" transform="translate(-90.544 -177.48)" fill="#529d2e"/><rect width="22.955" height="36.252" transform="matrix(0.353, -0.936, 0.936, 0.353, 84.057, 191.703)" fill="#f5f5f5"/><path d="M175.988,350.686l-5.849,23.377a.818.818,0,0,0,.481.977L203.68,387.5a.821.821,0,0,0,1.022-.45l10.1-21.774a.83.83,0,0,0-.424-1.138l-37.315-14.059a.832.832,0,0,0-1.079.61" transform="translate(-87.262 -179.553)" fill="#529d2e"/><path d="M15.376,25.4l1.306,21.163A1.429,1.429,0,0,0,18.109,47.9h38.1a1.429,1.429,0,0,0,1.429-1.429V29.995A1.43,1.43,0,0,0,56.2,28.565l-23.431.151a1.428,1.428,0,0,1-1.012-.411l-4.073-4.011a1.428,1.428,0,0,0-1-.411H16.8A1.429,1.429,0,0,0,15.376,25.4" transform="translate(-7.886 -12.251)" fill="#94a70e"/><rect width="41.628" height="24.875" transform="translate(8.123 13.813)" fill="#f5f5f5"/><path d="M9.873,31.859,13.051,57.8a.919.919,0,0,0,.912.807H54.532a.919.919,0,0,0,.916-.847l2.043-25.94a.919.919,0,0,0-.917-.992H10.785a.919.919,0,0,0-.912,1.031" transform="translate(-5.061 -15.814)" fill="#b0c710"/><path d="M11.93,274.131s-3.087-.222-2.8,6.7a80.212,80.212,0,0,0,.991,10.613s-.091,1.536-1.28,1.234-3.426-1.8-4.531-.678c-1.146,1.158-.738,2.935.782,5.028s4.681,6.8,4.966,7.227.391,1.2-.452,1.129-6.533-2-7.286.751,4.439,7.889,5,8.462.586.934.361,1.279-2.078-.482-3.718-.964-3.628-.753-3.929.872,1.985,6.383,10.55,11.383l4.12,2.057,3.9-2.488c8.021-5.832,9.821-10.794,9.358-12.381s-2.413-1.119-4-.475-3.343,1.653-3.6,1.332-.266-.684.231-1.309,5.149-6.253,4.124-8.919-6.494-.177-7.324-.018-.8-.633-.563-1.078,2.915-5.453,4.218-7.687,1.531-4.043.275-5.081c-1.211-1-3.287.71-4.44,1.128s-1.4-1.1-1.4-1.1A80.2,80.2,0,0,0,15.4,280.49c-.41-6.918-3.533-6.36-3.533-6.36" transform="translate(0 -140.615)" fill="#529d2e"/><path d="M25,286.876s.008.049.016.145.019.243.033.425c.026.381.063.931.111,1.635.094,1.42.216,3.476.357,6.017.282,5.082.612,12.106.951,19.864s.652,14.785.905,19.868c.129,2.536.234,4.591.306,6.019l.081,1.636c.008.182.013.323.017.426s0,.145,0,.145-.008-.049-.017-.144-.019-.244-.032-.425c-.026-.381-.064-.931-.112-1.635-.094-1.42-.216-3.476-.357-6.017-.282-5.082-.612-12.106-.951-19.867s-.652-14.782-.906-19.865c-.129-2.536-.233-4.591-.306-6.02l-.081-1.637c-.007-.182-.013-.323-.017-.426s0-.146,0-.146" transform="translate(-12.821 -147.158)" fill="#e0e0e0"/><path d="M15.1,315.386a1.364,1.364,0,0,1,.256.213c.159.144.381.359.654.628.544.539,1.275,1.3,2.066,2.16l2.015,2.2.613.665a1.371,1.371,0,0,1,.215.255,1.4,1.4,0,0,1-.258-.212c-.158-.144-.381-.36-.651-.631-.539-.544-1.259-1.317-2.05-2.175l-2.03-2.189-.617-.662a1.354,1.354,0,0,1-.213-.257" transform="translate(-7.744 -161.783)" fill="#e0e0e0"/><path d="M27.883,320.379c-.031-.031,1.476-1.609,3.365-3.524s3.447-3.444,3.478-3.413-1.476,1.608-3.365,3.524-3.446,3.444-3.477,3.413" transform="translate(-14.303 -160.785)" fill="#e0e0e0"/><path d="M27.849,347.455a1.419,1.419,0,0,1,.287-.183l.806-.452c.68-.382,1.617-.913,2.63-1.536s1.915-1.214,2.563-1.648l.769-.513a1.392,1.392,0,0,1,.293-.173,1.429,1.429,0,0,1-.257.223c-.172.135-.424.326-.741.555-.633.458-1.525,1.068-2.543,1.69s-1.966,1.142-2.66,1.5c-.348.177-.632.318-.83.409a1.429,1.429,0,0,1-.316.128" transform="translate(-14.285 -175.922)" fill="#e0e0e0"/><path d="M13.834,343.62a1.205,1.205,0,0,1,.285.134c.178.094.433.237.747.415.627.356,1.488.858,2.434,1.421s1.8,1.079,2.411,1.461c.306.19.553.347.721.458a1.24,1.24,0,0,1,.254.187,1.21,1.21,0,0,1-.285-.134c-.178-.095-.433-.237-.747-.415-.627-.357-1.488-.859-2.434-1.421s-1.8-1.079-2.41-1.46c-.306-.19-.553-.347-.721-.458a1.19,1.19,0,0,1-.254-.187" transform="translate(-7.096 -176.266)" fill="#e0e0e0"/><path d="M11.054,365.258a1.992,1.992,0,0,1,.362.175l.959.529c.806.453,1.915,1.087,3.134,1.8s2.319,1.359,3.111,1.837l.934.572a1.987,1.987,0,0,1,.331.228,1.963,1.963,0,0,1-.362-.175l-.959-.529c-.806-.452-1.915-1.087-3.134-1.8s-2.318-1.359-3.11-1.837l-.934-.572a2,2,0,0,1-.332-.228" transform="translate(-5.67 -187.365)" fill="#e0e0e0"/><path d="M28.824,369.148a2.29,2.29,0,0,1,.358-.24l1-.61c.845-.515,2.01-1.23,3.274-2.055s2.393-1.6,3.2-2.164l.963-.669a2.248,2.248,0,0,1,.364-.231,2.259,2.259,0,0,1-.328.28c-.217.172-.536.416-.934.71-.8.59-1.916,1.381-3.184,2.205s-2.443,1.528-3.3,2.019c-.431.244-.782.438-1.028.567a2.232,2.232,0,0,1-.389.187" transform="translate(-14.786 -186.3)" fill="#e0e0e0"/><path d="M29.533,390.034h-11.4l3.72,28.161h3.958Z" transform="translate(-9.303 -200.075)" fill="#455a64"/><path d="M19.348,395.919s.013.04.061.1a.72.72,0,0,0,.275.2,1.379,1.379,0,0,0,1.2-.148,9.157,9.157,0,0,1,1.478-.973,3.234,3.234,0,0,1,2.1.041,8.977,8.977,0,0,1,1.952.946,13.556,13.556,0,0,0,1.587.851,4.371,4.371,0,0,0,1.17.338,2.129,2.129,0,0,0,.331.022c.075,0,.115,0,.115-.01a5.928,5.928,0,0,1-1.563-.471,15.536,15.536,0,0,1-1.552-.879,8.7,8.7,0,0,0-1.985-.977,3.346,3.346,0,0,0-2.212-.024,2.9,2.9,0,0,0-.833.515,6.485,6.485,0,0,1-.653.506,1.339,1.339,0,0,1-1.11.193,1.138,1.138,0,0,1-.361-.229" transform="translate(-9.925 -202.498)" fill="#f5f5f5"/><path d="M20.2,405.615c.015.009.09-.116.268-.3a2.528,2.528,0,0,1,.911-.578,4.061,4.061,0,0,1,1.585-.239,16.563,16.563,0,0,1,1.983.27,6.832,6.832,0,0,0,2.031.084,5.591,5.591,0,0,0,1.6-.456,5.069,5.069,0,0,0,.961-.571,1.364,1.364,0,0,0,.3-.274,10.128,10.128,0,0,1-1.318.725,5.825,5.825,0,0,1-1.566.407,7,7,0,0,1-1.981-.1,14.96,14.96,0,0,0-2.008-.258,4.016,4.016,0,0,0-1.64.288,2.391,2.391,0,0,0-.915.651,1.663,1.663,0,0,0-.172.252c-.033.062-.048.095-.042.1" transform="translate(-10.362 -207.007)" fill="#f5f5f5"/><path d="M29.982,412.665a.967.967,0,0,0-.314-.163,3.361,3.361,0,0,0-.944-.2,6.052,6.052,0,0,0-1.428.082c-.531.086-1.1.233-1.7.36a7.173,7.173,0,0,1-1.7.192,3.7,3.7,0,0,1-1.348-.292,3.115,3.115,0,0,1-1.022-.761.887.887,0,0,0,.193.3,2.415,2.415,0,0,0,.774.582,3.635,3.635,0,0,0,1.4.343,6.862,6.862,0,0,0,1.744-.181c.6-.129,1.17-.28,1.69-.373a6.507,6.507,0,0,1,1.391-.119,5.224,5.224,0,0,1,1.266.234" transform="translate(-11.043 -211.281)" fill="#f5f5f5"/><path d="M22.271,420.814a1.846,1.846,0,0,1,1.107-.111,5.366,5.366,0,0,1,1.158.432,4.4,4.4,0,0,0,1.5.414,4.506,4.506,0,0,0,2.727-.632,3.9,3.9,0,0,0,.678-.522c.139-.148.21-.233.2-.242a9.94,9.94,0,0,1-.945.65,4.677,4.677,0,0,1-2.645.56c-1.079-.061-1.907-.705-2.655-.79a1.7,1.7,0,0,0-.86.074.566.566,0,0,0-.268.167" transform="translate(-11.424 -215.525)" fill="#f5f5f5"/><path d="M23.574,430.952a2.18,2.18,0,0,0,.95-.189c.573-.191,1.282-.631,2.11-.959a3.434,3.434,0,0,1,1.211-.254,2.232,2.232,0,0,1,.974.222,2.157,2.157,0,0,1,.7.608.519.519,0,0,0-.108-.241,1.567,1.567,0,0,0-.534-.483,2.234,2.234,0,0,0-1.033-.278,3.391,3.391,0,0,0-1.28.251c-.858.342-1.544.794-2.092,1.011-.541.233-.907.281-.9.311" transform="translate(-12.093 -220.257)" fill="#f5f5f5"/><path d="M24.722,437.767a2.647,2.647,0,0,0,.722.234,13.276,13.276,0,0,0,3.633.357,2.666,2.666,0,0,0,.753-.089c0-.056-1.155-.007-2.564-.149s-2.53-.408-2.544-.353" transform="translate(-12.682 -224.557)" fill="#f5f5f5"/></g><rect width="161.612" height="142.127" transform="translate(33.911 22.791)" fill="#fff"/><g clip-path="url(#a)"><path d="M231.105,188.79c0-.9-.043-56.582-.107-142.127l.107.108-161.6.019h-.015l.127-.127c-.006,51.654-.011,100.292-.015,142.127l-.112-.112,161.612.112L69.494,188.9h-.112v-.112c0-41.836-.009-90.473-.015-142.127v-.127h.141l161.6.019h.107v.107c-.064,85.545-.107,141.224-.107,142.127" transform="translate(-35.583 -23.872)" fill="#263238"/><path d="M140.917,119.116v25.49H171.9v-25.49a2.2,2.2,0,0,0-2.2-2.2H143.114a2.2,2.2,0,0,0-2.2,2.2" transform="translate(-72.286 -59.976)" fill="#529d2e"/><path d="M128.129,190.947l6.921-19.036,30.284.9-4.514,17.362a1.536,1.536,0,0,1-1.519,1.148l-7.844-.167-1.287,1.829a1.729,1.729,0,0,1-1.487.732l-18.955-.8a1.7,1.7,0,0,1-1.6-1.973" transform="translate(-65.719 -88.185)" fill="#529d2e"/><path d="M144.325,126.128v19.948l27.232,1.5-.12-21.447Z" transform="translate(-74.034 -64.7)" fill="#f5f5f5"/><path d="M144.216,126.007a.745.745,0,0,1,.121-.007l.371-.006,1.458-.014,5.537-.031,19.625-.056h.113v.114c.038,6.218.082,13.3.129,20.776,0,.226,0,.452,0,.672v.135l-.134-.008-27.231-1.523-.1-.006v-.1c.018-6.05.034-11.034.044-14.517.013-1.732.023-3.091.03-4.029q.011-.679.017-1.052c0-.235.012-.35.012-.35s.007.13.012.37.009.6.017,1.054c.007.932.017,2.284.03,4.007.011,3.483.026,8.467.044,14.517l-.1-.1,27.233,1.475-.134.128c0-.22,0-.446,0-.672-.038-7.479-.073-14.558-.1-20.776l.114.113-19.551-.057-5.563-.03-1.481-.014-.384-.006a1.092,1.092,0,0,1-.134-.007" transform="translate(-73.925 -64.579)" fill="#263238"/><path d="M147.249,132.634c.024-.664,0-3.517,0-3.517,7.613-.024,16.14.03,23.753.007.213,3.767.258,8.854.471,12.621" transform="translate(-75.534 -66.23)" fill="#ebebeb"/><path d="M171.4,141.623a1.092,1.092,0,0,1-.032-.238c-.014-.178-.032-.406-.054-.692-.042-.6-.089-1.488-.136-2.6-.1-2.23-.166-5.389-.366-9.081l.118.111-7.319.007c-6.825,0-12.849-.025-16.434-.059l.072-.073c-.014,1.093-.025,1.967-.034,2.593-.007.284-.014.511-.019.688a1.11,1.11,0,0,1-.019.236,1.088,1.088,0,0,1-.019-.238c0-.176-.011-.4-.019-.688-.008-.626-.019-1.5-.034-2.591v-.072h.073c3.585-.032,9.609-.053,16.434-.051l7.319.011h.113l.006.112c.183,3.7.211,6.859.275,9.09.029,1.1.052,1.974.069,2.6.007.286.012.515.016.693a1.105,1.105,0,0,1-.007.24" transform="translate(-75.457 -66.108)" fill="#e0e0e0"/><path d="M135.779,136.434l5.619,16.383h25.775l-3.851-16.471Z" transform="translate(-69.65 -69.941)" fill="#fff"/><path d="M135.779,136.31a.928.928,0,0,1,.124-.006l.381-.007,1.5-.018,5.666-.049,19.875-.127h.094l.021.092,3.7,15.8.156.666.037.156h-.16l-25.775-.026h-.073l-.023-.068-4.054-12c-.473-1.412-.843-2.517-1.1-3.283l-.282-.852c-.062-.191-.088-.285-.088-.285s.042.106.114.3l.307.867,1.156,3.293,4.137,11.888-.095-.068,25.775-.026-.123.155-.156-.666c-1.305-5.6-2.552-10.94-3.686-15.807l.115.091H143.539l-5.7-.013-1.525-.008-.4,0a1.346,1.346,0,0,1-.14-.005" transform="translate(-69.65 -69.817)" fill="#263238"/><g transform="translate(64.706 83.115)" opacity="0.3"><g clip-path="url(#d)"><path d="M165.644,170.76a.692.692,0,0,0-.643-.048,101.486,101.486,0,0,0-28.525,12.425l-3.617,4.185a2.785,2.785,0,0,0,2.287.9l12.145.791c2.824.184,5.651.368,8.48.358,1.679-.005,3.516-.143,4.74-1.292A6.744,6.744,0,0,0,162,185.549a63.216,63.216,0,0,0,3.76-14.174.688.688,0,0,0-.112-.615" transform="translate(-132.859 -170.657)"/></g></g><path d="M139.726,171.46l-7.206,15.581,27.049.541,5.933-17.416Z" transform="translate(-67.979 -87.29)" fill="#f5f5f5"/><path d="M139.563,171.329a.625.625,0,0,1,.117-.014l.356-.026,1.393-.086,5.279-.3,18.626-.987.169-.009-.055.161-5.921,17.42-.03.088-.093,0h0l-27.043-.567-.154,0,.065-.139,5.307-11.363,1.465-3.105.386-.8c.088-.18.137-.266.137-.266s-.038.1-.12.291l-.369.827-1.424,3.141-5.2,11.363-.089-.142,27.044.514h.005l-.123.086L165.229,170l.114.152-18.577.882-5.3.234-1.411.055-.365.01a.826.826,0,0,1-.128,0" transform="translate(-67.815 -87.159)" fill="#263238"/><path d="M138.837,170.166l-7.817,8.607,26.871.2,6.721-8.809Z" transform="translate(-67.209 -87.29)" fill="#fafafa"/><path d="M138.62,170.039a.543.543,0,0,1,.12-.01l.363-.009,1.417-.018,5.334-.035,18.541-.049h.243l-.148.194-6.716,8.813-.038.051h-.063l-.819-.006-26.051-.232-.206,0,.138-.151,5.762-6.28,1.57-1.692.41-.433a1.214,1.214,0,0,1,.143-.14,1.408,1.408,0,0,1-.132.164l-.4.457-1.541,1.732-5.677,6.315-.067-.153,26.052.161.819.006-.1.05,6.726-8.806.1.193-18.5-.049-5.348-.035-1.431-.018-.371-.009a.691.691,0,0,1-.129-.01" transform="translate(-66.992 -87.163)" fill="#263238"/><path d="M142.9,147.189,140.59,140h23.951l3.356,13.149" transform="translate(-72.118 -71.815)" fill="#f5f5f5"/><path d="M167.76,153.014a1.3,1.3,0,0,1-.082-.243l-.2-.714-.722-2.7-2.463-9.466.112.088-8.965.011-14.986-.033.09-.123c.69,2.207,1.252,4,1.648,5.271l.435,1.44.107.377a.522.522,0,0,1,.028.132.464.464,0,0,1-.054-.123l-.133-.369-.484-1.425-1.728-5.245-.04-.123h.131l14.986-.032,8.965.01h.091l.022.087,2.374,9.489.658,2.714.166.723a1.31,1.31,0,0,1,.045.252" transform="translate(-71.981 -71.681)" fill="#263238"/><path d="M168.33,151.115a3.714,3.714,0,0,0-1.22-.757,2.9,2.9,0,0,0-2.588.776c-.721.6-1.3,1.365-2.068,1.908l8.4.136-2.523-2.064" transform="translate(-83.334 -77.087)" fill="#fff"/><path d="M180.605,146.043c-.3-.451-1.3-1.013-1.96-.595h0a1.288,1.288,0,0,0-.833.986,1.537,1.537,0,0,0,2.682,1.125,1.3,1.3,0,0,0,.108-1.516" transform="translate(-91.208 -74.535)" fill="#fff"/><path d="M138.581,162.265l-8.059-7.5,26.378.214,7.576,7.287Z" transform="translate(-66.954 -79.389)" fill="#fafafa"/><path d="M138.336,162.168a.647.647,0,0,1,.13-.01l.374-.01,1.442-.019,5.383-.035,18.568-.048-.084.208-7.58-7.284.087.036-.489,0-25.889-.246.062-.156,5.859,5.511,1.591,1.513.412.4a1.284,1.284,0,0,1,.137.144,1.115,1.115,0,0,1-.147-.12l-.422-.376-1.616-1.471-5.936-5.467-.171-.158h.234l25.89.173.489,0h.051l.037.035,7.572,7.292.217.209h-.3l-18.608-.048-5.37-.035-1.428-.019-.367-.01a.555.555,0,0,1-.122-.01" transform="translate(-66.708 -79.292)" fill="#263238"/><line x2="17.291" transform="translate(70.475 78.259)" fill="#fafafa"/><path d="M161.994,160.552c0,.07-3.871.127-8.645.127s-8.646-.057-8.646-.127,3.87-.127,8.646-.127,8.645.056,8.645.127" transform="translate(-74.228 -82.293)" fill="#263238"/><line x2="17.291" transform="translate(72.387 80.042)" fill="#fafafa"/><path d="M165.92,164.214c0,.07-3.871.127-8.645.127s-8.646-.056-8.646-.127,3.87-.127,8.646-.127,8.645.057,8.645.127" transform="translate(-76.242 -84.171)" fill="#263238"/><line x2="17.291" transform="translate(74.105 81.76)" fill="#fafafa"/><path d="M169.448,167.742c0,.07-3.871.127-8.645.127s-8.646-.056-8.646-.127,3.87-.127,8.646-.127,8.645.056,8.645.127" transform="translate(-78.052 -85.981)" fill="#263238"/><line x2="17.845" transform="translate(71.395 88.651)" fill="#fafafa"/><path d="M164.437,181.889c0,.07-4,.127-8.922.127s-8.923-.057-8.923-.127,3.994-.127,8.923-.127,8.922.057,8.922.127" transform="translate(-75.197 -93.238)" fill="#263238"/><line x2="17.845" transform="translate(73.426 86.62)" fill="#fafafa"/><path d="M168.608,177.719c0,.07-4,.127-8.922.127s-8.923-.056-8.923-.127,3.994-.127,8.923-.127,8.922.057,8.922.127" transform="translate(-77.337 -91.099)" fill="#263238"/><path d="M233.607,76.594c0,.07-35.882.127-80.135.127-44.268,0-80.142-.056-80.142-.127s35.874-.127,80.142-.127c44.253,0,80.135.056,80.135.127" transform="translate(-37.616 -39.225)" fill="#263238"/><path d="M88.716,61.318a1.659,1.659,0,1,1-1.658-1.658,1.658,1.658,0,0,1,1.658,1.658" transform="translate(-43.807 -30.604)" fill="#fcd03e"/><path d="M99.9,61.318a1.659,1.659,0,1,1-1.659-1.658A1.659,1.659,0,0,1,99.9,61.318" transform="translate(-49.542 -30.604)" fill="#529d2e"/><path d="M111.077,61.318a1.659,1.659,0,1,1-1.658-1.658,1.658,1.658,0,0,1,1.658,1.658" transform="translate(-55.277 -30.604)" fill="#529d2e"/><path d="M214.871,64.63l-.006-2.525-1.238,2.08h-.439l-1.232-2.026V64.63h-.914V60.422h.806l1.575,2.615,1.551-2.615h.8l.012,4.208Z" transform="translate(-108.258 -30.995)" fill="#263238"/><path d="M225.387,62.422l-1.461,3.433a1.336,1.336,0,0,1-1.341,1.016,1.435,1.435,0,0,1-.9-.295l.343-.667a.831.831,0,0,0,.529.2c.259,0,.4-.114.529-.4l.012-.03-1.4-3.258h.968l.908,2.194.914-2.194Z" transform="translate(-113.717 -32.021)" fill="#263238"/><path d="M238.176,61.2v1.112h1.948V63.1h-1.948V64.63H237.2V60.422h3.18V61.2Z" transform="translate(-121.677 -30.995)" fill="#263238"/><path d="M244.6,59.871a.536.536,0,0,1,.583-.523.526.526,0,0,1,.583.505.586.586,0,0,1-1.166.018m.114.974h.938V64.08h-.938Z" transform="translate(-125.471 -30.444)" fill="#263238"/><rect width="0.938" height="4.461" transform="translate(121.05 29.175)" fill="#263238"/><path d="M255.162,64.253h-2.447a.863.863,0,0,0,.926.649,1.094,1.094,0,0,0,.811-.313l.5.542a1.888,1.888,0,0,1-3.18-1.143,1.646,1.646,0,0,1,1.725-1.665A1.6,1.6,0,0,1,255.18,64c0,.072-.013.174-.018.253m-2.459-.547H254.3a.808.808,0,0,0-1.593,0" transform="translate(-129.151 -31.97)" fill="#263238"/><path d="M259.413,65.305l.313-.674a2.211,2.211,0,0,0,1.124.313c.433,0,.6-.114.6-.295,0-.529-1.954.012-1.954-1.28,0-.613.553-1.046,1.5-1.046a2.654,2.654,0,0,1,1.244.283l-.312.667a1.856,1.856,0,0,0-.932-.241c-.421,0-.6.132-.6.3,0,.553,1.954.018,1.954,1.293,0,.6-.56,1.028-1.527,1.028a2.778,2.778,0,0,1-1.4-.349" transform="translate(-133.071 -31.97)" fill="#263238"/><path d="M336.971,94.476a1.957,1.957,0,0,0,.271-.054.934.934,0,0,0,.566-.532,1.392,1.392,0,0,0,.063-.584q0-.335-.006-.729c0-.528-.007-1.135-.012-1.818s-.007-1.445-.011-2.276c0-.206,0-.426-.007-.632a.874.874,0,0,0-.263-.545.855.855,0,0,0-.578-.24h-.714l-6.6.019-38.215.037a.81.81,0,0,0-.8.744q0,.69,0,1.377,0,1.382,0,2.745,0,.681,0,1.358a1.041,1.041,0,0,0,.1.592.8.8,0,0,0,.437.364.869.869,0,0,0,.288.046h2.327l10.147.007,17.181.027,11.583.04,3.149.024.819.012c.185,0,.279.013.279.013s-.095.009-.279.013l-.819.013-3.149.023-11.583.04-17.181.027-10.147.007h-2.327a1.124,1.124,0,0,1-.371-.059,1.055,1.055,0,0,1-.573-.478,1.3,1.3,0,0,1-.138-.716V91.991q0-1.363,0-2.745,0-.7,0-1.4a1.065,1.065,0,0,1,1.057-.978l38.215.037,6.6.019.718,0a.988.988,0,0,1,.665.282,1,1,0,0,1,.3.628c.008.227,0,.432,0,.643,0,.831-.008,1.591-.011,2.276s-.008,1.29-.012,1.818q0,.394-.006.729a1.43,1.43,0,0,1-.079.6.95.95,0,0,1-.606.537.73.73,0,0,1-.279.029" transform="translate(-148.968 -44.562)" fill="#e0e0e0"/><path d="M296.719,94.526l.126-.265a1.227,1.227,0,0,0,.786.276c.412,0,.589-.16.589-.368,0-.582-1.443-.214-1.443-1.1,0-.368.286-.681.912-.681a1.4,1.4,0,0,1,.766.211l-.112.272a1.234,1.234,0,0,0-.654-.194c-.405,0-.579.17-.579.378,0,.582,1.443.218,1.443,1.092,0,.364-.293.677-.922.677a1.416,1.416,0,0,1-.912-.3" transform="translate(-152.207 -47.392)" fill="#e0e0e0"/><path d="M302.857,94.626h-1.464a.611.611,0,0,0,.654.527.674.674,0,0,0,.521-.218l.18.211a.983.983,0,0,1-1.681-.63.883.883,0,0,1,.9-.919.87.87,0,0,1,.892.929c0,.027,0,.068-.007.1m-1.464-.235h1.157a.582.582,0,0,0-1.157,0" transform="translate(-154.438 -48.013)" fill="#e0e0e0"/><path d="M306.864,94.33v1.089h-.31V95.18a.67.67,0,0,1-.592.259c-.409,0-.667-.218-.667-.531,0-.289.187-.527.725-.527h.517v-.065c0-.276-.16-.435-.484-.435a.914.914,0,0,0-.572.194l-.136-.245a1.2,1.2,0,0,1,.745-.231c.494,0,.773.238.773.732m-.327.538v-.252h-.5c-.323,0-.415.126-.415.279,0,.18.15.293.4.293a.523.523,0,0,0,.521-.32" transform="translate(-156.607 -48.013)" fill="#e0e0e0"/><path d="M310.732,93.6v.317a.588.588,0,0,0-.076,0,.538.538,0,0,0-.568.609v.9h-.326v-1.8h.313v.3a.69.69,0,0,1,.658-.32" transform="translate(-158.898 -48.012)" fill="#e0e0e0"/><path d="M312.2,94.516a.9.9,0,0,1,.953-.919.805.805,0,0,1,.735.385l-.249.16a.562.562,0,0,0-.49-.259.635.635,0,0,0,0,1.27.562.562,0,0,0,.49-.259l.249.156a.808.808,0,0,1-.735.388.9.9,0,0,1-.953-.922" transform="translate(-160.149 -48.012)" fill="#e0e0e0"/><path d="M318.2,93.638v1.038h-.327v-1c0-.354-.177-.527-.487-.527a.536.536,0,0,0-.572.6v.929h-.327V92.151h.327v.977a.782.782,0,0,1,.637-.272.7.7,0,0,1,.749.783" transform="translate(-162.347 -47.271)" fill="#e0e0e0"/><path d="M320.93,96.651a.228.228,0,0,1,.232-.231.224.224,0,0,1,.224.231.226.226,0,0,1-.224.235.23.23,0,0,1-.232-.235" transform="translate(-164.627 -49.46)" fill="#e0e0e0"/><path d="M322.516,96.651a.228.228,0,0,1,.232-.231.224.224,0,0,1,.225.231.227.227,0,0,1-.225.235.23.23,0,0,1-.232-.235" transform="translate(-165.441 -49.46)" fill="#e0e0e0"/><path d="M324.1,96.651a.228.228,0,0,1,.232-.231.224.224,0,0,1,.225.231.227.227,0,0,1-.225.235.23.23,0,0,1-.232-.235" transform="translate(-166.255 -49.46)" fill="#e0e0e0"/><path d="M118.024,162.689a1.663,1.663,0,0,1-.139-.309c-.081-.206-.207-.509-.348-.906-.292-.79-.684-1.947-1.09-3.4a34.453,34.453,0,0,1-1.31-11.671,25.12,25.12,0,0,1,1.326-6.353,21.222,21.222,0,0,1,2.353-4.749,17.715,17.715,0,0,1,2.258-2.769c.29-.307.549-.51.711-.661a1.658,1.658,0,0,1,.263-.213,1.745,1.745,0,0,1-.228.251c-.15.163-.4.377-.675.693a19.408,19.408,0,0,0-2.179,2.8,21.78,21.78,0,0,0-2.282,4.728,25.484,25.484,0,0,0-1.294,6.295,35.738,35.738,0,0,0,1.23,11.6c.383,1.453.748,2.614,1.011,3.414l.3.92a1.711,1.711,0,0,1,.091.327" transform="translate(-59.023 -67.536)" fill="#263238"/><path d="M275.2,125.069v25.49h30.983v-25.49a2.2,2.2,0,0,0-2.2-2.2H277.4a2.2,2.2,0,0,0-2.2,2.2" transform="translate(-141.168 -63.029)" fill="#336e17"/><path d="M278.184,141.44l.206-9.358H305.5v5.339" transform="translate(-142.7 -67.754)" fill="#f5f5f5"/><path d="M305.484,137.287a2.09,2.09,0,0,1-.024-.364c-.005-.261-.013-.611-.022-1.051-.009-.941-.022-2.27-.038-3.924l.084.084-15.566.042-11.547-.021.106-.1c-.08,2.8-.147,5.137-.194,6.795-.03.8-.054,1.434-.071,1.894-.011.2-.02.367-.027.5a.668.668,0,0,1-.02.17.7.7,0,0,1-.013-.171c0-.131,0-.3,0-.5,0-.46.007-1.1.013-1.895.025-1.658.061-3.991.1-6.8v-.1h.1l11.547-.021,15.566.043h.085v.084c-.016,1.654-.029,2.983-.038,3.924-.009.441-.017.79-.022,1.051a2.067,2.067,0,0,1-.023.364" transform="translate(-142.682 -67.62)" fill="#263238"/><rect width="23.688" height="2.53" transform="translate(137.455 61.798)" fill="#f5f5f5"/><path d="M282.173,126.755a.476.476,0,0,1,.111-.009l.344-.009,1.343-.017,5.008-.037,16.881-.054h.127v.127c0,.806,0,1.662,0,2.528-.254.256-.075.071-.133.128h-3.859l-3.69,0-6.686-.015-9.446-.053h-.055v-.054q.02-1.222.03-1.9c.005-.2.01-.355.013-.478a.788.788,0,0,1,.01-.154,1.276,1.276,0,0,1,.011.173c0,.125.007.286.013.489q.01.663.03,1.866l-.054-.054,9.446-.053,6.686-.015,3.69,0h3.859c-.055.056.133-.125-.12.126,0-.866,0-1.722,0-2.528l.126.126-16.789-.054-5.037-.037-1.372-.018-.36-.008a.808.808,0,0,1-.129-.009" transform="translate(-144.718 -64.956)" fill="#263238"/><path d="M308.673,192.685c0,.07-5.92.127-13.221.127s-13.222-.056-13.222-.127,5.919-.127,13.222-.127,13.221.056,13.221.127" transform="translate(-144.775 -98.776)" fill="#263238"/><path d="M270.291,139.934l2.383,18.444h30.983V140.517H289.586l-2.729-2.4H271.889a1.612,1.612,0,0,0-1.6,1.818" transform="translate(-138.644 -70.849)" fill="#529d2e"/><path d="M305.343,157.744c0,.07-3.393.127-7.578.127s-7.578-.056-7.578-.127,3.393-.127,7.578-.127,7.578.057,7.578.127" transform="translate(-148.857 -80.853)" fill="#263238"/><path d="M305.343,161.47c0,.07-3.393.127-7.578.127s-7.578-.056-7.578-.127,3.393-.127,7.578-.127,7.578.057,7.578.127" transform="translate(-148.857 -82.764)" fill="#263238"/><path d="M131.02,238.747v25.49H162v-25.49a2.2,2.2,0,0,0-2.2-2.2H133.217a2.2,2.2,0,0,0-2.2,2.2" transform="translate(-67.209 -121.343)" fill="#336e17"/><path d="M134.007,255.118l.206-9.358h27.113V251.1" transform="translate(-68.741 -126.067)" fill="#f5f5f5"/><path d="M161.306,250.966a2.09,2.09,0,0,1-.024-.364c-.005-.261-.013-.611-.022-1.051-.009-.941-.022-2.27-.038-3.924l.084.084-15.566.042-11.547-.021.106-.1c-.08,2.8-.147,5.137-.194,6.795-.03.8-.054,1.434-.071,1.894-.011.2-.019.367-.027.5a.668.668,0,0,1-.02.17.7.7,0,0,1-.013-.171c0-.131,0-.3,0-.5,0-.46.007-1.1.013-1.895.025-1.658.061-3.991.1-6.8v-.1h.1l11.547-.021,15.566.043h.085v.084c-.016,1.654-.029,2.983-.038,3.924-.009.441-.017.79-.022,1.051a2.089,2.089,0,0,1-.024.364" transform="translate(-68.723 -125.934)" fill="#263238"/><rect width="23.687" height="2.53" transform="translate(67.236 117.163)" fill="#336e17"/><path d="M138,240.434a.475.475,0,0,1,.111-.009l.344-.009,1.343-.017,5.008-.037,16.881-.054h.126v.127c0,.806,0,1.662,0,2.528-.254.256-.075.071-.133.128h-3.859l-3.69,0-6.685-.015L138,243.017h-.055v-.054q.02-1.222.03-1.9c.005-.2.01-.355.013-.478a.809.809,0,0,1,.011-.154,1.276,1.276,0,0,1,.011.173c0,.125.007.286.013.489q.01.663.03,1.866l-.054-.054,9.446-.053,6.685-.015,3.69,0h3.859c-.055.056.133-.125-.12.126,0-.866,0-1.722,0-2.528l.126.126-16.789-.054-5.037-.038-1.372-.018-.36-.008a.81.81,0,0,1-.129-.009" transform="translate(-70.759 -123.27)" fill="#263238"/><path d="M164.5,306.364c0,.07-5.92.127-13.221.127s-13.222-.056-13.222-.127,5.918-.127,13.222-.127,13.221.056,13.221.127" transform="translate(-70.817 -157.09)" fill="#263238"/><path d="M126.114,253.613l2.383,18.444H159.48V254.2H145.408l-2.729-2.4H127.712a1.611,1.611,0,0,0-1.6,1.818" transform="translate(-64.685 -129.163)" fill="#529d2e"/><path d="M161.166,271.423c0,.07-3.393.127-7.578.127s-7.578-.056-7.578-.127,3.393-.127,7.578-.127,7.578.056,7.578.127" transform="translate(-74.899 -139.166)" fill="#263238"/><path d="M161.166,275.148c0,.07-3.393.127-7.578.127s-7.578-.056-7.578-.127,3.393-.127,7.578-.127,7.578.056,7.578.127" transform="translate(-74.899 -141.077)" fill="#263238"/><path d="M283.1,238.78v25.49h30.983V238.78a2.2,2.2,0,0,0-2.2-2.2H285.3a2.2,2.2,0,0,0-2.2,2.2" transform="translate(-145.223 -121.36)" fill="#336e17"/><path d="M286.091,255.151l.206-9.358h27.113v5.339" transform="translate(-146.756 -126.084)" fill="#f5f5f5"/><path d="M313.39,251a2.089,2.089,0,0,1-.024-.364c-.005-.261-.013-.611-.022-1.051-.009-.941-.022-2.27-.038-3.924l.084.084-15.566.042-11.547-.021.106-.1c-.08,2.8-.147,5.137-.194,6.795-.03.8-.054,1.434-.071,1.894-.011.2-.02.367-.027.5a.673.673,0,0,1-.02.17.7.7,0,0,1-.013-.171c0-.131,0-.3,0-.5,0-.46.007-1.1.013-1.895.025-1.658.061-3.991.1-6.8v-.1h.1l11.547-.021,15.566.043h.085v.084c-.016,1.654-.029,2.983-.038,3.924-.009.441-.017.79-.022,1.051a2.086,2.086,0,0,1-.024.364" transform="translate(-146.737 -125.95)" fill="#263238"/><rect width="23.688" height="2.53" transform="translate(141.306 117.179)" fill="#f5f5f5"/><path d="M290.08,240.466a.475.475,0,0,1,.111-.009l.344-.008,1.343-.018,5.008-.038,16.881-.054h.127v.127c0,.806,0,1.662,0,2.528-.254.256-.075.071-.133.128H309.9l-3.69,0-6.686-.015-9.446-.053h-.055v-.054q.02-1.222.03-1.9c.005-.2.01-.355.013-.478a.794.794,0,0,1,.01-.154,1.27,1.27,0,0,1,.011.173c0,.125.007.286.013.489q.01.663.03,1.866l-.054-.054,9.446-.053,6.686-.015,3.69,0h3.859c-.055.056.133-.125-.12.126,0-.866,0-1.722,0-2.528l.126.126-16.79-.054-5.037-.038-1.372-.018-.36-.008a.817.817,0,0,1-.129-.009" transform="translate(-148.774 -123.286)" fill="#263238"/><path d="M316.58,306.4c0,.07-5.92.127-13.221.127s-13.223-.056-13.223-.127,5.919-.127,13.223-.127,13.221.056,13.221.127" transform="translate(-148.831 -157.106)" fill="#263238"/><path d="M278.2,253.645l2.383,18.444h30.983V254.228H297.493l-2.73-2.4H279.8a1.612,1.612,0,0,0-1.6,1.818" transform="translate(-142.7 -129.179)" fill="#529d2e"/><path d="M313.25,271.455c0,.07-3.393.127-7.578.127s-7.578-.056-7.578-.127,3.393-.127,7.578-.127,7.578.056,7.578.127" transform="translate(-152.913 -139.183)" fill="#263238"/><path d="M313.25,275.181c0,.07-3.393.127-7.578.127s-7.578-.057-7.578-.127,3.393-.127,7.578-.127,7.578.057,7.578.127" transform="translate(-152.913 -141.094)" fill="#263238"/><path d="M111.2,144.36a2.016,2.016,0,0,1-.023-.524,12.949,12.949,0,0,1,.1-1.425,18.219,18.219,0,0,1,3.429-8.685,13.245,13.245,0,0,1,.9-1.106,2.1,2.1,0,0,1,.374-.367c.034.029-.453.592-1.131,1.577a20.492,20.492,0,0,0-3.4,8.6c-.178,1.182-.207,1.926-.251,1.924" transform="translate(-57.032 -67.842)" fill="#263238"/><path d="M111.649,152.957c.027.022-.117.254-.373.611l-.46.619-.279.36-.149.189-.076.1-.039.048-.019.025-.01.012,0,.006,0,0h0l-.193.006h0a4.215,4.215,0,0,1-.887-1.5,1.442,1.442,0,0,1-.121-.711,7.629,7.629,0,0,0,1.195,2.043h0l-.192.006h0l0,0,0-.006.01-.012.019-.024.038-.048.077-.1.152-.187.29-.351.5-.585c.292-.328.486-.521.513-.5" transform="translate(-55.924 -78.34)" fill="#263238"/><path d="M305.724,199.764c0,.07-3.713.127-8.291.127s-8.292-.057-8.292-.127,3.712-.127,8.292-.127,8.291.057,8.291.127" transform="translate(-148.321 -102.407)" fill="#e0e0e0"/><path d="M314.471,312.413c0,.07-3.713.127-8.291.127s-8.292-.056-8.292-.127,3.712-.127,8.292-.127,8.291.056,8.291.127" transform="translate(-152.808 -160.193)" fill="#e0e0e0"/><path d="M155.271,314.224c0,.07-3.713.127-8.291.127s-8.292-.057-8.292-.127,3.712-.127,8.292-.127,8.291.057,8.291.127" transform="translate(-71.143 -161.122)" fill="#e0e0e0"/></g><g clip-path="url(#a)"><path d="M24.1,218.805c-.485,2.147-2.922,3.268-4.421,4.881s-3.711,2.934-5.821,2.307a5.174,5.174,0,0,1-3.034-2.928c-1.4-3.067-.737-6.668.313-9.874s2.475-6.377,2.535-9.75l7.066,2.37,1.742-2.146s1.972,13.576,1.619,15.14" transform="translate(-5.143 -104.359)" fill="#ffbe9d"/><path d="M95.447,196.8s4.272,17.121,8.357,19.633c5.164,3.176,8.183-.6,8.183-.6l8.088-14.8-5.517-1.382-5.376,6.771-3.751-10.255Z" transform="translate(-48.961 -100.629)" fill="#ffbe9d"/><path d="M81.842,341.059c0,.574.679,9.038.679,9.038a32.608,32.608,0,0,0-1.359,8.192c-.186,7.9-.114,24.9-.114,24.9h8.431l0-.958s4.444-29.677,4.288-32.584l-.591-11.031Z" transform="translate(-41.568 -173.701)" fill="#ffbe9d"/><path d="M53.826,316.624,39.8,319s1.415,3.84,1.517,4.217a22.225,22.225,0,0,1,.7,8.251c-.606,4.24-1.14,9.389-.873,11.812s2.9,27.929,2.9,27.929l8.361.261,2.03-46.964Z" transform="translate(-20.414 -162.418)" fill="#ffbe9d"/><path d="M56.481,105.54,56.4,130.808l10.841.517.313-6.146s3.85.764,4.844-2.812c.635-2.284.476-19.938.476-19.938Z" transform="translate(-28.933 -52.543)" fill="#ffbe9d"/><path d="M70.494,100.49c-1.708.489-2.078,3.28-2.078,3.28l-2.678,5.915c-1.365-1.068-3.2-1.007-3.544,1.391-.25,1.732,1.9,2.083,1.9,2.083a31.412,31.412,0,0,1-3.93,5.89c-1.976,2.2-3.083,2.418-5.226,2.454H52.578s-1.157-3.755-3.3-13.146C46.9,97.938,59.222,99.28,61.506,96.621c3.719-4.331,14.371,2.328,8.988,3.868" transform="translate(-25.123 -48.824)" fill="#263238"/><path d="M48.234,106.446c-2-1.341-2.177-5.094-1.012-7.345a7.232,7.232,0,0,1,6.151-3.825,2.916,2.916,0,0,0,1-.112,2.785,2.785,0,0,0,1.079-1.024c1.784-2.321,3.538-4.6,6.865-4.6a3.785,3.785,0,0,1,2.091.518,3.286,3.286,0,0,1,1.256,1.663,7.129,7.129,0,0,1,1.946-.7,2.4,2.4,0,0,1,1.952.476,1.469,1.469,0,0,1,.306,1.87,2.365,2.365,0,0,1,2.36,1.967c.177,1.109-1.413,1.889-1.578,1.975a2.2,2.2,0,0,1-1.208,2.922,2.493,2.493,0,0,1-2.05-.154" transform="translate(-23.853 -45.931)" fill="#263238"/><path d="M65.429,129.241a5.1,5.1,0,0,1-.828,3.679c-.073-.037.275-.81.5-1.821s.249-1.856.33-1.858" transform="translate(-33.133 -66.297)" fill="#455a64"/><path d="M68.278,126.695A7.136,7.136,0,0,1,67.6,130.3a9.893,9.893,0,0,1,.3-1.81,9.851,9.851,0,0,1,.371-1.8" transform="translate(-34.671 -64.99)" fill="#455a64"/><path d="M73.8,118.129c.026.036-.281.26-.671.717a6.927,6.927,0,0,0-1.168,2.016,16.914,16.914,0,0,0-.648,2.272,3.824,3.824,0,0,1-.268.956,3.4,3.4,0,0,1,.077-.992,11.143,11.143,0,0,1,.582-2.335,5.889,5.889,0,0,1,1.282-2.049,2.058,2.058,0,0,1,.813-.585" transform="translate(-36.433 -60.595)" fill="#455a64"/><path d="M78.643,112.3a1.41,1.41,0,0,1,.21.684,4.547,4.547,0,0,1-.825,3.291c-.267.356-.484.526-.508.5a6.5,6.5,0,0,0,1.123-4.478" transform="translate(-39.763 -57.608)" fill="#455a64"/><path d="M51.841,124.448c-.037.066-.369-.049-.741-.257s-.645-.431-.608-.5.369.049.742.257.644.431.607.5" transform="translate(-25.899 -63.442)" fill="#455a64"/><path d="M62.814,119.721c.072.011.027.546-.31,1.1s-.787.844-.829.786.289-.417.594-.928.467-.975.544-.957" transform="translate(-31.635 -61.413)" fill="#455a64"/><path d="M65.736,117.945a2.17,2.17,0,0,1-.483,1.314c-.434.659-.981,1.014-1.023.955s.387-.488.794-1.107a11.16,11.16,0,0,1,.711-1.162" transform="translate(-32.946 -60.502)" fill="#455a64"/><path d="M68.541,95.112c-.019.022-.2-.154-.594-.377a4.01,4.01,0,0,0-1.817-.469,4.868,4.868,0,0,0-2.665.716A6.6,6.6,0,0,0,61.2,97.51a11.358,11.358,0,0,0-.921,2.369l-.044.159-.146-.076a5.4,5.4,0,0,0-2.419-.619,5.715,5.715,0,0,0-1.969.3,8.436,8.436,0,0,0-1.608.8,1.656,1.656,0,0,1,.363-.321,4.988,4.988,0,0,1,1.189-.639,5.619,5.619,0,0,1,2.027-.367,5.506,5.506,0,0,1,2.539.611l-.189.083a11.182,11.182,0,0,1,.934-2.432,6.7,6.7,0,0,1,2.381-2.614,4.949,4.949,0,0,1,2.8-.694A3.858,3.858,0,0,1,68,94.644a2.822,2.822,0,0,1,.416.33c.088.084.13.132.123.138" transform="translate(-27.747 -48.251)" fill="#455a64"/><path d="M81.8,98.665c-.019,0,.3-.081.622.282a1.076,1.076,0,0,1,.249.791,1.229,1.229,0,0,1-.63.9,1.789,1.789,0,0,1-1.317.181,3.815,3.815,0,0,1-1.359-.659,13.328,13.328,0,0,0-1.329-.91,5.531,5.531,0,0,0-1.6-.564,6.774,6.774,0,0,0-3.268.224,8.947,8.947,0,0,0-2.416,1.228,24.849,24.849,0,0,0-1.929,1.632,2.735,2.735,0,0,1,.429-.534,10.469,10.469,0,0,1,1.385-1.255,8.692,8.692,0,0,1,2.452-1.312,6.861,6.861,0,0,1,3.4-.253,5.7,5.7,0,0,1,1.68.6,12.741,12.741,0,0,1,1.346.94,3.672,3.672,0,0,0,1.263.643,1.6,1.6,0,0,0,1.17-.128,1.077,1.077,0,0,0,.574-.751.984.984,0,0,0-.181-.706.949.949,0,0,0-.538-.348" transform="translate(-35.302 -50.429)" fill="#455a64"/><path d="M37.124,268.563s-.395,10.414,0,13.583-.176,22.3-.176,22.3,14.7,4.278,18.657-.793c0,0-1.6-23.254-1.763-23.888s-1.454-16.482-1.454-16.482Z" transform="translate(-18.953 -135.058)" fill="#263238"/><path d="M86.9,260.115c.865,2.692,2.694,12.837,2.694,12.837V299.84s-12.732,4.6-17.8,2.322l-3.144-26.99V261.184l10.474-4.08Z" transform="translate(-35.216 -131.886)" fill="#263238"/><path d="M73.75,300.235a2.835,2.835,0,0,1-.593-.01c-.38-.022-.93-.063-1.609-.119l-5.3-.484-5.3-.483-1.606-.149a2.8,2.8,0,0,1-.587-.084,2.865,2.865,0,0,1,.593-.008c.381.01.931.035,1.612.073,1.36.077,3.237.218,5.307.414s3.939.4,5.292.553l1.6.194a2.822,2.822,0,0,1,.584.1" transform="translate(-30.143 -153.322)" fill="#455a64"/><path d="M69.945,299.905c.065-.007.68,5.408,1.374,12.093s1.2,12.112,1.137,12.119-.68-5.407-1.373-12.094-1.2-12.111-1.137-12.118" transform="translate(-35.877 -153.842)" fill="#455a64"/><path d="M67.033,299.6a8.414,8.414,0,0,1-1.49,1.327,8.462,8.462,0,0,1-1.637,1.14,8.389,8.389,0,0,1,1.49-1.327,8.438,8.438,0,0,1,1.637-1.14" transform="translate(-32.781 -153.684)" fill="#455a64"/><path d="M105.019,280.36a4.23,4.23,0,0,1-1.016-.542,14.1,14.1,0,0,1-3.976-3.847,4.25,4.25,0,0,1-.575-1,7.814,7.814,0,0,1,.711.9,18.7,18.7,0,0,0,3.935,3.807,7.894,7.894,0,0,1,.921.681" transform="translate(-51.015 -141.053)" fill="#455a64"/><path d="M66.884,284.088a1.352,1.352,0,0,1-.216-.346,11.062,11.062,0,0,1-.474-1,16.44,16.44,0,0,1-1.249-7.167c.026-.468.064-.845.107-1.1a1.354,1.354,0,0,1,.086-.4c.038,0-.015.58-.025,1.508a19.574,19.574,0,0,0,1.238,7.1c.323.871.568,1.394.533,1.411" transform="translate(-33.303 -140.588)" fill="#455a64"/><path d="M54.916,186.225c-.129-.386-1.545-8.5-1.545-8.5l10.427-.258s-4.577-17.884-7.072-19.2c-3.867-2.046-12.365-2.293-12.365-2.293H33.419s-12.1,3.347-14.289,6.951l-7.723,14.852,10.041,3.685,1.741-2.146,1.734,15.147s-1.03,13.645-1.03,15.7.129,3.347.129,3.347,22.747-6.175,28.282-4.373,6.361,3.491,6.361,3.491.5-6.069-.788-8.386Z" transform="translate(-5.851 -80.01)" fill="#455a64"/><path d="M31.638,195.353c-.038,0-.141-.722-.374-1.881a34.323,34.323,0,0,0-1.214-4.45,37.486,37.486,0,0,0-1.8-4.249l-.634-1.251a2.163,2.163,0,0,1-.214-.47,2.168,2.168,0,0,1,.3.425c.178.281.419.7.7,1.219a29.568,29.568,0,0,1,1.876,4.248,27.524,27.524,0,0,1,1.155,4.5c.1.587.158,1.064.186,1.395a2.145,2.145,0,0,1,.023.517" transform="translate(-14.055 -93.9)" fill="#263238"/><path d="M66.676,220.021a.841.841,0,0,1-.058.225l-.211.63c-.092.273-.21.606-.364.985s-.315.818-.53,1.288c-.4.949-.943,2.055-1.593,3.256a40.453,40.453,0,0,1-5.083,7.265c-.9,1.022-1.76,1.907-2.513,2.612-.368.362-.723.665-1.028.939s-.576.5-.8.68l-.519.413a.841.841,0,0,1-.191.132c-.005-.006.05-.064.161-.169l.489-.447c.216-.19.478-.425.772-.709s.642-.592,1-.961c.735-.718,1.574-1.611,2.465-2.635s1.809-2.2,2.712-3.486,1.676-2.559,2.345-3.741,1.209-2.281,1.632-3.218c.224-.463.4-.895.56-1.269s.3-.7.4-.968l.252-.613a.866.866,0,0,1,.1-.208" transform="translate(-27.589 -112.864)" fill="#263238"/><path d="M97.09,175.155c.044.011-.121.718-.242,1.881a37.9,37.9,0,0,0-.135,4.568c.043,1.787.154,3.4.25,4.573q.067.816.114,1.385a2.27,2.27,0,0,1,.019.511,2,2,0,0,1-.111-.5c-.055-.324-.121-.8-.19-1.379-.139-1.167-.278-2.788-.32-4.584a29.7,29.7,0,0,1,.205-4.593,13.3,13.3,0,0,1,.261-1.372,2.108,2.108,0,0,1,.149-.49" transform="translate(-49.482 -89.849)" fill="#263238"/><g transform="translate(14.746 92.119)" opacity="0.3"><g clip-path="url(#f)"><path d="M30.277,189.144s.649,6.227.85,9.333l1.741-2.145s-1.708-6.408-2.591-7.188" transform="translate(-30.277 -189.144)"/></g></g><g transform="translate(27.713 109.72)" opacity="0.3"><g clip-path="url(#g)"><path d="M60,229.668A34.549,34.549,0,0,0,56.9,236a28.077,28.077,0,0,0,8.067-10.714A10.591,10.591,0,0,0,60,229.668" transform="translate(-56.903 -225.284)"/></g></g><path d="M12.707,232.007a.824.824,0,0,1-1.028-.711L9.5,210.72a2.546,2.546,0,0,1,1.876-2.73l10.865-2.919,1.814,15.84-.807,8.342Z" transform="translate(-4.867 -105.195)" fill="#529d2e"/><g transform="translate(16.961 99.876)" opacity="0.3"><g clip-path="url(#h)"><path d="M36.247,229.253c-.671-1.3-.411-2.845-.259-4.3.7-6.73-2.207-13.272-.748-19.879,0,0,1.49,12.591,1.814,15.84Z" transform="translate(-34.825 -205.071)"/></g></g><path d="M24.06,208.876a1.691,1.691,0,0,1-.317.108l-.92.26-3.4.911-2.349.617-1.309.341a3.839,3.839,0,0,0-1.3.489,3.353,3.353,0,0,0-1.013,1.028,2.381,2.381,0,0,0-.391,1.422c.06,1.067.122,2.17.186,3.3.236,4.512.451,8.6.607,11.586.065,1.461.117,2.653.155,3.513.012.394.022.712.03.956a1.63,1.63,0,0,1-.007.334,1.657,1.657,0,0,1-.044-.331c-.019-.244-.045-.56-.077-.953-.057-.859-.137-2.05-.235-3.509-.176-2.991-.416-7.075-.681-11.587-.062-1.131-.123-2.235-.181-3.3a2.626,2.626,0,0,1,.434-1.558,3.582,3.582,0,0,1,1.092-1.1,3.025,3.025,0,0,1,.679-.326c.243-.079.464-.122.692-.183l1.312-.329,2.357-.587,3.418-.832.932-.214a1.668,1.668,0,0,1,.329-.058" transform="translate(-6.571 -107.146)" fill="#263238"/><path d="M30.3,226.352a4.843,4.843,0,0,1-1.066.4c-.669.212-1.6.479-2.641.739s-1.989.461-2.679.588a4.866,4.866,0,0,1-1.129.148,5.34,5.34,0,0,1,1.091-.323l2.656-.658,2.653-.666a5.346,5.346,0,0,1,1.115-.227" transform="translate(-11.686 -116.108)" fill="#263238"/><path d="M33.739,230.023a8.429,8.429,0,0,1-2.249.79,8.4,8.4,0,0,1-2.354.376,17.029,17.029,0,0,1,2.292-.622,16.888,16.888,0,0,1,2.311-.544" transform="translate(-14.946 -117.99)" fill="#263238"/><path d="M125.512,223.91a21.875,21.875,0,0,0-.746-3.372c-.624-1.8-1.342-3.2-1.262-3.234a3.828,3.828,0,0,1,.527.879,16.641,16.641,0,0,1,.975,2.274,10.483,10.483,0,0,1,.521,2.424,3.087,3.087,0,0,1-.016,1.028" transform="translate(-63.351 -111.47)" fill="#eb996e"/><path d="M133.988,189.73s-1.054-6.534-.508-7.566l4.3-5.34a2.427,2.427,0,0,1,.425,1.91,10.305,10.305,0,0,1-1.263,2.152s2.438-.063,3.144.815a4.4,4.4,0,0,1,.464,1.778,1.04,1.04,0,0,1-.232.747l-.612.756c1.2,5.051-.322,6.266-.322,6.266Z" transform="translate(-68.39 -90.705)" fill="#ffbe9d"/><path d="M143.177,185.535c.019.031-.114.143-.314.331a2.193,2.193,0,0,0-.6.825,6.071,6.071,0,0,0-.29,1.022c-.054.267-.027.427-.061.441s-.129-.163-.118-.457a3.416,3.416,0,0,1,.232-1.1,1.861,1.861,0,0,1,.729-.873c.239-.161.409-.221.426-.191" transform="translate(-72.733 -95.17)" fill="#eb996e"/><path d="M132.348,190.162c.009-.181-.152-.028-.312.056a1.333,1.333,0,0,0-.42.558,3.953,3.953,0,0,0-.054,2.265,8.311,8.311,0,0,0,1.333,2.471" transform="translate(-67.416 -97.504)" fill="#ffbe9d"/><path d="M139.618,185c.063.062-.44.507-.869,1.146a2.44,2.44,0,0,0-.354.9c-.04.248-.023.411-.061.419s-.113-.15-.118-.431a1.927,1.927,0,0,1,.318-1.026,3.379,3.379,0,0,1,.71-.782c.208-.169.35-.254.373-.229" transform="translate(-70.901 -94.899)" fill="#eb996e"/><path d="M133.768,193.468a2.742,2.742,0,0,1-.216-.775c-.1-.483-.241-1.154-.336-1.908a6.534,6.534,0,0,1,.067-2.741c.068.009-.024,1.222.185,2.709a16.365,16.365,0,0,1,.3,2.714" transform="translate(-68.288 -96.461)" fill="#eb996e"/><path d="M146.35,187.044a1.761,1.761,0,0,1,.3.705,5.918,5.918,0,0,1,.185.815,1.759,1.759,0,0,1-.117,1.055,1.16,1.16,0,0,1-.361.452.918.918,0,0,1-.257.13.368.368,0,0,1-.177.013.252.252,0,0,1-.17-.124,3.664,3.664,0,0,1-.217-.832,1.605,1.605,0,0,1,0-.77,4.275,4.275,0,0,1,.176.735,5.184,5.184,0,0,0,.242.747c.013.016.006.015.075,0a.729.729,0,0,0,.182-.1.945.945,0,0,0,.279-.359,1.625,1.625,0,0,0,.115-.918c-.033-.3-.083-.574-.127-.8a3.456,3.456,0,0,1-.131-.748" transform="translate(-74.638 -95.947)" fill="#eb996e"/><path d="M80.987,428.51v9.667l19.393-.294c-.142-1.96-10.739-5.672-10.739-5.672l.212-3.7Z" transform="translate(-41.544 -219.812)" fill="#ff725e"/><g transform="translate(42.043 211.487)" opacity="0.6"><g clip-path="url(#i)"><path d="M86.878,434.274a.845.845,0,0,0-.534.966.759.759,0,0,0,.9.569.891.891,0,0,0,.56-1.025.778.778,0,0,0-1-.483" transform="translate(-86.325 -434.237)" fill="#fff"/></g></g><path d="M80.987,446.605l.03-1.665,18.582.341s.869.385.781,1.03Z" transform="translate(-41.544 -228.24)" fill="#263238"/><path d="M96.909,436.4c0,.1-.474.153-.936.483s-.7.755-.791.716c-.088-.018.045-.62.61-1.009s1.136-.283,1.117-.19" transform="translate(-48.813 -223.814)" fill="#263238"/><path d="M102.664,438.289c.023.1-.385.274-.7.7s-.4.879-.5.876c-.089.017-.163-.569.239-1.095s.954-.58.958-.484" transform="translate(-52.014 -224.808)" fill="#263238"/><path d="M106.232,441.555c-.086.023-.225-.476.011-1.029s.675-.778.716-.7-.229.38-.415.838-.218.876-.312.887" transform="translate(-54.433 -225.611)" fill="#263238"/><path d="M96.244,430.484c-.038.092-.475-.04-1.01.007s-.949.232-1,.147.345-.45.976-.495,1.079.262,1.033.341" transform="translate(-48.337 -220.647)" fill="#263238"/><path d="M96.181,433.217a1.431,1.431,0,0,0,.042-.591,3.273,3.273,0,0,0-.516-1.524,3.014,3.014,0,0,0-.763-.8.661.661,0,0,0-.658-.115.742.742,0,0,0-.384.637,2.555,2.555,0,0,0,1.713,2.261,2.443,2.443,0,0,0,2.633-.782,1.77,1.77,0,0,0,.35-.6.649.649,0,0,0,0-.387.458.458,0,0,0-.265-.28.825.825,0,0,0-.607.06,3.568,3.568,0,0,0-.454.259,4.059,4.059,0,0,0-1.114,1.1,1.527,1.527,0,0,0-.269.518,5.631,5.631,0,0,1,1.484-1.443c.261-.15.6-.365.878-.269.121.05.169.191.112.361a1.563,1.563,0,0,1-.307.492,2.214,2.214,0,0,1-2.357.683,2.322,2.322,0,0,1-1.543-1.965.483.483,0,0,1,.23-.418.444.444,0,0,1,.434.086,2.869,2.869,0,0,1,.726.717,3.419,3.419,0,0,1,.568,1.416c.054.366.042.576.065.577" transform="translate(-48.169 -220.646)" fill="#263238"/><path d="M56.086,428.16l.4,3.007-.267,6.785-8.838.215-.315-7,.372-3.007Z" transform="translate(-24.143 -219.632)" fill="#ff725e"/><path d="M56.874,437.442c-.054,0,.074-2.073.284-4.635s.425-4.643.479-4.646-.074,2.072-.284,4.636-.425,4.642-.479,4.645" transform="translate(-29.168 -219.633)" fill="#263238"/><path d="M56.537,445.947l-8.841.187.007,1.159,8.838-.215Z" transform="translate(-24.467 -228.757)" fill="#263238"/><path d="M47.641,435.161a1.181,1.181,0,0,1,.226-.358,6.165,6.165,0,0,1,.788-.843A6,6,0,0,1,50.082,433a4.707,4.707,0,0,1,5.508,1.019,4.051,4.051,0,0,1,.647.961,1.156,1.156,0,0,1,.141.4,9.258,9.258,0,0,0-.926-1.231,4.705,4.705,0,0,0-3.313-1.359,5.41,5.41,0,0,0-3.362,1.313c-.739.6-1.1,1.088-1.136,1.057" transform="translate(-24.438 -221.871)" fill="#263238"/></g><g clip-path="url(#a)"><path d="M388.4,372.23c-1.155-.057-1.5-1.689-1.065-2.763s1.281-2.029,1.294-3.186c.01-1-.627-1.916-.689-2.918-.11-1.808,1.637-3.282,1.711-5.092.058-1.41-.921-2.754-.684-4.146.255-1.494,1.813-2.474,2.17-3.946.38-1.568-.707-3.226-.291-4.785s2.245-2.692,1.984-4.278a14.865,14.865,0,0,0-.544-1.5,3.907,3.907,0,0,1,1.1-3.363,12.9,12.9,0,0,0,2.225-2.913c.743-1.734.227-3.844,1.1-5.514.731-1.39,2.356-2.326,2.561-3.882.825,1.4.018,3.185.206,4.8a15.466,15.466,0,0,0,1,3.008,7.833,7.833,0,0,1-.615,6.269c-.707,1.242-1.8,2.414-1.741,3.842.067,1.729,1.8,2.983,2.1,4.685.437,2.437-2.159,4.628-1.8,7.077.093.632.381,1.227.435,1.863.185,2.165-2.272,3.7-2.645,5.835-.275,1.576.636,3.2.26,4.758-.29,1.2-1.325,2.271-1.071,3.477a8.442,8.442,0,0,0,.661,1.456,2.774,2.774,0,0,1-.434,2.87,2.413,2.413,0,0,1-2.791.574" transform="translate(-198.598 -166.176)" fill="#336e17"/><path d="M395.312,370.974a3.173,3.173,0,0,1-.446-1.71c.119-.661,1.238-1.243,1.516-2.365.361-1.456-.29-4.031-.013-5.5.376-2,2.441-3.308,2.356-5.29-.025-.582.057-2.139,0-2.715-.221-2.232,1.74-3.731,1.454-5.946-.2-1.548-1.8-3.363-1.806-4.95,0-1.312.939-2.461,1.564-3.651a8.192,8.192,0,0,0,.707-5.812,14.046,14.046,0,0,1-.736-2.7c-.1-1.475.619-3.17-.02-4.407-.219,1.446-1.6,2.414-2.244,3.741-.78,1.595-.418,3.5-1.088,5.149a13.824,13.824,0,0,1-1.936,2.827,4.208,4.208,0,0,0-1.017,3.168,13.474,13.474,0,0,1,.4,1.342c.166,1.443-1.386,2.611-1.779,4.068s.455,2.918.091,4.386c-.342,1.379-1.692,3.252-1.95,4.644-.241,1.3.935,2.141.842,3.443-.118,1.671-1.793,3.694-1.759,5.351.019.919.788,1.213.748,2.139a18.908,18.908,0,0,1-1.329,4.2,2.878,2.878,0,0,0,.277,2.861l4.967,2.464c2.217-1.056,2.119-3.212,1.2-4.732" transform="translate(-199.346 -167.189)" fill="#529d2e"/><path d="M401.828,341.431a.449.449,0,0,1,.008.11c0,.084,0,.19,0,.323,0,.283,0,.7-.051,1.241a6.2,6.2,0,0,1-.448,1.918,9.914,9.914,0,0,1-1.5,2.132,3.955,3.955,0,0,0-.708,1.3,4.4,4.4,0,0,0-.18,1.59c.054,1.122.4,2.289.563,3.563a5.432,5.432,0,0,1-.064,1.976,3.767,3.767,0,0,1-.389.958,8.744,8.744,0,0,0-.524.872,3.249,3.249,0,0,0-.03,2.016c.072.349.151.7.192,1.072a4.257,4.257,0,0,1-.028,1.118,8.787,8.787,0,0,1-.684,2.086,16.9,16.9,0,0,0-.768,1.954,5.045,5.045,0,0,0-.172,1.984,8.942,8.942,0,0,1,.069,1.971,5.961,5.961,0,0,1-.627,1.773A6.981,6.981,0,0,0,395.87,373a17.084,17.084,0,0,0,.079,3.122,8.387,8.387,0,0,1-.571,2.545,8.917,8.917,0,0,0-.485,1.887,2.716,2.716,0,0,0,.125,1.209c.1.262.178.391.168.4a2.138,2.138,0,0,1-.205-.382,2.652,2.652,0,0,1-.165-1.231,8.653,8.653,0,0,1,.456-1.915,8.42,8.42,0,0,0,.536-2.511,14.936,14.936,0,0,0-.121-1.5,5.619,5.619,0,0,1,.02-1.656c.215-1.151,1.058-2.137,1.233-3.377a8.833,8.833,0,0,0-.077-1.93,5.24,5.24,0,0,1,.174-2.054c.381-1.353,1.205-2.585,1.443-4.018a4.066,4.066,0,0,0,.027-1.065c-.04-.354-.117-.7-.189-1.055a3.425,3.425,0,0,1,.046-2.136,8.69,8.69,0,0,1,.537-.891,3.566,3.566,0,0,0,.37-.905,5.268,5.268,0,0,0,.066-1.908c-.154-1.252-.5-2.429-.545-3.577a4.537,4.537,0,0,1,.2-1.645,4.077,4.077,0,0,1,.742-1.335,10.016,10.016,0,0,0,1.505-2.091,6.27,6.27,0,0,0,.473-1.88c.06-.533.073-.952.088-1.235.007-.132.012-.239.017-.322a.466.466,0,0,1,.012-.11" transform="translate(-202.523 -175.143)" fill="#263238"/><path d="M370.744,350.655c-1.616.237-2.535-1.931-2.232-3.536s1.219-3.162.919-4.768c-.261-1.394-1.394-2.483-1.753-3.855-.648-2.475,1.369-4.995.976-7.522-.306-1.97-2.03-3.564-2.083-5.557-.056-2.139,1.834-3.924,1.925-6.062.1-2.276-1.863-4.276-1.712-6.549s2.372-4.344,1.577-6.47a21.182,21.182,0,0,0-1.163-1.923c-.778-1.549-.222-3.436.6-4.96s1.924-2.95,2.285-4.646c.554-2.606-.739-5.388.02-7.942.631-2.126,2.627-3.867,2.484-6.081,1.526,1.715.9,4.408,1.6,6.594a21.923,21.923,0,0,0,2.214,3.894,11.064,11.064,0,0,1,.865,8.853c-.639,1.915-1.828,3.836-1.36,5.8.567,2.377,3.307,3.64,4.2,5.916,1.273,3.256-1.723,7-.554,10.3.3.85.864,1.594,1.114,2.461.848,2.949-2.135,5.741-2.066,8.809.051,2.258,1.758,4.263,1.662,6.52-.074,1.74-1.213,3.51-.531,5.111a11.861,11.861,0,0,0,1.315,1.836,3.919,3.919,0,0,1,.185,4.1,3.408,3.408,0,0,1-3.711,1.56" transform="translate(-188.039 -144.033)" fill="#336e17"/><path d="M379.651,347.267a4.479,4.479,0,0,1-1.086-2.248c-.017-.949,1.373-2.061,1.451-3.692.1-2.116-1.506-5.5-1.524-7.615-.024-2.868,2.477-5.253,1.816-7.975-.194-.8-.506-2.979-.743-3.761-.917-3.032,1.389-5.645.386-8.636-.7-2.091-3.422-4.165-3.859-6.364-.361-1.817.626-3.667,1.166-5.486a11.568,11.568,0,0,0-.613-8.246,19.862,19.862,0,0,1-1.762-3.546c-.549-2.015-.01-4.562-1.234-6.1.093,2.064-1.549,3.781-2.084,5.8-.643,2.423.38,4.969-.1,7.432a19.53,19.53,0,0,1-1.907,4.447c-.687,1.462-1.159,3.252-.542,4.667a19.063,19.063,0,0,1,.927,1.748c.625,1.954-1.2,4-1.35,6.123s1.429,3.919,1.327,6.053c-.1,2-1.454,4.969-1.43,6.968.022,1.862,1.882,2.709,2.11,4.54.294,2.348-1.473,5.608-.972,7.9.278,1.268,1.424,1.466,1.621,2.758.228,1.489-.428,4.669-.69,6.184a4.066,4.066,0,0,0,1.167,3.888l7.557,2.053c2.783-2.071,2.056-5.032.364-6.885" transform="translate(-189.025 -145.477)" fill="#529d2e"/><path d="M377.678,305.777a18.967,18.967,0,0,1,.388,2.332,8.774,8.774,0,0,1-.1,2.774,6.968,6.968,0,0,1-.594,1.635c-.27.553-.6,1.113-.9,1.72a5.587,5.587,0,0,0-.631,2,6.23,6.23,0,0,0,.184,2.264c.381,1.545,1.18,3.07,1.752,4.786a7.637,7.637,0,0,1,.45,2.742,5.278,5.278,0,0,1-.275,1.423,12.3,12.3,0,0,0-.489,1.356,4.626,4.626,0,0,0,.513,2.826c.195.465.4.935.559,1.43a5.963,5.963,0,0,1,.265,1.545,12.417,12.417,0,0,1-.375,3.068,23.827,23.827,0,0,0-.528,2.923,7.29,7.29,0,0,0,.013,1.432,7.91,7.91,0,0,0,.295,1.378,12.577,12.577,0,0,1,.636,2.7,8.388,8.388,0,0,1-.38,2.617,9.88,9.88,0,0,0-.425,2.414,7.778,7.778,0,0,0,.4,2.246,20.72,20.72,0,0,1,.567,2.065,7.528,7.528,0,0,1,.094,1.949c-.04.614-.114,1.189-.183,1.724a12.531,12.531,0,0,0-.148,2.752,3.818,3.818,0,0,0,.513,1.644c.214.334.359.49.348.5a3.3,3.3,0,0,1-.382-.478,3.759,3.759,0,0,1-.557-1.657,12.319,12.319,0,0,1,.115-2.773c.063-.537.132-1.109.167-1.718a7.42,7.42,0,0,0-.106-1.915,21.039,21.039,0,0,0-.576-2.047,7.881,7.881,0,0,1-.421-2.29,9.977,9.977,0,0,1,.42-2.457,8.262,8.262,0,0,0,.366-2.562,12.512,12.512,0,0,0-.636-2.661,8.116,8.116,0,0,1-.3-1.408,7.533,7.533,0,0,1-.016-1.471,23.936,23.936,0,0,1,.529-2.949,12.262,12.262,0,0,0,.37-3.018,5.793,5.793,0,0,0-.256-1.493c-.153-.482-.356-.946-.551-1.413a8.724,8.724,0,0,1-.5-1.436,3.311,3.311,0,0,1-.024-1.511,12.231,12.231,0,0,1,.5-1.378,5.066,5.066,0,0,0,.266-1.367,7.464,7.464,0,0,0-.434-2.675c-.56-1.7-1.357-3.231-1.738-4.8a6.382,6.382,0,0,1-.176-2.322,5.715,5.715,0,0,1,.658-2.044c.306-.612.638-1.168.911-1.713a6.905,6.905,0,0,0,.6-1.6,8.856,8.856,0,0,0,.133-2.742c-.066-.756-.166-1.338-.225-1.734l-.069-.451a.861.861,0,0,1-.017-.154" transform="translate(-192.697 -156.854)" fill="#263238"/><path d="M359.672,382.012c-.922.454-1.89-.666-2.02-1.685s.119-2.128-.372-3.031c-.425-.784-1.314-1.217-1.794-1.968-.866-1.356-.147-3.254-.87-4.691-.564-1.12-1.9-1.74-2.321-2.923-.448-1.269.339-2.7-.019-4-.382-1.381-1.942-2.2-2.291-3.588s.58-3.059-.307-4.177a13.428,13.428,0,0,0-1.068-.926,3.469,3.469,0,0,1-.6-3.085,11.464,11.464,0,0,0,.469-3.222c-.172-1.667-1.483-3.082-1.523-4.757-.033-1.394.825-2.822.312-4.119,1.245.732,1.389,2.465,2.233,3.637a13.717,13.717,0,0,0,2.077,1.9,6.96,6.96,0,0,1,2.229,5.132c-.013,1.269-.353,2.649.307,3.734.8,1.313,2.683,1.539,3.655,2.729,1.391,1.7.322,4.524,1.659,6.27.344.45.826.788,1.142,1.258,1.078,1.6-.168,3.849.466,5.671.467,1.342,1.877,2.212,2.255,3.581.292,1.055-.048,2.335.671,3.162a7.435,7.435,0,0,0,1.142.844,2.467,2.467,0,0,1,.9,2.416,2.144,2.144,0,0,1-1.919,1.651" transform="translate(-177.979 -174.326)" fill="#336e17"/><path d="M363.995,378.438a2.818,2.818,0,0,1-1.085-1.135c-.193-.565.424-1.5.155-2.49-.348-1.286-1.965-3-2.384-4.263-.569-1.711.467-3.622-.454-5.124-.271-.441-.879-1.686-1.172-2.108-1.135-1.637-.261-3.647-1.438-5.243-.824-1.116-2.853-1.831-3.54-3.063-.567-1.018-.334-2.315-.362-3.509a7.276,7.276,0,0,0-1.96-4.817,12.465,12.465,0,0,1-1.74-1.782c-.718-1.1-.888-2.728-1.917-3.412.454,1.218-.2,2.562-.127,3.873.083,1.574,1.188,2.9,1.378,4.467a12.284,12.284,0,0,1-.282,3.03,3.737,3.737,0,0,0,.578,2.9,11.914,11.914,0,0,1,.893.867c.752,1.049.052,2.625.376,3.925s1.613,2.069,1.964,3.366c.33,1.218.091,3.255.491,4.447.374,1.11,1.65,1.258,2.141,2.309.63,1.349.2,3.642.945,4.913.411.705,1.135.6,1.5,1.337a16.819,16.819,0,0,1,.782,3.835,2.556,2.556,0,0,0,1.45,2.1l4.919-.232c1.265-1.778.258-3.409-1.113-4.191" transform="translate(-178.495 -175.175)" fill="#529d2e"/><path d="M352.96,354.625a.378.378,0,0,1,.055.081l.143.249c.121.221.3.546.5.985a5.517,5.517,0,0,1,.482,1.683,8.81,8.81,0,0,1-.239,2.3,3.5,3.5,0,0,0,.011,1.31,3.9,3.9,0,0,0,.546,1.309c.525.846,1.3,1.6,1.975,2.522a4.842,4.842,0,0,1,.806,1.564,3.363,3.363,0,0,1,.112.915,7.646,7.646,0,0,0-.03.9,2.872,2.872,0,0,0,.845,1.572c.206.24.421.482.613.75a3.77,3.77,0,0,1,.462.882,7.836,7.836,0,0,1,.37,1.918,15,15,0,0,0,.247,1.847,4.477,4.477,0,0,0,.721,1.611,7.926,7.926,0,0,1,.905,1.5,5.3,5.3,0,0,1,.279,1.65,6.209,6.209,0,0,0,.209,1.52,15.188,15.188,0,0,0,1.407,2.389,7.457,7.457,0,0,1,.655,2.224,7.926,7.926,0,0,0,.436,1.673,2.411,2.411,0,0,0,.617.885c.19.16.306.228.3.237a1.829,1.829,0,0,1-.326-.206,2.352,2.352,0,0,1-.662-.884,7.716,7.716,0,0,1-.474-1.684,7.461,7.461,0,0,0-.668-2.178,14.733,14.733,0,0,1-1.442-2.406c-.331-.989-.1-2.119-.5-3.153a7.836,7.836,0,0,0-.892-1.462,4.66,4.66,0,0,1-.753-1.673,33.582,33.582,0,0,0-.615-3.74,3.6,3.6,0,0,0-.437-.836c-.184-.256-.394-.494-.6-.736a3.055,3.055,0,0,1-.889-1.684,7.618,7.618,0,0,1,.032-.925,3.163,3.163,0,0,0-.1-.859,4.673,4.673,0,0,0-.77-1.506c-.66-.9-1.434-1.671-1.968-2.543a4.048,4.048,0,0,1-.556-1.366,3.634,3.634,0,0,1,0-1.36,8.916,8.916,0,0,0,.268-2.272,5.567,5.567,0,0,0-.443-1.663c-.183-.44-.353-.77-.463-1l-.125-.258a.387.387,0,0,1-.037-.091" transform="translate(-181.057 -181.911)" fill="#263238"/><path d="M358.561,418.444l1.913,3.89h23.31l2.629-3.89Z" transform="translate(-183.93 -214.649)" fill="#455a64"/><path d="M363.635,423.681l3.489,12.046,15.7.013,3.162-12.038Z" transform="translate(-186.533 -217.335)" fill="#455a64"/><path d="M385.667,426.268c0,.055-5.2.1-11.615.1s-11.616-.045-11.616-.1,5.2-.1,11.616-.1,11.615.045,11.615.1" transform="translate(-185.918 -218.611)" fill="#263238"/></g><g clip-path="url(#a)"><path d="M210.949,448.307c0,.07-43.157.127-96.382.127-53.243,0-96.39-.056-96.39-.127s43.148-.127,96.39-.127c53.225,0,96.382.057,96.382.127" transform="translate(-9.324 -229.902)" fill="#263238"/></g></g></g></g></g></svg>