<svg xmlns="http://www.w3.org/2000/svg" xmlns:xlink="http://www.w3.org/1999/xlink" width="284.482" height="222.901" viewBox="0 0 284.482 222.901"><defs><clipPath id="a"><rect width="274.71" height="192.062" fill="none"/></clipPath><clipPath id="f"><rect width="274.71" height="192.062" fill="#529d2e"/></clipPath><clipPath id="h"><rect width="11.496" height="1.353" fill="none"/></clipPath></defs><g transform="translate(2271.034 6396.402)"><g transform="translate(-2257.274 -6396.402)"><g transform="translate(0)"><g transform="translate(0 0)"><circle cx="105.068" cy="105.068" r="105.068" transform="translate(0 0)" fill="#fdab64"/><ellipse cx="112.256" cy="8.715" rx="112.256" ry="8.715" transform="translate(46.21 205.471)" fill="#fc8116"/><line y2="17.435" transform="translate(97.433 128.508)" fill="#003889"/><g transform="translate(-13.76 22.84)"><g clip-path="url(#a)"><rect width="31.972" height="33.328" transform="translate(2.175 14.545)" fill="#e0e0e0"/><rect width="31.972" height="33.328" transform="translate(0.01 14.544)" fill="#fcd03e"/><path d="M.02,33.481H31.972V66.789H.02ZM0,66.809H31.992V33.461H0Z" transform="translate(0 -18.927)" fill="#e0e0e0"/><rect width="23.376" height="24.367" transform="translate(4.308 19.025)" fill="#feefbf"/><g clip-path="url(#a)"><path d="M4.361,100.269a3.845,3.845,0,0,1-.577.671c-.373.394-.9.927-1.486,1.506s-1.128,1.1-1.527,1.462a3.725,3.725,0,0,1-.675.563,3.691,3.691,0,0,1,.574-.668c.373-.394.9-.928,1.489-1.509s1.132-1.1,1.53-1.464a3.669,3.669,0,0,1,.672-.56" transform="translate(-0.053 -56.715)" fill="#e0e0e0"/><path d="M63.732,100.132a3.845,3.845,0,0,1,.671.577c.394.374.927.9,1.506,1.486s1.1,1.128,1.462,1.527a3.733,3.733,0,0,1,.563.675,3.713,3.713,0,0,1-.668-.574c-.394-.373-.928-.9-1.509-1.489s-1.1-1.132-1.464-1.53a3.669,3.669,0,0,1-.56-.672" transform="translate(-36.048 -56.637)" fill="#e0e0e0"/><path d="M63.586,38.475a3.835,3.835,0,0,1,.577-.67c.374-.394.9-.927,1.486-1.507s1.128-1.1,1.527-1.462a3.721,3.721,0,0,1,.675-.562,3.709,3.709,0,0,1-.574.668c-.373.394-.9.928-1.489,1.509s-1.132,1.1-1.53,1.464a3.63,3.63,0,0,1-.672.559" transform="translate(-35.966 -19.386)" fill="#e0e0e0"/><path d="M4.3,38.53a3.82,3.82,0,0,1-.671-.577c-.394-.373-.927-.9-1.506-1.486S1.024,35.338.658,34.94A3.749,3.749,0,0,1,.1,34.264a3.69,3.69,0,0,1,.668.574c.394.373.928.9,1.509,1.489s1.1,1.132,1.464,1.53a3.629,3.629,0,0,1,.56.672" transform="translate(-0.053 -19.38)" fill="#e0e0e0"/><path d="M33.095,68.032a1.1,1.1,0,0,1-.005-.118c0-.083,0-.2,0-.34q0-.459-.011-1.316c-.005-1.154-.013-2.834-.023-4.966-.011-4.268-.027-10.348-.046-17.627l.09.09-23.31.013h0l.1-.1c-.006,8.944-.01,17.311-.015,24.367l-.089-.089,16.879.045,4.741.023,1.254.01.324.005a1.088,1.088,0,0,1,.113,0,.714.714,0,0,1-.1.005l-.314,0-1.238.01-4.721.023-16.936.046H9.694v-.089c0-7.057-.01-15.423-.015-24.367v-.1h.106l23.31.013h.09v.09c-.019,7.3-.035,13.4-.046,17.685-.01,2.124-.018,3.8-.023,4.946q-.007.844-.011,1.3c0,.141,0,.249,0,.33a.79.79,0,0,1-.005.108" transform="translate(-5.475 -24.64)" fill="#e0e0e0"/><rect width="7.8" height="7.8" transform="translate(12.096 27.308)" fill="#fff"/><path d="M516.72,41.068a17.3,17.3,0,0,1,4.22-1.834l.87-4.178,7.058-.124,1.016,4.144a17.288,17.288,0,0,1,4.283,1.685l3.567-2.339,5.079,4.9L540.6,46.973a17.274,17.274,0,0,1,1.834,4.222l4.177.869.124,7.058-4.144,1.016a17.305,17.305,0,0,1-1.685,4.282l2.338,3.567-4.9,5.079L534.7,70.855a17.285,17.285,0,0,1-4.221,1.834l-.87,4.178-7.058.124-1.016-4.144a17.3,17.3,0,0,1-4.282-1.685L513.682,73.5,508.6,68.6l2.211-3.646a17.289,17.289,0,0,1-1.834-4.221l-4.178-.87-.124-7.058,4.144-1.016a17.341,17.341,0,0,1,1.685-4.282l-2.338-3.567,4.9-5.079Zm3.762,9.4a7.573,7.573,0,1,0,10.708-.189,7.573,7.573,0,0,0-10.708.189" transform="translate(-285.463 -19.759)" fill="#e0e0e0"/><path d="M583.379,109.048a9.165,9.165,0,0,1,1.854-1.583l-.207-2.251,3.557-1.155L589.74,106a9.159,9.159,0,0,1,2.431.19l1.445-1.737,3.332,1.7-.555,2.19a9.151,9.151,0,0,1,1.583,1.854l2.251-.206,1.156,3.557L599.44,114.7a9.18,9.18,0,0,1-.19,2.43l1.737,1.446-1.7,3.332-2.19-.556a9.163,9.163,0,0,1-1.854,1.583l.206,2.251-3.557,1.156-1.156-1.942a9.182,9.182,0,0,1-2.431-.19l-1.445,1.737-3.332-1.7.556-2.19a9.153,9.153,0,0,1-1.583-1.854l-2.251.206-1.156-3.556,1.943-1.157a9.159,9.159,0,0,1,.19-2.43l-1.737-1.445,1.7-3.332Zm3.362,4.181a4.012,4.012,0,1,0,5.4-1.754,4.012,4.012,0,0,0-5.4,1.754" transform="translate(-327.557 -58.859)" fill="#e0e0e0"/><path d="M583.3,172.487a9.583,9.583,0,0,1,1.937-1.654l-.216-2.353,3.717-1.208,1.208,2.029a9.568,9.568,0,0,1,2.54.2l1.51-1.815,3.482,1.774-.58,2.288a9.569,9.569,0,0,1,1.654,1.938l2.352-.216,1.208,3.716-2.029,1.209a9.6,9.6,0,0,1-.2,2.54l1.815,1.51-1.773,3.482-2.289-.58A9.575,9.575,0,0,1,595.7,187l.216,2.353-3.717,1.208-1.208-2.03a9.6,9.6,0,0,1-2.54-.2l-1.51,1.815-3.482-1.774.58-2.289a9.57,9.57,0,0,1-1.654-1.938l-2.352.215-1.208-3.716,2.03-1.209a9.583,9.583,0,0,1,.2-2.54l-1.815-1.51,1.774-3.482Zm3.514,4.369a4.192,4.192,0,1,0,5.638-1.833,4.192,4.192,0,0,0-5.638,1.833" transform="translate(-327.402 -94.615)" fill="#f5f5f5"/><path d="M322.689,19.7a11.027,11.027,0,0,1,2.231-1.9l-.249-2.708,4.279-1.39,1.391,2.336a11.023,11.023,0,0,1,2.925.229L335,14.178l4.009,2.042-.668,2.634a11.018,11.018,0,0,1,1.9,2.231l2.708-.248,1.391,4.279-2.337,1.391a11.02,11.02,0,0,1-.229,2.924l2.09,1.739-2.042,4.009-2.635-.668a11.032,11.032,0,0,1-2.231,1.9l.248,2.708-4.278,1.39-1.392-2.336a11.037,11.037,0,0,1-2.924-.229l-1.739,2.09L322.871,38l.668-2.635a11.032,11.032,0,0,1-1.9-2.231l-2.708.248L317.536,29.1l2.337-1.392a11.037,11.037,0,0,1,.229-2.924l-2.09-1.739,2.042-4.009Zm4.045,5.03a4.826,4.826,0,1,0,6.491-2.11,4.827,4.827,0,0,0-6.491,2.11" transform="translate(-179.609 -7.75)" fill="#e0e0e0"/><path d="M22.542,356.272a12.773,12.773,0,0,0-5.466-1.881,3.642,3.642,0,0,0-2.585.475.532.532,0,0,0-.266.472.575.575,0,0,0,.253.323,7.815,7.815,0,0,0,8.064.611" transform="translate(-8.044 -200.433)" fill="#529d2e"/><path d="M25.491,347.261a26.682,26.682,0,0,1-3.53-3.106,8.933,8.933,0,0,1-2.213-4.093,1.649,1.649,0,0,1,.175-1.37c2.814,2.2,5.024,5.04,5.568,8.569" transform="translate(-11.133 -191.576)" fill="#529d2e"/><path d="M33.078,347.71a12.772,12.772,0,0,1,.065-4.635,6.267,6.267,0,0,1,2.469-3.825,5.474,5.474,0,0,1-.065,3.634,17.667,17.667,0,0,1-2.448,5.154" transform="translate(-18.609 -191.892)" fill="#529d2e"/><path d="M30.69,370.1a8.081,8.081,0,0,0-4.383,2.218,8.3,8.3,0,0,0-2.507,4.3,5.915,5.915,0,0,0,4.047-2.558c1.011-1.3,1.711-2.724,2.821-3.938" transform="translate(-13.462 -209.344)" fill="#529d2e"/><path d="M40.061,358.609a10.81,10.81,0,0,1,1.248-10.226,13.017,13.017,0,0,1-1.248,10.226" transform="translate(-22.233 -197.058)" fill="#529d2e"/><path d="M39.552,381.9a7.818,7.818,0,0,0-7.475,4.3c-.093.185-.174.421-.05.586a.556.556,0,0,0,.5.146,6.5,6.5,0,0,0,3.856-1.991,36.9,36.9,0,0,1,3.206-3.048" transform="translate(-18.08 -216.006)" fill="#529d2e"/><path d="M48.35,367.885a13.919,13.919,0,0,1-.139-7.776,3.791,3.791,0,0,1,1.66-2.524.323.323,0,0,1,.254-.045.334.334,0,0,1,.16.186,4.68,4.68,0,0,1,.391,2.231,13.978,13.978,0,0,1-.35,2.258,12.008,12.008,0,0,1-1.2,4.054,8.252,8.252,0,0,0-.481.89c-.143.3-.144.409-.275.649" transform="translate(-26.994 -202.231)" fill="#529d2e"/><path d="M71.027,373.526a10.026,10.026,0,0,1,1.757-8.244c.126-.164.293-.34.5-.321.316.029.4.45.384.766a14.9,14.9,0,0,1-2.64,7.8" transform="translate(-40.024 -206.434)" fill="#e0e0e0"/><path d="M73.378,382.339a11.993,11.993,0,0,0,9.84-2,7.969,7.969,0,0,0-5.327-.654,7.6,7.6,0,0,0-4.513,2.655" transform="translate(-41.505 -214.652)" fill="#529d2e"/><path d="M75.067,375.158A11.37,11.37,0,0,1,84,369.994a5.5,5.5,0,0,1-2.921,3.229,16.22,16.22,0,0,1-4.287,1.254,3.021,3.021,0,0,0-1.723.681" transform="translate(-42.461 -209.281)" fill="#529d2e"/><path d="M70.128,348.111a25.932,25.932,0,0,0,1.142-5.23,8.708,8.708,0,0,0-1.042-5.174,11.389,11.389,0,0,0-.152,10.583" transform="translate(-38.941 -191.019)" fill="#529d2e"/><path d="M85.193,345.751a14.013,14.013,0,0,1,10.316-7.018,11.493,11.493,0,0,1-10.316,7.018" transform="translate(-48.188 -191.599)" fill="#529d2e"/><path d="M82.266,355.761c3.014.459,5.582,2.384,8.4,3.551a3.766,3.766,0,0,0,1.9.364,1.486,1.486,0,0,0,.93-2.629,4.068,4.068,0,0,0-1.379-.837,15.329,15.329,0,0,0-9.589-.534" transform="translate(-46.533 -200.89)" fill="#529d2e"/><path d="M78.251,361.223a3.556,3.556,0,0,1,1.456,1.009,15.711,15.711,0,0,0,6.369,3.271c.243.06.563.085.683-.135.106-.192-.028-.425-.165-.6a8.765,8.765,0,0,0-3.845-2.61,9.816,9.816,0,0,0-4.5-1.066" transform="translate(-44.261 -204.238)" fill="#529d2e"/><path d="M73.72,331.6a12.054,12.054,0,0,0,9.24,3.144.637.637,0,0,0,.421-.151c.232-.253-.046-.644-.318-.855A10.645,10.645,0,0,0,73.72,331.6" transform="translate(-41.699 -187.378)" fill="#529d2e"/><path d="M79.092,326.788a12.878,12.878,0,0,1,11.53-1.9,9.15,9.15,0,0,1-5.494,2.412,17.387,17.387,0,0,1-6.035-.51" transform="translate(-44.737 -183.423)" fill="#529d2e"/><path d="M74.929,305.929c-.267-2.711-.094-4.852-.282-7.576-.015-.218-.062-.48-.265-.558-.284-.109-.52.239-.613.528a8.685,8.685,0,0,0,1.156,7.546" transform="translate(-41.501 -168.432)" fill="#e0e0e0"/><path d="M76.508,306.138A15.953,15.953,0,0,0,81,301.772a5.971,5.971,0,0,0,1.433-4.158,4.3,4.3,0,0,0-3.24,1.609,9.036,9.036,0,0,0-1.652,3.323c-.36,1.193-.611,2.419-1.033,3.591" transform="translate(-43.276 -168.341)" fill="#529d2e"/><path d="M86.593,305.571a36.216,36.216,0,0,0,11.054-6.518,5.643,5.643,0,0,0-4.152.32,13.088,13.088,0,0,0-6.959,6.169" transform="translate(-48.947 -169)" fill="#529d2e"/><path d="M79.365,316.49a22.466,22.466,0,0,0,6.138.03,26.072,26.072,0,0,0,5.73-1.9.676.676,0,0,0,.389-.3.448.448,0,0,0-.139-.49,1.189,1.189,0,0,0-.489-.229,10.61,10.61,0,0,0-6.192.37,28.7,28.7,0,0,0-5.437,2.519" transform="translate(-44.892 -177.209)" fill="#529d2e"/><path d="M51.208,320.533a10.857,10.857,0,0,1-.1-8.986,6.862,6.862,0,0,1,.795,4.468c-.155,1.535-.622,3.115-.652,4.658" transform="translate(-28.387 -176.222)" fill="#529d2e"/><path d="M27.608,325.773a12.533,12.533,0,0,0-9.313,3.967,8.706,8.706,0,0,0,5.1-.946,25.946,25.946,0,0,0,4.37-2.925" transform="translate(-10.348 -184.267)" fill="#529d2e"/><path d="M19.72,322.684a13,13,0,0,0-4.971.152,5.964,5.964,0,0,0-3.789,3.213,8.981,8.981,0,0,0,4.661-.88,26.811,26.811,0,0,0,4.1-2.485" transform="translate(-6.199 -182.429)" fill="#529d2e"/><path d="M30.892,319.63a15.684,15.684,0,0,0-4.882-2.438,5.319,5.319,0,0,0-5.087,1.234,9.5,9.5,0,0,0,4.863.945,16.8,16.8,0,0,1,5.3.537" transform="translate(-11.835 -179.317)" fill="#529d2e"/><path d="M40.029,309.292A11.349,11.349,0,0,1,37.474,298.6a16.29,16.29,0,0,1,2.555,10.692" transform="translate(-20.963 -168.898)" fill="#529d2e"/><path d="M60.45,295.476c.493-1.147.84-2.35,1.283-3.517a10.1,10.1,0,0,1,1.829-3.242,4.814,4.814,0,0,1,3.239-1.678,13.044,13.044,0,0,1-6.286,8.456" transform="translate(-34.193 -162.359)" fill="#529d2e"/><path d="M48.645,303.952a16.838,16.838,0,0,0-2.866-3.487,4.794,4.794,0,0,0-3.9-1.024,9.081,9.081,0,0,0,6.765,4.511" transform="translate(-23.689 -169.319)" fill="#529d2e"/><path d="M56.25,295.706a19.406,19.406,0,0,1-1.29-4.178,6.517,6.517,0,0,1,.654-4.248,9.64,9.64,0,0,1,.709,8.457" transform="translate(-31.034 -162.496)" fill="#529d2e"/><path d="M60.48,279.791a9.114,9.114,0,0,1,5.936-5.58,2.223,2.223,0,0,1,1.041-.156.9.9,0,0,1,.767.64c.1.458-.281.868-.637,1.172a20.207,20.207,0,0,1-7.107,3.924" transform="translate(-34.21 -155.006)" fill="#529d2e"/><path d="M60.493,270.441a19.259,19.259,0,0,1,.776-5.137,6.5,6.5,0,0,1,3.233-3.9,7.615,7.615,0,0,1-1.436,5,22.962,22.962,0,0,0-2.615,4.612" transform="translate(-34.193 -147.856)" fill="#529d2e"/><path d="M53.881,272.683c-.672-1.961-.741-4.451-1.916-6.158-.821-1.194-2.135-2.007-2.842-3.272a4.976,4.976,0,0,0,.165,3.714,10.751,10.751,0,0,0,2.172,3.109c.869.928,1.613,1.626,2.42,2.607" transform="translate(-27.624 -148.905)" fill="#529d2e"/><path d="M60.348,341.81c-.052,0-.1-13.078-.1-29.208s.036-29.21.088-29.21.1,13.075.1,29.21-.036,29.208-.088,29.208" transform="translate(-34.078 -160.296)" fill="#807a7a"/><path d="M71.887,327.688a2.781,2.781,0,0,1-.492.185l-1.353.457c-1.141.389-2.708.952-4.41,1.649a17.866,17.866,0,0,0-4.178,2.093,3.067,3.067,0,0,0-.839,1.111c-.13.307-.153.495-.17.491a.375.375,0,0,1,.006-.137,2.083,2.083,0,0,1,.1-.381,2.953,2.953,0,0,1,.819-1.184,7.347,7.347,0,0,1,1.813-1.126c.725-.338,1.529-.691,2.382-1.042,1.707-.7,3.286-1.244,4.44-1.6.577-.18,1.047-.313,1.373-.4a2.783,2.783,0,0,1,.513-.114" transform="translate(-34.188 -185.351)" fill="#807a7a"/><path d="M76.8,306.506a.819.819,0,0,1-.138.147l-.42.394L74.68,308.47l-5.215,4.643c-2.035,1.812-3.795,3.543-5.014,4.847-.61.651-1.091,1.19-1.419,1.567l-.379.433a.812.812,0,0,1-.142.144.785.785,0,0,1,.112-.168c.079-.105.194-.262.352-.456.311-.392.778-.946,1.377-1.61a66,66,0,0,1,4.986-4.9c2.042-1.807,3.9-3.432,5.252-4.6l1.606-1.378.443-.367a.808.808,0,0,1,.163-.119" transform="translate(-35.359 -173.37)" fill="#807a7a"/><path d="M73.456,320.064c-.053-.024.372-1.006.8-2.247s.629-2.289.683-2.28a7.665,7.665,0,0,1-.5,2.341,15.3,15.3,0,0,1-.633,1.572,2.454,2.454,0,0,1-.341.615" transform="translate(-41.547 -178.478)" fill="#e0e0e0"/><path d="M50.635,331.748a2.356,2.356,0,0,1-.314-.364l-.8-1.031c-.675-.872-1.608-2.077-2.654-3.395s-2.008-2.5-2.7-3.356l-.821-1.016a2.388,2.388,0,0,1-.284-.388,2.324,2.324,0,0,1,.34.34c.209.227.506.561.867.978.723.834,1.7,2,2.75,3.324s1.964,2.538,2.612,3.432c.324.447.582.811.756,1.067a2.365,2.365,0,0,1,.255.408" transform="translate(-24.353 -182.246)" fill="#807a7a"/><path d="M53.045,331.629a4.61,4.61,0,0,1-1.05-1.966,5.615,5.615,0,0,1-.238-1.982l.083.007c-.037.152-.065.232-.079.229s-.016-.087,0-.242l.084.007a9.028,9.028,0,0,0,.335,1.927,14.719,14.719,0,0,0,.869,2.019" transform="translate(-29.268 -185.344)" fill="#807a7a"/><path d="M39.918,326.362a3.369,3.369,0,0,0-.733-.426,4.908,4.908,0,0,0-2.035-.162,12.542,12.542,0,0,0-2.049.331,6.086,6.086,0,0,1-.844.2,2.951,2.951,0,0,1,.807-.331,9.372,9.372,0,0,1,2.071-.391,4.448,4.448,0,0,1,2.1.226,1.3,1.3,0,0,1,.683.55" transform="translate(-19.377 -184.147)" fill="#807a7a"/><path d="M35.167,323.573c-.014.03-.427-.171-1.123-.409a11.31,11.31,0,0,0-5.659-.431c-.724.13-1.162.265-1.172.234a1.064,1.064,0,0,1,.3-.127,7,7,0,0,1,.848-.238,9.993,9.993,0,0,1,5.731.437,7.093,7.093,0,0,1,.8.364,1.063,1.063,0,0,1,.275.171" transform="translate(-15.392 -182.344)" fill="#e0e0e0"/><path d="M58.548,308.066a46.424,46.424,0,0,1-1.455-5.736,23.251,23.251,0,0,1,.819,2.845,23.189,23.189,0,0,1,.636,2.891" transform="translate(-32.291 -171.008)" fill="#807a7a"/><path d="M57.648,311.519a13.709,13.709,0,0,0-.908-1.7,7.492,7.492,0,0,0-1.336-1.379,1.243,1.243,0,0,1,.516.266,4.149,4.149,0,0,1,.975,1,3.774,3.774,0,0,1,.753,1.812" transform="translate(-31.338 -174.461)" fill="#807a7a"/><path d="M44.878,376.974c-.02,0-.059-.314-.206-.87a12.371,12.371,0,0,0-.874-2.264,31.336,31.336,0,0,0-4.637-6.533c-1.035-1.183-2.04-2.3-2.892-3.367a23.662,23.662,0,0,1-2.068-2.983,14.35,14.35,0,0,1-1.044-2.214c-.1-.273-.166-.486-.205-.633a1.1,1.1,0,0,1-.054-.226c.017-.006.112.3.328.832a16.235,16.235,0,0,0,1.091,2.173A25.031,25.031,0,0,0,36.4,363.83c.856,1.057,1.862,2.167,2.9,3.352a29.71,29.71,0,0,1,4.615,6.6,11.275,11.275,0,0,1,.825,2.3,6.3,6.3,0,0,1,.116.656,1.076,1.076,0,0,1,.019.232" transform="translate(-18.607 -202.432)" fill="#807a7a"/><path d="M70.806,374.974a4.8,4.8,0,0,1-.541.3,11.822,11.822,0,0,0-1.4.928,16.087,16.087,0,0,0-1.844,1.682c-.647.683-1.314,1.477-1.994,2.328-1.36,1.707-2.632,3.217-3.394,4.422-.387.6-.668,1.1-.852,1.456a4.684,4.684,0,0,1-.3.545.515.515,0,0,1,.05-.153c.04-.1.1-.244.182-.424a13.737,13.737,0,0,1,.805-1.495,48.646,48.646,0,0,1,3.36-4.47c.682-.852,1.357-1.648,2.016-2.33A14.955,14.955,0,0,1,68.78,376.1a9.858,9.858,0,0,1,1.45-.887c.179-.09.326-.145.423-.187a.506.506,0,0,1,.153-.052" transform="translate(-34.208 -212.098)" fill="#807a7a"/><path d="M75.427,383.67a7.905,7.905,0,0,1-1.144.166,15.039,15.039,0,0,0-2.713.534,8.152,8.152,0,0,0-2.429,1.275c-.56.433-.824.791-.85.77a.875.875,0,0,1,.169-.263,4.31,4.31,0,0,1,.6-.61,7.348,7.348,0,0,1,2.456-1.351,12.264,12.264,0,0,1,2.758-.488,6.276,6.276,0,0,1,1.157-.033" transform="translate(-38.627 -217.009)" fill="#e0e0e0"/><path d="M69.054,384c-.06-.034.456-.821.856-1.88.375-1.069.463-2.006.531-2a1.827,1.827,0,0,1-.019.614,6.582,6.582,0,0,1-.334,1.446,6.983,6.983,0,0,1-.663,1.326,1.854,1.854,0,0,1-.37.49" transform="translate(-39.057 -215.013)" fill="#e0e0e0"/><path d="M74.157,351.585a.861.861,0,0,1-.183.1l-.538.245c-.236.1-.522.229-.844.4s-.7.338-1.093.574l-.624.355c-.217.125-.431.272-.659.415-.46.279-.921.623-1.413.974a24.246,24.246,0,0,0-5.442,5.631c-.334.5-.662.976-.925,1.446-.135.232-.275.452-.392.672l-.334.636c-.222.4-.381.784-.536,1.112s-.277.618-.37.856l-.226.546a.846.846,0,0,1-.091.186.856.856,0,0,1,.055-.2l.193-.559c.083-.244.191-.539.341-.872s.3-.723.514-1.13l.325-.645c.114-.224.252-.446.385-.682.259-.476.584-.955.917-1.465A23.362,23.362,0,0,1,68.7,354.5c.5-.35.966-.691,1.433-.966.231-.141.449-.286.668-.408l.634-.347c.4-.229.782-.394,1.112-.553s.619-.28.86-.371l.553-.212a.839.839,0,0,1,.2-.062" transform="translate(-34.214 -198.868)" fill="#807a7a"/><path d="M73.137,362.416a1.316,1.316,0,0,1,.45-.669,2.835,2.835,0,0,1,1.811-.695,4.937,4.937,0,0,1,1.906.372,2.711,2.711,0,0,1,.721.35,4.433,4.433,0,0,1-.764-.224,5.756,5.756,0,0,0-1.856-.309,2.948,2.948,0,0,0-1.73.607,5.415,5.415,0,0,0-.536.568" transform="translate(-41.368 -204.223)" fill="#e0e0e0"/><path d="M70.322,362.643a4.83,4.83,0,0,0,.4-3.419,1.1,1.1,0,0,1,.212.487,3.457,3.457,0,0,1-.292,2.507c-.16.289-.3.438-.319.425" transform="translate(-39.774 -203.189)" fill="#e0e0e0"/><path d="M39.685,406.145a43.279,43.279,0,0,0,4.1,15.22H53.864a43.767,43.767,0,0,0,3.861-15.22Z" transform="translate(-22.447 -229.73)" fill="#455a64"/><path d="M58.163,424.642c0,.052-3.317.095-7.408.095s-7.408-.043-7.408-.095,3.316-.094,7.408-.094,7.408.042,7.408.094" transform="translate(-24.519 -240.139)" fill="#fafafa"/><path d="M58.851,428.81c0,.052-3.11.095-6.944.095s-6.945-.043-6.945-.095,3.109-.095,6.945-.095,6.944.043,6.944.095" transform="translate(-25.432 -242.496)" fill="#fafafa"/><path d="M49.385,413.7a28.477,28.477,0,0,1,0,4.641,28.478,28.478,0,0,1,0-4.641" transform="translate(-27.88 -234.003)" fill="#fafafa"/><path d="M61.812,413.7a30.535,30.535,0,0,1,0,4.806,30.537,30.537,0,0,1,0-4.806" transform="translate(-34.909 -234.003)" fill="#fafafa"/><path d="M73.477,413.606a31.762,31.762,0,0,1,0,4.9,31.767,31.767,0,0,1,0-4.9" transform="translate(-41.507 -233.95)" fill="#fafafa"/><path d="M57.849,413.577c0,.052-3.89.095-8.688.095s-8.689-.043-8.689-.095,3.89-.095,8.689-.095,8.688.043,8.688.095" transform="translate(-22.892 -233.88)" fill="#fafafa"/></g><g clip-path="url(#a)"><path d="M296.18,39.112H113.138a5.713,5.713,0,0,0-5.714,5.713V174.112a5.713,5.713,0,0,0,5.714,5.714h70.251l-3.554,34.359,51.167-.32-2.927-34.039H296.18a5.714,5.714,0,0,0,5.714-5.713V44.826a5.714,5.714,0,0,0-5.714-5.714" transform="translate(-60.763 -22.123)" fill="#455a64"/><path d="M329.018,330.341a3.526,3.526,0,0,1-4.967,4.967,1.282,1.282,0,0,1-.306-.307,3.526,3.526,0,0,1,4.966-4.966,1.259,1.259,0,0,1,.306.306" transform="translate(-182.678 -186.235)" fill="#263238"/><path d="M302.846,159.258H114.68V48.776a4.212,4.212,0,0,1,4.212-4.212H298.634a4.212,4.212,0,0,1,4.212,4.212Z" transform="translate(-64.867 -25.207)" fill="#fff"/><path d="M302.846,54.1H114.68V48.541a3.976,3.976,0,0,1,3.976-3.976H299.581a3.265,3.265,0,0,1,3.265,3.265Z" transform="translate(-64.867 -25.208)" fill="#f5f5f5"/><path d="M128.076,54.275a1.322,1.322,0,1,1-1.322-1.322,1.322,1.322,0,0,1,1.322,1.322" transform="translate(-70.949 -29.952)" fill="#e0e0e0"/><path d="M137.148,54.275a1.322,1.322,0,1,1-1.322-1.322,1.322,1.322,0,0,1,1.322,1.322" transform="translate(-76.08 -29.952)" fill="#e0e0e0"/><path d="M145.775,54.275a1.322,1.322,0,1,1-1.322-1.322,1.322,1.322,0,0,1,1.322,1.322" transform="translate(-80.96 -29.952)" fill="#e0e0e0"/><path d="M339.411,362.923c0,.063-15.344.113-34.268.113s-34.271-.05-34.271-.113,15.341-.113,34.271-.113,34.268.05,34.268.113" transform="translate(-153.215 -205.218)" fill="#263238"/><rect width="30.928" height="105.163" transform="translate(49.813 28.887)" fill="#ebebeb"/><path d="M144.059,70.706a2.119,2.119,0,0,1,.515-.224l.106-.51.861-.015.124.506a2.112,2.112,0,0,1,.523.205l.435-.285.619.6-.27.445a2.107,2.107,0,0,1,.224.515l.51.106.015.861-.506.124a2.1,2.1,0,0,1-.205.523l.285.435-.6.62-.445-.27a2.124,2.124,0,0,1-.515.224l-.106.51-.861.015-.124-.506a2.1,2.1,0,0,1-.522-.205l-.435.285-.62-.6.27-.445a2.119,2.119,0,0,1-.224-.515l-.51-.106-.015-.861.506-.124a2.113,2.113,0,0,1,.205-.523l-.285-.435.6-.619Zm.459,1.147a.924.924,0,1,0,1.307-.023.924.924,0,0,0-1.307.023" transform="translate(-80.654 -39.571)" fill="#e0e0e0"/><path d="M143.06,123.628H129.578a1.386,1.386,0,0,1,0-2.771H143.06a1.386,1.386,0,0,1,0,2.771" transform="translate(-72.51 -68.361)" fill="#e0e0e0"/><path d="M143.06,107.377H129.578a1.386,1.386,0,0,1,0-2.771H143.06a1.386,1.386,0,0,1,0,2.771" transform="translate(-72.51 -59.169)" fill="#e0e0e0"/><path d="M143.06,92.512H129.578a1.386,1.386,0,0,1,0-2.771H143.06a1.386,1.386,0,0,1,0,2.771" transform="translate(-72.51 -50.761)" fill="#e0e0e0"/><path d="M227.383,90.681h-12.77a1.385,1.385,0,0,1,0-2.771h12.77a1.385,1.385,0,1,1,0,2.771" transform="translate(-120.609 -49.725)" fill="#263238"/><path d="M227.383,107.378h-12.77a1.385,1.385,0,0,1,0-2.771h12.77a1.385,1.385,0,1,1,0,2.771" transform="translate(-120.609 -59.169)" fill="#e0e0e0"/><path d="M227.383,124.633h-12.77a1.385,1.385,0,0,1,0-2.771h12.77a1.385,1.385,0,1,1,0,2.771" transform="translate(-120.609 -68.929)" fill="#448425"/><path d="M221.935,157.993h-7.323a1.386,1.386,0,0,1,0-2.771h7.323a1.386,1.386,0,1,1,0,2.771" transform="translate(-120.609 -87.799)" fill="#263238"/><path d="M221.935,175.287h-7.323a1.385,1.385,0,0,1,0-2.771h7.323a1.385,1.385,0,1,1,0,2.771" transform="translate(-120.609 -97.581)" fill="#263238"/><path d="M264.089,175.287H250.662a1.385,1.385,0,1,1,0-2.771h13.427a1.385,1.385,0,1,1,0,2.771" transform="translate(-140.999 -97.581)" fill="#e0e0e0"/><path d="M246.6,190.664H233.178a1.386,1.386,0,0,1,0-2.771H246.6a1.386,1.386,0,1,1,0,2.771" transform="translate(-131.11 -106.279)" fill="#448425"/><path d="M259.1,208.2h-8.415a1.35,1.35,0,0,1-1.35-1.35v-.072a1.35,1.35,0,0,1,1.35-1.35H259.1a1.35,1.35,0,0,1,1.35,1.35v.071a1.35,1.35,0,0,1-1.35,1.35" transform="translate(-141.031 -116.2)" fill="#448425"/><path d="M259.061,242.58h-8.343a1.385,1.385,0,1,1,0-2.771h8.343a1.385,1.385,0,1,1,0,2.771" transform="translate(-141.031 -135.644)" fill="#ff725e"/><path d="M259.061,278.888h-8.343a1.386,1.386,0,0,1,0-2.771h8.343a1.386,1.386,0,1,1,0,2.771" transform="translate(-141.031 -156.181)" fill="#ff725e"/><path d="M298.1,278.888H283.47a1.386,1.386,0,1,1,0-2.771H298.1a1.386,1.386,0,0,1,0,2.771" transform="translate(-159.556 -156.181)" fill="#455a64"/><path d="M337.97,278.888h-2.107a1.386,1.386,0,0,1,0-2.771h2.107a1.386,1.386,0,0,1,0,2.771" transform="translate(-189.192 -156.181)" fill="#e0e0e0"/><path d="M299.03,242.58H286.67a1.385,1.385,0,1,1,0-2.771H299.03a1.385,1.385,0,0,1,0,2.771" transform="translate(-161.367 -135.644)" fill="#e0e0e0"/><path d="M326.135,258.52H286.669a1.385,1.385,0,1,1,0-2.771h39.466a1.385,1.385,0,1,1,0,2.771" transform="translate(-161.366 -144.66)" fill="#e0e0e0"/><path d="M355.213,242.58h-25.2a1.385,1.385,0,1,1,0-2.771h25.2a1.385,1.385,0,1,1,0,2.771" transform="translate(-185.884 -135.644)" fill="#455a64"/><path d="M295.136,208.2H284.625a1.35,1.35,0,0,1-1.35-1.35v-.072a1.35,1.35,0,0,1,1.35-1.35h10.511a1.35,1.35,0,0,1,1.35,1.35v.072a1.35,1.35,0,0,1-1.35,1.35" transform="translate(-160.23 -116.2)" fill="#455a64"/><path d="M326.153,208.2h-2.666a1.35,1.35,0,0,1-1.35-1.35v-.072a1.35,1.35,0,0,1,1.35-1.35h2.666a1.35,1.35,0,0,1,1.35,1.35v.071a1.35,1.35,0,0,1-1.35,1.35" transform="translate(-182.212 -116.2)" fill="#e0e0e0"/><path d="M358.358,208.2H345.234a1.35,1.35,0,0,1-1.35-1.35v-.072a1.35,1.35,0,0,1,1.35-1.35h13.124a1.35,1.35,0,0,1,1.35,1.35v.072a1.35,1.35,0,0,1-1.35,1.35" transform="translate(-194.513 -116.2)" fill="#e0e0e0"/><path d="M281.133,190.664h-2.991a1.386,1.386,0,0,1,0-2.771h2.991a1.386,1.386,0,1,1,0,2.771" transform="translate(-156.543 -106.279)" fill="#263238"/><path d="M318.578,190.664h-19.05a1.386,1.386,0,1,1,0-2.771h19.05a1.386,1.386,0,0,1,0,2.771" transform="translate(-168.639 -106.279)" fill="#e0e0e0"/><path d="M274.483,90.681h-12.77a1.385,1.385,0,0,1,0-2.771h12.77a1.385,1.385,0,1,1,0,2.771" transform="translate(-147.25 -49.725)" fill="#455a64"/><path d="M290.937,107.378H261.713a1.385,1.385,0,1,1,0-2.771h29.224a1.385,1.385,0,1,1,0,2.771" transform="translate(-147.25 -59.169)" fill="#263238"/><path d="M322.4,124.633H261.713a1.385,1.385,0,1,1,0-2.771H322.4a1.385,1.385,0,1,1,0,2.771" transform="translate(-147.25 -68.929)" fill="#e0e0e0"/><path d="M290.328,136.786H261.712a1.386,1.386,0,0,1,0-2.771h28.616a1.386,1.386,0,0,1,0,2.771" transform="translate(-147.25 -75.804)" fill="#e0e0e0"/><path d="M276.852,157.993H248.236a1.386,1.386,0,0,1,0-2.771h28.616a1.386,1.386,0,0,1,0,2.771" transform="translate(-139.627 -87.799)" fill="#455a64"/><path d="M338.5,157.993h-9.592a1.386,1.386,0,0,1,0-2.771H338.5a1.386,1.386,0,0,1,0,2.771" transform="translate(-185.261 -87.799)" fill="#448425"/><path d="M383.858,157.89H365.74a1.386,1.386,0,0,1,0-2.771h18.118a1.386,1.386,0,0,1,0,2.771" transform="translate(-206.092 -87.741)" fill="#263238"/><path d="M440.624,157.89H422.506a1.386,1.386,0,0,1,0-2.771h18.118a1.386,1.386,0,0,1,0,2.771" transform="translate(-238.201 -87.741)" fill="#e0e0e0"/><path d="M137.222,140.83h-7.643a1.385,1.385,0,1,1,0-2.771h7.643a1.385,1.385,0,1,1,0,2.771" transform="translate(-72.51 -78.091)" fill="#e0e0e0"/><path d="M134.934,192.435h-5.355a1.386,1.386,0,1,1,0-2.771h5.355a1.386,1.386,0,1,1,0,2.771" transform="translate(-72.51 -107.281)" fill="#e0e0e0"/><path d="M144.446,158.031H129.579a1.386,1.386,0,1,1,0-2.771h14.867a1.386,1.386,0,1,1,0,2.771" transform="translate(-72.51 -87.82)" fill="#e0e0e0"/><path d="M141.837,175.234H129.578a1.385,1.385,0,1,1,0-2.771h12.259a1.385,1.385,0,1,1,0,2.771" transform="translate(-72.51 -97.551)" fill="#e0e0e0"/><path d="M198.34,89.266a1.407,1.407,0,1,1-1.407-1.407,1.408,1.408,0,0,1,1.407,1.407" transform="translate(-110.596 -49.696)" fill="#455a64"/><path d="M198.34,105.913a1.407,1.407,0,1,1-1.407-1.407,1.408,1.408,0,0,1,1.407,1.407" transform="translate(-110.596 -59.112)" fill="#455a64"/><path d="M198.34,123.218a1.407,1.407,0,1,1-1.407-1.407,1.408,1.408,0,0,1,1.407,1.407" transform="translate(-110.596 -68.901)" fill="#455a64"/><path d="M198.34,140.524a1.407,1.407,0,1,1-1.407-1.407,1.408,1.408,0,0,1,1.407,1.407" transform="translate(-110.596 -78.689)" fill="#455a64"/><path d="M198.34,157.829a1.407,1.407,0,1,1-1.407-1.407,1.407,1.407,0,0,1,1.407,1.407" transform="translate(-110.596 -88.478)" fill="#455a64"/><path d="M198.34,175.134a1.407,1.407,0,1,1-1.407-1.407,1.408,1.408,0,0,1,1.407,1.407" transform="translate(-110.596 -98.266)" fill="#455a64"/><path d="M198.34,192.44a1.407,1.407,0,1,1-1.407-1.407,1.408,1.408,0,0,1,1.407,1.407" transform="translate(-110.596 -108.055)" fill="#455a64"/><path d="M198.34,209.745a1.407,1.407,0,1,1-1.407-1.407,1.407,1.407,0,0,1,1.407,1.407" transform="translate(-110.596 -117.843)" fill="#455a64"/><path d="M198.34,227.05a1.407,1.407,0,1,1-1.407-1.407,1.407,1.407,0,0,1,1.407,1.407" transform="translate(-110.596 -127.632)" fill="#455a64"/><path d="M198.34,244.356a1.407,1.407,0,1,1-1.407-1.407,1.408,1.408,0,0,1,1.407,1.407" transform="translate(-110.596 -137.42)" fill="#455a64"/><path d="M198.34,261.661a1.407,1.407,0,1,1-1.407-1.407,1.407,1.407,0,0,1,1.407,1.407" transform="translate(-110.596 -147.209)" fill="#455a64"/><path d="M198.34,278.966a1.407,1.407,0,1,1-1.407-1.407,1.407,1.407,0,0,1,1.407,1.407" transform="translate(-110.596 -156.997)" fill="#455a64"/></g><g clip-path="url(#a)"><path d="M498.451,251.784l-49.64-.029A10.769,10.769,0,0,1,438,241.027l.024-123.442a10.771,10.771,0,0,1,10.82-10.724l49.64.029a10.769,10.769,0,0,1,10.807,10.728L509.27,241.06a10.77,10.77,0,0,1-10.819,10.724" transform="translate(-247.75 -60.444)" fill="#263238"/><path d="M502.463,117.027l-9.624-.006a2.381,2.381,0,0,0-2.337,2.422v1.732a2.38,2.38,0,0,1-2.337,2.422l-18.76-.011a2.382,2.382,0,0,1-2.336-2.425V119.43A2.383,2.383,0,0,0,464.731,117l-3.385,0-8.423,0a7.542,7.542,0,0,0-7.577,7.51L445.321,245a7.543,7.543,0,0,0,7.569,7.514l49.541.029a7.542,7.542,0,0,0,7.577-7.51l.024-120.489a7.543,7.543,0,0,0-7.568-7.513" transform="translate(-251.889 -66.178)" fill="#fff"/><path d="M463.119,276.347H453.31a7.862,7.862,0,0,1-7.862-7.862V158.943h17.671Z" transform="translate(-251.961 -89.904)" fill="#ebebeb"/><path d="M516.77,175.307h-8.416a.962.962,0,0,1,0-1.921h8.416a.962.962,0,0,1,0,1.921" transform="translate(-287.026 -98.073)" fill="#263238"/><path d="M517.374,186.849h-8.416a.962.962,0,0,1,0-1.921h8.416a.962.962,0,0,1,0,1.921" transform="translate(-287.367 -104.602)" fill="#e0e0e0"/><path d="M517.606,200.05h-8.416a.962.962,0,0,1,0-1.921h8.416a.962.962,0,0,1,0,1.921" transform="translate(-287.499 -112.069)" fill="#3a8416"/><path d="M547.89,210.056h-8.417a.962.962,0,0,1,0-1.921h8.417a.962.962,0,0,1,0,1.921" transform="translate(-304.628 -117.728)" fill="#e0e0e0"/><path d="M517.312,223.182h-4.826a.962.962,0,0,1,0-1.922h4.826a.962.962,0,0,1,0,1.922" transform="translate(-289.363 -125.152)" fill="#263238"/><path d="M517.312,235.172h-4.826a.962.962,0,0,1,0-1.921h4.826a.962.962,0,0,1,0,1.921" transform="translate(-289.363 -131.935)" fill="#263238"/><path d="M545.095,235.172h-8.849a.962.962,0,0,1,0-1.921h8.849a.962.962,0,0,1,0,1.921" transform="translate(-302.802 -131.935)" fill="#e0e0e0"/><path d="M521.314,249.307h-8.849a.962.962,0,0,1,0-1.921h8.849a.962.962,0,0,1,0,1.921" transform="translate(-289.351 -139.93)" fill="#3a8416"/><path d="M527.088,259.258h-5.453a.936.936,0,0,1-.936-.936v-.049a.935.935,0,0,1,.936-.936h5.453a.936.936,0,0,1,.936.936v.049a.936.936,0,0,1-.936.936" transform="translate(-294.525 -145.559)" fill="#3a8416"/><path d="M519.544,278.64h-5.5a.962.962,0,0,1,0-1.921h5.5a.962.962,0,0,1,0,1.921" transform="translate(-290.245 -156.522)" fill="#3a8416"/><path d="M519.544,303.816h-5.5a.962.962,0,0,1,0-1.921h5.5a.962.962,0,0,1,0,1.921" transform="translate(-290.245 -170.762)" fill="#3a8416"/><path d="M545.272,303.816h-9.641a.962.962,0,0,1,0-1.921h9.641a.962.962,0,0,1,0,1.921" transform="translate(-302.456 -170.762)" fill="#455a64"/><path d="M573.419,279.121h-9.64a.962.962,0,0,1,0-1.921h9.64a.962.962,0,0,1,0,1.921" transform="translate(-318.377 -156.794)" fill="#455a64"/><path d="M546.753,288.527h-9.64a.962.962,0,0,1,0-1.921h9.64a.962.962,0,0,1,0,1.921" transform="translate(-303.293 -162.114)" fill="#455a64"/><path d="M571.552,303.816h-1.389a.962.962,0,0,1,0-1.921h1.389a.962.962,0,0,1,0,1.921" transform="translate(-321.988 -170.762)" fill="#e0e0e0"/><path d="M545.887,278.64h-8.146a.962.962,0,0,1,0-1.921h8.146a.962.962,0,0,1,0,1.921" transform="translate(-303.648 -156.522)" fill="#e0e0e0"/><path d="M550.841,259.258h-6.835a.936.936,0,0,1-.936-.936v-.049a.936.936,0,0,1,.936-.936h6.835a.936.936,0,0,1,.936.936v.049a.936.936,0,0,1-.936.936" transform="translate(-307.179 -145.559)" fill="#455a64"/><path d="M571.283,259.258h-1.664a.936.936,0,0,1-.936-.936v-.049a.936.936,0,0,1,.936-.936h1.664a.936.936,0,0,1,.936.936v.049a.936.936,0,0,1-.936.936" transform="translate(-321.667 -145.559)" fill="#e0e0e0"/><path d="M544.071,249.307H542.1a.962.962,0,0,1,0-1.921h1.972a.962.962,0,0,1,0,1.921" transform="translate(-306.114 -139.93)" fill="#263238"/><path d="M568.75,249.307H556.194a.962.962,0,0,1,0-1.921H568.75a.962.962,0,0,1,0,1.921" transform="translate(-314.086 -139.93)" fill="#e0e0e0"/><path d="M545.926,175.307h-8.416a.962.962,0,0,1,0-1.921h8.416a.962.962,0,0,1,0,1.921" transform="translate(-303.517 -98.073)" fill="#455a64"/><path d="M556.078,186.849H536.817a.962.962,0,0,1,0-1.921h19.261a.962.962,0,0,1,0,1.921" transform="translate(-303.126 -104.602)" fill="#263238"/><path d="M557.451,199.959h-18.86a.962.962,0,0,1,0-1.922h18.86a.962.962,0,0,1,0,1.922" transform="translate(-304.129 -112.017)" fill="#e0e0e0"/><path d="M553.507,223.182h-18.86a.962.962,0,0,1,0-1.922h18.86a.962.962,0,0,1,0,1.922" transform="translate(-301.898 -125.152)" fill="#455a64"/><path d="M517.312,391.279h-4.826a.962.962,0,0,1,0-1.922h4.826a.962.962,0,0,1,0,1.922" transform="translate(-289.363 -220.234)" fill="#263238"/><path d="M517.312,403.269h-4.826a.962.962,0,0,1,0-1.921h4.826a.962.962,0,0,1,0,1.921" transform="translate(-289.363 -227.016)" fill="#263238"/><path d="M553.507,391.279h-18.86a.962.962,0,0,1,0-1.922h18.86a.962.962,0,0,1,0,1.922" transform="translate(-301.898 -220.234)" fill="#455a64"/><path d="M461.48,214.249h-5.037a.962.962,0,0,1,0-1.921h5.037a.962.962,0,0,1,0,1.921" transform="translate(-257.664 -120.1)" fill="#e0e0e0"/><path d="M461.48,226.556h-5.037a.962.962,0,0,1,0-1.921h5.037a.962.962,0,0,1,0,1.921" transform="translate(-257.664 -127.061)" fill="#e0e0e0"/><path d="M461.48,238.862h-5.037a.962.962,0,0,1,0-1.922h5.037a.962.962,0,0,1,0,1.922" transform="translate(-257.664 -134.021)" fill="#e0e0e0"/><path d="M461.48,201.942h-5.037a.962.962,0,0,1,0-1.922h5.037a.962.962,0,0,1,0,1.922" transform="translate(-257.664 -113.138)" fill="#e0e0e0"/><path d="M461.48,189.635h-5.037a.962.962,0,0,1,0-1.921h5.037a.962.962,0,0,1,0,1.921" transform="translate(-257.664 -106.178)" fill="#e0e0e0"/><path d="M461.48,177.329h-5.037a.962.962,0,0,1,0-1.921h5.037a.962.962,0,0,1,0,1.921" transform="translate(-257.664 -99.217)" fill="#e0e0e0"/><path d="M459.973,251.169h-3.53a.962.962,0,0,1,0-1.921h3.53a.962.962,0,0,1,0,1.921" transform="translate(-257.664 -140.983)" fill="#e0e0e0"/><path d="M495.511,174.326a.943.943,0,1,1-.942-.976.959.959,0,0,1,.942.976" transform="translate(-279.213 -98.053)" fill="#455a64"/><path d="M495.511,185.869a.943.943,0,1,1-.942-.976.959.959,0,0,1,.942.976" transform="translate(-279.213 -104.582)" fill="#455a64"/><path d="M495.511,197.868a.943.943,0,1,1-.942-.976.959.959,0,0,1,.942.976" transform="translate(-279.213 -111.369)" fill="#455a64"/><path d="M495.511,209.867a.943.943,0,1,1-.942-.976.96.96,0,0,1,.942.976" transform="translate(-279.213 -118.156)" fill="#455a64"/><path d="M495.511,221.866a.943.943,0,1,1-.942-.976.959.959,0,0,1,.942.976" transform="translate(-279.213 -124.943)" fill="#455a64"/><path d="M495.511,233.866a.943.943,0,1,1-.942-.976.96.96,0,0,1,.942.976" transform="translate(-279.213 -131.731)" fill="#455a64"/><path d="M495.511,245.865a.943.943,0,1,1-.942-.976.959.959,0,0,1,.942.976" transform="translate(-279.213 -138.518)" fill="#455a64"/><path d="M495.511,257.864a.943.943,0,1,1-.942-.976.959.959,0,0,1,.942.976" transform="translate(-279.213 -145.305)" fill="#455a64"/><path d="M495.511,269.863a.943.943,0,1,1-.942-.976.96.96,0,0,1,.942.976" transform="translate(-279.213 -152.092)" fill="#455a64"/><path d="M495.511,281.863a.943.943,0,1,1-.942-.976.96.96,0,0,1,.942.976" transform="translate(-279.213 -158.879)" fill="#455a64"/><path d="M495.511,293.862a.943.943,0,1,1-.942-.976.96.96,0,0,1,.942.976" transform="translate(-279.213 -165.666)" fill="#455a64"/><path d="M495.511,305.861a.943.943,0,1,1-.942-.976.96.96,0,0,1,.942.976" transform="translate(-279.213 -172.454)" fill="#455a64"/><path d="M521.314,320.938h-8.849a.962.962,0,0,1,0-1.921h8.849a.962.962,0,0,1,0,1.921" transform="translate(-289.351 -180.447)" fill="#3a8416"/><path d="M527.088,330.888h-5.453a.936.936,0,0,1-.936-.936V329.9a.935.935,0,0,1,.936-.936h5.453a.936.936,0,0,1,.936.936v.049a.936.936,0,0,1-.936.936" transform="translate(-294.525 -186.075)" fill="#3a8416"/><path d="M519.544,350.271h-5.5a.962.962,0,0,1,0-1.921h5.5a.962.962,0,0,1,0,1.921" transform="translate(-290.245 -197.039)" fill="#3a8416"/><path d="M519.544,375.447h-5.5a.962.962,0,0,1,0-1.922h5.5a.962.962,0,0,1,0,1.922" transform="translate(-290.245 -211.279)" fill="#3a8416"/><path d="M545.272,375.447h-9.641a.962.962,0,0,1,0-1.922h9.641a.962.962,0,0,1,0,1.922" transform="translate(-302.456 -211.279)" fill="#455a64"/><path d="M573.419,350.751h-9.64a.962.962,0,0,1,0-1.921h9.64a.962.962,0,0,1,0,1.921" transform="translate(-318.377 -197.31)" fill="#455a64"/><path d="M546.753,360.158h-9.64a.962.962,0,0,1,0-1.921h9.64a.962.962,0,0,1,0,1.921" transform="translate(-303.293 -202.631)" fill="#455a64"/><path d="M571.552,375.447h-1.389a.962.962,0,0,1,0-1.922h1.389a.962.962,0,0,1,0,1.922" transform="translate(-321.988 -211.279)" fill="#e0e0e0"/><path d="M545.887,350.271h-8.146a.962.962,0,0,1,0-1.921h8.146a.962.962,0,0,1,0,1.921" transform="translate(-303.648 -197.039)" fill="#e0e0e0"/><path d="M550.841,330.888h-6.835a.936.936,0,0,1-.936-.936V329.9a.936.936,0,0,1,.936-.936h6.835a.936.936,0,0,1,.936.936v.049a.936.936,0,0,1-.936.936" transform="translate(-307.179 -186.075)" fill="#455a64"/><path d="M571.283,330.888h-1.664a.936.936,0,0,1-.936-.936V329.9a.936.936,0,0,1,.936-.936h1.664a.936.936,0,0,1,.936.936v.049a.936.936,0,0,1-.936.936" transform="translate(-321.667 -186.075)" fill="#e0e0e0"/><path d="M544.071,320.938H542.1a.962.962,0,0,1,0-1.921h1.972a.962.962,0,0,1,0,1.921" transform="translate(-306.114 -180.447)" fill="#263238"/><path d="M568.75,320.938H556.194a.962.962,0,0,1,0-1.921H568.75a.962.962,0,0,1,0,1.921" transform="translate(-314.086 -180.447)" fill="#e0e0e0"/><path d="M495.511,317.495a.943.943,0,1,1-.942-.976.96.96,0,0,1,.942.976" transform="translate(-279.213 -179.034)" fill="#455a64"/><path d="M495.511,329.495a.943.943,0,1,1-.942-.976.959.959,0,0,1,.942.976" transform="translate(-279.213 -185.822)" fill="#455a64"/><path d="M495.511,341.494a.943.943,0,1,1-.942-.976.96.96,0,0,1,.942.976" transform="translate(-279.213 -192.609)" fill="#455a64"/><path d="M495.511,353.493a.943.943,0,1,1-.942-.976.959.959,0,0,1,.942.976" transform="translate(-279.213 -199.396)" fill="#455a64"/><path d="M495.511,365.492a.943.943,0,1,1-.942-.976.959.959,0,0,1,.942.976" transform="translate(-279.213 -206.183)" fill="#455a64"/><path d="M495.511,377.492a.943.943,0,1,1-.942-.976.959.959,0,0,1,.942.976" transform="translate(-279.213 -212.971)" fill="#455a64"/><path d="M495.511,390.3a.943.943,0,1,1-.942-.976.959.959,0,0,1,.942.976" transform="translate(-279.213 -220.214)" fill="#455a64"/><path d="M495.511,403.1a.943.943,0,1,1-.942-.976.959.959,0,0,1,.942.976" transform="translate(-279.213 -227.458)" fill="#455a64"/><path d="M502.491,117.027l-9.624-.006a2.38,2.38,0,0,0-2.337,2.422v1.732a2.38,2.38,0,0,1-2.337,2.422l-18.76-.011a2.383,2.383,0,0,1-2.336-2.425V119.43A2.383,2.383,0,0,0,464.759,117l-3.385,0-8.424,0a7.542,7.542,0,0,0-7.578,7.51l0,10.709h64.687l0-10.678a7.543,7.543,0,0,0-7.568-7.513" transform="translate(-251.917 -66.178)" fill="#f5f5f5"/><path d="M454.935,147.669a1.194,1.194,0,1,1-1.194-1.194,1.194,1.194,0,0,1,1.194,1.194" transform="translate(-255.976 -82.851)" fill="#e0e0e0"/><path d="M463.417,147.669a1.194,1.194,0,1,1-1.194-1.194,1.194,1.194,0,0,1,1.194,1.194" transform="translate(-260.774 -82.851)" fill="#e0e0e0"/><path d="M471.9,147.669a1.194,1.194,0,1,1-1.194-1.194,1.194,1.194,0,0,1,1.194,1.194" transform="translate(-265.572 -82.851)" fill="#e0e0e0"/><path d="M517.946,138.225a3.115,3.115,0,0,1,.761-.331l.157-.754,1.273-.023.184.748a3.142,3.142,0,0,1,.773.3l.644-.422.917.885-.4.658a3.12,3.12,0,0,1,.331.762l.754.157.022,1.274-.748.183a3.107,3.107,0,0,1-.3.773l.422.644-.885.917-.659-.4a3.092,3.092,0,0,1-.762.331l-.157.754-1.274.023-.183-.748a3.133,3.133,0,0,1-.773-.3l-.644.422-.916-.885.4-.659a3.119,3.119,0,0,1-.331-.762l-.754-.157-.022-1.274.748-.183a3.14,3.14,0,0,1,.3-.773l-.422-.644.885-.917Zm.679,1.7a1.367,1.367,0,1,0,1.933-.034,1.367,1.367,0,0,0-1.933.034" transform="translate(-291.739 -77.558)" fill="#e0e0e0"/></g><g clip-path="url(#a)"><path d="M76.718,142.55H44.608a4.287,4.287,0,0,1-4.287-4.287v-32.11a4.287,4.287,0,0,1,4.287-4.287h32.11a4.287,4.287,0,0,1,4.287,4.287v32.11a4.287,4.287,0,0,1-4.287,4.287" transform="translate(-22.807 -57.619)" fill="#529d2e"/><path d="M61.6,132.617a9.358,9.358,0,0,1,2.279-.99l.47-2.256,3.811-.067.549,2.237a9.346,9.346,0,0,1,2.313.91l1.926-1.263,2.742,2.648-1.194,1.969a9.322,9.322,0,0,1,.99,2.28l2.256.47.067,3.811-2.238.549a9.347,9.347,0,0,1-.91,2.312l1.262,1.926L73.275,149.9,71.306,148.7a9.345,9.345,0,0,1-2.279.99l-.47,2.256-3.812.067-.549-2.238a9.347,9.347,0,0,1-2.312-.91l-1.926,1.263-2.742-2.648,1.194-1.969a9.332,9.332,0,0,1-.991-2.28l-2.256-.47-.067-3.811,2.238-.549a9.334,9.334,0,0,1,.91-2.313l-1.263-1.926,2.647-2.743Zm2.032,5.077a4.089,4.089,0,1,0,5.782-.1,4.089,4.089,0,0,0-5.782.1" transform="translate(-31.165 -73.139)" fill="#fff"/><path d="M100.5,117.794a3.65,3.65,0,0,1,.738-.63l-.082-.9,1.415-.46.46.773a3.643,3.643,0,0,1,.967.076l.575-.691,1.326.675-.221.871a3.64,3.64,0,0,1,.63.738l.9-.082.46,1.415-.773.46a3.64,3.64,0,0,1-.076.967l.691.575-.675,1.326-.871-.221a3.629,3.629,0,0,1-.738.63l.083.9-1.415.46-.46-.773a3.643,3.643,0,0,1-.967-.076l-.575.691-1.326-.675.221-.871a3.652,3.652,0,0,1-.63-.738l-.9.082L98.8,120.9l.773-.46a3.637,3.637,0,0,1,.076-.967l-.691-.575.675-1.326Zm1.338,1.663a1.6,1.6,0,1,0,2.147-.7,1.6,1.6,0,0,0-2.147.7" transform="translate(-55.882 -65.506)" fill="#fff"/></g><g clip-path="url(#f)"><path d="M475.684,33.729H464.537V17.8c0-3.32-1.185-4.435-1.575-4.8-1.672-1.572-4.844-1.975-7.255-1.826-.14.009-.324.018-.549.018h-.025c-3.927,0-6.63,1.05-8.035,3.123a7.429,7.429,0,0,0-1.189,3.536v-.092l-11.146.086A18.206,18.206,0,0,1,439.9,5.6c3.662-3.679,8.773-5.548,15.19-5.557,2.987-.177,10.332-.034,15.511,4.834,2.32,2.181,5.086,6.195,5.086,12.922Z" transform="translate(-245.917 0)" fill="#448425"/></g><g clip-path="url(#a)"><path d="M161.849,145.62l2.175,17.567c.311,3.008.787,7.458,5.519,6.75,4.06-.924,4.7-4.944,4.406-7.75-.139-1.331-.252-2.442-.257-2.579,0,0,4.458-.889,4.322-5.379-.066-2.17-.564-6.628-1.062-10.655a8.366,8.366,0,0,0-8.662-7.327l-.433.019c-4.657.471-6.609,4.712-6.009,9.354" transform="translate(-91.488 -77.062)" fill="#ffceb3"/><path d="M181.575,188.111a10.851,10.851,0,0,1-5.916-1.479s1.565,3.217,6.025,2.622Z" transform="translate(-99.359 -105.566)" fill="#ff9c65"/><path d="M176.891,159.091c-.1.037-.576-.249-1.318-.352s-1.327.024-1.4-.037c-.035-.028.069-.105.325-.167a3.154,3.154,0,0,1,1.131-.031,2.817,2.817,0,0,1,1.036.342c.209.128.269.229.222.245" transform="translate(-98.516 -89.635)" fill="#263238"/><path d="M178.554,162.969a.607.607,0,0,1-.559.636.581.581,0,0,1-.648-.52.607.607,0,0,1,.558-.637.581.581,0,0,1,.649.52" transform="translate(-100.313 -91.885)" fill="#263238"/><path d="M184.958,163.283a4.585,4.585,0,0,1,1.112-.249c.175-.026.34-.068.365-.189a.9.9,0,0,0-.14-.517l-.578-1.318a23.131,23.131,0,0,1-1.319-3.458,23.081,23.081,0,0,1,1.594,3.343l.556,1.327a1.021,1.021,0,0,1,.121.687.441.441,0,0,1-.278.27,1.176,1.176,0,0,1-.3.054,4.452,4.452,0,0,1-1.135.05" transform="translate(-104.298 -89.116)" fill="#263238"/><path d="M174.941,152.4c-.053.174-.663.118-1.373.238s-1.279.345-1.38.2c-.045-.072.048-.237.274-.412a2.267,2.267,0,0,1,1.011-.415,2.244,2.244,0,0,1,1.086.085c.267.1.4.227.382.309" transform="translate(-97.389 -85.965)" fill="#263238"/><path d="M191.615,153.689c-.063.144-.661.062-1.368.122s-1.281.218-1.372.086c-.04-.063.062-.2.295-.333a2.476,2.476,0,0,1,1.022-.293,2.568,2.568,0,0,1,1.066.135c.257.1.384.215.357.284" transform="translate(-106.83 -86.69)" fill="#263238"/><path d="M159.274,165.481c-.083-.029-3.3-.734-2.974,2.475s3.478,2.221,3.474,2.129-.5-4.6-.5-4.6" transform="translate(-88.396 -93.554)" fill="#ffceb3"/><path d="M159.754,170.391c-.015-.009-.052.045-.142.1a.563.563,0,0,1-.417.051,1.392,1.392,0,0,1-.765-1.176,1.858,1.858,0,0,1,.076-.816.648.648,0,0,1,.377-.471.286.286,0,0,1,.345.12c.052.085.038.151.056.155s.063-.06.024-.191a.359.359,0,0,0-.146-.188.423.423,0,0,0-.318-.05.789.789,0,0,0-.534.556,1.91,1.91,0,0,0-.1.914,1.459,1.459,0,0,0,.955,1.3.6.6,0,0,0,.5-.137c.092-.089.1-.162.089-.167" transform="translate(-89.479 -94.976)" fill="#ff9c65"/><path d="M183.6,174.017a5.656,5.656,0,0,1-1.23-.381,3.427,3.427,0,0,1-.7-.578c-.168-.172-.285-.275-.311-.253s.04.157.178.363a2.265,2.265,0,0,0,.708.678,1.837,1.837,0,0,0,.954.255c.253,0,.4-.057.4-.084" transform="translate(-102.582 -97.743)" fill="#263238"/><path d="M192.068,157.666c-.063.079-.617.093-1.306.391s-1.126.7-1.217.687c-.044,0,.008-.121.2-.3a3.313,3.313,0,0,1,.954-.606,2.952,2.952,0,0,1,1.06-.255c.243,0,.344.048.312.085" transform="translate(-107.205 -89.133)" fill="#263238"/><path d="M192.711,161.732a.607.607,0,0,1-.559.636.58.58,0,0,1-.648-.52.607.607,0,0,1,.558-.637.581.581,0,0,1,.649.52" transform="translate(-108.321 -91.185)" fill="#263238"/><path d="M175.888,135.261a.727.727,0,0,0-.387-.381,2.231,2.231,0,0,0-1.158-.053,6.44,6.44,0,0,1-2.861-.376,3.2,3.2,0,0,0,.751-.669,1.919,1.919,0,0,0,.328-1.96.425.425,0,0,0-.272-.263c-.2-.037-.354.176-.474.346a1.653,1.653,0,0,1-1.469.834,2.72,2.72,0,0,1-1.195-.208c-.015-.012-.028-.026-.043-.038-.177-.145-.349-.283-.519-.416v0h0a10.13,10.13,0,0,0-3.408-1.963,10.392,10.392,0,0,0-5.562.206,4.2,4.2,0,0,0-2.775,3.611,3.23,3.23,0,0,0-3.262.071l-.028-.008a4.062,4.062,0,0,0-1.86,3.117c-.011.068-.02.136-.03.2a4.692,4.692,0,0,1-1.4,1.73c-.106.08-.227.176-.225.308s.123.226.238.29a2.368,2.368,0,0,0,1,.285,5.35,5.35,0,0,1-.294.872c-.107.24-.234.528-.09.749a.5.5,0,0,0,.546.165,1.464,1.464,0,0,0,.519-.311q-.142.494-.285.988a2.8,2.8,0,0,0,1.27-.234,31.105,31.105,0,0,0,1.206,3.219c.492-.059.944-.227,1.279.01.455.322.72,1,1.374.654.333-.175.566-.943.642-1.312a17.472,17.472,0,0,0-.1-7.432,5.61,5.61,0,0,1,1.578-1.442l-.047.053c1.192-.575,2.548-1.163,3.8-.716a8.246,8.246,0,0,1,2.386,1.911,6.636,6.636,0,0,0,5.066,1.732c.33,1.321.383,3.04.594,4.284l.923-2.153,0,.01c.07-.157.123-.313.175-.47l.019-.047v-.006a7.867,7.867,0,0,1,.27-.753l.013.009a.787.787,0,0,0,1.022-1.178,1.771,1.771,0,0,0-.422-.335,1.246,1.246,0,0,0,1.214.169.978.978,0,0,0,.575-1.04.83.83,0,0,0-.569-.605,2.808,2.808,0,0,0,1.545-.533.812.812,0,0,0,.413-.926" transform="translate(-84.864 -73.438)" fill="#263238"/><path d="M161.665,140.071a3.791,3.791,0,0,0-.4.46,3.212,3.212,0,0,0-.511,1.556,5.613,5.613,0,0,0,.017,1.143c.046.41.129.844.214,1.3a11.778,11.778,0,0,1,.2,1.454,5.168,5.168,0,0,1-.011.781,1.612,1.612,0,0,1-.227.783.677.677,0,0,1-.6.284,1.006,1.006,0,0,1-.6-.254,2.319,2.319,0,0,1-.559-1.081h.094a3.749,3.749,0,0,1-.433.994,1.335,1.335,0,0,1-.811.572.861.861,0,0,1-.468-.027.744.744,0,0,1-.347-.271.764.764,0,0,1-.14-.383.555.555,0,0,1,.1-.362l.052.036a2.884,2.884,0,0,1-.872.827,2.55,2.55,0,0,1-.283.149.055.055,0,1,1-.007-.016c.063-.035.156-.086.272-.162a2.984,2.984,0,0,0,.838-.834l.052.036a.574.574,0,0,0,.047.664.674.674,0,0,0,.313.239.783.783,0,0,0,.424.019,1.249,1.249,0,0,0,.751-.541,3.7,3.7,0,0,0,.415-.972l.047-.15.047.15a2.242,2.242,0,0,0,.533,1.033.906.906,0,0,0,.538.227.57.57,0,0,0,.513-.241,1.533,1.533,0,0,0,.209-.732,5.127,5.127,0,0,0,.012-.765,11.993,11.993,0,0,0-.2-1.443c-.082-.459-.163-.9-.206-1.311a5.633,5.633,0,0,1,0-1.16,3.166,3.166,0,0,1,.552-1.572,1.815,1.815,0,0,1,.432-.436" transform="translate(-88.227 -79.229)" fill="#455a64"/><path d="M183.461,139.147s-.01.013-.032.034l-.1.094a1.509,1.509,0,0,1-.174.142,2.428,2.428,0,0,1-.254.174,3.974,3.974,0,0,1-1.864.563,5.076,5.076,0,0,1-2.8-.68,8.79,8.79,0,0,1-2.614-2.39c-.386-.5-.713-1.023-1.063-1.5a5.937,5.937,0,0,0-1.151-1.239,3.055,3.055,0,0,0-1.372-.629,2.192,2.192,0,0,0-.685,0,2.416,2.416,0,0,0-.605.191,2.594,2.594,0,0,0-1.289,1.375,3.1,3.1,0,0,0-.152.693.152.152,0,0,1,0-.047c0-.037,0-.083.005-.139a2.242,2.242,0,0,1,.11-.522,2.557,2.557,0,0,1,.42-.733,2.62,2.62,0,0,1,.876-.695,2.451,2.451,0,0,1,.623-.2,2.254,2.254,0,0,1,.711-.007,3.128,3.128,0,0,1,1.417.638,5.983,5.983,0,0,1,1.175,1.254c.354.48.681,1,1.064,1.5a8.793,8.793,0,0,0,2.578,2.369,5.042,5.042,0,0,0,2.748.69,4.032,4.032,0,0,0,1.846-.524,6.305,6.305,0,0,0,.583-.41" transform="translate(-95.764 -75.573)" fill="#455a64"/><path d="M196.192,141.752a.706.706,0,0,1-.147.129,3.471,3.471,0,0,1-.444.295,4.6,4.6,0,0,1-.719.332,4.855,4.855,0,0,1-1.911.284,4.652,4.652,0,0,1-.785-.109,3.484,3.484,0,0,1-.511-.153.7.7,0,0,1-.178-.081c.007-.019.267.079.7.162a5.367,5.367,0,0,0,.774.085,5.235,5.235,0,0,0,1.876-.279,5.322,5.322,0,0,0,.716-.306c.394-.206.615-.375.626-.359" transform="translate(-108.317 -80.179)" fill="#455a64"/><path d="M154.867,211.98l-28.04.346a2.544,2.544,0,0,0-2.512,2.524l-.4,49.5,37.777.516-4.263-50.553a2.544,2.544,0,0,0-2.566-2.33" transform="translate(-70.093 -119.903)" fill="#455a64"/><path d="M257.167,406.567l-.155,9.559s9.664,3.367,9.808,5.137l-18.545.366-.371-14.9Z" transform="translate(-140.224 -229.968)" fill="#529d2e"/><path d="M254.951,426.939a.757.757,0,0,0-.506.874.727.727,0,0,0,.862.51.8.8,0,0,0,.532-.929.755.755,0,0,0-.956-.43" transform="translate(-143.912 -241.472)" fill="#e0e0e0"/><path d="M248.678,439.283l-.061-1.5,17.855.212s.833.343.751.926Z" transform="translate(-140.626 -247.622)" fill="#e0e0e0"/><path d="M267.386,428.24c0,.091-.453.141-.893.44s-.67.685-.754.651c-.084-.016.04-.56.579-.913s1.085-.262,1.067-.178" transform="translate(-150.298 -242.183)" fill="#263238"/><path d="M272.5,430.061c.023.087-.367.249-.667.638s-.381.8-.471.794c-.085.016-.158-.513.225-.99s.91-.529.913-.442" transform="translate(-153.456 -243.237)" fill="#263238"/><path d="M276.573,433.364c-.082.021-.217-.429.006-.93s.642-.706.682-.632-.217.345-.394.759-.2.791-.294.8" transform="translate(-156.374 -244.234)" fill="#263238"/><path d="M266.577,422.916c-.036.083-.454-.033-.966.011s-.907.214-.956.138.329-.407.931-.452,1.033.231.99.3" transform="translate(-149.696 -239.042)" fill="#263238"/><path d="M171.576,290.393s5.492.827,11.149,1.877c6.783,1.26,14,2.834,14.97,3.595,1.775,1.395,2.155,5.2,2.916,9.89s.933,39.592.933,39.592l-12.6.367L186.456,309.1s-18.393,0-22.177-.029c-3.053-.022-11.264.318-14.381-1.323-4.9-2.583-3.985-12.425-3.985-12.425,1.224-1.053,22.2-7.266,22.2-7.266Z" transform="translate(-82.495 -162.933)" fill="#263238"/><path d="M264.418,353.711l1.813,9.636s10.4,1.394,10.911,3.142l-18.557,4.186-3.44-14.9Z" transform="translate(-144.319 -200.071)" fill="#529d2e"/><path d="M266.526,376.915a.777.777,0,0,0-.329.983.746.746,0,0,0,.971.334.819.819,0,0,0,.343-1.042.775.775,0,0,0-1.049-.236" transform="translate(-150.533 -213.149)" fill="#e0e0e0"/><path d="M262.8,386.7l-.335-1.443,17.871-3.912s.907.173.945.776Z" transform="translate(-148.46 -215.7)" fill="#e0e0e0"/><path d="M279.393,375.467c.017.091-.427.235-.807.626s-.532.827-.623.809c-.088,0-.075-.571.394-1.037s1.036-.486,1.036-.4" transform="translate(-157.202 -212.353)" fill="#263238"/><path d="M284.931,376.335c.04.083-.317.326-.539.778s-.218.878-.31.894c-.082.033-.264-.483.022-1.041s.805-.718.827-.632" transform="translate(-160.612 -212.856)" fill="#263238"/><path d="M289.677,378.914c-.078.038-.306-.387-.186-.935s.5-.842.556-.775-.147.391-.239.844-.043.837-.131.867" transform="translate(-163.727 -213.354)" fill="#263238"/><path d="M277.314,370.349c-.019.091-.463.06-.968.21s-.867.4-.932.335.246-.477.843-.645,1.085.019,1.057.1" transform="translate(-155.779 -209.386)" fill="#263238"/><path d="M223.847,276.989s4.339-.308,5.271,3.406c1.292,5.148,6.986,35.918,6.986,35.918l-12.825,2.479-6.762-30.029-12.148-1.977-5.007-2a21.505,21.505,0,0,1,8.69-4.883c3.989-1.27,15.794-2.912,15.794-2.912" transform="translate(-112.766 -156.671)" fill="#263238"/><path d="M238.949,301.831a9.512,9.512,0,0,1,1.526-1.86,9.779,9.779,0,0,1,2.054-1.254,4.272,4.272,0,0,0-2.189,1.1,5.262,5.262,0,0,0-1.113,1.347,1.822,1.822,0,0,0-.278.668" transform="translate(-135.156 -168.962)" fill="#455a64"/><path d="M241.68,291.864c-.009-.011-.093.045-.239.157a5.07,5.07,0,0,0-.576.524,7.395,7.395,0,0,0-2.022,4.634,5.075,5.075,0,0,0,.007.779c.017.183.033.283.048.282.035,0,.019-.406.09-1.049a8.346,8.346,0,0,1,1.985-4.549c.423-.489.73-.752.708-.779" transform="translate(-135.092 -165.088)" fill="#455a64"/><path d="M229.279,291.865s.016.053.04.158l.1.469c.086.421.21,1.031.371,1.819l1.358,6.82,4.633,23.582.019.1-.1.019-12.824,2.484-.1.019-.022-.1-.213-.946L216.018,297.2l.065.061L203.33,295.15l-3.492-.59-.91-.16c-.205-.037-.31-.063-.31-.063s.107.009.314.039l.914.137,3.5.548,12.764,2.042.053.009.012.053c1.772,7.839,4.069,18,6.572,29.079l.213.945-.12-.078,12.826-2.475-.078.116c-1.843-9.54-3.431-17.757-4.56-23.6-.555-2.912-1-5.232-1.3-6.83l-.339-1.825c-.036-.2-.063-.359-.083-.472s-.023-.161-.023-.161" transform="translate(-112.345 -165.089)" fill="#455a64"/><path d="M204.992,203.5s2.379,1.578,3.426,6.246c.84,3.745,2.174,10.842,2.174,10.842l4.983,3.273a1.119,1.119,0,0,1,.362,1.486c-1.17,2.073-4.114,6.987-6.036,7.58-2.444.754-4.8-1.166-4.8-1.166Z" transform="translate(-115.951 -115.104)" fill="#3a8416"/><path d="M168.558,195.913l-5.738-2.308-.978-1.91-.892,3.956-9.337-5.561-.663,2.323s-8.9,3.738-10.059,4.791c-1.42,1.293,2.458,22.857,2.458,22.857s-1.407,17.3-.89,20.748a97.131,97.131,0,0,1,11.409-2.5,82.239,82.239,0,0,0,11.432-2.695l5.649-3.494Z" transform="translate(-79.516 -107.521)" fill="#3a8416"/><path d="M206.942,225.125a1.653,1.653,0,0,1,.028.289c.01.21.024.486.041.83.033.744.08,1.781.138,3.053.117,2.578.3,6.138.526,10.069s.462,7.489.656,10.062c.1,1.269.182,2.3.241,3.046.028.344.05.619.067.828a1.508,1.508,0,0,1,.01.29,1.537,1.537,0,0,1-.051-.286c-.027-.209-.062-.483-.106-.824-.083-.717-.191-1.757-.306-3.042-.232-2.571-.487-6.129-.717-10.062s-.386-7.494-.467-10.075c-.041-1.29-.064-2.334-.072-3.056,0-.345,0-.621,0-.831a1.455,1.455,0,0,1,.014-.29" transform="translate(-117.046 -127.339)" fill="#263238"/><path d="M147.346,213.156c-.037,0,.014-.461-.088-1.186a5.777,5.777,0,0,0-3.2-4.425c-.656-.324-1.108-.42-1.1-.456a.9.9,0,0,1,.322.043,4.683,4.683,0,0,1,.838.281,5.512,5.512,0,0,1,3.283,4.54,4.668,4.668,0,0,1,0,.884.9.9,0,0,1-.06.319" transform="translate(-80.863 -117.134)" fill="#263238"/><path d="M183.695,267.7l-2.736-2.779-5.625-1.362s-5.156,1.477-5.279,1.473-4.552-1.473-4.552-1.473l-1.46,5.684,7.859.515,8.973-.344s.468-.417.191-.7,1.5.482,1.71.491.615.163.892-.158a1.1,1.1,0,0,0,.028-1.346" transform="translate(-92.788 -149.079)" fill="#ffceb3"/><path d="M132.912,206.469s-2,1.253-2.983,5.139-4.067,19.95-3.19,22.325,20.332,5.437,20.332,5.437l2.217-7.038-13.5-4.473s1.976-7.727,2.086-10.857-4.96-10.533-4.96-10.533" transform="translate(-71.6 -116.786)" fill="#3a8416"/><path d="M195.26,273.449a5.036,5.036,0,0,1-.894-.243c-.545-.166-1.3-.387-2.144-.594s-1.618-.36-2.178-.467a5,5,0,0,1-.905-.2,3.983,3.983,0,0,1,.929.067,20.718,20.718,0,0,1,2.205.415,19.9,19.9,0,0,1,2.141.652,3.843,3.843,0,0,1,.847.372" transform="translate(-106.984 -153.814)" fill="#ff9c65"/><path d="M198.059,270.342a12.241,12.241,0,0,1-1.249-.385c-.766-.247-1.836-.55-3.026-.868a16.521,16.521,0,0,0-3.051-.721,7.805,7.805,0,0,0-1.295.048,1.054,1.054,0,0,1,.337-.109,3.865,3.865,0,0,1,.967-.076,13.735,13.735,0,0,1,3.1.672c1.191.318,2.262.643,3.019.925.38.139.682.262.888.353a1.2,1.2,0,0,1,.312.161" transform="translate(-107.153 -151.719)" fill="#ff9c65"/><path d="M138.822,257.064a4.449,4.449,0,0,1,3.953-1.466,7,7,0,0,0-3.953,1.466" transform="translate(-78.522 -144.538)" fill="#263238"/><path d="M133.879,247.657a.336.336,0,0,1,.084.017l.243.066c.212.064.531.142.946.243.829.2,2.044.471,3.58.785,3.07.633,7.413,1.472,12.484,2.4l-.111.067,2.212-7.039.066.129-.764-.253-12.733-4.234-.073-.024.014-.075,1.682-8.885.484-2.481.134-.652a1.38,1.38,0,0,1,.055-.222,1.479,1.479,0,0,1-.028.227c-.026.161-.062.379-.108.657l-.436,2.49c-.39,2.157-.945,5.219-1.61,8.9l-.059-.1,12.743,4.206.764.253.1.032-.03.1-2.222,7.036-.026.083-.085-.016c-5.069-.943-9.409-1.808-12.474-2.474-1.533-.331-2.745-.622-3.57-.841-.413-.111-.729-.2-.939-.275l-.239-.082a.328.328,0,0,1-.079-.033" transform="translate(-75.727 -128.681)" fill="#263238"/><path d="M215.98,247.166a1.421,1.421,0,0,1-.384-.145,5.63,5.63,0,0,1-.947-.6,6.446,6.446,0,0,1-2.123-2.991,5.384,5.384,0,0,1-.3-2.026,1.75,1.75,0,0,1,.841-1.438,1.079,1.079,0,0,1,1.12.049c.226.165.264.328.255.328s-.084-.128-.3-.254a1,1,0,0,0-1,.016,1.606,1.606,0,0,0-.711,1.316,5.441,5.441,0,0,0,.3,1.936,6.724,6.724,0,0,0,2.009,2.94c.709.6,1.251.828,1.231.867" transform="translate(-120.037 -135.659)" fill="#263238"/><path d="M210.289,246.827a2.633,2.633,0,0,1,.389-1.005c.271-.527.535-.931.591-.9a2.636,2.636,0,0,1-.389,1.006c-.271.526-.535.93-.591.9" transform="translate(-118.941 -138.535)" fill="#263238"/><path d="M189.8,197.826a4.235,4.235,0,0,1-.063.978c-.068.6-.177,1.426-.312,2.337-.022.147-.043.291-.065.432l-.049.326-.159-.288a12.146,12.146,0,0,0-.938-1.431l.152-.051a5.466,5.466,0,0,1-.122,1.165,5.481,5.481,0,0,1-.049-1.171V199.9l.152.177a9.146,9.146,0,0,1,1,1.428l-.209.039q.031-.212.063-.432c.135-.911.269-1.734.377-2.327a4.231,4.231,0,0,1,.222-.954" transform="translate(-106.45 -111.897)" fill="#263238"/><path d="M174.517,200.187a2.207,2.207,0,0,1-.305-.382l-.775-1.095.134-.022-.635,2.439-.034.131-.119-.069c-.775-.453-1.63-.97-2.519-1.532-1.705-1.077-3.207-2.116-4.275-2.895-.534-.388-.96-.711-1.251-.94a2.764,2.764,0,0,1-.437-.374,2.826,2.826,0,0,1,.488.3l1.291.88c1.089.744,2.6,1.76,4.3,2.834.887.561,1.737,1.083,2.5,1.545l-.152.062.69-2.424.046-.162.089.139.719,1.133a2.2,2.2,0,0,1,.238.427" transform="translate(-92.934 -110.552)" fill="#263238"/><path d="M190.124,232.007a1.044,1.044,0,0,1-.047-.247c-.025-.188-.055-.423-.093-.713-.076-.619-.175-1.517-.289-2.627-.227-2.219-.5-5.289-.747-8.685s-.4-6.476-.493-8.7c-.045-1.115-.075-2.017-.087-2.641,0-.291-.007-.529-.01-.718a1.047,1.047,0,0,1,.012-.251,1.054,1.054,0,0,1,.033.249c.014.189.031.426.052.717.04.653.093,1.546.159,2.636.131,2.227.318,5.3.56,8.7s.493,6.464.68,8.686c.089,1.089.163,1.98.217,2.633.02.291.037.528.05.717a1.041,1.041,0,0,1,0,.251" transform="translate(-106.542 -117.325)" fill="#263238"/><path d="M145.218,287.046c0,.057-3.286.1-7.339.1s-7.339-.046-7.339-.1,3.285-.1,7.339-.1,7.339.046,7.339.1" transform="translate(-73.838 -162.305)" fill="#263238"/><path d="M138.393,278.318c0,.057-1.959.1-4.374.1s-4.374-.046-4.374-.1,1.959-.1,4.374-.1,4.374.046,4.374.1" transform="translate(-73.331 -157.368)" fill="#263238"/><path d="M202.971,239.653l-8.418,14.9-19.477.423-.05.9,19.324-.144.612-.021,20.406.04,4.123-7.112,5.106-8.272a.745.745,0,0,0-.614-1.171l-20.37.078a.745.745,0,0,0-.644.375" transform="translate(-99.001 -135.3)" fill="#e0e0e0"/><path d="M254.017,257.458a.861.861,0,1,0,1.287-.152.92.92,0,0,0-1.287.152" transform="translate(-143.525 -145.429)" fill="#fff"/><path d="M232.286,239.371c.05.028-2.005,3.729-4.59,8.266s-4.719,8.193-4.768,8.164,2.005-3.729,4.59-8.266,4.719-8.192,4.768-8.163" transform="translate(-126.095 -135.396)" fill="#263238"/><path d="M169.784,344.926s-9.275,4.233-18.3,4.233c-8.355,0-17.7-4.206-17.7-4.206Z" transform="translate(-75.675 -195.102)" fill="#e0e0e0"/><rect width="3.578" height="37.477" transform="translate(74.869 150.227)" fill="#e0e0e0"/><rect width="31.756" height="2.197" transform="translate(60.617 186.152)" fill="#e0e0e0"/><path d="M204.091,432.645a2.424,2.424,0,1,0,2.423-2.423,2.424,2.424,0,0,0-2.423,2.423" transform="translate(-115.441 -243.348)" fill="#263238"/><path d="M171.6,432.645a2.424,2.424,0,1,0,2.424-2.423,2.424,2.424,0,0,0-2.424,2.423" transform="translate(-97.065 -243.348)" fill="#263238"/><path d="M133.973,432.645a2.424,2.424,0,1,0,2.424-2.423,2.424,2.424,0,0,0-2.424,2.423" transform="translate(-75.78 -243.348)" fill="#263238"/><rect width="4.867" height="2.014" transform="translate(75.813 163.716)" fill="#e0e0e0"/><rect width="1.772" height="4.834" transform="translate(79.794 162.306)" fill="#e0e0e0"/><path d="M127.636,337.921H170a2.594,2.594,0,0,0,2.868-2.69,2.783,2.783,0,0,0-2.868-2.69H123.918v1.893a3.608,3.608,0,0,0,3.718,3.487" transform="translate(-70.092 -188.097)" fill="#455a64"/><path d="M137.035,286.993c.057,0,.1,4.673.1,10.436s-.046,10.436-.1,10.436-.1-4.672-.1-10.436.046-10.436.1-10.436" transform="translate(-77.453 -162.333)" fill="#263238"/><path d="M171.481,281.06a4.282,4.282,0,0,1,.576.8,5.327,5.327,0,0,1,.683,2.723,2.473,2.473,0,0,1-.7,1.895,2.327,2.327,0,0,1-1.026.588,4.533,4.533,0,0,1-1.267.111l-5.918.02-34.265.054a21.322,21.322,0,0,1-2.427-.07,4.032,4.032,0,0,1-2.167-1.053,4.441,4.441,0,0,1-1.145-2.08,7.1,7.1,0,0,1-.192-2.329v.011c.115-11.12.215-20.872.288-27.852.045-3.48.081-6.269.106-8.2.017-.953.03-1.692.039-2.2.006-.245.011-.433.015-.57s.012-.193.012-.193.006.066.008.194,0,.325,0,.57c0,.511,0,1.251,0,2.2-.009,1.928-.023,4.717-.04,8.2-.053,6.981-.126,16.732-.21,27.853v.012a6.884,6.884,0,0,0,.189,2.247,4.215,4.215,0,0,0,1.086,1.975,3.8,3.8,0,0,0,2.045.99,21.206,21.206,0,0,0,2.392.067l34.265.012,5.918.013a4.434,4.434,0,0,0,1.236-.1,2.224,2.224,0,0,0,.981-.552,2.382,2.382,0,0,0,.685-1.816,5.37,5.37,0,0,0-.635-2.7,6.109,6.109,0,0,0-.391-.618c-.1-.132-.144-.2-.144-.2" transform="translate(-69.92 -137.289)" fill="#263238"/><path d="M125.012,282.227l19.547.234a.506.506,0,0,1,.484.578l-2.931,24.422H146.7l2.369-26.884a1.577,1.577,0,0,0-1.509-1.768l-22.84-.134Z" transform="translate(-70.547 -157.629)" fill="#455a64"/><path d="M124.955,282.175s-.011-.07-.026-.218-.036-.377-.064-.666q-.083-.908-.242-2.664l0-.044h.044l18.936.058,3.3.015a5.884,5.884,0,0,1,.864.033,1.637,1.637,0,0,1,.808.4,1.681,1.681,0,0,1,.487.773,2.229,2.229,0,0,1,.036.912c-.205,2.351-.419,4.8-.64,7.34-.446,5.074-.921,10.486-1.414,16.1q-.143,1.615-.282,3.2l-.009.1h-4.819l.016-.126c.764-6.327,1.483-12.283,2.132-17.659q.245-2.015.476-3.918.116-.951.228-1.871.055-.461.11-.913a.427.427,0,0,0-.385-.538l-6.633-.1-9.5-.153-2.548-.047-.655-.016c-.147,0-.218-.01-.218-.01s.08,0,.232-.005h.669l2.568.013,9.487.075,6.6.063a.593.593,0,0,1,.451.241.625.625,0,0,1,.1.5q-.053.453-.108.913-.109.921-.222,1.872-.225,1.9-.465,3.919c-.641,5.376-1.352,11.332-2.106,17.66l-.111-.125h4.589l-.112.1q.139-1.583.282-3.2c.5-5.618.976-11.03,1.425-16.1.226-2.537.444-4.989.653-7.34a2.027,2.027,0,0,0-.026-.834,1.487,1.487,0,0,0-.428-.682,1.445,1.445,0,0,0-.712-.355,5.92,5.92,0,0,0-.832-.032l-3.3-.024-18.934-.164.04-.043q.128,1.743.195,2.646c.02.294.035.517.046.676s.011.232.011.232" transform="translate(-70.489 -157.576)" fill="#263238"/><path d="M170.5,338.77a.6.6,0,1,1-.6-.6.6.6,0,0,1,.6.6" transform="translate(-95.764 -191.282)" fill="#263238"/><path d="M77.876,255.862l1.432,9.409h8.318L89.556,256Z" transform="translate(-44.049 -144.725)" fill="#529d2e"/><path d="M89.691,269.682c0,.027-2.131.049-4.76.049s-4.761-.022-4.761-.049,2.131-.049,4.761-.049,4.76.022,4.76.049" transform="translate(-45.347 -152.514)" fill="#fafafa"/><path d="M89.681,268.617c0,.027-2.146.049-4.792.049s-4.793-.022-4.793-.049,2.145-.049,4.793-.049,4.792.022,4.792.049" transform="translate(-45.305 -151.911)" fill="#fafafa"/><path d="M89.644,267.413c0,.027-2.146.049-4.793.049s-4.792-.022-4.792-.049,2.145-.049,4.792-.049,4.793.022,4.793.049" transform="translate(-45.284 -151.23)" fill="#fafafa"/><path d="M82.826,273.181a15.063,15.063,0,0,1-.414-2.386,15.069,15.069,0,0,1,.414,2.386" transform="translate(-46.612 -153.171)" fill="#fafafa"/><path d="M84.457,273.043a27.616,27.616,0,0,1-.157-2.315,9.24,9.24,0,0,1,.157,2.315" transform="translate(-47.678 -153.133)" fill="#fafafa"/><path d="M86.668,272.947a9.426,9.426,0,0,1-.28-2.388,35.124,35.124,0,0,1,.28,2.388" transform="translate(-48.857 -153.038)" fill="#fafafa"/><path d="M88.557,273.028a9.648,9.648,0,0,1-.079-2.413,33.872,33.872,0,0,1,.079,2.413" transform="translate(-50.021 -153.069)" fill="#fafafa"/><path d="M91.534,273.077a6.786,6.786,0,0,1-.088-1.143,6.7,6.7,0,0,1,.01-1.146,13.5,13.5,0,0,1,.077,2.289" transform="translate(-51.718 -153.167)" fill="#fafafa"/><path d="M93.769,273.094a14.383,14.383,0,0,1,.019-2.364,14.256,14.256,0,0,1-.019,2.364" transform="translate(-53.016 -153.134)" fill="#fafafa"/><path d="M95.83,272.677a15.669,15.669,0,0,1,.239-2.462,15.671,15.671,0,0,1-.239,2.462" transform="translate(-54.199 -152.843)" fill="#fafafa"/><path d="M98.437,272.91a6.485,6.485,0,0,1,.449-2.065,50.045,50.045,0,0,1-.449,2.065" transform="translate(-55.675 -153.199)" fill="#fafafa"/><path d="M75.678,251.573v1.76a.693.693,0,0,0,.693.693H88.417a.694.694,0,0,0,.693-.693v-1.76Z" transform="translate(-42.806 -142.298)" fill="#529d2e"/><g transform="translate(33.916 111.728)" opacity="0.4"><g clip-path="url(#h)"><path d="M78.083,257.222l.1.56,11.115.792.281-1.353Z" transform="translate(-78.083 -257.222)"/></g></g><path d="M82.1,236.765c-1.77-1.026-2.717-3.414-2.788-5.367a6,6,0,0,1,2.345-5.112,5.368,5.368,0,0,1,5.825-.048,6.064,6.064,0,0,1,2.672,5.264,6.98,6.98,0,0,1-2.859,5.243" transform="translate(-44.86 -127.496)" fill="#455a64"/><path d="M91.58,237.2a2.322,2.322,0,0,1-.033-.447c-.009-.32-.021-.728-.035-1.218-.026-1.029-.067-2.45-.136-4.018s-.154-2.988-.218-4.015c-.029-.49-.054-.9-.073-1.217a2.357,2.357,0,0,1-.007-.448,2.293,2.293,0,0,1,.071.443c.035.286.078.7.125,1.213.094,1.026.2,2.446.267,4.017s.091,2.994.087,4.024c0,.515-.008.932-.018,1.22a2.334,2.334,0,0,1-.032.447" transform="translate(-51.514 -127.74)" fill="#263238"/><path d="M78.9,237.993c0,.046-.286.06-.631.031s-.62-.088-.617-.134.286-.06.631-.031.621.088.617.134" transform="translate(-43.923 -134.533)" fill="#263238"/><path d="M79.417,233.545c-.019.042-.262-.026-.544-.15s-.5-.261-.477-.3.262.026.544.151.5.26.476.3" transform="translate(-44.343 -131.838)" fill="#263238"/><path d="M81.5,230.058c-.024.038-.3-.091-.582-.327s-.463-.48-.43-.511.26.156.536.383.5.415.476.455" transform="translate(-45.525 -129.653)" fill="#263238"/><path d="M84.33,227.046c-.042.019-.173-.186-.293-.458s-.183-.506-.142-.525.173.187.293.458.183.506.141.525" transform="translate(-47.447 -127.869)" fill="#263238"/><path d="M87.721,224.928c-.041.019-.182-.2-.276-.5s-.1-.562-.057-.569.125.229.216.52.16.531.117.551" transform="translate(-49.414 -126.621)" fill="#263238"/><path d="M93.272,224.061c.043.015.017.2-.059.416s-.172.376-.215.361-.017-.2.059-.416.172-.376.215-.361" transform="translate(-52.591 -126.736)" fill="#263238"/><path d="M96.9,225.794c.031.034-.082.189-.252.347s-.334.258-.365.225.082-.188.252-.346.334-.258.365-.225" transform="translate(-54.459 -127.713)" fill="#263238"/><path d="M100.355,228.1c.026.038-.112.176-.308.309s-.375.209-.4.171.112-.176.308-.308.375-.209.4-.172" transform="translate(-56.362 -129.013)" fill="#263238"/><path d="M102.468,231.529c.018.042-.2.175-.485.3s-.532.187-.55.145.2-.175.485-.3.532-.187.55-.145" transform="translate(-57.373 -130.954)" fill="#263238"/><path d="M103.5,235.241c.006.046-.215.11-.493.145s-.508.026-.514-.02.215-.11.493-.145.508-.026.514.02" transform="translate(-57.975 -133.037)" fill="#263238"/><path d="M104.05,239.335c-.018.042-.254-.02-.526-.138s-.478-.248-.46-.29.254.02.526.138.478.248.46.29" transform="translate(-58.296 -135.126)" fill="#263238"/><path d="M103.456,242.939c-.014.042-.312-.029-.623-.233s-.5-.447-.464-.477.26.147.555.338.549.328.533.372" transform="translate(-57.902 -137.011)" fill="#263238"/><path d="M101.76,246.345c-.027.036-.265-.1-.492-.349s-.349-.491-.312-.516.215.169.434.4.4.426.37.462" transform="translate(-57.101 -138.851)" fill="#263238"/><path d="M81.688,247.887c.021.041-.228.212-.556.383s-.611.277-.632.236.227-.212.556-.383.611-.276.632-.236" transform="translate(-45.533 -140.208)" fill="#263238"/><path d="M80.2,244.62c.019.042-.181.173-.446.293s-.5.184-.514.142.181-.173.446-.293.5-.184.514-.142" transform="translate(-44.819 -138.359)" fill="#263238"/><path d="M78.674,241.7c.007.045-.239.118-.548.162s-.566.043-.572,0,.239-.118.549-.162.565-.043.572,0" transform="translate(-43.867 -136.696)" fill="#263238"/><path d="M82.988,240.13c.013.043-.226.155-.546.19s-.578-.019-.574-.063.253-.066.555-.1.551-.07.564-.025" transform="translate(-46.308 -135.814)" fill="#263238"/><path d="M86.866,236.559c.013.043-.177.139-.434.164s-.463-.032-.458-.076.2-.064.442-.089.437-.044.45,0" transform="translate(-48.63 -133.791)" fill="#263238"/><path d="M87.581,233.322c-.015.043-.221.011-.461-.072s-.422-.185-.407-.228.221-.011.461.072.422.185.407.228" transform="translate(-49.048 -131.795)" fill="#263238"/><path d="M89.547,230.075c-.032.032-.174-.062-.275-.238s-.112-.345-.068-.357.121.118.212.274.164.288.131.321" transform="translate(-50.443 -129.802)" fill="#263238"/><path d="M87.443,242.636c.011.044-.168.126-.4.183a1.546,1.546,0,0,1-.335.05l-.033-.1c.06-.011.1-.008.106.01s-.017.048-.065.084l-.033-.1a1.506,1.506,0,0,1,.321-.111c.231-.056.427-.066.438-.022" transform="translate(-49.027 -137.227)" fill="#263238"/><path d="M87.774,247.716c.017.043-.211.172-.509.289s-.553.178-.57.135.211-.172.509-.289.553-.177.569-.135" transform="translate(-49.038 -140.109)" fill="#263238"/><path d="M84.179,245.455c.015.043-.137.134-.339.2s-.378.09-.393.046.137-.134.34-.2.378-.089.393-.046" transform="translate(-47.2 -138.825)" fill="#263238"/><path d="M84.023,234.663c-.01.044-.275.018-.581-.091s-.528-.255-.509-.3.267.034.564.139.536.2.525.247" transform="translate(-46.909 -132.508)" fill="#263238"/><path d="M94.246,234.049c.025.038-.124.181-.333.319s-.4.218-.424.18.124-.181.333-.319.4-.218.424-.18" transform="translate(-52.879 -132.381)" fill="#263238"/><path d="M94.813,239.1c.009.045-.147.115-.35.157s-.374.04-.384-.005.147-.115.35-.157.374-.04.384.005" transform="translate(-53.214 -135.223)" fill="#263238"/><path d="M95.165,244.278c-.019.042-.245-.022-.5-.142s-.453-.251-.434-.292.245.022.5.142.453.251.434.292" transform="translate(-53.298 -137.92)" fill="#263238"/><path d="M94.382,249.586c-.035.029-.182-.09-.327-.267s-.234-.344-.2-.373.182.09.327.267.234.344.2.373" transform="translate(-53.084 -140.81)" fill="#263238"/><path d="M94.069,230.3c.028.035-.069.157-.235.24s-.321.088-.333.044.109-.117.258-.193.281-.129.309-.092" transform="translate(-52.887 -130.26)" fill="#263238"/><path d="M98.414,235.417c.015.042-.178.148-.441.185s-.478-.013-.475-.057.206-.072.452-.107.449-.065.464-.02" transform="translate(-55.148 -133.147)" fill="#263238"/><path d="M97.405,230.826c.02.04-.171.177-.443.263s-.507.087-.514.043.205-.118.463-.2.473-.147.494-.106" transform="translate(-54.554 -130.556)" fill="#263238"/><path d="M98.832,242.225a2.007,2.007,0,0,1-1.4-.254,7.086,7.086,0,0,1,1.4.254" transform="translate(-55.111 -136.859)" fill="#263238"/><path d="M97.751,248.137c-.027.036-.268-.106-.509-.349s-.382-.483-.347-.511.231.16.464.394.42.429.392.466" transform="translate(-54.804 -139.867)" fill="#263238"/><path d="M86.511,225.4a7.5,7.5,0,0,0-1.454,1.149,7.1,7.1,0,0,0-1.811,4,8.987,8.987,0,0,0,.109,2.453,18.7,18.7,0,0,0,.46,1.969c.159.554.3,1,.4,1.306a3.09,3.09,0,0,1,.14.483,2.73,2.73,0,0,1-.2-.461c-.117-.3-.281-.741-.455-1.294a16.708,16.708,0,0,1-.5-1.976,8.8,8.8,0,0,1-.123-2.5,6.979,6.979,0,0,1,1.891-4.065,5.2,5.2,0,0,1,1.085-.848,3.311,3.311,0,0,1,.332-.172.384.384,0,0,1,.122-.047" transform="translate(-46.97 -127.494)" fill="#263238"/><path d="M93.129,236.959a18.259,18.259,0,0,0,.745-1.781,10.079,10.079,0,0,0,.446-4.58,8.61,8.61,0,0,0-.706-2.442,5.769,5.769,0,0,0-1.2-1.677,4.384,4.384,0,0,0-1.18-.745c-.307-.128-.49-.158-.488-.172a.4.4,0,0,1,.136.01,2.5,2.5,0,0,1,.376.1,4.086,4.086,0,0,1,1.234.718,5.68,5.68,0,0,1,1.265,1.7,8.486,8.486,0,0,1,.732,2.485,9.74,9.74,0,0,1-.5,4.642c-.094.286-.214.532-.3.753-.107.214-.2.4-.276.547a3.085,3.085,0,0,1-.276.443" transform="translate(-51.327 -127.583)" fill="#263238"/><path d="M221.948,226.721l-5.681,6.985a6.13,6.13,0,0,0,1.9,3.388,3.49,3.49,0,0,0,3.491.663s.373-.625,1.412-2.3c1.96-3.154,3.262-9.166,3.262-9.166Z" transform="translate(-122.328 -127.999)" fill="#ffceb3"/><path d="M233.782,195.991a.637.637,0,0,0-.588-.146l-3.715.862a1.286,1.286,0,0,0-.78.553l-7.3,11.629.609.238,4.125-.556,7.776-12.461Z" transform="translate(-125.229 -110.766)" fill="#263238"/><path d="M243.886,199.552a.255.255,0,0,0,.31-.093c.089-.106.095-.237.012-.291a.256.256,0,0,0-.31.093c-.089.106-.094.237-.012.291" transform="translate(-137.918 -112.642)" fill="#fff"/><path d="M234.831,196.478a5.186,5.186,0,0,1-.716.206l-1.968.488-1.36.327a.862.862,0,0,0-.565.37l-.416.668-1.865,2.978c-1.329,2.111-2.542,4.017-3.431,5.391l-1.062,1.623a4.637,4.637,0,0,1-.416.583,4.536,4.536,0,0,1,.341-.618l1-1.652c.853-1.391,2.045-3.306,3.374-5.417l1.88-2.97.426-.668a1.074,1.074,0,0,1,.695-.45l1.367-.3,1.982-.425a5.311,5.311,0,0,1,.732-.129" transform="translate(-126.155 -111.134)" fill="#455a64"/><path d="M232.569,203.318s-.376-.024-.535.937-.685,3.727-.685,3.727l-2-.761-2.43.539s-.511.508-.108.716a8.981,8.981,0,0,0,1.961.307l1.213,1.4-3.341-1.126s-1.079.372-.729.954a18.848,18.848,0,0,0,2.648,2.283l-1.644.05-2-.9s-.6.085-.351.532a16.25,16.25,0,0,0,2.355,1.941l2.511.854s1.337-.232,1.448-.608a4.07,4.07,0,0,0,.119-.9s.7-.248.821-.58a1.837,1.837,0,0,0,.008-.827s1.126.069,1.237-.52a5.987,5.987,0,0,0-.195-2.14c-.134-.431.255-4.6.2-4.719s.185-1.5-.5-1.161" transform="translate(-126.988 -114.973)" fill="#ffceb3"/><path d="M233.816,227.688a1.5,1.5,0,0,1-.632.248,4.652,4.652,0,0,1-1.623.095,4.27,4.27,0,0,1-1.509-.463c-.349-.192-.523-.359-.5-.382a8.883,8.883,0,0,0,2.06.614,9.729,9.729,0,0,0,2.207-.111" transform="translate(-129.84 -128.501)" fill="#ff9c65"/><path d="M235.691,225.182a2.029,2.029,0,0,1-.963-.416c-.483-.3-.809-.626-.763-.676s.441.182.914.48.85.554.812.612" transform="translate(-132.336 -126.749)" fill="#ff9a6c"/><path d="M238.6,220.293a1.774,1.774,0,0,1-.93-.435c-.455-.328-.73-.683-.678-.727s.4.224.841.539.805.564.768.622" transform="translate(-134.046 -123.945)" fill="#ff9a6c"/><path d="M241.686,215.817c-.066.033-.334-.368-.745-.792s-.806-.719-.764-.776a1.763,1.763,0,0,1,.957.615c.436.45.614.926.553.953" transform="translate(-135.851 -121.182)" fill="#ff9c65"/><path d="M327.129,355.027h-1.771l.885-65.414h3.788Z" transform="translate(-184.034 -163.815)" fill="#e0e0e0"/><path d="M327.1,354.88s0-.119.007-.343.02-.56.036-.991c.035-.874.086-2.152.152-3.8.138-3.3.338-8.065.586-13.969.512-11.8,1.221-28.136,2.009-46.318l.113.118h-3.788l.113-.111c-.435,32.069-.834,58.749-.974,65.413l-.025-.025,1.327.014c.294,0,.444.01.444.01s-.138.006-.43.01l-1.341.014H325.3v-.026c.04-6.665.364-33.346.8-65.415l0-.112h4.017l-.005.118c-.826,18.212-1.569,34.577-2.1,46.4-.276,5.892-.5,10.649-.653,13.94-.079,1.634-.141,2.9-.183,3.771q-.034.636-.052.975c-.012.219-.023.327-.023.327" transform="translate(-184.001 -163.668)" fill="#263238"/><path d="M73.354,354.919H71.583l-1.009-65.74h3.788Z" transform="translate(-39.919 -163.57)" fill="#e0e0e0"/><path d="M73.205,354.772s0-.119,0-.344,0-.562.007-1c.01-.878.024-2.162.043-3.816.043-3.315.1-8.1.181-14.037.17-11.857.405-28.275.668-46.548l.113.115H70.426l.113-.115c.493,32.233.867,59.053.92,65.742l-.025-.024,1.327.014c.295,0,.444.01.444.01s-.138.006-.43.01l-1.341.014H71.41v-.025c-.153-6.687-.6-33.506-1.1-65.739v-.115h4.017l0,.115c-.3,18.3-.568,34.752-.762,46.63-.105,5.921-.19,10.7-.249,14.01-.033,1.642-.057,2.918-.075,3.79q-.014.64-.023.98c-.006.22-.013.328-.013.328" transform="translate(-39.77 -163.423)" fill="#263238"/><rect width="127.244" height="5.45" transform="translate(21.968 120.58)" fill="#455a64"/><path d="M50.536,277.453s.215-.005.643-.008l1.9-.008,7.347-.016,27.13-.034,90.219-.047h.113v.113c0,1.723,0,3.579,0,5.443v.119h-.113l-127.244-.083h-.031v-.03c.008-1.873.014-3.237.017-4.137,0-.443.006-.771.007-.993s.006-.32.006-.32,0,.11.006.331,0,.553.007,1c0,.9.01,2.254.017,4.12l-.03-.03,127.244-.083-.113.113v-5.45l.113.113-90.136-.047-27.156-.034-7.374-.016-1.919-.008c-.433,0-.659-.008-.659-.008" transform="translate(-28.567 -156.873)" fill="#263238"/><path d="M77.234,277.785a.237.237,0,0,1-.04.059c-.029.037-.07.094-.13.163a2.608,2.608,0,0,1-.626.5,3.512,3.512,0,0,1-1.2.4,8.5,8.5,0,0,1-1.679.074,16.43,16.43,0,0,1-2.022-.232,18.008,18.008,0,0,0-2.3-.275,14.274,14.274,0,0,0-5.182,1c-1.778.635-3.44,1.358-5.029,1.8a13.834,13.834,0,0,1-2.293.455,9.685,9.685,0,0,1-2.038,0,6.927,6.927,0,0,1-2.795-.894,4.4,4.4,0,0,1-.864-.646.234.234,0,0,1,.06.038l.166.124a5.813,5.813,0,0,0,.668.432,7.068,7.068,0,0,0,2.776.838,9.78,9.78,0,0,0,2.013-.015,13.982,13.982,0,0,0,2.268-.464c1.575-.444,3.23-1.168,5.017-1.807a14.241,14.241,0,0,1,5.237-1,17.714,17.714,0,0,1,2.318.29,16.808,16.808,0,0,0,2.005.249,8.643,8.643,0,0,0,1.662-.05,3.533,3.533,0,0,0,1.188-.371,3.155,3.155,0,0,0,.825-.672" transform="translate(-28.864 -157.124)" fill="#263238"/><path d="M65.126,277.954a3.081,3.081,0,0,1-.377.322,8.641,8.641,0,0,1-1.137.732,9.9,9.9,0,0,1-1.86.757,10.087,10.087,0,0,1-2.429.38,9.3,9.3,0,0,1-4.345-.9,2.758,2.758,0,0,1-1.048-.857,1.484,1.484,0,0,1-.171-.329.421.421,0,0,1-.032-.125,3.451,3.451,0,0,0,.252.419,2.84,2.84,0,0,0,1.048.795,9.629,9.629,0,0,0,4.291.84,10.355,10.355,0,0,0,2.4-.362,10.556,10.556,0,0,0,1.848-.717,10.712,10.712,0,0,0,1.152-.685,3.075,3.075,0,0,1,.412-.273" transform="translate(-30.389 -157.211)" fill="#263238"/><path d="M134.337,282.85a1.508,1.508,0,0,1,.193.07,3.778,3.778,0,0,0,.576.153,3.392,3.392,0,0,0,2.181-.341l-.007.069a5.2,5.2,0,0,0-2.7-1.053,5.263,5.263,0,0,0-3.518.914.564.564,0,0,0-.272.354.381.381,0,0,0,.234.351,1.622,1.622,0,0,0,.483.169l.531.12c.713.159,1.45.316,2.212.428a13.179,13.179,0,0,0,2.353.16,8.574,8.574,0,0,0,1.208-.116c.2-.034.4-.073.6-.126a3.021,3.021,0,0,0,.582-.188,1.922,1.922,0,0,0,.755-.546.862.862,0,0,0,.145-.837,1.436,1.436,0,0,0-.593-.662,4.709,4.709,0,0,0-.827-.4,11.29,11.29,0,0,0-3.461-.718,14.343,14.343,0,0,0-5.909.916,14.628,14.628,0,0,0-3.557,1.943c-.38.294-.673.526-.86.7l-.219.187a.532.532,0,0,1-.079.06.458.458,0,0,1,.068-.071l.21-.2c.181-.179.468-.42.844-.722a14.415,14.415,0,0,1,9.51-2.952,11.386,11.386,0,0,1,3.509.719,4.834,4.834,0,0,1,.855.417,1.574,1.574,0,0,1,.653.736,1.015,1.015,0,0,1-.166.983,2.063,2.063,0,0,1-.815.592,3.135,3.135,0,0,1-.606.2c-.2.054-.408.093-.613.128a8.755,8.755,0,0,1-1.229.117,13.223,13.223,0,0,1-2.379-.165c-.768-.114-1.508-.275-2.222-.436l-.531-.122a1.739,1.739,0,0,1-.522-.187.7.7,0,0,1-.219-.192.428.428,0,0,1-.079-.294.685.685,0,0,1,.329-.448,5.363,5.363,0,0,1,3.607-.917,5.252,5.252,0,0,1,2.746,1.1l.05.04-.056.029a3.39,3.39,0,0,1-2.229.311,2.512,2.512,0,0,1-.761-.266" transform="translate(-70.356 -158.652)" fill="#263238"/><path d="M178.584,278.111a.805.805,0,0,1,.123.275,2.079,2.079,0,0,1,.082.818,4.026,4.026,0,0,1-1.214,2.379,6.137,6.137,0,0,1-1.134.964,5.037,5.037,0,0,1-1.094.53,5.128,5.128,0,0,1-.793.2,1.088,1.088,0,0,1-.3.025c-.006-.028.418-.087,1.054-.326a5.438,5.438,0,0,0,1.053-.546,6.424,6.424,0,0,0,1.1-.951,4.126,4.126,0,0,0,1.218-2.284,2.975,2.975,0,0,0-.1-1.082" transform="translate(-98.565 -157.309)" fill="#263238"/><path d="M212.08,284.807a7.052,7.052,0,0,0-.572-.557,4.064,4.064,0,0,0-1.949-.879,4.343,4.343,0,0,0-1.484.043,6.384,6.384,0,0,1-1.74.16,3.48,3.48,0,0,1-1.731-.849,5.905,5.905,0,0,0-1.74-1.032,6.382,6.382,0,0,0-3.864-.06,9.182,9.182,0,0,0-2.859,1.449,15.64,15.64,0,0,0-1.658,1.415l-.423.417a1.009,1.009,0,0,1-.153.141,1.055,1.055,0,0,1,.13-.162c.089-.1.225-.251.4-.438a13.837,13.837,0,0,1,1.635-1.46,9.091,9.091,0,0,1,2.885-1.5,6.462,6.462,0,0,1,3.955.052,6,6,0,0,1,1.78,1.057,3.357,3.357,0,0,0,1.656.828,6.374,6.374,0,0,0,1.7-.145,4.405,4.405,0,0,1,1.522-.024,4.005,4.005,0,0,1,1.97.941,2.642,2.642,0,0,1,.533.6" transform="translate(-109.68 -159.063)" fill="#263238"/><path d="M256.119,277.72a1.266,1.266,0,0,1-.136.186,6.493,6.493,0,0,1-.426.507,11.608,11.608,0,0,1-1.82,1.616,14.594,14.594,0,0,1-3.157,1.75,12.927,12.927,0,0,1-2.035.649,10.514,10.514,0,0,1-2.277.293,11.262,11.262,0,0,1-4.321-.9,14.394,14.394,0,0,1-3.14-1.78A12.292,12.292,0,0,1,237,278.411c-.2-.207-.33-.39-.427-.506a.116.116,0,1,1,.024-.02c.1.109.241.285.447.485a13.33,13.33,0,0,0,1.827,1.584A14.7,14.7,0,0,0,242,281.692a11.274,11.274,0,0,0,4.266.876,10.478,10.478,0,0,0,2.245-.286,13.081,13.081,0,0,0,2.017-.634,14.957,14.957,0,0,0,3.146-1.707,12.533,12.533,0,0,0,1.839-1.569c.207-.2.341-.377.446-.486a1.334,1.334,0,0,1,.16-.166" transform="translate(-133.737 -157.088)" fill="#263238"/><path d="M258.968,277.6s-.034.034-.106.086-.179.129-.323.218a13.013,13.013,0,0,1-1.248.707,13.2,13.2,0,0,1-1.972.8,8.683,8.683,0,0,1-2.574.44,10.561,10.561,0,0,1-4.568-1.155,10.112,10.112,0,0,1-1.238-.727c-.141-.093-.243-.177-.314-.231s-.106-.086-.1-.09a4.318,4.318,0,0,1,.45.27,12.615,12.615,0,0,0,1.253.679,10.961,10.961,0,0,0,4.521,1.1,8.83,8.83,0,0,0,2.532-.422,14.248,14.248,0,0,0,1.967-.765c.543-.258.973-.491,1.264-.66a4.082,4.082,0,0,1,.46-.254" transform="translate(-139.441 -157.019)" fill="#263238"/><path d="M297.035,278.686a1.522,1.522,0,0,1-.248,0l-.7-.026-.506-.023-.605,0c-.434,0-.927-.012-1.471.014l-.855.027-.921.062c-.639.032-1.31.12-2.02.189-1.408.178-2.936.43-4.488.777a43.625,43.625,0,0,0-4.2,1.2c-.605.227-1.2.427-1.71.653l-.754.314-.665.313c-.433.193-.791.39-1.111.56l-.448.236-.354.212-.5.29a.956.956,0,0,1-.187.094c-.007,0,.044-.043.147-.115l.462-.311.339-.222.436-.247c.313-.176.665-.381,1.093-.581l.66-.323.751-.324c.51-.232,1.1-.438,1.711-.671a41.254,41.254,0,0,1,4.234-1.223c1.568-.351,3.112-.6,4.537-.773.718-.066,1.4-.149,2.043-.176l.931-.054.863-.017c.549-.019,1.047,0,1.483.008l.608.015.508.036.7.055a1.417,1.417,0,0,1,.241.03" transform="translate(-155.711 -157.548)" fill="#263238"/><path d="M208.251,283.4a5.8,5.8,0,0,0-.686-.815,6.339,6.339,0,0,0-2.512-1.4,13.75,13.75,0,0,0-1.959-.433c-.715-.113-1.485-.2-2.292-.342a19.189,19.189,0,0,1-2.489-.624,16.237,16.237,0,0,0-2.655-.641,11.063,11.063,0,0,0-5.172.714,18.863,18.863,0,0,0-2.1.945c-.645.33-1.236.656-1.772.959-1.073.607-1.926,1.124-2.515,1.483l-.677.415-.177.106a.255.255,0,0,1-.063.032s.017-.017.054-.045l.169-.119c.15-.1.372-.252.662-.44.579-.375,1.426-.907,2.493-1.527.534-.309,1.123-.642,1.767-.978a18.5,18.5,0,0,1,2.113-.965,11.1,11.1,0,0,1,5.24-.734,16.219,16.219,0,0,1,2.679.649,19.43,19.43,0,0,0,2.47.629c.8.142,1.57.236,2.287.355a13.49,13.49,0,0,1,1.973.455,6.239,6.239,0,0,1,2.52,1.464,3.2,3.2,0,0,1,.644.858" transform="translate(-103.612 -157.767)" fill="#263238"/><path d="M168.116,277.786a1.2,1.2,0,0,1-.018.348,4.06,4.06,0,0,1-.244.92,5.28,5.28,0,0,1-1.916,2.451,12.812,12.812,0,0,1-2.839,1.307c-.38.126-.69.216-.907.272a1.442,1.442,0,0,1-.341.071,1.6,1.6,0,0,1,.323-.128l.887-.318a14.636,14.636,0,0,0,2.791-1.333,5.445,5.445,0,0,0,1.9-2.363,7.354,7.354,0,0,0,.363-1.228" transform="translate(-91.55 -157.125)" fill="#263238"/><path d="M109.664,283.154a2.177,2.177,0,0,1,.3-.291c.2-.182.5-.431.887-.726a25.713,25.713,0,0,1,3.179-2.048c1.3-.712,2.5-1.281,3.383-1.684.439-.2.8-.361,1.045-.467a2.184,2.184,0,0,1,.392-.152,2.208,2.208,0,0,1-.367.206l-1.024.511c-.866.428-2.066,1.012-3.356,1.721a31.386,31.386,0,0,0-3.188,2c-.39.282-.7.517-.914.685a2.232,2.232,0,0,1-.341.245" transform="translate(-62.029 -157.124)" fill="#263238"/><path d="M97.944,278.22c0,.018-.288-.037-.8,0a5.692,5.692,0,0,0-2.079.632,19.046,19.046,0,0,0-2.7,1.813,13.776,13.776,0,0,1-1.626,1.054,9.063,9.063,0,0,1-1.946.749,18.065,18.065,0,0,1-3.981.479c-1.232.036-2.339.011-3.266.05a16.147,16.147,0,0,0-2.185.214c-.255.047-.453.086-.586.118a1.15,1.15,0,0,1-.206.037,1.038,1.038,0,0,1,.2-.067c.131-.041.328-.09.582-.146a14.228,14.228,0,0,1,2.191-.264c.931-.052,2.041-.039,3.267-.082a18.464,18.464,0,0,0,3.948-.486,9,9,0,0,0,1.913-.733,13.926,13.926,0,0,0,1.614-1.035,18.2,18.2,0,0,1,2.736-1.8,5.5,5.5,0,0,1,2.123-.594,3.7,3.7,0,0,1,.6.02,1.077,1.077,0,0,1,.206.037" transform="translate(-44.438 -157.337)" fill="#263238"/></g><path d="M490.173,71.868l10.862,14.773L512.73,71.848Z" transform="translate(-277.259 -40.64)" fill="#448425"/></g></g></g></g></g></g></svg>