<svg xmlns="http://www.w3.org/2000/svg" xmlns:xlink="http://www.w3.org/1999/xlink" width="270.723" height="245.608" viewBox="0 0 270.723 245.608"><defs><clipPath id="a"><rect width="239.883" height="241.112" fill="none"/></clipPath><filter id="c" x="203.822" y="28.13" width="42.68" height="44.974" filterUnits="userSpaceOnUse"><feOffset dy="3" input="SourceAlpha"/><feGaussianBlur stdDeviation="3" result="d"/><feFlood flood-opacity="0.161"/><feComposite operator="in" in2="d"/><feComposite in="SourceGraphic"/></filter><filter id="e" x="37.039" y="-6" width="57.583" height="67.623" filterUnits="userSpaceOnUse"><feOffset dy="3" input="SourceAlpha"/><feGaussianBlur stdDeviation="3" result="f"/><feFlood flood-opacity="0.161"/><feComposite operator="in" in2="f"/><feComposite in="SourceGraphic"/></filter><clipPath id="g"><rect width="23.49" height="13.054" fill="none"/></clipPath><clipPath id="h"><rect width="25.898" height="2.099" fill="none"/></clipPath></defs><g transform="translate(2257.274 6758.695)"><g transform="translate(-2257.274 -6735.988)"><g transform="translate(0)"><g transform="translate(0 0)"><circle cx="105.068" cy="105.068" r="105.068" transform="translate(0 0)" fill="#fdab64"/><ellipse cx="112.256" cy="8.715" rx="112.256" ry="8.715" transform="translate(46.21 205.471)" fill="#fc8116"/><line y2="17.435" transform="translate(97.433 128.508)" fill="#003889"/><g transform="translate(16.646 -22.707)"><g clip-path="url(#a)"><g clip-path="url(#a)"><g transform="matrix(1, 0, 0, 1, -16.65, 0)" filter="url(#c)"><path d="M375.384,76.665a7.229,7.229,0,0,0,4.307-6.688,6.794,6.794,0,1,0-13.559-.063,7.218,7.218,0,0,0,4.32,6.751c-10.433,1.572-9.96,12.91-9.96,12.91l24.671.114s.562-11.463-9.78-13.025" transform="translate(-147.67 -28.59)" fill="#fff"/></g><g transform="matrix(1, 0, 0, 1, -16.65, 0)" filter="url(#e)"><path d="M89.926,5.7,73.8,0,57.838,5.625C55.8,6.573,54.012,7.14,54.012,9.01v9.31a34.784,34.784,0,0,0,5.259,18.528A32.572,32.572,0,0,0,73.961,49.622c6.526-2.088,11.4-7.652,14.375-12.412A34.778,34.778,0,0,0,93.6,18.683V10.311c0-2.666-1.434-3.968-3.669-4.609" transform="translate(-7.97 0)" fill="#fff"/></g><path d="M92.744,34.355a4.464,4.464,0,1,0-5.681,4.275V45.3H89.5V38.63a4.451,4.451,0,0,0,3.246-4.275" transform="translate(-38.204 -13.624)" fill="#455a64"/><path d="M365.611,164.867l2.75,1.488-1.236,2.068-2.774-1.64.05,3.052h-2.371l.025-3.077-2.775,1.665-1.211-2.068,2.749-1.488-2.749-1.513,1.211-2.068,2.775,1.665-.025-3.078H364.4l-.05,3.078,2.774-1.665,1.236,2.068Z" transform="translate(-163.21 -72.87)" fill="#e0e0e0"/><path d="M386.653,164.867l2.75,1.488-1.236,2.068-2.774-1.64.05,3.052h-2.371l.025-3.077-2.775,1.665-1.211-2.068,2.749-1.488-2.749-1.513,1.211-2.068,2.775,1.665-.025-3.078h2.371l-.05,3.078,2.774-1.665,1.236,2.068Z" transform="translate(-172.801 -72.87)" fill="#e0e0e0"/><path d="M407.7,164.867l2.75,1.488-1.236,2.068-2.774-1.64.05,3.052h-2.371l.025-3.077-2.775,1.665-1.211-2.068,2.749-1.488-2.749-1.513,1.211-2.068,2.775,1.665-.025-3.078h2.371l-.05,3.078,2.774-1.665,1.236,2.068Z" transform="translate(-182.392 -72.87)" fill="#e0e0e0"/><path d="M199.923,408.412v16.9h51.985v-16.9Z" transform="translate(-91.126 -186.157)" fill="#f5f5f5"/><path d="M195.915,399.728v4.726H251.9v-4.726H195.915Z" transform="translate(-89.299 -182.198)" fill="#ebebeb"/><path d="M246.439,421.358h26.174v-16.9h1.818v-4.726H245.348v4.289Z" transform="translate(-111.831 -182.198)" fill="#ebebeb"/><rect width="10.542" height="2.545" transform="translate(116.068 224.981)" fill="#e0e0e0"/><rect width="13.537" height="5.373" transform="translate(114.711 230.707)" fill="#fff"/><path d="M214.62,368.706v16.9H266.6v-16.9Z" transform="translate(-97.825 -168.059)" fill="#f5f5f5"/><path d="M210.612,360.022v4.726H266.6v-4.726H210.612Z" transform="translate(-95.998 -164.1)" fill="#ebebeb"/><path d="M261.136,381.652H287.31v-16.9h1.818v-4.726H260.045v4.289Z" transform="translate(-118.53 -164.1)" fill="#ebebeb"/><rect width="10.542" height="2.545" transform="translate(124.065 203.374)" fill="#e0e0e0"/><rect width="13.537" height="5.373" transform="translate(122.709 209.1)" fill="#fff"/><path d="M247.483,115.423H150.27a3.57,3.57,0,0,1-3.57-3.57V22.415a3.57,3.57,0,0,1,3.57-3.57h97.212a3.57,3.57,0,0,1,3.57,3.57v89.437a3.57,3.57,0,0,1-3.57,3.57" transform="translate(-66.867 -8.59)" fill="#fff"/><path d="M247.364,115.3s.087-.009.256-.02a3.54,3.54,0,0,0,1.857-.7,3.516,3.516,0,0,0,1.081-1.325,4.308,4.308,0,0,0,.34-2.144q0-1.221-.007-2.667c0-1.928-.008-4.151-.013-6.654-.01-10.016-.026-24.5-.045-42.4,0-8.952-.011-18.757-.017-29.283q-.007-3.944-.014-8.02a3.455,3.455,0,0,0-2.234-3.014,5.18,5.18,0,0,0-2.009-.219h-2.095l-17.3.006-77.008.011a3.458,3.458,0,0,0-2.252.839,3.387,3.387,0,0,0-1.147,2.1,10.038,10.038,0,0,0-.039,1.25v3.8q0,5.06,0,10.05,0,9.979,0,19.649c0,12.882-.005,25.308-.008,37.145q0,8.877-.006,17.3c0,.348-.009.707.015,1.038a3.527,3.527,0,0,0,.235.978,3.482,3.482,0,0,0,1.235,1.547,3.443,3.443,0,0,0,1.867.609l2.045.005,8.029,0,29.284.017,42.4.045,11.528.027,3,.014c.675,0,1.022.015,1.022.015s-.347.01-1.022.015l-3,.014-11.528.027-42.4.045-29.284.017-8.029,0-2.051,0a3.689,3.689,0,0,1-2-.651,3.731,3.731,0,0,1-1.325-1.656,3.772,3.772,0,0,1-.252-1.048c-.027-.366-.014-.707-.017-1.06q0-8.411-.006-17.3c0-11.837-.005-24.263-.008-37.145q0-9.662,0-19.649,0-4.989,0-10.05v-3.8a10.148,10.148,0,0,1,.041-1.29,3.667,3.667,0,0,1,1.242-2.277,3.741,3.741,0,0,1,2.438-.909l77.008.011,17.3.006h2.095a5.411,5.411,0,0,1,2.095.237,3.7,3.7,0,0,1,2.39,3.229q0,4.083.007,8.035c-.006,10.526-.011,20.331-.016,29.283-.02,17.9-.035,32.388-.046,42.4,0,2.5-.009,4.726-.013,6.654q0,1.445-.007,2.667a4.361,4.361,0,0,1-.359,2.169,3.554,3.554,0,0,1-1.107,1.335,3.614,3.614,0,0,1-1.128.557,3.423,3.423,0,0,1-.753.127c-.171.006-.258.005-.258.005" transform="translate(-66.748 -8.471)" fill="#263238"/><path d="M158.149,29.633a1.8,1.8,0,1,1-1.8-1.8,1.8,1.8,0,0,1,1.8,1.8" transform="translate(-70.441 -12.685)" fill="#263238"/><path d="M167.831,29.633a1.8,1.8,0,1,1-1.8-1.8,1.8,1.8,0,0,1,1.8,1.8" transform="translate(-74.854 -12.685)" fill="#263238"/><path d="M177.514,29.633a1.8,1.8,0,1,1-1.8-1.8,1.8,1.8,0,0,1,1.8,1.8" transform="translate(-79.267 -12.685)" fill="#263238"/><path d="M251.052,40.43c0,.078-23.362.141-52.174.141S146.7,40.509,146.7,40.43s23.357-.141,52.178-.141,52.174.063,52.174.141" transform="translate(-66.867 -18.364)" fill="#263238"/><path d="M284.149,265.2h-81.1a3.471,3.471,0,0,1-3.471-3.471V219.753a3.471,3.471,0,0,1,3.471-3.471h81.1a3.471,3.471,0,0,1,3.471,3.471v41.979a3.471,3.471,0,0,1-3.471,3.471" transform="translate(-90.969 -98.583)" fill="#fff"/><path d="M284.029,265.084a6.877,6.877,0,0,0,.685-.083,3.523,3.523,0,0,0,1.747-.952,3.428,3.428,0,0,0,.786-1.243,3.518,3.518,0,0,0,.195-.83c.022-.3.018-.61.016-.936,0-1.306-.008-2.811-.013-4.506-.011-6.785-.026-16.594-.045-28.713q0-2.272,0-4.653,0-1.189,0-2.4a6.078,6.078,0,0,0-.247-2.383,3.374,3.374,0,0,0-2.783-2.088c-.4-.031-.846-.01-1.272-.016l-5.253,0-22.757.013-52.145.011a3.317,3.317,0,0,0-2.8,1.517,3.3,3.3,0,0,0-.525,1.547c-.027.55-.008,1.138-.014,1.7q0,3.426,0,6.806,0,6.756,0,13.3t0,12.841q0,3.147,0,6.226c0,.51-.009,1.031.008,1.528a3.326,3.326,0,0,0,2.633,3.1,7.076,7.076,0,0,0,1.466.075h4.437l5.778,0,11.047.007,19.829.017,28.712.045,7.806.027,2.03.014c.457,0,.692.015.692.015s-.235.01-.692.015l-2.03.014-7.806.027-28.712.045-19.829.017-11.047.007-5.778,0H203.7a7.358,7.358,0,0,1-1.52-.079,3.59,3.59,0,0,1-2.844-3.344c-.017-.523,0-1.025-.009-1.541q0-3.078,0-6.226,0-6.294,0-12.841t0-13.3q0-3.379,0-6.806c.007-.576-.015-1.132.014-1.726a3.591,3.591,0,0,1,.57-1.679,3.6,3.6,0,0,1,3.035-1.646l52.145.011,22.757.013,5.253,0c.434.007.849-.015,1.295.019a3.594,3.594,0,0,1,2.964,2.23,3.434,3.434,0,0,1,.254,1.24q0,.615,0,1.224,0,1.215,0,2.4,0,2.379,0,4.653c-.019,12.12-.034,21.928-.045,28.713,0,1.695-.009,3.2-.013,4.506,0,.326,0,.639-.023.944a3.551,3.551,0,0,1-.206.847,3.473,3.473,0,0,1-.812,1.259,3.509,3.509,0,0,1-1.782.94,3.279,3.279,0,0,1-.515.053c-.116,0-.175,0-.175,0" transform="translate(-90.85 -98.464)" fill="#263238"/><path d="M253.811,245.8v.611h-2.547v-3.29h2.486v.611h-1.729v.715h1.528v.593h-1.528v.761Z" transform="translate(-114.528 -110.817)" fill="#263238"/><path d="M260.079,243.123v3.29h-.625l-1.641-2v2h-.752v-3.29h.63l1.636,2v-2Z" transform="translate(-117.17 -110.817)" fill="#263238"/><path d="M264.411,243.744h-1.053v-.621h2.867v.621h-1.053v2.669h-.761Z" transform="translate(-120.04 -110.817)" fill="#263238"/><path d="M271.926,245.8v.611h-2.547v-3.29h2.486v.611h-1.729v.715h1.528v.593h-1.528v.761Z" transform="translate(-122.785 -110.817)" fill="#263238"/><path d="M277.272,246.413l-.634-.916h-.7v.916h-.761v-3.29H276.6c.878,0,1.428.456,1.428,1.195a1.07,1.07,0,0,1-.676,1.038l.737,1.057Zm-.714-2.669h-.62v1.147h.62c.465,0,.7-.216.7-.573s-.235-.574-.7-.574" transform="translate(-125.427 -110.817)" fill="#263238"/><path d="M283.59,244.721a1.812,1.812,0,0,1,3.14-1.119l-.489.451a1.06,1.06,0,0,0-.827-.385,1.053,1.053,0,0,0,0,2.106,1.051,1.051,0,0,0,.827-.39l.489.451a1.809,1.809,0,0,1-3.14-1.114" transform="translate(-129.262 -110.769)" fill="#263238"/><path d="M289.794,244.721a1.8,1.8,0,1,1,1.8,1.7,1.7,1.7,0,0,1-1.8-1.7m2.829,0a1.03,1.03,0,1,0-1.03,1.053,1,1,0,0,0,1.03-1.053" transform="translate(-132.09 -110.769)" fill="#263238"/><path d="M297.464,243.123h1.494a1.653,1.653,0,1,1,0,3.29h-1.494Zm1.457,2.665a1.022,1.022,0,1,0,0-2.04h-.7v2.04Z" transform="translate(-135.586 -110.817)" fill="#263238"/><path d="M307.147,245.8v.611H304.6v-3.29h2.486v.611h-1.729v.715h1.528v.593h-1.528v.761Z" transform="translate(-138.838 -110.817)" fill="#263238"/><path d="M224.512,275.567h-7.991a2.151,2.151,0,0,1-2.151-2.151V260.972a2.151,2.151,0,0,1,2.151-2.151h7.991a2.15,2.15,0,0,1,2.151,2.151v12.445a2.15,2.15,0,0,1-2.151,2.151" transform="translate(-97.711 -117.972)" fill="#ebebeb"/><path d="M252.719,275.567h-7.991a2.151,2.151,0,0,1-2.151-2.151V260.972a2.151,2.151,0,0,1,2.151-2.151h7.991a2.15,2.15,0,0,1,2.151,2.151v12.445a2.15,2.15,0,0,1-2.151,2.151" transform="translate(-110.568 -117.972)" fill="#ebebeb"/><path d="M280.927,275.567h-7.991a2.151,2.151,0,0,1-2.151-2.151V260.972a2.151,2.151,0,0,1,2.151-2.151h7.991a2.15,2.15,0,0,1,2.151,2.151v12.445a2.15,2.15,0,0,1-2.151,2.151" transform="translate(-123.425 -117.972)" fill="#ebebeb"/><path d="M309.134,275.567h-7.991a2.151,2.151,0,0,1-2.151-2.151V260.972a2.151,2.151,0,0,1,2.151-2.151h7.991a2.15,2.15,0,0,1,2.151,2.151v12.445a2.15,2.15,0,0,1-2.151,2.151" transform="translate(-136.282 -117.972)" fill="#ebebeb"/><path d="M337.342,275.567h-7.99a2.151,2.151,0,0,1-2.151-2.151V260.972a2.151,2.151,0,0,1,2.151-2.151h7.99a2.15,2.15,0,0,1,2.151,2.151v12.445a2.15,2.15,0,0,1-2.151,2.151" transform="translate(-149.14 -117.972)" fill="#ebebeb"/><path d="M226.563,272.68a1.987,1.987,0,0,1-2.177,1.971c-1.719,0-2.625-1.233-2.625-3.279,0-2.214,1.177-3.354,2.906-3.354a2.888,2.888,0,0,1,1.485.336l-.2.383a2.42,2.42,0,0,0-1.288-.3c-1.467,0-2.43.963-2.43,2.859a5.2,5.2,0,0,0,.056.785,2.05,2.05,0,0,1,2.083-1.345,1.955,1.955,0,0,1,2.186,1.943m-.476.009c0-.934-.672-1.541-1.775-1.541a1.57,1.57,0,1,0,.055,3.092,1.55,1.55,0,0,0,1.719-1.551" transform="translate(-101.08 -122.164)" fill="#ff725e"/><path d="M253.827,272.831h-1.373v1.812h-.467v-1.812H248.26v-.346l3.55-4.381h.532l-3.484,4.307H252v-1.6h.458v1.6h1.373Z" transform="translate(-113.158 -122.203)" fill="#ff725e"/><path d="M282.81,281.708a28.637,28.637,0,0,1-5.7,0,28.742,28.742,0,0,1,5.7,0" transform="translate(-126.31 -128.339)" fill="#ff725e"/><path d="M210.067,224.137a1.333,1.333,0,1,1-1.333-1.333,1.333,1.333,0,0,1,1.333,1.333" transform="translate(-94.535 -101.555)" fill="#263238"/><path d="M217.126,224.137a1.333,1.333,0,1,1-1.333-1.333,1.333,1.333,0,0,1,1.333,1.333" transform="translate(-97.753 -101.555)" fill="#263238"/><path d="M224.057,224.137a1.333,1.333,0,1,1-1.333-1.333,1.333,1.333,0,0,1,1.333,1.333" transform="translate(-100.911 -101.555)" fill="#263238"/><path d="M287.857,232.037c0,.078-19.712.141-44.022.141s-44.026-.063-44.026-.141,19.707-.141,44.026-.141,44.022.063,44.022.141" transform="translate(-91.074 -105.699)" fill="#263238"/><path d="M221.579,400.17a21.673,21.673,0,1,1,15.266-12.643,21.561,21.561,0,0,1-15.266,12.643m-9.031-40.915a20.215,20.215,0,1,0,12.311,1.146,20.218,20.218,0,0,0-12.311-1.146" transform="translate(-88.979 -162.869)" fill="#455a64"/><path d="M221.579,400.17a21.673,21.673,0,1,1,15.266-12.643,21.561,21.561,0,0,1-15.266,12.643m-9.031-40.915a20.215,20.215,0,1,0,12.311,1.146,20.218,20.218,0,0,0-12.311-1.146" transform="translate(-88.979 -162.869)" fill="#263238"/><path d="M220.217,401.838a21.673,21.673,0,1,1,15.266-12.643,21.561,21.561,0,0,1-15.266,12.643m-9.031-40.915a20.215,20.215,0,1,0,12.311,1.146,20.218,20.218,0,0,0-12.311-1.146" transform="translate(-88.358 -163.629)" fill="#455a64"/><path d="M304.382,422.482l-.348.895c-.311.8-1.7,1.007-2.559.668L269.01,411.405l1.635-4.2,32.417,12.62a2.168,2.168,0,0,1,1.321,2.656" transform="translate(-122.616 -185.606)" fill="#455a64"/><path d="M235.81,383.729c.036.044-4.086,3.443-9.205,7.589s-9.3,7.474-9.335,7.43,4.085-3.442,9.206-7.59,9.3-7.473,9.335-7.429" transform="translate(-99.033 -174.906)" fill="#263238"/><path d="M229.5,381.42c.036.044-3.012,2.637-6.807,5.792s-6.9,5.678-6.939,5.635,3.011-2.637,6.807-5.793,6.9-5.677,6.938-5.634" transform="translate(-98.34 -173.853)" fill="#263238"/><path d="M242.586,395.892c.036.043-2.049,1.838-4.659,4.006s-4.754,3.892-4.791,3.849,2.049-1.837,4.659-4.007,4.754-3.892,4.791-3.848" transform="translate(-106.265 -180.45)" fill="#263238"/><rect width="51.974" height="51.974" transform="translate(187.786 102.114)" fill="#fff"/><path d="M394.794,242.832l14.332.2a14.27,14.27,0,0,1-14.332,13.863h-.084Z" transform="translate(-179.911 -110.684)" fill="#455a64"/><path d="M378.694,227.307l-.2,14.059a14.065,14.065,0,1,1,14.535-14.059Z" transform="translate(-166.077 -97.199)" fill="#529d2e"/><rect width="51.925" height="10.223" transform="translate(187.786 102.114)" fill="#e0e0e0"/><path d="M356.441,195.8a1.473,1.473,0,1,1-1.473-1.473,1.473,1.473,0,0,1,1.473,1.473" transform="translate(-161.125 -88.575)" fill="#fff"/><path d="M365.569,195.8a1.473,1.473,0,1,1-1.473-1.473,1.473,1.473,0,0,1,1.473,1.473" transform="translate(-165.285 -88.575)" fill="#fff"/><path d="M374.7,195.8a1.473,1.473,0,1,1-1.473-1.473A1.473,1.473,0,0,1,374.7,195.8" transform="translate(-169.446 -88.575)" fill="#fff"/><path d="M396.927,239.5s0-.086-.007-.248,0-.407-.007-.72c0-.639-.008-1.575-.015-2.794-.007-2.447-.018-6.024-.032-10.574-.015-9.093-.037-22.071-.063-37.638l.122.122-51.969.019h0l.142-.141c-.007,19.032-.014,36.867-.019,51.974l-.122-.122,37.64.063,10.572.032,2.794.014.72.007c.162,0,.248.007.248.007s-.077,0-.234.007l-.706.007-2.77.015-10.544.032-37.718.063h-.122V239.5c-.006-15.107-.013-32.942-.02-51.974v-.142h.147l51.969.019h.123v.122c-.026,15.6-.047,28.6-.063,37.716-.014,4.538-.024,8.105-.032,10.545-.007,1.209-.011,2.137-.015,2.771,0,.307,0,.541-.007.706s-.007.235-.007.235" transform="translate(-157.167 -85.41)" fill="#263238"/><rect width="97.536" height="58.628" transform="translate(103.59 115.872)" fill="#fff"/><rect width="97.536" height="9.012" transform="translate(103.59 115.872)" fill="#e0e0e0"/><path d="M200.376,220.117a1.3,1.3,0,1,1-1.3-1.3,1.3,1.3,0,0,1,1.3,1.3" transform="translate(-90.148 -99.739)" fill="#fff"/><path d="M208.423,220.117a1.3,1.3,0,1,1-1.3-1.3,1.3,1.3,0,0,1,1.3,1.3" transform="translate(-93.816 -99.739)" fill="#fff"/><path d="M216.47,220.117a1.3,1.3,0,1,1-1.3-1.3,1.3,1.3,0,0,1,1.3,1.3" transform="translate(-97.484 -99.739)" fill="#fff"/><path d="M287.771,271.433s-.008-.362-.012-1.057-.007-1.727-.012-3.073c-.007-2.7-.016-6.659-.028-11.743-.014-10.162-.034-24.805-.059-42.755l.11.11-97.528.031h-.008l.141-.142c0,20.769-.007,40.59-.01,58.628l-.131-.131,70.19.064,20.127.036,5.36.016,1.384.008c.311,0,.474.008.474.008s-.152.005-.459.008l-1.369.008-5.334.016-20.1.036-70.277.064H190.1v-.132c0-18.038-.007-37.859-.01-58.628v-.141h.15l97.528.031h.11v.11c-.024,17.979-.045,32.645-.059,42.823-.012,5.074-.021,9.028-.028,11.719-.005,1.337-.009,2.359-.012,3.052s-.012,1.034-.012,1.034" transform="translate(-86.645 -96.934)" fill="#263238"/><rect width="4.145" height="30.355" transform="translate(114.274 134.758)" fill="#529d2e"/><rect width="4.145" height="20.045" transform="translate(122.276 145.067)" fill="#85d161"/><rect width="4.145" height="26.736" transform="translate(130.278 138.531)" fill="#529d2e"/><rect width="4.145" height="29.183" transform="translate(138.281 135.929)" fill="#85d161"/><rect width="4.145" height="19.428" transform="translate(146.284 145.684)" fill="#529d2e"/><rect width="4.145" height="15.618" transform="translate(154.286 149.494)" fill="#85d161"/><rect width="4.145" height="27.239" transform="translate(162.289 137.873)" fill="#529d2e"/><rect width="4.145" height="22.328" transform="translate(170.291 142.784)" fill="#85d161"/><rect width="4.145" height="26.252" transform="translate(178.294 138.86)" fill="#529d2e"/><rect width="4.145" height="17.885" transform="translate(186.296 147.227)" fill="#85d161"/><path d="M288.717,303.289c0,.078-19.292.141-43.084.141s-43.088-.063-43.088-.141,19.287-.142,43.088-.142,43.084.063,43.084.142" transform="translate(-92.321 -138.176)" fill="#263238"/><rect width="96.284" height="71.976" transform="translate(83.995 28.074)" fill="#fff"/><rect width="96.284" height="8.896" transform="translate(83.691 28.075)" fill="#e0e0e0"/><path d="M163.683,58.69a1.282,1.282,0,1,1-1.282-1.282,1.282,1.282,0,0,1,1.282,1.282" transform="translate(-73.439 -26.167)" fill="#fff"/><path d="M171.627,58.69a1.282,1.282,0,1,1-1.282-1.282,1.282,1.282,0,0,1,1.282,1.282" transform="translate(-77.06 -26.167)" fill="#fff"/><path d="M179.57,58.69a1.282,1.282,0,1,1-1.282-1.282,1.282,1.282,0,0,1,1.282,1.282" transform="translate(-80.68 -26.167)" fill="#fff"/><path d="M249.96,123.452s-.008-.451-.012-1.316-.007-2.15-.013-3.823c-.007-3.35-.016-8.264-.029-14.539-.014-12.542-.034-30.522-.058-52.3l.111.11-96.276.024h-.008l.135-.134c0,25.867-.009,50.37-.013,71.975l-.122-.122,69.5.061,19.739.033,5.236.015,1.35.007c.3,0,.461.007.461.007s-.149,0-.447.007l-1.336.007-5.212.015-19.711.033-69.578.06h-.122v-.123c0-21.606-.009-46.108-.013-71.975v-.136h.144l96.276.024h.111v.112c-.024,21.8-.044,39.807-.058,52.366-.012,6.265-.022,11.17-.028,14.515-.005,1.664-.01,2.939-.012,3.8s-.012,1.293-.012,1.293" transform="translate(-69.984 -23.402)" fill="#263238"/><path d="M249.286,131.185c0,.075-19.162.135-42.793.135s-42.8-.06-42.8-.135,19.157-.135,42.8-.135,42.793.06,42.793.135" transform="translate(-74.614 -59.733)" fill="#e0e0e0"/><path d="M249.286,117.607c0,.075-19.162.135-42.793.135s-42.8-.06-42.8-.135,19.157-.135,42.8-.135,42.793.06,42.793.135" transform="translate(-74.614 -53.544)" fill="#e0e0e0"/><path d="M249.286,104.029c0,.075-19.162.135-42.793.135s-42.8-.06-42.8-.135,19.157-.135,42.8-.135,42.793.06,42.793.135" transform="translate(-74.614 -47.355)" fill="#e0e0e0"/><path d="M249.286,90.451c0,.075-19.162.135-42.793.135s-42.8-.06-42.8-.135,19.157-.135,42.8-.135,42.793.06,42.793.135" transform="translate(-74.614 -41.167)" fill="#e0e0e0"/><rect width="7.12" height="14.32" transform="translate(96.326 68.102)" fill="#529d2e"/><rect width="7.12" height="14.32" transform="translate(121.882 68.102)" fill="#455a64"/><rect width="7.12" height="9.439" transform="translate(160.647 72.984)" fill="#455a64"/><rect width="7.12" height="21.102" transform="translate(147.439 61.32)" fill="#e0e0e0"/><rect width="7.12" height="29.317" transform="translate(134.373 53.105)" fill="#529d2e"/><rect width="7.12" height="21.102" transform="translate(108.594 61.32)" fill="#e0e0e0"/><path d="M248.058,119.057s-.108.009-.318.014l-.935.014-3.594.026-13.22.043-43.616.039-23.006-.01h-.126v-.125c.02-11.342.037-21.01.049-27.852.015-3.409.027-6.115.035-7.978.009-.919.015-1.63.02-2.121,0-.234.008-.414.01-.546s.01-.185.01-.185.007.063.011.185.005.312.01.546c0,.491.011,1.2.02,2.121.008,1.863.021,4.569.036,7.978.012,6.843.029,16.51.049,27.852l-.126-.125,23.006-.01,43.616.039,13.22.043,3.594.026.935.014c.211,0,.318.014.318.014" transform="translate(-74.407 -36.635)" fill="#263238"/><rect width="3.129" height="3.129" transform="translate(103.927 89.686)" fill="#529d2e"/><rect width="3.129" height="3.129" transform="translate(123.052 89.587)" fill="#e0e0e0"/><rect width="3.129" height="3.129" transform="translate(143.74 89.686)" fill="#455a64"/><path d="M208.629,167.385a33.737,33.737,0,0,1-4.261.135,33.737,33.737,0,0,1-4.26-.135,33.737,33.737,0,0,1,4.26-.135,33.737,33.737,0,0,1,4.261.135" transform="translate(-91.21 -76.234)" fill="#263238"/><path d="M243.5,167.385a67.315,67.315,0,0,1-8.521,0,67.315,67.315,0,0,1,8.521,0" transform="translate(-107.107 -76.234)" fill="#263238"/><path d="M280.632,167.385a67.314,67.314,0,0,1-8.521,0,67.314,67.314,0,0,1,8.521,0" transform="translate(-124.03 -76.234)" fill="#263238"/><path d="M142.534,105.911H100.143a2.2,2.2,0,0,0-2.205,2.205v19.312a2.205,2.205,0,0,0,2.205,2.205h17.784l3.777,4.843,3.148-4.843h17.682a2.205,2.205,0,0,0,2.205-2.205V108.116a2.2,2.2,0,0,0-2.205-2.205" transform="translate(-44.641 -48.275)" fill="#fff"/><path d="M142.415,105.8s.07,0,.21,0a2.155,2.155,0,0,1,.6.134,2.181,2.181,0,0,1,.839.567,2.231,2.231,0,0,1,.581,1.26c.041,2.1.034,5.161.051,9.035,0,1.937.01,4.075.016,6.4q0,1.741.008,3.615a5.233,5.233,0,0,1-.044.963,2.317,2.317,0,0,1-2.161,1.857l-17.785.026.11-.06-3.145,4.846-.1.159-.117-.15-3.779-4.842.109.053-15.283,0h-1.836c-.31-.006-.6.013-.929-.016a2.351,2.351,0,0,1-2.023-1.814,4.063,4.063,0,0,1-.058-.928v-.9q0-3.587,0-7.063t0-6.817q0-1.67,0-3.3v-.815a2.345,2.345,0,0,1,1.269-2.077,2.28,2.28,0,0,1,.8-.244c.286-.026.54-.012.8-.015h1.565l3.067,0,5.865.007,10.526.017,15.242.045,4.144.027,1.077.014c.243,0,.367.015.367.015s-.125.01-.367.015l-1.077.014-4.144.027-15.242.045-10.526.017-5.865.007-3.067,0h-1.565c-.26,0-.534-.008-.775.016a2,2,0,0,0-.711.217,2.089,2.089,0,0,0-.984,1.1,2.113,2.113,0,0,0-.139.744v.815q0,1.634,0,3.3,0,3.341,0,6.817t0,7.063v.9a3.834,3.834,0,0,0,.052.866,2.073,2.073,0,0,0,.976,1.328,2.043,2.043,0,0,0,.8.267c.275.026.6.009.9.014h1.836l15.283,0h.068l.041.053,3.775,4.846-.22.009,3.152-4.841.039-.06h.071l17.776.016a2.1,2.1,0,0,0,1.966-1.678,5.033,5.033,0,0,0,.043-.922q0-1.873.007-3.615c.006-2.32.011-4.458.016-6.4.01-3.863.018-6.923.024-9.026a2.194,2.194,0,0,0-1.351-1.8,2.648,2.648,0,0,0-.8-.174" transform="translate(-44.522 -48.166)" fill="#263238"/><path d="M142.093,128.2H107.974a1.93,1.93,0,0,1-1.93-1.929v-7.208a1.93,1.93,0,0,1,1.93-1.929h34.119a1.929,1.929,0,0,1,1.929,1.929v7.208a1.929,1.929,0,0,1-1.929,1.929" transform="translate(-48.335 -53.389)" fill="#f5f5f5"/><path d="M116.934,125.345a1.629,1.629,0,0,1-1.784,1.616c-1.408,0-2.151-1.011-2.151-2.687,0-1.814.965-2.748,2.381-2.748a2.366,2.366,0,0,1,1.218.275l-.161.314a1.986,1.986,0,0,0-1.057-.245c-1.2,0-1.99.789-1.99,2.342a4.284,4.284,0,0,0,.046.643,1.679,1.679,0,0,1,1.707-1.1,1.6,1.6,0,0,1,1.791,1.592m-.39.008c0-.766-.551-1.263-1.455-1.263a1.286,1.286,0,1,0,.046,2.534,1.27,1.27,0,0,0,1.409-1.271" transform="translate(-51.506 -55.392)" fill="#529d2e"/><path d="M129.48,125.469h-1.125v1.485h-.383v-1.485h-3.055v-.284l2.909-3.59h.436l-2.855,3.529h2.572v-1.309h.375v1.309h1.125Z" transform="translate(-56.938 -55.424)" fill="#529d2e"/><path d="M141.081,125.446c0,.888-.643,1.547-1.876,1.547a2.575,2.575,0,0,1-1.891-.719l.2-.3a2.286,2.286,0,0,0,1.692.658c.965,0,1.478-.459,1.478-1.187s-.49-1.187-1.562-1.187h-.336v-.283l1.585-2.029h-2.856V121.6h3.361v.275l-1.608,2.06c1.217.03,1.814.643,1.814,1.516" transform="translate(-62.589 -55.424)" fill="#529d2e"/><path d="M152.921,121.6v.275l-2.3,5.084h-.429l2.282-5.008h-3.009v1.026h-.383V121.6Z" transform="translate(-67.951 -55.424)" fill="#529d2e"/><path d="M161.165,124.243c0-1.677.865-2.718,2.1-2.718s2.1,1.041,2.1,2.718-.865,2.718-2.1,2.718-2.1-1.041-2.1-2.718m3.805,0c0-1.493-.7-2.358-1.708-2.358s-1.707.865-1.707,2.358.7,2.358,1.707,2.358,1.708-.865,1.708-2.358" transform="translate(-73.46 -55.392)" fill="#529d2e"/><path d="M375.591,374.448c7.125-3.024,15.373-8.973,19.052-16.268a40.576,40.576,0,0,0-19.052,16.268" transform="translate(-171.197 -163.261)" fill="#263238"/><path d="M378.375,353.646c7.125-3.024,15.373-8.973,19.052-16.268a40.575,40.575,0,0,0-19.052,16.268" transform="translate(-172.466 -153.779)" fill="#263238"/><path d="M382.163,333.413c7.125-3.024,15.373-8.973,19.052-16.268a40.576,40.576,0,0,0-19.052,16.268" transform="translate(-174.192 -144.557)" fill="#263238"/><path d="M386.911,310.143c6.721-3.988,14.213-11.028,17-18.762a41.853,41.853,0,0,0-17,18.762" transform="translate(-176.356 -132.813)" fill="#263238"/><path d="M391.986,289.381c4.9-6.406,9.464-15.938,9.4-24.2a45.014,45.014,0,0,0-9.4,24.2" transform="translate(-178.669 -120.872)" fill="#263238"/><path d="M381.027,295.536c-.989-8.661-4.358-19.553-10.079-26.048a52.911,52.911,0,0,0,10.079,26.048" transform="translate(-169.08 -122.834)" fill="#263238"/><path d="M374.646,312.787c-1.744-8.931-6.151-19.976-12.646-26.241a54.966,54.966,0,0,0,12.646,26.241" transform="translate(-165.002 -130.609)" fill="#263238"/><path d="M369.784,334.019c-1.744-8.931-6.151-19.976-12.646-26.241a54.967,54.967,0,0,0,12.646,26.241" transform="translate(-162.786 -140.287)" fill="#263238"/><path d="M365.884,360.086c-1.744-8.931-6.151-19.976-12.646-26.24a54.966,54.966,0,0,0,12.646,26.24" transform="translate(-161.008 -152.169)" fill="#263238"/><path d="M384,306.53a.546.546,0,0,0-.055.133c-.036.106-.081.237-.135.4l-.494,1.545c-.428,1.342-1.008,3.3-1.685,5.723s-1.433,5.33-2.208,8.569-1.535,6.823-2.25,10.6-1.283,7.4-1.752,10.7-.81,6.279-1.056,8.787-.42,4.538-.509,5.944c-.043.686-.077,1.228-.1,1.619-.008.171-.014.31-.02.421a.54.54,0,0,0,0,.144.592.592,0,0,0,.025-.142c.012-.11.028-.248.047-.42.037-.39.088-.929.153-1.614.122-1.4.323-3.43.6-5.932s.644-5.476,1.114-8.771,1.067-6.905,1.771-10.681,1.48-7.35,2.226-10.593,1.49-6.146,2.148-8.576,1.2-4.392,1.6-5.743c.188-.661.336-1.182.444-1.56.044-.167.08-.3.109-.408a.535.535,0,0,0,.028-.141" transform="translate(-170.349 -139.718)" fill="#263238"/><path d="M368.964,378.175c3.021-6.327,5.219-15.223,3.735-22.167a39.3,39.3,0,0,0-3.735,22.167" transform="translate(-168.041 -162.271)" fill="#455a64"/><path d="M359.729,363.12c3.021-6.327,5.219-15.223,3.735-22.167a39.3,39.3,0,0,0-3.735,22.167" transform="translate(-163.831 -155.408)" fill="#455a64"/><path d="M351.448,347.811c3.021-6.327,5.219-15.223,3.735-22.167a39.3,39.3,0,0,0-3.735,22.167" transform="translate(-160.057 -148.43)" fill="#455a64"/><path d="M342.579,331.02c2.247-6.7,3.374-15.826,1.082-22.505a39.559,39.559,0,0,0-1.082,22.505" transform="translate(-155.629 -140.623)" fill="#455a64"/><path d="M332.579,318.5c-.22-7.125-2.317-16.049-6.741-21.311a38.644,38.644,0,0,0,6.741,21.311" transform="translate(-148.519 -135.461)" fill="#455a64"/><path d="M323.618,334.048c-5.241-4.945-13.21-9.855-20.373-10.5a39.47,39.47,0,0,0,20.373,10.5" transform="translate(-138.221 -147.476)" fill="#455a64"/><path d="M328.631,349.042c-5.873-4.653-14.6-9.022-22.142-9.04a41.08,41.08,0,0,0,22.142,9.04" transform="translate(-139.699 -154.975)" fill="#455a64"/><path d="M336.745,365.652c-5.874-4.653-14.6-9.022-22.142-9.039a41.084,41.084,0,0,0,22.142,9.039" transform="translate(-143.398 -162.546)" fill="#455a64"/><path d="M348.051,384.771c-5.874-4.653-14.6-9.022-22.142-9.039a41.084,41.084,0,0,0,22.142,9.039" transform="translate(-148.551 -171.261)" fill="#455a64"/><path d="M336.964,333.974a.418.418,0,0,0,.033.118l.121.336.491,1.281c.428,1.112,1.082,2.707,1.921,4.666,1.677,3.917,4.16,9.261,7.245,14.987,1.547,2.861,3.1,5.545,4.547,7.96s2.82,4.552,4,6.325,2.155,3.2,2.852,4.163l.8,1.112.214.285c.05.064.077.095.081.092a.405.405,0,0,0-.058-.107l-.193-.3-.762-1.14c-.67-.984-1.623-2.419-2.78-4.207s-2.5-3.936-3.951-6.348-2.978-5.1-4.523-7.961c-3.081-5.717-5.588-11.041-7.307-14.935-.86-1.947-1.54-3.53-2-4.63l-.538-1.262-.146-.325a.421.421,0,0,0-.058-.108" transform="translate(-153.59 -152.227)" fill="#263238"/><path d="M342.77,398.144h30.018v5.786H369.7l-2.6,16.5H348.551l-2.672-16.5H342.77Z" transform="translate(-156.236 -181.477)" fill="#455a64"/><path d="M342.77,408.437c0-.077,6.672-.139,14.9-.139s14.9.063,14.9.139-6.67.139-14.9.139-14.9-.063-14.9-.139" transform="translate(-156.237 -186.105)" fill="#263238"/><path d="M21.208,420.744H16.336l-1.807-21.933h5.737Z" transform="translate(-6.622 -181.781)" fill="#263238"/><path d="M104.394,420.744h4.872l1.807-21.933h-5.737Z" transform="translate(-47.583 -181.781)" fill="#263238"/><path d="M68.687,365.12,5.976,366.592l-1.909-40.5a6.957,6.957,0,0,1,6.949-7.284H64.447a6.957,6.957,0,0,1,6.94,7.438Z" transform="translate(-1.85 -145.312)" fill="#455a64"/><path d="M71.91,331.788a.81.81,0,0,1-.175.015l-.514.016-1.977.029-7.27.026c-6.138.01-14.618-.058-23.978.158-9.365.311-17.852.259-23.989.165-3.069-.048-5.552-.108-7.268-.159l-1.975-.068-.513-.025a.088.088,0,1,1,0-.029l.514,0,1.976.015,7.268.07c6.138.042,14.617.063,23.98-.248,9.367-.217,17.848-.116,23.986-.076l7.269.064,1.977.023.514.012a.792.792,0,0,1,.175.014" transform="translate(-1.857 -151.152)" fill="#263238"/><path d="M39.867,319.94a14.577,14.577,0,0,0-4.072,1.222,14.564,14.564,0,0,0-3.379,2.58,3.768,3.768,0,0,1,.777-1.007,9.419,9.419,0,0,1,5.4-2.757,3.766,3.766,0,0,1,1.272-.038" transform="translate(-14.775 -145.816)" fill="#263238"/><path d="M85.831,184.638l7.667,14,11.23-6.281,5.461,1.8S96.41,209.1,94.175,209.862s-6.469.9-8.889-2.129c-2.2-2.758-8.618-17.238-8.618-17.238Z" transform="translate(-34.946 -84.159)" fill="#ffbe9d"/><path d="M136.086,167.558a.905.905,0,0,0-.828-.328l-5.341.735a1.665,1.665,0,0,0-1.142.737l-11.09,17.045.853.477,5.905-.186,11.811-18.272Z" transform="translate(-53.641 -76.22)" fill="#263238"/><path d="M144.489,171.4a.381.381,0,1,0,.035-.456.33.33,0,0,0-.035.456" transform="translate(-65.824 -77.851)" fill="#fff"/><path d="M137.11,168.217a6.549,6.549,0,0,1-1.032.2l-2.83.439-1.956.287a1.11,1.11,0,0,0-.826.487l-.631.98L127,174.978c-2.017,3.093-3.858,5.883-5.2,7.894l-1.608,2.372a6.61,6.61,0,0,1-.626.846,6.62,6.62,0,0,1,.522-.914l1.522-2.428c1.3-2.042,3.108-4.852,5.126-7.945l2.853-4.352.646-.977a1.382,1.382,0,0,1,1.016-.59l1.965-.249,2.848-.337a6.594,6.594,0,0,1,1.05-.081" transform="translate(-54.497 -76.671)" fill="#455a64"/><path d="M131.907,179.378s-.476-.085-.737,1.217-1.1,5.037-1.1,5.037l-2.494-1.325-3.12.407s-.681.629-.181.97a11.035,11.035,0,0,0,2.471.694l1.455,2.091-4.175-2.012s-1.393.363-.985,1.213a27.084,27.084,0,0,0,3.223,3.51l-2.091-.158-2.487-1.51s-.763.035-.478.685a23.259,23.259,0,0,0,2.871,3l3.136,1.522s1.712-.134,1.876-.637a5.892,5.892,0,0,0,.206-1.22s.909-.245,1.079-.686a2.737,2.737,0,0,0,.06-1.138s1.427.251,1.6-.545a9.047,9.047,0,0,0-.115-2.973c-.144-.612.608-6.3.55-6.469s.328-2.045-.566-1.668" transform="translate(-55.218 -81.739)" fill="#ffbe9d"/><path d="M131.432,205.366a1.722,1.722,0,0,1-.818.254,5.534,5.534,0,0,1-3.955-.941c-.432-.312-.642-.567-.616-.6a7.888,7.888,0,0,0,5.389,1.282" transform="translate(-57.45 -93.02)" fill="#eb996e"/><path d="M132.8,202.911c-.049.072-.6-.219-1.2-.706s-.989-.975-.927-1.037.549.312,1.131.788,1.045.88.994.954" transform="translate(-59.559 -91.691)" fill="#eb996e"/><path d="M135.956,197.875c-.047.072-.6-.212-1.155-.727s-.885-1.041-.816-1.094.5.364,1.035.858.988.888.937.963" transform="translate(-61.067 -89.36)" fill="#eb996e"/><path d="M139.275,193.409c-.085.036-.4-.552-.9-1.193s-.98-1.1-.922-1.174.655.295,1.177.978a2.419,2.419,0,0,1,.643,1.389" transform="translate(-62.651 -87.074)" fill="#eb996e"/><path d="M143.268,378.533a1.147,1.147,0,0,0-.015-.516,3.425,3.425,0,0,0-.521-1.312,1.846,1.846,0,0,0-.311-.379.589.589,0,0,0-.584-.132.416.416,0,0,0-.258.259.557.557,0,0,0,.012.35,3.52,3.52,0,0,0,.272.526c.2.341.37.68.628,1.064a.745.745,0,0,0,.693.312,1.488,1.488,0,0,0,.669-.3,5.763,5.763,0,0,0,1.37-1.411,1.661,1.661,0,0,0,.292-.579.549.549,0,0,0-.3-.632.658.658,0,0,0-.623.141,3.845,3.845,0,0,0-.657.744,4.973,4.973,0,0,0-.644,1.25,1.28,1.28,0,0,0-.112.5,9.9,9.9,0,0,1,.931-1.622,3.938,3.938,0,0,1,.631-.666.415.415,0,0,1,.37-.1.278.278,0,0,1,.12.325,1.458,1.458,0,0,1-.255.468,5.869,5.869,0,0,1-.374.475,5.742,5.742,0,0,1-.935.854,1.22,1.22,0,0,1-.525.242.436.436,0,0,1-.42-.194c-.215-.313-.421-.7-.62-1.02a3.68,3.68,0,0,1-.26-.47c-.052-.147-.023-.243.079-.284.236-.1.465.169.625.4a4.946,4.946,0,0,1,.716,1.7" transform="translate(-64.522 -171.271)" fill="#263238"/><path d="M105.59,374.689l-6.64,14.391-10.716-4.95L95.1,366.319Z" transform="translate(-40.218 -166.97)" fill="#ffbe9d"/><path d="M94.964,401.3l-3.88,7.4s9.931,10.268,9,12.564L76.737,410.065l6.414-14.84Z" transform="translate(-34.977 -180.146)" fill="#455a64"/><path d="M89.721,411.745a1.057,1.057,0,0,0-1.181.772,1.017,1.017,0,0,0,.755,1.178,1.116,1.116,0,0,0,1.246-.824,1.055,1.055,0,0,0-.921-1.137" transform="translate(-40.348 -187.669)" fill="#e0e0e0"/><g transform="translate(41.76 228.058)" opacity="0.6"><g clip-path="url(#g)"><path d="M76.737,420.936l.971-1.861L99.729,430.5s.823.95.354,1.626Z" transform="translate(-76.737 -419.075)" fill="#fff"/></g></g><path d="M101.6,419.7c-.058.112-.653-.109-1.39-.011-.739.078-1.265.433-1.349.338-.094-.073.4-.673,1.3-.775s1.517.356,1.442.448" transform="translate(-45.056 -191.09)" fill="#263238"/><path d="M105.545,423.939c-.027.123-.613.08-1.232.377-.627.279-.975.753-1.086.693-.116-.033.126-.738.9-1.093s1.466-.087,1.417.023" transform="translate(-47.039 -193.141)" fill="#263238"/><path d="M107.449,429.4c-.115-.026,0-.671.591-1.155s1.245-.477,1.247-.359c.02.125-.487.294-.967.7s-.753.858-.871.815" transform="translate(-48.958 -195)" fill="#263238"/><path d="M103.863,413.866c-.1.081-.545-.327-1.211-.592s-1.265-.3-1.277-.429.665-.3,1.445.022,1.142.937,1.043,1" transform="translate(-46.207 -188.105)" fill="#263238"/><path d="M66.871,343.463l17.5-43.8s-.393-7.474-1.77-9.835S39.531,273.7,39.531,273.7s-10.621-2.557-17.7,0S9.438,285.1,10.422,290.021s5.134,8.529,5.134,8.529l30.663.911,16.713,6.1L51.676,337.815Z" transform="translate(-4.697 -124.234)" fill="#263238"/><path d="M131.882,345.433l.395,15.845-11.8.288-1.7-19.014Z" transform="translate(-54.139 -156.137)" fill="#ffbe9d"/><path d="M133.751,374.165l-.216,8.351s13.444,4.83,13.621,7.3l-25.89.262-.8-16.147Z" transform="translate(-54.911 -170.441)" fill="#455a64"/><path d="M129.124,387.755a1.058,1.058,0,0,0-.719,1.214,1.016,1.016,0,0,0,1.2.723,1.114,1.114,0,0,0,.754-1.289,1.054,1.054,0,0,0-1.328-.614" transform="translate(-58.517 -176.72)" fill="#e0e0e0"/><g transform="translate(66.356 217.541)" opacity="0.6"><g clip-path="url(#h)"><path d="M121.934,401.846l.05-2.1,24.8.533s1.158.49,1.036,1.3Z" transform="translate(-121.934 -399.748)" fill="#fff"/></g></g><path d="M143.283,389.361c0,.126-.635.19-1.252.6-.629.4-.944.947-1.061.9-.117-.023.064-.781.821-1.267s1.518-.35,1.492-.234" transform="translate(-64.24 -177.422)" fill="#263238"/><path d="M148.835,391.427c.03.122-.515.343-.939.882-.44.527-.542,1.106-.668,1.1-.119.021-.213-.719.327-1.379s1.277-.725,1.281-.6" transform="translate(-67.065 -178.392)" fill="#263238"/><path d="M153.022,395.578c-.114.028-.3-.6.021-1.3s.906-.977.961-.872c.073.1-.307.478-.559,1.054s-.3,1.1-.422,1.116" transform="translate(-69.677 -179.308)" fill="#263238"/><path d="M142.519,383.484c-.052.116-.633-.053-1.347,0-.716.041-1.269.287-1.336.179-.074-.09.464-.564,1.306-.618s1.438.336,1.377.436" transform="translate(-63.735 -174.593)" fill="#263238"/><path d="M100.029,266.906a7.344,7.344,0,0,1,7.857,7.106c.787,7.67,1.559,43.468,1.559,43.468l-16.521,1.376-2.557-36.583L64.011,271.062s31.3-5.139,36.018-4.156" transform="translate(-29.177 -121.6)" fill="#263238"/><path d="M44.131,247.99s4.291,12.03,3.474,13.371-11.851,6.857-11.851,6.857l-27.609,10.6a23.137,23.137,0,0,1-2.836-11.44c0-6.928,9.6-19.392,9.6-19.392Z" transform="translate(-2.42 -113.035)" fill="#263238"/><path d="M61.61,273.52a.592.592,0,0,0,.13.07l.392.181,1.529.68,5.739,2.5,19.814,8.529-.089-.126c.25,3.613.521,7.516.8,11.554.672,9.438,1.291,18.141,1.781,25.027l.009.125.124-.011,12.036-1.056,3.314-.31.866-.09a1.726,1.726,0,0,0,.295-.044,1.862,1.862,0,0,0-.3.007l-.869.054-3.32.243-12.045.951.133.114c-.473-6.887-1.07-15.591-1.719-25.032-.284-4.037-.559-7.94-.814-11.553l-.007-.09-.083-.035-19.857-8.429L63.7,274.359l-1.548-.636-.4-.158a.647.647,0,0,0-.14-.046" transform="translate(-28.082 -124.672)" fill="#455a64"/><path d="M21.262,273.055a4.033,4.033,0,0,0,.775-.212l2.079-.67a45.413,45.413,0,0,1,6.957-1.758,20.416,20.416,0,0,1,7.122.091,28.664,28.664,0,0,1,2.854.827,3.439,3.439,0,0,0-.718-.363,12.751,12.751,0,0,0-2.089-.676,19.147,19.147,0,0,0-7.215-.183,38.709,38.709,0,0,0-6.981,1.856c-.87.309-1.569.574-2.049.764a3.972,3.972,0,0,0-.735.325" transform="translate(-9.691 -123.003)" fill="#455a64"/><path d="M28.433,263.878a20.222,20.222,0,0,1,2.414-.014c.743.052,1.628.166,2.613.28s2.063.25,3.181.461a14.79,14.79,0,0,1,5.41,2.006,16.714,16.714,0,0,1,1.876,1.512,2.082,2.082,0,0,0-.4-.52,8.286,8.286,0,0,0-1.353-1.173A13.85,13.85,0,0,0,36.7,264.3c-1.132-.214-2.22-.339-3.207-.441s-1.877-.19-2.633-.215a9.9,9.9,0,0,0-1.787.079,2.073,2.073,0,0,0-.638.152" transform="translate(-12.96 -120.168)" fill="#455a64"/><path d="M37.735,86.324c-3.177-.54-5.969.684-8.649,2.474a15.926,15.926,0,0,0-5.862,7.5,15.766,15.766,0,0,0-.583,9.986,12.592,12.592,0,0,0,6.2,7.716,12.729,12.729,0,0,0,13.115-1.429,15.948,15.948,0,0,0,5.988-12.049,15.312,15.312,0,0,0-2.424-9.1,11.661,11.661,0,0,0-7.788-5.092" transform="translate(-10.067 -39.288)" fill="#263238"/><path d="M33.883,97.278a17.555,17.555,0,0,0,.468-3.861c.405-2.836,2.69-5.111,5.334-6.217,2.459-1.029,5.462-.8,8.425.153a11.307,11.307,0,0,1,5.3,3.45,8.911,8.911,0,0,1,1.638,8L40.53,96.692a16.182,16.182,0,0,1-4.4,2.894,3,3,0,0,1-1.515.242,1.353,1.353,0,0,1-1.129-.931,2.864,2.864,0,0,1,.4-1.618" transform="translate(-15.25 -39.439)" fill="#263238"/><path d="M48.49,95.4l-12.67,2.685a2.366,2.366,0,0,0-2.208,2.316l.152,27.42a8.514,8.514,0,0,0,1.786,5.17l1.209,1.559a6.253,6.253,0,0,0,10.44-.778,2.991,2.991,0,0,0,.291-.718,5.523,5.523,0,0,0,.12-.619l.241-2.673c.124-2.441.14-4.922.141-4.9,0,0,5.185-.655,6.513-7.336.661-3.322.705-8.81.6-13.3-.1-4.043-2.577-9.094-6.612-8.825" transform="translate(-15.32 -43.48)" fill="#ffbe9d"/><path d="M68.117,120.4a.862.862,0,0,1-.865.838.825.825,0,0,1-.859-.811.863.863,0,0,1,.864-.838.826.826,0,0,1,.859.811" transform="translate(-30.263 -54.51)" fill="#263238"/><path d="M67.862,115.966c-.111.108-.746-.4-1.673-.434s-1.626.4-1.722.286c-.047-.052.07-.251.374-.455A2.368,2.368,0,0,1,66.224,115a2.277,2.277,0,0,1,1.327.485c.276.231.365.438.311.485" transform="translate(-29.38 -52.415)" fill="#263238"/><path d="M52.837,120.02a.862.862,0,0,1-.865.838.825.825,0,0,1-.859-.811.863.863,0,0,1,.864-.838.825.825,0,0,1,.859.812" transform="translate(-23.298 -54.336)" fill="#263238"/><path d="M51.674,115.551c-.112.108-.747-.4-1.674-.434s-1.626.4-1.722.286c-.047-.052.069-.251.374-.455a2.367,2.367,0,0,1,1.384-.369,2.277,2.277,0,0,1,1.326.486c.276.23.366.437.311.485" transform="translate(-22.001 -52.225)" fill="#263238"/><path d="M59.527,122.843a6.153,6.153,0,0,1,1.517-.213c.238-.015.464-.054.51-.214a1.205,1.205,0,0,0-.131-.708l-.631-1.831A30.975,30.975,0,0,1,59.4,115.1a31.09,31.09,0,0,1,1.771,4.656q.314.963.6,1.84a1.372,1.372,0,0,1,.087.934.594.594,0,0,1-.4.331,1.607,1.607,0,0,1-.4.04,6.043,6.043,0,0,1-1.527-.057" transform="translate(-27.071 -52.462)" fill="#263238"/><path d="M52.574,147.245a17.114,17.114,0,0,1-8.909-2.751s2.083,4.741,8.835,4.373Z" transform="translate(-19.903 -65.861)" fill="#eb996e"/><path d="M56.424,132.84a1.674,1.674,0,0,0-1.474-.679,1.527,1.527,0,0,0-1.076.525.967.967,0,0,0-.116,1.1,1.122,1.122,0,0,0,1.2.355,3.518,3.518,0,0,0,1.213-.661,1.029,1.029,0,0,0,.275-.264.309.309,0,0,0,.012-.345" transform="translate(-24.446 -60.238)" fill="#eb996e"/><path d="M54.436,130.316c.151,0,.114,1,.949,1.752s1.91.679,1.912.82c.011.064-.247.186-.7.181a2.506,2.506,0,0,1-1.6-.627,2.185,2.185,0,0,1-.731-1.467c-.022-.422.1-.668.169-.659" transform="translate(-24.734 -59.399)" fill="#263238"/><path d="M50.872,110.663c-.1.249-1.023.093-2.116.182-1.1.067-1.985.351-2.121.119-.06-.11.1-.342.466-.572a3.695,3.695,0,0,1,3.228-.23c.393.176.587.383.543.5" transform="translate(-21.251 -50.091)" fill="#263238"/><path d="M67.869,108.449c-.171.2-.8-.039-1.57-.079-.767-.067-1.425.087-1.566-.14-.062-.109.049-.316.341-.505a2.278,2.278,0,0,1,2.527.176c.263.227.343.448.268.548" transform="translate(-29.498 -48.964)" fill="#263238"/><path d="M29.291,95.344c1.314-3.858,7.049-9.115,11.108-8.75l6.414,4.022a6.267,6.267,0,0,1-4.346,4.708c-1.154.326-2.539.4-3.241,1.369-.717.994-.339,2.47-1.008,3.5-.927,1.423-3.383,1.3-4.089,2.85-.308.675-.17,1.492-.49,2.161-.427.892-2.728,1.987-3.664,1.67s-.907-1.922-1.2-2.769a4.452,4.452,0,0,1-.077-2.986c.448-1.892-.035-3.93.592-5.771" transform="translate(-12.98 -39.462)" fill="#263238"/><path d="M32.237,123.84c.018-.5-.515-1.7-1.006-1.8-1.312-.257-3.7-.243-3.848,3.108-.208,4.582,4.435,3.846,4.449,3.715.011-.1.342-3.295.4-5.023" transform="translate(-12.478 -55.582)" fill="#ffbe9d"/><path d="M31.486,128.284c-.02-.016-.083.052-.22.108a.8.8,0,0,1-.6-.015,1.977,1.977,0,0,1-.833-1.813,2.634,2.634,0,0,1,.275-1.133.924.924,0,0,1,.628-.586.407.407,0,0,1,.461.239c.056.131.022.222.046.23s.1-.071.074-.263a.51.51,0,0,0-.168-.3.607.607,0,0,0-.436-.137,1.124,1.124,0,0,0-.866.673,2.713,2.713,0,0,0-.335,1.264,2.075,2.075,0,0,0,1.074,2.031.858.858,0,0,0,.736-.088c.147-.107.176-.208.161-.218" transform="translate(-13.453 -56.802)" fill="#eb996e"/><path d="M20.357,98.153h0c.015-1.433-1.775-2.371-3.172-2.7a5.962,5.962,0,0,0-4.13.789,2.937,2.937,0,0,0-1.641,1.8c-.164.822.627,1.8,1.412,1.508a2.839,2.839,0,0,0-1.484,3.908,2.84,2.84,0,0,0,4.115.738,6.071,6.071,0,0,1-2.382,3.253,6.816,6.816,0,0,0,7.282-9.3" transform="translate(-5.028 -43.459)" fill="#263238"/><path d="M22.179,106.67a4.114,4.114,0,0,1-.171-1.375,10.1,10.1,0,0,1,2.109-6.259,4.1,4.1,0,0,1,.969-.991,12.561,12.561,0,0,0-2.906,8.625" transform="translate(-10.03 -44.689)" fill="#ff725e"/><path d="M59.724,91.4c.422,1.866,3.257,4.258,4.5,5.71,2.375,2.772,2.843,3.692,2.82,9.886a13.123,13.123,0,0,0,1.894-6.65,10,10,0,0,0-2.654-6.569A7.785,7.785,0,0,0,59.724,91.4" transform="translate(-27.223 -41.628)" fill="#263238"/><path d="M51.935,171.2s-4.939-8.234-6.309-9.9a11,11,0,0,0-4.046-2.966,8.36,8.36,0,0,0-1.923-.568l-7.1-1.573a5.185,5.185,0,0,1-5.092,5.148c-5.079.3-9.356-6.775-9.356-6.775S9.9,155.839,7.938,156.849s-5.049,2.293-6.747,10.795L0,175.961l14.149,1.308L15.5,198.293l7.017,4.887s19.453,5.057,20.7,5.391,1.655-31.3,1.655-31.3,5-3.231,7.065-6.063" transform="translate(0 -70.454)" fill="#263238"/><path d="M78.319,178.641a2.944,2.944,0,0,1,.273.607c.162.4.368.98.6,1.71a33.478,33.478,0,0,1,1.446,11.817c-.046.764-.106,1.381-.167,1.8a2.976,2.976,0,0,1-.119.654,3.025,3.025,0,0,1,.009-.664c.027-.426.056-1.042.077-1.8A39.364,39.364,0,0,0,79,181.014c-.2-.733-.38-1.324-.509-1.73a3,3,0,0,1-.169-.643" transform="translate(-35.697 -81.425)" fill="#455a64"/><path d="M43.947,220.2l-26.639-5.8-1.231-19.041L4.23,194.268s.439,13.017.894,16.886c.655,5.566,3.945,13.161,5.87,14.678s34.15.833,34.15.833Z" transform="translate(-1.928 -88.549)" fill="#ffbe9d"/><path d="M92.12,240.276a1.028,1.028,0,0,1-.992.578,1.215,1.215,0,0,1-.258-.052c-.589-.189-.534-1.389-.534-1.389l-2.824-.461a30.216,30.216,0,0,0-4.977,3.937c-1.306,1.569-4.638.3-4.638.3l-1.155-6.017,5.2-4.7s-.319.28.039-.6,1.991-.546,1.991-.546c.254-.435,1.321-.59,1.321-.59l4.558.525a3.124,3.124,0,0,1,2.284,1.435l1.928,3.051s1.018,2.2.854,2.707a.912.912,0,0,1-1.062.6s-.224,1.444-.6,1.494a3.114,3.114,0,0,1-1.128-.27" transform="translate(-34.98 -105.17)" fill="#ffbe9d"/><path d="M87.174,240.182c0,.048.611-.008,1.585.034a13.812,13.812,0,0,1,3.72.7,13.23,13.23,0,0,1,1.918.82c.551.31,1.125.565,1.3.967a.553.553,0,0,1-.05.543.774.774,0,0,1-.344.291,1.2,1.2,0,0,1-.4.059c-.011.007.141.126.437.048a.847.847,0,0,0,.44-.3.728.728,0,0,0,.108-.713,1.456,1.456,0,0,0-.568-.641c-.248-.163-.508-.329-.8-.485a11.952,11.952,0,0,0-5.76-1.486,5.258,5.258,0,0,0-1.589.171" transform="translate(-39.734 -109.398)" fill="#eb996e"/><path d="M86.588,245.506c.005.086,1.86.009,4.139.143s4.114.412,4.129.327a4.561,4.561,0,0,0-1.187-.288,26.683,26.683,0,0,0-5.869-.333,4.541,4.541,0,0,0-1.212.152" transform="translate(-39.467 -111.816)" fill="#eb996e"/><path d="M98.093,242.277a2.06,2.06,0,0,0,.057-.486,10.682,10.682,0,0,0,0-1.334,5.752,5.752,0,0,0-.127-.925,2.829,2.829,0,0,0-.448-.993,6.232,6.232,0,0,0-1.708-1.749,8.564,8.564,0,0,0-2.18-1.1,7.842,7.842,0,0,0-1.968-.3c-.564-.02-1.018-.008-1.331,0a1.594,1.594,0,0,0-.487.049,14.754,14.754,0,0,0,1.805.152,8.535,8.535,0,0,1,1.9.35,8.955,8.955,0,0,1,2.095,1.086,6.243,6.243,0,0,1,1.652,1.661,3.457,3.457,0,0,1,.591,1.784c.11,1.1.082,1.8.145,1.8" transform="translate(-40.978 -107.286)" fill="#eb996e"/><path d="M92.854,232.815c0,.044.682.062,1.771.187,1.049.161,2.727.238,3.683,1.683a15.477,15.477,0,0,1,2.3,3.575,9.228,9.228,0,0,1,.432,1.707,1.246,1.246,0,0,0,.027-.483,4.574,4.574,0,0,0-.265-1.295,13.551,13.551,0,0,0-2.267-3.686,4.966,4.966,0,0,0-.886-.9,3.227,3.227,0,0,0-1.073-.5,9.756,9.756,0,0,0-1.932-.307,6.91,6.91,0,0,0-1.79.018" transform="translate(-42.323 -106.094)" fill="#eb996e"/><path d="M83.747,241.807a1.64,1.64,0,0,0,.27-.207l.764-.613a31.66,31.66,0,0,1,3-2.064l-.065.012,2.82.48-.1-.119a3.119,3.119,0,0,0,.053.689,1.282,1.282,0,0,0,.32.679.7.7,0,0,0,.374.172.991.991,0,0,0,.4.023,1.156,1.156,0,0,0,.7-.389,1.2,1.2,0,0,0,.122-.167l.026-.045.013-.023.006-.011v0c.036-.014-.315.115-.165.061h0l.006,0,.089.036q.179.071.365.13a3.287,3.287,0,0,0,.386.1,1.428,1.428,0,0,0,.21.023.478.478,0,0,0,.261-.051.842.842,0,0,0,.276-.373,3.1,3.1,0,0,0,.14-.388,6.782,6.782,0,0,0,.181-.8l-.165.114a1.071,1.071,0,0,0,1.051-.359.874.874,0,0,0,.194-.568,2.55,2.55,0,0,0-.1-.546,15.21,15.21,0,0,0-.778-2.03l0-.008-.006-.009-1.027-1.628-.652-1.032a5.593,5.593,0,0,0-.715-1,3.029,3.029,0,0,0-1.023-.679,3.936,3.936,0,0,0-1.162-.242l-4.3-.483-.018,0-.015,0a3.969,3.969,0,0,0-.754.2,1.277,1.277,0,0,0-.654.458l.158-.049a1.575,1.575,0,0,0-1.464.082,1.842,1.842,0,0,0-.724,1.154l.034-.059L78.5,235.5l-.965.889a2.486,2.486,0,0,0-.323.326,2.51,2.51,0,0,0,.364-.279l1-.846,3.644-3.149.024-.021.01-.039a1.629,1.629,0,0,1,.638-1,1.342,1.342,0,0,1,1.234-.053l.1.041.059-.091a1.077,1.077,0,0,1,.531-.346,3.758,3.758,0,0,1,.7-.179H85.49l4.294.507a3.68,3.68,0,0,1,1.088.226,2.757,2.757,0,0,1,.925.617,5.346,5.346,0,0,1,.675.951l.651,1.032,1.029,1.627-.009-.016a15.131,15.131,0,0,1,.766,1.983,2.3,2.3,0,0,1,.092.482.591.591,0,0,1-.134.387.8.8,0,0,1-.772.259l-.142-.023-.023.137a6.654,6.654,0,0,1-.169.765,1.377,1.377,0,0,1-.295.609.267.267,0,0,1-.115.012,1.131,1.131,0,0,1-.173-.018,2.857,2.857,0,0,1-.354-.086c-.118-.035-.233-.076-.347-.12l-.084-.034,0,0h0l-.168.061h0l0,.009-.01.018-.02.035a.963.963,0,0,1-.1.132.9.9,0,0,1-.544.309.758.758,0,0,1-.31-.017.462.462,0,0,1-.258-.108,1.769,1.769,0,0,1-.309-1.179v-.1l-.1-.015-2.826-.442-.036-.005-.028.018a27.176,27.176,0,0,0-2.963,2.147c-.327.276-.572.5-.733.654a1.69,1.69,0,0,0-.235.247" transform="translate(-35.194 -105.06)" fill="#eb996e"/><path d="M117.883,216.1l-35.089.285a2.2,2.2,0,0,0-2.4,1.672l-3.835,25.574H58.49a1.054,1.054,0,1,0,0,2.107h57.724l3.945-26.992a2.3,2.3,0,0,0-2.276-2.648" transform="translate(-26.18 -98.5)" fill="#e0e0e0"/><path d="M117.764,216.09a1.852,1.852,0,0,1,.553.052,2.321,2.321,0,0,1,1.774,2.009,6.479,6.479,0,0,1-.129,1.443c-.147,1.033-.316,2.224-.506,3.562-.772,5.361-1.885,13.089-3.254,22.589l-.013.093H116.1l-56,.033H58.587a1.458,1.458,0,0,1-.8-.151,1.2,1.2,0,0,1,0-2.091,1.46,1.46,0,0,1,.791-.148h6.608l11.252,0-.135.116c1.381-9.159,2.668-17.7,3.823-25.368a1.988,1.988,0,0,1,.649-1.336,2.611,2.611,0,0,1,1.342-.592,11.681,11.681,0,0,1,1.415-.05l1.377-.009,5.283-.035,9.388-.06,13.365-.069,3.576-.006.923,0c.207,0,.313.009.313.009s-.106.009-.313.015l-.923.019-3.575.052-13.365.149-9.388.093-5.283.051-1.378.013a11.565,11.565,0,0,0-1.38.05,2.385,2.385,0,0,0-1.223.54,1.748,1.748,0,0,0-.571,1.2c-1.143,7.666-2.418,16.212-3.785,25.373l-.017.116h-.118l-11.252,0H58.585a1.174,1.174,0,0,0-.654.113.912.912,0,0,0,0,1.6,1.18,1.18,0,0,0,.66.116h1.507l56,.033-.107.093c1.408-9.494,2.553-17.217,3.348-22.575l.534-3.557a6.515,6.515,0,0,0,.143-1.422,2.243,2.243,0,0,0-.407-1.091,2.3,2.3,0,0,0-1.3-.895,4.583,4.583,0,0,0-.545-.083" transform="translate(-26.061 -98.489)" fill="#263238"/><path d="M129.5,240.9a2.2,2.2,0,1,0,2.2-2.2,2.2,2.2,0,0,0-2.2,2.2" transform="translate(-59.028 -108.8)" fill="#fff"/><path d="M95.2,245.743c.049.008,1.166-6.5,2.495-14.544s2.363-14.566,2.314-14.574-1.167,6.5-2.495,14.545-2.365,14.565-2.314,14.573" transform="translate(-43.39 -98.739)" fill="#263238"/></g></g></g></g></g></g></g></svg>