<svg xmlns="http://www.w3.org/2000/svg" width="505" height="802.248" viewBox="0 0 505 802.248"><g transform="translate(-915 -1660.918)"><g transform="translate(0 36.24)"><g transform="translate(-216.785 1629.588)"><g transform="translate(1180.285 -4.911)"><path d="M1245.281,71.035a55.792,55.792,0,0,1,14.329,3.783l10.531-8.826,18.091,13.77-5.7,12.5a55.678,55.678,0,0,1,7.467,12.8l13.683,1.205,3.055,22.529-12.865,4.809a55.622,55.622,0,0,1-3.788,14.33l8.827,10.533-13.767,18.09-12.5-5.7a55.755,55.755,0,0,1-12.8,7.464l-1.2,13.683-22.53,3.058-4.807-12.868a55.61,55.61,0,0,1-14.33-3.784l-10.534,8.827-18.09-13.769,5.7-12.5a55.818,55.818,0,0,1-7.466-12.8l-13.682-1.207-3.056-22.529,12.865-4.807a55.57,55.57,0,0,1,3.786-14.332l-8.827-10.533,13.767-18.09,12.5,5.7a55.712,55.712,0,0,1,12.8-7.467l1.2-13.68,22.527-3.056,4.812,12.865Zm-6.757,31.066a24.392,24.392,0,1,0,24.5,18.657A24.4,24.4,0,0,0,1238.524,102.1Z" transform="translate(-1169.838 -58.17)" fill="#e0e0e0" fill-rule="evenodd"/></g><g transform="translate(1147.785 288.541)"><g transform="translate(0 59.053)"><g transform="translate(261.614 -225)"><path d="M1261.73,272.04a52.083,52.083,0,0,1,11.318,7.973l12.092-4.3,11.365,17.939-9.056,9.1a52.069,52.069,0,0,1,2.376,13.639l11.591,5.5-4.651,20.722-12.829.028a52.032,52.032,0,0,1-7.976,11.318l4.3,12.093-17.936,11.364-9.1-9.054a52.086,52.086,0,0,1-13.641,2.373l-5.5,11.591-20.723-4.648-.026-12.83a51.987,51.987,0,0,1-11.318-7.974l-12.094,4.3-11.365-17.938,9.059-9.1a52.2,52.2,0,0,1-2.375-13.639l-11.588-5.5,4.648-20.722,12.829-.027a51.9,51.9,0,0,1,7.974-11.32l-4.3-12.093,17.937-11.365,9.1,9.057a52.092,52.092,0,0,1,13.641-2.374l5.5-11.589,20.72,4.648.029,12.83Zm-18.27,24.384a22.781,22.781,0,1,0,17.244,27.215A22.781,22.781,0,0,0,1243.461,296.424Z" transform="translate(-1173.656 -254.562)" fill="#f8f8f8" fill-rule="evenodd"/><g opacity="0.8"><path d="M1261.73,272.04a52.083,52.083,0,0,1,11.318,7.973l12.092-4.3,11.365,17.939-9.056,9.1a52.069,52.069,0,0,1,2.376,13.639l11.591,5.5-4.651,20.722-12.829.028a52.032,52.032,0,0,1-7.976,11.318l4.3,12.093-17.936,11.364-9.1-9.054a52.086,52.086,0,0,1-13.641,2.373l-5.5,11.591-20.723-4.648-.026-12.83a51.987,51.987,0,0,1-11.318-7.974l-12.094,4.3-11.365-17.938,9.059-9.1a52.2,52.2,0,0,1-2.375-13.639l-11.588-5.5,4.648-20.722,12.829-.027a51.9,51.9,0,0,1,7.974-11.32l-4.3-12.093,17.937-11.365,9.1,9.057a52.092,52.092,0,0,1,13.641-2.374l5.5-11.589,20.72,4.648.029,12.83Zm-18.27,24.384a22.781,22.781,0,1,0,17.244,27.215A22.781,22.781,0,0,0,1243.461,296.424Z" transform="translate(-1173.656 -254.562)" fill="#f8f8f8" fill-rule="evenodd"/></g></g><g transform="translate(301 375.372)"><path d="M1199.057,352.523a30.368,30.368,0,0,1,6.587,4.641l7.04-2.505L1219.3,365.1l-5.271,5.3a30.328,30.328,0,0,1,1.382,7.94l6.748,3.2-2.707,12.062-7.469.018a30.245,30.245,0,0,1-4.642,6.587l2.505,7.04-10.441,6.615-5.3-5.271a30.278,30.278,0,0,1-7.942,1.382l-3.2,6.747-12.064-2.7-.016-7.47a30.252,30.252,0,0,1-6.589-4.642l-7.04,2.507-6.615-10.443,5.273-5.3a30.324,30.324,0,0,1-1.382-7.94l-6.747-3.2,2.706-12.064,7.469-.015a30.222,30.222,0,0,1,4.642-6.59l-2.507-7.04,10.441-6.615,5.3,5.273a30.264,30.264,0,0,1,7.94-1.382l3.2-6.747,12.062,2.706.018,7.469Zm-10.636,14.195a13.261,13.261,0,1,0,10.037,15.842A13.26,13.26,0,0,0,1188.421,366.718Z" transform="translate(-1147.785 -342.349)" fill="#dbf5cc" fill-rule="evenodd"/><g opacity="0.4"><path d="M1199.057,352.523a30.368,30.368,0,0,1,6.587,4.641l7.04-2.505L1219.3,365.1l-5.271,5.3a30.328,30.328,0,0,1,1.382,7.94l6.748,3.2-2.707,12.062-7.469.018a30.245,30.245,0,0,1-4.642,6.587l2.505,7.04-10.441,6.615-5.3-5.271a30.278,30.278,0,0,1-7.942,1.382l-3.2,6.747-12.064-2.7-.016-7.47a30.252,30.252,0,0,1-6.589-4.642l-7.04,2.507-6.615-10.443,5.273-5.3a30.324,30.324,0,0,1-1.382-7.94l-6.747-3.2,2.706-12.064,7.469-.015a30.222,30.222,0,0,1,4.642-6.59l-2.507-7.04,10.441-6.615,5.3,5.273a30.264,30.264,0,0,1,7.94-1.382l3.2-6.747,12.062,2.706.018,7.469Zm-10.636,14.195a13.261,13.261,0,1,0,10.037,15.842A13.26,13.26,0,0,0,1188.421,366.718Z" transform="translate(-1147.785 -342.349)" fill="#dbf5cc" fill-rule="evenodd"/></g></g></g><g transform="translate(296.933 -225)"><path d="M1249.4,223.321a38.229,38.229,0,0,1,9.833,2.6l7.229-6.057,12.416,9.449-3.913,8.58a38.252,38.252,0,0,1,5.125,8.788l9.39.827,2.1,15.462-8.829,3.3a38.165,38.165,0,0,1-2.6,9.836l6.057,7.229-9.448,12.414-8.582-3.911a38.261,38.261,0,0,1-8.788,5.123l-.827,9.39-15.462,2.1-3.3-8.83a38.157,38.157,0,0,1-9.834-2.6l-7.23,6.058-12.416-9.449,3.914-8.583a38.29,38.29,0,0,1-5.124-8.786l-9.389-.828-2.1-15.461,8.831-3.3a38.062,38.062,0,0,1,2.6-9.835l-6.058-7.229,9.448-12.414,8.581,3.913a38.219,38.219,0,0,1,8.789-5.124l.827-9.39,15.459-2.1,3.3,8.83Zm-4.638,21.32a16.74,16.74,0,1,0,16.812,12.8A16.745,16.745,0,0,0,1244.761,244.642Z" transform="translate(-1197.622 -214.491)" fill="#b0c710" fill-rule="evenodd"/></g></g></g><g transform="translate(976.714 1683.9)"><g transform="translate(148.286 50.232)"><path d="M232.627,119.01s-.017-.443-.026-1.275c-.007-.849-.016-2.074-.028-3.667-.015-3.22-.036-7.911-.063-13.89-.03-11.959-.073-29.048-.125-49.653l.242.243-84.042.05h-.007l.292-.293c-.012,24.758-.023,48.137-.032,68.485l-.26-.261,60.691.13,17.2.07,4.566.031,1.181.015c.266.005.409.015.409.015s-.122.011-.379.016l-1.151.015-4.515.031-17.144.069-60.86.132h-.261v-.262c-.009-20.348-.02-43.727-.031-68.485v-.293h.3l84.042.048h.245v.245c-.051,20.669-.1,37.811-.125,49.806-.027,5.954-.048,10.628-.063,13.835-.012,1.574-.022,2.783-.027,3.621C232.646,118.6,232.627,119.01,232.627,119.01Z" transform="translate(-148.286 -50.232)" fill="#e0e0e0"/></g><g transform="translate(148.54 60.394)"><path d="M233.221,58.08c0,.161-18.973.293-42.371.293s-42.375-.132-42.375-.293,18.969-.293,42.375-.293S233.221,57.917,233.221,58.08Z" transform="translate(-148.475 -57.787)" fill="#e0e0e0"/></g><g transform="translate(153.174 54.552)"><path d="M154.182,54.581a1.131,1.131,0,1,1-1.131-1.137A1.133,1.133,0,0,1,154.182,54.581Z" transform="translate(-151.92 -53.444)" fill="#e0e0e0"/><g transform="translate(4.125)"><path d="M157.249,54.581a1.131,1.131,0,1,1-1.131-1.137A1.133,1.133,0,0,1,157.249,54.581Z" transform="translate(-154.987 -53.444)" fill="#e0e0e0"/></g><g transform="translate(8.249)"><path d="M160.317,54.581a1.132,1.132,0,1,1-1.131-1.137A1.134,1.134,0,0,1,160.317,54.581Z" transform="translate(-158.053 -53.444)" fill="#e0e0e0"/></g></g><g transform="translate(165.642 80.628)"><path d="M174.58,78.7c0,3.641-2.638,5.841-6.987,5.841H163v5.4H161.19v-17.1h6.4C171.942,72.831,174.58,75.03,174.58,78.7Zm-1.808,0c0-2.737-1.808-4.3-5.229-4.3H163v8.552h4.545C170.964,82.947,172.772,81.384,172.772,78.7Z" transform="translate(-161.19 -72.831)" fill="#e0e0e0"/><g transform="translate(17.293)"><path d="M188.343,72.831v17.1h-1.785V82.043h-10.7v7.893h-1.808v-17.1h1.808v7.624h10.7V72.831Z" transform="translate(-174.047 -72.831)" fill="#e0e0e0"/></g><g transform="translate(37.152)"><path d="M202.2,78.7c0,3.641-2.639,5.841-6.987,5.841h-4.595v5.4h-1.809v-17.1h6.4C199.564,72.831,202.2,75.03,202.2,78.7Zm-1.808,0c0-2.737-1.808-4.3-5.229-4.3h-4.545v8.552h4.545C198.588,82.947,200.4,81.384,200.4,78.7Z" transform="translate(-188.812 -72.831)" fill="#e0e0e0"/></g></g></g><g transform="translate(966.122 1892.892)"><path d="M316.708,69.792c0-3.6,1.89-5.753,4.509-5.753s4.524,2.149,4.524,5.753-1.906,5.753-4.524,5.753S316.708,73.395,316.708,69.792Zm7.838,0c0-3.022-1.358-4.686-3.329-4.686s-3.33,1.664-3.33,4.686,1.358,4.686,3.33,4.686S324.546,72.814,324.546,69.792Z" fill="#e0e0e0"/><path d="M327.4,69.792c0-3.6,1.891-5.753,4.509-5.753s4.524,2.149,4.524,5.753-1.906,5.753-4.524,5.753S327.4,73.395,327.4,69.792Zm7.838,0c0-3.022-1.357-4.686-3.329-4.686s-3.329,1.664-3.329,4.686,1.357,4.686,3.329,4.686S335.238,72.814,335.238,69.792Z" fill="#e0e0e0"/><path d="M341.2,64.136V75.448h-1.164V65.17h-2.666V64.136Z" fill="#e0e0e0"/><path d="M343.891,69.792c0-3.6,1.891-5.753,4.509-5.753s4.525,2.149,4.525,5.753-1.907,5.753-4.525,5.753S343.891,73.395,343.891,69.792Zm7.838,0c0-3.022-1.357-4.686-3.329-4.686s-3.329,1.664-3.329,4.686,1.357,4.686,3.329,4.686S351.729,72.814,351.729,69.792Z" fill="#e0e0e0"/><path d="M357.687,64.136V75.448h-1.164V65.17h-2.666V64.136Z" fill="#e0e0e0"/><path d="M305.576,85.838c0-3.6,1.891-5.753,4.509-5.753s4.524,2.149,4.524,5.753-1.906,5.753-4.524,5.753S305.576,89.441,305.576,85.838Zm7.838,0c0-3.022-1.358-4.686-3.329-4.686s-3.329,1.664-3.329,4.686,1.357,4.686,3.329,4.686S313.414,88.86,313.414,85.838Z" fill="#e0e0e0"/><path d="M316.268,85.838c0-3.6,1.891-5.753,4.509-5.753s4.524,2.149,4.524,5.753-1.906,5.753-4.524,5.753S316.268,89.441,316.268,85.838Zm7.838,0c0-3.022-1.357-4.686-3.329-4.686s-3.329,1.664-3.329,4.686,1.357,4.686,3.329,4.686S324.106,88.86,324.106,85.838Z" fill="#e0e0e0"/><path d="M330.064,80.182V91.494H328.9V81.216h-2.666V80.182Z" fill="#e0e0e0"/><path d="M332.759,85.838c0-3.6,1.891-5.753,4.509-5.753s4.525,2.149,4.525,5.753-1.907,5.753-4.525,5.753S332.759,89.441,332.759,85.838Zm7.838,0c0-3.022-1.357-4.686-3.329-4.686s-3.329,1.664-3.329,4.686,1.358,4.686,3.329,4.686S340.6,88.86,340.6,85.838Z" fill="#e0e0e0"/><path d="M346.555,80.182V91.494h-1.164V81.216h-2.666V80.182Z" fill="#e0e0e0"/><path d="M352.386,80.182V91.494h-1.164V81.216h-2.666V80.182Z" fill="#e0e0e0"/><path d="M355.081,85.838c0-3.6,1.89-5.753,4.509-5.753s4.524,2.149,4.524,5.753-1.906,5.753-4.524,5.753S355.081,89.441,355.081,85.838Zm7.838,0c0-3.022-1.358-4.686-3.329-4.686s-3.33,1.664-3.33,4.686,1.358,4.686,3.33,4.686S362.919,88.86,362.919,85.838Z" fill="#e0e0e0"/><path d="M368.878,80.182V91.494h-1.164V81.216h-2.666V80.182Z" fill="#e0e0e0"/><path d="M316.71,101.355c0-3.6,1.89-5.752,4.508-5.752s4.525,2.149,4.525,5.752-1.906,5.753-4.525,5.753S316.71,104.959,316.71,101.355Zm7.838,0c0-3.021-1.358-4.686-3.33-4.686s-3.329,1.665-3.329,4.686,1.358,4.686,3.329,4.686S324.548,104.377,324.548,101.355Z" fill="#e0e0e0"/><path d="M330.506,95.7v11.311h-1.164V96.734h-2.666V95.7Z" fill="#e0e0e0"/><path d="M336.337,95.7v11.311h-1.164V96.734h-2.666V95.7Z" fill="#e0e0e0"/><path d="M342.168,95.7v11.311H341V96.734h-2.666V95.7Z" fill="#e0e0e0"/><path d="M344.862,101.355c0-3.6,1.891-5.752,4.509-5.752s4.524,2.149,4.524,5.752-1.906,5.753-4.524,5.753S344.862,104.959,344.862,101.355Zm7.838,0c0-3.021-1.358-4.686-3.329-4.686s-3.329,1.665-3.329,4.686,1.357,4.686,3.329,4.686S352.7,104.377,352.7,101.355Z" fill="#e0e0e0"/><path d="M358.658,95.7v11.311h-1.164V96.734h-2.666V95.7Z" fill="#e0e0e0"/></g><g transform="translate(622.133 1809.373)"><g transform="translate(369.617 345.627)"><g transform="translate(0 90.546)"><path d="M406.168,397.1c-6.965-3.594-15.165-4.061-22.9-2.783-4.154.686-8.484,1.93-11.311,5.051s-3.362,8.611-.117,11.292c1.932,1.594,4.627,1.837,7.131,1.809,6.053-.072,12.77-1.136,17.606,2.5,2.759,2.079,4.595,5.533,7.894,6.555,3.226,1,6.867-.9,8.579-3.818s1.77-6.553.971-9.836A15.009,15.009,0,0,0,406.168,397.1Z" transform="translate(-369.617 -393.673)" fill="#ebebeb"/></g><g transform="translate(24.064)"><path d="M410.83,408.8c-4.259,6.081-12.536,4.069-16.375.356s-5.46-9.095-6.935-14.227c-3.373-11.724-6.775-24.023-4.267-35.963a19.991,19.991,0,0,1,4.593-9.777c2.508-2.648,6.364-4.223,9.892-3.29,4.172,1.1,6.767,5.19,8.641,9.078a85.71,85.71,0,0,1,8.471,36.79c.021,5.925-.677,12.14-4.02,17.033" transform="translate(-382.386 -345.627)" fill="#ebebeb"/></g><g transform="translate(59.709 19.571)"><path d="M405.793,408.339c-4.623-5.488-5.5-13.492-3.443-20.367s6.707-12.725,12.063-17.5a64.977,64.977,0,0,1,21.6-12.745,23.055,23.055,0,0,1,9.715-1.651c3.3.315,6.617,2,8.153,4.934,2.275,4.334.094,9.594-2.263,13.885a164.548,164.548,0,0,1-14.187,21.6c-4.253,5.482-9.125,10.891-15.606,13.369s-13.213,2.186-16.648-2.309" transform="translate(-401.3 -356.012)" fill="#ebebeb"/></g><g transform="translate(21.009 98.992)"><path d="M412.552,454.088a13.176,13.176,0,0,1-.386-2.765c-.2-2.011-.441-4.536-.733-7.542a109.23,109.23,0,0,0-1.7-11.064,85.426,85.426,0,0,0-4.02-13.058,48.106,48.106,0,0,0-6.669-11.814,24.883,24.883,0,0,0-8.43-7.009,23.527,23.527,0,0,0-7.1-2.211,13.107,13.107,0,0,1-2.751-.4,13,13,0,0,1,2.8-.043,21.517,21.517,0,0,1,7.4,1.928,24.842,24.842,0,0,1,8.893,7.069,47.073,47.073,0,0,1,6.911,12.052,79.877,79.877,0,0,1,3.993,13.273,93.562,93.562,0,0,1,1.47,11.2c.239,3.2.33,5.8.375,7.589A13.01,13.01,0,0,1,412.552,454.088Z" transform="translate(-380.765 -398.154)" fill="#e0e0e0"/></g><g transform="translate(38.145 24.44)"><path d="M403.988,483.276a5.394,5.394,0,0,1-.073-1.281c0-.965.006-2.179.009-3.667.008-3.183.008-7.789-.164-13.477-.281-11.375-1.261-23.617-3.153-40.876-1.79-16.23-4.2-35.117-6.734-47.4-.543-2.793-1.091-5.307-1.608-7.506-.492-2.2-.912-4.108-1.317-5.646-.349-1.447-.631-2.629-.858-3.566a5.53,5.53,0,0,1-.224-1.265,5.428,5.428,0,0,1,.447,1.2c.279.923.631,2.086,1.065,3.515.471,1.525.956,3.413,1.508,5.61.577,2.192,1.182,4.7,1.777,7.487a416.047,416.047,0,0,1,7.078,43.978c1.9,17.3,2.75,33.044,2.825,44.447.068,5.7-.053,10.318-.2,13.5-.091,1.491-.164,2.7-.222,3.665A5.37,5.37,0,0,1,403.988,483.276Z" transform="translate(-389.858 -358.595)" fill="#e0e0e0"/></g><g transform="translate(52.148 33.727)"><path d="M397.34,448.543a24.31,24.31,0,0,1,.026-3.829c.141-2.463.479-6.021,1.172-10.38a136.558,136.558,0,0,1,3.377-15.122,123.735,123.735,0,0,1,6.323-17.894c5.245-12.444,12.372-22.617,18.571-28.917a46.869,46.869,0,0,1,4.37-4.061c.669-.567,1.263-1.133,1.866-1.579q.91-.628,1.694-1.168a24.286,24.286,0,0,1,3.226-2.065c.183.249-4.57,3.045-10.572,9.432-5.978,6.37-12.905,16.473-18.107,28.811a141.449,141.449,0,0,0-6.36,17.73c-1.658,5.556-2.759,10.667-3.592,14.971-.792,4.316-1.25,7.838-1.525,10.278A24.927,24.927,0,0,1,397.34,448.543Z" transform="translate(-397.288 -363.523)" fill="#e0e0e0"/></g></g><g transform="translate(391.521 517.953)"><path d="M440.893,437.068l-3.044,41.7H384.284l-3.044-41.7Z" transform="translate(-381.24 -437.068)" fill="#e0e0e0"/></g><g transform="translate(385.13 501.518)"><rect width="71.218" height="16.435" fill="#e0e0e0"/></g><g transform="translate(386.307 558.053)"><path d="M448.514,458.346V462.9H378.473v-4.556Z" transform="translate(-378.473 -458.346)" fill="#ebebeb"/></g><g transform="translate(388.858 562.609)"><path d="M440.69,468.781l3.28-8.018H379.827l3.827,8.018Z" transform="translate(-379.827 -460.763)" fill="#e0e0e0"/></g><g transform="translate(392.515 525.722)"><path d="M381.769,447.047a1.661,1.661,0,0,0,.249.385c.213.281.477.631.8,1.061l3.121,3.993.138.177.136-.185c1.96-2.714,4.581-6.338,7.666-10.6h-.441c2.28,3.228,4.819,6.824,7.548,10.686l.236.335.266-.315c2.785-3.313,5.81-6.913,8.95-10.65l-.515-.008c.155.2.322.407.492.62l8,10.033.268.336.245-.349,7.551-10.686-.439.021c3.722,4.24,6.879,7.836,9.3,10.6l.166.188.126-.213c1.225-2.06,2.2-3.7,2.912-4.892l.746-1.3a2.08,2.08,0,0,0,.228-.464,2.141,2.141,0,0,0-.311.413c-.217.33-.49.742-.827,1.253-.744,1.168-1.77,2.782-3.057,4.8l.29-.025c-2.382-2.793-5.488-6.434-9.15-10.725l-.232-.271-.207.292c-2.316,3.234-4.879,6.809-7.619,10.636l.513-.013c-2.535-3.191-5.216-6.564-7.985-10.05-.17-.211-.337-.422-.494-.618l-.254-.32-.262.315c-3.132,3.743-6.147,7.35-8.925,10.67l.5.019c-2.755-3.841-5.32-7.419-7.623-10.633l-.224-.311-.217.311c-3.021,4.312-5.586,7.975-7.5,10.718l.271-.008c-1.366-1.64-2.454-2.944-3.245-3.892-.352-.409-.639-.739-.871-1.006A1.811,1.811,0,0,0,381.769,447.047Z" transform="translate(-381.767 -441.19)" fill="#f5f5f5"/></g><g transform="translate(390.777 517.345)"><path d="M380.845,437.079c0,.183,13.422.334,29.974.334s29.978-.151,29.978-.334-13.42-.334-29.978-.334S380.845,436.894,380.845,437.079Z" transform="translate(-380.845 -436.745)" fill="#f5f5f5"/></g><g transform="translate(388.07 562.726)"><path d="M379.409,461.159c0,.183,14.586.334,32.577.334s32.578-.151,32.578-.334-14.583-.334-32.578-.334S379.409,460.974,379.409,461.159Z" transform="translate(-379.409 -460.825)" fill="#f5f5f5"/></g></g><g transform="translate(826.862 1734.986)"><g transform="translate(207.138 285.11)"><g transform="translate(1.054)"><rect width="119.387" height="95.808" fill="#ebebeb"/></g><g transform="translate(0 13.626)"><path d="M207.138,292.954c0,.327,15.322.59,52.738.59s67.762-.263,67.762-.59-30.333-.59-67.762-.59S207.138,292.627,207.138,292.954Z" transform="translate(-207.138 -292.364)" fill="#fafafa"/></g><g transform="translate(96.28 5.635)"><g transform="translate(13.192)"><path d="M265.417,289.7a1.825,1.825,0,1,0,1.809-1.589A1.71,1.71,0,0,0,265.417,289.7Z" transform="translate(-265.417 -288.11)" fill="#fff"/></g><g transform="translate(6.595)"><path d="M261.9,289.7a1.825,1.825,0,1,0,1.811-1.589A1.712,1.712,0,0,0,261.9,289.7Z" transform="translate(-261.905 -288.11)" fill="#fff"/></g><path d="M258.394,289.7a1.825,1.825,0,1,0,1.809-1.589A1.71,1.71,0,0,0,258.394,289.7Z" transform="translate(-258.394 -288.11)" fill="#fff"/></g></g><g transform="translate(233.665 322.234)"><path d="M238.434,336.107a7.722,7.722,0,0,0-1.187-1.349c-.934-.937-2.085-2.1-3.447-3.464-2.934-2.9-7.023-6.862-11.577-11.2l-.1-.1,0,.586c4.587-4.26,8.7-8.147,11.656-10.985q2.054-2.009,3.466-3.392a7.582,7.582,0,0,0,1.2-1.324,7.707,7.707,0,0,0-1.407,1.1c-.986.868-2.2,1.94-3.639,3.2-3.049,2.735-7.228,6.552-11.815,10.812l-.314.291.31.295.1.1c4.551,4.341,8.7,8.241,11.738,11.034l3.622,3.278A7.642,7.642,0,0,0,238.434,336.107Z" transform="translate(-221.26 -304.873)" fill="#fff"/></g><g transform="translate(286.241 322.234)"><path d="M249.252,304.876a7.723,7.723,0,0,0,1.187,1.349q1.4,1.409,3.447,3.464c2.932,2.9,7.023,6.862,11.577,11.2l.1.1,0-.586c-4.587,4.26-8.7,8.147-11.656,10.985l-3.466,3.394a7.616,7.616,0,0,0-1.2,1.322,7.713,7.713,0,0,0,1.407-1.1l3.638-3.2c3.049-2.733,7.228-6.552,11.815-10.812l.314-.291-.31-.295-.1-.1c-4.551-4.341-8.7-8.241-11.738-11.032q-2.144-1.944-3.622-3.278A7.722,7.722,0,0,0,249.252,304.876Z" transform="translate(-249.25 -304.874)" fill="#fff"/></g><g transform="translate(259.8 314.448)"><path d="M252.529,347.1c.207-.077-3.509-10.523-8.3-23.326s-8.842-23.127-9.048-23.048,3.509,10.521,8.3,23.33S252.322,347.182,252.529,347.1Z" transform="translate(-235.174 -300.729)" fill="#fff"/></g></g><g transform="translate(884.795 1859.564)"><g transform="translate(390.21 212.605)"><path d="M386.5,203.8c0,.136,19.315.246,43.135.246s43.139-.109,43.139-.246-19.31-.246-43.139-.246S386.5,203.664,386.5,203.8Z" transform="translate(-386.5 -203.555)" fill="#e0e0e0"/><g transform="translate(0 7.647)"><path d="M386.5,208.9c0,.135,19.315.246,43.135.246s43.139-.111,43.139-.246-19.31-.246-43.139-.246S386.5,208.764,386.5,208.9Z" transform="translate(-386.5 -208.655)" fill="#e0e0e0"/></g><g transform="translate(30.735 15.292)"><path d="M407,214a2.536,2.536,0,0,0,.564.049l1.619.045,5.951.079,19.634.072,19.639-.072,5.951-.079,1.618-.045a2.519,2.519,0,0,0,.564-.049,2.344,2.344,0,0,0-.564-.051l-1.618-.045-5.951-.079-19.639-.072-19.634.072-5.951.079-1.619.045A2.359,2.359,0,0,0,407,214Z" transform="translate(-406.999 -213.754)" fill="#e0e0e0"/></g></g><g transform="translate(379.07 185.432)"><g transform="translate(0.37 62.283)"><path d="M382.088,227.332c0-.2-.621-.36-1.385-.36s-1.385.16-1.385.36.619.361,1.385.361S382.088,227.531,382.088,227.332Z" transform="translate(-379.317 -226.972)" fill="#e0e0e0"/></g><g transform="translate(5.91 62.283)"><path d="M385.783,227.332c0-.2-.619-.36-1.385-.36s-1.385.16-1.385.36.621.361,1.385.361S385.783,227.531,385.783,227.332Z" transform="translate(-383.012 -226.972)" fill="#e0e0e0"/></g><g transform="translate(11.452 62.283)"><path d="M389.479,227.332c0-.2-.619-.36-1.385-.36s-1.385.16-1.385.36.621.361,1.385.361S389.479,227.531,389.479,227.332Z" transform="translate(-386.708 -226.972)" fill="#e0e0e0"/></g><g transform="translate(16.994 62.283)"><path d="M393.175,227.332c0-.2-.621-.36-1.385-.36s-1.385.16-1.385.36.621.361,1.385.361S393.175,227.531,393.175,227.332Z" transform="translate(-390.404 -226.972)" fill="#e0e0e0"/></g><g transform="translate(22.535 62.283)"><path d="M396.871,227.332c0-.2-.621-.36-1.385-.36s-1.385.16-1.385.36.621.361,1.385.361S396.871,227.531,396.871,227.332Z" transform="translate(-394.1 -226.972)" fill="#e0e0e0"/></g><g transform="translate(28.077 62.283)"><path d="M400.567,227.332c0-.2-.621-.36-1.385-.36s-1.385.16-1.385.36.619.361,1.385.361S400.567,227.531,400.567,227.332Z" transform="translate(-397.796 -226.972)" fill="#e0e0e0"/></g><g transform="translate(33.619 62.283)"><path d="M404.263,227.332c0-.2-.621-.36-1.385-.36s-1.385.16-1.385.36.619.361,1.385.361S404.263,227.531,404.263,227.332Z" transform="translate(-401.492 -226.972)" fill="#e0e0e0"/></g><g transform="translate(39.16 62.283)"><path d="M407.957,227.332c0-.2-.619-.36-1.384-.36s-1.385.16-1.385.36.619.361,1.385.361S407.957,227.531,407.957,227.332Z" transform="translate(-405.188 -226.972)" fill="#e0e0e0"/></g><g transform="translate(44.7 62.283)"><path d="M411.654,227.332c0-.2-.619-.36-1.385-.36s-1.385.16-1.385.36.621.361,1.385.361S411.654,227.531,411.654,227.332Z" transform="translate(-408.883 -226.972)" fill="#e0e0e0"/></g><g transform="translate(50.242 62.283)"><path d="M415.35,227.332c0-.2-.621-.36-1.385-.36s-1.385.16-1.385.36.621.361,1.385.361S415.35,227.531,415.35,227.332Z" transform="translate(-412.579 -226.972)" fill="#e0e0e0"/></g><g transform="translate(55.783 62.283)"><path d="M419.046,227.332c0-.2-.621-.36-1.385-.36s-1.385.16-1.385.36.621.361,1.385.361S419.046,227.531,419.046,227.332Z" transform="translate(-416.275 -226.972)" fill="#e0e0e0"/></g><g transform="translate(61.325 62.283)"><path d="M422.742,227.332c0-.2-.621-.36-1.385-.36s-1.385.16-1.385.36.621.361,1.385.361S422.742,227.531,422.742,227.332Z" transform="translate(-419.971 -226.972)" fill="#e0e0e0"/></g><g transform="translate(66.867 62.283)"><path d="M426.438,227.332c0-.2-.621-.36-1.385-.36s-1.385.16-1.385.36.619.361,1.385.361S426.438,227.531,426.438,227.332Z" transform="translate(-423.667 -226.972)" fill="#e0e0e0"/></g><g transform="translate(72.408 62.283)"><path d="M430.134,227.332c0-.2-.621-.36-1.385-.36s-1.385.16-1.385.36.619.361,1.385.361S430.134,227.531,430.134,227.332Z" transform="translate(-427.363 -226.972)" fill="#e0e0e0"/></g><g transform="translate(77.948 62.283)"><path d="M433.829,227.332c0-.2-.619-.36-1.384-.36s-1.387.16-1.387.36.621.361,1.387.361S433.829,227.531,433.829,227.332Z" transform="translate(-431.058 -226.972)" fill="#e0e0e0"/></g><g transform="translate(83.49 62.283)"><path d="M437.525,227.332c0-.2-.619-.36-1.385-.36s-1.385.16-1.385.36.621.361,1.385.361S437.525,227.531,437.525,227.332Z" transform="translate(-434.754 -226.972)" fill="#e0e0e0"/></g><g transform="translate(89.032 62.283)"><path d="M441.221,227.332c0-.2-.621-.36-1.385-.36s-1.385.16-1.385.36.621.361,1.385.361S441.221,227.531,441.221,227.332Z" transform="translate(-438.45 -226.972)" fill="#e0e0e0"/></g><g transform="translate(94.573 62.283)"><path d="M444.917,227.332c0-.2-.621-.36-1.385-.36s-1.385.16-1.385.36.621.361,1.385.361S444.917,227.531,444.917,227.332Z" transform="translate(-442.146 -226.972)" fill="#e0e0e0"/></g><g transform="translate(100.115 62.283)"><path d="M448.613,227.332c0-.2-.621-.36-1.385-.36s-1.385.16-1.385.36.621.361,1.385.361S448.613,227.531,448.613,227.332Z" transform="translate(-445.842 -226.972)" fill="#e0e0e0"/></g><g transform="translate(105.656 62.283)"><path d="M452.309,227.332c0-.2-.621-.36-1.385-.36s-1.385.16-1.385.36.619.361,1.385.361S452.309,227.531,452.309,227.332Z" transform="translate(-449.538 -226.972)" fill="#e0e0e0"/></g><g transform="translate(111.198 62.283)"><path d="M456,227.332c0-.2-.619-.36-1.384-.36s-1.385.16-1.385.36.619.361,1.385.361S456,227.531,456,227.332Z" transform="translate(-453.234 -226.972)" fill="#e0e0e0"/></g><g transform="translate(116.738 62.283)"><path d="M459.7,227.332c0-.2-.619-.36-1.385-.36s-1.385.16-1.385.36.621.361,1.385.361S459.7,227.531,459.7,227.332Z" transform="translate(-456.929 -226.972)" fill="#e0e0e0"/></g><g transform="translate(122.28 62.283)"><path d="M463.4,227.332c0-.2-.619-.36-1.385-.36s-1.385.16-1.385.36.621.361,1.385.361S463.4,227.531,463.4,227.332Z" transform="translate(-460.625 -226.972)" fill="#e0e0e0"/></g><g transform="translate(127.821 62.283)"><path d="M467.092,227.332c0-.2-.621-.36-1.385-.36s-1.385.16-1.385.36.621.361,1.385.361S467.092,227.531,467.092,227.332Z" transform="translate(-464.321 -226.972)" fill="#e0e0e0"/></g><g transform="translate(133.363 62.283)"><path d="M470.788,227.332c0-.2-.621-.36-1.385-.36s-1.385.16-1.385.36.621.361,1.385.361S470.788,227.531,470.788,227.332Z" transform="translate(-468.017 -226.972)" fill="#e0e0e0"/></g><g transform="translate(138.905 62.283)"><path d="M474.484,227.332c0-.2-.621-.36-1.385-.36s-1.385.16-1.385.36.619.361,1.385.361S474.484,227.531,474.484,227.332Z" transform="translate(-471.713 -226.972)" fill="#e0e0e0"/></g><g transform="translate(144.446 62.283)"><path d="M478.18,227.332c0-.2-.621-.36-1.385-.36s-1.385.16-1.385.36.619.361,1.385.361S478.18,227.531,478.18,227.332Z" transform="translate(-475.409 -226.972)" fill="#e0e0e0"/></g><g transform="translate(149.986 62.283)"><path d="M481.875,227.332c0-.2-.619-.36-1.384-.36s-1.387.16-1.387.36.621.361,1.387.361S481.875,227.531,481.875,227.332Z" transform="translate(-479.104 -226.972)" fill="#e0e0e0"/></g><g transform="translate(155.414 60.118)"><path d="M483.084,225.528c-.2,0-.36.621-.36,1.385a3.512,3.512,0,0,0,.156,1.14l.2-.2c-.154.057-.246.127-.246.2s.091.147.246.205l.112.042.093-.247a3.512,3.512,0,0,0,.156-1.14C483.445,226.149,483.283,225.528,483.084,225.528Z" transform="translate(-482.724 -225.528)" fill="#e0e0e0"/></g><g transform="translate(155.414 54.576)"><path d="M483.084,221.832c-.2,0-.36.621-.36,1.385s.16,1.385.36,1.385.361-.619.361-1.385S483.283,221.832,483.084,221.832Z" transform="translate(-482.724 -221.832)" fill="#e0e0e0"/></g><g transform="translate(155.414 49.036)"><path d="M483.084,218.137c-.2,0-.36.619-.36,1.384s.16,1.385.36,1.385.361-.619.361-1.385S483.283,218.137,483.084,218.137Z" transform="translate(-482.724 -218.137)" fill="#e0e0e0"/></g><g transform="translate(155.414 43.495)"><path d="M483.084,214.441c-.2,0-.36.619-.36,1.385s.16,1.385.36,1.385.361-.621.361-1.385S483.283,214.441,483.084,214.441Z" transform="translate(-482.724 -214.441)" fill="#e0e0e0"/></g><g transform="translate(155.414 37.953)"><path d="M483.084,210.745c-.2,0-.36.621-.36,1.385s.16,1.385.36,1.385.361-.621.361-1.385S483.283,210.745,483.084,210.745Z" transform="translate(-482.724 -210.745)" fill="#e0e0e0"/></g><g transform="translate(155.414 32.412)"><path d="M483.084,207.049c-.2,0-.36.621-.36,1.385s.16,1.385.36,1.385.361-.621.361-1.385S483.283,207.049,483.084,207.049Z" transform="translate(-482.724 -207.049)" fill="#e0e0e0"/></g><g transform="translate(155.414 26.87)"><path d="M483.084,203.353c-.2,0-.36.621-.36,1.385s.16,1.385.36,1.385.361-.621.361-1.385S483.283,203.353,483.084,203.353Z" transform="translate(-482.724 -203.353)" fill="#e0e0e0"/></g><g transform="translate(155.414 21.328)"><path d="M483.084,199.657c-.2,0-.36.621-.36,1.385s.16,1.385.36,1.385.361-.619.361-1.385S483.283,199.657,483.084,199.657Z" transform="translate(-482.724 -199.657)" fill="#e0e0e0"/></g><g transform="translate(155.414 15.787)"><path d="M483.084,195.961c-.2,0-.36.621-.36,1.385s.16,1.385.36,1.385.361-.619.361-1.385S483.283,195.961,483.084,195.961Z" transform="translate(-482.724 -195.961)" fill="#e0e0e0"/></g><g transform="translate(155.414 10.247)"><path d="M483.084,192.266c-.2,0-.36.619-.36,1.385s.16,1.385.36,1.385.361-.621.361-1.385S483.283,192.266,483.084,192.266Z" transform="translate(-482.724 -192.266)" fill="#e0e0e0"/></g><g transform="translate(155.414 4.705)"><path d="M483.084,188.57c-.2,0-.36.619-.36,1.385s.16,1.385.36,1.385.361-.621.361-1.385S483.283,188.57,483.084,188.57Z" transform="translate(-482.724 -188.57)" fill="#e0e0e0"/></g><g transform="translate(154.567)"><path d="M482.159,185.8c0,.183.526.334,1.207.357l-.357-.357,0,.178c0,.765.16,1.385.36,1.385s.361-.621.361-1.385l0-.178-.006-.37-.352.012C482.685,185.468,482.159,185.619,482.159,185.8Z" transform="translate(-482.159 -185.432)" fill="#e0e0e0"/></g><g transform="translate(149.027 0.009)"><path d="M478.464,185.8c0,.2.619.36,1.384.36s1.387-.16,1.387-.36-.621-.361-1.387-.361S478.464,185.6,478.464,185.8Z" transform="translate(-478.464 -185.438)" fill="#e0e0e0"/></g><g transform="translate(143.485 0.009)"><path d="M474.768,185.8c0,.2.619.36,1.385.36s1.385-.16,1.385-.36-.621-.361-1.385-.361S474.768,185.6,474.768,185.8Z" transform="translate(-474.768 -185.438)" fill="#e0e0e0"/></g><g transform="translate(137.944 0.009)"><path d="M471.072,185.8c0,.2.621.36,1.385.36s1.385-.16,1.385-.36-.621-.361-1.385-.361S471.072,185.6,471.072,185.8Z" transform="translate(-471.072 -185.438)" fill="#e0e0e0"/></g><g transform="translate(132.402 0.009)"><path d="M467.376,185.8c0,.2.621.36,1.385.36s1.385-.16,1.385-.36-.621-.361-1.385-.361S467.376,185.6,467.376,185.8Z" transform="translate(-467.376 -185.438)" fill="#e0e0e0"/></g><g transform="translate(126.86 0.009)"><path d="M463.68,185.8c0,.2.621.36,1.385.36s1.385-.16,1.385-.36-.621-.361-1.385-.361S463.68,185.6,463.68,185.8Z" transform="translate(-463.68 -185.438)" fill="#e0e0e0"/></g><g transform="translate(121.319 0.009)"><path d="M459.984,185.8c0,.2.621.36,1.385.36s1.385-.16,1.385-.36-.619-.361-1.385-.361S459.984,185.6,459.984,185.8Z" transform="translate(-459.984 -185.438)" fill="#e0e0e0"/></g><g transform="translate(115.779 0.009)"><path d="M456.289,185.8c0,.2.619.36,1.384.36s1.385-.16,1.385-.36-.619-.361-1.385-.361S456.289,185.6,456.289,185.8Z" transform="translate(-456.289 -185.438)" fill="#e0e0e0"/></g><g transform="translate(110.237 0.009)"><path d="M452.593,185.8c0,.2.619.36,1.385.36s1.385-.16,1.385-.36-.621-.361-1.385-.361S452.593,185.6,452.593,185.8Z" transform="translate(-452.593 -185.438)" fill="#e0e0e0"/></g><g transform="translate(104.695 0.009)"><path d="M448.9,185.8c0,.2.621.36,1.385.36s1.385-.16,1.385-.36-.621-.361-1.385-.361S448.9,185.6,448.9,185.8Z" transform="translate(-448.897 -185.438)" fill="#e0e0e0"/></g><g transform="translate(99.154 0.009)"><path d="M445.2,185.8c0,.2.621.36,1.385.36s1.385-.16,1.385-.36-.621-.361-1.385-.361S445.2,185.6,445.2,185.8Z" transform="translate(-445.201 -185.438)" fill="#e0e0e0"/></g><g transform="translate(93.612 0.009)"><path d="M441.505,185.8c0,.2.621.36,1.385.36s1.385-.16,1.385-.36-.621-.361-1.385-.361S441.505,185.6,441.505,185.8Z" transform="translate(-441.505 -185.438)" fill="#e0e0e0"/></g><g transform="translate(88.071 0.009)"><path d="M437.809,185.8c0,.2.621.36,1.385.36s1.385-.16,1.385-.36-.619-.361-1.385-.361S437.809,185.6,437.809,185.8Z" transform="translate(-437.809 -185.438)" fill="#e0e0e0"/></g><g transform="translate(82.529 0.009)"><path d="M434.113,185.8c0,.2.621.36,1.385.36s1.385-.16,1.385-.36-.619-.361-1.385-.361S434.113,185.6,434.113,185.8Z" transform="translate(-434.113 -185.438)" fill="#e0e0e0"/></g><g transform="translate(76.989 0.009)"><path d="M430.418,185.8c0,.2.619.36,1.384.36s1.387-.16,1.387-.36-.621-.361-1.387-.361S430.418,185.6,430.418,185.8Z" transform="translate(-430.418 -185.438)" fill="#e0e0e0"/></g><g transform="translate(71.447 0.009)"><path d="M426.722,185.8c0,.2.619.36,1.385.36s1.385-.16,1.385-.36-.621-.361-1.385-.361S426.722,185.6,426.722,185.8Z" transform="translate(-426.722 -185.438)" fill="#e0e0e0"/></g><g transform="translate(65.906 0.009)"><path d="M423.026,185.8c0,.2.621.36,1.385.36s1.385-.16,1.385-.36-.621-.361-1.385-.361S423.026,185.6,423.026,185.8Z" transform="translate(-423.026 -185.438)" fill="#e0e0e0"/></g><g transform="translate(60.364 0.009)"><path d="M419.33,185.8c0,.2.621.36,1.385.36s1.385-.16,1.385-.36-.621-.361-1.385-.361S419.33,185.6,419.33,185.8Z" transform="translate(-419.33 -185.438)" fill="#e0e0e0"/></g><g transform="translate(54.822 0.009)"><path d="M415.634,185.8c0,.2.621.36,1.385.36s1.385-.16,1.385-.36-.621-.361-1.385-.361S415.634,185.6,415.634,185.8Z" transform="translate(-415.634 -185.438)" fill="#e0e0e0"/></g><g transform="translate(49.281 0.009)"><path d="M411.938,185.8c0,.2.621.36,1.385.36s1.385-.16,1.385-.36-.619-.361-1.385-.361S411.938,185.6,411.938,185.8Z" transform="translate(-411.938 -185.438)" fill="#e0e0e0"/></g><g transform="translate(43.741 0.009)"><path d="M408.243,185.8c0,.2.619.36,1.384.36s1.385-.16,1.385-.36-.619-.361-1.385-.361S408.243,185.6,408.243,185.8Z" transform="translate(-408.243 -185.438)" fill="#e0e0e0"/></g><g transform="translate(38.199 0.009)"><path d="M404.547,185.8c0,.2.619.36,1.385.36s1.385-.16,1.385-.36-.621-.361-1.385-.361S404.547,185.6,404.547,185.8Z" transform="translate(-404.547 -185.438)" fill="#e0e0e0"/></g><g transform="translate(32.657 0.009)"><path d="M400.851,185.8c0,.2.619.36,1.385.36s1.385-.16,1.385-.36-.621-.361-1.385-.361S400.851,185.6,400.851,185.8Z" transform="translate(-400.851 -185.438)" fill="#e0e0e0"/></g><g transform="translate(27.116 0.009)"><path d="M397.155,185.8c0,.2.621.36,1.385.36s1.385-.16,1.385-.36-.621-.361-1.385-.361S397.155,185.6,397.155,185.8Z" transform="translate(-397.155 -185.438)" fill="#e0e0e0"/></g><g transform="translate(21.574 0.009)"><path d="M393.459,185.8c0,.2.621.36,1.385.36s1.385-.16,1.385-.36-.621-.361-1.385-.361S393.459,185.6,393.459,185.8Z" transform="translate(-393.459 -185.438)" fill="#e0e0e0"/></g><g transform="translate(16.033 0.009)"><path d="M389.763,185.8c0,.2.621.36,1.385.36s1.385-.16,1.385-.36-.619-.361-1.385-.361S389.763,185.6,389.763,185.8Z" transform="translate(-389.763 -185.438)" fill="#e0e0e0"/></g><g transform="translate(10.491 0.009)"><path d="M386.067,185.8c0,.2.621.36,1.385.36s1.385-.16,1.385-.36-.619-.361-1.385-.361S386.067,185.6,386.067,185.8Z" transform="translate(-386.067 -185.438)" fill="#e0e0e0"/></g><g transform="translate(4.951 0.009)"><path d="M382.372,185.8c0,.2.619.36,1.384.36s1.387-.16,1.387-.36-.621-.361-1.387-.361S382.372,185.6,382.372,185.8Z" transform="translate(-382.372 -185.438)" fill="#e0e0e0"/></g><g transform="translate(0 0.009)"><path d="M379.44,186.76c.16,0,.3-.4.343-.961l-.343.343c.132.01.274.016.424.016.765,0,1.385-.16,1.385-.36s-.621-.361-1.385-.361c-.15,0-.292.006-.424.018l-.37.031.027.312C379.143,186.357,379.28,186.76,379.44,186.76Z" transform="translate(-379.07 -185.438)" fill="#e0e0e0"/></g><g transform="translate(0.009 4.102)"><path d="M379.437,190.937c.2,0,.36-.619.36-1.384s-.162-1.385-.36-1.385-.361.619-.361,1.385S379.238,190.937,379.437,190.937Z" transform="translate(-379.076 -188.168)" fill="#e0e0e0"/></g><g transform="translate(0.009 9.642)"><path d="M379.437,194.634c.2,0,.36-.619.36-1.385s-.162-1.385-.36-1.385-.361.621-.361,1.385S379.238,194.634,379.437,194.634Z" transform="translate(-379.076 -191.863)" fill="#e0e0e0"/></g><g transform="translate(0.009 15.184)"><path d="M379.437,198.33c.2,0,.36-.621.36-1.385s-.162-1.385-.36-1.385-.361.621-.361,1.385S379.238,198.33,379.437,198.33Z" transform="translate(-379.076 -195.559)" fill="#e0e0e0"/></g><g transform="translate(0.009 20.726)"><path d="M379.437,202.026c.2,0,.36-.621.36-1.385s-.162-1.385-.36-1.385-.361.621-.361,1.385S379.238,202.026,379.437,202.026Z" transform="translate(-379.076 -199.255)" fill="#e0e0e0"/></g><g transform="translate(0.009 26.267)"><path d="M379.437,205.722c.2,0,.36-.621.36-1.385s-.162-1.385-.36-1.385-.361.621-.361,1.385S379.238,205.722,379.437,205.722Z" transform="translate(-379.076 -202.951)" fill="#e0e0e0"/></g><g transform="translate(0.009 31.809)"><path d="M379.437,209.418c.2,0,.36-.621.36-1.385s-.162-1.385-.36-1.385-.361.619-.361,1.385S379.238,209.418,379.437,209.418Z" transform="translate(-379.076 -206.647)" fill="#e0e0e0"/></g><g transform="translate(0.009 37.35)"><path d="M379.437,213.114c.2,0,.36-.621.36-1.385s-.162-1.385-.36-1.385-.361.619-.361,1.385S379.238,213.114,379.437,213.114Z" transform="translate(-379.076 -210.343)" fill="#e0e0e0"/></g><g transform="translate(0.009 42.89)"><path d="M379.437,216.809c.2,0,.36-.619.36-1.384s-.162-1.387-.36-1.387-.361.621-.361,1.387S379.238,216.809,379.437,216.809Z" transform="translate(-379.076 -214.038)" fill="#e0e0e0"/></g><g transform="translate(0.009 48.432)"><path d="M379.437,220.5c.2,0,.36-.619.36-1.385s-.162-1.385-.36-1.385-.361.621-.361,1.385S379.238,220.5,379.437,220.5Z" transform="translate(-379.076 -217.734)" fill="#e0e0e0"/></g><g transform="translate(0.009 53.974)"><path d="M379.437,224.2c.2,0,.36-.621.36-1.385s-.162-1.385-.36-1.385-.361.621-.361,1.385S379.238,224.2,379.437,224.2Z" transform="translate(-379.076 -221.43)" fill="#e0e0e0"/></g><g transform="translate(0.009 59.515)"><path d="M379.437,227.9c.2,0,.36-.621.36-1.385s-.162-1.385-.36-1.385-.361.621-.361,1.385S379.238,227.9,379.437,227.9Z" transform="translate(-379.076 -225.126)" fill="#e0e0e0"/></g></g><g transform="translate(481.1 197.11)"><g transform="translate(0.597 0.598)"><g transform="translate(0 38.032)"><path d="M449.3,220.37c0-.2-.621-.361-1.385-.361l.36.36h0v0h0V220.3l0-.07-.006-.138-.02-.259a3.276,3.276,0,0,0-.078-.441c-.066-.25-.156-.4-.255-.4s-.19.154-.255.4a3.06,3.06,0,0,0-.078.441l-.021.259-.006.138v.138h0v0h0l.361.361C448.677,220.73,449.3,220.568,449.3,220.37Z" transform="translate(-447.518 -218.985)" fill="#e0e0e0"/></g><g transform="translate(4.366 39.057)"><path d="M453.018,220.029c0-.2-.579-.361-1.294-.361s-1.294.162-1.294.361.58.36,1.294.36S453.018,220.227,453.018,220.029Z" transform="translate(-450.43 -219.668)" fill="#e0e0e0"/></g><g transform="translate(9.54 39.057)"><path d="M456.469,220.029c0-.2-.579-.361-1.294-.361s-1.294.162-1.294.361.58.36,1.294.36S456.469,220.227,456.469,220.029Z" transform="translate(-453.881 -219.668)" fill="#e0e0e0"/></g><g transform="translate(14.715 39.057)"><path d="M459.92,220.029c0-.2-.579-.361-1.294-.361s-1.294.162-1.294.361.58.36,1.294.36S459.92,220.227,459.92,220.029Z" transform="translate(-457.332 -219.668)" fill="#e0e0e0"/></g><g transform="translate(19.89 39.057)"><path d="M463.37,220.029c0-.2-.579-.361-1.294-.361s-1.292.162-1.292.361.579.36,1.292.36S463.37,220.227,463.37,220.029Z" transform="translate(-460.784 -219.668)" fill="#e0e0e0"/></g><g transform="translate(25.065 39.057)"><path d="M466.821,220.029c0-.2-.579-.361-1.294-.361s-1.292.162-1.292.361.579.36,1.292.36S466.821,220.227,466.821,220.029Z" transform="translate(-464.235 -219.668)" fill="#e0e0e0"/></g><g transform="translate(30.239 39.057)"><path d="M470.272,220.029c0-.2-.579-.361-1.294-.361s-1.292.162-1.292.361.579.36,1.292.36S470.272,220.227,470.272,220.029Z" transform="translate(-467.686 -219.668)" fill="#e0e0e0"/></g><g transform="translate(35.413 39.057)"><path d="M473.723,220.029c0-.2-.579-.361-1.294-.361s-1.292.162-1.292.361.579.36,1.292.36S473.723,220.227,473.723,220.029Z" transform="translate(-471.137 -219.668)" fill="#e0e0e0"/></g><g transform="translate(40.587 38.032)"><path d="M475.973,218.985c-.2,0-.361.619-.361,1.384.721-.72.2-.2.36-.36h-.141l-.138.006-.259.021a3.285,3.285,0,0,0-.441.077c-.25.066-.4.156-.4.256s.154.189.4.255a3.291,3.291,0,0,0,.441.076l.259.021.138.006h.141c.162-.16-.36.36.361-.361C476.333,219.6,476.173,218.985,475.973,218.985Z" transform="translate(-474.588 -218.985)" fill="#e0e0e0"/></g><g transform="translate(41.611 32.455)"><path d="M475.632,215.265c-.2,0-.361.624-.361,1.394s.162,1.394.361,1.394.36-.625.36-1.394S475.832,215.265,475.632,215.265Z" transform="translate(-475.271 -215.265)" fill="#e0e0e0"/></g><g transform="translate(41.611 26.877)"><path d="M475.632,211.545c-.2,0-.361.624-.361,1.394s.162,1.394.361,1.394.36-.624.36-1.394S475.832,211.545,475.632,211.545Z" transform="translate(-475.271 -211.545)" fill="#e0e0e0"/></g><g transform="translate(41.611 21.3)"><path d="M475.632,207.825c-.2,0-.361.625-.361,1.394s.162,1.394.361,1.394.36-.624.36-1.394S475.832,207.825,475.632,207.825Z" transform="translate(-475.271 -207.825)" fill="#e0e0e0"/></g><g transform="translate(41.611 15.722)"><path d="M475.632,204.1c-.2,0-.361.625-.361,1.394s.162,1.394.361,1.394.36-.624.36-1.394S475.832,204.1,475.632,204.1Z" transform="translate(-475.271 -204.105)" fill="#e0e0e0"/></g><g transform="translate(41.611 10.146)"><path d="M475.632,200.386c-.2,0-.361.624-.361,1.393s.162,1.394.361,1.394.36-.624.36-1.394S475.832,200.386,475.632,200.386Z" transform="translate(-475.271 -200.386)" fill="#e0e0e0"/></g><g transform="translate(41.611 4.568)"><path d="M475.632,196.666c-.2,0-.361.624-.361,1.394s.162,1.394.361,1.394.36-.625.36-1.394S475.832,196.666,475.632,196.666Z" transform="translate(-475.271 -196.666)" fill="#e0e0e0"/></g><g transform="translate(40.587 0.033)"><path d="M474.588,194c0,.2.619.36,1.385.36-.721-.72-.2-.2-.361-.36h0v.069l0,.07.006.138.021.259a3.023,3.023,0,0,0,.078.441c.065.25.154.406.255.406s.189-.156.255-.406a3.029,3.029,0,0,0,.076-.441l.021-.259.006-.138V194h0c-.16-.16.36.36-.36-.361C475.207,193.641,474.588,193.8,474.588,194Z" transform="translate(-474.588 -193.641)" fill="#e0e0e0"/></g><g transform="translate(35.413 0.033)"><path d="M471.137,194c0,.2.579.36,1.292.36s1.294-.16,1.294-.36-.579-.361-1.294-.361S471.137,193.8,471.137,194Z" transform="translate(-471.137 -193.641)" fill="#e0e0e0"/></g><g transform="translate(30.239 0.033)"><path d="M467.686,194c0,.2.579.36,1.292.36s1.294-.16,1.294-.36-.579-.361-1.294-.361S467.686,193.8,467.686,194Z" transform="translate(-467.686 -193.641)" fill="#e0e0e0"/></g><g transform="translate(25.065 0.033)"><path d="M464.235,194c0,.2.579.36,1.292.36s1.294-.16,1.294-.36-.579-.361-1.294-.361S464.235,193.8,464.235,194Z" transform="translate(-464.235 -193.641)" fill="#e0e0e0"/></g><g transform="translate(19.89 0.033)"><path d="M460.784,194c0,.2.579.36,1.292.36s1.294-.16,1.294-.36-.579-.361-1.294-.361S460.784,193.8,460.784,194Z" transform="translate(-460.784 -193.641)" fill="#e0e0e0"/></g><g transform="translate(14.715 0.033)"><path d="M457.332,194c0,.2.58.36,1.294.36s1.294-.16,1.294-.36-.579-.361-1.294-.361S457.332,193.8,457.332,194Z" transform="translate(-457.332 -193.641)" fill="#e0e0e0"/></g><g transform="translate(9.54 0.033)"><path d="M453.881,194c0,.2.58.36,1.294.36s1.294-.16,1.294-.36-.579-.361-1.294-.361S453.881,193.8,453.881,194Z" transform="translate(-453.881 -193.641)" fill="#e0e0e0"/></g><g transform="translate(4.366 0.033)"><path d="M450.43,194c0,.2.58.36,1.294.36s1.294-.16,1.294-.36-.579-.361-1.294-.361S450.43,193.8,450.43,194Z" transform="translate(-450.43 -193.641)" fill="#e0e0e0"/></g><g transform="translate(0.033)"><path d="M447.9,195.4c.2,0,.36-.621.36-1.385-.72.721-.2.2-.36.36h.141l.138,0,.259-.021a3.231,3.231,0,0,0,.441-.078c.25-.066.406-.156.406-.255s-.156-.19-.406-.255a3.012,3.012,0,0,0-.441-.078l-.259-.021-.138-.006H447.9c-.16.162.36-.36-.361.361C447.54,194.778,447.7,195.4,447.9,195.4Z" transform="translate(-447.54 -193.619)" fill="#e0e0e0"/></g><g transform="translate(0.033 4.568)"><path d="M447.9,199.455c.2,0,.36-.625.36-1.394s-.16-1.394-.36-1.394-.361.624-.361,1.394S447.7,199.455,447.9,199.455Z" transform="translate(-447.54 -196.666)" fill="#e0e0e0"/></g><g transform="translate(0.033 10.146)"><path d="M447.9,203.173c.2,0,.36-.624.36-1.393s-.16-1.394-.36-1.394-.361.624-.361,1.394S447.7,203.173,447.9,203.173Z" transform="translate(-447.54 -200.386)" fill="#e0e0e0"/></g><g transform="translate(0.033 15.722)"><path d="M447.9,206.894c.2,0,.36-.624.36-1.394s-.16-1.394-.36-1.394-.361.625-.361,1.394S447.7,206.894,447.9,206.894Z" transform="translate(-447.54 -204.105)" fill="#e0e0e0"/></g><g transform="translate(0.033 21.3)"><path d="M447.9,210.614c.2,0,.36-.624.36-1.394s-.16-1.394-.36-1.394-.361.624-.361,1.394S447.7,210.614,447.9,210.614Z" transform="translate(-447.54 -207.825)" fill="#e0e0e0"/></g><g transform="translate(0.033 26.877)"><path d="M447.9,214.334c.2,0,.36-.625.36-1.394s-.16-1.394-.36-1.394-.361.624-.361,1.394S447.7,214.334,447.9,214.334Z" transform="translate(-447.54 -211.545)" fill="#e0e0e0"/></g><g transform="translate(0.033 32.455)"><path d="M447.9,218.054c.2,0,.36-.625.36-1.394s-.16-1.394-.36-1.394-.361.624-.361,1.394S447.7,218.054,447.9,218.054Z" transform="translate(-447.54 -215.265)" fill="#e0e0e0"/></g></g><g transform="translate(41.578 39.023)"><rect width="1.983" height="1.983" transform="translate(1.983 1.983) rotate(-180)" fill="#e0e0e0"/></g><g transform="translate(41.578)"><rect width="1.983" height="1.983" transform="translate(1.983 1.983) rotate(-180)" fill="#e0e0e0"/></g><rect width="1.983" height="1.983" transform="translate(1.983 1.983) rotate(-180)" fill="#e0e0e0"/><g transform="translate(0 38.032)"><rect width="1.983" height="1.983" transform="translate(1.983 1.983) rotate(-180)" fill="#e0e0e0"/></g><g transform="translate(21.781 39.023)"><rect width="1.983" height="1.983" transform="translate(1.983 1.983) rotate(-180)" fill="#e0e0e0"/></g><g transform="translate(20.789)"><rect width="1.983" height="1.983" transform="translate(1.983 1.983) rotate(-180)" fill="#e0e0e0"/></g><g transform="translate(41.578 20.503)"><rect width="1.983" height="1.983" transform="translate(1.983 1.983) rotate(-180)" fill="#e0e0e0"/></g><g transform="translate(0.991 19.512)"><rect width="1.983" height="1.983" transform="translate(1.983 1.983) rotate(-180)" fill="#e0e0e0"/></g></g></g><g transform="translate(821.2 1677.679)"><g transform="translate(93.8 157.772)"><g transform="translate(0.257)"><g transform="translate(0.253 0.318)"><rect width="111.324" height="73.46" fill="#fafafa"/></g><path d="M117.988,192.549s.018-.465.028-1.344c.006-.895.016-2.192.028-3.882.015-3.411.037-8.394.065-14.776.032-12.762.077-31.093.133-53.457l-.253.252,111.315.065h.01L229,119.09c.01,26.137.018,51,.027,73.459l.291-.291-80.148.144-22.937.078-6.111.035-1.582.017c-.357.006-.547.017-.547.017s.168.012.513.017l1.549.017,6.053.035,22.871.079,80.339.142h.29v-.292c.007-22.455.016-47.323.026-73.459v-.318H229.3l-111.315.065h-.253v.252c.055,22.43.1,40.814.133,53.614.028,6.356.049,11.322.065,14.72q.018,2.5.028,3.833C117.97,192.121,117.988,192.549,117.988,192.549Z" transform="translate(-117.735 -118.772)" fill="#263238"/></g><g transform="translate(0 7.495)"><path d="M117.524,125.244c0,.175,24.864.317,55.53.317s55.534-.141,55.534-.317-24.859-.317-55.534-.317S117.524,125.068,117.524,125.244Z" transform="translate(-117.524 -124.927)" fill="#263238"/></g><g transform="translate(10.195 18.39)"><g transform="translate(56.483)"><rect width="35.471" height="46.761" transform="translate(35.471 46.761) rotate(-180)" fill="#b0c710"/></g><g transform="translate(0 1.863)"><path d="M125.9,135.722c0,.175,11.133.318,24.863.318s24.866-.142,24.866-.318S164.5,135.4,150.76,135.4,125.9,135.547,125.9,135.722Z" transform="translate(-125.897 -135.405)" fill="#b0c710"/></g><g transform="translate(0 7.715)"><path d="M125.9,140.528c0,.175,11.133.317,24.863.317s24.866-.141,24.866-.317-11.131-.317-24.866-.317S125.9,140.352,125.9,140.528Z" transform="translate(-125.897 -140.211)" fill="#b0c710"/></g><g transform="translate(0 13.565)"><path d="M125.9,145.334c0,.174,11.133.317,24.863.317s24.866-.142,24.866-.317-11.131-.318-24.866-.318S125.9,145.158,125.9,145.334Z" transform="translate(-125.897 -145.016)" fill="#b0c710"/></g><g transform="translate(0 19.417)"><path d="M125.9,150.139c0,.175,11.133.318,24.863.318s24.866-.142,24.866-.318-11.131-.317-24.866-.317S125.9,149.963,125.9,150.139Z" transform="translate(-125.897 -149.822)" fill="#b0c710"/></g><g transform="translate(1.539 24.582)"><rect width="19.989" height="22.179" transform="translate(19.989 22.179) rotate(-180)" fill="#b0c710"/></g><g transform="translate(24.808 25.268)"><path d="M146.271,154.945c0,.175,5.439.317,12.146.317s12.147-.141,12.147-.317-5.437-.318-12.147-.318S146.271,154.769,146.271,154.945Z" transform="translate(-146.271 -154.627)" fill="#b0c710"/></g><g transform="translate(24.808 31.12)"><path d="M146.271,159.75c0,.175,5.439.318,12.146.318s12.147-.142,12.147-.318-5.437-.317-12.147-.317S146.271,159.574,146.271,159.75Z" transform="translate(-146.271 -159.433)" fill="#b0c710"/></g><g transform="translate(24.808 37.903)"><path d="M146.271,165.32c0,.175,5.439.318,12.146.318s12.147-.142,12.147-.318S165.127,165,158.417,165,146.271,165.144,146.271,165.32Z" transform="translate(-146.271 -165.003)" fill="#b0c710"/></g><g transform="translate(25.435 44.82)"><path d="M146.786,171c0,.175,5.438.317,12.146.317s12.147-.141,12.147-.317-5.438-.317-12.147-.317S146.786,170.825,146.786,171Z" transform="translate(-146.786 -170.684)" fill="#b0c710"/></g></g></g></g><g transform="translate(1237.7 2139.451)"><g transform="translate(0 0)"><g transform="translate(0)"><g transform="translate(0.317 0.318)"><rect width="111.324" height="73.46" fill="#fafafa"/></g><path d="M229.376,192.549s-.018-.465-.028-1.344c-.006-.895-.016-2.192-.028-3.882-.015-3.411-.037-8.394-.065-14.776-.032-12.762-.077-31.093-.133-53.457l.253.252-111.315.065h-.01l.318-.317c-.01,26.137-.018,51-.027,73.459l-.291-.291,80.148.144,22.937.078,6.111.035,1.582.017c.357.006.547.017.547.017s-.168.012-.513.017l-1.549.017-6.053.035-22.871.079-80.339.142h-.29v-.292c-.007-22.455-.016-47.323-.026-73.459v-.318h.326l111.315.065h.253v.252c-.055,22.43-.1,40.814-.133,53.614-.028,6.356-.049,11.322-.065,14.72q-.018,2.5-.028,3.833C229.394,192.12,229.376,192.549,229.376,192.549Z" transform="translate(-117.735 -118.772)" fill="#263238"/></g><g transform="translate(1.087 7.495)"><path d="M228.588,125.244c0,.175-24.864.317-55.53.317s-55.534-.141-55.534-.317,24.859-.317,55.534-.317S228.588,125.068,228.588,125.244Z" transform="translate(-117.524 -124.927)" fill="#263238"/></g><g transform="translate(10.002 18.39)"><g transform="translate(0 0)"><rect width="35.471" height="46.761" transform="translate(0 0)" fill="#b0c710"/></g><g transform="translate(42.225 1.863)"><path d="M175.626,135.722c0,.175-11.133.318-24.863.318s-24.866-.142-24.866-.318,11.131-.317,24.866-.317S175.626,135.547,175.626,135.722Z" transform="translate(-125.897 -135.405)" fill="#b0c710"/></g><g transform="translate(42.225 7.715)"><path d="M175.626,140.528c0,.175-11.133.317-24.863.317s-24.866-.141-24.866-.317,11.131-.317,24.866-.317S175.626,140.352,175.626,140.528Z" transform="translate(-125.897 -140.211)" fill="#b0c710"/></g><g transform="translate(42.225 13.565)"><path d="M175.626,145.334c0,.174-11.133.317-24.863.317s-24.866-.142-24.866-.317,11.131-.318,24.866-.318S175.626,145.158,175.626,145.334Z" transform="translate(-125.897 -145.016)" fill="#b0c710"/></g><g transform="translate(42.225 19.417)"><path d="M175.626,150.139c0,.175-11.133.318-24.863.318s-24.866-.142-24.866-.318,11.131-.317,24.866-.317S175.626,149.963,175.626,150.139Z" transform="translate(-125.897 -149.822)" fill="#b0c710"/></g><g transform="translate(70.426 24.582)"><rect width="19.989" height="22.179" transform="translate(0 0)" fill="#b0c710"/></g><g transform="translate(42.852 25.268)"><g transform="translate(0)"><path d="M170.564,154.945c0,.175-5.439.317-12.146.317s-12.147-.141-12.147-.317,5.437-.318,12.147-.318S170.564,154.769,170.564,154.945Z" transform="translate(-146.271 -154.627)" fill="#b0c710"/></g></g><g transform="translate(42.852 31.12)"><g transform="translate(0)"><path d="M170.564,159.75c0,.175-5.439.318-12.146.318s-12.147-.142-12.147-.318,5.437-.317,12.147-.317S170.564,159.574,170.564,159.75Z" transform="translate(-146.271 -159.433)" fill="#b0c710"/></g></g><g transform="translate(42.852 37.902)"><g transform="translate(0)"><path d="M170.564,165.32c0,.175-5.439.318-12.146.318s-12.147-.142-12.147-.318,5.437-.317,12.147-.317S170.564,165.144,170.564,165.32Z" transform="translate(-146.271 -165.003)" fill="#b0c710"/></g></g><g transform="translate(42.225 44.82)"><path d="M171.079,171c0,.175-5.438.317-12.146.317s-12.147-.141-12.147-.317,5.438-.317,12.147-.317S171.079,170.825,171.079,171Z" transform="translate(-146.786 -170.684)" fill="#b0c710"/></g></g></g></g><g transform="translate(789.473 1724.771)"><g transform="translate(434.778 120.029)"><g transform="translate(12.627 19.881)"><path d="M356.085,161.458a4.761,4.761,0,0,0,.032-.6c.008-.432.02-.994.034-1.7.018-1.529.043-3.677.075-6.39.037-5.52.089-13.325.154-22.722l-.3.3,39.208.058c.08.077-.668-.669-.351-.349v4.217q0,2.1,0,4.158c0,2.746,0,5.443.008,8.076.009,5.266.018,10.284.028,14.961l.317-.317-28.246.158-8.05.085-2.151.037a6.567,6.567,0,0,0-.765.037,4.574,4.574,0,0,0,.692.037l2.089.037,7.979.085,28.45.158.317,0v-.318c.009-4.677.018-9.695.028-14.961,0-2.634,0-5.33.008-8.076l0-4.158v-4.217c.317.314-.432-.438-.358-.36l-39.208.06h-.3l0,.3c.063,9.473.115,17.343.152,22.906.032,2.686.058,4.812.077,6.326.014.683.025,1.226.034,1.643A3.179,3.179,0,0,0,356.085,161.458Z" transform="translate(-355.788 -129.68)" fill="#b0c710"/><g transform="translate(5.307 11.688)"><path d="M359.24,145.905a20.036,20.036,0,0,0,2.449-2.126c1.508-1.4,3.631-3.406,6.138-5.813l-.458-.017c1.869,2.135,3.984,4.553,6.223,7.113l.251.283.228.258.263-.22c1.337-1.106,2.629-2.177,3.846-3.186l-.448-.009c3.394,3.026,6.353,5.63,8.479,7.463l2.514,2.126a4.639,4.639,0,0,0,.958.706,4.515,4.515,0,0,0-.8-.881c-.652-.623-1.443-1.378-2.378-2.275-2.046-1.921-4.946-4.592-8.312-7.649l-.218-.2-.229.188c-1.223,1-2.52,2.069-3.861,3.169l.491.038-.249-.283c-2.26-2.541-4.394-4.943-6.28-7.063l-.223-.252-.235.234c-2.468,2.451-4.527,4.523-5.96,6A20.6,20.6,0,0,0,359.24,145.905Z" transform="translate(-359.238 -137.278)" fill="#b0c710"/></g><g transform="translate(25.196 7.516)"><path d="M372.829,136.572c.051.031.222-.229.618-.586a3.476,3.476,0,0,1,1.986-.872,3.239,3.239,0,0,1,2.817,1.171,3.16,3.16,0,0,1-2.96,5.124,3.247,3.247,0,0,1-2.423-1.854,3.487,3.487,0,0,1-.235-2.157c.111-.52.249-.8.2-.826-.031-.022-.257.211-.463.751a3.466,3.466,0,0,0,.04,2.426,3.709,3.709,0,0,0,2.771,2.3,3.786,3.786,0,0,0,3.574-6.19,3.707,3.707,0,0,0-3.381-1.248,3.472,3.472,0,0,0-2.12,1.178C372.884,136.243,372.8,136.555,372.829,136.572Z" transform="translate(-372.167 -134.566)" fill="#b0c710"/></g><g transform="translate(43.402 21.209)"><path d="M384.664,145.471c.051.031.221-.228.617-.585a3.486,3.486,0,0,1,1.986-.874,3.244,3.244,0,0,1,2.817,1.172,3.16,3.16,0,0,1-2.958,5.124,3.244,3.244,0,0,1-2.423-1.854,3.478,3.478,0,0,1-.237-2.157c.111-.522.249-.8.2-.828-.032-.02-.258.212-.465.752a3.475,3.475,0,0,0,.04,2.426,3.7,3.7,0,0,0,2.771,2.3,3.785,3.785,0,0,0,3.574-6.189,3.707,3.707,0,0,0-3.381-1.248,3.464,3.464,0,0,0-2.12,1.178C384.718,145.144,384.63,145.454,384.664,145.471Z" transform="translate(-384.001 -143.467)" fill="#b0c710"/></g><g transform="translate(19.679 13.929)"><path d="M368.8,157.966a2.9,2.9,0,0,0-.06.668c-.015.508-.034,1.149-.058,1.941-.025,1.781-.058,4.24-.1,7.309l0,.218.223,0c8.106.082,20.852.135,35.153.135l1.806,0h.355v-.354c-.037-11.161-.069-21.259-.1-28.887v-.262l-.258,0-10.521.115-2.863.069a5.287,5.287,0,0,0-1,.074,5.028,5.028,0,0,0,1,.075l2.863.069,10.521.115L405.5,139c-.026,7.629-.058,17.726-.1,28.887l.354-.354c-.591,0-1.2,0-1.806,0-14.3,0-27.047.054-35.153.135l.221.22c-.043-3.069-.077-5.527-.1-7.309-.025-.792-.043-1.434-.058-1.941A2.732,2.732,0,0,0,368.8,157.966Z" transform="translate(-368.58 -138.735)" fill="#b0c710"/></g><g transform="translate(41.599 29.833)"><path d="M382.834,149.081c-.128.155,2.472,2.5,5.672,5.381s5.8,5.221,5.944,5.08-2.251-2.712-5.469-5.607S382.955,148.933,382.834,149.081Z" transform="translate(-382.829 -149.073)" fill="#b0c710"/></g><g transform="translate(33.675 33.644)"><path d="M377.692,155.636c.122.148,1.186-.529,2.206-1.685s1.569-2.291,1.408-2.392-.954.817-1.938,1.921S377.564,155.482,377.692,155.636Z" transform="translate(-377.678 -151.55)" fill="#b0c710"/></g></g><path d="M347.857,197.024s.018-.5.029-1.452q.009-1.451.031-4.2c.015-3.692.04-9.09.069-16.017.035-13.853.085-33.795.146-58.244l-.275.275,133.959.078h.009l-.354-.354c.009,28.3.017,55.321.026,79.911l.328-.329-96.353.162c-11.834.037-21.217.068-27.664.089l-7.379.04-1.911.02c-.431.006-.66.018-.66.018s.2.014.621.02l1.872.02,7.313.04,27.59.089,96.57.16h.329v-.329c.008-24.591.017-51.609.026-79.911v-.355h-.365l-133.959.08h-.277l0,.275c.06,24.521.111,44.52.145,58.414.031,6.9.054,12.278.071,15.956.012,1.806.023,3.191.031,4.146C347.837,196.561,347.857,197.024,347.857,197.024Z" transform="translate(-347.58 -116.757)" fill="#b0c710"/><g transform="translate(82.588 19.068)"><g transform="translate(0 0)"><rect width="40.811" height="2.978" transform="translate(40.811 2.978) rotate(-180)" fill="#b0c710"/></g></g><g transform="translate(84.234 33.458)"><path d="M402.336,138.861c0,.2,8.9.355,19.885.355s19.886-.16,19.886-.355-8.9-.355-19.886-.355S402.336,138.666,402.336,138.861Z" transform="translate(-402.336 -138.506)" fill="#b0c710"/></g><g transform="translate(84.234 40.07)"><path d="M402.336,143.158c0,.2,8.9.355,19.885.355s19.886-.158,19.886-.355-8.9-.354-19.886-.354S402.336,142.962,402.336,143.158Z" transform="translate(-402.336 -142.804)" fill="#b0c710"/></g><g transform="translate(84.234 46.68)"><path d="M402.336,147.456c0,.2,8.9.354,19.885.354s19.886-.158,19.886-.354-8.9-.355-19.886-.355S402.336,147.259,402.336,147.456Z" transform="translate(-402.336 -147.101)" fill="#b0c710"/></g><g transform="translate(84.234 53.29)"><path d="M402.336,151.753c0,.2,8.9.354,19.885.354s19.886-.158,19.886-.354-8.9-.355-19.886-.355S402.336,151.558,402.336,151.753Z" transform="translate(-402.336 -151.398)" fill="#b0c710"/></g><g transform="translate(106.108 59.771)"><path d="M416.555,155.966c0,.2,4.007.354,8.949.354s8.949-.158,8.949-.354-4.006-.355-8.949-.355S416.555,155.769,416.555,155.966Z" transform="translate(-416.555 -155.611)" fill="#b0c710"/></g></g><g transform="translate(185.609 168.91)"><path d="M308.31,256.363H221.58a3.424,3.424,0,0,1-2.534-1.12L186.5,219.509a3.423,3.423,0,0,1-.894-2.308V151.959a3.427,3.427,0,0,1,3.427-3.427h83.005a3.426,3.426,0,0,1,3.426,3.427v62.43a3.427,3.427,0,0,0,1.025,2.443l34.221,33.661A3.427,3.427,0,0,1,308.31,256.363Z" transform="translate(-185.609 -148.532)" fill="#263238"/><g transform="translate(3.003 4.086)"><rect width="83.704" height="59.558" transform="translate(83.704 59.558) rotate(-180)" fill="#f5f5f5"/></g><g transform="translate(1.109 67.42)"><path d="M186.33,192.758c0,.221,19.482.4,43.509.4s43.514-.178,43.514-.4-19.479-.4-43.514-.4S186.33,192.536,186.33,192.758Z" transform="translate(-186.33 -192.358)" fill="#455a64"/></g><g transform="translate(6.213 21.088)"><g transform="translate(0 35.898)"><path d="M192.885,187.85a11.369,11.369,0,0,0-2.675-.16l-.4,0,.158.158a9.033,9.033,0,0,0-.158-2.275,9.121,9.121,0,0,0-.158,2.275l0,.158h.16l.4,0A11.271,11.271,0,0,0,192.885,187.85Z" transform="translate(-189.648 -185.575)" fill="#263238"/></g><g transform="translate(6.313 38.013)"><path d="M196.829,187.11a7.475,7.475,0,0,0-3.077,0,7.475,7.475,0,0,0,3.077,0Z" transform="translate(-193.752 -186.95)" fill="#263238"/></g><g transform="translate(12.467 38.013)"><path d="M200.829,187.11a7.475,7.475,0,0,0-3.077,0,7.475,7.475,0,0,0,3.077,0Z" transform="translate(-197.752 -186.95)" fill="#263238"/></g><g transform="translate(18.62 38.013)"><path d="M204.829,187.11a7.475,7.475,0,0,0-3.077,0,7.475,7.475,0,0,0,3.077,0Z" transform="translate(-201.752 -186.95)" fill="#263238"/></g><g transform="translate(24.774 38.013)"><path d="M208.829,187.11a7.475,7.475,0,0,0-3.077,0,7.475,7.475,0,0,0,3.077,0Z" transform="translate(-205.752 -186.95)" fill="#263238"/></g><g transform="translate(30.927 38.013)"><path d="M212.829,187.11a7.475,7.475,0,0,0-3.077,0,7.475,7.475,0,0,0,3.077,0Z" transform="translate(-209.752 -186.95)" fill="#263238"/></g><g transform="translate(37.081 38.013)"><path d="M216.829,187.11a7.475,7.475,0,0,0-3.077,0,7.475,7.475,0,0,0,3.077,0Z" transform="translate(-213.752 -186.95)" fill="#263238"/></g><g transform="translate(43.234 38.013)"><path d="M220.829,187.11a7.475,7.475,0,0,0-3.077,0,7.475,7.475,0,0,0,3.077,0Z" transform="translate(-217.752 -186.95)" fill="#263238"/></g><g transform="translate(49.387 38.013)"><path d="M224.829,187.11a7.475,7.475,0,0,0-3.077,0,7.475,7.475,0,0,0,3.077,0Z" transform="translate(-221.752 -186.95)" fill="#263238"/></g><g transform="translate(55.541 38.013)"><path d="M228.829,187.11a7.475,7.475,0,0,0-3.077,0,7.475,7.475,0,0,0,3.077,0Z" transform="translate(-225.752 -186.95)" fill="#263238"/></g><g transform="translate(61.694 38.013)"><path d="M232.829,187.11a7.475,7.475,0,0,0-3.077,0,7.475,7.475,0,0,0,3.077,0Z" transform="translate(-229.752 -186.95)" fill="#263238"/></g><g transform="translate(67.848 38.013)"><path d="M236.829,187.11a7.475,7.475,0,0,0-3.077,0,7.475,7.475,0,0,0,3.077,0Z" transform="translate(-233.752 -186.95)" fill="#263238"/></g><g transform="translate(74.001 38.013)"><path d="M240.829,187.11a7.475,7.475,0,0,0-3.077,0,7.475,7.475,0,0,0,3.077,0Z" transform="translate(-237.752 -186.95)" fill="#263238"/></g><g transform="translate(76.962 32.064)"><path d="M239.837,183.083a7.476,7.476,0,0,0,0,3.077,7.407,7.407,0,0,0,0-3.077Z" transform="translate(-239.677 -183.083)" fill="#263238"/></g><g transform="translate(76.962 25.911)"><path d="M239.837,179.083a7.476,7.476,0,0,0,0,3.077,7.407,7.407,0,0,0,0-3.077Z" transform="translate(-239.677 -179.083)" fill="#263238"/></g><g transform="translate(76.962 19.757)"><path d="M239.837,175.083a7.476,7.476,0,0,0,0,3.077,7.407,7.407,0,0,0,0-3.077Z" transform="translate(-239.677 -175.083)" fill="#263238"/></g><g transform="translate(76.962 13.604)"><path d="M239.837,171.083a7.476,7.476,0,0,0,0,3.077,7.407,7.407,0,0,0,0-3.077Z" transform="translate(-239.677 -171.083)" fill="#263238"/></g><g transform="translate(76.962 7.45)"><path d="M239.837,167.083a7.476,7.476,0,0,0,0,3.077,7.407,7.407,0,0,0,0-3.077Z" transform="translate(-239.677 -167.083)" fill="#263238"/></g><g transform="translate(76.962 1.297)"><path d="M239.837,163.083a7.476,7.476,0,0,0,0,3.077,7.407,7.407,0,0,0,0-3.077Z" transform="translate(-239.677 -163.083)" fill="#263238"/></g><g transform="translate(72.107)"><path d="M236.521,162.4a7.475,7.475,0,0,0,3.077,0,7.477,7.477,0,0,0-3.077,0Z" transform="translate(-236.521 -162.24)" fill="#263238"/></g><g transform="translate(65.954)"><path d="M232.521,162.4a7.475,7.475,0,0,0,3.077,0,7.477,7.477,0,0,0-3.077,0Z" transform="translate(-232.521 -162.24)" fill="#263238"/></g><g transform="translate(59.801)"><path d="M228.521,162.4a7.475,7.475,0,0,0,3.077,0,7.477,7.477,0,0,0-3.077,0Z" transform="translate(-228.521 -162.24)" fill="#263238"/></g><g transform="translate(53.647)"><path d="M224.521,162.4a7.475,7.475,0,0,0,3.077,0,7.477,7.477,0,0,0-3.077,0Z" transform="translate(-224.521 -162.24)" fill="#263238"/></g><g transform="translate(47.494)"><path d="M220.521,162.4a7.475,7.475,0,0,0,3.077,0,7.477,7.477,0,0,0-3.077,0Z" transform="translate(-220.521 -162.24)" fill="#263238"/></g><g transform="translate(41.34)"><path d="M216.521,162.4a7.475,7.475,0,0,0,3.077,0,7.477,7.477,0,0,0-3.077,0Z" transform="translate(-216.521 -162.24)" fill="#263238"/></g><g transform="translate(35.187)"><path d="M212.521,162.4a7.475,7.475,0,0,0,3.077,0,7.477,7.477,0,0,0-3.077,0Z" transform="translate(-212.521 -162.24)" fill="#263238"/></g><g transform="translate(29.033)"><path d="M208.521,162.4a7.475,7.475,0,0,0,3.077,0,7.477,7.477,0,0,0-3.077,0Z" transform="translate(-208.521 -162.24)" fill="#263238"/></g><g transform="translate(22.88)"><path d="M204.521,162.4a7.475,7.475,0,0,0,3.077,0,7.477,7.477,0,0,0-3.077,0Z" transform="translate(-204.521 -162.24)" fill="#263238"/></g><g transform="translate(16.727)"><path d="M200.521,162.4a7.475,7.475,0,0,0,3.077,0,7.477,7.477,0,0,0-3.077,0Z" transform="translate(-200.521 -162.24)" fill="#263238"/></g><g transform="translate(10.573)"><path d="M196.521,162.4a7.475,7.475,0,0,0,3.077,0,7.477,7.477,0,0,0-3.077,0Z" transform="translate(-196.521 -162.24)" fill="#263238"/></g><g transform="translate(4.42)"><path d="M192.521,162.4a7.475,7.475,0,0,0,3.077,0,7.477,7.477,0,0,0-3.077,0Z" transform="translate(-192.521 -162.24)" fill="#263238"/></g><path d="M189.808,164.294a3.82,3.82,0,0,0,.16-1.538l0-.355-.157.155a2.709,2.709,0,0,0,1.183-.155,2.684,2.684,0,0,0-1.183-.155l-.154,0,0,.16,0,.355A3.854,3.854,0,0,0,189.808,164.294Z" transform="translate(-189.648 -162.24)" fill="#263238"/><g transform="translate(0 5.13)"><path d="M189.808,168.652a7.475,7.475,0,0,0,0-3.077,7.476,7.476,0,0,0,0,3.077Z" transform="translate(-189.648 -165.575)" fill="#263238"/></g><g transform="translate(0 11.284)"><path d="M189.808,172.652a7.474,7.474,0,0,0,0-3.077,7.476,7.476,0,0,0,0,3.077Z" transform="translate(-189.648 -169.575)" fill="#263238"/></g><g transform="translate(0 17.437)"><path d="M189.808,176.652a7.475,7.475,0,0,0,0-3.077,7.476,7.476,0,0,0,0,3.077Z" transform="translate(-189.648 -173.575)" fill="#263238"/></g><g transform="translate(0 23.591)"><path d="M189.808,180.652a7.475,7.475,0,0,0,0-3.077,7.476,7.476,0,0,0,0,3.077Z" transform="translate(-189.648 -177.575)" fill="#263238"/></g><g transform="translate(0 29.744)"><path d="M189.808,184.652a7.475,7.475,0,0,0,0-3.077,7.476,7.476,0,0,0,0,3.077Z" transform="translate(-189.648 -181.575)" fill="#263238"/></g></g><g transform="translate(6.374 7.234)"><rect width="76.963" height="11.095" transform="translate(76.963 11.095) rotate(-180)" fill="#263238"/></g><g transform="translate(7.671 70.424)"><path d="M208.752,214.126,190.6,194.311h78.2l20.03,19.215Z" transform="translate(-190.595 -194.311)" fill="#455a64"/></g></g><g transform="translate(245.345 110.68)"><g transform="translate(192.229 508.812)"><path d="M375.773,441.431l8.992,33.249-29.225,2.667L349.4,445.694Z" transform="translate(-349.397 -441.431)" fill="#ffbf88"/><g transform="translate(5.293 29.78)"><path d="M352.838,464.217a20.608,20.608,0,0,0,4.28-.145c2.635-.211,6.261-.614,10.255-1.126l10.215-1.372a23.905,23.905,0,0,0,4.215-.729,20.942,20.942,0,0,0-4.278.158c-2.634.217-6.261.623-10.255,1.135L357.056,463.5A24.311,24.311,0,0,0,352.838,464.217Z" transform="translate(-352.838 -460.789)" fill="#263238"/></g><g transform="translate(5.669 29.811)" opacity="0.6"><path d="M382.781,464.247l-29.226,2.667-.473-2.438,28.854-3.667.815,3.108" transform="translate(-353.083 -460.809)" fill="#fff"/></g><g transform="translate(14.606 6.455)"><path d="M365.135,470.941c.185-.045-1.06-5.749-2.778-12.738s-3.263-12.622-3.446-12.576,1.06,5.747,2.778,12.739S364.95,470.987,365.135,470.941Z" transform="translate(-358.892 -445.627)" fill="#263238"/></g><g transform="translate(6.126 16.938)"><path d="M354.163,468.5a14.035,14.035,0,0,1-.068-6.181,12.314,12.314,0,0,1,3.2-5.786,11.979,11.979,0,0,1,7.273-3.341,12.447,12.447,0,0,1,7.827,1.78,13.545,13.545,0,0,1,4.552,4.835,17.314,17.314,0,0,1,1.844,5.929c.023,0,.038-.151.043-.442a9.2,9.2,0,0,0-.068-1.265,13.355,13.355,0,0,0-1.392-4.454,13.642,13.642,0,0,0-4.64-5.138A12.869,12.869,0,0,0,364.5,452.5a12.059,12.059,0,0,0-10.878,9.707,11.544,11.544,0,0,0-.011,4.666,7.871,7.871,0,0,0,.36,1.218C354.075,468.366,354.14,468.5,354.163,468.5Z" transform="translate(-353.38 -452.441)" fill="#263238"/></g></g><g transform="translate(70.025 498.946)"><g transform="translate(0.292)"><path d="M297.764,435.962l1.957,29.54s-29.4,9.758-29.572,15.251l57.445.417-1.16-46.152Z" transform="translate(-270.149 -435.017)" fill="#ffbf88"/></g><g transform="translate(44.798 27.377)" opacity="0.6"><path d="M301.823,452.9a2.348,2.348,0,0,1,1.7,2.627,2.256,2.256,0,0,1-2.589,1.709,2.474,2.474,0,0,1-1.788-2.791,2.337,2.337,0,0,1,2.889-1.48" transform="translate(-299.079 -452.813)" fill="#fff"/></g><g transform="translate(0 41.5)" opacity="0.6"><path d="M327.7,466.646l-.117-4.652L272.1,463.525a3.969,3.969,0,0,0-2.138,3.121Z" transform="translate(-269.959 -461.994)" fill="#fff"/></g><g transform="translate(28.922 29.933)"><path d="M288.762,454.763c.019.28,1.423.365,2.831,1.224,1.429.823,2.177,2.015,2.432,1.9.255-.063-.212-1.726-1.934-2.737C290.379,454.121,288.694,454.508,288.762,454.763Z" transform="translate(-288.76 -454.475)" fill="#263238"/></g><g transform="translate(22.976 32.77)"><path d="M284.9,456.442c-.057.274,1.172.714,2.16,1.871,1.023,1.128,1.3,2.4,1.58,2.381.265.037.409-1.611-.846-3.026S284.9,456.174,284.9,456.442Z" transform="translate(-284.895 -456.319)" fill="#263238"/></g><g transform="translate(17.389 35.43)"><path d="M283.649,462.821c.257.052.6-1.36-.161-2.874s-2.1-2.084-2.208-1.848c-.151.235.725,1.034,1.335,2.286C283.254,461.623,283.371,462.8,283.649,462.821Z" transform="translate(-281.263 -458.048)" fill="#263238"/></g><g transform="translate(29.215 22.347)"><path d="M288.961,450.635c.125.252,1.4-.172,2.988-.114,1.589.028,2.838.523,2.977.277.157-.208-1.078-1.208-2.951-1.252S288.816,450.42,288.961,450.635Z" transform="translate(-288.95 -449.543)" fill="#263238"/></g><g transform="translate(28.302 6.199)" opacity="0.3"><path d="M288.356,439.642l.342,5.265,28.209-1.111-.108-4.75Z" transform="translate(-288.356 -439.047)"/></g><g transform="translate(28.941 12.627)"><path d="M288.772,448.071c0,.115,1.114.255,2.875-.1a12.956,12.956,0,0,0,2.98-1.014,13.792,13.792,0,0,0,1.625-.926,3.546,3.546,0,0,0,.848-.7,1.221,1.221,0,0,0,.083-1.5,1.54,1.54,0,0,0-1.248-.6,3.817,3.817,0,0,0-1.074.182,10.411,10.411,0,0,0-1.769.668,10.14,10.14,0,0,0-2.6,1.821c-1.3,1.274-1.718,2.334-1.62,2.386.129.088.751-.809,2.075-1.868a11.509,11.509,0,0,1,2.521-1.523,10.681,10.681,0,0,1,1.635-.558c.6-.178,1.12-.2,1.284.068.06.1.069.141-.054.323a2.877,2.877,0,0,1-.623.514,15.214,15.214,0,0,1-1.492.914,15.9,15.9,0,0,1-2.747,1.149A19.712,19.712,0,0,0,288.772,448.071Z" transform="translate(-288.772 -443.225)" fill="#263238"/></g><g transform="translate(25.353 8.807)"><path d="M290.4,449.8c.1.04.626-.982.674-2.8a9.291,9.291,0,0,0-.488-3.137,9.41,9.41,0,0,0-.785-1.725,2.379,2.379,0,0,0-1.878-1.4,1.345,1.345,0,0,0-1.177.838,3.964,3.964,0,0,0-.263,1.063,6.428,6.428,0,0,0,.057,1.937,6.628,6.628,0,0,0,1.318,2.932c1.166,1.454,2.346,1.754,2.368,1.658.089-.143-.9-.655-1.806-2.06a6.618,6.618,0,0,1-.992-2.674,5.961,5.961,0,0,1,0-1.663c.071-.614.286-1.112.515-1.057.286-.014.785.432,1.035.912a9.549,9.549,0,0,1,.758,1.537,10.377,10.377,0,0,1,.645,2.852C290.518,448.7,290.251,449.76,290.4,449.8Z" transform="translate(-286.44 -440.742)" fill="#263238"/></g></g><g transform="translate(91.618 242.598)"><path d="M290.308,269.038l87.527-.659,42.3,277.795-36.325,4.611L337.251,322.37,323.317,551.6l-.037.682L284,551.593Z" transform="translate(-283.995 -268.379)" fill="#263238"/><g transform="translate(19.727 22.313)"><path d="M323.216,283.741a15.206,15.206,0,0,0-1.809-.117l-5.266-.194-18.916-.535-.36-.011v.365c-.014,5.489-.029,11.628-.045,18.143l0,.175.131.118c1.049.966,2.166,1.992,3.3,3.029,3.369,3.089,6.629,6.076,9.712,8.9l.257.237.258-.232,12.948-11.539.108-.1,0-.138c-.068-5.518-.125-10.05-.165-13.313q-.048-2.225-.078-3.586a8.168,8.168,0,0,0-.068-1.208,11.193,11.193,0,0,0-.069,1.328c-.02.928-.046,2.144-.078,3.657-.04,3.215-.1,7.683-.163,13.122l.1-.232-13.048,11.428.517,0-9.692-8.923-3.3-3.026.129.292c-.015-6.515-.031-12.655-.045-18.143l-.36.355,18.7.175,5.347.008,1.438-.015A2.941,2.941,0,0,0,323.216,283.741Z" transform="translate(-296.819 -282.884)" fill="#455a64"/></g><g transform="translate(63.618 21.956)"><path d="M349.048,282.663a11.918,11.918,0,0,0-1.615.083l-4.709.383L325.7,284.672l-.352.032.042.357c.641,5.369,1.372,11.487,2.152,18.014l.02.162.128.1,3.774,3.012c3.22,2.563,6.341,5.047,9.309,7.407l.3.243.24-.3c3.76-4.755,7.209-9.115,10.176-12.865l.085-.108-.018-.129c-.735-5.447-1.341-9.938-1.778-13.181-.214-1.469-.385-2.652-.517-3.56a7.651,7.651,0,0,0-.217-1.194,11.282,11.282,0,0,0,.092,1.334c.094.931.215,2.143.366,3.649.351,3.206.837,7.644,1.426,13.028l.066-.235c-3,3.724-6.486,8.055-10.287,12.778l.545-.061-9.292-7.429-3.777-3.009.146.263c-.815-6.524-1.581-12.638-2.252-18l-.311.388,16.77-1.871,4.767-.574A16.389,16.389,0,0,0,349.048,282.663Z" transform="translate(-325.35 -282.652)" fill="#455a64"/></g><g transform="translate(33.765 50.703)"><path d="M305.945,314.767a26.515,26.515,0,0,0,3.967-1.928c2.411-1.26,5.737-3,9.445-4.85s7.1-3.463,9.558-4.629a26.291,26.291,0,0,0,3.926-2.011,22.25,22.25,0,0,0-4.157,1.492c-2.52,1.037-5.96,2.575-9.684,4.43s-7.02,3.681-9.364,5.072A22.157,22.157,0,0,0,305.945,314.767Z" transform="translate(-305.944 -301.339)" fill="#455a64"/></g><g transform="translate(34.89 56.091)"><path d="M306.678,319.628a9.032,9.032,0,0,0,2.986-1.125,25.52,25.52,0,0,0,10.853-10.692,8.989,8.989,0,0,0,1.169-2.968c-.232-.126-2.091,4.437-6.343,8.572C311.147,317.6,306.556,319.394,306.678,319.628Z" transform="translate(-306.675 -304.841)" fill="#455a64"/></g><g transform="translate(10.174 151.145)"><path d="M290.618,366.631a4.777,4.777,0,0,0,.4,1.452,19.475,19.475,0,0,0,1.826,3.675,22.207,22.207,0,0,0,23.589,9.953,19.579,19.579,0,0,0,3.906-1.255,4.746,4.746,0,0,0,1.315-.729,54.983,54.983,0,0,1-5.329,1.429,22.764,22.764,0,0,1-23.009-9.71A54.858,54.858,0,0,1,290.618,366.631Z" transform="translate(-290.609 -366.63)" fill="#455a64"/></g><g transform="translate(15.937 148.761)"><path d="M294.356,365.1a10.79,10.79,0,0,0,3.344,1.477,32.851,32.851,0,0,0,8.706,1.437,46.21,46.21,0,0,0,8.8-.517,13.792,13.792,0,0,0,3.555-.822c-.038-.274-5.523.791-12.321.538a41.576,41.576,0,0,1-8.582-1.181A35.5,35.5,0,0,0,294.356,365.1Z" transform="translate(-294.355 -365.081)" fill="#455a64"/></g><g transform="translate(81.013 150.425)"><path d="M336.66,366.169a13.975,13.975,0,0,0,3.044,2.758,35.376,35.376,0,0,0,18.417,6.858,14.009,14.009,0,0,0,4.107-.1,40.4,40.4,0,0,0-4.052-.469,41.7,41.7,0,0,1-18.146-6.756A40.346,40.346,0,0,0,336.66,366.169Z" transform="translate(-336.657 -366.163)" fill="#455a64"/></g><g transform="translate(88.687 148.797)"><path d="M341.646,366.4c-.048.2,3.541,1.031,8.027.66,4.489-.345,7.9-1.738,7.821-1.923-.071-.231-3.512.792-7.886,1.124C345.24,366.627,341.68,366.161,341.646,366.4Z" transform="translate(-341.646 -365.104)" fill="#455a64"/></g><g transform="translate(53.775 55.893)"><path d="M318.952,304.727a17.353,17.353,0,0,0,3.937,1.783,54.839,54.839,0,0,0,20.511,3.283,17.36,17.36,0,0,0,4.3-.463,34,34,0,0,0-4.3-.1,71.095,71.095,0,0,1-20.325-3.254A34.062,34.062,0,0,0,318.952,304.727Z" transform="translate(-318.952 -304.712)" fill="#455a64"/></g><g transform="translate(54.138 11.181)"><g transform="translate(1.604 35.758)"><path d="M320.653,298.892c-.222,0-.411.685-.422,1.534s.158,1.54.38,1.543.409-.682.422-1.532S320.874,298.894,320.653,298.892Z" transform="translate(-320.231 -298.892)" fill="#455a64"/></g><g transform="translate(1.628 29.605)"><path d="M320.637,294.892c-.222,0-.4.692-.391,1.542s.188,1.535.409,1.535.4-.689.391-1.541S320.858,294.889,320.637,294.892Z" transform="translate(-320.246 -294.892)" fill="#455a64"/></g><g transform="translate(1.529 23.453)"><path d="M320.545,290.893c-.222.006-.383.7-.362,1.548s.219,1.532.44,1.528.383-.7.362-1.548S320.767,290.885,320.545,290.893Z" transform="translate(-320.182 -290.893)" fill="#455a64"/></g><g transform="translate(1.309 17.303)"><path d="M320.376,286.9c-.221.012-.369.708-.331,1.555s.248,1.528.469,1.52.369-.7.331-1.555S320.6,286.884,320.376,286.9Z" transform="translate(-320.039 -286.895)" fill="#455a64"/></g><g transform="translate(0.968 11.16)"><path d="M320.131,282.9c-.221.015-.355.714-.3,1.561s.278,1.521.5,1.509.355-.712.3-1.561S320.351,282.887,320.131,282.9Z" transform="translate(-319.817 -282.902)" fill="#455a64"/></g><g transform="translate(0.506 5.025)"><path d="M319.808,278.914c-.22.02-.341.721-.271,1.566s.308,1.518.528,1.5.342-.718.271-1.566S320.028,278.894,319.808,278.914Z" transform="translate(-319.517 -278.914)" fill="#455a64"/></g><path d="M319.5,275.648c-.22.023-.354.48-.3,1.021s.279.961.5.94.354-.478.3-1.021S319.719,275.625,319.5,275.648Z" transform="translate(-319.188 -275.647)" fill="#455a64"/></g><g transform="translate(60.284 59.09)"><g transform="translate(43.454 217.219)"><path d="M351.624,447.995c-.217.043-.258.754-.091,1.588s.477,1.472.694,1.429.259-.754.091-1.586S351.841,447.952,351.624,447.995Z" transform="translate(-351.43 -447.993)" fill="#455a64"/></g><g transform="translate(42.247 211.186)"><path d="M350.839,444.073c-.217.043-.257.754-.091,1.586s.477,1.474.694,1.431.258-.754.092-1.588S351.056,444.03,350.839,444.073Z" transform="translate(-350.645 -444.071)" fill="#455a64"/></g><g transform="translate(41.039 205.152)"><path d="M350.055,440.151c-.218.043-.258.754-.092,1.586s.478,1.474.7,1.431.257-.754.091-1.588S350.271,440.106,350.055,440.151Z" transform="translate(-349.861 -440.149)" fill="#455a64"/></g><g transform="translate(39.833 199.117)"><path d="M349.27,436.228c-.217.043-.258.754-.091,1.588s.477,1.474.694,1.429.258-.754.091-1.586S349.487,436.185,349.27,436.228Z" transform="translate(-349.076 -436.226)" fill="#455a64"/></g><g transform="translate(38.626 193.084)"><path d="M348.485,432.306c-.217.043-.257.754-.091,1.588s.478,1.472.7,1.429.257-.754.091-1.588S348.7,432.263,348.485,432.306Z" transform="translate(-348.291 -432.304)" fill="#455a64"/></g><g transform="translate(37.419 187.05)"><path d="M347.7,428.384c-.217.043-.258.754-.092,1.586s.478,1.474.7,1.431.257-.754.091-1.588S347.918,428.339,347.7,428.384Z" transform="translate(-347.507 -428.382)" fill="#455a64"/></g><g transform="translate(36.211 181.015)"><path d="M346.916,424.461c-.217.045-.258.754-.091,1.588s.477,1.474.694,1.431.258-.754.091-1.588S347.133,424.418,346.916,424.461Z" transform="translate(-346.722 -424.459)" fill="#455a64"/></g><g transform="translate(35.004 174.982)"><path d="M346.131,420.539c-.217.043-.257.754-.091,1.588s.478,1.472.7,1.429.257-.754.091-1.586S346.348,420.5,346.131,420.539Z" transform="translate(-345.937 -420.537)" fill="#455a64"/></g><g transform="translate(33.797 168.948)"><path d="M345.347,416.617c-.217.043-.258.754-.092,1.586s.478,1.474.7,1.431.257-.754.091-1.588S345.564,416.574,345.347,416.617Z" transform="translate(-345.153 -416.615)" fill="#455a64"/></g><g transform="translate(32.591 162.915)"><path d="M344.562,412.695c-.217.043-.257.754-.091,1.586s.477,1.474.694,1.431.258-.754.091-1.588S344.779,412.65,344.562,412.695Z" transform="translate(-344.368 -412.693)" fill="#455a64"/></g><g transform="translate(31.383 156.88)"><path d="M343.777,408.772c-.217.043-.257.754-.091,1.588s.478,1.474.7,1.429.257-.754.091-1.586S343.994,408.729,343.777,408.772Z" transform="translate(-343.583 -408.77)" fill="#455a64"/></g><g transform="translate(30.176 150.847)"><path d="M342.993,404.85c-.217.043-.258.754-.091,1.588s.477,1.472.694,1.429.258-.754.091-1.588S343.21,404.807,342.993,404.85Z" transform="translate(-342.799 -404.848)" fill="#455a64"/></g><g transform="translate(28.969 144.813)"><path d="M342.208,400.928c-.217.043-.257.754-.091,1.586s.477,1.474.694,1.431.258-.754.092-1.588S342.424,400.883,342.208,400.928Z" transform="translate(-342.014 -400.926)" fill="#455a64"/></g><g transform="translate(27.762 138.778)"><path d="M341.423,397c-.217.045-.257.755-.091,1.588s.479,1.474.7,1.431.257-.755.091-1.588S341.64,396.962,341.423,397Z" transform="translate(-341.229 -397.003)" fill="#455a64"/></g><g transform="translate(26.555 132.745)"><path d="M340.639,393.083c-.217.043-.258.754-.091,1.588s.477,1.472.694,1.429.258-.754.091-1.586S340.856,393.04,340.639,393.083Z" transform="translate(-340.445 -393.081)" fill="#455a64"/></g><g transform="translate(25.348 126.711)"><path d="M339.854,389.161c-.217.043-.257.754-.091,1.586s.477,1.474.7,1.431.257-.754.091-1.588S340.07,389.118,339.854,389.161Z" transform="translate(-339.66 -389.159)" fill="#455a64"/></g><g transform="translate(24.141 120.676)"><path d="M339.07,385.238c-.217.045-.258.755-.092,1.588s.478,1.474.7,1.431.257-.754.091-1.588S339.287,385.195,339.07,385.238Z" transform="translate(-338.876 -385.236)" fill="#455a64"/></g><g transform="translate(22.934 114.643)"><path d="M338.285,381.316c-.217.043-.258.754-.091,1.588s.477,1.474.694,1.429.258-.754.091-1.586S338.5,381.273,338.285,381.316Z" transform="translate(-338.091 -381.314)" fill="#455a64"/></g><g transform="translate(21.727 108.609)"><path d="M337.5,377.394c-.217.043-.257.754-.091,1.588s.478,1.472.7,1.429.257-.754.091-1.588S337.716,377.351,337.5,377.394Z" transform="translate(-337.306 -377.392)" fill="#455a64"/></g><g transform="translate(20.52 102.576)"><path d="M336.716,373.472c-.217.043-.258.754-.092,1.586s.478,1.474.7,1.431.257-.754.091-1.588S336.933,373.427,336.716,373.472Z" transform="translate(-336.522 -373.47)" fill="#455a64"/></g><g transform="translate(19.313 96.541)"><path d="M335.931,369.549c-.217.045-.258.755-.091,1.588s.477,1.474.694,1.431.258-.755.091-1.588S336.148,369.506,335.931,369.549Z" transform="translate(-335.737 -369.547)" fill="#455a64"/></g><g transform="translate(18.106 90.508)"><path d="M335.146,365.627c-.217.043-.257.754-.091,1.588s.478,1.472.7,1.429.257-.754.091-1.586S335.363,365.584,335.146,365.627Z" transform="translate(-334.952 -365.625)" fill="#455a64"/></g><g transform="translate(16.899 84.474)"><path d="M334.362,361.7c-.217.043-.258.754-.091,1.586s.477,1.474.694,1.431.258-.754.091-1.588S334.579,361.662,334.362,361.7Z" transform="translate(-334.168 -361.703)" fill="#455a64"/></g><g transform="translate(15.692 78.439)"><path d="M333.577,357.782c-.217.045-.257.755-.091,1.588s.477,1.474.694,1.431.258-.754.092-1.588S333.794,357.739,333.577,357.782Z" transform="translate(-333.383 -357.78)" fill="#455a64"/></g><g transform="translate(14.484 72.406)"><path d="M332.792,353.86c-.217.043-.257.754-.091,1.588s.478,1.474.7,1.429.257-.754.091-1.586S333.008,353.817,332.792,353.86Z" transform="translate(-332.598 -353.858)" fill="#455a64"/></g><g transform="translate(13.278 66.372)"><path d="M332.008,349.938c-.217.043-.258.754-.091,1.588s.477,1.472.694,1.429.258-.754.091-1.588S332.225,349.895,332.008,349.938Z" transform="translate(-331.814 -349.936)" fill="#455a64"/></g><g transform="translate(12.071 60.339)"><path d="M331.223,346.016c-.217.043-.257.754-.091,1.586s.477,1.474.694,1.431.258-.754.092-1.588S331.439,345.971,331.223,346.016Z" transform="translate(-331.029 -346.014)" fill="#455a64"/></g><g transform="translate(10.863 54.304)"><path d="M330.439,342.093c-.218.045-.258.754-.092,1.588s.478,1.474.7,1.429.257-.754.091-1.586S330.654,342.05,330.439,342.093Z" transform="translate(-330.244 -342.091)" fill="#455a64"/></g><g transform="translate(9.656 48.271)"><path d="M329.654,338.171c-.217.043-.258.754-.091,1.588s.477,1.472.694,1.429.258-.754.091-1.586S329.871,338.128,329.654,338.171Z" transform="translate(-329.46 -338.169)" fill="#455a64"/></g><g transform="translate(8.449 42.237)"><path d="M328.869,334.249c-.217.043-.257.754-.091,1.586s.478,1.474.7,1.431.257-.754.091-1.588S329.085,334.206,328.869,334.249Z" transform="translate(-328.675 -334.247)" fill="#455a64"/></g><g transform="translate(7.242 36.202)"><path d="M328.085,330.326c-.217.045-.258.755-.092,1.588s.478,1.474.7,1.431.257-.754.091-1.588S328.3,330.283,328.085,330.326Z" transform="translate(-327.891 -330.324)" fill="#455a64"/></g><g transform="translate(6.035 30.169)"><path d="M327.3,326.4c-.217.043-.258.754-.091,1.588s.477,1.474.694,1.429.258-.754.091-1.586S327.517,326.361,327.3,326.4Z" transform="translate(-327.106 -326.402)" fill="#455a64"/></g><g transform="translate(4.828 24.135)"><path d="M326.515,322.482c-.217.043-.257.754-.091,1.588s.478,1.472.7,1.429.257-.754.091-1.588S326.732,322.439,326.515,322.482Z" transform="translate(-326.321 -322.48)" fill="#455a64"/></g><g transform="translate(3.621 18.102)"><path d="M325.731,318.56c-.217.043-.258.754-.092,1.586s.478,1.474.7,1.431.257-.754.091-1.588S325.948,318.515,325.731,318.56Z" transform="translate(-325.537 -318.558)" fill="#455a64"/></g><g transform="translate(2.414 12.067)"><path d="M324.946,314.637c-.217.045-.257.754-.091,1.588s.477,1.474.694,1.429.258-.754.091-1.586S325.163,314.594,324.946,314.637Z" transform="translate(-324.752 -314.635)" fill="#455a64"/></g><g transform="translate(1.207 6.033)"><path d="M324.161,310.715c-.217.043-.257.754-.091,1.588s.478,1.472.7,1.429.257-.754.091-1.588S324.378,310.672,324.161,310.715Z" transform="translate(-323.967 -310.713)" fill="#455a64"/></g><path d="M323.377,306.793c-.217.043-.258.754-.091,1.586s.477,1.474.694,1.431.258-.754.091-1.588S323.594,306.75,323.377,306.793Z" transform="translate(-323.183 -306.791)" fill="#455a64"/></g></g><g transform="translate(0 84.551)"><path d="M255.882,196.7s-10.242-15.353-10.515-15.488h0s-9.244-15.568-12.318-15.571c-3.092,0-1.964,3.155,1.209,8.733,2.783,4.889,3.064,7.941,3.064,7.941L229.73,186.9s-5.072-1.963-5.283,2.764a32.874,32.874,0,0,0,.874,6.42c.308,1.683,1.069,3.478,2.658,2.844a1.993,1.993,0,0,0,1.36-1.9c.1-2.8-.425-3.823-.068-3.824.455,0,5.464,14.671,5.464,14.671Z" transform="translate(-224.44 -165.642)" fill="#ffbe9d"/><g transform="translate(3.576 17.072)"><path d="M233.951,178.674a14.842,14.842,0,0,0-2.435-1.452,4.96,4.96,0,0,0-2.766-.429,2.48,2.48,0,0,0-1.54.818,2.518,2.518,0,0,0-.291,2.332,7.41,7.41,0,0,0,1.245,2.091" transform="translate(-226.765 -176.74)" fill="#ffbe9d"/></g><g transform="translate(7.419 14.086)"><path d="M236.071,176.621a14.1,14.1,0,0,0-2.309-1.368,4.729,4.729,0,0,0-2.618-.406,2.1,2.1,0,0,0-1.734,2.967,19.668,19.668,0,0,0,2.36,3.037" transform="translate(-229.262 -174.798)" fill="#ffbe9d"/></g><g transform="translate(6.646 22.392)"><path d="M249.988,180.2l14.8,31.652-16.314,16.673-8.5-23.588s-4.557.908-6.413-2.114c-2.075-3.374-4.8-13.122-4.8-13.122Z" transform="translate(-228.76 -180.198)" fill="#ffbe9d"/></g><g transform="translate(11.68 14.409)"><path d="M237.652,182.119c.162-.049-.209-2.169-1.751-4.377a7.8,7.8,0,0,0-2.535-2.246c-.76-.414-1.278-.552-1.326-.461-.142.237,1.772,1.183,3.217,3.181C236.673,180.23,237.405,182.224,237.652,182.119Z" transform="translate(-232.032 -175.009)" fill="#eb996e"/></g><g transform="translate(0.876 20.547)"><path d="M225.015,180.1c.068.1.572-.171,1.434-.32a5.016,5.016,0,0,1,3.232.5,7.867,7.867,0,0,1,2.4,2.383c.531.74.88,1.206.98,1.151s-.074-.6-.5-1.446a6.486,6.486,0,0,0-2.5-2.791,4.768,4.768,0,0,0-3.76-.34C225.372,179.558,224.956,180.03,225.015,180.1Z" transform="translate(-225.01 -178.998)" fill="#eb996e"/></g><g transform="translate(6.39 17.093)"><path d="M228.594,176.848c-.043.24,1.829.557,3.478,2.044,1.655,1.463,2.466,3.18,2.692,3.067.182-.045-.322-2.023-2.166-3.671a6.364,6.364,0,0,0-2.724-1.428C229.1,176.691,228.607,176.75,228.594,176.848Z" transform="translate(-228.594 -176.753)" fill="#eb996e"/></g><g transform="translate(2.471 24.021)"><path d="M226.329,181.26c-.208-.08-.6,1.148.182,2.374s2.041,1.418,2.058,1.2c.068-.217-.8-.657-1.38-1.621C226.574,182.265,226.554,181.294,226.329,181.26Z" transform="translate(-226.046 -181.257)" fill="#eb996e"/></g><g transform="translate(20.816 17.931)"><path d="M248.561,189.811s.517-9.444-1.766-11.582-8.824.082-8.824.082" transform="translate(-237.971 -177.298)" fill="#ffbe9d"/></g><g transform="translate(19.878 14.435)"><path d="M237.375,175.031c-.174.137,1.341,2.548,3.384,5.383s3.85,5.035,4.035,4.915-1.331-2.532-3.384-5.384S237.547,174.894,237.375,175.031Z" transform="translate(-237.361 -175.025)" fill="#eb996e"/></g></g><g transform="translate(172.086 76.412)"><path d="M343.562,191.535c-.228-1.264-.535-2.741-.975-4.464a13.4,13.4,0,0,0-1.871-4.143,20.516,20.516,0,0,0-3.621-4.36c-1.4-1.037-.814-3.241.772-3.234s5.521,2.775,8.226,7.7,4.3-3.774,4.932-6.935,3.064-12.845,4.19-13.419c1.652-.841,2.858.772,2.149,3.914-.717,3.18-2.171,12.711-.486,12.968,1.66.251,4.68-15.882,4.68-15.882s.088-3.552,2.044-3.321c3.53.414-.942,17.328-1.408,18.928-.323,1.111,1.5,1.454,1.781.243.292-1.249,2.637-16.162,6.236-15.774,2.76.3-3.551,13.947-2.318,17.311s3.734-10.836,6.36-10.444c.977.146,1.686.392-.928,8.339-1.268,3.858-6.187,21.922-6.187,21.922l2.823,14.805-22.486,5.693Z" transform="translate(-336.303 -160.351)" fill="#ffbe9d"/></g><g transform="translate(90.105)"><g transform="translate(4.471 8.011)"><g transform="translate(8.455 10.3)"><path d="M339.293,131.655l.226,73.706L307.9,206.868l-.914-17.926s-11.232,2.229-14.13-8.2c-1.851-6.663-1.389-58.158-1.389-58.158Z" transform="translate(-291.415 -122.583)" fill="#ffbe9d"/></g><path d="M290.265,131.378c4.98,1.426,6.063,9.566,6.063,9.566L304.14,158.2c3.98-3.117,9.322-2.938,10.335,4.057.731,5.053-5.552,6.075-5.552,6.075,3.658,6.224,6.138,11.259,11.464,17.18,5.764,6.407,8.993,7.053,15.245,7.158h6.893s3.374-10.953,9.622-38.345c6.933-30.389-29-26.474-35.664-34.23C305.633,107.461,274.563,126.883,290.265,131.378Z" transform="translate(-285.918 -115.888)" fill="#263238"/></g><path d="M353.055,159.994c5.824-3.912,6.35-14.86,2.952-21.425a21.1,21.1,0,0,0-17.94-11.158,8.532,8.532,0,0,1-2.931-.328c-1.369-.528-2.254-1.825-3.147-2.986-5.206-6.769-10.321-13.419-20.025-13.418a11.04,11.04,0,0,0-6.1,1.512,9.593,9.593,0,0,0-3.664,4.85A20.725,20.725,0,0,0,296.525,115a7.008,7.008,0,0,0-5.693,1.388,4.288,4.288,0,0,0-.9,5.455,6.9,6.9,0,0,0-6.884,5.737c-.514,3.235,4.123,5.51,4.606,5.763,0,0-2.546,5.327,3.523,8.521,2.444,1.288,5.623-.262,5.983-.449" transform="translate(-283.012 -110.68)" fill="#263238"/><g transform="translate(46.705 56.401)"><path d="M313.622,147.343c-.2-.022-.517,2.535.182,5.6.68,3.064,2.06,5.241,2.235,5.133.211-.106-.8-2.364-1.454-5.31C313.911,149.823,313.859,147.348,313.622,147.343Z" transform="translate(-313.373 -147.343)" fill="#455a64"/></g><g transform="translate(42.983 52.784)"><path d="M311.1,144.992c-.214.009-.26,2.447.294,5.387s1.466,5.2,1.669,5.132-.349-2.392-.883-5.278S311.33,144.978,311.1,144.992Z" transform="translate(-310.953 -144.992)" fill="#455a64"/></g><g transform="translate(32.175 40.611)"><path d="M303.932,137.087c-.075.106.82.76,1.957,2.092a20.244,20.244,0,0,1,3.408,5.881,49.384,49.384,0,0,1,1.889,6.629,11.1,11.1,0,0,0,.783,2.787,9.9,9.9,0,0,0-.226-2.894,32.533,32.533,0,0,0-1.7-6.812,17.171,17.171,0,0,0-3.74-5.976A6.032,6.032,0,0,0,303.932,137.087Z" transform="translate(-303.927 -137.079)" fill="#455a64"/></g><g transform="translate(27.01 32.337)"><path d="M301.312,131.7a4.1,4.1,0,0,0-.614,2,13.26,13.26,0,0,0,2.406,9.6c.778,1.037,1.412,1.535,1.481,1.469.2-.152-1.941-2.531-2.837-6.232C300.793,134.85,301.556,131.741,301.312,131.7Z" transform="translate(-300.57 -131.701)" fill="#455a64"/></g><g transform="translate(65.481 48.493)"><path d="M325.587,144.455c.108.194,1.077-.142,2.163-.749s1.88-1.255,1.772-1.449-1.077.143-2.163.751S325.48,144.263,325.587,144.455Z" transform="translate(-325.578 -142.203)" fill="#455a64"/></g><g transform="translate(50.128 42.876)"><path d="M315.683,138.552c-.209.031-.078,1.592.9,3.206s2.294,2.463,2.418,2.292c.151-.177-.843-1.217-1.732-2.706C316.366,139.865,315.909,138.5,315.683,138.552Z" transform="translate(-315.598 -138.551)" fill="#455a64"/></g><g transform="translate(45.46 40.352)"><path d="M312.618,136.913c-.2.046.128,1.917,1.408,3.832s2.863,2.955,2.984,2.784c.149-.178-1.131-1.421-2.317-3.227C313.491,138.506,312.841,136.845,312.618,136.913Z" transform="translate(-312.563 -136.911)" fill="#455a64"/></g><g transform="translate(22.164 6.426)"><path d="M297.422,117.917c.055.065.594-.451,1.734-1.1a11.683,11.683,0,0,1,5.3-1.371,14.2,14.2,0,0,1,7.773,2.089,19.255,19.255,0,0,1,6.621,7.375,33.193,33.193,0,0,1,2.688,6.91l.126.463.425-.223a15.793,15.793,0,0,1,7.055-1.8,16.739,16.739,0,0,1,5.743.868,24.377,24.377,0,0,1,4.689,2.346,4.789,4.789,0,0,0-1.057-.938,14.6,14.6,0,0,0-3.469-1.861,16.432,16.432,0,0,0-5.913-1.069,16.062,16.062,0,0,0-7.407,1.783l.551.24a32.552,32.552,0,0,0-2.724-7.093,19.564,19.564,0,0,0-6.944-7.627,14.452,14.452,0,0,0-8.179-2.023A11.257,11.257,0,0,0,299,116.549a8.331,8.331,0,0,0-1.215.965C297.526,117.76,297.4,117.9,297.422,117.917Z" transform="translate(-297.42 -114.857)" fill="#455a64"/></g><g transform="translate(2.982 12.458)"><path d="M287.507,119.818c.057-.015-.88-.238-1.815.821a3.152,3.152,0,0,0-.728,2.308,3.586,3.586,0,0,0,1.838,2.626,5.215,5.215,0,0,0,3.841.529,11.136,11.136,0,0,0,3.964-1.921,39.074,39.074,0,0,1,3.875-2.657,16.147,16.147,0,0,1,4.672-1.641,19.748,19.748,0,0,1,9.533.652,26.078,26.078,0,0,1,7.047,3.583,72.043,72.043,0,0,1,5.626,4.76,7.966,7.966,0,0,0-1.251-1.557,30.334,30.334,0,0,0-4.041-3.661,25.312,25.312,0,0,0-7.152-3.826,19.983,19.983,0,0,0-9.91-.738,16.591,16.591,0,0,0-4.9,1.741,37.163,37.163,0,0,0-3.927,2.743,10.7,10.7,0,0,1-3.683,1.875,4.662,4.662,0,0,1-3.412-.372,3.14,3.14,0,0,1-1.675-2.189,2.88,2.88,0,0,1,.528-2.061A2.767,2.767,0,0,1,287.507,119.818Z" transform="translate(-284.95 -118.778)" fill="#455a64"/></g></g><g transform="translate(20.857 93.821)"><g transform="translate(160.894 10.868)"><path d="M343.883,178.733l38.645,69.091a19.6,19.6,0,0,1-2.981,18.363l.8-1.149a16.5,16.5,0,0,1-12.828,6.126h-.731a16.5,16.5,0,0,1-15.127-9.915l-9.073-13.767Z" transform="translate(-342.586 -178.733)" fill="#fc8116"/></g><g transform="translate(67.476)"><path d="M292.888,177.592c7.581-3.871,15.067-4.747,23.234-4.984,9.51-.277,22.917-1.608,33.165-.517,0,0,31.232-.96,31.372,23.246l-4.131,92.915,6.687,39.823L289.635,330.9l.671-46.981c-1.155-24.444,1.311-59.059,1.311-59.059-1.44-13.141-8.63-19.057-9.652-27.6C281.063,189.707,286.113,181.053,292.888,177.592Z" transform="translate(-281.86 -171.668)" fill="#fc8116"/></g><g transform="translate(104.878 117.929)"><path d="M306.174,248.333a7.461,7.461,0,0,0,1.378,1.3,30.033,30.033,0,0,0,4.266,2.924,34.085,34.085,0,0,0,32.869.581,30.242,30.242,0,0,0,4.366-2.772,7.55,7.55,0,0,0,1.423-1.254c-.094-.129-2.164,1.626-6.044,3.52a35.283,35.283,0,0,1-32.341-.572C308.28,250.036,306.271,248.209,306.174,248.333Z" transform="translate(-306.173 -248.327)" fill="#263238"/></g><g transform="translate(162.167 23.669)"><path d="M347.522,187.054a4.092,4.092,0,0,0-.109.915c-.042.686-.094,1.557-.158,2.626-.111,2.389-.263,5.664-.449,9.664-.346,8.256-.815,19.482-1.334,31.884-.563,12.405-1.071,23.629-1.445,31.884-.2,4-.371,7.27-.492,9.658-.045,1.071-.082,1.941-.111,2.629a4.142,4.142,0,0,0,.014.92,3.959,3.959,0,0,0,.146-.908c.069-.686.155-1.552.262-2.618.22-2.275.463-5.573.748-9.649.554-8.152,1.152-19.425,1.678-31.882s.892-23.732,1.1-31.9c.082-4,.148-7.281.2-9.673,0-1.071.006-1.943.008-2.631A3.906,3.906,0,0,0,347.522,187.054Z" transform="translate(-343.414 -187.054)" fill="#263238"/></g><g transform="translate(173.708 31.695)"><path d="M363.1,192.271s3.541,10.393,4.167,11.8c0,0,8.739,25.264,11.587,42.322l-27.94-50.453C350.681,195.969,362.729,192.376,363.1,192.271Z" transform="translate(-350.916 -192.271)" fill="#fc8116"/></g><g transform="translate(172.131 28.645)"><path d="M349.894,190.289a3.019,3.019,0,0,0,.322.732l1.061,2.023c.945,1.745,2.349,4.249,4.149,7.3,3.553,6.14,8.895,14.362,14.293,23.711,2.7,4.669,4.986,9.292,6.967,13.514,1.966,4.218,2.98,8.358,2.721,11.861a19.043,19.043,0,0,1-2.167,7.938c-.926,1.735-1.692,2.541-1.626,2.594.021.018.215-.177.568-.568a13.491,13.491,0,0,0,1.331-1.874,18.417,18.417,0,0,0,2.461-8.053c.343-3.6-.658-7.918-2.612-12.2s-4.232-8.912-6.946-13.611c-5.421-9.386-10.832-17.548-14.5-23.606-1.8-2.949-3.272-5.372-4.364-7.167l-1.191-1.948A3.012,3.012,0,0,0,349.894,190.289Z" transform="translate(-349.891 -190.289)" fill="#263238"/></g><g transform="translate(0 3.09)"><path d="M238,225.035l21.654-14.165,13.668,23.675s18.948-26.337,27.555-41.766c7.921-14.2,18.17-18.026,23.114-19.056a2.2,2.2,0,0,1,2.624,2.4l-7.469,51.21c-.94,2.667-16.571,25.326-25.3,36.727-14.579,19.029-36.058,6.852-41.956-6.467C247.2,247.017,239.916,230.956,238,225.035Z" transform="translate(-237.998 -173.676)" fill="#fc8116"/><g transform="translate(28.939 60.369)"><path d="M256.967,234.788a15.367,15.367,0,0,0,.414-3.38,64.661,64.661,0,0,1,1.046-8.064,26.57,26.57,0,0,1,2.764-7.556c1.018-1.8,1.881-2.78,1.784-2.866a8.063,8.063,0,0,0-2.269,2.571,22.629,22.629,0,0,0-3.064,7.684,43.276,43.276,0,0,0-.828,8.2A13.6,13.6,0,0,0,256.967,234.788Z" transform="translate(-256.81 -212.919)" fill="#fc8116"/></g><g transform="translate(22.675 59.354)"><path d="M252.82,224.563c.128.009.232-1.1.769-2.772a15.28,15.28,0,0,1,3.464-5.807c1.824-1.938,4.041-3.117,5.758-3.151a8.13,8.13,0,0,1,2.744.483c.082-.045-.826-.985-2.752-1.049-1.923-.115-4.418,1.121-6.329,3.161a13.736,13.736,0,0,0-3.431,6.207A6.177,6.177,0,0,0,252.82,224.563Z" transform="translate(-252.738 -212.259)" fill="#fc8116"/></g><g transform="translate(67.445 6.37)"><path d="M301.8,177.819a2.93,2.93,0,0,0,.518.6l.666.681.829,1a21.182,21.182,0,0,1,3.749,7.28,28.469,28.469,0,0,1,.823,12.09,26.753,26.753,0,0,1-1.861,6.926,75.063,75.063,0,0,1-3.5,6.953c-5.3,9.309-10.759,17.363-14.705,23.175-1.957,2.811-3.563,5.121-4.755,6.833a25.839,25.839,0,0,0-1.72,2.527,3,3,0,0,0,.545-.577c.335-.4.825-.985,1.426-1.764,1.218-1.546,2.918-3.834,4.967-6.695,4.074-5.74,9.61-13.751,14.941-23.108a73,73,0,0,0,3.526-7.043,27.056,27.056,0,0,0,1.868-7.13,28.359,28.359,0,0,0-1.012-12.356,20.255,20.255,0,0,0-4.052-7.312l-.9-.965-.728-.634A3.08,3.08,0,0,0,301.8,177.819Z" transform="translate(-281.84 -177.817)" fill="#fc8116"/></g></g><g transform="translate(99.002 97.547)" opacity="0.3"><path d="M314.918,259.641c-6.9-3.154-12.359-10.373-12.559-17.682-.054-1.964.3-4.09,1.7-5.472,2.041-2.015,5.492-1.641,8.033-.306,4.183,2.2,6.919,6.323,9.858,10.024s6.669,7.338,11.373,7.786a29.559,29.559,0,0,0,6.049-.455,10.284,10.284,0,0,1,5.944.718c1.792.946,3.083,3.1,2.455,5.026,0,0-8.269,5.144-16.9,4.535A48.715,48.715,0,0,1,314.918,259.641Z" transform="translate(-302.354 -235.078)"/></g><g transform="translate(87.348 145.52)"><path d="M294.778,266.27a2.528,2.528,0,0,0,.661.286l1.944.672c.846.292,1.888.628,3.115.955s2.611.757,4.175,1.094a107.052,107.052,0,0,0,11.053,2.029,109.233,109.233,0,0,0,27.481.077,106.675,106.675,0,0,0,11.065-1.966c1.566-.328,2.954-.743,4.181-1.071s2.272-.649,3.12-.937l1.949-.661a2.477,2.477,0,0,0,.661-.282,2.429,2.429,0,0,0-.711.128l-1.988.517c-.858.24-1.911.525-3.146.8s-2.624.66-4.19.949c-3.111.674-6.853,1.289-11.03,1.788a116.979,116.979,0,0,1-27.3-.078c-4.174-.521-7.912-1.157-11.019-1.849-1.565-.3-2.954-.681-4.186-.974s-2.283-.575-3.14-.82l-1.986-.528A2.481,2.481,0,0,0,294.778,266.27Z" transform="translate(-294.778 -266.262)" fill="#263238"/></g></g></g></g></g></g></svg>