<svg xmlns="http://www.w3.org/2000/svg" width="1240" height="536.266" viewBox="0 0 1240 536.266"><g transform="translate(-183 -1271.839)"><g transform="translate(3 -1)"><path d="M0,0H1131a109,109,0,0,1,109,109V533.384a0,0,0,0,1,0,0H0a0,0,0,0,1,0,0V0A0,0,0,0,1,0,0Z" transform="translate(180 1274.721)" fill="#e1f3d7"/><g transform="translate(181.04 1740.972)"><path d="M392.974,292.224l-20.493,1.908,7.542,7.542-17.447,17.447a2.433,2.433,0,1,0,3.441,3.441l17.447-17.447,7.6,7.6Z" transform="translate(-361.863 -255.142)" fill="#529d2e"/><path d="M565.865,168.785l-17.495,1.629,6.439,6.439-14.895,14.894a2.077,2.077,0,1,0,2.938,2.937l14.894-14.894,6.49,6.49Z" transform="translate(-512.498 -168.785)" fill="#fcd03e"/></g><g transform="translate(1348.208 1272.839)"><path d="M384.815,292.224,369.7,293.632l5.564,5.565-12.872,12.872a1.8,1.8,0,1,0,2.539,2.539L377.8,301.735l5.608,5.61Z" transform="translate(-357.517 -247.849)" fill="#529d2e"/><path d="M652.883,258.188l-29.308,2.728L634.36,271.7l-24.95,24.95a3.48,3.48,0,1,0,4.921,4.922l24.952-24.952L650.154,287.5Z" transform="translate(-581.091 -218.563)" fill="#fc8116"/><path d="M571.865,168.785l-21.447,2,7.893,7.893-18.259,18.259a2.546,2.546,0,1,0,3.6,3.6l18.259-18.258,7.956,7.957Z" transform="translate(-500.074 -168.785)" fill="#fcd03e"/></g><path d="M5.771,297.19a8.781,8.781,0,0,0,3.614.537,4.588,4.588,0,0,1,1.243.088L4.349,314.68a2.4,2.4,0,0,0,1.41,3.085L23.307,324.3l.741-1.992a3.811,3.811,0,0,0,.236-1.44,7.943,7.943,0,0,1,11.024-7.535,8.017,8.017,0,0,1,4.553,9.578,7.88,7.88,0,0,1-2.05,3.414,3.942,3.942,0,0,0-.948,1.433l-.52,1.4L54.1,335.833a2.946,2.946,0,0,0,3.789-1.732l5.842-15.634,1.212.451c.138.051.276.107.411.17a9.693,9.693,0,1,0,6.512-14.912,3.687,3.687,0,0,1-.766-.193l-1.555-.579,6.5-17.457a2.945,2.945,0,0,0-1.732-3.789L25.756,264.073a2.4,2.4,0,0,0-3.085,1.411l-6.62,17.773a4.754,4.754,0,0,1-.751-.643,8.79,8.79,0,0,0-4.772-2.583A8.941,8.941,0,0,0,5.771,297.19" transform="translate(867.379 1320.66)" fill="#c9eab7"/><g transform="translate(856.385 1314.855)" opacity="0.14"><path d="M373.64,199.428,271.73,213.459l10.791,74.64L383.6,273.861Z" transform="translate(-267.956 -181.842)" fill="#ebebeb"/><path d="M375.872,179.188,275.141,200.068l15.806,73.742,99.885-21.03Z" transform="translate(-269.798 -170.914)" fill="#e0e0e0"/><path d="M360.87,161.2,263.83,195.345l25.51,70.971,96.182-34.178Z" transform="translate(-263.69 -161.203)" fill="#fff"/><g transform="translate(0 0)"><path d="M360.707,161.2c.266.761,9.754,27.948,24.744,70.9l.032.092-.092.032-96.175,34.2-.112.04-.04-.112-.186-.518-25.314-70.457-.037-.1.1-.036,97.077-34.04-97,34.245.066-.139L289.1,265.758l.186.518-.153-.072,96.19-34.158-.06.124Z" transform="translate(-263.527 -161.203)" fill="#263238"/></g><g transform="translate(79.758 13.758)"><path d="M457.05,245.421c-.186.069-4.848-12.035-10.411-27.03s-9.925-27.214-9.738-27.283,4.847,12.032,10.412,27.033S457.236,245.352,457.05,245.421Z" transform="translate(-436.895 -191.107)" fill="#263238"/></g><g transform="translate(71.47 17.546)"><path d="M439.035,253.655c-.186.069-4.849-12.035-10.412-27.03s-9.925-27.214-9.738-27.283,4.847,12.032,10.412,27.033S439.221,253.586,439.035,253.655Z" transform="translate(-418.879 -199.341)" fill="#263238"/></g><g transform="translate(45.739 28.323)"><path d="M383.1,277.082c-.186.069-4.848-12.034-10.412-27.03s-9.925-27.214-9.738-27.283S367.8,234.8,373.367,249.8,383.29,277.013,383.1,277.082Z" transform="translate(-362.948 -222.768)" fill="#263238"/></g><g transform="translate(53.94 25.021)"><path d="M400.931,269.9c-.186.069-4.848-12.035-10.411-27.03s-9.925-27.214-9.739-27.283,4.847,12.032,10.412,27.033S401.116,269.835,400.931,269.9Z" transform="translate(-380.775 -215.59)" fill="#263238"/></g><g transform="translate(62.141 21.718)"><path d="M418.757,262.725c-.186.069-4.848-12.034-10.411-27.03s-9.925-27.214-9.738-27.283,4.847,12.032,10.412,27.033S418.943,262.656,418.757,262.725Z" transform="translate(-398.601 -208.411)" fill="#263238"/></g><g transform="translate(36.239 31.057)"><path d="M362.456,283.023c-.186.069-4.848-12.035-10.411-27.03s-9.925-27.214-9.739-27.283,4.847,12.032,10.412,27.033S362.641,282.954,362.456,283.023Z" transform="translate(-342.3 -228.709)" fill="#263238"/></g><g transform="translate(27.154 34.388)"><path d="M342.708,290.265c-.186.069-4.848-12.034-10.411-27.031s-9.925-27.214-9.739-27.283,4.847,12.032,10.412,27.033S342.893,290.2,342.708,290.265Z" transform="translate(-322.552 -235.951)" fill="#263238"/></g><g transform="translate(18.069 37.72)"><path d="M322.96,297.507c-.186.069-4.848-12.034-10.411-27.03s-9.925-27.214-9.739-27.283,4.847,12.032,10.412,27.033S323.145,297.438,322.96,297.507Z" transform="translate(-302.804 -243.193)" fill="#263238"/></g></g><path d="M512.281,49.085a11.334,11.334,0,0,1-4.711.29,5.975,5.975,0,0,0-1.611-.025l6.217,22.4a3.1,3.1,0,0,1-2.158,3.815l-23.307,6.468-.734-2.645a4.909,4.909,0,0,1-.144-1.879A10.261,10.261,0,0,0,472.48,66.592a10.355,10.355,0,0,0-6.92,11.823,10.193,10.193,0,0,0,2.261,4.62,5.094,5.094,0,0,1,1.062,1.949l.515,1.854-23.592,6.629a3.805,3.805,0,0,1-4.684-2.649L435.334,70.05l-1.611.447c-.182.051-.367.108-.548.172a12.519,12.519,0,1,1-6.729-19.911,4.82,4.82,0,0,0,1.007-.164l2.066-.573-6.435-23.186a3.806,3.806,0,0,1,2.65-4.684l64.494-17.9a3.1,3.1,0,0,1,3.815,2.158l6.551,23.607a6.176,6.176,0,0,0,1.039-.744,11.357,11.357,0,0,1,6.427-2.8,11.55,11.55,0,0,1,4.222,22.61" transform="translate(673.276 1299)" fill="#c9eab7" opacity="0.61"/><path d="M608.509,213.316a14.028,14.028,0,0,0,5.7,1.307,7.421,7.421,0,0,1,1.975.3l-12.135,26.121a3.838,3.838,0,0,0,1.865,5.1l27.179,12.625,1.432-3.085a6.1,6.1,0,0,0,.558-2.268,12.581,12.581,0,0,1,1.158-4.687,12.728,12.728,0,1,1,19.74,15.089,6.306,6.306,0,0,0-1.692,2.167l-1.006,2.164,27.5,12.878a4.714,4.714,0,0,0,6.261-2.29l11.28-24.214,1.877.873q.321.147.635.321a15.512,15.512,0,1,0,12.256-22.975,5.918,5.918,0,0,1-1.2-.4l-2.41-1.12,12.559-27.037a4.712,4.712,0,0,0-2.288-6.261l-75.21-34.935a3.838,3.838,0,0,0-5.1,1.864l-12.788,27.529a7.56,7.56,0,0,1-1.12-1.12,14.069,14.069,0,0,0-7.289-4.72,14.311,14.311,0,0,0-9.738,26.783" transform="translate(656.366 1185.251)" fill="#f3ffed" opacity="0.6"/><path d="M603.788,191.566a5.958,5.958,0,0,1,2.421-.555,3.152,3.152,0,0,0,.839-.126l-5.154-11.095a1.63,1.63,0,0,1,.792-2.166l11.544-5.362.608,1.31a2.592,2.592,0,0,1,.237.963,5.344,5.344,0,0,0,.492,1.991,5.406,5.406,0,1,0,8.384-6.409,2.678,2.678,0,0,1-.719-.92l-.427-.919,11.679-5.47a2,2,0,0,1,2.659.972l4.791,10.285.8-.371q.136-.062.27-.136a6.588,6.588,0,1,1,5.206,9.758,2.515,2.515,0,0,0-.509.172l-1.023.476,5.334,11.484a2,2,0,0,1-.972,2.659l-31.945,14.839a1.63,1.63,0,0,1-2.166-.792L611.5,200.461a3.213,3.213,0,0,0-.476.476,5.976,5.976,0,0,1-3.1,2,6.078,6.078,0,0,1-4.136-11.376" transform="translate(445.646 1506.351)" fill="#f3ffed" opacity="0.6"/><g transform="translate(1288.698 1597.67)" opacity="0.14"><path d="M371.4,199.428,271.73,213.151l10.554,73,98.854-13.925Z" transform="translate(-268.039 -182.229)" fill="#ebebeb"/><path d="M373.656,179.188l-98.516,20.42,15.458,72.12,97.688-20.567Z" transform="translate(-269.915 -171.096)" fill="#e0e0e0"/><path d="M358.736,161.2,263.83,194.595,288.779,264l94.067-33.427Z" transform="translate(-263.693 -161.203)" fill="#fff"/><g transform="translate(0 0)"><path d="M358.57,161.2c.26.744,9.539,27.333,24.2,69.343l.031.09-.089.031-94.06,33.447-.11.039-.04-.11-.182-.506-24.757-68.907-.036-.1.1-.036L358.57,161.2,263.7,194.695l.065-.136,24.777,68.9.182.506-.149-.071,94.074-33.407-.059.121Z" transform="translate(-263.527 -161.203)" fill="#263238"/></g><g transform="translate(78.004 13.455)"><path d="M456.607,244.226c-.182.068-4.741-11.77-10.182-26.436s-9.706-26.615-9.524-26.683,4.74,11.767,10.183,26.439S456.789,244.159,456.607,244.226Z" transform="translate(-436.895 -191.107)" fill="#263238"/></g><g transform="translate(69.898 17.16)"><path d="M438.592,252.46c-.182.067-4.742-11.77-10.183-26.436s-9.706-26.615-9.524-26.683,4.741,11.767,10.183,26.439S438.774,252.393,438.592,252.46Z" transform="translate(-418.879 -199.341)" fill="#263238"/></g><g transform="translate(44.733 27.701)"><path d="M382.661,275.887c-.182.067-4.742-11.77-10.183-26.436s-9.706-26.615-9.524-26.683,4.741,11.767,10.183,26.439S382.843,275.82,382.661,275.887Z" transform="translate(-362.948 -222.768)" fill="#263238"/></g><g transform="translate(52.754 24.471)"><path d="M400.487,268.71c-.182.067-4.741-11.77-10.182-26.436s-9.706-26.615-9.525-26.683,4.74,11.767,10.183,26.438S400.669,268.642,400.487,268.71Z" transform="translate(-380.775 -215.59)" fill="#263238"/></g><g transform="translate(60.775 21.241)"><path d="M418.314,261.531c-.182.067-4.741-11.77-10.182-26.436s-9.706-26.616-9.524-26.683,4.74,11.768,10.183,26.439S418.5,261.463,418.314,261.531Z" transform="translate(-398.602 -208.411)" fill="#263238"/></g><g transform="translate(35.442 30.374)"><path d="M362.012,281.829c-.182.068-4.741-11.77-10.182-26.436s-9.706-26.615-9.525-26.683,4.741,11.768,10.183,26.439S362.194,281.761,362.012,281.829Z" transform="translate(-342.3 -228.709)" fill="#263238"/></g><g transform="translate(26.557 33.632)"><path d="M342.264,289.071c-.182.068-4.741-11.77-10.182-26.436s-9.706-26.615-9.525-26.683,4.741,11.767,10.183,26.439S342.446,289,342.264,289.071Z" transform="translate(-322.552 -235.951)" fill="#263238"/></g><g transform="translate(17.672 36.89)"><path d="M322.516,296.312c-.182.068-4.741-11.769-10.182-26.436s-9.706-26.615-9.525-26.683,4.74,11.767,10.183,26.439S322.7,296.245,322.516,296.312Z" transform="translate(-302.804 -243.193)" fill="#263238"/></g></g></g></g></svg>