<svg xmlns="http://www.w3.org/2000/svg" xmlns:xlink="http://www.w3.org/1999/xlink" width="103" height="103" viewBox="0 0 103 103"><defs><filter id="a" x="0" y="0" width="103" height="103" filterUnits="userSpaceOnUse"><feOffset dy="3" input="SourceAlpha"/><feGaussianBlur stdDeviation="3" result="b"/><feFlood flood-opacity="0.161"/><feComposite operator="in" in2="b"/><feComposite in="SourceGraphic"/></filter></defs><g transform="translate(-226.756 -1360.8)"><g transform="translate(0 10)"><g transform="translate(235.756 1306.8)"><g transform="matrix(1, 0, 0, 1, -9, 44)" filter="url(#a)"><path d="M42.5,0A42.5,42.5,0,1,1,0,42.5,42.5,42.5,0,0,1,42.5,0Z" transform="translate(9 6)" fill="#fdd85e"/></g></g><g transform="translate(233.028 1355.889)"><path d="M326.386,291.83a6.609,6.609,0,0,1,1.612-.7l.332-1.6,2.7-.047.388,1.582a6.607,6.607,0,0,1,1.636.643l1.362-.893,1.939,1.873-.844,1.393a6.6,6.6,0,0,1,.7,1.612l1.6.332.047,2.7-1.583.388a6.6,6.6,0,0,1-.643,1.635l.893,1.362-1.872,1.94-1.393-.845a6.6,6.6,0,0,1-1.612.7l-.332,1.6-2.7.047-.388-1.583a6.6,6.6,0,0,1-1.636-.643l-1.362.893-1.939-1.872.844-1.393a6.6,6.6,0,0,1-.7-1.612l-1.6-.332-.047-2.7,1.583-.388a6.619,6.619,0,0,1,.643-1.635l-.893-1.362,1.872-1.939Zm1.437,3.591a2.892,2.892,0,1,0,4.089-.072,2.892,2.892,0,0,0-4.089.072" transform="translate(-321.787 -232.854)" fill="#529d2e"/><g transform="translate(68.427 64.178)"><path d="M620.879,332.251H608.517a.915.915,0,0,1-.915-.915V320.66a1.08,1.08,0,0,1,1.08-1.08h12.031a1.08,1.08,0,0,1,1.08,1.08v10.676a.915.915,0,0,1-.915.915" transform="translate(-607.56 -319.538)" fill="#e1f3d7"/><path d="M621.794,322.469H607.6V320.66a1.08,1.08,0,0,1,1.08-1.08h12.031a1.08,1.08,0,0,1,1.08,1.08Z" transform="translate(-607.56 -319.538)" fill="#529d2e"/><path d="M615.055,325.426a.517.517,0,1,1-.517-.527.522.522,0,0,1,.517.527" transform="translate(-612.689 -323.788)" fill="#fff"/><path d="M622.953,325.426a.517.517,0,1,1-.517-.527.522.522,0,0,1,.517.527" transform="translate(-619 -323.788)" fill="#fff"/><path d="M630.852,325.426a.517.517,0,1,1-.517-.527.522.522,0,0,1,.517.527" transform="translate(-625.311 -323.788)" fill="#fff"/><path d="M628.506,347.838h-6.743a1.1,1.1,0,0,1-1.1-1.1v-4.706a1.1,1.1,0,0,1,1.1-1.1h6.743a1.1,1.1,0,0,1,1.1,1.1v4.706a1.1,1.1,0,0,1-1.1,1.1" transform="translate(-617.996 -336.6)" fill="#fff"/><path d="M637.925,352.2v-1.061a.341.341,0,0,1,.511-.295l.918.53.919.53a.34.34,0,0,1,0,.59l-.919.53-.918.53a.341.341,0,0,1-.511-.295Z" transform="translate(-631.789 -344.486)" fill="#529d2e"/><path d="M620.89,332.084s.046,0,.134-.017a.733.733,0,0,0,.589-.74c0-.255,0-.549,0-.88,0-1.327-.008-3.243-.013-5.61,0-1.184,0-2.481-.005-3.874q0-.261,0-.527a2.334,2.334,0,0,0-.008-.262.8.8,0,0,0-.072-.246.835.835,0,0,0-.35-.375.878.878,0,0,0-.247-.089,1.371,1.371,0,0,0-.269-.015l-2.288,0-4.913,0h-4.936a2.5,2.5,0,0,0-.331.01.825.825,0,0,0-.674.609,1.172,1.172,0,0,0-.027.322q0,.669,0,1.329,0,1.32,0,2.6c0,1.7,0,3.348,0,4.914q0,.587,0,1.159,0,.286,0,.568,0,.141,0,.281a1.035,1.035,0,0,0,.021.268.7.7,0,0,0,.534.517,1.273,1.273,0,0,0,.262.015h1.062l3.874.005,5.609.013,1.525.008.4,0c.089,0,.135,0,.135,0s-.046,0-.135,0l-.4,0-1.525.008-5.609.013-3.874.005h-1.062a1.331,1.331,0,0,1-.277-.016.771.771,0,0,1-.591-.57,1.11,1.11,0,0,1-.024-.286q0-.14,0-.281,0-.282,0-.568,0-.572,0-1.159c0-1.566,0-3.21,0-4.914q0-1.278,0-2.6,0-.66,0-1.329a1.267,1.267,0,0,1,.03-.343.91.91,0,0,1,.743-.671,2.543,2.543,0,0,1,.344-.011h4.936l4.913,0,2.288,0a1.458,1.458,0,0,1,.283.017.946.946,0,0,1,.268.1.907.907,0,0,1,.379.408.87.87,0,0,1,.077.268,2.3,2.3,0,0,1,.008.271q0,.266,0,.527c0,1.392,0,2.689-.005,3.874-.006,2.367-.01,4.283-.013,5.61,0,.331,0,.625,0,.88a.748.748,0,0,1-.256.579.723.723,0,0,1-.357.17.569.569,0,0,1-.1.009h-.034" transform="translate(-607.391 -319.37)" fill="#e0e0e0"/></g><g transform="translate(66.728 3.332)"><path d="M611.592,28.717H600.05a.915.915,0,0,1-.915-.915V17.858a1.08,1.08,0,0,1,1.08-1.08h11.211a1.08,1.08,0,0,1,1.08,1.08V27.8a.915.915,0,0,1-.915.915" transform="translate(-599.095 -16.739)" fill="#e1f3d7"/><path d="M612.507,19.5H599.135V17.858a1.08,1.08,0,0,1,1.08-1.08h11.211a1.08,1.08,0,0,1,1.08,1.08Z" transform="translate(-599.095 -16.739)" fill="#529d2e"/><path d="M606.157,22.285a.487.487,0,1,1-.487-.5.492.492,0,0,1,.487.5" transform="translate(-603.928 -20.743)" fill="#fff"/><path d="M613.6,22.285a.487.487,0,1,1-.487-.5.492.492,0,0,1,.487.5" transform="translate(-609.874 -20.743)" fill="#fff"/><path d="M621.042,22.285a.487.487,0,1,1-.487-.5.492.492,0,0,1,.487.5" transform="translate(-615.821 -20.743)" fill="#fff"/><path d="M611.655,28.558s.044,0,.126-.016a.691.691,0,0,0,.555-.7c0-.241,0-.518,0-.829,0-1.25-.007-3.055-.013-5.285,0-1.116,0-2.338,0-3.65q0-.246,0-.5a2.142,2.142,0,0,0-.007-.247.75.75,0,0,0-.068-.232.785.785,0,0,0-.329-.353.829.829,0,0,0-.233-.084,1.293,1.293,0,0,0-.254-.014l-2.156,0-4.629,0h-4.651a2.376,2.376,0,0,0-.312.01.779.779,0,0,0-.635.574,1.115,1.115,0,0,0-.025.3q0,.631,0,1.253,0,1.244,0,2.449c0,1.606,0,3.154,0,4.63q0,.553,0,1.093,0,.269,0,.535,0,.133,0,.265a.971.971,0,0,0,.02.253.659.659,0,0,0,.279.394.652.652,0,0,0,.224.093,1.2,1.2,0,0,0,.247.014h1l3.65.005,5.285.012,1.437.007.374,0c.084,0,.127,0,.127,0s-.043,0-.127,0l-.374,0-1.437.007-5.285.012-3.65,0h-1a1.275,1.275,0,0,1-.261-.015.718.718,0,0,1-.248-.1.729.729,0,0,1-.309-.435,1.043,1.043,0,0,1-.022-.269q0-.132,0-.265,0-.266,0-.535,0-.539,0-1.093c0-1.475,0-3.024,0-4.63q0-1.2,0-2.449,0-.622,0-1.253a1.178,1.178,0,0,1,.028-.324.857.857,0,0,1,.7-.632,2.4,2.4,0,0,1,.324-.011h4.651l4.629,0,2.156,0a1.366,1.366,0,0,1,.267.016.9.9,0,0,1,.253.092.854.854,0,0,1,.357.385.821.821,0,0,1,.073.252,2.2,2.2,0,0,1,.007.255q0,.25,0,.5c0,1.312,0,2.534,0,3.65-.005,2.23-.01,4.035-.013,5.285,0,.312,0,.589,0,.829a.705.705,0,0,1-.241.546.682.682,0,0,1-.336.16.552.552,0,0,1-.1.008h-.032" transform="translate(-598.936 -16.579)" fill="#e0e0e0"/><path d="M623.085,44.965h-4.338a.8.8,0,0,1-.8-.8V39.825a.8.8,0,0,1,.8-.8h4.338a.8.8,0,0,1,.8.8v4.338a.8.8,0,0,1-.8.8" transform="translate(-614.125 -34.513)" fill="#fff"/><path d="M617.945,51.954v1.11a.575.575,0,0,0,.575.576h4.78a.586.586,0,0,0,.586-.586V51.269L622.5,49.98a.382.382,0,0,0-.547.029l-1.084,1.243-1.068-.5a.538.538,0,0,0-.586.084Z" transform="translate(-614.125 -43.187)" fill="#455a64"/><path d="M629.728,44.725a.536.536,0,1,1-.536-.536.536.536,0,0,1,.536.536" transform="translate(-622.683 -38.64)" fill="#455a64"/></g><g transform="translate(34.783 47.164)"><path d="M437.155,259.706H417.8a1.266,1.266,0,0,1-1.266-1.266V236.419a1.47,1.47,0,0,1,1.47-1.47h19.15a1.266,1.266,0,0,1,1.266,1.266V258.44a1.266,1.266,0,0,1-1.266,1.266" transform="translate(-416.482 -234.9)" fill="#fff"/><path d="M437.134,259.69H417.78a1.272,1.272,0,0,1-1.271-1.271V236.4a1.477,1.477,0,0,1,1.476-1.475h19.149a1.272,1.272,0,0,1,1.271,1.271v22.225a1.272,1.272,0,0,1-1.271,1.271m-19.149-24.757a1.467,1.467,0,0,0-1.465,1.465v22.021a1.262,1.262,0,0,0,1.261,1.261h19.354a1.262,1.262,0,0,0,1.261-1.261V236.194a1.262,1.262,0,0,0-1.261-1.261Z" transform="translate(-416.461 -234.879)" fill="#e0e0e0"/><path d="M438.421,239.3H416.535v-3.11a1.239,1.239,0,0,1,1.239-1.239h19.244a1.4,1.4,0,0,1,1.4,1.4Z" transform="translate(-416.482 -234.9)" fill="#455a64"/><path d="M426.737,276.217v-4.694a.2.2,0,0,1,.192-.215h3.038l.717-.658a.476.476,0,0,1,.322-.129h2.962a.387.387,0,0,1,.363.407v5.1a.387.387,0,0,1-.363.407h-7.039a.2.2,0,0,1-.192-.215" transform="translate(-424.634 -263.325)" fill="#455a64"/><path d="M429.325,319.8V315.1a.2.2,0,0,1,.192-.215h3.038l.717-.658a.475.475,0,0,1,.322-.129h2.962a.387.387,0,0,1,.363.407v5.1a.387.387,0,0,1-.363.407h-7.039a.2.2,0,0,1-.192-.215" transform="translate(-426.702 -298.147)" fill="#529d2e"/><path d="M476.618,276.217v-4.694a.2.2,0,0,1,.192-.215h3.038l.717-.658a.475.475,0,0,1,.322-.129h2.962a.387.387,0,0,1,.363.407v5.1a.387.387,0,0,1-.363.407H476.81a.2.2,0,0,1-.192-.215" transform="translate(-464.491 -263.325)" fill="#529d2e"/><path d="M476.921,319.8V315.1a.2.2,0,0,1,.192-.215h3.038l.717-.658a.476.476,0,0,1,.322-.129h2.962a.387.387,0,0,1,.363.407v5.1a.387.387,0,0,1-.363.407h-7.039a.2.2,0,0,1-.192-.215" transform="translate(-464.733 -298.147)" fill="#455a64"/><path d="M428.934,244.024a.551.551,0,1,1-.551-.551.551.551,0,0,1,.551.551" transform="translate(-425.509 -241.712)" fill="#fff"/><path d="M428.362,244.561a.556.556,0,1,1,.556-.556.557.557,0,0,1-.556.556m0-1.1a.546.546,0,1,0,.546.546.546.546,0,0,0-.546-.546" transform="translate(-425.488 -241.692)" fill="#e0e0e0"/><path d="M437.158,244.024a.551.551,0,1,1-.551-.551.551.551,0,0,1,.551.551" transform="translate(-432.08 -241.712)" fill="#fff"/><path d="M436.586,244.561a.556.556,0,1,1,.556-.556.557.557,0,0,1-.556.556m0-1.1a.546.546,0,1,0,.546.546.546.546,0,0,0-.546-.546" transform="translate(-432.06 -241.692)" fill="#e0e0e0"/><path d="M445.382,244.024a.551.551,0,1,1-.551-.551.551.551,0,0,1,.551.551" transform="translate(-438.652 -241.712)" fill="#fff"/><path d="M444.811,244.561a.556.556,0,1,1,.556-.556.557.557,0,0,1-.556.556m0-1.1a.546.546,0,1,0,.546.546.546.546,0,0,0-.546-.546" transform="translate(-438.632 -241.692)" fill="#e0e0e0"/><path d="M436.945,259.514c0-.006.081,0,.233-.028a1.265,1.265,0,0,0,1.018-1.3c0-.443,0-.955,0-1.53,0-2.305-.01-5.637-.017-9.753,0-2.059,0-4.314-.007-6.736q0-1.816,0-3.752c0-.16,0-.326,0-.482a1.219,1.219,0,0,0-.817-1.064,1.346,1.346,0,0,0-.476-.067H435.35l-17.707.013a1.419,1.419,0,0,0-1.214,1.037,1.943,1.943,0,0,0-.051.564q0,1.164,0,2.312,0,2.295,0,4.519c0,2.963,0,5.821,0,8.544q0,2.042,0,3.978,0,.968,0,1.906,0,.235,0,.467a1.381,1.381,0,0,0,.05.446,1.23,1.23,0,0,0,.924.853,2.157,2.157,0,0,0,.438.026h.884l1.719,0,3.232,0,9.753.017,2.652.01.69.005c.155,0,.235.005.235.005s-.08,0-.235.005l-.69.005-2.652.01-9.753.017-3.232,0-1.719,0h-.884a2.237,2.237,0,0,1-.455-.027,1.317,1.317,0,0,1-.991-.913,1.469,1.469,0,0,1-.054-.471q0-.233,0-.467,0-.938,0-1.906,0-1.935,0-3.978c0-2.723,0-5.581,0-8.544q0-2.222,0-4.519,0-1.148,0-2.312a2.045,2.045,0,0,1,.055-.592,1.524,1.524,0,0,1,1.3-1.114l17.718,0h1.517a1.447,1.447,0,0,1,.507.073,1.311,1.311,0,0,1,.879,1.147c.009.169,0,.326,0,.489q0,1.935,0,3.752c0,2.421,0,4.676-.006,6.736-.007,4.117-.013,7.448-.016,9.753,0,.576,0,1.087,0,1.53a1.286,1.286,0,0,1-.431,1.008,1.246,1.246,0,0,1-.616.3,1.023,1.023,0,0,1-.175.017h-.059" transform="translate(-416.272 -234.709)" fill="#e0e0e0"/></g><path d="M351.835,39.6h-46.4a2.541,2.541,0,0,1-2.541-2.541V2.8A2.541,2.541,0,0,1,305.431.261h46.4A2.541,2.541,0,0,1,354.376,2.8V37.06a2.541,2.541,0,0,1-2.541,2.541" transform="translate(-290.891 -0.209)" fill="#fff"/><path d="M409,132.619v-6.466a.282.282,0,0,1,.265-.3h4.185l.988-.906a.654.654,0,0,1,.443-.177h4.081a.533.533,0,0,1,.5.561v7.021a.533.533,0,0,1-.5.561h-9.7a.282.282,0,0,1-.265-.3" transform="translate(-375.675 -99.699)" fill="#529d2e"/><path d="M485.546,132.619v-6.466a.282.282,0,0,1,.265-.3H490l.988-.906a.654.654,0,0,1,.443-.177h4.081a.533.533,0,0,1,.5.561v7.021a.533.533,0,0,1-.5.561h-9.7a.282.282,0,0,1-.265-.3" transform="translate(-436.843 -99.699)" fill="#e0e0e0"/><path d="M481.243,64.655V58.189a.282.282,0,0,1,.265-.3h4.185l.988-.906a.653.653,0,0,1,.443-.177H491.2a.533.533,0,0,1,.5.561v7.021a.533.533,0,0,1-.5.561h-9.7a.282.282,0,0,1-.265-.3" transform="translate(-433.404 -45.394)" fill="#529d2e"/><path d="M336.486,65.328V58.862a.282.282,0,0,1,.265-.3h4.185l.988-.906a.654.654,0,0,1,.443-.177h4.081a.533.533,0,0,1,.5.561v7.021a.533.533,0,0,1-.5.561h-9.7a.282.282,0,0,1-.265-.3" transform="translate(-317.736 -45.93)" fill="#529d2e"/><path d="M409,65.328V58.862a.282.282,0,0,1,.265-.3h4.185l.988-.906a.654.654,0,0,1,.443-.177h4.081a.533.533,0,0,1,.5.561v7.021a.533.533,0,0,1-.5.561h-9.7a.282.282,0,0,1-.265-.3" transform="translate(-375.675 -45.93)" fill="#455a64"/><path d="M354.376,6.108H302.89V2.838A2.578,2.578,0,0,1,305.468.26h46.467A2.442,2.442,0,0,1,354.376,2.7Z" transform="translate(-290.891 -0.208)" fill="#529d2e"/><path d="M319.644,11.788a.76.76,0,1,1-.76-.76.76.76,0,0,1,.76.76" transform="translate(-303.063 -8.812)" fill="#fff"/><path d="M331.261,11.788a.76.76,0,1,1-.76-.76.76.76,0,0,1,.76.76" transform="translate(-312.346 -8.812)" fill="#fff"/><path d="M342.878,11.788a.76.76,0,1,1-.76-.76.76.76,0,0,1,.76.76" transform="translate(-321.628 -8.812)" fill="#fff"/><rect width="0.884" height="3.325" transform="translate(53.772 27.902)" fill="#fff"/><rect width="3.325" height="0.884" transform="translate(52.552 29.123)" fill="#fff"/><path d="M351.628,39.392l.115-.008.143-.009.2-.031a2.752,2.752,0,0,0,.537-.161,2.706,2.706,0,0,0,.655-.412,2.5,2.5,0,0,0,.6-.77,2.584,2.584,0,0,0,.275-1.144c0-.863,0-1.86,0-2.981,0-4.487-.01-10.977-.017-19q0-3.008,0-6.295,0-1.642,0-3.348,0-.853,0-1.722a5.5,5.5,0,0,0-.136-1.724A2.482,2.482,0,0,0,352.911.455a2.508,2.508,0,0,0-.824-.314,4.723,4.723,0,0,0-.9-.044h-3.712l-7.748,0-34.5,0a2.49,2.49,0,0,0-2.43,1.938,4.931,4.931,0,0,0-.063,1.119q0,2.267,0,4.5,0,4.471,0,8.8c0,5.771,0,11.338,0,16.641,0,1.324-.01,2.639.008,3.923a2.5,2.5,0,0,0,2.5,2.316l7.309,0,13.119.006,19,.017,5.164.01,1.343.005c.3,0,.458.005.458.005s-.155,0-.458.005l-1.343.005-5.164.01-19,.017-13.119.006-7.309,0a2.591,2.591,0,0,1-2.594-2.4c-.019-1.3-.006-2.6-.01-3.93,0-5.3,0-10.87,0-16.641q0-4.328,0-8.8,0-2.235,0-4.5V2.594c.006-.1.007-.193.017-.289s.024-.192.049-.286A2.6,2.6,0,0,1,305.228,0l34.5,0,7.748,0h3.712a4.8,4.8,0,0,1,.915.046,2.6,2.6,0,0,1,.853.326,2.57,2.57,0,0,1,1.116,1.382,2.755,2.755,0,0,1,.139.879q0,.438,0,.873,0,.869,0,1.722,0,1.706,0,3.348,0,3.283,0,6.295c-.007,8.02-.013,14.51-.017,19,0,1.121,0,2.117-.005,2.981a2.61,2.61,0,0,1-.283,1.156,2.516,2.516,0,0,1-.613.774,2.473,2.473,0,0,1-1.2.568l-.2.029-.143.006-.115,0" transform="translate(-290.684)" fill="#263238"/><g transform="translate(73.559 43.908)"><path d="M640.338,229.8h-6.246a.906.906,0,0,1-.906-.906v-9.22a.906.906,0,0,1,.906-.906h6.246a.906.906,0,0,1,.906.906v9.22a.906.906,0,0,1-.906.906" transform="translate(-633.133 -218.711)" fill="#fff"/><path d="M640.131,229.589a1.1,1.1,0,0,0,.357-.085.91.91,0,0,0,.344-.274.9.9,0,0,0,.184-.563c0-.932-.01-2.271-.017-3.925,0-.829,0-1.736-.006-2.71q0-.731,0-1.51,0-.389,0-.79a3.564,3.564,0,0,0-.011-.4.853.853,0,0,0-.8-.729c-.275,0-.563,0-.848,0h-5.445a.855.855,0,0,0-.854.84q0,.232,0,.463,0,.924,0,1.819c0,1.192,0,2.342,0,3.438s0,2.137,0,3.111a2.22,2.22,0,0,0,.051.7.866.866,0,0,0,.734.57c.1.008.218,0,.325,0l.636,0,3.925.017,1.067.01.277.005c.063,0,.095.005.095.005s-.032,0-.095.005l-.277.005-1.067.01-3.925.017-.636,0c-.11,0-.215,0-.332,0a.949.949,0,0,1-.806-.62,1.018,1.018,0,0,1-.058-.364q0-.179,0-.362c0-.975,0-2.016,0-3.111s0-2.246,0-3.438q0-.894,0-1.819,0-.231,0-.464a.951.951,0,0,1,.132-.47.962.962,0,0,1,.827-.473h5.445c.288,0,.568,0,.853,0a.95.95,0,0,1,.89.814,3.567,3.567,0,0,1,.011.409q0,.4,0,.79,0,.778,0,1.51c0,.974,0,1.882-.006,2.71-.007,1.653-.013,2.993-.017,3.925a.91.91,0,0,1-.832.923c-.063,0-.1,0-.1,0" transform="translate(-632.926 -218.503)" fill="#263238"/><path d="M645.707,234.575c0,.029-1.255.052-2.8.052s-2.8-.023-2.8-.052,1.255-.052,2.8-.052,2.8.023,2.8.052" transform="translate(-638.66 -231.304)" fill="#263238"/><path d="M645.707,229.255c0,.029-1.255.052-2.8.052s-2.8-.023-2.8-.052,1.255-.052,2.8-.052,2.8.023,2.8.052" transform="translate(-638.66 -227.052)" fill="#263238"/><path d="M645.707,239.5c0,.029-1.255.052-2.8.052s-2.8-.024-2.8-.052,1.255-.052,2.8-.052,2.8.023,2.8.052" transform="translate(-638.66 -235.236)" fill="#263238"/><path d="M645.707,244.42c0,.029-1.255.052-2.8.052s-2.8-.023-2.8-.052,1.255-.052,2.8-.052,2.8.023,2.8.052" transform="translate(-638.66 -239.171)" fill="#263238"/><path d="M645.707,249.342c0,.029-1.255.052-2.8.052s-2.8-.023-2.8-.052,1.255-.052,2.8-.052,2.8.023,2.8.052" transform="translate(-638.66 -243.103)" fill="#263238"/><path d="M645.707,254.264c0,.029-1.255.052-2.8.052s-2.8-.023-2.8-.052,1.255-.052,2.8-.052,2.8.023,2.8.052" transform="translate(-638.66 -247.036)" fill="#263238"/><path d="M645.707,259.186c0,.029-1.255.052-2.8.052s-2.8-.023-2.8-.052,1.255-.052,2.8-.052,2.8.023,2.8.052" transform="translate(-638.66 -250.969)" fill="#263238"/><path d="M643.375,264.108a25.671,25.671,0,0,1-3.274,0,25.671,25.671,0,0,1,3.274,0" transform="translate(-638.659 -254.902)" fill="#263238"/></g><path d="M570.822,93.7a5.431,5.431,0,0,0-.776-1.668.542.542,0,0,0,.15-.774.777.777,0,0,0-.215-1.267.512.512,0,0,0-.061-.676,1.493,1.493,0,0,0-.659-.337l-1.4-.439a1.026,1.026,0,0,0-1.3-.564,1.834,1.834,0,0,0-2.209-.082c-2.262-1.989-3.614-1.881-5.593-1.152a2.576,2.576,0,0,0-1.366,1.187,5.4,5.4,0,0,0-1.231.422,1.133,1.133,0,0,0-.637.586c-.094.282.123.663.416.612a2.015,2.015,0,0,0-.906.723.7.7,0,0,0,.283.989,6.378,6.378,0,0,0-.869,1.9.865.865,0,0,0-.072.147.8.8,0,0,0,.349,1.45,1.033,1.033,0,0,0,.491,1.951,1.352,1.352,0,0,0,1.347,2.345,2.783,2.783,0,0,0,2.977,1.2,5.835,5.835,0,0,1,.852-.222c.358-.036.722.067,1.077.012a1.668,1.668,0,0,0,1.231-1.192c.625-.065,1.272-.159,1.983-.283,1.054.955,2.12.174,1.989-.233a3.764,3.764,0,0,0,1.506-.186,2.179,2.179,0,0,0,.744-.429l.089-.1a1,1,0,0,0-.1-1.37.221.221,0,0,1-.065-.16,1.165,1.165,0,0,1,.711-.057.883.883,0,0,0,.692-.128c.181-.16.143-.539-.1-.567a.634.634,0,0,0,.031-.685.441.441,0,0,0,.637-.2,1.1,1.1,0,0,0,0-.757" transform="translate(-491.568 -68.923)" fill="#263238"/><path d="M581.011,99.1l-3.229-1.425c-1.282-.323-2.375,1.156-2.643,2.45a23.5,23.5,0,0,0-.587,4.312,3.346,3.346,0,0,0,1.919,3s-.179,1.331-.179,1.331a1.3,1.3,0,0,0,1.156,1.167c2.979.355,3.341-1.31,3.341-1.31l.785-8.265c.065-.4-.173-1.166-.562-1.264" transform="translate(-507.961 -78.014)" fill="#ae7461"/><path d="M583.458,117.727a2.008,2.008,0,0,0-.475-.158c-.076-.019-.146-.044-.151-.1a.4.4,0,0,1,.084-.22l.31-.552a10.166,10.166,0,0,0,.727-1.455,10.133,10.133,0,0,0-.843,1.393l-.3.557a.448.448,0,0,0-.083.3.194.194,0,0,0,.11.13.517.517,0,0,0,.128.037,1.97,1.97,0,0,0,.495.071" transform="translate(-514.49 -92.085)" fill="#263238"/><path d="M583.774,143.968a7.24,7.24,0,0,0,2.771-.627s-.64,1.331-2.854,1.287Z" transform="translate(-515.265 -114.537)" fill="#6f4439"/><path d="M594.413,110.871c.018.086.324.09.67.182s.618.229.675.163c.026-.032-.013-.116-.116-.211a1.207,1.207,0,0,0-1.024-.263c-.137.034-.211.089-.2.129" transform="translate(-523.832 -88.467)" fill="#263238"/><path d="M579.979,108.876c.043.076.26.034.509.067s.453.111.512.047c.026-.032,0-.1-.08-.182a.744.744,0,0,0-.823-.091c-.1.057-.137.124-.118.16" transform="translate(-512.295 -86.803)" fill="#263238"/><path d="M571.951,98.33a1.51,1.51,0,0,1,.454-.907c.142-.125.315-.213.443-.352.277-.3.286-.752.429-1.134a1.661,1.661,0,0,1,1.131-1.012,9.127,9.127,0,0,0,1.292-.209c.3-.123.541-.364.847-.47a2,2,0,0,1,1.737.525,1.436,1.436,0,0,1-.537,1.113,1.536,1.536,0,0,1-1.184.5c-.344-.013-.735-.128-1,.092s-.223.693-.46.967c-.338.391-1,.166-1.467.382a2.049,2.049,0,0,0-.754.9c-.207.341-.542.685-.937.628a4.513,4.513,0,0,1,0-1.032" transform="translate(-505.858 -75.26)" fill="#263238"/><path d="M598.977,100.563a7.792,7.792,0,0,1,2.878.813,1.417,1.417,0,0,1,.673.568,1.39,1.39,0,0,1,.079.773,7.739,7.739,0,0,1-.9,2.516l-1.083.513c-.77-.263-.276-1.588-.171-2.266a1.618,1.618,0,0,1-.8-1.513,1.791,1.791,0,0,1-.671-1.4" transform="translate(-527.479 -80.354)" fill="#263238"/><path d="M606.694,123.314c.077-.465.66-.5,1.04-.22a.885.885,0,0,1,.272.927,1,1,0,0,1-1.483.8c0-.024.082-.965.171-1.51" transform="translate(-533.509 -98.216)" fill="#ae7461"/><path d="M608.907,126.229c.006,0,.021.02.056.044a.233.233,0,0,0,.171.03.576.576,0,0,0,.342-.469.766.766,0,0,0-.013-.339.269.269,0,0,0-.145-.2.118.118,0,0,0-.146.042c-.023.034-.019.062-.027.063s-.025-.027-.006-.079a.147.147,0,0,1,.065-.075.174.174,0,0,1,.132-.014.326.326,0,0,1,.208.242.79.79,0,0,1,.023.38.6.6,0,0,1-.424.517.249.249,0,0,1-.2-.068c-.036-.039-.038-.07-.033-.071" transform="translate(-535.412 -100.059)" fill="#6f4439"/><path d="M592.243,121a.289.289,0,0,0,.236.328.277.277,0,0,0,.332-.217.29.29,0,0,0-.235-.328.277.277,0,0,0-.332.217" transform="translate(-522.095 -96.511)" fill="#263238"/><path d="M579.038,119.526a.289.289,0,0,0,.235.328.277.277,0,0,0,.332-.217.289.289,0,0,0-.236-.328.277.277,0,0,0-.332.217" transform="translate(-511.544 -95.33)" fill="#263238"/><path d="M579.66,113.96c.024.046.258-.082.537-.024s.449.264.488.23c.019-.014,0-.092-.071-.186a.645.645,0,0,0-.818-.165c-.1.059-.148.124-.136.145" transform="translate(-512.042 -90.88)" fill="#263238"/><path d="M592.986,116.131c.034.048.295-.117.634-.081s.569.244.611.2c.02-.018-.01-.1-.111-.2a.829.829,0,0,0-.483-.217.806.806,0,0,0-.511.12c-.114.075-.158.151-.141.173" transform="translate(-522.689 -92.559)" fill="#263238"/><path d="M589.354,130.019a.423.423,0,0,0-.394-.373.443.443,0,0,0-.368.2.545.545,0,0,0-.072.418l0,.031a.482.482,0,0,0,.524.182.451.451,0,0,0,.307-.455" transform="translate(-519.113 -103.593)" fill="#6f4439"/><path d="M587.423,129.528c.006-.049.329.007.608-.229s.3-.587.35-.582c.021,0,.049.088.027.234a.817.817,0,0,1-.273.489.713.713,0,0,1-.506.171c-.138-.011-.211-.062-.205-.084" transform="translate(-518.246 -102.851)" fill="#263238"/><path d="M537.446,408.04l.395,4.11s-4.48,1.674-4.529,2.5l8.47.023,0-.619-.355-2.115-.523-4.107Z" transform="translate(-475.01 -325.88)" fill="#455a64"/><path d="M566.856,426.081a.354.354,0,0,1,.246.4.341.341,0,0,1-.4.247.374.374,0,0,1-.258-.429.353.353,0,0,1,.442-.211" transform="translate(-501.475 -340.447)" fill="#e0e0e0"/><path d="M541.767,439.415l0-.619-8.124.156s-.385.169-.341.441Z" transform="translate(-474.995 -350.619)" fill="#263238"/><path d="M555.148,428.938c0,.042.213.061.422.2s.32.313.359.3-.025-.261-.28-.421-.51-.111-.5-.072" transform="translate(-492.458 -342.711)" fill="#263238"/><path d="M550.628,430.909c-.01.041.174.113.318.291s.186.368.228.366.069-.241-.115-.46-.431-.238-.432-.2" transform="translate(-488.845 -344.304)" fill="#263238"/><path d="M546.718,433.5c.038.009.1-.2-.012-.434s-.307-.323-.325-.288.105.159.192.35.1.368.146.372" transform="translate(-485.45 -345.803)" fill="#263238"/><path d="M553.648,423.568c.018.039.212-.02.451,0s.426.091.448.054-.158-.187-.44-.2-.48.119-.459.152" transform="translate(-491.258 -338.328)" fill="#263238"/><path d="M589.373,408.716l.363,4.04s-4.411,1.617-4.464,2.43l8.321.074v-.608l-.336-2.079-.49-4.038Z" transform="translate(-516.527 -326.439)" fill="#455a64"/><path d="M618.313,426.443a.348.348,0,0,1,.239.4.334.334,0,0,1-.392.24.367.367,0,0,1-.251-.422.347.347,0,0,1,.436-.2" transform="translate(-542.597 -340.737)" fill="#e0e0e0"/><path d="M593.58,439.586v-.609l-7.982.1s-.38.163-.338.431Z" transform="translate(-516.515 -350.764)" fill="#263238"/><path d="M606.8,429.174c0,.042.209.061.413.2s.312.31.351.293-.023-.257-.273-.415-.5-.112-.491-.074" transform="translate(-533.73 -342.899)" fill="#263238"/><path d="M602.349,431.081c-.01.04.17.111.311.288s.181.363.222.361.069-.237-.11-.453-.422-.236-.423-.2" transform="translate(-530.173 -344.441)" fill="#263238"/><path d="M598.493,433.6c.038.009.1-.2-.01-.427s-.3-.319-.318-.285.1.157.186.345.1.362.141.366" transform="translate(-526.828 -345.894)" fill="#263238"/><path d="M605.356,423.9c.017.038.208-.019.443,0s.418.092.44.056-.154-.185-.431-.2-.472.114-.452.146" transform="translate(-532.575 -338.596)" fill="#263238"/><path d="M544.568,230.973s-2.008,5.815-2.077,10.14a138.694,138.694,0,0,0,.761,18.791c.9,7.587,1.315,10.636,1.315,10.636h4.569a89.487,89.487,0,0,0,.415-9.005c-.069-4.255-.4-5.6.007-10.282s1.055-7.491,1.736-8.909a9.765,9.765,0,0,0,2.024-5.317,14.993,14.993,0,0,0-.95-5.718Z" transform="translate(-482.315 -184.559)" fill="#263238"/><path d="M573.179,240.182c.076.233,1.432,9.766,2.421,13.971s2.089,5.318,2.282,8.738a63.241,63.241,0,0,0,1.3,8.7h4.865s-.684-7.272-1.368-12.956-1.672-12.692-1.52-14.794a28.406,28.406,0,0,0,0-7.644c-.532-2.946-1.683-3.722-1.683-3.722l-4.128-.187Z" transform="translate(-506.865 -185.61)" fill="#263238"/><path d="M582.6,244.434a.992.992,0,0,1,.075.148,2.922,2.922,0,0,1,.165.448,5.923,5.923,0,0,1,.16,1.742,11.5,11.5,0,0,1-.4,2.565,8.228,8.228,0,0,1-.531,1.443,10.277,10.277,0,0,1-.879,1.395,8.464,8.464,0,0,0-1.235,2.885,20.525,20.525,0,0,0-.462,2.544c-.09.732-.144,1.327-.184,1.737q-.03.3-.047.473a1.017,1.017,0,0,1-.023.164,1.031,1.031,0,0,1,0-.166q.011-.176.028-.474c.028-.412.071-1.008.152-1.742a19.527,19.527,0,0,1,.442-2.558,12.454,12.454,0,0,1,.46-1.466,7.231,7.231,0,0,1,.34-.742,7.724,7.724,0,0,1,.442-.713,10.319,10.319,0,0,0,.874-1.381,8.258,8.258,0,0,0,.53-1.424,11.786,11.786,0,0,0,.419-2.543,6.183,6.183,0,0,0-.127-1.73,3.477,3.477,0,0,0-.145-.449,1,1,0,0,1-.056-.156" transform="translate(-511.703 -195.314)" fill="#455a64"/><path d="M563.028,151.164l-3.777-.3s-4.213,3.355-5.078,7.631-1.85,8.546-1.85,8.546l7.688.947a8.859,8.859,0,0,0,2.408-.033l.8-.121-.659-2.715s1.218-5.136,1.694-7.071a8.075,8.075,0,0,0-1.229-6.881" transform="translate(-490.201 -120.545)" fill="#529d2e"/><path d="M557.154,182.488l-3.117,6.107a2.61,2.61,0,0,0,1.931-.957,8.768,8.768,0,0,0,1.295-2.039,16.216,16.216,0,0,0,2.005-5.758,22.207,22.207,0,0,0-2.114,2.647" transform="translate(-491.57 -143.701)"/><rect width="5.231" height="8.754" transform="translate(62.467 36.14)" fill="none"/><path d="M604.36,159.136s3.915,9.1,3.595,10.3a2.02,2.02,0,0,1-2.4,1.614,18.106,18.106,0,0,1-2.911-1.715Z" transform="translate(-530.41 -127.157)" fill="#529d2e"/><path d="M504.637,163.336V155.1a.359.359,0,0,1,.337-.378h5.332l1.258-1.154a.834.834,0,0,1,.564-.226h5.2a.679.679,0,0,1,.637.714V163a.679.679,0,0,1-.637.714H504.974a.359.359,0,0,1-.337-.378" transform="translate(-452.097 -122.528)" fill="#455a64"/><path d="M502.529,174.121a1.821,1.821,0,0,1,.353.143,1.755,1.755,0,0,0-.288-.671,2.021,2.021,0,0,1-.247-.556c-.027-.377.261-.656.5-.228a3.375,3.375,0,0,0,.469.576c.531.517,2.244,2.381,2.244,2.381l-1.323,1.726a13.834,13.834,0,0,1-2.519-.377c-.7-.215-.979-.479-.984-.642s.274-.261.274-.261a.793.793,0,0,1-.141-.471c.033-.219.334-.325.334-.325a1.119,1.119,0,0,1-.108-.423c-.006-.225.277-.493.277-.493a.378.378,0,0,1-.207-.581c.074-.115.293-.172.7-.044.25.08.668.247.668.247" transform="translate(-448.98 -137.911)" fill="#ae7461"/><path d="M516.136,157.368c.046.067,4.539,2.637,4.539,2.637s2.1-4,2.778-5.4c.665-1.381,1.485-3.346,2.56-3.952a4.919,4.919,0,0,1,2.84-.235l-.717,5.212-1.744,3.756s-2.07,4.138-3.205,5.1a3.157,3.157,0,0,1-3.373.1c-.733-.428-5.533-4.565-5.533-4.565Z" transform="translate(-459.802 -120.1)" fill="#529d2e"/><path d="M552.845,177.094a.634.634,0,0,1-.045.124l-.148.348c-.132.3-.326.735-.575,1.268-.5,1.065-1.211,2.524-2.058,4.105a16.1,16.1,0,0,1-1.3,2.174,4.515,4.515,0,0,1-.777.795,2.663,2.663,0,0,1-.86.449,2.878,2.878,0,0,1-1.39.073,2.625,2.625,0,0,1-.367-.1.618.618,0,0,1-.122-.051c0-.01.174.056.5.11a2.946,2.946,0,0,0,1.36-.1,2.616,2.616,0,0,0,.829-.446,4.5,4.5,0,0,0,.754-.786,16.766,16.766,0,0,0,1.284-2.164c.846-1.579,1.57-3.031,2.083-4.088l.6-1.253.166-.34a.647.647,0,0,1,.064-.116" transform="translate(-484.512 -141.506)" fill="#263238"/><path d="M606.536,177.682a1.263,1.263,0,0,1-.021.3c-.024.192-.063.468-.116.808-.106.681-.266,1.62-.462,2.654s-.392,1.967-.551,2.638c-.081.335-.147.606-.2.792a1.655,1.655,0,0,1-.091.286,1.635,1.635,0,0,1,.051-.3l.168-.8c.141-.674.325-1.608.521-2.641l.492-2.647.149-.8a2.4,2.4,0,0,1,.062-.293" transform="translate(-532.366 -141.976)" fill="#263238"/><path d="M601.28,115.6a3.794,3.794,0,0,1,1.743.376,1.782,1.782,0,0,1,.979,1.416,1.182,1.182,0,0,1-1.043,1.236,1.416,1.416,0,0,1-.617,2.686,1.236,1.236,0,0,1,.21,1.847,3.032,3.032,0,0,1-1.913.859,2.6,2.6,0,0,1-4.673-.215,1.542,1.542,0,0,1-.056-3.082,1.251,1.251,0,0,1,.326-1.133,1.373,1.373,0,0,1,1.312-.457s.671.007.89-.448a7.2,7.2,0,0,0,.359-1.554Z" transform="translate(-523.866 -92.371)" fill="#263238"/><g transform="translate(2.852 39.023)"><path d="M248.678,34.161h-6.246a.906.906,0,0,1-.906-.906v-9.22a.906.906,0,0,1,.906-.906h6.246a.906.906,0,0,1,.906.906v9.22a.906.906,0,0,1-.906.906" transform="translate(-241.473 -23.076)" fill="#fff"/><path d="M248.471,33.953a1.1,1.1,0,0,0,.357-.085.91.91,0,0,0,.344-.274.9.9,0,0,0,.184-.563c0-.932-.01-2.271-.017-3.925,0-.829,0-1.736-.006-2.71q0-.731,0-1.51,0-.389,0-.79a3.55,3.55,0,0,0-.011-.4.854.854,0,0,0-.8-.729c-.275,0-.563,0-.848,0h-5.445a.855.855,0,0,0-.854.84q0,.232,0,.463,0,.924,0,1.819c0,1.192,0,2.342,0,3.438s0,2.137,0,3.111a2.224,2.224,0,0,0,.051.7.866.866,0,0,0,.734.57c.1.008.218,0,.325,0l.636,0,3.925.017,1.067.01.277.005c.063,0,.095.005.095.005s-.032,0-.095.005l-.277.005-1.067.01-3.925.017-.636,0c-.11,0-.215,0-.332,0a.949.949,0,0,1-.806-.62,1.021,1.021,0,0,1-.058-.364q0-.179,0-.362c0-.975,0-2.016,0-3.111s0-2.246,0-3.438q0-.894,0-1.819v-.464a.951.951,0,0,1,.132-.47.961.961,0,0,1,.827-.473h5.445c.288,0,.568,0,.853,0a.95.95,0,0,1,.89.814,3.533,3.533,0,0,1,.011.409q0,.4,0,.79,0,.778,0,1.51c0,.974,0,1.881-.006,2.71-.007,1.653-.013,2.993-.017,3.925a.91.91,0,0,1-.832.923c-.063,0-.1,0-.1,0" transform="translate(-241.266 -22.868)" fill="#263238"/><path d="M254.047,38.941c0,.029-1.255.052-2.8.052s-2.8-.023-2.8-.052,1.255-.052,2.8-.052,2.8.023,2.8.052" transform="translate(-247 -35.67)" fill="#263238"/><path d="M254.047,33.62c0,.029-1.255.052-2.8.052s-2.8-.023-2.8-.052,1.255-.052,2.8-.052,2.8.023,2.8.052" transform="translate(-247 -31.418)" fill="#263238"/><path d="M254.047,43.863c0,.029-1.255.052-2.8.052s-2.8-.023-2.8-.052,1.255-.052,2.8-.052,2.8.023,2.8.052" transform="translate(-247 -39.602)" fill="#263238"/><path d="M254.047,48.785c0,.029-1.255.052-2.8.052s-2.8-.023-2.8-.052,1.255-.052,2.8-.052,2.8.023,2.8.052" transform="translate(-247 -43.536)" fill="#263238"/><path d="M254.047,53.707c0,.029-1.255.052-2.8.052s-2.8-.023-2.8-.052,1.255-.052,2.8-.052,2.8.023,2.8.052" transform="translate(-247 -47.468)" fill="#263238"/><path d="M254.047,58.629c0,.029-1.255.052-2.8.052s-2.8-.023-2.8-.052,1.255-.052,2.8-.052,2.8.023,2.8.052" transform="translate(-247 -51.401)" fill="#263238"/><path d="M254.047,63.551c0,.029-1.255.052-2.8.052s-2.8-.023-2.8-.052,1.255-.052,2.8-.052,2.8.023,2.8.052" transform="translate(-247 -55.334)" fill="#263238"/><path d="M251.716,68.474a25.664,25.664,0,0,1-3.274,0,25.667,25.667,0,0,1,3.274,0" transform="translate(-247 -59.268)" fill="#263238"/></g><g transform="translate(7.012 20.96)"><g transform="translate(0 0)"><path d="M390.965,248.494a27.058,27.058,0,0,1-3.36,0,27.027,27.027,0,0,1,3.36,0" transform="translate(-349.257 -219.478)" fill="#455a64"/><path d="M382.5,177.581a.485.485,0,0,1,0,.072c0,.053,0,.119,0,.2,0,.184.006.439.011.761.005.661.013,1.6.022,2.73l-.042-.042,5.579-.01-.052.052h0v-.5q0-.248,0-.493,0-.49,0-.963c0-.63,0-1.236,0-1.81l.048.048-4.007-.024-1.152-.013-.309-.006a.9.9,0,0,1-.11-.006.619.619,0,0,1,.1-.006l.3-.006,1.142-.013,4.039-.024h.048v.048c0,.574,0,1.18,0,1.81q0,.473,0,.963,0,.245,0,.493v.5h0l-.053.053-5.579-.01h-.042v-.042c.009-1.146.017-2.089.022-2.756,0-.318.008-.57.011-.752,0-.079,0-.143,0-.194a.293.293,0,0,1,0-.063" transform="translate(-345.148 -162.817)" fill="#263238"/><path d="M272.173,140.734c0-2.265-.009-4.529,0-6.794a5.3,5.3,0,0,1,2.919-4.952,3.671,3.671,0,0,1,2.806,0,4.6,4.6,0,0,1,2.18,2.025,6.5,6.5,0,0,1,.739,3.261v26.87c0,.452-.01.905.007,1.357a10.056,10.056,0,0,0,2.616,6.531,7.3,7.3,0,0,0,5.741,2.364,7.649,7.649,0,0,0,5.514-3.169,10.259,10.259,0,0,0,1.952-6.131c0-.87,0-1.741,0-2.611v-9.206a.5.5,0,0,0-1,0v11.045c0,.26,0,.521,0,.781a9.877,9.877,0,0,1-.484,3.068,7.8,7.8,0,0,1-3.992,4.707,5.954,5.954,0,0,1-5.641-.419,8.236,8.236,0,0,1-3.484-5.257,12.2,12.2,0,0,1-.22-2.638V134.609a10.312,10.312,0,0,0-.18-2.288,5.72,5.72,0,0,0-4.442-4.558,5.208,5.208,0,0,0-5.345,3.107,7.216,7.216,0,0,0-.687,3.082c0,.424,0,.849,0,1.274v5.509a.5.5,0,0,0,1,0" transform="translate(-256.218 -123.009)" fill="#263238"/><rect width="1.658" height="4.098" transform="translate(39.217 27.905)" fill="#263238"/><path d="M385.021,206.967l1.445-3.91v-6.543h-6.287l-.157,6.574,1.419,3.88Z" transform="translate(-343.198 -177.984)" fill="#263238"/><rect width="5.579" height="3.766" transform="translate(37.357 14.763)" fill="#e0e0e0"/><rect width="0.776" height="0.776" transform="translate(41.299 16.586)" fill="#263238"/><rect width="0.776" height="0.776" transform="translate(38.514 16.586)" fill="#263238"/><path d="M391.349,218.391l-1.3-.7v-.728h.2v.607l1.193.639Z" transform="translate(-351.211 -194.328)" fill="#fff"/><rect width="0.201" height="2.76" transform="translate(40.085 22.062)" fill="#fff"/><path d="M396.6,215.366l-.1-.174,1.244-.718v-.623h.2v.739Z" transform="translate(-356.364 -191.838)" fill="#fff"/><path d="M389.423,214.218a.366.366,0,1,1-.367-.367.367.367,0,0,1,.367.367" transform="translate(-350.124 -191.838)" fill="#fff"/><path d="M395.646,211.215a.366.366,0,1,1-.367-.367.367.367,0,0,1,.367.367" transform="translate(-355.097 -189.438)" fill="#fff"/><path d="M402.03,211.066a.366.366,0,1,1-.367-.366.367.367,0,0,1,.367.366" transform="translate(-360.198 -189.32)" fill="#fff"/><path d="M264.345,184.282h-6.36v-5.551a.958.958,0,0,1,.959-.958h4.443a.958.958,0,0,1,.959.958Z" transform="translate(-245.684 -163.009)" fill="#263238"/><rect width="1.544" height="0.838" transform="translate(14.709 13.925)" fill="#263238"/><path d="M266.522,177.565c0,.029-1.1.052-2.449.052s-2.449-.023-2.449-.052,1.1-.052,2.449-.052,2.449.023,2.449.052" transform="translate(-248.592 -162.802)" fill="#455a64"/><path d="M225.241,256.151H200.087a3.053,3.053,0,0,1-3.053-3.053V213.219a3.053,3.053,0,0,1,3.053-3.053h25.154a3.053,3.053,0,0,1,3.053,3.053V253.1a3.053,3.053,0,0,1-3.053,3.053" transform="translate(-196.982 -188.893)" fill="#455a64"/><path d="M225.033,255.942l.1-.008c.064-.007.161,0,.287-.025a3.066,3.066,0,0,0,1.067-.346,3.274,3.274,0,0,0,.664-.494,3.135,3.135,0,0,0,.59-.8,3,3,0,0,0,.318-1.115c.014-.207.014-.423.012-.646s0-.452,0-.688c0-3.777-.01-9.241-.017-15.992,0-3.376,0-7.074-.006-11.043q0-2.977,0-6.152,0-1.586,0-3.217,0-.815,0-1.642c0-.275,0-.553,0-.828a3.144,3.144,0,0,0-.127-.809,3.024,3.024,0,0,0-.888-1.374,2.851,2.851,0,0,0-.694-.459,3.262,3.262,0,0,0-.389-.157,3.213,3.213,0,0,0-.41-.095,4.719,4.719,0,0,0-.849-.044H199.883a3.263,3.263,0,0,0-.933.148,3.023,3.023,0,0,0-1.925,1.927,3.257,3.257,0,0,0-.147.921q0,.475,0,.949v1.888q0,3.764,0,7.41c0,4.858,0,9.545,0,14.009s0,8.706,0,12.676q0,1.489,0,2.926a3.025,3.025,0,0,0,2.391,2.974,6.738,6.738,0,0,0,1.327.065l2.592,0,15.991.017,4.348.01,1.131.005c.255,0,.385.005.385.005s-.13,0-.385.005l-1.131.005-4.348.01-15.991.017-2.592,0a6.813,6.813,0,0,1-1.343-.065,3.106,3.106,0,0,1-2.459-3.051q0-1.437,0-2.926c0-3.97,0-8.212,0-12.676s0-9.15,0-14.009q0-3.644,0-7.41,0-.941,0-1.888,0-.474,0-.95a3.354,3.354,0,0,1,.152-.953,3.126,3.126,0,0,1,1.992-1.994,3.359,3.359,0,0,1,.965-.154h24.795a4.812,4.812,0,0,1,.865.046,3.274,3.274,0,0,1,.423.1,3.338,3.338,0,0,1,.4.162,2.945,2.945,0,0,1,.717.475,3.12,3.12,0,0,1,.915,1.419,3.239,3.239,0,0,1,.131.834c.007.279,0,.554,0,.83q0,.826,0,1.642,0,1.631,0,3.217,0,3.172,0,6.152c0,3.97,0,7.667-.006,11.043-.007,6.751-.013,12.215-.016,15.992q0,.354,0,.688c0,.222,0,.439-.015.649a3.026,3.026,0,0,1-.326,1.126,3.164,3.164,0,0,1-.6.807,3.277,3.277,0,0,1-.672.493,3.028,3.028,0,0,1-1.076.338,2.573,2.573,0,0,1-.288.019l-.1,0" transform="translate(-196.774 -188.684)" fill="#263238"/><path d="M272.9,231.535h0a.482.482,0,0,1-.482-.481v-2.187a.481.481,0,1,1,.963,0v2.187a.481.481,0,0,1-.481.481" transform="translate(-257.216 -203.451)" fill="#fff"/><path d="M295.477,408.45h-5.1a1.3,1.3,0,1,1,0-2.595h5.1a1.3,1.3,0,0,1,0,2.595" transform="translate(-270.53 -345.258)" fill="#263238"/><rect width="7.696" height="2.595" transform="translate(18.549 60.597)" fill="#fff"/><path d="M274.519,408.45h0a1.3,1.3,0,1,1,1.3-1.3,1.3,1.3,0,0,1-1.3,1.3" transform="translate(-257.859 -345.258)" fill="#263238"/><rect width="2.595" height="2.595" transform="translate(15.363 60.597)" fill="#fff"/><path d="M246.893,105.817a.434.434,0,0,1-.078.005l-.23.005-.884.01-3.252.017-4.823.011-1.394,0h-.358a1.271,1.271,0,0,0-.346.026.821.821,0,0,0-.512.433.943.943,0,0,0-.1.338c-.008.115,0,.247,0,.37q0,.377,0,.759,0,.765,0,1.551c-.006,4.188-.011,7.979-.015,10.73-.007,1.368-.013,2.478-.016,3.252,0,.379-.008.676-.01.884,0,.1,0,.173-.005.23a.439.439,0,0,1-.005.078.426.426,0,0,1-.005-.078c0-.057,0-.133-.005-.23,0-.208-.006-.5-.01-.884,0-.774-.01-1.883-.017-3.252,0-2.751-.009-6.542-.015-10.73q0-.786,0-1.551,0-.383,0-.759c0-.127,0-.246.005-.38a1.045,1.045,0,0,1,.107-.374.924.924,0,0,1,.578-.485,1.377,1.377,0,0,1,.372-.029h.358l1.394,0,4.823.011,3.252.017.884.01.23.005a.437.437,0,0,1,.078.005" transform="translate(-227.168 -105.473)" fill="#263238"/><path d="M293.1,104.759a.455.455,0,1,1-.455-.455.455.455,0,0,1,.455.455" transform="translate(-273.017 -104.304)" fill="#263238"/><path d="M233.972,197.275a.455.455,0,1,1-.455-.455.455.455,0,0,1,.455.455" transform="translate(-225.771 -178.229)" fill="#263238"/></g><path d="M395.651,227.433a.366.366,0,1,1-.367-.367.367.367,0,0,1,.367.367" transform="translate(-355.1 -202.397)" fill="#fff"/></g></g></g></g></svg>