<svg xmlns="http://www.w3.org/2000/svg" xmlns:xlink="http://www.w3.org/1999/xlink" width="103" height="106.674" viewBox="0 0 103 106.674"><defs><filter id="a" x="0" y="3.674" width="103" height="103" filterUnits="userSpaceOnUse"><feOffset dy="3" input="SourceAlpha"/><feGaussianBlur stdDeviation="3" result="b"/><feFlood flood-opacity="0.161"/><feComposite operator="in" in2="b"/><feComposite in="SourceGraphic"/></filter><clipPath id="c"><rect width="3.617" height="3.117" fill="none"/></clipPath><clipPath id="e"><rect width="17.091" height="14.157" fill="none"/></clipPath><clipPath id="f"><rect width="6.176" height="2.598" fill="none"/></clipPath></defs><g transform="translate(-226.756 -1579.457)"><g transform="translate(0 -10.092)"><g transform="matrix(1, 0, 0, 1, 226.76, 1589.55)" filter="url(#a)"><path d="M42.5,0A42.5,42.5,0,1,1,0,42.5,42.5,42.5,0,0,1,42.5,0Z" transform="translate(9 9.67)" fill="#fdd85e"/></g></g><g transform="translate(2923.689 11334.608)"><g transform="translate(-2647.888 -9696.727)"><path d="M84.654,12.852a14.325,14.325,0,1,1,2.771,12.8,14.251,14.251,0,0,1-2.771-12.8m26.752,7.155a13.36,13.36,0,1,0-4.419,6.874,13.364,13.364,0,0,0,4.419-6.874" transform="translate(-72.92 -1.511)" fill="#e0e0e0"/><path d="M83.695,10.632A14.329,14.329,0,1,1,106.637,25.4a14.327,14.327,0,0,1-22.942-14.77m26.752,7.155a13.36,13.36,0,1,0-4.419,6.874,13.364,13.364,0,0,0,4.419-6.874" transform="translate(-72.268 -0.001)" fill="#f5f5f5"/><path d="M49.747,84.937l-.227-.249c-.485-.534-.632-1.191-.328-1.467L62.934,70.737c.068-.061.21-.015.319.1l1.592,1.752c.108.119.141.266.073.327L51.176,85.405c-.3.276-.943.067-1.429-.468" transform="translate(-49.034 -48.072)" fill="#f5f5f5"/></g><path d="M150.442,126.876a1.465,1.465,0,0,0,1.1-1.757L148.682,112.7a1.216,1.216,0,0,0-1.485-.863l-1.167.269a1.261,1.261,0,0,1-1.262-.409l-.368-.451a1.261,1.261,0,0,0-1.262-.409l-5.542,1.276a1.273,1.273,0,0,0-.922.8l-.173.494a1.272,1.272,0,0,1-.922.8l-7.065,1.627a1.216,1.216,0,0,0-.958,1.425l2.924,12.7a1.465,1.465,0,0,0,1.757,1.1Z" transform="translate(-2799.431 -9865.164)" fill="#3c771f"/><path d="M136.261,112.374l4.492-1.045.229-.843a1.591,1.591,0,0,1,1.191-1.111l4.393-1.012a1.409,1.409,0,0,1,1.721,1l.118.512,3.105,13.481a1.6,1.6,0,0,1-1.262,1.877L132.4,129.343a1.6,1.6,0,0,1-1.956-1.136l-2.933-12.735a1.056,1.056,0,0,1,.792-1.266Z" transform="translate(-2799.385 -9863.476)" fill="#529d2e"/><path d="M0,0H4.585V10.9H0Z" transform="matrix(-0.224, -0.974, 0.974, -0.224, -2664.998, -9740.688)" fill="#e1eed9"/><path d="M154.98,140.946c.009.04,1.65-.3,3.665-.769s3.641-.872,3.632-.912-1.65.3-3.665.769-3.641.872-3.632.912" transform="translate(-2818.918 -9893.652)" fill="#e0e0e0"/><path d="M154.295,143.919c.009.039,1.65-.3,3.665-.769s3.641-.872,3.632-.912-1.65.3-3.665.769-3.641.872-3.632.912" transform="translate(-2818.014 -9895.672)" fill="#e0e0e0"/><g transform="translate(-2683.352 -9691.776)"><path d="M240.24,30.375a1.466,1.466,0,0,1-1.1-1.757L242,16.2a1.216,1.216,0,0,1,1.485-.863l1.167.269a1.261,1.261,0,0,0,1.262-.409l.368-.451a1.261,1.261,0,0,1,1.262-.409l5.542,1.276a1.273,1.273,0,0,1,.922.8l.173.494a1.272,1.272,0,0,0,.922.8l7.065,1.627a1.216,1.216,0,0,1,.958,1.425l-2.924,12.7a1.465,1.465,0,0,1-1.757,1.1Z" transform="translate(-239.09 -13.51)" fill="#3c771f"/><path d="M254.406,15.872l-4.492-1.045-.229-.843a1.591,1.591,0,0,0-1.191-1.111L244.1,11.862a1.409,1.409,0,0,0-1.721,1l-.118.512-3.105,13.481a1.6,1.6,0,0,0,1.262,1.877l17.843,4.109a1.6,1.6,0,0,0,1.956-1.136l2.933-12.735a1.056,1.056,0,0,0-.792-1.266Z" transform="translate(-239.121 -11.822)" fill="#529d2e"/><rect width="10.898" height="4.585" transform="matrix(-0.974, -0.224, 0.224, -0.974, 17.159, 14.464)" fill="#e1f3d7"/><path d="M271.277,44.445c-.009.04-1.65-.3-3.665-.769s-3.641-.872-3.632-.912,1.65.3,3.665.769,3.641.872,3.632.912" transform="translate(-255.178 -32.856)" fill="#12263f"/><path d="M271.962,47.418c-.009.039-1.65-.3-3.665-.769s-3.641-.872-3.632-.912,1.65.3,3.665.769,3.641.872,3.632.912" transform="translate(-256.082 -34.877)" fill="#12263f"/></g><path d="M356.408,50.386a7.466,7.466,0,0,0-1.82-.791l-.375-1.8-3.044-.053-.438,1.787a7.46,7.46,0,0,0-1.847.726l-1.538-1.008-2.19,2.114.954,1.572a7.454,7.454,0,0,0-.791,1.82l-1.8.375-.054,3.044,1.787.438a7.452,7.452,0,0,0,.727,1.847l-1.008,1.538,2.114,2.19,1.573-.954a7.448,7.448,0,0,0,1.82.791l.375,1.8,3.044.053.438-1.787a7.459,7.459,0,0,0,1.846-.726l1.538,1.008,2.19-2.114-.953-1.572a7.459,7.459,0,0,0,.791-1.82l1.8-.375.053-3.044-1.787-.438a7.471,7.471,0,0,0-.726-1.846l1.008-1.538-2.114-2.19Zm-1.623,4.055a3.265,3.265,0,1,1-4.617-.081,3.265,3.265,0,0,1,4.617.081" transform="translate(-3028.656 -9770.416)" fill="#455a64"/><g transform="translate(-2677.102 -9730.07)" opacity="0.3"><g transform="translate(0 0)"><g clip-path="url(#c)"><path d="M211.2,218.336h-3.617l.009-3.117H211.2Z" transform="translate(-207.586 -215.219)"/></g></g></g><g transform="translate(-2677.102 -9700.803)" opacity="0.3"><g transform="translate(0 0)"><g clip-path="url(#c)"><path d="M211.2,309.747h-3.617l.009-3.117H211.2Z" transform="translate(-207.586 -306.63)"/></g></g></g><path d="M16.168,244.628a1.076,1.076,0,0,0,.912-1.219l-1.332-9.261a.893.893,0,0,0-1.034-.722l-.871.125a.927.927,0,0,1-.9-.377l-.241-.353a.927.927,0,0,0-.9-.377l-4.134.595a.935.935,0,0,0-.724.532l-.157.351a.934.934,0,0,1-.724.532l-5.27.758a.893.893,0,0,0-.788.984l1.362,9.472a1.076,1.076,0,0,0,1.219.912Z" transform="translate(-2624.114 -9956.992)" fill="#455a64"/><g transform="translate(-2624.113 -9724.559)"><g clip-path="url(#e)"><path d="M16.168,244.628a1.076,1.076,0,0,0,.912-1.219l-1.332-9.261a.893.893,0,0,0-1.034-.722l-.871.125a.927.927,0,0,1-.9-.377l-.241-.353a.927.927,0,0,0-.9-.377l-4.134.595a.935.935,0,0,0-.724.532l-.157.351a.934.934,0,0,1-.724.532l-5.27.758a.893.893,0,0,0-.788.984l1.362,9.472a1.076,1.076,0,0,0,1.219.912Z" transform="translate(0 -232.435)"/></g></g><path d="M6.625,233.593l3.351-.489.219-.6a1.168,1.168,0,0,1,.939-.74l3.277-.471a1.034,1.034,0,0,1,1.2.837l.055.382,1.446,10.056a1.176,1.176,0,0,1-1.038,1.3l-13.31,1.914a1.175,1.175,0,0,1-1.361-.951l-1.366-9.5a.775.775,0,0,1,.657-.878Z" transform="translate(-2624.152 -9956.206)" fill="#455a64"/><rect width="3.367" height="8.003" transform="translate(-2619.733 -9715.145) rotate(-98.183)" fill="#fff"/><path d="M19.73,253.8c0,.029,1.226-.122,2.729-.338s2.718-.415,2.714-.445-1.226.122-2.729.338-2.718.415-2.714.445" transform="translate(-2638.512 -9970.981)" fill="#263238"/><path d="M19.411,256.016c0,.029,1.226-.122,2.729-.338s2.718-.415,2.714-.445-1.226.122-2.729.338-2.718.415-2.714.445" transform="translate(-2638.09 -9972.489)" fill="#263238"/><path d="M60.221,213.114a.708.708,0,0,0,.8-.6l.878-6.087a.587.587,0,0,0-.518-.647l-.572-.083a.609.609,0,0,1-.5-.4l-.087-.267a.61.61,0,0,0-.5-.4l-2.717-.392a.614.614,0,0,0-.555.2l-.164.192a.615.615,0,0,1-.555.2l-3.464-.5a.587.587,0,0,0-.68.474l-.9,6.226a.708.708,0,0,0,.6.8Z" transform="translate(-2685.157 -9937.813)" fill="#3a8416"/><path d="M55.705,205.048l2.2.313.25-.34a.768.768,0,0,1,.73-.293l2.154.311a.68.68,0,0,1,.6.75l-.036.251-.954,6.61a.773.773,0,0,1-.9.625l-8.749-1.262a.773.773,0,0,1-.682-.853l.9-6.244a.51.51,0,0,1,.577-.432Z" transform="translate(-2684.783 -9937.988)" fill="#529d2e"/><rect width="5.261" height="2.213" transform="translate(-2626.648 -9727.889) rotate(-171.788)" fill="#fff"/><path d="M63.33,216.217c0,.02.8.151,1.784.293s1.791.242,1.794.223-.8-.151-1.784-.293-1.791-.243-1.794-.223" transform="translate(-2694.206 -9945.965)" fill="#263238"/><path d="M63.54,217.675c0,.019.8.15,1.784.293s1.791.242,1.794.223-.8-.15-1.784-.293-1.791-.242-1.794-.223" transform="translate(-2694.483 -9946.957)" fill="#263238"/><path d="M41.178,153.8l2.347-.025A7.547,7.547,0,1,0,42,151.538l0,0Z" transform="translate(-2676.632 -9894.796)" fill="#fff"/><path d="M40.95,153.639s.023-.053.061-.151l.166-.434.629-1.666-.061.011,0,0a.035.035,0,0,0,.05.005.036.036,0,0,0,.01-.042,7.549,7.549,0,0,1-.6-3.62,7.583,7.583,0,0,1,2.063-4.574,7.45,7.45,0,0,1,11.525.933c.085.128.173.253.254.382l.218.4.109.2.089.209.177.417a7.568,7.568,0,0,1,.039,5.127,7.5,7.5,0,0,1-12.356,2.751.036.036,0,0,0-.026-.011l-1.734.04-.454.013c-.1,0-.159.007-.159.007a1.3,1.3,0,0,0,.145,0l.444,0,1.759,0-.025-.01a7.5,7.5,0,0,0,3.163,1.938,7.617,7.617,0,0,0,9.393-4.685,7.71,7.71,0,0,0-.034-5.238l-.181-.426-.091-.213-.111-.2-.223-.41c-.083-.132-.173-.26-.26-.391a7.6,7.6,0,0,0-11.764-.935,7.539,7.539,0,0,0-1.5,2.3,7.451,7.451,0,0,0-.573,2.36,7.542,7.542,0,0,0,.649,3.658l.06-.037,0,0a.035.035,0,0,0-.049-.005.037.037,0,0,0-.011.016l-.6,1.7L41,153.5c-.032.1-.048.143-.045.141" transform="translate(-2676.403 -9894.636)" fill="#263238"/><path d="M58.293,159.236a2.449,2.449,0,1,0-1.377-.426,2.449,2.449,0,0,0,1.377.426m.006-4.257a1.809,1.809,0,1,1-1.5.789,1.8,1.8,0,0,1,1.5-.789" transform="translate(-2685.648 -9903.9)" fill="#263238"/><path d="M66.565,169.181a.32.32,0,0,0,.265-.14l1.407-2.062a.32.32,0,0,0-.529-.361L66.3,168.68a.32.32,0,0,0,.264.5" transform="translate(-2696.524 -9912.153)" fill="#263238"/><path d="M130.4,187.332l4.148,3.07-1.281,3.712a8.982,8.982,0,0,1-2.867-6.782" transform="translate(-2783.325 -9926.33)" fill="#263238"/><path d="M117.177,163.06a5.445,5.445,0,0,0-3.658-.441,11.536,11.536,0,0,0-3.459,1.43,5.642,5.642,0,0,0-1.653,1.29,8.029,8.029,0,0,0-1.665,3.937,14.176,14.176,0,0,0,.772,4.571c.4.864,2.283,1.521,3.211,1.734l8.518-9.906a4.311,4.311,0,0,0-2.065-2.614" transform="translate(-2760.438 -9909.442)" fill="#263238"/><path d="M103.064,167.667l-2.042-.365c1.116,2.658,1.419,8.737,2.057,11.549.753-1.092,2.5-4.418,2.407-5.742s0-5.667-2.422-5.442" transform="translate(-2744.856 -9912.713)" fill="#263238"/><path d="M104.519,172.868a3.487,3.487,0,0,1,2.624-3.212l4.7-1.2c2.032-.22,3.389,2.281,3.523,4.32a32.308,32.308,0,0,1-.026,6.349c-.532,3.4-3.138,3.84-3.138,3.84s0,1.618,0,2.611l-1.574,6.514-5.246-5.66-.875-13.522c0-.058.006.036.012-.041" transform="translate(-2755.992 -9913.489)" fill="#ffc09d"/><path d="M109.013,189.169a.436.436,0,0,1-.419.441.417.417,0,0,1-.45-.392.436.436,0,0,1,.419-.441.417.417,0,0,1,.451.392" transform="translate(-2750.66 -9927.312)" fill="#263238"/><path d="M108.249,185.171c-.054.057-.385-.187-.854-.184s-.813.238-.864.18c-.025-.025.03-.128.18-.238a1.2,1.2,0,0,1,.691-.215,1.149,1.149,0,0,1,.68.218c.144.11.194.213.167.239" transform="translate(-2749.384 -9924.55)" fill="#263238"/><path d="M121.789,189.168a.436.436,0,0,1-.419.441.417.417,0,0,1-.45-.392.436.436,0,0,1,.419-.441.417.417,0,0,1,.451.393" transform="translate(-2767.526 -9927.311)" fill="#263238"/><path d="M122.17,185.171c-.054.057-.385-.187-.855-.184s-.813.238-.863.18c-.025-.025.029-.128.18-.238a1.2,1.2,0,0,1,.691-.215,1.15,1.15,0,0,1,.68.218c.144.11.193.213.167.239" transform="translate(-2767.761 -9924.55)" fill="#263238"/><path d="M112.381,189.35a3.129,3.129,0,0,1,.762-.139c.12-.012.233-.036.253-.118a.608.608,0,0,0-.081-.355l-.356-.912a15.673,15.673,0,0,1-.8-2.385,15.747,15.747,0,0,1,.991,2.315q.179.48.341.917a.692.692,0,0,1,.063.47.3.3,0,0,1-.2.176.816.816,0,0,1-.2.029,3.038,3.038,0,0,1-.773,0" transform="translate(-2756.505 -9925.045)" fill="#263238"/><path d="M114.834,210.024s1.107,2.336,4.509,2.01v-.8a8.567,8.567,0,0,1-4.51-1.21" transform="translate(-2763.133 -9941.757)" fill="#ff9b6c"/><path d="M123.061,180.1c-.046.128-.515.068-1.065.136s-1,.219-1.069.1c-.033-.054.044-.175.224-.3a1.866,1.866,0,0,1,1.626-.183c.2.081.3.181.285.242" transform="translate(-2768.8 -9921.176)" fill="#263238"/><path d="M108.586,180.628c-.082.107-.406,0-.795-.007s-.718.073-.794-.038c-.033-.054.018-.161.162-.262a1.15,1.15,0,0,1,1.28.037c.138.109.183.219.147.271" transform="translate(-2749.874 -9921.443)" fill="#263238"/><path d="M118.423,166.874a1.5,1.5,0,0,0-1.321-.847,2.9,2.9,0,0,0-1.569.457c-2.025,1.171-3.066,4-5.067,5.209-.492.3-1.132.025-1.551.42a1.444,1.444,0,0,0-.458,1.552,4.764,4.764,0,0,1-.694-1.174,1.607,1.607,0,0,1,.056-1.326c.173-.3.479-.529.563-.865a4.547,4.547,0,0,0-.03-.909,1.983,1.983,0,0,1,.312-.868,8.828,8.828,0,0,1,3.251-3.42,5.753,5.753,0,0,1,2.984-.772,4.4,4.4,0,0,1,2.839,1.127c.448.417.918.849.686,1.415" transform="translate(-2759.971 -9910.691)" fill="#263238"/><path d="M139.216,189.57a1.186,1.186,0,0,0-1.833,1.148,1.376,1.376,0,0,0,1.829,1.418c0-.053,0-2.566,0-2.566" transform="translate(-2790.223 -9927.727)" fill="#ffc09d"/><path d="M139.945,192.706c-.008-.006-.032.022-.086.046a.319.319,0,0,1-.239,0,.79.79,0,0,1-.359-.712,1.048,1.048,0,0,1,.094-.456.367.367,0,0,1,.242-.243.162.162,0,0,1,.188.089c.024.052.012.088.022.091s.04-.03.026-.106a.2.2,0,0,0-.071-.115.241.241,0,0,0-.176-.048.448.448,0,0,0-.336.281,1.089,1.089,0,0,0-.116.51.828.828,0,0,0,.458.8.342.342,0,0,0,.292-.046c.057-.045.067-.086.061-.089" transform="translate(-2791.515 -9928.996)" fill="#ff9b6c"/><path d="M108.876,173.911a.721.721,0,0,0,.11-.062c.07-.044.178-.1.307-.195a6.3,6.3,0,0,0,.989-.9,17.6,17.6,0,0,0,1.209-1.571A14.446,14.446,0,0,1,113,169.3a5.742,5.742,0,0,1,.976-.771,4.76,4.76,0,0,1,1.054-.478,5.225,5.225,0,0,1,1.94-.238,5,5,0,0,1,1.3.255c.151.046.262.1.339.126a.064.064,0,1,0,.007-.016,3.214,3.214,0,0,0-.335-.141,4.757,4.757,0,0,0-1.306-.283,5.177,5.177,0,0,0-1.968.224,4.769,4.769,0,0,0-1.073.482,5.761,5.761,0,0,0-.992.781,14.01,14.01,0,0,0-1.516,1.9,18.914,18.914,0,0,1-1.191,1.577,6.789,6.789,0,0,1-.964.913c-.125.095-.23.158-.3.207a.7.7,0,0,0-.1.076" transform="translate(-2760.612 -9913.01)" fill="#455a64"/><path d="M139.3,196.79a.36.36,0,1,0,.086.027" transform="translate(-2791.08 -9932.757)" fill="#fff"/><path d="M139.322,196.785a.492.492,0,0,1,.165.246.309.309,0,0,1-.071.288.32.32,0,0,1-.563-.179.31.31,0,0,1,.108-.276.494.494,0,0,1,.277-.105s-.028-.019-.086-.02a.374.374,0,0,0-.229.08.367.367,0,0,0-.147.33.393.393,0,0,0,.7.222.366.366,0,0,0,.071-.354.374.374,0,0,0-.14-.2c-.048-.032-.08-.037-.082-.033" transform="translate(-2791.014 -9932.726)" fill="#263238"/><path d="M130.783,183.114a2.822,2.822,0,0,0,.179,1.473.972.972,0,0,0,1.249.5,1.384,1.384,0,0,0,.521-1.061c.174-1.167.253-2.346.437-3.511Z" transform="translate(-2782.058 -9921.694)" fill="#263238"/><path d="M118.49,169.376c0,.011-.162-.03-.455-.04a3.129,3.129,0,0,0-1.212.221,3.994,3.994,0,0,0-.759.391,8.227,8.227,0,0,0-.783.6,9.414,9.414,0,0,0-1.534,1.653c-.233.327-.439.663-.662.974a4.659,4.659,0,0,1-.734.826,8.152,8.152,0,0,1-1.548,1.035c-.469.248-.86.421-1.131.541l-.313.133a.528.528,0,0,1-.112.04.512.512,0,0,1,.1-.059l.305-.151c.265-.131.651-.314,1.113-.569a8.465,8.465,0,0,0,1.52-1.043,4.637,4.637,0,0,0,.715-.813c.219-.308.425-.644.66-.975a9.242,9.242,0,0,1,1.556-1.666,8.017,8.017,0,0,1,.8-.6,3.986,3.986,0,0,1,.78-.388,3.023,3.023,0,0,1,1.239-.193,2.139,2.139,0,0,1,.339.047.5.5,0,0,1,.115.033" transform="translate(-2760.489 -9914.065)" fill="#455a64"/><path d="M140.418,180.114a.811.811,0,0,1-.162.109l-.464.272-.156.089a.493.493,0,0,1-.2.067.192.192,0,0,1-.124-.029.159.159,0,0,1-.068-.121.409.409,0,0,1,.086-.231l.538-.862.073.067a1.918,1.918,0,0,1-1.244.371.54.54,0,0,1-.166-.029.225.225,0,0,1-.142-.124.2.2,0,0,1,.031-.185.735.735,0,0,1,.1-.115,3.877,3.877,0,0,0,.624-.787,6.573,6.573,0,0,0,.4-.843.958.958,0,0,1-.058.247,3.433,3.433,0,0,1-.276.633,3.7,3.7,0,0,1-.62.818c-.068.065-.136.139-.11.2s.126.086.222.087a1.853,1.853,0,0,0,1.179-.351l.219-.16-.146.227-.549.855a.348.348,0,0,0-.078.179c0,.052.047.083.106.078a.94.94,0,0,0,.329-.135l.478-.246a.818.818,0,0,1,.179-.078" transform="translate(-2791.744 -9919.825)" fill="#455a64"/><path d="M117.721,199.361a.613.613,0,0,1,.633-.465.641.641,0,0,1,.492.35.788.788,0,0,1,.028.613l-.01.044a.7.7,0,0,1-.785.167.652.652,0,0,1-.358-.709" transform="translate(-2763.63 -9934.19)" fill="#ff9b6c"/><path d="M118.136,199.24c0-.071-.474-.049-.831-.438s-.33-.9-.4-.9c-.03-.005-.086.117-.082.331a1.181,1.181,0,0,0,.3.751,1.03,1.03,0,0,0,.7.337c.2.008.314-.051.31-.083" transform="translate(-2762.562 -9933.519)" fill="#263238"/><path d="M114.1,249.8c-.426-2.206-1.794-9.632-1.792-11.132a8.594,8.594,0,0,1,.456-1.257c.4-1.34,1.789-6.271,1.477-8.87-.249-2.077-2.007-4.737-2.534-6.157-.248-.669-2.223-1.357-2.881-1.632l-1.4-1.977s.3.919-.932,1.744a3.757,3.757,0,0,1-2.256.6,5.744,5.744,0,0,1-4.119-2.026l-.23.179a52.085,52.085,0,0,0-5.34,1.832c-1.118.47,2.423,11.939,2.423,11.939s2.092,7.744.964,10.144c-.635,1.351-2.772,3.583-3.313,4.84a7.951,7.951,0,0,0-.96,1.646c-.018.331,5.566,2.75,9.975,2.994,8.157.452,10.463-2.864,10.463-2.864" transform="translate(-2751.29 -9947.71)" fill="#f5f5f5"/><path d="M93.337,378.565h33.435a1.2,1.2,0,0,1,1.2,1.2V386.7a1.2,1.2,0,0,1-1.2,1.2H93.337a1.2,1.2,0,0,1-1.2-1.2v-6.928a1.2,1.2,0,0,1,1.2-1.2" transform="translate(-2764.494 -10056.337)" fill="#263238"/><path d="M142.742,385.522H158.18a.227.227,0,0,1,.227.227v4.817a.227.227,0,0,1-.227.226H142.742a.227.227,0,0,1-.227-.226v-4.817a.227.227,0,0,1,.227-.227" transform="translate(-2811.058 -10061.065)" fill="#fff"/><path d="M111.7,389.7a1.908,1.908,0,1,1,1.908,1.908A1.908,1.908,0,0,1,111.7,389.7" transform="translate(-2758.298 -10062.61)" fill="#263238"/><path d="M112.926,391.25a2.228,2.228,0,1,0-2.228-2.228,2.23,2.23,0,0,0,2.228,2.228m0-3.815a1.588,1.588,0,1,1-1.587,1.588,1.589,1.589,0,0,1,1.587-1.588" transform="translate(-2757.617 -10061.931)" fill="#e0e0e0"/><path d="M147.533,388.336a18.792,18.792,0,0,0,0,3.533,18.785,18.785,0,0,0,0-3.533" transform="translate(-2801.847 -10062.979)" fill="#e0e0e0"/><path d="M152.362,388.336a18.781,18.781,0,0,0,0,3.533,18.788,18.788,0,0,0,0-3.533" transform="translate(-2808.222 -10062.979)" fill="#e0e0e0"/><path d="M157.191,388.336a18.788,18.788,0,0,0,0,3.533,18.788,18.788,0,0,0,0-3.533" transform="translate(-2814.598 -10062.979)" fill="#e0e0e0"/><path d="M162.019,388.336a18.788,18.788,0,0,0,0,3.533,18.788,18.788,0,0,0,0-3.533" transform="translate(-2820.971 -10062.979)" fill="#e0e0e0"/><path d="M166.848,388.336a18.788,18.788,0,0,0,0,3.533,18.781,18.781,0,0,0,0-3.533" transform="translate(-2827.346 -10062.979)" fill="#e0e0e0"/><path d="M171.677,388.336a18.781,18.781,0,0,0,0,3.533,18.788,18.788,0,0,0,0-3.533" transform="translate(-2833.722 -10062.979)" fill="#e0e0e0"/><path d="M176.506,388.336a18.792,18.792,0,0,0,0,3.533,18.785,18.785,0,0,0,0-3.533" transform="translate(-2840.096 -10062.979)" fill="#e0e0e0"/><path d="M181.334,388.336a18.785,18.785,0,0,0,0,3.533,18.788,18.788,0,0,0,0-3.533" transform="translate(-2846.47 -10062.979)" fill="#e0e0e0"/><path d="M186.163,388.336a18.788,18.788,0,0,0,0,3.533,18.788,18.788,0,0,0,0-3.533" transform="translate(-2852.845 -10062.979)" fill="#e0e0e0"/><path d="M93.337,350.5h33.435a1.2,1.2,0,0,1,1.2,1.2v6.928a1.2,1.2,0,0,1-1.2,1.2H93.337a1.2,1.2,0,0,1-1.2-1.2V351.7a1.2,1.2,0,0,1,1.2-1.2" transform="translate(-2764.494 -10037.256)" fill="#455a64"/><path d="M142.742,357.455H158.18a.227.227,0,0,1,.227.227V362.5a.227.227,0,0,1-.227.226H142.742a.227.227,0,0,1-.227-.226v-4.817a.227.227,0,0,1,.227-.227" transform="translate(-2811.058 -10041.986)" fill="#fff"/><path d="M111.7,361.634a1.908,1.908,0,1,1,1.908,1.908,1.908,1.908,0,0,1-1.908-1.908" transform="translate(-2758.298 -10043.529)" fill="#263238"/><path d="M112.926,363.182a2.228,2.228,0,1,0-2.228-2.228,2.23,2.23,0,0,0,2.228,2.228m0-3.815a1.588,1.588,0,1,1-1.587,1.587,1.589,1.589,0,0,1,1.587-1.587" transform="translate(-2757.617 -10042.85)" fill="#e0e0e0"/><path d="M147.533,360.268a18.791,18.791,0,0,0,0,3.533,18.784,18.784,0,0,0,0-3.533" transform="translate(-2801.847 -10043.897)" fill="#e0e0e0"/><path d="M152.362,360.268a18.78,18.78,0,0,0,0,3.533,18.787,18.787,0,0,0,0-3.533" transform="translate(-2808.222 -10043.897)" fill="#e0e0e0"/><path d="M157.191,360.268a18.787,18.787,0,0,0,0,3.533,18.787,18.787,0,0,0,0-3.533" transform="translate(-2814.598 -10043.897)" fill="#e0e0e0"/><path d="M162.019,360.268a18.787,18.787,0,0,0,0,3.533,18.787,18.787,0,0,0,0-3.533" transform="translate(-2820.971 -10043.897)" fill="#e0e0e0"/><path d="M166.848,360.268a18.787,18.787,0,0,0,0,3.533,18.78,18.78,0,0,0,0-3.533" transform="translate(-2827.346 -10043.897)" fill="#e0e0e0"/><path d="M171.677,360.268a18.78,18.78,0,0,0,0,3.533,18.787,18.787,0,0,0,0-3.533" transform="translate(-2833.722 -10043.897)" fill="#e0e0e0"/><path d="M176.506,360.268a18.791,18.791,0,0,0,0,3.533,18.784,18.784,0,0,0,0-3.533" transform="translate(-2840.096 -10043.897)" fill="#e0e0e0"/><path d="M181.334,360.268a18.784,18.784,0,0,0,0,3.533,18.787,18.787,0,0,0,0-3.533" transform="translate(-2846.47 -10043.897)" fill="#e0e0e0"/><path d="M186.163,360.268a18.787,18.787,0,0,0,0,3.533,18.787,18.787,0,0,0,0-3.533" transform="translate(-2852.845 -10043.897)" fill="#e0e0e0"/><path d="M93.337,407.87h33.435a1.2,1.2,0,0,1,1.2,1.2V416a1.2,1.2,0,0,1-1.2,1.2H93.337a1.2,1.2,0,0,1-1.2-1.2v-6.928a1.2,1.2,0,0,1,1.2-1.2" transform="translate(-2764.494 -10076.259)" fill="#455a64"/><path d="M142.742,414.828H158.18a.227.227,0,0,1,.227.227v4.817a.226.226,0,0,1-.227.226H142.742a.226.226,0,0,1-.227-.226v-4.817a.227.227,0,0,1,.227-.227" transform="translate(-2811.058 -10080.988)" fill="#fff"/><path d="M111.7,419.008a1.908,1.908,0,1,1,1.908,1.908,1.908,1.908,0,0,1-1.908-1.908" transform="translate(-2758.298 -10082.533)" fill="#263238"/><path d="M112.926,420.555a2.228,2.228,0,1,0-2.228-2.228,2.23,2.23,0,0,0,2.228,2.228m0-3.815a1.588,1.588,0,1,1-1.587,1.588,1.589,1.589,0,0,1,1.587-1.588" transform="translate(-2757.617 -10081.853)" fill="#f5f5f5"/><path d="M147.533,417.641a18.791,18.791,0,0,0,0,3.533,18.784,18.784,0,0,0,0-3.533" transform="translate(-2801.847 -10082.901)" fill="#e0e0e0"/><path d="M152.362,417.641a18.78,18.78,0,0,0,0,3.533,18.787,18.787,0,0,0,0-3.533" transform="translate(-2808.222 -10082.901)" fill="#e0e0e0"/><path d="M157.191,417.641a18.787,18.787,0,0,0,0,3.533,18.787,18.787,0,0,0,0-3.533" transform="translate(-2814.598 -10082.901)" fill="#e0e0e0"/><path d="M162.019,417.641a18.787,18.787,0,0,0,0,3.533,18.787,18.787,0,0,0,0-3.533" transform="translate(-2820.971 -10082.901)" fill="#e0e0e0"/><path d="M166.848,417.641a18.787,18.787,0,0,0,0,3.533,18.78,18.78,0,0,0,0-3.533" transform="translate(-2827.346 -10082.901)" fill="#e0e0e0"/><path d="M171.677,417.641a18.78,18.78,0,0,0,0,3.533,18.787,18.787,0,0,0,0-3.533" transform="translate(-2833.722 -10082.901)" fill="#e0e0e0"/><path d="M176.506,417.641a18.791,18.791,0,0,0,0,3.533,18.784,18.784,0,0,0,0-3.533" transform="translate(-2840.096 -10082.901)" fill="#e0e0e0"/><path d="M181.334,417.641a18.784,18.784,0,0,0,0,3.533,18.787,18.787,0,0,0,0-3.533" transform="translate(-2846.47 -10082.901)" fill="#e0e0e0"/><path d="M186.163,417.641a18.787,18.787,0,0,0,0,3.533,18.787,18.787,0,0,0,0-3.533" transform="translate(-2852.845 -10082.901)" fill="#e0e0e0"/><path d="M13.055,378.215l2.654,5.729s6.627-.876,7.221.135l-10.836,5.648-4.5-8.757Z" transform="translate(-2632.383 -10056.099)" fill="#455a64"/><path d="M38.912,399.691a.5.5,0,0,0-.051.67.484.484,0,0,0,.664.056.531.531,0,0,0,.05-.71.5.5,0,0,0-.7.019" transform="translate(-2659.12 -10070.62)" fill="#e0e0e0"/><path d="M7.686,401.5l-.359-.7,10.628-5.271a.932.932,0,0,1,.652.351Z" transform="translate(-2627.974 -10067.869)" fill="#263238"/><path d="M30.5,396.034c.026.055-.231.215-.407.522s-.2.6-.263.608-.138-.347.083-.715.574-.47.588-.415" transform="translate(-2647.06 -10068.203)" fill="#263238"/><path d="M25.844,395.708c.039.046-.148.255-.215.575s0,.587-.053.612-.243-.262-.152-.658.392-.58.419-.529" transform="translate(-2641.003 -10067.984)" fill="#263238"/><path d="M21.4,396.586c-.043.036-.254-.194-.265-.559s.18-.609.226-.575-.03.269-.016.568.107.533.056.566" transform="translate(-2635.204 -10067.814)" fill="#263238"/><path d="M33.254,392.07c0,.06-.282.111-.575.286s-.481.391-.533.359.079-.339.427-.54.685-.161.68-.1" transform="translate(-2650.565 -10065.486)" fill="#263238"/><path d="M35.462,387.412a1.161,1.161,0,0,1-.553.277,2.783,2.783,0,0,1-.666.116,2.922,2.922,0,0,1-.4-.007.759.759,0,0,1-.232-.045.263.263,0,0,1-.17-.273.331.331,0,0,1,.173-.242.8.8,0,0,1,.221-.076,2.179,2.179,0,0,1,1.08.019c.375.107.564.263.551.283s-.225-.075-.584-.138a2.473,2.473,0,0,0-.632-.028,2.327,2.327,0,0,0-.366.063c-.132.028-.231.078-.235.145,0,.025,0,.034.043.056a.623.623,0,0,0,.17.032,3.229,3.229,0,0,0,.376.019,3.426,3.426,0,0,0,.637-.066,4.288,4.288,0,0,1,.588-.133" transform="translate(-2653.192 -10062.141)" fill="#263238"/><path d="M58.19,406.712l-.336,6.305s6.267,2.327,6.318,3.5l-12.22-.08.12-9.846Z" transform="translate(-2687.828 -10075.389)" fill="#455a64"/><path d="M81.743,424.839a.5.5,0,0,0-.358.569.485.485,0,0,0,.561.36.532.532,0,0,0,.376-.6.5.5,0,0,0-.625-.31" transform="translate(-2715.414 -10087.782)" fill="#e0e0e0"/><path d="M51.765,435.676l.01-.784,11.858.315a.932.932,0,0,1,.412.615Z" transform="translate(-2687.64 -10094.629)" fill="#263238"/><path d="M72.476,426.671c0,.06-.3.082-.6.271s-.462.439-.517.414.041-.371.408-.593.728-.147.714-.092" transform="translate(-2702.339 -10089.001)" fill="#263238"/><path d="M68.159,428.483c.013.059-.25.156-.459.408s-.273.52-.333.516-.093-.345.173-.652.618-.329.618-.271" transform="translate(-2696.738 -10090.255)" fill="#263238"/><path d="M63.624,431.224c-.055.012-.134-.291.027-.618s.444-.454.469-.4-.153.224-.28.495-.156.521-.215.526" transform="translate(-2691.495 -10091.435)" fill="#263238"/><path d="M72.879,421.768c-.026.054-.3-.033-.642-.016s-.608.12-.639.068.229-.263.63-.277.681.179.65.226" transform="translate(-2702.826 -10085.554)" fill="#263238"/><path d="M72.707,415.849a1.158,1.158,0,0,1-.618-.014,2.781,2.781,0,0,1-.643-.21,2.909,2.909,0,0,1-.352-.194.763.763,0,0,1-.184-.149.263.263,0,0,1-.022-.321.332.332,0,0,1,.266-.133.806.806,0,0,1,.231.036,2.238,2.238,0,0,1,.382.138,2.186,2.186,0,0,1,.563.384c.282.27.376.5.355.508s-.164-.172-.451-.4a2.456,2.456,0,0,0-.546-.32,2.317,2.317,0,0,0-.353-.116c-.13-.036-.241-.039-.276.018-.012.022-.014.031.012.069a.615.615,0,0,0,.135.109,3.3,3.3,0,0,0,.323.192,3.419,3.419,0,0,0,.594.239,4.275,4.275,0,0,1,.582.158" transform="translate(-2702.41 -10080.989)" fill="#263238"/><path d="M33.438,306.127s25.022-2.963,26.463-2.964a5.545,5.545,0,0,1,5.481,4.471c.374,1.474,7.911,22.764,7.911,22.764l-5.56,2.882-8.176-14.528L55.39,311.5l-21.474,3.318Z" transform="translate(-2691.021 -10005.076)" fill="#263238"/><path d="M84.647,325.882a6.7,6.7,0,0,1,5.168,2.684c1.065,1.578.691,4.4.712,6.526.029,2.9-.671,20.552-.671,20.552l-6.864.115-1.438-18.4.085-3.4-13.7-1.114a8.109,8.109,0,0,1,1.821-7.432c.395-.422,14.89.47,14.89.47" transform="translate(-2719.266 -10020.125)" fill="#263238"/><path d="M123.79,311.733s-2.138,4.936.747,9.157c1.906,2.787,5.561,2.149,5.561,2.149l4.854-6.079-3.873-6.053Z" transform="translate(-2781.365 -10010.34)" fill="#263238"/><path d="M91.407,371.3a.639.639,0,0,0-.121-.007l-.356,0-1.367.006-5.021.056.062.057c-.266-3.694-.624-8.665-1.017-14.122-.131-1.777-.259-3.5-.381-5.143v.008q.031-1.307.06-2.536l0-.073-.073-.006c-3.894-.314-7.215-.594-9.561-.808-1.172-.107-2.1-.2-2.736-.267-.318-.031-.561-.069-.726-.088s-.245-.05-.247-.046a2.031,2.031,0,0,0,.243.071c.164.027.407.073.724.112.634.088,1.562.191,2.734.312,2.344.24,5.663.542,9.557.868l-.071-.079q-.032,1.228-.067,2.536v.008c.12,1.641.246,3.367.376,5.144.41,5.456.783,10.425,1.06,14.118l0,.058h.058l5.02-.111,1.366-.039.355-.015a.6.6,0,0,0,.121-.011" transform="translate(-2720.818 -10035.78)" fill="#455a64"/><path d="M68.022,333.591a.57.57,0,0,1,.091-.048l.273-.127,1.056-.478,3.894-1.735,5.783-2.557,3.417-1.506c.3-.126.588-.273.906-.382a5.767,5.767,0,0,1,.975-.249,7.393,7.393,0,0,1,2.046-.018,6.487,6.487,0,0,1,1.969.559,3.5,3.5,0,0,1,.847.554,3.169,3.169,0,0,1,.621.778,4.412,4.412,0,0,1,.573,1.833c.027.319.008.625.009.929s-.006.606-.009.9c-.027,2.379-.052,4.521-.072,6.323s-.046,3.248-.061,4.262c-.01.5-.018.886-.024,1.159,0,.127-.007.227-.01.3a.607.607,0,0,1-.008.1.542.542,0,0,1-.006-.1c0-.075,0-.174,0-.3,0-.273,0-.662,0-1.159,0-1.014.01-2.468.017-4.262s.027-3.944.043-6.322q0-.447.007-.9c0-.3.016-.615-.011-.918a4.29,4.29,0,0,0-.558-1.776,3.038,3.038,0,0,0-.6-.746,3.379,3.379,0,0,0-.815-.531,6.362,6.362,0,0,0-1.927-.546,7.271,7.271,0,0,0-2.007.016,5.614,5.614,0,0,0-.951.242c-.306.1-.6.253-.9.377l-3.419,1.5-5.793,2.53-3.911,1.695-1.066.455-.279.115a.558.558,0,0,1-.1.035" transform="translate(-2719.288 -10020.894)" fill="#455a64"/><path d="M99.346,250.615a2.278,2.278,0,0,1,.054-.4c.047-.255.1-.627.151-1.086s.087-1.01.1-1.621a15.816,15.816,0,0,0-.461-3.94c-.15-.593-.31-1.121-.467-1.556s-.294-.785-.4-1.022a2.31,2.31,0,0,1-.145-.377,2.24,2.24,0,0,1,.194.355,10.963,10.963,0,0,1,.441,1.01,14.309,14.309,0,0,1,.5,1.558,14.723,14.723,0,0,1,.465,3.973,14.236,14.236,0,0,1-.126,1.631,10.935,10.935,0,0,1-.2,1.085,2.259,2.259,0,0,1-.107.39" transform="translate(-2738.23 -9962.552)" fill="#263238"/><path d="M90.312,216.635l.012-1.01,1.186,1.934,2.418.891c.76.876,3.222,10.735,2.724,12.366l-.86,9.641,2.451,3.686-4.4.47s-.945-.933-.709-3.4a97.841,97.841,0,0,0-.111-14.968c-.136-2.378-2.714-9.608-2.714-9.608" transform="translate(-2734.181 -9945.564)" fill="#529d2e"/><path d="M75.8,221.666s3.968,1.3,4.488,2.045c1.415,2.032,9.929,15.936,5.749,20.083-2.738,2.716-6.583-3.014-6.583-3.014Z" transform="translate(-2718.466 -9949.672)" fill="#529d2e"/><path d="M87.109,271.3a2.144,2.144,0,0,1-.361-.064l-.989-.213c-.84-.177-2.019-.427-3.369-.629l.072-.042-.4,1.039-.962,2.442-.01-.061,1.493,1.862.414.533a1.13,1.13,0,0,1,.137.2,1.114,1.114,0,0,1-.167-.174l-.441-.511-1.531-1.831-.023-.028.013-.034.949-2.447.407-1.038.02-.05.053.008c1.359.21,2.533.477,3.37.677.418.1.752.188.98.252a2.139,2.139,0,0,1,.35.11" transform="translate(-2720.054 -9982.7)" fill="#263238"/><path d="M93.671,246.93a2.742,2.742,0,0,1,.04-.444l.148-1.2a19.114,19.114,0,0,0,.131-3.978,10.922,10.922,0,0,0-1.1-3.8c-.223-.459-.426-.82-.566-1.069a3.193,3.193,0,0,1-.212-.392s.029.028.073.09.107.153.185.274c.156.241.371.6.608,1.053a10.4,10.4,0,0,1,1.149,3.832,17.332,17.332,0,0,1-.171,4c-.071.508-.142.916-.191,1.2a2.783,2.783,0,0,1-.093.436" transform="translate(-2730.693 -9959.447)" fill="#263238"/><path d="M104.415,235.7a.687.687,0,0,1,0-.159c.009-.119.02-.269.034-.455.037-.412.087-.978.149-1.669.068-.709.149-1.547.238-2.474l.145-1.46a5.255,5.255,0,0,0,.041-.764,1.4,1.4,0,0,0-.208-.723.824.824,0,0,0-.7-.407l-.25.016.208-.141,1.043-.7-.02.088-2.037-3.5-.581-1.02-.15-.276a.4.4,0,0,1-.045-.1.379.379,0,0,1,.065.087l.169.265.614,1,2.08,3.471.032.053-.052.035-1.041.708-.042-.125a.959.959,0,0,1,.822.467,1.533,1.533,0,0,1,.231.793,5.322,5.322,0,0,1-.044.784l-.153,1.46c-.1.926-.191,1.762-.267,2.471-.08.689-.145,1.254-.192,1.665l-.059.452a.68.68,0,0,1-.03.157" transform="translate(-2745.014 -9949.867)" fill="#263238"/><path d="M129.942,216.359l-1.187,1.273-4.4,1.4a78.241,78.241,0,0,0,1.041,9.642c.969,5.431,1.49,10.968,1.518,11.053a29.55,29.55,0,0,0-3.554,6.2,39.961,39.961,0,0,0-1.632,7.94l11.087,3.4,1.878-20.093-.489-9.295Z" transform="translate(-2780.684 -9946.064)" fill="#529d2e"/><path d="M128.713,235.314a.93.93,0,0,1-.083-.166l-.215-.484c-.186-.421-.456-1.029-.805-1.774a63.476,63.476,0,0,0-3.01-5.672l-.3-.5-.042-.069.074-.03,1.248-.516-.017.114a3.4,3.4,0,0,0-1.385-.7l-.045-.011,0-.046a15.25,15.25,0,0,0-.389-2.2c-.154-.656-.287-1.237-.364-1.723a8.285,8.285,0,0,1-.113-1.143c0-.133,0-.236,0-.305a.4.4,0,0,1,.009-.105,3.689,3.689,0,0,1,.028.409,10.05,10.05,0,0,0,.148,1.132c.088.482.229,1.056.392,1.712a14.746,14.746,0,0,1,.412,2.217l-.049-.057a3.5,3.5,0,0,1,1.442.718l.086.071-.1.043-1.247.518.032-.1.305.5a55.769,55.769,0,0,1,2.981,5.7c.338.751.595,1.366.766,1.794l.191.495a.927.927,0,0,1,.058.176" transform="translate(-2775.198 -9948.526)" fill="#263238"/><path d="M136.368,310.9a.937.937,0,0,1-.1.138l-.293.369-1.083,1.327-.028-.08,5.266.99-.069.028.083-.116,1.469-2.044.045.1-3.789-.491-1.1-.153-.3-.046a.483.483,0,0,1-.105-.023.331.331,0,0,1,.1,0l.289.026,1.095.115,3.824.441.109.013-.064.09-1.464,2.048-.083.116-.026.036-.043-.008-5.258-1.029-.083-.016.055-.063,1.132-1.311.308-.347a.716.716,0,0,1,.11-.112" transform="translate(-2791.951 -10010.335)" fill="#263238"/><g transform="translate(-2656.768 -9698.356)"><g clip-path="url(#f)"><path d="M136.434,315.124l-.348.68,4.941,1.063,1.235-2.6L141.018,316Z" transform="translate(-136.085 -314.268)"/></g></g><path d="M65.943,265.638l-2.7,13.271H39.777a.469.469,0,1,1,0-.937H44.5l2.506-12.342a.512.512,0,0,1,.5-.41l17.932-.2a.512.512,0,0,1,.508.615" transform="translate(-2685.561 -9979.147)" fill="#e0e0e0"/><path d="M65.969,265.623s0-.013.007-.04a.467.467,0,0,0,0-.12.516.516,0,0,0-.248-.388.535.535,0,0,0-.155-.062.828.828,0,0,0-.185-.011l-.422,0-1.056.009-6.781.064-4.727.048-2.648.027-1.389.014-.71.007c-.061,0-.117,0-.182,0a.535.535,0,0,0-.181.052.541.541,0,0,0-.257.27.831.831,0,0,0-.049.18l-.036.179-.073.359-.148.725-.3,1.476-.621,3.055c-.423,2.081-.863,4.245-1.316,6.475l.031-.026H39.881a.861.861,0,0,0-.183.011.5.5,0,0,0-.134.931.512.512,0,0,0,.221.06H45.9l6.352,0,11.016-.005h.02l0-.02,1.964-9.7.533-2.651.137-.692c.031-.156.045-.236.045-.236s-.019.079-.052.235l-.144.69-.547,2.649c-.471,2.3-1.15,5.615-1.985,9.692l.024-.02-11.016-.006H39.787a.432.432,0,0,1-.415-.369.435.435,0,0,1,.34-.492.828.828,0,0,1,.169-.01h4.671l.005-.026,1.314-6.475.619-3.056.3-1.477.147-.725.073-.359.036-.179a.8.8,0,0,1,.045-.169.484.484,0,0,1,.393-.289c.055,0,.118,0,.176,0l.71-.008,1.389-.016,2.648-.031,4.726-.055,6.781-.084,1.056-.014.422-.006a.8.8,0,0,1,.182.01.528.528,0,0,1,.152.059.513.513,0,0,1,.248.378.676.676,0,0,1,0,.16" transform="translate(-2685.587 -9979.133)" fill="#263238"/><path d="M68.27,284.268a.775.775,0,1,0,.775-.775.775.775,0,0,0-.775.775" transform="translate(-2698.7 -9991.704)" fill="#fff"/><path d="M60.172,267.27s-.028,0-.081,0l-.237,0h-.912l-3.355.016-11.068.078-1.6.013-.393,0a1.031,1.031,0,0,0-.2.012.566.566,0,0,0-.191.077.556.556,0,0,0-.238.323c-.029.13-.051.253-.077.378l-.572,2.883-.965,4.882-.645,3.292-.172.9-.043.233c-.009.053-.012.08-.012.08s.008-.027.019-.079l.049-.232.184-.893c.158-.779.385-1.9.665-3.288l.978-4.879.576-2.882c.025-.124.049-.253.076-.374a.5.5,0,0,1,.379-.354.952.952,0,0,1,.189-.011l.393,0,1.6-.013,11.068-.1,3.355-.037.912-.013.237-.005c.053,0,.081,0,.081,0" transform="translate(-2679.812 -9980.672)" fill="#263238"/><path d="M115.072,285.625l-.008,0,.008,0" transform="translate(-2758.933 -9993.153)" fill="#ffc09d"/><path d="M115.224,285.715l-.017.011.017-.011" transform="translate(-2759.131 -9993.214)" fill="#ffc09d"/><path d="M115.126,285.64l-.038.024.038-.024" transform="translate(-2758.996 -9993.163)" fill="#ffc09d"/><path d="M115.028,285.592l-.017.01.017-.01" transform="translate(-2758.873 -9993.131)" fill="#ffc09d"/><path d="M109.243,287.714c-.435-.631-3.426-2.076-3.426-2.076l.732-.263.872.253a2.057,2.057,0,0,0,.45.736c.357.4.822-.113.822-.113l-.55-1.641-1.761-.795a16.316,16.316,0,0,0-1.754.568l-.588.682c-.263.261-.992,1.255-1.217,1.309-.07.017-2.146-.661-2.146-.661l-.861,3.809,3.171.274,1.928.295a13.259,13.259,0,0,0,1.6.345c.636.057,1.031-.193,1.007-.539s-.51-.326-.51-.326a9.544,9.544,0,0,1-1.263-.385,2.124,2.124,0,0,1-.766-.663h.675s1.531.814,2.1,1.039.608-.316.632-.482a13.5,13.5,0,0,0-1.8-1.569s1.665.773,1.973.981.73.231.8.059.321-.207-.115-.838" transform="translate(-2748.473 -9991.923)" fill="#ffc09d"/><path d="M115.275,285.748l-.015.009.015-.009" transform="translate(-2759.199 -9993.237)" fill="#ffc09d"/><path d="M115.333,285.793h0" transform="translate(-2759.28 -9993.268)" fill="#ffc09d"/><path d="M115.314,285.777l-.008.005.008-.005" transform="translate(-2759.253 -9993.257)" fill="#ffc09d"/><path d="M120.676,294.211a.35.35,0,0,1-.021-.108.652.652,0,0,1-.007-.129.941.941,0,0,1,.011-.171,2.378,2.378,0,0,1,.348-.923,5.094,5.094,0,0,1,.6-.786,2.008,2.008,0,0,1,.291-.286,3.237,3.237,0,0,1-.256.316,6.574,6.574,0,0,0-.574.789,2.606,2.606,0,0,0-.358.9c-.041.245-.015.4-.029.4" transform="translate(-2767.543 -9997.356)" fill="#ff9b6c"/><path d="M112.43,288.96a1.035,1.035,0,0,1-.913-.191c.01-.017.195.089.447.14s.464.031.466.051" transform="translate(-2755.156 -9995.289)" fill="#ff9b6c"/><path d="M110.849,294.083a8.718,8.718,0,0,1-1.458-.407,8.733,8.733,0,0,1,1.458.407" transform="translate(-2752.895 -9998.625)" fill="#ff9b6c"/><path d="M114.448,298.014a5.883,5.883,0,0,1-.75-.2,1.44,1.44,0,0,1,.75.2" transform="translate(-2757.873 -10001.437)" fill="#ff9b6c"/><path d="M110.444,295.416a.911.911,0,0,0-.365.62c-.008,0-.021-.042-.019-.114a.595.595,0,0,1,.275-.466c.061-.037.106-.046.109-.039" transform="translate(-2752.704 -9999.808)" fill="#ff9b6c"/><path d="M108.667,291.963c.011.016-.1.1-.167.247a1.8,1.8,0,0,0-.067.29.332.332,0,0,1,.007-.316c.074-.172.222-.238.227-.221" transform="translate(-2750.396 -9997.459)" fill="#ff9b6c"/><path d="M109.638,284.994c-.007,0-.036-.023-.062-.081a.481.481,0,0,1,.057-.474c.04-.05.075-.07.08-.064a.737.737,0,0,0-.074.62" transform="translate(-2751.806 -9992.303)" fill="#ff9b6c"/><path d="M128.785,224.7a4.669,4.669,0,0,0-2.627,3.093s-.468,1.452-.818,3.079c-.849,3.951-2.372,10.683-2.445,12.651a4.493,4.493,0,0,0,3.886,4.879c1.444.311,10.4,1.418,10.4,1.418l1.566-4.425-9.135-3.976s1.742-5.981,2.145-7.85" transform="translate(-2785.117 -9951.736)" fill="#529d2e"/><path d="M131.534,233.572s-.016.046-.04.137l-.1.4-.417,1.556c-.372,1.351-.928,3.308-1.64,5.737l-.014.048.046.02,9.127,3.994-.042-.1-1.571,4.423.086-.053c-2.328-.292-4.811-.607-7.365-.956-1.031-.146-2.058-.278-3.048-.467a5.248,5.248,0,0,1-2.6-1.319,4.1,4.1,0,0,1-1.167-2.528c-.012-.116-.029-.231-.035-.347l0-.348a5.741,5.741,0,0,1,.029-.689c.05-.457.112-.91.185-1.355.291-1.781.641-3.465.966-5.039l.931-4.375.41-1.906c.137-.6.284-1.161.429-1.683s.289-1.009.439-1.444a4.29,4.29,0,0,1,.605-1.1A4.822,4.822,0,0,1,128.025,225a4.443,4.443,0,0,1,.4-.227c.092-.047.14-.068.139-.071a.981.981,0,0,0-.146.056,3.607,3.607,0,0,0-.406.214,4.717,4.717,0,0,0-1.313,1.172,4.338,4.338,0,0,0-.628,1.113c-.158.442-.3.925-.455,1.447s-.3,1.084-.443,1.685l-.422,1.905-.951,4.371c-.331,1.574-.686,3.256-.982,5.043q-.111.67-.19,1.364a5.99,5.99,0,0,0-.031.7l0,.356c.006.119.024.238.036.357a4.253,4.253,0,0,0,1.21,2.625,5.406,5.406,0,0,0,2.679,1.365c1.007.193,2.026.324,3.061.471,2.555.349,5.038.662,7.367.951l.065.008.021-.061,1.562-4.426.024-.067-.065-.028-9.143-3.958.032.068c.7-2.434,1.237-4.4,1.591-5.752.176-.679.307-1.205.388-1.564.042-.179.069-.316.088-.409s.024-.14.024-.14" transform="translate(-2784.891 -9951.736)" fill="#263238"/><path d="M145.576,232.741a.979.979,0,0,0,.051-.287,6.041,6.041,0,0,0,.035-.793,8.425,8.425,0,0,0-1.671-4.894,5.955,5.955,0,0,0-.513-.606c-.132-.134-.208-.2-.216-.2s.257.325.633.871a9.408,9.408,0,0,1,1.649,4.829c.036.661,0,1.074.031,1.076" transform="translate(-2798.553 -9952.594)" fill="#263238"/><path d="M271.277,44.445c-.009.04-1.65-.3-3.665-.769s-3.641-.872-3.632-.912,1.65.3,3.665.769,3.641.872,3.632.912" transform="matrix(0.891, -0.454, 0.454, 0.891, -2918.444, -9661.937)" fill="#12263f"/><path d="M271.962,47.418c-.009.039-1.65-.3-3.665-.769s-3.641-.872-3.632-.912,1.65.3,3.665.769,3.641.872,3.632.912" transform="matrix(0.891, -0.454, 0.454, 0.891, -2920.167, -9663.327)" fill="#12263f"/></g></g></svg>