<svg xmlns="http://www.w3.org/2000/svg" xmlns:xlink="http://www.w3.org/1999/xlink" width="270.723" height="222.902" viewBox="0 0 270.723 222.902"><defs><clipPath id="a"><rect width="221.145" height="208.668" fill="none"/></clipPath><filter id="b" x="89.441" y="156.803" width="26.786" height="71.867" filterUnits="userSpaceOnUse"><feOffset dy="3" input="SourceAlpha"/><feGaussianBlur stdDeviation="3" result="c"/><feFlood flood-opacity="0.161"/><feComposite operator="in" in2="c"/><feComposite in="SourceGraphic"/></filter><filter id="d" x="200.708" y="156.929" width="26.786" height="71.867" filterUnits="userSpaceOnUse"><feOffset dy="3" input="SourceAlpha"/><feGaussianBlur stdDeviation="3" result="e"/><feFlood flood-opacity="0.161"/><feComposite operator="in" in2="e"/><feComposite in="SourceGraphic"/></filter><filter id="f" x="219.477" y="189.65" width="26.786" height="39.146" filterUnits="userSpaceOnUse"><feOffset dy="3" input="SourceAlpha"/><feGaussianBlur stdDeviation="3" result="g"/><feFlood flood-opacity="0.161"/><feComposite operator="in" in2="g"/><feComposite in="SourceGraphic"/></filter><filter id="h" x="16.054" y="160.208" width="26.786" height="68.462" filterUnits="userSpaceOnUse"><feOffset dy="3" input="SourceAlpha"/><feGaussianBlur stdDeviation="3" result="i"/><feFlood flood-opacity="0.161"/><feComposite operator="in" in2="i"/><feComposite in="SourceGraphic"/></filter><filter id="j" x="52.748" y="179.171" width="26.786" height="49.499" filterUnits="userSpaceOnUse"><feOffset dy="3" input="SourceAlpha"/><feGaussianBlur stdDeviation="3" result="k"/><feFlood flood-opacity="0.161"/><feComposite operator="in" in2="k"/><feComposite in="SourceGraphic"/></filter><filter id="l" x="71.094" y="117.499" width="26.786" height="111.172" filterUnits="userSpaceOnUse"><feOffset dy="3" input="SourceAlpha"/><feGaussianBlur stdDeviation="3" result="m"/><feFlood flood-opacity="0.161"/><feComposite operator="in" in2="m"/><feComposite in="SourceGraphic"/></filter><filter id="n" x="107.788" y="125.554" width="26.786" height="103.116" filterUnits="userSpaceOnUse"><feOffset dy="3" input="SourceAlpha"/><feGaussianBlur stdDeviation="3" result="o"/><feFlood flood-opacity="0.161"/><feComposite operator="in" in2="o"/><feComposite in="SourceGraphic"/></filter><filter id="p" x="126.134" y="147.672" width="26.786" height="80.999" filterUnits="userSpaceOnUse"><feOffset dy="3" input="SourceAlpha"/><feGaussianBlur stdDeviation="3" result="q"/><feFlood flood-opacity="0.161"/><feComposite operator="in" in2="q"/><feComposite in="SourceGraphic"/></filter><filter id="r" x="144.481" y="116.862" width="26.786" height="111.808" filterUnits="userSpaceOnUse"><feOffset dy="3" input="SourceAlpha"/><feGaussianBlur stdDeviation="3" result="s"/><feFlood flood-opacity="0.161"/><feComposite operator="in" in2="s"/><feComposite in="SourceGraphic"/></filter><filter id="t" x="162.828" y="100.793" width="26.786" height="127.877" filterUnits="userSpaceOnUse"><feOffset dy="3" input="SourceAlpha"/><feGaussianBlur stdDeviation="3" result="u"/><feFlood flood-opacity="0.161"/><feComposite operator="in" in2="u"/><feComposite in="SourceGraphic"/></filter><filter id="v" x="181.175" y="132.83" width="26.786" height="95.84" filterUnits="userSpaceOnUse"><feOffset dy="3" input="SourceAlpha"/><feGaussianBlur stdDeviation="3" result="w"/><feFlood flood-opacity="0.161"/><feComposite operator="in" in2="w"/><feComposite in="SourceGraphic"/></filter><linearGradient id="z" x1="0.5" x2="0.5" y2="1" gradientUnits="objectBoundingBox"><stop offset="0" stop-color="#529d2e"/><stop offset="1" stop-color="#294f17"/></linearGradient><clipPath id="ar"><rect width="20.922" height="17.976" fill="none"/></clipPath><clipPath id="as"><rect width="1.631" height="1.625" fill="none"/></clipPath><clipPath id="at"><rect width="20.915" height="1.98" fill="none"/></clipPath></defs><g transform="translate(-1088.726 -2879.012)"><g transform="translate(417.726 24.837)"><g transform="translate(671 2854.175)"><g transform="translate(0 0)"><circle cx="105.068" cy="105.068" r="105.068" transform="translate(0 0)" fill="#fdab64"/><ellipse cx="112.256" cy="8.715" rx="112.256" ry="8.715" transform="translate(46.21 205.471)" fill="#fc8116"/><line y2="17.435" transform="translate(97.433 128.508)" fill="#003889"/><circle cx="8.402" cy="8.402" r="8.402" transform="translate(155.364 16.775) rotate(-45)" fill="#fc8116"/></g></g></g><g transform="translate(1108 2887.246)"><g clip-path="url(#a)"><g transform="matrix(1, 0, 0, 1, -19.27, -8.23)" filter="url(#b)"><rect width="8.786" height="53.867" transform="translate(98.44 162.8)" fill="#fff"/></g><g transform="matrix(1, 0, 0, 1, -19.27, -8.23)" filter="url(#d)"><rect width="8.786" height="53.867" transform="translate(209.71 162.93)" fill="#fff"/></g><g transform="matrix(1, 0, 0, 1, -19.27, -8.23)" filter="url(#f)"><rect width="8.786" height="21.146" transform="translate(228.48 195.65)" fill="#fff"/></g><g transform="matrix(1, 0, 0, 1, -19.27, -8.23)" filter="url(#h)"><rect width="8.786" height="50.462" transform="translate(25.05 166.21)" fill="#fff"/></g><rect width="8.786" height="89.069" transform="translate(24.126 119.368)" fill="#ebebeb"/><g transform="matrix(1, 0, 0, 1, -19.27, -8.23)" filter="url(#j)"><rect width="8.786" height="31.499" transform="translate(61.75 185.17)" fill="#fff"/></g><g transform="matrix(1, 0, 0, 1, -19.27, -8.23)" filter="url(#l)"><rect width="8.786" height="93.172" transform="translate(80.09 123.5)" fill="#fff"/></g><g transform="matrix(1, 0, 0, 1, -19.27, -8.23)" filter="url(#n)"><rect width="8.786" height="85.116" transform="translate(116.79 131.55)" fill="#fff"/></g><g transform="matrix(1, 0, 0, 1, -19.27, -8.23)" filter="url(#p)"><rect width="8.786" height="62.999" transform="translate(135.13 153.67)" fill="#fff"/></g><g transform="matrix(1, 0, 0, 1, -19.27, -8.23)" filter="url(#r)"><rect width="8.786" height="93.808" transform="translate(153.48 122.86)" fill="#fff"/></g><g transform="matrix(1, 0, 0, 1, -19.27, -8.23)" filter="url(#t)"><rect width="8.786" height="109.877" transform="translate(171.83 106.79)" fill="#fff"/></g><g transform="matrix(1, 0, 0, 1, -19.27, -8.23)" filter="url(#v)"><rect width="8.786" height="77.84" transform="translate(190.18 138.83)" fill="#fff"/></g><g clip-path="url(#a)"><path d="M217.359,424.5c0,.071-48.662.128-108.674.128C48.651,424.627,0,424.57,0,424.5s48.651-.128,108.685-.128c60.013,0,108.674.057,108.674.128" transform="translate(0 -215.959)" fill="#263238"/></g><g clip-path="url(#a)"><path d="M347.3,348.712c-7.345-3.118-15.848-9.251-19.641-16.77a41.83,41.83,0,0,1,19.641,16.77" transform="translate(-166.743 -168.922)" fill="url(#z)"/><path d="M344.119,324.95c-7.345-3.118-15.848-9.251-19.641-16.77a41.83,41.83,0,0,1,19.641,16.77" transform="translate(-165.124 -156.83)" fill="url(#z)"/><path d="M339.792,301.837c-7.345-3.117-15.848-9.25-19.641-16.77a41.83,41.83,0,0,1,19.641,16.77" transform="translate(-162.922 -145.068)" fill="#529d2e"/><path d="M336.556,274.977c-6.929-4.112-14.652-11.369-17.531-19.342a43.146,43.146,0,0,1,17.531,19.342" transform="translate(-162.349 -130.09)" fill="url(#z)"/><path d="M338.878,250.654c-5.05-6.6-9.756-16.431-9.694-24.947a46.4,46.4,0,0,1,9.694,24.947" transform="translate(-167.519 -114.86)" fill="url(#z)"/><path d="M351.8,257.48c1.02-8.929,4.494-20.157,10.39-26.853A54.542,54.542,0,0,1,351.8,257.48" transform="translate(-179.027 -117.364)" fill="url(#z)"/><path d="M356.632,277.164c1.8-9.207,6.341-20.594,13.037-27.052a56.663,56.663,0,0,1-13.037,27.052" transform="translate(-181.487 -127.28)" fill="url(#z)"/><path d="M362.186,301.418c1.8-9.207,6.341-20.594,13.037-27.052a56.667,56.667,0,0,1-13.037,27.052" transform="translate(-184.313 -139.622)" fill="url(#z)"/><path d="M366.642,331.2c1.8-9.207,6.341-20.594,13.037-27.052A56.668,56.668,0,0,1,366.642,331.2" transform="translate(-186.581 -154.776)" fill="#529d2e"/><path d="M348.226,272.94a.562.562,0,0,1,.057.138l.139.412.509,1.593c.441,1.384,1.039,3.4,1.738,5.9s1.478,5.494,2.276,8.834,1.582,7.034,2.32,10.928,1.322,7.627,1.806,11.027.835,6.474,1.088,9.059.433,4.678.525,6.128c.044.707.079,1.265.1,1.668.008.177.015.32.02.435a.574.574,0,0,1,0,.149.588.588,0,0,1-.026-.147c-.013-.114-.029-.256-.049-.432-.038-.4-.091-.959-.158-1.664-.126-1.446-.332-3.536-.615-6.115s-.664-5.646-1.148-9.042-1.1-7.119-1.826-11.011-1.526-7.577-2.294-10.92c-.784-3.34-1.536-6.337-2.214-8.841s-1.24-4.528-1.649-5.921l-.457-1.608-.112-.42a.555.555,0,0,1-.029-.146" transform="translate(-177.208 -138.897)" fill="#263238"/><path d="M370.441,352.313c-3.114-6.523-5.38-15.693-3.851-22.852a40.512,40.512,0,0,1,3.851,22.852" transform="translate(-186.305 -167.66)" fill="url(#z)"/><path d="M380.99,335.114c-3.114-6.523-5.38-15.693-3.851-22.852a40.51,40.51,0,0,1,3.851,22.852" transform="translate(-191.674 -158.907)" fill="url(#z)"/><path d="M390.451,317.628c-3.114-6.523-5.38-15.693-3.851-22.852a40.512,40.512,0,0,1,3.851,22.852" transform="translate(-196.488 -150.009)" fill="url(#z)"/><path d="M401.772,298.408c-2.317-6.9-3.479-16.316-1.115-23.2a40.786,40.786,0,0,1,1.115,23.2" transform="translate(-203.23 -140.05)" fill="url(#z)"/><path d="M410.337,284.24c.227-7.346,2.388-16.545,6.949-21.969a39.84,39.84,0,0,1-6.949,21.969" transform="translate(-208.817 -133.467)" fill="url(#z)"/><path d="M407.53,303.206c5.4-5.1,13.618-10.16,21-10.822a40.694,40.694,0,0,1-21,10.822" transform="translate(-207.388 -148.792)" fill="url(#z)"/><path d="M400.111,320.5c6.055-4.8,15.05-9.3,22.826-9.319a42.352,42.352,0,0,1-22.826,9.319" transform="translate(-203.613 -158.355)" fill="url(#z)"/><path d="M390.841,339.471c6.055-4.8,15.05-9.3,22.826-9.319a42.352,42.352,0,0,1-22.826,9.319" transform="translate(-198.895 -168.011)" fill="url(#z)"/><path d="M377.926,361.312c6.055-4.8,15.05-9.3,22.826-9.319a42.351,42.351,0,0,1-22.826,9.319" transform="translate(-192.323 -179.126)" fill="url(#z)"/><path d="M387.94,304.291a.446.446,0,0,1-.034.121l-.125.346-.507,1.321c-.441,1.146-1.115,2.791-1.98,4.81-1.729,4.038-4.288,9.547-7.469,15.449-1.6,2.95-3.191,5.717-4.688,8.207s-2.908,4.693-4.127,6.52-2.222,3.295-2.94,4.291l-.828,1.146-.221.294c-.051.065-.079.1-.083.095a.45.45,0,0,1,.06-.111l.2-.31.786-1.175c.691-1.014,1.674-2.494,2.866-4.336s2.577-4.059,4.073-6.544,3.069-5.262,4.663-8.207c3.177-5.894,5.761-11.383,7.533-15.4.886-2.007,1.588-3.64,2.059-4.773l.554-1.3.151-.336a.433.433,0,0,1,.06-.111" transform="translate(-185.713 -154.851)" fill="#263238"/><path d="M373.079,377.6H342.133v5.964h3.179l2.679,17.01h19.128l2.755-17.01h3.2Z" transform="translate(-174.108 -192.155)" fill="#3a4e58"/><path d="M373.31,389.338c0-.08-6.878-.144-15.36-.144s-15.362.064-15.362.144,6.877.144,15.362.144,15.36-.064,15.36-.144" transform="translate(-174.34 -198.057)" fill="#263238"/></g><g clip-path="url(#a)"><path d="M245.36,5.91v97.113a5.672,5.672,0,0,1-5.672,5.672H95.387a5.672,5.672,0,0,1-5.672-5.672V5.91A5.672,5.672,0,0,1,95.387.238h144.3A5.672,5.672,0,0,1,245.36,5.91" transform="translate(-45.655 -0.121)" fill="#e8e8e8"/><path d="M245.227,5.789s-.01-.113-.024-.336a5.174,5.174,0,0,0-.151-.986,5.514,5.514,0,0,0-.615-1.517,5.629,5.629,0,0,0-1.505-1.678A5.438,5.438,0,0,0,240.294.2a13.235,13.235,0,0,0-1.666-.051l-1.821,0L228.09.167l-55.556.04L134.17.223,112.8.229l-11.177,0h-5.7A9.9,9.9,0,0,0,94.5.291a5.564,5.564,0,0,0-1.361.363A5.629,5.629,0,0,0,90.9,2.348a5.477,5.477,0,0,0-1.127,2.588A8.542,8.542,0,0,0,89.7,6.378V7.847q0,2.943,0,5.921,0,5.955,0,12.044,0,12.175,0,24.84c0,16.874,0,34.344,0,52.237a6.111,6.111,0,0,0,.238,1.616,5.978,5.978,0,0,0,.7,1.474,6.142,6.142,0,0,0,1.093,1.207,5.539,5.539,0,0,0,2.969,1.231c.536.039,1.1.025,1.651.028h16.487l25.743,0,48.665.007,44.036.012h7.657a11.688,11.688,0,0,0,1.243-.038,5.694,5.694,0,0,0,1.194-.274,5.565,5.565,0,0,0,3.374-3.272,6.122,6.122,0,0,0,.371-2.354q0-1.213,0-2.413,0-9.6.008-18.409c.017-23.454.031-42.434.041-55.552.01-6.557.018-11.649.024-15.1.005-1.725.009-3.041.012-3.928s.013-1.338.013-1.338.009.453.013,1.338.007,2.2.012,3.928c.006,3.455.014,8.546.024,15.1.01,13.119.024,32.1.041,55.552q0,8.8.008,18.409,0,1.2,0,2.413a6.321,6.321,0,0,1-.383,2.426,5.766,5.766,0,0,1-3.5,3.394,5.873,5.873,0,0,1-1.238.285,11.805,11.805,0,0,1-1.267.04h-7.657l-44.036.012-48.665.007-25.743,0H96.357c-.555,0-1.1.012-1.676-.029a5.8,5.8,0,0,1-3.106-1.288,6.381,6.381,0,0,1-1.144-1.262,6.226,6.226,0,0,1-.728-1.543,6.348,6.348,0,0,1-.249-1.69c0-17.894,0-35.364,0-52.237q0-12.654,0-24.84,0-6.088,0-12.044,0-2.978,0-5.921V6.378A8.773,8.773,0,0,1,89.539,4.9a5.711,5.711,0,0,1,1.176-2.7A5.859,5.859,0,0,1,93.048.437,5.771,5.771,0,0,1,94.466.06,10.105,10.105,0,0,1,95.917,0h5.7L112.8,0,134.17.011l38.364.016L228.09.067l8.717.012,1.821,0A13.12,13.12,0,0,1,240.3.139a5.488,5.488,0,0,1,2.661,1.091,5.647,5.647,0,0,1,1.508,1.7,5.475,5.475,0,0,1,.607,1.53,5.006,5.006,0,0,1,.139.991c.009.224.01.337.01.337" transform="translate(-45.522 0)" fill="#263238"/><rect width="129.982" height="101.617" transform="translate(55.164 3.939)" fill="#fff"/><path d="M386.4,101.292a4.161,4.161,0,1,1-4.162,4.162,4.162,4.162,0,0,1,4.162-4.162" transform="translate(-194.518 -51.547)" fill="#263238"/><path d="M100.561,78v31.472a.6.6,0,0,1-.6.6h-.526a.6.6,0,0,1-.6-.6V78a.6.6,0,0,1,.6-.6h.526a.6.6,0,0,1,.6.6" transform="translate(-50.3 -39.389)" fill="#263238"/><rect width="12.174" height="101.967" transform="translate(55.164 3.589)" fill="#529d2e"/><path d="M125.029,107.785H113.487a1.163,1.163,0,0,1-1.162-1.162V98.809a1.163,1.163,0,0,1,1.162-1.162h11.542Z" transform="translate(-57.161 -49.692)" fill="#fff"/><path d="M122.42,32.563h0a2.227,2.227,0,1,1,2.22-2.228,2.224,2.224,0,0,1-2.22,2.228" transform="translate(-61.169 -14.304)" fill="#fff"/><path d="M124.333,53.322a15.754,15.754,0,0,1-4,0,15.754,15.754,0,0,1,4,0" transform="translate(-61.234 -27.07)" fill="#fff"/><path d="M125.057,76.3a15.755,15.755,0,0,1-4,0,15.754,15.754,0,0,1,4,0" transform="translate(-61.603 -38.763)" fill="#fff"/><path d="M125.057,134.742a15.755,15.755,0,0,1-4,0,15.755,15.755,0,0,1,4,0" transform="translate(-61.603 -68.504)" fill="#fff"/><path d="M125.057,164.883a15.7,15.7,0,0,1-4,0,15.753,15.753,0,0,1,4,0" transform="translate(-61.603 -83.842)" fill="#fff"/><path d="M125.057,108.139a15.755,15.755,0,0,1-4,0,15.754,15.754,0,0,1,4,0" transform="translate(-61.603 -54.966)" fill="#263238"/><path d="M242.176,109.143c0-.881-.042-40.457-.106-101.967l.106.106L112.2,7.3h-.011l.128-.128c0,36.776-.009,71.549-.013,101.967l-.114-.115,129.982.115-129.982.115h-.115v-.115c0-30.418-.008-65.191-.013-101.967V7.048h.139l129.972.022h.106v.106c-.064,61.51-.105,101.086-.106,101.967" transform="translate(-57.029 -3.587)" fill="#263238"/><rect width="1.751" height="5.866" transform="translate(143.832 87.523)" fill="#529d2e"/><rect width="1.751" height="6.715" transform="translate(129.206 86.672)" fill="#529d2e"/><rect width="1.751" height="8.115" transform="translate(132.862 85.273)" fill="#529d2e"/><rect width="1.751" height="7.67" transform="translate(136.519 85.718)" fill="#529d2e"/><rect width="1.751" height="10.265" transform="translate(140.176 83.123)" fill="#529d2e"/><rect width="1.751" height="10.215" transform="translate(147.488 83.173)" fill="#529d2e"/><rect width="1.751" height="6.86" transform="translate(151.145 86.528)" fill="#529d2e"/><rect width="1.751" height="9.765" transform="translate(154.801 83.623)" fill="#529d2e"/><rect width="1.751" height="11.964" transform="translate(158.458 81.423)" fill="#529d2e"/><rect width="1.751" height="9.815" transform="translate(162.115 83.573)" fill="#529d2e"/><path d="M292.8,170.916H249.73a3.56,3.56,0,0,1-3.556-3.556V141.61a3.56,3.56,0,0,1,3.556-3.556H292.8a3.56,3.56,0,0,1,3.556,3.556V167.36a3.56,3.56,0,0,1-3.556,3.556M249.73,138.405a3.208,3.208,0,0,0-3.2,3.2V167.36a3.208,3.208,0,0,0,3.2,3.2H292.8a3.207,3.207,0,0,0,3.2-3.2V141.61a3.208,3.208,0,0,0-3.2-3.2Z" transform="translate(-125.276 -70.254)" fill="#e0e0e0"/><path d="M280.279,155.391c0,.051-4.982.091-11.127.091s-11.128-.041-11.128-.091,4.981-.091,11.128-.091,11.127.041,11.127.091" transform="translate(-131.306 -79.031)" fill="#e0e0e0"/><path d="M157.2,138.643v31.8H191.04v-31.8Z" transform="translate(-79.996 -70.554)" fill="#f5f5f5"/><path d="M180.526,145.982a10.442,10.442,0,1,0,10.442,10.442,10.442,10.442,0,0,0-10.442-10.442m.158,16.7a6.414,6.414,0,1,1,6.414-6.414,6.415,6.415,0,0,1-6.414,6.414" transform="translate(-86.555 -74.289)" fill="#263238"/><path d="M191.671,145.991c0,1.111,0,2.609,0,3.866a6.417,6.417,0,0,1,6.112,8.359l3.784,1.026a10.437,10.437,0,0,0-9.895-13.252" transform="translate(-97.539 -74.293)" fill="#fc8116"/><path d="M174.27,157.116a6.414,6.414,0,0,1,3.8-5.858l-1.606-3.607a10.445,10.445,0,0,0-6.381,9.623c0,.147,0,.293.011.438h4.2c-.018-.2-.028-.395-.028-.6" transform="translate(-86.555 -75.138)" fill="#455a64"/><path d="M189.53,175.353a6.433,6.433,0,0,1-1.357-.145c-.161.931-.466,2.734-.706,4.154a10.435,10.435,0,0,0,11.96-7.452l-3.784-1.026a6.417,6.417,0,0,1-6.113,4.47" transform="translate(-95.4 -86.961)" fill="#529d2e"/><path d="M186.565,166.038h-.387v.5h-.536v-.5h-1.278v-.369l1.119-1.505h.577l-1.038,1.427h.637v-.444h.519v.444h.387Z" transform="translate(-93.822 -83.541)" fill="#263238"/><path d="M189.176,165.307c0-.783.434-1.227,1.017-1.227s1.017.444,1.017,1.227-.43,1.227-1.017,1.227-1.017-.444-1.017-1.227m1.481,0c0-.539-.19-.763-.464-.763s-.461.224-.461.763.19.763.461.763.464-.223.464-.763" transform="translate(-96.27 -83.499)" fill="#263238"/><path d="M193.778,164.763a.591.591,0,1,1,.59.655.59.59,0,0,1-.59-.655m.837,0c0-.254-.1-.376-.248-.376s-.247.125-.247.376.1.376.247.376.248-.122.248-.376m1.166-.627h.4l-1.62,2.373h-.4Zm-.39,1.746a.591.591,0,1,1,.586.654.59.59,0,0,1-.586-.654m.834,0c0-.251-.1-.376-.248-.376s-.248.122-.248.376.1.376.248.376.248-.125.248-.376" transform="translate(-98.612 -83.514)" fill="#263238"/><path d="M191.033,193.768c0,.055-3.869.1-8.64.1s-8.641-.045-8.641-.1,3.868-.1,8.641-.1,8.64.045,8.64.1" transform="translate(-88.421 -98.556)" fill="#263238"/><path d="M191.172,197c0,.055-2.146.1-4.792.1s-4.792-.045-4.792-.1,2.145-.1,4.792-.1,4.792.045,4.792.1" transform="translate(-92.408 -100.2)" fill="#263238"/><path d="M256.858,43.6s-.17.008-.5.012l-1.486.011-5.741.022-21.355.038-72.549.045.178-.128c0,5.7,0,11.614,0,17.665,0,6.235,0,12.322,0,18.2l-.177-.128,72.044.045,21.188.038,5.694.022,1.473.011c.332,0,.5.012.5.012s-.169.008-.5.012l-1.473.011-5.694.022-21.188.038-72.044.045h-.178v-.128c0-5.879,0-11.966,0-18.2,0-6.051,0-11.963,0-17.665v-.128h.178l72.549.045,21.355.038,5.741.022,1.486.011c.334,0,.5.012.5.012" transform="translate(-78.899 -22.12)" fill="#e0e0e0"/><path d="M257.046,55.887c0,.072-22.754.13-50.815.13s-50.82-.058-50.82-.13,22.749-.13,50.82-.13,50.815.058,50.815.13" transform="translate(-79.087 -28.374)" fill="#e0e0e0"/><path d="M257.046,65.947c0,.072-22.754.13-50.815.13s-50.82-.058-50.82-.13,22.749-.13,50.82-.13,50.815.058,50.815.13" transform="translate(-79.087 -33.494)" fill="#e0e0e0"/><path d="M257.046,76.006c0,.072-22.754.13-50.815.13s-50.82-.058-50.82-.13,22.749-.13,50.82-.13,50.815.058,50.815.13" transform="translate(-79.087 -38.613)" fill="#e0e0e0"/><path d="M257.046,86.066c0,.072-22.754.13-50.815.13s-50.82-.058-50.82-.13,22.749-.13,50.82-.13,50.815.058,50.815.13" transform="translate(-79.087 -43.732)" fill="#e0e0e0"/><path d="M257.046,96.125c0,.072-22.754.13-50.815.13s-50.82-.058-50.82-.13S178.16,96,206.231,96s50.815.058,50.815.13" transform="translate(-79.087 -48.851)" fill="#e0e0e0"/><path d="M155.411,106.184c0-.072,22.754-.13,50.815-.13s50.82.058,50.82.13-22.749.13-50.82.13-50.815-.058-50.815-.13" transform="translate(-79.087 -53.97)" fill="#e0e0e0"/><path d="M184.61,80.139c-.072,0-.13-8.151-.13-18.2s.058-18.206.13-18.206.13,8.15.13,18.206-.058,18.2-.13,18.2" transform="translate(-93.88 -22.253)" fill="#e0e0e0"/><path d="M214.416,80.139c-.072,0-.13-8.151-.13-18.2s.058-18.206.13-18.206.13,8.15.13,18.206-.058,18.2-.13,18.2" transform="translate(-109.048 -22.253)" fill="#e0e0e0"/><path d="M244.222,80.139c-.072,0-.13-8.151-.13-18.2s.058-18.206.13-18.206.13,8.15.13,18.206-.058,18.2-.13,18.2" transform="translate(-124.216 -22.253)" fill="#e0e0e0"/><path d="M274.027,80.139c-.072,0-.13-8.151-.13-18.2s.058-18.206.13-18.206.13,8.15.13,18.206-.058,18.2-.13,18.2" transform="translate(-139.384 -22.253)" fill="#e0e0e0"/><path d="M303.833,80.139c-.072,0-.13-8.151-.13-18.2s.058-18.206.13-18.206.13,8.15.13,18.206-.058,18.2-.13,18.2" transform="translate(-154.552 -22.253)" fill="#e0e0e0"/><path d="M332.686,80.139c-.072,0-.13-8.151-.13-18.2s.058-18.206.13-18.206.13,8.15.13,18.206-.058,18.2-.13,18.2" transform="translate(-169.235 -22.253)" fill="#e0e0e0"/><path d="M362.491,80.139c-.072,0-.13-8.151-.13-18.2s.058-18.206.13-18.206.13,8.15.13,18.206-.058,18.2-.13,18.2" transform="translate(-184.402 -22.253)" fill="#e0e0e0"/><path d="M184.713,105.4a.891.891,0,1,1-.891-.891.891.891,0,0,1,.891.891" transform="translate(-93.092 -53.182)" fill="#fcd03e"/><path d="M214.518,85.278a.891.891,0,1,1-.891-.891.891.891,0,0,1,.891.891" transform="translate(-108.259 -42.944)" fill="#fcd03e"/><path d="M244.324,95.164a.891.891,0,1,1-.891-.891.891.891,0,0,1,.891.891" transform="translate(-123.427 -47.975)" fill="#fcd03e"/><path d="M274.194,74.652a.924.924,0,0,1-1.305,1.305.924.924,0,0,1,1.305-1.305" transform="translate(-138.749 -37.869)" fill="#fcd03e"/><path d="M304.341,74.652a.924.924,0,0,1-1.305,1.305.924.924,0,0,1,1.305-1.305" transform="translate(-154.091 -37.869)" fill="#fcd03e"/><path d="M332.545,94.4a.924.924,0,0,1-1.305,1.305.924.924,0,0,1,1.305-1.305" transform="translate(-168.444 -47.918)" fill="#fcd03e"/><path d="M214.518,65.159a.891.891,0,1,1-.891-.891.891.891,0,0,1,.891.891" transform="translate(-108.259 -32.705)" fill="#455a64"/><path d="M184.713,95.337a.891.891,0,1,1-.891-.891.891.891,0,0,1,.891.891" transform="translate(-93.092 -48.063)" fill="#455a64"/><path d="M332.55,104.743a.924.924,0,0,1-1.305,1.306.924.924,0,0,1,1.305-1.306" transform="translate(-168.446 -53.182)" fill="#455a64"/><path d="M303.935,85.278a.891.891,0,1,1-.891-.891.891.891,0,0,1,.891.891" transform="translate(-153.763 -42.944)" fill="#455a64"/><path d="M274.433,85.013a.891.891,0,1,1-.891-.891.891.891,0,0,1,.891.891" transform="translate(-138.75 -42.809)" fill="#455a64"/><path d="M169.379,124.949a7.7,7.7,0,0,1-2.819,0,7.7,7.7,0,0,1,2.819,0" transform="translate(-84.761 -63.519)" fill="#e0e0e0"/><path d="M199.843,124.949a7.7,7.7,0,0,1-2.819,0,7.7,7.7,0,0,1,2.819,0" transform="translate(-100.264 -63.519)" fill="#e0e0e0"/><path d="M230.308,124.949a7.7,7.7,0,0,1-2.819,0,7.7,7.7,0,0,1,2.819,0" transform="translate(-115.767 -63.519)" fill="#e0e0e0"/><path d="M260.772,124.949a7.7,7.7,0,0,1-2.819,0,7.7,7.7,0,0,1,2.819,0" transform="translate(-131.27 -63.519)" fill="#e0e0e0"/><path d="M291.236,124.949a7.7,7.7,0,0,1-2.819,0,7.7,7.7,0,0,1,2.819,0" transform="translate(-146.773 -63.519)" fill="#e0e0e0"/><path d="M318.478,124.949a7.7,7.7,0,0,1-2.82,0,7.7,7.7,0,0,1,2.82,0" transform="translate(-160.636 -63.519)" fill="#e0e0e0"/><path d="M345.72,124.949a7.7,7.7,0,0,1-2.819,0,7.7,7.7,0,0,1,2.819,0" transform="translate(-174.499 -63.519)" fill="#e0e0e0"/><path d="M148.748,116.217a5.044,5.044,0,0,1-2.277,0,5.044,5.044,0,0,1,2.277,0" transform="translate(-74.538 -59.076)" fill="#e0e0e0"/><path d="M148.748,104.517a5.026,5.026,0,0,1-2.277,0,5.063,5.063,0,0,1,2.277,0" transform="translate(-74.538 -53.122)" fill="#e0e0e0"/><path d="M148.748,92.816a5.044,5.044,0,0,1-2.277,0,5.043,5.043,0,0,1,2.277,0" transform="translate(-74.538 -47.167)" fill="#e0e0e0"/><path d="M148.748,81.116a5.044,5.044,0,0,1-2.277,0,5.044,5.044,0,0,1,2.277,0" transform="translate(-74.538 -41.213)" fill="#e0e0e0"/><path d="M148.748,69.416a5.044,5.044,0,0,1-2.277,0,5.044,5.044,0,0,1,2.277,0" transform="translate(-74.538 -35.259)" fill="#e0e0e0"/><path d="M148.748,57.716a5.044,5.044,0,0,1-2.277,0,5.044,5.044,0,0,1,2.277,0" transform="translate(-74.538 -29.305)" fill="#e0e0e0"/><path d="M148.748,46.016a5.044,5.044,0,0,1-2.277,0,5.044,5.044,0,0,1,2.277,0" transform="translate(-74.538 -23.351)" fill="#e0e0e0"/><path d="M155.047,96.065l-.163-.463,14.554-5.116,14.712-9.93,14.639,4.856,14.749-9.727,14.771-.043.064.045L242.405,85.6,256,76.616l.271.409L242.4,86.195l-.137-.1-14.106-9.965-14.468.042-14.824,9.778L184.224,81.1l-14.594,9.841Z" transform="translate(-78.819 -38.493)" fill="#529d2e"/><path d="M242.751,80.319l-14.328-9.74H213.658l-14.775-9.751L184.557,60.7,169.92,75.519H155.412v-.491h14.3l14.639-14.822,14.679.132,14.773,9.749h14.77l14.012,9.526,14-24.592.427.243Z" transform="translate(-79.088 -28)" fill="#455a64"/><path d="M336.51,28.966c0,.071-5.519.128-12.325.128s-12.327-.057-12.327-.128,5.518-.128,12.327-.128,12.325.057,12.325.128" transform="translate(-158.702 -14.675)" fill="#263238"/></g><text transform="translate(76.15 15.014)" fill="#455a64" font-size="3" font-family="Roboto-Bold, Roboto" font-weight="700"><tspan x="0" y="0">RANGO</tspan></text><g clip-path="url(#a)"><path d="M99.59,160.017l-1.727,2.158v-3.714H92.425s-.6,8.506-.475,10.319,2.158,6.993,2.158,6.993a20.033,20.033,0,0,0,5.482-4.792c2.417-3.108,6.434-10.679,6.434-10.679l-4.189-2.53Z" transform="translate(-46.783 -80.289)" fill="#ffbe9d"/><path d="M102.628,161.529a6.177,6.177,0,0,1-.711.949c-.458.569-1.094,1.353-1.821,2.2s-1.413,1.594-1.946,2.1a3.926,3.926,0,0,1-.924.749,9.166,9.166,0,0,1,.795-.876c.5-.533,1.155-1.295,1.881-2.139a26.705,26.705,0,0,1,2.726-2.982" transform="translate(-49.477 -82.2)" fill="#eb996e"/><path d="M96.654,119.536s-1.55-12.692-7.676-13.99l-3.174,12.2,2.637,8.8,8.747-1.194Z" transform="translate(-43.665 -53.711)" fill="#529d2e"/><path d="M25.482,125.577l.289.907,6.021,18.864s14.838,5.641,20.171,3.408a20.329,20.329,0,0,0,7.8-5.406L58.574,103.2l-8.461-1.282-14.591-1.071-9.774,3.135Z" transform="translate(-12.968 -51.32)" fill="#529d2e"/><g transform="translate(12.514 72.149)" opacity="0.3"><g clip-path="url(#ar)"><path d="M43.9,156.372a62.829,62.829,0,0,1-15.427-9.461l-2.989,1.594c2.246,4.532,4.115,8.669,7.211,12.669a10.547,10.547,0,0,0,4.121,3.308,6.892,6.892,0,0,0,6.925-1.408c1.777-1.656,3.11-6.514,2.526-10.478-1,.054-1.443,4.158-2.367,3.776" transform="translate(-25.482 -146.911)"/></g></g><path d="M91.368,134.707a14.7,14.7,0,0,0-3.078-7.568,4.105,4.105,0,0,1,.838.9,11.1,11.1,0,0,1,2.214,5.444,4.087,4.087,0,0,1,.026,1.227" transform="translate(-44.929 -64.699)" fill="#263238"/><path d="M77.418,61.465a2.177,2.177,0,0,1-2.045-.913,2.6,2.6,0,0,0,1.571-.087c.475-.243.745-.942.372-1.325-.291-.3-.77-.247-1.186-.277A2.564,2.564,0,0,1,73.95,57.19a7.142,7.142,0,0,1,.1-3.174,8.741,8.741,0,0,0-3.66-8.068L63.734,42.1a15.043,15.043,0,0,0-2.665,11.137A29.333,29.333,0,0,0,65.2,64.16a12.968,12.968,0,0,0,2.007,2.762,5.142,5.142,0,0,0,2.99,1.534,3.084,3.084,0,0,0-.493-2.785A6.713,6.713,0,0,0,74.652,63.9l-1.426-1.094a5.208,5.208,0,0,0,4.192-1.341" transform="translate(-31.003 -21.425)" fill="#263238"/><path d="M42.319,50.839a6.235,6.235,0,0,1,4.524-5.872l8.341-2.383c3.619-.5,6.172,3.9,6.514,7.539a57.746,57.746,0,0,1,.277,11.345c-.778,6.1-5.41,7.021-5.41,7.021s.082,2.891.129,4.665l-1.359,7.952-11-9.388L42.3,50.913c-.005-.1.013.064.019-.074" transform="translate(-21.526 -21.651)" fill="#ffbe9d"/><path d="M78.04,66.723a.779.779,0,0,1-.727.809.746.746,0,0,1-.825-.678.78.78,0,0,1,.726-.809.746.746,0,0,1,.826.678" transform="translate(-38.923 -33.608)" fill="#263238"/><path d="M76.887,62.074c-.093.1-.7-.314-1.535-.286s-1.44.466-1.534.366c-.046-.044.047-.231.308-.434A2.138,2.138,0,0,1,75.35,61.3a2.052,2.052,0,0,1,1.226.355c.264.19.357.371.311.418" transform="translate(-37.559 -31.195)" fill="#263238"/><path d="M63.09,66.742a.779.779,0,0,1-.727.809.746.746,0,0,1-.825-.678.78.78,0,0,1,.726-.809.746.746,0,0,1,.826.678" transform="translate(-31.316 -33.618)" fill="#263238"/><path d="M60.673,62.537c-.094.1-.7-.314-1.536-.286s-1.439.466-1.534.366c-.046-.044.046-.231.309-.434a2.138,2.138,0,0,1,1.224-.419,2.054,2.054,0,0,1,1.226.355c.263.19.357.371.311.418" transform="translate(-29.308 -31.431)" fill="#263238"/><path d="M68.958,69.368a5.565,5.565,0,0,1,1.354-.287c.214-.029.415-.078.446-.225a1.09,1.09,0,0,0-.163-.63l-.683-1.611a28.047,28.047,0,0,1-1.553-4.22,28.1,28.1,0,0,1,1.889,4.086q.344.849.657,1.621a1.242,1.242,0,0,1,.137.837.537.537,0,0,1-.342.324,1.463,1.463,0,0,1-.362.062,5.456,5.456,0,0,1-1.38.044" transform="translate(-34.783 -31.752)" fill="#263238"/><path d="M54.813,91.439s2.1,4.116,8.159,3.361l-.039-1.429a15.313,15.313,0,0,1-8.12-1.932" transform="translate(-27.894 -46.532)" fill="#eb996e"/><path d="M59.2,56.582c-.076.23-.916.148-1.9.3-.983.129-1.768.442-1.9.241-.061-.1.071-.315.385-.545a3.335,3.335,0,0,1,2.9-.41c.365.135.553.308.521.417" transform="translate(-28.186 -28.499)" fill="#263238"/><path d="M76.41,56.814c-.141.195-.725.015-1.42.027-.7-.012-1.279.167-1.42-.028-.062-.095.025-.288.276-.477a2.055,2.055,0,0,1,2.288,0c.252.189.338.382.276.477" transform="translate(-37.429 -28.492)" fill="#263238"/><path d="M63.163,79.031a1.094,1.094,0,0,1,1.107-.862,1.144,1.144,0,0,1,.9.6,1.406,1.406,0,0,1,.081,1.093l-.015.08a1.249,1.249,0,0,1-1.394.338,1.166,1.166,0,0,1-.676-1.248" transform="translate(-32.134 -39.778)" fill="#eb996e"/><path d="M66.155,79.371c0-.127-.849-.063-1.507-.74s-.635-1.586-.754-1.583c-.055-.008-.149.214-.129.6a2.114,2.114,0,0,0,.581,1.326,1.844,1.844,0,0,0,1.26.566c.357,0,.559-.107.549-.164" transform="translate(-32.448 -39.209)" fill="#263238"/><path d="M48.049,36.122a8.463,8.463,0,0,1,4.89-3.35,4.608,4.608,0,0,1,4.471,1.181,4.929,4.929,0,0,0,1.961,1.161,8.291,8.291,0,0,1,2.873.607c1.546.791,2.224,2.858,2.94,4.439.89,1.966,2.158,3.775,2.739,5.853s.272,4.632-1.479,5.892c.334-1.774.61-3.747-.364-5.267-.743-1.159-2.066-1.8-3.019-2.794-1.15-1.2-1.3-2.8-2.5-3.946-2.749-2.611-7.592,1.983-12.508-3.777" transform="translate(-24.452 -16.612)" fill="#263238"/><path d="M67.162,48.1a17.763,17.763,0,0,0-2.711-4.91,9.547,9.547,0,0,0-12.692-1.627l-.479.041a8.053,8.053,0,0,0,6.262,3.017c1.428-.007,2.978-.373,4.2.361,1.178.706,1.624,2.188,2.594,3.161.66.662,1.545,1.069,2.185,1.75a7.159,7.159,0,0,1,1.352,2.622,6.842,6.842,0,0,0-.715-4.416" transform="translate(-26.096 -20.287)" fill="#263238"/><path d="M43.075,42.194,39.18,38.769c-3.036-.158-4.984,2.711-6.026,4.926a48.228,48.228,0,0,0-1.6,5.212c-.6,1.769-1.556,3.405-2.1,5.192a6.265,6.265,0,0,0,.455,5.391l.68-1.249A7.547,7.547,0,0,0,32.631,62.9q.13-.65.261-1.3a7.321,7.321,0,0,0,2.93,3.157l1.824,4.877c2.7-8.207-4.242-8.83,5.428-27.441" transform="translate(-14.791 -19.726)" fill="#263238"/><path d="M44.508,43.055a17.679,17.679,0,0,1-.914,3.259,6.266,6.266,0,0,1-2,2.682c-1.332.967-3.048,1.165-4.648,1.55s-3.305,1.124-3.964,2.632a37.726,37.726,0,0,1,1.365-6.534c.714-2.351,1.743-4.746,3.7-6.229a6.785,6.785,0,0,1,6.394-.954" transform="translate(-16.781 -19.872)" fill="#263238"/><path d="M44.087,68.7c-.082-.2-3.861-1.447-3.8,2.531.062,3.864,3.938,2.992,3.943,2.881s-.146-5.412-.146-5.412" transform="translate(-20.503 -34.788)" fill="#ffbe9d"/><path d="M44.019,73.992c-.017-.012-.066.049-.179.1a.671.671,0,0,1-.5.02,1.665,1.665,0,0,1-.8-1.48,2.219,2.219,0,0,1,.17-.967.777.777,0,0,1,.5-.526.342.342,0,0,1,.4.177c.054.107.031.185.052.191s.082-.066.048-.225a.43.43,0,0,0-.157-.239.506.506,0,0,0-.374-.091.944.944,0,0,0-.691.612,2.283,2.283,0,0,0-.213,1.082,1.748,1.748,0,0,0,1.014,1.65.722.722,0,0,0,.614-.114c.117-.1.137-.185.123-.192" transform="translate(-21.509 -36.105)" fill="#eb996e"/><path d="M44.071,78.553a.76.76,0,1,0,.182.052" transform="translate(-21.981 -39.971)" fill="#fff"/><path d="M44.171,78.574a1.039,1.039,0,0,1,.362.509.655.655,0,0,1-.134.611.676.676,0,0,1-1.2-.345.655.655,0,0,1,.211-.588,1.041,1.041,0,0,1,.578-.239c0-.01-.06-.038-.183-.037a.788.788,0,0,0-.477.182.771.771,0,0,0-.29.705.829.829,0,0,0,1.484.426.773.773,0,0,0,.129-.751.793.793,0,0,0-.307-.408c-.1-.065-.171-.074-.174-.065" transform="translate(-21.899 -39.94)" fill="#263238"/><path d="M38.322,67.86c-.006.006-.047-.024-.118-.087a2.6,2.6,0,0,1-.3-.3,4.639,4.639,0,0,1-.8-1.317,4.538,4.538,0,0,1-.306-2.273,3.877,3.877,0,0,1,1.368-2.44,9.38,9.38,0,0,1,2.415-1.418c.785-.34,1.489-.636,2.05-.942A8.349,8.349,0,0,0,44.3,57.877a1.684,1.684,0,0,1-.354.441,5.986,5.986,0,0,1-1.231.926,22.078,22.078,0,0,1-2.043,1,9.666,9.666,0,0,0-2.344,1.4,3.7,3.7,0,0,0-1.3,2.281,4.516,4.516,0,0,0,.242,2.175,6.766,6.766,0,0,0,1.05,1.766" transform="translate(-18.708 -29.452)" fill="#455a64"/><path d="M38.918,66.017a.992.992,0,0,1-.173-.377,3.155,3.155,0,0,1-.139-1.125,3.593,3.593,0,0,1,.473-1.619,3.536,3.536,0,0,1,1.512-1.406,19.75,19.75,0,0,1,1.889-.764,5.289,5.289,0,0,0,1.412-.783,3.13,3.13,0,0,0,.884-1.183.863.863,0,0,1-.093.406,2.526,2.526,0,0,1-.674.915,5.024,5.024,0,0,1-1.441.863c-.579.245-1.234.449-1.859.773a3.4,3.4,0,0,0-1.427,1.3,3.593,3.593,0,0,0-.5,1.513,5.271,5.271,0,0,0,.133,1.488" transform="translate(-19.644 -29.903)" fill="#455a64"/><path d="M53.05,43.233a11.308,11.308,0,0,0-1.51-2.494,11.3,11.3,0,0,0-2.268-1.833,2.138,2.138,0,0,1,.815.326,6.261,6.261,0,0,1,2.75,3.15,2.152,2.152,0,0,1,.214.852" transform="translate(-25.074 -19.796)" fill="#455a64"/><path d="M86.5,67.4a1.873,1.873,0,0,1-.5-.066,9.952,9.952,0,0,1-1.319-.354,5.69,5.69,0,0,1-.87-.387,2.337,2.337,0,0,1-.848-.727,1.472,1.472,0,0,1-.23-.581q-.021-.146-.044-.295a2.091,2.091,0,0,1-.035-.324,4.025,4.025,0,0,1,.236-1.289,4.828,4.828,0,0,0,.269-1.21,1.869,1.869,0,0,0-.3-1.058,8.09,8.09,0,0,0-1.337-1.453,11.288,11.288,0,0,0-1.021-.878,3.491,3.491,0,0,1-.4-.295,4.458,4.458,0,0,1,1.543,1.039,7.552,7.552,0,0,1,1.416,1.463,2.089,2.089,0,0,1,.351,1.19,4.915,4.915,0,0,1-.275,1.276,3.9,3.9,0,0,0-.23,1.208,1.864,1.864,0,0,0,.028.284c.014.1.027.2.041.3a1.245,1.245,0,0,0,.187.5,2.178,2.178,0,0,0,.756.672,6,6,0,0,0,.828.4c1.062.4,1.763.542,1.751.589" transform="translate(-40.763 -29.762)" fill="#455a64"/><path d="M65.089,405.013l.214-5.42,9.446-.356-.143,6.633-3.435,2.072Z" transform="translate(-33.123 -203.168)" fill="#ffbe9d"/><path d="M74.185,409.909l0,.621s10.488,4.329,10.581,6.328l-20.905-.307.387-6.952a11.96,11.96,0,0,0,9.941.31" transform="translate(-32.496 -208.441)" fill="#3a8416"/><g transform="translate(33.211 203.38)" opacity="0.6"><g clip-path="url(#as)"><path d="M68.244,414.157a.854.854,0,0,0-.6.966.821.821,0,0,0,.952.608.9.9,0,0,0,.635-1.026.852.852,0,0,0-1.06-.523" transform="translate(-67.624 -414.124)" fill="#fff"/></g></g><g transform="translate(31.36 206.438)" opacity="0.6"><g clip-path="url(#at)"><path d="M63.856,422.022l.093-1.672,20,.907s.925.418.81,1.073Z" transform="translate(-63.856 -420.35)" fill="#fff"/></g></g><path d="M83.035,411.514c0,.1-.516.14-1.023.462s-.781.746-.874.7c-.094-.021.067-.63.688-1.007s1.233-.252,1.209-.159" transform="translate(-41.277 -209.365)" fill="#263238"/><path d="M88.007,413.484c.022.1-.423.267-.776.693s-.46.882-.561.876c-.1.014-.158-.584.291-1.106s1.046-.56,1.047-.463" transform="translate(-44.07 -210.397)" fill="#263238"/><path d="M91.8,417.1c-.093.021-.228-.492.043-1.047s.751-.771.793-.685-.258.38-.473.839-.261.884-.363.892" transform="translate(-46.657 -211.366)" fill="#263238"/><path d="M47.8,405.263l.214-5.42,9.446-.356-.143,6.633-3.435,2.072Z" transform="translate(-24.323 -203.295)" fill="#ffbe9d"/><path d="M56.892,410.159l0,.621s10.488,4.329,10.581,6.328L46.564,416.8l.387-6.953a11.96,11.96,0,0,0,9.941.31" transform="translate(-23.696 -208.568)" fill="#529d2e"/><g transform="translate(24.718 203.503)" opacity="0.6"><g clip-path="url(#as)"><path d="M50.952,414.408a.854.854,0,0,0-.6.966.82.82,0,0,0,.952.607.9.9,0,0,0,.635-1.025.852.852,0,0,0-1.06-.523" transform="translate(-50.331 -414.375)" fill="#fff"/></g></g><g transform="translate(22.868 206.561)" opacity="0.6"><g clip-path="url(#at)"><path d="M46.564,422.273l.093-1.672,20,.907s.925.418.81,1.073Z" transform="translate(-46.564 -420.601)" fill="#fff"/></g></g><path d="M65.742,411.764c0,.1-.516.14-1.023.462s-.781.746-.874.7c-.094-.022.067-.629.688-1.007s1.233-.252,1.209-.159" transform="translate(-32.477 -209.492)" fill="#263238"/><path d="M70.714,413.735c.022.1-.423.266-.776.693s-.46.882-.561.876c-.1.014-.158-.584.291-1.106s1.046-.56,1.046-.463" transform="translate(-35.27 -210.524)" fill="#263238"/><path d="M74.507,417.347c-.093.021-.228-.492.043-1.047s.751-.771.793-.685-.258.38-.473.839-.261.884-.363.892" transform="translate(-37.856 -211.493)" fill="#263238"/><path d="M18.9,127.5s7.859,12.182,11.985,17.093,10.9.589,11.69-6.091.589-19.057.589-19.057l-5.489-3.268-3.548,16.9-4.421-8.228Z" transform="translate(-9.62 -59.12)" fill="#ffbe9d"/><path d="M62.622,105.608l2.358-5.894a9.394,9.394,0,0,0,1.392-.8c.346-.324.277-2.437.179-2.83s.382-1.473.044-1.67-1.285,0-1.321-.393c-.008-.084.489-1.084-.2-1.58a2.986,2.986,0,0,0-1.087-.2L63.6,90.284s-1.572-2.058-2.456-.983c0,0-3.34,4.028-3.635,4.617s-.381,7.416-.381,8.693" transform="translate(-29.074 -45.286)" fill="#ffbe9d"/><path d="M57.094,102.488a1.856,1.856,0,0,1-.024-.356c0-.257-.008-.6-.013-1.021,0-.887,0-2.171.045-3.761.023-.8.05-1.667.12-2.6.022-.235.04-.473.083-.72a1.538,1.538,0,0,1,.344-.695c.295-.408.61-.814.937-1.23.653-.83,1.351-1.692,2.081-2.582a3.027,3.027,0,0,1,.63-.657,1.04,1.04,0,0,1,.962.01,4.276,4.276,0,0,1,1.409,1.211l.018.022.006.031c.037.19.077.394.118.6.09.458.179.912.267,1.358l-.122-.1a4.806,4.806,0,0,1,.767.078,1.07,1.07,0,0,1,.4.147,1,1,0,0,1,.277.315,1.241,1.241,0,0,1,.114.788,2.432,2.432,0,0,1-.083.37l-.055.173-.011.036c0-.007,0-.021,0-.008s0,.025.013.032c.02.042.128.08.232.1s.222.026.338.035.235.016.358.034a.675.675,0,0,1,.391.16.574.574,0,0,1,.1.412,2.652,2.652,0,0,1-.045.354c-.041.226-.095.443-.123.652a.839.839,0,0,0,0,.287,2.93,2.93,0,0,1,.044.339c.018.22.026.435.029.648a8.528,8.528,0,0,1-.063,1.25,1.524,1.524,0,0,1-.186.612,1.848,1.848,0,0,1-.494.365c-.331.192-.658.358-.978.513l.048-.051-1.763,4.292-.495,1.166a2.666,2.666,0,0,1-.19.4,2.626,2.626,0,0,1,.138-.421l.446-1.186,1.684-4.324.013-.034L64.9,99.5c.313-.157.637-.326.958-.516a1.8,1.8,0,0,0,.427-.313,1.41,1.41,0,0,0,.142-.517,8.425,8.425,0,0,0,.051-1.216c-.005-.209-.015-.42-.033-.632A2.729,2.729,0,0,0,66.4,96a1.075,1.075,0,0,1-.007-.369c.03-.229.083-.447.121-.664a2.329,2.329,0,0,0,.039-.321.374.374,0,0,0-.044-.242.539.539,0,0,0-.246-.08c-.107-.016-.221-.023-.338-.03s-.237-.015-.363-.037a.581.581,0,0,1-.394-.2.3.3,0,0,1-.054-.131.2.2,0,0,1,0-.1l.014-.05.053-.169a2.159,2.159,0,0,0,.074-.333.994.994,0,0,0-.087-.631.747.747,0,0,0-.206-.233.872.872,0,0,0-.3-.1,4.653,4.653,0,0,0-.722-.072l-.1,0-.02-.1-.268-1.358-.118-.6.024.053A4.061,4.061,0,0,0,62.155,89.1a.791.791,0,0,0-.734-.023,3.018,3.018,0,0,0-.562.6c-.732.887-1.434,1.745-2.091,2.569-.328.412-.646.816-.939,1.215a1.324,1.324,0,0,0-.312.6c-.042.23-.063.468-.086.7-.079.929-.116,1.8-.151,2.593-.052,1.568-.095,2.844-.125,3.757-.014.423-.026.762-.034,1.02a1.914,1.914,0,0,1-.027.355" transform="translate(-29.036 -45.163)" fill="#eb996e"/><path d="M64.893,95.595c.008.043-.409.1-1.032.31a7.723,7.723,0,0,0-1.049.5,5.226,5.226,0,0,1-1.428.338A2.769,2.769,0,0,0,59.3,97.99a2.968,2.968,0,0,0-.347.989,1.366,1.366,0,0,1,.191-1.08,2.691,2.691,0,0,1,.813-.9,3.022,3.022,0,0,1,1.391-.505,5.646,5.646,0,0,0,1.371-.3,6.233,6.233,0,0,1,1.092-.462,2.853,2.853,0,0,1,1.086-.138" transform="translate(-29.979 -48.64)" fill="#eb996e"/><path d="M67.779,94.944c-.053.044-.27-.155-.325-.5s.084-.6.148-.574.056.258.1.532.132.5.073.538" transform="translate(-34.32 -47.771)" fill="#eb996e"/><path d="M68.669,99.3a9.054,9.054,0,0,1-3.1.454,3.09,3.09,0,0,0-1.153.113,1.244,1.244,0,0,0-.616.643,7.478,7.478,0,0,0-.225.864,1.4,1.4,0,0,1,.057-.932,1.376,1.376,0,0,1,.688-.791,3.012,3.012,0,0,1,1.246-.154c1.714-.015,3.091-.273,3.1-.2" transform="translate(-32.327 -50.527)" fill="#eb996e"/><path d="M71.327,102.78a1.68,1.68,0,0,1-.748.174c-.472.054-1.126.035-1.83.056a4.042,4.042,0,0,0-.964.12,1.157,1.157,0,0,0-.623.4,1.106,1.106,0,0,0-.2.669c-.013.006-.064-.056-.088-.2a.873.873,0,0,1,.135-.574,1.272,1.272,0,0,1,.7-.523,3.651,3.651,0,0,1,1.026-.151c.724-.022,1.366.026,1.83.019a3.688,3.688,0,0,1,.758.007" transform="translate(-34.029 -52.288)" fill="#eb996e"/><path d="M73.131,106.335c.05.022-.212.46-.843.6l.1-.136c.012.114.025.222.037.334a3.616,3.616,0,0,1,0,1.35,3.643,3.643,0,0,1-.257-1.322c-.009-.112-.019-.22-.028-.333l-.01-.118.11-.018a4.4,4.4,0,0,0,.889-.358" transform="translate(-36.707 -54.111)" fill="#eb996e"/><path d="M60.069,185.931s6.99,15.43,6.99,25.08-6.893,41.2-6.893,41.2-.919,8.731-1.838,20.372a139.085,139.085,0,0,1-3.523,21.6H47.913l-11.182.306s-4.749-19.453-4.443-26.806,1.532-15.777,1.532-15.777-5.974-24.355-7.046-28.8a46.774,46.774,0,0,1-.646-8.586A56.339,56.339,0,0,1,30.072,193.3l1.951-4.953Z" transform="translate(-13.295 -94.619)" fill="#263238"/><path d="M70.691,248.751c-.076,0-.907,17.27-1.855,38.577s-1.657,38.589-1.581,38.592.906-17.266,1.855-38.58,1.657-38.585,1.581-38.589" transform="translate(-34.222 -126.587)" fill="#455a64"/><path d="M75.77,212.086a5.234,5.234,0,0,0,.153-.854c.084-.552.174-1.354.258-2.348a52.227,52.227,0,0,0-1.064-15.508c-.218-.973-.417-1.756-.576-2.291a5.267,5.267,0,0,0-.268-.825,5.137,5.137,0,0,0,.164.851c.127.542.3,1.329.49,2.3a60.32,60.32,0,0,1,1.06,15.455c-.058.993-.119,1.8-.17,2.35a5.223,5.223,0,0,0-.047.865" transform="translate(-37.795 -96.822)" fill="#455a64"/><path d="M29.5,208.813a1.358,1.358,0,0,0,.479.29,3.557,3.557,0,0,0,1.509.252,8.743,8.743,0,0,0,4.614-1.881,10.787,10.787,0,0,0,3.19-3.841,9.235,9.235,0,0,0,.562-1.412,2.157,2.157,0,0,0,.119-.545c-.053-.018-.248.755-.854,1.868a11.443,11.443,0,0,1-3.183,3.711,9.089,9.089,0,0,1-4.458,1.906,4.176,4.176,0,0,1-1.978-.349" transform="translate(-15.011 -102.631)" fill="#455a64"/><path d="M88.28,197.5a1.783,1.783,0,0,0,.113.492,9.8,9.8,0,0,0,.482,1.287,13.77,13.77,0,0,0,6.108,6.517,9.906,9.906,0,0,0,1.253.564,1.8,1.8,0,0,0,.483.145c.018-.046-.648-.307-1.642-.879a15.163,15.163,0,0,1-6.026-6.429c-.506-1.029-.723-1.712-.771-1.7" transform="translate(-44.923 -100.505)" fill="#455a64"/><path d="M68.177,195.419c.023,0,.031-.107.089-.28a1.2,1.2,0,0,1,.443-.6,1.109,1.109,0,0,1,1.032-.132,1.077,1.077,0,0,1,0,2.016,1.109,1.109,0,0,1-1.032-.132,1.2,1.2,0,0,1-.443-.6c-.058-.173-.067-.28-.089-.28s-.045.108-.014.306a1.194,1.194,0,0,0,.429.724,1.289,1.289,0,0,0,1.236.215,1.319,1.319,0,0,0,0-2.491,1.288,1.288,0,0,0-1.236.215,1.193,1.193,0,0,0-.429.724c-.03.2,0,.307.014.306" transform="translate(-34.681 -98.776)" fill="#455a64"/><path d="M48.788,319.361a34.022,34.022,0,0,0,3.706,2.213,34.089,34.089,0,0,0,3.839,1.974,33.995,33.995,0,0,0-3.706-2.214,34.073,34.073,0,0,0-3.839-1.974" transform="translate(-24.828 -162.518)" fill="#455a64"/><path d="M94.833,119.951C92.7,123.194,84.059,136.332,81.5,140.217a.6.6,0,0,0,.579.925l15.349-1.931a.6.6,0,0,0,.41-.242L112.5,118.946a.6.6,0,0,0-.529-.954L96.181,119.16a1.768,1.768,0,0,0-1.348.791" transform="translate(-41.426 -60.044)" fill="#e0e0e0"/><path d="M94.713,119.846a1.039,1.039,0,0,1,.122-.184,1.719,1.719,0,0,1,.5-.418A2.158,2.158,0,0,1,96.354,119l1.429-.117,9.1-.715,3.017-.231,1.605-.123c.141-.008.261-.026.423-.026a.686.686,0,0,1,.442.183.7.7,0,0,1,.116.9l-4.268,5.854-9.789,13.387c-.223.3-.421.584-.663.9a.73.73,0,0,1-.273.185,1.249,1.249,0,0,1-.3.059l-.542.068-2.147.27-4.2.526-7.938.991c-.165.018-.3.044-.488.054a.7.7,0,0,1-.508-.212.727.727,0,0,1-.21-.5.843.843,0,0,1,.185-.492l1.012-1.534,1.936-2.932,3.479-5.26,5.052-7.607,1.384-2.061.365-.532a1.377,1.377,0,0,1,.132-.177,1.39,1.39,0,0,1-.11.191l-.344.546-1.344,2.088-4.984,7.652L84.479,135.6l-1.926,2.939-1.007,1.537a.61.61,0,0,0-.145.365.5.5,0,0,0,.144.341.47.47,0,0,0,.342.141c.13-.007.307-.036.459-.054l7.936-1.006,4.2-.53,2.147-.271.542-.068a1,1,0,0,0,.238-.044.475.475,0,0,0,.177-.12l.644-.874,9.805-13.375,4.28-5.829a.493.493,0,0,0-.081-.633.473.473,0,0,0-.309-.13c-.114,0-.268.017-.4.024l-1.605.115-3.018.215-9.111.634-1.43.094a2.132,2.132,0,0,0-1,.218,2.017,2.017,0,0,0-.643.557" transform="translate(-41.306 -59.939)" fill="#263238"/><path d="M113.658,119.931a1.73,1.73,0,0,1-.322.048l-.932.094-3.469.308-11.8.963.094-.055c-.738,1.1-1.5,2.236-2.265,3.412-3.113,4.785-5.832,9.183-7.885,12.312-1.021,1.569-1.87,2.823-2.461,3.686l-.692.987a2.56,2.56,0,0,1-.256.334,2.594,2.594,0,0,1,.213-.363l.652-1.013,2.392-3.729c2.014-3.152,4.708-7.565,7.823-12.354.765-1.178,1.53-2.317,2.272-3.414l.034-.05.06,0,11.8-.876,3.475-.233.935-.052a1.778,1.778,0,0,1,.325,0" transform="translate(-42.581 -61.029)" fill="#263238"/><path d="M125.349,125.764h0l.006,0Z" transform="translate(-63.789 -63.999)" fill="#fff"/><path d="M125.156,125.988a.31.31,0,0,0-.38-.229.822.822,0,0,0-.412.231.41.41,0,0,0-.075.526c.153.19.469.12.653-.039a.538.538,0,0,0,.213-.489" transform="translate(-63.216 -63.995)" fill="#fff"/><path d="M108.82,147.585s-.606-1.444.932-1.631a53.282,53.282,0,0,1,5.573,0s2.207.233,1.741,1.817c0,0,1.3,1.165.606,2.423s-.978.885-.978.885.187,1.538-.978,1.77c0,0-1.263,1.491-2.425,1.4a24.285,24.285,0,0,1-6.426-2.935c-.326-.466-.792-.731-.512-1.251,0,0-.606-1.363.7-1.57,0,0,.093-1.139,1.77-.906" transform="translate(-54.05 -74.233)" fill="#ffbe9d"/><path d="M118.582,149.77a4.215,4.215,0,0,1-1.039.075c-.641.013-1.526.014-2.5,0a14.776,14.776,0,0,1-2.515-.15c-.663-.153-.923-.543-.892-.551a2.647,2.647,0,0,0,.93.374c.61.1,1.506.04,2.482.071.978.015,1.863.043,2.5.076a4.23,4.23,0,0,1,1.036.106" transform="translate(-56.807 -75.896)" fill="#eb996e"/><path d="M115.514,152.713a.771.771,0,0,1-.334.115,3.58,3.58,0,0,1-.961.059,6.8,6.8,0,0,1-1.4-.254c-.516-.142-1.064-.341-1.643-.519a7.356,7.356,0,0,0-1.653-.341,2.539,2.539,0,0,1-1.409-.285.806.806,0,0,1-.336-.48.662.662,0,0,1,.058-.436c.122-.222.287-.235.283-.222.013.02-.119.067-.192.263a.6.6,0,0,0,.288.726,2.522,2.522,0,0,0,1.32.2,6.884,6.884,0,0,1,1.715.331l1.634.537a7.812,7.812,0,0,0,1.351.3,8.786,8.786,0,0,0,1.279.005" transform="translate(-54.84 -76.511)" fill="#eb996e"/><path d="M113.113,156.854a4.143,4.143,0,0,1-1.037-.2c-.631-.159-1.5-.406-2.44-.715s-1.788-.622-2.392-.867a4.141,4.141,0,0,1-.955-.451c.026-.068,1.544.46,3.426,1.075s3.417,1.089,3.4,1.159" transform="translate(-54.089 -78.682)" fill="#eb996e"/><path d="M115.375,160.645a2.277,2.277,0,0,1-.86-.1,10.268,10.268,0,0,1-1.967-.692c-.741-.336-1.386-.681-1.854-.929a3.086,3.086,0,0,1-.737-.446,16.209,16.209,0,0,1,2.7,1.142c1.453.7,2.731.958,2.722,1.024" transform="translate(-55.956 -80.645)" fill="#eb996e"/><path d="M20.844,107.23s-6.315,2.63-4.749,10.987,2.384,11.147,2.384,11.147l12.45-6.55Z" transform="translate(-8.064 -54.568)" fill="#529d2e"/><path d="M33.394,139.241a2.193,2.193,0,0,1-.455.3c-.3.176-.741.422-1.286.723-1.092.6-2.608,1.414-4.291,2.3s-3.214,1.675-4.327,2.235c-.557.28-1.009.5-1.325.651a2.152,2.152,0,0,1-.5.207,2.286,2.286,0,0,1,.456-.3c.3-.176.741-.423,1.286-.723,1.092-.6,2.608-1.415,4.291-2.3s3.211-1.674,4.325-2.234c.556-.28,1.009-.5,1.325-.652a2.305,2.305,0,0,1,.5-.209" transform="translate(-10.792 -70.858)" fill="#263238"/><path d="M41.4,130.962a8.064,8.064,0,0,1-.68-1.157l-1.581-2.818-1.594-2.816a7,7,0,0,1-.6-1.2,6.952,6.952,0,0,1,.76,1.107c.442.7,1.034,1.682,1.66,2.781s1.16,2.114,1.519,2.862a6.192,6.192,0,0,1,.52,1.24" transform="translate(-18.796 -62.579)" fill="#263238"/></g></g></g></g></svg>