<svg xmlns="http://www.w3.org/2000/svg" xmlns:xlink="http://www.w3.org/1999/xlink" width="277.448" height="222.902" viewBox="0 0 277.448 222.902"><defs><clipPath id="a"><rect width="229.373" height="214.497" fill="none"/></clipPath><filter id="c" x="14.374" y="61.618" width="39.708" height="39.708" filterUnits="userSpaceOnUse"><feOffset dy="3" input="SourceAlpha"/><feGaussianBlur stdDeviation="3" result="d"/><feFlood flood-opacity="0.161"/><feComposite operator="in" in2="d"/><feComposite in="SourceGraphic"/></filter><filter id="e" x="33.387" y="5.896" width="48.014" height="48.014" filterUnits="userSpaceOnUse"><feOffset dy="3" input="SourceAlpha"/><feGaussianBlur stdDeviation="3" result="f"/><feFlood flood-opacity="0.161"/><feComposite operator="in" in2="f"/><feComposite in="SourceGraphic"/></filter><filter id="g" x="117.006" y="88.907" width="39.708" height="39.709" filterUnits="userSpaceOnUse"><feOffset dy="3" input="SourceAlpha"/><feGaussianBlur stdDeviation="3" result="h"/><feFlood flood-opacity="0.161"/><feComposite operator="in" in2="h"/><feComposite in="SourceGraphic"/></filter><filter id="i" x="127.269" y="154.109" width="39.709" height="39.709" filterUnits="userSpaceOnUse"><feOffset dy="3" input="SourceAlpha"/><feGaussianBlur stdDeviation="3" result="j"/><feFlood flood-opacity="0.161"/><feComposite operator="in" in2="j"/><feComposite in="SourceGraphic"/></filter><filter id="k" x="41.826" y="114.34" width="32.637" height="32.639" filterUnits="userSpaceOnUse"><feOffset dy="3" input="SourceAlpha"/><feGaussianBlur stdDeviation="3" result="l"/><feFlood flood-opacity="0.161"/><feComposite operator="in" in2="l"/><feComposite in="SourceGraphic"/></filter><filter id="m" x="15.143" y="127.426" width="44.683" height="44.684" filterUnits="userSpaceOnUse"><feOffset dy="3" input="SourceAlpha"/><feGaussianBlur stdDeviation="3" result="n"/><feFlood flood-opacity="0.161"/><feComposite operator="in" in2="n"/><feComposite in="SourceGraphic"/></filter><clipPath id="t"><rect width="39.376" height="51.8" fill="none"/></clipPath><clipPath id="u"><rect width="6.887" height="30.275" fill="none"/></clipPath><clipPath id="v"><rect width="62.072" height="108.78" fill="none"/></clipPath></defs><g transform="translate(2264 8822.988)"><g transform="translate(-2257.274 -8822.988)"><g transform="translate(0 0)"><circle cx="105.068" cy="105.068" r="105.068" transform="translate(0 0)" fill="#fdab64"/><ellipse cx="112.256" cy="8.715" rx="112.256" ry="8.715" transform="translate(46.21 205.471)" fill="#fc8116"/><line y2="17.435" transform="translate(97.433 128.508)" fill="#003889"/><circle cx="8.402" cy="8.402" r="8.402" transform="translate(170.364 33.775) rotate(-45)" fill="#fc8116"/></g></g><g transform="translate(-2242 -8818.786)"><g clip-path="url(#a)"><g clip-path="url(#a)"><g transform="matrix(1, 0, 0, 1, -22, -4.2)" filter="url(#c)"><path d="M9,131.487a8.923,8.923,0,0,1,2.178-.947l.449-2.157,3.643-.064.524,2.139a8.923,8.923,0,0,1,2.211.87l1.841-1.207,2.621,2.531-1.141,1.882a8.945,8.945,0,0,1,.947,2.179l2.156.449.064,3.643-2.139.524a8.9,8.9,0,0,1-.869,2.21l1.207,1.842L20.157,148l-1.882-1.142a8.918,8.918,0,0,1-2.179.947l-.449,2.156L12,150.029l-.524-2.139a8.928,8.928,0,0,1-2.21-.87l-1.841,1.207L4.806,145.7l1.142-1.882A8.942,8.942,0,0,1,5,141.635l-2.156-.449-.064-3.643,2.139-.524a8.931,8.931,0,0,1,.87-2.211l-1.207-1.841,2.531-2.621Zm1.942,4.853a3.909,3.909,0,1,0,5.527-.1,3.909,3.909,0,0,0-5.527.1" transform="translate(20.59 -60.7)" fill="#fff"/></g><path d="M265.376,17.4a7.59,7.59,0,0,1,1.854-.806l.382-1.835,3.1-.054.446,1.821a7.594,7.594,0,0,1,1.881.74l1.567-1.027L276.84,18.4l-.971,1.6a7.6,7.6,0,0,1,.806,1.854l1.835.382.054,3.1-1.821.446a7.6,7.6,0,0,1-.74,1.881l1.027,1.568-2.154,2.231-1.6-.972a7.6,7.6,0,0,1-1.855.806l-.382,1.835-3.1.054-.446-1.821a7.594,7.594,0,0,1-1.881-.74l-1.567,1.027L261.81,29.5l.972-1.6a7.6,7.6,0,0,1-.806-1.855l-1.835-.382-.054-3.1,1.821-.447a7.621,7.621,0,0,1,.74-1.881l-1.027-1.567,2.154-2.231Zm1.653,4.131a3.327,3.327,0,1,0,4.7-.083,3.327,3.327,0,0,0-4.7.083" transform="translate(-131.552 -7.439)" fill="#f5f5f5"/><g transform="matrix(1, 0, 0, 1, -22, -4.2)" filter="url(#e)"><path d="M49.846,19.947a12.346,12.346,0,0,1,3.012-1.309l.621-2.981,5.037-.088.725,2.957a12.318,12.318,0,0,1,3.056,1.2l2.546-1.669,3.624,3.5-1.577,2.6A12.323,12.323,0,0,1,68.2,27.174l2.981.621.088,5.036-2.957.725a12.341,12.341,0,0,1-1.2,3.056l1.668,2.546-3.5,3.624-2.6-1.578a12.332,12.332,0,0,1-3.012,1.309l-.621,2.981L54,45.583l-.725-2.958a12.352,12.352,0,0,1-3.056-1.2l-2.546,1.669-3.624-3.5,1.578-2.6a12.335,12.335,0,0,1-1.309-3.013l-2.981-.62-.088-5.037L44.21,27.6a12.356,12.356,0,0,1,1.2-3.056l-1.668-2.546,3.5-3.624Zm2.685,6.71a5.4,5.4,0,1,0,7.641-.134,5.4,5.4,0,0,0-7.641.134" transform="translate(1.13 -3.67)" fill="#fff"/></g><g transform="matrix(1, 0, 0, 1, -22, -4.2)" filter="url(#g)"><path d="M216.67,186.707a8.94,8.94,0,0,1,2.178-.946l.449-2.157,3.643-.064.524,2.139a8.923,8.923,0,0,1,2.211.87l1.841-1.207,2.621,2.531L229,189.755a8.925,8.925,0,0,1,.946,2.179l2.156.449.064,3.643-2.139.524a8.918,8.918,0,0,1-.869,2.211l1.207,1.841-2.531,2.621-1.882-1.142a8.918,8.918,0,0,1-2.179.947l-.449,2.156-3.643.064-.524-2.139a8.928,8.928,0,0,1-2.21-.87l-1.841,1.207-2.622-2.531,1.142-1.882a8.922,8.922,0,0,1-.947-2.178l-2.156-.449-.064-3.643,2.139-.525a8.935,8.935,0,0,1,.87-2.21l-1.207-1.841,2.531-2.621Zm1.942,4.854a3.909,3.909,0,1,0,5.527-.1,3.909,3.909,0,0,0-5.527.1" transform="translate(-84.45 -88.63)" fill="#fff"/></g><g transform="matrix(1, 0, 0, 1, -22, -4.2)" filter="url(#i)"><path d="M237.436,318.643a8.923,8.923,0,0,1,2.178-.947l.449-2.157,3.643-.064.524,2.139a8.909,8.909,0,0,1,2.211.869l1.841-1.207,2.621,2.531-1.141,1.882a8.944,8.944,0,0,1,.947,2.179l2.156.449.064,3.643-2.139.524a8.91,8.91,0,0,1-.869,2.211l1.207,1.841-2.531,2.621-1.882-1.142a8.917,8.917,0,0,1-2.179.947l-.449,2.156-3.643.064-.524-2.139a8.94,8.94,0,0,1-2.211-.87l-1.841,1.207-2.622-2.531,1.142-1.882a8.914,8.914,0,0,1-.947-2.178l-2.156-.449-.064-3.643,2.139-.524a8.93,8.93,0,0,1,.87-2.211l-1.207-1.841,2.531-2.621Zm1.942,4.853a3.909,3.909,0,1,0,5.527-.1,3.909,3.909,0,0,0-5.527.1" transform="translate(-94.95 -155.37)" fill="#fff"/></g><g transform="matrix(1, 0, 0, 1, -22, -4.2)" filter="url(#k)"><path d="M62.52,237.138a6.017,6.017,0,0,1,1.469-.638l.3-1.454L66.748,235l.353,1.443a6.012,6.012,0,0,1,1.49.586l1.241-.813,1.768,1.706-.769,1.269a6.017,6.017,0,0,1,.638,1.469l1.454.3.043,2.457-1.442.353a6.013,6.013,0,0,1-.587,1.491l.814,1.241-1.706,1.768-1.269-.769a6.017,6.017,0,0,1-1.469.638L67,249.6l-2.457.043-.353-1.443a6.014,6.014,0,0,1-1.49-.587l-1.241.814-1.768-1.706.769-1.269a6.019,6.019,0,0,1-.639-1.469l-1.454-.3-.043-2.457,1.443-.353a6.011,6.011,0,0,1,.586-1.49l-.813-1.241,1.706-1.768Zm1.31,3.273a2.636,2.636,0,1,0,3.727-.066,2.635,2.635,0,0,0-3.727.066" transform="translate(-7.5 -114.66)" fill="#fff"/></g><g transform="matrix(1, 0, 0, 1, -22, -4.2)" filter="url(#m)"><path d="M66.371,273.644a10.989,10.989,0,0,1,2.678-1.164l.552-2.65,4.478-.078.644,2.629a10.978,10.978,0,0,1,2.717,1.069l2.263-1.483,3.222,3.111-1.4,2.313a10.981,10.981,0,0,1,1.164,2.678l2.65.552.079,4.478-2.629.645a10.97,10.97,0,0,1-1.069,2.717l1.484,2.263-3.111,3.222-2.313-1.4a10.976,10.976,0,0,1-2.679,1.163l-.552,2.651-4.478.079-.644-2.63a10.982,10.982,0,0,1-2.717-1.069l-2.263,1.484-3.222-3.111,1.4-2.313a10.962,10.962,0,0,1-1.164-2.678l-2.65-.552-.079-4.478,2.63-.645a10.96,10.96,0,0,1,1.068-2.717l-1.483-2.263,3.11-3.222Zm2.387,5.965a4.8,4.8,0,1,0,6.793-.12,4.8,4.8,0,0,0-6.793.12" transform="translate(-34.59 -136.33)" fill="#fff"/></g><rect width="67.97" height="114.528" transform="translate(161.009 9.909)" fill="#e0e0e0"/><rect width="64.076" height="110.494" transform="translate(162.84 12.06)" fill="#f5f5f5"/><rect width="25.55" height="39.647" transform="translate(194.879 17.963)" fill="#fff"/><path d="M420.982,42.465a.954.954,0,1,1-.954-.954.954.954,0,0,1,.954.954" transform="translate(-211.969 -20.996)" fill="#e0e0e0"/><rect width="25.55" height="39.647" transform="translate(169.13 68.644)" fill="#fff"/><path d="M368.879,145.017a.954.954,0,1,1-.954-.954.954.954,0,0,1,.954.954" transform="translate(-185.615 -72.868)" fill="#e0e0e0"/><rect width="21.821" height="30.96" transform="translate(168.784 17.963)" fill="#fff"/><path d="M363.589,41.227a.792.792,0,1,1-.792-.792.792.792,0,0,1,.792.792" transform="translate(-183.103 -20.452)" fill="#e0e0e0"/><rect width="23.485" height="13.012" transform="matrix(0.994, -0.112, 0.112, 0.994, 197.932, 71.822)" fill="#fff"/><path d="M424.664,146.8a.808.808,0,1,1-.808-.808.808.808,0,0,1,.808.808" transform="translate(-213.979 -73.844)" fill="#e0e0e0"/><path d="M368.691,157c0,.105-4.012.19-8.96.19s-8.961-.085-8.961-.19,4.011-.19,8.961-.19,8.96.085,8.96.19" transform="translate(-177.421 -79.317)" fill="#e0e0e0"/><path d="M368.691,162.744c0,.105-4.012.19-8.96.19s-8.961-.085-8.961-.19,4.011-.19,8.961-.19,8.96.085,8.96.19" transform="translate(-177.421 -82.22)" fill="#e0e0e0"/><path d="M368.691,168.484c0,.105-4.012.19-8.96.19s-8.961-.085-8.961-.19,4.011-.19,8.961-.19,8.96.085,8.96.19" transform="translate(-177.421 -85.124)" fill="#e0e0e0"/><path d="M368.691,174.224c0,.105-4.012.19-8.96.19s-8.961-.085-8.961-.19,4.011-.19,8.961-.19,8.96.085,8.96.19" transform="translate(-177.421 -88.027)" fill="#e0e0e0"/><path d="M368.691,179.963c0,.105-4.012.19-8.96.19s-8.961-.085-8.961-.19,4.011-.19,8.961-.19,8.96.085,8.96.19" transform="translate(-177.421 -90.93)" fill="#e0e0e0"/><path d="M368.691,185.7c0,.105-4.012.19-8.96.19s-8.961-.085-8.961-.19,4.011-.19,8.961-.19,8.96.085,8.96.19" transform="translate(-177.421 -93.833)" fill="#e0e0e0"/><path d="M368.691,191.443c0,.105-4.012.19-8.96.19s-8.961-.085-8.961-.19,4.011-.19,8.961-.19,8.96.085,8.96.19" transform="translate(-177.421 -96.736)" fill="#e0e0e0"/><path d="M425.147,151.036c.015.1-3.946.749-8.846,1.441s-8.885,1.167-8.9,1.064,3.946-.749,8.847-1.441,8.884-1.168,8.9-1.064" transform="translate(-206.065 -76.387)" fill="#e0e0e0"/><path d="M425.867,154.625c.015.1-3.946.749-8.846,1.441s-8.885,1.168-8.9,1.064,3.945-.749,8.846-1.441,8.884-1.168,8.9-1.064" transform="translate(-206.429 -78.203)" fill="#e0e0e0"/><path d="M426.526,157.941c.015.1-3.946.749-8.846,1.441s-8.885,1.168-8.9,1.064,3.946-.749,8.847-1.441,8.884-1.168,8.9-1.064" transform="translate(-206.762 -79.88)" fill="#e0e0e0"/><path d="M420.766,52.936c0,.105-4.533.19-10.123.19s-10.124-.085-10.124-.19,4.532-.19,10.124-.19,10.123.085,10.123.19" transform="translate(-202.584 -26.679)" fill="#e0e0e0"/><path d="M420.766,56.349c0,.105-4.533.19-10.123.19s-10.124-.085-10.124-.19,4.532-.19,10.124-.19,10.123.085,10.123.19" transform="translate(-202.584 -28.405)" fill="#e0e0e0"/><path d="M420.766,59.762c0,.105-4.533.19-10.123.19s-10.124-.085-10.124-.19,4.532-.19,10.124-.19,10.123.085,10.123.19" transform="translate(-202.584 -30.132)" fill="#e0e0e0"/><path d="M420.766,63.174c0,.105-4.533.19-10.123.19s-10.124-.085-10.124-.19,4.532-.19,10.124-.19,10.123.085,10.123.19" transform="translate(-202.584 -31.857)" fill="#e0e0e0"/><path d="M420.766,66.587c0,.105-4.533.19-10.123.19s-10.124-.085-10.124-.19,4.532-.19,10.124-.19,10.123.085,10.123.19" transform="translate(-202.584 -33.584)" fill="#e0e0e0"/><path d="M420.766,70c0,.105-4.533.19-10.123.19S400.52,70.106,400.52,70s4.532-.19,10.124-.19,10.123.085,10.123.19" transform="translate(-202.584 -35.31)" fill="#e0e0e0"/><path d="M420.766,73.413c0,.105-4.533.19-10.123.19s-10.124-.085-10.124-.19,4.532-.19,10.124-.19,10.123.085,10.123.19" transform="translate(-202.584 -37.036)" fill="#e0e0e0"/><path d="M420.766,83.541c0,.105-4.533.19-10.123.19s-10.124-.085-10.124-.19,4.532-.19,10.124-.19,10.123.085,10.123.19" transform="translate(-202.584 -42.159)" fill="#e0e0e0"/><path d="M421.055,87.146c0,.105-4.532.19-10.123.19s-10.124-.085-10.124-.19,4.532-.19,10.124-.19,10.123.085,10.123.19" transform="translate(-202.73 -43.983)" fill="#e0e0e0"/><path d="M421.343,90.75c0,.105-4.533.19-10.123.19s-10.124-.085-10.124-.19,4.532-.19,10.124-.19,10.123.085,10.123.19" transform="translate(-202.876 -45.806)" fill="#e0e0e0"/><path d="M421.632,94.355c0,.105-4.533.19-10.123.19s-10.124-.085-10.124-.19,4.532-.19,10.124-.19,10.123.085,10.123.19" transform="translate(-203.022 -47.629)" fill="#e0e0e0"/><path d="M421.92,97.96c0,.105-4.533.19-10.123.19s-10.124-.085-10.124-.19,4.532-.19,10.124-.19,10.123.085,10.123.19" transform="translate(-203.168 -49.452)" fill="#e0e0e0"/><path d="M422.209,101.564c0,.105-4.533.19-10.123.19s-10.124-.085-10.124-.19,4.532-.19,10.124-.19,10.123.085,10.123.19" transform="translate(-203.314 -51.275)" fill="#e0e0e0"/></g><path d="M26.61,383.166.525,400.781l158.26.264L153,382.562Z" transform="translate(-0.265 -193.501)" fill="#455a64"/><path d="M0,426.176l158.19.115.069-7.067L0,418.73Z" transform="translate(0 -211.795)" fill="#455a64"/><g clip-path="url(#a)"><path d="M156.08,419.471c0,.071-34.159.112-76.287.092S3.5,419.469,3.5,419.4s34.152-.112,76.295-.092,76.287.094,76.287.165" transform="translate(-1.769 -212.084)" fill="#263238"/></g><g clip-path="url(#a)"><path d="M74.965,160.987H29.192a1.511,1.511,0,0,1-1.511-1.511V83.847a1.511,1.511,0,0,1,1.511-1.511H74.965a1.511,1.511,0,0,1,1.511,1.511v75.629a1.511,1.511,0,0,1-1.511,1.511" transform="translate(-14.001 -41.646)" fill="#fff"/><path d="M76.477,91.123h-48.8V84.118a1.783,1.783,0,0,1,1.783-1.783h45.3a1.716,1.716,0,0,1,1.716,1.716Z" transform="translate(-14.001 -41.645)" fill="#e0e0e0"/><path d="M74.707,160.855a1.889,1.889,0,0,0,.629-.14,1.667,1.667,0,0,0,.625-.476,1.629,1.629,0,0,0,.356-1.011c-.005-1.684-.013-4.159-.023-7.344-.01-6.383-.024-15.611-.041-27.012s-.017-24.985-.028-40.062V84.1a2.287,2.287,0,0,0-.058-.672,1.52,1.52,0,0,0-.836-.971,1.5,1.5,0,0,0-.646-.135H72.523l-5.856,0-12.078,0-25.4,0a1.507,1.507,0,0,0-1.508,1.385c-.013.25,0,.535-.006.8v3.234q0,3.223,0,6.4,0,6.357,0,12.517c0,8.206,0,16.121-.007,23.662s-.008,14.7-.012,21.411q0,2.514,0,4.941,0,1.214,0,2.4a1.557,1.557,0,0,0,1.215,1.634,8.354,8.354,0,0,0,1.138.035h1.15l2.263,0,4.377,0,27.011.041,7.343.024,1.91.012c.43,0,.651.013.651.013s-.22.009-.651.013l-1.91.012-7.343.024-27.011.041-4.377,0-2.263,0H30a8.382,8.382,0,0,1-1.179-.037,1.743,1.743,0,0,1-1.026-.656,1.785,1.785,0,0,1-.35-1.173q0-1.191,0-2.4,0-2.426,0-4.941c0-6.706-.008-13.871-.012-21.411s0-15.456-.007-23.662q0-6.155,0-12.517,0-3.179,0-6.4,0-1.612,0-3.234c0-.275-.007-.53.007-.822a1.765,1.765,0,0,1,1.764-1.621l25.4,0,12.078,0,5.856,0h2.162A1.759,1.759,0,0,1,76.4,83.365a2.532,2.532,0,0,1,.067.736v.708c-.01,15.077-.02,28.657-.028,40.062s-.031,20.629-.041,27.012c-.01,3.186-.019,5.661-.024,7.344a1.653,1.653,0,0,1-1.023,1.512,1.7,1.7,0,0,1-.474.114c-.11,0-.165,0-.165,0" transform="translate(-13.869 -41.514)" fill="#263238"/><path d="M39.288,91.14a1.44,1.44,0,1,1-1.44-1.439,1.44,1.44,0,0,1,1.44,1.439" transform="translate(-18.416 -45.371)" fill="#fff"/><path d="M48.25,91.14a1.44,1.44,0,1,1-1.44-1.439,1.44,1.44,0,0,1,1.44,1.439" transform="translate(-22.949 -45.371)" fill="#fff"/><path d="M57.213,91.14a1.44,1.44,0,1,1-1.44-1.439,1.44,1.44,0,0,1,1.44,1.439" transform="translate(-27.482 -45.371)" fill="#fff"/><path d="M60.45,122.235H51.464a.975.975,0,1,1,0-1.95H60.45a.975.975,0,0,1,0,1.95" transform="translate(-25.537 -60.841)" fill="#263238"/><path d="M60.45,132.562H51.464a.975.975,0,1,1,0-1.95H60.45a.975.975,0,0,1,0,1.95" transform="translate(-25.537 -66.064)" fill="#e0e0e0"/><path d="M60.971,160.849H51.985a.975.975,0,1,1,0-1.95h8.986a.975.975,0,1,1,0,1.95" transform="translate(-25.801 -80.372)" fill="#e0e0e0"/><path d="M60.45,143.234H51.464a.975.975,0,1,1,0-1.95H60.45a.975.975,0,0,1,0,1.95" transform="translate(-25.537 -71.462)" fill="#529d2e"/><path d="M60.45,202.746H51.464a.975.975,0,1,1,0-1.95H60.45a.975.975,0,1,1,0,1.95" transform="translate(-25.537 -101.563)" fill="#529d2e"/><path d="M89.581,122.235H80.6a.975.975,0,0,1,0-1.95h8.986a.975.975,0,0,1,0,1.95" transform="translate(-40.272 -60.841)" fill="#455a64"/><path d="M99.312,132.562h-18.8a.979.979,0,0,1,0-1.95h18.8a.979.979,0,0,1,0,1.95" transform="translate(-40.272 -66.064)" fill="#263238"/><path d="M98.129,143.234H79.2a.977.977,0,0,1,0-1.95h18.93a.977.977,0,0,1,0,1.95" transform="translate(-39.596 -71.462)" fill="#e0e0e0"/><path d="M70.458,151.864H51.528a.977.977,0,0,1,0-1.95h18.93a.977.977,0,0,1,0,1.95" transform="translate(-25.6 -75.827)" fill="#e0e0e0"/><path d="M41.522,121.244a.99.99,0,1,1-.99-.99.99.99,0,0,1,.99.99" transform="translate(-20 -60.825)" fill="#455a64"/><path d="M41.522,111.362a.99.99,0,1,1-.99-.99.99.99,0,0,1,.99.99" transform="translate(-20 -55.826)" fill="#455a64"/><path d="M41.522,131.54a.99.99,0,1,1-.99-.99.99.99,0,0,1,.99.99" transform="translate(-20 -66.033)" fill="#455a64"/><path d="M41.522,142.243a.99.99,0,1,1-.99-.99.99.99,0,0,1,.99.99" transform="translate(-20 -71.446)" fill="#455a64"/><path d="M60.971,189.73H51.985a.975.975,0,1,1,0-1.95h8.986a.975.975,0,1,1,0,1.95" transform="translate(-25.801 -94.98)" fill="#e0e0e0"/><path d="M60.45,172.115H51.464a.975.975,0,1,1,0-1.95H60.45a.975.975,0,0,1,0,1.95" transform="translate(-25.537 -86.07)" fill="#fc8116"/><path d="M98.129,172.115H79.2a.977.977,0,0,1,0-1.95h18.93a.977.977,0,0,1,0,1.95" transform="translate(-39.596 -86.07)" fill="#e0e0e0"/><path d="M70.458,180.746H51.528a.977.977,0,0,1,0-1.95h18.93a.977.977,0,0,1,0,1.95" transform="translate(-25.6 -90.436)" fill="#e0e0e0"/><path d="M41.522,171.125a.99.99,0,1,1-.99-.99.99.99,0,0,1,.99.99" transform="translate(-20 -86.055)" fill="#455a64"/><path d="M56.7,112.834H51.071a.474.474,0,0,1-.474-.473v-.934a.474.474,0,0,1,.474-.473H56.7a.473.473,0,0,1,.473.473v.934a.473.473,0,0,1-.473.473" transform="translate(-25.592 -56.12)" fill="#455a64"/><path d="M60.45,213.262H51.464a.975.975,0,1,1,0-1.95H60.45a.975.975,0,0,1,0,1.95" transform="translate(-25.537 -106.882)" fill="#263238"/><path d="M89.581,213.262H80.6a.975.975,0,0,1,0-1.95h8.986a.975.975,0,1,1,0,1.95" transform="translate(-40.272 -106.882)" fill="#455a64"/><path d="M41.522,212.271a.99.99,0,1,1-.99-.99.99.99,0,0,1,.99.99" transform="translate(-20 -106.867)" fill="#455a64"/><path d="M41.522,221.774a.99.99,0,1,1-.99-.99.99.99,0,0,1,.99.99" transform="translate(-20 -111.673)" fill="#455a64"/><path d="M56.7,223.246H51.071a.474.474,0,0,1-.474-.473v-.934a.474.474,0,0,1,.474-.473H56.7a.473.473,0,0,1,.473.473v.934a.473.473,0,0,1-.473.473" transform="translate(-25.592 -111.967)" fill="#455a64"/><rect width="89.128" height="56.695" transform="translate(65.734 107.201)" fill="#fff"/><rect width="16.053" height="56.695" transform="translate(65.734 107.201)" fill="#ebebeb"/><path d="M146.507,228.9a1.114,1.114,0,0,1,.267-.116l.055-.264.447-.008.064.262a1.1,1.1,0,0,1,.271.107l.226-.148.321.311-.14.231a1.094,1.094,0,0,1,.116.267l.264.055.008.447-.262.064a1.1,1.1,0,0,1-.107.271l.148.226-.31.321-.231-.14a1.094,1.094,0,0,1-.267.116l-.055.264-.447.008-.065-.262a1.066,1.066,0,0,1-.271-.107l-.226.148-.322-.31.14-.231a1.094,1.094,0,0,1-.116-.267l-.264-.055-.008-.447.262-.064a1.1,1.1,0,0,1,.107-.271l-.148-.226.311-.322Zm.238.6a.48.48,0,1,0,.678-.012.48.48,0,0,0-.678.012" transform="translate(-73.718 -115.584)" fill="#e0e0e0"/><path d="M146.893,253.174h-7a.719.719,0,1,1,0-1.438h7a.719.719,0,1,1,0,1.438" transform="translate(-70.396 -127.329)" fill="#e0e0e0"/><path d="M146.893,245.76h-7a.719.719,0,0,1,0-1.438h7a.719.719,0,0,1,0,1.438" transform="translate(-70.396 -123.579)" fill="#e0e0e0"/><path d="M146.893,238.979h-7a.719.719,0,0,1,0-1.438h7a.719.719,0,0,1,0,1.438" transform="translate(-70.396 -120.149)" fill="#e0e0e0"/><path d="M185.315,232.4h-6.628a.719.719,0,0,1,0-1.438h6.628a.719.719,0,0,1,0,1.438" transform="translate(-90.017 -116.82)" fill="#263238"/><path d="M185.315,240.014h-6.628a.719.719,0,1,1,0-1.438h6.628a.719.719,0,0,1,0,1.438" transform="translate(-90.017 -120.672)" fill="#e0e0e0"/><path d="M185.315,247.886h-6.628a.719.719,0,0,1,0-1.438h6.628a.719.719,0,0,1,0,1.438" transform="translate(-90.017 -124.654)" fill="#529d2e"/><path d="M182.488,263.105h-3.8a.719.719,0,0,1,0-1.438h3.8a.719.719,0,1,1,0,1.438" transform="translate(-90.017 -132.352)" fill="#263238"/><path d="M182.488,270.993h-3.8a.719.719,0,0,1,0-1.438h3.8a.719.719,0,1,1,0,1.438" transform="translate(-90.017 -136.342)" fill="#263238"/><path d="M202.1,270.993h-6.969a.719.719,0,0,1,0-1.438H202.1a.719.719,0,0,1,0,1.438" transform="translate(-98.335 -136.342)" fill="#e0e0e0"/><path d="M194.126,278.009h-6.969a.719.719,0,1,1,0-1.438h6.969a.719.719,0,0,1,0,1.438" transform="translate(-94.301 -139.89)" fill="#fc8116"/><path d="M199.717,286.01H194.93a.491.491,0,0,1-.491-.491v-.457a.491.491,0,0,1,.491-.491h4.787a.491.491,0,0,1,.491.491v.457a.491.491,0,0,1-.491.491" transform="translate(-98.348 -143.937)" fill="#529d2e"/><path d="M199.489,301.692h-4.331a.719.719,0,1,1,0-1.438h4.331a.719.719,0,1,1,0,1.438" transform="translate(-98.348 -151.869)" fill="#529d2e"/><path d="M199.489,318.256h-4.331a.719.719,0,1,1,0-1.438h4.331a.719.719,0,0,1,0,1.438" transform="translate(-98.348 -160.247)" fill="#529d2e"/><path d="M217.692,318.256H210.1a.719.719,0,0,1,0-1.438h7.592a.719.719,0,0,1,0,1.438" transform="translate(-105.906 -160.247)" fill="#455a64"/><path d="M235.095,318.256H234a.719.719,0,0,1,0-1.438h1.094a.719.719,0,0,1,0,1.438" transform="translate(-117.995 -160.247)" fill="#e0e0e0"/><path d="M217.975,301.692h-6.416a.719.719,0,1,1,0-1.438h6.416a.719.719,0,1,1,0,1.438" transform="translate(-106.644 -151.869)" fill="#e0e0e0"/><path d="M232.044,308.964H211.559a.719.719,0,0,1,0-1.438h20.484a.719.719,0,1,1,0,1.438" transform="translate(-106.644 -155.548)" fill="#e0e0e0"/><path d="M244.411,301.692H231.333a.719.719,0,1,1,0-1.438h13.078a.719.719,0,1,1,0,1.438" transform="translate(-116.645 -151.869)" fill="#455a64"/><path d="M216.29,286.01h-5.875a.491.491,0,0,1-.491-.491v-.457a.491.491,0,0,1,.491-.491h5.875a.491.491,0,0,1,.491.491v.457a.491.491,0,0,1-.491.491" transform="translate(-106.18 -143.937)" fill="#455a64"/><path d="M229.947,286.01h-1.8a.491.491,0,0,1-.491-.491v-.457a.491.491,0,0,1,.491-.491h1.8a.491.491,0,0,1,.491.491v.457a.491.491,0,0,1-.491.491" transform="translate(-115.148 -143.937)" fill="#e0e0e0"/><path d="M245.295,286.01h-7.231a.491.491,0,0,1-.491-.491v-.457a.491.491,0,0,1,.491-.491h7.231a.491.491,0,0,1,.491.491v.457a.491.491,0,0,1-.491.491" transform="translate(-120.165 -143.937)" fill="#e0e0e0"/><path d="M209.222,278.009h-1.553a.719.719,0,1,1,0-1.438h1.553a.719.719,0,1,1,0,1.438" transform="translate(-104.676 -139.89)" fill="#263238"/><path d="M227.313,278.009h-9.888a.719.719,0,1,1,0-1.438h9.888a.719.719,0,1,1,0,1.438" transform="translate(-109.611 -139.89)" fill="#e0e0e0"/><path d="M206.8,232.4h-6.628a.719.719,0,0,1,0-1.438H206.8a.719.719,0,0,1,0,1.438" transform="translate(-100.885 -116.82)" fill="#455a64"/><path d="M215.342,240.014H200.174a.719.719,0,1,1,0-1.438h15.168a.719.719,0,1,1,0,1.438" transform="translate(-100.885 -120.672)" fill="#263238"/><path d="M231.673,247.886h-31.5a.719.719,0,1,1,0-1.438h31.5a.719.719,0,0,1,0,1.438" transform="translate(-100.885 -124.654)" fill="#e0e0e0"/><path d="M215.027,253.43H200.174a.719.719,0,1,1,0-1.438h14.853a.719.719,0,0,1,0,1.438" transform="translate(-100.885 -127.458)" fill="#e0e0e0"/><path d="M208.879,263.105H194.027a.719.719,0,1,1,0-1.438h14.852a.719.719,0,0,1,0,1.438" transform="translate(-97.776 -132.352)" fill="#455a64"/><path d="M235.809,263.105H230.83a.719.719,0,0,1,0-1.438h4.979a.719.719,0,0,1,0,1.438" transform="translate(-116.391 -132.352)" fill="#529d2e"/><path d="M257.034,263.057h-9.4a.719.719,0,1,1,0-1.438h9.4a.719.719,0,1,1,0,1.438" transform="translate(-124.888 -132.328)" fill="#263238"/><path d="M282.93,263.057h-9.4a.719.719,0,1,1,0-1.438h9.4a.719.719,0,1,1,0,1.438" transform="translate(-137.987 -132.328)" fill="#e0e0e0"/><path d="M143.863,261.021H139.9a.719.719,0,0,1,0-1.438h3.967a.719.719,0,0,1,0,1.438" transform="translate(-70.396 -131.298)" fill="#e0e0e0"/><path d="M142.675,284.563H139.9a.719.719,0,0,1,0-1.438h2.78a.719.719,0,1,1,0,1.438" transform="translate(-70.396 -143.205)" fill="#e0e0e0"/><path d="M147.612,268.868H139.9a.719.719,0,0,1,0-1.438h7.717a.719.719,0,0,1,0,1.438" transform="translate(-70.396 -135.267)" fill="#e0e0e0"/><path d="M146.259,276.716H139.9a.719.719,0,0,1,0-1.438h6.363a.719.719,0,0,1,0,1.438" transform="translate(-70.396 -139.236)" fill="#e0e0e0"/><path d="M171.354,231.666a.73.73,0,1,1-.73-.73.731.731,0,0,1,.73.73" transform="translate(-85.932 -116.808)" fill="#455a64"/><path d="M171.354,223.9a.73.73,0,1,1-.73-.73.731.731,0,0,1,.73.73" transform="translate(-85.932 -112.882)" fill="#455a64"/><path d="M171.354,239.26a.73.73,0,1,1-.73-.73.731.731,0,0,1,.73.73" transform="translate(-85.932 -120.649)" fill="#455a64"/><path d="M171.354,247.155a.73.73,0,1,1-.73-.73.731.731,0,0,1,.73.73" transform="translate(-85.932 -124.643)" fill="#455a64"/><path d="M171.354,255.049a.73.73,0,1,1-.73-.73.731.731,0,0,1,.73.73" transform="translate(-85.932 -128.635)" fill="#455a64"/><path d="M171.354,262.944a.73.73,0,1,1-.73-.73.731.731,0,0,1,.73.73" transform="translate(-85.932 -132.629)" fill="#455a64"/><path d="M171.354,270.838a.73.73,0,1,1-.73-.73.731.731,0,0,1,.73.73" transform="translate(-85.932 -136.621)" fill="#455a64"/><path d="M171.354,278.733a.73.73,0,1,1-.73-.73.731.731,0,0,1,.73.73" transform="translate(-85.932 -140.615)" fill="#455a64"/><path d="M171.354,286.627a.73.73,0,1,1-.73-.73.731.731,0,0,1,.73.73" transform="translate(-85.932 -144.608)" fill="#455a64"/><path d="M171.354,294.522a.73.73,0,1,1-.73-.73.731.731,0,0,1,.73.73" transform="translate(-85.932 -148.601)" fill="#455a64"/><path d="M171.354,302.416a.73.73,0,1,1-.73-.73.731.731,0,0,1,.73.73" transform="translate(-85.932 -152.594)" fill="#455a64"/><path d="M171.354,310.311a.73.73,0,1,1-.73-.73.731.731,0,0,1,.73.73" transform="translate(-85.932 -156.587)" fill="#455a64"/><path d="M171.354,318.205a.73.73,0,1,1-.73-.73.731.731,0,0,1,.73.73" transform="translate(-85.932 -160.58)" fill="#455a64"/><path d="M220.245,201.278H135.682a2.67,2.67,0,0,0-2.67,2.67v5.06H222.14v-5.835a1.9,1.9,0,0,0-1.9-1.9" transform="translate(-67.278 -101.807)" fill="#e0e0e0"/><path d="M142.307,208.487a1.062,1.062,0,1,1-1.062-1.062,1.061,1.061,0,0,1,1.062,1.062" transform="translate(-70.905 -104.916)" fill="#fff"/><path d="M148.918,208.487a1.062,1.062,0,1,1-1.062-1.062,1.061,1.061,0,0,1,1.062,1.062" transform="translate(-74.249 -104.916)" fill="#fff"/><path d="M155.528,208.487a1.062,1.062,0,1,1-1.062-1.062,1.061,1.061,0,0,1,1.062,1.062" transform="translate(-77.592 -104.916)" fill="#fff"/><path d="M171.371,329.852,178.9,338l6.839-8.144Z" transform="translate(-86.68 -166.84)" fill="#fff"/><path d="M219.591,265.571a2.838,2.838,0,0,0,.78-.145,2.412,2.412,0,0,0,1.523-1.635,2.634,2.634,0,0,0,.085-.8q0-.432,0-.909,0-.954-.006-2.085c0-1.507-.007-3.246-.012-5.2-.01-7.833-.024-19.162-.041-33.16q0-5.25-.008-10.987,0-2.866,0-5.845c-.006-.491.013-1.007-.015-1.485a2.321,2.321,0,0,0-1.823-2.012,10.474,10.474,0,0,0-1.511-.049l-26.281.012-29.041.007-15.361,0H136.048c-.326,0-.677-.012-.982.011a2.266,2.266,0,0,0-.893.285,2.3,2.3,0,0,0-1.1,1.472,6.987,6.987,0,0,0-.062,1.362v9.684q0,5.489,0,10.866c0,7.166,0,14.17,0,20.974q0,5.1,0,10.05,0,2.472,0,4.9c0,.807-.008,1.624.006,2.412a2.294,2.294,0,0,0,2.233,2.157l1.182,0h2.352l4.634,0,8.973,0h.047l.032.034,6.9,7.264-.155,0,6.1-7.256.029-.035h.045l39.62.043,10.814.026,2.817.014c.635,0,.961.014.961.014s-.326.01-.961.014l-2.817.014L205,265.625l-39.62.043.075-.035-6.091,7.264-.075.089-.081-.084-6.907-7.256.079.034-8.973,0-4.634,0h-2.352l-1.188,0a2.529,2.529,0,0,1-2.464-2.377c-.016-.817,0-1.614-.008-2.426q0-2.431,0-4.9,0-4.945,0-10.05c0-6.8,0-13.808,0-20.974q0-5.375,0-10.866V203.707a2.939,2.939,0,0,1,.068-.723,2.558,2.558,0,0,1,1.227-1.637,2.518,2.518,0,0,1,.994-.317c.357-.026.671-.007,1.008-.013h11.825l15.361,0,29.041.007,26.281.012a10.319,10.319,0,0,1,1.555.055,2.532,2.532,0,0,1,1.986,2.2c.03.522.008,1.006.014,1.507q0,2.979,0,5.845,0,5.731-.008,10.987c-.017,14-.031,25.326-.041,33.16,0,1.957-.008,3.7-.012,5.2q0,1.13-.006,2.085,0,.477,0,.909a2.688,2.688,0,0,1-.093.817,2.41,2.41,0,0,1-.716,1.15,2.39,2.39,0,0,1-1.436.613c-.134,0-.2,0-.2,0" transform="translate(-67.146 -101.674)" fill="#263238"/><path d="M212.6,139.762H145.571a1.566,1.566,0,0,1-1.566-1.566V104.024a1.566,1.566,0,0,1,1.566-1.566H212.9a1.566,1.566,0,0,1,1.566,1.566v33.865a1.872,1.872,0,0,1-1.873,1.872" transform="translate(-72.838 -51.824)" fill="#fff"/><path d="M214.47,110.468H144.006v-6.295a1.716,1.716,0,0,1,1.716-1.716h67.031a1.717,1.717,0,0,1,1.717,1.716Z" transform="translate(-72.839 -51.823)" fill="#e0e0e0"/><path d="M212.355,139.63a2.894,2.894,0,0,0,.538-.089,1.983,1.983,0,0,0,1.2-.986,2.165,2.165,0,0,0,.217-1.137q0-.655-.006-1.431c0-1.035-.007-2.229-.012-3.572-.009-5.38-.024-13.155-.041-22.761q0-1.8,0-3.688,0-.944,0-1.907a1.5,1.5,0,0,0-.856-1.5,1.911,1.911,0,0,0-.925-.137h-1l-2.025,0-4.164,0-18.04.012-41.335.01a2.661,2.661,0,0,0-.653.045,1.612,1.612,0,0,0-1.22,1.315,4.781,4.781,0,0,0-.023.661v2.042q0,2.716,0,5.395,0,5.356,0,10.547t0,10.179q0,2.494,0,4.936a1.875,1.875,0,0,0,1.163,1.8,2.733,2.733,0,0,0,1.139.137h1.195l33.76.028,22.759.041,6.188.024,1.61.013c.362,0,.548.013.548.013s-.186.009-.548.013l-1.61.012-6.188.024-22.759.041-33.76.028H146.3a2.965,2.965,0,0,1-1.229-.154,2.117,2.117,0,0,1-1.315-2.023q0-2.44,0-4.936,0-4.989,0-10.179t0-10.547q0-2.678,0-5.395v-2.042a4.944,4.944,0,0,1,.025-.7,1.872,1.872,0,0,1,1.415-1.525,2.931,2.931,0,0,1,.713-.052l41.335.01,18.04.012,4.164,0,2.025,0h1a2.112,2.112,0,0,1,1.009.157,1.7,1.7,0,0,1,.967,1.676q0,.964,0,1.907,0,1.886,0,3.688c-.017,9.606-.032,17.381-.041,22.761,0,1.343-.008,2.536-.012,3.572q0,.775-.006,1.431a3.159,3.159,0,0,1-.043.627,2.122,2.122,0,0,1-.193.534,1.993,1.993,0,0,1-1.234.987,1.63,1.63,0,0,1-.545.064" transform="translate(-72.706 -51.691)" fill="#263238"/><path d="M154.586,110.483a1.312,1.312,0,1,1-1.312-1.312,1.312,1.312,0,0,1,1.312,1.312" transform="translate(-76.863 -55.219)" fill="#fff"/><path d="M162.755,110.483a1.312,1.312,0,1,1-1.312-1.312,1.312,1.312,0,0,1,1.312,1.312" transform="translate(-80.995 -55.219)" fill="#fff"/><path d="M170.925,110.483a1.312,1.312,0,1,1-1.312-1.312,1.312,1.312,0,0,1,1.312,1.312" transform="translate(-85.127 -55.219)" fill="#fff"/><path d="M175.8,139.691h-8.191a.889.889,0,0,1,0-1.778H175.8a.889.889,0,0,1,0,1.778" transform="translate(-84.326 -69.757)" fill="#263238"/><path d="M175.8,149.1h-8.191a.889.889,0,0,1,0-1.778H175.8a.889.889,0,0,1,0,1.778" transform="translate(-84.326 -74.518)" fill="#e0e0e0"/><path d="M247.361,139.691H223.6a.889.889,0,0,1,0-1.778h23.759a.889.889,0,0,1,0,1.778" transform="translate(-112.649 -69.757)" fill="#e0e0e0"/><path d="M175.8,158.833h-8.191a.889.889,0,0,1,0-1.778H175.8a.889.889,0,0,1,0,1.778" transform="translate(-84.326 -79.439)" fill="#fc8116"/><path d="M251.825,149.1h-8.191a.889.889,0,0,1,0-1.778h8.191a.889.889,0,0,1,0,1.778" transform="translate(-122.781 -74.518)" fill="#529d2e"/><path d="M202.351,139.691H194.16a.889.889,0,0,1,0-1.778h8.192a.889.889,0,0,1,0,1.778" transform="translate(-97.757 -69.757)" fill="#455a64"/><path d="M212.905,149.1H194.16a.889.889,0,0,1,0-1.778h18.746a.889.889,0,0,1,0,1.778" transform="translate(-97.757 -74.518)" fill="#263238"/><path d="M231.293,158.833H194.12a.89.89,0,0,1,0-1.778h37.173a.89.89,0,0,1,0,1.778" transform="translate(-97.757 -79.439)" fill="#e0e0e0"/><path d="M212.515,165.685H194.16a.889.889,0,1,1,0-1.778h18.355a.889.889,0,0,1,0,1.778" transform="translate(-97.757 -82.905)" fill="#e0e0e0"/><path d="M158.542,138.788a.9.9,0,1,1-.9-.9.9.9,0,0,1,.9.9" transform="translate(-79.278 -69.743)" fill="#455a64"/><path d="M158.542,129.78a.9.9,0,1,1-.9-.9.9.9,0,0,1,.9.9" transform="translate(-79.278 -65.186)" fill="#455a64"/><path d="M158.542,148.173a.9.9,0,1,1-.9-.9.9.9,0,0,1,.9.9" transform="translate(-79.278 -74.49)" fill="#455a64"/><path d="M158.542,157.93a.9.9,0,1,1-.9-.9.9.9,0,0,1,.9.9" transform="translate(-79.278 -79.425)" fill="#455a64"/><path d="M172.612,130.258h-5.044a.474.474,0,0,1-.473-.473v-.767a.473.473,0,0,1,.473-.473h5.044a.473.473,0,0,1,.473.473v.767a.474.474,0,0,1-.473.473" transform="translate(-84.517 -65.018)" fill="#455a64"/></g><g clip-path="url(#a)"><path d="M91.624,294.131s-2.821.608-3.312,2.611,3.93,49.911,4.107,51.079a4.821,4.821,0,0,0,5.308,4.037c3.035-.109,44.4-.013,54.821.011,1.384,0,2.216-1.176,2.4-2.578l-51.22-3.023Z" transform="translate(-44.649 -148.772)" fill="#e0e0e0"/><path d="M92.446,295.729,96.883,347.4a1.672,1.672,0,0,0,1.636,1.5l58.535.263L145.809,338l-38.026-.268-4.066-40.478a1.271,1.271,0,0,0-.975-1.1l-8.518-1.985a1.456,1.456,0,0,0-1.779,1.559" transform="translate(-46.756 -148.772)" fill="#e0e0e0"/><path d="M92.441,295.7a1.15,1.15,0,0,1-.009-.25,1.389,1.389,0,0,1,.228-.7,1.472,1.472,0,0,1,1-.655,1.762,1.762,0,0,1,.778.064l.867.2,4.521,1.038,2.866.66a1.34,1.34,0,0,1,1.082,1.152q.085.83.176,1.708c.952,9.363,2.311,22.731,3.942,38.78l-.109-.1,38.025.252h.052l.038.037,11.245,11.157.223.221h-.314l-2.593-.011-42.91-.2L101.91,349l-2.326-.012c-.387,0-.763,0-1.155-.011a1.775,1.775,0,0,1-1.648-1.516c-.043-.384-.066-.75-.1-1.123l-.188-2.21c-.5-5.843-.958-11.285-1.38-16.255-.836-9.935-1.513-17.975-1.981-23.538l-.525-6.4-.13-1.665c-.028-.376-.036-.568-.036-.568s.025.191.062.566.087.936.156,1.662l.573,6.4,2.062,23.531c.431,4.968.9,10.41,1.411,16.252l.191,2.21c.034.369.06.75.1,1.112a1.556,1.556,0,0,0,1.445,1.326c.371.01.762.005,1.144.009l2.326.009,9.636.038,42.909.183,2.593.012-.091.22-11.243-11.16.088.037-38.026-.285h-.1l-.009-.1c-1.594-16.053-2.921-29.424-3.851-38.79q-.087-.877-.169-1.707a1.222,1.222,0,0,0-.987-1.055l-2.863-.675-4.514-1.068-.865-.206a1.722,1.722,0,0,0-.757-.071,1.439,1.439,0,0,0-.975.624,1.408,1.408,0,0,0-.239.681c-.013.164,0,.248-.008.248" transform="translate(-46.751 -148.745)" fill="#263238"/><path d="M174.375,393.638h5.441l-6.879-8.923h-3.23Z" transform="translate(-85.839 -194.59)" fill="#263238"/><path d="M96.519,301.349l4.155,44.891,7.742-6.157-3.333-37.822a.656.656,0,0,0-.561-.591l-7.257-1.038a.657.657,0,0,0-.746.718" transform="translate(-48.818 -152.057)" fill="#263238"/><path d="M113.347,393.638h5.616l5.706-8.923h-3.23Z" transform="translate(-57.331 -194.59)" fill="#263238"/><path d="M127.294,393.638h5.441l2.982-8.923h-3.23Z" transform="translate(-64.386 -194.59)" fill="#263238"/><path d="M140.77,393.638h5.441l.293-8.923h-3.23Z" transform="translate(-71.202 -194.59)" fill="#263238"/><path d="M153.265,393.638h5.441l-2.009-8.923h-3.229Z" transform="translate(-77.522 -194.59)" fill="#263238"/><path d="M164.017,393.638h5.441l-4.433-8.923H161.8Z" transform="translate(-81.836 -194.59)" fill="#263238"/><path d="M151.675,399.172c0,.042-8.3.077-18.529.077s-18.531-.035-18.531-.077,8.3-.077,18.531-.077,18.529.035,18.529.077" transform="translate(-57.972 -201.863)" fill="#e0e0e0"/><path d="M151.588,395.861c0,.042-7.879.077-17.6.077s-17.6-.035-17.6-.077,7.878-.077,17.6-.077,17.6.035,17.6.077" transform="translate(-58.871 -200.189)" fill="#e0e0e0"/><path d="M153.715,392.778c0,.086-7.414.155-16.558.155s-16.56-.069-16.56-.155,7.412-.154,16.56-.154,16.558.069,16.558.154" transform="translate(-60.998 -198.59)" fill="#e0e0e0"/><path d="M154.9,390.036c0,.086-7.255.154-16.2.154s-16.2-.069-16.2-.154,7.253-.155,16.2-.155,16.2.069,16.2.155" transform="translate(-61.96 -197.203)" fill="#e0e0e0"/><path d="M156.223,388.034c0,.086-7.3.155-16.308.155s-16.309-.069-16.309-.155,7.3-.154,16.309-.154,16.308.069,16.308.154" transform="translate(-62.52 -196.191)" fill="#e0e0e0"/><path d="M157.223,385.943c0,.086-7.439.155-16.613.155s-16.615-.069-16.615-.155,7.438-.154,16.615-.154,16.613.069,16.613.154" transform="translate(-62.717 -195.133)" fill="#e0e0e0"/><path d="M103.087,392.2l10.141-9.488" transform="translate(-52.142 -193.577)" fill="#e0e0e0"/><path d="M113.226,382.711c.048.052-2.182,2.218-4.982,4.838s-5.11,4.7-5.159,4.65,2.182-2.217,4.983-4.838,5.11-4.7,5.158-4.649" transform="translate(-52.14 -193.576)" fill="#263238"/></g><g clip-path="url(#a)"><path d="M417.967,301.4s-.5-5.245-13.57-8.6c-6.312-1.62-21.378-2.4-23.086,7.394-.055.317-7.5,61.909-7.5,61.909h27.855Z" transform="translate(-189.075 -147.601)" fill="#455a64"/><path d="M441.077,367.4H428.226l4.292-60.344c.314-2.937,3.353-5.054,6.788-4.728l1.15.109c3.435.325,5.61,3.633,5.511,7.4Z" transform="translate(-216.598 -152.9)" fill="#455a64"/><path d="M430.173,375.314c-.071-.006.837-11.892,2.027-26.546s2.213-26.534,2.284-26.529-.837,11.89-2.027,26.549-2.213,26.531-2.284,26.526" transform="translate(-217.581 -162.989)" fill="#263238"/><path d="M448.411,304.727a13.326,13.326,0,0,0-1.806-.425,6.766,6.766,0,0,0-7.17,4.114,13.321,13.321,0,0,0-.545,1.774,1.624,1.624,0,0,1,.025-.506,5.96,5.96,0,0,1,.351-1.337,6.676,6.676,0,0,1,7.365-4.225,5.951,5.951,0,0,1,1.331.372,1.631,1.631,0,0,1,.449.233" transform="translate(-221.987 -153.78)" fill="#263238"/><path d="M348.722,147.939c.129-3.533-2.265-4.01-4.109-3.6a6.25,6.25,0,0,0-7.686.42,5.559,5.559,0,0,0-8.221,4.841,4.645,4.645,0,0,0-3.777,7.967,4.465,4.465,0,0,0,2.188,8.611l21.677-14.436c1.3-1.368-.141-1.913-.073-3.8" transform="translate(-162.872 -72.437)" fill="#263238"/><path d="M330.473,172.446a18.944,18.944,0,0,1,18.253-18.081l.98-.035c10.593.242,16.306,9.373,15.771,19.955l-.279,35.257-.069,6.694-24.22,5.758-.246-13.956s-10.219-1.219-10.706-11.375c-.235-4.9.1-15.045.515-24.218" transform="translate(-166.855 -78.061)" fill="#ae7461"/><path d="M351.528,258.513a24.661,24.661,0,0,0,13.175-4.37s-2.871,7.424-13.042,6.869Z" transform="translate(-177.804 -128.546)" fill="#6f4439"/><path d="M337.064,210.328a1.452,1.452,0,0,0,1.451,1.414,1.389,1.389,0,0,0,1.449-1.362,1.453,1.453,0,0,0-1.45-1.415,1.39,1.39,0,0,0-1.45,1.363" transform="translate(-170.488 -105.695)" fill="#263238"/><path d="M335.639,200.275c.186.183,1.256-.67,2.818-.721,1.559-.074,2.733.689,2.9.492.081-.088-.115-.423-.627-.768a3.983,3.983,0,0,0-2.327-.628,3.824,3.824,0,0,0-2.235.81c-.467.385-.617.733-.525.815" transform="translate(-169.754 -100.476)" fill="#263238"/><path d="M362.461,209.677a1.452,1.452,0,0,0,1.451,1.414,1.388,1.388,0,0,0,1.449-1.362,1.453,1.453,0,0,0-1.45-1.415,1.389,1.389,0,0,0-1.45,1.363" transform="translate(-183.334 -105.366)" fill="#263238"/><path d="M365.848,198.76c.187.183,1.259-.67,2.819-.721,1.558-.074,2.733.688,2.9.491.08-.087-.114-.423-.628-.768a3.983,3.983,0,0,0-2.327-.628,3.831,3.831,0,0,0-2.235.81c-.466.385-.617.733-.526.815" transform="translate(-185.034 -99.71)" fill="#263238"/><path d="M352.187,210.871a10.282,10.282,0,0,0-2.552-.368c-.4-.027-.78-.093-.857-.363A2.033,2.033,0,0,1,349,208.95l1.071-3.078c1.484-4.381,2.543-7.977,2.366-8.036s-1.523,3.446-3.007,7.826q-.534,1.62-1.021,3.095a2.31,2.31,0,0,0-.151,1.572,1,1,0,0,0,.677.559,2.674,2.674,0,0,0,.681.07,10.22,10.22,0,0,0,2.57-.087" transform="translate(-176.104 -100.066)" fill="#263238"/><path d="M360.734,226.068c-.255-.006-.2,1.689-1.605,2.943s-3.219,1.133-3.224,1.37c-.02.107.414.315,1.178.308a4.219,4.219,0,0,0,2.694-1.047,3.678,3.678,0,0,0,1.237-2.465c.04-.711-.165-1.124-.28-1.11" transform="translate(-180.018 -114.345)" fill="#263238"/><path d="M365.495,189.738c.2.4,1.532-.013,3.167-.044,1.634-.069,3.008.26,3.161-.149.067-.2-.22-.554-.806-.88a4.887,4.887,0,0,0-2.447-.553,4.688,4.688,0,0,0-2.374.7c-.547.359-.791.735-.7.925" transform="translate(-184.859 -95.146)" fill="#263238"/><path d="M336.038,191.723c.258.367,1.35.049,2.644.092,1.295,0,2.377.349,2.645-.01.119-.174-.037-.538-.5-.9a3.831,3.831,0,0,0-4.262-.067c-.473.343-.64.7-.527.88" transform="translate(-169.952 -96.218)" fill="#263238"/><path d="M332.681,166.527s2.454-6.458,5.469-8.052c3.651-1.929,5.395,2.091,8.9.976s6.989-2.966,10.7-.358c4.066,2.854,2.286,5.021,2.69,9.521,1.642,18.242,5.163,23.293,5.806,14.649.071-.947,2.662-1.79,2.908-5.789.319-5.186.3-11.467-.989-15.093-1.082-3.057-2.92-5.129-6.164-7.371-5.121-3.539-11.976-3.375-16.613-2.741s-13.418,6.307-12.711,14.26" transform="translate(-168.251 -76.836)" fill="#263238"/><path d="M399.287,212.005a2.76,2.76,0,0,1,2.883-2.764c1.9.113,4.048,1.114,4.062,5.034.026,6.954-6.962,5.545-6.975,5.346-.008-.135.014-4.706.029-7.616" transform="translate(-201.945 -105.832)" fill="#ae7461"/><path d="M402.3,219.308c.031-.022.122.085.327.177a1.209,1.209,0,0,0,.906.015,3,3,0,0,0,1.377-2.694,4,4,0,0,0-.346-1.733,1.4,1.4,0,0,0-.914-.927.616.616,0,0,0-.714.335c-.093.195-.048.334-.085.345-.019.018-.149-.116-.094-.4a.774.774,0,0,1,.272-.437.913.913,0,0,1,.669-.179,1.7,1.7,0,0,1,1.27,1.074,4.108,4.108,0,0,1,.427,1.936c-.04,1.4-.752,2.716-1.756,3.01a1.3,1.3,0,0,1-1.108-.179c-.216-.171-.253-.327-.229-.34" transform="translate(-203.48 -108.141)" fill="#6f4439"/><path d="M369.486,167.188a6.6,6.6,0,0,1-2.894,1.463,2.266,2.266,0,0,1-2.57-1.5c-.1-.481,0-1.046-.333-1.408-.4-.432-1.09-.268-1.67-.185a4.438,4.438,0,0,1-4.716-3.016,1.862,1.862,0,0,1-2.488.324,9.958,9.958,0,0,1-1.963-1.956,2.858,2.858,0,0,0-2.427-1.108,6.9,6.9,0,0,1-1.5.386c-.915-.049-1.4-1.1-1.569-2s-.315-1.953-1.105-2.418a3.642,3.642,0,0,0-2.486.02c-.835.154-1.926,0-2.171-.818a1.652,1.652,0,0,1,.266-1.271,4.5,4.5,0,0,1,5.25-1.892,6.1,6.1,0,0,1,11.161-1.58,6.193,6.193,0,0,1,9.973,1.9,4.488,4.488,0,0,1,5.289,6.345A4.263,4.263,0,0,1,376,161.781c.077,1.437-1.273,2.919-2.674,2.591a2.486,2.486,0,0,1-4.209,2.63" transform="translate(-172.758 -74.469)" fill="#263238"/><path d="M396.482,181.848a1.666,1.666,0,0,1-.385,1.351,2.234,2.234,0,0,1-1.363.88,2.407,2.407,0,0,1-2-.506l.292-.054A6.949,6.949,0,0,1,391.7,185.3a4,4,0,0,1-1.238.832,3.086,3.086,0,0,1-3.439-.9,4.008,4.008,0,0,1-.613-1.425,1.363,1.363,0,0,1-.074-.559c.03-.008.1.181.222.513a4.672,4.672,0,0,0,.688,1.3,2.835,2.835,0,0,0,4.178-.051,6.992,6.992,0,0,0,1.265-1.67l.115-.209.177.155a2.112,2.112,0,0,0,1.694.474,2.046,2.046,0,0,0,1.234-.707,3.374,3.374,0,0,0,.572-1.2" transform="translate(-195.405 -91.979)" fill="#455a64"/><path d="M201.872,365.06s-13.11-.393-13.9-.638a8.248,8.248,0,0,0-3.633,0c-.933.3-4.665,1.62-4.665,1.62l-7.92,2.111s-7.959,5.206-7.792,6.248,1.031,1.756,2.455,1.216,8.61-4.272,8.61-4.272l7.887-.835s10.786,3.875,12.964,3.683,7.758-1.137,7.758-1.137.785-5.59.393-6.474-2.161-1.522-2.161-1.522" transform="translate(-82.933 -184.223)" fill="#ae7461"/><path d="M165.043,382.207s6.643-7.124,8.485-8.085,12.087-2.642,12.087-2.642,3.282-1.361,4.482-.88,13.928,2.4,14.488,2.481-2.722,11.206-2.722,11.206a25.939,25.939,0,0,1-9.526-.4c-5.123-1.2-6.884-2.8-6.884-2.8l-5.114-1.343-3.129,1.193s-.562,4.632-2.8,4.392l-1.04-.721.8-5.123-3.281,1.361s-2.561,3.842-4.483,3.281-1.361-1.921-1.361-1.921" transform="translate(-83.441 -187.399)" fill="#ae7461"/><path d="M165.028,382.093a1.564,1.564,0,0,0-.051.556,1.231,1.231,0,0,0,.248.625,1.824,1.824,0,0,0,.752.548,1.9,1.9,0,0,0,1.153.165,3.526,3.526,0,0,0,1.272-.645,11.594,11.594,0,0,0,2.412-2.649l.012-.018.019-.008,3.277-1.372.134-.056-.022.144c-.237,1.541-.5,3.271-.787,5.125l-.04-.093,1.042.718-.045-.017a1.5,1.5,0,0,0,1.154-.424,3.406,3.406,0,0,0,.764-1.112,10.071,10.071,0,0,0,.767-2.772l.009-.065.06-.023,3.127-1.2.034-.013.036.009,5.115,1.337.023.006.027.021a13.31,13.31,0,0,0,3.538,1.8,29.712,29.712,0,0,0,4.03,1.121,25.631,25.631,0,0,0,4.3.485,24.333,24.333,0,0,0,4.438-.246l-.1.09.715-2.478c.7-2.517,1.409-4.995,1.923-7.444a8.471,8.471,0,0,0,.139-.913,1.113,1.113,0,0,0,0-.207c0-.032-.031-.051.02-.009a.06.06,0,0,0,.028.007l-.013,0-.029,0-.058-.009-.462-.069-1.829-.28-3.581-.564c-2.351-.38-4.629-.752-6.814-1.169-.548-.114-1.082-.206-1.624-.372a2.99,2.99,0,0,0-1.537-.046,15.628,15.628,0,0,0-2.963.889l-.012,0-.012,0c-3.581.6-6.857,1.192-9.715,1.877a17.662,17.662,0,0,0-2.036.6,6.2,6.2,0,0,0-1.615,1.092c-.967.82-1.807,1.632-2.565,2.363-1.511,1.468-2.66,2.656-3.448,3.46l-.9.921c-.2.209-.314.31-.314.31s.094-.118.29-.333l.873-.943c.773-.819,1.909-2.022,3.408-3.5.752-.739,1.586-1.557,2.554-2.389.243-.208.493-.417.762-.614a3.609,3.609,0,0,1,.889-.514,17.706,17.706,0,0,1,2.055-.615c2.865-.7,6.138-1.305,9.723-1.919l-.024.007a15.763,15.763,0,0,1,3.008-.912,3.209,3.209,0,0,1,1.653.052c.5.152,1.052.249,1.591.359,2.179.411,4.458.779,6.809,1.155l3.58.559,1.829.278.46.069.058.008.029,0,.016,0a.213.213,0,0,1,.054.02.245.245,0,0,1,.109.2,1.352,1.352,0,0,1,0,.26,8.657,8.657,0,0,1-.143.944c-.516,2.47-1.221,4.943-1.925,7.465l-.716,2.481-.022.078-.078.012a24.521,24.521,0,0,1-4.492.248,25.824,25.824,0,0,1-4.342-.494,29.853,29.853,0,0,1-4.064-1.136,19.285,19.285,0,0,1-1.89-.8,9.038,9.038,0,0,1-1.725-1.058l.05.027-5.112-1.349.069,0-3.131,1.189.069-.088a10.241,10.241,0,0,1-.795,2.834,3.608,3.608,0,0,1-.816,1.173,1.7,1.7,0,0,1-1.31.469l-.025,0-.02-.014-1.039-.723-.049-.034.009-.059c.295-1.852.569-3.58.813-5.12l.112.088L170.9,380.8l.031-.026a11.6,11.6,0,0,1-2.464,2.658,3.6,3.6,0,0,1-1.318.647,1.966,1.966,0,0,1-1.2-.187,1.865,1.865,0,0,1-.767-.582,1.253,1.253,0,0,1-.24-.656,1.06,1.06,0,0,1,.088-.559" transform="translate(-83.426 -187.285)" fill="#6f4439"/><path d="M194.567,381.275a1.9,1.9,0,0,1-.5-.012c-.323-.025-.789-.069-1.364-.129l-2.018-.224-.583-.069a1.943,1.943,0,0,0-.58.012,11.762,11.762,0,0,0-1.245.258c-1.667.484-3.334.806-3.976,1.794a3.73,3.73,0,0,0-.593,1.195,4.928,4.928,0,0,1-.131.483,1.2,1.2,0,0,1,.034-.507,3.41,3.41,0,0,1,.544-1.278,3.109,3.109,0,0,1,.68-.7,3.937,3.937,0,0,1,.992-.5c.723-.264,1.529-.515,2.388-.736a11.132,11.132,0,0,1,1.277-.259,2.153,2.153,0,0,1,.639-.006l.582.077,2.013.279c.572.084,1.035.155,1.354.211a1.888,1.888,0,0,1,.492.112" transform="translate(-92.845 -192.496)" fill="#6f4439"/><path d="M169.731,382.007a4.06,4.06,0,0,1,.55-.553c.369-.34.912-.821,1.6-1.4s1.522-1.243,2.483-1.942c.483-.346,1-.7,1.554-1.036a8.306,8.306,0,0,1,.885-.463,7.83,7.83,0,0,1,.979-.314,52.4,52.4,0,0,1,6.907-1.188l2.106-.262a4.6,4.6,0,0,1,.776-.061,4.458,4.458,0,0,1-.763.161l-2.093.342a64.151,64.151,0,0,0-6.866,1.256,7.8,7.8,0,0,0-.946.3,8.214,8.214,0,0,0-.857.444c-.549.327-1.062.674-1.544,1.012-.963.683-1.8,1.337-2.507,1.89l-1.65,1.329a5.023,5.023,0,0,1-.615.478" transform="translate(-85.85 -189.568)" fill="#6f4439"/><path d="M288.527,289.194a76.442,76.442,0,0,0-6.264,10.565c-2.374,4.942-10.056,21.768-10.056,21.768l-31.3,1.642.462,12.091s30.227,10.769,36.994,8.691,13.974-9.879,13.974-9.879l3.236-51s-2.685-.506-7.051,6.122" transform="translate(-121.854 -143.174)" fill="#b0c710"/><path d="M335.113,273.98s-8.024,18.2-9.2,25.911c-2.328,15.306-3.109,24.886-3.109,24.886l-2.728,23.687h53.447s1.77-43.9.633-58.62c-.852-11.027-9.3-17.9-12.753-21.669a33.863,33.863,0,0,1-1.159-3.315l-24.906,6.379Z" transform="translate(-161.896 -133.967)" fill="#b0c710"/><path d="M332.872,288.911a.962.962,0,0,1-.062.173l-.2.5-.8,1.9c-.687,1.654-1.678,4.051-2.675,7.093a84.5,84.5,0,0,0-2.763,10.888c-.8,4.157-1.439,8.77-1.976,13.625L321.868,348c-.331,3.176-.6,5.75-.786,7.547-.1.879-.173,1.567-.226,2.051l-.066.532a.092.092,0,1,1-.026,0c.01-.134.023-.311.04-.536.043-.485.1-1.175.179-2.056.168-1.8.408-4.377.7-7.556.618-6.379,1.434-15.192,2.448-24.922.538-4.86,1.19-9.479,2-13.642a82.326,82.326,0,0,1,2.823-10.9c1.022-3.042,2.04-5.432,2.756-7.074.353-.824.648-1.454.844-1.883.1-.2.171-.365.228-.486a.939.939,0,0,1,.086-.162" transform="translate(-162.24 -146.132)" fill="#263238"/><g transform="translate(159.15 158.916)" opacity="0.3"><g clip-path="url(#t)"><path d="M361.287,334.08c-.492-4.85-2.671-9.714-6.66-12.515L322.038,368.1c5.753,3.1,12.141,6.306,18.533,4.939a18.39,18.39,0,0,0,8.975-5.257c5.153-5.183,7.949-12.244,9.915-19.284,1.31-4.695,2.319-9.571,1.827-14.42" transform="translate(-322.038 -321.565)"/></g></g><path d="M322.61,307.929c-4.06,14.368-13.2,31.9-16,35.421a21.785,21.785,0,0,1-17.05,8.366c-3.677,0-34.752-6.051-43.961-7.861a3.945,3.945,0,0,1-3.1-3.062l-.08-.381-4.146-1.116,2.208-11.124.441-.617,44.444,1.4,12.929-36.01c.244-.412,3.978-12.5,14.1-11.947" transform="translate(-120.517 -142.12)" fill="#b0c710"/><path d="M312.24,280.986s-.114,0-.336,0a9.72,9.72,0,0,0-.99.024,11.174,11.174,0,0,0-3.735.887,13.555,13.555,0,0,0-4.877,3.762,24.418,24.418,0,0,0-4.1,7.306l.006-.012-12.892,36.023-.027.077-.082,0-44.445-1.382.108-.053-.441.616.022-.049-2,10.1-.2,1.025-.093-.149,4.146,1.117.081.022.012.076a4.007,4.007,0,0,0,1.221,2.394,3.728,3.728,0,0,0,1.136.728,6.648,6.648,0,0,0,1.327.339l5.439,1.062,10.625,2.044c6.964,1.319,13.672,2.574,20.072,3.657,1.6.265,3.182.519,4.744.74.782.1,1.56.208,2.327.243a18.091,18.091,0,0,0,2.3-.115,21.824,21.824,0,0,0,8.4-2.694,22.335,22.335,0,0,0,6.268-5.347,29.478,29.478,0,0,0,2.156-3.253q.971-1.651,1.837-3.265a175.815,175.815,0,0,0,9.529-21c.941-2.551,1.61-4.551,2.035-5.915l.479-1.553c.109-.349.172-.526.172-.526s-.045.182-.147.533l-.455,1.561c-.41,1.369-1.064,3.376-1.992,5.933a172.1,172.1,0,0,1-9.464,21.049q-.866,1.615-1.833,3.275a29.633,29.633,0,0,1-2.166,3.28,22.524,22.524,0,0,1-6.316,5.406,22.041,22.041,0,0,1-8.48,2.734,18.4,18.4,0,0,1-2.329.119c-.791-.035-1.568-.145-2.354-.242-1.567-.219-3.15-.472-4.752-.736-6.4-1.077-13.115-2.326-20.08-3.642l-10.627-2.04-5.44-1.061a6.868,6.868,0,0,1-1.376-.353,4,4,0,0,1-1.213-.777,4.269,4.269,0,0,1-1.3-2.53l.092.1-4.146-1.116-.116-.031.024-.118c.064-.323.133-.674.2-1.025.687-3.459,1.366-6.882,2-10.1l.005-.027.016-.022.441-.616.04-.056.068,0,44.444,1.414-.109.074c5.223-14.5,9.683-26.879,12.967-36l.006-.012a24.383,24.383,0,0,1,4.141-7.3,13.568,13.568,0,0,1,4.933-3.76,11.028,11.028,0,0,1,3.762-.856,8.633,8.633,0,0,1,.993,0c.223.007.336.015.336.015" transform="translate(-120.364 -142.109)" fill="#263238"/><path d="M308.494,366.648a12.575,12.575,0,0,0-5.129-5.505,3.48,3.48,0,0,1,1.034.469,9.508,9.508,0,0,1,3.7,3.972,3.492,3.492,0,0,1,.394,1.065" transform="translate(-153.442 -182.666)" fill="#263238"/><path d="M339.05,386.864c-.044.006-.13-.57-.388-1.466a13.538,13.538,0,0,0-3.745-6.135c-.68-.639-1.152-.979-1.127-1.015.01-.015.137.057.358.2a8.257,8.257,0,0,1,.89.679,11.973,11.973,0,0,1,3.8,6.224,8.358,8.358,0,0,1,.2,1.1,1.257,1.257,0,0,1,.016.411" transform="translate(-168.831 -191.318)" fill="#263238"/><g transform="translate(158.363 156.375)" opacity="0.3"><g clip-path="url(#u)"><path d="M320.445,346.6l2.587.1c.417-10.151,2.509-20.274,4.3-30.275-4.562,9.317-5.758,19.867-6.887,30.179" transform="translate(-320.445 -316.421)"/></g></g><path d="M376.708,271.565a.974.974,0,0,1-.244.085l-.711.2-2.62.7c-2.212.588-5.261,1.431-8.65,2.286s-6.49,1.516-8.753,1.888c-1.131.187-2.049.319-2.687.384l-.734.074a.96.96,0,0,1-.258.008.988.988,0,0,1,.252-.06l.727-.122c.633-.1,1.544-.255,2.669-.464,2.249-.417,5.335-1.1,8.722-1.959s6.443-1.669,8.668-2.212c1.112-.275,2.015-.483,2.641-.618l.723-.148a.965.965,0,0,1,.256-.035" transform="translate(-178.068 -137.357)" fill="#263238"/><path d="M282.177,68.286l8.559-1.308a8.659,8.659,0,1,1-7.609-7.3Z" transform="translate(-138.347 -30.16)" fill="#529d2e"/><path d="M295.6,59.788l-1.039,6.635,6.513-1.223a8.705,8.705,0,0,0-5.474-5.412" transform="translate(-148.987 -30.241)" fill="#fff"/><path d="M143.718,14.818a12.517,12.517,0,1,1,12.716,12.371,12.562,12.562,0,0,1-12.716-12.371m18.5-.3a5.985,5.985,0,1,0-5.888,6.108,6,6,0,0,0,5.888-6.108" transform="translate(-72.692 -1.033)" fill="#f5f5f5"/><path d="M143.718,14.821A12.563,12.563,0,0,1,156.032,2.046l.1,6.561a6.012,6.012,0,0,0,.192,12.023l.105,6.561a12.558,12.558,0,0,1-12.716-12.371" transform="translate(-72.692 -1.035)" fill="#e0e0e0"/><path d="M166.363,0a14.3,14.3,0,0,1,14.644,14.246l-7.641.123c-.062-3.878-3.013-6.32-6.873-6.257Z" transform="translate(-84.147 0)" fill="#67c53a"/><path d="M194.051,64.149l9.477-22.866a1.253,1.253,0,0,0-1.212-1.89h-1.907a1.22,1.22,0,0,1-1.359-1.1l-.063-.841a1.222,1.222,0,0,0-1.361-1.1h-9.06a3.172,3.172,0,0,0-2.1.928l-.736.713a3.168,3.168,0,0,1-2.1.928H172.1a3.22,3.22,0,0,0-2.756,1.889l-9.4,23.333Z" transform="translate(-80.901 -18.39)" fill="#3a8416"/><path d="M199.276,60.869l3.574-13.82a1.4,1.4,0,0,0-1.19-1.823H173.643a1.277,1.277,0,0,0-1.193,1.029l-5.2,20.8c-.228.914.136,1.461.967,1.451l28.189.009a1.278,1.278,0,0,0,1.177-1.021Z" transform="translate(-84.56 -22.876)" fill="#e0e0e0"/><path d="M198.693,67.591l1.523-21.763a1.335,1.335,0,0,0-1.331-1.428H169.856V67.591Z" transform="translate(-85.914 -22.458)" fill="#ebebeb"/><path d="M192.006,68.089l-3.453-22.436a1.608,1.608,0,0,0-1.578-1.253H157.608a1.587,1.587,0,0,0-1.483,2.212l6.341,20.532Z" transform="translate(-78.901 -22.458)" fill="#fafafa"/><path d="M187.193,69.571l-7.122-21.013a2.109,2.109,0,0,0-1.981-1.461H147.817a1.479,1.479,0,0,0-1.352,1.963l6.624,20.521Z" transform="translate(-74.044 -23.822)" fill="#529d2e"/></g></g></g><g transform="translate(-2264 -8723.953)"><g clip-path="url(#v)"><rect width="49.812" height="34.675" transform="translate(6.844 70.094)" fill="#263238"/><rect width="51.24" height="12.713" transform="translate(0 80.379)" fill="#455a64"/><rect width="10.089" height="1.552" transform="translate(2.275 82.998)" fill="#263238"/><rect width="10.089" height="1.552" transform="translate(2.275 85.669)" fill="#263238"/><rect width="10.089" height="1.552" transform="translate(2.275 88.43)" fill="#263238"/><g clip-path="url(#v)"><path d="M34.521,183.589a.579.579,0,1,1-.579-.579.579.579,0,0,1,.579.579" transform="translate(-18.167 -99.653)" fill="#263238"/><path d="M40.128,183.589a.579.579,0,1,1-.579-.579.579.579,0,0,1,.579.579" transform="translate(-21.221 -99.653)" fill="#263238"/><path d="M45.735,183.589a.579.579,0,1,1-.579-.579.579.579,0,0,1,.579.579" transform="translate(-24.274 -99.653)" fill="#263238"/><path d="M51.343,183.589a.579.579,0,1,1-.579-.579.579.579,0,0,1,.579.579" transform="translate(-27.327 -99.653)" fill="#263238"/><path d="M94.794,183.589a.579.579,0,1,1-.579-.579.579.579,0,0,1,.579.579" transform="translate(-50.988 -99.653)" fill="#263238"/><path d="M100.512,183.589a.579.579,0,1,1-.579-.579.579.579,0,0,1,.579.579" transform="translate(-54.101 -99.653)" fill="#263238"/><path d="M56.95,183.589a.579.579,0,1,1-.579-.579.579.579,0,0,1,.579.579" transform="translate(-30.381 -99.653)" fill="#263238"/><path d="M84.487,183.589a.579.579,0,1,1-.579-.579.579.579,0,0,1,.579.579" transform="translate(-45.375 -99.653)" fill="#263238"/><path d="M62.557,183.589a.579.579,0,1,1-.579-.579.579.579,0,0,1,.579.579" transform="translate(-33.434 -99.653)" fill="#f5f5f5"/><path d="M68.165,183.589a.579.579,0,1,1-.579-.579.579.579,0,0,1,.579.579" transform="translate(-36.487 -99.653)" fill="#f5f5f5"/><path d="M79.541,183.589a.579.579,0,1,1-.579-.579.579.579,0,0,1,.579.579" transform="translate(-42.682 -99.653)" fill="#f5f5f5"/><path d="M105.165,183.589a.579.579,0,1,1-.579-.579.579.579,0,0,1,.579.579" transform="translate(-56.635 -99.653)" fill="#f5f5f5"/><path d="M73.772,183.589a.579.579,0,1,1-.579-.579.579.579,0,0,1,.579.579" transform="translate(-39.541 -99.653)" fill="#ff725e"/><path d="M89.827,183.589a.579.579,0,1,1-.579-.579.579.579,0,0,1,.579.579" transform="translate(-48.283 -99.653)" fill="#ff725e"/><path d="M104.007,189.714a.579.579,0,1,1,.579.579.579.579,0,0,1-.579-.579" transform="translate(-56.634 -102.988)" fill="#263238"/><path d="M98.4,189.714a.579.579,0,1,1,.579.579.579.579,0,0,1-.579-.579" transform="translate(-53.581 -102.988)" fill="#263238"/><path d="M92.793,189.714a.579.579,0,1,1,.579.579.579.579,0,0,1-.579-.579" transform="translate(-50.528 -102.988)" fill="#263238"/><path d="M87.186,189.714a.579.579,0,1,1,.579.579.579.579,0,0,1-.579-.579" transform="translate(-47.475 -102.988)" fill="#263238"/><path d="M43.734,189.714a.579.579,0,1,1,.579.579.579.579,0,0,1-.579-.579" transform="translate(-23.814 -102.988)" fill="#263238"/><path d="M38.016,189.714a.579.579,0,1,1,.579.579.579.579,0,0,1-.579-.579" transform="translate(-20.701 -102.988)" fill="#263238"/><path d="M81.578,189.714a.579.579,0,1,1,.579.579.579.579,0,0,1-.579-.579" transform="translate(-44.421 -102.988)" fill="#263238"/><path d="M54.041,189.714a.579.579,0,1,1,.579.579.579.579,0,0,1-.579-.579" transform="translate(-29.427 -102.988)" fill="#263238"/><path d="M75.971,189.714a.579.579,0,1,1,.579.579.579.579,0,0,1-.579-.579" transform="translate(-41.368 -102.988)" fill="#f5f5f5"/><path d="M70.364,189.714a.579.579,0,1,1,.579.579.579.579,0,0,1-.579-.579" transform="translate(-38.315 -102.988)" fill="#f5f5f5"/><path d="M58.987,189.714a.579.579,0,1,1,.579.579.579.579,0,0,1-.579-.579" transform="translate(-32.12 -102.988)" fill="#f5f5f5"/><path d="M33.363,189.714a.579.579,0,1,1,.579.579.579.579,0,0,1-.579-.579" transform="translate(-18.167 -102.988)" fill="#f5f5f5"/><path d="M64.756,189.714a.579.579,0,1,1,.579.579.579.579,0,0,1-.579-.579" transform="translate(-35.261 -102.988)" fill="#ff725e"/><path d="M48.7,189.714a.579.579,0,1,1,.579.579.579.579,0,0,1-.579-.579" transform="translate(-26.519 -102.988)" fill="#ff725e"/><path d="M34.521,195.161a.579.579,0,1,1-.579-.579.579.579,0,0,1,.579.579" transform="translate(-18.167 -105.954)" fill="#263238"/><path d="M40.128,195.161a.579.579,0,1,1-.579-.579.579.579,0,0,1,.579.579" transform="translate(-21.221 -105.954)" fill="#263238"/><path d="M45.735,195.161a.579.579,0,1,1-.579-.579.579.579,0,0,1,.579.579" transform="translate(-24.274 -105.954)" fill="#263238"/><path d="M51.343,195.161a.579.579,0,1,1-.579-.579.579.579,0,0,1,.579.579" transform="translate(-27.327 -105.954)" fill="#263238"/><path d="M94.794,195.161a.579.579,0,1,1-.579-.579.579.579,0,0,1,.579.579" transform="translate(-50.988 -105.954)" fill="#263238"/><path d="M100.512,195.161a.579.579,0,1,1-.579-.579.579.579,0,0,1,.579.579" transform="translate(-54.101 -105.954)" fill="#263238"/><path d="M56.95,195.161a.579.579,0,1,1-.579-.579.579.579,0,0,1,.579.579" transform="translate(-30.381 -105.954)" fill="#263238"/><path d="M84.487,195.161a.579.579,0,1,1-.579-.579.579.579,0,0,1,.579.579" transform="translate(-45.375 -105.954)" fill="#263238"/><path d="M62.557,195.161a.579.579,0,1,1-.579-.579.579.579,0,0,1,.579.579" transform="translate(-33.434 -105.954)" fill="#f5f5f5"/><path d="M68.165,195.161a.579.579,0,1,1-.579-.579.579.579,0,0,1,.579.579" transform="translate(-36.487 -105.954)" fill="#f5f5f5"/><path d="M79.541,195.161a.579.579,0,1,1-.579-.579.579.579,0,0,1,.579.579" transform="translate(-42.682 -105.954)" fill="#f5f5f5"/><path d="M105.165,195.161a.579.579,0,1,1-.579-.579.579.579,0,0,1,.579.579" transform="translate(-56.635 -105.954)" fill="#f5f5f5"/><path d="M73.772,195.161a.579.579,0,1,1-.579-.579.579.579,0,0,1,.579.579" transform="translate(-39.541 -105.954)" fill="#ff725e"/><path d="M89.827,195.161a.579.579,0,1,1-.579-.579.579.579,0,0,1,.579.579" transform="translate(-48.283 -105.954)" fill="#ff725e"/><rect width="51.24" height="12.713" transform="translate(0 96.067)" fill="#344750"/><path d="M34.242,217.755a.579.579,0,1,1-.579-.579.579.579,0,0,1,.579.579" transform="translate(-18.016 -118.257)" fill="#263238"/><path d="M39.85,217.755a.579.579,0,1,1-.579-.579.579.579,0,0,1,.579.579" transform="translate(-21.069 -118.257)" fill="#263238"/><path d="M45.457,217.755a.579.579,0,1,1-.579-.579.579.579,0,0,1,.579.579" transform="translate(-24.122 -118.257)" fill="#263238"/><path d="M51.064,217.755a.579.579,0,1,1-.579-.579.579.579,0,0,1,.579.579" transform="translate(-27.176 -118.257)" fill="#263238"/><path d="M94.516,217.755a.579.579,0,1,1-.579-.579.579.579,0,0,1,.579.579" transform="translate(-50.836 -118.257)" fill="#263238"/><path d="M100.234,217.755a.579.579,0,1,1-.579-.579.579.579,0,0,1,.579.579" transform="translate(-53.95 -118.257)" fill="#263238"/><path d="M56.671,217.755a.579.579,0,1,1-.579-.579.579.579,0,0,1,.579.579" transform="translate(-30.229 -118.257)" fill="#263238"/><path d="M84.209,217.755a.579.579,0,1,1-.579-.579.579.579,0,0,1,.579.579" transform="translate(-45.224 -118.257)" fill="#263238"/><path d="M62.279,217.755a.579.579,0,1,1-.579-.579.579.579,0,0,1,.579.579" transform="translate(-33.282 -118.257)" fill="#f5f5f5"/><path d="M67.886,217.755a.579.579,0,1,1-.579-.579.579.579,0,0,1,.579.579" transform="translate(-36.335 -118.257)" fill="#f5f5f5"/><path d="M79.263,217.755a.579.579,0,1,1-.579-.579.579.579,0,0,1,.579.579" transform="translate(-42.531 -118.257)" fill="#f5f5f5"/><path d="M104.886,217.755a.579.579,0,1,1-.579-.579.579.579,0,0,1,.579.579" transform="translate(-56.483 -118.257)" fill="#f5f5f5"/><path d="M73.493,217.755a.579.579,0,1,1-.579-.579.579.579,0,0,1,.579.579" transform="translate(-39.389 -118.257)" fill="#ff725e"/><path d="M89.548,217.755a.579.579,0,1,1-.579-.579.579.579,0,0,1,.579.579" transform="translate(-48.131 -118.257)" fill="#ff725e"/><path d="M103.729,223.88a.579.579,0,1,1,.579.579.579.579,0,0,1-.579-.579" transform="translate(-56.483 -121.593)" fill="#263238"/><path d="M98.122,223.88a.579.579,0,1,1,.579.579.579.579,0,0,1-.579-.579" transform="translate(-53.43 -121.593)" fill="#263238"/><path d="M92.514,223.88a.579.579,0,1,1,.579.579.579.579,0,0,1-.579-.579" transform="translate(-50.376 -121.593)" fill="#263238"/><path d="M86.907,223.88a.579.579,0,1,1,.579.579.579.579,0,0,1-.579-.579" transform="translate(-47.323 -121.593)" fill="#263238"/><path d="M43.455,223.88a.579.579,0,1,1,.579.579.579.579,0,0,1-.579-.579" transform="translate(-23.662 -121.593)" fill="#263238"/><path d="M37.737,223.88a.579.579,0,1,1,.579.579.579.579,0,0,1-.579-.579" transform="translate(-20.549 -121.593)" fill="#263238"/><path d="M81.3,223.88a.579.579,0,1,1,.579.579.579.579,0,0,1-.579-.579" transform="translate(-44.27 -121.593)" fill="#263238"/><path d="M53.762,223.88a.579.579,0,1,1,.579.579.579.579,0,0,1-.579-.579" transform="translate(-29.275 -121.593)" fill="#263238"/><path d="M75.692,223.88a.579.579,0,1,1,.579.579.579.579,0,0,1-.579-.579" transform="translate(-41.216 -121.593)" fill="#f5f5f5"/><path d="M70.085,223.88a.579.579,0,1,1,.579.579.579.579,0,0,1-.579-.579" transform="translate(-38.163 -121.593)" fill="#f5f5f5"/><path d="M58.709,223.88a.579.579,0,1,1,.579.579.579.579,0,0,1-.579-.579" transform="translate(-31.968 -121.593)" fill="#f5f5f5"/><path d="M33.085,223.88a.579.579,0,1,1,.579.579.579.579,0,0,1-.579-.579" transform="translate(-18.016 -121.593)" fill="#f5f5f5"/><path d="M64.478,223.88a.579.579,0,1,1,.579.579.579.579,0,0,1-.579-.579" transform="translate(-35.11 -121.593)" fill="#ff725e"/><path d="M48.423,223.88a.579.579,0,1,1,.579.579.579.579,0,0,1-.579-.579" transform="translate(-26.367 -121.593)" fill="#ff725e"/><path d="M34.242,229.327a.579.579,0,1,1-.579-.579.579.579,0,0,1,.579.579" transform="translate(-18.016 -124.559)" fill="#263238"/><path d="M39.85,229.327a.579.579,0,1,1-.579-.579.579.579,0,0,1,.579.579" transform="translate(-21.069 -124.559)" fill="#263238"/><path d="M45.457,229.327a.579.579,0,1,1-.579-.579.579.579,0,0,1,.579.579" transform="translate(-24.122 -124.559)" fill="#263238"/><path d="M51.064,229.327a.579.579,0,1,1-.579-.579.579.579,0,0,1,.579.579" transform="translate(-27.176 -124.559)" fill="#263238"/><path d="M94.516,229.327a.579.579,0,1,1-.579-.579.579.579,0,0,1,.579.579" transform="translate(-50.836 -124.559)" fill="#263238"/><path d="M100.234,229.327a.579.579,0,1,1-.579-.579.579.579,0,0,1,.579.579" transform="translate(-53.95 -124.559)" fill="#263238"/><path d="M56.671,229.327a.579.579,0,1,1-.579-.579.579.579,0,0,1,.579.579" transform="translate(-30.229 -124.559)" fill="#263238"/><path d="M84.209,229.327a.579.579,0,1,1-.579-.579.579.579,0,0,1,.579.579" transform="translate(-45.224 -124.559)" fill="#263238"/><path d="M62.279,229.327a.579.579,0,1,1-.579-.579.579.579,0,0,1,.579.579" transform="translate(-33.282 -124.559)" fill="#f5f5f5"/><path d="M67.886,229.327a.579.579,0,1,1-.579-.579.579.579,0,0,1,.579.579" transform="translate(-36.335 -124.559)" fill="#f5f5f5"/><path d="M79.263,229.327a.579.579,0,1,1-.579-.579.579.579,0,0,1,.579.579" transform="translate(-42.531 -124.559)" fill="#f5f5f5"/><path d="M104.886,229.327a.579.579,0,1,1-.579-.579.579.579,0,0,1,.579.579" transform="translate(-56.483 -124.559)" fill="#f5f5f5"/><path d="M73.493,229.327a.579.579,0,1,1-.579-.579.579.579,0,0,1,.579.579" transform="translate(-39.389 -124.559)" fill="#ff725e"/><path d="M89.548,229.327a.579.579,0,1,1-.579-.579.579.579,0,0,1,.579.579" transform="translate(-48.131 -124.559)" fill="#ff725e"/><rect width="10.089" height="1.552" transform="translate(2.275 98.686)" fill="#263238"/><rect width="10.089" height="1.552" transform="translate(2.275 101.357)" fill="#263238"/><rect width="10.089" height="1.552" transform="translate(2.275 104.118)" fill="#263238"/><path d="M123.33,189.141l-10.832.02V176.448l10.832-.02Z" transform="translate(-61.258 -96.069)" fill="#263238"/><path d="M123.33,223.366l-10.832.02V210.674l10.832-.02Z" transform="translate(-61.258 -114.706)" fill="#263238"/><rect width="10.089" height="1.552" transform="translate(2.646 72.855)" fill="#263238"/><path d="M123.33,155.088l-10.832.021V142.3l10.832-.021Z" transform="translate(-61.258 -77.474)" fill="#263238"/><rect width="51.24" height="12.713" transform="translate(0.371 64.804)" fill="#455a64"/><rect width="10.089" height="1.552" transform="translate(2.646 67.423)" fill="#263238"/><rect width="10.089" height="1.552" transform="translate(2.646 70.094)" fill="#263238"/><path d="M35.336,149.394a.579.579,0,1,1-.579-.579.579.579,0,0,1,.579.579" transform="translate(-18.611 -81.033)" fill="#263238"/><path d="M40.943,149.394a.579.579,0,1,1-.579-.579.579.579,0,0,1,.579.579" transform="translate(-21.664 -81.033)" fill="#263238"/><path d="M46.55,149.394a.579.579,0,1,1-.579-.579.579.579,0,0,1,.579.579" transform="translate(-24.718 -81.033)" fill="#263238"/><path d="M52.157,149.394a.579.579,0,1,1-.579-.579.579.579,0,0,1,.579.579" transform="translate(-27.771 -81.033)" fill="#263238"/><path d="M95.609,149.394a.579.579,0,1,1-.579-.579.579.579,0,0,1,.579.579" transform="translate(-51.431 -81.033)" fill="#263238"/><path d="M101.327,149.394a.579.579,0,1,1-.579-.579.579.579,0,0,1,.579.579" transform="translate(-54.545 -81.033)" fill="#263238"/><path d="M57.765,149.394a.579.579,0,1,1-.579-.579.579.579,0,0,1,.579.579" transform="translate(-30.824 -81.033)" fill="#263238"/><path d="M85.3,149.394a.579.579,0,1,1-.579-.579.579.579,0,0,1,.579.579" transform="translate(-45.819 -81.033)" fill="#263238"/><path d="M63.372,149.394a.579.579,0,1,1-.579-.579.579.579,0,0,1,.579.579" transform="translate(-33.878 -81.033)" fill="#f5f5f5"/><path d="M68.979,149.394a.579.579,0,1,1-.579-.579.579.579,0,0,1,.579.579" transform="translate(-36.931 -81.033)" fill="#f5f5f5"/><path d="M80.356,149.394a.579.579,0,1,1-.579-.579.579.579,0,0,1,.579.579" transform="translate(-43.126 -81.033)" fill="#f5f5f5"/><path d="M105.979,149.394a.579.579,0,1,1-.579-.579.579.579,0,0,1,.579.579" transform="translate(-57.078 -81.033)" fill="#f5f5f5"/><path d="M74.587,149.394a.579.579,0,1,1-.579-.579.579.579,0,0,1,.579.579" transform="translate(-39.984 -81.033)" fill="#ff725e"/><path d="M90.641,149.394a.579.579,0,1,1-.579-.579.579.579,0,0,1,.579.579" transform="translate(-48.726 -81.033)" fill="#ff725e"/><path d="M104.822,155.519a.579.579,0,1,1,.579.579.579.579,0,0,1-.579-.579" transform="translate(-57.078 -84.368)" fill="#263238"/><path d="M99.215,155.519a.579.579,0,1,1,.579.579.579.579,0,0,1-.579-.579" transform="translate(-54.025 -84.368)" fill="#263238"/><path d="M93.608,155.519a.579.579,0,1,1,.579.579.579.579,0,0,1-.579-.579" transform="translate(-50.972 -84.368)" fill="#263238"/><path d="M88,155.519a.579.579,0,1,1,.579.579.579.579,0,0,1-.579-.579" transform="translate(-47.918 -84.368)" fill="#263238"/><path d="M44.549,155.519a.578.578,0,1,1,.578.579.578.578,0,0,1-.578-.579" transform="translate(-24.258 -84.368)" fill="#263238"/><path d="M38.831,155.519a.578.578,0,1,1,.579.579.579.579,0,0,1-.579-.579" transform="translate(-21.144 -84.368)" fill="#263238"/><path d="M82.393,155.519a.579.579,0,1,1,.579.579.579.579,0,0,1-.579-.579" transform="translate(-44.865 -84.368)" fill="#263238"/><path d="M54.855,155.519a.579.579,0,1,1,.579.579.579.579,0,0,1-.579-.579" transform="translate(-29.87 -84.368)" fill="#263238"/><path d="M76.786,155.519a.579.579,0,1,1,.578.579.579.579,0,0,1-.578-.579" transform="translate(-41.812 -84.368)" fill="#f5f5f5"/><path d="M71.178,155.519a.579.579,0,1,1,.579.579.579.579,0,0,1-.579-.579" transform="translate(-38.758 -84.368)" fill="#f5f5f5"/><path d="M59.8,155.519a.579.579,0,1,1,.579.579.579.579,0,0,1-.579-.579" transform="translate(-32.564 -84.368)" fill="#f5f5f5"/><path d="M34.178,155.519a.579.579,0,1,1,.579.579.579.579,0,0,1-.579-.579" transform="translate(-18.611 -84.368)" fill="#f5f5f5"/><path d="M65.571,155.519a.579.579,0,1,1,.579.579.579.579,0,0,1-.579-.579" transform="translate(-35.705 -84.368)" fill="#ff725e"/><path d="M49.516,155.519a.579.579,0,1,1,.579.579.579.579,0,0,1-.579-.579" transform="translate(-26.963 -84.368)" fill="#ff725e"/><path d="M35.336,160.966a.579.579,0,1,1-.579-.579.579.579,0,0,1,.579.579" transform="translate(-18.611 -87.334)" fill="#263238"/><path d="M40.943,160.966a.579.579,0,1,1-.579-.579.579.579,0,0,1,.579.579" transform="translate(-21.664 -87.334)" fill="#263238"/><path d="M46.55,160.966a.579.579,0,1,1-.579-.579.579.579,0,0,1,.579.579" transform="translate(-24.718 -87.334)" fill="#263238"/><path d="M52.157,160.966a.579.579,0,1,1-.579-.579.579.579,0,0,1,.579.579" transform="translate(-27.771 -87.334)" fill="#263238"/><path d="M95.609,160.966a.579.579,0,1,1-.579-.579.579.579,0,0,1,.579.579" transform="translate(-51.431 -87.334)" fill="#263238"/><path d="M101.327,160.966a.579.579,0,1,1-.579-.579.579.579,0,0,1,.579.579" transform="translate(-54.545 -87.334)" fill="#263238"/><path d="M57.765,160.966a.579.579,0,1,1-.579-.579.579.579,0,0,1,.579.579" transform="translate(-30.824 -87.334)" fill="#263238"/><path d="M85.3,160.966a.579.579,0,1,1-.579-.579.579.579,0,0,1,.579.579" transform="translate(-45.819 -87.334)" fill="#263238"/><path d="M63.372,160.966a.579.579,0,1,1-.579-.579.579.579,0,0,1,.579.579" transform="translate(-33.878 -87.334)" fill="#f5f5f5"/><path d="M68.979,160.966a.579.579,0,1,1-.579-.579.579.579,0,0,1,.579.579" transform="translate(-36.931 -87.334)" fill="#f5f5f5"/><path d="M80.356,160.966a.579.579,0,1,1-.579-.579.579.579,0,0,1,.579.579" transform="translate(-43.126 -87.334)" fill="#f5f5f5"/><path d="M105.979,160.966a.579.579,0,1,1-.579-.579.579.579,0,0,1,.579.579" transform="translate(-57.078 -87.334)" fill="#f5f5f5"/><path d="M74.587,160.966a.579.579,0,1,1-.579-.579.579.579,0,0,1,.579.579" transform="translate(-39.984 -87.334)" fill="#ff725e"/><path d="M90.641,160.966a.579.579,0,1,1-.579-.579.579.579,0,0,1,.579.579" transform="translate(-48.726 -87.334)" fill="#ff725e"/></g></g></g></g></svg>