<svg xmlns="http://www.w3.org/2000/svg" xmlns:xlink="http://www.w3.org/1999/xlink" width="270.723" height="247.742" viewBox="0 0 270.723 247.742"><defs><clipPath id="a"><rect width="225.084" height="239.485" fill="none"/></clipPath><filter id="c" x="43.646" y="-1.371" width="81.3" height="56.827" filterUnits="userSpaceOnUse"><feOffset dy="3" input="SourceAlpha"/><feGaussianBlur stdDeviation="3" result="d"/><feFlood flood-opacity="0.161"/><feComposite operator="in" in2="d"/><feComposite in="SourceGraphic"/></filter><clipPath id="i"><rect width="5.174" height="17.63" fill="none"/></clipPath><clipPath id="j"><rect width="7.827" height="5.919" fill="none"/></clipPath><clipPath id="l"><rect width="34.086" height="14.652" fill="none"/></clipPath><clipPath id="m"><rect width="16.393" height="31.979" fill="none"/></clipPath></defs><g transform="translate(2257.274 8482.828)"><g transform="translate(-2257.274 -8457.988)"><g transform="translate(0 0)"><circle cx="105.068" cy="105.068" r="105.068" transform="translate(0 0)" fill="#fdab64"/><ellipse cx="112.256" cy="8.715" rx="112.256" ry="8.715" transform="translate(46.21 205.471)" fill="#fc8116"/><line y2="17.435" transform="translate(97.433 128.508)" fill="#003889"/><circle cx="8.402" cy="8.402" r="8.402" transform="translate(170.364 33.775) rotate(-45)" fill="#fc8116"/></g></g><g transform="translate(-2257.274 -8482.828)"><g clip-path="url(#a)"><g clip-path="url(#a)"><path d="M0,180.865v27.469a9,9,0,0,0,9,9h98.494a9,9,0,0,0,9-9v-23.21l12.262-12.884L9.027,171.866a9,9,0,0,0-9.027,9" transform="translate(0 -72.762)" fill="#f5f5f5"/><path d="M111.221,198.406l-89.377-.413.009-2.747,89.377.413Z" transform="translate(-9.248 -82.66)" fill="#e0e0e0"/><path d="M111.221,214.079l-89.377-.413.009-2.747,89.377.413Z" transform="translate(-9.248 -89.295)" fill="#e0e0e0"/><rect width="2.747" height="35.364" transform="translate(66.608 133.419) rotate(-89.718)" fill="#e0e0e0"/><path d="M158.27,345.464v27.469a9,9,0,0,0,9,9h98.494a9,9,0,0,0,9-9v-23.21l12.262-12.884L167.3,336.466a9,9,0,0,0-9.027,9" transform="translate(-67.006 -142.447)" fill="#f5f5f5"/><path d="M270.234,361.768l-89.377-.413.009-2.747,89.377.413Z" transform="translate(-76.568 -151.822)" fill="#e0e0e0"/><path d="M270.234,377.441l-89.377-.413.009-2.747,89.377.413Z" transform="translate(-76.568 -158.457)" fill="#e0e0e0"/><rect width="2.747" height="35.364" transform="matrix(0.005, -1, 1, 0.005, 158.3, 227.619)" fill="#e0e0e0"/><g transform="matrix(1, 0, 0, 1, 0, 0)" filter="url(#c)"><path d="M91.3,8.027h58.093a5.207,5.207,0,0,1,5.207,5.206V41.648a5.208,5.208,0,0,1-5.207,5.207H100.1a5.207,5.207,0,0,1-5.207-5.207V11.617Z" transform="translate(-38.65 -3.4)" fill="#fff"/></g><path d="M87,51.549V69.768a5.968,5.968,0,0,1-5.968,5.968H15.711a5.968,5.968,0,0,1-5.969-5.968V54.374L1.609,45.829l79.408-.248A5.968,5.968,0,0,1,87,51.549" transform="translate(-0.681 -19.297)" fill="#e0e0e0"/><path d="M32.408,63.184l59.279-.274-.006-1.822L32.4,61.362Z" transform="translate(-13.718 -25.863)" fill="#f5f5f5"/><path d="M32.408,73.579l59.279-.274-.006-1.822L32.4,71.757Z" transform="translate(-13.718 -30.263)" fill="#f5f5f5"/><rect width="23.456" height="1.822" transform="translate(18.682 47.336) rotate(-0.282)" fill="#f5f5f5"/><path d="M301.615,198.06v18.219a5.968,5.968,0,0,1-5.968,5.968H230.321a5.968,5.968,0,0,1-5.969-5.968V200.885l-8.133-8.545,79.409-.249a5.968,5.968,0,0,1,5.987,5.968" transform="translate(-91.539 -81.325)" fill="#e0e0e0"/><path d="M247.018,209.694l59.279-.274-.006-1.822-59.279.274Z" transform="translate(-104.576 -87.89)" fill="#f5f5f5"/><path d="M247.018,220.089l59.279-.274-.006-1.822-59.279.273Z" transform="translate(-104.576 -92.291)" fill="#f5f5f5"/><rect width="23.455" height="1.822" transform="translate(142.434 131.819) rotate(-0.282)" fill="#f5f5f5"/></g><g clip-path="url(#a)"><path d="M260.829,308.09c-9.764-9.508-9.924-24.214-7.384-36.994.424-2.133.558-4.433,1.887-6.149s3.921-2.611,5.693-1.393c1.47,1.01,1.861,2.977,2.5,4.656a12.714,12.714,0,0,0,4.244,5.629c1.25.932,2.869,1.643,4.34,1.12,2.017-.718,2.654-3.239,2.99-5.375q.939-5.972,1.879-11.942a20.169,20.169,0,0,1,1.681-6.232,6.707,6.707,0,0,1,4.892-3.794c2.123-.236,4.441,1.345,4.528,3.5a19.93,19.93,0,0,1-.374,2.667,2.274,2.274,0,0,0,.967,2.327,2.614,2.614,0,0,0,2.5-.6,28.751,28.751,0,0,0,6.352-6.856,39.9,39.9,0,0,1,6.05-7.157,11.692,11.692,0,0,1,8.535-3.105c3.084.328,6.031,2.747,6.312,5.872s-1.973,5.9-4.281,8.022a48.268,48.268,0,0,1-11.464,7.828,3.968,3.968,0,0,0-1.951,1.512c-.7,1.346.42,2.98,1.748,3.677,1.5.79,3.256.908,4.888,1.376s3.313,1.5,3.685,3.173c.517,2.324-1.681,4.311-3.721,5.514a41.356,41.356,0,0,1-13.215,4.993,13.942,13.942,0,0,0-4.844,1.446c-1.446.9-2.524,2.688-2.006,4.316s2.4,2.432,4.1,2.4a28.724,28.724,0,0,0,4.975-1.022c3.114-.626,6.867.2,8.33,3.037a6.84,6.84,0,0,1-.259,6.088,15.76,15.76,0,0,1-4.1,4.743,41.567,41.567,0,0,1-19.533,9.443c-7.188,1.245-13.594.851-19.949-2.728" transform="translate(-106.713 -100.911)" fill="#3a8416"/><path d="M264.269,319.417a94.92,94.92,0,0,1,6.365-17.014,193.711,193.711,0,0,1,10.959-19.34l3.133-4.922c1.032-1.613,2.056-3.213,3.153-4.716a96.673,96.673,0,0,1,6.8-8.275c2.291-2.527,4.557-4.842,6.691-6.991s4.173-4.107,6.1-5.817a76.749,76.749,0,0,1,9.692-7.38c1.208-.779,2.165-1.352,2.819-1.732l.746-.427a1.554,1.554,0,0,1,.261-.133,1.609,1.609,0,0,1-.24.168l-.726.461c-.639.4-1.583,1-2.777,1.794a81.185,81.185,0,0,0-9.589,7.462c-1.912,1.718-3.928,3.686-6.054,5.839s-4.377,4.478-6.655,7.005a97.661,97.661,0,0,0-6.757,8.257c-1.089,1.5-2.1,3.083-3.136,4.7l-3.129,4.92a198.516,198.516,0,0,0-10.965,19.287,96.611,96.611,0,0,0-6.422,16.924" transform="translate(-111.882 -102.737)" fill="#263238"/><path d="M305.363,278.4a4.386,4.386,0,0,1-.059-.945c-.016-.608-.009-1.488.015-2.575.046-2.173.213-5.173.408-8.479s.319-6.3.332-8.47c.01-1.084.009-1.962,0-2.568a4.362,4.362,0,0,1,.032-.946,4.273,4.273,0,0,1,.122.938c.056.605.1,1.485.126,2.572.059,2.176-.02,5.184-.216,8.5-.2,3.262-.383,6.214-.523,8.469-.057,1.019-.1,1.878-.141,2.568a4.33,4.33,0,0,1-.1.942" transform="translate(-129.251 -107.711)" fill="#263238"/><path d="M333.683,294.325a6.049,6.049,0,0,1-1.116-.048c-.714-.053-1.747-.134-3.026-.194-2.557-.14-6.1-.21-10-.116s-7.442.343-9.992.591c-1.277.115-2.307.236-3.02.315a5.979,5.979,0,0,1-1.113.088,5.946,5.946,0,0,1,1.093-.243c.708-.127,1.736-.291,3.012-.443,2.55-.322,6.093-.609,10.013-.71a97.992,97.992,0,0,1,10.03.235c1.281.1,2.313.221,3.024.322a5.874,5.874,0,0,1,1.1.2" transform="translate(-129.3 -124.27)" fill="#263238"/><path d="M270.1,318.1a1.43,1.43,0,0,1-.133-.365l-.307-1.07c-.262-.93-.606-2.285-1.01-3.964-.809-3.359-1.78-8.034-2.782-13.208s-1.93-9.854-2.667-13.225c-.363-1.64-.663-2.988-.885-3.991l-.235-1.088a1.443,1.443,0,0,1-.056-.386,1.453,1.453,0,0,1,.134.366c.082.289.184.641.306,1.069.262.93.607,2.285,1.01,3.964.809,3.359,1.781,8.035,2.783,13.21s1.929,9.852,2.667,13.223c.364,1.639.663,2.988.885,3.99.095.435.172.794.235,1.088a1.465,1.465,0,0,1,.055.386" transform="translate(-110.932 -118.881)" fill="#263238"/><path d="M314.411,335.45a1.5,1.5,0,0,1-.386.09l-1.116.182-4.111.626c-3.471.529-8.256,1.315-13.542,2.191s-10.085,1.619-13.568,2.077c-1.741.229-3.152.4-4.129.5l-1.126.107a1.447,1.447,0,0,1-.4.01,1.5,1.5,0,0,1,.386-.091l1.116-.181,4.11-.626c3.471-.529,8.256-1.315,13.545-2.191s10.083-1.619,13.566-2.076c1.741-.23,3.152-.4,4.13-.5l1.126-.107a1.451,1.451,0,0,1,.4-.01" transform="translate(-116.863 -142.014)" fill="#263238"/><path d="M97.36,125.34a6.418,6.418,0,0,1-2.207-6.055,8.524,8.524,0,0,1,3.669-5.469,3.589,3.589,0,0,1,2.926-.763,2.747,2.747,0,0,1,1.777,2.142,5.57,5.57,0,0,1-.334,2.871c-1.094,3.16-2.733,6.017-5.831,7.275" transform="translate(-40.246 -47.824)" fill="#455a64"/><path d="M82.231,140.972A15.015,15.015,0,0,0,68.961,137.5c-1.18.273-2.508.9-2.7,2.091s.875,2.213,1.924,2.821a12.827,12.827,0,0,0,14.187-1.142" transform="translate(-28.042 -58.058)" fill="#455a64"/><path d="M63.735,100.29a7.524,7.524,0,0,1,5.806,1,13.284,13.284,0,0,1,4.152,4.338c2.09,3.3,2.826,7.737,2.918,11.643-4.335-.175-8.04-3.583-9.811-5.43-2.8-2.919-6.085-9.893-3.065-11.551" transform="translate(-26.474 -42.366)" fill="#455a64"/><path d="M102.573,140.393a15.582,15.582,0,0,1-1.082-1.634,27.571,27.571,0,0,1-2.442-6.961,13.815,13.815,0,0,1,.541-7.343,9.049,9.049,0,0,1,1.049-1.99,2.522,2.522,0,0,1,.536-.626,19.087,19.087,0,0,0-1.293,2.721,14.491,14.491,0,0,0-.4,7.16,31.917,31.917,0,0,0,2.293,6.909" transform="translate(-41.827 -51.582)" fill="#263238"/><path d="M90.325,135.127l-2.258-2.911c-1.9-2.463-4.533-5.859-7.491-9.572s-5.679-7.034-7.656-9.436l-2.334-2.851a7.959,7.959,0,0,1-.816-1.08,8.067,8.067,0,0,1,.945.969c.588.642,1.423,1.586,2.441,2.762,2.039,2.353,4.8,5.649,7.762,9.363s5.558,7.146,7.4,9.658c.919,1.256,1.653,2.28,2.147,3" transform="translate(-29.538 -46.264)" fill="#263238"/><path d="M75.655,141.8a2.713,2.713,0,0,1,.752-.23,6.3,6.3,0,0,1,.906-.173,10.59,10.59,0,0,1,1.217-.13,15.8,15.8,0,0,1,3.185.121,16.879,16.879,0,0,1,7.233,2.814,15.8,15.8,0,0,1,2.43,2.063,10.55,10.55,0,0,1,.808.918,6.3,6.3,0,0,1,.551.74c.281.421.241.618.216.635a25.21,25.21,0,0,0-1.794-2.074,17.579,17.579,0,0,0-2.437-1.948,17.836,17.836,0,0,0-7.067-2.749,17.616,17.616,0,0,0-3.112-.21c-1.782.044-2.871.309-2.888.224" transform="translate(-32.029 -59.791)" fill="#263238"/></g><g clip-path="url(#a)"><path d="M183.911,253.253l-66.6-.308a14.508,14.508,0,0,1-14.442-14.569L103.574,71.4a14.509,14.509,0,0,1,14.575-14.446l66.6.308a14.509,14.509,0,0,1,14.441,14.569l-.706,166.972a14.508,14.508,0,0,1-14.574,14.446" transform="translate(-43.55 -24.113)" fill="#263238"/><path d="M187.9,67.259,174.99,67.2a3.208,3.208,0,0,0-3.149,3.263l-.01,2.342a3.207,3.207,0,0,1-3.149,3.264l-25.17-.116a3.211,3.211,0,0,1-3.122-3.293l.01-2.342a3.211,3.211,0,0,0-3.122-3.292L132.736,67l-11.3-.052A10.16,10.16,0,0,0,111.227,77.07l-.689,162.977a10.16,10.16,0,0,0,10.114,10.2l66.469.307a10.161,10.161,0,0,0,10.207-10.117l.689-162.978a10.161,10.161,0,0,0-10.114-10.2" transform="translate(-46.798 -28.345)" fill="#fafafa"/><path d="M177.454,357.43a1.387,1.387,0,1,1-1.367-1.184,1.286,1.286,0,0,1,1.367,1.184" transform="translate(-73.966 -150.821)" fill="#455a64"/><path d="M184.824,357.464a1.387,1.387,0,1,1-1.367-1.185,1.285,1.285,0,0,1,1.367,1.185" transform="translate(-77.087 -150.835)" fill="#455a64"/><path d="M192.193,357.5a1.387,1.387,0,1,1-1.367-1.185,1.285,1.285,0,0,1,1.367,1.185" transform="translate(-80.206 -150.849)" fill="#455a64"/><path d="M146.186,203.737c1.082.155,66.419,12.969,66.419,12.969V203.737Z" transform="translate(-61.89 -86.255)" fill="#ebebeb"/><path d="M110.538,339.372s71.074-10.055,70.455-9.746-70.455,0-70.455,0Z" transform="translate(-46.798 -139.548)" fill="#ebebeb"/><path d="M253.567,16.542c.083,0,.15,3.594.15,8.026s-.067,8.026-.15,8.026-.15-3.593-.15-8.026.067-8.026.15-8.026" transform="translate(-107.287 -7.003)" fill="#263238"/><path d="M292.217,48.571c.033.076-3.227,1.588-7.281,3.377s-7.369,3.179-7.4,3.1,3.226-1.588,7.282-3.378,7.369-3.179,7.4-3.1" transform="translate(-117.497 -20.562)" fill="#263238"/><path d="M288.208,0a1.479,1.479,0,0,1-.155.307l-.493.851c-.431.737-1.075,1.79-1.881,3.087-1.615,2.59-3.938,6.111-6.57,9.951s-4.982,7.338-6.641,9.9l-1.961,3.034-.541.821a1.511,1.511,0,0,1-.206.276,1.464,1.464,0,0,1,.155-.307l.493-.851c.43-.737,1.075-1.79,1.88-3.086,1.615-2.591,3.939-6.112,6.572-9.953s4.98-7.337,6.639-9.9L287.461,1.1,288,.275A1.488,1.488,0,0,1,288.208,0" transform="translate(-114.207 0)" fill="#263238"/></g><g clip-path="url(#a)"><path d="M271.717,117.729h-130a5.084,5.084,0,0,0-5.084,5.084v40.325a5.084,5.084,0,0,0,5.084,5.084H151.4c.78,4.211,1.692,9.524,1.692,9.524l8.766-9.524H271.717a5.085,5.085,0,0,0,5.084-5.084V122.813a5.084,5.084,0,0,0-5.084-5.084" transform="translate(-57.846 -49.842)" fill="#529d2e"/><path d="M227.138,155.552c0,.083-15.472.15-34.554.15s-34.558-.067-34.558-.15,15.469-.15,34.558-.15,34.554.067,34.554.15" transform="translate(-66.902 -65.791)" fill="#f5f5f5"/><path d="M227.138,144.8c0,.083-15.472.15-34.554.15s-34.558-.067-34.558-.15,15.469-.15,34.558-.15,34.554.067,34.554.15" transform="translate(-66.902 -61.241)" fill="#f5f5f5"/><path d="M227.138,166.183c0,.084-15.472.15-34.554.15s-34.558-.066-34.558-.15,15.469-.15,34.558-.15,34.554.067,34.554.15" transform="translate(-66.902 -70.292)" fill="#f5f5f5"/><path d="M203.3,177.2c0,.083-10.135.15-22.634.15s-22.636-.067-22.636-.15,10.133-.15,22.636-.15,22.634.067,22.634.15" transform="translate(-66.903 -74.955)" fill="#f5f5f5"/><path d="M170.193,243.453H39.127a3.557,3.557,0,0,0-3.557,3.557v42.663a3.557,3.557,0,0,0,3.557,3.557h95.191l8.665,9.415s.909-5.292,1.675-9.415h25.536a3.557,3.557,0,0,0,3.557-3.557V247.01a3.557,3.557,0,0,0-3.557-3.557" transform="translate(-15.059 -103.069)" fill="#455a64"/><path d="M209.375,281.495c0,.083-15.472.15-34.554.15s-34.558-.067-34.558-.15,15.469-.15,34.558-.15,34.554.067,34.554.15" transform="translate(-59.382 -119.111)" fill="#f5f5f5"/><path d="M209.375,270.746c0,.083-15.472.15-34.554.15s-34.558-.067-34.558-.15,15.469-.15,34.558-.15,34.554.067,34.554.15" transform="translate(-59.382 -114.56)" fill="#f5f5f5"/><path d="M209.375,292.126c0,.083-15.472.15-34.554.15s-34.558-.067-34.558-.15,15.469-.15,34.558-.15,34.554.067,34.554.15" transform="translate(-59.382 -123.612)" fill="#f5f5f5"/><path d="M185.532,303.139c0,.083-10.135.15-22.634.15s-22.636-.067-22.636-.15,10.133-.15,22.636-.15,22.634.067,22.634.15" transform="translate(-59.382 -128.274)" fill="#f5f5f5"/></g><g clip-path="url(#a)"><path d="M312.114,74.9a5.212,5.212,0,0,0-1.744-3.362,3.45,3.45,0,0,1-.962-3.674c.353-1.309,1.183-1.212,1.511-1.981a5.825,5.825,0,0,0,.191-1.837,3.828,3.828,0,0,1,4.565-3.252,5.3,5.3,0,0,1,9.78-1.018,4.079,4.079,0,0,1,5.949,3.31,2.969,2.969,0,0,1,3.861.583,3.659,3.659,0,0,1,.278,4.032,4.8,4.8,0,0,1-3.466,2.282,7.043,7.043,0,0,1-4.161-.756,13.473,13.473,0,0,1-3.414-2.579" transform="translate(-130.922 -24.113)" fill="#263238"/><path d="M337.207,142.808c0,13.463-11.176,24.377-24.963,24.377s-24.963-10.914-24.963-24.377,11.176-24.378,24.963-24.378,24.963,10.915,24.963,24.378" transform="translate(-121.625 -50.139)" fill="#e0e0e0"/><path d="M364.739,155.539l-2.763-7.085-9.9,6.222,8.824,13.606s3.589-4.662,3.842-12.743" transform="translate(-149.055 -62.85)" fill="#eb996e"/><path d="M321.738,106.56h0a6.642,6.642,0,0,0,6.671-6.281c.146-2.934.269-5.759.269-5.759s5.448-.395,5.95-5.72.571-17.641.571-17.641a18.9,18.9,0,0,0-18.975.824l-.518.333-.629,27.56a6.643,6.643,0,0,0,6.662,6.685" transform="translate(-133.391 -29.21)" fill="#ffbe9d"/><path d="M331.293,86.924a.776.776,0,0,1,.5.982.785.785,0,0,1-.99.492.776.776,0,0,1-.5-.982.785.785,0,0,1,.991-.492" transform="translate(-139.821 -36.784)" fill="#263238"/><path d="M332.639,86.814c-.09.088-.594-.348-1.336-.395s-1.3.3-1.38.2c-.037-.044.057-.206.3-.37a1.846,1.846,0,0,1,2.168.155c.22.2.289.37.246.408" transform="translate(-139.674 -36.397)" fill="#263238"/><path d="M345.392,86.924a.775.775,0,0,1,.5.982.785.785,0,0,1-.99.492.776.776,0,0,1-.5-.982.786.786,0,0,1,.991-.492" transform="translate(-145.79 -36.784)" fill="#263238"/><path d="M346.91,86.842c-.09.088-.595-.348-1.336-.395s-1.3.3-1.38.2c-.038-.044.056-.206.3-.37a1.846,1.846,0,0,1,2.168.155c.22.2.289.37.246.408" transform="translate(-145.716 -36.409)" fill="#263238"/><path d="M339.207,92.735a3.635,3.635,0,0,1,1.218-.155c.2-.005.351-.036.374-.138a1.039,1.039,0,0,0-.093-.561l-.464-1.539a20.372,20.372,0,0,1-.947-4.024,20.363,20.363,0,0,1,1.354,3.908c.149.535.291,1.044.432,1.548a1.22,1.22,0,0,1,.04.807.508.508,0,0,1-.359.28,1.249,1.249,0,0,1-.334.016,3.635,3.635,0,0,1-1.22-.141" transform="translate(-143.608 -36.543)" fill="#263238"/><path d="M333.66,111.262a12.626,12.626,0,0,1-6.85-2.541s1.344,3.97,6.75,3.923Z" transform="translate(-138.359 -46.028)" fill="#eb996e"/><path d="M313.269,87.71a.809.809,0,0,0-.761-.823c-1-.047-2.656.316-2.864,3.061-.3,3.922,3.532,3.016,3.548,2.9.012-.088.058-3.617.077-5.143" transform="translate(-131.085 -36.783)" fill="#ffbe9d"/><path d="M313.127,92.211c-.017-.014-.073.043-.193.087a.7.7,0,0,1-.516-.028,1.689,1.689,0,0,1-.674-1.575,2.246,2.246,0,0,1,.267-.964.8.8,0,0,1,.558-.486.353.353,0,0,1,.393.218c.044.114.014.19.034.2s.09-.059.07-.223a.439.439,0,0,0-.137-.258.523.523,0,0,0-.374-.128.969.969,0,0,0-.766.554,2.311,2.311,0,0,0-.321,1.075,1.775,1.775,0,0,0,.877,1.769.746.746,0,0,0,.638-.057c.13-.088.157-.174.144-.182" transform="translate(-131.863 -37.701)" fill="#eb996e"/><path d="M328.524,83.026c.2.251.878.134,1.763.1.884-.072,1.576-.037,1.737-.311.183-.285-.672-.939-1.812-.845-1.143.046-1.906.8-1.688,1.059" transform="translate(-139.069 -34.698)" fill="#263238"/><path d="M343.517,82.739c.107.343.757.445,1.477.441s1.368-.134,1.466-.479-.553-.817-1.482-.8-1.571.51-1.462.842" transform="translate(-145.427 -34.672)" fill="#263238"/><path d="M335.927,72.115a8.852,8.852,0,0,1-7.437-.535c-2.76-1.378-5.977-2.051-6.686-1.5s-.859,3.4-3.593,4.228c0,0,.188,5.426-1.976,5.232s-.811-8.6-.811-8.6l5.292-2.584,5.775-1.091,5.441.767,4.21,1.153Z" transform="translate(-133.363 -28.481)" fill="#263238"/><path d="M288.48,126.3c5.655-5.815,15.608-5.181,15.608-5.181l8.25,5.907,4.679-5.447a30.343,30.343,0,0,1,9.524,2.947l.317.1,0,.066c3.619,1.965,8.744,6.679,13.625,11.252l-5.842,5.422-6.466,5.74a.169.169,0,0,1,.011.115c-.067.348.9,8.243,1.888,14.244a24.347,24.347,0,0,1-21.728,6.564,64.963,64.963,0,0,1-6.374-1.751,8.871,8.871,0,0,1-6.569-7.817c-.441-5.029-.776-11.256-.776-11.256" transform="translate(-122.132 -51.267)" fill="#455a64"/><path d="M346.938,123.686a6.266,6.266,0,0,1,.355.928c.212.6.5,1.483.84,2.574.681,2.181,1.548,5.219,2.368,8.61s1.433,6.491,1.823,8.744c.195,1.126.34,2.039.427,2.672a6.366,6.366,0,0,1,.107.988,6.242,6.242,0,0,1-.223-.968c-.133-.676-.309-1.57-.521-2.653-.443-2.239-1.089-5.326-1.906-8.712s-1.651-6.425-2.28-8.62l-.747-2.6a6.29,6.29,0,0,1-.244-.963" transform="translate(-146.88 -52.364)" fill="#263238"/><path d="M356.152,153.033c-.052-.064,2.414-2.161,5.509-4.682s5.647-4.514,5.7-4.45-2.414,2.161-5.51,4.682-5.646,4.513-5.7,4.449" transform="translate(-150.781 -60.922)" fill="#263238"/><g transform="translate(168.751 83.011)" opacity="0.2"><g clip-path="url(#i)"><path d="M297.709,143.957l-5.062,16.65,1.884.98,1.857-4.709s1.908-9.892,1.321-12.921" transform="translate(-292.647 -143.957)"/></g></g><g transform="translate(192.312 70.221)" opacity="0.2"><g clip-path="url(#j)"><path d="M340.7,122.887c2.728,1.439-4.11,4.9-7.2,4.806l2.243-5.917a31.129,31.129,0,0,1,4.955,1.111" transform="translate(-333.507 -121.777)"/></g></g><path d="M314.137,118.54v-4.409s8.612,2.216,8.924,7.369c0,0,1.1-5.7,5.532-5.969l.627,8.011-5.163,4.493h-5.233l-4.145-3.576-.541-5.563" transform="translate(-132.994 -48.319)" fill="#455a64"/><path d="M331.511,152.2a5.76,5.76,0,0,1-.015-.949c.013-.609.024-1.491.027-2.579.008-2.177-.061-5.186-.333-8.5s-.706-6.289-1.073-8.436l-.452-2.54a5.793,5.793,0,0,1-.142-.938,5.689,5.689,0,0,1,.256.913c.149.592.337,1.455.547,2.526a79.056,79.056,0,0,1,1.41,16.972c-.031,1.091-.074,1.973-.123,2.582a5.69,5.69,0,0,1-.1.943" transform="translate(-139.506 -54.3)" fill="#263238"/><path d="M322.432,122.641a1.041,1.041,0,0,0-.511.047c-.329.107-.623.516-.864,1.1a24.937,24.937,0,0,0-1.638,4.764l-.046.2-.174-.1c-.515-.311-1.043-.648-1.574-1.007a31.462,31.462,0,0,1-2.793-2.121,3.518,3.518,0,0,1-.95-1.245,3.912,3.912,0,0,1-.291-1.33,7.7,7.7,0,0,1,.191-1.928,2.852,2.852,0,0,1,.189-.682,3.573,3.573,0,0,1-.073.7,9.075,9.075,0,0,0-.095,1.895,3.814,3.814,0,0,0,.306,1.242,3.312,3.312,0,0,0,.906,1.138c.814.681,1.76,1.389,2.778,2.081.526.358,1.049.693,1.558,1l-.219.092a21.754,21.754,0,0,1,1.753-4.78,3.623,3.623,0,0,1,.453-.742,1.152,1.152,0,0,1,.55-.372c.366-.1.558.045.544.05" transform="translate(-132.761 -50.944)" fill="#263238"/><path d="M335.629,116.558a3.159,3.159,0,0,1,.081.689c.037.506.083,1.133.138,1.876.065.791.16,1.73.322,2.764a4.61,4.61,0,0,1,.1,1.692,2.908,2.908,0,0,1-1.133,1.447,12.725,12.725,0,0,0-1.9,1.439l-.229.257-.023-.343a10.315,10.315,0,0,0-1.272-4.294c-.547-.982-1-1.487-.963-1.516a1.65,1.65,0,0,1,.34.34,8.416,8.416,0,0,1,.781,1.084,9.84,9.84,0,0,1,1.4,4.366l-.252-.086a12.108,12.108,0,0,1,1.93-1.487,2.668,2.668,0,0,0,1.029-1.281,4.558,4.558,0,0,0-.092-1.579c-.148-1.045-.223-1.995-.26-2.791s-.044-1.441-.043-1.886a3.037,3.037,0,0,1,.036-.693" transform="translate(-140.03 -49.346)" fill="#263238"/><path d="M377.711,118.477c-.35.412-13.028,17.365-13.028,17.365l1.785,1.011,13.01-16.737Z" transform="translate(-154.393 -50.159)" fill="#263238"/><path d="M293.973,137.75s13.337,19.2,14.141,19.576c1.583.743,19.829-15.025,21.569-16.534.24-.32.735-1,1.707-2.341,0,0,1.439-6.588,2.975-6.081s-.841,3.347.159,5.85,5.582-3.467,5.766-4l1.182-1.544s1.239,3.513,1.156,4.98c-.269,4.7-4.716,10.289-4.716,10.289s-19.968,24.737-33.647,25.5c-3.94.221-10.941-10.957-15.621-19.339a11.47,11.47,0,0,1,3.268-14.855Z" transform="translate(-121.586 -56.029)" fill="#ffbe9d"/><path d="M379.433,140.451c-.044-.027.383-.782.855-1.739s.816-1.753.864-1.735a10.828,10.828,0,0,1-1.719,3.474" transform="translate(-160.636 -57.991)" fill="#eb996e"/><path d="M289.451,125.472s-14.316,5.089-3.672,29.163l16.526-9.974-2.351-5.629Z" transform="translate(-119.322 -53.12)" fill="#455a64"/><path d="M291.244,126.178a4.97,4.97,0,0,1,1.724.145,7.008,7.008,0,0,1,1.878.793,10.162,10.162,0,0,1,2.086,1.711,25.019,25.019,0,0,1,3.888,5.81c1.211,2.341,2.341,5.006,3.5,7.808.347.839.69,1.666,1.013,2.45l.052.124-.118.064c-4.781,2.606-8.945,5.047-11.887,6.874-1.473.912-2.646,1.661-3.45,2.181l-.928.6a1.977,1.977,0,0,1-.332.192,2.013,2.013,0,0,1,.3-.239c.2-.148.5-.367.9-.639.787-.549,1.944-1.325,3.4-2.26,2.918-1.873,7.069-4.349,11.851-6.966l-.066.188-1.015-2.449c-1.158-2.8-2.278-5.462-3.468-7.8a25.467,25.467,0,0,0-3.8-5.79,10.212,10.212,0,0,0-2.019-1.714,7.157,7.157,0,0,0-1.819-.823,10.494,10.494,0,0,0-1.694-.258" transform="translate(-122.212 -53.41)" fill="#263238"/><path d="M338.045,64.3a.841.841,0,0,1,.071.251,3.262,3.262,0,0,1,.042.747,3.822,3.822,0,0,1-4.945,3.469,3.4,3.4,0,0,1-1.973-1.43,2.013,2.013,0,0,1-.3-1.3,1.684,1.684,0,0,1,.708-1.19,1.461,1.461,0,0,1,1.385-.089,1.758,1.758,0,0,1,.946.951,2.524,2.524,0,0,1-.378,2.4,3.006,3.006,0,0,1-3.782.822,6.452,6.452,0,0,0-1.424-.546,1.786,1.786,0,0,0-1.1.116,5.97,5.97,0,0,0-.82.54c-.008-.007.05-.075.168-.2a1.431,1.431,0,0,1,.235-.212,1.744,1.744,0,0,1,.367-.235,1.869,1.869,0,0,1,1.18-.176,6.272,6.272,0,0,1,1.481.517,4.229,4.229,0,0,0,.832.275,2.632,2.632,0,0,0,.929-.017,2.72,2.72,0,0,0,1.713-1.049,2.255,2.255,0,0,0,.33-2.12,1.36,1.36,0,0,0-1.894-.724,1.393,1.393,0,0,0-.577.979,1.725,1.725,0,0,0,.252,1.112,3.146,3.146,0,0,0,1.8,1.315,3.689,3.689,0,0,0,3.624-.857,3.918,3.918,0,0,0,1.126-2.357,7.881,7.881,0,0,0,0-.989" transform="translate(-138.218 -27.222)" fill="#455a64"/><path d="M339.057,100.964c.006.036-.177.112-.495.126a2.566,2.566,0,0,1-2.13-1.073c-.178-.263-.225-.456-.193-.472a3.951,3.951,0,0,0,2.817,1.42" transform="translate(-142.347 -42.142)" fill="#263238"/><path d="M313.526,96.869c.027-.025.189.254-.021.65a.963.963,0,0,1-.588.467,1,1,0,0,1-.895-.235,1.076,1.076,0,0,1-.379-.837,1.155,1.155,0,0,1,.264-.69c.277-.326.558-.356.563-.323.021.043-.2.145-.391.447a.9.9,0,0,0,.141,1.177.758.758,0,0,0,.635.192.811.811,0,0,0,.472-.311c.209-.28.153-.531.2-.537" transform="translate(-131.937 -40.596)" fill="#263238"/><path d="M345.237,67.667a1.9,1.9,0,0,1,.277,1.059,3.522,3.522,0,0,1-3.206,3.7,1.9,1.9,0,0,1-1.088-.125c.007-.051.419.024,1.059-.086a3.561,3.561,0,0,0,3.022-3.485c.018-.649-.115-1.047-.065-1.061" transform="translate(-144.46 -28.647)" fill="#455a64"/><path d="M301.8,151.334c.037.074-3.765,2.029-8.492,4.366s-8.589,4.171-8.626,4.1,3.765-2.029,8.493-4.367,8.588-4.171,8.625-4.1" transform="translate(-120.524 -64.068)" fill="#e0e0e0"/><path d="M297.153,139.993c.039.073-3.346,1.966-7.559,4.227s-7.662,4.036-7.7,3.963,3.345-1.966,7.56-4.228,7.662-4.036,7.7-3.963" transform="translate(-119.343 -59.267)" fill="#e0e0e0"/><path d="M293.974,130.821a13.6,13.6,0,0,1-1.693,1l-4.14,2.309-4.118,2.349a13.532,13.532,0,0,1-1.733.931,11.992,11.992,0,0,1,1.624-1.112c1.027-.65,2.465-1.517,4.081-2.428s3.1-1.693,4.188-2.236a11.958,11.958,0,0,1,1.792-.814" transform="translate(-119.51 -55.384)" fill="#e0e0e0"/><path d="M320.124,125.131a2.716,2.716,0,0,1-1.113-.3,8.548,8.548,0,0,1-2.332-1.518,15.992,15.992,0,0,1-1.881-2.037,4.153,4.153,0,0,1-.65-.945,4.567,4.567,0,0,1,.812.807,27.292,27.292,0,0,0,1.918,1.95,10.671,10.671,0,0,0,2.222,1.549c.619.317,1.037.447,1.024.492" transform="translate(-132.997 -50.943)" fill="#e0e0e0"/><path d="M336.821,123.237a4.016,4.016,0,0,1-3.105,2.614,20.453,20.453,0,0,0,1.714-1.116,20.355,20.355,0,0,0,1.391-1.5" transform="translate(-141.283 -52.173)" fill="#e0e0e0"/><path d="M341.6,138.281a1.339,1.339,0,0,1-.321.06l-.928.114c-.806.089-1.975.2-3.422.314-2.892.231-6.894.457-11.317.618s-8.433.215-11.334.191c-1.451-.009-2.625-.037-3.436-.069l-.933-.048a1.35,1.35,0,0,1-.325-.037,1.324,1.324,0,0,1,.326-.024l.934-.009,3.433-.026c2.9-.031,6.9-.124,11.324-.279s8.42-.353,11.313-.529l3.426-.219.932-.058a1.354,1.354,0,0,1,.327,0" transform="translate(-131.066 -58.54)" fill="#e0e0e0"/><path d="M339.343,150.138a5.846,5.846,0,0,1-.947.149c-.612.076-1.5.172-2.6.27-2.2.2-5.238.412-8.6.548s-6.412.172-8.618.147c-1.1-.009-2-.033-2.612-.06a5.859,5.859,0,0,1-.957-.073,5.905,5.905,0,0,1,.958-.044l2.61-.035c2.2-.03,5.246-.1,8.606-.235s6.4-.312,8.6-.46l2.6-.175a5.809,5.809,0,0,1,.958-.033" transform="translate(-133.364 -63.559)" fill="#e0e0e0"/><path d="M329.639,164.757a11.474,11.474,0,0,1-1.911.269c-1.186.122-2.826.254-4.642.344s-3.462.122-4.653.119a11.43,11.43,0,0,1-1.928-.079,13.219,13.219,0,0,1,1.924-.134l4.643-.206,4.64-.256a13.1,13.1,0,0,1,1.928-.058" transform="translate(-133.996 -69.744)" fill="#e0e0e0"/><path d="M310.568,129.963c0,.087-1.771.1-3.948.2s-3.942.214-3.951.129a29.432,29.432,0,0,1,7.9-.325" transform="translate(-128.139 -54.963)" fill="#e0e0e0"/><path d="M351.029,129.4a87.454,87.454,0,0,1-10.247-.039,87.461,87.461,0,0,1,10.247.039" transform="translate(-144.275 -54.71)" fill="#e0e0e0"/><path d="M349.194,190.371a2.349,2.349,0,0,1-.525.3c-.346.179-.858.415-1.5.683a32.795,32.795,0,0,1-10.563,2.435c-.695.039-1.258.052-1.647.042a2.359,2.359,0,0,1-.6-.041c0-.048.857-.081,2.236-.213a40.49,40.49,0,0,0,10.5-2.42c1.3-.485,2.083-.832,2.1-.788" transform="translate(-141.553 -80.595)" fill="#e0e0e0"/></g><g clip-path="url(#a)"><path d="M46.673,267.7c0,13.151,11.176,23.813,24.963,23.813S96.6,280.855,96.6,267.7s-11.176-23.813-24.963-23.813S46.673,254.552,46.673,267.7" transform="translate(-19.76 -103.254)" fill="#e0e0e0"/><path d="M72.8,185.619c-3.96.206-5.515,4.335-5.989,5.256a8,8,0,0,0-.634,3.021,6.567,6.567,0,0,1-.76,2.982c-.872,1.391-2.7,2.11-3.2,3.674-.564,1.768.885,3.661.5,5.476-.207.975-.919,1.777-1.17,2.741a4.035,4.035,0,0,0,.535,2.994c1.3,2.234,4,3.356,6.58,3.448a23.156,23.156,0,0,0,7.58-1.445" transform="translate(-26.014 -78.584)" fill="#263238"/><path d="M108.74,194.517a2.467,2.467,0,0,0,.586,2.552,15.9,15.9,0,0,0,2.143,1.747,3.5,3.5,0,0,1,1.464,2.263c.077.845-.348,1.683-.232,2.522.3,2.159,3.738,2.806,3.922,4.978.122,1.446-1.361,2.774-.95,4.165a6.615,6.615,0,0,0,.857,1.423,4.233,4.233,0,0,1-1.1,5.117,8.416,8.416,0,0,1-5.275,1.786c-1.591.072-3.4-.189-4.335-1.476-.857-1.179-.682-2.785-.51-4.233a148.013,148.013,0,0,0,.526-20.389" transform="translate(-44.524 -82.351)" fill="#263238"/><path d="M78.753,224.212c.03-3.55,0-7.288,0-7.288s-4.565-.812-5.443-6.79c-.837-5.7.584-17.962.584-17.962,6.613-2.609,14.058-1.6,18.691,3.723l-.72,28.83a6.185,6.185,0,0,1-6.611,5.823,6.535,6.535,0,0,1-6.5-6.336" transform="translate(-30.924 -80.774)" fill="#ffbe9d"/><path d="M76.667,209.01a.765.765,0,0,0,.729.781.732.732,0,0,0,.8-.681.766.766,0,0,0-.728-.781.733.733,0,0,0-.8.682" transform="translate(-32.458 -88.198)" fill="#263238"/><path d="M74.525,207.907c.094.1.678-.321,1.5-.309,1.549.224,1.521.461,1.513.33.044-.044-.05-.224-.311-.419a2.093,2.093,0,0,0-1.209-.389,2.019,2.019,0,0,0-1.2.371c-.255.191-.343.371-.3.416" transform="translate(-31.546 -87.687)" fill="#263238"/><path d="M91.283,209.432a.765.765,0,0,0,.729.781.732.732,0,0,0,.8-.681.765.765,0,0,0-.728-.781.732.732,0,0,0-.8.681" transform="translate(-38.646 -88.377)" fill="#263238"/><path d="M89.419,208.4c.094.1.679-.321,1.5-.31s1.422.431,1.513.33c.044-.044-.05-.225-.311-.42a2.1,2.1,0,0,0-1.209-.388,2.018,2.018,0,0,0-1.2.371c-.254.191-.343.371-.3.416" transform="translate(-37.852 -87.896)" fill="#263238"/><path d="M82.588,214.189a5.436,5.436,0,0,0-1.335-.257c-.21-.024-.408-.069-.442-.212a1.072,1.072,0,0,1,.148-.622L81.6,211.5a27.558,27.558,0,0,0,1.445-4.172,27.6,27.6,0,0,0-1.778,4.046q-.321.84-.614,1.6a1.216,1.216,0,0,0-.119.824.527.527,0,0,0,.343.311,1.432,1.432,0,0,0,.356.054,5.372,5.372,0,0,0,1.356.017" transform="translate(-34.079 -87.777)" fill="#263238"/><path d="M82.941,234.613a15.184,15.184,0,0,0,8.016-2.039s-1.987,4.076-7.952,3.449Z" transform="translate(-35.114 -98.463)" fill="#eb996e"/><path d="M84.625,222.27a1.484,1.484,0,0,1,1.337-.536,1.355,1.355,0,0,1,.93.513.857.857,0,0,1,.054.982.994.994,0,0,1-1.082.261,3.119,3.119,0,0,1-1.045-.64.932.932,0,0,1-.232-.246.275.275,0,0,1,.005-.307" transform="translate(-35.791 -93.87)" fill="#eb996e"/><path d="M86.369,220.259c-.134-.009-.146.885-.918,1.51s-1.723.516-1.731.641c-.013.056.21.176.612.192a2.226,2.226,0,0,0,1.444-.485,1.938,1.938,0,0,0,.713-1.267c.039-.373-.059-.6-.12-.591" transform="translate(-35.444 -93.249)" fill="#263238"/><path d="M89.942,189.091c-2.183,3.114-7.963,6.315-12.1,7.059.483-.636,3.026-2.2,3.509-2.84-1.876,1.4-4.561,3.275-7.05,3.4a1.508,1.508,0,0,1-.856-.134,1.152,1.152,0,0,1-.435-.937,24.869,24.869,0,0,1,.172-5.407,5.985,5.985,0,0,1,2.153-3.858c1.595-1.232,3.877-1.536,6.028-1.587a13.641,13.641,0,0,1,5.311.714,4.98,4.98,0,0,1,3.3,3.483" transform="translate(-30.875 -78.229)" fill="#263238"/><path d="M104.968,203.547a33.885,33.885,0,0,0,.6-3.989c.176-3.079-.713-14.444-11.33-13.53l-.428,3.234s-1.641,11.068,5.227,11.149a12.349,12.349,0,0,0,3.49,6.506s1.8-.055,2.446-3.37" transform="translate(-39.641 -78.736)" fill="#263238"/><path d="M102.779,210.961a3.561,3.561,0,0,1,1.919.145,2.484,2.484,0,0,1,1.391,1.292,2.6,2.6,0,0,1-.006,1.908,4.389,4.389,0,0,1-1.105,1.592,2.973,2.973,0,0,1-1.167.755,1.423,1.423,0,0,1-1.327-.221" transform="translate(-43.388 -89.285)" fill="#ffbe9d"/><path d="M103.52,215.489c-.073.023.2.412.785.262a1.256,1.256,0,0,0,.728-.621,2.834,2.834,0,0,0,.33-1.055,1.67,1.67,0,0,0-.257-1.127,1.109,1.109,0,0,0-.833-.5c-.6-.02-.791.393-.723.406.048.05.283-.162.675-.063a1.077,1.077,0,0,1,.651,1.24c-.079.656-.338,1.254-.69,1.4-.366.181-.626.011-.667.063" transform="translate(-43.822 -89.94)" fill="#eb996e"/><path d="M104.335,186.795a3.619,3.619,0,0,0,4.9-1.288,2.315,2.315,0,0,0,.336-1.732,2.383,2.383,0,0,0-1.783-1.546,3.644,3.644,0,0,0-3.348.8,3.2,3.2,0,0,0-.864,3.286,2.851,2.851,0,0,0,2.754,1.9" transform="translate(-43.785 -77.1)" fill="#263238"/><path d="M104.117,220.082a8.407,8.407,0,0,0-1.65,1.423,2.842,2.842,0,0,0-.712,2.008,5.2,5.2,0,0,1,.134,1.21,4.043,4.043,0,0,1-.837,1.439,3.419,3.419,0,0,0,.539,4.007,5.548,5.548,0,0,0,3.923,1.594,3.358,3.358,0,0,0,3.812-3.782" transform="translate(-42.6 -93.175)" fill="#263238"/><path d="M103.262,194.362a3.924,3.924,0,0,1-.626,1.088,12.6,12.6,0,0,1-4.565,3.924,3.953,3.953,0,0,1-1.17.455,27.269,27.269,0,0,0,3.495-2.368,27.33,27.33,0,0,0,2.866-3.1" transform="translate(-41.024 -82.285)" fill="#455a64"/><path d="M106.167,194.261a4.729,4.729,0,0,1-.2,1.455,11.741,11.741,0,0,1-3.616,6.01,4.735,4.735,0,0,1-1.194.855,14.822,14.822,0,0,0,5.005-8.319" transform="translate(-42.827 -82.243)" fill="#455a64"/><path d="M69.835,202.595c.088-.006.2.993.547,2.172s.773,2.088.7,2.13a6.826,6.826,0,0,1-1.242-4.3" transform="translate(-29.546 -85.771)" fill="#455a64"/><path d="M112.232,223.911a1.668,1.668,0,0,0,.878.282,1.793,1.793,0,0,0,1.015-.32,2.05,2.05,0,0,0,.77-1.165,3.758,3.758,0,0,0,.011-1.738c-.125-.626-.367-1.273-.581-1.978a5.211,5.211,0,0,1-.256-2.324,13.042,13.042,0,0,1,.947-2.289,3,3,0,0,0-1.751-3.72c-.33-.141-.672-.26-.989-.432a2.012,2.012,0,0,1-.789-.708,3.321,3.321,0,0,1-.357-1.814,6.2,6.2,0,0,0-.059-1.466,2.4,2.4,0,0,0-.432-.993,1.43,1.43,0,0,0-.778-.481.526.526,0,0,1,.251.02,1.2,1.2,0,0,1,.615.386,2.432,2.432,0,0,1,.507,1.031,6.08,6.08,0,0,1,.108,1.5,3.157,3.157,0,0,0,.355,1.68,3.207,3.207,0,0,0,1.676,1.019,3.269,3.269,0,0,1,1.928,4.074,13.777,13.777,0,0,0-.941,2.24,5,5,0,0,0,.232,2.2c.2.694.441,1.356.56,2.009a3.925,3.925,0,0,1-.051,1.844,2.2,2.2,0,0,1-.881,1.246,1.875,1.875,0,0,1-1.113.3,1.358,1.358,0,0,1-.69-.226.621.621,0,0,1-.184-.173" transform="translate(-46.511 -86.687)" fill="#455a64"/><path d="M106.752,230.024c.027-.017.076.185.355.312a.946.946,0,0,0,1.119-.3,1.765,1.765,0,0,0-.093-1.8,7.561,7.561,0,0,1-1.149-2.243,1.625,1.625,0,0,1,.321-1.33c.282-.348.614-.579.83-.864a2.513,2.513,0,0,0,.4-1.841,7.132,7.132,0,0,0-.33-1.308,1.718,1.718,0,0,1-.133-.488,1.6,1.6,0,0,1,.242.445,5.615,5.615,0,0,1,.431,1.319,2.669,2.669,0,0,1-.391,2.04c-.245.331-.581.574-.818.879a1.336,1.336,0,0,0-.257,1.1,8.029,8.029,0,0,0,1.1,2.164,1.959,1.959,0,0,1,.02,2.057,1.033,1.033,0,0,1-.732.4,1.011,1.011,0,0,1-.612-.118c-.309-.189-.313-.425-.3-.416" transform="translate(-45.194 -93.205)" fill="#455a64"/><path d="M66.294,223.947a2.56,2.56,0,0,1-.469-.469,5.66,5.66,0,0,1-1.006-1.516,3.03,3.03,0,0,1-.242-1.258,2.194,2.194,0,0,1,.509-1.4c.357-.415.875-.629,1.188-1.017a1.7,1.7,0,0,0,.239-1.483,6.318,6.318,0,0,0-.633-1.524,5.239,5.239,0,0,1-.561-1.513,1.981,1.981,0,0,1,.3-1.456,5.062,5.062,0,0,1,.879-.916,2.628,2.628,0,0,0,.984-1.4,1.7,1.7,0,0,0-.025-.635c.007,0,.046.044.087.152a1.025,1.025,0,0,1,.053.5,2.62,2.62,0,0,1-.955,1.543,5.111,5.111,0,0,0-.814.895,1.735,1.735,0,0,0-.233,1.276,5.132,5.132,0,0,0,.55,1.424,6.386,6.386,0,0,1,.664,1.592,1.982,1.982,0,0,1-.3,1.735c-.392.461-.908.661-1.21,1.015a1.956,1.956,0,0,0-.466,1.224,2.869,2.869,0,0,0,.19,1.17,6.431,6.431,0,0,0,.9,1.521,3.122,3.122,0,0,1,.379.542" transform="translate(-27.339 -88.634)" fill="#455a64"/><path d="M106.867,189.708a9.521,9.521,0,0,0-1.406-1.527,9.515,9.515,0,0,0-1.852-.938,3.448,3.448,0,0,1,3.258,2.465" transform="translate(-43.864 -79.259)" fill="#e8505b"/><path d="M109.811,181.964c.03-.019.223.206.379.654a3.123,3.123,0,0,1-.932,3.373c-.363.3-.645.4-.661.367s.212-.2.515-.521a3.429,3.429,0,0,0,.874-3.162,4.23,4.23,0,0,1-.175-.712" transform="translate(-45.975 -77.036)" fill="#455a64"/><g transform="translate(34.554 172.65)" opacity="0.3"><g clip-path="url(#l)"><path d="M59.923,302.621s14.327,13.6,22.843,11.141S93.8,304.91,93.8,304.91l.206-2.289-.853-.558-32.788-2.655Z" transform="translate(-59.923 -299.408)"/></g></g><path d="M45.224,277.679l2.763-7.085,9.9,6.222-8.824,13.606s-3.589-4.662-3.842-12.743" transform="translate(-19.146 -114.559)" fill="#eb996e"/><path d="M56.041,246.4a35.378,35.378,0,0,1,10.574-3.1c1.732,3.467,7.19,3.907,10.495,1.541L79.9,242.96a10.171,10.171,0,0,1,1.168.047,14.884,14.884,0,0,1,13.183,11.853,29.7,29.7,0,0,1,.7,7.492c-.362,6.3-6.886,6.869-6.886,6.869s-.336,6.227-.777,11.256h0a9.391,9.391,0,0,1-5.706,8.137,23.172,23.172,0,0,1-7.273,2.242,24.427,24.427,0,0,1-21.672-7.5c.99-6,1.936-13.77,1.868-14.117a.169.169,0,0,1,.011-.115l-6.466-5.74L44.38,260.3s8.042-11.936,11.661-13.9" transform="translate(-18.789 -102.86)" fill="#b0c710"/><path d="M71.079,255.183a3.437,3.437,0,0,0-1.6-.442,2.628,2.628,0,0,0-1.649.572,6.94,6.94,0,0,0-.734.788,1.9,1.9,0,0,1-1.047.694,1.7,1.7,0,0,1-1.218-.326c-.333-.212-.616-.445-.908-.612a1.982,1.982,0,0,0-1.691-.148,2.234,2.234,0,0,0-.983.678c-.182.225-.247.378-.272.367a.87.87,0,0,1,.178-.435,2.232,2.232,0,0,1,2.905-.7c.322.176.614.409.928.6A1.434,1.434,0,0,0,66,256.5a1.656,1.656,0,0,0,.881-.6,6.618,6.618,0,0,1,.78-.808,2.768,2.768,0,0,1,1.825-.568,2.636,2.636,0,0,1,1.235.352c.26.16.37.291.36.3" transform="translate(-25.815 -107.757)" fill="#fafafa"/><path d="M82.495,268.725a3.43,3.43,0,0,0-1.374-.93,2.627,2.627,0,0,0-1.745.015,6.964,6.964,0,0,0-.947.513,1.91,1.91,0,0,1-1.213.323,1.7,1.7,0,0,1-1.05-.7c-.247-.307-.442-.619-.665-.871a1.98,1.98,0,0,0-1.556-.68,2.239,2.239,0,0,0-1.148.328c-.243.155-.355.279-.375.261s.07-.16.308-.356a2.232,2.232,0,0,1,2.977.262c.249.27.451.584.687.869a1.43,1.43,0,0,0,.866.588,1.654,1.654,0,0,0,1.025-.283,6.661,6.661,0,0,1,1-.516,2.765,2.765,0,0,1,1.911.045,2.629,2.629,0,0,1,1.058.728.974.974,0,0,1,.244.4" transform="translate(-30.66 -112.691)" fill="#fafafa"/><path d="M108.189,248.482a3.435,3.435,0,0,0-1.656-.094,2.631,2.631,0,0,0-1.49.908,6.99,6.99,0,0,0-.551.926,1.906,1.906,0,0,1-.875.9,1.7,1.7,0,0,1-1.26-.061c-.37-.137-.7-.3-1.017-.407a1.983,1.983,0,0,0-1.685.214,2.244,2.244,0,0,0-.817.871,3.784,3.784,0,0,1-.189.416.88.88,0,0,1,.082-.464,2.232,2.232,0,0,1,2.691-1.3c.352.1.686.27,1.035.394a1.43,1.43,0,0,0,1.045.06,1.657,1.657,0,0,0,.735-.769,6.626,6.626,0,0,1,.591-.954,2.766,2.766,0,0,1,1.663-.942,2.633,2.633,0,0,1,1.282.083.981.981,0,0,1,.416.219" transform="translate(-41.761 -105.052)" fill="#fafafa"/><path d="M97.864,263.467a2.94,2.94,0,0,0-1.036-.742,2.011,2.011,0,0,0-1.327-.041,5.362,5.362,0,0,0-.742.362,1.506,1.506,0,0,1-.968.21,1.342,1.342,0,0,1-.806-.588c-.181-.249-.319-.495-.479-.694a1.506,1.506,0,0,0-1.152-.574,2.092,2.092,0,0,0-1.194.377c-.012-.01.052-.128.242-.275a1.662,1.662,0,0,1,.954-.314,1.692,1.692,0,0,1,1.364.611c.185.219.331.468.5.693a1.074,1.074,0,0,0,.627.47c.531.093,1.017-.384,1.57-.542a2.148,2.148,0,0,1,1.49.108c.8.369.986.945.955.939" transform="translate(-38.17 -110.576)" fill="#fafafa"/><path d="M72.109,277.288a2.941,2.941,0,0,0-1.036-.742,2.012,2.012,0,0,0-1.327-.041,5.37,5.37,0,0,0-.742.362,1.506,1.506,0,0,1-.968.21,1.342,1.342,0,0,1-.806-.588c-.181-.249-.319-.495-.479-.694a1.507,1.507,0,0,0-1.152-.574,2.092,2.092,0,0,0-1.194.377c-.012-.01.052-.128.242-.275a1.662,1.662,0,0,1,.954-.314,1.692,1.692,0,0,1,1.364.611c.185.219.331.468.5.693a1.074,1.074,0,0,0,.627.47c.531.093,1.017-.384,1.57-.542a2.148,2.148,0,0,1,1.49.108c.8.369.986.945.955.939" transform="translate(-27.266 -116.428)" fill="#fafafa"/><path d="M96.086,278.842a2.945,2.945,0,0,0-1.22-.367,2.013,2.013,0,0,0-1.269.39,5.5,5.5,0,0,0-.585.583,1.5,1.5,0,0,1-.848.513,1.34,1.34,0,0,1-.953-.3c-.251-.176-.462-.364-.678-.5a1.507,1.507,0,0,0-1.276-.171,2.094,2.094,0,0,0-1.008.743c-.015-.005.009-.138.14-.339a1.664,1.664,0,0,1,.8-.606,1.694,1.694,0,0,1,1.488.137c.246.148.464.336.7.494a1.074,1.074,0,0,0,.745.241c.532-.084.838-.692,1.311-1.021a2.15,2.15,0,0,1,1.445-.379,1.555,1.555,0,0,1,1.207.579" transform="translate(-37.36 -117.802)" fill="#fafafa"/><path d="M88.133,289.824a2.945,2.945,0,0,0-1.22-.367,2.014,2.014,0,0,0-1.269.39,5.5,5.5,0,0,0-.585.583,1.5,1.5,0,0,1-.848.513,1.341,1.341,0,0,1-.953-.3c-.251-.176-.462-.364-.678-.5a1.507,1.507,0,0,0-1.276-.171,2.094,2.094,0,0,0-1.008.743c-.015-.005.009-.138.14-.338a1.664,1.664,0,0,1,.8-.606,1.694,1.694,0,0,1,1.488.137c.246.148.464.336.7.494a1.074,1.074,0,0,0,.745.241c.532-.084.838-.692,1.311-1.021a2.15,2.15,0,0,1,1.445-.379,1.555,1.555,0,0,1,1.207.579" transform="translate(-33.993 -122.452)" fill="#fafafa"/><path d="M71.42,315.91a2.943,2.943,0,0,0-1.046-.727,2.01,2.01,0,0,0-1.327-.022,5.4,5.4,0,0,0-.738.372,1.5,1.5,0,0,1-.965.224,1.345,1.345,0,0,1-.814-.577c-.185-.246-.326-.49-.489-.687a1.506,1.506,0,0,0-1.16-.558,2.1,2.1,0,0,0-1.189.394c-.012-.01.051-.129.239-.279a1.663,1.663,0,0,1,.949-.328,1.694,1.694,0,0,1,1.372.592c.188.216.337.464.511.687a1.072,1.072,0,0,0,.633.46c.532.086,1.011-.4,1.563-.564a2.148,2.148,0,0,1,1.491.088c.807.358,1,.931.969.925" transform="translate(-26.965 -132.818)" fill="#fafafa"/><path d="M90.982,322.868a2.951,2.951,0,0,0-1.214-.384,2.017,2.017,0,0,0-1.274.373,5.446,5.446,0,0,0-.593.574,1.5,1.5,0,0,1-.855.5,1.345,1.345,0,0,1-.948-.309c-.249-.179-.457-.371-.671-.511a1.5,1.5,0,0,0-1.273-.189,2.094,2.094,0,0,0-1.018.729c-.015-.006.01-.138.145-.337a1.661,1.661,0,0,1,.809-.595,1.692,1.692,0,0,1,1.486.157c.244.151.46.343.692.5a1.074,1.074,0,0,0,.742.251c.533-.076.848-.68,1.325-1a2.152,2.152,0,0,1,1.45-.359,1.555,1.555,0,0,1,1.2.6" transform="translate(-35.194 -136.433)" fill="#fafafa"/><path d="M30.689,240.616c.35.412,13.028,17.365,13.028,17.365l-1.785,1.011-13.01-16.737Z" transform="translate(-12.245 -101.868)" fill="#263238"/><path d="M83.139,258.582s-11.891,20.506-12.695,20.884c-1.583.743-19.829-15.025-21.57-16.533-.239-.321-.735-1-1.706-2.341,0,0-1.44-6.588-2.976-6.082s.842,3.347-.159,5.851-5.582-3.467-5.766-4l-1.182-1.544s-1.239,3.513-1.155,4.98c.269,4.7,4.715,10.289,4.715,10.289s18.069,22.641,31.747,23.409c3.94.221,11.465-11.121,16.145-19.5,2.827-5.062,1.515-10.2-3.17-13.62Z" transform="translate(-15.21 -107.738)" fill="#ffbe9d"/><path d="M38.561,262.59a10.826,10.826,0,0,1-1.719-3.474c.048-.018.39.779.864,1.735s.9,1.712.855,1.739" transform="translate(-15.596 -109.7)" fill="#eb996e"/><path d="M108.37,251.7c-.47.282-11.528,20.81-11.528,20.81l14.233,11.149a164.753,164.753,0,0,0,5.656-16.536,23.751,23.751,0,0,0-.492-9.466c-1.063-2.948-2.666-2.214-5.067-3.941Z" transform="translate(-40.999 -106.56)" fill="#b0c710"/><g transform="translate(55.653 144.546)" opacity="0.7"><g clip-path="url(#m)"><path d="M112.906,251.262c-.009.013-.14-.079-.406-.213a2.4,2.4,0,0,0-1.251-.262,3.418,3.418,0,0,0-1.857.776,9.221,9.221,0,0,0-1.853,2c-.6.819-1.1,1.819-1.705,2.862l-1.9,3.339L99.558,267.4l-2.729,4.743-.037-.187,9.63,7.61,2.794,2.243.74.611a1.568,1.568,0,0,1,.246.225,1.643,1.643,0,0,1-.277-.185l-.771-.573-2.847-2.176-9.7-7.527-.1-.077.063-.11c.861-1.5,1.777-3.1,2.72-4.746l4.394-7.628,1.925-3.325a32.93,32.93,0,0,1,1.752-2.867,9.227,9.227,0,0,1,1.925-2.006,3.491,3.491,0,0,1,1.952-.758,2.36,2.36,0,0,1,1.284.326,2.188,2.188,0,0,1,.288.19c.062.046.092.072.089.076" transform="translate(-96.513 -250.67)"/></g></g><path d="M111.914,283.4a2.948,2.948,0,0,0-1.036-.742,2.012,2.012,0,0,0-1.327-.041,5.363,5.363,0,0,0-.742.362,1.506,1.506,0,0,1-.968.21,1.342,1.342,0,0,1-.806-.588c-.181-.248-.319-.495-.48-.694a1.505,1.505,0,0,0-1.151-.574,2.092,2.092,0,0,0-1.194.377c-.012-.01.052-.128.242-.275a1.662,1.662,0,0,1,.954-.314,1.692,1.692,0,0,1,1.364.611c.185.219.331.468.5.694a1.075,1.075,0,0,0,.627.469c.531.093,1.017-.384,1.57-.542a2.151,2.151,0,0,1,1.49.108c.8.369.986.945.955.939" transform="translate(-44.118 -119.017)" fill="#fafafa"/><path d="M123.741,277.534a2.937,2.937,0,0,0-.8-.994,2.01,2.01,0,0,0-1.266-.4,5.429,5.429,0,0,0-.813.148,1.5,1.5,0,0,1-.989-.058,1.344,1.344,0,0,1-.617-.784c-.107-.288-.174-.562-.274-.8a1.505,1.505,0,0,0-.954-.863,2.1,2.1,0,0,0-1.251.04c-.009-.013.085-.108.307-.2a1.657,1.657,0,0,1,1-.046,1.693,1.693,0,0,1,1.149.957c.119.261.192.54.3.8a1.075,1.075,0,0,0,.477.621c.486.232,1.082-.1,1.658-.1a2.152,2.152,0,0,1,1.406.507,1.554,1.554,0,0,1,.667,1.161" transform="translate(-49.44 -115.801)" fill="#fafafa"/><path d="M124.321,262.818a2.937,2.937,0,0,0-.8-.994,2.01,2.01,0,0,0-1.266-.4,5.429,5.429,0,0,0-.813.148,1.5,1.5,0,0,1-.989-.058,1.344,1.344,0,0,1-.617-.784c-.107-.288-.174-.562-.274-.8a1.505,1.505,0,0,0-.954-.863,2.1,2.1,0,0,0-1.251.04c-.009-.013.085-.108.307-.2a1.657,1.657,0,0,1,1-.046,1.693,1.693,0,0,1,1.149.957c.119.261.192.54.3.8a1.075,1.075,0,0,0,.477.621c.486.232,1.082-.1,1.658-.1a2.152,2.152,0,0,1,1.406.507,1.554,1.554,0,0,1,.667,1.161" transform="translate(-49.685 -109.571)" fill="#fafafa"/><path d="M118.859,296.648a2.928,2.928,0,0,0-.8-.994,2.011,2.011,0,0,0-1.266-.4,5.422,5.422,0,0,0-.813.148,1.5,1.5,0,0,1-.989-.058,1.344,1.344,0,0,1-.617-.784c-.107-.288-.174-.562-.274-.8a1.5,1.5,0,0,0-.954-.864,2.1,2.1,0,0,0-1.251.04c-.009-.013.085-.108.307-.2a1.658,1.658,0,0,1,1-.046,1.693,1.693,0,0,1,1.148.957c.119.261.192.54.3.8a1.075,1.075,0,0,0,.477.621c.486.232,1.082-.1,1.658-.1a2.15,2.15,0,0,1,1.406.507,1.554,1.554,0,0,1,.667,1.161" transform="translate(-47.373 -123.894)" fill="#fafafa"/></g></g></g></g></svg>