<svg xmlns="http://www.w3.org/2000/svg" xmlns:xlink="http://www.w3.org/1999/xlink" width="262.45" height="213.22" viewBox="0 0 262.45 213.22"><defs><clipPath id="a"><rect width="262.45" height="213.22" fill="none"/></clipPath><filter id="c" x="-9" y="-4.173" width="40.978" height="63.436" filterUnits="userSpaceOnUse"><feOffset dy="3" input="SourceAlpha"/><feGaussianBlur stdDeviation="3" result="d"/><feFlood flood-opacity="0.161"/><feComposite operator="in" in2="d"/><feComposite in="SourceGraphic"/></filter><filter id="e" x="11.222" y="-6" width="44.458" height="43.966" filterUnits="userSpaceOnUse"><feOffset dy="3" input="SourceAlpha"/><feGaussianBlur stdDeviation="3" result="f"/><feFlood flood-opacity="0.161"/><feComposite operator="in" in2="f"/><feComposite in="SourceGraphic"/></filter><clipPath id="i"><rect width="2.462" height="1.742" fill="none"/></clipPath><clipPath id="j"><rect width="11.226" height="1.186" fill="none"/></clipPath><clipPath id="k"><rect width="8.206" height="1.046" fill="none"/></clipPath><clipPath id="l"><rect width="9.593" height="45.968" fill="none"/></clipPath><clipPath id="n"><rect width="10.283" height="8.138" fill="none"/></clipPath><clipPath id="o"><rect width="6.682" height="5.093" fill="none"/></clipPath><clipPath id="p"><rect width="12.986" height="1.314" fill="none"/></clipPath><clipPath id="q"><rect width="7.766" height="0.978" fill="none"/></clipPath><clipPath id="r"><rect width="17.842" height="19.916" fill="none"/></clipPath></defs><g clip-path="url(#a)"><rect width="21.739" height="2.904" transform="translate(145.204 132.525)" fill="#e0e0e0"/><g clip-path="url(#a)"><path d="M286.43,256.541a6.851,6.851,0,0,1,0,2.721,6.824,6.824,0,0,1,0-2.721" transform="translate(-138.265 -123.896)" fill="#fafafa"/><path d="M285.514,256.427a6.849,6.849,0,0,1,0,2.721,6.849,6.849,0,0,1,0-2.721" transform="translate(-137.823 -123.841)" fill="#fafafa"/><path d="M319.5,256.541a6.849,6.849,0,0,1,0,2.721,6.849,6.849,0,0,1,0-2.721" transform="translate(-154.234 -123.896)" fill="#fafafa"/><path d="M318.582,256.427a6.851,6.851,0,0,1,0,2.721,6.848,6.848,0,0,1,0-2.721" transform="translate(-153.792 -123.841)" fill="#fafafa"/><path d="M302.829,259.159c0,.076-2.49.137-5.561.137s-5.561-.061-5.561-.137,2.489-.136,5.561-.136,5.561.061,5.561.136" transform="translate(-140.879 -125.095)" fill="#fafafa"/><rect width="21.739" height="5.809" transform="translate(145.11 145.601)" fill="#e0e0e0"/><path d="M302.717,286.23a.49.49,0,0,1-.118.068c-.08.041-.2.1-.362.165a6.3,6.3,0,0,1-1.474.422,3.84,3.84,0,0,1-2.392-.34,3.176,3.176,0,0,1-1.136-1.029,2.392,2.392,0,0,1-.4-1.673,1.764,1.764,0,0,1,.4-.865,1.144,1.144,0,0,1,.917-.416,1.316,1.316,0,0,1,.921.5,1.8,1.8,0,0,1,.421.991,2.635,2.635,0,0,1-.75,2.058,3.307,3.307,0,0,1-2.089,1.021,5.545,5.545,0,0,1-2.426-.3,4.472,4.472,0,0,1-2.119-1.424,2.333,2.333,0,0,1-.494-1.254,1.628,1.628,0,0,1,.463-1.305,1.058,1.058,0,0,1,.68-.3,1.243,1.243,0,0,1,.71.2,1.885,1.885,0,0,1,.8,1.172,2.736,2.736,0,0,1-.857,2.559,4.276,4.276,0,0,1-2.448,1,6.022,6.022,0,0,1-2.537-.25,3.5,3.5,0,0,1-1.93-1.5,2.57,2.57,0,0,1-.242-2.308,1.212,1.212,0,0,1,.887-.75,1.4,1.4,0,0,1,1.1.264,1.814,1.814,0,0,1,.518,1.957,3.385,3.385,0,0,1-1.1,1.543,4.936,4.936,0,0,1-2.981,1.158,4.773,4.773,0,0,1-2.362-.537,4.722,4.722,0,0,1-1.232-.913,3.475,3.475,0,0,1-.26-.3.489.489,0,0,1-.077-.113,5.531,5.531,0,0,0,1.616,1.233,4.732,4.732,0,0,0,2.308.479,4.8,4.8,0,0,0,2.862-1.152,3.2,3.2,0,0,0,1.019-1.457,1.6,1.6,0,0,0-.452-1.716,1.173,1.173,0,0,0-.914-.216.972.972,0,0,0-.711.617,2.333,2.333,0,0,0,.237,2.082,3.257,3.257,0,0,0,1.8,1.383,5.791,5.791,0,0,0,2.424.231,4.02,4.02,0,0,0,2.294-.931,2.471,2.471,0,0,0,.774-2.3,1.617,1.617,0,0,0-.678-1,.832.832,0,0,0-1.06.065,1.36,1.36,0,0,0-.379,1.088,2.06,2.06,0,0,0,.438,1.111,4.228,4.228,0,0,0,1.989,1.338,5.309,5.309,0,0,0,2.311.3,3.064,3.064,0,0,0,1.943-.935,2.406,2.406,0,0,0,.7-1.87,1.388,1.388,0,0,0-1.127-1.3.936.936,0,0,0-.755.34,1.567,1.567,0,0,0-.36.763,2.217,2.217,0,0,0,.351,1.547,3.035,3.035,0,0,0,1.064.99,3.771,3.771,0,0,0,2.3.368,6.9,6.9,0,0,0,1.468-.368c.327-.119.5-.192.5-.182" transform="translate(-135.589 -136.455)" fill="#fafafa"/><rect width="19.798" height="10.078" transform="translate(147.051 135.513)" fill="#ebebeb"/><path d="M290.638,262.757a87.231,87.231,0,0,1,0,9.755,87.212,87.212,0,0,1,0-9.755" transform="translate(-140.297 -126.898)" fill="#e0e0e0"/><path d="M293.539,262.515a84.669,84.669,0,0,1,0,9.63,85.01,85.01,0,0,1,0-9.63" transform="translate(-141.698 -126.781)" fill="#e0e0e0"/><path d="M318.237,261.889a94.228,94.228,0,0,1,0,10.141,94.27,94.27,0,0,1,0-10.141" transform="translate(-153.626 -126.479)" fill="#e0e0e0"/><path d="M314.826,262.152a89.452,89.452,0,0,1,0,9.88,89.452,89.452,0,0,1,0-9.88" transform="translate(-151.978 -126.606)" fill="#e0e0e0"/><rect width="133.47" height="88.533" transform="translate(29.176 20.775)" fill="#e0e0e0"/><path d="M0,26.611A22.616,22.616,0,1,1,22.978,48.963,22.7,22.7,0,0,1,0,26.611m33.424-.539A10.813,10.813,0,1,0,22.788,37.108,10.848,10.848,0,0,0,33.427,26.072" transform="translate(0 -1.703)" fill="#f5f5f5"/><g transform="matrix(1, 0, 0, 1, 0, 0)" filter="url(#c)"><path d="M0,26.615A22.7,22.7,0,0,1,22.252,3.533l.19,11.855a10.863,10.863,0,0,0,.347,21.723l.189,11.855A22.689,22.689,0,0,1,0,26.615" transform="translate(0 -1.71)" fill="#fff"/></g><g transform="matrix(1, 0, 0, 1, 0, 0)" filter="url(#e)"><path d="M39.11,0a25.84,25.84,0,0,1,26.458,25.74l-13.806.222c-.112-7.007-5.444-11.418-12.418-11.305Z" transform="translate(-18.89 0)" fill="#529d2e"/></g><path d="M116.557,392.394a3.193,3.193,0,0,1-.878-3.915,3.487,3.487,0,0,1,1.85-1.3,7.517,7.517,0,0,0,2.028-1.051c1.1-.936,1.4-2.49,2.133-3.738a4.671,4.671,0,0,1,4.054-2.431,5.12,5.12,0,0,1,4.186,3.394,15.173,15.173,0,0,1,.755,5.622,3.856,3.856,0,0,1-.811,2.949,3.8,3.8,0,0,1-2.75.633l-10.342-.317" transform="translate(-55.69 -183.498)" fill="#f5f5f5"/><path d="M130.571,349.015h-27.2l4.9,29.211a3.263,3.263,0,0,0,2.322,2.6c.031.01.064.017.1.026.081.021.159.048.243.063a3.405,3.405,0,0,0,.553.064l0,.028.132-.021h12.121a3.4,3.4,0,0,0,.666-.067,3.273,3.273,0,0,0,2.751-2.855l2.362-20.127.106-.8h-.012l.935-7.971Zm-5.13,18.633h-2.792l.282-8.478h3.234Zm.995-8.478h2.672l-.995,8.478h-2.4Zm-7.973,17.876-.17-7.365h4.019l-.244,7.365Zm-4.345-7.365h3.905l.169,7.365h-3.5Zm.3,7.365h-3.274c-.311-1.989-.716-4.573-1.155-7.365h3.856Zm-.46-9.4-.659-8.478h4.48l.195,8.478Zm4.286,0-.195-8.478h4.61l-.281,8.478ZM118,357.137l-.18-7.851h5.166l-.261,7.851Zm-.269,0h-4.591l-.61-7.851h5.021Zm-4.862,0h-4.858c-.172-1.084-.336-2.111-.482-3.034-.507-3.175-.7-4.368-.8-4.817h5.532Zm.158,2.033.659,8.478h-4.017c-.135-.86-.272-1.73-.409-2.6-.315-2-.63-4-.927-5.877Zm-3.632,8.478h-2.624l-1.422-8.478h2.71c.414,2.62.873,5.536,1.336,8.478m.32,2.034c.4,2.549.794,5.061,1.154,7.365H108.35l-1.235-7.365Zm12.62,7.365.245-7.365h2.684l-.629,7.365ZM123,357.137l.261-7.851h3.75l-.671,7.851Zm-16.528-7.851c.108.568.6,3.657,1.269,7.851h-2.73l-1.317-7.851Zm20.539,27.76h-2.1l.629-7.365h2.337Zm2.336-19.909h-2.737l.671-7.851h2.988Z" transform="translate(-49.925 -168.556)" fill="#e0e0e0"/><rect width="5.856" height="23.392" transform="translate(231.143 34.573)" fill="#e0e0e0"/><rect width="5.856" height="18.29" transform="translate(239.755 39.675)" fill="#e0e0e0"/><rect width="5.856" height="14.112" transform="translate(248.499 43.854)" fill="#e0e0e0"/><rect width="5.856" height="8.38" transform="translate(256.594 49.585)" fill="#e0e0e0"/><rect width="5.856" height="23.392" transform="translate(0.007 78.655)" fill="#529d2e"/><rect width="5.856" height="18.29" transform="translate(8.62 83.757)" fill="#529d2e"/><rect width="5.856" height="14.112" transform="translate(17.364 87.936)" fill="#529d2e"/><rect width="5.856" height="8.38" transform="translate(25.459 93.667)" fill="#e0e0e0"/><path d="M457.7,163.338a20.264,20.264,0,0,0-28.488.964,19.972,19.972,0,0,0,.97,28.316,20.264,20.264,0,0,0,28.488-.964,19.972,19.972,0,0,0-.97-28.316m-6.716,21.179a9.689,9.689,0,0,1-13.621.461,9.549,9.549,0,0,1-.464-13.539,9.689,9.689,0,0,1,13.621-.461,9.55,9.55,0,0,1,.464,13.539" transform="translate(-204.669 -76.283)" fill="#f5f5f5"/><path d="M429.209,164.3a20.265,20.265,0,0,1,28.488-.964l-7.18,7.64a9.69,9.69,0,0,0-13.621.461,9.549,9.549,0,0,0,.464,13.539l-7.18,7.641a19.973,19.973,0,0,1-.97-28.317" transform="translate(-204.669 -76.284)" fill="#ebebeb"/><path d="M480.071,162.036c9.949,9.238,11.14,24.255,1.846,34.145l-10.093-8.742c4.444-4.729,5.409-11.042.652-15.459Z" transform="translate(-227.867 -78.255)" fill="#fafafa"/><path d="M97.952,252.191H44.182a1.67,1.67,0,0,1-1.67-1.67V237.775a1.67,1.67,0,0,1,1.67-1.67h53.77a1.67,1.67,0,0,1,1.671,1.67v12.746a1.67,1.67,0,0,1-1.671,1.67" transform="translate(-20.531 -114.026)" fill="#e0e0e0"/><path d="M60.008,251.541a3.469,3.469,0,0,1-4.892.54,3.507,3.507,0,0,1-.538-4.915,3.469,3.469,0,0,1,4.892-.54,3.507,3.507,0,0,1,.538,4.915" transform="translate(-25.989 -118.736)" fill="#f5f5f5"/><path d="M60.67,250.322a14.144,14.144,0,0,1-1.871,2.022l-.46.445-.095.092-.09-.093a9.846,9.846,0,0,1-1.4-1.588,9.817,9.817,0,0,1,1.582,1.4h-.185l.455-.451a14.174,14.174,0,0,1,2.059-1.829" transform="translate(-27.41 -120.891)" fill="#e0e0e0"/><path d="M110.112,249.155c0,.074-7.665.134-17.119.134s-17.12-.06-17.12-.134,7.664-.134,17.12-.134,17.119.06,17.119.134" transform="translate(-36.643 -120.264)" fill="#fafafa"/><path d="M110.4,254.789c0,.074-7.665.134-17.119.134s-17.12-.06-17.12-.134,7.664-.134,17.12-.134,17.119.06,17.119.134" transform="translate(-36.783 -122.985)" fill="#fafafa"/><path d="M407.128,255.374l-1.046,81.178h46.706V256.481Z" transform="translate(-196.117 -123.333)" fill="#f5f5f5"/><path d="M456.382,256.554l-.413,80.568h20.912V257.051Z" transform="translate(-220.209 -123.902)" fill="#e0e0e0"/><path d="M410.944,258.2v16.6h22.124V258.985Z" transform="translate(-198.465 -124.698)" fill="#e0e0e0"/><path d="M425.694,266.826v2.452h6.769V266.6Z" transform="translate(-205.588 -128.756)" fill="#f5f5f5"/><rect width="6.991" height="1.003" transform="translate(220.106 142.585)" fill="#f5f5f5"/><path d="M410.944,370.729v16.6h22.124V371.514Z" transform="translate(-198.465 -179.043)" fill="#e0e0e0"/><path d="M425.694,379.355v2.453h6.769v-2.676Z" transform="translate(-205.588 -183.101)" fill="#f5f5f5"/><rect width="6.991" height="1.003" transform="translate(220.106 200.769)" fill="#f5f5f5"/><path d="M410.944,294.4V311h22.124V295.185Z" transform="translate(-198.465 -142.18)" fill="#e0e0e0"/><path d="M425.694,303.026v2.453h6.769V302.8Z" transform="translate(-205.588 -146.238)" fill="#f5f5f5"/><rect width="6.991" height="1.003" transform="translate(220.106 161.303)" fill="#f5f5f5"/><rect width="22.123" height="16.604" transform="translate(212.191 172.101)" fill="#e0e0e0"/><path d="M425.426,347.127v2.306h6.362v-2.515Z" transform="translate(-205.458 -167.543)" fill="#f5f5f5"/><rect width="6.571" height="0.943" transform="translate(219.967 183.827)" fill="#f5f5f5"/></g><rect width="138.223" height="90.663" transform="translate(21.174 22.996)" fill="#fafafa"/><g clip-path="url(#a)"><path d="M179.049,135.013c0-.873-.042-35.366-.107-90.662l.107.107-138.212.027h-.011l.134-.134c0,32.242-.008,62.925-.011,90.662l-.124-.124,138.223.124-138.223.124H40.7v-.124c0-27.737-.007-58.42-.011-90.662v-.135h.146l138.212.027h.107v.108c-.065,55.3-.106,89.79-.107,90.662" transform="translate(-19.652 -21.354)" fill="#263238"/><path d="M122.577,141.307l13.6.187a13.536,13.536,0,0,1-13.6,13.15h-.08Z" transform="translate(-59.16 -68.244)" fill="#fcd03e"/><path d="M149.531,167.236a1.334,1.334,0,0,1-.291.023l-.831.022-3.038.035h-.038l-.025-.031-4.485-5.65-3.615-4.611.07.034-4-.037L132.158,157a2.125,2.125,0,0,1-.4-.027,2.163,2.163,0,0,1,.4-.027l1.119-.025,4-.037h.043l.027.035,3.639,4.591,4.447,5.68-.063-.031,3.038.035.831.022a1.338,1.338,0,0,1,.291.023" transform="translate(-63.634 -75.765)" fill="#263238"/><path d="M167.343,179.843c0,.057-1.969.1-4.4.1s-4.4-.047-4.4-.1,1.969-.1,4.4-.1,4.4.047,4.4.1" transform="translate(-76.569 -86.805)" fill="#263238"/><path d="M167.343,182.994c0,.057-1.969.1-4.4.1s-4.4-.047-4.4-.1,1.969-.1,4.4-.1,4.4.047,4.4.1" transform="translate(-76.569 -88.326)" fill="#263238"/><path d="M105.792,125.107l-.191,13.336a13.342,13.342,0,1,1,13.788-13.336Z" transform="translate(-44.525 -53.979)" fill="#3a8416"/><path d="M96.758,121.358a.883.883,0,0,1-.236.055l-.676.108-2.443.343-.04.006-.03-.029-3.257-3.169c-1.565-1.535-2.974-2.933-3.985-3.952L84.9,113.5a3.617,3.617,0,0,1-.417-.466,3.539,3.539,0,0,1,.474.408l1.237,1.168c1.039.992,2.463,2.373,4.028,3.908l3.231,3.2-.07-.024,2.451-.27.682-.062a.88.88,0,0,1,.243,0" transform="translate(-40.8 -54.591)" fill="#263238"/><path d="M69.606,111.806c0,.057-1.969.1-4.4.1s-4.4-.047-4.4-.1,1.969-.1,4.4-.1,4.4.047,4.4.1" transform="translate(-29.367 -53.946)" fill="#263238"/><path d="M69.606,114.957c0,.057-1.969.1-4.4.1s-4.4-.047-4.4-.1,1.969-.1,4.4-.1,4.4.047,4.4.1" transform="translate(-29.367 -55.468)" fill="#263238"/><path d="M200.909,78.864l-.054-8.288a10.575,10.575,0,0,0-6.837,2.666,9.8,9.8,0,0,0-3.3,8.584,11.659,11.659,0,0,0,.194,1.2c0,.009,0,.019.005.029h0l9.986-2.247Z" transform="translate(-92.078 -34.085)" fill="#feefbf"/><path d="M221.765,76.343a9.831,9.831,0,0,0-8.06-5.643c-.1-.01-.21-.02-.316-.027-.067-.005-.133-.012-.2-.016q-.3-.016-.6-.018h-.054v0l.054,8.288.013,1.948,9.989,2.179.012,0a9.869,9.869,0,0,0,.222-2.149,10.751,10.751,0,0,0-1.057-4.566" transform="translate(-102.642 -34.114)" fill="#fde07e"/><path d="M202.191,92.373l-9.986,2.247a10.236,10.236,0,0,0,19.988-.067l-9.989-2.18" transform="translate(-92.825 -44.611)" fill="#fcd03e"/><path d="M265.157,89.361c0,.074-5.163.134-11.531.134s-11.532-.06-11.532-.134,5.162-.134,11.532-.134,11.531.06,11.531.134" transform="translate(-116.919 -43.092)" fill="#263238"/><path d="M265.157,84.277c0,.074-5.163.134-11.531.134s-11.532-.06-11.532-.134,5.162-.134,11.532-.134,11.531.06,11.531.134" transform="translate(-116.919 -40.637)" fill="#263238"/><path d="M265.157,79.193c0,.074-5.163.134-11.531.134s-11.532-.06-11.532-.134,5.162-.134,11.532-.134,11.531.06,11.531.134" transform="translate(-116.919 -38.181)" fill="#263238"/><path d="M265.157,94.091c0,.074-5.163.134-11.531.134s-11.532-.06-11.532-.134,5.162-.134,11.532-.134,11.531.06,11.531.134" transform="translate(-116.919 -45.376)" fill="#263238"/><path d="M258.092,99.239c0,.074-3.546.134-7.92.134s-7.92-.06-7.92-.134,3.545-.134,7.92-.134,7.92.06,7.92.134" transform="translate(-116.995 -47.863)" fill="#263238"/><rect width="2.375" height="26.529" transform="translate(100.99 70.405)" fill="#529d2e"/><rect width="2.375" height="17.519" transform="translate(105.576 79.416)" fill="#a4dc88"/><rect width="2.375" height="23.367" transform="translate(110.162 73.703)" fill="#529d2e"/><rect width="2.375" height="25.505" transform="translate(114.748 71.43)" fill="#a4dc88"/><rect width="2.375" height="16.979" transform="translate(119.334 79.955)" fill="#529d2e"/><rect width="2.375" height="13.65" transform="translate(123.92 83.285)" fill="#a4dc88"/><rect width="2.375" height="23.806" transform="translate(128.506 73.129)" fill="#529d2e"/><rect width="2.375" height="19.514" transform="translate(133.092 77.421)" fill="#a4dc88"/><rect width="2.375" height="22.944" transform="translate(137.678 73.991)" fill="#529d2e"/><rect width="2.375" height="15.632" transform="translate(142.264 81.303)" fill="#a4dc88"/><rect width="2.375" height="18.606" transform="translate(146.85 78.329)" fill="#529d2e"/><path d="M243.473,190.958c0,.054-11.268.1-25.164.1s-25.166-.044-25.166-.1,11.265-.1,25.166-.1,25.164.044,25.164.1" transform="translate(-93.278 -92.175)" fill="#263238"/><path d="M198.579,195a15.951,15.951,0,0,1-3.526,0,15.948,15.948,0,0,1,3.526,0" transform="translate(-94.2 -94.126)" fill="#263238"/><path d="M209.245,195.2a22.759,22.759,0,0,1-4.213,0,22.759,22.759,0,0,1,4.213,0" transform="translate(-99.02 -94.226)" fill="#263238"/><path d="M218.891,195.2a22.759,22.759,0,0,1-4.213,0,22.759,22.759,0,0,1,4.213,0" transform="translate(-103.678 -94.226)" fill="#263238"/><path d="M228.537,195.2a22.759,22.759,0,0,1-4.213,0,22.759,22.759,0,0,1,4.213,0" transform="translate(-108.337 -94.226)" fill="#263238"/><path d="M238.183,195.2a22.759,22.759,0,0,1-4.213,0,22.759,22.759,0,0,1,4.213,0" transform="translate(-112.995 -94.226)" fill="#263238"/><path d="M247.83,195.2a22.759,22.759,0,0,1-4.213,0,22.759,22.759,0,0,1,4.213,0" transform="translate(-117.654 -94.226)" fill="#263238"/><path d="M257.476,195.2a22.759,22.759,0,0,1-4.213,0,22.759,22.759,0,0,1,4.213,0" transform="translate(-122.313 -94.226)" fill="#263238"/><path d="M267.122,195.2a22.759,22.759,0,0,1-4.213,0,22.759,22.759,0,0,1,4.213,0" transform="translate(-126.971 -94.226)" fill="#263238"/><path d="M276.768,195.2a22.759,22.759,0,0,1-4.213,0,22.759,22.759,0,0,1,4.213,0" transform="translate(-131.63 -94.226)" fill="#263238"/><path d="M286.414,195.2a22.759,22.759,0,0,1-4.213,0,22.759,22.759,0,0,1,4.213,0" transform="translate(-136.288 -94.226)" fill="#263238"/><path d="M69.16,75.3a2.286,2.286,0,1,1-2.286-2.286A2.287,2.287,0,0,1,69.16,75.3" transform="translate(-31.192 -35.261)" fill="#529d2e"/><path d="M117.295,73.82c0,.074-7.71.134-17.218.134s-17.219-.06-17.219-.134,7.708-.134,17.219-.134,17.218.06,17.218.134" transform="translate(-40.016 -35.587)" fill="#3a8416"/><path d="M96.917,79.167a2.059,2.059,0,0,1-.534.052c-.343.017-.84.031-1.454.043-1.228.024-2.924.039-4.8.039s-3.571-.015-4.8-.039c-.614-.012-1.111-.026-1.454-.043a2.057,2.057,0,0,1-.533-.052,2.057,2.057,0,0,1,.533-.052c.344-.016.841-.031,1.454-.043,1.229-.024,2.925-.039,4.8-.039s3.57.015,4.8.039c.614.012,1.111.027,1.454.043a2.06,2.06,0,0,1,.534.052" transform="translate(-40.25 -38.169)" fill="#3a8416"/><rect width="79.44" height="90.663" transform="translate(166.178 16.383)" fill="#fafafa"/><path d="M400.711,122.222s0-.147-.007-.431,0-.706-.007-1.259c0-1.112-.008-2.753-.014-4.892-.007-4.279-.018-10.542-.032-18.5-.014-15.9-.035-38.547-.06-65.584l.119.119-79.432.016h-.008l.135-.135c-.008,33.426-.015,64.6-.021,90.663l-.114-.114,57.623.058L395,122.2l4.245.013c.962,0,1.464.013,1.464.013s-.486.008-1.439.012l-4.223.013-16.083.029-57.695.058h-.114v-.114c-.006-26.067-.013-57.237-.021-90.663v-.134h.143l79.432.016h.119v.119c-.025,27.069-.046,49.746-.06,65.661-.013,7.942-.024,14.2-.032,18.47-.006,2.128-.011,3.763-.014,4.869,0,.547-.005.963-.007,1.246s-.007.417-.007.417" transform="translate(-155.092 -15.177)" fill="#263238"/><rect width="64.355" height="51.625" transform="translate(172.534 23.631)" fill="#e0e0e0"/><rect width="2.112" height="0.609" transform="translate(177.031 66.078)" fill="#263238"/><rect width="2.701" height="0.609" transform="translate(181.81 69.333)" fill="#263238"/><rect width="2.701" height="0.609" transform="translate(191.212 69.333)" fill="#263238"/><rect width="2.701" height="0.609" transform="translate(200.615 69.333)" fill="#263238"/><rect width="2.701" height="0.609" transform="translate(210.018 69.333)" fill="#263238"/><rect width="2.701" height="0.609" transform="translate(219.42 69.333)" fill="#263238"/><rect width="2.701" height="0.609" transform="translate(228.823 69.333)" fill="#263238"/><rect width="2.112" height="0.609" transform="translate(177.031 57.95)" fill="#263238"/><rect width="2.112" height="0.609" transform="translate(177.031 42.651)" fill="#263238"/><rect width="2.112" height="0.609" transform="translate(177.031 34.962)" fill="#263238"/><rect width="2.112" height="0.609" transform="translate(177.138 50.3)" fill="#263238"/><path d="M399.681,94.873a1.436,1.436,0,0,1-.227.014l-.664.013-2.556.025-9.4.043-31.009.039-7.348,0h-.133v-.133c.018-10.365.034-19.488.046-26.034.017-3.257.031-5.873.04-7.689.01-.891.018-1.584.023-2.07.005-.226.009-.4.012-.535a.092.092,0,1,1,.025,0c0,.132.007.309.012.535.005.486.013,1.179.023,2.07.01,1.816.023,4.431.04,7.689.011,6.546.027,15.669.046,26.034l-.133-.132,7.348,0,31.009.039,9.4.043,2.556.025.664.013a1.551,1.551,0,0,1,.227.013" transform="translate(-168.233 -28.186)" fill="#263238"/><path d="M402.308,97.745c0,.074-11.139.134-24.876.134s-24.879-.06-24.879-.134,11.137-.134,24.879-.134,24.876.06,24.876.134" transform="translate(-170.265 -47.141)" fill="#263238"/><path d="M402.308,82.95c0,.074-11.139.134-24.876.134s-24.879-.06-24.879-.134,11.137-.134,24.879-.134,24.876.06,24.876.134" transform="translate(-170.265 -39.996)" fill="#263238"/><path d="M402.308,68.08c0,.074-11.139.134-24.876.134s-24.879-.06-24.879-.134,11.137-.134,24.879-.134,24.876.06,24.876.134" transform="translate(-170.265 -32.814)" fill="#263238"/><path d="M402.308,112.54c0,.075-11.139.135-24.876.135s-24.879-.06-24.879-.135,11.137-.134,24.879-.134,24.876.06,24.876.134" transform="translate(-170.265 -54.286)" fill="#263238"/><path d="M353.545,93.754V86.967l4.23-6.567,2.871,2.2,5.892-9.152,3.475,2.447,4.834-8.443,3.928,3.2,5.892-11.2,6.345,12.518,5.136-6.264,6.043-1.73V93.754Z" transform="translate(-170.744 -28.713)" fill="#455a64"/><path d="M402.787,63.476a.424.424,0,0,1-.107.01l-.315.01-1.226.02-4.637.035.059-.029-4.962,6.5-.032.041h-.053l-12.441.023.111-.063-5.229,8.709-5.136,8.535-.1.168-.115-.158-6.735-9.27.181-.006-6.158,9.572-1.721,2.644-.458.689c-.1.155-.166.23-.166.23s.042-.087.138-.248l.431-.706,1.671-2.676,6.079-9.622.086-.136.1.13,6.767,9.246-.216.009,5.128-8.54,5.238-8.7.038-.063h.073l12.441.023-.085.042,5.013-6.462.023-.029h.037l4.637.035,1.226.02.315.01a.424.424,0,0,1,.107.01" transform="translate(-170.744 -30.619)" fill="#529d2e"/><path d="M372.865,95.3a.478.478,0,1,1-.477-.46.469.469,0,0,1,.477.46" transform="translate(-179.614 -45.804)" fill="#fc8116"/><path d="M400.62,79.527a.478.478,0,1,1-.477-.46.469.469,0,0,1,.477.46" transform="translate(-193.018 -38.185)" fill="#fc8116"/><path d="M422.2,75.651a.478.478,0,1,1-.477-.46.469.469,0,0,1,.477.46" transform="translate(-203.438 -36.313)" fill="#fc8116"/><path d="M395.886,160.268c0,.074-13.58.134-30.327.134s-30.33-.06-30.33-.134,13.577-.134,30.33-.134,30.327.06,30.327.134" transform="translate(-161.898 -77.336)" fill="#263238"/><path d="M395.886,166.61c0,.074-13.58.134-30.327.134s-30.33-.06-30.33-.134,13.577-.134,30.33-.134,30.327.06,30.327.134" transform="translate(-161.898 -80.399)" fill="#263238"/><path d="M395.886,172.952c0,.074-13.58.134-30.327.134s-30.33-.06-30.33-.134,13.577-.134,30.33-.134,30.327.06,30.327.134" transform="translate(-161.898 -83.462)" fill="#263238"/><path d="M395.886,179.3c0,.074-13.58.134-30.327.134s-30.33-.06-30.33-.134,13.577-.134,30.33-.134,30.327.06,30.327.134" transform="translate(-161.898 -86.525)" fill="#263238"/></g><g clip-path="url(#a)"><path d="M401.722,159.827c1.66-2.786,2.144-6.5,2.57-9.716.2-1.513.553-3.666-.509-4.616-1.137-1.018-1.242-2.581-2.55-3.368a4.025,4.025,0,0,0-4.323.036" transform="translate(-191.687 -68.345)" fill="#263238"/><path d="M388.786,171.127h0a4.478,4.478,0,0,1-4.817-4.294c-.094-2.437-.175-4.9-.175-4.9a4.4,4.4,0,0,1-3.962-4c-.268-3.656-.146-12.094-.146-12.094a12.737,12.737,0,0,1,12.873.828l-.228,12.865v6.921c-.025,2.322-1.231,4.5-3.546,4.677" transform="translate(-183.355 -69.773)" fill="#ffbe9d"/><path d="M380.61,150.6a1.873,1.873,0,0,1,2.5-.546,2.125,2.125,0,0,1,.708,2.657,2.8,2.8,0,0,1-1.793,1.356,1.4,1.4,0,0,0-1.1,1.511c.1.917,1.631,1.262,2.321,2.021,1.071,1.181,3.423,1.681,5.007,1.869,1.557.184,1.369.2,2.275-1.081a4.908,4.908,0,0,0,.889-2.967q.084-4.043.167-8.086a11.56,11.56,0,0,0-.184-2.9,3.894,3.894,0,0,0-1.53-2.4,11.954,11.954,0,0,0-3.028-.963,25.033,25.033,0,0,1-3.526-1.855,4.335,4.335,0,0,0-3.826-.371c-.854.429-1.426,1.28-2.256,1.753-1.182.672-2.791.52-3.364,2.257a2.946,2.946,0,0,0,.02,1.859,4.3,4.3,0,0,0,5.84,2.3,5.8,5.8,0,0,0,.069,2.557c.135.4.183,1.021.815,1.033" transform="translate(-180.491 -66.91)" fill="#263238"/><path d="M388.292,164.623c.028-.023.153.193.457.174a.849.849,0,0,0,.684-.835.914.914,0,0,0-.627-.91c-.3-.111-.517-.054-.526-.1-.016-.025.2-.165.579-.086a1.1,1.1,0,0,1,.574.329,1.06,1.06,0,0,1,.27.777,1.009,1.009,0,0,1-.951,1.011.548.548,0,0,1-.409-.205c-.065-.089-.065-.154-.049-.159" transform="translate(-187.518 -78.646)" fill="#eb996e"/><path d="M395.662,144.248c-.009-.008.079-.14.306-.31a2.452,2.452,0,0,1,1.11-.432,3.2,3.2,0,0,1,1.75.266,4.01,4.01,0,0,1,1.613,1.442,8.188,8.188,0,0,1,1.135,3.7,9.547,9.547,0,0,1,.1,1.6,9.252,9.252,0,0,1-.285-1.572,8.837,8.837,0,0,0-1.171-3.576A3.9,3.9,0,0,0,398.722,144a2.935,2.935,0,0,0-3.06.251" transform="translate(-191.084 -69.293)" fill="#455a64"/><path d="M374.753,147.266c0,.008-.05.01-.139-.01a1.057,1.057,0,0,1-.364-.164,1.324,1.324,0,0,1-.424-.477,1.216,1.216,0,0,1-.114-.846,1.385,1.385,0,0,1,.593-.853,1.987,1.987,0,0,1,1.156-.227,1.594,1.594,0,0,0,1.1-.279,7.966,7.966,0,0,0,.893-.963,4.558,4.558,0,0,1,2.276-1.314,4.836,4.836,0,0,1,2.145-.048,4.142,4.142,0,0,1,1.347.518,1.567,1.567,0,0,1,.418.323,6.3,6.3,0,0,0-1.8-.653,4.872,4.872,0,0,0-2.05.1,4.429,4.429,0,0,0-2.139,1.255,7.621,7.621,0,0,1-.933.993,1.506,1.506,0,0,1-.629.282,2.991,2.991,0,0,1-.635.034,1.8,1.8,0,0,0-1.034.168,1.206,1.206,0,0,0-.527.709,1.177,1.177,0,0,0,.417,1.194,2.885,2.885,0,0,0,.44.258" transform="translate(-180.468 -68.572)" fill="#455a64"/><path d="M391.574,161.184c-.009-.023.184-.09.483-.292a3.02,3.02,0,0,0,1-1.111,2.781,2.781,0,0,0,.168-2.143,2.749,2.749,0,0,0-.664-1.1,5.279,5.279,0,0,0-1.142-.836c-.427-.248-.861-.479-1.259-.749a4.253,4.253,0,0,1-1.012-.953,4.422,4.422,0,0,1-.855-2.164,4.006,4.006,0,0,1,.119-1.562,2.338,2.338,0,0,1,.146-.4c.04-.088.066-.132.074-.129a5.426,5.426,0,0,0-.151,2.066,4.374,4.374,0,0,0,.863,2.037,4.086,4.086,0,0,0,.963.887c.383.257.811.482,1.246.735a5.384,5.384,0,0,1,1.2.884,2.962,2.962,0,0,1,.711,1.208,2.912,2.912,0,0,1-1.346,3.418,1.3,1.3,0,0,1-.538.2" transform="translate(-187.509 -72.32)" fill="#455a64"/><path d="M398.85,155.519a1.644,1.644,0,0,1-.471.1,6.816,6.816,0,0,1-1.314.04,8.14,8.14,0,0,1-4.078-1.4,6.456,6.456,0,0,1-2.675-3.365,2.781,2.781,0,0,1-.055-1.325,1.058,1.058,0,0,1,.182-.45,3.23,3.23,0,0,0,.056,1.721,6.633,6.633,0,0,0,2.644,3.2,8.564,8.564,0,0,0,3.942,1.435c1.085.118,1.764-.01,1.769.045" transform="translate(-188.447 -72.018)" fill="#455a64"/><path d="M407.532,154.51a6.457,6.457,0,0,1,5.039-2.283A4.641,4.641,0,0,1,416.8,155.5c.351,1.393-.077,2.845-.258,4.27s-.006,3.09,1.157,3.934a6.727,6.727,0,0,0,2.448.806,2.678,2.678,0,0,1,2.029,1.442,2.058,2.058,0,0,1-1.259,2.394,4.633,4.633,0,0,1-2.924.04,2.45,2.45,0,0,1-1.084,2.93,3.238,3.238,0,0,1-3.247-.136,4.846,4.846,0,0,1-1.983-2.688,2.41,2.41,0,0,1-3.325.632,3.487,3.487,0,0,1-1.345-3.342,6.521,6.521,0,0,1,1.685-3.341,8.262,8.262,0,0,0,1.177-1.5,1.907,1.907,0,0,0,.074-1.826,1.106,1.106,0,0,0-1.627-.327" transform="translate(-196.548 -73.514)" fill="#263238"/><path d="M409.758,159.3a1.259,1.259,0,0,1-1.1-.013,2.644,2.644,0,0,1-1.595-2.081,2.723,2.723,0,0,1,.174-1.483,2.835,2.835,0,0,1,.7-.992,1.8,1.8,0,0,1,.961-.536,8.639,8.639,0,0,0-.827.671,2.708,2.708,0,0,0-.742,2.3,2.335,2.335,0,0,0,2.427,2.135" transform="translate(-196.575 -74.464)" fill="#e8505b"/><path d="M383.691,174.838a1.73,1.73,0,0,1-.835-.082,4.5,4.5,0,0,1-2.962-2.614,1.734,1.734,0,0,1-.186-.818,5.168,5.168,0,0,1,.359.739,5.164,5.164,0,0,0,2.846,2.511,5.337,5.337,0,0,1,.778.264" transform="translate(-183.375 -82.74)" fill="#eb996e"/><path d="M411.38,171.885c0,.009-.063,0-.179-.026a1.783,1.783,0,0,1-.476-.212,2.6,2.6,0,0,1-1.038-1.58,3.23,3.23,0,0,1-.045-1.329,5.34,5.34,0,0,1,.482-1.438c.461-.964,1.188-1.879,1.725-2.943a5.218,5.218,0,0,0,.541-1.627,3.148,3.148,0,0,0-2.03-3.389,3.366,3.366,0,0,0-1.809-.113c-.429.09-.647.211-.658.187,0-.008.048-.042.151-.1a2.583,2.583,0,0,1,.482-.188,3.242,3.242,0,0,1,3.92,1.957,3.342,3.342,0,0,1,.206,1.679,5.4,5.4,0,0,1-.562,1.714c-.557,1.1-1.287,2-1.743,2.932a3.912,3.912,0,0,0-.474,2.615,2.587,2.587,0,0,0,.913,1.536,4.8,4.8,0,0,0,.6.324" transform="translate(-196.99 -76.79)" fill="#455a64"/><path d="M416.91,174.093a.75.75,0,0,1-.231.013,2.577,2.577,0,0,1-.652-.117,3.668,3.668,0,0,1-1.9-1.484,5.64,5.64,0,0,1-.822-3.483,35.613,35.613,0,0,1,.7-4.329,10.139,10.139,0,0,0,.154-2.226,5.738,5.738,0,0,0-.468-2,3.644,3.644,0,0,0-2.566-2.142,5.338,5.338,0,0,0-2.354.008c-.551.123-.843.245-.852.222a.741.741,0,0,1,.2-.107,4.509,4.509,0,0,1,.623-.217,5.146,5.146,0,0,1,2.42-.092,3.872,3.872,0,0,1,1.547.694,3.939,3.939,0,0,1,1.2,1.53,5.906,5.906,0,0,1,.506,2.084,10.132,10.132,0,0,1-.151,2.286,38.629,38.629,0,0,0-.722,4.3,5.533,5.533,0,0,0,.733,3.367,3.682,3.682,0,0,0,1.778,1.49,5.486,5.486,0,0,0,.85.2" transform="translate(-197.005 -76.324)" fill="#455a64"/><path d="M420.162,221.287l-7.785,6.074,3.267,5.364,9.376-6.907Z" transform="translate(-199.157 -106.87)" fill="#ffbe9d"/><path d="M369.566,176.868s.038-.649-1.66-.743a17.586,17.586,0,0,0-1.887-.063,4.334,4.334,0,0,1-.812-1.574,4.722,4.722,0,0,1,.363-1.6l1.718-.158-.466-1.166-1.211.084-3.42.411-1.361,5.988L351.5,195.471a4.5,4.5,0,0,0,1.782,6.551c2.413,1.166,5.647-1.31,6.541-3.837l5.166-19.382,1.817-1.42,2.6-.477" transform="translate(-169.387 -82.856)" fill="#ffbe9d"/><path d="M346,326.946l12.71-73.119-.018,0c.027-.108.053-.21.08-.317l0-.013h0c2.163-8.576,5.5-11.326,5.5-11.326l19.45,1.22c1.654,2.973,1.863,10.105,1.863,10.105.226.874-4.11,71.723-4.11,71.723l-6.505-.179-3.528-67.031-18.929,69.219Z" transform="translate(-167.099 -116.954)" fill="#ffbe9d"/><path d="M341.457,406.788l.025-.661,6.691.193-.058,2.178-.414.013c-1.841.046-9.364.111-10.583-.268-1.358-.423,4.338-1.456,4.338-1.456" transform="translate(-162.71 -196.138)" fill="#e8505b"/><g transform="translate(182.991 210.529)" opacity="0.6"><g clip-path="url(#i)"><path d="M353.913,408.891a2.141,2.141,0,0,1,.891-1.3,2.368,2.368,0,0,1,1.571-.408l-.052,1.731Z" transform="translate(-353.913 -407.173)" fill="#fff"/></g></g><g transform="translate(174.179 211.246)" opacity="0.6"><g clip-path="url(#j)"><path d="M338.652,408.558s-2,.479-1.762.789,7.843.51,11.207.326l-.007-.139-8.873-.163s-.177-.787-.565-.813" transform="translate(-336.87 -408.558)" fill="#fff"/></g></g><path d="M348.213,410.172a.619.619,0,0,1-.115.008l-.329.01-1.212.017c-1.023.007-2.438,0-4-.04s-2.975-.105-4-.165l-1.209-.079-.328-.027a.682.682,0,0,1-.114-.014.632.632,0,0,1,.115,0l.329.013,1.21.055c1.022.046,2.434.1,4,.143s2.974.055,4,.062l1.212.007.33,0a.691.691,0,0,1,.115.007" transform="translate(-162.71 -197.951)" fill="#263238"/><path d="M340.836,409.4a2.432,2.432,0,0,0-.21-.543,2.608,2.608,0,0,0-.4-.442.883.883,0,0,1,.47.4.784.784,0,0,1,.14.581" transform="translate(-164.311 -197.24)" fill="#263238"/><path d="M344.944,408.133c-.019.01-.11-.1-.2-.243s-.153-.271-.133-.282.11.1.2.243.153.271.133.282" transform="translate(-166.426 -196.853)" fill="#263238"/><path d="M345.94,407.8c-.016.015-.118-.053-.23-.152s-.19-.191-.175-.206.119.053.231.152.19.191.175.206" transform="translate(-166.874 -196.773)" fill="#263238"/><path d="M346.364,406.985a1.633,1.633,0,1,1-.347-.043.841.841,0,0,1,.347.043" transform="translate(-166.94 -196.531)" fill="#263238"/><path d="M346.526,406.228a.715.715,0,0,1-.391.095.724.724,0,0,1-.4-.06,2.339,2.339,0,0,1,.4-.015,2.3,2.3,0,0,1,.4-.02" transform="translate(-166.972 -196.184)" fill="#263238"/><path d="M343.693,407.027a1.33,1.33,0,0,1-.428-.014,2.68,2.68,0,0,1-.453-.1,1.326,1.326,0,0,1-.258-.107.218.218,0,0,1-.1-.127.152.152,0,0,1,.07-.157.82.82,0,0,1,.964.239.686.686,0,0,1,.131.269c.015.069.013.107.008.108a1.08,1.08,0,0,0-.185-.344.775.775,0,0,0-.359-.231.71.71,0,0,0-.511.019c-.069.045-.045.12.029.164a1.356,1.356,0,0,0,.238.1,3.119,3.119,0,0,0,.437.118c.255.049.418.054.418.066" transform="translate(-165.385 -196.293)" fill="#263238"/><path d="M344.6,406.891a.37.37,0,0,1-.041-.278.623.623,0,0,1,.126-.287.434.434,0,0,1,.362-.193.158.158,0,0,1,.126.187.421.421,0,0,1-.078.176,1.228,1.228,0,0,1-.209.235.623.623,0,0,1-.25.155c-.007-.01.087-.069.209-.192a1.392,1.392,0,0,0,.186-.234c.062-.083.107-.233,0-.253a.388.388,0,0,0-.287.161.642.642,0,0,0-.129.255,1.345,1.345,0,0,0-.015.268" transform="translate(-166.399 -196.14)" fill="#263238"/><path d="M356.348,407.112c0,.014-.19-.022-.492,0a2.254,2.254,0,0,0-1.086.383,2.02,2.02,0,0,0-.7.864c-.11.263-.125.441-.14.439a.323.323,0,0,1,0-.125,1.512,1.512,0,0,1,.083-.332,1.923,1.923,0,0,1,.7-.906,2.162,2.162,0,0,1,1.131-.376,1.861,1.861,0,0,1,.366.018.411.411,0,0,1,.13.032" transform="translate(-170.929 -196.589)" fill="#263238"/><path d="M350.509,409.246a5.88,5.88,0,0,1-1.948-.034c0-.022.437.014.974.023s.972-.011.974.011" transform="translate(-168.337 -197.625)" fill="#263238"/><path d="M354.666,409.345c.016.016-.038.085-.085.176s-.074.173-.1.171-.031-.1.024-.2.144-.159.158-.144" transform="translate(-171.189 -197.691)" fill="#263238"/><path d="M355.6,408.268c.016.015-.029.078-.1.141s-.141.1-.157.087.029-.078.1-.141.141-.1.156-.087" transform="translate(-171.609 -197.171)" fill="#263238"/><path d="M356.856,407.768c-.006.021-.094.018-.193.048s-.171.076-.188.061.042-.1.164-.133.223.005.217.024" transform="translate(-172.158 -196.912)" fill="#263238"/><path d="M358,407.578c.007.02-.032.05-.088.069s-.107.018-.115,0,.032-.05.088-.069.108-.018.115,0" transform="translate(-172.798 -196.832)" fill="#263238"/><path d="M408.9,185.8a12.815,12.815,0,0,1,5.148,2.027c6.15,3.986,16.435,12.417,15.582,16.321-.726,3.324-8.748,7.359-8.748,7.359l-5.21-6.266,3.194-1.827-7.851-5.223Z" transform="translate(-197.478 -89.732)" fill="#263238"/><path d="M384.111,198.148l-.255.935-.9,4.321-.223,6.333c4.665,6.007,4.735,11.064,4.735,11.064L363.9,223.553a45.966,45.966,0,0,1,1.7-10.516c1.363-2.313,1.3-9.231,1.043-9.483-1.472-1.459-1.829-2.528-.654-4.4,0,0-7.3,7.673-8.057,8.362-2.581,2.366-5.063,1.706-6.215.678-3.226-2.879.086-6.592.086-6.592l12.3-14.1a6.13,6.13,0,0,1,3.2-1.949c1.312-.309,2.635-.467,2.635-.467l8.215.07a13.817,13.817,0,0,1,2.447.3,5.876,5.876,0,0,1,3.588,4.447,26.579,26.579,0,0,1-.081,8.245" transform="translate(-169.18 -89.387)" fill="#263238"/><path d="M414.626,199.424a3.3,3.3,0,0,1,.05.682c.011.44,0,1.078-.044,1.864a49.578,49.578,0,0,1-.811,6.091c-.155.8-.316,1.579-.486,2.3l0-.025c-.072,1.83-.145,3.413-.207,4.538-.033.523-.061.961-.084,1.317a.24.24,0,1,1-.088,0c0-.357.005-.8.009-1.32.017-1.127.055-2.71.112-4.541v-.012l0-.013c.162-.712.32-1.487.474-2.287.448-2.349.746-4.5.886-6.055.071-.78.108-1.413.129-1.851a3.338,3.338,0,0,1,.055-.681" transform="translate(-199.437 -96.311)" fill="#455a64"/><path d="M416.336,211.673a98.129,98.129,0,0,1,8.45,5.847,98.224,98.224,0,0,1-8.45-5.847" transform="translate(-201.069 -102.226)" fill="#455a64"/><path d="M381.664,193.816c.007-.007.048.025.121.091a2.456,2.456,0,0,1,.293.32,3.553,3.553,0,0,1,.637,1.46,4.819,4.819,0,0,1-.134,2.361,9.61,9.61,0,0,1-1.322,2.569,9.2,9.2,0,0,1-.972,1.143c-.342.348-.708.634-1.029.927-.651.584-1.214,1.138-1.678,1.611s-.83.866-1.084,1.137a2.573,2.573,0,0,1-.412.407,2.26,2.26,0,0,1,.332-.476c.23-.293.576-.707,1.025-1.2s1-1.064,1.649-1.663c.324-.3.683-.593,1.009-.93a9.318,9.318,0,0,0,.94-1.114,9.879,9.879,0,0,0,1.3-2.487,4.806,4.806,0,0,0,.183-2.251,4.227,4.227,0,0,0-.864-1.906" transform="translate(-181.629 -93.603)" fill="#455a64"/><path d="M381.572,231.144l.272-3.165h16.07l-.087,2.473Z" transform="translate(-184.279 -110.102)" fill="#455a64"/><path d="M353.1,215.826c.029.04-.406.3-.891.931a4.283,4.283,0,0,0,.229,5.615c.534.585.989.812.963.855-.007.014-.128-.027-.328-.137a3.66,3.66,0,0,1-.772-.587,4.249,4.249,0,0,1-.238-5.867,3.66,3.66,0,0,1,.722-.647c.191-.126.308-.177.316-.163" transform="translate(-169.515 -104.232)" fill="#455a64"/><path d="M408.536,402.62l1.823,4.24-8.155-.1-.172-4.322Z" transform="translate(-194.16 -194.358)" fill="#e8505b"/><path d="M402.248,409.263a7.475,7.475,0,0,0,1.142.058c.706.012,1.681.008,2.757-.009l2.753-.057a8.559,8.559,0,0,0,1.141-.057,7.478,7.478,0,0,0-1.142-.056c-.706-.011-1.682-.007-2.758.01l-2.752.056a8.635,8.635,0,0,0-1.141.055" transform="translate(-194.265 -197.591)" fill="#263238"/><path d="M408.762,402.609a11.452,11.452,0,0,0,.19,3.426,11.452,11.452,0,0,0-.19-3.426" transform="translate(-197.379 -194.439)" fill="#263238"/><g transform="translate(207.983 211.544)" opacity="0.6"><g clip-path="url(#k)"><path d="M410.451,410.182l-8.151-.273-.052-.773,7.794.067.413.888" transform="translate(-402.248 -409.135)" fill="#fff"/></g></g><path d="M381.839,239.742c6.135,19.364-1.774,42.869.123,65.431.186,2.217,1.086,4.869-.987,6.13a3.386,3.386,0,0,1-1.87.457c-1.657-.054-3.041-.914-4.519-1.5a13.428,13.428,0,0,0-8.893-.344c-1.958.611-3.9,1.689-5.926,1.382-2.692-.407-4.437-3.068-6.916-4.2-2.321-1.056-5-.662-7.549-.725l-.077,0a5.719,5.719,0,0,1-5.281-7.242c3.7-13.565,15.987-57.63,21.425-65.675l16.256-.692a23.655,23.655,0,0,1,4.215,6.981" transform="translate(-164.076 -112.412)" fill="#529d2e"/><path d="M403.23,263.892a7.232,7.232,0,0,1-.884,1.112,25.448,25.448,0,0,1-2.4,2.453,16.1,16.1,0,0,1-2.832,1.948,6.223,6.223,0,0,1-1.291.6,40.165,40.165,0,0,0,3.946-2.749c1-.871,1.824-1.754,2.436-2.378a7.606,7.606,0,0,1,1.024-.982" transform="translate(-191.161 -127.446)" fill="#263238"/><g transform="translate(195.298 143.753)" opacity="0.1"><g clip-path="url(#l)"><path d="M387.307,278.025a69.259,69.259,0,0,0-2.723,41.447c.291,1.184.589,2.529-.085,3.544-.873,1.315-2.985,1.224-4.18.193A7.17,7.17,0,0,1,378.348,319c-2.232-11.552,1.81-23.161,6.177-34.087" transform="translate(-377.714 -278.025)"/></g></g></g><rect width="30.809" height="1.498" transform="translate(81.88 150.279)" fill="#263238"/><path d="M143.728,273.317l-5.779-21.656H162l5.233,21.656Z" transform="translate(-66.622 -121.539)" fill="#263238"/><path d="M167.062,272.612h-21.49l-5-19.016h21.6Z" transform="translate(-67.888 -122.474)" fill="#f5f5f5"/><path d="M140.929,254.963h21.605l-.363-1.367h-21.6Z" transform="translate(-67.888 -122.474)" fill="#ebebeb"/><g clip-path="url(#a)"><path d="M145.777,254.7a.236.236,0,1,0,.236-.236.236.236,0,0,0-.236.236" transform="translate(-70.403 -122.892)" fill="#fafafa"/><path d="M144.205,254.7a.236.236,0,1,0,.236-.236.236.236,0,0,0-.236.236" transform="translate(-69.644 -122.892)" fill="#fafafa"/><path d="M142.633,254.7a.236.236,0,1,0,.236-.236.236.236,0,0,0-.236.236" transform="translate(-68.884 -122.892)" fill="#fafafa"/><path d="M169.1,269.132l2.366,2.707a3.343,3.343,0,0,0,1.453-2.722,3.838,3.838,0,0,0-7.637.03Z" transform="translate(-79.822 -128.311)" fill="#529d2e"/><path d="M168.5,273.137a5.388,5.388,0,0,1,.675.677c.422.453,1.026,1.115,1.749,1.923l.082.091-.1.077a4.1,4.1,0,0,1-3.989.391,3.907,3.907,0,0,1-1.641-1.32,3.361,3.361,0,0,1-.609-1.777l0-.12h.118c1.132-.006,2.069,0,2.719.009a5.807,5.807,0,0,1,1,.049,7.009,7.009,0,0,1-1.041.08c-.652.03-1.573.064-2.676.093l.114-.12a3.183,3.183,0,0,0,.589,1.637,3.7,3.7,0,0,0,1.537,1.222,3.922,3.922,0,0,0,3.75-.33l-.02.168c-.685-.8-1.25-1.478-1.645-1.96a6.55,6.55,0,0,1-.608-.79" transform="translate(-79.523 -131.882)" fill="#263238"/><path d="M169.1,268.2a.214.214,0,1,0,.213-.215.215.215,0,0,0-.213.215" transform="translate(-81.665 -129.425)" fill="#263238"/><path d="M160.865,265.272a12.25,12.25,0,0,1,2.556-.145h.4l.038.039a10.045,10.045,0,0,1,1.479,1.655,10.135,10.135,0,0,1-1.666-1.466l.094.039-.341,0a12.234,12.234,0,0,1-2.557-.125" transform="translate(-77.689 -128.043)" fill="#263238"/><path d="M150.709,266.941a7.979,7.979,0,0,1-.245-1c-.145-.657-.35-1.616-.585-2.791l-.026-.129h.133l5.346-.046.133.11h0v.006l0,.008,0,.016.006.032.012.064.024.128.048.253c.032.169.063.336.095.5q.093.5.183.977l.337,1.825.027.145h-.146c-1.606,0-2.958-.023-3.9-.042l-1.085-.029a1.536,1.536,0,0,1-.367-.029,2.45,2.45,0,0,1,.414-.033l1.109-.038c.945-.026,2.267-.056,3.825-.073l-.119.145c-.112-.576-.231-1.186-.355-1.822l-.188-.976-.1-.5-.048-.253-.024-.128-.012-.064-.006-.032,0-.016,0-.008v-.006h0c-.119-.1.161.132.132.109l-5.347,0,.108-.13c.2,1.136.359,2.082.465,2.752a10.383,10.383,0,0,1,.149,1.078" transform="translate(-72.371 -127.003)" fill="#263238"/><path d="M168.481,276.531a.214.214,0,1,0,.214-.215.215.215,0,0,0-.214.215" transform="translate(-81.368 -133.446)" fill="#263238"/><path d="M161.383,276.627a14.092,14.092,0,0,1,3.884-.016,14.042,14.042,0,0,1-3.884.016" transform="translate(-77.94 -133.528)" fill="#263238"/><path d="M150.751,277.244a4.431,4.431,0,0,1-.235-.715c-.141-.477-.343-1.18-.582-2.058l-.034-.124.131,0c1.456-.026,3.393-.047,5.514-.055l.131.1h0v0l0,.006,0,.011.006.023.012.046.024.093.047.184.093.364.181.714.341,1.354.04.158h-.162c-1.635,0-3.029-.022-4-.041l-1.128-.031a1.54,1.54,0,0,1-.384-.033,2.424,2.424,0,0,1,.432-.036l1.151-.04c.978-.027,2.341-.057,3.93-.073l-.121.158c-.113-.433-.232-.885-.353-1.351q-.092-.351-.185-.713l-.094-.364-.047-.184-.024-.092-.012-.047-.006-.023,0-.012,0-.006v0h0l.131.1c-2.121.008-4.058,0-5.514-.011l.1-.127c.2.846.361,1.541.468,2.033a6.131,6.131,0,0,1,.151.791" transform="translate(-72.394 -132.457)" fill="#263238"/><path d="M152.328,265.4a12.508,12.508,0,0,1,3.658-.015,12.511,12.511,0,0,1-3.658.015" transform="translate(-73.567 -128.108)" fill="#263238"/><path d="M152.415,266.561a12.659,12.659,0,0,1,3.68-.014,12.659,12.659,0,0,1-3.68.014" transform="translate(-73.609 -128.667)" fill="#263238"/><path d="M152.626,267.679a11.772,11.772,0,0,1,3.551-.014,11.769,11.769,0,0,1-3.551.014" transform="translate(-73.71 -129.206)" fill="#263238"/><path d="M152.537,276.534a11.352,11.352,0,0,1,3.487-.014,11.352,11.352,0,0,1-3.487.014" transform="translate(-73.667 -133.483)" fill="#263238"/><path d="M152.956,277.816a8.272,8.272,0,0,1,2.974-.012,8.274,8.274,0,0,1-2.974.012" transform="translate(-73.87 -134.103)" fill="#263238"/><path d="M87.8,293.407v2.84h1.86v57.5h3.816v-57.5h20.253v57.5h3.816v-57.5H205.4v57.488h3.816V296.247h1.651v-2.84Z" transform="translate(-42.401 -141.7)" fill="#263238"/><path d="M247.832,334.748a29.684,29.684,0,0,0,4.963,0,29.529,29.529,0,0,0-4.963,0" transform="translate(-119.69 -161.616)" fill="#263238"/><path d="M177.8,335.857c-.074,0-.134-.029-.134-.066s.06-.066.134-.066.134.029.134.066-.06.066-.134.066" transform="translate(-85.803 -162.138)" fill="#455a64"/><path d="M204.717,216.478,190.463,202l-.308-1.568c-.059-.287-.119-.607-.174-.971a3.858,3.858,0,0,1,.022-1.276,5.786,5.786,0,0,1,.44-1.518c.24-.419-.144-.925-.541-.752a4.042,4.042,0,0,0-1.235,2.876c-.148,1.565-1.483-.511-1.983-1.259s-2.15-2.987-2.494-3.014c-.505-.039-.634.508-.118,1.243s1.912,3.049,1.517,3.3l-.015,0a1.864,1.864,0,0,0-1.969.977c-.36.691-.761,1.671-.432,2.122a25.654,25.654,0,0,0,2.273,2.407l.477.411s12.332,17.869,15.019,18.449c1.672.361,27.514,2.505,27.514,2.505l1.949-7.12Z" transform="translate(-88.403 -93.94)" fill="#b78876"/><path d="M183.072,207.77l1.318,1.266a1.57,1.57,0,0,0,.5.365.473.473,0,0,0,.654-.623,1.564,1.564,0,0,0-.3-.469l-1.281-1.54" transform="translate(-88.414 -99.859)" fill="#b78876"/><path d="M183.954,206.768c.028-.024.276.221.654.636l.651.738a2.446,2.446,0,0,1,.363.492.7.7,0,0,1-.036.733.646.646,0,0,1-.721.165,1.456,1.456,0,0,1-.517-.364l-.69-.7a3.118,3.118,0,0,1-.588-.7,3.1,3.1,0,0,1,.72.559l.73.661a1.284,1.284,0,0,0,.431.294.392.392,0,0,0,.424-.083.448.448,0,0,0,.009-.452,2.421,2.421,0,0,0-.316-.447l-.608-.775a3.114,3.114,0,0,1-.507-.758" transform="translate(-88.413 -99.857)" fill="#aa6550"/><path d="M184.882,205.988l1.318,1.266a1.575,1.575,0,0,0,.5.365.473.473,0,0,0,.654-.623,1.564,1.564,0,0,0-.3-.469l-1.281-1.54" transform="translate(-89.288 -98.998)" fill="#b78876"/><path d="M185.764,204.985c.028-.024.276.221.653.636l.652.738a2.446,2.446,0,0,1,.363.492.7.7,0,0,1-.036.733.646.646,0,0,1-.721.165,1.462,1.462,0,0,1-.517-.363l-.69-.7a3.119,3.119,0,0,1-.588-.7,3.1,3.1,0,0,1,.72.559l.73.661a1.279,1.279,0,0,0,.431.294.392.392,0,0,0,.424-.083.447.447,0,0,0,.009-.452,2.415,2.415,0,0,0-.316-.447l-.608-.775a3.094,3.094,0,0,1-.507-.758" transform="translate(-89.287 -98.996)" fill="#aa6550"/><path d="M186.868,204.526l1.318,1.266a1.57,1.57,0,0,0,.5.365.473.473,0,0,0,.654-.623,1.564,1.564,0,0,0-.3-.469l-1.281-1.54" transform="translate(-90.248 -98.292)" fill="#b78876"/><path d="M187.75,203.524c.028-.024.276.221.654.636l.651.738a2.446,2.446,0,0,1,.363.492.7.7,0,0,1-.036.733.646.646,0,0,1-.721.165,1.456,1.456,0,0,1-.517-.364l-.69-.7a3.119,3.119,0,0,1-.588-.7,3.1,3.1,0,0,1,.72.559l.73.661a1.284,1.284,0,0,0,.431.294.392.392,0,0,0,.424-.083.447.447,0,0,0,.009-.452,2.415,2.415,0,0,0-.316-.447l-.608-.775a3.114,3.114,0,0,1-.507-.758" transform="translate(-90.246 -98.291)" fill="#aa6550"/><path d="M190.9,207.691c0-.042.327-.109.8.038l-.152.13a2.256,2.256,0,0,1-.034-.906,2.305,2.305,0,0,1,.494-1.1c.2-.237.374-.331.4-.306a4.717,4.717,0,0,0-.624,1.451,2.7,2.7,0,0,0-.008.817l.028.207-.18-.077c-.413-.176-.726-.2-.724-.252" transform="translate(-92.194 -99.266)" fill="#aa6550"/><path d="M249.03,192.725l.061,19.837-7.735.369-.313-4.754s-3.732.567-4.511-2.24c-.5-1.793-.374-15.652-.374-15.652Z" transform="translate(-114.045 -91.897)" fill="#b78876"/><path d="M232.145,189.334c.573,1.185,3.3,3.354,3.3,3.354l1.233,3.305c1.071-.839,2.509-.791,2.781,1.092.2,1.36-1.494,1.635-1.494,1.635a24.645,24.645,0,0,0,3.086,4.624,4.564,4.564,0,0,0,4.1,1.927h1.855s3.8-3.172,3.046-11.528S241.8,187.825,240,185.738c-2.92-3.4-9.772-.36-7.858,3.6" transform="translate(-111.953 -88.991)" fill="#263238"/><path d="M250.015,203.709a2.668,2.668,0,0,1-.918-.042,4.777,4.777,0,0,1-2.216-1.14,12.051,12.051,0,0,1-2.24-2.963,10.667,10.667,0,0,0-2.842-3.477,11.394,11.394,0,0,0-4.285-1.361,8.089,8.089,0,0,1-3.46-1.317,3.717,3.717,0,0,1-1.386-2.054,2.132,2.132,0,0,1-.038-.917,3.159,3.159,0,0,0,.079.907,3.718,3.718,0,0,0,1.392,2,8.09,8.09,0,0,0,3.433,1.28,11.371,11.371,0,0,1,4.327,1.37,10.667,10.667,0,0,1,2.867,3.514,12.162,12.162,0,0,0,2.205,2.956,4.821,4.821,0,0,0,2.174,1.157,3.81,3.81,0,0,0,.673.08c.155,0,.237,0,.237,0" transform="translate(-112.333 -91.972)" fill="#455a64"/><path d="M250.545,195.881s-.139-.04-.4-.121a6.046,6.046,0,0,0-1.164-.259,2.612,2.612,0,0,0-1.792.4,1.47,1.47,0,0,0-.623.941,1.308,1.308,0,0,0,.361,1.184,1,1,0,0,0,.625.248,1.32,1.32,0,0,0,.689-.188,2.116,2.116,0,0,0,.935-1.194,2.96,2.96,0,0,0-2.5-3.883,5.187,5.187,0,0,0-1.922.252,13.509,13.509,0,0,1-1.99.478,8.1,8.1,0,0,1-2.11.005,6.976,6.976,0,0,1-2.035-.564,2.46,2.46,0,0,1-1.392-1.468,1.92,1.92,0,0,1,.473-1.874,1.653,1.653,0,0,1,1.817-.268,1.386,1.386,0,0,1,.673.634,1.518,1.518,0,0,1,.143.889,2.024,2.024,0,0,1-.905,1.418,2.906,2.906,0,0,1-1.528.425,4.494,4.494,0,0,1-1.449-.223,5.186,5.186,0,0,1-2.129-1.313,5.451,5.451,0,0,1-1.087-1.551,5.511,5.511,0,0,1-.385-1.136c-.046-.271-.065-.413-.065-.413s.033.14.086.408a5.834,5.834,0,0,0,.4,1.123,5.475,5.475,0,0,0,1.092,1.527,5.149,5.149,0,0,0,2.11,1.283,4.442,4.442,0,0,0,1.424.213,2.828,2.828,0,0,0,1.481-.417,1.932,1.932,0,0,0,.86-1.355,1.329,1.329,0,0,0-.764-1.421,1.551,1.551,0,0,0-1.7.252,1.818,1.818,0,0,0-.443,1.771,2.358,2.358,0,0,0,1.338,1.4,6.889,6.889,0,0,0,2,.554,8,8,0,0,0,2.082-.005,13.587,13.587,0,0,0,1.976-.473,5.277,5.277,0,0,1,1.961-.253,3.055,3.055,0,0,1,2.57,4.013,2.2,2.2,0,0,1-.979,1.237,1.4,1.4,0,0,1-.733.2,1.076,1.076,0,0,1-.674-.271,1.377,1.377,0,0,1-.377-1.252,1.53,1.53,0,0,1,.656-.978,2.644,2.644,0,0,1,1.831-.393,5.692,5.692,0,0,1,1.166.28c.26.088.393.142.393.142" transform="translate(-112.425 -90.94)" fill="#455a64"/><path d="M245.3,393.255l-2.528-3.243,6.046-4.774,3.749,4.706-.356.32c-1.6,1.41-8.21,7.057-9.592,7.6-1.542.6,2.681-4.608,2.681-4.608" transform="translate(-117.007 -186.05)" fill="#e8505b"/><g transform="translate(125.272 203.766)" opacity="0.4"><g clip-path="url(#n)"><path d="M243.306,400.169s-1.39,1.941-.931,2.06,7.358-5.336,10.191-8.009l-.117-.127-7.993,6.432s-.786-.619-1.149-.356" transform="translate(-242.282 -394.093)" fill="#fff"/></g></g><path d="M252.551,393.941a.683.683,0,0,1-.1.094l-.284.254-1.061.916c-.9.767-2.16,1.81-3.576,2.931s-2.72,2.108-3.673,2.81l-1.134.823-.312.218a.681.681,0,0,1-.113.071.716.716,0,0,1,.1-.086l.3-.232,1.116-.846c.943-.715,2.239-1.709,3.655-2.83s2.68-2.155,3.591-2.908l1.08-.893.3-.24a.709.709,0,0,1,.107-.079" transform="translate(-117.02 -190.253)" fill="#263238"/><path d="M245.394,406.214a2.039,2.039,0,0,0-1.327-.487,1.244,1.244,0,0,1,1.327.487" transform="translate(-117.872 -195.922)" fill="#263238"/><path d="M248.028,401.994a.811.811,0,0,1-.374-.081c-.2-.069-.352-.145-.343-.169a.8.8,0,0,1,.374.081c.2.069.352.145.343.169" transform="translate(-119.438 -194.018)" fill="#263238"/><path d="M248.646,400.921c0,.026-.147.038-.325.026s-.321-.041-.32-.067.147-.037.325-.026.321.041.32.067" transform="translate(-119.772 -193.59)" fill="#263238"/><path d="M248.388,399.409c.016.02-.111.149-.283.29s-.326.237-.342.217.111-.149.283-.29.326-.237.342-.217" transform="translate(-119.656 -192.892)" fill="#263238"/><path d="M247.936,398.469a1.132,1.132,0,0,1-.673.619c-.013-.024.156-.139.339-.308s.312-.327.334-.312" transform="translate(-119.415 -192.439)" fill="#263238"/><path d="M246.139,401.405a1.436,1.436,0,0,1-.39.3,2.882,2.882,0,0,1-.486.236,1.406,1.406,0,0,1-.313.089.266.266,0,0,1-.192-.044.194.194,0,0,1-.064-.2.908.908,0,0,1,1.045-.488.888.888,0,0,1,.332.159c.068.054.1.093.093.1a1.4,1.4,0,0,0-.438-.191.892.892,0,0,0-.5.047.767.767,0,0,0-.438.4c-.026.094.056.148.157.134a1.5,1.5,0,0,0,.292-.079,3.383,3.383,0,0,0,.482-.212c.265-.143.414-.259.423-.247" transform="translate(-118.171 -193.794)" fill="#263238"/><path d="M246.978,400.713c0,.009-.138-.046-.258-.234a.815.815,0,0,1-.118-.368.5.5,0,0,1,.167-.453.2.2,0,0,1,.261.085.534.534,0,0,1,.071.225,1.488,1.488,0,0,1,0,.38.713.713,0,0,1-.1.333c-.014,0,.022-.131.032-.339a1.743,1.743,0,0,0-.021-.361c-.012-.124-.092-.3-.2-.241s-.127.242-.126.367a.822.822,0,0,0,.09.339,1.759,1.759,0,0,0,.2.267" transform="translate(-119.096 -193.003)" fill="#263238"/><path d="M258.2,390.931c.009.014-.186.12-.434.369a2.413,2.413,0,0,0-.585,2.513c.113.332.241.513.226.522a.454.454,0,0,1-.1-.122,2.015,2.015,0,0,1-.192-.378,2.34,2.34,0,0,1,.6-2.583,2,2,0,0,1,.339-.254.451.451,0,0,1,.141-.067" transform="translate(-124.097 -188.799)" fill="#263238"/><path d="M254.3,387.026a26.891,26.891,0,0,1,2,2.459,26.861,26.861,0,0,1-2-2.459" transform="translate(-122.813 -186.913)" fill="#263238"/><path d="M253.849,397.618a6.329,6.329,0,0,1-1.753,1.413c-.014-.023.4-.311.881-.7s.853-.732.872-.713" transform="translate(-121.749 -192.029)" fill="#263238"/><path d="M257.737,395.8c.026,0,.033.109.065.232s.073.22.051.235-.107-.071-.142-.213,0-.259.026-.254" transform="translate(-124.454 -191.153)" fill="#263238"/><path d="M257.719,394.048c.026,0,.036.1.024.209s-.043.2-.069.2-.036-.1-.024-.209.043-.2.069-.2" transform="translate(-124.429 -190.305)" fill="#263238"/><path d="M258.382,392.574c.012.024-.069.087-.133.188s-.09.2-.117.2-.042-.125.039-.249.2-.161.211-.138" transform="translate(-124.654 -189.589)" fill="#263238"/><path d="M259.2,391.651c.022.013.011.071-.023.131s-.082.1-.1.083-.013-.072.023-.131.08-.1.1-.083" transform="translate(-125.115 -189.146)" fill="#263238"/><g transform="translate(127.283 201.556)" opacity="0.3"><g clip-path="url(#o)"><path d="M252.852,390.238l-6.116,4.673-.566-.735,6.427-4.358Z" transform="translate(-246.17 -389.818)"/></g></g><path d="M189.489,403.176l.011-4.113,7.7-.028.047,6.016-.477.033c-2.126.126-10.815.49-12.238.065-1.586-.475,4.953-1.973,4.953-1.973" transform="translate(-89.001 -192.713)" fill="#e8505b"/><g transform="translate(95.264 211.308)" opacity="0.4"><g clip-path="url(#p)"><path d="M186.273,408.679s-2.292.67-2,1.047,9.083.339,12.961-.017l-.013-.172-10.259.131s-.236-.972-.685-.989" transform="translate(-184.244 -408.679)" fill="#fff"/></g></g><path d="M197.358,410.325a.729.729,0,0,1-.132.015l-.381.025-1.4.066c-1.182.048-2.817.092-4.622.1s-3.441-.019-4.624-.055l-1.4-.052-.381-.021a.728.728,0,0,1-.132-.013.756.756,0,0,1,.133-.005l.381,0,1.4.023c1.183.019,2.817.036,4.622.027s3.438-.043,4.621-.073l1.4-.037.381-.007a.751.751,0,0,1,.133,0" transform="translate(-89.001 -198.164)" fill="#263238"/><path d="M188.8,409.7a2.029,2.029,0,0,0-.744-1.2,1.244,1.244,0,0,1,.744,1.2" transform="translate(-90.822 -197.283)" fill="#263238"/><path d="M193.5,407.977c-.022.014-.131-.118-.244-.295s-.187-.331-.165-.345.131.118.244.295.187.331.165.345" transform="translate(-93.25 -196.722)" fill="#263238"/><path d="M194.636,407.528c-.017.019-.139-.062-.272-.18s-.227-.231-.21-.25.139.061.272.18.228.231.21.25" transform="translate(-93.765 -196.606)" fill="#263238"/><path d="M195.093,406.484a1.765,1.765,0,0,1-.805.012,1.764,1.764,0,0,1,.805-.012" transform="translate(-93.831 -196.291)" fill="#263238"/><path d="M195.251,405.523a1.13,1.13,0,0,1-.911.072,2.512,2.512,0,0,1,.456-.033,2.481,2.481,0,0,1,.456-.039" transform="translate(-93.856 -195.843)" fill="#263238"/><path d="M192.016,406.634a1.427,1.427,0,0,1-.5,0,2.879,2.879,0,0,1-.527-.114,1.454,1.454,0,0,1-.3-.123.266.266,0,0,1-.123-.154.194.194,0,0,1,.074-.2.908.908,0,0,1,1.124.261.877.877,0,0,1,.163.33.271.271,0,0,1,.013.133,1.388,1.388,0,0,0-.227-.421.889.889,0,0,0-.424-.273.768.768,0,0,0-.59.042c-.079.058-.048.151.04.2a1.5,1.5,0,0,0,.279.118,3.453,3.453,0,0,0,.51.13c.3.051.486.051.486.066" transform="translate(-92.032 -196.051)" fill="#263238"/><path d="M193.068,406.429a.487.487,0,0,1-.058-.343.812.812,0,0,1,.133-.362.5.5,0,0,1,.411-.254.2.2,0,0,1,.154.228.539.539,0,0,1-.083.221,1.487,1.487,0,0,1-.232.3.709.709,0,0,1-.283.2c-.008-.012.1-.089.234-.247a1.717,1.717,0,0,0,.206-.3c.068-.1.113-.293-.011-.315s-.25.112-.325.211a.818.818,0,0,0-.139.323,1.84,1.84,0,0,0-.007.333" transform="translate(-93.211 -195.821)" fill="#263238"/><path d="M206.7,406.206c0,.018-.221-.02-.569.023a2.412,2.412,0,0,0-2.011,1.617c-.116.33-.127.553-.144.55a.457.457,0,0,1,0-.155,2,2,0,0,1,.083-.416,2.342,2.342,0,0,1,2.066-1.662,2.056,2.056,0,0,1,.424.009.437.437,0,0,1,.152.034" transform="translate(-98.506 -196.153)" fill="#263238"/><path d="M207.651,400.06a26.937,26.937,0,0,1,.054,3.165,26.937,26.937,0,0,1-.054-3.165" transform="translate(-100.272 -193.208)" fill="#263238"/><path d="M199.973,409.122a6.334,6.334,0,0,1-2.251.031c0-.027.506,0,1.126-.008s1.122-.05,1.125-.023" transform="translate(-95.489 -197.58)" fill="#263238"/><path d="M204.792,409.11c.019.019-.041.107-.092.222s-.079.218-.1.217-.04-.122.02-.255.16-.2.177-.184" transform="translate(-98.798 -197.578)" fill="#263238"/><path d="M205.818,407.736c.019.018-.031.1-.11.179s-.159.132-.177.114.031-.1.111-.179.158-.132.177-.114" transform="translate(-99.259 -196.913)" fill="#263238"/><path d="M207.252,407.065c-.005.026-.108.026-.221.066s-.194.1-.215.083.044-.124.185-.172.259,0,.251.022" transform="translate(-99.88 -196.571)" fill="#263238"/><path d="M208.565,406.79c.009.024-.035.064-.1.089s-.124.026-.133,0,.035-.064.1-.088.124-.026.133,0" transform="translate(-100.614 -196.45)" fill="#263238"/><g transform="translate(100.484 208.774)" opacity="0.3"><g clip-path="url(#q)"><path d="M202.106,404.748l-7.766.008.008-.928,7.729-.051Z" transform="translate(-194.34 -403.778)"/></g></g><path d="M206.921,266.58l-3.085,9.289c-.833,2.509-3.025,2.938-5.668,2.938H181.009v-3.849l15.676-2.238,3.736-9.544Z" transform="translate(-87.418 -127.1)" fill="#b78876"/><path d="M169.352,281.267l-1.361-.644s-1.467-2.837-1.8-2.723-.435.948.154,2.251l-1.809-.517s-3.921,1.812-3.748,2.056a.905.905,0,0,0,1.348.385c.854-.437,1.973-.949,1.973-.949l2.113.6-2.725.346-2.562,2.331a1.255,1.255,0,0,0,1.567-.039l6.655,1.43,2.085.118v-3.849Z" transform="translate(-77.648 -134.21)" fill="#b78876"/><path d="M164.1,289.139c.028.019.152-.178.392-.44a2.017,2.017,0,0,1,.484-.374,1.981,1.981,0,0,1,.719-.188,9.959,9.959,0,0,0,2-.341,9.914,9.914,0,0,0-2.023.134,1.965,1.965,0,0,0-.789.228,1.852,1.852,0,0,0-.5.445,1.19,1.19,0,0,0-.28.536" transform="translate(-79.251 -138.98)" fill="#aa6550"/><path d="M166.1,290.453c.025,0,.046-.138.233-.177s.493-.071.809-.1a6.572,6.572,0,0,0,1.17-.119,2.346,2.346,0,0,0-1.191-.088,3.568,3.568,0,0,0-.838.172.337.337,0,0,0-.2.209c-.017.071.007.109.019.107" transform="translate(-80.203 -140.028)" fill="#aa6550"/><path d="M224.881,248.258l-1.32,4.47-8.375-3.792c.3-.936,1.686-5.105,4.338-11.721a11.373,11.373,0,0,1,8.681-7,49.651,49.651,0,0,1,8.019-.786c4.7.052,11.61,2.988,12.539,7.591.709,3.514.025,9.719.025,17.257l-.613,14.4-24.067.816Z" transform="translate(-103.924 -110.803)" fill="#529d2e"/><g transform="translate(126.998 139.876)" opacity="0.3"><g clip-path="url(#r)"><path d="M263.461,270.793c-2.929.6-5.936-.005-8.92-.182-1.809-.107-3.816-.3-5.248.809a6.412,6.412,0,0,0-1.919,3.764,71.787,71.787,0,0,0-1.756,14.379l14.487.878Z" transform="translate(-245.619 -270.526)"/></g></g><path d="M232.742,235.6c0,.021.241.036.64.192a3.339,3.339,0,0,1,1.386,1.122,4.67,4.67,0,0,1,.828,2.508,15.744,15.744,0,0,1-.253,3.3,55.257,55.257,0,0,1-1.345,5.9c-.2.722-.362,1.32-.487,1.772a4.154,4.154,0,0,0-.154.658,4.266,4.266,0,0,0,.232-.634c.135-.412.326-1.011.55-1.755a45.837,45.837,0,0,0,1.409-5.907,15.25,15.25,0,0,0,.239-3.346,4.73,4.73,0,0,0-.9-2.582,3.273,3.273,0,0,0-1.475-1.11,2.419,2.419,0,0,0-.493-.112.55.55,0,0,0-.176,0" transform="translate(-112.402 -113.782)" fill="#263238"/><path d="M215.692,264.947a8.1,8.1,0,0,0,1.18.677c.744.389,1.785.9,2.952,1.43s2.242.967,3.027,1.267a8.1,8.1,0,0,0,1.288.436,9.513,9.513,0,0,0-1.233-.573c-.769-.334-1.831-.795-3-1.32s-2.214-1.017-2.973-1.372a9.662,9.662,0,0,0-1.245-.544" transform="translate(-104.168 -127.955)" fill="#263238"/><path d="M204.094,309.044a8.577,8.577,0,0,0-3.5,11.487L221.539,356.5l9.664-5.837-16.266-32.471,11.789-7.7" transform="translate(-96.408 -149.252)" fill="#263238"/><path d="M223.012,305.594l-28.755,1.018a8.577,8.577,0,0,0-8.272,8.705l1.194,41.069,12.093-.027-.4-38.831,24.144-.635Z" transform="translate(-89.82 -147.586)" fill="#263238"/><path d="M210.88,331.393a2.048,2.048,0,0,1,.035.38c.012.276.027.638.047,1.09.036.947.072,2.317.108,4.01.072,3.387.12,8.065.146,13.232s.051,9.821.068,13.234c.01,1.671.017,3.033.023,4.01,0,.452,0,.815,0,1.09a1.993,1.993,0,0,1-.02.381,2.048,2.048,0,0,1-.035-.38c-.012-.276-.027-.638-.047-1.09-.036-.946-.072-2.316-.108-4.01-.072-3.386-.12-8.065-.146-13.234-.026-5.153-.051-9.818-.068-13.231-.01-1.671-.017-3.033-.023-4.01,0-.452,0-.815,0-1.091a1.994,1.994,0,0,1,.02-.381" transform="translate(-101.833 -160.046)" fill="#455a64"/><path d="M247.306,255.188h-8.7a6.34,6.34,0,0,0-6.341,6.341v30.35H214.884a4.391,4.391,0,0,0-4.391,4.392h39.685c0-.009,0-.017,0-.026a3.621,3.621,0,0,0,3.468-3.616v-31.1a6.341,6.341,0,0,0-6.341-6.341" transform="translate(-101.657 -123.243)" fill="#455a64"/><path d="M257.366,257.124c.074,0,.134,8.92.134,19.92s-.06,19.922-.134,19.922-.134-8.918-.134-19.922.06-19.92.134-19.92" transform="translate(-124.23 -124.178)" fill="#263238"/><path d="M242.7,366.517v-31.84h-2.828v31.84c-1.727,3.4-5.786,5.707-10.731,7.593h25.215c-5.121-2.081-9.742-3.678-11.655-7.593" transform="translate(-110.663 -161.632)" fill="#455a64"/></g><g clip-path="url(#a)"><path d="M31.9,313.652a1.168,1.168,0,0,1,.079-.189l.253-.54a13.6,13.6,0,0,0,.744-2.162,19.083,19.083,0,0,0-.063-8.351,44.8,44.8,0,0,0-1.549-5.609c-.656-1.991-1.417-4.1-2.039-6.387a24.7,24.7,0,0,1-1.007-7.343,28.75,28.75,0,0,1,1.709-7.771,37.794,37.794,0,0,0,1.978-7.652,11.665,11.665,0,0,0-1.4-7.068c-1.119-2.062-2.527-3.826-3.582-5.652a19.642,19.642,0,0,1-2.152-5.435,20.236,20.236,0,0,1-.137-8.419,15.677,15.677,0,0,1,.878-2.974,1.132,1.132,0,0,1-.052.2l-.178.57a21.555,21.555,0,0,0-.546,2.225,20.506,20.506,0,0,0,.218,8.356,19.585,19.585,0,0,0,2.16,5.365c1.052,1.806,2.466,3.562,3.607,5.648a11.9,11.9,0,0,1,1.447,7.211,37.755,37.755,0,0,1-1.984,7.709,28.653,28.653,0,0,0-1.7,7.7,24.589,24.589,0,0,0,.983,7.268c.612,2.272,1.364,4.385,2.012,6.381a44.362,44.362,0,0,1,1.524,5.643,18.871,18.871,0,0,1-.022,8.413,12.474,12.474,0,0,1-.8,2.159l-.278.531a1.151,1.151,0,0,1-.1.176" transform="translate(-11.762 -114.99)" fill="#263238"/><path d="M31.724,263.925s-2.14-6.843,1.7-10.85a.237.237,0,0,1,.406.118c.205,1.13.461,4.572-2.105,10.732" transform="translate(-15.034 -122.186)" fill="#529d2e"/><path d="M33.489,257.556a6.3,6.3,0,0,1-.144,1.263l-.488,3.018c-.179,1.128-.341,2.149-.479,3.019a6.853,6.853,0,0,1-.226,1.249,5.311,5.311,0,0,1,.038-1.272c.071-.782.209-1.857.4-3.038s.4-2.244.567-3.01a5.711,5.711,0,0,1,.33-1.228" transform="translate(-15.517 -124.386)" fill="#263238"/><path d="M37.141,297.118s1.309-7.049,6.576-8.8a.237.237,0,0,1,.3.294c-.347,1.095-1.731,4.257-6.88,8.5" transform="translate(-17.937 -139.239)" fill="#529d2e"/><path d="M42.243,291.854a6.306,6.306,0,0,1-.718,1.049l-1.843,2.439-1.835,2.444a6.865,6.865,0,0,1-.784,1,5.306,5.306,0,0,1,.629-1.107c.428-.658,1.053-1.544,1.777-2.5s1.4-1.8,1.908-2.4a5.719,5.719,0,0,1,.867-.931" transform="translate(-17.898 -140.95)" fill="#263238"/><path d="M34.338,329.862s-.8-7.126,3.738-10.327a.237.237,0,0,1,.377.193c-.014,1.148-.42,4.576-4.115,10.134" transform="translate(-16.558 -154.297)" fill="#529d2e"/><path d="M37.229,323.753a6.338,6.338,0,0,1-.382,1.212l-1.055,2.87-1.046,2.871a6.927,6.927,0,0,1-.461,1.183,5.275,5.275,0,0,1,.28-1.241c.219-.754.559-1.783.975-2.906s.82-2.126,1.13-2.846a5.706,5.706,0,0,1,.559-1.142" transform="translate(-16.555 -156.356)" fill="#263238"/><path d="M42.044,364.4s-.539-7.15,4.1-10.186a.237.237,0,0,1,.37.207c-.055,1.147-.583,4.558-4.475,9.98" transform="translate(-20.296 -171.049)" fill="#529d2e"/><path d="M45.194,358.368a6.3,6.3,0,0,1-.426,1.2l-1.157,2.83-1.148,2.832a6.89,6.89,0,0,1-.5,1.165,5.3,5.3,0,0,1,.325-1.231c.245-.746.623-1.762,1.078-2.869s.9-2.1,1.232-2.8a5.714,5.714,0,0,1,.6-1.121" transform="translate(-20.262 -173.073)" fill="#263238"/><path d="M20.278,253.989s-6.356-3.319-6.48-8.866a.237.237,0,0,1,.371-.205c.945.653,3.562,2.9,6.109,9.072" transform="translate(-6.664 -118.262)" fill="#529d2e"/><path d="M16.348,249.038a6.369,6.369,0,0,1,.791.994l1.792,2.478,1.8,2.471a6.851,6.851,0,0,1,.724,1.043,5.344,5.344,0,0,1-.873-.926c-.5-.6-1.168-1.46-1.866-2.432s-1.307-1.867-1.731-2.527a5.629,5.629,0,0,1-.635-1.1" transform="translate(-7.894 -120.272)" fill="#263238"/><path d="M32.985,282.783s-6.545-2.927-7.007-8.457a.237.237,0,0,1,.357-.227c.982.595,3.732,2.681,6.649,8.684" transform="translate(-12.546 -132.359)" fill="#529d2e"/><path d="M28.748,278.093a6.288,6.288,0,0,1,.851.944l1.939,2.364,1.945,2.357a6.9,6.9,0,0,1,.786,1,5.3,5.3,0,0,1-.928-.871c-.539-.571-1.254-1.386-2.01-2.314s-1.418-1.784-1.881-2.417a5.713,5.713,0,0,1-.7-1.06" transform="translate(-13.883 -134.304)" fill="#263238"/><path d="M29.492,312.478s-4.494-5.587-2.386-10.72a.237.237,0,0,1,.421-.039c.6.977,2.1,4.087,1.965,10.759" transform="translate(-12.819 -145.661)" fill="#529d2e"/><path d="M28.484,306.3a6.248,6.248,0,0,1,.327,1.228l.649,2.987c.246,1.115.468,2.125.658,2.984a6.829,6.829,0,0,1,.246,1.246,5.313,5.313,0,0,1-.429-1.2c-.22-.754-.485-1.805-.736-2.975s-.449-2.235-.573-3.009a5.752,5.752,0,0,1-.141-1.264" transform="translate(-13.751 -147.926)" fill="#263238"/><path d="M34.444,351.693s-6.5-3.037-6.864-8.573a.237.237,0,0,1,.361-.221c.973.611,3.686,2.743,6.5,8.794" transform="translate(-13.32 -165.585)" fill="#529d2e"/><path d="M30.291,346.929a6.315,6.315,0,0,1,.835.958l1.9,2.4,1.9,2.39a6.871,6.871,0,0,1,.769,1.01,5.3,5.3,0,0,1-.913-.887c-.529-.58-1.231-1.407-1.972-2.347s-1.387-1.808-1.84-2.448a5.7,5.7,0,0,1-.684-1.072" transform="translate(-14.628 -167.548)" fill="#263238"/><path d="M54.293,305.42a.528.528,0,0,1,.008.158c0,.125-.007.276-.011.459-.019.431-.045,1.012-.077,1.738-.084,1.528-.2,3.66-.34,6.209v.006l0,.009a24.1,24.1,0,0,1-3.56,8.262c-1.3,2.057-2.667,3.927-3.844,5.666a40.1,40.1,0,0,0-2.882,4.764,20.184,20.184,0,0,0-1.348,3.5c-.114.429-.2.763-.25.991a1.839,1.839,0,0,1-.095.345,1.738,1.738,0,0,1,.042-.356c.032-.232.1-.571.2-1.007a18.477,18.477,0,0,1,1.279-3.552,38.062,38.062,0,0,1,2.847-4.819c1.169-1.752,2.527-3.625,3.822-5.671a24.432,24.432,0,0,0,3.561-8.163l0,.014c.179-2.546.329-4.676.436-6.2.059-.724.105-1.3.141-1.735l.045-.456a.526.526,0,0,1,.028-.156" transform="translate(-20.231 -147.502)" fill="#263238"/><path d="M57.053,326.636s2.751-6.621-.709-10.959a.237.237,0,0,0-.416.08c-.307,1.107-.873,4.512,1.125,10.879" transform="translate(-26.858 -152.411)" fill="#398016"/><path d="M57.411,320.228a5.712,5.712,0,0,1,.218,1.253c.1.778.206,1.855.292,3.049s.126,2.278.126,3.063a5.264,5.264,0,0,1-.077,1.27,6.893,6.893,0,0,1-.112-1.265c-.059-.878-.128-1.909-.2-3.049s-.151-2.172-.213-3.05a6.327,6.327,0,0,1-.029-1.27" transform="translate(-27.717 -154.654)" fill="#263238"/><path d="M39.921,357.6s2.2-6.823-1.6-10.866a.237.237,0,0,0-.408.114c-.216,1.128-.5,4.568,2,10.752" transform="translate(-18.246 -167.417)" fill="#398016"/><path d="M39.587,351.221a5.749,5.749,0,0,1,.319,1.231c.16.767.356,1.832.538,3.015s.31,2.26.374,3.042a5.3,5.3,0,0,1,.026,1.272,6.883,6.883,0,0,1-.215-1.251c-.13-.871-.282-1.893-.45-3.022s-.327-2.152-.46-3.023a6.27,6.27,0,0,1-.132-1.264" transform="translate(-19.113 -169.622)" fill="#263238"/><path d="M65.174,312.112s5.874-4.112,5.281-9.629a.237.237,0,0,0-.394-.156c-.853.77-3.158,3.339-4.887,9.785" transform="translate(-31.476 -145.979)" fill="#398016"/><path d="M69.443,306.669a5.709,5.709,0,0,1-.488,1.174c-.335.709-.822,1.676-1.39,2.729s-1.115,1.99-1.537,2.652a5.308,5.308,0,0,1-.746,1.031,6.857,6.857,0,0,1,.583-1.128l1.464-2.682,1.457-2.688a6.293,6.293,0,0,1,.657-1.088" transform="translate(-31.526 -148.105)" fill="#263238"/><path d="M46.5,348.534s7.085-1.1,8.982-6.319a.237.237,0,0,0-.285-.313c-1.1.315-4.305,1.606-8.7,6.632" transform="translate(-22.457 -165.116)" fill="#398016"/><path d="M53.662,345.186a5.708,5.708,0,0,1-.956.839c-.613.489-1.476,1.143-2.449,1.838s-1.878,1.3-2.548,1.7a5.3,5.3,0,0,1-1.124.6,6.849,6.849,0,0,1,1.021-.755l2.5-1.764,2.492-1.772a6.3,6.3,0,0,1,1.069-.687" transform="translate(-22.498 -166.706)" fill="#263238"/><path d="M31.5,379.953l-2.067,13.909H42.311l-1.67-13.909Z" transform="translate(-14.214 -183.497)" fill="#455a64"/><path d="M42.406,388.163a50.463,50.463,0,0,1-5.193.134,50.455,50.455,0,0,1-5.193-.134,50.475,50.475,0,0,1,5.193-.134,50.484,50.484,0,0,1,5.193.134" transform="translate(-15.464 -187.398)" fill="#263238"/><path d="M42.581,390.3c0,.074-2.4.134-5.363.134s-5.364-.06-5.364-.134,2.4-.134,5.364-.134,5.363.06,5.363.134" transform="translate(-15.384 -188.432)" fill="#263238"/></g></g></svg>