<svg xmlns="http://www.w3.org/2000/svg" xmlns:xlink="http://www.w3.org/1999/xlink" width="144" height="144" viewBox="0 0 144 144"><defs><clipPath id="a"><rect width="102" height="102" transform="translate(285 648)" fill="#fff"/></clipPath></defs><g transform="translate(-461 -3046)"><rect width="144" height="144" transform="translate(461 3046)" fill="none"/><g transform="translate(197 2419)" clip-path="url(#a)"><g transform="translate(285 648)"><path d="M60.632,1.248A35.785,35.785,0,0,0,31.09,56.583a2.325,2.325,0,0,1-.3,2.919L18.631,71.665l7.785,7.785L38.578,67.287a2.325,2.325,0,0,1,2.919-.3A35.781,35.781,0,1,0,60.632,1.248Z" transform="translate(3.742 0.25)" fill="#c5d3dd"/><circle cx="27.523" cy="27.523" r="27.523" transform="translate(37.275 9.752)" fill="#f9f7f8"/><path d="M64.8,9.142A27.532,27.532,0,0,1,40.535,57.749,27.527,27.527,0,1,0,64.8,9.142Z" transform="translate(8.142 1.836)" fill="#dff6fd"/><path d="M56.481,17.289,41.406,43.4h30.15Z" transform="translate(8.317 3.473)" fill="#fdb441"/><path d="M35.208,66.865,23.826,55.483a.209.209,0,0,0-.3,0L1.306,77.708a.209.209,0,0,0-.061.148v11.59h11.59a.209.209,0,0,0,.148-.061L35.208,67.16A.209.209,0,0,0,35.208,66.865Z" transform="translate(0.25 11.132)" fill="#7a6d79"/><g transform="translate(7.103 4.912)"><path d="M17.349,24.743l-7.993-2.07a2.752,2.752,0,0,1,1.38-5.329l7.993,2.07a2.752,2.752,0,0,1-1.38,5.329Z" transform="translate(-5.638 -1.446)" fill="#fe646f"/><path d="M17.077,36.629l-8.241.5A2.752,2.752,0,0,1,8.5,31.64l8.241-.5a2.752,2.752,0,0,1,.336,5.494Z" transform="translate(-5.915 1.341)" fill="#fe646f"/><path d="M24.219,8.964,17.259,4.523A2.752,2.752,0,1,0,14.3,9.163L21.259,13.6a2.752,2.752,0,1,0,2.961-4.64Z" transform="translate(-4.486 -4.09)" fill="#fe646f"/></g><path d="M25.466,76,12.051,62.588a.245.245,0,0,1,0-.347L16.4,57.89a.245.245,0,0,1,.347,0L30.164,71.3a.245.245,0,0,1,0,.347L25.812,76a.245.245,0,0,1-.347,0Z" transform="translate(2.406 11.613)" fill="#c5d3dd"/><path d="M58.814,64.912A29.018,29.018,0,1,0,29.8,35.894,29.051,29.051,0,0,0,58.814,64.912Zm0-55.046A26.028,26.028,0,1,1,32.786,35.894,26.057,26.057,0,0,1,58.814,9.866Z" transform="translate(5.984 1.381)"/><path d="M41.657,45.145h30.15A1.5,1.5,0,0,0,73.1,42.9l-2.7-4.683a1.5,1.5,0,0,0-2.59,1.5l1.409,2.44H44.246L56.731,20.529l7.519,13.024a1.5,1.5,0,1,0,2.59-1.5L58.026,16.791a1.5,1.5,0,0,0-2.59,0L40.362,42.9a1.5,1.5,0,0,0,1.295,2.243Z" transform="translate(8.067 3.222)"/><path d="M55.705,26.707a1.5,1.5,0,1,0-2.99,0v4.109a1.5,1.5,0,1,0,2.99,0Z" transform="translate(10.588 5.064)"/><circle cx="1.495" cy="1.495" r="1.495" transform="translate(63.3 39.767)"/><path d="M9.231,24.371l7.993,2.07a4.247,4.247,0,1,0,2.13-8.224l-7.993-2.07a4.247,4.247,0,1,0-2.13,8.224Zm-.152-4.427a1.257,1.257,0,0,1,1.532-.9l7.993,2.07a1.257,1.257,0,1,1-.631,2.434L9.98,21.476a1.259,1.259,0,0,1-.9-1.532Z" transform="translate(1.215 3.216)"/><path d="M9.177,38.876l8.242-.5h0a4.247,4.247,0,0,0-.519-8.479l-8.242.5a4.247,4.247,0,0,0,.519,8.479ZM7.976,33.8a1.249,1.249,0,0,1,.865-.422l8.242-.5a1.257,1.257,0,0,1,.154,2.51l-8.242.5A1.258,1.258,0,0,1,7.976,33.8Z" transform="translate(0.938 6.003)"/><path d="M13.744,10.674l6.96,4.442a4.248,4.248,0,1,0,4.57-7.161L18.313,3.512a4.248,4.248,0,0,0-4.57,7.161Zm1.225-4.257a1.259,1.259,0,0,1,1.736-.384l6.961,4.442a1.257,1.257,0,1,1-1.352,2.119L15.353,8.153a1.256,1.256,0,0,1-.384-1.736Z" transform="translate(2.366 0.572)"/><path d="M91.156,10.918A37.35,37.35,0,0,0,41.51,8.125a1.5,1.5,0,1,0,1.866,2.337,34.312,34.312,0,0,1,55.7,27.221A34.29,34.29,0,0,1,46.058,65.99a3.838,3.838,0,0,0-4.8.49l-7.6,7.6-5.67-5.67,7.6-7.6a3.838,3.838,0,0,0,.49-4.8,34.379,34.379,0,0,1,2.46-40.843,1.5,1.5,0,0,0-2.288-1.925,37.374,37.374,0,0,0-2.675,44.405.824.824,0,0,1-.1,1.044l-7.6,7.6-.742-.742a1.707,1.707,0,0,0-2.409,0L20.01,68.271a1.74,1.74,0,0,0-2.259.174L13.4,72.8a1.74,1.74,0,0,0-.174,2.259L.5,87.784a1.693,1.693,0,0,0-.5,1.2v11.59a1.5,1.5,0,0,0,1.5,1.5H13.086a1.693,1.693,0,0,0,1.2-.5L27.017,88.848a1.741,1.741,0,0,0,2.259-.174l4.351-4.352a1.741,1.741,0,0,0,.174-2.259l2.714-2.714a1.7,1.7,0,0,0,0-2.41l-.741-.741,7.6-7.6a.824.824,0,0,1,1.043-.1A37.277,37.277,0,0,0,91.156,10.918ZM23.929,68.582l9.562,9.563-1.79,1.79-9.562-9.562Zm4.116,17.093L26.269,83.9a1.5,1.5,0,0,0-2.115,2.114l.734.734L12.553,99.083H2.991V89.52L15.326,77.185l3.89,3.89a1.5,1.5,0,1,0,2.115-2.114L16.4,74.028l2.584-2.584L30.629,83.091Z" transform="translate(0)"/></g></g></g></svg>