<svg xmlns="http://www.w3.org/2000/svg" width="144" height="144" viewBox="0 0 144 144"><g transform="translate(-461 -3046)"><rect width="144" height="144" transform="translate(461 3046)" fill="none"/><g transform="translate(-660.395 2126.723)"><path d="M1172.14,1024.391c-.042,1.116-.352,1.691-1.739,1.667-6-.1-12.012.021-18.016-.061a12.4,12.4,0,0,1-12.442-12.6q-.054-31.9,0-63.8a12.381,12.381,0,0,1,12.693-12.546q31.795-.033,63.59,0A12.4,12.4,0,0,1,1229,949.733c.046,10.315-.021,20.63.04,30.945.012,2.06-.836,2.77-2.8,2.7-2.4-.09-4.806-.092-7.2.013-1.009.044-2.662-.868-2.645,1.447,0,.566-1.161.156-1.709.488-2.181.173-1.845-1.684-2.215-2.865-.528-1.683.136-2.54,1.911-2.614,1.408-.059,2.826.061,4.23-.032,2.212-.146,4.463.46,6.639-.339l.059-.5q.055-5.505.111-11.01c.039-4.656.267-9.313-.092-13.966a19.752,19.752,0,0,0-.037-5.847,8.567,8.567,0,0,0-7.719-7.374,3.034,3.034,0,0,0-.8-.228q-14.672-.026-29.345-.021c-.528,0-1.216-.134-1.143.785q0,3.791,0,7.583c.79,1.7,2.233.319,3.3.7,5.7,1.306,9.287,5.547,9.156,10.812a10.911,10.911,0,0,1-8.924,10.387c-1.182.246-2.84-.662-3.454.645-.491,1.045-.13,2.493-.129,3.762,0,.421.056.842.086,1.263-.031.349-.039.7-.1,1.047-.3,1.8.3,2.5,2.245,2.361,2.661-.187,5.345-.055,8.02-.044,2.79.012,3.235.591,2.551,3.273-.938,3.679.545,7.067,4.014,8.529a1.594,1.594,0,0,1,1.123,2.213c-.194,1.559-.873,1.893-2.378,1.247a10.868,10.868,0,0,1-6.613-10.205c0-1.173-.195-1.627-1.451-1.564a54.324,54.324,0,0,1-5.928,0c-1.38-.083-1.639.458-1.61,1.7.079,3.388.032,6.778.024,10.168-.007,2.947-.472,3.291-3.4,2.554a7.207,7.207,0,0,0-8.361,3.787,6.924,6.924,0,0,0,2.157,8.7c1.2.833,1.351,1.544.749,2.677-.441,1.252-1.053,1.536-2.273.71a11.958,11.958,0,0,1-4.9-7.511c-.042-7.587,3.874-11.869,11.242-12.156,1.078-.042,1.3-.374,1.281-1.337-.047-2.61-.062-5.222.006-7.83.03-1.123-.362-1.468-1.46-1.448-3.033.057-6.068.035-9.1.013-2.459-.018-3.041-.8-2.388-3.112.939-3.331.038-6.251-2.5-8.107a7.1,7.1,0,0,0-10.908,8.024c.648,2.34.059,3.171-2.342,3.194-3.034.029-6.068.023-9.1,0-.889-.007-1.469.113-1.462,1.241.062,9.027.081,18.054.112,27.081-.572,6.568,3.13,10.7,9.652,10.72,5.558.021,11.117.065,16.673-.032C1171.489,1022.329,1172.286,1022.725,1172.14,1024.391Zm10.219-44.941c.663-.561.329-1.319.34-1.978.042-2.751,0-5.5.024-8.255.021-2.374.709-2.883,2.995-2.295,3.473.893,6.419-.094,8.222-2.753a7.174,7.174,0,0,0-.166-8.149,7.02,7.02,0,0,0-8.1-2.47c-1.468.441-2.481.223-3.054-1.273q.009-5.49.017-10.981c-.19-1.248-1.182-.727-1.813-.73-9.2-.035-18.4-.026-27.6-.019a3.348,3.348,0,0,0-1.851.247,8.6,8.6,0,0,0-7.886,8.918c-.115,9.453-.034,18.91-.015,28.365,0,.557-.3,1.362.728,1.438h7.6c.35.005.543-.146.511-.517.24-7.186,4.637-11.915,10.99-11.817,6.1.094,10.317,4.82,10.554,11.833-.031.344.131.507.471.5l7.586,0Z" fill="#050403"/><path d="M1261.313,1056.806c1.645-.213,3.011-1.15,4.5-1.763,2.66-1.1,3.075-.958,4.065,1.677,1.588,4.221,3.191,8.436,4.734,12.673a4.7,4.7,0,0,0,1.893,2.419c4.385,2.964,8.708,6.018,13.094,8.981a9.382,9.382,0,0,1,4.4,8.4c-.059,6.851-.01,13.7-.024,20.555,0,.825.4,1.923-1.2,1.8-1.232-.09-2.671.313-2.424-1.748.028-7.126.086-14.252.063-21.378a5.4,5.4,0,0,0-2.661-4.562c-2.978-2.018-5.922-4.087-8.9-6.1-.343-.233-.643-.834-1.241-.426,1.019,2.713,2.043,5.4,3.038,8.094.667,1.806,1.258,3.729.78,5.587-.605,2.359-.069,4.069,1.9,5.4,1.321.892.927,1.567-.018,2.594-1.11,1.207-1.679.835-2.62-.135-3.543-3.644-7.173-7.2-10.76-10.8-1.214-1.218-2.519-1.573-3.921-.381-1.247,1.06-1.171,2.632.206,4.068,1.613,1.681,3.251,3.34,4.946,4.937a4.864,4.864,0,0,1,1.593,3.3,8.422,8.422,0,0,0,6.932,7.547c1.583.242,2.025.854,1.971,2.229.094,1.409-.513,1.79-1.892,1.526a24.885,24.885,0,0,1-4.761-1.6,19.591,19.591,0,0,1-3.731-3.66c-1.9-2.8-1.918-2.782-5.184-1.507-.2.077-.4.144-.6.2-1.015.293-.995.828-.332,1.481a4.283,4.283,0,0,0,1.258,1.094c1.329.5,1.371,1.358.915,2.459-.322,1.772-1.257,1.63-2.48.84a8.159,8.159,0,0,1-3.019-2.909c-.606-1.17-1.229-1.166-2.33-.738-5.057,1.974-10.172,3.8-15.219,5.8-1.9.751-2.892.262-3.534-1.611-.867-2.526-1.869-5.005-2.83-7.549-4.749,2.171-9.068,1.832-12.867-1.711-2.876-2.683-3.536-6.145-3.142-9.9,1.085-3.408,2.911-6.386,6.415-7.5,2.464-.784,2.01-1.834,1.112-3.372-.939-2.571-1.868-5.146-2.818-7.713-1.08-2.92-.924-3.288,1.925-4.367q4.74-1.794,9.479-3.591c3.034-1.147,3.449-.872,3.888,2.307a6.9,6.9,0,0,0,4.9,6.048,6.634,6.634,0,0,0,7.2-1.723,6.878,6.878,0,0,0,1.65-7.606c-.349-.993-.841-1.936-1.267-2.9a2.306,2.306,0,0,1,1.621-2.18c1.652-.712,3.277-1.487,4.913-2.235l.425-.374Zm10.858,16.429c-1.635-4.43-3.311-8.847-4.879-13.3-.439-1.247-.991-1.248-2.014-.735a36.37,36.37,0,0,1-4.645,2.041c-1.551.523-1.983,1.121-1.427,2.854a10.509,10.509,0,0,1-5.781,12.682,10.8,10.8,0,0,1-13.442-3.917c-.766-1.133-.611-3.213-2-3.377-1.315-.156-2.77.857-4.162,1.362-.795.289-1.571.64-2.383.871-1.17.334-1.315.925-.876,2.029,1.278,3.209,2.452,6.459,3.649,9.7,1.019,2.757.617,3.414-2.222,3.72a6.934,6.934,0,0,0-5.154,10.995c2.561,3.531,6.521,4.151,10.171,1.595,2.039-1.427,2.832-1.2,3.747,1.146.819,2.1,1.672,4.2,2.336,6.348.453,1.468,1.008,1.831,2.525,1.213,4.242-1.727,8.556-3.277,12.841-4.9,3.408-1.289,6.815-2.581,10.708-4.055-2.127-2.034-3.964-3.763-5.77-5.527a6.157,6.157,0,0,1,2.132-10.218,5.939,5.939,0,0,1,6.469,1.342c1.9,1.8,3.738,3.672,5.6,5.513l.542-.339C1276.835,1084.371,1274.272,1078.879,1272.17,1073.235Z" transform="translate(-47.145 -67.572)" fill="#060606"/><path d="M1276.525,1012.586c-1.636.748-3.261,1.523-4.913,2.235a2.306,2.306,0,0,0-1.621,2.179l-3.053-.143a1.593,1.593,0,0,0-1.122-2.213c-3.469-1.462-4.952-4.85-4.014-8.529.684-2.683.239-3.262-2.551-3.274-2.675-.012-5.358-.143-8.02.044-1.948.137-2.549-.565-2.245-2.361.058-.345.066-.7.1-1.047,2.124-.737,4.269-1.417,6.367-2.22,11.4-4.36,22.064-9.914,30.573-18.946.563-.6,1.057-1.372,2.061-1.3.359,4.654.131,9.311.092,13.967q-.047,5.505-.111,11.01c-.306.134-.437.287-.058.5-2.176.8-4.427.193-6.639.338-1.4.093-2.822-.027-4.23.032-1.774.074-2.438.931-1.91,2.614.37,1.181.034,3.038,2.215,2.865.24,1.359-.586,2.576-.52,3.913l.027-.035C1276.647,1012.153,1276.573,1012.355,1276.525,1012.586Z" transform="translate(-62.754 -23.011)" fill="#d25144"/><path d="M1187.174,1107.271c.9,1.538,1.351,2.589-1.113,3.373-3.5,1.115-5.33,4.093-6.415,7.5l-2.618-.016c.146-1.666-.651-2.062-2.24-2.035-5.556.1-11.115.053-16.673.032-6.521-.024-10.224-4.152-9.652-10.72a69.245,69.245,0,0,0,14.753-1.957c4.058-.873,7.882-2.51,11.871-3.6a11.959,11.959,0,0,0,4.9,7.511c1.22.827,1.832.543,2.273-.71A8.469,8.469,0,0,0,1187.174,1107.271Z" transform="translate(-4.888 -93.737)" fill="#faa419"/><path d="M1340.436,1140.7c.053-1.376-.389-1.987-1.971-2.229a8.423,8.423,0,0,1-6.932-7.547,4.859,4.859,0,0,0-1.594-3.3c-1.695-1.6-3.333-3.256-4.946-4.937-1.378-1.436-1.453-3.008-.207-4.069,1.4-1.192,2.707-.837,3.921.381,3.588,3.6,7.218,7.159,10.761,10.8.942.969,1.51,1.341,2.62.135.946-1.027,1.339-1.7.018-2.594-1.967-1.327-2.5-3.037-1.9-5.4.477-1.859-.114-3.782-.78-5.587-.995-2.7-2.018-5.381-3.038-8.094.6-.407.9.194,1.242.426,2.98,2.016,5.924,4.085,8.9,6.1a5.406,5.406,0,0,1,2.661,4.563c.023,7.126-.035,14.252-.062,21.378Z" transform="translate(-105.931 -98.508)" fill="#fac6a1"/><path d="M1325.521,1176.664c.456-1.1.414-1.962-.915-2.458a4.287,4.287,0,0,1-1.257-1.094c-.662-.654-.682-1.189.332-1.482.2-.059.4-.125.6-.2,3.265-1.274,3.285-1.288,5.184,1.507a19.585,19.585,0,0,0,3.73,3.661Z" transform="translate(-105.342 -134.477)" fill="#f3b98e"/><path d="M1175.013,1051.887c-3.99,1.094-7.813,2.731-11.871,3.6a69.279,69.279,0,0,1-14.753,1.957c-.032-9.028-.05-18.055-.112-27.082-.008-1.127.573-1.247,1.462-1.24,3.034.024,6.068.03,9.1,0,2.4-.022,2.989-.854,2.342-3.194a7.1,7.1,0,0,1,10.908-8.024c2.54,1.857,3.441,4.777,2.5,8.107-.653,2.314-.071,3.095,2.388,3.112,3.034.022,6.069.044,9.1-.013,1.1-.021,1.49.325,1.46,1.448-.069,2.609-.054,5.221-.006,7.83.018.963-.2,1.294-1.281,1.337C1178.887,1040.019,1174.971,1044.3,1175.013,1051.887Z" transform="translate(-4.814 -45.781)" fill="#fab42e"/><path d="M1148.972,984.624c-1.031-.076-.727-.882-.728-1.439-.02-9.455-.1-18.912.015-28.365a8.6,8.6,0,0,1,7.886-8.918c.662.79,1.57.468,2.372.47q14.444.041,28.888.031-.009,5.49-.018,10.981a4.156,4.156,0,0,0-2.868,1.13,80.6,80.6,0,0,1-14.231,9.011,112.45,112.45,0,0,1-19.5,8,2.164,2.164,0,0,0-1.856,2.542C1149.046,980.245,1148.969,982.436,1148.972,984.624Z" transform="translate(-4.769 -5.105)" fill="#87b136"/><path d="M1288.026,959.071c-1-.068-1.5.706-2.061,1.3-8.51,9.032-19.174,14.586-30.574,18.946-2.1.8-4.243,1.483-6.367,2.22-.03-.421-.086-.842-.086-1.263,0-1.269-.361-2.718.13-3.762.614-1.307,2.271-.4,3.454-.645a10.911,10.911,0,0,0,8.924-10.387c.131-5.265-3.46-9.506-9.156-10.812-.873-1.3-2.232-.322-3.3-.7q0-3.792,0-7.583,14.453-.028,28.906-.068c.8,0,1.71.309,2.379-.468a8.567,8.567,0,0,1,7.719,7.374A19.76,19.76,0,0,1,1288.026,959.071Z" transform="translate(-62.696 -5.075)" fill="#e65849"/><path d="M1149.963,1000.2c0-2.187.074-4.379-.037-6.561a2.163,2.163,0,0,1,1.856-2.541,112.4,112.4,0,0,0,19.5-8,80.56,80.56,0,0,0,14.231-9.011,4.156,4.156,0,0,1,2.868-1.13c.574,1.5,1.587,1.714,3.055,1.273a7.021,7.021,0,0,1,8.1,2.47,7.174,7.174,0,0,1,.166,8.149c-1.8,2.659-4.749,3.646-8.222,2.753-2.286-.588-2.974-.079-2.995,2.295-.026,2.752.018,5.5-.025,8.255-.01.659.324,1.417-.339,1.977-.2-.327-.333-.212-.446.064l-7.586,0-.471-.5c-.237-7.013-4.452-11.739-10.553-11.833-6.353-.1-10.751,4.632-10.99,11.818l-.51.517Z" transform="translate(-5.76 -20.684)" fill="#7ea633"/><path d="M1228.209,1076.333a8.467,8.467,0,0,1-4.916-.626c.6-1.133.449-1.844-.748-2.677a6.924,6.924,0,0,1-2.157-8.7,7.206,7.206,0,0,1,8.36-3.786c2.93.738,3.4.393,3.4-2.554.009-3.389.055-6.78-.024-10.167-.029-1.246.23-1.788,1.61-1.7a54.3,54.3,0,0,0,5.929,0c1.256-.062,1.454.392,1.451,1.564a10.868,10.868,0,0,0,6.613,10.206c1.505.645,2.184.311,2.379-1.248l3.052.144c.427.966.919,1.908,1.268,2.9a6.879,6.879,0,0,1-1.65,7.605,6.634,6.634,0,0,1-7.2,1.723,6.9,6.9,0,0,1-4.9-6.048c-.44-3.179-.854-3.454-3.889-2.307q-4.741,1.792-9.48,3.591c-2.849,1.078-3,1.447-1.924,4.367C1226.342,1071.187,1227.271,1073.762,1228.209,1076.333Z" transform="translate(-45.924 -62.799)" fill="#f2f4f4"/><path d="M1198.19,945.951q-14.445-.009-28.888-.031c-.8,0-1.71.32-2.372-.47a3.35,3.35,0,0,1,1.85-.247c9.2-.007,18.4-.016,27.6.019C1197.008,945.223,1198,944.7,1198.19,945.951Z" transform="translate(-15.554 -4.652)" fill="#7ea633"/><path d="M1280.5,945.5c-.668.777-1.573.464-2.378.468q-14.452.058-28.906.068c-.072-.919.615-.785,1.143-.785q14.672-.005,29.345.021A3.027,3.027,0,0,1,1280.5,945.5Z" transform="translate(-62.928 -4.728)" fill="#bf493d"/><path d="M1249.231,964.985c1.069.38,2.428-.6,3.3.7C1251.464,965.3,1250.021,966.68,1249.231,964.985Z" transform="translate(-62.938 -16.091)" fill="#bf493d"/><path d="M1167.932,1036.47l.51-.517C1168.474,1036.325,1168.282,1036.475,1167.932,1036.47Z" transform="translate(-16.131 -56.952)" fill="#87b136"/><path d="M1219.911,1035.989l.471.5C1220.042,1036.5,1219.88,1036.333,1219.911,1035.989Z" transform="translate(-46.056 -56.973)" fill="#87b136"/><path d="M1238.908,1036.808c.112-.276.247-.391.446-.064Z" transform="translate(-56.995 -57.293)" fill="#87b136"/><path d="M1340.748,1036.385c-.379-.212-.248-.365.058-.5Q1340.778,1036.136,1340.748,1036.385Z" transform="translate(-115.495 -56.913)" fill="#e65849"/><path d="M1231.9,1104.237a6.934,6.934,0,0,1,5.155-10.995c2.839-.307,3.24-.964,2.222-3.72-1.2-3.241-2.371-6.49-3.649-9.7-.439-1.1-.294-1.7.876-2.029.812-.231,1.588-.583,2.383-.872,1.392-.5,2.847-1.518,4.162-1.362,1.391.165,1.236,2.243,2,3.377a10.8,10.8,0,0,0,13.443,3.916,10.509,10.509,0,0,0,5.781-12.682c-.556-1.734-.124-2.332,1.427-2.854a36.363,36.363,0,0,0,4.645-2.041c1.023-.513,1.575-.513,2.014.735,1.568,4.454,3.244,8.871,4.879,13.3a6.075,6.075,0,0,0-2.632,2.364,27.288,27.288,0,0,1-4.654,4.873c-10.4,8.913-22.713,13.734-35.929,16.555C1233.174,1103.286,1232.363,1103.389,1231.9,1104.237Z" transform="translate(-52.216 -73.649)" fill="#4296cf"/><path d="M1233.66,1123.723c.46-.847,1.271-.951,2.124-1.133,13.216-2.821,25.533-7.641,35.929-16.554a27.317,27.317,0,0,0,4.654-4.873A6.073,6.073,0,0,1,1279,1098.8c2.1,5.644,4.665,11.136,5.965,17.043l-.542.339c-1.865-1.841-3.7-3.711-5.6-5.513a5.941,5.941,0,0,0-6.47-1.343,6.157,6.157,0,0,0-2.132,10.219c1.806,1.763,3.643,3.493,5.77,5.527-3.892,1.474-7.3,2.765-10.708,4.055-4.285,1.621-8.6,3.171-12.841,4.9-1.516.618-2.071.255-2.524-1.213-.664-2.152-1.517-4.247-2.336-6.348-.915-2.347-1.708-2.573-3.747-1.146C1240.181,1127.874,1236.22,1127.253,1233.66,1123.723Z" transform="translate(-53.973 -93.136)" fill="#3d8dc6"/><path d="M1314,1060.353c.048-.23.122-.432.424-.374Z" transform="translate(-100.229 -70.779)" fill="#f7f9fa"/></g></g></svg>