<svg xmlns="http://www.w3.org/2000/svg" xmlns:xlink="http://www.w3.org/1999/xlink" width="610" height="362.405" viewBox="0 0 610 362.405"><defs><clipPath id="a"><rect width="610" height="362.405" fill="none"/></clipPath><clipPath id="h"><rect width="50.34" height="10.436" fill="none"/></clipPath><clipPath id="i"><rect width="47.898" height="5.031" fill="none"/></clipPath><clipPath id="k"><rect width="57.779" height="27.72" fill="#fff"/></clipPath><clipPath id="l"><rect width="11.697" height="11.697" fill="#fff"/></clipPath><clipPath id="n"><rect width="24.996" height="10.858" fill="none"/></clipPath><clipPath id="o"><rect width="29.222" height="16.877" fill="none"/></clipPath><clipPath id="p"><rect width="28.382" height="35.438" fill="none"/></clipPath></defs><g transform="translate(-810 -512.454)"><g transform="translate(810 512.454)"><g clip-path="url(#a)"><g clip-path="url(#a)"><path d="M3.252,318.48s-4.625,1.873.71,11.693a129.269,129.269,0,0,0,8.979,14.654s.961,2.287-.974,2.7-6.235-.162-7.04,2.24c-.834,2.491,1.019,4.773,4.706,6.721s11.61,6.513,12.325,6.928,1.423,1.465.149,1.955-10.879,1.745-10.011,6.267,12.033,8.261,13.246,8.693,1.513.934,1.432,1.6-3.349.779-6.066,1.248-5.786,1.489-5.066,4.056S23.052,395.052,39,396.2l7.425.047,3.875-6.372c7.461-14.143,6.537-22.6,4.739-24.572s-4.286.1-6.121,2.155-3.663,4.77-4.267,4.489-.871-.8-.6-2.06,3.006-12.711-.373-15.839-9.524,4.36-10.613,5.182-1.606-.349-1.581-1.16c.025-.827.341-9.965.638-14.124s-.66-6.94-3.215-7.548c-2.464-.588-4.253,3.364-5.624,4.79s-2.8-.6-2.8-.6A129.379,129.379,0,0,0,12.8,325.216c-5.513-9.721-9.636-6.692-9.636-6.692" transform="translate(-0.157 -35.807)" fill="#ddae11"/><path d="M47.7,399.149c-4.02-7.155-10.952-19.992-16.96-30.982s-11.453-20.928-15.437-28.1l-4.726-8.492-1.283-2.31c-.141-.259-.25-.46-.329-.6s-.1-.209-.1-.209.045.065.125.2l.349.592,1.321,2.289c1.146,1.989,2.782,4.879,4.79,8.457,4.021,7.154,9.491,17.085,15.5,28.071s12.917,23.839,16.9,31.014" transform="translate(-0.997 -36.975)" fill="#e0e0e0"/><path d="M12.117,354.956a2.38,2.38,0,0,1,.521.13c.332.1.807.252,1.391.448,1.169.395,2.77.981,4.524,1.66l4.485,1.754,1.361.523a2.431,2.431,0,0,1,.493.212,2.44,2.44,0,0,1-.522-.127c-.331-.1-.807-.252-1.39-.454-1.165-.407-2.757-1.014-4.512-1.693l-4.5-1.722-1.366-.516a2.4,2.4,0,0,1-.492-.216" transform="translate(-1.364 -39.958)" fill="#e0e0e0"/><path d="M27.072,357.844c-.06-.021,1-3.373,2.376-7.489s2.534-7.436,2.595-7.416-1,3.373-2.377,7.49-2.534,7.436-2.594,7.415" transform="translate(-3.047 -38.606)" fill="#e0e0e0"/><path d="M36.61,377.728a2.564,2.564,0,0,1,.289-.466l.848-1.226c.713-1.035,1.694-2.47,2.717-4.091s1.907-3.119,2.534-4.209l.745-1.29a2.5,2.5,0,0,1,.3-.461,2.481,2.481,0,0,1-.217.5c-.154.317-.384.771-.682,1.327-.592,1.112-1.451,2.629-2.481,4.254s-2.031,3.05-2.78,4.063c-.377.505-.686.91-.909,1.184a2.464,2.464,0,0,1-.361.413" transform="translate(-4.121 -41.2)" fill="#e0e0e0"/><path d="M22.131,377.871a2.127,2.127,0,0,1,.507,0l1.376.074c1.161.072,2.763.187,4.532.328s3.37.282,4.528.4l1.369.145a2.17,2.17,0,0,1,.5.085,2.136,2.136,0,0,1-.508,0l-1.376-.073c-1.161-.072-2.763-.187-4.533-.329s-3.369-.282-4.527-.4l-1.37-.146a2.141,2.141,0,0,1-.5-.085" transform="translate(-2.491 -42.537)" fill="#e0e0e0"/><path d="M28.367,396.142a3.432,3.432,0,0,1,.648,0l1.763.087c1.49.084,3.543.216,5.813.375s4.324.318,5.809.443l1.757.161a3.541,3.541,0,0,1,.642.091,3.439,3.439,0,0,1-.649,0l-1.762-.087c-1.489-.084-3.543-.216-5.814-.376s-4.322-.317-5.806-.442l-1.759-.161a3.5,3.5,0,0,1-.642-.091" transform="translate(-3.193 -44.594)" fill="#e0e0e0"/><path d="M46.451,395.37a3.805,3.805,0,0,1,.351-.6c.262-.411.605-.947,1.018-1.593.859-1.345,2.038-3.208,3.281-5.3s2.327-4.015,3.1-5.412l.914-1.655a3.831,3.831,0,0,1,.36-.595,4.085,4.085,0,0,1-.28.636c-.193.4-.482.981-.85,1.691-.736,1.418-1.793,3.357-3.041,5.452s-2.449,3.948-3.344,5.272c-.449.661-.818,1.192-1.08,1.553a4.187,4.187,0,0,1-.426.549" transform="translate(-5.229 -42.802)" fill="#e0e0e0"/><path d="M106.482,73.909H45.111a5.243,5.243,0,0,1-5.243-5.243V13.734a5.243,5.243,0,0,1,5.243-5.243h61.371a5.243,5.243,0,0,1,5.243,5.243V68.666a5.243,5.243,0,0,1-5.243,5.243" transform="translate(-4.488 -0.956)" fill="#fff"/><path d="M111.725,19.624H39.868V13.878a5.387,5.387,0,0,1,5.387-5.387h61.508a4.961,4.961,0,0,1,4.962,4.962Z" transform="translate(-4.488 -0.956)" fill="#ebebeb"/><path d="M51.08,15.779a1.764,1.764,0,1,1-1.762-1.658,1.712,1.712,0,0,1,1.762,1.658" transform="translate(-5.354 -1.59)" fill="#fff"/><path d="M56.489,15.779a1.764,1.764,0,1,1-1.762-1.658,1.712,1.712,0,0,1,1.762,1.658" transform="translate(-5.963 -1.59)" fill="#fff"/><path d="M61.9,15.779a1.764,1.764,0,1,1-1.762-1.658A1.712,1.712,0,0,1,61.9,15.779" transform="translate(-6.572 -1.59)" fill="#fff"/><path d="M106.452,73.879c0-.014.233-.012.68-.073a5.058,5.058,0,0,0,1.877-.65,5.186,5.186,0,0,0,2.6-4.347c.013-.739,0-1.536,0-2.375-.018-6.733-.043-16.449-.074-28.454-.009-6.007-.018-12.586-.028-19.649q0-1.324,0-2.671c-.022-.887.048-1.828-.062-2.684a5.048,5.048,0,0,0-4.507-4.286c-.447-.033-.931-.022-1.407-.023l-2.882,0-5.881,0-51.674.018a5.033,5.033,0,0,0-4.835,3.685,5.409,5.409,0,0,0-.184,1.616v1.689q0,1.687,0,3.361,0,6.7,0,13.184c0,8.644-.009,16.982-.013,24.925q0,5.954,0,11.6a5.059,5.059,0,0,0,2.675,4.341,5.186,5.186,0,0,0,2.524.59l2.671,0,19.649.028,28.453.074,7.736.043,2.012.022c.453.008.685.024.685.024s-.233.016-.685.024l-2.012.022-7.736.043-28.453.074-19.649.028-2.671,0a5.567,5.567,0,0,1-2.709-.63,5.46,5.46,0,0,1-2.9-4.68q-.008-5.647-.016-11.611c0-7.943-.009-16.282-.013-24.925q0-6.483,0-13.184,0-1.675,0-3.361V13.993a5.916,5.916,0,0,1,.2-1.738,5.5,5.5,0,0,1,5.28-4.024l51.674.018,5.881,0,2.882,0c.478,0,.946-.009,1.445.028a5.453,5.453,0,0,1,4.86,4.638,26.953,26.953,0,0,1,.059,2.74q0,1.347,0,2.671c-.01,7.062-.02,13.642-.028,19.649-.031,12.005-.056,21.722-.074,28.454-.007.841,0,1.63-.02,2.38a5.284,5.284,0,0,1-2.711,4.423,4.945,4.945,0,0,1-1.916.615,4.2,4.2,0,0,1-.686.026" transform="translate(-4.459 -0.927)" fill="#ebebeb"/><path d="M103.023,70.224H49.728a3.954,3.954,0,0,1-3.954-3.954V30.643a3.954,3.954,0,0,1,3.954-3.954h53.294a3.954,3.954,0,0,1,3.954,3.954V66.27a3.954,3.954,0,0,1-3.954,3.954" transform="translate(-5.153 -3.004)" fill="#f5f5f5"/><path d="M51.526,69.889l14.94-21.263a1.691,1.691,0,0,1,2.7-.09l10.266,12.73a1.693,1.693,0,0,0,2.489.158l6.013-5.774a1.692,1.692,0,0,1,2.466.13l11.788,13.991a1.691,1.691,0,0,1-1.293,2.781H52.91a1.692,1.692,0,0,1-1.384-2.664" transform="translate(-5.766 -5.393)" fill="#ebebeb"/><path d="M88.651,41.071a5.2,5.2,0,1,1-4.315-4.316,5.206,5.206,0,0,1,4.315,4.316" transform="translate(-8.816 -4.131)" fill="#ebebeb"/><path d="M675.585,239.937H636.172a5.243,5.243,0,0,1-5.243-5.243V199.753a5.243,5.243,0,0,1,5.243-5.243h39.413a5.243,5.243,0,0,1,5.243,5.243v34.941a5.243,5.243,0,0,1-5.243,5.243" transform="translate(-71.026 -21.897)" fill="#fff"/><path d="M680.828,202.241h-49.9V199.9a5.387,5.387,0,0,1,5.387-5.387h39.551a4.961,4.961,0,0,1,4.962,4.962Z" transform="translate(-71.026 -21.897)" fill="#e0e0e0"/><path d="M638.714,199.571a1.226,1.226,0,1,1-1.223-1.151,1.189,1.189,0,0,1,1.223,1.151" transform="translate(-71.627 -22.337)" fill="#fff"/><path d="M642.472,199.571a1.225,1.225,0,1,1-1.223-1.151,1.189,1.189,0,0,1,1.223,1.151" transform="translate(-72.05 -22.337)" fill="#fff"/><path d="M646.228,199.571A1.226,1.226,0,1,1,645,198.42a1.189,1.189,0,0,1,1.223,1.151" transform="translate(-72.473 -22.337)" fill="#fff"/><path d="M675.556,239.908a6.313,6.313,0,0,0,1.79-.37,5.19,5.19,0,0,0,3.25-3.8,8.517,8.517,0,0,0,.1-1.793q0-.957-.01-2.006-.009-2.1-.019-4.549c-.01-3.267-.021-6.984-.034-11.09s-.018-8.612-.028-13.441c-.015-1.2.024-2.458-.035-3.663a5.067,5.067,0,0,0-1.623-3.188c-1.869-1.879-4.795-1.184-7.454-1.312l-35.348.018a5,5,0,0,0-4.87,3.83,9.089,9.089,0,0,0-.148,2.232q0,4.58,0,9.019c0,5.913-.009,11.616-.013,17.05q0,4.072,0,7.935a4.986,4.986,0,0,0,1.339,3.314,5.04,5.04,0,0,0,3.091,1.585c4.783.087,9.32.039,13.417.067l19.463.074,5.292.043c.59.011,1.048.017,1.376.022.31.008.468.024.468.024s-.159.016-.468.024l-1.376.022-5.292.044-19.463.074c-4.118-.008-8.589.062-13.462-.014a5.441,5.441,0,0,1-4.791-5.27q-.008-3.864-.016-7.944c0-5.434-.008-11.137-.013-17.05q0-4.435,0-9.019a9.5,9.5,0,0,1,.159-2.34,5.466,5.466,0,0,1,5.318-4.184l35.348.019,4.022,0a5.461,5.461,0,0,1,5.448,4.879c.06,1.288.013,2.488.025,3.705-.011,4.829-.02,9.33-.029,13.441s-.024,7.823-.034,11.09q-.011,2.447-.02,4.549-.005,1.048-.01,2.006a8.654,8.654,0,0,1-.127,1.83,5.384,5.384,0,0,1-1.486,2.672,5.33,5.33,0,0,1-1.909,1.182,4.926,4.926,0,0,1-1.352.282c-.311.008-.47,0-.47,0" transform="translate(-70.997 -21.867)" fill="#e0e0e0"/><path d="M673.577,237.379H638.985a3.954,3.954,0,0,1-3.954-3.954V211.1a3.954,3.954,0,0,1,3.954-3.954h34.592a3.954,3.954,0,0,1,3.954,3.954v22.323a3.954,3.954,0,0,1-3.954,3.954" transform="translate(-71.488 -23.319)" fill="#f5f5f5"/><path d="M639.025,237.147,649.4,222.382a1.174,1.174,0,0,1,1.876-.062l7.129,8.84a1.175,1.175,0,0,0,1.728.11l4.176-4.01a1.174,1.174,0,0,1,1.712.09l8.187,9.716a1.175,1.175,0,0,1-.9,1.932H639.986a1.175,1.175,0,0,1-.961-1.85" transform="translate(-71.913 -24.978)" fill="#ebebeb"/><path d="M664.805,217.134a3.613,3.613,0,1,1-3-3,3.615,3.615,0,0,1,3,3" transform="translate(-74.032 -24.101)" fill="#ebebeb"/><path d="M59.53,273.321H5.5A5.243,5.243,0,0,1,.26,268.078v-59.75A5.243,5.243,0,0,1,5.5,203.085H59.53a5.243,5.243,0,0,1,5.243,5.243v59.75a5.243,5.243,0,0,1-5.243,5.243" transform="translate(-0.029 -22.862)" fill="#fff"/><path d="M64.773,215.037H.26v-6.566a5.387,5.387,0,0,1,5.387-5.387H59.812a4.961,4.961,0,0,1,4.962,4.962Z" transform="translate(-0.029 -22.862)" fill="#e0e0e0"/><path d="M12.3,210.909a1.838,1.838,0,0,1-1.891,1.78,1.783,1.783,0,1,1,0-3.56,1.838,1.838,0,0,1,1.891,1.78" transform="translate(-0.959 -23.542)" fill="#fff"/><path d="M18.105,210.909a1.895,1.895,0,1,1-1.891-1.78,1.838,1.838,0,0,1,1.891,1.78" transform="translate(-1.612 -23.542)" fill="#fff"/><path d="M23.913,210.909a1.895,1.895,0,1,1-1.891-1.78,1.838,1.838,0,0,1,1.891,1.78" transform="translate(-2.266 -23.542)" fill="#fff"/><path d="M59.5,273.292c0-.014.229-.014.667-.071a5.209,5.209,0,0,0,3.979-2.907,5.129,5.129,0,0,0,.5-1.94c.029-.72,0-1.506.006-2.327-.018-6.605-.043-16.138-.074-27.913-.009-5.893-.019-12.348-.028-19.276q-.009-5.193-.02-10.731a5.033,5.033,0,0,0-2.773-4.324,5.371,5.371,0,0,0-2.684-.537l-2.9,0-50.692.018a5.049,5.049,0,0,0-4.8,3.564,11.926,11.926,0,0,0-.215,3.231v3.3q0,6.568,0,12.934c0,8.479-.009,16.659-.013,24.45q-.005,5.844-.01,11.387,0,2.767-.006,5.454a5.153,5.153,0,0,0,2,4.47,4.9,4.9,0,0,0,2.258.963,21.31,21.31,0,0,0,2.5.07l4.921.007,9.249.015,27.911.074,7.589.044,1.973.022c.445.008.673.024.673.024s-.228.016-.673.024l-1.973.023-7.589.043-27.911.074-9.249.015-4.921.007a21.3,21.3,0,0,1-2.556-.069A5.271,5.271,0,0,1,2.2,272.379,5.544,5.544,0,0,1,.033,267.6q0-2.685-.005-5.454-.005-5.538-.01-11.387c0-7.792-.009-15.971-.013-24.45q0-6.36,0-12.934,0-1.643,0-3.3v-1.657a5.994,5.994,0,0,1,.233-1.707,5.51,5.51,0,0,1,5.246-3.892l50.692.018,2.9,0a5.777,5.777,0,0,1,2.871.586,5.445,5.445,0,0,1,2.993,4.682q0,5.54,0,10.745c-.011,6.928-.02,13.382-.028,19.276-.031,11.775-.056,21.308-.074,27.913-.011.825.01,1.6-.027,2.337a5.3,5.3,0,0,1-2.748,4.294,5.036,5.036,0,0,1-1.884.59,4.411,4.411,0,0,1-.674.024" transform="translate(0 -22.833)" fill="#e0e0e0"/><path d="M30.987,245.643,14.77,229.178a23.11,23.11,0,1,1-5.842,23.358Z" transform="translate(-1.005 -25.054)" fill="#f5f5f5"/><path d="M27.022,245.893l-19.251,5.77a20.093,20.093,0,0,1,4.959-19.9Z" transform="translate(-0.779 -26.091)" fill="#f5f5f5"/><path d="M430.279,51.532H391.385a6.319,6.319,0,0,1-6.319-6.319V6.319A6.319,6.319,0,0,1,391.385,0h38.893a6.319,6.319,0,0,1,6.32,6.319V45.213a6.319,6.319,0,0,1-6.32,6.319" transform="translate(-43.348 0)" fill="#f5f5f5"/><path d="M394.051,28.212l5.191-5.191,10.011,8.9L425.97,15.138l4.82,5.191-22.279,21.6Z" transform="translate(-44.36 -1.704)" fill="#fff"/><path d="M585.088,40.881l-.624-35.219q.313-.005.624-.005a35.225,35.225,0,1,1-33.622,45.731Z" transform="translate(-62.081 -0.637)" fill="#ebebeb"/><path d="M581.217,38.466,551.04,48.04A30.631,30.631,0,0,1,579.724,6.659q.4,0,.808.011Z" transform="translate(-61.813 -0.75)" fill="#ebebeb"/></g><g clip-path="url(#a)"><path d="M597.105,408.089c0,.128-130.78.231-292.068.231-161.344,0-292.1-.1-292.1-.231s130.752-.231,292.1-.231c161.288,0,292.068.1,292.068.231" transform="translate(-1.457 -45.914)" fill="#263238"/></g><g clip-path="url(#a)"><path d="M237.389,108.3h-80.5a5.243,5.243,0,0,1-5.242-5.243V30.711a5.243,5.243,0,0,1,5.242-5.243h80.5a5.243,5.243,0,0,1,5.243,5.243v72.347a5.243,5.243,0,0,1-5.243,5.243" transform="translate(-17.071 -2.867)" fill="#fff"/><path d="M242.632,39.565H151.647V30.856a5.386,5.386,0,0,1,5.387-5.387h80.637a4.961,4.961,0,0,1,4.962,4.962Z" transform="translate(-17.071 -2.867)" fill="#e0e0e0"/><path d="M165.843,34.7a2.234,2.234,0,1,1-2.23-2.1,2.168,2.168,0,0,1,2.23,2.1" transform="translate(-18.167 -3.67)" fill="#fff"/><path d="M172.692,34.7a2.234,2.234,0,1,1-2.23-2.1,2.168,2.168,0,0,1,2.23,2.1" transform="translate(-18.939 -3.67)" fill="#fff"/><path d="M179.542,34.7a2.234,2.234,0,1,1-2.23-2.1,2.168,2.168,0,0,1,2.23,2.1" transform="translate(-19.71 -3.67)" fill="#fff"/><path d="M162.922,49.73V100.4c0-.469,73.135,0,73.135,0" transform="translate(-18.341 -5.598)" fill="#fff"/><path d="M236.026,100.4a1.641,1.641,0,0,1-.319.021l-.939.018-3.607.021-13.267,0-43.771-.029-6.328.039-3.1.047c-.509.014-1.023.025-1.517.06l-.171.019-.022,0,0,0c.526-.013-.411-.264-.327-.2V99.161c0-4.03.009-7.918.013-11.622.019-7.4.035-14.068.05-19.679.031-5.581.056-10.106.074-13.266.019-1.545.033-2.755.043-3.607.01-.393.017-.7.023-.938a1.618,1.618,0,0,1,.023-.319,1.645,1.645,0,0,1,.024.319c.005.235.013.545.023.938.01.853.025,2.062.043,3.607.017,3.16.043,7.685.073,13.266.014,5.61.031,12.278.05,19.679,0,3.7.009,7.592.013,11.622v1.233c.077.084-.836-.2-.3-.217l.048-.015a.6.6,0,0,1,.071-.014l.208-.023c.521-.038,1.028-.048,1.542-.063l3.1-.051,6.333-.041c17.095-.037,32.569.075,43.772.165l13.267.145,3.607.065.938.028a1.617,1.617,0,0,1,.319.026" transform="translate(-18.31 -5.598)" fill="#263238"/><rect width="15.605" height="20.325" transform="translate(152.03 68.784)" fill="#455a64"/><rect width="15.605" height="31.197" transform="translate(173.224 57.913)" fill="#455a64"/><rect width="15.605" height="40.302" transform="translate(194.417 48.807)" fill="#455a64"/><path d="M237.358,108.272c0-.023.3,0,.866-.1a5.225,5.225,0,0,0,4.269-4.53c.072-1.63.008-3.547.019-5.684-.018-8.58-.043-20.973-.074-36.286-.009-7.661-.019-16.051-.028-25.057q0-1.689,0-3.407,0-.859,0-1.724a9.063,9.063,0,0,0-.086-1.7,5.052,5.052,0,0,0-4.764-4.132H222.764l-65.9.018a5.01,5.01,0,0,0-3.71,1.643,5.166,5.166,0,0,0-1.31,3.843q0,4.328,0,8.6,0,8.539,0,16.813c-.005,11.024-.01,21.656-.014,31.786q0,7.593,0,14.8a5.038,5.038,0,0,0,4.061,4.828,8.533,8.533,0,0,0,1.7.1l1.724,0,3.407,0,25.058.028,36.283.074,9.865.043,2.566.023c.578.008.874.024.874.024s-.3.016-.874.024l-2.566.022-9.865.043-36.283.074-25.058.028-3.407,0-1.724,0a8.906,8.906,0,0,1-1.77-.1,5.438,5.438,0,0,1-4.392-5.206q-.008-7.2-.016-14.806c0-10.13-.009-20.762-.014-31.786q0-8.268,0-16.813,0-4.27,0-8.6A5.64,5.64,0,0,1,152.815,27a5.47,5.47,0,0,1,4.052-1.793l65.9.018q7.6.011,14.807.02a5.452,5.452,0,0,1,5.137,4.467,9.361,9.361,0,0,1,.09,1.768q0,.867,0,1.724,0,1.719,0,3.407c-.011,9.006-.02,17.4-.028,25.057-.031,15.313-.056,27.706-.074,36.286-.025,2.145.027,4.038-.061,5.7a5.3,5.3,0,0,1-2.047,3.559,5.108,5.108,0,0,1-2.351,1,3.892,3.892,0,0,1-.652.056c-.147,0-.221,0-.221,0" transform="translate(-17.041 -2.838)" fill="#263238"/></g><g clip-path="url(#a)"><path d="M635.827,157.26l-1.169-8.092a27.272,27.272,0,1,1,8.3,5.149l.011.01Z" transform="translate(-70.439 -11.456)" fill="#fff"/><path d="M640.061,130.39l4.1-4.1,7.916,7.036L665.3,120.054l3.812,4.1-17.616,17.08Z" transform="translate(-72.054 -13.515)" fill="#fd963d"/><path d="M635.8,157.231s.166-.081.477-.217l1.374-.591,5.254-2.227-.023.187-.012-.009a.108.108,0,0,1,.1-.188,26.972,26.972,0,0,0,17.112.84c.7-.185,1.383-.469,2.094-.7a14.966,14.966,0,0,0,2.108-.879,26.786,26.786,0,0,0,7.983-5.68,26.913,26.913,0,0,0,3.808-32.534,27.42,27.42,0,0,0-3.936-5.156,27.964,27.964,0,0,0-11.171-6.828,27.168,27.168,0,0,0-6.326-1.159A26.687,26.687,0,0,0,642.5,104.1a27.089,27.089,0,0,0-7.757,44.98c.349,2.617.617,4.639.8,6.032.086.671.153,1.19.2,1.566.044.355.06.549.06.549s-.036-.16-.092-.5l-.247-1.531c-.217-1.4-.533-3.425-.941-6.046l.036.066a27.1,27.1,0,0,1-7.432-11.008A27.469,27.469,0,0,1,642.3,103.631a27.173,27.173,0,0,1,12.384-2.071,27.672,27.672,0,0,1,6.453,1.178,27.127,27.127,0,0,1,15.4,12.223,27.461,27.461,0,0,1-3.942,33.114,27.125,27.125,0,0,1-8.135,5.732,15.223,15.223,0,0,1-2.143.881c-.723.234-1.417.517-2.129.7a27.733,27.733,0,0,1-4.159.8,27.293,27.293,0,0,1-13.131-1.8l.1-.188.013.009a.109.109,0,0,1,.025.151.121.121,0,0,1-.048.037l-5.369,2.134-1.367.534c-.3.117-.456.173-.452.165" transform="translate(-70.417 -11.427)" fill="#263238"/></g><g clip-path="url(#a)"><path d="M49.092,170.364l.2-8.088c7.023-8.068,9.448-20.531,2.329-33.941-24.851-26.317-62.28.479-45.371,32.488,11.349,12.059,25.269,13.011,35.491,7.49l-.011.01Z" transform="translate(-0.225 -13.246)" fill="#fff"/><path d="M49.061,170.334s-.173-.06-.494-.156l-1.42-.419-5.423-1.57.045.181.011-.01a.107.107,0,0,0,.005-.152.108.108,0,0,0-.13-.021,26.668,26.668,0,0,1-16.713,2.84c-.709-.1-1.415-.3-2.14-.445a14.753,14.753,0,0,1-2.174-.616,26.5,26.5,0,0,1-8.512-4.641,26.632,26.632,0,0,1-7.57-31.515,27.146,27.146,0,0,1,3.26-5.529,27.659,27.659,0,0,1,10.172-8.022,26.89,26.89,0,0,1,6.079-1.883,26.413,26.413,0,0,1,12.176.55A26.8,26.8,0,0,1,49.148,162.2c-.035,2.613-.061,4.63-.08,6.02-.005.669-.01,1.187-.012,1.563,0,.354.005.547.005.547s.016-.161.031-.5c.015-.367.035-.876.062-1.533.05-1.4.121-3.427.212-6.05l-.027.069a26.814,26.814,0,0,0,6.006-11.69A27.178,27.178,0,0,0,36.371,118.44a26.868,26.868,0,0,0-12.411-.578,27.4,27.4,0,0,0-6.2,1.916A26.845,26.845,0,0,0,4.068,133.6a27.17,27.17,0,0,0,7.77,32.068,26.825,26.825,0,0,0,8.667,4.675,15.083,15.083,0,0,0,2.209.612c.738.146,1.454.342,2.173.438a27.412,27.412,0,0,0,4.181.3,27.016,27.016,0,0,0,12.689-3.313l-.125-.172-.011.01a.107.107,0,0,0-.006.151.112.112,0,0,0,.051.031l5.526,1.465,1.406.364a4.481,4.481,0,0,0,.463.109" transform="translate(-0.195 -13.216)" fill="#263238"/><path d="M42.384,145.666c-2.673,3.511,1.295,7.477,4.8,4.8,2.675-3.51-1.294-7.479-4.8-4.8" transform="translate(-4.673 -16.299)" fill="#263238"/><path d="M29.523,145.666c-2.673,3.511,1.295,7.477,4.8,4.8,2.675-3.51-1.294-7.479-4.8-4.8" transform="translate(-3.225 -16.299)" fill="#263238"/><path d="M16.663,145.666c-2.674,3.511,1.295,7.478,4.8,4.805,2.674-3.511-1.294-7.479-4.8-4.805" transform="translate(-1.777 -16.299)" fill="#263238"/></g><g clip-path="url(#a)"><path d="M187.3,253.281,169.936,248.6l-3.455,15.713-8.668-23.7c-4.041-11.33-9.571-15.233-13.385-16.289l-1.379,1.8L146.7,288.8l11.576,14.4c5.413,6.734,16.335,5.409,19.465-2.643,6.5-16.727,8.707-42.185,9.556-47.278" transform="translate(-16.104 -25.253)" fill="#f6d05c"/><path d="M55.1,399.428h86.868l-9.1-62.366L77.5,333.1s-9.55,9.361-12.713,20.351S55.1,399.428,55.1,399.428" transform="translate(-6.203 -37.498)" fill="#263238"/><path d="M69.88,169.906c2.051-18.5,6.085-38.873,32.458-37.854,0,0,19.863.693,26.185,14.811,3.423,7.643,2.459,36.683,4.027,60.623l3.854,30.721L56.648,225.884s11.957-44.473,13.232-55.978" transform="translate(-6.377 -14.862)" fill="#263238"/><path d="M109.338,140.121l-1.7-1.515-17.553,7.753a4.968,4.968,0,0,0-4.53,4.961l4.014,58.869c.106,3.931-.948,6.392,1.528,9.447l17.011,20.35c5.943,7.334,4.873-9.206,9.111-17.64.3-.589-1.139-2.7-1.058-3.117a11.754,11.754,0,0,0,.222-1.305c.376-4.68.273-8.724.273-8.724.149-5.13.185-7.234.187-7.186,0,0,10.853-1.611,13.34-15.691,1.236-7,.645-16.563-.075-25.967-1-13.014-10.3-20.59-20.772-20.233" transform="translate(-9.631 -15.603)" fill="#ffc09d"/><path d="M112.041,174.985a1.811,1.811,0,0,1-1.778,1.8,1.732,1.732,0,0,1-1.839-1.666,1.812,1.812,0,0,1,1.776-1.8,1.733,1.733,0,0,1,1.841,1.666" transform="translate(-12.206 -19.511)" fill="#263238"/><path d="M131.705,174.785a1.811,1.811,0,0,1-1.778,1.8,1.733,1.733,0,0,1-1.839-1.665,1.812,1.812,0,0,1,1.776-1.8,1.733,1.733,0,0,1,1.841,1.666" transform="translate(-14.419 -19.489)" fill="#263238"/><path d="M132.9,167.131c-.229.232-1.583-.807-3.532-.835-1.946-.057-3.393.921-3.6.679-.1-.107.134-.53.764-.973a4.983,4.983,0,0,1,2.888-.836,4.775,4.775,0,0,1,2.806.96c.591.47.787.9.674,1" transform="translate(-14.155 -18.593)" fill="#263238"/><path d="M110.663,168.04c-.252.208-1.494-.965-3.428-1.194-1.93-.256-3.471.568-3.652.306-.09-.118.185-.514.861-.889a4.976,4.976,0,0,1,2.958-.535,4.78,4.78,0,0,1,2.693,1.243c.538.528.69.977.568,1.068" transform="translate(-11.659 -18.652)" fill="#263238"/><path d="M119.667,181.983a12.916,12.916,0,0,1,3.174-.516c.5-.043.972-.133,1.061-.471a2.532,2.532,0,0,0-.307-1.481q-.671-1.818-1.406-3.814c-1.951-5.43-3.354-9.892-3.134-9.968s1.979,4.263,3.93,9.692q.7,2.009,1.344,3.836a2.88,2.88,0,0,1,.225,1.958,1.252,1.252,0,0,1-.831.713,3.406,3.406,0,0,1-.847.1,12.673,12.673,0,0,1-3.208-.051" transform="translate(-13.4 -18.657)" fill="#263238"/><path d="M118.427,209.375A35.936,35.936,0,0,1,99.6,204s4.586,9.857,18.742,8.779Z" transform="translate(-11.213 -22.965)" fill="#ff9b6c"/><path d="M112.247,159.474c-.254.5-2.156.022-4.458.024-2.3-.044-4.214.4-4.459-.107-.107-.242.271-.7,1.073-1.119a7.76,7.76,0,0,1,6.794.063c.792.436,1.163.9,1.051,1.139" transform="translate(-11.63 -17.733)" fill="#263238"/><path d="M132.337,157.707c-.351.437-1.685-.046-3.3-.1-1.612-.106-2.987.246-3.293-.222-.134-.227.089-.667.693-1.076a4.78,4.78,0,0,1,5.311.256c.563.465.743.924.587,1.138" transform="translate(-14.151 -17.52)" fill="#263238"/><path d="M86.431,175.922s10.066,2.774,14.9-22c1.651-8.473,9.224-15.539,9.224-15.539l-3.193-.847s-19.468,6.181-19.79,6.439S82.945,154.3,82.945,154.3Z" transform="translate(-9.337 -15.483)" fill="#263238"/><path d="M88.321,179.175c.016-1.052-1.157-3.552-2.193-3.732-2.766-.48-7.768-.343-7.936,6.7-.23,9.627,9.482,7.871,9.506,7.6.019-.215.569-6.931.623-10.562" transform="translate(-8.802 -19.732)" fill="#ffc09d"/><path d="M85.154,186.411c-.042-.032-.17.114-.457.237a1.678,1.678,0,0,1-1.254,0c-1.008-.4-1.826-2.032-1.832-3.769a5.533,5.533,0,0,1,.527-2.39,1.933,1.933,0,0,1,1.292-1.257.854.854,0,0,1,.979.483c.122.272.057.463.107.48.026.026.21-.155.142-.555a1.069,1.069,0,0,0-.365-.613,1.268,1.268,0,0,0-.921-.267,2.36,2.36,0,0,0-1.787,1.451,5.692,5.692,0,0,0-.645,2.669c.015,1.942.965,3.78,2.347,4.215a1.8,1.8,0,0,0,1.54-.218c.3-.23.359-.444.327-.462" transform="translate(-9.112 -20.123)" fill="#ff9b6c"/><path d="M94.315,171.224a14.045,14.045,0,0,0,1.43-.338,8.682,8.682,0,0,0,3.357-2.1,11.875,11.875,0,0,0,1.715-2.148,16.07,16.07,0,0,0,1.36-2.857,60.136,60.136,0,0,0,1.841-7.055c.593-2.529,1.247-4.92,1.981-7.051a40.208,40.208,0,0,1,2.326-5.511,28.8,28.8,0,0,1,2.09-3.448c.271-.392.509-.676.66-.875a2.226,2.226,0,0,1,.247-.292,2.129,2.129,0,0,1-.2.322c-.138.209-.363.5-.62.9a32.941,32.941,0,0,0-2.011,3.474,42.163,42.163,0,0,0-2.263,5.5c-.719,2.125-1.364,4.509-1.955,7.032a57.792,57.792,0,0,1-1.869,7.08,16.057,16.057,0,0,1-1.4,2.887,11.912,11.912,0,0,1-1.77,2.166,8.528,8.528,0,0,1-3.452,2.063,5.344,5.344,0,0,1-1.46.242" transform="translate(-10.617 -15.71)" fill="#263238"/><path d="M80.321,212.237a2.714,2.714,0,0,1-.119-.461c-.072-.336-.167-.786-.288-1.359-.245-1.226-.594-2.972-1.036-5.188l.231-.041c.059.347.127.732.2,1.13l-.012-.035.215.425-.238.1a92.676,92.676,0,0,1-3.59-15.367,93.937,93.937,0,0,1-.916-9.986,45.824,45.824,0,0,1,.59-11,17.272,17.272,0,0,1,1.6-4.419,23.827,23.827,0,0,1,2.535-3.788c1.88-2.321,3.921-4.331,5.78-6.322l9.983-10.488,6.757-7.044,1.854-1.9.49-.486a.934.934,0,0,1,.178-.155.994.994,0,0,1-.146.186l-.458.516-1.794,1.957-6.656,7.141L85.568,156.2c-1.851,2-3.888,4.018-5.738,6.313a18.961,18.961,0,0,0-4.047,8.033,45.886,45.886,0,0,0-.593,10.89,95.786,95.786,0,0,0,.876,9.946,96.842,96.842,0,0,0,3.449,15.344l-.239.1c-.074-.15-.146-.3-.209-.428l-.01-.018,0-.018c-.062-.4-.123-.784-.178-1.132l.231-.041c.4,2.225.708,3.977.928,5.208.095.577.17,1.031.227,1.369a2.689,2.689,0,0,1,.057.473" transform="translate(-8.409 -15.293)" fill="#455a64"/><path d="M81.16,193.739a3.959,3.959,0,1,0,3.827-4.087,3.959,3.959,0,0,0-3.827,4.087" transform="translate(-9.136 -21.35)" fill="#455a64"/><path d="M146.629,241.514a4.543,4.543,0,0,1,.146.909c.072.672.165,1.541.28,2.62.249,2.275.478,5.579.692,9.666.42,8.175.41,19.49,0,31.961s-.741,23.759-.63,31.93c.044,4.084.122,7.39.226,9.672.035,1.084.062,1.957.083,2.631a4.458,4.458,0,0,1-.019.921,4.426,4.426,0,0,1-.124-.911c-.056-.674-.128-1.544-.217-2.626-.19-2.28-.344-5.589-.453-9.679-.241-8.182.015-19.49.421-31.959s.5-23.754.209-31.919c-.149-4.081-.3-7.385-.465-9.664-.061-1.083-.11-1.955-.147-2.629a4.4,4.4,0,0,1,0-.921" transform="translate(-16.495 -27.188)" fill="#263238"/><path d="M73.185,242.91l9.709,76.743,52.518,3.764,3.4,1.733-3.466-63.41-18.234-43.352-1.832-1.116s-1.529,12.814-6.464,12.6c-3.363-.147-16.071-6.181-18.866-8.056l-2.8-8.161Z" transform="translate(-8.239 -24.052)" fill="#fff"/><path d="M58.762,334.165,69.93,308.552,59.112,226.57l18.834-7.894,6.17-6.657s5.725,21.149,7.512,28.557,6.9,23.694,9.182,38.294-.673,42.245-2.94,51.588-11.444,55.584-11.444,55.584H44.266s6.813-35.667,14.5-51.877" transform="translate(-4.983 -23.868)" fill="#f6d05c"/><path d="M120.791,212.6l4.467,4.553,16.643,5.852s4.9,19.2,5.1,25.111-.09,71.566.011,74.652,11.8,60.49,10.851,63.1H146.45s-6.129-47.171-6.534-59.515-1.917-42.674-4.978-57.507S120.6,217.529,120.6,217.529Z" transform="translate(-13.577 -23.933)" fill="#f6d05c"/><path d="M141.01,333.809a1.1,1.1,0,0,1-.034-.307c-.009-.241-.019-.538-.033-.9-.016-.847-.037-2-.065-3.465-.031-3.067-.075-7.406-.129-12.743-.1-10.759-.155-25.626-.427-42.036-.048-2.051-.086-4.079-.169-6.07-.053-1.976-.338-3.926-.549-5.854-.437-3.847-.865-7.554-1.342-11.075s-.989-6.859-1.621-9.948a42.647,42.647,0,0,0-2.674-8.313,108.838,108.838,0,0,0-5.767-11.328l-1.754-2.984-.458-.777a1.143,1.143,0,0,1-.139-.275,1.052,1.052,0,0,1,.2.239l.513.742c.441.659,1.08,1.638,1.863,2.925a97.494,97.494,0,0,1,5.974,11.274,42.426,42.426,0,0,1,2.78,8.385c.66,3.106,1.2,6.452,1.688,9.978s.936,7.238,1.382,11.084c.215,1.919.5,3.874.564,5.9.085,2,.124,4.032.172,6.087.272,16.421.252,31.286.234,42.048-.033,5.338-.06,9.677-.08,12.744-.025,1.462-.044,2.619-.059,3.465-.013.363-.023.659-.032.9a1.093,1.093,0,0,1-.034.307" transform="translate(-14.167 -24.511)" fill="#263238"/><path d="M104.591,310.744a4.612,4.612,0,0,1-.175-.919c-.087-.606-.2-1.5-.314-2.659-.226-2.314-.484-5.672-.548-9.83-.035-2.078-.02-4.358.065-6.8a29.565,29.565,0,0,0-1.215-7.6,125.364,125.364,0,0,0-6.471-16.665c-2.667-5.783-5.412-11.206-7.951-16.118a66.322,66.322,0,0,1-3.4-7.1,60.7,60.7,0,0,1-1.895-6.564c-.959-4.055-1.517-7.377-1.886-9.672-.179-1.148-.3-2.043-.377-2.65a4.724,4.724,0,0,1-.076-.932,5.163,5.163,0,0,1,.208.912l.5,2.629c.446,2.279,1.072,5.584,2.085,9.61a63.1,63.1,0,0,0,1.956,6.491,68.106,68.106,0,0,0,3.432,7.016c2.57,4.9,5.337,10.325,8.012,16.123a121,121,0,0,1,6.453,16.77,29.582,29.582,0,0,1,1.174,7.768c-.106,2.436-.149,4.705-.145,6.778.005,4.146.192,7.5.338,9.815.08,1.109.144,2,.192,2.665a5.469,5.469,0,0,1,.043.934" transform="translate(-9.044 -25.13)" fill="#263238"/><path d="M147.722,237.455a4.545,4.545,0,0,1,.46.782c.3.517.672,1.309,1.138,2.339a47.084,47.084,0,0,1,2.848,9.128,69.45,69.45,0,0,1,1.375,14.115c-.02,5.345-.437,11.2-.97,17.323-1.135,12.246-1.85,23.342-2.091,31.394-.142,4.024-.223,7.282-.271,9.534-.033,1.073-.059,1.934-.078,2.593a4.568,4.568,0,0,1-.073.9,4.708,4.708,0,0,1-.061-.905c-.012-.659-.027-1.521-.046-2.595-.031-2.253-.022-5.515.059-9.545.122-8.06.764-19.193,1.9-31.437.533-6.12.967-11.957,1.02-17.268a71.932,71.932,0,0,0-1.223-14.02,51.56,51.56,0,0,0-2.626-9.122c-.428-1.038-.764-1.844-1.02-2.378a4.693,4.693,0,0,1-.34-.841" transform="translate(-16.629 -26.731)" fill="#263238"/><path d="M112.225,187.922a5.659,5.659,0,0,0-.6,3.285,2.7,2.7,0,0,0,.659,1.778,2.3,2.3,0,0,0,1.682.62,4.6,4.6,0,0,0,1.771-.458,6.276,6.276,0,0,0,2.394-3.062c-1.549-.536-4.276-1.647-5.906-2.164" transform="translate(-12.564 -21.155)" fill="#ff9b6c"/><path d="M116.006,192.948a2.475,2.475,0,0,1-2.158.77,3.117,3.117,0,0,1-1.169-.327,2.274,2.274,0,0,1-.99-1.018,3.127,3.127,0,0,1-.323-1.514,8.626,8.626,0,0,1,.177-1.6,6.46,6.46,0,0,1,.451-1.477l.087-.185.185.069c1.683.627,3.151,1.2,4.195,1.62a7.962,7.962,0,0,1,1.643.76,7.9,7.9,0,0,1-1.738-.479c-1.068-.349-2.552-.863-4.237-1.469l.272-.115a6.419,6.419,0,0,0-.4,1.365,4.678,4.678,0,0,0,.074,2.83,2.232,2.232,0,0,0,1.812,1.21,3.388,3.388,0,0,0,1.568-.208,5.255,5.255,0,0,1,.556-.238" transform="translate(-12.537 -21.119)" fill="#263238"/><path d="M456.915,379.1H182.2a13.576,13.576,0,0,1-13.576-13.576V163.956A13.576,13.576,0,0,1,182.2,150.38H456.915a13.576,13.576,0,0,1,13.576,13.576V365.528A13.576,13.576,0,0,1,456.915,379.1" transform="translate(-18.983 -16.929)" fill="#fff"/><path d="M470.607,181.256H168.624v-17.5A13.377,13.377,0,0,1,182,150.38H456.619a13.987,13.987,0,0,1,13.989,13.987Z" transform="translate(-18.983 -16.929)" fill="#e0e0e0"/><path d="M456.886,379.074s.226-.02.673-.046c.224-.019.5-.017.834-.06l1.15-.181c.431-.1.911-.227,1.438-.376a14.644,14.644,0,0,0,1.673-.675,13.136,13.136,0,0,0,3.712-2.592,13.276,13.276,0,0,0,3.126-4.8l.276-.757c.081-.259.138-.529.21-.8a12.431,12.431,0,0,0,.312-1.673,32.77,32.77,0,0,0,.1-3.632c-.006-5.055-.013-10.886-.021-17.451-.018-26.263-.043-64.26-.074-111.211q-.007-17.608-.015-36.85,0-9.611-.006-19.6,0-4.994,0-10.081c-.018-1.691.036-3.41-.039-5.1a13.349,13.349,0,0,0-8.553-11.745,13.911,13.911,0,0,0-5.1-.9l-5.328,0-21.729.005-45.359.01-201.968.019a13.329,13.329,0,0,0-11.143,5.971,13.59,13.59,0,0,0-2.163,6.116c-.077,1.081-.066,2.195-.064,3.3v3.32q0,13.27,0,26.358,0,26.172,0,51.532c0,33.785-.009,66.374-.013,97.418q0,5.821,0,11.568,0,2.874,0,5.729a44.123,44.123,0,0,0,.172,5.649,13.306,13.306,0,0,0,10.854,11.106,34.1,34.1,0,0,0,5.486.219l42.787.011,76.8.028,111.206.074,30.234.043,7.862.023c1.771.008,2.679.024,2.679.024s-.908.016-2.679.024l-7.862.022-30.234.044-111.206.074-76.8.028-42.787.012a34.3,34.3,0,0,1-5.557-.223,13.718,13.718,0,0,1-11.195-11.446,44.44,44.44,0,0,1-.179-5.712q0-2.855,0-5.729,0-5.748,0-11.568c0-31.044-.009-63.633-.013-97.418q0-25.34,0-51.532,0-13.086,0-26.358v-3.32c0-1.107-.015-2.211.066-3.345a14.057,14.057,0,0,1,2.237-6.329,13.8,13.8,0,0,1,11.529-6.177l201.968.018,45.359.01,21.729.006h5.328a14.329,14.329,0,0,1,5.242.928,13.736,13.736,0,0,1,8.793,12.089c.075,1.73.02,3.419.036,5.119q0,5.086,0,10.081,0,9.99-.007,19.6-.008,19.22-.015,36.85c-.031,46.951-.056,84.948-.073,111.211-.008,6.565-.015,12.4-.021,17.451a32.942,32.942,0,0,1-.113,3.647,12.737,12.737,0,0,1-.32,1.687c-.074.271-.133.542-.216.8s-.188.511-.281.762a13.327,13.327,0,0,1-3.169,4.823,13.127,13.127,0,0,1-3.747,2.589,14.469,14.469,0,0,1-1.685.669c-.531.146-1.014.268-1.447.366L458.4,379c-.332.04-.613.034-.837.049-.449.019-.675.022-.675.022" transform="translate(-18.953 -16.899)" fill="#263238"/><path d="M190.035,169.415a3.536,3.536,0,1,1-3.536-3.536,3.536,3.536,0,0,1,3.536,3.536" transform="translate(-20.597 -18.674)" fill="#fff"/><path d="M201.988,169.415a3.537,3.537,0,1,1-3.536-3.536,3.536,3.536,0,0,1,3.536,3.536" transform="translate(-21.942 -18.674)" fill="#fff"/><path d="M213.941,169.415a3.537,3.537,0,1,1-3.536-3.536,3.536,3.536,0,0,1,3.536,3.536" transform="translate(-23.288 -18.674)" fill="#fff"/><path d="M435.746,368.3H213.7a3.954,3.954,0,0,1-3.954-3.954V208.681a3.954,3.954,0,0,1,3.954-3.954H435.746a3.954,3.954,0,0,1,3.954,3.954V364.346a3.954,3.954,0,0,1-3.954,3.954" transform="translate(-23.611 -23.047)" fill="#f5f5f5"/><path d="M231.353,367.043l56.132-79.891a6.356,6.356,0,0,1,10.149-.335l38.572,47.829a6.356,6.356,0,0,0,9.35.595l22.6-21.7a6.356,6.356,0,0,1,9.262.489L421.707,366.6a6.357,6.357,0,0,1-4.861,10.452H236.553a6.356,6.356,0,0,1-5.2-10.01" transform="translate(-25.913 -32.022)" fill="#ebebeb"/><path d="M370.842,258.762a19.548,19.548,0,1,1-16.213-16.213,19.562,19.562,0,0,1,16.213,16.213" transform="translate(-37.374 -27.278)" fill="#ebebeb"/><path d="M166.6,301.256s2.647-2.91-1.64-3.743-26.049-.448-33.784,2.059l-10.5,1.784L122.52,318.6l6.555-1.51,15.642,2.368c1.8.272,7.295-2.022,2.947-4.887,0,0,5.164-2.529,1.258-5.879,0,0,3.8-2,.718-5.961Z" transform="translate(-13.585 -33.447)" fill="#ffc09d"/><path d="M118.618,301.144l4.072-.328-.453,18.5-3.967.82Z" transform="translate(-13.314 -33.864)" fill="#ebebeb"/><path d="M59.751,227.941s-9.934,3.417-12,17.044c-2.247,14.841,3.61,40.72,3.855,50.106.181,6.932,4.731,22.908,19.525,22.357a231.588,231.588,0,0,0,39.73-5.3l-.067-19.429-35.186.024L72.12,259.771" transform="translate(-5.318 -25.66)" fill="#f6d05c"/><path d="M72.1,259.771s.036.193.084.573c.048.4.115.959.2,1.691.17,1.506.417,3.7.736,6.526.621,5.695,1.518,13.932,2.635,24.166l-.163-.147,35.185-.075h.214v.214c.026,6.167.052,12.68.081,19.429v.184l-.177.039a237.493,237.493,0,0,1-28.448,4.539c-4.014.377-7.98.658-11.915.773a17.248,17.248,0,0,1-5.813-.912,16.022,16.022,0,0,1-5.025-2.883,22.753,22.753,0,0,1-6.279-9.238,30.811,30.811,0,0,1-2.1-10.52c-.211-3.463-.712-6.832-1.151-10.1s-.892-6.451-1.317-9.523c-.806-6.151-1.454-11.9-1.678-17.181a58.152,58.152,0,0,1,.792-14.21,12.162,12.162,0,0,1,.381-1.5c.146-.486.269-.97.428-1.432a25.455,25.455,0,0,1,1.088-2.6,21.326,21.326,0,0,1,2.617-4.166,19.323,19.323,0,0,1,5.113-4.453,13.417,13.417,0,0,1,1.573-.809,4.39,4.39,0,0,1,.565-.209s-.186.082-.545.253a15.436,15.436,0,0,0-1.544.847,19.693,19.693,0,0,0-5.02,4.487,21.314,21.314,0,0,0-2.558,4.148,25.452,25.452,0,0,0-1.059,2.582c-.154.459-.272.939-.415,1.422a12.3,12.3,0,0,0-.367,1.49,58.383,58.383,0,0,0-.717,14.139c.245,5.262.911,11,1.733,17.144q.648,4.606,1.34,9.517c.446,3.275.954,6.64,1.174,10.139a30.387,30.387,0,0,0,2.086,10.378A22.329,22.329,0,0,0,60,313.534a15.578,15.578,0,0,0,4.88,2.8,16.822,16.822,0,0,0,5.656.884c3.9-.117,7.873-.4,11.873-.774a239.462,239.462,0,0,0,28.388-4.513l-.176.223c-.019-6.75-.036-13.263-.053-19.429l.215.214-35.185-.027h-.148l-.015-.146c-1.053-10.241-1.9-18.482-2.487-24.181-.281-2.831-.5-5.027-.649-6.535-.068-.735-.12-1.3-.157-1.7-.033-.382-.037-.579-.037-.579" transform="translate(-5.3 -25.66)" fill="#263238"/><path d="M75.066,310.268a11.054,11.054,0,0,1,3.668-9.3,26.133,26.133,0,0,0-2.507,4.387,26.288,26.288,0,0,0-1.161,4.917" transform="translate(-8.439 -33.88)" fill="#263238"/><path d="M70.166,250.495a18.757,18.757,0,0,1-.634-2.342,37.354,37.354,0,0,0-4.623-10.638,18.617,18.617,0,0,1-1.28-2.061,9.353,9.353,0,0,1,1.557,1.876,29.1,29.1,0,0,1,4.67,10.745,9.347,9.347,0,0,1,.309,2.419" transform="translate(-7.163 -26.506)" fill="#263238"/><path d="M362.484,111.474,347.971,58.317c-3.18-13.341-13.594-22.61-26.841-19.062l-1.205.4a24.517,24.517,0,0,0-16.11,29.086c2.82,11.548,6.084,24.27,8.159,30.28,4.293,12.44,17.431,10.243,17.431,10.243.028-.008,2.279,7.668,3.335,11.383l-.488,9.523,9.677-5.51Z" transform="translate(-34.122 -4.333)" fill="#ae7461"/><path d="M332.74,116.946a31.792,31.792,0,0,0,14.67-10.2s-.8,10.688-13.638,13.694Z" transform="translate(-37.458 -12.017)" fill="#6f4439"/><path d="M313.338,84.46a1.88,1.88,0,0,0,2.316,1.23,1.8,1.8,0,0,0,1.305-2.218,1.879,1.879,0,0,0-2.314-1.232,1.8,1.8,0,0,0-1.307,2.219" transform="translate(-35.266 -9.25)" fill="#263238"/><path d="M308.948,77.384c.3.159,1.318-1.289,3.24-1.919,1.91-.658,3.645-.138,3.776-.442.067-.138-.3-.484-1.058-.727a5.165,5.165,0,0,0-3.119.066A4.959,4.959,0,0,0,309.3,76.18c-.44.648-.5,1.135-.357,1.2" transform="translate(-34.772 -8.34)" fill="#263238"/><path d="M331.481,78.6a1.878,1.878,0,0,0,2.316,1.229,1.8,1.8,0,0,0,1.306-2.217,1.88,1.88,0,0,0-2.315-1.232,1.8,1.8,0,0,0-1.307,2.219" transform="translate(-37.308 -8.591)" fill="#263238"/><path d="M330.317,70.858c.3.16,1.32-1.289,3.241-1.919,1.909-.658,3.646-.138,3.776-.442.067-.138-.295-.483-1.059-.726a5.155,5.155,0,0,0-3.118.066,4.961,4.961,0,0,0-2.482,1.818c-.438.648-.5,1.136-.358,1.2" transform="translate(-37.177 -7.606)" fill="#263238"/><path d="M327.381,88.4a13.408,13.408,0,0,0-3.3.47c-.508.113-1,.169-1.2-.138a2.638,2.638,0,0,1-.154-1.562q.1-2.007.213-4.213c.252-5.981.261-10.834.02-10.842s-.641,4.833-.893,10.814c-.051,1.472-.1,2.874-.145,4.215a3,3,0,0,0,.383,2.008,1.3,1.3,0,0,0,1.044.45,3.506,3.506,0,0,0,.871-.161,13.131,13.131,0,0,0,3.161-1.043" transform="translate(-36.239 -8.119)" fill="#263238"/><path d="M327.375,64.239c.423.4,2.116-.729,4.366-1.529,2.236-.846,4.259-1.076,4.321-1.657.021-.274-.509-.588-1.438-.721a8.043,8.043,0,0,0-6.618,2.427c-.624.7-.824,1.284-.631,1.479" transform="translate(-36.846 -6.786)" fill="#263238"/><path d="M306.733,71.021c.539.311,1.967-.637,3.848-1.254,1.863-.671,3.58-.8,3.8-1.378.091-.272-.3-.633-1.128-.827a6.376,6.376,0,0,0-3.364.271,6.264,6.264,0,0,0-2.8,1.85c-.525.66-.6,1.18-.359,1.338" transform="translate(-34.515 -7.593)" fill="#263238"/><path d="M355.966,71.418c.182-.162,7.742-5.382,10.3,3.248s-6.634,9.417-6.723,9.174-3.575-12.422-3.575-12.422" transform="translate(-40.072 -7.847)" fill="#ae7461"/><path d="M361.721,80.134c.029-.039.182.06.47.1a1.572,1.572,0,0,0,1.131-.31c.812-.605,1.151-2.28.732-3.848A5.168,5.168,0,0,0,363,74.051a1.809,1.809,0,0,0-1.472-.819.8.8,0,0,0-.766.675c-.044.275.062.431.02.46-.018.028-.228-.09-.264-.467a1,1,0,0,1,.18-.642,1.18,1.18,0,0,1,.766-.466,2.206,2.206,0,0,1,1.967.872,5.326,5.326,0,0,1,1.233,2.251c.46,1.755.052,3.646-1.089,4.377a1.679,1.679,0,0,1-1.442.179c-.331-.134-.434-.313-.408-.338" transform="translate(-40.584 -8.191)" fill="#6f4439"/><path d="M334.771,89.857c-.3.067.253,2.057-1.053,3.948s-3.485,2.268-3.423,2.551c.008.132.581.254,1.484.027a5.15,5.15,0,0,0,2.889-2.017,4.483,4.483,0,0,0,.755-3.275c-.158-.854-.519-1.284-.651-1.234" transform="translate(-37.182 -10.115)" fill="#263238"/><path d="M280.551,61.288a2.135,2.135,0,0,1,.6-1.48,6.572,6.572,0,0,1,3.07-1.486,18.953,18.953,0,0,0,7.3-4.338,9.4,9.4,0,0,1-2.807-.936,5.649,5.649,0,0,1-3.164-4.918,1.251,1.251,0,0,1,.429-1.027c.509-.34,1.164.065,1.685.384a4.862,4.862,0,0,0,4.941.548,7.982,7.982,0,0,0,2.99-1.949c.026-.05.046-.1.072-.153.311-.6.617-1.17.92-1.726l0,0v0c2.284-4.187,4.41-7.25,6.937-9.264,3.7-2.952,10.543-5.742,15.277-5.9s9.741,2.227,11.695,6.543c1.84-2.817,5.543-3.9,8.9-3.592l.066-.056c3.694.193,6.645,3.156,8.648,6.268.109.17.212.345.319.517a13.835,13.835,0,0,0,5.806,3.048c.379.091.817.211.968.571a1.126,1.126,0,0,1-.308,1.06,6.955,6.955,0,0,1-2.368,1.929,15.564,15.564,0,0,0,1.808,2.016c.568.526,1.244,1.157,1.113,1.92a1.47,1.47,0,0,1-1.283,1.083,4.3,4.3,0,0,1-1.764-.24l1.916,2.343a8.249,8.249,0,0,1-3.7.842c.24,3.4,1.469,9.455,1.292,11.858-2.277.723-2.907.641-3.948,1.368-1.345.942.013,3.416-2.155,3.244-1.1-.087-3.741-3.384-4.374-4.292a51.406,51.406,0,0,1-8.355-20.211,16.536,16.536,0,0,0-5.941-2.069l.189.091c-3.892-.172-8.241-.187-11.093,2.468-2.212,2.059-2.934,5.207-4.233,7.936a18.84,18.84,0,0,1-11.388,10.46c.642,3.955,2.354,10.227,3.229,13.835l-5.158-6.207.006.03c-.369-.343-.7-.7-1.018-1.066l-.106-.108,0-.016a23.215,23.215,0,0,0-1.6-1.722l-.026.04a2.316,2.316,0,0,1-4.129-2,5.235,5.235,0,0,1,.751-1.4,3.664,3.664,0,0,1-3.087,1.866,2.874,2.874,0,0,1-2.762-2.143,2.445,2.445,0,0,1,.835-2.3,8.259,8.259,0,0,1-4.8.351c-1.039-.241-2.161-.816-2.193-2.023" transform="translate(-31.583 -3.269)" fill="#263238"/><path d="M332.849,39.385a11.472,11.472,0,0,1,1.612.78,9.449,9.449,0,0,1,3.188,3.613,16.589,16.589,0,0,1,1.281,3.112c.352,1.161.63,2.433.933,3.772A34.736,34.736,0,0,0,341,54.83a15.1,15.1,0,0,0,.936,2.1,4.739,4.739,0,0,0,1.524,1.852,1.986,1.986,0,0,0,1.959.067,2.953,2.953,0,0,0,1.333-1.384,6.825,6.825,0,0,0,.258-3.573l-.256.111a11.044,11.044,0,0,0,2.325,2.187,3.929,3.929,0,0,0,2.856.6,2.533,2.533,0,0,0,1.233-.617,2.2,2.2,0,0,0,.625-1.135,2.25,2.25,0,0,0-.067-1.2,1.639,1.639,0,0,0-.7-.861l-.1.16a8.48,8.48,0,0,0,3.319,1.225,7.724,7.724,0,0,0,.938.076,1.435,1.435,0,0,0,.323-.016,1.68,1.68,0,0,0-.321-.036c-.21-.021-.524-.051-.924-.123a8.748,8.748,0,0,1-3.234-1.283l-.1.16a1.69,1.69,0,0,1,.643,1.85,1.964,1.964,0,0,1-.57,1.01,2.3,2.3,0,0,1-1.122.544,3.674,3.674,0,0,1-2.659-.59,10.862,10.862,0,0,1-2.251-2.147l-.3-.35.047.461a6.6,6.6,0,0,1-.243,3.412,2.656,2.656,0,0,1-1.193,1.238,1.675,1.675,0,0,1-1.666-.055,4.494,4.494,0,0,1-1.415-1.736,15.054,15.054,0,0,1-.921-2.055,35.286,35.286,0,0,1-1.147-4.127c-.31-1.336-.6-2.612-.965-3.784a16.543,16.543,0,0,0-1.334-3.141,9.314,9.314,0,0,0-3.316-3.61,5.342,5.342,0,0,0-1.675-.678" transform="translate(-37.47 -4.434)" fill="#455a64"/><path d="M292.976,62.664a.475.475,0,0,0,.127.056l.384.136a4.392,4.392,0,0,0,.637.184,7.131,7.131,0,0,0,.888.175,11.688,11.688,0,0,0,5.694-.641,14.928,14.928,0,0,0,6.778-5.088,25.863,25.863,0,0,0,4.293-9.5c.462-1.8.742-3.593,1.135-5.286a17.481,17.481,0,0,1,1.674-4.685,9,9,0,0,1,2.978-3.294,6.453,6.453,0,0,1,1.852-.793,7.1,7.1,0,0,1,1.856-.186,7.632,7.632,0,0,1,5.082,2.221,9.07,9.07,0,0,1,1.216,1.7.422.422,0,0,0-.05-.13c-.048-.1-.1-.221-.175-.369a6.591,6.591,0,0,0-.905-1.282,7.5,7.5,0,0,0-1.985-1.494,7.709,7.709,0,0,0-3.173-.863,7.286,7.286,0,0,0-1.922.174,6.639,6.639,0,0,0-1.931.808,9.2,9.2,0,0,0-3.091,3.37,17.6,17.6,0,0,0-1.72,4.756c-.4,1.707-.682,3.494-1.14,5.279a25.878,25.878,0,0,1-4.22,9.4,14.833,14.833,0,0,1-6.628,5.055,11.866,11.866,0,0,1-5.6.727,18.541,18.541,0,0,1-2.053-.431" transform="translate(-32.981 -3.773)" fill="#455a64"/><path d="M289.816,60.045a2,2,0,0,0,.547.18,10.134,10.134,0,0,0,1.544.28,13.591,13.591,0,0,0,2.33.064,14.325,14.325,0,0,0,5.5-1.451,13.65,13.65,0,0,0,2-1.206,10.108,10.108,0,0,0,1.2-1.005c.264-.261.4-.411.387-.427-.039-.043-.629.524-1.715,1.254a15.491,15.491,0,0,1-1.994,1.128,15.35,15.35,0,0,1-5.395,1.424,15.637,15.637,0,0,1-2.291,0c-1.3-.1-2.1-.3-2.11-.244" transform="translate(-32.626 -6.358)" fill="#455a64"/><path d="M295.079,146.295s-1.283-3.63,3.075-8.518,31.769-15.205,31.769-15.205,10.167,9.9,21.674,3.641c8.954-4.873,8.261-12.509,8.261-12.509l34.831,5.83,1.185,26.318-12.48.073Z" transform="translate(-33.198 -12.8)" fill="#fed5b1"/><path d="M363.426,194.754l42.965-13.473-14.034-34,27.092.518S439,185.946,431.6,197.079c-6.736,10.141-62.186,12.185-62.186,12.185Z" transform="translate(-40.912 -16.58)" fill="#ae7461"/><path d="M370.87,224.906l-.181,2.318c-.162,2.069-2.671,3.494-5.035,2.932l-44-4.456.809-6.965,44.422,1.531c2.952-.024,4.192,1.977,3.984,4.639" transform="translate(-36.21 -24.624)" fill="#455a64"/><path d="M298.525,241.541a27.02,27.02,0,1,1,16.349-18.531,26.877,26.877,0,0,1-16.349,18.531M279.468,192.9a25.2,25.2,0,1,0,15.384-.976,25.207,25.207,0,0,0-15.384.976" transform="translate(-29.452 -21.315)" fill="#263238"/><path d="M298.351,239.728A27.019,27.019,0,1,1,314.7,221.2a26.876,26.876,0,0,1-16.349,18.531m-19.057-48.636a25.2,25.2,0,1,0,15.384-.976,25.207,25.207,0,0,0-15.384.976" transform="translate(-29.432 -21.111)" fill="#455a64"/><path d="M303.657,197.951a2.6,2.6,0,0,1-.362-.259c-.239-.166-.55-.463-1.017-.759a19.354,19.354,0,0,0-4.106-2.182,24.15,24.15,0,0,0-3.065-.965,26.12,26.12,0,0,0-3.642-.577,25.036,25.036,0,0,0-4.072-.037,23.954,23.954,0,0,0-4.317.674,22.233,22.233,0,0,0-4.1,1.488,24.041,24.041,0,0,0-3.48,2.109,22.917,22.917,0,0,0-4.854,4.875,21.946,21.946,0,0,0-2.346,4.02c-.246.494-.373.9-.494,1.17a2.714,2.714,0,0,1-.183.406,2.439,2.439,0,0,1,.129-.426c.1-.272.214-.69.445-1.194a20.5,20.5,0,0,1,2.283-4.095,22.6,22.6,0,0,1,4.861-4.969,23.824,23.824,0,0,1,3.514-2.15A22.245,22.245,0,0,1,283,193.565a23.9,23.9,0,0,1,4.368-.675,24.724,24.724,0,0,1,4.116.055,25.765,25.765,0,0,1,3.675.609,23.714,23.714,0,0,1,3.085,1.008,18.227,18.227,0,0,1,4.1,2.281,11.566,11.566,0,0,1,.988.806,2.467,2.467,0,0,1,.325.3" transform="translate(-30.126 -21.707)" fill="#fff"/><path d="M307.434,236.352c-.04-.057,1.094-.725,2.628-2.162l.593-.572c.2-.2.392-.432.6-.659.427-.446.817-.978,1.243-1.524a20.983,20.983,0,0,0,3.641-8.175c.121-.682.256-1.328.3-1.944.028-.307.074-.6.087-.888s.02-.559.03-.823c.042-2.1-.22-3.391-.151-3.4a5.8,5.8,0,0,1,.175.9,7.992,7.992,0,0,1,.123,1.071,12.984,12.984,0,0,1,.057,1.43q-.005.4-.011.832c-.007.29-.048.589-.072.9a19,19,0,0,1-.279,1.974,20.337,20.337,0,0,1-3.688,8.281,19.413,19.413,0,0,1-1.28,1.527c-.216.226-.411.456-.621.655l-.611.565a13.045,13.045,0,0,1-1.1.914,8,8,0,0,1-.879.625,5.605,5.605,0,0,1-.787.473" transform="translate(-34.609 -24.339)" fill="#fff"/><path d="M302.692,210.338c.007.08-4.952.591-11.076,1.141s-11.1.933-11.1.853,4.952-.59,11.077-1.141,11.095-.933,11.1-.853" transform="translate(-31.578 -23.677)" fill="#fff"/><path d="M304.289,219.006a1.7,1.7,0,0,1-.356.042l-1.024.061-3.764.188c-3.179.155-7.57.382-12.416.685s-9.232.627-12.405.871l-3.759.283-1.023.067a1.72,1.72,0,0,1-.359,0,1.688,1.688,0,0,1,.353-.062l1.018-.12c.886-.1,2.167-.228,3.752-.375,3.17-.3,7.555-.651,12.405-.956s9.243-.5,12.425-.6c1.591-.051,2.88-.083,3.77-.1l1.025-.007a1.652,1.652,0,0,1,.358.017" transform="translate(-30.303 -24.652)" fill="#fff"/><g transform="translate(233.946 187.558)" opacity="0.3"><g clip-path="url(#h)"><path d="M264.069,214.38l48.912-3.03a26.193,26.193,0,0,1,.94,7.4l-50.008,3.041a19.371,19.371,0,0,1,.156-7.407" transform="translate(-263.623 -211.35)" fill="#fff"/></g></g><g transform="translate(235.664 199.64)" opacity="0.3"><g clip-path="url(#i)"><path d="M265.559,228.155l47.848-3.189s.319-.13-.658,1.974l-46.388,3.055a4.484,4.484,0,0,1-.8-1.84" transform="translate(-265.559 -224.965)" fill="#fff"/></g></g><path d="M358.867,200.776s-24.64,7.152-25.342,7.556-10.406,7.312-10.59,9.809,3.088,13.664,3.088,13.664,3.324.476,3.57-5.491l.245-5.967,4.089-3.662s-1.509,6.9-1.127,8.853,3.622,6.882,5.436,6.492a5.279,5.279,0,0,0,2.809-1.622s1.588,4.4,6.216,1.81c0,0,3.032,1.272,5.414.065s4.534-5.057,4.534-5.057a2.067,2.067,0,0,0-2.32-2.264,9.475,9.475,0,0,0-4.755,1.859l-.233-2.5a28.824,28.824,0,0,1,6.07-5.483c1.946-1.167,10.014-1.357,12.52-3.906,2.124-2.161-1.887-6.923-4.55-8.368a4.6,4.6,0,0,0-1.28-.464Z" transform="translate(-36.353 -22.602)" fill="#ae7461"/><path d="M347.516,223.176a1.8,1.8,0,0,0-.27.438,7.977,7.977,0,0,0-.524,1.3,9.016,9.016,0,0,0,1.911,8.688,7.9,7.9,0,0,0,1.021.961,1.775,1.775,0,0,0,.428.284c.031-.037-.564-.467-1.313-1.362a9.373,9.373,0,0,1-1.873-8.521c.3-1.126.663-1.767.619-1.787" transform="translate(-38.987 -25.124)" fill="#6f4439"/><path d="M342.243,219.205a2.287,2.287,0,0,0-.282.471,5.011,5.011,0,0,0-.28.581,8.478,8.478,0,0,0-.316.8,12.61,12.61,0,0,0-.552,2.157,13.2,13.2,0,0,0,.248,5.423,12.541,12.541,0,0,0,.745,2.1c.122.293.269.54.386.762a5.239,5.239,0,0,0,.331.554,2.261,2.261,0,0,0,.325.444c.043-.027-.391-.679-.876-1.833a13.955,13.955,0,0,1-.683-2.083,15.271,15.271,0,0,1-.379-2.654,18,18,0,0,1,.043-2.856,10.918,10.918,0,0,1,.584-1.957c.38-1.193.752-1.882.706-1.9" transform="translate(-38.348 -24.677)" fill="#6f4439"/><path d="M336.73,213.986c-.019-.021-.259.139-.55.5a4,4,0,0,0-.757,1.632,3.362,3.362,0,0,0,.029,1.8,1.466,1.466,0,0,0,.3.682,5.084,5.084,0,0,1,.979-4.615" transform="translate(-37.748 -24.089)" fill="#6f4439"/><path d="M426.339,192.142c-.075.038-.51-.973-1.595-2.335a13.376,13.376,0,0,0-5.344-4.021,11.4,11.4,0,0,0-6.627-.51c-1.707.351-2.714.785-2.743.709a2.3,2.3,0,0,1,.682-.36,12.851,12.851,0,0,1,1.99-.666,11,11,0,0,1,6.87.4A12.688,12.688,0,0,1,425,189.61a10.789,10.789,0,0,1,1.076,1.806,2.253,2.253,0,0,1,.262.726" transform="translate(-46.159 -20.78)" fill="#6f4439"/><path d="M389.158,135.39c-.426-14.353,18.284-20.738,26.672-9.084.048.067.095.133.142.2,7.906,11.261,17.461,37.889,17.461,37.889l-33.848,5.257-8.447-23.109a43.056,43.056,0,0,1-1.979-11.153" transform="translate(-43.808 -13.538)" fill="#fed5b1"/><path d="M270.183,148.053c.054.121.1.243.15.368a6.477,6.477,0,0,1,.358,1.764,5.905,5.905,0,0,0,.039.851,3.263,3.263,0,0,0,.235.5,8.548,8.548,0,0,1,.311,3.514,6.741,6.741,0,0,0,.65,3.765,2.483,2.483,0,0,0,3.307,1.021,1.691,1.691,0,0,0,1.265,1.846,2.444,2.444,0,0,0,2.253-.7,4.553,4.553,0,0,0,1.13-2.158,1.867,1.867,0,0,0,1.86,1.805,2.878,2.878,0,0,0,2.363-1.448,6.612,6.612,0,0,0,.814-2.756,32.824,32.824,0,0,1,.584-3.691s1.213.194,1.765.248l.162.016a22.49,22.49,0,0,0,1.161-2.014c.773-1.59,1.362-2.6,1.953-4.043.444-1.082.73-2.162.061-2.866-1.61-1.695-4.758,1.751-4.758,1.751-.445-1.2-4.1-1.395-4.816.2-.289-.879-.179-1.39-.892-1.982a2.949,2.949,0,0,0-2.593-.653,2.111,2.111,0,0,0-1.574,2.032,3.475,3.475,0,0,0-6.3,1.038,1.384,1.384,0,0,0-.086.478.58.58,0,0,0,.075.21c.164.307.377.579.522.9" transform="translate(-30.348 -16.133)" fill="#ae7461"/><path d="M265.538,146.02a2.77,2.77,0,0,0-2.2.73,4.539,4.539,0,0,0-.686,3.044c1.1.209,1.676.25,2.779.459.233.043.428-.015.62.122.509.361.427,1.58.632,2.17a2.125,2.125,0,0,0,2.684,1.147,2.85,2.85,0,0,0,1.722-2.54,4.4,4.4,0,0,0-1.123-2.97,6.153,6.153,0,0,0-4.433-2.163" transform="translate(-29.566 -16.438)" fill="#ae7461"/><path d="M276.684,145.335c.207.011.206,3.315,0,7.382s-.544,7.354-.751,7.343-.206-3.315,0-7.383.544-7.353.751-7.343" transform="translate(-31.045 -16.361)" fill="#6f4439"/><path d="M282.366,146.124c.2-.009.468,3,.143,6.7s-1.092,6.62-1.286,6.577c-.212-.043.231-2.989.54-6.641s.388-6.63.6-6.635" transform="translate(-31.652 -16.45)" fill="#6f4439"/><path d="M287.95,146.89c.21,0,.3,2.5-.09,5.534s-.853,5.443-1.049,5.424c-.217-.02-.08-2.5.3-5.514s.63-5.446.834-5.444" transform="translate(-32.276 -16.536)" fill="#6f4439"/><path d="M267.7,146.59c-.006-.088.53-.208,1.294.142a4.144,4.144,0,0,1,2.03,2.376,8.313,8.313,0,0,1,.5,3.039c-.09.915-.754,1.181-.769,1.062-.059-.083.3-.4.24-1.078a14.945,14.945,0,0,0-.675-2.759,4.513,4.513,0,0,0-1.592-2.18c-.575-.4-1.042-.486-1.031-.6" transform="translate(-30.136 -16.492)" fill="#6f4439"/><path d="M405.938,121.388a38.522,38.522,0,0,0-3.637,1.521,18.152,18.152,0,0,0-9.864,15.156,38.532,38.532,0,0,0,.082,3.94,4.119,4.119,0,0,1-.24-1.042,15.73,15.73,0,0,1-.169-2.914,17.648,17.648,0,0,1,10.044-15.432,15.688,15.688,0,0,1,2.733-1.026,4.119,4.119,0,0,1,1.05-.2" transform="translate(-44.141 -13.664)" fill="#263238"/><path d="M165.816,236.471c-.812-.287-1.289-.193-1.824-.868a2.741,2.741,0,0,1-.556-2.424,1.964,1.964,0,0,1,1.92-1.422,3.23,3.23,0,0,1,1.091-5.833,1.276,1.276,0,0,1,.445-.07.519.519,0,0,1,.194.074c.281.158.53.362.825.5.111.053.224.1.339.146a6.024,6.024,0,0,0,1.633.369,5.308,5.308,0,0,1,.79.053,2.922,2.922,0,0,1,.461.228,7.957,7.957,0,0,0,3.26.359,6.254,6.254,0,0,1,3.486.679,2.307,2.307,0,0,1,.883,3.094,1.572,1.572,0,0,1,1.691,1.212,2.274,2.274,0,0,1-.695,2.081,4.239,4.239,0,0,1-2.029,1.006,1.735,1.735,0,0,1,1.641,1.764,2.668,2.668,0,0,1-1.393,2.166,6.12,6.12,0,0,1-2.578.7c-.894.084-3.725.492-4.6.706l-3.3.043a2.662,2.662,0,0,1-2.538-3.682,1.7,1.7,0,0,1,.849-.887" transform="translate(-18.388 -25.425)" fill="#ffc09d"/><path d="M166.129,222.07a2.577,2.577,0,0,1,.722-2.026,2.207,2.207,0,0,1,1.985-.6,17.064,17.064,0,0,0,.971,2.675,3.172,3.172,0,0,0,.358.518c.327.48,1.46.428,2,.63a1.974,1.974,0,0,1,1.013,2.516,1.816,1.816,0,0,1-1.922,1.29,6.059,6.059,0,0,1-3.422-1.158,4.864,4.864,0,0,1-1.71-3.847" transform="translate(-18.702 -24.701)" fill="#ffc09d"/><path d="M165.278,232.457c0,.085,3.071.063,6.854-.049s6.848-.272,6.846-.358-3.071-.064-6.854.049-6.847.272-6.845.358" transform="translate(-18.606 -26.117)" fill="#ff9b6c"/><path d="M165.9,237.742a9.155,9.155,0,0,0,1.816.15c1.124.04,2.681.033,4.395-.077s3.259-.305,4.369-.489a9.107,9.107,0,0,0,1.781-.382,12.6,12.6,0,0,0-1.81.167c-1.114.128-2.653.286-4.359.4s-3.252.15-4.373.167a12.5,12.5,0,0,0-1.817.068" transform="translate(-18.675 -26.672)" fill="#ff9b6c"/><path d="M167.707,243.037a9.463,9.463,0,0,0,1.339-.03c.829-.046,1.976-.141,3.238-.275s2.4-.273,3.227-.376a11.649,11.649,0,0,0,1.332-.2,10.449,10.449,0,0,0-1.343.082c-.828.074-1.97.194-3.23.328s-2.4.247-3.224.322a13.14,13.14,0,0,0-1.339.145" transform="translate(-18.879 -27.26)" fill="#ff9b6c"/><path d="M166.631,224.084a1.677,1.677,0,0,0,.226,1.139,3.9,3.9,0,0,0,2.119,1.82,8.184,8.184,0,0,0,1.486.421,6.02,6.02,0,0,0,1.256.151,1.332,1.332,0,0,0,.824-.292c.16-.139.194-.257.18-.265a1.489,1.489,0,0,1-1.006.339,7.333,7.333,0,0,1-1.2-.211,9.564,9.564,0,0,1-1.429-.429,4.037,4.037,0,0,1-2.043-1.637,6.756,6.756,0,0,1-.418-1.036" transform="translate(-18.755 -25.226)" fill="#ff9b6c"/></g><g clip-path="url(#a)"><path d="M523.56,156.119H453.23a5.243,5.243,0,0,1-5.243-5.243V87.788a5.243,5.243,0,0,1,5.243-5.243h70.33a5.243,5.243,0,0,1,5.243,5.243v63.088a5.243,5.243,0,0,1-5.243,5.243" transform="translate(-50.432 -9.292)" fill="#fff"/><path d="M528.8,95.065H447.987V87.931a5.387,5.387,0,0,1,5.387-5.387h70.468a4.961,4.961,0,0,1,4.962,4.962Z" transform="translate(-50.432 -9.292)" fill="#e0e0e0"/><path d="M460.6,90.741a1.984,1.984,0,1,1-1.981-1.864,1.925,1.925,0,0,1,1.981,1.864" transform="translate(-51.405 -10.005)" fill="#fff"/><path d="M466.681,90.741a1.984,1.984,0,1,1-1.981-1.864,1.925,1.925,0,0,1,1.981,1.864" transform="translate(-52.09 -10.005)" fill="#fff"/><path d="M472.764,90.741a1.984,1.984,0,1,1-1.981-1.864,1.925,1.925,0,0,1,1.981,1.864" transform="translate(-52.775 -10.005)" fill="#fff"/><path d="M523.531,156.09c0-.019.265-.005.767-.086a5.214,5.214,0,0,0,4.2-3.7,7.534,7.534,0,0,0,.2-2.317q0-1.261-.01-2.684c-.018-7.6-.043-18.568-.074-32.122-.009-6.782-.019-14.209-.028-22.182q0-1.495,0-3.015,0-.76,0-1.526a8.632,8.632,0,0,0-.073-1.5,5.06,5.06,0,0,0-3.911-4.118,19.944,19.944,0,0,0-3.158-.112l-3.254,0-6.639,0-58.336.018a5.03,5.03,0,0,0-4.994,4.51c-.051,2.508-.014,5.08-.026,7.589q0,7.56,0,14.884c0,9.759-.009,19.171-.013,28.139q0,6.722,0,13.1a5.054,5.054,0,0,0,3.307,4.616,7.851,7.851,0,0,0,2.96.313l3.016,0,22.183.028,32.12.074,8.733.043,2.271.023c.512.008.774.024.774.024s-.262.016-.774.024l-2.271.022-8.733.043-32.12.074-22.183.028-3.016,0a8.208,8.208,0,0,1-3.095-.33,5.455,5.455,0,0,1-3.579-4.978q-.006-6.373-.016-13.107c0-8.967-.009-18.38-.013-28.139q0-7.319,0-14.884c.012-2.529-.028-5.036.027-7.635a5.491,5.491,0,0,1,5.453-4.925l58.336.018,6.639,0,3.254,0h1.61a7.508,7.508,0,0,1,1.633.125,5.462,5.462,0,0,1,4.216,4.452,9.049,9.049,0,0,1,.075,1.566q0,.767,0,1.526,0,1.52,0,3.015c-.011,7.974-.019,15.4-.028,22.182-.031,13.555-.056,24.525-.074,32.122q-.005,1.422-.011,2.684a7.653,7.653,0,0,1-.227,2.356,5.3,5.3,0,0,1-2.193,2.926,5.176,5.176,0,0,1-2.128.785,3.8,3.8,0,0,1-.774.039" transform="translate(-50.402 -9.263)" fill="#263238"/><path d="M519.509,151.975H458.583a3.954,3.954,0,0,1-3.954-3.954V106.966a3.954,3.954,0,0,1,3.954-3.954h60.925a3.954,3.954,0,0,1,3.954,3.954V148.02a3.954,3.954,0,0,1-3.954,3.954" transform="translate(-51.179 -11.596)" fill="#fed5b1"/><g transform="translate(408.881 112.592)" opacity="0.3"><g clip-path="url(#k)"><path d="M461.1,151.6l16.8-23.913a1.9,1.9,0,0,1,3.038-.1L492.483,141.9a1.9,1.9,0,0,0,2.8.178l6.764-6.5a1.9,1.9,0,0,1,2.772.146l13.258,15.736a1.9,1.9,0,0,1-1.454,3.129H462.654a1.9,1.9,0,0,1-1.557-3" transform="translate(-460.749 -126.875)" fill="#fff"/></g></g><g transform="translate(435.926 101.399)" opacity="0.3"><g clip-path="url(#l)"><path d="M502.922,120.11a5.849,5.849,0,1,1-5.849-5.849,5.849,5.849,0,0,1,5.849,5.849" transform="translate(-491.225 -114.262)" fill="#fff"/></g></g></g><path d="M543.059,403.214h97.309l-10.5-36.48-88.342-.352Z" transform="translate(-60.962 -41.245)" fill="#263238"/><g clip-path="url(#a)"><path d="M567.417,405.341a3.442,3.442,0,0,1-.329-.851c-.178-.559-.41-1.374-.668-2.388-.52-2.029-1.135-4.852-1.781-7.974l-1.647-7.994q-.3-1.41-.522-2.416a3.513,3.513,0,0,1-.156-.9,3.441,3.441,0,0,1,.329.851c.177.558.41,1.374.668,2.388.521,2.028,1.135,4.852,1.781,7.975l1.647,7.993q.3,1.41.523,2.416a3.52,3.52,0,0,1,.155.9" transform="translate(-63.301 -43.095)" fill="#455a64"/><path d="M636.529,384.591c.005.014-.091.072-.283.168a9.152,9.152,0,0,1-.855.386,16.18,16.18,0,0,1-3.327.925,25.184,25.184,0,0,1-11.288-.9,62.9,62.9,0,0,1-10.449-4.442l-3.046-1.587a6.731,6.731,0,0,1-1.093-.633,6.619,6.619,0,0,1,1.172.47c.741.332,1.8.833,3.111,1.456a73.655,73.655,0,0,0,10.435,4.291,26.359,26.359,0,0,0,11.106,1.025,28.052,28.052,0,0,0,4.517-1.155" transform="translate(-68.241 -42.609)" fill="#455a64"/><path d="M573.828,383.522a2.881,2.881,0,1,1-2.881-2.881,2.88,2.88,0,0,1,2.881,2.881" transform="translate(-63.949 -42.85)" fill="#455a64"/><path d="M607.124,172.279a99.733,99.733,0,0,0,5.483-16.293,34.812,34.812,0,0,0-.176-17.035c-.246-.833-2.442-6.47-3.312-6.445-.621.018.611,5.218.262,5.733-3.337,4.907-4.575,11-4.512,16.935a77.726,77.726,0,0,0,2.256,17.106" transform="translate(-68.092 -14.917)" fill="#263238"/><path d="M567.04,200.463c.24-4.046.417-7.24.386-7.242,0,0-13.774-2.371-13.721-16.18.026-6.668,1.2-20.395,2.4-32.807a25.732,25.732,0,0,1,26.028-23.246l1.332.022c14.351,1.071,21.458,13.858,19.989,28.174l-3.542,50.237-10.554,10.93c-8.413,8.713-23.119,2.2-22.318-9.888" transform="translate(-62.333 -13.62)" fill="#ffc09d"/><path d="M569.137,201.747a33.357,33.357,0,0,0,18.063-5.024s-4.545,9.97-18.3,8.5Z" transform="translate(-64.043 -22.146)" fill="#ff9b6c"/><path d="M560.089,160.677a1.972,1.972,0,0,0,1.869,2.021,1.888,1.888,0,0,0,2.061-1.746,1.973,1.973,0,0,0-1.867-2.021,1.887,1.887,0,0,0-2.063,1.746" transform="translate(-63.051 -17.891)" fill="#263238"/><path d="M559.627,153.426c.241.261,1.752-.82,3.874-.78,2.12.01,3.66,1.126,3.893.87.115-.113-.126-.581-.8-1.086a5.411,5.411,0,0,0-3.112-1.014,5.192,5.192,0,0,0-3.088.942c-.66.49-.889.951-.771,1.068" transform="translate(-62.996 -17.045)" fill="#263238"/><path d="M581.4,162a1.972,1.972,0,0,0,1.869,2.02,1.886,1.886,0,0,0,2.062-1.745,1.974,1.974,0,0,0-1.867-2.022A1.887,1.887,0,0,0,581.4,162" transform="translate(-65.45 -18.04)" fill="#263238"/><path d="M581.871,154.63c.241.261,1.754-.82,3.875-.78,2.119.01,3.659,1.126,3.893.871.115-.114-.124-.581-.8-1.086a5.417,5.417,0,0,0-3.111-1.015,5.206,5.206,0,0,0-3.088.942c-.658.49-.888.951-.771,1.068" transform="translate(-65.5 -17.181)" fill="#263238"/><path d="M573.477,171.019a14.023,14.023,0,0,0-3.436-.678c-.54-.064-1.052-.18-1.137-.551a2.755,2.755,0,0,1,.388-1.6q.8-1.953,1.668-4.1c2.321-5.838,4.009-10.641,3.774-10.733s-2.309,4.566-4.629,10.4c-.559,1.44-1.093,2.812-1.6,4.126a3.137,3.137,0,0,0-.315,2.122,1.356,1.356,0,0,0,.877.807,3.677,3.677,0,0,0,.918.143,13.819,13.819,0,0,0,3.493.061" transform="translate(-63.953 -17.264)" fill="#263238"/><path d="M582.208,146.543c.295.539,2.347-.054,4.853-.135,2.505-.132,4.6.282,4.847-.279.108-.267-.32-.751-1.208-1.179a8.442,8.442,0,0,0-7.39.315c-.847.5-1.234,1.021-1.1,1.278" transform="translate(-65.539 -16.238)" fill="#263238"/><path d="M560.469,145.057c.366.488,1.835.011,3.592.016,1.758-.057,3.24.376,3.591-.122.155-.241-.072-.729-.714-1.2a5.2,5.2,0,0,0-5.79.086c-.628.485-.841.978-.68,1.216" transform="translate(-63.088 -16.089)" fill="#263238"/><path d="M608.212,164.21c.237-.1,9.532-2.653,9.077,6.782s-9.832,7.032-9.835,6.76.758-13.542.758-13.542" transform="translate(-68.383 -18.442)" fill="#ffc09d"/><path d="M610.895,174.712c.042-.028.158.122.429.264a1.646,1.646,0,0,0,1.227.084c1.014-.318,1.93-1.859,2.057-3.558a5.437,5.437,0,0,0-.346-2.375,1.9,1.9,0,0,0-1.176-1.321.838.838,0,0,0-.992.4c-.14.257-.089.449-.14.462-.027.023-.195-.168-.1-.554a1.047,1.047,0,0,1,.4-.573,1.243,1.243,0,0,1,.919-.2,2.314,2.314,0,0,1,1.647,1.545,5.587,5.587,0,0,1,.443,2.657c-.152,1.9-1.211,3.63-2.594,3.959a1.761,1.761,0,0,1-1.49-.322c-.281-.247-.321-.46-.287-.476" transform="translate(-68.77 -18.837)" fill="#ff9b6c"/><path d="M564.255,128.747c-1.479-.929,3.384-5.61,7.232-7.1,5.815-2.248,14.56-3.338,19.7-1.558,6.191,2.143,11.24,5.571,14.072,11.479a37.146,37.146,0,0,1,3.084,19.175,11.282,11.282,0,0,1-1.657,5.686c-1.436,2.009-4.038,3.179-4.091,6.061a3.954,3.954,0,0,1-1.144,2.822c-1.83,1.738-3.843-.107-4.714-1.892-1.863-3.811-1.842-8.234-1.783-12.475a27.618,27.618,0,0,1,1.107-8.935c.551-1.545,1.377-2.988,1.841-4.562a5.673,5.673,0,0,0-.4-4.745,5.852,5.852,0,0,0-.721-.819,9.848,9.848,0,0,0-9.65-2.413c-5.418,1.576-14.646,3.865-16.912,1.927-3.26-2.786-3.978-4.524-3.978-4.524Z" transform="translate(-63.49 -13.419)" fill="#263238"/><path d="M574.591,180.944c-.01.167.467.378,1.286.354a5.62,5.62,0,0,0,4.861-3.595c.263-.776.2-1.294.038-1.333-.36-.089-1.021,1.58-2.718,2.795-1.657,1.266-3.447,1.409-3.467,1.779" transform="translate(-64.684 -19.854)" fill="#263238"/><path d="M474.968,255.118c-1.931-3.175-4.225-6.64-4.225-6.64l-1.873-3.185a4.124,4.124,0,0,0-.426.607,2.767,2.767,0,0,1-.9,1.058,2.205,2.205,0,0,1-2.431-.588,5.4,5.4,0,0,1-1.628-5.08,5.325,5.325,0,0,1,3.433-3.793,3.9,3.9,0,0,1,.974-1.167c2.693-2.187,7.513-.7,7.513-.7l-.5-1.206s-2.874-2.841-9.219-.617a4.133,4.133,0,0,1-2.935-.038,2.1,2.1,0,0,1-1.291-1.245c-.5-1.557.47-2.309,4.412-3.751s8.229-1.529,10.592.016a28.075,28.075,0,0,1,3.188,2.3s-3.877-11.142-4.094-11.857c-.628-2.068-.228-4.075,1.112-4.619.86-.349,2.2-.154,3.009,2.233.7,2.064,10.527,22.325,10.527,22.325l3.824,9.215,1.918,8.112-13.806,3.89-1-.335a11.546,11.546,0,0,1-6.179-4.935" transform="translate(-51.935 -24.145)" fill="#ffc09d"/><path d="M493.716,251.123a3.09,3.09,0,0,1-3.539-.581c-.984-.828-1.661-1.961-2.583-2.857-2.757-2.678-7.3-2.891-9.929-5.7-.366-.391-.7-.988-.393-1.424.281-.4.887-.358,1.374-.265l12.5,2.348" transform="translate(-53.715 -27.044)" fill="#ffc09d"/><path d="M491.1,242.6a5.14,5.14,0,0,0-1.327-.392c-.864-.206-2.116-.481-3.667-.8l-5.454-1.1-1.579-.309a2.52,2.52,0,0,0-1.9.08,1.058,1.058,0,0,0-.388,1.131,2.2,2.2,0,0,0,.5.911,8.386,8.386,0,0,0,1.424,1.224c2.1,1.411,4.383,1.979,6.211,2.912a9.688,9.688,0,0,1,2.393,1.587c.652.612,1.168,1.313,1.711,1.91a4.514,4.514,0,0,0,3.332,1.817c.956-.027,1.338-.478,1.308-.486a3.691,3.691,0,0,1-1.3.205,4.373,4.373,0,0,1-2.954-1.869c-.5-.595-.993-1.32-1.681-2.006a9.978,9.978,0,0,0-2.511-1.752c-1.89-1-4.164-1.6-6.1-2.911a7.908,7.908,0,0,1-1.291-1.1c-.356-.392-.486-.865-.237-1,.248-.188.824-.081,1.359.025l1.582.285,5.482.951c1.563.261,2.829.459,3.708.579a5.108,5.108,0,0,0,1.377.116" transform="translate(-53.67 -26.999)" fill="#ff9b6c"/><path d="M475.573,237.832a5.273,5.273,0,0,0-1.462-1.908,4.083,4.083,0,0,0-2.421-.768,10.359,10.359,0,0,0-3.168.562,16.486,16.486,0,0,1-3.25.766,5.365,5.365,0,0,1-2.745-.4,2.094,2.094,0,0,1-1.19-1.443,1.216,1.216,0,0,1,0-.682c.045,0,.046.241.172.636a1.981,1.981,0,0,0,1.152,1.191,5.33,5.33,0,0,0,2.562.268,18.28,18.28,0,0,0,3.158-.785,10.058,10.058,0,0,1,3.315-.544,4.285,4.285,0,0,1,2.615.938,3.814,3.814,0,0,1,1.109,1.5,1.305,1.305,0,0,1,.149.664" transform="translate(-51.93 -26.338)" fill="#ff9b6c"/><path d="M477.105,218.933a13.22,13.22,0,0,1,.785,2.211c.5,1.528,1.1,3.35,1.754,5.365.689,2,1.312,3.817,1.835,5.339a13.191,13.191,0,0,1,.706,2.235,10.52,10.52,0,0,1-1.014-2.12c-.559-1.339-1.266-3.213-1.97-5.309s-1.267-4.017-1.628-5.42a10.483,10.483,0,0,1-.468-2.3" transform="translate(-53.708 -24.646)" fill="#ff9b6c"/><path d="M474.536,242a2.855,2.855,0,0,1-.735-.037,2.172,2.172,0,0,0-1.746.485,1.15,1.15,0,0,0-.264,1.117,6.2,6.2,0,0,0,.594,1.409,2.627,2.627,0,0,1,.328,1.836,2.216,2.216,0,0,1-1.4,1.446,2.553,2.553,0,0,1-2.006-.18,3.214,3.214,0,0,1-1.353-1.281,10.327,10.327,0,0,1-.924-2.873,6.012,6.012,0,0,1-.055-2.026,1.325,1.325,0,0,1,.271-.692c.039.016-.056.258-.091.716a7.137,7.137,0,0,0,.2,1.941,11.092,11.092,0,0,0,.975,2.727,2.54,2.54,0,0,0,2.822,1.228,1.779,1.779,0,0,0,1.123-1.131,2.239,2.239,0,0,0-.275-1.53,6.255,6.255,0,0,1-.587-1.523,1.5,1.5,0,0,1,.413-1.423,2.274,2.274,0,0,1,2-.429,1.934,1.934,0,0,1,.713.217" transform="translate(-52.562 -27.153)" fill="#ff9b6c"/><path d="M468.945,247.613c.019-.011.161.206.152.651a2.016,2.016,0,0,1-.909,1.574,2.729,2.729,0,0,1-2.7.052,4.5,4.5,0,0,1-2.088-2.579,5.357,5.357,0,0,1-.056-3.3,5.093,5.093,0,0,1,1.453-2.257,4.837,4.837,0,0,1,1.535-.944,1.384,1.384,0,0,1,.644-.144,8.39,8.39,0,0,0-1.95,1.328,5.01,5.01,0,0,0-1.269,2.142,5.1,5.1,0,0,0,.085,3.024,4.173,4.173,0,0,0,1.843,2.346,2.427,2.427,0,0,0,2.33.047,1.911,1.911,0,0,0,.9-1.313c.063-.393-.01-.622.029-.632" transform="translate(-52.134 -27.092)" fill="#ff9b6c"/><path d="M481.211,253.227a1.908,1.908,0,0,1,1.073-.337,4.455,4.455,0,0,1,2.8.639l-.339.233a13.133,13.133,0,0,1-.257-1.57,9.978,9.978,0,0,1,.724-5.421,25.246,25.246,0,0,0-.259,5.377c.055.537.136,1.052.23,1.523l.1.522-.443-.288a4.678,4.678,0,0,0-2.547-.735c-.674,0-1.073.117-1.091.058" transform="translate(-54.171 -27.78)" fill="#ff9b6c"/><path d="M473.373,232.7c.123.018-.037.961-.877,1.7s-1.793.809-1.8.685c-.03-.132.76-.374,1.482-1.033.735-.643,1.062-1.4,1.191-1.357" transform="translate(-52.988 -26.196)" fill="#ff9b6c"/><path d="M554.933,213.791s-7.025.848-7.792.9c-5.927.365-15.6,3.865-20.137,12.347-3.313,6.186-9.622,31.375-11.313,38.182l-2.447,8.019-14.8-23.491-21.045,12s21.865,52.9,36.017,52.9,20.715-14.129,20.715-14.129L533.91,268.7Z" transform="translate(-53.742 -24.067)" fill="#e0e0e0"/><path d="M534.84,238.705a2.781,2.781,0,0,0-.061.713c-.011.545-.024,1.22-.039,2.044-.026,1.775-.006,4.342.054,7.515.114,6.344.5,15.1,1.041,24.764s1,18.411,1.242,24.745c.114,3.094.2,5.633.272,7.5.036.823.066,1.5.091,2.041a2.883,2.883,0,0,0,.076.711,2.749,2.749,0,0,0,.06-.713c.012-.544.025-1.219.04-2.043.025-1.774.006-4.342-.054-7.514-.116-6.345-.5-15.1-1.042-24.767s-1-18.407-1.242-24.742c-.113-3.093-.2-5.633-.273-7.5-.036-.823-.065-1.5-.09-2.041a2.884,2.884,0,0,0-.077-.712" transform="translate(-60.196 -26.872)" fill="#263238"/><path d="M654.9,240.622c-3.594-16.076-21.362-20.539-21.362-20.539L627.5,278.108l3.741,9.418,31.792-6.864s-3.627-19.881-8.135-40.041" transform="translate(-70.64 -24.776)" fill="#e0e0e0"/><path d="M623.71,277.846,635.59,289.3l-3.839-21.9,24.114-7.628s6.4,30.053,7.518,37.162c2,12.755-.455,30.884-12.341,32.159-12.858,1.381-22.567-11.3-28.746-19.624-4.75-6.4-12.416-17.584-12.416-17.584Z" transform="translate(-68.657 -29.243)" fill="#e0e0e0"/><path d="M627.339,309.658,626.4,282.4l1.421-63.168L602.5,207.713,599.14,197.8l-28.32,12.618-5.68-5.952-3.279,6.366-10.088,2.281-8.235,23.3-6.988,18.348s2.017,63.636,3.755,86.977c.228,3.062-3.755,4.394.662,7.808,0,0,6.629,3.892,21,4.267,40.889,1.068,66.009-5.461,67.344-6.061a8.417,8.417,0,0,0,2.488-7.042c-.121-.965-.323-2.006-.51-3.321Z" transform="translate(-60.401 -22.267)" fill="#e0e0e0"/><path d="M563.413,358.583a1.187,1.187,0,0,1-.052-.349c-.021-.28-.047-.619-.077-1.029q-.082-1.463-.223-3.962c-.155-3.517-.375-8.479-.645-14.58-.458-12.315-1.042-29.339-.848-48.162.115-9.412.43-18.39,1.331-26.52.938-8.121,2.334-15.341,3.592-21.375,1.277-6.032,2.446-10.878,3.26-14.224l.966-3.847c.107-.4.2-.724.27-.995a1.234,1.234,0,0,1,.118-.333,1.188,1.188,0,0,1-.042.351c-.053.276-.118.608-.2,1.013q-.305,1.432-.826,3.881c-.725,3.367-1.813,8.231-3.02,14.268-1.187,6.037-2.527,13.257-3.42,21.341-.857,8.084-1.153,17.047-1.267,26.443-.193,18.8.3,35.817.624,48.134.169,6.1.305,11.07.4,14.589q.049,2.5.079,3.968c0,.414,0,.753,0,1.033a1.247,1.247,0,0,1-.026.353" transform="translate(-63.213 -25.127)" fill="#263238"/><path d="M584.132,256.421a12.885,12.885,0,0,1,1.678.05l4.9.293,17.835,1.22.338.023-.026.342c-.617,8.173-1.354,17.951-2.152,28.514l-.015.189-.152.111c-.835.605-1.738,1.218-2.665,1.82a52.173,52.173,0,0,1-5.015,2.906,14.764,14.764,0,0,1-5.436,1.749,10.829,10.829,0,0,1-5.391-1.249,23.624,23.624,0,0,1-4.361-2.916c-.655-.542-1.287-1.094-1.889-1.659a3.67,3.67,0,0,1-.846-1.022,5.419,5.419,0,0,1-.474-1.2,18.349,18.349,0,0,1-.437-4.7,67.853,67.853,0,0,1,.753-8.329c.736-5.05,1.612-9.083,2.239-11.861.319-1.388.587-2.462.781-3.186a5.734,5.734,0,0,1,.341-1.094,6.241,6.241,0,0,1-.179,1.131c-.16.815-.368,1.883-.628,3.215-.531,2.794-1.318,6.838-1.975,11.874a69.614,69.614,0,0,0-.647,8.254,17.869,17.869,0,0,0,.452,4.5,3.491,3.491,0,0,0,1.126,1.869q.9.829,1.866,1.617a22.985,22.985,0,0,0,4.229,2.8,10.068,10.068,0,0,0,5,1.149,14.1,14.1,0,0,0,5.118-1.677,52.525,52.525,0,0,0,4.932-2.864c.913-.594,1.815-1.205,2.626-1.793l-.167.3c.85-10.559,1.637-20.333,2.3-28.5l.311.365-17.615-1.545-4.949-.475L584.6,256.5a2.481,2.481,0,0,1-.472-.076" transform="translate(-65.295 -28.865)" fill="#263238"/><path d="M608.643,266.632c-.018.227-5.806-.039-12.925-.595s-12.881-1.189-12.863-1.416,5.8.04,12.927.595,12.879,1.19,12.861,1.416" transform="translate(-65.614 -29.78)" fill="#263238"/><g transform="translate(516.006 257.853)" opacity="0.3"><g clip-path="url(#n)"><path d="M581.464,290.563c1.394,2.293,2.689,5.443,4.591,7.336a11.241,11.241,0,0,0,7.05,3.507,11.561,11.561,0,0,0,6.686-1.988c3.234-2.023,5.22-5.212,6.664-8.743.2-.258-4.627,2.966-7.25,4.362a11.822,11.822,0,0,1-7.424,1.594c-3.885-.315-7.368-3.518-10.316-6.068" transform="translate(-581.464 -290.563)"/></g></g><g transform="translate(510.898 186.386)" opacity="0.3"><g clip-path="url(#o)"><path d="M575.709,213.63l1.036,13.277L604.93,210.03l-27.191,14.347Z" transform="translate(-575.708 -210.03)"/></g></g><path d="M567.456,232.1a454.434,454.434,0,0,0-10.317,67.351c-1.191,15.736-2.072,36.589-2.072,36.589l9.131,11.309,10.913-10.834s-2.221-45.262-2.173-60.431c.038-12.212-.457-43.731-.457-43.731Z" transform="translate(-62.486 -26.129)" fill="#fd963d"/><path d="M630.478,254.3a7.47,7.47,0,0,1,.287,1.261l.627,3.463c.515,3,1.2,7.01,1.966,11.441.778,4.467,1.442,8.521,1.878,11.46.22,1.47.389,2.66.494,3.485a7.479,7.479,0,0,1,.123,1.288,7.457,7.457,0,0,1-.288-1.261c-.161-.893-.373-2.058-.628-3.463-.525-3-1.226-7.006-2-11.436-.771-4.469-1.406-8.526-1.843-11.465-.2-1.414-.365-2.586-.492-3.485a7.513,7.513,0,0,1-.122-1.288" transform="translate(-70.974 -28.628)" fill="#263238"/><path d="M639.647,224.009c.047.06-.836.748-2.085,2.035a25.227,25.227,0,0,0-6.539,12.164c-.384,1.752-.47,2.867-.547,2.861a2.765,2.765,0,0,1-.007-.789,16.208,16.208,0,0,1,.256-2.132,22.744,22.744,0,0,1,6.622-12.319,16.235,16.235,0,0,1,1.637-1.391,2.781,2.781,0,0,1,.661-.43" transform="translate(-70.972 -25.217)" fill="#263238"/><path d="M574.723,218.857l-2.829-.626-2.75,4.953-.115,7.359,5.025.254,3.115-5.835Z" transform="translate(-64.058 -24.567)" fill="#fd963d"/><path d="M572.4,233.567c-.063.1-.763-.228-1.563-.733s-1.4-1-1.334-1.1.763.229,1.563.734,1.4.995,1.334,1.1" transform="translate(-64.11 -26.086)" fill="#263238"/><path d="M573.079,230.315a40.6,40.6,0,0,1-3.348-7.623,40.464,40.464,0,0,1,3.348,7.623" transform="translate(-64.135 -25.069)" fill="#263238"/><g transform="translate(540.768 267.492)" opacity="0.3"><g clip-path="url(#p)"><path d="M612.453,305.468s6.928,6.56,9.842,11.645c2.055,3.587,7.869,8.376,14.432,12.57l1.022,7.181c-3.637-.723-10.019-5.45-12.481-8.222a52.882,52.882,0,0,1-6.869-8.905c-3.315-5.926-7.868-11.622-9.032-18.311Z" transform="translate(-609.367 -301.425)"/></g></g><path d="M635.689,326.067a3.807,3.807,0,0,0-.612-.468c-.4-.3-1.042-.684-1.8-1.27a67.371,67.371,0,0,1-6.189-5.395A181.8,181.8,0,0,1,608.975,297.6l.039.325c1.291-3.128,2.638-6.392,4.019-9.739,1.677-4.079,3.3-8.034,4.82-11.731l-.522.127,28.355,23.984a2.6,2.6,0,0,0-.469-.547c-.337-.332-.842-.816-1.511-1.425-1.333-1.225-3.3-2.975-5.789-5.152-4.973-4.355-12.006-10.417-20.156-17.364l-.347-.3-.174.422c-1.526,3.693-3.158,7.645-4.841,11.721l-4.007,9.745-.073.175.111.149a168.262,168.262,0,0,0,18.352,21.257,58.53,58.53,0,0,0,6.353,5.271c.788.56,1.451.914,1.877,1.183a3.618,3.618,0,0,0,.676.365" transform="translate(-68.481 -31.045)" fill="#263238"/><path d="M530.922,252.522l9.916,37.459a4.659,4.659,0,0,0,4.6,3.466l51.346-1.009a4.658,4.658,0,0,0,4.467-5.618l-7.562-35.876a4.658,4.658,0,0,0-4.559-3.7H534.983a4.2,4.2,0,0,0-4.061,5.276" transform="translate(-59.752 -27.833)" fill="#263238"/><path d="M598.687,290.417a1.014,1.014,0,0,1-.077-.243c-.046-.189-.1-.428-.178-.724l-.642-2.794-2.275-10.294c-.947-4.36-2.069-9.535-3.316-15.28-.62-2.878-1.27-5.9-1.944-9.026a2.089,2.089,0,0,0-1.324-1.622,2.843,2.843,0,0,0-1.129-.13h-1.235l-5.029,0-34.787-.068-10.542-.074-2.867-.043-.745-.022a.128.128,0,1,1,0-.048l.745-.022,2.867-.043,10.542-.074,34.787-.067H587.8a3.282,3.282,0,0,1,1.289.16,2.549,2.549,0,0,1,1.607,1.955c.665,3.132,1.305,6.152,1.917,9.032,1.211,5.751,2.3,10.934,3.22,15.3.895,4.334,1.621,7.853,2.132,10.325l.557,2.812c.055.3.1.542.133.734a1.065,1.065,0,0,1,.03.253" transform="translate(-59.928 -28.126)" fill="#455a64"/><path d="M569.812,261.324a2.668,2.668,0,1,1-3.49-1.786,2.777,2.777,0,0,1,3.49,1.786" transform="translate(-63.562 -29.2)" fill="#e0e0e0"/><path d="M617.468,277.5l-2.439-2.279s-1.618-5.379-2.637-6.4a11.279,11.279,0,0,0-3.753-1.778l-6.131-5.631,1.117,5.023-8.895-.066a2.53,2.53,0,0,0-2.422,1.554,1.007,1.007,0,0,0-.076.487,3.251,3.251,0,0,0,1.778,2.329l1.279.6a3.019,3.019,0,0,0-2.1,2.183,2.785,2.785,0,0,0,1.852,3s-2.186.978-.93,3.6c0,0-2.035,2.413-.858,4.046s7.924,4.368,7.924,4.368l3.74,1.7a6.334,6.334,0,0,0,2.8.158l1.461.2,1.56,1.293s8.926-4.875,6.721-14.4" transform="translate(-66.669 -29.429)" fill="#ffc09d"/><path d="M608.17,274.851a6.737,6.737,0,0,1-2.022.019,37.892,37.892,0,0,1-9.528-1.924,6.755,6.755,0,0,1-1.855-.8c.052-.151,2.967.807,6.664,1.545,3.693.754,6.751,1,6.741,1.161" transform="translate(-66.955 -30.635)" fill="#ff9b6c"/><path d="M610.684,282.573a117.6,117.6,0,0,1-15.281-4.125,117.162,117.162,0,0,1,15.281,4.125" transform="translate(-67.027 -31.344)" fill="#ff9b6c"/><path d="M609.816,288.261a9.513,9.513,0,0,1-2.465-.32,39.553,39.553,0,0,1-11.218-4.158,9.5,9.5,0,0,1-2.078-1.365,14.385,14.385,0,0,1,2.252,1.029c1.371.664,3.286,1.532,5.462,2.34s4.195,1.4,5.667,1.785a14.479,14.479,0,0,1,2.379.688" transform="translate(-66.875 -31.792)" fill="#ff9b6c"/><path d="M613.594,280.8c-.147-.052.139-1.044-.074-2.248-.189-1.209-.782-2.054-.66-2.15.09-.11.965.689,1.187,2.062a2.641,2.641,0,0,1-.453,2.336" transform="translate(-68.99 -31.115)" fill="#ff9b6c"/><path d="M613.792,273.706c-.1-.114.361-.662.431-1.489.1-.824-.24-1.455-.119-1.545.055-.042.233.071.4.355a2.154,2.154,0,0,1-.248,2.413c-.224.244-.422.318-.467.266" transform="translate(-69.095 -30.47)" fill="#ff9b6c"/><path d="M613.117,288.3c-.114-.1.235-.653.446-1.4s.229-1.391.38-1.416.392.693.133,1.567-.863,1.351-.958,1.246" transform="translate(-69.018 -32.138)" fill="#ff9b6c"/><path d="M597.631,267.019c.01.2,2.344.221,5.2.428s5.175.5,5.212.306-2.254-.791-5.163-.991-5.263.075-5.251.257" transform="translate(-67.278 -30.022)" fill="#ff9b6c"/><path d="M565.653,213.375a3.532,3.532,0,0,1,.252.619c.161.454.373,1.053.638,1.8.552,1.622,1.322,3.89,2.269,6.678l-.3-.027,5.286-9.965.272-.514.129.569,2.5,11.029c.047.206.093.412.136.6l-.333-.154,19.822-10.38,6.012-3.089,1.643-.818a3.41,3.41,0,0,1,.587-.258,3.373,3.373,0,0,1-.545.34l-1.6.894-5.943,3.219-19.757,10.5-.267.141-.067-.295c-.043-.19-.089-.395-.136-.6-.873-3.9-1.708-7.628-2.472-11.036l.4.055L568.8,222.6l-.186.342-.116-.367c-.889-2.808-1.612-5.091-2.129-6.724-.231-.761-.415-1.369-.555-1.831a3.64,3.64,0,0,1-.163-.648" transform="translate(-63.677 -23.581)" fill="#263238"/></g></g></g></g></svg>