<svg xmlns="http://www.w3.org/2000/svg" width="624.032" height="231.625" viewBox="0 0 624.032 231.625"><g transform="translate(-16.74 -186.568)"><g transform="translate(314.359 260.189)"><g transform="translate(112.215 92.859)"><path d="M509.625,442.418,522,384.661a5.012,5.012,0,0,0-4.924-5.945H507.9a5.013,5.013,0,0,0-4.8,3.582l-14.064,60.119Z" transform="translate(-488.598 -378.282)" fill="#263238"/><path d="M509.559,442.786H488.966a.436.436,0,0,1-.423-.533l14.063-60.119a5.488,5.488,0,0,1,5.228-3.918h9.172a5.445,5.445,0,0,1,5.351,6.459l-12.372,57.767A.436.436,0,0,1,509.559,442.786Zm-20.045-.869h19.694L521.5,384.5a4.577,4.577,0,0,0-4.5-5.42h-9.172a4.607,4.607,0,0,0-4.388,3.271Z" transform="translate(-488.532 -378.216)" fill="#263238"/></g><g transform="translate(25.67 90.892)"><path d="M423.4,376.451l-5.091,16.8s-8.454,17.293-15.271,24.3S389.4,441.712,389.4,441.712h40.71Z" transform="translate(-388.968 -376.017)" fill="#737373"/><path d="M430.048,442.081H389.336a.435.435,0,0,1-.4-.594c.28-.7,6.928-17.3,13.727-24.3,6.691-6.882,15.108-24.021,15.192-24.193l5.067-16.737a.434.434,0,0,1,.848.081L430.48,441.6a.438.438,0,0,1-.109.335A.432.432,0,0,1,430.048,442.081Zm-40.064-.869h39.583l-6.443-62.632-4.465,14.734c-.11.238-8.588,17.5-15.376,24.482C397.316,423.932,391.256,438.132,389.984,441.212Z" transform="translate(-388.903 -375.951)" fill="#263238"/></g><g transform="translate(54.306 50.579)"><path d="M458.794,330.043s19.868,6.623,21.037,8.96,11.882,15.583,16.557,40.516,3.9,55.6,3.9,55.6H422.369S425.1,399,425.486,395.1s-.2-23.57,1.363-29.608,3.311-12.272,3.311-12.272l26.656-22.412Z" transform="translate(-421.934 -329.609)" fill="#9e9e9e"/><path d="M500.218,435.488H422.3a.434.434,0,0,1-.433-.467c.027-.361,2.732-36.17,3.118-40.027.126-1.258.149-4.309.177-7.843.058-7.478.137-17.719,1.2-21.831,1.541-5.973,3.3-12.217,3.314-12.28a.428.428,0,0,1,.139-.215l26.656-22.412a.413.413,0,0,1,.122-.072l1.977-.769a.451.451,0,0,1,.294-.008c2.051.684,20.073,6.75,21.288,9.179.163.327.552.919,1.088,1.74,3.149,4.814,11.516,17.6,15.507,38.89,4.63,24.692,3.911,55.383,3.9,55.691A.434.434,0,0,1,500.218,435.488Zm-77.447-.869h77.02c.069-3.785.421-32.063-3.9-55.085-3.96-21.117-12.257-33.8-15.381-38.574-.573-.876-.953-1.454-1.139-1.827-.787-1.575-13.009-6.144-20.636-8.694l-1.764.685-26.5,22.28c-.258.923-1.856,6.643-3.272,12.133-1.035,4.008-1.114,14.187-1.171,21.62-.03,3.7-.051,6.625-.182,7.922C425.491,398.686,423.093,430.371,422.771,434.619Z" transform="translate(-421.868 -329.544)" fill="#263238"/></g><path d="M429.241,415.787a.438.438,0,0,1-.164-.032.434.434,0,0,1-.238-.566l1.117-2.74a.434.434,0,0,1,.8.327l-1.117,2.74A.434.434,0,0,1,429.241,415.787Z" transform="translate(-368.474 -289.817)" fill="#263238"/><path d="M431.781,400.2a.422.422,0,0,1-.164-.032.433.433,0,0,1-.238-.565l10.97-26.9-3.765-7.947a.435.435,0,0,1,.236-.592l5.44-2.093L464.7,334.821a.434.434,0,0,1,.7.52l-20.514,27.352a.448.448,0,0,1-.192.145l-5.118,1.969,3.646,7.7a.44.44,0,0,1,.01.349l-11.043,27.071A.434.434,0,0,1,431.781,400.2Z" transform="translate(-368.807 -279.635)" fill="#263238"/><g transform="translate(56.059 73.758)"><g transform="translate(0.358)"><path d="M436.129,359.844s-.195,6.428-3.117,18.895-7.986,32.724-7.986,32.724-.779-30.386.584-38.763a70.3,70.3,0,0,1,4.87-15.972Z" transform="translate(-424.366 -356.293)" fill="#fff"/><path d="M424.96,411.831l-.048,0a.433.433,0,0,1-.387-.42c-.032-1.242-.764-30.523.59-38.844a71.386,71.386,0,0,1,4.9-16.084.434.434,0,0,1,.26-.23.424.424,0,0,1,.345.032l5.648,3.117a.434.434,0,0,1,.225.393c0,.065-.229,6.614-3.129,18.981-2.888,12.327-7.936,32.528-7.987,32.73A.435.435,0,0,1,424.96,411.831Zm5.659-54.56a70.373,70.373,0,0,0-4.646,15.432c-1.078,6.62-.8,27.368-.649,35.433,1.541-6.2,5-20.169,7.2-29.564a114.488,114.488,0,0,0,3.092-18.544Z" transform="translate(-424.299 -356.227)" fill="#263238"/></g><g transform="translate(0 0.001)"><path d="M434.127,360.818l-3.117,5.454v20.452l-6.038,24.738s-.585-23.18-.585-28.633,4.285-16.947,4.285-16.947l-.974-6.427,2.727-2.728Z" transform="translate(-423.953 -356.294)" fill="#92e3a9"/><path d="M424.906,411.831l-.047,0a.433.433,0,0,1-.387-.42c-.006-.232-.585-23.248-.585-28.645,0-5.252,3.814-15.747,4.273-16.991l-.956-6.318a.433.433,0,0,1,.122-.372l2.728-2.727a.45.45,0,0,1,.318-.127.431.431,0,0,1,.311.143l3.7,4.091a.435.435,0,0,1,.055.506l-3.06,5.354v20.337a.444.444,0,0,1-.012.1L425.327,411.5A.433.433,0,0,1,424.906,411.831Zm3.189-52.291.941,6.211a.431.431,0,0,1-.023.217c-.043.114-4.257,11.481-4.257,16.794,0,4.151.343,18.761.5,25.354l5.25-21.51v-20.4a.434.434,0,0,1,.057-.215l2.96-5.181-3.183-3.518Z" transform="translate(-423.887 -356.228)" fill="#263238"/></g></g><g transform="translate(54.111 59.734)"><g transform="translate(1.364)"><path d="M435.6,340.582l-11.882,11.3,6.038,7.792,9.35-14.219Z" transform="translate(-423.28 -340.149)" fill="#fff"/><path d="M429.687,360.041a.433.433,0,0,1-.343-.169l-6.039-7.791a.435.435,0,0,1,.044-.581l11.882-11.3a.456.456,0,0,1,.341-.118.439.439,0,0,1,.312.179l3.506,4.871a.435.435,0,0,1,.01.492l-9.35,14.219a.439.439,0,0,1-.347.2Zm-5.455-8.182,5.426,7L438.51,345.4l-3.041-4.223Z" transform="translate(-423.214 -340.083)" fill="#263238"/></g><g transform="translate(0 11.298)"><path d="M423.508,353.588l-1.364,9.934,5.259-4.48Z" transform="translate(-421.71 -353.155)" fill="#fff"/><path d="M422.079,363.89a.441.441,0,0,1-.209-.053.436.436,0,0,1-.222-.44l1.364-9.933a.435.435,0,0,1,.784-.194l3.9,5.454a.436.436,0,0,1-.072.584l-5.259,4.48A.438.438,0,0,1,422.079,363.89Zm1.645-9.226-1.061,7.723,4.089-3.483Z" transform="translate(-421.644 -353.089)" fill="#263238"/></g></g><g transform="translate(40.925 6.497)"><path d="M421.188,279.3s-6.936,6.15-7.984,10.584-.762,8.674-1.757,10.393-4.893,4.4-4.447,6.131,4.032,2.751,4.239,4.481-.194,9.871-.694,10.853-.774,2.708.87,4.7,6.435,2.773,6.435,2.773l14.962,9.266L449,321.838s3.211-4.414-.181-15.3-10.9-20.337-16.378-22.854A116.667,116.667,0,0,0,421.188,279.3Z" transform="translate(-406.53 -278.864)" fill="#fff"/><path d="M432.746,338.846a.44.44,0,0,1-.229-.065l-14.889-9.222c-.688-.121-4.992-.947-6.613-2.91-1.984-2.4-1.306-4.416-.923-5.17.433-.85.853-8.906.65-10.6-.083-.7-1.022-1.356-1.929-1.994-1-.705-2.041-1.434-2.3-2.431-.346-1.34,1.186-2.884,2.667-4.377a12.856,12.856,0,0,0,1.824-2.08,13.407,13.407,0,0,0,.845-4.427,43.655,43.655,0,0,1,.865-5.849c1.068-4.514,7.831-10.554,8.119-10.808a.429.429,0,0,1,.421-.089,118.227,118.227,0,0,1,11.3,4.4c5.4,2.479,13.087,11.8,16.611,23.119,3.418,10.973.254,15.5.117,15.689l-16.23,16.686A.431.431,0,0,1,432.746,338.846Zm-11.519-59.122c-1.1,1.006-6.755,6.34-7.666,10.193a43.027,43.027,0,0,0-.846,5.733c-.209,2.107-.375,3.772-.957,4.778a13.264,13.264,0,0,1-1.96,2.256c-1.187,1.2-2.665,2.687-2.443,3.549.177.687,1.082,1.322,1.957,1.936,1.063.748,2.164,1.52,2.292,2.6.189,1.584-.155,9.957-.738,11.1-.38.747-.78,2.291.817,4.223,1.523,1.842,6.125,2.614,6.171,2.622a.41.41,0,0,1,.158.059l14.666,9.082,15.946-16.388h0c-.007,0,2.986-4.378-.284-14.873-3.451-11.083-10.918-20.188-16.144-22.588A117.258,117.258,0,0,0,421.226,279.724Z" transform="translate(-406.464 -278.798)" fill="#263238"/><path d="M420.728,298.8a.434.434,0,0,1-.417-.314c-1.209-4.212-4.77-3.247-4.922-3.206a.435.435,0,0,1-.242-.835,5.032,5.032,0,0,1,3.555.41,5.331,5.331,0,0,1,2.444,3.392.434.434,0,0,1-.3.537A.444.444,0,0,1,420.728,298.8Z" transform="translate(-407.563 -280.833)" fill="#263238"/><path d="M415.145,301.728c-.025,1.277.428,2.317,1.014,2.322s1.08-1.026,1.1-2.3-.429-2.317-1.014-2.322S415.169,300.451,415.145,301.728Z" transform="translate(-407.604 -281.507)" fill="#263238"/><path d="M413.511,319.866a.434.434,0,0,1-.05-.865,9.449,9.449,0,0,0,4.577-1.629.434.434,0,0,1,.555.667,10.066,10.066,0,0,1-5.03,1.823A.352.352,0,0,1,413.511,319.866Z" transform="translate(-407.333 -283.85)" fill="#263238"/><path d="M440.341,327.835a.435.435,0,0,1-.371-.66,23.312,23.312,0,0,0,2.165-4.376.433.433,0,0,1,.532-.286l1.965.552a.435.435,0,0,1-.236.837l-1.575-.444a26.6,26.6,0,0,1-2.107,4.168A.436.436,0,0,1,440.341,327.835Z" transform="translate(-410.856 -284.536)" fill="#263238"/></g><g transform="translate(59.566 47.072)"><path d="M453.94,326.007l-25.517,25.128,7.4,9.155,23.764-30.776Z" transform="translate(-427.989 -325.572)" fill="#fff"/><path d="M435.759,360.659a.433.433,0,0,1-.337-.162l-7.4-9.155a.434.434,0,0,1,.033-.583l25.516-25.128a.436.436,0,0,1,.534-.059l5.649,3.506a.434.434,0,0,1,.114.635L436.1,360.489a.435.435,0,0,1-.339.169Zm-6.817-9.556,6.81,8.421,23.133-29.961-4.95-3.073Z" transform="translate(-427.923 -325.507)" fill="#263238"/></g><g transform="translate(0 129.509)"><path d="M390.785,428.461l-9.75-.484s-6.174-6.874-7.962-7.04-4.276.347-4.54,1.362-1.561,4.714-1.561,4.714-5.674,1.7-6.349,2.573-1.175,4.665-.3,5.34,2.709,1.227,3.168,1.758,2.454,6.953,4.68,9.026,1.721,2.728,7.229,2.814a56.258,56.258,0,0,0,10.122-.7c1.739-.221,5.46-.3,5.46-.3Z" transform="translate(-359.418 -420.472)" fill="#fff"/><path d="M376.468,448.9q-.553,0-1.145-.01c-4.536-.07-5.15-.5-6.581-1.994-.262-.273-.559-.584-.937-.935-1.638-1.525-3.122-5.22-4.008-7.427a15.991,15.991,0,0,0-.708-1.637,5.752,5.752,0,0,0-1.351-.743,9.516,9.516,0,0,1-1.751-.952c-.663-.513-.689-1.9-.594-2.977a6.838,6.838,0,0,1,.82-2.973c.681-.877,5.034-2.256,6.356-2.659.276-.793,1.258-3.621,1.478-4.471.356-1.367,3.137-1.856,5-1.685,1.8.167,6.837,5.623,8.124,7.048l9.569.475a.435.435,0,0,1,.414.43l.193,19.067a.435.435,0,0,1-.425.439c-.037,0-3.718.082-5.414.3-.255.032-.536.072-.845.116A52.457,52.457,0,0,1,376.468,448.9Zm-4.189-27.629c-1.682,0-3.254.538-3.392,1.07-.265,1.021-1.518,4.6-1.571,4.748a.434.434,0,0,1-.286.272c-2.723.817-5.761,1.948-6.13,2.424a6.08,6.08,0,0,0-.642,2.516c-.122,1.382.089,2.082.261,2.214a8.934,8.934,0,0,0,1.584.85,5.378,5.378,0,0,1,1.647.966,9.5,9.5,0,0,1,.854,1.88c.859,2.14,2.3,5.721,3.794,7.114.391.365.7.686.971.969,1.224,1.274,1.592,1.659,5.969,1.727a52.782,52.782,0,0,0,9.2-.573c.314-.045.6-.086.858-.119,1.409-.179,4.04-.264,5.076-.293l-.185-18.23-9.341-.464a.433.433,0,0,1-.3-.143c-2.343-2.609-6.5-6.789-7.679-6.9C372.738,421.283,372.508,421.273,372.28,421.273Z" transform="translate(-359.353 -420.406)" fill="#263238"/><path d="M367.981,428.124a.434.434,0,0,1-.08-.861l6.327-1.2a.435.435,0,0,1,.162.854l-6.327,1.2A.438.438,0,0,1,367.981,428.124Z" transform="translate(-360.429 -421.149)" fill="#263238"/></g><g transform="translate(28.732 133.557)"><path d="M396,448.57l3.8-.408,1.558-22.4-7.4-.195s-.584,8.376-.974,14.219a18.006,18.006,0,0,0,1.274,8.784Z" transform="translate(-392.494 -425.133)" fill="#fff"/><path d="M395.932,448.939h-1.738a.434.434,0,0,1-.391-.246,18.386,18.386,0,0,1-1.317-9c.389-5.844.974-14.221.974-14.221a.444.444,0,0,1,.446-.4l7.4.195a.435.435,0,0,1,.422.465l-1.558,22.4a.434.434,0,0,1-.387.4l-3.8.408Zm-1.459-.869h1.437l3.42-.367,1.5-21.586-6.532-.171c-.122,1.757-.607,8.733-.945,13.8A18.1,18.1,0,0,0,394.473,448.07Z" transform="translate(-392.429 -425.067)" fill="#263238"/></g><g transform="translate(34.438 65.726)"><path d="M481,438.317a13.12,13.12,0,0,0,1.868-.992c2.728-1.753,2.728-7.792,3.117-17.531s-1.948-37.595-1.948-37.595.195-3.9,0-8.376-9.155-19.673-14.219-23.569a14.479,14.479,0,0,0-11.1-2.532l-12.661,9.155c-1.168,2.142-4.675,5.064-4.285,15.193s3.506,8.571,3.506,10.129-.585,21.621-.585,21.621-.974,1.364-1.753,2.533a10.291,10.291,0,0,0-1.168,2.531,58.945,58.945,0,0,1-11.882,1.948c-5.649.195-29.023,2.921-29.023,2.921a56.4,56.4,0,0,0-1.364,12.856,37.553,37.553,0,0,0,1.793,11.705Z" transform="translate(-399.063 -347.048)" fill="#9e9e9e"/><path d="M480.932,438.684H401.225a.434.434,0,0,1-.412-.3A37.76,37.76,0,0,1,399,426.545a57.378,57.378,0,0,1,1.378-12.965.434.434,0,0,1,.369-.323c.235-.027,23.458-2.731,29.059-2.924a58.384,58.384,0,0,0,11.554-1.87,10.556,10.556,0,0,1,1.15-2.416c.652-.977,1.439-2.092,1.684-2.437.05-1.743.58-20.008.58-21.477,0-.209-.073-.283-.45-.568-.968-.731-2.769-2.094-3.056-9.543-.329-8.561,2.13-12.135,3.6-14.271.3-.432.553-.8.74-1.147a.422.422,0,0,1,.127-.144l12.661-9.155a.431.431,0,0,1,.159-.071,14.762,14.762,0,0,1,11.463,2.61c5.035,3.873,14.178,19.059,14.39,23.9.193,4.448,0,8.377,0,8.417.023.221,2.335,27.934,1.949,37.588L486.264,422c-.33,8.663-.528,13.891-3.229,15.628a13.618,13.618,0,0,1-1.929,1.024A.427.427,0,0,1,480.932,438.684Zm-79.393-.869h79.3a12.676,12.676,0,0,0,1.723-.923c2.319-1.491,2.523-6.837,2.831-14.93l.087-2.253c.384-9.6-1.924-37.262-1.948-37.541,0-.1.191-3.986,0-8.393-.182-4.206-8.893-19.276-14.05-23.244a14.14,14.14,0,0,0-10.66-2.469l-12.506,9.043c-.2.354-.452.718-.738,1.135-1.5,2.18-3.764,5.474-3.445,13.746.271,7.039,1.858,8.239,2.71,8.884a1.507,1.507,0,0,1,.8,1.261c0,1.547-.56,20.814-.584,21.634a.438.438,0,0,1-.081.239s-.97,1.359-1.746,2.522a9.948,9.948,0,0,0-1.112,2.411.435.435,0,0,1-.3.3,59.964,59.964,0,0,1-11.985,1.964c-5.22.179-25.933,2.564-28.687,2.883a58.316,58.316,0,0,0-1.28,12.46A37.19,37.19,0,0,0,401.539,437.816Z" transform="translate(-398.997 -346.981)" fill="#263238"/></g><path d="M486.149,382.408a.433.433,0,0,1-.229-.066c-8.117-5.07-13.844-8.071-16.127-8.451-1.479-.246-2.543-.072-3.165.518a2.258,2.258,0,0,0-.616,1.733.435.435,0,0,1-.864.1,3.15,3.15,0,0,1,.883-2.46c.831-.787,2.146-1.038,3.906-.744,3.067.511,10.635,4.943,16.444,8.571a.435.435,0,0,1-.23.8Z" transform="translate(-373.245 -284.661)" fill="#263238"/><path d="M493.95,386.7a.441.441,0,0,1-.24-.071s-.844-.558-2.2-1.421a.434.434,0,0,1,.466-.733c1.363.87,2.211,1.428,2.211,1.428a.434.434,0,0,1-.239.8Z" transform="translate(-376.682 -286.171)" fill="#263238"/><path d="M480.845,430.125a.439.439,0,0,1-.245-.076l-2.861-1.954a.434.434,0,1,1,.49-.718l2.861,1.954a.434.434,0,0,1-.245.793Z" transform="translate(-374.875 -291.803)" fill="#263238"/><path d="M472.057,424.781a.433.433,0,0,1-.245-.076c-5.393-3.689-12.1-8.286-13.405-9.239-1.575-1.147-5.4.477-6.746,1.2a.435.435,0,1,1-.413-.765c.217-.117,5.334-2.837,7.669-1.136,1.3.946,8,5.539,13.386,9.224a.435.435,0,0,1-.246.793Z" transform="translate(-371.391 -290.083)" fill="#263238"/><path d="M460.325,423.221a.434.434,0,0,1-.363-.2c-.03-.045-2.15-3.115-9.171-2.921a.434.434,0,0,1-.022-.869c7.562-.207,9.827,3.172,9.92,3.316a.434.434,0,0,1-.365.67Z" transform="translate(-371.302 -290.743)" fill="#263238"/><g transform="translate(46.557)"><path d="M438.083,308.164s-5.2-4.736-5.117-8.684a36.529,36.529,0,0,1,.861-7.15s-6.685-2.281-9.516-5.022-5.426-5.231-5.426-5.231,3.253,5.705.394,4.446-6.3-9.682-5.78-11.652,23.168-4.729,32.482-1.683,16.663,8.294,18.244,13.491,3.688,20.272,3.37,24.219-7.2,11.536-12.263,12.478-14.788-5.809-14.293-6.545,5.316-1.433,5.441-7.849-2-8.163-3.7-7.438S438.083,308.164,438.083,308.164Z" transform="translate(-413.013 -271.386)" fill="#263238"/><path d="M454.24,323.83c-5,0-12.639-5.142-13.557-6.539a.658.658,0,0,1-.07-.771,2.611,2.611,0,0,1,1-.675c1.493-.76,4.272-2.173,4.367-6.94.1-5.076-1.219-6.519-1.789-6.9a1.312,1.312,0,0,0-1.306-.126c-1.13.483-3.347,4.194-4.481,6.42a.432.432,0,0,1-.308.23.44.44,0,0,1-.371-.107c-.218-.2-5.34-4.916-5.26-9.013a37.6,37.6,0,0,1,.787-6.861c-1.462-.526-6.795-2.556-9.309-4.99-1.352-1.308-2.649-2.56-3.635-3.509.449,1.108.722,2.24.265,2.747-.316.351-.833.373-1.535.063-3.05-1.344-6.615-9.926-6.026-12.161a1.293,1.293,0,0,1,.726-.745c3.827-2.085,23.77-4.034,32.311-1.241,9.67,3.162,16.941,8.569,18.525,13.778,1.621,5.331,3.71,20.37,3.388,24.38-.331,4.122-7.279,11.878-12.616,12.869A6.053,6.053,0,0,1,454.24,323.83Zm-12.772-6.922c1,1.3,9.219,6.8,13.718,5.973,4.9-.911,11.6-8.278,11.91-12.086.31-3.852-1.79-18.916-3.354-24.058-1.5-4.945-8.555-10.129-17.963-13.2-9.2-3.009-31.047-.122-31.935,1.4-.478,1.822,2.972,9.991,5.544,11.123.417.184.553.14.556.14.205-.318-.5-2.218-1.5-3.972a.434.434,0,0,1,.678-.528s2.6,2.49,5.427,5.232c2.729,2.642,9.289,4.9,9.354,4.922a.435.435,0,0,1,.282.515,36.46,36.46,0,0,0-.85,7.055c-.06,3.071,3.365,6.761,4.568,7.959.812-1.535,3.1-5.647,4.643-6.3a2.177,2.177,0,0,1,2.133.205c1.478,1,2.25,3.71,2.173,7.641-.1,5.288-3.3,6.915-4.842,7.7C441.824,316.712,441.608,316.822,441.468,316.908Z" transform="translate(-412.948 -271.319)" fill="#263238"/></g></g><g transform="translate(352.516 255.395)"><g transform="translate(162.279 97.522)"><path d="M611.178,442.5l12.331-57.987a5.011,5.011,0,0,0-4.924-5.945h-9.172a5.012,5.012,0,0,0-4.8,3.582L590.59,442.5Z" transform="translate(-590.156 -378.132)" fill="#263238"/><path d="M611.113,442.867H590.524a.434.434,0,0,1-.423-.533l14.02-60.35a5.488,5.488,0,0,1,5.228-3.918h9.171a5.446,5.446,0,0,1,5.352,6.46l-12.333,58A.434.434,0,0,1,611.113,442.867ZM591.072,442h19.689l12.258-57.642a4.578,4.578,0,0,0-4.5-5.421h-9.171a4.606,4.606,0,0,0-4.388,3.271Z" transform="translate(-590.09 -378.066)" fill="#263238"/></g><g transform="translate(88.32 50.103)"><g transform="translate(0 3.671)"><path d="M592.6,435.884c.016-7.059.175-82.854-.919-85.915-1.147-3.211-38.5-21.766-38.5-21.766l-23.188,10.3s-24.768,17.658-24.538,21.1c.218,3.27,4.995,69.723,5.467,76.284Z" transform="translate(-505.015 -327.769)" fill="#263238"/><path d="M592.532,436.253H510.852a.435.435,0,0,1-.433-.4c-.536-7.465-5.249-73.023-5.467-76.286-.233-3.5,20.551-18.509,24.72-21.481a.463.463,0,0,1,.076-.043l23.188-10.3a.439.439,0,0,1,.369.008c3.839,1.908,37.548,18.729,38.719,22.009,1.089,3.046.977,72.225.944,86.062A.435.435,0,0,1,592.532,436.253Zm-81.276-.869H592.1c.072-30.78-.036-82.933-.895-85.335-.795-2.226-23.15-14-38.1-21.431l-22.961,10.2c-9.5,6.777-24.476,18.364-24.321,20.691C506.032,362.715,510.6,426.235,511.257,435.384Z" transform="translate(-504.95 -327.704)" fill="#263238"/></g><path d="M511.384,424.9a.434.434,0,0,1-.43-.382l-5.347-43.753a.434.434,0,1,1,.862-.105l5.347,43.753a.434.434,0,0,1-.379.484A.358.358,0,0,1,511.384,424.9Z" transform="translate(-505.036 -330.937)" fill="#fff"/><g transform="translate(19.871)"><path d="M531.264,337.091s-3.409,29.637-2.885,40.653a107.687,107.687,0,0,0,3.41,21.245s22.031-61.374,22.818-64.259,1.574-7.082,1.574-7.082l-3.672-3.671Z" transform="translate(-527.891 -323.543)" fill="#fff"/><path d="M531.723,399.358h-.016a.436.436,0,0,1-.4-.316A109.028,109.028,0,0,1,527.88,377.7c-.52-10.924,2.853-40.427,2.887-40.723a.441.441,0,0,1,.2-.321l21.244-13.114a.438.438,0,0,1,.536.063l3.672,3.672a.433.433,0,0,1,.12.387c-.008.043-.8,4.248-1.581,7.116s-21.93,61.785-22.83,64.292A.434.434,0,0,1,531.723,399.358Zm-.116-62.074c-.3,2.673-3.353,30-2.86,40.374a107.971,107.971,0,0,0,3.041,19.8c3.212-8.955,21.624-60.3,22.335-62.905.669-2.457,1.348-5.916,1.523-6.823l-3.267-3.266Z" transform="translate(-527.825 -323.478)" fill="#263238"/><path d="M546.736,359.435a.431.431,0,0,1-.318-.138L536.05,348.172l-4.945,7.912a.434.434,0,0,1-.737-.46l5.245-8.392a.438.438,0,0,1,.327-.2.464.464,0,0,1,.36.136l10.753,11.54a.433.433,0,0,1-.318.73Z" transform="translate(-528.151 -326.57)" fill="#263238"/><g transform="translate(0.073 20.457)"><path d="M532.791,352.561l2.156,11.228-6.538,18.18s1.554,16.965,3.39,20.112l7.868-22.818-2.36-16,2.885-10.491-4.459-5.246Z" transform="translate(-527.974 -347.093)" fill="#92e3a9"/><path d="M531.734,402.45a.435.435,0,0,1-.375-.215c-1.863-3.195-3.384-19.6-3.448-20.291a.424.424,0,0,1,.024-.187l6.5-18.068-2.134-11.11a.436.436,0,0,1,.052-.3l2.942-5.034a.437.437,0,0,1,.337-.214.443.443,0,0,1,.369.151l4.459,5.245a.435.435,0,0,1,.088.4l-2.861,10.4,2.348,15.908a.449.449,0,0,1-.019.206l-7.869,22.818a.433.433,0,0,1-.368.291Zm-2.949-20.491c.119,1.259,1.386,14.424,2.9,18.857l7.47-21.66-2.346-15.894a.445.445,0,0,1,.011-.179l2.825-10.27-3.913-4.6-2.551,4.363,2.125,11.067a.437.437,0,0,1-.018.229Z" transform="translate(-527.909 -347.028)" fill="#263238"/></g></g><path d="M528.848,410.2a.433.433,0,0,1-.375-.215c-3.91-6.661-6.107-18.679-7.261-27.587a.435.435,0,0,1,.375-.487.43.43,0,0,1,.486.375c.936,7.227,3.111,20.379,7.15,27.26a.434.434,0,0,1-.375.653Z" transform="translate(-507.085 -331.151)" fill="#fff"/><path d="M521.024,373.927a.434.434,0,0,1-.431-.388c-.229-2.164-.328-3.487-.328-3.487a.433.433,0,0,1,.069-.269l3.677-5.626-3.577-2.735a.435.435,0,0,1-.136-.513l5.962-14.219a.434.434,0,0,1,.8.336l-5.832,13.909,3.632,2.777a.435.435,0,0,1,.1.583l-3.818,5.839c.032.4.131,1.584.314,3.313a.434.434,0,0,1-.387.478Z" transform="translate(-506.961 -326.491)" fill="#fff"/><path d="M536.273,412.247a.434.434,0,0,1-.356-.683c1-1.437,2.143-3.169,3.392-5.147a.435.435,0,0,1,.735.465c-1.257,1.988-2.406,3.73-3.415,5.179A.435.435,0,0,1,536.273,412.247Z" transform="translate(-509.006 -334.343)" fill="#fff"/><path d="M542.982,393.509a.434.434,0,0,1-.372-.66c7.874-12.966,17.113-30.329,18.517-32.977l-5.412-3.681a.434.434,0,0,1-.19-.352.439.439,0,0,1,.18-.359l6.457-4.675-1.132-17.648a.436.436,0,0,1,.406-.462.446.446,0,0,1,.461.406l1.148,17.888a.435.435,0,0,1-.179.38l-6.149,4.453,5.221,3.551a.435.435,0,0,1,.14.562c-.1.191-10.208,19.341-18.723,33.366A.437.437,0,0,1,542.982,393.509Z" transform="translate(-509.887 -324.688)" fill="#fff"/><path d="M525.561,442.858a.434.434,0,0,1-.424-.342,72.051,72.051,0,0,1-1.815-13.982.426.426,0,0,1,.013-.105,28.545,28.545,0,0,1,3.222-6.907c.677-1.175,1.377-2.39,1.948-3.574a.435.435,0,0,1,.783.379c-.586,1.211-1.294,2.439-1.979,3.628a28.273,28.273,0,0,0-3.119,6.631,69.35,69.35,0,0,0,1.795,13.746.434.434,0,0,1-.333.515A.415.415,0,0,1,525.561,442.858Z" transform="translate(-507.362 -335.852)" fill="#fff"/></g><g transform="translate(89.809 12.333)"><path d="M516.682,280.5s-3.41,8.656-3.41,12.59.787,4.984-.262,6.819-6.557,6.3-5.77,8.131,3.41,3.41,3.41,3.41,3.934,18.622,6.032,19.671,6.033-1.049,6.033-1.049l10.229,8.656,16.786-20.457-2.886-9.7s1.574-10.491-1.836-17.572S531.632,280.5,527.7,280.5Z" transform="translate(-506.73 -280.064)" fill="#fff"/><path d="M532.878,339.093a.436.436,0,0,1-.281-.1l-10.01-8.47c-.953.465-4.2,1.9-6.165.921-2.136-1.069-5.477-16.269-6.225-19.789a9.644,9.644,0,0,1-3.423-3.509c-.63-1.469,1.541-3.774,3.642-6a18.569,18.569,0,0,0,2.151-2.513c.6-1.059.532-1.8.389-3.277a31.961,31.961,0,0,1-.184-3.327c0-3.971,3.3-12.392,3.44-12.749a.435.435,0,0,1,.4-.275h11.017c4.373,0,14.307,3.688,17.7,10.737,3.293,6.839,2.049,16.586,1.888,17.73l2.858,9.613a.437.437,0,0,1-.081.4l-16.785,20.458a.435.435,0,0,1-.3.156Zm-10.229-9.523a.43.43,0,0,1,.281.1l9.892,8.37,16.36-19.939-2.82-9.483a.446.446,0,0,1-.012-.188c.015-.1,1.512-10.443-1.8-17.32-3.466-7.2-13.507-10.245-16.918-10.245H516.914c-.574,1.5-3.273,8.736-3.273,12.155a31.481,31.481,0,0,0,.18,3.244,5.471,5.471,0,0,1-.5,3.791,18.417,18.417,0,0,1-2.273,2.678c-1.545,1.64-3.881,4.12-3.475,5.066.721,1.683,3.208,3.193,3.234,3.208a.437.437,0,0,1,.2.282c1.616,7.648,4.484,18.714,5.8,19.373,1.557.779,4.594-.49,5.633-1.044A.439.439,0,0,1,522.649,329.57Z" transform="translate(-506.665 -279.998)" fill="#263238"/><path d="M515.225,319.545a6.458,6.458,0,0,1-.853-.05A.435.435,0,0,1,514,319a.441.441,0,0,1,.491-.369c.033.005,3.433.451,5.092-1.917a.434.434,0,0,1,.711.5A6.069,6.069,0,0,1,515.225,319.545Z" transform="translate(-507.628 -284.796)" fill="#263238"/><path d="M520.258,296.853a.434.434,0,0,1-.375-.215c-.81-1.39-1.515-1.784-1.962-1.87a1.019,1.019,0,0,0-.8.153.437.437,0,0,1-.609-.067.431.431,0,0,1,.057-.6,1.861,1.861,0,0,1,1.481-.341,4.153,4.153,0,0,1,2.583,2.292.434.434,0,0,1-.156.593A.427.427,0,0,1,520.258,296.853Z" transform="translate(-507.945 -281.821)" fill="#263238"/><path d="M517.279,301.277c0,1.3-.352,2.36-.786,2.36s-.787-1.057-.787-2.36.352-2.361.787-2.361S517.279,299.973,517.279,301.277Z" transform="translate(-507.852 -282.482)" fill="#263238"/><g transform="translate(15.55 47.736)"><path d="M525.066,337.286l6.819-1.836.525,7.344Z" transform="translate(-524.631 -335.016)" fill="#263238"/><path d="M532.344,343.163a.438.438,0,0,1-.261-.086l-7.344-5.508a.434.434,0,0,1,.148-.767l6.819-1.836a.43.43,0,0,1,.365.065.436.436,0,0,1,.182.323l.525,7.344a.433.433,0,0,1-.433.465Zm-6.37-5.755,5.868,4.4-.418-5.869Z" transform="translate(-524.565 -334.95)" fill="#263238"/></g></g><g transform="translate(92.043)"><path d="M538.265,269.192s-24.13-3.672-22.556-1.049,2.623,4.721,2.623,4.721-12.065,3.41-7.606,5.246,12.59,6.032,12.59,6.032-.787,7.868.262,8.918,4.2,4.72,4.2,4.72-1.311,2.623,0,2.886,1.312,1.573,2.623,1.048.262-5.507,4.72-5.77,6.3,4.984,6.3,9.442a12.92,12.92,0,0,1-3.147,7.868s7.081,4.459,11.016,5.771,5.245.262,6.294-1.574,2.885-7.868,3.672-8.918,7.868-9.179,6.033-21.244-21.508-21.244-24.13-20.982A3.261,3.261,0,0,0,538.265,269.192Z" transform="translate(-509.302 -265.866)" fill="#263238"/><path d="M552.2,319.982a10.093,10.093,0,0,1-3.119-.61c-3.939-1.313-10.819-5.633-11.11-5.816a.433.433,0,0,1-.088-.661,12.585,12.585,0,0,0,3.033-7.575c0-2.6-.683-6.03-2.6-7.837a4.185,4.185,0,0,0-3.238-1.171c-2.616.154-3.082,2.042-3.493,3.708-.234.949-.437,1.77-1.092,2.031a1.574,1.574,0,0,1-1.916-.452,1.848,1.848,0,0,0-.953-.574,1.079,1.079,0,0,1-.79-.593,3.721,3.721,0,0,1,.362-2.649c-.686-.8-3.11-3.6-3.991-4.483-1.056-1.057-.623-6.8-.416-8.973-1.429-.731-8.351-4.258-12.293-5.883-.867-.356-1.29-.833-1.257-1.416.108-1.866,5.921-3.773,8.4-4.5-.394-.758-1.252-2.367-2.367-4.226a.783.783,0,0,1-.009-.865c1.23-1.836,17.071.369,22.584,1.2a3.6,3.6,0,0,1,3.195-2.824c2.975-.325,22.742,9.127,24.6,21.349a27.573,27.573,0,0,1-5.93,21.335l-.183.236a28.444,28.444,0,0,0-1.716,4.155,40.764,40.764,0,0,1-1.926,4.718A3.948,3.948,0,0,1,552.2,319.982Zm-13.342-6.9c1.583.974,7.206,4.365,10.5,5.462,3.88,1.294,4.912.142,5.779-1.378A40.3,40.3,0,0,0,557,312.583a25.873,25.873,0,0,1,1.836-4.376l.2-.252a26.376,26.376,0,0,0,5.754-20.668c-1.793-11.774-21.051-20.619-23.575-20.619-.03,0-.057,0-.083,0a2.814,2.814,0,0,0-2.5,2.5.434.434,0,0,1-.5.384c-10.057-1.53-20.938-2.557-22.1-1.679,1.562,2.611,2.612,4.706,2.622,4.727a.432.432,0,0,1,.009.37.438.438,0,0,1-.279.242c-3.939,1.113-8.223,2.907-8.279,3.862-.009.162.267.378.72.565,4.424,1.821,12.541,6.005,12.623,6.048a.434.434,0,0,1,.232.429c-.367,3.686-.42,8.008.139,8.567,1.049,1.049,4.09,4.594,4.218,4.746a.434.434,0,0,1,.058.477,3.625,3.625,0,0,0-.482,2.141.214.214,0,0,0,.179.123,2.656,2.656,0,0,1,1.379.795c.367.347.506.474,1,.277.241-.1.416-.806.571-1.432.41-1.664,1.03-4.177,4.286-4.368a5.051,5.051,0,0,1,3.884,1.406c2.117,2,2.871,5.684,2.871,8.469A13.062,13.062,0,0,1,538.855,313.086Z" transform="translate(-509.236 -265.801)" fill="#263238"/></g><g transform="translate(34.887 88.841)"><path d="M445.086,441.5H451v-.313h51.86l-5.024-72.614-12.384,47.7-5.733-.917-2.981,2.981-32.794,5.275s1.835,13.76,1.605,15.136Z" transform="translate(-443.504 -368.138)" fill="#263238"/><path d="M450.93,441.866h-5.909a.433.433,0,0,1-.428-.506l.458-2.752c.162-.962-.873-9.5-1.608-15.006a.437.437,0,0,1,.362-.487l32.655-5.25,2.882-2.883a.438.438,0,0,1,.375-.122l5.344.855L497.345,368.4a.435.435,0,0,1,.855.08l5.024,72.614a.431.431,0,0,1-.116.326.436.436,0,0,1-.317.138H451.346A.433.433,0,0,1,450.93,441.866Zm-5.4-.869h4.979a.435.435,0,0,1,.417-.312h51.4l-4.808-69.491L485.8,416.315a.436.436,0,0,1-.489.32l-5.515-.883-2.824,2.825a.436.436,0,0,1-.238.122l-32.377,5.207c.343,2.595,1.765,13.538,1.547,14.845Z" transform="translate(-443.439 -368.072)" fill="#263238"/></g><g transform="translate(8.505 140.71)"><path d="M439.954,431.45l-5.275-.917s-16.741-3.44-19.264-1.835-1.835,16.512-1.376,18.117.688,1.147,4.128,2.064,22.933.459,22.933.459S443.394,443.376,439.954,431.45Z" transform="translate(-413.138 -427.847)" fill="#fff"/><path d="M430.867,449.825c-5.333,0-11.11-.117-12.88-.59-.861-.229-1.518-.372-2.027-.482-1.571-.341-1.992-.432-2.406-1.882-.473-1.655-1.3-16.785,1.56-18.6,2.6-1.652,17.854,1.421,19.584,1.776l5.262.916a.432.432,0,0,1,.343.307c3.441,11.929,1.231,17.915,1.135,18.164a.435.435,0,0,1-.4.278C440.652,449.717,435.963,449.825,430.867,449.825Zm-12.821-21.19a5.413,5.413,0,0,0-2.466.367c-2.235,1.422-1.668,15.962-1.192,17.631.271.95.271.95,1.755,1.272.52.113,1.191.258,2.067.493,3.107.83,20,.5,22.5.45.371-1.274,1.682-7.015-1.171-17.079l-5.007-.87C429.408,429.843,421.994,428.634,418.046,428.634Z" transform="translate(-413.069 -427.783)" fill="#263238"/></g><g transform="translate(3.506 139.364)"><path d="M415.115,430.79s5.045,6.88,4.816,10.32-1.376,1.147-2.752.459-8.027-6.651-9.173-8.715,3.211-5.733,3.211-5.733a3.257,3.257,0,0,1,2.523-.229c1.376.459,9.4,3.669,9.4,3.669" transform="translate(-407.38 -426.299)" fill="#fff"/><path d="M419.18,443.326a2.358,2.358,0,0,1-1.309-.739,5.2,5.2,0,0,0-.951-.7c-1.392-.7-8.127-6.676-9.359-8.892-1.283-2.31,2.837-5.877,3.311-6.277a3.658,3.658,0,0,1,2.94-.309c1.372.459,9.1,3.547,9.426,3.679a.434.434,0,1,1-.322.806c-.08-.032-8.031-3.211-9.379-3.66a2.858,2.858,0,0,0-2.163.189c-1,.852-3.846,3.723-3.053,5.15,1.125,2.025,7.767,7.926,8.988,8.536a5.955,5.955,0,0,1,1.125.811,2.825,2.825,0,0,0,.75.531,4.081,4.081,0,0,0,.249-1.44c.216-3.242-4.683-9.967-4.733-10.034a.435.435,0,0,1,.7-.514c.209.288,5.136,7.049,4.9,10.606-.089,1.35-.324,1.985-.81,2.19A.782.782,0,0,1,419.18,443.326Z" transform="translate(-407.314 -426.234)" fill="#263238"/></g><g transform="translate(13.756 120.792)"><path d="M419.616,406.635l1.467,35,2.051,3.71.857-3.571-1.928-35.266a1.224,1.224,0,0,0-1.366-1.149h0A1.224,1.224,0,0,0,419.616,406.635Z" transform="translate(-419.18 -404.92)" fill="#fff"/><path d="M423.068,445.717a.435.435,0,0,1-.38-.224l-2.05-3.71a.425.425,0,0,1-.054-.192l-1.468-35a1.659,1.659,0,0,1,3.314-.165l1.928,35.265a.423.423,0,0,1-.01.124l-.857,3.573a.435.435,0,0,1-.364.328A.445.445,0,0,1,423.068,445.717Zm-1.621-4.265,1.459,2.641.581-2.422-1.925-35.2a.787.787,0,0,0-.281-.563.768.768,0,0,0-.6-.18.794.794,0,0,0-.7.822v0Z" transform="translate(-419.114 -404.854)" fill="#263238"/></g><g transform="translate(15.001 139.063)"><path d="M438.18,433.5s-9.632-7.109-11.237-7.109-3.669,4.816-3.669,4.816-3.669,9.173-1.605,9.861,4.816-4.128,4.816-4.128,2.293,5.963,7.339,6.192" transform="translate(-420.611 -425.953)" fill="#fff"/><path d="M433.758,443.5h-.019c-4.2-.19-6.545-4.018-7.378-5.7-.914,1.411-3.02,4.232-4.895,3.614a1.2,1.2,0,0,1-.711-.668c-.969-2.089,1.738-8.987,2.05-9.767.367-.857,2.272-5.089,4.073-5.089,1.664,0,9.866,5.993,11.494,7.194a.434.434,0,1,1-.515.7c-4.614-3.405-10.03-7.025-10.979-7.025-.91,0-2.46,2.662-3.271,4.553-1.121,2.8-2.676,7.752-2.065,9.069.07.152.146.192.2.209,1.248.419,3.305-2.189,4.3-3.932a.422.422,0,0,1,.41-.217.437.437,0,0,1,.373.277c.022.056,2.256,5.7,6.952,5.914a.434.434,0,0,1-.019.868Z" transform="translate(-420.547 -425.887)" fill="#263238"/><path d="M427.241,438.172a.424.424,0,0,1-.187-.043.434.434,0,0,1-.205-.579l2.293-4.816a.434.434,0,0,1,.784.374l-2.293,4.816A.435.435,0,0,1,427.241,438.172Z" transform="translate(-421.369 -426.754)" fill="#263238"/></g><g transform="translate(0 145.484)"><path d="M407.475,433.779s-4.562,5.017-3.562,6.731,10.427,6.286,12.426,5.857,1.715-2.714,1.715-2.714Z" transform="translate(-403.343 -433.345)" fill="#fff"/><path d="M415.977,446.763c-2.838,0-11.526-4.421-12.5-6.1-1.1-1.892,2.819-6.365,3.616-7.242a.437.437,0,0,1,.3-.142.447.447,0,0,1,.314.117l10.578,9.874a.439.439,0,0,1,.135.263,2.781,2.781,0,0,1-2.054,3.193A1.928,1.928,0,0,1,415.977,446.763Zm-8.538-12.428c-1.748,2-3.764,4.953-3.217,5.891.955,1.638,10.244,6.029,11.961,5.651a1.9,1.9,0,0,0,1.385-2.087Z" transform="translate(-403.278 -433.279)" fill="#263238"/></g><g transform="translate(1.135 153.217)"><path d="M405.085,442.679s2.714,6.142,4,6.856,6.22,1.9,7.966,1.236.462-3.378.462-3.378a12.044,12.044,0,0,1-3.285-.714C412.941,446.108,405.085,442.679,405.085,442.679Z" transform="translate(-404.65 -442.246)" fill="#fff"/><path d="M415.535,451.338a18.718,18.718,0,0,1-6.727-1.487c-1.345-.748-3.723-6.013-4.186-7.061a.434.434,0,0,1,.572-.573s7.858,3.429,9.145,4a11.612,11.612,0,0,0,3.139.678.437.437,0,0,1,.362.248,4.329,4.329,0,0,1,.338,2.972,1.76,1.76,0,0,1-1.038,1A4.7,4.7,0,0,1,415.535,451.338Zm-9.651-7.872c1.07,2.289,2.618,5.221,3.346,5.625,1.306.726,6.063,1.8,7.6,1.209a.87.87,0,0,0,.539-.51,3.244,3.244,0,0,0-.222-2.053,11.6,11.6,0,0,1-3.165-.727C412.99,446.568,408.062,444.417,405.884,443.466Z" transform="translate(-404.585 -442.18)" fill="#263238"/></g><g transform="translate(10.563 159.701)"><path d="M419.366,450.944s4-1.715,3.857-.143a1.522,1.522,0,0,1-1.429,1.571l-5.857-.286S418.222,452.372,419.366,450.944Z" transform="translate(-415.504 -449.71)" fill="#fff"/><path d="M421.728,452.742l-5.372-.262a4.717,4.717,0,0,1-.538-.027.434.434,0,0,1-.379-.468.424.424,0,0,1,.453-.4l.451.022h0a3.377,3.377,0,0,0,2.614-1,.455.455,0,0,1,.169-.129c.725-.31,3.165-1.269,4.085-.6a.957.957,0,0,1,.374.9A1.951,1.951,0,0,1,421.728,452.742Zm-2.716-1,2.738.134c.123,0,.875-.078.974-1.177.01-.1-.012-.113-.02-.118-.341-.248-1.9.146-3.137.658A3.1,3.1,0,0,1,419.012,451.74Z" transform="translate(-415.438 -449.645)" fill="#263238"/></g><g transform="translate(48.795 149.284)"><path d="M466.439,450.323a59.015,59.015,0,0,1,9.767,0h9.036a60.162,60.162,0,0,0,6.316-1.666q-.641-5.252-1.285-10.5a67.061,67.061,0,0,0-13.537,3.48,43.916,43.916,0,0,0-7.254,3.641c-.815.49-7.861,3.175-9.532,5.05Z" transform="translate(-459.516 -437.719)" fill="#fff"/><path d="M476.14,450.692a59.485,59.485,0,0,0-9.716,0l-.05,0h-6.489a.435.435,0,0,1-.324-.724c1.308-1.466,5.521-3.307,8.037-4.405.757-.331,1.412-.617,1.595-.727a44.769,44.769,0,0,1,7.327-3.676,67.545,67.545,0,0,1,13.624-3.5.436.436,0,0,1,.5.377l1.285,10.5a.435.435,0,0,1-.3.468,61.426,61.426,0,0,1-6.363,1.677Zm-5.432-1.071c1.95,0,3.935.089,5.464.2h9a58.909,58.909,0,0,0,5.841-1.541l-1.187-9.7a66.676,66.676,0,0,0-13.009,3.39,43.906,43.906,0,0,0-7.181,3.606c-.221.134-.734.358-1.695.778a47.138,47.138,0,0,0-6.88,3.464h5.283A39.8,39.8,0,0,1,470.708,449.621Z" transform="translate(-459.45 -437.653)" fill="#263238"/></g><g transform="translate(79.119 73.344)"><path d="M591.542,438.843a19.433,19.433,0,0,0,3.175-6.325,54.369,54.369,0,0,0,.678-9.264c0-.9,1.581-57.611.226-64.389s-9.489-8.133-9.489-8.133l-4.292,1.13s-6.327,9.263-9.264,18.3-4.518,44.959-4.518,44.959-6.1.678-6.1,1.356v3.163l-67.1,7,1.089,12.2Z" transform="translate(-494.424 -350.298)" fill="#263238"/><path d="M591.477,439.211h-95.6a.435.435,0,0,1-.433-.4l-1.089-12.2a.435.435,0,0,1,.388-.471l66.711-6.963v-2.771c0-.366,0-1.04,6.117-1.746.185-4.038,1.727-36.1,4.522-44.7,2.922-8.992,9.253-18.319,9.317-18.412a.433.433,0,0,1,.248-.175l4.294-1.129a.426.426,0,0,1,.182-.009c.084.015,8.444,1.485,9.843,8.477.8,3.986.739,25.556-.168,62.376-.03,1.258-.049,2-.049,2.1a53.8,53.8,0,0,1-.687,9.353,19.891,19.891,0,0,1-3.248,6.489A.438.438,0,0,1,591.477,439.211Zm-95.2-.869h94.975a18.575,18.575,0,0,0,2.973-5.982,52.919,52.919,0,0,0,.669-9.171c0-.1.018-.85.049-2.12,1.144-46.438.731-59.447.184-62.185-1.206-6.029-8.181-7.6-9.046-7.772l-4.04,1.062c-.781,1.168-6.425,9.767-9.118,18.056-2.885,8.879-4.482,44.486-4.5,44.844a.436.436,0,0,1-.386.413,27.008,27.008,0,0,0-5.714,1.065v3.021a.435.435,0,0,1-.39.432l-66.674,6.959Z" transform="translate(-494.358 -350.232)" fill="#263238"/><path d="M500.929,437.3a.434.434,0,0,1-.042-.867L505.3,436a.445.445,0,0,1,.475.39.435.435,0,0,1-.39.475l-4.415.431Z" transform="translate(-495.164 -361.496)" fill="#fff"/><path d="M510.506,427.241a.435.435,0,0,1-.042-.868l53.058-5.176V418.43a.434.434,0,0,1,.34-.424l5.79-1.287c.288-3.25,2.706-30.4,3.606-37.887a68.077,68.077,0,0,1,3.179-12.935.434.434,0,1,1,.823.28,67.217,67.217,0,0,0-3.14,12.759c-.95,7.918-3.6,37.876-3.63,38.177a.436.436,0,0,1-.339.387l-5.759,1.28v2.815a.435.435,0,0,1-.393.433L510.55,427.24Z" transform="translate(-496.422 -352.251)" fill="#fff"/><path d="M587.693,363.783a.443.443,0,0,1-.148-.026.434.434,0,0,1-.26-.557c.561-1.536.949-2.472.949-2.472a.434.434,0,0,1,.8.332s-.384.928-.935,2.438A.436.436,0,0,1,587.693,363.783Z" transform="translate(-506.558 -351.575)" fill="#fff"/></g></g><g transform="translate(509.151 257.502)"><g transform="translate(0 69.733)"><path d="M590.135,439.09h83.976a119.268,119.268,0,0,0,8.92-33.787c1.87-18.7-1.869-34.7-6.44-44.045S668.072,349,667.033,349s-30.541,12.465-30.541,12.465-6.44,6.649-9.972,12.674a51.912,51.912,0,0,0-4.986,11.427s-3.74,0-4.986,2.078a25.529,25.529,0,0,0-2.285,5.4c-.415,1.247-10.6,11.634-15.79,16s-12.05,12.05-13.92,17.452,2.493,10.181,3.324,11.011A14.72,14.72,0,0,0,590.135,439.09Z" transform="translate(-583.658 -348.566)" fill="#fff"/><path d="M674.046,439.459H590.07a.438.438,0,0,1-.226-.063,13.944,13.944,0,0,1-2.34-1.65c-.563-.561-5.437-5.656-3.428-11.46,1.851-5.348,8.621-13.081,14.051-17.643,5.553-4.664,15.292-14.747,15.658-15.8l.12-.365a24.414,24.414,0,0,1,2.2-5.123c1.142-1.9,4.041-2.224,5.029-2.278a53.983,53.983,0,0,1,4.941-11.223c3.518-6,9.972-12.688,10.036-12.755a.416.416,0,0,1,.143-.1c6.939-2.932,29.664-12.5,30.709-12.5,1.252,0,5.328,3.056,9.948,12.5,2.125,4.346,8.871,20.383,6.481,44.278a120.016,120.016,0,0,1-8.953,33.92A.433.433,0,0,1,674.046,439.459Zm-83.854-.869h83.571a119.331,119.331,0,0,0,8.77-33.4c2.366-23.666-4.3-39.517-6.4-43.811-4.429-9.057-8.323-12.015-9.167-12.015-1.042.149-18.656,7.482-30.29,12.4-.662.692-6.565,6.926-9.849,12.526a51.943,51.943,0,0,0-4.942,11.321.435.435,0,0,1-.42.321c-.035,0-3.509.026-4.613,1.866a23.593,23.593,0,0,0-2.124,4.948l-.122.368c-.5,1.5-11.144,12.179-15.924,16.193-5.341,4.487-11.988,12.061-13.789,17.261-1.835,5.3,2.7,10.039,3.221,10.561A13.01,13.01,0,0,0,590.192,438.59Z" transform="translate(-583.593 -348.5)" fill="#263238"/><path d="M621.027,440.435a.435.435,0,0,1-.332-.716l.438-.518c5.43-6.425,11.045-13.068,16.944-19.249A62.966,62.966,0,0,1,649,411.459c2.289-1.525,4.655-3.1,6.819-4.812,3.321-2.626,7.426-5.874,8.739-10.01a.434.434,0,1,1,.828.262c-1.393,4.389-5.614,7.729-9.006,10.412-2.214,1.75-4.6,3.337-6.9,4.871a62.451,62.451,0,0,0-10.776,8.371c-5.88,6.16-11.486,12.793-16.907,19.208l-.439.519A.438.438,0,0,1,621.027,440.435Z" transform="translate(-588.452 -354.782)" fill="#263238"/><path d="M665.68,417.443a.434.434,0,0,1-.248-.79,31.1,31.1,0,0,0,2.624-2.034.434.434,0,1,1,.57.655,31.528,31.528,0,0,1-2.7,2.092A.435.435,0,0,1,665.68,417.443Z" transform="translate(-594.316 -357.169)" fill="#263238"/><path d="M638.607,427.173a.434.434,0,0,1-.074-.862c.114-.021,11.462-2.051,20.637-7.37a.434.434,0,0,1,.436.751c-9.312,5.4-20.808,7.454-20.924,7.473A.368.368,0,0,1,638.607,427.173Z" transform="translate(-590.761 -357.743)" fill="#263238"/><path d="M658.767,388.992a.434.434,0,0,1-.184-.828c1.167-.546,2.322-1.157,3.436-1.816a.435.435,0,0,1,.441.749c-1.137.671-2.317,1.3-3.509,1.854A.421.421,0,0,1,658.767,388.992Z" transform="translate(-593.408 -353.463)" fill="#263238"/><path d="M634.431,393.774a42.067,42.067,0,0,1-7.148-.536.435.435,0,1,1,.166-.853,49.074,49.074,0,0,0,23.876-2.421.434.434,0,0,1,.3.812A49.477,49.477,0,0,1,634.431,393.774Z" transform="translate(-589.285 -353.941)" fill="#263238"/></g><g transform="translate(38.606 25.397)"><path d="M630.694,303.654s-.208,9.765-1.663,12.466.416,8.726,3.532,13.5,4.363,6.44,6.649,6.44a32.977,32.977,0,0,0,6.233-1.039s1.662,6.856,1.662,8.518v3.116s18.283-6.024,20.152-7.687a17.158,17.158,0,0,0,2.7-2.908l.623-4.986s-7.479-.831-11.634-4.986-17.66-23.062-17.66-23.062-2.493-5.818-6.856-4.986S630.694,303.654,630.694,303.654Z" transform="translate(-628.1 -297.527)" fill="#fff"/><path d="M647.042,347.028a.433.433,0,0,1-.434-.434v-3.116a68.447,68.447,0,0,0-1.548-7.989,30.25,30.25,0,0,1-5.913.944c-2.579,0-3.932-1.916-7.012-6.638-2.937-4.5-5.18-10.924-3.55-13.948,1.352-2.51,1.6-11.671,1.61-12.241-.048-.476-.4-5.2,4.093-6.055s7.052,4.6,7.317,5.2c.673.941,13.591,18.974,17.587,22.97s11.3,4.853,11.376,4.862a.435.435,0,0,1,.293.162.439.439,0,0,1,.09.323l-.624,4.987a.445.445,0,0,1-.069.187,17.551,17.551,0,0,1-2.775,2.992c-1.915,1.7-19.555,7.528-20.305,7.775A.4.4,0,0,1,647.042,347.028Zm-1.663-12.5a.437.437,0,0,1,.222.061.442.442,0,0,1,.2.271c.069.282,1.675,6.926,1.675,8.621v2.515c5.433-1.8,18-6.142,19.43-7.411a17.989,17.989,0,0,0,2.572-2.744l.557-4.451c-1.689-.249-7.776-1.373-11.458-5.054-4.133-4.133-17.155-22.342-17.706-23.115a.418.418,0,0,1-.045-.082c-.024-.055-2.411-5.487-6.376-4.731-3.9.743-3.413,4.949-3.39,5.128a.55.55,0,0,1,0,.064c-.009.4-.228,9.9-1.714,12.663-1.27,2.357.273,8.093,3.513,13.061,3.078,4.719,4.244,6.244,6.284,6.244a32.786,32.786,0,0,0,6.122-1.024A.433.433,0,0,1,645.379,334.526Z" transform="translate(-628.035 -297.461)" fill="#263238"/></g><g transform="translate(35.651)"><path d="M670.969,278.207s-20.776-10.8-28.255-9.35-18.907,7.9-17.453,12.882a7.275,7.275,0,0,0,6.441,5.194s-6.025,6.856-3.532,13.3,10.388,11.427,10.8,12.05a49.6,49.6,0,0,0,4.779,4.57c.623.416,6.44,11.635,14.127,14.336s10.388,1.454,12.258-1.247,7.064-9.765,7.064-9.765a10.573,10.573,0,0,0,6.025-11.634c-1.454-8.518-2.286-12.674-5.194-19.114A51.189,51.189,0,0,0,670.969,278.207Z" transform="translate(-624.7 -268.291)" fill="#92e3a9"/><path d="M664.773,333.05a22.209,22.209,0,0,1-7.1-1.519c-6.318-2.22-11.285-9.887-13.405-13.162a14.859,14.859,0,0,0-.844-1.241,49.344,49.344,0,0,1-4.874-4.672c-.074-.092-.541-.455-.992-.806-2.343-1.824-7.829-6.1-9.854-11.328-2.151-5.559,1.688-11.279,3.115-13.132a7.6,7.6,0,0,1-6.036-5.394,4.485,4.485,0,0,1,.692-3.644c2.633-4.319,11.122-8.623,17.094-9.786,7.545-1.461,27.686,8.946,28.539,9.39a.433.433,0,0,1,.127.1,52.044,52.044,0,0,1,7.133,11.325c3,6.631,3.809,10.917,5.227,19.22a11.041,11.041,0,0,1-6.17,12.055c-.614.836-5.259,7.166-6.989,9.664A6.243,6.243,0,0,1,664.773,333.05Zm-20.544-63.96a7.891,7.891,0,0,0-1.5.129c-5.794,1.127-14,5.259-16.52,9.385a3.656,3.656,0,0,0-.6,2.948,6.775,6.775,0,0,0,6.042,4.88.436.436,0,0,1,.307.722c-.058.066-5.82,6.737-3.453,12.854,1.939,5.008,7.292,9.176,9.578,10.956a6.721,6.721,0,0,1,1.182,1.009,50.63,50.63,0,0,0,4.658,4.45,6.309,6.309,0,0,1,1.066,1.472c2.073,3.2,6.927,10.693,12.965,12.815,7.368,2.59,9.964,1.506,11.757-1.084,1.852-2.675,7.018-9.7,7.07-9.774a.433.433,0,0,1,.182-.143,10.052,10.052,0,0,0,5.765-11.161c-1.4-8.23-2.211-12.475-5.163-19.008a51.305,51.305,0,0,0-6.942-11.051C669.346,277.829,652.185,269.09,644.229,269.09Z" transform="translate(-624.634 -268.225)" fill="#263238"/><g transform="translate(22.427 1.516)"><path d="M666.255,270.749s-11.427.208-14.543,6.025,3.948,15.582,8.311,18.7a17.275,17.275,0,0,0,14.751,2.285c4.363-1.455,7.272-7.9,6.44-12.674s-6.856-13.712-9.349-14.336A15.118,15.118,0,0,0,666.255,270.749Z" transform="translate(-650.516 -270.037)" fill="#92e3a9"/><path d="M669.834,298.884a17.735,17.735,0,0,1-10.129-3.123c-4.782-3.417-11.619-13.324-8.44-19.258,3.139-5.86,14.018-6.234,14.88-6.254a15.294,15.294,0,0,1,5.761.012c2.782.7,8.838,9.889,9.671,14.682.83,4.771-1.928,11.559-6.73,13.16A15.906,15.906,0,0,1,669.834,298.884Zm-.589-28.042a17.194,17.194,0,0,0-2.969.267.459.459,0,0,1-.077.009c-.111,0-11.208.271-14.168,5.8-2.909,5.429,3.734,14.965,8.18,18.14a16.737,16.737,0,0,0,14.361,2.226c3.945-1.314,6.991-7.352,6.15-12.187-.816-4.689-6.773-13.425-9.027-13.989A10.343,10.343,0,0,0,669.245,270.842Zm-3.054-.159h0Z" transform="translate(-650.451 -269.971)" fill="#263238"/><path d="M677.7,290.127a.435.435,0,0,1-.407-.281c-2.649-7-10.081-10.319-10.156-10.352a.434.434,0,1,1,.347-.8c.319.139,7.843,3.5,10.621,10.841a.434.434,0,0,1-.407.587Z" transform="translate(-652.608 -271.112)" fill="#263238"/><path d="M675.44,285.04a.434.434,0,0,1-.024-.868c.035,0,3.528-.236,5.049-2.9a.435.435,0,1,1,.755.431c-1.759,3.079-5.593,3.326-5.756,3.335Z" transform="translate(-653.676 -271.426)" fill="#263238"/><path d="M671.521,283.33a.479.479,0,0,1-.061,0,17.873,17.873,0,0,0-3.687-.14.446.446,0,0,1-.462-.4.434.434,0,0,1,.4-.462,18.809,18.809,0,0,1,3.866.147.434.434,0,0,1-.06.864Z" transform="translate(-652.665 -271.587)" fill="#263238"/><path d="M653.437,289.651a.434.434,0,0,1-.346-.7,18.435,18.435,0,0,1,9.371-5.99.435.435,0,1,1,.223.84,17.844,17.844,0,0,0-8.9,5.674A.43.43,0,0,1,653.437,289.651Z" transform="translate(-650.786 -271.675)" fill="#263238"/><path d="M651.763,277.96a.435.435,0,0,1-.172-.834,17.2,17.2,0,0,1,10.675-.228.435.435,0,0,1,.3.534.44.44,0,0,1-.535.3,16.633,16.633,0,0,0-10.1.189A.428.428,0,0,1,651.763,277.96Z" transform="translate(-650.566 -270.788)" fill="#263238"/><path d="M670.9,300.525a.435.435,0,0,1-.315-.733c.036-.038,3.643-3.942,4.245-11.164a.441.441,0,0,1,.469-.4.435.435,0,0,1,.4.47c-.629,7.543-4.323,11.523-4.481,11.689A.434.434,0,0,1,670.9,300.525Z" transform="translate(-653.079 -272.369)" fill="#263238"/><path d="M674.961,280.094a.435.435,0,0,1-.392-.622,10.008,10.008,0,0,0,.011-8.538.434.434,0,0,1,.762-.418,10.705,10.705,0,0,1,.011,9.331A.434.434,0,0,1,674.961,280.094Z" transform="translate(-653.613 -270.013)" fill="#263238"/></g><path d="M625.214,283.2a.435.435,0,0,1-.264-.779,33.283,33.283,0,0,1,14.545-5.9.434.434,0,0,1,.11.862,33.05,33.05,0,0,0-14.127,5.731A.423.423,0,0,1,625.214,283.2Z" transform="translate(-624.653 -269.313)" fill="#263238"/><path d="M648.691,294.269a.434.434,0,0,1-.124-.85,34.876,34.876,0,0,1,3.548-.877.434.434,0,0,1,.151.855,34.892,34.892,0,0,0-3.451.856A.465.465,0,0,1,648.691,294.269Z" transform="translate(-627.736 -271.417)" fill="#263238"/><path d="M632.126,308.878a.423.423,0,0,1-.381-.235c-.119-.238-1.038-2.481,3.155-8.14,1.606-2.168,4.3-4.036,7.993-5.549a.435.435,0,0,1,.329.8c-3.548,1.452-6.114,3.223-7.624,5.262-3.867,5.222-3.08,7.227-3.071,7.246a.441.441,0,0,1-.214.572A.431.431,0,0,1,632.126,308.878Z" transform="translate(-625.546 -271.731)" fill="#263238"/><path d="M656.865,322.437a.434.434,0,0,1-.282-.764c.943-.808,1.959-1.77,3.018-2.858,7.28-7.481,8.391-13.424,8.4-13.484a.434.434,0,1,1,.856.149c-.043.251-1.148,6.247-8.635,13.94-1.076,1.107-2.112,2.087-3.076,2.913A.431.431,0,0,1,656.865,322.437Z" transform="translate(-628.81 -273.051)" fill="#263238"/><path d="M649.832,328.584a1.655,1.655,0,0,1-.956-.23.435.435,0,0,1,.5-.714c.046.024.885.421,3.073-.834a.434.434,0,0,1,.433.753A6.331,6.331,0,0,1,649.832,328.584Z" transform="translate(-627.794 -275.911)" fill="#263238"/><path d="M677.9,312.609l-.045,0a.433.433,0,0,1-.387-.476c.354-3.489.359-5.983.359-6.007a.434.434,0,1,1,.869,0c0,.025,0,2.562-.364,6.1A.432.432,0,0,1,677.9,312.609Z" transform="translate(-631.571 -273.145)" fill="#263238"/><path d="M665.157,337.339a.434.434,0,0,1-.2-.82,19.929,19.929,0,0,0,8.513-11.175,51.735,51.735,0,0,0,1.839-7.96.435.435,0,1,1,.859.134,52.582,52.582,0,0,1-1.872,8.093c-2.724,8.385-8.687,11.548-8.94,11.678A.417.417,0,0,1,665.157,337.339Z" transform="translate(-629.899 -274.633)" fill="#263238"/><path d="M688.142,321.574a.462.462,0,0,1-.14-.023.435.435,0,0,1-.271-.552c2.8-8.209-4.443-18.828-4.516-18.935a.434.434,0,0,1,.714-.493c.31.447,7.57,11.082,4.625,19.708A.435.435,0,0,1,688.142,321.574Z" transform="translate(-632.317 -272.58)" fill="#263238"/><path d="M646.74,308.763a.425.425,0,0,1-.219-.059.434.434,0,0,1-.156-.594c2.935-5.031,10.242-9.13,10.552-9.3a.435.435,0,0,1,.422.76c-.074.041-7.409,4.157-10.224,8.98A.43.43,0,0,1,646.74,308.763Z" transform="translate(-627.48 -272.234)" fill="#263238"/></g><g transform="translate(48.794 40.299)"><path d="M642.207,316.295a31.894,31.894,0,0,1-1.663,8.311c-1.454,3.947,3.117,5.4,4.156,1.869s1.869-6.44,1.454-8.933S643.453,314.217,642.207,316.295Z" transform="translate(-639.829 -314.683)" fill="#fff"/><path d="M642.357,328.848a2.524,2.524,0,0,1-1.9-.872,3.5,3.5,0,0,1-.383-3.587,31.727,31.727,0,0,0,1.637-8.181.423.423,0,0,1,.061-.2,2.433,2.433,0,0,1,2.517-1.353,3.118,3.118,0,0,1,2.232,2.751c.44,2.643-.443,5.647-1.465,9.127a3.019,3.019,0,0,1-2.166,2.26A2.552,2.552,0,0,1,642.357,328.848Zm.212-12.485a31.972,31.972,0,0,1-1.683,8.326,2.668,2.668,0,0,0,.223,2.715,1.643,1.643,0,0,0,1.591.537,2.18,2.18,0,0,0,1.518-1.656c.992-3.377,1.85-6.294,1.442-8.74a2.282,2.282,0,0,0-1.538-2.04A1.556,1.556,0,0,0,642.569,316.364Z" transform="translate(-639.763 -314.617)" fill="#263238"/></g><g transform="translate(45.751 60.799)"><path d="M674.365,338.716a89.906,89.906,0,0,0-13.92,5.609c-6.856,3.532-19.737,7.9-19.737,7.9l-3.947,10.18a156.364,156.364,0,0,0,19.113-3.947c10.8-2.909,22.23-9.972,22.23-9.972Z" transform="translate(-636.326 -338.281)" fill="#fff"/><path d="M636.7,362.769a.433.433,0,0,1-.4-.591L640.238,352a.434.434,0,0,1,.266-.255c.128-.043,12.928-4.394,19.676-7.87a91.276,91.276,0,0,1,14-5.639.435.435,0,0,1,.528.261l3.74,9.765a.434.434,0,0,1-.177.525c-.115.071-11.6,7.131-22.346,10.022a158.528,158.528,0,0,1-19.173,3.96Zm4.279-10.269-3.608,9.305a163.278,163.278,0,0,0,18.329-3.837c9.645-2.6,19.919-8.6,21.808-9.736l-3.465-9.048a90.56,90.56,0,0,0-13.461,5.461C654.229,347.916,642.61,351.939,640.974,352.5Z" transform="translate(-636.261 -338.216)" fill="#263238"/></g><g transform="translate(1.378 125.188)"><path d="M596.168,421.326a.426.426,0,0,1-.122-.017.436.436,0,0,1-.3-.3c-.061-.219-1.485-5.391-.171-7.8a1.588,1.588,0,0,1,1.181-.844c1.979-.317,5.169,2.681,5.527,3.023a.434.434,0,0,1-.011.638l-5.817,5.194A.434.434,0,0,1,596.168,421.326Zm.91-8.12a1.292,1.292,0,0,0-.187.014.721.721,0,0,0-.551.4c-.891,1.636-.259,5.017.075,6.468l4.924-4.4C600.306,414.775,598.287,413.207,597.078,413.207Z" transform="translate(-586.472 -412.339)" fill="#263238"/><g transform="translate(4.466 2.718)"><path d="M594.992,415.968s-3.947,2.077-4.155,3.531,1.454,4.779,1.454,4.779l3.324-2.908Z" transform="translate(-590.386 -415.534)" fill="#fff"/><path d="M592.226,424.646a.4.4,0,0,1-.084-.009.433.433,0,0,1-.3-.231c-.176-.353-1.716-3.49-1.495-5.034.229-1.593,3.691-3.491,4.383-3.855a.434.434,0,0,1,.633.334l.624,5.4a.433.433,0,0,1-.146.376l-3.324,2.909A.432.432,0,0,1,592.226,424.646Zm2.344-8.051c-1.486.856-3.26,2.147-3.368,2.9-.131.918.656,2.892,1.169,4.014l2.722-2.382Z" transform="translate(-590.32 -415.468)" fill="#263238"/></g><g transform="translate(2.122 6.249)"><path d="M590.482,420.033s-2.023.457-2.325,1.59,1.209,6.875,1.209,6.875l2.57-3.686A14.97,14.97,0,0,1,590.482,420.033Z" transform="translate(-587.687 -419.598)" fill="#fff"/><path d="M589.3,428.866a.555.555,0,0,1-.076-.006.436.436,0,0,1-.344-.318c-.257-.977-1.525-5.912-1.208-7.1.36-1.347,2.416-1.849,2.649-1.9a.427.427,0,0,1,.362.08.438.438,0,0,1,.168.331,14.6,14.6,0,0,0,1.409,4.6.434.434,0,0,1-.033.44l-2.57,3.687A.435.435,0,0,1,589.3,428.866Zm.728-8.329c-.583.207-1.375.6-1.517,1.132-.174.647.436,3.557.976,5.737l1.883-2.7A16.068,16.068,0,0,1,590.029,420.537Z" transform="translate(-587.622 -419.533)" fill="#263238"/></g><g transform="translate(0 8.822)"><path d="M587.686,422.994a9.786,9.786,0,0,0-1.964,4.382c-.453,2.644,2.8-.3,2.8-.3Z" transform="translate(-585.245 -422.56)" fill="#fff"/><path d="M586.08,428.841a.883.883,0,0,1-.432-.1c-.411-.226-.552-.731-.421-1.5a10.154,10.154,0,0,1,2.066-4.594.435.435,0,0,1,.754.2l.831,4.079a.432.432,0,0,1-.135.407A5.324,5.324,0,0,1,586.08,428.841ZM587.4,424a9.539,9.539,0,0,0-1.311,3.388c-.083.485,0,.605,0,.606a4.509,4.509,0,0,0,1.894-1.141Z" transform="translate(-585.18 -422.495)" fill="#263238"/></g><path d="M599.932,418.009a.435.435,0,0,1-.42-.325l-.53-2.039a.435.435,0,1,1,.842-.219l.53,2.039a.436.436,0,0,1-.312.531A.476.476,0,0,1,599.932,418.009Z" transform="translate(-586.99 -412.702)" fill="#263238"/></g><g transform="translate(89.881 95.439)"><path d="M708.15,442.976l12.328-58.44a5.012,5.012,0,0,0-4.924-5.944h-9.171a5.013,5.013,0,0,0-4.8,3.582l-14.016,60.8Z" transform="translate(-687.128 -378.158)" fill="#263238"/><path d="M708.084,443.345H687.5a.434.434,0,0,1-.424-.532l14.016-60.8a5.488,5.488,0,0,1,5.228-3.919h9.171a5.445,5.445,0,0,1,5.351,6.459L708.509,443A.434.434,0,0,1,708.084,443.345Zm-20.041-.869h19.689l12.255-58.1a4.578,4.578,0,0,0-4.5-5.421h-9.171a4.606,4.606,0,0,0-4.388,3.271Z" transform="translate(-687.062 -378.092)" fill="#263238"/></g></g><g transform="translate(16.74 186.568)"><g transform="translate(0 134.624)"><path d="M61.75,342.044s-17.673,27.543-17.673,39.248,5.049,25.248,5.049,25.248l-1.377,31.444h66.562s-7.345-35.117-8.952-46.593-3.673-22.493-3.673-22.493l.7-23.023Z" transform="translate(-43.642 -341.611)" fill="#263238"/><path d="M114.244,438.354H47.683a.435.435,0,0,1-.434-.453l1.373-31.358c-.424-1.167-5.046-14.145-5.046-25.315,0-11.7,17.018-38.355,17.743-39.485a.449.449,0,0,1,.406-.2l40.637,3.832a.435.435,0,0,1,.394.447l-.7,22.975c.149.8,2.13,11.488,3.667,22.467,1.586,11.33,8.873,46.213,8.946,46.564a.438.438,0,0,1-.089.363A.433.433,0,0,1,114.244,438.354Zm-66.108-.869h65.575c-.921-4.422-7.365-35.5-8.847-46.1-1.587-11.335-3.648-22.364-3.669-22.474a.483.483,0,0,1-.007-.094l.686-22.614-39.966-3.769c-1.672,2.644-17.463,27.9-17.463,38.792,0,11.49,4.972,24.961,5.023,25.1a.442.442,0,0,1,.027.171Z" transform="translate(-43.576 -341.545)" fill="#263238"/><path d="M70.515,444.534a.435.435,0,0,1-.42-.322l-6.631-24.922L49.758,403.3a.434.434,0,1,1,.659-.565L64.189,418.8a.42.42,0,0,1,.09.17l6.657,25.019a.434.434,0,0,1-.308.532A.415.415,0,0,1,70.515,444.534Z" transform="translate(-44.374 -349.561)" fill="#fff"/></g><g transform="translate(8.705 55.491)"><path d="M59.779,252.747S53.934,267.11,54.1,277.131s8.183,45.76,8.351,47.431-2.172,5.511-1.169,7.348,10.355,6.513,24.383,5.845,17.2-1.67,18.037-3.841a24.121,24.121,0,0,0,1.67-9.019c-.168-3.173-.334-34.237-1.67-39.414s-14.028-21.044-14.028-21.044l-22.213-12.86S61.615,249.574,59.779,252.747Z" transform="translate(-53.663 -250.514)" fill="#fff"/><path d="M82.957,338.185c-12.4,0-21.045-4.158-22.123-6.134-.691-1.267-.054-3.2.508-4.91a8.258,8.258,0,0,0,.61-2.6c-.037-.368-.527-2.727-1.206-5.99-2.278-10.96-7.018-33.766-7.147-41.475-.167-9.994,5.652-24.411,5.711-24.555a.436.436,0,0,1,.026-.054c1.993-3.444,7.947-1.449,8.2-1.362L89.825,264a.439.439,0,0,1,.122.1c.52.651,12.766,16,14.111,21.205,1.04,4.033,1.374,23.222,1.553,33.531.053,3.046.091,5.245.129,5.97a24.53,24.53,0,0,1-1.7,9.2c-.9,2.328-3.654,3.416-18.421,4.118Q84.263,338.187,82.957,338.185ZM60.1,252.872c-.289.722-5.795,14.579-5.635,24.184.127,7.627,4.856,30.379,7.128,41.314.8,3.827,1.18,5.684,1.22,6.081a8.357,8.357,0,0,1-.649,2.962c-.506,1.539-1.081,3.285-.571,4.222.837,1.535,9.952,6.284,23.982,5.619,14.1-.672,16.93-1.683,17.651-3.564a23.579,23.579,0,0,0,1.642-8.839c-.038-.74-.077-2.947-.13-6-.178-10.272-.511-29.394-1.526-33.328-1.255-4.865-13.021-19.715-13.9-20.816L67.178,251.887h0C67.151,251.887,61.75,250.1,60.1,252.872Z" transform="translate(-53.597 -250.448)" fill="#263238"/></g><g transform="translate(41.275 11.862)"><path d="M114.972,200.724s8.184,7.015,7.516,12.359-3.674,3.674-7.182,13.862-6.179,14.529-4.342,19.707,3.674,6.18,3.674,6.18-3.508,4.342-11.357,1.836-11.691-5.845-11.691-7.683,2.505-3.172,2.505-3.172,4.676,2.338,6.68,1a24.61,24.61,0,0,0,9.352-11.189c3.006-6.848,5.512-16.2,5.177-17.7s-6.346-11.858-6.346-11.858Z" transform="translate(-91.157 -200.289)" fill="#263238"/><path d="M107.878,255.823a15.748,15.748,0,0,1-4.794-.806c-7.874-2.513-11.993-5.975-11.993-8.1,0-2.074,2.623-3.5,2.735-3.556a.436.436,0,0,1,.4-.005c1.239.619,4.774,2.012,6.246,1.03a24.3,24.3,0,0,0,9.195-11c2.973-6.769,5.454-16.077,5.152-17.434-.235-1.055-3.9-7.595-6.3-11.734a.435.435,0,0,1,.165-.6l6.012-3.34a.432.432,0,0,1,.493.05c.341.292,8.353,7.229,7.663,12.742a8.243,8.243,0,0,1-2.362,5.029c-1.261,1.5-2.989,3.547-4.839,8.92-.767,2.229-1.5,4.187-2.142,5.915-2.312,6.2-3.584,9.608-2.2,13.506,1.735,4.89,3.461,5.937,3.478,5.946a.44.44,0,0,1,.125.652C114.794,253.184,112.591,255.823,107.878,255.823ZM94.051,244.238c-.543.333-2.091,1.4-2.091,2.682,0,1.51,3.533,4.762,11.388,7.269,6.265,2,9.6-.448,10.58-1.374-.687-.618-2.077-2.245-3.438-6.083-1.489-4.2-.1-7.924,2.206-14.1.643-1.723,1.372-3.676,2.135-5.894,1.9-5.527,3.69-7.649,5-9.2a7.368,7.368,0,0,0,2.165-4.577c.571-4.566-5.847-10.608-7.142-11.776l-5.356,2.976c1.2,2.073,5.859,10.19,6.173,11.6.373,1.678-2.256,11.257-5.2,17.972a25.135,25.135,0,0,1-9.509,11.377C99,246.411,95.027,244.695,94.051,244.238Z" transform="translate(-91.091 -200.224)" fill="#263238"/></g><g transform="translate(24.24 42.759)"><path d="M93.024,248.316a17.6,17.6,0,0,0-2.505,4.676,20.8,20.8,0,0,0-1.5,5.512L71.981,247.816l5.511-11.524Z" transform="translate(-71.546 -235.858)" fill="#fff"/><path d="M88.95,258.873a.432.432,0,0,1-.231-.066L71.684,248.118a.435.435,0,0,1-.162-.555l5.512-11.524a.437.437,0,0,1,.658-.156l15.531,12.025a.435.435,0,0,1,.062.628,17.611,17.611,0,0,0-2.429,4.553,20.668,20.668,0,0,0-1.473,5.384.437.437,0,0,1-.238.354A.431.431,0,0,1,88.95,258.873ZM72.474,247.588l16.134,10.124a24.1,24.1,0,0,1,1.442-4.945,21.114,21.114,0,0,1,2.3-4.436L77.586,236.9Z" transform="translate(-71.48 -235.792)" fill="#263238"/></g><g transform="translate(22.07 52.279)"><path d="M75.494,247.251l17.87,12.025-.835,6.847L69.481,251.092Z" transform="translate(-69.048 -246.817)" fill="#fff"/><path d="M92.463,266.492a.437.437,0,0,1-.237-.07L69.179,251.391a.435.435,0,0,1,0-.73l6.012-3.842a.439.439,0,0,1,.477.005l17.87,12.025a.435.435,0,0,1,.188.413l-.835,6.848a.435.435,0,0,1-.431.382ZM70.217,251.03l21.9,14.282.718-5.89L75.421,247.7Z" transform="translate(-68.982 -246.751)" fill="#263238"/></g><g transform="translate(4.937)"><g transform="translate(24.982 14.034)"><path d="M107.744,203.224s8.183,12.525,8.016,14.863-3.006,10.355-3.841,14.029-4.843,8.184-8.351,11.691-4.843,4.676-6.847,4.676-6.514-2.839-9.353-4.843-8.852-10.021-8.852-10.021,4.509-19.206,7.349-22.712S107.744,203.224,107.744,203.224Z" transform="translate(-78.083 -202.789)" fill="#fff"/><path d="M96.655,248.851c-2.371,0-7.505-3.443-9.6-4.922-2.862-2.021-8.7-9.786-8.948-10.116a.433.433,0,0,1-.076-.36c.185-.788,4.565-19.343,7.433-22.887,2.9-3.584,21.34-7.662,22.123-7.834a.437.437,0,0,1,.456.187c.846,1.294,8.258,12.718,8.086,15.132A54.842,54.842,0,0,1,114.033,226c-.693,2.272-1.409,4.62-1.756,6.147-.681,2.992-3.45,6.884-8.467,11.9C100.18,247.679,98.824,248.851,96.655,248.851Zm-17.733-15.4c.866,1.143,6.1,7.978,8.632,9.764,3.263,2.3,7.367,4.764,9.1,4.764,1.837,0,3.1-1.111,6.541-4.549,4.9-4.9,7.59-8.652,8.233-11.48.354-1.557,1.043-3.816,1.772-6.208a56.627,56.627,0,0,0,2.06-7.756c.113-1.581-4.53-9.344-7.782-14.343-2.4.543-18.816,4.347-21.342,7.465C83.545,214.316,79.41,231.413,78.922,233.455Z" transform="translate(-78.018 -202.724)" fill="#263238"/></g><path d="M110.981,198.6s-3.841,3.507-12.359,7.515-14.529,6.347-16.534,12.359-5.344,19.206-4.844,22.045a5.336,5.336,0,0,0,2.505,3.841s-1.67,3.173-10.856,4.008-17.7-3.507-18.871-11.356,1.67-16.7,4.676-21.878,8.016-10.855,11.691-17.369,15.7-12.525,27.389-10.187S112.818,195.422,110.981,198.6Z" transform="translate(-49.324 -186.633)" fill="#263238"/><path d="M66.5,248.842c-8.943,0-15.914-4.741-16.97-11.834-1.148-7.705,1.549-16.682,4.73-22.161,1.388-2.39,3.189-4.871,5.095-7.5a103.61,103.61,0,0,0,6.593-9.866c3.83-6.788,16.211-12.729,27.853-10.4,8.692,1.738,15.893,5.456,17.513,9.043a2.78,2.78,0,0,1-.021,2.623.4.4,0,0,1-.083.1c-.158.145-3.987,3.6-12.466,7.588q-1.066.5-2.078.97c-7.228,3.366-12.451,5.8-14.229,11.133-2.189,6.568-5.288,19.226-4.827,21.832a4.884,4.884,0,0,0,2.273,3.529.435.435,0,0,1,.217.256.439.439,0,0,1-.029.334c-.073.137-1.888,3.39-11.2,4.238C68.067,248.806,67.274,248.842,66.5,248.842Zm21.967-61.409c-9.564,0-18.64,4.942-21.762,10.477a104.535,104.535,0,0,1-6.648,9.951c-1.893,2.608-3.681,5.071-5.045,7.423-3.106,5.348-5.739,14.1-4.623,21.6,1.078,7.239,8.826,11.861,18.4,10.989,7.032-.64,9.54-2.674,10.263-3.464a5.984,5.984,0,0,1-2.3-3.878c-.52-2.952,2.841-16.2,4.859-22.258,1.9-5.689,7.26-8.186,14.686-11.645q1.01-.47,2.074-.969c7.831-3.685,11.718-6.977,12.2-7.4a1.953,1.953,0,0,0-.051-1.773c-1.276-2.825-7.488-6.668-16.892-8.549A26.33,26.33,0,0,0,88.466,187.432Zm22.45,11.1h0Z" transform="translate(-49.259 -186.568)" fill="#263238"/><path d="M101.526,223.827c-.189.986-.916,1.676-1.625,1.54s-1.13-1.045-.942-2.031.916-1.677,1.624-1.541S101.714,222.84,101.526,223.827Z" transform="translate(-55.78 -191.192)" fill="#263238"/><path d="M114.983,226.326c-.188.986-.916,1.676-1.624,1.54s-1.13-1.044-.942-2.031.916-1.676,1.624-1.54S115.173,225.34,114.983,226.326Z" transform="translate(-57.547 -191.521)" fill="#263238"/><path d="M97.1,217.925a.434.434,0,0,1-.374-.655c.024-.041,2.453-4,8.1-.826a.434.434,0,0,1-.426.757c-4.916-2.766-6.848.375-6.929.51A.434.434,0,0,1,97.1,217.925Z" transform="translate(-55.485 -190.33)" fill="#263238"/><path d="M109.6,227.692h-.034a.435.435,0,0,1-.4-.466,12.351,12.351,0,0,1,3.475-7.464.434.434,0,0,1,.6.631,11.686,11.686,0,0,0-3.205,6.9A.434.434,0,0,1,109.6,227.692Z" transform="translate(-57.126 -190.912)" fill="#263238"/><path d="M118.512,221.532a.435.435,0,0,1-.427-.353c-.178-.938-.513-1.515-1-1.715a2.089,2.089,0,0,0-1.672.322.435.435,0,0,1-.492-.718,2.943,2.943,0,0,1,2.491-.409,2.89,2.89,0,0,1,1.522,2.356.435.435,0,0,1-.427.516Z" transform="translate(-57.858 -190.763)" fill="#263238"/><path d="M104.743,237.929a4.483,4.483,0,0,1-1.862-.372.434.434,0,1,1,.36-.79,5.543,5.543,0,0,0,3.824-.171.434.434,0,0,1,.342.8A7.462,7.462,0,0,1,104.743,237.929Z" transform="translate(-56.267 -193.134)" fill="#263238"/><path d="M100.78,241.52a.441.441,0,0,1-.132-.021c-4.314-1.381-6.361-6.056-6.446-6.255a.434.434,0,0,1,.8-.342c.019.045,1.981,4.512,5.912,5.77a.435.435,0,0,1-.133.849Z" transform="translate(-55.156 -192.881)" fill="#263238"/></g><g transform="translate(101.679 50.696)"><path d="M161.127,270.827s1.607-3.9,1.607-5.967,0-5.738.688-6.657,2.3-2.066,3.213-4.131.46-3.672,2.066-2.984.46,3.9.46,3.9l5.508-4.82s4.131-5.738,5.509-4.59-.46,4.131-1.836,5.508a15.676,15.676,0,0,0-2.525,4.362,8.9,8.9,0,0,1,3.443,3.443c.918,2.066,1.606,4.361.229,6.886s-4.82,4.819-7.115,5.738a12.789,12.789,0,0,0-4.131,2.984Z" transform="translate(-160.693 -244.994)" fill="#fff"/><path d="M168.177,274.87a.443.443,0,0,1-.2-.049l-7.114-3.673a.433.433,0,0,1-.2-.551c.016-.038,1.574-3.847,1.574-5.8,0-2.977.06-5.963.775-6.916a10.455,10.455,0,0,1,.875-.964,10.425,10.425,0,0,0,2.289-3.084,9.78,9.78,0,0,0,.552-1.731c.182-.738.324-1.32.822-1.569a1.53,1.53,0,0,1,1.26.093c1.179.506,1.211,1.959,1.038,3.07l4.435-3.882c.462-.637,3.432-4.645,5.218-4.872a1.133,1.133,0,0,1,.892.242,1.831,1.831,0,0,1,.641,1.368c.075,1.637-1.424,3.756-2.449,4.781a13.985,13.985,0,0,0-2.288,3.872,8.812,8.812,0,0,1,3.3,3.449c.975,2.193,1.675,4.591.214,7.27-1.536,2.815-5.228,5.09-7.336,5.933a12.461,12.461,0,0,0-3.968,2.87A.434.434,0,0,1,168.177,274.87Zm-6.566-4.312,6.474,3.341a12.836,12.836,0,0,1,4.062-2.851c2.4-.96,5.633-3.229,6.9-5.543,1.28-2.348.639-4.512-.245-6.5a8.517,8.517,0,0,0-3.255-3.238.435.435,0,0,1-.2-.537,15.871,15.871,0,0,1,2.623-4.512c1.121-1.121,2.248-2.971,2.2-4.128a.96.96,0,0,0-.33-.74.255.255,0,0,0-.227-.046c-1.1.139-3.436,2.868-4.651,4.557a.439.439,0,0,1-.066.073l-5.509,4.82a.434.434,0,0,1-.695-.473c.261-.735.781-2.928-.221-3.357-.389-.167-.51-.126-.531-.115-.137.069-.259.563-.366,1a10.643,10.643,0,0,1-.6,1.877,11.171,11.171,0,0,1-2.462,3.339,10.134,10.134,0,0,0-.8.876c-.6.8-.6,4.722-.6,6.4A20.535,20.535,0,0,1,161.61,270.557Z" transform="translate(-160.627 -244.928)" fill="#263238"/><path d="M166.346,260.707a.434.434,0,0,1-.326-.722l3.443-3.9a.435.435,0,1,1,.652.576l-3.443,3.9A.437.437,0,0,1,166.346,260.707Z" transform="translate(-161.321 -246.374)" fill="#263238"/></g><g transform="translate(17.215 66.08)"><g transform="translate(0.902)"><path d="M67.241,267.645s-4.131,18.591-1.377,22.264,45.216,31.674,47.971,29.838,22.723-15.149,30.526-24.789a79.984,79.984,0,0,0,11.247-18.133l-8.034-5.279s-14.23,12.165-20.657,16.984a72.229,72.229,0,0,1-9.181,6.2s-21.116-19.509-26.395-24.1-10.559-8.263-16.756-7.345" transform="translate(-64.495 -262.704)" fill="#fff"/><path d="M113.47,320.163c-6.062,0-45.946-27.3-48.017-30.06-2.841-3.788,1.13-21.852,1.3-22.619a.435.435,0,0,1,.849.188c-1.137,5.117-3.615,19.028-1.454,21.909,1.268,1.691,11.89,9.207,23.676,16.753,14.923,9.555,22.76,13.425,23.712,12.981,5.321-3.549,23.23-15.81,30.424-24.7A82.153,82.153,0,0,0,155,276.924l-7.458-4.9c-1.927,1.643-14.531,12.366-20.43,16.791a72.208,72.208,0,0,1-9.247,6.238.436.436,0,0,1-.489-.069c-.211-.2-21.172-19.558-26.386-24.092-5.705-4.961-10.683-8.087-16.406-7.243a.434.434,0,1,1-.128-.859c6.056-.9,11.217,2.328,17.1,7.447,4.929,4.286,23.878,21.776,26.178,23.9a83.107,83.107,0,0,0,8.853-6.016c6.342-4.757,20.494-16.845,20.636-16.966a.432.432,0,0,1,.52-.034l8.033,5.28a.432.432,0,0,1,.164.526,81.236,81.236,0,0,1-11.311,18.242c-7.074,8.738-23.766,20.3-30.614,24.871A1,1,0,0,1,113.47,320.163Z" transform="translate(-64.431 -262.638)" fill="#263238"/></g><path d="M78.653,306.331a136.959,136.959,0,0,1-14.884-1.178.433.433,0,0,1-.372-.488.427.427,0,0,1,.489-.372c.1.014,10.138,1.38,16.221,1.143a.451.451,0,0,1,.451.419.435.435,0,0,1-.418.45C79.666,306.322,79.167,306.331,78.653,306.331Z" transform="translate(-63.393 -268.108)" fill="#263238"/><path d="M70.7,312.931a.434.434,0,0,1-.091-.858c5.2-1.129,10.239-2.727,10.289-2.743a.434.434,0,1,1,.262.828c-.05.016-5.129,1.626-10.368,2.764A.425.425,0,0,1,70.7,312.931Z" transform="translate(-64.295 -268.767)" fill="#263238"/><path d="M162.718,285.655a.435.435,0,0,1-.272-.1l-8.263-6.656a.435.435,0,0,1,.545-.678l8.263,6.656a.435.435,0,0,1-.273.773Z" transform="translate(-75.295 -264.673)" fill="#263238"/><g transform="translate(49.118 31.59)"><line x1="4.59" y2="3.443" transform="translate(0.434 0.435)" fill="#fff"/><path d="M120.371,303.316a.435.435,0,0,1-.261-.783l4.591-3.443a.434.434,0,0,1,.52.7l-4.591,3.443A.431.431,0,0,1,120.371,303.316Z" transform="translate(-119.937 -299.004)" fill="#263238"/></g></g></g><g transform="translate(35.689 365.725)"><g transform="translate(0 48.649)"><rect width="77.533" height="2.523" transform="translate(0.434 0.434)" fill="#e0e0e0"/><path d="M143.357,452.205H65.824a.434.434,0,0,1-.434-.434v-2.523a.433.433,0,0,1,.434-.434h77.533a.433.433,0,0,1,.434.434v2.523A.434.434,0,0,1,143.357,452.205Zm-77.1-.869h76.664v-1.654H66.259Z" transform="translate(-65.39 -448.814)" fill="#263238"/></g><g transform="translate(54.513)"><path d="M217.819,393.31H140.286l-11.641,51.172h77.533Z" transform="translate(-128.21 -392.876)" fill="#bfbfbf"/><path d="M206.113,444.851H128.579a.436.436,0,0,1-.424-.532L139.8,393.147a.434.434,0,0,1,.424-.337h77.533a.435.435,0,0,1,.424.531l-11.641,51.172A.434.434,0,0,1,206.113,444.851Zm-76.99-.869h76.643l11.443-50.3H140.566Z" transform="translate(-128.144 -392.81)" fill="#263238"/></g></g><g transform="translate(16.74 417.133)"><path d="M640.338,452.858H17.174a.434.434,0,0,1,0-.869H640.338a.434.434,0,0,1,0,.869Z" transform="translate(-16.74 -451.989)" fill="#263238"/></g><g transform="translate(449.735 386.331)"><g transform="translate(22.264 3.36)"><path d="M547.006,443.182h-5.682v-4.343h5.682a3.534,3.534,0,0,0,3.53-3.529v-6.535a3.534,3.534,0,0,0-3.53-3.53h-5.337V420.9h5.337a7.883,7.883,0,0,1,7.874,7.874v6.535A7.882,7.882,0,0,1,547.006,443.182Z" transform="translate(-540.89 -420.465)" fill="#92e3a9"/><path d="M546.94,443.55h-5.682a.434.434,0,0,1-.434-.434v-4.343a.434.434,0,0,1,.434-.434h5.682a3.1,3.1,0,0,0,3.1-3.1v-6.534a3.1,3.1,0,0,0-3.1-3.1H541.6a.433.433,0,0,1-.434-.434v-4.343a.434.434,0,0,1,.434-.434h5.337a8.318,8.318,0,0,1,8.308,8.309v6.534A8.317,8.317,0,0,1,546.94,443.55Zm-5.248-.869h5.248a7.448,7.448,0,0,0,7.439-7.439v-6.534a7.448,7.448,0,0,0-7.439-7.44h-4.9v3.475h4.9a3.969,3.969,0,0,1,3.965,3.966v6.534a3.969,3.969,0,0,1-3.965,3.965h-5.248Z" transform="translate(-540.824 -420.399)" fill="#263238"/></g><rect width="24.753" height="30.815" transform="translate(0.435 0.434)" fill="#92e3a9"/><path d="M540.382,448.214H515.628a.435.435,0,0,1-.434-.434V416.965a.435.435,0,0,1,.434-.434h24.754a.435.435,0,0,1,.434.434V447.78A.435.435,0,0,1,540.382,448.214Zm-24.319-.869h23.885V417.4H516.063Z" transform="translate(-515.194 -416.531)" fill="#263238"/></g><g transform="translate(260.835 386.331)"><g transform="translate(22.263 3.36)"><path d="M329.548,443.182h-5.682v-4.343h5.682a3.534,3.534,0,0,0,3.53-3.529v-6.535a3.534,3.534,0,0,0-3.53-3.53h-5.337V420.9h5.337a7.883,7.883,0,0,1,7.874,7.874v6.535A7.882,7.882,0,0,1,329.548,443.182Z" transform="translate(-323.432 -420.465)" fill="#263238"/><path d="M329.482,443.55H323.8a.434.434,0,0,1-.434-.434v-4.343a.433.433,0,0,1,.434-.434h5.682a3.1,3.1,0,0,0,3.1-3.1v-6.534a3.1,3.1,0,0,0-3.1-3.1h-5.337a.433.433,0,0,1-.434-.434v-4.343a.434.434,0,0,1,.434-.434h5.337a8.318,8.318,0,0,1,8.308,8.309v6.534A8.318,8.318,0,0,1,329.482,443.55Zm-5.248-.869h5.248a7.448,7.448,0,0,0,7.439-7.439v-6.534a7.448,7.448,0,0,0-7.439-7.44h-4.9v3.475h4.9a3.97,3.97,0,0,1,3.965,3.966v6.534a3.969,3.969,0,0,1-3.965,3.965h-5.248Z" transform="translate(-323.366 -420.399)" fill="#263238"/></g><rect width="24.753" height="30.815" transform="translate(0.434 0.434)" fill="#263238"/><path d="M322.924,448.214H298.171a.434.434,0,0,1-.434-.434V416.965a.434.434,0,0,1,.434-.434h24.753a.434.434,0,0,1,.434.434V447.78A.434.434,0,0,1,322.924,448.214Zm-24.319-.869H322.49V417.4H298.606Z" transform="translate(-297.737 -416.531)" fill="#263238"/></g></g></svg>