<svg xmlns="http://www.w3.org/2000/svg" xmlns:xlink="http://www.w3.org/1999/xlink" width="142" height="142" viewBox="0 0 142 142"><defs><filter id="a" x="0" y="0" width="142" height="142" filterUnits="userSpaceOnUse"><feOffset dy="3" input="SourceAlpha"/><feGaussianBlur stdDeviation="3" result="b"/><feFlood flood-opacity="0.161"/><feComposite operator="in" in2="b"/><feComposite in="SourceGraphic"/></filter></defs><g transform="translate(-257 -3251.48)"><g transform="matrix(1, 0, 0, 1, 257, 3251.48)" filter="url(#a)"><path d="M62,0A62,62,0,1,1,0,62,62,62,0,0,1,62,0Z" transform="translate(9 6)" fill="#fcd03e"/></g><g transform="translate(275 3257)"><g transform="translate(1.691 1.691)"><g transform="translate(74.4 84.545)"><path d="M47.015,58.764,47.691,52H64.6l1.691,16.909H46Z" transform="translate(-46 -52)" fill="#ff826e"/></g><g transform="translate(0 37.2)"><path d="M64.8,43.429a1.949,1.949,0,0,1,1.454,1.86V61.2H60.488a1.949,1.949,0,0,0-1.86,1.454.062.062,0,0,1-.017.051,1.946,1.946,0,0,0,.879,2.215l4.988,2.875-5.073,8.793L54.4,73.7a1.925,1.925,0,0,0-2.35.338l-.017.017A1.925,1.925,0,0,0,51.7,76.4l2.891,5.005-8.793,5.073L42.92,81.491a1.946,1.946,0,0,0-2.215-.879.062.062,0,0,1-.051.017,1.949,1.949,0,0,0-1.454,1.86v5.766H29.055V82.488a1.949,1.949,0,0,0-1.454-1.86.062.062,0,0,1-.051-.017,1.946,1.946,0,0,0-2.215.879L22.46,86.479l-8.793-5.073L16.559,76.4a1.925,1.925,0,0,0-.338-2.35l-.017-.017a1.925,1.925,0,0,0-2.35-.338L8.848,76.587,3.775,67.794,8.764,64.92A1.946,1.946,0,0,0,9.643,62.7a.062.062,0,0,1-.017-.051A1.949,1.949,0,0,0,7.766,61.2H2V51.055H7.766A1.949,1.949,0,0,0,9.626,49.6a.062.062,0,0,1,.017-.051,1.946,1.946,0,0,0-.879-2.215L3.775,44.46l5.073-8.793,5.005,2.891a1.925,1.925,0,0,0,2.35-.338l.017-.017a1.925,1.925,0,0,0,.338-2.35l-2.891-5.005,8.793-5.073,2.875,4.988a1.946,1.946,0,0,0,2.215.879.062.062,0,0,1,.051-.017,1.949,1.949,0,0,0,1.454-1.86V24H44.966a1.949,1.949,0,0,1,1.86,1.454.062.062,0,0,0,.017.051,1.946,1.946,0,0,1-.879,2.215l-4.988,2.875,5.073,8.793L51.053,36.5a1.925,1.925,0,0,1,2.35.338l.017.017a1.925,1.925,0,0,1,.338,2.35l-2.891,5.005,8.793,5.073,2.875-4.988a1.946,1.946,0,0,1,2.215-.879.062.062,0,0,0,.051.017Zm-12.073,12.7A18.6,18.6,0,1,0,45.659,70.72,18.589,18.589,0,0,0,52.727,56.127Z" transform="translate(-2 -24)" fill="#ccc"/></g><g transform="translate(37.2)"><path d="M74.051,52.034l-.017.017A1.925,1.925,0,0,0,73.7,54.4l.981,1.708a3.392,3.392,0,0,0-3.331,3.382V49.345a3.306,3.306,0,0,0-1-2.384,4.433,4.433,0,0,0-.423-.372A18.518,18.518,0,1,0,64.582,50.7V67.945a5.08,5.08,0,0,0-5.073-5.073,1.7,1.7,0,0,0-1.691,1.691v1.691H51.055V60.488a1.949,1.949,0,0,0-1.454-1.86.062.062,0,0,1-.051-.017,1.946,1.946,0,0,0-2.215.879L44.46,64.479l-8.793-5.073L38.559,54.4a1.925,1.925,0,0,0-.338-2.35l-.017-.017a1.925,1.925,0,0,0-2.35-.338l-5.005,2.891-5.073-8.793,4.988-2.875a1.946,1.946,0,0,0,.879-2.215.062.062,0,0,1-.017-.051,1.949,1.949,0,0,0-1.86-1.454H24V29.055h5.766a1.949,1.949,0,0,0,1.86-1.454.062.062,0,0,1,.017-.051,1.946,1.946,0,0,0-.879-2.215L25.775,22.46l5.073-8.793,5.005,2.891a1.925,1.925,0,0,0,2.35-.338l.017-.017a1.925,1.925,0,0,0,.338-2.35L35.667,8.848,44.46,3.775l2.875,4.988a1.946,1.946,0,0,0,2.215.879.062.062,0,0,1,.051-.017,1.949,1.949,0,0,0,1.454-1.86V2H61.2V7.766a1.949,1.949,0,0,0,1.454,1.86.062.062,0,0,1,.051.017,1.946,1.946,0,0,0,2.215-.879l2.875-4.988,8.793,5.073L73.7,13.853a1.925,1.925,0,0,0,.338,2.35l.017.017a1.925,1.925,0,0,0,2.35.338l5.005-2.891,5.073,8.793-4.988,2.875a1.946,1.946,0,0,0-.879,2.215.062.062,0,0,1,.017.051,1.949,1.949,0,0,0,1.86,1.454h5.766V39.2H82.488a1.949,1.949,0,0,0-1.86,1.454.062.062,0,0,1-.017.051,1.946,1.946,0,0,0,.879,2.215l4.988,2.875-5.073,8.793L76.4,51.7a1.925,1.925,0,0,0-2.35.338Z" transform="translate(-24 -2)" fill="#b4dd7f"/></g><g transform="translate(57.761 38.891)"><path d="M44.344,25l1.15,3.466a2.354,2.354,0,0,0,4.464,0L51.108,25a8.029,8.029,0,0,1,3.179.643,8.9,8.9,0,0,1,1.133.575,8.307,8.307,0,0,1,3.027,3.314l.321.643a3.372,3.372,0,0,0-2.587,3.28v1.353A18.594,18.594,0,0,1,36.16,32.8l1.234-3.077a7.382,7.382,0,0,1,2.756-3.433c.152-.1.3-.186.457-.287A7.665,7.665,0,0,1,44.344,25Z" transform="translate(-36.16 -25)" fill="#ff826e"/></g><g transform="translate(60.873 20.291)"><path d="M54.909,22.455v6.358a6.067,6.067,0,0,1-1.894,4.43,8.029,8.029,0,0,0-3.179-.643l-1.285-3.838a5.049,5.049,0,0,0,2.976-4.616V22.455l-5.073-3.382-5.073,3.382v1.691a5.079,5.079,0,0,0,2.976,4.616L43.073,32.6a7.665,7.665,0,0,0-3.737,1l-.3-.609A9.935,9.935,0,0,1,38,28.593V22.455a8.455,8.455,0,0,1,16.909,0Z" transform="translate(-38 -14)" fill="#fcd770"/></g><g transform="translate(23.673 57.491)"><path d="M32.03,44.066l-2.5,3.771V44.455l-5.073-3.382-5.073,3.382v3.382l-2.5-3.771A5.186,5.186,0,0,1,21.191,36h6.527a5.181,5.181,0,0,1,5.191,5.191A5.1,5.1,0,0,1,32.03,44.066Z" transform="translate(-16 -36)" fill="#656d78"/></g><g transform="translate(20.595 77.782)"><path d="M36.432,52.532A8.177,8.177,0,0,0,29.094,48l-3.382,3.382L22.33,48a8.177,8.177,0,0,0-7.339,4.532l-.812,1.606a18.6,18.6,0,0,0,23.064,0Z" transform="translate(-14.18 -48)" fill="#75b1f2"/></g><g transform="translate(28.745 73.943)"><path d="M25.764,49.568,22.382,52.95,19,49.568l1.285-3.838,2.1.457a5.131,5.131,0,0,0,2.1-.457Z" transform="translate(-19 -45.73)" fill="#f0d0b4"/></g><g transform="translate(27.055 62.564)"><path d="M25.169,50.38a5.131,5.131,0,0,1-2.1.457l-2.1-.457A5.079,5.079,0,0,1,18,45.764V42.382L23.073,39l5.073,3.382v3.382a5.049,5.049,0,0,1-2.976,4.616Z" transform="translate(-18 -39)" fill="#f0d0b4"/></g><g transform="translate(65.945 35.052)"><path d="M47.764,26.568l-1.15,3.466a2.354,2.354,0,0,1-4.464,0L41,26.568l1.285-3.838,2.1.457a5.131,5.131,0,0,0,2.1-.457Z" transform="translate(-41 -22.73)" fill="#f0d0b4"/></g><g transform="translate(64.254 25.364)"><path d="M47.169,26.689a5.131,5.131,0,0,1-2.1.457l-2.1-.457A5.079,5.079,0,0,1,40,22.073V20.382L45.073,17l5.073,3.382v1.691a5.049,5.049,0,0,1-2.976,4.616Z" transform="translate(-40 -17)" fill="#f0d0b4"/></g><g transform="translate(71.018 43.964)"><path d="M60.858,38.145h.051a3.406,3.406,0,0,1,3.382,3.382v3.382a3.406,3.406,0,0,1,3.382-3.382,3.392,3.392,0,0,1,3.382,3.382V56.34a17.332,17.332,0,0,1-5.073,12.242H49.073A17.332,17.332,0,0,1,44,56.34V46.6a1.7,1.7,0,0,1,1.691-1.691,5.08,5.08,0,0,1,5.073,5.073v-18.6a3.372,3.372,0,0,1,2.587-3.28,3.1,3.1,0,0,1,.795-.1,3.307,3.307,0,0,1,1.961.626A4.433,4.433,0,0,1,56.53,29a3.306,3.306,0,0,1,1,2.384V41.527A3.392,3.392,0,0,1,60.858,38.145Z" transform="translate(-44 -28)" fill="#f0d0b4"/></g></g><g transform="translate(0 0)"><path d="M65.254,60.2H61.176a3.7,3.7,0,0,0-1.84,6.867l3.532,2.041-3.382,5.856-3.553-2.051a3.7,3.7,0,0,0-5.019,5.02l2.051,3.553-5.857,3.382-2.041-3.534A3.7,3.7,0,0,0,38.2,83.176v4.078H31.436V83.176a3.7,3.7,0,0,0-6.868-1.84l-2.039,3.532-5.857-3.382,2.049-3.553A3.695,3.695,0,0,0,13.7,72.916l-3.553,2.051L6.768,69.111,10.3,67.068A3.7,3.7,0,0,0,8.46,60.2H4.382V53.436H8.46A3.7,3.7,0,0,0,10.3,46.57L6.768,44.529l3.382-5.857L13.7,40.722A3.695,3.695,0,0,0,18.721,35.7L16.67,32.151l5.857-3.382L24.568,32.3a3.7,3.7,0,0,0,6.868-1.841V26.382h3.382V23H28.055v7.46c0,.113-.11.194-.262.237a.257.257,0,0,1-.3-.086l-3.73-6.461L12.05,30.913l3.742,6.481c.057.1,0,.223-.1.323a.264.264,0,0,1-.3.074L8.91,34.052,2.146,45.766,8.607,49.5c.1.057.115.189.073.338a.254.254,0,0,1-.22.218H1V63.582H8.46c.113,0,.194.108.237.262a.255.255,0,0,1-.086.294L2.15,67.87,8.913,79.585l6.481-3.742c.1-.057.223-.005.325.1a.26.26,0,0,1,.074.3l-3.742,6.48,11.716,6.764,3.73-6.459c.059-.1.191-.115.338-.076.11.03.22.112.22.225v7.46H41.583v-7.46c0-.112.11-.194.262-.237a.253.253,0,0,1,.3.086l3.73,6.461,11.716-6.764-3.742-6.481c-.057-.1,0-.223.1-.323a.263.263,0,0,1,.3-.076l6.481,3.742L67.492,67.87l-6.463-3.732c-.1-.057-.115-.189-.073-.338a.254.254,0,0,1,.22-.218h7.46V56.818H65.254Z" transform="translate(-1 14.2)"/><path d="M92.849,41.582h7.46V28.055h-7.46c-.113,0-.194-.11-.237-.262a.257.257,0,0,1,.086-.3l6.461-3.73L92.4,12.05l-6.481,3.742c-.1.059-.222,0-.323-.1a.261.261,0,0,1-.074-.3L89.259,8.91,77.543,2.146l-3.73,6.463c-.059.1-.191.115-.34.074-.108-.029-.218-.11-.218-.223V1H59.727V8.46c0,.113-.11.194-.262.237a.258.258,0,0,1-.3-.088l-3.73-6.461L43.723,8.912l3.742,6.481c.057.1,0,.223-.1.323a.263.263,0,0,1-.3.074l-6.481-3.742L33.819,23.765,40.282,27.5c.1.059.115.191.074.34-.029.108-.11.218-.223.218h-7.46V41.582h7.46c.113,0,.194.11.237.262a.257.257,0,0,1-.086.3l-6.461,3.73,4.669,8.086a20.355,20.355,0,1,0,8.862,8.864l8.086,4.669,3.73-6.459c.057-.1.193-.113.338-.076.11.03.22.112.22.225v7.459h6.764v6.354A18.854,18.854,0,0,0,71.5,87.813l-1.8,18.023H93.723l-1.8-18.023a18.854,18.854,0,0,0,5.007-12.822V63.564a5.056,5.056,0,0,0-6.96-4.7,5.07,5.07,0,0,0-3.9-3.656l-.558-.966c-.057-.1,0-.223.1-.325a.253.253,0,0,1,.3-.074l6.481,3.74,6.764-11.715L92.7,42.14c-.1-.059-.115-.191-.074-.34.029-.108.11-.218.223-.218ZM23.114,67.314a3.5,3.5,0,0,1,2.913-5.441h6.525a3.5,3.5,0,0,1,2.912,5.441l-.012.017-6.162-4.109-6.165,4.111Zm7.868,17.24,2.345-2.345A6.469,6.469,0,0,1,38.5,85.767l.159.316a16.792,16.792,0,0,1-7.678,2.758ZM25.909,72.018V69.541l3.382-2.254,3.382,2.254v2.477a3.382,3.382,0,1,1-6.764,0Zm3.382,6.764a6.76,6.76,0,0,0,1-.1l.445,1.336-1.447,1.447-1.447-1.447.445-1.336A6.761,6.761,0,0,0,29.291,78.782Zm-4.036,3.427L27.6,84.554v4.286a16.792,16.792,0,0,1-7.678-2.758l.159-.316a6.464,6.464,0,0,1,5.174-3.558Zm16.06,1.679a9.813,9.813,0,0,0-7.4-5.029l-.506-1.517a6.723,6.723,0,0,0,2.582-4.721l2.286-3.429a6.883,6.883,0,0,0-5.725-10.7H26.027a6.882,6.882,0,0,0-5.725,10.7l2.286,3.431a6.714,6.714,0,0,0,2.582,4.721l-.506,1.517a9.813,9.813,0,0,0-7.4,5.029,16.909,16.909,0,1,1,24.048,0Zm6.152-29.647-2.7,4.68a20.367,20.367,0,0,0-2.377-2.377l4.68-2.7a.286.286,0,0,1,.325.1.261.261,0,0,1,.074.3Zm25.966,48.213.676-6.764H83.4V92.309H74.447l.338-3.382H88.633l1.353,13.527Zm13.35-38.891v8.455h3.382V63.564a1.691,1.691,0,0,1,3.382,0V74.991a15.505,15.505,0,0,1-4.128,10.555H74a15.5,15.5,0,0,1-4.129-10.555V65.254a3.385,3.385,0,0,1,3.382,3.382V75.4h3.382V50.036a1.691,1.691,0,1,1,3.382,0V72.018H83.4V60.182a1.691,1.691,0,0,1,3.382,0ZM79.814,45.212a5.067,5.067,0,0,0-1.307-.23,9.883,9.883,0,0,0-2.947-3.3A7.8,7.8,0,0,0,76.636,37.8V31.436a10.145,10.145,0,0,0-20.291,0v6.136a11.557,11.557,0,0,0,.91,4.434,9.162,9.162,0,0,0-2.672,3.657l-.32.8a16.9,16.9,0,1,1,25.55-1.251ZM60.226,40.369a8.14,8.14,0,0,1-.5-2.8V33.127a6.73,6.73,0,0,0,2.643,5.325l-.507,1.522a9.137,9.137,0,0,0-1.637.4Zm2.883-7.242v-.786l3.382-2.254,3.382,2.254v.786a3.382,3.382,0,1,1-6.764,0Zm3.382-7.105-6.666,4.444a6.731,6.731,0,0,1,13.331,0Zm-1,13.767a5.006,5.006,0,0,0,2.005,0l.6,1.792-.977,2.934a.681.681,0,0,1-1.243,0l-.979-2.934Zm5.629.178-.506-1.515a6.73,6.73,0,0,0,2.643-5.325V37.8a4.448,4.448,0,0,1-.749,2.45A10,10,0,0,0,71.117,39.967Zm-13.4,6.953a5.758,5.758,0,0,1,4.212-3.514l.725,2.18a4.038,4.038,0,0,0,7.661,0l.73-2.193a6.457,6.457,0,0,1,4.165,2.668,5.046,5.046,0,0,0-1.961,3.977v.254a16.765,16.765,0,0,1-16.278-1.5Zm33.287-1.852,3.532,2.039-3.382,5.857-3.553-2.049a3.631,3.631,0,0,0-4.205.463V50.036a5.036,5.036,0,0,0-.861-2.82,20.367,20.367,0,1,0-9.286,6.72v8.877a6.694,6.694,0,0,0-3.382-.94,3.385,3.385,0,0,0-3.382,3.382H63.109V61.176a3.7,3.7,0,0,0-6.868-1.84L54.2,62.869l-5.857-3.382,2.049-3.553a3.695,3.695,0,0,0-5.019-5.019l-3.553,2.051L38.44,47.109l3.532-2.041a3.7,3.7,0,0,0-1.84-6.868H36.055V31.436h4.078a3.7,3.7,0,0,0,1.84-6.868L38.44,22.529l3.382-5.857,3.553,2.049A3.695,3.695,0,0,0,50.393,13.7l-2.051-3.553L54.2,6.768,56.241,10.3a3.7,3.7,0,0,0,6.868-1.84V4.382h6.764V8.46a3.7,3.7,0,0,0,6.868,1.84L78.78,6.768l5.857,3.382L82.588,13.7a3.695,3.695,0,0,0,5.019,5.019l3.553-2.051,3.382,5.857-3.532,2.039a3.7,3.7,0,0,0,1.84,6.868h4.078V38.2H92.849a3.7,3.7,0,0,0-1.84,6.868Z" transform="translate(4.527 -1)"/><path d="M7,7h3.382v3.382H7Z" transform="translate(3.145 3.145)"/><path d="M11,7h3.382v3.382H11Z" transform="translate(5.909 3.145)"/><path d="M15,7h3.382v3.382H15Z" transform="translate(8.673 3.145)"/><path d="M7,11h3.382v3.382H7Z" transform="translate(3.145 5.909)"/><path d="M7,15h3.382v3.382H7Z" transform="translate(3.145 8.673)"/><path d="M11,11h3.382v3.382H11Z" transform="translate(5.909 5.909)"/></g></g></g></svg>