<svg xmlns="http://www.w3.org/2000/svg" xmlns:xlink="http://www.w3.org/1999/xlink" width="144" height="144" viewBox="0 0 144 144"><defs><clipPath id="a"><rect width="104.517" height="104.517" fill="#dbf049"/></clipPath></defs><g transform="translate(-599 -4577)"><g transform="translate(599 4577)"><rect width="144" height="144" fill="none"/><g transform="translate(19.741 19.741)" clip-path="url(#a)"><g transform="translate(0.02)"><g transform="translate(0 0)"><g transform="translate(1.741 1.741)"><path d="M66.17,44.194V13.721A5.224,5.224,0,0,0,60.946,8.5H5.224A5.224,5.224,0,0,0,0,13.721V86.856A5.224,5.224,0,0,0,5.224,92.08H66.17Z" transform="translate(0 1.951)" fill="sienna"/><path d="M50.541,8.5H45.317a5.224,5.224,0,0,1,5.224,5.224V92.08h5.224V13.721A5.224,5.224,0,0,0,50.541,8.5Z" transform="translate(10.405 1.951)" fill="#783e22"/><path d="M57.9,45.749V15.9a1.741,1.741,0,0,0-1.741-1.741H7.406A1.741,1.741,0,0,0,5.665,15.9v66.17a1.741,1.741,0,0,0,1.741,1.741H57.9Z" transform="translate(1.301 3.252)" fill="#ffe0b2"/><path d="M47.708,14.161H42.484A1.741,1.741,0,0,1,44.226,15.9V83.814H49.45V15.9A1.741,1.741,0,0,0,47.708,14.161Z" transform="translate(9.755 3.252)" fill="#dfc49c"/><path d="M11.329,13.931v3.483a1.741,1.741,0,0,0,1.741,1.741H47.9a1.741,1.741,0,0,0,1.741-1.741V13.931a5.224,5.224,0,0,0-5.224-5.224H37.449V6.965a6.965,6.965,0,1,0-13.931,0V8.707H16.553A5.224,5.224,0,0,0,11.329,13.931Z" transform="translate(2.601 0)" fill="#ffdc00"/><path d="M39.211,7.081H33.987A5.224,5.224,0,0,1,39.211,12.3v3.483a1.741,1.741,0,0,1-1.741,1.741h5.224a1.741,1.741,0,0,0,1.741-1.741V12.3A5.224,5.224,0,0,0,39.211,7.081Z" transform="translate(7.804 1.626)" fill="#fec108"/><path d="M29.136,6.965V8.706H34.36V6.965A6.943,6.943,0,0,0,24.783.522a6.965,6.965,0,0,1,4.353,6.443Z" transform="translate(5.69 0.001)" fill="#fec108"/><circle cx="27.861" cy="27.861" r="27.861" transform="translate(45.274 45.274)" fill="#f44335"/><path d="M59.966,36.82c-.881,0-1.752.052-2.612.132a27.851,27.851,0,0,1,0,55.457c.86.08,1.731.132,2.612.132a27.861,27.861,0,0,0,0-55.722Z" transform="translate(13.169 8.454)" fill="#c81e1e"/><circle cx="20.896" cy="20.896" r="20.896" transform="translate(52.239 52.239)" fill="#f5f5f5"/><path d="M59.966,42.484a20.864,20.864,0,0,0-2.612.174,20.877,20.877,0,0,1,0,41.429,20.9,20.9,0,1,0,2.612-41.6Z" transform="translate(13.169 9.755)" fill="#cfd8dc"/><circle cx="13.931" cy="13.931" r="13.931" transform="translate(59.205 59.205)" fill="#f44335"/><path d="M59.966,48.149a13.9,13.9,0,0,0-2.612.254,13.931,13.931,0,0,1,0,27.353,13.931,13.931,0,1,0,2.612-27.607Z" transform="translate(13.169 11.056)" fill="#c81e1e"/><circle cx="6.965" cy="6.965" r="6.965" transform="translate(66.17 66.17)" fill="#607d8b"/><path d="M59.966,53.813a6.9,6.9,0,0,0-2.612.522,6.95,6.95,0,0,1,0,12.886,6.965,6.965,0,1,0,2.612-13.408Z" transform="translate(13.169 12.356)" fill="#37474f"/></g><circle cx="1.741" cy="1.741" r="1.741" transform="translate(33.085 6.965)"/><path d="M103.969,45.784a1.741,1.741,0,0,0-2.462,0l-.632.63a1.733,1.733,0,0,0-3.361.6v2.762l-3,3a29.172,29.172,0,0,0-24.857-7.018V17.413a6.965,6.965,0,0,0-6.965-6.965H53.316a6.906,6.906,0,0,0-4.559-1.741H43.533a8.707,8.707,0,1,0-17.413,0H20.9a6.906,6.906,0,0,0-4.559,1.741H6.965A6.965,6.965,0,0,0,0,17.413V90.548a6.965,6.965,0,0,0,6.965,6.965H55.84c.6.5,1.219.973,1.863,1.428l-1.741,2.9a1.741,1.741,0,1,0,2.988,1.787l1.682-2.814a29.507,29.507,0,0,0,28.474,0l1.682,2.814a1.741,1.741,0,0,0,2.988-1.787l-1.741-2.9a29.475,29.475,0,0,0,4.923-43.7l3.018-3h2.762a1.741,1.741,0,0,0,.6-3.362l.63-.63a1.741,1.741,0,0,0,0-2.462ZM66.17,17.413V46.585a29.079,29.079,0,0,0-3.483,1.346V20.9A3.483,3.483,0,0,0,59.2,17.413H55.722V15.672a6.859,6.859,0,0,0-.247-1.741h7.213a3.483,3.483,0,0,1,3.483,3.483ZM17.413,15.672A3.483,3.483,0,0,1,20.9,12.189H26.12v1.741a1.741,1.741,0,1,0,3.483,0V8.707a5.224,5.224,0,0,1,10.448,0v5.224a1.741,1.741,0,1,0,3.483,0V12.189h5.224a3.483,3.483,0,0,1,3.483,3.483v3.483H17.413Zm34.826,6.965a3.47,3.47,0,0,0,3-1.741H59.2V49.8A29.454,29.454,0,0,0,47.931,87.066H10.448V20.9h3.967a3.47,3.47,0,0,0,3,1.741ZM3.483,90.548V17.413a3.483,3.483,0,0,1,3.483-3.483h7.213a6.859,6.859,0,0,0-.247,1.741v1.741H10.448A3.483,3.483,0,0,0,6.965,20.9v66.17a3.483,3.483,0,0,0,3.483,3.483H49.8a29.582,29.582,0,0,0,2.539,3.483H6.965A3.483,3.483,0,0,1,3.483,90.548ZM101,74.877a26.21,26.21,0,1,1-8.949-19.633l-2.462,2.462a22.705,22.705,0,1,0,2.462,2.462l2.462-2.462A25.982,25.982,0,0,1,101,74.877Zm-13.931,0a12.238,12.238,0,1,1-4.9-9.751L79.67,67.617a8.733,8.733,0,1,0,2.462,2.462l2.5-2.488A12.107,12.107,0,0,1,87.066,74.877Zm-6.965,0a5.224,5.224,0,1,1-5.224-5.224,5.139,5.139,0,0,1,2.238.522l-3.469,3.469a1.741,1.741,0,1,0,2.462,2.462l3.47-3.467A5.139,5.139,0,0,1,80.1,74.877Zm4.547-12.233a15.712,15.712,0,1,0,2.462,2.462l2.478-2.478a19.184,19.184,0,1,1-2.462-2.462Z" transform="translate(0 0)"/><path d="M14.992,30.853a1.741,1.741,0,0,0,1.231.51H16.4a1.741,1.741,0,0,0,1.276-.766l3.483-5.224a1.742,1.742,0,0,0-2.9-1.933l-2.3,3.458-.24-.24a1.741,1.741,0,0,0-2.462,2.462Z" transform="translate(2.931 5.204)"/><path d="M24.4,28.973H47.037a1.741,1.741,0,1,0,0-3.483H24.4a1.741,1.741,0,0,0,0,3.483Z" transform="translate(5.203 5.853)"/><path d="M14.992,42.182a1.741,1.741,0,0,0,1.231.51H16.4a1.741,1.741,0,0,0,1.276-.766L21.157,36.7a1.742,1.742,0,0,0-2.9-1.933l-2.3,3.458-.24-.24a1.741,1.741,0,0,0-2.462,2.462Z" transform="translate(2.931 7.806)"/><path d="M24.4,40.3H47.037a1.741,1.741,0,1,0,0-3.483H24.4a1.741,1.741,0,0,0,0,3.483Z" transform="translate(5.203 8.454)"/><path d="M24.4,62.961H34.847a1.741,1.741,0,0,0,0-3.483H24.4a1.741,1.741,0,0,0,0,3.483Z" transform="translate(5.203 13.657)"/><path d="M14.992,53.513a1.741,1.741,0,0,0,1.231.51,1.19,1.19,0,0,0,.174-.009,1.741,1.741,0,0,0,1.276-.766l3.483-5.224a1.742,1.742,0,0,0-2.9-1.933l-2.3,3.458-.24-.24a1.741,1.741,0,0,0-2.462,2.462Z" transform="translate(2.931 10.405)"/><path d="M14.992,64.842a1.741,1.741,0,0,0,1.231.51,1.19,1.19,0,0,0,.174-.009,1.741,1.741,0,0,0,1.276-.766l3.483-5.224a1.742,1.742,0,1,0-2.9-1.933l-2.3,3.458-.24-.24A1.741,1.741,0,0,0,13.253,63.1Z" transform="translate(2.931 13.007)"/><path d="M24.4,51.632H37.755a1.741,1.741,0,1,0,0-3.483H24.4a1.741,1.741,0,0,0,0,3.483Z" transform="translate(5.203 11.056)"/></g></g></g></g></g></svg>