<svg xmlns="http://www.w3.org/2000/svg" xmlns:xlink="http://www.w3.org/1999/xlink" width="144" height="144" viewBox="0 0 144 144"><defs><clipPath id="a"><rect width="101.385" height="101.385" transform="translate(600 6283)" fill="#dbf049"/></clipPath></defs><g transform="translate(-461 -3046)"><rect width="144" height="144" transform="translate(461 3046)" fill="none"/><g transform="translate(-117.693 -3215.693)" clip-path="url(#a)"><g transform="translate(600.002 6283)"><path d="M6.413,1.66H72.947A4.753,4.753,0,0,1,77.7,6.413v87.92a4.753,4.753,0,0,1-4.752,4.752H6.413A4.753,4.753,0,0,1,1.66,94.333V6.413A4.753,4.753,0,0,1,6.413,1.66Zm0,0" transform="translate(0.32 0.32)" fill="#79b2ff"/><path d="M53.911,8.3H68.5V89.884H8.3V8.3H22.888" transform="translate(1.6 1.6)" fill="#fff"/><path d="M25.264,15.917H46.617a4.208,4.208,0,0,0,4.208-4.208V1.66H21.056V11.71A4.208,4.208,0,0,0,25.264,15.917Zm0,0" transform="translate(4.059 0.32)" fill="#ff6977"/><path d="M25.264,15.917H46.617a4.208,4.208,0,0,0,4.208-4.208V1.66H21.056V11.71A4.208,4.208,0,0,0,25.264,15.917Zm0,0" transform="translate(4.059 0.32)" fill="#bdd9ff"/><path d="M57.354,47.254l23.2-23.2a5.237,5.237,0,0,1,7.406,7.406l-23.2,23.2L51.409,60.6Zm0,0" transform="translate(9.91 4.341)" fill="#ffc15a"/><path d="M64.76,50.663l-7.406-7.406-5.944,13.35Zm0,0" transform="translate(9.91 8.339)" fill="#98a1b3"/><path d="M81.116,34.006l2.546-2.546a5.237,5.237,0,0,0-7.406-7.406L73.71,26.6Zm0,0" transform="translate(14.209 4.341)" fill="#ff6977"/><path d="M16.27,21.582H28.943V34.255H16.27Zm0,0" transform="translate(3.136 4.161)" fill="#cbe558"/><path d="M16.27,39.844H28.943V52.517H16.27Zm0,0" transform="translate(3.136 7.681)" fill="#cbe558"/><path d="M16.27,58.105H28.943V70.779H16.27Zm0,0" transform="translate(3.136 11.201)" fill="#ff6977"/><path d="M33.855,75.039a1.981,1.981,0,1,0,1.4.58A2,2,0,0,0,33.855,75.039Zm0,0" transform="translate(6.145 14.465)"/><path d="M99.271,26.994a7.225,7.225,0,0,0-10.206,0L80,36.059V6.733A6.741,6.741,0,0,0,73.267,0H6.733A6.741,6.741,0,0,0,0,6.733v87.92a6.741,6.741,0,0,0,6.733,6.733H73.267A6.741,6.741,0,0,0,80,94.653V56.473L99.271,37.2a7.225,7.225,0,0,0,0-10.206ZM76.039,6.733V40.02l-3.96,3.96V9.9a1.98,1.98,0,0,0-1.98-1.98H56.865V3.96h16.4a2.776,2.776,0,0,1,2.772,2.772ZM65.227,61.038,67.9,55.033l3.332,3.332ZM52.9,3.96V12.03a2.23,2.23,0,0,1-2.228,2.228H29.323A2.23,2.23,0,0,1,27.1,12.03V3.96ZM73.267,97.425H6.733A2.776,2.776,0,0,1,3.96,94.653V6.733A2.776,2.776,0,0,1,6.733,3.96h16.4v3.96H9.9A1.98,1.98,0,0,0,7.921,9.9V91.485a1.98,1.98,0,0,0,1.98,1.98H32.079a1.98,1.98,0,0,0,0-3.96h-20.2V11.881H23.135v.149a6.2,6.2,0,0,0,6.188,6.188H50.677a6.2,6.2,0,0,0,6.188-6.188v-.149H68.118v36.06L65.863,50.2a2,2,0,0,0-.408.595L59.511,64.14a1.981,1.981,0,0,0,2.614,2.615l5.993-2.669V89.5H47.92a1.98,1.98,0,0,0,0,3.96H70.1a1.981,1.981,0,0,0,1.98-1.98V62.323l3.4-1.512a1.974,1.974,0,0,0,.564-.381V94.653a2.776,2.776,0,0,1-2.772,2.772ZM89.091,41.78,74.67,56.2,70.064,51.6,87.919,33.74l4.606,4.606Zm7.381-7.38-1.146,1.146L90.72,30.94l1.146-1.146A3.257,3.257,0,1,1,96.471,34.4Zm0,0" transform="translate(0 0)"/><path d="M29.263,19.922H16.59a1.98,1.98,0,0,0-1.98,1.98V34.575a1.98,1.98,0,0,0,1.98,1.98H29.263a1.98,1.98,0,0,0,1.98-1.98V21.9A1.98,1.98,0,0,0,29.263,19.922ZM27.283,32.6H18.57V23.882h8.713Zm0,0" transform="translate(2.816 3.84)"/><path d="M29.263,38.184H16.59a1.98,1.98,0,0,0-1.98,1.98V52.837a1.98,1.98,0,0,0,1.98,1.98H29.263a1.98,1.98,0,0,0,1.98-1.98V40.164A1.98,1.98,0,0,0,29.263,38.184Zm-1.98,12.673H18.57V42.144h8.713Zm0,0" transform="translate(2.816 7.361)"/><path d="M29.263,56.445H16.59a1.98,1.98,0,0,0-1.98,1.98V71.1a1.98,1.98,0,0,0,1.98,1.98H29.263a1.98,1.98,0,0,0,1.98-1.98V58.425A1.98,1.98,0,0,0,29.263,56.445Zm-1.98,12.673H18.57V60.406h8.713Zm0,0" transform="translate(2.816 10.881)"/><path d="M39.583,33.807a1.979,1.979,0,0,0,2.8,0l8.94-8.94a1.98,1.98,0,1,0-2.8-2.8l-7.539,7.539L37.978,26.6a1.98,1.98,0,0,0-2.8,2.8Zm0,0" transform="translate(6.67 4.142)"/><path d="M39.583,52.069a1.979,1.979,0,0,0,2.8,0l8.94-8.939a1.981,1.981,0,0,0-2.8-2.8l-7.539,7.54-3.005-3.005a1.98,1.98,0,0,0-2.8,2.8Zm0,0" transform="translate(6.67 7.663)"/><path d="M42.895,67.261l3.07,3.069a1.98,1.98,0,1,0,2.8-2.8L45.7,64.461l3.069-3.07a1.98,1.98,0,0,0-2.8-2.8l-3.07,3.069L39.825,58.59a1.98,1.98,0,0,0-2.8,2.8l3.07,3.07-3.07,3.07a1.98,1.98,0,0,0,2.8,2.8Zm0,0" transform="translate(7.026 11.183)"/></g></g></g></svg>