<svg xmlns="http://www.w3.org/2000/svg" width="227.636" height="163.072" viewBox="0 0 227.636 163.072"><g transform="translate(6385.851 5304)"><g transform="translate(323.785 508.083)"><path d="M295.2,301.082s-38.447-32.828-9.22-63.942c31.117-33.126,3.549-75.653,45.789-92.812,45.667-18.551,57.417,14.122,76.536,9.105,38.132-10.007,86.5-5.079,78.452,43.527-10.1,61.015,31.345,53.232,6.728,104.325Z" transform="translate(-6984.646 -5950.657)" fill="#fed5b1"/><path d="M.359,0H216.944a.359.359,0,0,1,.359.359v0a.359.359,0,0,1-.359.359H.359A.359.359,0,0,1,0,.359v0A.359.359,0,0,1,.359,0Z" transform="translate(-6699.303 -5649.73)" fill="#233862"/></g><g transform="translate(-6920.12 -5606.785)"><path d="M649.169,365.2a42.346,42.346,0,0,1-16.911-3.282l-13.8-4.535q2.023-3.3,4.048-6.6l11.265,2.464h15.393Z" transform="translate(40.611 43.643)" fill="#12263f"/><g transform="translate(627.603 366.722)"><path d="M619.527,343.148a4.489,4.489,0,1,1-4.489-4.489A4.489,4.489,0,0,1,619.527,343.148Z" transform="translate(-597.165 -338.659)" fill="#529d2e"/><g transform="translate(0 4.384)"><path d="M642.649,378.565H604.723c-.03-.032-.03-37.956-.03-37.956.03-.032,37.956-.032,37.956-.032.03.032.03,37.956.03,37.956A.031.031,0,0,1,642.649,378.565Z" transform="translate(-604.693 -340.577)" fill="#529d2e"/></g></g><g transform="translate(589.323 325.147)"><g transform="translate(19.844 20.247)"><path d="M624.6,334.289l-7.405.581Q610.6,332.1,604,329.327q-3.686,1.015-7.371,2.032a45.138,45.138,0,0,0,1.682,4.2c.114.247,1.019,2.208,1.831,3.549a18.492,18.492,0,0,0,6.132,6.114c4.695,2.553,12.728,2.516,16.477-2.516A11.688,11.688,0,0,0,624.6,334.289Z" transform="translate(-596.627 -329.327)" fill="#fc8116"/></g><path d="M607.218,362.127q-7.272-.607-14.543-1.209l4.7-30.862a7.028,7.028,0,0,1,12.394,3.415Q608.495,347.8,607.218,362.127Z" transform="translate(-581.864 -311.464)" fill="#ff9769"/><path d="M602.9,370.523a98.373,98.373,0,0,1-1.732,11.935c-3.549-1.015-7.076-2.007-10.625-3.022.274-2.048.569-4.075.846-6.125.126-.93.251-1.858.379-2.809q2.06-14.923,4.1-29.87c1.817.93,3.655,1.838,5.472,2.745a99.268,99.268,0,0,1,1.774,14.09A97.621,97.621,0,0,1,602.9,370.523Z" transform="translate(-584.607 -294.546)" fill="#ff9769"/><g transform="translate(19.398 3.394)"><path d="M596.432,331.68a3.215,3.215,0,0,0,5.371,2.249q.093-2.578.453-5.238c.064-.475.128-.951.21-1.44a3.771,3.771,0,0,0,.066-.425c0-.016.167-.91.167-.91-.912-.361-1.824-.725-2.752-1.09a32.331,32.331,0,0,1-1.477,3.346A37.226,37.226,0,0,1,596.432,331.68Z" transform="translate(-596.432 -318.26)" fill="#ff9769"/><path d="M600.455,325.567a1.343,1.343,0,0,1-1.726.661,1.256,1.256,0,0,1-.324-1.767,1.346,1.346,0,0,1,1.726-.661A1.256,1.256,0,0,1,600.455,325.567Z" transform="translate(-594.174 -319.735)" fill="#ff9769"/><path d="M600.278,325.534a.95.95,0,0,1-1.271.352.887.887,0,0,1-.357-1.23.953.953,0,0,1,1.271-.352A.885.885,0,0,1,600.278,325.534Z" transform="translate(-593.734 -319.078)" fill="#ff9769"/><path d="M598.073,325.694c.686.622,1.39,1.246,2.073,1.881.064-.475.128-.951.21-1.44a3.771,3.771,0,0,0,.066-.425Z" transform="translate(-594.322 -317.145)" fill="#12263f"/><g transform="translate(1.906)"><path d="M600.735,325.748l-.626-.151-.119-1.1.558-.48a.909.909,0,0,0,.43.592c.135.066.224.053.274.121C601.323,324.832,601.286,325.081,600.735,325.748Z" transform="translate(-593.764 -319.302)" fill="#ff9769"/><path d="M601.714,331.115l.16-.021a2.786,2.786,0,0,0,2.482-2.946l-.6-5.538a5.46,5.46,0,0,0-3.451-.592,5.749,5.749,0,0,0-3.04,1.479l.517,4.779A3.365,3.365,0,0,0,601.714,331.115Z" transform="translate(-597.266 -321.953)" fill="#ff9769"/></g><path d="M601.326,325.158a.9.9,0,1,1-1.758-.4,7.018,7.018,0,0,1,.9.144A6.8,6.8,0,0,1,601.326,325.158Z" transform="translate(-592.451 -318.345)" fill="#fff"/></g><g transform="translate(0.845 84.898)"><path d="M589.356,402.952l4.121,1.28q5.245-21.629,10.486-43.263c.011-.313.023-.624.034-.937q-5.3-1.21-10.591-2.418a43.371,43.371,0,0,0-4.935,16.127c-.354,3.755-.05,6.134.347,13.441C589.047,391.339,589.271,396.688,589.356,402.952Z" transform="translate(-588.315 -357.614)" fill="#ff9769"/><g transform="translate(0.342 44.854)"><path d="M588.472,384c0,.286.032.542.048.731.859.032,2.7.1,4.758.144,1.893.048,3.993.08,5.664.048a23.111,23.111,0,0,0,2.546-.144c.558-.08,1.035-.208,1.147-.526a.287.287,0,0,0-.016-.254c-.112-.494-.987-1.067-1.257-1.241-.638-.446-1.289-.891-1.943-1.337-.4-.286-.811-.574-1.225-.859-.176-.112-.35-.24-.526-.35a3.94,3.94,0,0,0-.334-.24c-.16-.112-.334-.238-.51-.366-.126-.08-.238-.16-.366-.238-.174-.128-.35-.24-.526-.366a3.683,3.683,0,0,0-.334-.224c-.174-.128-.349-.254-.526-.366-.571-.4-1.145-.8-1.7-1.177-1.447.11-2.864.238-4.3.366a6.787,6.787,0,0,1-.126,3.851,6.3,6.3,0,0,0-.4,1.383,1.446,1.446,0,0,0-.048.256A5.987,5.987,0,0,0,588.472,384Z" transform="translate(-588.463 -377.239)" fill="#fc8116"/><path d="M602.642,380.461c-.11.306-.6.437-1.147.512-2.5.329-10.833.034-12.968-.043a5.925,5.925,0,0,1-.062-.731h14.163A.4.4,0,0,1,602.642,380.461Z" transform="translate(-588.463 -373.435)" fill="#12263f"/><path d="M593.433,380.985c-.05.247-.1.494-.153.738-2.057-.046-3.9-.114-4.754-.142a5.56,5.56,0,0,1-.057-.734,6.57,6.57,0,0,1,.032-.9c.014-.087.025-.171.046-.254.153.037.306.064.466.1A44.275,44.275,0,0,1,593.433,380.985Z" transform="translate(-588.464 -374.087)" fill="#12263f"/></g></g><path d="M614.459,381.142c-3.57-.507-7.14-.994-10.69-1.5-.676-2.957-1.33-5.913-2.007-8.87-.169-.782-.338-1.543-.507-2.324q-3.041-13.5-6.084-27.017c2.05.21,4.077.423,6.1.654a87.468,87.468,0,0,1,6.571,12.57,86.192,86.192,0,0,1,4.669,14.362A93.051,93.051,0,0,1,614.459,381.142Z" transform="translate(-578.655 -293.524)" fill="#ff9769"/><g transform="translate(20.124 84.736)"><path d="M597.791,402.879l4.123,1.282q5.242-21.633,10.484-43.263l.034-.939-10.591-2.416a43.375,43.375,0,0,0-4.935,16.127c-.354,3.753-.05,6.132.35,13.441C597.482,391.266,597.706,396.617,597.791,402.879Z" transform="translate(-596.75 -357.543)" fill="#ff9769"/><g transform="translate(0.342 44.851)"><path d="M596.907,383.93c0,.288.032.542.048.734.859.032,2.706.094,4.758.142,1.893.048,3.993.08,5.664.048a23.116,23.116,0,0,0,2.546-.144c.558-.078,1.035-.206,1.147-.523a.292.292,0,0,0-.016-.256c-.112-.494-.987-1.065-1.257-1.241-.638-.446-1.289-.891-1.943-1.337-.4-.286-.811-.571-1.225-.859-.174-.11-.35-.238-.526-.35a3.892,3.892,0,0,0-.334-.238c-.158-.112-.334-.24-.51-.366-.126-.08-.238-.16-.366-.24-.174-.126-.35-.238-.523-.366a3.549,3.549,0,0,0-.336-.222c-.174-.128-.35-.256-.523-.368-.574-.4-1.147-.8-1.7-1.177-1.449.112-2.866.24-4.3.366a6.8,6.8,0,0,1-.128,3.851,6.516,6.516,0,0,0-.4,1.385,1.473,1.473,0,0,0-.048.254A6.022,6.022,0,0,0,596.907,383.93Z" transform="translate(-596.898 -377.167)" fill="#fc8116"/><path d="M611.076,380.388c-.11.306-.6.439-1.147.514-2.5.327-10.833.032-12.968-.043a5.973,5.973,0,0,1-.059-.731h14.161A.394.394,0,0,1,611.076,380.388Z" transform="translate(-596.897 -373.362)" fill="#12263f"/><path d="M601.87,380.914c-.052.247-.1.491-.155.738-2.057-.046-3.9-.114-4.752-.144a5.125,5.125,0,0,1-.059-.731,6.613,6.613,0,0,1,.032-.905c.014-.085.027-.171.046-.251.153.034.306.064.466.1A43.838,43.838,0,0,1,601.87,380.914Z" transform="translate(-596.899 -374.014)" fill="#12263f"/></g></g><path d="M602.423,353.723l-11.512,2.788c.126-.93.251-1.858.379-2.809C595.009,353.7,598.725,353.7,602.423,353.723Z" transform="translate(-584.131 -277.745)" fill="#12263f"/><path d="M609.094,353.818c-3.593.592-7.163,1.163-10.753,1.755-.169-.782-.338-1.543-.507-2.324Z" transform="translate(-575.233 -278.327)" fill="#12263f"/><path d="M623.032,387.04l-33.8,1.056q6.072-29.134,12.145-58.268l5.019-2.5c1.159,2.416,2.942,3.52,3.958,3.115.126-.05.761-.331,1.058-1.673l2.992,3.609Q618.719,359.708,623.032,387.04Z" transform="translate(-586.288 -311.647)" fill="#fc8116"/><path d="M594.513,379.072l-5.079.539-1.124-2.574q3.175-.291,6.347-.581Q594.585,377.763,594.513,379.072Z" transform="translate(-587.475 -248.492)" fill="#fc8116"/><path d="M602.238,378.986q-2.253.213-4.5.427-.442-1.344-.887-2.688l6.155-.283Q602.62,377.714,602.238,378.986Z" transform="translate(-576.502 -248.512)" fill="#fc8116"/><g transform="translate(38.281 8.717)"><path d="M642.675,324.314v37.94c-.03.032-15.61.032-15.61.032a1.458,1.458,0,0,0,.021-.3,4.371,4.371,0,0,0-2.411-4.055,4.536,4.536,0,0,0-6.566,4.036,1.649,1.649,0,0,0,.021.318h-13.4c-.03-.032-.03-37.972-.03-37.972.03-.032,37.951-.032,37.951-.032A.031.031,0,0,1,642.675,324.314Z" transform="translate(-604.694 -324.282)" fill="#a2f476"/><path d="M624.467,330.612v8.978a4.489,4.489,0,1,1,0-8.978Z" transform="translate(-585.06 -316.145)" fill="#a2f476"/><path d="M625.839,333.768c0,1.166-1.616,2.112-3.609,2.112s-3.609-.946-3.609-2.112,1.616-2.114,3.609-2.114S625.839,332.6,625.839,333.768Z" transform="translate(-586.79 -314.805)" fill="#a2f476"/></g><path d="M628.95,335.1a4.489,4.489,0,1,1-4.489-4.489A4.489,4.489,0,0,1,628.95,335.1Z" transform="translate(-546.772 -307.424)" fill="#a2f476"/><path d="M618.188,333.745q.734,1.817,1.454,3.63c-2,1.463-3.867,2.75-5.565,3.867-.855.56-1.664,1.074-2.416,1.55-.939.6-1.673,1.026-1.783,1.09-7.254,4.3-10.81,2.1-10.81,2.1a5.014,5.014,0,0,1-2.272-3.508,4.866,4.866,0,0,1,2.722-4.466,83.434,83.434,0,0,0,11.138-1.991C613.384,335.333,615.9,334.556,618.188,333.745Z" transform="translate(-576.582 -303.4)" fill="#fc8116"/><g transform="translate(9.709 18.181)"><path d="M612.094,352.508q-2.462-2.777-4.925-5.558l-3.531-13.871q-3.031-2.328-6.064-4.656c-.629.932-1.46,2.244-2.336,3.872-.128.24-1.147,2.146-1.728,3.6a18.472,18.472,0,0,0-1.184,8.578c.793,5.284,5.664,11.672,11.937,11.629A11.694,11.694,0,0,0,612.094,352.508Z" transform="translate(-592.193 -328.423)" fill="#fc8116"/></g><g transform="translate(41.205 26.672)"><path d="M607.584,339.769l4.363-.327q.717-3.247,1.435-6.5a20.745,20.745,0,0,0-2.665.763c-1.1.4-2.171.889-2.2.839a8.8,8.8,0,0,1,1.707-1.193.778.778,0,0,0,.341-.325,1.057,1.057,0,0,0-.066-.891,4.353,4.353,0,0,0-2.29.935,6.237,6.237,0,0,0-1.3,1.694,14.133,14.133,0,0,0-.937,1.778Q606.779,338.159,607.584,339.769Z" transform="translate(-605.973 -332.138)" fill="#ff9769"/><path d="M608.726,334.427q1.8-.518,3.6-1.033c.441-.4.558-.887.421-1.083s-.56-.091-.6-.08l-2.665.72Q609.1,333.692,608.726,334.427Z" transform="translate(-602.434 -332.071)" fill="#ff9769"/><path d="M608.356,335.678l4.164-.452c.555-.325.763-.786.64-1s-.61-.178-.651-.174l-3.079.29C609.071,334.785,608.715,335.231,608.356,335.678Z" transform="translate(-602.91 -329.69)" fill="#ff9769"/><path d="M607.952,335.956q2.084.216,4.167.43c.613-.2.91-.61.834-.846s-.558-.3-.6-.306q-1.536-.182-3.072-.361Z" transform="translate(-603.429 -328.622)" fill="#ff9769"/><path d="M608.712,335.329l4.658-1.115c.578-.409.738-.9.565-1.092-.144-.162-.546-.105-.766-.069-1.618.267-3.741.7-4.331.818C608.8,334.355,608.753,334.842,608.712,335.329Z" transform="translate(-602.452 -331.014)" fill="#ff9769"/></g><path d="M609.336,338.818l-2.941,1.15q-.607-2.523-1.218-5.044,1.292-.754,2.59-1.511Q608.551,336.118,609.336,338.818Z" transform="translate(-565.793 -303.827)" fill="#529d2e"/><g transform="translate(10.694 37.618)"><path d="M606.15,342.755c-6.347,0-11.4-3.618-13.425-5.323a.286.286,0,0,1,.368-.439c2.224,1.874,8.178,6.107,15.439,5.012a16.561,16.561,0,0,0,4.669-1.447.284.284,0,0,1,.382.133.281.281,0,0,1-.135.379,17.156,17.156,0,0,1-4.832,1.5A16.958,16.958,0,0,1,606.15,342.755Z" transform="translate(-592.624 -336.927)" fill="#fff"/></g><g transform="translate(15.862 26.385)"><path d="M603.349,339.25a.292.292,0,0,1-.183-.064l-8.178-6.665a.287.287,0,0,1,.363-.443l8.178,6.665a.286.286,0,0,1,.039.4A.282.282,0,0,1,603.349,339.25Z" transform="translate(-594.885 -332.013)" fill="#fff"/></g><g transform="translate(24.571 33.316)"><path d="M598.981,335.694a.286.286,0,0,1,0-.571l4.754-.078a.286.286,0,0,1,.009.571l-4.754.078Z" transform="translate(-598.695 -335.045)" fill="#fff"/></g><g transform="translate(28.121 21.896)"><path d="M602,340.279a.287.287,0,0,1-.283-.245l-1.463-9.654a.288.288,0,0,1,.24-.327.274.274,0,0,1,.325.24l1.463,9.656a.286.286,0,0,1-.24.327Z" transform="translate(-600.249 -330.049)" fill="#fff"/></g><path d="M616.092,323.337a2.845,2.845,0,0,1-1.454,3.037c-1.36.7-2.452-.494-3.433.133-1.173.75-.283,2.9-.985,5.4-.7,2.48-2.473,3.57-3.75,4.87-5.611,5.7-.9,14.655-5.364,17.782-2.676,1.876-7.268.64-9.768-1.716-3.863-3.636-3.2-10.383-.528-13.51,1.46-1.716,2.688-1.364,3.872-3.346,1.863-3.115.064-6.045,1.744-7.307,1.573-1.179,3.664,1,5.561-.174,2.057-1.273.519-4.4,2.729-6.425,2.1-1.918,5.686-1.129,7.812-.661C614.062,321.762,615.721,322.123,616.092,323.337Z" transform="translate(-587.071 -319.966)" fill="#12263f"/><g transform="translate(1.268)"><g transform="translate(13.693)"><path d="M594.775,324.339c-.217-.041-.313-.2-.276-.35a4.3,4.3,0,0,1,1.294-2.32,5,5,0,0,1,2.651-1.2.288.288,0,0,1,.327.235.283.283,0,0,1-.238.327,4.451,4.451,0,0,0-2.354,1.058,3.781,3.781,0,0,0-1.124,2.03A.284.284,0,0,1,594.775,324.339Z" transform="translate(-594.491 -320.468)" fill="#12263f"/></g><g transform="translate(5.815 7.366)"><path d="M591.33,326.568a.287.287,0,0,1-.286-.3,2.337,2.337,0,0,1,3.234-2.446.285.285,0,0,1,.213.345.278.278,0,0,1-.341.212,2.1,2.1,0,0,0-1.854.183,2.059,2.059,0,0,0-.681,1.73A.286.286,0,0,1,591.33,326.568Z" transform="translate(-591.044 -323.691)" fill="#12263f"/></g><g transform="translate(5.622 9.672)"><path d="M591.245,328.707c-.215-.039-.313-.192-.279-.345a11.174,11.174,0,0,0,.178-2.466c0-.325,0-.633.009-.921a.315.315,0,0,1,.3-.274.288.288,0,0,1,.274.3c-.014.279-.011.578-.009.894a11.621,11.621,0,0,1-.192,2.59A.284.284,0,0,1,591.245,328.707Z" transform="translate(-590.959 -324.7)" fill="#12263f"/></g><g transform="translate(0 16.509)"><path d="M588.784,331.64a.3.3,0,0,1-.13-.032.287.287,0,0,1-.123-.384,8.147,8.147,0,0,1,1.031-1.561,6.545,6.545,0,0,1,1.92-1.522c.222-.128.437-.251.649-.4a.287.287,0,0,1,.324.473c-.224.155-.455.286-.688.423a6.012,6.012,0,0,0-1.771,1.4,7.661,7.661,0,0,0-.955,1.454A.287.287,0,0,1,588.784,331.64Z" transform="translate(-588.5 -327.691)" fill="#12263f"/></g></g><path d="M595.127,390.619q-2.78.216-5.558.437a116.163,116.163,0,0,1-1.593-21.98q.041-1.844.142-3.634l12.584.885Z" transform="translate(-587.945 -262.654)" fill="#529d2e"/><path d="M603.194,389.848l-4.978.228c-.548-3.5-1.012-7.275-1.335-11.286-.366-4.539-.5-8.808-.484-12.762l12.36.859c-.213,1.963-.5,4-.873,6.116A92.1,92.1,0,0,1,603.194,389.848Z" transform="translate(-577.081 -261.899)" fill="#529d2e"/></g><g transform="translate(654.983 448.152)"><path d="M667.385,381.273l-2.43,2.112c-1.14.128-2.3.277-3.421.4-.8.085-1.563.19-2.325.274-1.627.19-3.147.4-4.605.592-14.913,1.986-22.2,3.865-33.883,3.844-.738,0-1.33-.021-1.52-.021a9.433,9.433,0,0,1-2.409-4.774c-.846-5.049,3.083-8.788,3.444-9.1a80.149,80.149,0,0,1,15.059.085c3.993.379,8.3,1.118,13.288,1.984,2.663.487,5.81.994,9.336,1.543.994.149,1.986.318,3.042.464.592.085,1.1.169,1.584.233,1.1.149,1.986.274,2.642.359Z" transform="translate(-616.673 -374.287)" fill="#ff9769"/><g transform="translate(46.394 2.957)"><path d="M646.656,389.55a1.853,1.853,0,0,0,.3-1.216,76.225,76.225,0,0,0-1.376-8.1c-.411-2.016-.809-3.812-.992-4.651a5.185,5.185,0,0,0-.729.076,6.277,6.277,0,0,0-.885.192c-.082.03-.165.057-.24.089a6.959,6.959,0,0,0-1.3.654,6.617,6.617,0,0,1-3.68.807c.046,1.433.183,2.855.309,4.281a.768.768,0,0,0-1.077.261.722.722,0,0,0,.411.743c1.433.091,1.961.293,2.148.48.016.014.151.149.45.45.091.094.185.187.283.286.151.149.3.3.448.453.107.1.208.208.313.313l.448.443c.094.094.185.187.286.286.345.343.441.443.448.453.56.565,1.234,3.981,2.612,4.429A1.82,1.82,0,0,0,646.656,389.55Z" transform="translate(-636.972 -375.581)" fill="#fc8116"/></g></g><path d="M640.062,363.22a48.834,48.834,0,0,1-4.2,11.533,46.778,46.778,0,0,1-2.642,4.416c-1.943,2.85-3.442,4.413-8.681,10.244-.656.741-1.353,1.522-2.091,2.368-1.056,1.2-2.2,2.491-3.38,3.885l-.761.887c-.633.741-1.31,1.522-1.986,2.324a15.851,15.851,0,0,0-1.033,1.246,8.754,8.754,0,0,0-1.312,2.663,4.167,4.167,0,0,0-1.815-.213,4.386,4.386,0,0,0-1.438.423c-.359.423-.823.592-1.035.466-.254-.169-.315-.782.084-1.374.8-2.345,1.479-4.247,1.9-5.408,0,0,.992-2.788,2.724-7.1A223.407,223.407,0,0,1,627.112,362.9c.635-1.1,1.31-2.24,2.029-3.4.4-.633.7-1.12.823-1.289,1.479.782,3.147,1.584,5.008,2.345,1.266.507,2.491.951,3.632,1.33C639.091,362.331,639.575,362.776,640.062,363.22Z" transform="translate(29.066 53.2)" fill="#ff9769"/><g transform="translate(629.379 454.302)"><path d="M606,385.2a1.877,1.877,0,0,0,1.147.512,76.738,76.738,0,0,0,8.217.066c2.057-.053,3.9-.128,4.752-.16a5.229,5.229,0,0,0,.055-.734,6.627,6.627,0,0,0-.034-.9c-.014-.087-.027-.171-.046-.251a7.092,7.092,0,0,0-.414-1.394,6.623,6.623,0,0,1-.148-3.767c-1.419-.206-2.843-.32-4.269-.448a.766.766,0,0,0-.068-1.1.72.72,0,0,0-.8.274c-.343,1.4-.633,1.879-.85,2.032-.016.011-.171.121-.523.363l-.331.231c-.171.119-.343.24-.521.361-.121.087-.242.167-.363.254l-.516.361-.331.231c-.4.279-.514.357-.523.363-.654.45-4.137.517-4.82,1.792A1.824,1.824,0,0,0,606,385.2Z" transform="translate(-605.47 -376.978)" fill="#fc8116"/></g><path d="M625.1,392.8c-.553-.165-5.469-1.707-6.653-6.009a7.313,7.313,0,0,1-.185-2.88l31.239-16.881,5.828,11.713Z" transform="translate(40.275 64.542)" fill="#ff9769"/><path d="M649.315,381.4q-5.005,2.66-10.013,5.364l-.823.446c-4.1-3.952-8.219-7.922-12.317-11.851-1.289-1.248-2.535-2.452-3.78-3.655l-5.323-5.133a12.862,12.862,0,0,1,.315-3.106,9.3,9.3,0,0,1,.274-1.015,8.721,8.721,0,0,1,.7-1.6,7.218,7.218,0,0,1,2.258-2.493,5.26,5.26,0,0,1,.994-.549,4.653,4.653,0,0,1,2.893.592c1.479,1.374,2.937,2.7,4.372,4.055.487.443.971.889,1.458,1.332q7.635,7.1,15.272,14.152C646.844,379.1,648.069,380.262,649.315,381.4Z" transform="translate(38.804 52.633)" fill="#ff9769"/><path d="M644.624,385.647c.242,5.216,1.1,11-2.217,13.361-2.516,1.79-6.5,1.031-9.067-.416a10.826,10.826,0,0,1-5.083-7.234q.494-3.5.987-7,.6-11.745,1.193-23.493a24.308,24.308,0,0,1,1.79-4.79,25.822,25.822,0,0,1,2.694-4.306,5.826,5.826,0,0,1,1.378-.377,5.621,5.621,0,0,1,1.415-.117l.542.055a7.61,7.61,0,0,1,4.925,3.113Q643.915,370.039,644.624,385.647Z" transform="translate(53.202 44.282)" fill="#ff9769"/><path d="M636.294,355.713a3.216,3.216,0,0,1-5.542,1.79q.123-2.578-.009-5.259c-.023-.48-.046-.96-.087-1.451a3.4,3.4,0,0,1-.032-.43c0-.016-.089-.921-.089-.921.939-.283,1.879-.569,2.834-.855a32.591,32.591,0,0,0,1.189,3.46A36.846,36.846,0,0,0,636.294,355.713Z" transform="translate(56.129 40.826)" fill="#ff9769"/><path d="M630.879,349.14a1.346,1.346,0,0,0,1.483,1.1,1.255,1.255,0,0,0,.791-1.614,1.346,1.346,0,0,0-1.483-1.1A1.257,1.257,0,0,0,630.879,349.14Z" transform="translate(56.506 39.432)" fill="#ff9769"/><path d="M630.682,349.077a.948.948,0,0,0,1.127.681.887.887,0,0,0,.677-1.088.95.95,0,0,0-1.127-.683A.89.89,0,0,0,630.682,349.077Z" transform="translate(56.283 40.025)" fill="#ff9769"/><path d="M632.916,349.547c-.736.56-1.49,1.122-2.224,1.7-.023-.48-.046-.96-.087-1.451a3.383,3.383,0,0,1-.032-.43C631.355,349.423,632.134,349.485,632.916,349.547Z" transform="translate(56.179 41.825)" fill="#12263f"/><g transform="translate(684.435 382.882)"><path d="M629.845,349.082l.644.023.414-1.029-.409-.615a.919.919,0,0,1-.576.457c-.146.025-.229-.011-.295.041C629.527,348.04,629.5,348.289,629.845,349.082Z" transform="translate(-629.559 -343.502)" fill="#ff9769"/><path d="M631.5,354.605l-.146-.064a2.784,2.784,0,0,1-1.593-3.506l2.073-5.172a5.485,5.485,0,0,1,3.483.363,5.762,5.762,0,0,1,2.526,2.247l-1.787,4.461A3.368,3.368,0,0,1,631.5,354.605Z" transform="translate(-629.522 -345.73)" fill="#ff9769"/></g><path d="M629.645,348.337a.905.905,0,1,0,1.8.094,6.517,6.517,0,0,0-.907-.107A7.071,7.071,0,0,0,629.645,348.337Z" transform="translate(54.977 40.477)" fill="#fff"/><path d="M635.867,346.85a5.3,5.3,0,0,1,1.321,1.849c.72,2.025-.546,4.329-1.013,4.269-.4-.053.034-1.794-1.088-2.631-.532-.4-.969-.256-1.849-.891-.587-.423-.475-.544-.935-.834-1.077-.683-1.954-.2-2.334-.75-.354-.512.151-1.378.219-1.495.444-.759,1.394-1.248,1.806-1.012.1.055.158.146.263.133.222-.032.187-.5.4-.661C633.1,344.482,634.653,345.522,635.867,346.85Z" transform="translate(55.244 35.907)" fill="#12263f"/><path d="M646.166,376.862l-.761,1.077-6.294,8.829-.548.782c-1.326.08-3.17.133-3.243-.238-.116-.59,4.29-1.979,4.3-1.954,0,.009-.469.2-3.074,1.2-.345-.372-.7-.743-1.063-1.115a52.95,52.95,0,0,0-10.5-8.267c-.971-1.879-1.881-3.675-2.788-5.469-1.522-2.98-3.063-5.979-4.585-8.957a1.89,1.89,0,0,0-.148-.3l-.251-.507a6.677,6.677,0,0,1,2.237-3.293,4.045,4.045,0,0,1,1.966-.846,4.653,4.653,0,0,1,2.893.592,3.811,3.811,0,0,1,.677.464Q635.562,367.862,646.166,376.862Z" transform="translate(38.996 52.633)" fill="#529d2e"/><path d="M619.682,374.136c-1.056,1.2-2.2,2.491-3.38,3.885-1.543-2.027-3.106-4.055-4.669-6.084,2.578.656,5.133,1.31,7.711,1.945C619.449,373.967,619.576,374.051,619.682,374.136Z" transform="translate(31.83 70.844)" fill="#12263f"/><path d="M621.608,395.793l-9.974-6.21a60.814,60.814,0,0,1,11.471-26.622,56.349,56.349,0,0,1,4.093-4.749q3.189,7.875,6.379,15.752Q627.6,384.88,621.608,395.793Z" transform="translate(31.833 53.2)" fill="#529d2e"/><path d="M637.874,381.855c-1.627.19-3.147.4-4.605.592,1.12-2.155,2.219-4.288,3.316-6.443C637.008,377.947,637.452,379.912,637.874,381.855Z" transform="translate(59.645 76.072)" fill="#12263f"/><path d="M655.736,381.989l-11.151,4.333,13.732,1.847,1.118,12.248-39.912-1.269a8.084,8.084,0,0,1-3.058-5.433,8.246,8.246,0,0,1,2.487-6.569q.778-.946,1.6-1.888a81.8,81.8,0,0,1,25.354-19.269l13.93.741a31.557,31.557,0,0,1,1.12,7.577A8.084,8.084,0,0,1,655.736,381.989Z" transform="translate(37.99 63.198)" fill="#529d2e"/><g transform="translate(672.081 428.899)"><path d="M624.44,373.3a.282.282,0,0,1-.249-.144.285.285,0,0,1,.107-.389l12.054-6.859a.28.28,0,0,1,.391.107.285.285,0,0,1-.107.389l-12.054,6.859A.269.269,0,0,1,624.44,373.3Z" transform="translate(-624.154 -365.863)" fill="#fff"/></g><path d="M646.5,387.51c-7.716,2.958-14.742,2.3-17.411-1.422-.041-.057-.091-.126-.144-.213a7.857,7.857,0,0,1-1.06-3.25,50.908,50.908,0,0,1,4.621-26.4c.77-1.444,1.483-2.594,1.97-3.346q2.28-.785,4.557-1.572a7.517,7.517,0,0,1,2.027.633C651.228,356.786,647.1,383.808,646.5,387.51Z" transform="translate(52.446 44.318)" fill="#12263f"/><path d="M646.67,359.384c-1.54,1.712-3.062,3.4-4.582,5.113-.487.505-.951,1.012-1.415,1.54-.233.254-.466.528-.7.782-.72.8-1.438,1.607-2.176,2.409-.889.992-1.8,2.007-2.7,3.021-1.058,1.161-2.114,2.322-3.149,3.485-.907.4-6.146-2.24-6.21-4.775q3.106-3.9,6.189-7.773c.761-.951,1.522-1.922,2.281-2.873.3-.382.592-.741.889-1.12,1.879-2.345,3.76-4.71,5.618-7.055A13.712,13.712,0,0,1,646.545,359C646.588,359.151,646.629,359.256,646.67,359.384Z" transform="translate(49.962 45.392)" fill="#ff9769"/><g transform="translate(656.872 398.038)"><path d="M622.392,362.048l-3.6-2.494q1.029-3.164,2.055-6.329a20.723,20.723,0,0,1,1.911,2.009c.75.9,1.422,1.865,1.467,1.835a8.686,8.686,0,0,0-.866-1.892.8.8,0,0,1-.13-.452,1.06,1.06,0,0,1,.512-.736,4.357,4.357,0,0,1,1.5,1.968,6.236,6.236,0,0,1,.265,2.119,14.173,14.173,0,0,1-.094,2.009Z" transform="translate(-615.831 -351.249)" fill="#ff9769"/><path d="M621.268,356.24l-2.576-2.713c-.178-.567-.032-1.047.187-1.145s.528.206.555.233q.963.984,1.931,1.97Z" transform="translate(-616.069 -352.361)" fill="#ff9769"/><path d="M621.3,357.708l-3.362-2.5c-.313-.56-.258-1.063-.041-1.188s.615.155.649.181l2.507,1.812Q621.179,356.859,621.3,357.708Z" transform="translate(-617.214 -350.271)" fill="#ff9769"/><path d="M621.7,358q-1.906-.871-3.812-1.739c-.423-.484-.473-.987-.288-1.154s.633.023.672.039l2.832,1.246Z" transform="translate(-617.499 -348.929)" fill="#ff9769"/><path d="M621.391,357.37q-1.725-1.663-3.451-3.321c-.29-.647-.181-1.15.069-1.23.206-.066.523.187.695.331,1.257,1.049,2.871,2.5,3.319,2.9Z" transform="translate(-617.156 -351.786)" fill="#ff9769"/><path d="M622.227,354.885q-1.244,1.68-2.48,3.362c1.669,2.05,3.259,3.885,4.715,5.5.731.809,1.431,1.559,2.08,2.254.811.873,1.454,1.511,1.55,1.609,6.347,6.4,10.616,5.083,10.616,5.083A5.359,5.359,0,0,0,642,369.677a5.2,5.2,0,0,0-1.611-5.355,88.856,88.856,0,0,1-10.984-5.058C626.768,357.822,624.378,356.341,622.227,354.885Z" transform="translate(-614.61 -349.116)" fill="#ff9769"/></g><path d="M651.692,368.248q-6.051,4.038-12.1,8.077a8.882,8.882,0,0,1-3.826,1.458c-5.424.661-11.441-4.217-15.185-12.106q1.522-2.643,3.049-5.282,6.037,2.938,12.077,5.881l11.1-14.419a8.875,8.875,0,0,1,4.489,2.553C654.236,357.6,654.439,363.154,651.692,368.248Z" transform="translate(43.334 45.029)" fill="#12263f"/><g transform="translate(680.663 411.8)"><path d="M628.2,369.227a.285.285,0,0,1-.165-.519l14.659-10.276a.286.286,0,1,1,.327.469L628.36,369.177A.31.31,0,0,1,628.2,369.227Z" transform="translate(-627.909 -358.382)" fill="#fff"/></g><g transform="translate(681.204 398.183)"><path d="M628.43,362.656c-.256-.085-.325-.251-.265-.4L632.2,352.6a.281.281,0,0,1,.375-.153.286.286,0,0,1,.153.373l-4.032,9.656A.287.287,0,0,1,628.43,362.656Z" transform="translate(-628.145 -352.424)" fill="#fff"/></g><g transform="translate(683.594 384.088)"><path d="M631.376,350.625a2.184,2.184,0,1,1,2.183-2.183A2.187,2.187,0,0,1,631.376,350.625Zm0-3.8a1.612,1.612,0,1,0,1.611,1.614A1.615,1.615,0,0,0,631.376,346.828Z" transform="translate(-629.191 -346.257)" fill="#12263f"/></g><g transform="translate(666.267 449.324)"><path d="M621.9,380.066a.286.286,0,0,1-.274-.2.283.283,0,0,1,.187-.357l14.9-4.695a.285.285,0,1,1,.172.544l-14.9,4.695A.283.283,0,0,1,621.9,380.066Z" transform="translate(-621.61 -374.8)" fill="#fff"/></g><g transform="translate(662.058 419.3)"><path d="M621.644,372.377a.287.287,0,0,1-.283-.242L619.772,362a.284.284,0,0,1,.238-.327.27.27,0,0,1,.327.238l1.588,10.136a.284.284,0,0,1-.238.327A.147.147,0,0,1,621.644,372.377Z" transform="translate(-619.768 -361.663)" fill="#fff"/></g><g transform="translate(586.872 316.829)"><path d="M679.233,392.474a4.45,4.45,0,0,1-1.1-.137.57.57,0,0,1-.414-.69.557.557,0,0,1,.692-.416,3.74,3.74,0,0,0,1.968-.066.571.571,0,0,1,.3,1.1A5.417,5.417,0,0,1,679.233,392.474Zm-2.921-1.239a.57.57,0,0,1-.386-.149,8.862,8.862,0,0,1-1.538-1.89.571.571,0,0,1,.971-.6,7.845,7.845,0,0,0,1.337,1.646.571.571,0,0,1,.037.807A.561.561,0,0,1,676.312,391.235Zm-2.45-3.812a.575.575,0,0,1-.532-.363,15.562,15.562,0,0,1-.683-2.272.571.571,0,0,1,1.115-.247,14.369,14.369,0,0,0,.633,2.1.569.569,0,0,1-.325.741A.6.6,0,0,1,673.862,387.423Zm-.99-4.45a.572.572,0,0,1-.569-.533c-.025-.352-.037-.7-.037-1.056,0-.443.018-.884.059-1.323a.584.584,0,0,1,.624-.512.569.569,0,0,1,.514.624c-.039.4-.055.8-.055,1.211,0,.325.012.651.034.976a.573.573,0,0,1-.532.61Zm.466-4.521a.545.545,0,0,1-.169-.027.568.568,0,0,1-.375-.713c.046-.144.094-.29.144-.432a8.9,8.9,0,0,1,.878-1.774.572.572,0,0,1,.96.622,7.7,7.7,0,0,0-.763,1.543c-.046.126-.089.254-.128.379A.569.569,0,0,1,673.339,378.452Zm2.452-3.771a.568.568,0,0,1-.432-.2.577.577,0,0,1,.057-.809,11.359,11.359,0,0,1,1.982-1.353.572.572,0,1,1,.549,1,10.038,10.038,0,0,0-1.78,1.216A.586.586,0,0,1,675.791,374.681Zm3.954-2.244a.57.57,0,0,1-.215-1.1c.7-.283,1.408-.537,2.119-.791a.59.59,0,0,1,.754.338.546.546,0,0,1-.322.72c-.743.265-1.44.517-2.123.791A.533.533,0,0,1,679.745,372.436Zm4.288-1.6a.57.57,0,0,1-.215-1.1,17.045,17.045,0,0,0,1.993-.944.57.57,0,1,1,.567.99,17.076,17.076,0,0,1-2.132,1.013A.577.577,0,0,1,684.033,370.836ZM595,369.643a.569.569,0,0,1-.457-.229c-.466-.619-.914-1.252-1.342-1.892a.571.571,0,1,1,.951-.633c.416.622.85,1.237,1.3,1.838a.574.574,0,0,1-.457.916Zm92.935-1.134a.574.574,0,0,1-.4-.985,6.394,6.394,0,0,0,1.255-1.662.571.571,0,1,1,1.01.533,7.608,7.608,0,0,1-1.474,1.954A.571.571,0,0,1,687.932,368.51Zm-95.467-2.674a.575.575,0,0,1-.494-.283q-.586-1.008-1.109-2.039a.571.571,0,0,1,1.019-.517c.338.667.695,1.326,1.076,1.979a.571.571,0,0,1-.494.859Zm97.561-1.287a.589.589,0,0,1-.565-.667,6.965,6.965,0,0,0,.1-1.163,8.508,8.508,0,0,0-.057-.949.57.57,0,0,1,.5-.633.576.576,0,0,1,.635.5,9.743,9.743,0,0,1,.064,1.079,8.3,8.3,0,0,1-.112,1.358A.569.569,0,0,1,690.025,364.549ZM590.4,361.758a.57.57,0,0,1-.523-.347c-.309-.711-.594-1.433-.855-2.155a.573.573,0,0,1,.343-.734.581.581,0,0,1,.731.345q.381,1.053.83,2.094a.574.574,0,0,1-.526.8Zm99.163-1.712a.57.57,0,0,1-.542-.393,18.729,18.729,0,0,0-.814-2.064.572.572,0,0,1,1.04-.478,20.4,20.4,0,0,1,.859,2.187.565.565,0,0,1-.544.747Zm-100.712-2.587a.576.576,0,0,1-.549-.411q-.326-1.118-.581-2.249a.572.572,0,1,1,1.115-.251c.165.729.35,1.456.562,2.178a.572.572,0,0,1-.388.711A.555.555,0,0,1,588.854,357.459Zm98.845-1.575a.572.572,0,0,1-.5-.295q-.521-.939-1.14-1.95a.572.572,0,0,1,.976-.6c.423.693.811,1.355,1.163,2a.571.571,0,0,1-.224.777A.563.563,0,0,1,687.7,355.884ZM587.853,353a.567.567,0,0,1-.562-.48q-.181-1.155-.286-2.306a.571.571,0,1,1,1.138-.1c.069.74.16,1.486.277,2.228a.574.574,0,0,1-.475.656A.615.615,0,0,1,587.853,353Zm97.465-1.008a.572.572,0,0,1-.478-.258q-.6-.915-1.268-1.886a.572.572,0,0,1,.942-.649c.45.658.878,1.291,1.282,1.908a.571.571,0,0,1-.165.791A.582.582,0,0,1,685.317,351.99Zm-97.865-3.543a.571.571,0,0,1-.571-.56l-.009-.688q0-.823.041-1.636a.554.554,0,0,1,.6-.544.571.571,0,0,1,.539.6q-.038.785-.039,1.577l.009.667a.572.572,0,0,1-.56.583Zm95.282-.233a.565.565,0,0,1-.466-.242l-1.328-1.851a.572.572,0,1,1,.928-.67l1.33,1.86a.57.57,0,0,1-.464.9Zm-2.67-3.707a.568.568,0,0,1-.462-.235l-1.349-1.844a.57.57,0,0,1,.921-.672l1.351,1.842a.573.573,0,0,1-.462.91Zm-92.384-.622a.585.585,0,0,1-.569-.64c.094-.773.217-1.54.368-2.3a.572.572,0,0,1,1.122.224c-.146.731-.265,1.467-.357,2.212A.57.57,0,0,1,587.681,343.885Zm89.719-3.053a.623.623,0,0,1-.441-.181l-1.408-1.9a.57.57,0,1,1,.916-.679l1.344,1.822a.56.56,0,0,1-.411.942Zm-88.828-1.424a.59.59,0,0,1-.153-.021.573.573,0,0,1-.4-.7c.21-.75.448-1.49.718-2.215a.57.57,0,1,1,1.069.393q-.384,1.049-.686,2.13A.573.573,0,0,1,588.573,339.408Zm86.069-2.26a.566.566,0,0,1-.457-.229q-.72-.953-1.387-1.8a.571.571,0,0,1,.9-.708q.675.85,1.4,1.819a.572.572,0,0,1-.455.914Zm-84.492-2.025a.6.6,0,0,1-.24-.053.57.57,0,0,1-.279-.756q.46-.994.994-1.959l.565.162.5.277c-.409.734-.727,1.36-1.022,2A.575.575,0,0,1,590.15,335.122Zm81.639-1.545a.564.564,0,0,1-.43-.2c-.523-.6-1.029-1.143-1.527-1.632a.571.571,0,0,1,.8-.818c.521.512,1.047,1.077,1.591,1.7a.571.571,0,0,1-.432.946Zm-79.4-2.43a.571.571,0,0,1-.471-.894c.437-.642.905-1.271,1.39-1.87a.571.571,0,0,1,.889.718c-.466.576-.916,1.179-1.335,1.8A.573.573,0,0,1,592.394,331.148Zm76.113-.734a.582.582,0,0,1-.343-.114,10.842,10.842,0,0,0-1.849-1.129.571.571,0,0,1,.491-1.031,11.862,11.862,0,0,1,2.043,1.243.573.573,0,0,1-.343,1.031Zm-18.054-.334a14.4,14.4,0,0,1-1.874-.121.572.572,0,0,1-.5-.64.584.584,0,0,1,.64-.494,13.085,13.085,0,0,0,2.183.1.55.55,0,0,1,.6.549.572.572,0,0,1-.546.594C650.792,330.078,650.623,330.081,650.453,330.081Zm2.745-.256a.571.571,0,0,1-.1-1.134c.649-.117,1.321-.272,2.18-.5a.57.57,0,1,1,.3,1.1c-.891.242-1.593.4-2.274.526A.519.519,0,0,1,653.2,329.825Zm-6.781-.322a.555.555,0,0,1-.16-.023,11.351,11.351,0,0,1-2.221-.9.574.574,0,0,1-.238-.773.581.581,0,0,1,.775-.238,10.139,10.139,0,0,0,2,.809.571.571,0,0,1-.158,1.12Zm11.218-.784a.571.571,0,0,1-.139-1.125,21.376,21.376,0,0,1,2.3-.466.579.579,0,0,1,.642.489.57.57,0,0,1-.487.644,19.87,19.87,0,0,0-2.176.441A.592.592,0,0,1,657.635,328.718Zm6.777-.242a.555.555,0,0,1-.135-.016,11.507,11.507,0,0,0-2.153-.309.57.57,0,0,1-.544-.6.6.6,0,0,1,.6-.546,12.887,12.887,0,0,1,2.366.341.571.571,0,0,1-.133,1.127Zm-69.14-.873a.573.573,0,0,1-.414-.969c.539-.558,1.106-1.1,1.687-1.609a.571.571,0,0,1,.754.857c-.555.491-1.1,1.008-1.616,1.547A.573.573,0,0,1,595.271,327.6Zm47.142-.224a.566.566,0,0,1-.361-.13,18.459,18.459,0,0,1-1.712-1.614.571.571,0,0,1,.018-.809.577.577,0,0,1,.807.018,17.848,17.848,0,0,0,1.609,1.52.572.572,0,0,1-.361,1.015ZM598.7,324.586a.571.571,0,0,1-.343-1.028q.936-.7,1.92-1.319a.57.57,0,1,1,.61.962q-.946.6-1.844,1.271A.582.582,0,0,1,598.7,324.586Zm40.5-.446a.568.568,0,0,1-.416-.183,20.127,20.127,0,0,0-1.593-1.547.571.571,0,0,1,.743-.866,20.44,20.44,0,0,1,1.682,1.634.571.571,0,0,1-.416.962Zm-36.642-2a.57.57,0,0,1-.267-1.074c.684-.363,1.381-.706,2.089-1.019a.573.573,0,0,1,.464,1.047c-.686.3-1.358.631-2.018.98A.559.559,0,0,1,602.555,322.143Zm33.147-.916a.578.578,0,0,1-.283-.075,11.221,11.221,0,0,0-1.378-.661c-.2-.08-.409-.158-.617-.238a.57.57,0,1,1,.4-1.07c.217.078.432.16.645.245a12.085,12.085,0,0,1,1.522.731.571.571,0,0,1-.283,1.067Zm-28.976-.942a.571.571,0,0,1-.2-1.106c.727-.27,1.465-.512,2.206-.731a.563.563,0,0,1,.711.384.571.571,0,0,1-.386.711c-.718.215-1.431.448-2.135.706A.536.536,0,0,1,606.727,320.285Zm24.727-.718a.523.523,0,0,1-.164-.025c-.709-.213-1.436-.4-2.174-.571a.572.572,0,0,1,.256-1.115c.761.176,1.513.372,2.247.592a.572.572,0,0,1-.165,1.12Zm-20.348-.578a.572.572,0,0,1-.128-1.129q1.132-.264,2.276-.455a.58.58,0,0,1,.656.471.572.572,0,0,1-.469.658c-.738.123-1.474.272-2.208.439A.48.48,0,0,1,611.106,318.989Zm15.9-.453c-.83-.13-1.575-.233-2.329-.318a.569.569,0,0,1-.5-.631.553.553,0,0,1,.631-.5c.773.085,1.538.192,2.295.318a.571.571,0,0,1-.094,1.134Zm-11.391-.311a.575.575,0,0,1-.569-.51.569.569,0,0,1,.505-.629q1.155-.13,2.311-.192a.587.587,0,0,1,.6.539.574.574,0,0,1-.539.6c-.747.037-1.5.1-2.244.183Zm6.85-.19c-.779-.043-1.531-.064-2.286-.064a.571.571,0,0,1,0-1.143q1.166,0,2.317.064a.572.572,0,0,1-.032,1.143Z" transform="translate(-586.872 -316.829)" fill="#12263f"/></g></g></g></svg>