<svg xmlns="http://www.w3.org/2000/svg" xmlns:xlink="http://www.w3.org/1999/xlink" width="144" height="144" viewBox="0 0 144 144"><defs><clipPath id="a"><rect width="106" height="106" transform="translate(1230 648)" fill="#fff"/></clipPath></defs><g transform="translate(-461 -3046)"><rect width="144" height="144" transform="translate(461 3046)" fill="none"/><g transform="translate(-750 2417)" clip-path="url(#a)"><g transform="translate(1230 652.143)"><g transform="translate(2.071 2.071)"><g transform="translate(35.396 72.914)"><path d="M61.151,75.018H30.028l3-11.6H58.148Z" transform="translate(-30.028 -63.418)" fill="#8aa8bd"/></g><g transform="translate(26.929 84.514)"><path d="M66.742,81.829H27.8a4.557,4.557,0,0,1,0-9.114H66.742a4.557,4.557,0,0,1,0,9.114Z" transform="translate(-23.242 -72.715)" fill="#e2e9ee"/></g><path d="M95.289,77.895H9.946A8.286,8.286,0,0,1,1.66,69.609V13.266A8.286,8.286,0,0,1,9.946,4.98H95.289a8.286,8.286,0,0,1,8.286,8.286V69.609A8.286,8.286,0,0,1,95.289,77.895Z" transform="translate(-1.66 -4.98)" fill="#99ebfa"/><g transform="translate(0 58)"><path d="M103.575,51.465v6.629a8.286,8.286,0,0,1-8.286,8.286H9.946A8.286,8.286,0,0,1,1.66,58.093V51.465Z" transform="translate(-1.66 -51.465)" fill="#e2e9ee"/></g><g transform="translate(0 47.423)"><path d="M3.291,73.806a5.567,5.567,0,0,1,0-7.874L26.235,42.988l7.874,7.874L11.164,73.806a5.567,5.567,0,0,1-7.874,0Z" transform="translate(-1.66 -42.988)" fill="#ffcd69"/></g><g transform="translate(16.9 17.124)"><circle cx="22.924" cy="22.924" r="22.924" fill="#fff"/></g><g transform="translate(25.372 31.279)"><ellipse cx="14.452" cy="8.769" rx="14.452" ry="8.769" fill="#ccf5fc"/></g><g transform="translate(34.369 34.593)"><circle cx="5.455" cy="5.455" r="5.455" fill="#ff7b79"/></g></g><path d="M95.7,3.32H62.35a2.071,2.071,0,0,0,0,4.143H95.7a6.221,6.221,0,0,1,6.214,6.214V61.162h-40.6a24.991,24.991,0,1,0-41.643-4.3L15.211,61.32H4.143V13.677a6.221,6.221,0,0,1,6.214-6.214h33.35a2.071,2.071,0,1,0,0-4.143H10.357A10.369,10.369,0,0,0,0,13.677V70.02a10.4,10.4,0,0,0,1.424,5.236A7.638,7.638,0,0,0,13.04,85.1l4.72-4.72H37.795l-1.931,7.457H33.557a6.629,6.629,0,0,0,0,13.257H72.5a6.629,6.629,0,0,0,0-13.257H70.194l-1.931-7.457H95.7A10.369,10.369,0,0,0,106.057,70.02V13.677A10.369,10.369,0,0,0,95.7,3.32ZM41.9,24.587A20.852,20.852,0,1,1,21.043,45.44,20.876,20.876,0,0,1,41.9,24.587ZM11.068,65.463,4.481,72.051a6.2,6.2,0,0,1-.338-2.031V65.463Zm-.957,16.7a3.5,3.5,0,1,1-4.944-4.944L21.93,60.461A25.2,25.2,0,0,0,26.875,65.4Zm64.875,12.3A2.488,2.488,0,0,1,72.5,96.949H33.557a2.486,2.486,0,0,1,0-4.971H72.5A2.488,2.488,0,0,1,74.986,94.463Zm-9.072-6.629H40.143l1.931-7.457h21.91ZM95.7,76.235H21.9l8.568-8.568A24.949,24.949,0,0,0,57.047,65.3h44.868V70.02A6.221,6.221,0,0,1,95.7,76.235Z" transform="translate(0 -3.32)"/><path d="M36.858,50.07a18.322,18.322,0,0,0,16.288-9.882,2.072,2.072,0,0,0,0-1.917,18.365,18.365,0,0,0-32.577,0,2.072,2.072,0,0,0,0,1.917A18.322,18.322,0,0,0,36.858,50.07Zm0-14.224a3.383,3.383,0,1,1-3.383,3.383A3.387,3.387,0,0,1,36.858,35.846Zm12.068,3.383a14.188,14.188,0,0,1-7.435,5.925,7.513,7.513,0,0,0,0-11.849A14.188,14.188,0,0,1,48.926,39.229ZM32.225,33.3a7.513,7.513,0,0,0,0,11.849,14.186,14.186,0,0,1-7.435-5.925A14.189,14.189,0,0,1,32.225,33.3Z" transform="translate(5.037 2.89)"/><path d="M57.673,24.178a2.071,2.071,0,0,0,2.071,2.071H80.584a2.071,2.071,0,1,0,0-4.143H59.745A2.072,2.072,0,0,0,57.673,24.178Z" transform="translate(14.288 1.334)"/><path d="M78.827,18.28a2.071,2.071,0,1,0,0-4.143H66.836a2.071,2.071,0,1,0,0,4.143Z" transform="translate(16.044 -0.641)"/><path d="M59.6,14.138a2.076,2.076,0,1,0,1.465.607A2.086,2.086,0,0,0,59.6,14.138Z" transform="translate(14.253 -0.64)"/><path d="M77.911,33.611a2.07,2.07,0,1,0-1.464.607A2.087,2.087,0,0,0,77.911,33.611Z" transform="translate(18.425 3.308)"/><path d="M68.1,34.218a2.073,2.073,0,1,0-1.465-.607A2.086,2.086,0,0,0,68.1,34.218Z" transform="translate(16.356 3.308)"/><path d="M61.21,33.611a2.072,2.072,0,1,0-1.465.607A2.085,2.085,0,0,0,61.21,33.611Z" transform="translate(14.288 3.308)"/><path d="M59.745,42.187h6.65a2.071,2.071,0,1,0,0-4.143h-6.65a2.071,2.071,0,0,0,0,4.143Z" transform="translate(14.288 5.282)"/><path d="M70.308,40.115a2.072,2.072,0,0,0,2.071,2.071H79.2a2.071,2.071,0,1,0,0-4.143H72.379A2.072,2.072,0,0,0,70.308,40.115Z" transform="translate(17.418 5.282)"/><path d="M42.911,7.463a2.073,2.073,0,1,0-1.465-.607A2.086,2.086,0,0,0,42.911,7.463Z" transform="translate(10.117 -3.32)"/></g></g></g></svg>