<svg xmlns="http://www.w3.org/2000/svg" width="227.636" height="163.072" viewBox="0 0 227.636 163.072"><g transform="translate(-1010.682 -6399)"><g transform="translate(7720.318 12211.083)"><path d="M295.2,301.082s-38.447-32.828-9.22-63.942c31.117-33.126,3.549-75.653,45.789-92.812,45.667-18.551,57.417,14.122,76.536,9.105,38.132-10.007,86.5-5.079,78.452,43.527-10.1,61.015,31.345,53.232,6.728,104.325Z" transform="translate(-6984.646 -5950.657)" fill="#fed5b1"/><path d="M.359,0H216.944a.359.359,0,0,1,.359.359v0a.359.359,0,0,1-.359.359H.359A.359.359,0,0,1,0,.359v0A.359.359,0,0,1,.359,0Z" transform="translate(-6699.303 -5649.73)" fill="#233862"/></g><g transform="translate(466.708 6314.271)"><g transform="translate(615.403 140.001)"><rect width="49.724" height="34.658" fill="#12263f"/><rect width="47.11" height="32.576" transform="translate(1.309 1.043)" fill="#529d2e"/><rect width="20.41" height="16.295" transform="translate(6.228 4.469)" fill="#a2f476"/><rect width="19.856" height="7.118" transform="translate(24.862 6.863)" fill="#a2f476"/><rect width="11.875" height="1.606" transform="translate(32.654 20.376)" fill="#a2f476"/><rect width="4.693" height="4.693" transform="translate(31.93 25.006)" fill="#a2f476"/><path d="M634.678,132.6l-18.284,32.576H600.086L618.349,132.6Z" transform="translate(-595.007 -131.558)" fill="#fff" opacity="0.65"/><path d="M628.88,132.6,610.6,165.176h-2.137L626.723,132.6Z" transform="translate(-585.117 -131.558)" fill="#fff" opacity="0.65"/><rect width="9.575" height="6.173" transform="translate(20.074 34.265)" fill="#12263f"/><path d="M625.7,151.446H604.752a.737.737,0,0,1,0-1.474H625.7a.737.737,0,1,1,0,1.474Z" transform="translate(-590.366 -111.041)" fill="#12263f"/></g><g transform="translate(610.69 180.164)"><rect width="107.352" height="15.336" transform="translate(0.274 0.274)" fill="#a2f476"/><path d="M703.222,166.419H595.869a.274.274,0,0,1-.273-.273V150.81a.274.274,0,0,1,.273-.273H703.222a.273.273,0,0,1,.273.273v15.337A.273.273,0,0,1,703.222,166.419Zm-107.081-.545H702.949V151.082H596.141Z" transform="translate(-595.596 -150.537)" fill="#fff"/><g transform="translate(1.234 1.874)"><path d="M648.23,163.534h-51.8a.274.274,0,0,1-.273-.273V151.669a.273.273,0,0,1,.273-.273h51.8a.273.273,0,0,1,.273.273v11.592A.274.274,0,0,1,648.23,163.534Zm-51.523-.545h51.25V151.941h-51.25Z" transform="translate(-596.162 -151.396)" fill="#fff"/><g transform="translate(53.089)"><path d="M672.573,163.534h-51.8a.274.274,0,0,1-.273-.273V151.669a.273.273,0,0,1,.273-.273h51.8a.273.273,0,0,1,.273.273v11.592A.274.274,0,0,1,672.573,163.534Zm-51.525-.545H672.3V151.941H621.048Z" transform="translate(-620.503 -151.396)" fill="#fff"/></g></g></g><g transform="translate(651.064 148.838)"><g transform="translate(23.207 68.516)"><rect width="3.186" height="28.689" transform="translate(15.392)" fill="#12263f"/><path d="M659.038,181.677h-34.29l15.392-1.6,3.187-.126Z" transform="translate(-624.748 -152.988)" fill="#12263f"/></g><path d="M650.49,156.241c-1.01,6.151-2.042,12.321-3.073,18.471-.6,3.73-1.226,7.44-1.85,11.169h-27.4a2.972,2.972,0,0,1-2.709-1.444c0-.017.646-4.055.646-4.055a27.113,27.113,0,0,1-.065-4.931c.8-12.046,9.049-21,18.7-22.493C641.291,151.929,647.31,154.523,650.49,156.241Z" transform="translate(-612.517 -116.627)" fill="#fc8116"/><path d="M687.783,161.521v12.914A4.286,4.286,0,0,1,684,176.9H618.29a2.905,2.905,0,0,1-2.709-1.987,3.492,3.492,0,0,1-.236-1.254v-8.87a3.385,3.385,0,0,1,.816-2.246,2.8,2.8,0,0,1,2.129-1.016Z" transform="translate(-612.645 -106.238)" fill="#fc8116"/><path d="M662.77,192.517H632.838a6.768,6.768,0,0,1-6.475-8.731L634.794,156c3.845-12.672,47.372-10.87,44.225-.5l-9.773,32.208A6.766,6.766,0,0,1,662.77,192.517Z" transform="translate(-599.983 -123.262)" fill="#fc8116"/><g transform="translate(3.292 55.017)"><path d="M657.884,161.944H615.89a.273.273,0,0,1,0-.545h41.994a.273.273,0,0,1,0,.545Z" transform="translate(-615.617 -161.399)" fill="#fff"/></g><g transform="translate(27.695 30.367)"><path d="M627.077,175.292c-.222-.055-.3-.207-.26-.351l7.479-24.652a.281.281,0,0,1,.34-.181.272.272,0,0,1,.183.34l-7.481,24.65A.275.275,0,0,1,627.077,175.292Z" transform="translate(-626.806 -150.097)" fill="#fff"/></g><path d="M630.5,168.184l3.969-10.783c.17-.46.545-1.642,1.176-3.193a50.538,50.538,0,0,1,2.133-4.587,4.916,4.916,0,0,0-1.605-4.076,4.7,4.7,0,0,0-5.01-.606q-1.3,4.24-2.591,8.478a28.113,28.113,0,0,0-4.676,13.536Z" transform="translate(-602.544 -126.363)" fill="#ff9769"/><path d="M651.25,162.859c-1.775,1.37-3.549,2.722-5.322,4.092a28.956,28.956,0,0,1-4.517-6.188c-.181-.345-.362-.707-.5-1.049a25.044,25.044,0,0,1-1.289-3.084c-.262-.787-.484-1.511-.646-2.177-1.531-2.541-3.064-5.06-4.6-7.6a4.689,4.689,0,0,1,3.788-3.326,4.955,4.955,0,0,1,4.113,1.533,47.279,47.279,0,0,0,2,4.635c.726,1.514,1.37,2.58,1.592,3.005C647.662,156.106,649.455,159.472,651.25,162.859Z" transform="translate(-590.168 -127.544)" fill="#ff9769"/><path d="M619,167.337q-1.04-4.9-2.078-9.8l34.159-1.051q-3.118,5.549-6.233,11.1Z" transform="translate(-610.789 -112.187)" fill="#ff9769"/><path d="M626.418,167.958q-2.349-4.865-4.7-9.732l28.391-2.268q2.464,3.648,4.931,7.3l-4.371,4.844Z" transform="translate(-605.114 -112.809)" fill="#12263f"/><path d="M628.5,145.669q-1.862.131-3.719.27c-.421,2.323-.742,4.467-.988,6.393-.124.966-.227,1.876-.321,2.72-.12,1.056-.179,1.863-.19,1.985-.65,8.02,2.724,10.151,2.724,10.151a4.783,4.783,0,0,0,3.956.48,4.64,4.64,0,0,0,2.694-4.2,79.236,79.236,0,0,1-2.953-10.386C629.149,150.452,628.763,147.97,628.5,145.669Z" transform="translate(-603.368 -124.96)" fill="#ff9769"/><g transform="translate(43.764 68.982)"><path d="M662.994,168.347H634.446a.273.273,0,1,1,0-.545h28.548a.273.273,0,0,1,0,.545Z" transform="translate(-634.173 -167.802)" fill="#12263f"/></g><path d="M651.181,173.2a16.748,16.748,0,0,1-10.48,4.432,16.926,16.926,0,0,1-11.937-4.373l1.583-6.242q-1.633-10-3.263-20.011a18.59,18.59,0,0,1,9.04-4.212,18.942,18.942,0,0,1,12.578,2.484l-.083,19.342Q649.9,168.913,651.181,173.2Z" transform="translate(-598.781 -128.622)" fill="#ff9769"/><path d="M632.842,139.859c-.185.556-.362,1.1-.547,1.658-.2.6-.393,1.213-.6,1.815-.353,1.088-.715,2.168-1.08,3.248a4.146,4.146,0,0,0,2.768,1.389,4.362,4.362,0,0,0,3.57-1.723,12.115,12.115,0,0,1-.58-2.1,12.241,12.241,0,0,1-.07-3.9Z" transform="translate(-594.606 -131.822)" fill="#ff9769"/><path d="M632.709,140.067l-1,1.2c-.2.6-.393,1.213-.6,1.815,1.191-.748,2.382-1.516,3.573-2.284C634.04,140.56,633.379,140.307,632.709,140.067Z" transform="translate(-594.021 -131.577)" fill="#12263f"/><path d="M636.748,143.449l1.232-4.419a5.5,5.5,0,0,0-2.628-1.867,5.223,5.223,0,0,0-3.343.017l-1.141,4.087a.642.642,0,0,1-.266.177c-.137.041-.218.013-.275.072-.079.076-.072.3.246.892a2.654,2.654,0,0,0,1.882,3.053l.146.046A3.213,3.213,0,0,0,636.748,143.449Z" transform="translate(-595.001 -135.319)" fill="#ff9769"/><path d="M637.172,144.761a3.809,3.809,0,0,1-.521-1.553c-.124-1.256.6-2.142.268-2.438-.258-.229-.681.281-1.324.137-.96-.214-.958-1.564-1.8-1.732-.685-.137-.925.722-2.015.818a1.937,1.937,0,0,1-1.922-.848,1.83,1.83,0,0,1,.347-1.577c1.141-1.7,4.05-1.533,4.563-1.115a4.648,4.648,0,0,0,.726.441c.445.22.652.02,1.158.122a2.636,2.636,0,0,1,1.448,1.086,3.718,3.718,0,0,1,.7,1.306c.183.637.024.779-.491,3.522a2.7,2.7,0,0,1-.545,1.311A2.414,2.414,0,0,1,637.172,144.761Z" transform="translate(-595.596 -136.174)" fill="#12263f"/><path d="M630.5,140.132c-.115.216.266.785.733.89.859.192,1.78-1.254,1.638-1.433-.087-.111-.528.334-1.485.432C630.854,140.077,630.577,139.983,630.5,140.132Z" transform="translate(-594.774 -132.163)" fill="#fff"/><path d="M644.521,149.02c-2.157,1.392-4.294,2.761-6.452,4.153a25.043,25.043,0,0,1-1.289-3.084C639.36,149.724,641.921,149.382,644.521,149.02Z" transform="translate(-587.33 -121.003)" fill="#12263f"/><path d="M651.127,180.539a32.018,32.018,0,0,1-23.684-6.929q-.18-13.22-.358-26.441a16.564,16.564,0,0,1,7.821-4.362,3.189,3.189,0,0,0,1.448,1.228,4.163,4.163,0,0,0,4.519-1.6,13.078,13.078,0,0,1,5.813,1.411,12.713,12.713,0,0,1,2.384,1.586Z" transform="translate(-598.781 -128.781)" fill="#529d2e"/><path d="M645.611,155.9q-4.554,1.616-9.112,3.234l.63-11.088q-.537-2.437-1.071-4.875a7.253,7.253,0,0,1,2.037.34C644.106,145.437,645.474,154.851,645.611,155.9Z" transform="translate(-588.183 -127.911)" fill="#529d2e"/><g transform="translate(32.97 35.816)"><path d="M675.528,155.325c1.706.578,2.681,1.928,2.373,3.311q-2.849,12.762-5.669,25.514a3.065,3.065,0,0,1-.718,1.272,7.357,7.357,0,0,1-5.272,1.863H629.224l1.258-5.73a23.143,23.143,0,0,1-.031-5.911c1.5-12.179,12.82-21.134,25.968-22.674A44.4,44.4,0,0,1,675.528,155.325Z" transform="translate(-629.224 -152.443)" fill="#fc8116"/><g transform="translate(0.802)"><path d="M629.865,177.661a.274.274,0,0,1-.273-.286c.659-12.5,11.749-22.816,26.371-24.53a43.162,43.162,0,0,1,18.055,2,.272.272,0,1,1-.164.519,42.773,42.773,0,0,0-17.828-1.974c-14.356,1.686-25.245,11.786-25.889,24.016A.276.276,0,0,1,629.865,177.661Z" transform="translate(-629.592 -152.595)" fill="#fff"/></g></g><path d="M631.958,153.611c-.024,1.245-.042,2.489-.059,3.73,2.277.624,4.384,1.132,6.279,1.549.953.207,1.849.388,2.683.558,1.043.212,1.841.342,1.961.362,7.933,1.354,10.351-1.817,10.351-1.817a4.176,4.176,0,0,0,1-4.059,4.24,4.24,0,0,0-4.127-2.894,78.993,78.993,0,0,1-10.6,2.026C636.78,153.388,634.274,153.552,631.958,153.611Z" transform="translate(-593.095 -118.618)" fill="#ff9769"/><g transform="translate(0 2.724)"><rect width="23.39" height="31.992" fill="#12263f"/><rect width="19.529" height="27.847" transform="translate(1.93 0.927)" fill="#fff"/><rect width="7.56" height="2.081" transform="translate(8.041)" fill="#529d2e"/><g transform="translate(3.913 4.607)"><path d="M618.269,146.732a.273.273,0,0,1-.266-.212,5.057,5.057,0,0,0-1.156-2.238,4.792,4.792,0,0,0-.829-.726.273.273,0,1,1,.312-.447,5.154,5.154,0,0,1,.92.807,5.454,5.454,0,0,1,.922,1.418c.111-.643.238-1.282.378-1.911.277-1.25.613-2.493.995-3.7a.275.275,0,0,1,.342-.179.273.273,0,0,1,.177.342c-.377,1.191-.707,2.419-.979,3.649-.216.971-.4,1.965-.548,2.96a.276.276,0,0,1-.257.233Z" transform="translate(-615.901 -139.535)" fill="#12263f"/></g><g transform="translate(4.139 13.434)"><path d="M618.371,150.779a.273.273,0,0,1-.266-.209,5.053,5.053,0,0,0-1.156-2.24,4.956,4.956,0,0,0-.827-.726.272.272,0,0,1,.31-.447,5.357,5.357,0,0,1,.923.809,5.458,5.458,0,0,1,.92,1.416c.111-.637.238-1.278.377-1.911.275-1.232.608-2.478.995-3.7a.272.272,0,0,1,.519.164c-.382,1.206-.711,2.434-.979,3.651-.218.981-.4,1.976-.547,2.96a.272.272,0,0,1-.257.231Z" transform="translate(-616.005 -143.583)" fill="#12263f"/></g><g transform="translate(10.056 6.491)"><path d="M627.929,140.964H619a.282.282,0,1,1,0-.565h8.927a.282.282,0,0,1,0,.565Z" transform="translate(-618.718 -140.399)" fill="#a2f476"/><path d="M627.929,141.619H619a.281.281,0,1,1,0-.563h8.927a.281.281,0,1,1,0,.563Z" transform="translate(-618.718 -139.623)" fill="#a2f476"/><path d="M627.929,142.307H619a.281.281,0,1,1,0-.563h8.927a.281.281,0,1,1,0,.563Z" transform="translate(-618.718 -138.811)" fill="#a2f476"/><path d="M627.929,142.965H619a.282.282,0,1,1,0-.565h8.927a.282.282,0,0,1,0,.565Z" transform="translate(-618.718 -138.036)" fill="#a2f476"/></g><g transform="translate(10.056 15.066)"><path d="M627.929,144.894H619a.281.281,0,1,1,0-.563h8.927a.281.281,0,1,1,0,.563Z" transform="translate(-618.718 -144.331)" fill="#a2f476"/><path d="M627.929,145.551H619a.281.281,0,1,1,0-.563h8.927a.281.281,0,1,1,0,.563Z" transform="translate(-618.718 -143.555)" fill="#a2f476"/><path d="M627.929,146.24H619a.282.282,0,1,1,0-.565h8.927a.282.282,0,0,1,0,.565Z" transform="translate(-618.718 -142.744)" fill="#a2f476"/><path d="M627.929,146.895H619a.281.281,0,1,1,0-.563h8.927a.281.281,0,1,1,0,.563Z" transform="translate(-618.718 -141.968)" fill="#a2f476"/></g></g><path d="M627.186,147.756a2.049,2.049,0,0,0-.567-1.117,2.284,2.284,0,0,0-2.351-.432c-.713-.037-1.328-.275-1.418-.63-.109-.43.532-1.152,1.732-1.479a3.748,3.748,0,0,1,4.157,1.605,2.957,2.957,0,0,1,.19,1.928Z" transform="translate(-603.796 -126.923)" fill="#ff9769"/><path d="M632.422,155.591q-3.16-1.381-6.318-2.763l2.14-8.223,4.179,2.9Z" transform="translate(-599.939 -126.217)" fill="#529d2e"/><g transform="translate(31.173 30.259)"><path d="M635.1,154.321c0,2.358-.611,4.27-1.363,4.27s-1.363-1.913-1.363-4.27.611-4.273,1.363-4.273S635.1,151.961,635.1,154.321Z" transform="translate(-623.713 -150.048)" fill="#ff9769"/><path d="M638.958,153.11c.547,1.317-.789,3.623-2.369,3.95-1.424.294-1.97-1.243-6.425-3.95-1.2-.731-1.821-1.016-1.76-1.328.138-.687,3.522-.641,6.157-.214C637.155,151.986,638.546,152.12,638.958,153.11Z" transform="translate(-628.4 -148.623)" fill="#ff9769"/></g><rect width="67.743" height="2.562" transform="translate(5.645 69.943)" fill="#12263f"/><g transform="translate(4.955 47.946)"><path d="M616.967,184.491a1.8,1.8,0,0,0,1.093.493,72.924,72.924,0,0,0,7.841.092c1.963-.044,3.719-.109,4.537-.135a5.331,5.331,0,0,0,.055-.7,6.277,6.277,0,0,0-.031-.862c-.013-.083-.024-.164-.044-.24a6.545,6.545,0,0,0-.39-1.333,6.32,6.32,0,0,1-.127-3.594c-1.354-.2-2.713-.316-4.074-.443-.554.384-1.1.759-1.647,1.143-.164.109-.329.222-.5.342-.1.072-.207.142-.316.218-.166.116-.329.231-.5.345-.116.083-.233.159-.349.24l-.493.345-.319.218c-.38.266-.491.338-.5.345-.626.427-3.95.48-4.606,1.695A1.741,1.741,0,0,0,616.967,184.491Z" transform="translate(-616.277 -134.994)" fill="#12263f"/><path d="M624.853,201.333l-4.1-.39q3.35-20.974,6.7-41.948l.316-.838,10.013,3.272a37.368,37.368,0,0,1-1.4,14.515c-1.062,3.492-2.249,5.492-5.256,11.706C629.4,191.224,627.235,195.85,624.853,201.333Z" transform="translate(-611.214 -158.157)" fill="#ff9769"/><path d="M616.57,183.133q3.318-.324,6.635-.646l-3.978-3.01a2.456,2.456,0,0,0-2.816,2.192A2.936,2.936,0,0,0,616.57,183.133Z" transform="translate(-616.38 -132.999)" fill="#12263f"/><path d="M616.976,181.857H630.1a.557.557,0,0,0,0-1.115H616.976a.557.557,0,1,0,0,1.115Z" transform="translate(-616.334 -131.483)" fill="#12263f"/></g><g transform="translate(3.665 44.371)"><path d="M642.91,175.266a1.787,1.787,0,0,0,.462-1.1,72.648,72.648,0,0,0-.116-7.841c-.094-1.961-.207-3.714-.255-4.53a5.313,5.313,0,0,0-.7-.037,6.164,6.164,0,0,0-.862.055c-.083.013-.163.028-.24.048a6.654,6.654,0,0,0-1.322.425,6.31,6.31,0,0,1-3.588.222c-.166,1.359-.247,2.722-.336,4.083.4.545.789,1.077,1.184,1.616.116.161.233.323.358.491.074.1.148.2.227.312.12.161.238.323.358.491.085.113.164.227.249.34l.358.484c.074.1.148.205.227.312.275.373.351.482.358.491.445.615.582,3.935,1.815,4.558A1.735,1.735,0,0,0,642.91,175.266Z" transform="translate(-591.969 -150.334)" fill="#12263f"/><path d="M660.066,168.673q-.138,2.058-.279,4.111l-42.112-5.592-.846-.292c-1.542-3.206-1.361-6.6.48-8.58a5.579,5.579,0,0,1,2.526-1.518,37.98,37.98,0,0,1,14.547,1.012c3.518.971,5.549,2.1,11.839,4.947C649.841,164.4,654.524,166.44,660.066,168.673Z" transform="translate(-615.788 -156.518)" fill="#ff9769"/><path d="M641.464,171.753l-.82-6.615q-1.453,2.028-2.905,4.055A2.459,2.459,0,0,0,640,171.952,2.929,2.929,0,0,0,641.464,171.753Z" transform="translate(-589.875 -146.337)" fill="#12263f"/><path d="M640.338,175.359l-.347-13.121a.558.558,0,0,0-1.115.031l.347,13.121a.558.558,0,1,0,1.115-.031Z" transform="translate(-588.52 -150.401)" fill="#12263f"/></g><g transform="translate(19.619 56.677)"><path d="M634.746,164.217c-.035,0-11.407-1.514-11.407-1.514a.272.272,0,0,1-.233-.305.268.268,0,0,1,.305-.236l11.372,1.512a.273.273,0,0,1-.037.543Z" transform="translate(-623.103 -162.16)" fill="#12263f"/></g></g><g transform="translate(582.816 125.451)"><path d="M600.741,132.508c2.1,3.217,4.177,6.412,6.271,9.629l1.856,2.851,3.217,4.942c-1.051,1.878-2.083,3.762-3.11,5.625l-6.827-8.22c-2.894-3.466-5.767-6.947-8.663-10.414,2.746-3.324,5.317-4.148,6.91-4.366C600.517,132.539,600.639,132.525,600.741,132.508Z" transform="translate(-570.216 -117.117)" fill="#ff9769"/><path d="M602.7,150.526l7.224-5.965c-.8-1.978-5.025-11.954-12.868-12.979a10.265,10.265,0,0,0-2.15-.05l-1.291,7.6Q598.154,144.83,602.7,150.526Z" transform="translate(-570.068 -118.311)" fill="#12263f"/><g transform="translate(0 53.481)"><path d="M611.746,154.594H587.107a2.311,2.311,0,0,1,0-4.622h24.639a2.311,2.311,0,0,1,0,4.622Z" transform="translate(-580.477 -149.972)" fill="#12263f"/><g transform="translate(0 2.643)"><rect width="1.833" height="56.273" transform="translate(17.773)" fill="#12263f"/><g transform="translate(0 50.37)"><path d="M583.088,189.316c-.233-.068-.308-.222-.257-.364a22.428,22.428,0,0,1,10.207-12.244,20.973,20.973,0,0,1,8.041-2.425.264.264,0,0,1,.3.246.275.275,0,0,1-.246.3,20.441,20.441,0,0,0-7.832,2.362,21.875,21.875,0,0,0-9.954,11.948A.271.271,0,0,1,583.088,189.316Z" transform="translate(-582.816 -174.278)" fill="#12263f"/></g><g transform="translate(19.338 50.369)"><path d="M609.972,189.316a.274.274,0,0,1-.257-.181,21.871,21.871,0,0,0-9.952-11.948,20.442,20.442,0,0,0-7.832-2.362.275.275,0,0,1-.246-.3.259.259,0,0,1,.3-.246,21,21,0,0,1,8.042,2.425,22.431,22.431,0,0,1,10.205,12.244.277.277,0,0,1-.257.364Z" transform="translate(-591.683 -174.278)" fill="#12263f"/></g></g><rect width="4.452" height="1.638" transform="translate(16.724 4.237)" fill="#12263f"/><rect width="6.929" height="11.528" transform="translate(15.294 44.28)" fill="#12263f"/><g transform="translate(9.269 53.688)"><path d="M587.338,189.769a.277.277,0,0,1-.27-.3,19.5,19.5,0,0,1,4.174-10.059,19.931,19.931,0,0,1,5.618-4.783.273.273,0,0,1,.273.473,19.352,19.352,0,0,0-5.468,4.652,18.975,18.975,0,0,0-4.057,9.778A.272.272,0,0,1,587.338,189.769Z" transform="translate(-587.066 -174.587)" fill="#12263f"/></g></g><path d="M603.923,164.344q-6.942-.576-13.88-1.147,2.238-14.729,4.478-29.455A6.707,6.707,0,0,1,606.348,137Z" transform="translate(-574.281 -118.573)" fill="#ff9769"/><path d="M594.1,135.55a3.069,3.069,0,0,0,5.235,1.869q-.046-2.463.161-5.016c.035-.458.072-.914.124-1.383a3.575,3.575,0,0,0,.044-.408c0-.015.111-.875.111-.875-.888-.3-1.775-.6-2.678-.9a31.3,31.3,0,0,1-1.234,3.265A35.16,35.16,0,0,1,594.1,135.55Z" transform="translate(-569.489 -121.451)" fill="#ff9769"/><path d="M595.623,129.757c.687.556,1.389,1.115,2.074,1.686.035-.458.072-.914.124-1.383a3.576,3.576,0,0,0,.044-.408Z" transform="translate(-567.691 -120.49)" fill="#12263f"/><g transform="translate(26.761 1.244)"><path d="M598.127,130.041l-.547-.279.135-1.051.624-.321a.875.875,0,0,0,.268.646c.109.092.2.1.227.174C598.878,129.319,598.788,129.542,598.127,130.041Z" transform="translate(-592.14 -123.225)" fill="#ff9769"/><path d="M598.129,134.8l.153.015a2.653,2.653,0,0,0,2.957-2.181l.678-5.274a5.234,5.234,0,0,0-3.073-1.317,5.509,5.509,0,0,0-3.149.7l-.585,4.55A3.212,3.212,0,0,0,598.129,134.8Z" transform="translate(-595.086 -126.022)" fill="#ff9769"/><path d="M598.7,129.713a.864.864,0,1,1-1.544-.759,6.636,6.636,0,0,1,.8.334A6.56,6.56,0,0,1,598.7,129.713Z" transform="translate(-592.789 -122.559)" fill="#fff"/></g><path d="M608.406,174.222c-3.167,1.531-6.31,3.084-9.474,4.615-.122-.342-.222-.685-.345-1.027l-1.208-3.749q-3.658-11.28-7.359-22.578c.022-1.612.042-3.245.042-4.859,3.446-.443,6.875-.866,10.3-1.309q3.808,13.728,7.64,27.435a5.986,5.986,0,0,0,.161.584C608.245,173.635,608.326,173.918,608.406,174.222Z" transform="translate(-574.308 -101.993)" fill="#ff9769"/><path d="M618.67,172.989c-3,1.9-6.028,3.788-9.032,5.684-.807-1.33-1.612-2.681-2.419-4.011-.645-1.088-1.291-2.177-1.956-3.265q-5.231-8.709-10.441-17.4c-1.533-2-3.084-3.969-4.617-5.946,4.436-.787,8.89-1.592,13.326-2.38Q611.089,159.343,618.67,172.989Z" transform="translate(-574.09 -101.568)" fill="#ff9769"/><path d="M609.322,201.429q2.035-.317,4.07-.639l-9.252-41.46-.367-.818-9.795,3.878a37.377,37.377,0,0,0,2.279,14.4c1.274,3.42,2.58,5.344,5.963,11.363C604.166,191.616,606.611,196.1,609.322,201.429Z" transform="translate(-569.66 -86.405)" fill="#ff9769"/><path d="M618.14,202.5l4-1.008q-6.491-20.225-12.979-40.448-.475-1.426-.949-2.848l-9.145,5.228a40.12,40.12,0,0,0,3.83,15.725c1.566,3.239,3.01,5.023,6.969,10.774C612.113,193.2,614.957,197.444,618.14,202.5Z" transform="translate(-563.629 -86.774)" fill="#ff9769"/><g transform="translate(38.729 114.101)"><path d="M614.149,184.488a1.786,1.786,0,0,1-1.091.491,73.4,73.4,0,0,1-7.841.094c-1.965-.044-3.721-.109-4.537-.137a5.293,5.293,0,0,1-.054-.7,5.966,5.966,0,0,1,.031-.864c.011-.083.024-.164.041-.24a6.7,6.7,0,0,1,.391-1.333,6.313,6.313,0,0,0,.129-3.594c1.352-.2,2.713-.316,4.072-.441.554.382,1.1.759,1.647,1.141.163.109.329.225.5.345.1.07.207.142.316.218.166.113.329.229.5.345.116.081.231.157.347.24.166.113.329.229.493.342l.318.22c.382.264.491.338.5.342.626.43,3.95.48,4.606,1.695A1.744,1.744,0,0,1,614.149,184.488Z" transform="translate(-600.516 -177.766)" fill="#12263f"/><path d="M614.255,181.855H601.129a.558.558,0,0,1,0-1.117h13.125a.558.558,0,1,1,0,1.117Z" transform="translate(-600.573 -174.256)" fill="#529d2e"/></g><g transform="translate(53.28 114.101)"><path d="M620.821,184.488a1.786,1.786,0,0,1-1.093.491,73.347,73.347,0,0,1-7.839.094c-1.965-.044-3.721-.109-4.537-.137a4.942,4.942,0,0,1-.054-.7,6.263,6.263,0,0,1,.028-.864c.013-.083.026-.164.044-.24a6.706,6.706,0,0,1,.39-1.333,6.313,6.313,0,0,0,.129-3.594c1.352-.2,2.713-.316,4.072-.441.554.382,1.1.759,1.647,1.141.163.109.329.225.5.345.1.07.207.142.316.218.166.113.329.229.5.345.116.081.231.157.347.24l.493.342.318.22c.382.264.491.338.5.342.626.43,3.95.48,4.606,1.695A1.744,1.744,0,0,1,620.821,184.488Z" transform="translate(-607.188 -177.766)" fill="#12263f"/><path d="M620.927,181.855H607.8a.558.558,0,0,1,0-1.117h13.126a.558.558,0,0,1,0,1.117Z" transform="translate(-607.245 -174.256)" fill="#529d2e"/></g><g transform="translate(45.444 10.05)"><path d="M606.1,133.2c.079,1.492-.464,3.123-.914,3.112-.344-.007-.587-.979-.713-1.474-.508-2.028-.3-4.637.257-4.774C605.212,129.945,606.022,131.6,606.1,133.2Z" transform="translate(-603.02 -130.059)" fill="#ff9769"/><path d="M607.785,138.455l-1.008,1.49q-1.564-.831-3.126-1.664l1.2-5.922.048-.689,5.355.955a1.7,1.7,0,0,1,1.348,2.094,4.851,4.851,0,0,1-.277,1.361,3.6,3.6,0,0,1-1.61,1.983A3.425,3.425,0,0,1,607.785,138.455Z" transform="translate(-603.652 -128.157)" fill="#ff9769"/></g><path d="M604.018,157.893c-3.549.443-7.1.885-10.624,1.311l1.208,3.749c3.186-1.492,6.391-2.984,9.577-4.476Z" transform="translate(-570.323 -87.136)" fill="#12263f"/><path d="M608.217,156.322c-3.045,1.915-6.107,3.85-9.152,5.764-.645-1.088-1.291-2.177-1.956-3.265.665-.423,1.311-.868,1.976-1.311C602.13,157.107,605.172,156.723,608.217,156.322Z" transform="translate(-565.936 -88.992)" fill="#12263f"/><path d="M612.582,168.649q-6.71,2.11-13.418,4.223-2.565-11.905-5.132-23.806l4.975-3.392Z" transform="translate(-569.57 -101.568)" fill="#529d2e"/><path d="M610.676,170.195q-7.119,1.829-14.238,3.653a77.653,77.653,0,0,1-6.552-25.449l10.709-1.261Q605.636,158.668,610.676,170.195Z" transform="translate(-574.466 -99.837)" fill="#529d2e"/><g transform="translate(34.498 75.541)"><path d="M602.517,175.224a.272.272,0,0,1-.264-.207l-3.612-14.589a.272.272,0,0,1,.2-.331.269.269,0,0,1,.329.2l3.612,14.589a.273.273,0,0,1-.2.332A.224.224,0,0,1,602.517,175.224Z" transform="translate(-598.633 -160.087)" fill="#12263f"/></g><g transform="translate(32.857 72.821)"><path d="M599.794,162.108a.275.275,0,0,1-.233-.133l-1.64-2.722a.271.271,0,0,1,.094-.373.268.268,0,0,1,.373.094l1.64,2.72a.274.274,0,0,1-.233.414Z" transform="translate(-597.881 -158.839)" fill="#12263f"/></g><g transform="translate(26.629 48.794)"><path d="M603.83,167.77a.275.275,0,0,1-.251-.164l-8.53-19.4a.272.272,0,1,1,.5-.22l8.532,19.4a.271.271,0,0,1-.14.358A.24.24,0,0,1,603.83,167.77Z" transform="translate(-595.025 -147.823)" fill="#fff"/></g><path d="M608.209,168.063l-19.4-.5c-.081-3-.676-33.172,9.828-36.1a6.539,6.539,0,0,1,2.548-.177c.2,1.965,1.673,3.132,2.807,2.949,1.049-.168,1.592-1.457,1.642-1.579a26.474,26.474,0,0,1,2.578,4.75c.984,2.362,2.114,6.055,1.928,14.351A87.163,87.163,0,0,1,608.209,168.063Z" transform="translate(-575.78 -118.62)" fill="#12263f"/><path d="M604.1,138.223c-2.515,2.9-5.012,5.782-7.527,8.685l-2.227,2.569-3.863,4.456c-2.1-.491-4.19-.964-6.266-1.437l6.02-8.831c2.532-3.738,5.086-7.459,7.618-11.2,3.954,1.721,5.455,3.965,6.1,5.435C604,138.016,604.05,138.129,604.1,138.223Z" transform="translate(-581.167 -117.166)" fill="#ff9769"/><path d="M598.489,159.87q-1.6.968-3.2,1.924c-1.684-1.655-3.182-3.224-4.493-4.652-.659-.72-1.267-1.4-1.83-2.039-.707-.794-1.221-1.42-1.3-1.511-5.156-6.179-3.629-9.865-3.629-9.865A4.789,4.789,0,0,1,587,141.052a4.642,4.642,0,0,1,4.624,1.882,79.29,79.29,0,0,0,3.577,10.186C596.26,155.586,597.374,157.837,598.489,159.87Z" transform="translate(-581.619 -107.15)" fill="#ff9769"/><path d="M608.138,133.939q1.793.527,3.577,1.058c-.085,2.36-.229,4.523-.4,6.456-.083.971-.179,1.882-.266,2.726-.109,1.058-.222,1.858-.238,1.978-1.073,7.976-4.822,9.339-4.822,9.339a4.78,4.78,0,0,1-3.97-.375,4.64,4.64,0,0,1-1.736-4.678,79.532,79.532,0,0,0,5.1-9.518C606.485,138.476,607.39,136.133,608.138,133.939Z" transform="translate(-562.271 -115.427)" fill="#ff9769"/><path d="M594.251,151.293q-3.844-2.676-7.686-5.354c.351-1.3,3.189-11.211,11.767-13.985a14.855,14.855,0,0,1,5.459-.68q-.71,3.962-1.415,7.926Q598.312,145.245,594.251,151.293Z" transform="translate(-578.389 -118.606)" fill="#12263f"/><path d="M593.128,151.951c.124.216,1.852,3.23.8,4.334-.161.17-.39.3-1.176.412-2.055.305-3.4.506-4.578-.412a4.206,4.206,0,0,1-1.429-4,4.444,4.444,0,0,1,1.878-2.838l5.258-.91a5.222,5.222,0,0,0,.927,1.773c.635.781,1.3,1.1,1.223,1.57-.054.325-.447.506-.593.571A2.548,2.548,0,0,1,593.128,151.951Z" transform="translate(-578.253 -98.183)" fill="#ff9769"/><path d="M604.956,128.026a2.232,2.232,0,0,1-1.385,2.425c-1.145.458-2.419-.36-2.888-.661-.521-.334-.5-.473-.925-.661a2.974,2.974,0,0,0-2.582.124c-1.638.995-1.128,3.976-1.57,3.993s-1.354-3.091-.635-4.371a2.194,2.194,0,0,0,.38-1.228c-.015-.342-.122-.412-.127-.787,0-.155,0-.942.441-1.2.26-.15.423.031,1.008.063.914.05,1.051-.362,1.638-.22.689.168.794.811,1.261.757.416-.05.384-.574.881-.757.635-.233,1.472.321,1.985.661a6.67,6.67,0,0,0,.851.537c.38.19.486.185.724.314A2.091,2.091,0,0,1,604.956,128.026Z" transform="translate(-568.779 -125.451)" fill="#fc8116"/></g><circle cx="1.386" cy="1.386" r="1.386" transform="translate(635.077 186.108)" fill="#fff"/></g></g></svg>