<svg xmlns="http://www.w3.org/2000/svg" width="42" height="29.338" viewBox="0 0 42 29.338"><g transform="translate(-202.286 -3485)"><path d="M11.128,8.571H3.794A1.226,1.226,0,0,0,2.571,9.794V36.687A1.226,1.226,0,0,0,3.794,37.91h7.335a1.226,1.226,0,0,0,1.222-1.222V9.794a1.226,1.226,0,0,0-1.222-1.222ZM9.906,15.906H5.016V13.461h4.89ZM23.353,8.571H16.018A1.226,1.226,0,0,0,14.8,9.794V36.687a1.226,1.226,0,0,0,1.222,1.222h7.335a1.226,1.226,0,0,0,1.222-1.222V9.794a1.226,1.226,0,0,0-1.222-1.222ZM22.13,15.906h-4.89V13.461h4.89ZM31.8,10.462l-6.55,3.3a1.226,1.226,0,0,0-.542,1.642l11,21.834a1.226,1.226,0,0,0,1.642.542l6.55-3.3a1.226,1.226,0,0,0,.542-1.642L33.44,11a1.226,1.226,0,0,0-1.642-.542Zm6.223,26.226A1.222,1.222,0,1,1,36.8,35.465,1.222,1.222,0,0,1,38.022,36.687Z" transform="translate(199.715 3476.429)" fill="#12263f"/></g></svg>